<svg xmlns="http://www.w3.org/2000/svg" viewBox="0 0 479 130.98"><defs><style>.a{fill:#fbd33c;}.b{fill:#e0f0eb;}.c{fill:#d4e9df;}.d{fill:#e3f6f5;}.e{fill:#fcdf72;}.f{fill:#fbda5d;}.g{fill:#fce179;}.h{fill:#fde99f;}.i{fill:#fcdd66;}.j{fill:#fbd33d;}.k{fill:#18904e;}.l{fill:#39a68b;}.m{fill:#ebf2f2;}.n{fill:#299c7f;}.o{fill:#319e63;}.p{fill:#49ac7c;}.q{fill:#62b48c;}.r{fill:#9bd4be;}.s{fill:#d4eae1;}.t{fill:#6bc1b6;}.u{fill:#e1f1ed;}.v{fill:#aad7c1;}.w{fill:#d6ebe2;}.x{fill:#b8dfce;}.y{fill:#53b08a;}.z{fill:#71c5b7;}.aa{fill:#c5e3d5;}.ab{fill:#c6e4d6;}.ac{fill:#b9decd;}.ad{fill:#9bdbd4;}.ae{fill:#83d2c3;}.af{fill:#61b9b3;}.ag{fill:#4aaa83;}.ah{fill:#77c7c1;}.ai{fill:#aadbc9;}.aj{fill:#65b99f;}.ak{fill:#c3e4d8;}.al{fill:#b9dfcf;}.am{fill:#92d6d0;}.an{fill:#239759;}.ao{fill:#63b48c;}.ap{fill:#4baf7f;}.aq{fill:#e1f0ec;}.ar{fill:#3ea36c;}.as{fill:#d4eae0;}.at{fill:#c7e4d7;}.au{fill:#6fc4b2;}.av{fill:#32ad79;}.aw{fill:#89d3c9;}.ax{fill:#9edcd2;}.ay{fill:#f4f8f8;}.az{fill:#fff;}.ba{fill:#f6fafa;}.bb{fill:#138740;}.bc{fill:#198e4d;}.bd{fill:#158b4a;}.be{fill:#319c62;}.bf{fill:#219452;}.bg{fill:#1d9057;}.bh{fill:#f3f7f7;}.bi{fill:#269756;}.bj{fill:#45a674;}.bk{fill:#309c66;}.bl{fill:#80c4a1;}.bm{fill:#72bc96;}.bn{fill:#a9d6c0;}.bo{fill:#8bc9ac;}.bp{fill:#57bb9e;}.bq{fill:#f5f9f9;}.br{fill:#9bd0b5;}.bs{fill:#8fcbad;}.bt{fill:#53b08d;}.bu{fill:#73bc97;}.bv{fill:#9ad0b4;}.bw{fill:#89c8a9;}.bx{fill:#329d63;}.by{fill:#71bc96;}.bz{fill:#a9d7c0;}.ca{fill:#8cc9ab;}.cb{fill:#7dc29f;}.cc{fill:#9cd1b7;}.cd{fill:#f1f6f6;}.ce{fill:#109c67;}.cf{fill:#f0f6f6;}.cg{fill:#5a3a59;}.ch{fill:#5b3c5a;}.ci{fill:#13924c;}.cj{fill:#12934d;}.ck{fill:#109450;}.cl{fill:#11944f;}.cm{fill:#60b38a;}.cn{fill:#139a60;}.co{fill:#5a3b59;}.cp{fill:#5c3d5b;}.cq{fill:#5b3c5b;}.cr{fill:#5c3e5c;}.cs{fill:#189653;}.ct{fill:#1b9756;}.cu{fill:#199b5f;}.cv{fill:#199858;}.cw{fill:#1d9756;}.cx{fill:#179b62;}.cy{fill:#11944e;}.cz{fill:#1c9856;}.da{fill:#0f9552;}.db{fill:#159450;}.dc{fill:#169552;}.dd{fill:#eff3f3;}.de{fill:#ebeff0;}.df{fill:#ebedee;}.dg{fill:#e3e3e6;}.dh{fill:#eceff0;}.di{fill:#e6e7e9;}</style></defs><title>derby_serta</title><path class="a" d="M520.19,330.06a26.81,26.81,0,0,0-.72,3.78c-8,31.61-30.38,48.1-60.46,54.68-28.71,6.28-56,.81-80.34-16.06C349.22,352,347.76,320.26,367.06,294c13.39-18.22,32.52-27.39,54.24-31.79,2-.41,5-1.31,7.42-1.73,1.33,0,1.13-.24,2.47-.24a1.29,1.29,0,0,0,2,0h4c2.23,1.1,4.6.26,6.9.51,2-.26,4.14.57,6.1-.51,2,0,2.65.42,4.65.42a117.59,117.59,0,0,1,13,2.42c5.53,1.51,11.11,2.79,16.32,5.24.17.94,0,1.49-1.14,1.09-14-3.78-28.23-6.42-42.85-5.93-21.92.73-41.62,7-57.15,23.33-9.23,9.71-15.17,21.12-16.48,34.52-1.18,12,3.18,22.26,11.24,31,11.67,12.62,26.54,19.4,43.18,22.25,22.77,3.9,44.78,1.32,65.54-9.36a61.39,61.39,0,0,0,15-10.73c12.49-12.26,19-26.4,13.59-44.17a.84.84,0,0,1,1.24-.07c2.56,2.85,2.76,7.93,3.14,8.58,0,.33.77,2.12.77,2.45a13,13,0,0,0,0,8Z" transform="translate(-41.19 -260.21)"/><path class="b" d="M42.16,319.17l0-1c3.33,1.66,4.26,5.05,5.79,8a5.06,5.06,0,0,1-.26,3.63c-2.3,1.1-4.43.34-6.53-.63v-1C42.55,325.31,40.9,322.08,42.16,319.17Z" transform="translate(-41.19 -260.21)"/><path class="c" d="M41.19,329.21c2.06-.1,4.26-1,6,1a3.79,3.79,0,0,1,1.63,4.42c-1.72,1.8-3.69,1-5.64.56l-2-3Z" transform="translate(-41.19 -260.21)"/><path class="d" d="M42.16,319.17c-.39,3,1,6.21-1,9v-9Z" transform="translate(-41.19 -260.21)"/><path class="e" d="M520.19,329.21a7.52,7.52,0,0,1,0-8Z" transform="translate(-41.19 -260.21)"/><path class="f" d="M444.22,261.17c-2.35-.33-4.91,1-7-1h7q.48.3.33.63T444.22,261.17Z" transform="translate(-41.19 -260.21)"/><path class="g" d="M444.22,261.17q0-.48,0-1h6C448.45,262.1,446.21,260.85,444.22,261.17Z" transform="translate(-41.19 -260.21)"/><path class="h" d="M433.19,260.21c-.67,1.07-1.34,1.17-2,0Z" transform="translate(-41.19 -260.21)"/><path class="i" d="M483,269.38l1.14-1.09c1.34.59,3.21.36,3.79,2.63A7.64,7.64,0,0,1,483,269.38Z" transform="translate(-41.19 -260.21)"/><path class="j" d="M516.28,310.18l-1.24.07a5,5,0,0,1-1.5-3.89C515.58,307.07,515.91,308.64,516.28,310.18Z" transform="translate(-41.19 -260.21)"/><path class="k" d="M172.1,261.06l8,0h9.12l9,.05c15.7,1.5,31.48,2.42,46.87,6.22-.1,2.18-2,2.63-3.41,3.61a15.75,15.75,0,0,1-10.43-1.65c-3.59-2.84-8.16-1.44-12.11-2.73-12.79-1.56-25.53-3.46-38.49-3a148.65,148.65,0,0,0-16.74,1.62,28.56,28.56,0,0,1-8.41.12,10.48,10.48,0,0,0-1.48-.07c.08.78,1.09.4,1.31,1.06-.28,1.69-1.64,2.05-2.91,2.11-4.23.2-8.38,1.34-12.64,1.13-3-.55-6-1.21-9.21-.64-1.53.28-3.75-.11-1.43-2.53C143.34,263.44,157.72,262.3,172.1,261.06Z" transform="translate(-41.19 -260.21)"/><path class="l" d="M193.2,391.19l-17-.12c-13.16-1-26.37-1.48-39.39-3.84-9.72-1.76-19.53-3.2-28.82-6.81l.46-.62c2.29-1.29,4.49.13,6.73.2,1.25.19,2.46.54,3.69.84a117.54,117.54,0,0,0,16.21,3.28,10.7,10.7,0,0,1,1.49.33c1.72.61,3.56.46,5.32.79a301,301,0,0,0,69.5,1.74,34.18,34.18,0,0,1,8,.06,3,3,0,0,1,2.09,1.34c-7.54,1.86-15.26,1.74-22.94,2.19C196.74,390.68,194.91,390.34,193.2,391.19Z" transform="translate(-41.19 -260.21)"/><path class="m" d="M322.19,307.2a21.12,21.12,0,0,1,6,16,3.16,3.16,0,0,1-4.06.19,14.21,14.21,0,0,1,.16,5.95c-.36,1-.7,2.13-2.16,2-1.4-1.47-1.27-3.36-1.26-5.15,0-5.25-2.24-9.95-3.54-14.87a4.5,4.5,0,0,1,.11-1.51C318.26,307.56,320.31,307.53,322.19,307.2Z" transform="translate(-41.19 -260.21)"/><path class="n" d="M221.47,388.38,219,388c.61-2.11,2.47-1.93,4.05-2.13,5.26-.65,10.47-1.68,15.69-2.54,9.73-1,18.7-4.68,27.77-8,2.51-.42,4.84-1.59,7.4-1.79a2.65,2.65,0,0,1,1.43.54,1.77,1.77,0,0,1-.14,2.14A202.91,202.91,0,0,1,221.47,388.38Z" transform="translate(-41.19 -260.21)"/><path class="o" d="M242.15,270.39c-.24-2.22,2.12-1.89,3-3,5.82.68,11.39,2.43,17,4-.11,2.29-1.92,2.91-3.59,3.69C252.79,274.49,246.87,274.53,242.15,270.39Z" transform="translate(-41.19 -260.21)"/><path class="p" d="M259.15,274.44c.31-1.67,2.09-1.93,3-3.07l10.08,3c2.14,1.31,5.25,2.32,1.63,5.37C268.63,278.8,263.12,278.76,259.15,274.44Z" transform="translate(-41.19 -260.21)"/><path class="q" d="M274.18,279.24c1.48-2.5-1.18-3.32-2-4.89l10.89,4.08c.94,1.93,3.6,1.9,4.45,3.93a3.23,3.23,0,0,1-2.54,3.17C281.51,283.23,276.53,283.49,274.18,279.24Z" transform="translate(-41.19 -260.21)"/><path class="r" d="M318.12,350.13c-3,3.33-5.44,7.27-9.91,9-.64-1.14,0-2.09.44-3.08a16.08,16.08,0,0,1,1.09-1.64,2.44,2.44,0,0,0,.14-3.46c.33-2.44,1.95-3.69,4.1-4.45a4,4,0,0,1,3.41,1C318,348.28,318.6,349.06,318.12,350.13Z" transform="translate(-41.19 -260.21)"/><path class="s" d="M322.17,331.17a2,2,0,0,0,1-2c2.29-2.78,3.46-.25,4.9,1,.38,2.6-1,4.73-1.87,7a23.69,23.69,0,0,0-5.31-2,3.73,3.73,0,0,1-.59-1.26,3.57,3.57,0,0,1,.54-2.77A1.05,1.05,0,0,1,322.17,331.17Z" transform="translate(-41.19 -260.21)"/><path class="t" d="M309.23,356.2l-1,2.91c-3.9,3.36-7.9,6.59-12.89,8.26l-.39-.54c.28-2.28,2.73-2.85,3.62-4.65C301.79,359.62,304.78,356.61,309.23,356.2Z" transform="translate(-41.19 -260.21)"/><path class="b" d="M328.09,330.25c-1.75.22-2.88-2.53-4.9-1,0-3.37-1.13-7.7,5-6C328.14,325.56,328.12,327.9,328.09,330.25Z" transform="translate(-41.19 -260.21)"/><path class="u" d="M322.19,307.2c-.31,2.71-3.1.47-4,2-1.6-.31-2.58-1.55-3.78-2.47a2.3,2.3,0,0,1-.67-1.86c.84-2,2.51-2.58,4.47-2.69C320.34,303.21,321.24,305.23,322.19,307.2Z" transform="translate(-41.19 -260.21)"/><path class="v" d="M300.27,288.11c3.36.6,5.51,3,7.86,5.16-.85,2.67-3.39,1.61-5.13,2.31a5,5,0,0,1-4.26-3c-.15-1.27,1.1-2.15,1-3.42A1.51,1.51,0,0,1,300.27,288.11Z" transform="translate(-41.19 -260.21)"/><path class="w" d="M318.2,302.19l-4,3a1.09,1.09,0,0,1-1.25.15c-1.33-1.53-3.11-2.8-3-5.18,1.09-1.36,2.85-1.29,4.24-2A11.14,11.14,0,0,1,318.2,302.19Z" transform="translate(-41.19 -260.21)"/><path class="x" d="M324.28,340.23c-.13,1.09.08,2.28-1,3-1.27.11-2,1.67-3.4,1.38a7.32,7.32,0,0,1-3.78-1.26c-.63-1.59.22-2.68,1.25-3.72a10.07,10.07,0,0,1,2.44-1.41C321.91,337.5,323.5,338,324.28,340.23Z" transform="translate(-41.19 -260.21)"/><path class="y" d="M275.23,376.21c0-.66,0-1.33,0-2,4.52-3.89,10-5.71,15.62-7.18a1.88,1.88,0,0,1,.77,1.17c-.61,2.35-3.08,1.91-4.52,3l-1.63,1.09a29.36,29.36,0,0,0-5.38,1.89C278.55,375,277.13,376.21,275.23,376.21Z" transform="translate(-41.19 -260.21)"/><path class="z" d="M287.18,282.22c-1.56-1.06-4.4-.72-4.1-3.79l11,5c.42,1.05-.15,1.65-1,2.16a2.9,2.9,0,0,1-1.31,0C290,284.81,288.09,284.23,287.18,282.22Z" transform="translate(-41.19 -260.21)"/><path class="aa" d="M324.28,340.23c-1.34-.55-2.39-2.26-4.17-1.06-1.05-1.71-.29-2.92,1.1-3.95,2.41-1.16,4.14-.62,5,2Z" transform="translate(-41.19 -260.21)"/><path class="ab" d="M314.2,298.18c-.35,2.62-2.69,1.3-4,2-1.9-.06-3.16-.83-3.26-2.92a7.13,7.13,0,0,1,3.31-2.18Z" transform="translate(-41.19 -260.21)"/><path class="ac" d="M310.25,295.1c-.12,2-1.54,2.16-3.08,2.12-1.49.66-2.36-.48-3.4-1.15a1.91,1.91,0,0,1-.56-1.12l4.92-1.68A3.16,3.16,0,0,1,310.25,295.1Z" transform="translate(-41.19 -260.21)"/><path class="ad" d="M320.2,344.21c1.12,0,1.54-2.29,3.08-.93a25.25,25.25,0,0,1-5.16,6.85l-.92-1.91A3.91,3.91,0,0,1,320.2,344.21Z" transform="translate(-41.19 -260.21)"/><path class="ae" d="M293.2,285.2l.9-1.8a18.87,18.87,0,0,1,6.17,4.71l-.06,1.11c-1.18.63-2.18,0-3.21-.44C295.63,287.7,293.82,287.08,293.2,285.2Z" transform="translate(-41.19 -260.21)"/><path class="t" d="M287.12,371.23l4-3.06c1.07-1.18,2.22-2.1,3.92-1.11l.24.31A14.19,14.19,0,0,1,287.12,371.23Z" transform="translate(-41.19 -260.21)"/><path class="af" d="M280.11,374.21a5.47,5.47,0,0,1,5.37-1.89A9.88,9.88,0,0,1,280.11,374.21Z" transform="translate(-41.19 -260.21)"/><path class="ag" d="M97.15,377A98.58,98.58,0,0,1,80,370.46c-.72-1.79-3.65-2-3.29-4.55a2.28,2.28,0,0,1,2.38-1.5c5,1.55,10,2.85,14.39,5.81,1.14,2,3.19,3.35,4.1,5.54A1.54,1.54,0,0,1,97.15,377Z" transform="translate(-41.19 -260.21)"/><path class="ah" d="M70.22,365.21c-4.58-1.37-7.35-5.3-11.12-7.82A46.25,46.25,0,0,1,54,352.27l-1-1.07a2.46,2.46,0,0,1,1.18-.72,4.2,4.2,0,0,1,3.24,1c1.5,1.27,2.75,2.81,4.3,4s3.19,2.16,4.8,3.21A21.66,21.66,0,0,1,69.93,362C70.6,363,71.15,364.05,70.22,365.21Z" transform="translate(-41.19 -260.21)"/><path class="ai" d="M54.19,351.19H53c-2-1.7-4.38-3-4.76-6,.77-2.24,1.71-4.17,4.64-2.73,1.7,1.17,3,2.54,2.48,4.84C51.1,347.44,55.93,350.31,54.19,351.19Z" transform="translate(-41.19 -260.21)"/><path class="aj" d="M70.22,365.21l-1.11-3a2.26,2.26,0,0,1,2-.73,15,15,0,0,1,6.08,4.74c.43,1.77,3.39,1.82,2.89,4.22A50.92,50.92,0,0,1,70.22,365.21Z" transform="translate(-41.19 -260.21)"/><path class="ak" d="M43.16,335.2a5.72,5.72,0,0,1,5,0,2.42,2.42,0,0,1,1.72,1.1c.51,1,1.09,2,.29,3.19a26.2,26.2,0,0,0-4,2.82C44.42,340.25,43.08,338,43.16,335.2Z" transform="translate(-41.19 -260.21)"/><path class="al" d="M46.1,342.34c-.21-3.09,1.77-3.32,4.07-3.12a3.28,3.28,0,0,1,2.51,2.06,1.88,1.88,0,0,1-.39,1.88c-2.38-1.36-2.47,1.83-4.06,2C47.53,344.24,46.06,343.85,46.1,342.34Z" transform="translate(-41.19 -260.21)"/><path class="l" d="M97.15,377c0-.31.07-.63.09-.94,4.34-.49,8.21.33,11.08,3.95-.1.14-.19.28-.3.42A31.31,31.31,0,0,1,97.15,377Z" transform="translate(-41.19 -260.21)"/><path class="am" d="M54,352.27a10.52,10.52,0,0,1,5.07,5.12A8.07,8.07,0,0,1,54,352.27Z" transform="translate(-41.19 -260.21)"/><path class="m" d="M47.18,326.22c-1.86-2.55-3.94-5-5-8,1.32-4.34,2.49-8.76,6-12,1.42,1,3.31,1.06,4.51,2.45a3.49,3.49,0,0,1,0,2.12C50,315.62,49.19,321.13,47.18,326.22Z" transform="translate(-41.19 -260.21)"/><path class="an" d="M129.17,266.39c-.45,1.11-.38,2.26,1.1,1.6,3.19-1.41,6.15-.56,9.18.35a1.68,1.68,0,0,1-1.12,1.52c-6.78,1.45-13.46,3.7-20.55,3.08a2,2,0,0,1-1.15-2c.48-1.85,2.4-1.74,3.59-2.64Z" transform="translate(-41.19 -260.21)"/><path class="ao" d="M86.07,278.86c3.28-1.4,6.41-3.25,10.09-3.56a19.56,19.56,0,0,1-.55,4.64,5.77,5.77,0,0,1-5.06,2.35c-1.77-.49-3.7-.17-5.43-.94C84.57,280.19,85.77,279.7,86.07,278.86Z" transform="translate(-41.19 -260.21)"/><path class="ap" d="M95.21,279.38c-.35-1.52-.7-3,1-4.08,3.22-1.42,6.41-3,10-3.06.39,1.51-.8,2.17-1.76,2.46-2.56.78-.38,1.54-.12,2.32C101.64,279.2,98.82,280.81,95.21,279.38Z" transform="translate(-41.19 -260.21)"/><path class="aq" d="M52.19,308.21c-2.12.89-3.58.46-4-2,1.37-1.63,2-3.91,4-5a17.09,17.09,0,0,1,3.07,2.62,2.11,2.11,0,0,1,.3,1.3A4.78,4.78,0,0,1,52.19,308.21Z" transform="translate(-41.19 -260.21)"/><path class="al" d="M59.1,295.1c1.39-1.67,2.56-3.62,5-3.91l.46.46c.12,1.39,1.75,1.92,1.9,3.31a4.62,4.62,0,0,1-4,3.29C60.55,298.07,58.16,298.36,59.1,295.1Z" transform="translate(-41.19 -260.21)"/><path class="ar" d="M104.25,276.24l-2.31-.49a6.35,6.35,0,0,1,1.06-1.41c1-.77,2.12-1.41,3.2-2.1l2-.91c.62.6,1.69.12,2.24.93a7.15,7.15,0,0,1-.33,3.11C108.28,276.55,106.43,277.5,104.25,276.24Z" transform="translate(-41.19 -260.21)"/><path class="as" d="M55.21,304.23a2.84,2.84,0,0,1-3-3l2.93-2.08c1.41-.06,2.83-.19,4,.79.71,2.43-1.09,3.41-2.62,4.54A1.32,1.32,0,0,1,55.21,304.23Z" transform="translate(-41.19 -260.21)"/><path class="at" d="M59.2,300.22c-1.41-.14-3,.45-4.08-1.08,1.33-1.35,2.66-2.69,4-4,.35,2.7,2.49,2,4.15,2.15C62.93,299.64,61.44,300.44,59.2,300.22Z" transform="translate(-41.19 -260.21)"/><path class="au" d="M86.07,278.86l-.89,2.35a7.1,7.1,0,0,1-2.88,2.55c-1.59.63-3.2,1.22-4.8,1.85a2.9,2.9,0,0,1-1.31,0A2.12,2.12,0,0,1,75,284.13,39.56,39.56,0,0,1,86.07,278.86Z" transform="translate(-41.19 -260.21)"/><path class="av" d="M110.17,272.22l-2-.89c4-1.24,7.83-2.71,12-3a3.24,3.24,0,0,1-3,1.89C115.36,272.67,113.2,274,110.17,272.22Z" transform="translate(-41.19 -260.21)"/><path class="aw" d="M75,284.13l1.21,1.07c-.66,2-2.54,2.61-4,3.74-1.32.64-2.64,1.35-4.12.43a1.1,1.1,0,0,1,0-1.32A15.06,15.06,0,0,1,75,284.13Z" transform="translate(-41.19 -260.21)"/><path class="ax" d="M68.09,288.05l.12,1.16a1.16,1.16,0,0,1,.1,1.41c-1.16,1.36-2.47,1.8-4,.62l-.16-.05A5.3,5.3,0,0,1,68.09,288.05Z" transform="translate(-41.19 -260.21)"/><path class="ay" d="M55.21,304.23l1,0c4.07-1.15,7.14-4.17,11-5.79a105.8,105.8,0,0,1,21.78-6.94c13.08-2.45,25.81-6.41,38.86-9,2.3-.46,4.59-1,6.7.61,1.3,2.24.71,4.26-.74,6.17-6.27,2.89-13.21,3-19.8,4.51-11.81,2.76-23.64,5.41-35.48,8.05-6.25,1.39-12.43,3.62-17.7,7.62-.39.3-.79.61-1.16.94-10.34,9-8.93,21.26,3.28,27.42a283.13,283.13,0,0,0,30.6,13.3c2.4.88,5,.28,7.33,1a4.88,4.88,0,0,1,1.3.58c2,4.37,5.71,3.07,9.15,2.57,11.33,2,22.42,5.18,33.89,6.44a52.9,52.9,0,0,1,5.61.51,15,15,0,0,0,3.94.59c2.48.12,5-.11,7.43.4,2.23.71,4.54.41,6.81.57,9.83,0,19.66,0,29.48,0,2.59-.2,5.23.21,7.79-.58,2.26-.47,4.56-.26,6.84-.45,13.87-1.17,27.45-4.15,41.06-6.85,5.17.14,10.2-.37,14.69-3.3a7.84,7.84,0,0,1,2.09-.48c1.58-.17,3.24.09,4.71-.8.4-.26.82-.5,1.24-.74a212.27,212.27,0,0,0,29.24-12.8c5.89-3.25,11-7.23,10.7-14.87-.23-6.7-6.09-13.59-13-16.31-20.72-8.19-42.71-11.2-64.27-16-2.85-.63-5.52-1.24-7.31-3.75-3.24-1.83-3,1.56-3.87,2.81-2.68,3.88-3.89,4-6.22,0-1.18-2-2.13-4.16-4.79-4.58-1-.09-2.4-1.08-2.64.82-.56,4.5-2.89,3.19-5.33,1.74-4.39-3.24-9-2.88-13.67-.78a5.4,5.4,0,0,1-4.82,1.1,2.9,2.9,0,0,1-1.13-.76c-.67-1-1.19-2.24-2.68-2.36-.44-.06-.86-.14-1.29-.23-3.8.45-8.1-1.95-11.27,2.19-.85,1.11-1.77.08-2.29-.73-.91-1.41-2.15-1.19-3.46-.89a12.88,12.88,0,0,1-5.1,0c-1.12-.19-2.75-1.1-3.29-.35-3.65,5.14-7.5,1.3-11.29.5a10.7,10.7,0,0,1-1.49-.33c-2.14-.95-5,.31-6.65-2.11.41-2.29,2.18-2.74,4.06-3,21.68-2.63,43.37-2.62,65.16-1.34,20.36,1.18,40,5.46,59.65,10.61,10.41,2.73,21.05,4.47,31.13,8.48a51.24,51.24,0,0,1,12.27,7.5l1,0,1,1c.89,1.41,2.07,2.6,3,4,2.65,6.73,4.8,13.56,4,21-.32,0-.65,0-1,0-4.31,8.18-11.23,13.33-19.47,17.09a255.54,255.54,0,0,1-81.59,21.91,382.89,382.89,0,0,1-60.3.68,303.63,303.63,0,0,1-53.63-8.51c-15.49-3.76-29.73-10.56-44.06-17.24-4.43-2.07-6.9-6.7-11.56-8.34a2.55,2.55,0,0,1-1.44-.58l-1-1c-.32-1.67-.65-3.34-1-5,0-1.33,0-2.67,0-4-.48-6,1.62-11.21,5-16a17.56,17.56,0,0,1,3-5C55.19,304.89,55.19,304.56,55.21,304.23Z" transform="translate(-41.19 -260.21)"/><path class="az" d="M403.9,317.55c-3.49-2.9-5.67-6.06-4.83-10.67.45-2.45-1.81-6.78,2.57-6.75s2.22,4.35,2.5,6.81-.48,4.76,3.64,4.75c3.89,0,3.86-1.9,3.73-4.6-.12-2.5.18-5-.16-7.49-.67-4.81-3.84-7.23-8.5-7.64-4.35-.37-8.59.15-10.5,4.82-3.2,7.81-.13,21.74,6.66,26.62,6.3,4.53,5.29,10.5,5.15,16.56,0,1.62-1.18,2.35-2.71,2.23a2.33,2.33,0,0,1-2.31-2.68c0-2-.18-4,0-6,.3-2.82-.72-3.74-3.58-3.66-2.57.07-4.2.38-3.77,3.48a29.63,29.63,0,0,1,0,4h.07a45.69,45.69,0,0,0,0,5.49c.5,4.12,4.1,7.15,8.75,7.42,4.39.25,8.56-.43,10.31-5.17C414.22,336.35,410.94,323.4,403.9,317.55Z" transform="translate(-41.19 -260.21)"/><path class="az" d="M489.85,314.14c0-5.77-3.64-9.12-9.47-9s-9,3.3-9.08,8.89c0,1.66,0,3.32,0,5,3.44.17,8,2.25,7.23-4.51a2,2,0,0,1,1.89-2.44c1.87-.1,2,1.33,2.12,2.68.3,3.32-1.69,5.1-4.35,6.43-5.76,3.76-7.81,9.09-6.91,15.81a38.81,38.81,0,0,1,0,6.47c-.16,4.28,2.4,6.51,6.1,6.07a45.34,45.34,0,0,1,9,.25c3,.22,3.62-.94,3.58-3.71C489.78,335.41,489.92,324.77,489.85,314.14Zm-7.42,25.68c0,1.18,0,2.42-1.59,2.61a2,2,0,0,1-2.07-1c-1.85-2.81.09-12.09,3.67-14.52C482.44,331.61,482.45,335.72,482.43,339.82Z" transform="translate(-41.19 -260.21)"/><path class="az" d="M429.51,335c-4.32-.17-3.35,2.51-3.4,4.83,0,1.25-.2,2.53-1.63,2.67-1.75.17-2-1.17-2.23-2.62-1.18-8.48-.41-9.64,7.75-9.85,2.72-.07,3.39-1,3.3-3.51-.16-4.49,0-9-.07-13.5-.09-4.82-3.49-7.74-9-7.84s-9,2.79-9.13,7.62,0,9.67,0,14.5-.06,9.67,0,14.5c.08,5.31,2.64,8,7.79,8.47,7.61.66,10.34-2.48,10.4-11.29C433.35,336,432.65,335.1,429.51,335ZM424,313.28c3.32-.18,1.63,3.21,2.25,5.11-.89,1.47,1.44,4.47-2,4.66s-2-2.82-2-4.41C422.3,316.73,421,313.45,424,313.28Z" transform="translate(-41.19 -260.21)"/><path class="az" d="M467.48,306.37c-5.81.61-4.58-3.29-4.4-6.31s-.63-4-3.82-4-3.34,1.39-3.43,3.9,1.79,6-3.15,6.9c-.88.16-1.8,5.49.58,6.18,3.31,1,2.61,2.83,2.64,4.81.07,4.49,0,9,0,13.48,0,4.83.17,9.66-.06,14.48-.14,2.93.5,4.09,3.76,4.05,3.09-.05,3.49-1.26,3.45-3.88-.14-9.15,0-18.3-.07-27.46,0-2.84-.56-5.87,4.06-5.18,2.36.36,2.14-1.61,2-3S470,306.11,467.48,306.37Z" transform="translate(-41.19 -260.21)"/><path class="az" d="M449,308.39c.19-1-.17-2.5-1.38-2-2.53,1-4.74-.38-7.11-.41-2.77,0-3.75.72-3.65,3.6.21,6.14.06,12.29.06,18.44,0,5.81.07,11.63,0,17.44,0,2.74-.06,4.67,3.8,4.59,3.61-.07,3.5-1.84,3.48-4.38-.09-8.63,0-17.27-.06-25.91,0-2.77-.07-5.3,3.37-6.27C450.31,312.66,448.6,310.13,449,308.39Z" transform="translate(-41.19 -260.21)"/><path class="ba" d="M104.25,276.24c2-.72,4.32-.58,6.15-1.91,2-1.64,4.22-2.56,6.86-1.75l22.19-4.24a95.46,95.46,0,0,0,16-2c2-1.89,4.43-.78,6.65-1.1,2.36,0,4.63-.63,6.95-.94a195.32,195.32,0,0,1,31.35,0,60.16,60.16,0,0,0,7.81,1,53.19,53.19,0,0,1,6.91.22c5.13,1.72,10.78.67,15.81,3l11.26,2,17,4.05,15,4.8c3.39,2.41,7.89,2.55,11,5.47,1.83-.4,3.21.61,4.66,1.44,2.27,1.47,5,2.16,7,4a1.71,1.71,0,0,1,.11,2.24c-1.83,1.33-3.75,1-5.72.37-22.21-7.18-45.12-11.18-68.09-14.82-5-.8-10.2-1.76-15.37-1.35-5.7.45-11.24-1.07-16.91-1.07a407.72,407.72,0,0,0-51.21,3.21,9.47,9.47,0,0,1-1.6.45c-2.1.36-4.29.21-6.33,1-11.44,2.75-23.1,4.45-34.53,7.15a199,199,0,0,0-19.55,5.48c-1.94.67-4.35,2.53-6-.68,0-1.87,1.47-2.62,2.71-3.55a9.89,9.89,0,0,1,2.6-1.3,24.76,24.76,0,0,0,9.58-4.67c1-1.06,2.6-.72,3.79-1.37a8.43,8.43,0,0,0,4.84-1.92C98.31,278.58,101.44,277.86,104.25,276.24Z" transform="translate(-41.19 -260.21)"/><path class="bb" d="M214.8,266.34l-6.64-.3c-2.35-.91-4.9.24-7.24-.73l-32.33,0c-2.07.8-4.31-.08-6.38.65l-6.8.32-6-.28c6.49-2.86,12.59-1.71,18.36-2.7,17.53-3,35-.16,52.38,1.88C218.91,268.06,216.68,266.36,214.8,266.34Z" transform="translate(-41.19 -260.21)"/><path class="bc" d="M214.8,266.34c1.77-.53,3.87.6,5.38-1.13,3.53,1.55,7.69.23,11.08,2.4.06,0,0,.3,0,.43a1.37,1.37,0,0,1-.34.34A100.15,100.15,0,0,1,214.8,266.34Z" transform="translate(-41.19 -260.21)"/><path class="bd" d="M239.22,384.2c-6.53,2.32-13.54,2.1-20.19,3.77A363.61,363.61,0,0,1,165.21,389a166,166,0,0,1-24-2.83c-1.5-1.19-3.48.14-5-.95h0c-4.1-1-8.31-1.42-12.39-2.52-1-.28-1.93-.38-2-1.68a2.39,2.39,0,0,1,1.78-1.77,5.51,5.51,0,0,1,2.48-.19c14.56,2.92,29.31,4.17,44.11,5.12a263.57,263.57,0,0,0,28.94.05c15.49-.69,30.73-3.46,46.09-5.14,1.87.71,3.23,1.53.49,3C243.65,383.18,241.37,383.48,239.22,384.2Z" transform="translate(-41.19 -260.21)"/><path class="be" d="M108.32,380l-11.08-3.95c-1.44-1.6-3.82-2.45-4-5,2.79-1.31,5.15.42,7.55,1.24,3.89,1.34,8,2,11.68,4,1.21,1.45,4,2,2.75,4.86Z" transform="translate(-41.19 -260.21)"/><path class="bf" d="M115.19,381.17c.06-2.11-2.53-2.19-3-3.89,4.37-1.51,8.08-.29,11.35,2.73l-1.35,1.2c-1.13,1.16-2.76,0-3.94.83Z" transform="translate(-41.19 -260.21)"/><path class="bg" d="M118.25,382c1.1-1.26,2.59-.7,3.94-.83,4.26,2.69,9.63,1.57,14,4C130,385.37,124.2,383.19,118.25,382Z" transform="translate(-41.19 -260.21)"/><path class="bg" d="M136.17,385.25c1.7.18,3.6-.71,5,.95C139.49,386,137.62,386.75,136.17,385.25Z" transform="translate(-41.19 -260.21)"/><path class="bh" d="M318.18,310.21c-1.6-.88-2.91-2-3-4a6.25,6.25,0,0,1,3,3Z" transform="translate(-41.19 -260.21)"/><path class="bi" d="M239.22,384.2c2.36-1.08,4.72-2.16,7.07-3.26.07,0,.08-.32,0-.46s-.21-.25-.32-.37a1.81,1.81,0,0,1,1.47-1.77c6.13-1.38,12-3.65,18.28-4.57,1.16.41,1.84,1.11,1.44,2.44C258.19,380,249.14,383.64,239.22,384.2Z" transform="translate(-41.19 -260.21)"/><path class="bj" d="M291.15,367.18a115.59,115.59,0,0,1-15.9,7h-1c-.54-1.67.88-2.56,1.47-3.79,4.49-2.52,9.05-4.87,14.14-6,1.12.25,1.85.82,1.74,2.09Z" transform="translate(-41.19 -260.21)"/><path class="bk" d="M276.19,371.23c.17,1.54-1.4,1.93-2,3-2.27.93-4.48,2-7,2-.33-.61-.67-1.22-1-1.83C269,371.59,272.13,370,276.19,371.23Z" transform="translate(-41.19 -260.21)"/><path class="bl" d="M289.3,286.74l-4.1-2,2-2.49c1.68,1,3.7,1.39,5,3C291.72,286.65,290.62,286.91,289.3,286.74Z" transform="translate(-41.19 -260.21)"/><path class="ba" d="M276.19,371.23l-10,3.15L246,380.11c-10.67,1.47-21.25,3.51-32,4.5a325.21,325.21,0,0,1-58.21,0c-10.85-1-21.53-2.86-32.25-4.62l-11.35-2.73-19-6.25-13.7-6c-2.5-.48-5.06-.85-6.83-3-2-1.6-4.41-2.51-6.29-4.25a14.7,14.7,0,0,1-3.81-3.65c-1.5-1.79-3.34-3.27-4.7-5.18-.58-.83-1.15-1.83-.49-2.75s1.72-.86,2.75-.65a8.82,8.82,0,0,1,2.31.91,219.31,219.31,0,0,0,51.39,18.89,271.06,271.06,0,0,0,60.8,7.45c21.48.14,42.94.12,64.15-4,15.87-3.08,31.62-6.44,46.58-12.91,7.93-3.42,16.34-5.71,23.57-10.71a4.53,4.53,0,0,1,5.18-.32,1.61,1.61,0,0,1,0,2.31l-4.05,4c-.24,1.74-1.58,2.68-2.69,3.8-3.25,2.41-6.7,4.51-10,6.88-2.29,1.46-4.52,3.08-7.37,3.27Z" transform="translate(-41.19 -260.21)"/><path class="bm" d="M296.94,361l10.12-6.93a2.45,2.45,0,0,1,3.12,1.11l-.95,1c-3.21,2.54-7.25,3.9-10.07,7a.86.86,0,0,1-1.16.22A3.19,3.19,0,0,1,296.94,361Z" transform="translate(-41.19 -260.21)"/><path class="bn" d="M314.16,347.2l.16-1.95a2.09,2.09,0,0,1,2-2c1.35.09,2.87-.5,3.89,1l-3,4Z" transform="translate(-41.19 -260.21)"/><path class="bo" d="M310.18,355.21l-3.12-1.11,3.05-2.93C315.74,352.42,309.91,353.87,310.18,355.21Z" transform="translate(-41.19 -260.21)"/><path class="ay" d="M316.31,343.25l-2,2c-1.48,0-2.91-.11-4.34.72-24.16,14.06-50.62,20.91-78,25.39-22.8,3.73-45.74,3.49-68.6,2.62-24.52-.94-48.77-5.11-71.91-13.7-10.36-3.84-21.3-6.58-30.55-13.12a2.83,2.83,0,0,0-3.07-.55c1.18,3.34,5.08,4.57,6.21,7.84a2,2,0,0,1-1.91.27,15.09,15.09,0,0,1-3.52-2.95c-1.2-1.48-3.09-2.47-3.36-4.63-.87-1.43-1.44-3.09-3-4,0-.61-.09-1.23-.14-1.84-.72-1.68-2.3-3-2-5.11,1.31-3,2.85-.65,3.53.19,4.93,6,11.9,8.64,18.59,12,22.06,11.06,45.77,16.19,69.86,19.67,20.92,3,42.08,2.84,63.12,2a263.53,263.53,0,0,0,73.81-14c8.61-2.92,16.95-6.72,25.26-10.48a35.54,35.54,0,0,0,13.23-11,30.35,30.35,0,0,1,3.61-3.36l0,3a30.39,30.39,0,0,1-3,6C317.56,341.24,316.93,342.24,316.31,343.25Z" transform="translate(-41.19 -260.21)"/><path class="bh" d="M318.19,340.23a11.21,11.21,0,0,1,3-6c0,.34,0,.68,0,1-.37,1.32-.74,2.63-1.1,3.95Z" transform="translate(-41.19 -260.21)"/><path class="bp" d="M298.2,363.19h1c-.65,2-3.24,2-4.08,3.87l-3.92,1.1c0-.33,0-.66,0-1h0C293,365,294.74,362.57,298.2,363.19Z" transform="translate(-41.19 -260.21)"/><path class="bq" d="M138.19,278.21c5.89-2.45,12.3-2.44,18.4-2.75,12.74-.65,25.49-1.94,38.29-1.25A401.35,401.35,0,0,1,261,283.5a304,304,0,0,1,31.11,8.18c1.74.58,3.53,1.19,5.05-.53,1.06-.4,1.56.27,2,1.05l4,2.75,0,.3c2.33,3.69-1.1,3-2.38,2.61-2.2-.62-4.41-1.34-6.58-2.08-20.46-7-41.6-11.48-62.77-15a276.61,276.61,0,0,0-60.1-2.85c-9.11.51-18.18,1.67-27.31,1.74C142,279.42,139.82,279.94,138.19,278.21Z" transform="translate(-41.19 -260.21)"/><path class="br" d="M299.19,292.2l-2-1.05-1-1c-.67-1.17-.68-2,1-2l3,1C304,291.62,298.8,291,299.19,292.2Z" transform="translate(-41.19 -260.21)"/><path class="bq" d="M144.19,278.21c9.05-.4,18.13-.46,27.14-1.3a118.78,118.78,0,0,1,26.72.07c6.23.81,12.53.42,18.82,1,12.88,1.22,25.44,3.81,38,6.52,15.51,3.33,31,6.39,45.84,12.35.92.37,3.45,1.62,2.44-1.62,1.76-.22,2.6,1.44,4,2l3,3c.69,1.85,3.08,2.67,3,5-3,1.11-4.24-1.87-6.18-3-10.31-5.89-21.68-8.47-33.09-10.69-5.05-1-10-2.22-14.92-3.61-15.78-4.51-31.87-6.44-48.16-7.86-15.46-1.34-30.87-.57-46.3-.69-6.89-.06-13.8,1.24-20.7,1.91a3.19,3.19,0,0,0-2.67,2c-2.34,1.83-4.67,1.68-7,0-7.9-.07-15.26,2.72-22.8,4.46-12,2.78-24.14,5.47-36,8.8a55.37,55.37,0,0,0-16,7.9c-.78.53-2.34,3-3.19-.18q1.51-2,3-4l4-3,3-3c.64-1.47,1.62-1.94,3.06-1.06.88,3.24,3.17,1.12,4.43.79,4.93-1.32,9.74-3.07,14.66-4.49,13.86-4,28.19-5.72,42.11-9.33C135,279,139.76,279.67,144.19,278.21Z" transform="translate(-41.19 -260.21)"/><path class="bs" d="M297.19,288.21a2,2,0,0,0-1,2,15.93,15.93,0,0,1-6.89-3.45l2.9-1.53h1C294.65,286.05,296.47,286.4,297.19,288.21Z" transform="translate(-41.19 -260.21)"/><path class="bt" d="M72.92,361.28l6.59,3.78a2.83,2.83,0,0,0-2.36,1.17c-2.63-.38-4.16-2.42-6-4C71.09,360.66,71.7,360.41,72.92,361.28Z" transform="translate(-41.19 -260.21)"/><path class="bu" d="M72.92,361.28a1.71,1.71,0,0,0-1.74.93l-2.07,0a7,7,0,0,1-3-3c-.49-1.09-.83-2.1,1-2Z" transform="translate(-41.19 -260.21)"/><path class="bv" d="M55.32,347.13l4,4a2.19,2.19,0,0,1-2.18,1.11l-3-1C54.05,349.7,50.4,347.23,55.32,347.13Z" transform="translate(-41.19 -260.21)"/><path class="bl" d="M67.14,357.24a2.2,2.2,0,0,0-1,2c-2.1-.29-3.49-1.74-5-3-.63-1.37-.52-2.3,1.31-2.2l1.64.42Z" transform="translate(-41.19 -260.21)"/><path class="bw" d="M62.47,354a2.3,2.3,0,0,0-1.31,2.2,10.73,10.73,0,0,1-4-4c.46-.9,1.32-1,2.18-1.11Z" transform="translate(-41.19 -260.21)"/><path class="bh" d="M50.19,336.21c.66,1.7,2,3.14,2,5.11-.66-.7-1.32-1.4-2-2.11l-1-3Z" transform="translate(-41.19 -260.21)"/><path class="bh" d="M55.19,305.21c-.23,2.13-1.7,3.52-3,5v-2A6.33,6.33,0,0,1,55.19,305.21Z" transform="translate(-41.19 -260.21)"/><path class="bx" d="M117.26,272.58l-6.86,1.75c-1.22-.58-.4-1.38-.23-2.11,2.53,0,4.75-1.09,7-2C117.21,271,117.24,271.79,117.26,272.58Z" transform="translate(-41.19 -260.21)"/><path class="by" d="M90.37,281.3l-3.21,2.05c-1.22.52-2.24,1.61-3.74,1.36a1.92,1.92,0,0,1-1.25-1.5,3,3,0,0,1,3-2A8.83,8.83,0,0,1,90.37,281.3Z" transform="translate(-41.19 -260.21)"/><path class="bz" d="M69.18,293.12l-2.91,1.14c-2.7.34-2.63-1.16-2-3a6.71,6.71,0,0,0,3.88-1,2.66,2.66,0,0,1,2.25,1A1.55,1.55,0,0,1,69.18,293.12Z" transform="translate(-41.19 -260.21)"/><path class="ca" d="M77.14,288.19l-2,1c-1.43,1-2.33.34-3-1,.73-1.8,2.54-2.16,4-3l1,0a2.41,2.41,0,0,1,2.27,1.11C79.54,288,77.78,287.4,77.14,288.19Z" transform="translate(-41.19 -260.21)"/><path class="cb" d="M79.39,286.33a2.58,2.58,0,0,1-2.21-1.11,5.75,5.75,0,0,1,5-2c.36.43.71.86,1.07,1.28A2.79,2.79,0,0,1,79.39,286.33Z" transform="translate(-41.19 -260.21)"/><path class="cc" d="M72.17,288.21l3,1-3,2.11a1.32,1.32,0,0,1-1.79.06,2.67,2.67,0,0,1-2.24-1.16c0-.33,0-.66,0-1Z" transform="translate(-41.19 -260.21)"/><path class="cd" d="M134.18,283.21h7c2.32.35,4.85-.84,7,.9-1.85,2-4.33,1.49-6.55,1.39-3.95-.17-5.41,1.59-5.11,5.37.16,2-.22,4,.09,6,.45,2.76-1.9,6.71,2.83,7.87,5.87,1.43,11.51-.44,13.75-4.41A10.38,10.38,0,0,0,152,288.65c-1.09-1.39-3-2.23-3-4.37a4.17,4.17,0,0,1,1.49,0c3.15,1.18,6.34,4.13,9.1-.82.39-.7,2.53-.51,3.58.68a8,8,0,0,0-2.69,7.09c.17,2.14,0,4.3,0,6.45,0,7.31.12,7.4,7.87,7-3-.46-4.42-1.93-4.42-4.73,0-2.65.91-4.52,4-5.17-2.56-.56-4-1.94-3.95-4.51s1.46-3.89,3.86-4.36a1.35,1.35,0,0,0,1.23-1.75l.36-.35c2.05-1.87,4,3.42,6.89-.22,1.28-1.59,6.27-.23,9.57-.13.39,0,.77.55,1.16.85-1.78,1.7-4,1.26-6.14,1.23-3.07,0-4.72,1.1-4.51,4.37.31,4.64-.65,9.38.66,14.13.71-.31.9-.33,1-.44,1.43-1.86-.12-5.68,2.3-6.08,3-.5,3.48,3.38,5.13,5.29.85,1,1.66,2.1,4.1,1.43-6.88-6.07-2.06-11.43.57-17a8.63,8.63,0,0,0,5-1c3.59,2.54,1.76,6.34,2.22,9.61.11.81-.11,1.66-.05,2.48.15,2-1.76,4.67.65,5.93,2.67,1.41,5.87,1,8.66-.2,2.44-1.08,3.77-3.54,2.18-5.69-3.24-4.4-.66-7.63,1.34-11.13,1.44.58,3.13,2.43,2.84-1.39-.24-3.14,1.82-3.22,4.07-1.71a4.32,4.32,0,0,0,.62,4.21c2.69,4.21,5,8.54,4.74,13.8-.06.95.19,2.23,1.46,2.18,1.78-.08,1.33-1.6,1.21-2.66-.65-6.14,2.15-10.74,6.46-14.69.53.05,1.13.37,1.12.79-.11,6,3.91,5.15,7.74,4.76a13,13,0,0,1,5.89.26c2.21.82,4.37,2,2.47,5-3.6,1.33-6.77-1.11-11.06-1.12,12.81,3,24.77,6,35.73,11.9a67.3,67.3,0,0,1,6,4.4c5.15,4.32,7.37,9.56,5,16.22a17.53,17.53,0,0,1-3.7,5.5c-1.07,1-2.33,1.69-3.43,2.62-6,4.82-13.55,6.54-20.06,10.33C245.9,350.11,234.5,352.85,223,355c-2.23.42-4.61-.83-6.89.16a25.17,25.17,0,0,1-4.9.38,21.83,21.83,0,0,0-6.63.74c-3.85.5-7.73.2-11.59.31-5.83.05-11.65.07-17.47,0-3.86-.12-7.74.2-11.6-.29a20.94,20.94,0,0,0-6.59-.74,31.35,31.35,0,0,1-5.64-.39,17.73,17.73,0,0,0-4.58-.67,21.54,21.54,0,0,1-3.84-.38,281.1,281.1,0,0,1-32.34-6.81c-6.69-3.26-13.79-5.7-20.11-9.75a7.43,7.43,0,0,1-2.37-1.68,34.77,34.77,0,0,1-3.59-4.68c-2.78-5-2.56-9.84.3-14.67a31,31,0,0,1,4.47-4.9,8.26,8.26,0,0,1,1.79-1.26c4.93-2.4,9.6-5.36,14.86-7.07a196,196,0,0,1,21.14-6c-4.07-.25-7.23,1.93-10.75,1.34-1.63-2.89-.63-4.69,2.47-5.16s6.44-1.34,9.75-1.21c2.3.09,3.78-.85,4.32-3.13C133.52,287.21,134.52,285.32,134.18,283.21Z" transform="translate(-41.19 -260.21)"/><path class="ce" d="M257.19,346.2c6.57-3.5,13.9-5.51,19.92-10.1,1.8.22,2.8-1,3.85-2.13,1.45-1.21,2.05-3,3.05-4.49,2.23-4.89,1.3-9.32-1.8-13.54-.8-1.09-2.9-2.12-1.72-3.66s2.72,0,4.06.5c.47.18.92.37,1.38.59,9.15,4.64,12.57,16.56,6.22,23.27-6.69,5.67-14.12,10.31-21.49,15a41.61,41.61,0,0,1-3.79,2.16c-3.81,1.88-8,2.28-12.07,3.26-12.32,2.65-24.61,5.52-37.21,6.62-1.48.13-3,.18-4.45.27-2.27-.15-4.58-1-6.77.36-2.33,1.05-4.78.82-7.23.64q-15.46-.71-30.92,0c-2.12.12-4.26.37-6.28-.59-2.49-1.46-5.12-.58-7.71-.44-1.17.16-2.33.34-3.34-.53-1.77-1.58-3.76-.51-5.66-.47-11.92-1-23.44-4.08-35-6.79a11.63,11.63,0,0,1-8-2.78l-.36-.25h-.43A44.67,44.67,0,0,1,82.48,344a12.31,12.31,0,0,1-3.89-4.38c-1.44-2.64-1.84-5.93-4.74-7.68a9.33,9.33,0,0,1,0-8.67,13.32,13.32,0,0,0,3.58-4c1.64-2.31,4-4,5.63-6.32A5,5,0,0,1,84,312a7,7,0,0,0,2.55-1.64,2.89,2.89,0,0,1,1.09-.62c1.4.15,3.54-1.28,3.66,1.68l-.9.87a11,11,0,0,0-4.8,4.56c-3,4.61-3.52,9.28-.31,14a9,9,0,0,0,3.92,4.38l2,1.15c3.38,3.86,8.27,5.11,12.64,7.21a25.77,25.77,0,0,1,4.74,2.48c7.55,3.14,15.6,4.34,23.51,6.05,17.05,3.69,34.42,4.53,51.75,4.45a304.82,304.82,0,0,0,43.07-2.79c9.83-1.45,19.28-4.44,29.06-5.89C256.78,347.77,257.51,347.3,257.19,346.2Z" transform="translate(-41.19 -260.21)"/><path class="bh" d="M249.18,297.25c-.16-2.74-1.88-3.66-4.33-3.69-1.46,0-2.93-.07-4.38,0-7.49.47-7.49.48-8.34-6.5-.47-1.08-.7-2,1-1.9.19,2.79,2.36,3.6,4.48,3.9,16.91,2.4,33.27,7.28,49.94,10.7,8.67,1.77,17.18,4.19,23.7,10.11,10.38,9.44,9.65,21-3.25,28.33-10.11,5.76-20.93,10-31.85,14-1.24-2.11.22-3.2,1.75-3.87a34.62,34.62,0,0,0,16.35-13.89c1.37-2.25,4.25-3.11,6.46-4.59a60.72,60.72,0,0,0,6.36-4.82c3.62-3.2,3.5-5.93-.59-8.73a29.5,29.5,0,0,0-8.72-3.63c-10.52-3-21.17-5.84-31-10.56-4.66-2.23-8.83-4.25-14-2.84C251.26,299.13,249.4,299.62,249.18,297.25Z" transform="translate(-41.19 -260.21)"/><path class="bh" d="M79.19,339.11c4.61,5.65,11,8.65,17.37,11.7l4.83,2.32c-9.67.64-17.72-4.38-26-8-7.11-3.15-14.51-5.91-20.28-12-4-4.17-4.83-8.18-3.31-13,2.53-7.93,7.8-13,15.93-15.88,20.47-7.31,41.87-10.47,63-15a12.15,12.15,0,0,1,2.49,0c2.16,3.38-.64,4.53-2.73,4.28-4-.48-7.63,1.42-11.52,1.11-2.62-.22-1.48,2.57-2.76,3.42a2.36,2.36,0,0,1-1.86,1.05c-3.6,0-7.33-.54-10.16,2.57a2.61,2.61,0,0,1-1.38.54c-12.73,2.67-24.07,9.38-36.61,12.64-3,.78-5.45,2.71-6,6-.61,3.47,2.25,4.9,4.44,6.58,4.09,3.13,8.47,5.86,12.64,8.87C78.52,336.79,78.45,338.23,79.19,339.11Z" transform="translate(-41.19 -260.21)"/><path class="cf" d="M253.09,298.25c4.17-.67,8-2,12,1.82,2.92,2.71,7.56,3.83,11.63,5,9.8,2.81,19.55,5.77,29.16,9.19a8.37,8.37,0,0,1,4,3.54c1.89,2.78,2.36,5.07-1.1,7.46s-6.38,5.2-10,7.21c-2.6,1.43-4.19,3.76-5.92,6.31a27.74,27.74,0,0,1-12.59,9.88c-1.78.72-4.11.79-4.11,3.55-1.62.6-3.47,0-5,1h-2a1.59,1.59,0,0,1-2.37-.17l3.36-2c2.39-2.46,5.73-3.28,8.59-4.93,4.66-2.7,8.37-6.5,12.38-10,5.48-8.29,3.76-14.67-5.93-22-2.86-2.88-6.88-3.84-10.12-6.08A161.57,161.57,0,0,0,257.18,301C255.63,300.54,253.36,300.77,253.09,298.25Z" transform="translate(-41.19 -260.21)"/><path class="cg" d="M149,284.28A11.63,11.63,0,0,1,156,294.44c.55,7-3.85,11.82-10.9,11.86-10,.06-10.11.05-9.89-9.78.1-4-2.11-9.57.87-11.74,2.76-2,8-.58,12.16-.67A.72.72,0,0,0,149,284.28Z" transform="translate(-41.19 -260.21)"/><path class="ch" d="M210.28,287.21c0,1.94.64,4.12-1.17,5.57s-.61,2.11.38,3.31c3.47,4.24,1.23,9.44-4.22,10.16-9.06,1.2-9.66.63-9.47-8.22.09-3.95.53-7.92-.52-11.82C198.31,282.84,206.61,283.39,210.28,287.21Z" transform="translate(-41.19 -260.21)"/><path class="cg" d="M190.25,287.21c.14,3,.4,6.13-2.9,7.84-2.19,1.13-.52,2.25,0,3.16,1.51,2.53,3.2,4.94,4.8,7.37-7.87,3.54-7.78-4.5-11.69-7.67,0,2.27-.11,4,0,5.73.16,1.93-.5,2.66-2.5,2.62s-3-.22-3-2.65c.17-5.65.11-11.3,0-16.95-.05-2.08.86-2.5,2.67-2.45,3.15.1,6.31,0,9.47.05h0c1.22.48,2.77.56,2.9,2.37A.41.41,0,0,0,190.25,287.21Z" transform="translate(-41.19 -260.21)"/><path class="ch" d="M169.18,284.11c1,.55,3-.72,3,1.54s-1.63,1.53-2.83,1.57c-2,.08-4.32-.92-4.5,2.75-.19,3.91,2.17,3.26,4.48,3.23,1.26,0,2.9-.4,2.69,1.79-.18,1.85-1.66,1.25-2.7,1.25-2.3,0-4.57-.65-4.5,3.25.06,3.59,1.54,4.17,4.54,3.77,1.14-.16,2.93-.7,2.8,1.59-.1,1.83-1.55,1.31-2.62,1.38-10.54.77-10.53.77-10.36-9.58a57.22,57.22,0,0,0-.12-8.49c-.46-3.47,1-4.39,4.08-4.05Z" transform="translate(-41.19 -260.21)"/><path class="ch" d="M233.17,285.18l-1,1.9c-3.32,5.07-7.27,9.92-5.2,16.72.65,2.13-.76,2.57-2.52,2.31-1.39-.21-3.89.94-3.34-2,1.3-6.9-2.51-12.06-5.67-17.42-1.54-2.6.17-2.43,1.79-2.58,6-.73,4.8,5.62,8.08,8.09,2-1.4,2.44-3.91,3.43-6C229.87,283.76,231.25,283.68,233.17,285.18Z" transform="translate(-41.19 -260.21)"/><path class="ci" d="M168.22,365a125.94,125.94,0,0,1,30.92,0A292.57,292.57,0,0,1,168.22,365Z" transform="translate(-41.19 -260.21)"/><path class="bh" d="M266.82,353l2.37.17c-4.11,3.86-9.18,4.11-14.39,3.88Z" transform="translate(-41.19 -260.21)"/><path class="bh" d="M102.18,353.38a29.93,29.93,0,0,1,8,2.78C104.57,358.16,102.76,357.53,102.18,353.38Z" transform="translate(-41.19 -260.21)"/><path class="cj" d="M154.23,364c2.59-1.3,5.27-.85,7.94-.39.05,0,.09.3.05.43a1.32,1.32,0,0,1-.28.4Z" transform="translate(-41.19 -260.21)"/><path class="ck" d="M206.37,364.34c2.14-2.3,4.47-1.17,6.77-.36Z" transform="translate(-41.19 -260.21)"/><path class="cl" d="M145.23,363c1.93-1.22,4-.9,6-.34a.85.85,0,0,1,0,.44,1.58,1.58,0,0,1-.32.37Z" transform="translate(-41.19 -260.21)"/><path class="bh" d="M271.19,353.21a4.28,4.28,0,0,1,5-1C274.79,353.88,272.87,353,271.19,353.21Z" transform="translate(-41.19 -260.21)"/><path class="cd" d="M190,286.62l-2.9-2.37C189.76,283,190.13,284.55,190,286.62Z" transform="translate(-41.19 -260.21)"/><path class="bq" d="M70.4,291.36l1.79-.06c.67,3.2,2.73,1.14,3.82.74,17.57-6.39,36.11-8.6,54.19-12.78a9.4,9.4,0,0,1,2-.05c1.84-1.25,4.16.3,6-1h6c-8.36,3.23-17.34,3.76-26,5.62-16.67,3.57-33.3,7.12-49.34,13a11.93,11.93,0,0,1-2.38.28l2.7-4C69.58,292.53,70,291.94,70.4,291.36Z" transform="translate(-41.19 -260.21)"/><path class="bq" d="M79.39,286.33l3.85-1.84,3.92-1.14a16,16,0,0,1-10,4.84Z" transform="translate(-41.19 -260.21)"/><path class="bc" d="M200.92,265.31c2.43.08,5-.88,7.24.73C205.72,266.09,203.25,266.34,200.92,265.31Z" transform="translate(-41.19 -260.21)"/><path class="k" d="M162.21,266c2-1.48,4.23-.65,6.38-.65C166.54,266.28,164.37,266.08,162.21,266Z" transform="translate(-41.19 -260.21)"/><path class="bq" d="M138.19,278.21c-1.76,1.81-4,.67-6,1C133.94,277.4,136.18,278.53,138.19,278.21Z" transform="translate(-41.19 -260.21)"/><path class="cm" d="M298.2,363.19l-7,4a2.15,2.15,0,0,0-1.09-2.07l6.87-4.09A2.26,2.26,0,0,1,298.2,363.19Z" transform="translate(-41.19 -260.21)"/><path class="ch" d="M108.57,325.73c-1.58,4.37-1.21,7.73-1.41,11-.08,1.38,0,2.79-2,2.68-2.38-.13-1.31-1.77-1.16-2.91.74-5.93,1.52-11.86,2.29-17.79.15-1.16.18-2.34,1.82-2.48,1.49-.13,1.92.75,2.41,1.93,1.79,4.26,3.7,8.48,6,13.66,2.26-5,4.1-9.11,6-13.21.52-1.13.78-2.64,2.66-2.36s1.64,1.83,1.77,3.06c.64,5.78,1.21,11.58,1.83,17.36.14,1.29.78,2.86-1.52,2.66-1.62-.13-3.85.89-4-2.21-.15-3.26.32-6.62-1.21-10.14-2.46,3-3.15,6.48-4.71,9.51-.58,1.11-.58,2.91-2.34,2.75-1.32-.12-1.44-1.61-1.88-2.66C111.76,333.26,110.34,329.93,108.57,325.73Z" transform="translate(-41.19 -260.21)"/><path class="cn" d="M257.19,346.2c1.44,3.25-1.59,2.59-2.84,2.92-20.7,5.42-41.72,7.77-63.16,8.32-23.38.59-46.39-1.09-69.1-6.38-5-1.17-10.49-1.57-14.9-4.86a3.81,3.81,0,0,1,4,0l32.33,6.8c1.09,1.58,2.43.48,3.68.36,1.4-.08,2.82-.34,4.08.57,1.87,1.47,3.91.75,5.91.47s4.26-.35,6.28.63c3.87,1.36,7.8.63,11.72.37h18.08c3.91.26,7.84,1,11.71-.37,2-1,4.15-.79,6.29-.63,1.61.18,3.26,1,4.77-.32,4.62-.33,9.54-.35,13.76-1.45,6.46-1.68,13.2-2.39,19.43-4.78C251.85,346.85,254.74,347.7,257.19,346.2Z" transform="translate(-41.19 -260.21)"/><path class="co" d="M201.2,330.81c0,2.68,0,4.4,0,6.12s0,2.84-2.3,2.64c-1.93-.17-3-.38-2.94-2.76.16-6,0-11.94,0-17.91,0-.78-.23-1.64.55-2.29,1.49-1.23,11.19-.48,12.33,1.25,2.26,3.43,2.34,7-1.17,9.63-1.52,1.16-1.2,1.95-.49,3.17,1.64,2.81,3.24,5.64,4.88,8.5C204.59,342,204.7,334.72,201.2,330.81Z" transform="translate(-41.19 -260.21)"/><path class="cp" d="M149.31,339.38c-2.7.66-2.82-1.45-3-2.93-.3-2.72-1.69-3.51-4.27-3.66s-4,1-4.46,3.43a9.06,9.06,0,0,1-.74,2.35,1.93,1.93,0,0,1-2.61.75c-1.2-.44-.43-1.34-.18-2,2.34-6.36,4.77-12.69,7-19.09.56-1.59,1.43-1.92,2.91-2,1.8-.12,2.13.91,2.52,2.3,1.73,6.05,3.44,12.09,5.4,18.06C152.91,339.62,151.18,339.48,149.31,339.38Z" transform="translate(-41.19 -260.21)"/><path class="cq" d="M217,327.62c0-.66,0-1.33,0-2,0-9.8,0-9.78,9.62-9.35,1.4.06,2.7-.13,2.56,1.91s-1.44,1.33-2.52,1.26c-2.24-.15-4.56-1-4.58,3,0,3.43,1.4,3.9,4.18,3.5,1.35-.19,2.83-.14,2.66,1.9-.15,1.76-1.6,1.52-2.64,1.34-3.27-.56-4.22.64-4.22,4,0,3.58,1.68,3.67,4.33,3.28,1.18-.18,2.81-.71,2.77,1.57,0,2.11-1.38,1.67-2.75,1.66-9.56-.1-9.56-.07-9.42-9.51C217,329.28,217,328.45,217,327.62Z" transform="translate(-41.19 -260.21)"/><path class="cr" d="M233.62,334a23.17,23.17,0,0,0,3.23,2.74c1.61.85,3.26.8,4.38-.91s.27-3.17-1.26-4.18c-1.38-.91-2.95-1.55-4.3-2.5-3.35-2.35-4-5.57-2.56-9.23s4.6-4.41,8.23-3.87c3.07.47,3.88,2,2.44,4.87-1.23.5-1.48-.91-2.27-1.3-1.43-.7-3-1.15-4,.32a2.88,2.88,0,0,0,1,4.32c1.52,1,3.17,1.84,4.66,2.89a6.8,6.8,0,0,1,1.87,9.61c-2.06,3.19-7.81,4.69-10.71,2.8C232.12,338.15,233.62,336.35,233.62,334Z" transform="translate(-41.19 -260.21)"/><path class="ch" d="M251.19,334.25a30.18,30.18,0,0,0,2.35,2.14c1.7,1.21,3.48,1.38,4.85-.4,1.57-2,.17-3.41-1.44-4.49s-3.31-1.66-4.68-2.83c-3.31-2.82-3.45-6.39-1.32-9.88,2.24-3.69,5.78-3.4,9.3-2.21,2.9,1,1,2.83.62,4.78a15.56,15.56,0,0,0-2.71-2c-1.26-.55-2.77-.62-3.62.69a2.76,2.76,0,0,0,.83,4c1.76,1.25,3.75,2.17,5.44,3.5a6.94,6.94,0,0,1,.95,9.8c-2.22,2.79-8,4-10.48,2.09C249.29,337.87,250.64,336.25,251.19,334.25Z" transform="translate(-41.19 -260.21)"/><path class="ch" d="M181.91,330c0-2.16,0-4.31,0-6.47,0-2.41.18-4.9-3.54-4.24-1.07.2-1.91-.15-2-1.52s.84-1.59,1.9-1.59c4,0,8,0,11.95,0,1,0,2.05-.11,2.1,1.37.05,1.68-1,1.92-2.29,1.7-2.69-.45-3,1.11-2.92,3.22.09,4.64-.11,9.3.13,13.93.13,2.56-.84,3-3.12,3s-2.81-.93-2.54-3,.28-4.3.41-6.45Z" transform="translate(-41.19 -260.21)"/><path class="co" d="M162.15,329.5c0-2,0-4,0-6,.07-2.44.23-4.85-3.48-4.2-1.23.21-1.82-.51-1.71-1.77.13-1.48,1.25-1.27,2.19-1.28,3.83,0,7.65,0,11.48,0,1,0,2.09-.14,2.24,1.28.17,1.65-.88,2.05-2.19,1.82-3.27-.58-3.46,1.37-3.4,3.81.11,4.49,0,9,.16,13.47.1,2.2-.58,2.84-2.77,2.87-2.39,0-2.75-1-2.65-3,.12-2.32,0-4.65,0-7Z" transform="translate(-41.19 -260.21)"/><path class="cs" d="M253.09,298.25c7.67,3.07,15.88,4.81,23,9.2-.25,2.09-1.59,2.33-3.3,1.94A137.2,137.2,0,0,0,237.71,298c-1.15-.21-3.65.25-3.11-2,.46-1.9,2.55-1,3.89-.76,3.58.56,7.13,1.31,10.69,2C250.3,298.29,251.72,298.17,253.09,298.25Z" transform="translate(-41.19 -260.21)"/><path class="ct" d="M114.53,298.37l1.65-.35c3.56-.73,7.11-1.48,10.68-2.17,1.14-.23,2.75-1.49,3.29.48.66,2.39-1.68,2-2.9,2.35-7,2-14,3.86-21,5.77.84-1.21.22-2.39,0-3.58C108.56,298.69,111.63,298.81,114.53,298.37Z" transform="translate(-41.19 -260.21)"/><path class="cu" d="M272.82,309.39l3.3-1.94c3.34,1.84,7.3,2.83,9.1,6.75-1.67.25-2.52-1.48-4.69-1.83,4.35,5.6,8.14,11,3.67,17.84a1.13,1.13,0,0,1-.74-1c2.58-6.86-.18-11.86-5.54-16Z" transform="translate(-41.19 -260.21)"/><path class="cv" d="M106.19,301.45c2.1,1,.58,2,0,3l-15,6.95c-.91-1.93-3,0-4.06-1.17.54-3.87,4.34-3.38,6.62-4.89A23.38,23.38,0,0,1,106.19,301.45Z" transform="translate(-41.19 -260.21)"/><path class="cw" d="M111.15,346.21h-4c-4.13-2.05-8.27-4.09-12.38-6.18-1.59-.81-3.54-1.31-3.63-3.64C97.42,340.51,104.57,342.77,111.15,346.21Z" transform="translate(-41.19 -260.21)"/><path class="cx" d="M85.19,331.24c-4.06-4.66-4-8.79,0-15.06a.84.84,0,0,1,1.36.22c-3.09,4.83-3.8,9.75-.55,14.81C85.76,331.71,85.49,331.7,85.19,331.24Z" transform="translate(-41.19 -260.21)"/><path class="cl" d="M175.15,355.41c-3.92,1.54-7.93.75-11.92.46a.73.73,0,0,1-.07-.42,1.61,1.61,0,0,1,.27-.41Z" transform="translate(-41.19 -260.21)"/><path class="cy" d="M204.94,355c-3.84,2.2-7.77,1.35-11.71.37Z" transform="translate(-41.19 -260.21)"/><path class="cz" d="M283.46,329.25l.74,1c-.85,1.45-1.2,3.27-3,4a.79.79,0,0,1-1.33-.13Z" transform="translate(-41.19 -260.21)"/><path class="cy" d="M86.58,316.4l-1.36-.22c1.27-1.89,2.48-3.87,5.15-3.91C89.67,314.17,88.06,315.22,86.58,316.4Z" transform="translate(-41.19 -260.21)"/><path class="da" d="M279.87,334.08l1.33.13c-1.17,1-1.43,4.07-4.09,1.89C277.6,334.83,279,334.77,279.87,334.08Z" transform="translate(-41.19 -260.21)"/><path class="db" d="M85.19,331.24q.42,0,.84,0c1,1.38,2.74,2.18,3.15,4A4.2,4.2,0,0,1,85.19,331.24Z" transform="translate(-41.19 -260.21)"/><path class="cy" d="M216,354.09c-1.44,2.3-3.13,1-4.77.32Z" transform="translate(-41.19 -260.21)"/><path class="cy" d="M157.15,354.41c-2.07,1.08-4.09,1.59-5.91-.47Z" transform="translate(-41.19 -260.21)"/><path class="cl" d="M147.16,353.37c-1.31.8-2.68,2.11-3.68-.36Z" transform="translate(-41.19 -260.21)"/><path class="cd" d="M106.19,301.45c-6.71,2.11-13.25,4.57-19,8.78h0a4.9,4.9,0,0,1-2.74,2,.65.65,0,0,0-.34.7,80.6,80.6,0,0,0-6.51,6.43,13.44,13.44,0,0,1-2.47,3.8,10.26,10.26,0,0,0-.08,9.21c1.17,1.4,2.45,2.76,2,4.83A120.15,120.15,0,0,1,60.7,326.06c-3.54-2.76-2.83-7.83,1.16-10.61a14.29,14.29,0,0,1,4.5-2.12c8.53-2.2,16.41-6.38,25.06-8.2,3-6.56,11.76-1.05,15.33-7.19.4-.68,5.18-1,7.78.43Z" transform="translate(-41.19 -260.21)"/><path class="dc" d="M291.15,336.19c-4.94,7.85-13,11.23-21,14.89.13-1.9,1.78-2.23,3.05-2.88,5.48-2.77,10.71-5.89,14.93-10.46A4.1,4.1,0,0,1,291.15,336.19Z" transform="translate(-41.19 -260.21)"/><path class="cs" d="M77,319.16c2-2.5,3.66-5.34,7.08-6.19-1.3,2.72-3.56,4.54-5.93,6.25A.78.78,0,0,1,77,319.16Z" transform="translate(-41.19 -260.21)"/><path class="cl" d="M77.05,337.24c-.49-1.68-2.06-2.92-2-4.83,2.86,1.31,3.85,3.79,4.14,6.7C77.79,339.28,78.07,337.51,77.05,337.24Z" transform="translate(-41.19 -260.21)"/><path class="da" d="M77,319.16l1.15.06c-.35,1.84-.64,3.72-3.05,4A4.88,4.88,0,0,1,77,319.16Z" transform="translate(-41.19 -260.21)"/><path class="cx" d="M84.45,312.27a3.92,3.92,0,0,1,2.74-2C87,311.86,86.72,313.4,84.45,312.27Z" transform="translate(-41.19 -260.21)"/><path class="dd" d="M150.1,295c.08,5.11-2.13,8.34-6.07,9-2.4.39-3.86-.18-3.77-3,.11-3.15-.15-6.32.05-9.46.12-1.75-1.16-4.42,1.78-4.94a6.26,6.26,0,0,1,6.51,2.76A10.11,10.11,0,0,1,150.1,295Z" transform="translate(-41.19 -260.21)"/><path class="de" d="M201,300.2c.6-1.34-1-3.79,1.52-3.93,2.24-.13,2.68,2,2.68,3.89s-.76,3.58-2.53,3.66C199.83,304,201.75,301.36,201,300.2Z" transform="translate(-41.19 -260.21)"/><path class="df" d="M202.46,286.39c1.71.71,2.78,1.88,2.59,3.78-.17,1.61-1.09,3.2-2.72,3-2.13-.28-1.18-2.39-1.17-3.68C201.16,288.44,200.3,286.68,202.46,286.39Z" transform="translate(-41.19 -260.21)"/><path class="dg" d="M180.07,290.71c.83-1.63-1-4.38,2.05-4.39,2.34,0,2.61,2.3,2.64,4.05s-.43,3.88-2.82,3.89C179,294.28,181.11,291.65,180.07,290.71Z" transform="translate(-41.19 -260.21)"/><path class="dh" d="M205.15,322.58c-.07,2-.36,4.16-2.47,4.34-2.82.24-1.64-2.4-1.5-3.59.18-1.65-1.48-4.5,1.4-4.78C204.66,318.34,205,320.82,205.15,322.58Z" transform="translate(-41.19 -260.21)"/><path class="di" d="M142.18,324.16c.78,1.93,2.9,3.59,1.31,5.7a2.82,2.82,0,0,1-2.69-.06C139.22,327.68,141.27,326,142.18,324.16Z" transform="translate(-41.19 -260.21)"/></svg>