<svg xmlns="http://www.w3.org/2000/svg" xmlns:xlink="http://www.w3.org/1999/xlink" viewBox="0 0 352.62 100.6"><defs><style>.a{fill:#e14221;}.b{fill:#fff;}.c{fill:#f99d1c;}.d{fill:url(#a);}.e{fill:url(#b);}.f{fill:url(#c);}.g{fill:url(#d);}.h{fill:url(#e);}.i{fill:url(#f);}.j{fill:url(#g);}</style><linearGradient id="a" x1="155.35" y1="381.96" x2="156.05" y2="402.92" gradientUnits="userSpaceOnUse"><stop offset="0" stop-color="#e14221"/><stop offset="1" stop-color="#f99d1c"/></linearGradient><linearGradient id="b" x1="171.27" y1="423.09" x2="173.64" y2="351.64" gradientUnits="userSpaceOnUse"><stop offset="0" stop-color="#e14221"/><stop offset="0.05" stop-color="#e44e20"/><stop offset="0.2" stop-color="#ec6a1f"/><stop offset="0.36" stop-color="#f2811e"/><stop offset="0.53" stop-color="#f6911d"/><stop offset="0.73" stop-color="#f89a1c"/><stop offset="1" stop-color="#f99d1c"/></linearGradient><linearGradient id="c" x1="151.09" y1="407.03" x2="151.06" y2="407.3" xlink:href="#a"/><linearGradient id="d" x1="165.29" y1="366.25" x2="163.69" y2="384.55" xlink:href="#a"/><linearGradient id="e" x1="156.03" y1="412.69" x2="191.66" y2="412.69" xlink:href="#a"/><linearGradient id="f" x1="167.52" y1="406.77" x2="166.6" y2="426.73" xlink:href="#a"/><linearGradient id="g" x1="153.08" y1="425.94" x2="149.67" y2="386.96" xlink:href="#a"/></defs><title>potawatomi_w</title><path class="a" d="M182.48,401.78c1.12,7.2,0,15-6.39,15-3.93,0-6.38-1.95-6.38-5.84s2.1-7.86,5.44-12.26c6.58-8.55,8.81-15.56,8.81-25.68,0-12.27-10.3-23.75-23.61-30.55,6.19,12.45,8.62,24.33,1.31,33.65h0a35.27,35.27,0,0,0-13.32-9.32c3.37,6.59,2,17.12-2.44,23.35s-16.12,15.37-16.12,28.4S142.71,443,159.4,443A46.2,46.2,0,0,0,177,439.75a29.23,29.23,0,0,0,7.46-4.5,19,19,0,0,0,7.17-15C191.66,413.46,188.09,407.24,182.48,401.78Z" transform="translate(-129.78 -342.44)"/><path class="b" d="M200.74,393.63c0-4.51-.08-7.61-.33-11.16.9.08,2,.2,3.34.2,1.87,0,4-.2,5.94-.2,3.83,0,5.82.61,7.09,1.65a6.51,6.51,0,0,1,2.52,5.44c0,6.17-4.4,8.62-10.46,8.62h-2.08c0,4,0,8.06.33,12.09-.9-.08-2-.2-3.34-.2s-2.44.12-3.34.2c.25-3.54.33-6.65.33-11.16Zm7.81-8.86c-.65,0-1.26,0-1.71,0,0,3.79-.08,7.57-.08,11.32,2.73,0,6.11-.72,6.11-5.92C212.87,386.1,210.87,384.77,208.55,384.77Z" transform="translate(-129.78 -342.44)"/><path class="b" d="M239.4,382c8.63,0,15.43,4.67,15.43,14.38,0,8-6.47,14.47-15.55,14.47-8.59,0-15.51-4.35-15.51-14.43C223.77,388.44,230,382,239.4,382Zm-.12,2.29c-5.58,0-8.83,5.57-8.83,12.49,0,8.59,4,11.57,8.54,11.57,4.89,0,9.16-4,9.16-12.81C248.15,388.51,244.53,384.24,239.28,384.24Z" transform="translate(-129.78 -342.44)"/><path class="b" d="M265.27,389a26.51,26.51,0,0,0-.12-3.55c-1.59,0-5,.24-7.45.53a7.61,7.61,0,0,0,0-3.55c3.71.12,5.54.2,10.59.2s6.87-.08,10.34-.2a7.61,7.61,0,0,0,0,3.55,70.9,70.9,0,0,0-7.25-.53c-.08.57-.08,2-.08,3.55v10.07c0,4.51.08,7.62.32,11.16-.89-.08-2-.2-3.33-.2s-2.45.12-3.34.2c.24-3.54.32-6.65.32-11.16Z" transform="translate(-129.78 -342.44)"/><path class="b" d="M306.26,410.27c-1.31-.08-2.45-.2-3.59-.2s-2.32.12-3.46.2c-.85-2.74-1.79-5.52-2.8-8.26-1.75,0-3.46-.08-5.21-.08-1.43,0-2.81,0-4.24.08a80,80,0,0,0-2.76,8.26,15.63,15.63,0,0,0-1.92-.2c-.65,0-1.26.12-2,.2,2-4.47,8.1-18.81,11.6-28a6.07,6.07,0,0,0,3.09,0C298.4,391.46,303.16,403.71,306.26,410.27Zm-10.79-10.63c-1.18-3.27-2.32-6.45-3.62-9.59-1.39,3.14-2.65,6.32-3.83,9.59Z" transform="translate(-129.78 -342.44)"/><path class="b" d="M327.21,390.49c-1.91,5.48-5.25,14.1-7,19.78a18.12,18.12,0,0,0-2.07-.2,19,19,0,0,0-2.12.2c-1.75-7-7.57-26.07-8.18-27.8a34,34,0,0,0,3.42.2,30.44,30.44,0,0,0,3.3-.2c1.67,6.89,3.78,14.71,5.33,20.35H320c2.4-6.77,5.86-16.6,7-20.35a10.45,10.45,0,0,0,4.07,0c.73,3.59,5,15,6.43,20.35h.08c2.08-6.77,5.29-17.17,6-20.35a8.64,8.64,0,0,0,1.71.2,10.26,10.26,0,0,0,1.87-.2c-1.1,3.1-6.68,18.9-9.28,27.8a18.08,18.08,0,0,0-2.08-.2,18.82,18.82,0,0,0-2.11.2c-1.75-6.6-4-13.17-6.43-19.78Z" transform="translate(-129.78 -342.44)"/><path class="b" d="M373.29,410.27c-1.31-.08-2.45-.2-3.58-.2s-2.33.12-3.47.2c-.85-2.74-1.78-5.52-2.8-8.26-1.75,0-3.46-.08-5.21-.08-1.43,0-2.81,0-4.24.08a80,80,0,0,0-2.76,8.26,15.63,15.63,0,0,0-1.92-.2c-.65,0-1.26.12-2,.2,2-4.47,8.1-18.81,11.6-28a10.15,10.15,0,0,0,1.54.2,10.28,10.28,0,0,0,1.55-.2C365.43,391.46,370.2,403.71,373.29,410.27ZM362.5,399.64c-1.18-3.27-2.32-6.45-3.62-9.59-1.39,3.14-2.65,6.32-3.83,9.59Z" transform="translate(-129.78 -342.44)"/><path class="b" d="M382.89,389a26.51,26.51,0,0,0-.12-3.55c-1.59,0-5,.24-7.45.53a8,8,0,0,0,0-3.55c3.7.12,5.53.2,10.58.2s6.88-.08,10.34-.2a8,8,0,0,0,0,3.55,70.9,70.9,0,0,0-7.25-.53c-.08.57-.08,2-.08,3.55v10.07c0,4.51.08,7.62.33,11.16-.9-.08-2-.2-3.34-.2s-2.44.12-3.34.2c.25-3.54.33-6.65.33-11.16Z" transform="translate(-129.78 -342.44)"/><path class="b" d="M415.57,382c8.63,0,15.42,4.67,15.42,14.38,0,8-6.47,14.47-15.54,14.47-8.59,0-15.51-4.35-15.51-14.43C399.94,388.44,406.12,382,415.57,382Zm-.12,2.29c-5.58,0-8.84,5.57-8.84,12.49,0,8.59,4,11.57,8.55,11.57,4.89,0,9.16-4,9.16-12.81C424.32,388.51,420.7,384.24,415.45,384.24Z" transform="translate(-129.78 -342.44)"/><path class="b" d="M440.71,392c-.86,6.08-1.22,12.21-1.63,18.29a10.69,10.69,0,0,0-1.91-.2,10.32,10.32,0,0,0-1.91.2c1.7-9.26,3.05-18.53,4.19-27.8a7.94,7.94,0,0,0,1.67.2,7.65,7.65,0,0,0,1.63-.2c3,6.41,6.42,13.58,9.4,19.26,3.21-6,6.55-12.85,9.48-19.26a8.7,8.7,0,0,0,1.75.2,8.31,8.31,0,0,0,1.71-.2c1.06,9.27,2.48,22.12,3.5,27.8a30.44,30.44,0,0,0-3.3-.2,32.72,32.72,0,0,0-3.38.2c-.28-5.6-1-12.45-1.62-18.69h-.09c-3.05,6.24-6.06,12.45-9,18.69a6.7,6.7,0,0,0-.77-.08,6.87,6.87,0,0,0-.78.08c-2.88-6.08-5.82-12.21-8.87-18.29Z" transform="translate(-129.78 -342.44)"/><path class="b" d="M475.63,393.63c0-4.51-.09-7.61-.33-11.16.89.08,2,.2,3.34.2s2.44-.12,3.33-.2c-.24,3.55-.32,6.65-.32,11.16v5.48c0,4.51.08,7.62.32,11.16-.89-.08-2-.2-3.33-.2s-2.45.12-3.34.2c.24-3.54.33-6.65.33-11.16Z" transform="translate(-129.78 -342.44)"/><path class="b" d="M262.63,431.15v-5.66h-5.8v5.66h-1.89V418.54h1.89v5.1h5.8v-5.1h1.89v12.61Z" transform="translate(-129.78 -342.44)"/><path class="b" d="M276.12,431.34c-3.26,0-5.33-2.68-5.33-6.5s2.07-6.5,5.33-6.5,5.35,2.69,5.35,6.5S279.4,431.34,276.12,431.34Zm0-11.11c-2.19,0-3.4,1.79-3.4,4.61s1.21,4.61,3.4,4.61,3.43-1.78,3.43-4.61S278.34,420.23,276.12,420.23Z" transform="translate(-129.78 -342.44)"/><path class="b" d="M291.93,420.4v10.75H290V420.4h-3.67v-1.86h9.23v1.86Z" transform="translate(-129.78 -342.44)"/><path class="b" d="M301.68,431.15V418.54h8.12v1.84h-6.23v3.11h3.62v1.84h-3.62v4h6.5v1.84Z" transform="translate(-129.78 -342.44)"/><path class="b" d="M316.35,431.15V418.54h1.89v10.75h6.29v1.86Z" transform="translate(-129.78 -342.44)"/><path class="c" d="M338.21,431.15l-1-1.17a5.31,5.31,0,0,1-3.55,1.36c-2.68,0-4-1.38-4-3.42,0-1.71.9-2.73,2.65-3.72l-.24-.29a4,4,0,0,1-1.19-2.67c0-1.82,1.35-2.9,3.5-2.9a5.84,5.84,0,0,1,3.38,1.19l-.88,1.52a4.11,4.11,0,0,0-2.67-1c-1,0-1.44.41-1.44,1.12a2.15,2.15,0,0,0,.65,1.51l3.69,4.52a9.25,9.25,0,0,0,.87-2.09l1.71.49a9.84,9.84,0,0,1-1.37,3l2,2.47Zm-4.77-5.68c-1.19.67-1.84,1.34-1.84,2.36s.68,1.79,2.14,1.79a3.36,3.36,0,0,0,2.36-1Z" transform="translate(-129.78 -342.44)"/><path class="b" d="M350.61,431.34c-3.26,0-5.33-2.68-5.33-6.5s2.07-6.5,5.33-6.5a4.54,4.54,0,0,1,4.29,2.36l-1.68,1.05a2.73,2.73,0,0,0-2.61-1.52c-2.2,0-3.39,1.79-3.39,4.61s1.19,4.61,3.39,4.61a3,3,0,0,0,2.77-1.56l1.57,1A4.8,4.8,0,0,1,350.61,431.34Z" transform="translate(-129.78 -342.44)"/><path class="b" d="M369.26,431.15l-1.06-3h-5.05l-1,3h-2l4.53-12.61h2l4.59,12.61Zm-2.65-7.58c-.31-.9-.81-2.36-.95-2.9-.15.54-.6,2-.92,2.91l-1,2.88h3.89Z" transform="translate(-129.78 -342.44)"/><path class="b" d="M380.92,431.34a5.82,5.82,0,0,1-4.48-2l1.35-1.32a4.59,4.59,0,0,0,3.27,1.5c1.77,0,2.62-.61,2.62-1.84,0-1-.74-1.46-2.85-2.09-2.66-.79-3.94-1.45-3.94-3.71s1.83-3.51,4.16-3.51a5.65,5.65,0,0,1,4.12,1.71l-1.33,1.35a3.81,3.81,0,0,0-2.94-1.2c-1.47,0-2.1.72-2.1,1.56s.57,1.32,2.75,2c2.49.75,4,1.55,4,3.8S384.14,431.34,380.92,431.34Z" transform="translate(-129.78 -342.44)"/><path class="b" d="M392.1,431.15V418.54H394v12.61Z" transform="translate(-129.78 -342.44)"/><path class="b" d="M408.73,431.15l-5-7.91c-.31-.47-.74-1.22-.94-1.55,0,.47,0,2.22,0,2.92v6.54H401V418.54h1.93l4.79,7.69c.32.52.86,1.46,1,1.78,0-.46,0-2.27,0-3v-6.5h1.83v12.61Z" transform="translate(-129.78 -342.44)"/><path class="b" d="M422.14,431.34c-3.26,0-5.33-2.68-5.33-6.5s2.07-6.5,5.33-6.5,5.35,2.69,5.35,6.5S425.42,431.34,422.14,431.34Zm0-11.11c-2.2,0-3.4,1.79-3.4,4.61s1.2,4.61,3.4,4.61,3.42-1.78,3.42-4.61S424.36,420.23,422.14,420.23Z" transform="translate(-129.78 -342.44)"/><rect class="b" x="307.34" y="82.31" width="45.28" height="0.66"/><rect class="b" x="69.41" y="82.31" width="45.28" height="0.66"/><path class="d" d="M148.34,366.77c5.33,5.53,6.94,9.13,6.94,16.72A58.11,58.11,0,0,1,152.66,402c-.66,2.07-1.28,3.91-1.84,5.65,7.36-13.4,9.9-21.22,10.84-31.54A35.27,35.27,0,0,0,148.34,366.77Z" transform="translate(-129.78 -342.44)"/><path class="e" d="M160.35,342.44c9.36,9.54,15,18.09,15,26.64,0,9.16-3.48,14.13-9.19,20.05-4.32,7-5.81,12.06-5.81,18.69,0,10.12,5.06,16.53,13.49,16.53,10.5,0,14.62-12.26,8.64-22.57,1.12,7.2,0,15-6.39,15-3.93,0-6.38-1.95-6.38-5.84s2.1-7.86,5.44-12.26c6.58-8.55,8.81-15.56,8.81-25.68C184,360.72,173.66,349.24,160.35,342.44Z" transform="translate(-129.78 -342.44)"/><path class="f" d="M150.82,407.63l.51-.93c-.19.32-.35.63-.51.93" transform="translate(-129.78 -342.44)"/><path class="g" d="M161.66,376.09c-.91,10.08-3.36,17.77-10.33,30.61,3-5.14,9.45-12,14.83-17.57,5.71-5.92,9.19-10.89,9.19-20.05,0-8.55-5.64-17.1-15-26.64,6.19,12.45,8.62,24.33,1.31,33.65" transform="translate(-129.78 -342.44)"/><path class="h" d="M156,414.62c0,9.54,4.78,16.82,13.31,19.85,7.11,2.54,10.11,2,15.15.78a19,19,0,0,0,7.17-15c0-6.81-3.57-13-9.18-18.49,6,10.31,1.86,22.57-8.64,22.57-8.43,0-13.49-6.41-13.49-16.53,0-6.63,1.49-11.68,5.81-18.69-6,8-10.13,16-10.13,25.49" transform="translate(-129.78 -342.44)"/><path class="i" d="M150.82,407.63a35.9,35.9,0,0,0-2.12,11.47c0,14.39,14.07,26.25,28.33,20.65a29.23,29.23,0,0,0,7.46-4.5c-5,1.18-8,1.76-15.15-.78-8.53-3-13.31-10.31-13.31-19.85s4.12-17.51,10.13-25.49c-5.71,5.94-12.66,13.27-15.34,18.5" transform="translate(-129.78 -342.44)"/><path class="j" d="M145.9,390.12c-4.5,6.22-16.12,15.37-16.12,28.4S142.71,443,159.4,443A46.2,46.2,0,0,0,177,439.75c-14.26,5.6-28.33-6.26-28.33-20.65a35.9,35.9,0,0,1,2.12-11.47h0c.56-1.74,1.18-3.58,1.84-5.65a58.11,58.11,0,0,0,2.62-18.49c0-7.59-1.61-11.19-6.94-16.72,3.37,6.59,2,17.12-2.44,23.35" transform="translate(-129.78 -342.44)"/><path class="b" d="M434.47,420.75a2.48,2.48,0,1,1-2.45-2.41A2.43,2.43,0,0,1,434.47,420.75Zm-4.33,0a1.87,1.87,0,0,0,1.88,1.92,1.84,1.84,0,0,0,1.83-1.91,1.86,1.86,0,1,0-3.71,0Zm1.48,1.25h-.56v-2.41a6.55,6.55,0,0,1,.93-.07,1.27,1.27,0,0,1,.82.19.59.59,0,0,1,.25.51.61.61,0,0,1-.5.57v0c.23.08.35.27.43.59a2.3,2.3,0,0,0,.17.59h-.58a1.82,1.82,0,0,1-.2-.59c0-.25-.19-.37-.5-.37h-.26Zm0-1.35h.27c.31,0,.56-.1.56-.35s-.17-.37-.52-.37a1.14,1.14,0,0,0-.31,0Z" transform="translate(-129.78 -342.44)"/></svg>