<svg xmlns="http://www.w3.org/2000/svg" xmlns:xlink="http://www.w3.org/1999/xlink" viewBox="0 0 352.62 100.6"><defs><style>.a{fill:#e14221;}.b{fill:#231f20;}.c{fill:#f99d1c;}.d{fill:url(#a);}.e{fill:url(#b);}.f{fill:url(#c);}.g{fill:url(#d);}.h{fill:url(#e);}.i{fill:url(#f);}.j{fill:url(#g);}</style><linearGradient id="a" x1="155.52" y1="381.96" x2="156.22" y2="402.92" gradientUnits="userSpaceOnUse"><stop offset="0" stop-color="#e14221"/><stop offset="1" stop-color="#f99d1c"/></linearGradient><linearGradient id="b" x1="171.44" y1="423.09" x2="173.81" y2="351.64" gradientUnits="userSpaceOnUse"><stop offset="0" stop-color="#e14221"/><stop offset="0.05" stop-color="#e44e20"/><stop offset="0.2" stop-color="#ec6a1f"/><stop offset="0.36" stop-color="#f2811e"/><stop offset="0.53" stop-color="#f6911d"/><stop offset="0.73" stop-color="#f89a1c"/><stop offset="1" stop-color="#f99d1c"/></linearGradient><linearGradient id="c" x1="151.26" y1="407.03" x2="151.23" y2="407.3" xlink:href="#a"/><linearGradient id="d" x1="165.46" y1="366.25" x2="163.86" y2="384.55" xlink:href="#a"/><linearGradient id="e" x1="156.2" y1="412.69" x2="191.83" y2="412.69" xlink:href="#a"/><linearGradient id="f" x1="167.69" y1="406.77" x2="166.77" y2="426.73" xlink:href="#a"/><linearGradient id="g" x1="153.25" y1="425.94" x2="149.84" y2="386.96" xlink:href="#a"/></defs><title>potawatomi</title><path class="a" d="M182.65,401.78c1.12,7.2,0,15-6.39,15-3.93,0-6.38-1.95-6.38-5.84s2.1-7.86,5.44-12.26c6.58-8.55,8.81-15.56,8.81-25.68,0-12.27-10.3-23.75-23.61-30.55,6.19,12.45,8.62,24.33,1.31,33.65h0a35.27,35.27,0,0,0-13.32-9.32c3.38,6.59,2.05,17.12-2.44,23.35S130,405.49,130,418.52,142.88,443,159.57,443a46.2,46.2,0,0,0,17.63-3.29,29.23,29.23,0,0,0,7.46-4.5,19,19,0,0,0,7.17-15C191.83,413.46,188.26,407.24,182.65,401.78Z" transform="translate(-129.95 -342.44)"/><path class="b" d="M200.91,393.63c0-4.51-.08-7.61-.33-11.16.9.08,2,.2,3.34.2,1.87,0,4-.2,5.94-.2,3.83,0,5.82.61,7.09,1.65a6.48,6.48,0,0,1,2.52,5.44c0,6.17-4.39,8.62-10.46,8.62h-2.08c0,4,0,8.06.33,12.09-.9-.08-2-.2-3.34-.2s-2.44.12-3.34.2c.25-3.54.33-6.65.33-11.16Zm7.81-8.86c-.65,0-1.26,0-1.7,0,0,3.79-.09,7.57-.09,11.32,2.73,0,6.11-.72,6.11-5.92C213,386.1,211,384.77,208.72,384.77Z" transform="translate(-129.95 -342.44)"/><path class="b" d="M239.57,382c8.63,0,15.43,4.67,15.43,14.38,0,8-6.47,14.47-15.55,14.47-8.59,0-15.51-4.35-15.51-14.43C223.94,388.44,230.13,382,239.57,382Zm-.12,2.29c-5.58,0-8.83,5.57-8.83,12.49,0,8.59,4,11.57,8.54,11.57,4.89,0,9.16-4,9.16-12.81C248.32,388.51,244.7,384.24,239.45,384.24Z" transform="translate(-129.95 -342.44)"/><path class="b" d="M265.44,389a26.51,26.51,0,0,0-.12-3.55c-1.58,0-5,.24-7.45.53a7.61,7.61,0,0,0,0-3.55c3.71.12,5.54.2,10.59.2s6.87-.08,10.34-.2a7.61,7.61,0,0,0,0,3.55,70.9,70.9,0,0,0-7.25-.53c-.08.57-.08,2-.08,3.55v10.07c0,4.51.08,7.62.32,11.16-.89-.08-2-.2-3.33-.2s-2.45.12-3.34.2c.24-3.54.32-6.65.32-11.16Z" transform="translate(-129.95 -342.44)"/><path class="b" d="M306.43,410.27c-1.31-.08-2.45-.2-3.59-.2s-2.32.12-3.45.2c-.86-2.74-1.8-5.52-2.81-8.26-1.75,0-3.46-.08-5.21-.08-1.43,0-2.81,0-4.24.08a80,80,0,0,0-2.76,8.26,15.63,15.63,0,0,0-1.92-.2c-.65,0-1.26.12-2,.2,2-4.47,8.1-18.81,11.6-28a6.07,6.07,0,0,0,3.09,0C298.57,391.46,303.33,403.71,306.43,410.27Zm-10.79-10.63c-1.18-3.27-2.32-6.45-3.62-9.59-1.39,3.14-2.65,6.32-3.83,9.59Z" transform="translate(-129.95 -342.44)"/><path class="b" d="M327.38,390.49c-1.91,5.48-5.24,14.1-7,19.78a18.12,18.12,0,0,0-2.07-.2,19,19,0,0,0-2.12.2c-1.75-7-7.57-26.07-8.18-27.8a34,34,0,0,0,3.42.2,30.44,30.44,0,0,0,3.3-.2c1.67,6.89,3.78,14.71,5.33,20.35h.08c2.4-6.77,5.86-16.6,7-20.35a10.45,10.45,0,0,0,4.07,0c.74,3.59,5,15,6.43,20.35h.08c2.08-6.77,5.29-17.17,6-20.35a8.64,8.64,0,0,0,1.71.2,10.26,10.26,0,0,0,1.87-.2c-1.1,3.1-6.68,18.9-9.28,27.8a18.08,18.08,0,0,0-2.08-.2,18.82,18.82,0,0,0-2.11.2c-1.75-6.6-4-13.17-6.43-19.78Z" transform="translate(-129.95 -342.44)"/><path class="b" d="M373.46,410.27c-1.31-.08-2.45-.2-3.58-.2s-2.32.12-3.47.2c-.85-2.74-1.78-5.52-2.8-8.26-1.75,0-3.46-.08-5.21-.08-1.43,0-2.81,0-4.24.08a80,80,0,0,0-2.76,8.26,15.47,15.47,0,0,0-1.91-.2,20.31,20.31,0,0,0-2,.2c2-4.47,8.1-18.81,11.6-28a10.15,10.15,0,0,0,1.54.2,10.28,10.28,0,0,0,1.55-.2C365.6,391.46,370.37,403.71,373.46,410.27Zm-10.79-10.63c-1.18-3.27-2.32-6.45-3.62-9.59-1.39,3.14-2.65,6.32-3.83,9.59Z" transform="translate(-129.95 -342.44)"/><path class="b" d="M383.06,389a26.51,26.51,0,0,0-.12-3.55c-1.59,0-5,.24-7.45.53a8,8,0,0,0,0-3.55c3.7.12,5.53.2,10.58.2s6.88-.08,10.34-.2a8,8,0,0,0,0,3.55,70.9,70.9,0,0,0-7.25-.53c-.08.57-.08,2-.08,3.55v10.07c0,4.51.08,7.62.33,11.16-.9-.08-2-.2-3.34-.2s-2.44.12-3.34.2c.25-3.54.33-6.65.33-11.16Z" transform="translate(-129.95 -342.44)"/><path class="b" d="M415.74,382c8.63,0,15.42,4.67,15.42,14.38,0,8-6.47,14.47-15.54,14.47-8.59,0-15.51-4.35-15.51-14.43C400.11,388.44,406.29,382,415.74,382Zm-.12,2.29c-5.58,0-8.84,5.57-8.84,12.49,0,8.59,4,11.57,8.55,11.57,4.89,0,9.16-4,9.16-12.81C424.49,388.51,420.87,384.24,415.62,384.24Z" transform="translate(-129.95 -342.44)"/><path class="b" d="M440.88,392c-.86,6.08-1.22,12.21-1.63,18.29a10.69,10.69,0,0,0-1.91-.2,10.32,10.32,0,0,0-1.91.2c1.71-9.26,3.05-18.53,4.19-27.8a7.94,7.94,0,0,0,1.67.2,7.57,7.57,0,0,0,1.63-.2c3,6.41,6.42,13.58,9.4,19.26,3.21-6,6.55-12.85,9.48-19.26a8.7,8.7,0,0,0,1.75.2,8.31,8.31,0,0,0,1.71-.2c1.06,9.27,2.48,22.12,3.5,27.8a30.44,30.44,0,0,0-3.3-.2,32.72,32.72,0,0,0-3.38.2c-.28-5.6-1-12.45-1.62-18.69h-.09c-3,6.24-6.06,12.45-9,18.69a6.7,6.7,0,0,0-.77-.08,6.87,6.87,0,0,0-.78.08C447,404.19,444,398.06,441,392Z" transform="translate(-129.95 -342.44)"/><path class="b" d="M475.8,393.63c0-4.51-.09-7.61-.33-11.16.89.08,2,.2,3.34.2s2.44-.12,3.34-.2c-.25,3.55-.33,6.65-.33,11.16v5.48c0,4.51.08,7.62.33,11.16-.9-.08-2-.2-3.34-.2s-2.45.12-3.34.2c.24-3.54.33-6.65.33-11.16Z" transform="translate(-129.95 -342.44)"/><path class="b" d="M262.8,431.15v-5.66H257v5.66h-1.89V418.54H257v5.1h5.8v-5.1h1.89v12.61Z" transform="translate(-129.95 -342.44)"/><path class="b" d="M276.29,431.34c-3.25,0-5.32-2.68-5.32-6.5s2.07-6.5,5.32-6.5,5.35,2.69,5.35,6.5S279.57,431.34,276.29,431.34Zm0-11.11c-2.19,0-3.4,1.79-3.4,4.61s1.21,4.61,3.4,4.61,3.43-1.78,3.43-4.61S278.51,420.23,276.29,420.23Z" transform="translate(-129.95 -342.44)"/><path class="b" d="M292.1,420.4v10.75h-1.89V420.4h-3.67v-1.86h9.23v1.86Z" transform="translate(-129.95 -342.44)"/><path class="b" d="M301.85,431.15V418.54H310v1.84h-6.23v3.11h3.62v1.84h-3.62v4h6.5v1.84Z" transform="translate(-129.95 -342.44)"/><path class="b" d="M316.52,431.15V418.54h1.89v10.75h6.29v1.86Z" transform="translate(-129.95 -342.44)"/><path class="c" d="M338.38,431.15l-1-1.17a5.31,5.31,0,0,1-3.55,1.36c-2.68,0-4-1.38-4-3.42,0-1.71.9-2.73,2.65-3.72l-.24-.29a4,4,0,0,1-1.19-2.67c0-1.82,1.35-2.9,3.5-2.9a5.84,5.84,0,0,1,3.38,1.19l-.88,1.52a4.11,4.11,0,0,0-2.67-1c-1,0-1.44.41-1.44,1.12a2.15,2.15,0,0,0,.65,1.51l3.69,4.52a9.25,9.25,0,0,0,.87-2.09l1.71.49a9.84,9.84,0,0,1-1.37,3l2,2.47Zm-4.77-5.68c-1.19.67-1.84,1.34-1.84,2.36s.68,1.79,2.14,1.79a3.36,3.36,0,0,0,2.36-1Z" transform="translate(-129.95 -342.44)"/><path class="b" d="M350.78,431.34c-3.26,0-5.33-2.68-5.33-6.5s2.07-6.5,5.33-6.5a4.54,4.54,0,0,1,4.29,2.36l-1.68,1.05a2.73,2.73,0,0,0-2.61-1.52c-2.2,0-3.38,1.79-3.38,4.61s1.18,4.61,3.38,4.61a3,3,0,0,0,2.77-1.56l1.57,1A4.8,4.8,0,0,1,350.78,431.34Z" transform="translate(-129.95 -342.44)"/><path class="b" d="M369.43,431.15l-1.06-3h-5.05l-1,3h-2l4.54-12.61h2l4.6,12.61Zm-2.65-7.58c-.3-.9-.81-2.36-.95-2.9-.15.54-.6,2-.92,2.91l-1,2.88h3.89Z" transform="translate(-129.95 -342.44)"/><path class="b" d="M381.09,431.34a5.82,5.82,0,0,1-4.48-2L378,428a4.6,4.6,0,0,0,3.28,1.5c1.76,0,2.61-.61,2.61-1.84,0-1-.74-1.46-2.85-2.09-2.66-.79-3.94-1.45-3.94-3.71s1.83-3.51,4.16-3.51a5.65,5.65,0,0,1,4.12,1.71L384,421.4a3.81,3.81,0,0,0-2.94-1.2c-1.47,0-2.1.72-2.1,1.56s.57,1.32,2.75,2c2.49.75,4,1.55,4,3.8S384.31,431.34,381.09,431.34Z" transform="translate(-129.95 -342.44)"/><path class="b" d="M392.27,431.15V418.54h1.89v12.61Z" transform="translate(-129.95 -342.44)"/><path class="b" d="M408.9,431.15l-5-7.91c-.31-.47-.74-1.22-.94-1.55,0,.47,0,2.22,0,2.92v6.54h-1.84V418.54h1.93l4.79,7.69c.32.52.86,1.46,1,1.78,0-.46,0-2.27,0-3v-6.5h1.83v12.61Z" transform="translate(-129.95 -342.44)"/><path class="b" d="M422.31,431.34c-3.26,0-5.33-2.68-5.33-6.5s2.07-6.5,5.33-6.5,5.35,2.69,5.35,6.5S425.59,431.34,422.31,431.34Zm0-11.11c-2.2,0-3.4,1.79-3.4,4.61s1.2,4.61,3.4,4.61,3.42-1.78,3.42-4.61S424.53,420.23,422.31,420.23Z" transform="translate(-129.95 -342.44)"/><rect class="b" x="307.34" y="82.31" width="45.28" height="0.66"/><rect class="b" x="69.41" y="82.31" width="45.28" height="0.66"/><path class="d" d="M148.51,366.77c5.33,5.53,7,9.13,7,16.72A58.12,58.12,0,0,1,152.83,402c-.66,2.07-1.28,3.91-1.84,5.65,7.36-13.4,9.91-21.22,10.84-31.54A35.27,35.27,0,0,0,148.51,366.77Z" transform="translate(-129.95 -342.44)"/><path class="e" d="M160.52,342.44c9.36,9.54,15,18.09,15,26.64,0,9.16-3.48,14.13-9.18,20.05-4.33,7-5.82,12.06-5.82,18.69,0,10.12,5.06,16.53,13.49,16.53,10.5,0,14.62-12.26,8.64-22.57,1.12,7.2,0,15-6.39,15-3.93,0-6.38-1.95-6.38-5.84s2.1-7.86,5.44-12.26c6.58-8.55,8.81-15.56,8.81-25.68C184.13,360.72,173.83,349.24,160.52,342.44Z" transform="translate(-129.95 -342.44)"/><path class="f" d="M151,407.63l.51-.93-.51.93" transform="translate(-129.95 -342.44)"/><path class="g" d="M161.83,376.09c-.91,10.08-3.36,17.77-10.33,30.61,3-5.14,9.45-12,14.84-17.57,5.7-5.92,9.18-10.89,9.18-20.05,0-8.55-5.64-17.1-15-26.64,6.19,12.45,8.62,24.33,1.31,33.65" transform="translate(-129.95 -342.44)"/><path class="h" d="M156.2,414.62c0,9.54,4.78,16.82,13.31,19.85,7.11,2.54,10.11,2,15.15.78a19,19,0,0,0,7.17-15c0-6.81-3.57-13-9.18-18.49,6,10.31,1.86,22.57-8.64,22.57-8.43,0-13.49-6.41-13.49-16.53,0-6.63,1.49-11.68,5.82-18.69-6,8-10.14,16-10.14,25.49" transform="translate(-129.95 -342.44)"/><path class="i" d="M151,407.63a35.9,35.9,0,0,0-2.12,11.47c0,14.39,14.07,26.25,28.33,20.65a29.23,29.23,0,0,0,7.46-4.5c-5,1.18-8,1.76-15.15-.78-8.53-3-13.31-10.31-13.31-19.85s4.12-17.51,10.14-25.49c-5.72,5.94-12.67,13.27-15.35,18.5" transform="translate(-129.95 -342.44)"/><path class="j" d="M146.07,390.12c-4.5,6.22-16.12,15.37-16.12,28.4S142.88,443,159.57,443a46.2,46.2,0,0,0,17.63-3.29c-14.26,5.6-28.33-6.26-28.33-20.65A35.9,35.9,0,0,1,151,407.63h0c.56-1.74,1.18-3.58,1.84-5.65a58.12,58.12,0,0,0,2.63-18.49c0-7.59-1.62-11.19-7-16.72,3.38,6.59,2.05,17.12-2.44,23.35" transform="translate(-129.95 -342.44)"/><path class="b" d="M434.47,420.66a2.48,2.48,0,1,1-2.45-2.41A2.43,2.43,0,0,1,434.47,420.66Zm-4.33,0a1.87,1.87,0,0,0,1.88,1.92,1.84,1.84,0,0,0,1.83-1.91,1.86,1.86,0,1,0-3.71,0Zm1.48,1.24h-.56v-2.4a6.29,6.29,0,0,1,.93-.08,1.33,1.33,0,0,1,.82.19.61.61,0,0,1-.25,1.09v0c.23.07.35.26.43.59a2.16,2.16,0,0,0,.17.58h-.58a1.74,1.74,0,0,1-.2-.58c0-.25-.19-.37-.5-.37h-.26Zm0-1.34h.27c.31,0,.56-.1.56-.36s-.17-.36-.52-.36a1.14,1.14,0,0,0-.31,0Z" transform="translate(-129.95 -342.44)"/></svg>