<svg xmlns="http://www.w3.org/2000/svg" viewBox="0 0 375.14 375.16"><defs><style>.a{fill:none;}.b{fill:#e30313;}.c{fill:#fefbfb;}.d{fill:#fefefe;}.e{fill:#e40010;}.f{fill:#e10003;}.g{fill:#e40618;}.h{fill:#e40916;}.i{fill:#e10001;}.j{fill:#e2010c;}.k{fill:#e4010e;}.l{fill:#fcf1f1;}.m{fill:#e10002;}.n{fill:#e40718;}.o{fill:#fefdfd;}.p{fill:#e10101;}.q{fill:#f28189;}.r{fill:#fdf9fa;}.s{fill:#e30006;}.t{fill:#e3000b;}.u{fill:#e40617;}.v{fill:#e30008;}.w{fill:#e40817;}.x{fill:#e40816;}.y{fill:#e20001;}.z{fill:#e20006;}.aa{fill:#e00006;}.ab{fill:#e20008;}.ac{fill:#e10008;}.ad{fill:#e10103;}.ae{fill:#e20002;}.af{fill:#e20101;}.ag{fill:#e20007;}.ah{fill:#fdfbfb;}.ai{fill:#fdfafa;}.aj{fill:#fdfcfc;}.ak{fill:#fdf6f6;}.al{fill:#e20004;}.am{fill:#e10006;}.an{fill:#e40818;}.ao{fill:#e3000a;}.ap{fill:#e10100;}.aq{fill:#f07c81;}.ar{fill:#e2040c;}.as{fill:#e40917;}.at{fill:#e00103;}.au{fill:#e30009;}.av{fill:#e20208;}.aw{fill:#e20106;}.ax{fill:#e20105;}.ay{fill:#e20005;}.az{fill:#e10004;}.ba{fill:#e20009;}.bb{fill:#e20109;}.bc{fill:#e20103;}.bd{fill:#e2000a;}.be{fill:#e30007;}.bf{fill:#e00007;}.bg{fill:#e3040f;}.bh{fill:#e20003;}.bi{fill:#e10005;}.bj{fill:#e3000c;}.bk{fill:#e4000d;}.bl{fill:#fefafa;}.bm{fill:#e4101a;}.bn{fill:#e40e18;}.bo{fill:#e50916;}.bp{fill:#e30713;}.bq{fill:#e50c18;}.br{fill:#fce7e8;}.bs{fill:#e5141a;}.bt{fill:#e40b13;}</style></defs><title>alfa</title><path class="a" d="M422.61,485.89h7.22l-.82,0C426.85,485.86,424.7,485.86,422.61,485.89Z" transform="translate(-119.69 -208.66)"/><path class="a" d="M456.63,485.38a1.19,1.19,0,0,0-.63-.58,4.18,4.18,0,0,1,.09.58Z" transform="translate(-119.69 -208.66)"/><path class="a" d="M449.19,422.59h-.07v0l.08,0Z" transform="translate(-119.69 -208.66)"/><path class="a" d="M467.24,518.38l-.09,0,0,.06.12,0Z" transform="translate(-119.69 -208.66)"/><path class="a" d="M456.63,485.38h0a1.19,1.19,0,0,0-.15.09l.19,0,0-.06Z" transform="translate(-119.69 -208.66)"/><path class="b" d="M494.75,520c-9.71,0-19.42,0-29.13,0-1.3,0-2.77.49-3.87-.73,1.61-1.39,3.61-.35,5.37-.84l0-.06c-1.67-.68-3.58.3-5.53-.83,2.41-1.81,5.21-3.16,5.41-6.51a1.86,1.86,0,0,1-.12-3c-3.1-7.67-6.46-15.22-10.24-22.58l-.19,0c-.48.29-1,.71-1.44.71-8.41,0-16.81,0-25.21-.29h-7.22c2.09,0,4.24,0,6.4,0q-4.18-.17-8.37-.47h35.45a4.18,4.18,0,0,0-.09-.58,4.47,4.47,0,0,0-1.71,0c-11.22,0-22.45,0-33.67-.06a3.4,3.4,0,0,0-3.56,2c-3,5.79-5.51,11.7-6.69,18.16-.86,4.69.49,8.35,4.6,10.88,1.08.67,2.44,1.18.8,2.65l1,.87h0c-.61.81-1.5.76-2.36.76H392.11c-.86,0-1.75,0-2.36-.76l1-.87c-1.48-1.31-.44-2.2.57-3,6.9-5.28,10.66-12.66,14.14-20.36C415.56,472.64,426,450.38,436,428c1.53-3.41,3.37-4.71,6.93-4.59,2,.07,4.2.24,6.16-.73v0l-3.88-.24a6,6,0,0,1,4.49-.32s0,.22,0,.32a1,1,0,0,1-.23.28q11.36,26.43,22.72,52.87c3.83,8.93,7.6,17.88,11.41,26.82a40.77,40.77,0,0,0,6.66,10.78c1.2,1.4,2.38,2.92,4.45,3.15q0-152,.06-304c0-2.61-.25-3.58-3.32-3.58q-184.24.15-368.49,0c-3.07,0-3.31,1-3.31,3.58q.11,156.89.06,313.76h375Zm-28.36-87.53a10.56,10.56,0,0,1,9.06-8.36h0l-.69-.22c.79-1.43,2.38-.83,3-.49,1.09.58-.37.43-.54.74a10.8,10.8,0,0,1,8.37,8.32c1.78-.4.62,1,.83,1.5.1.25.66,1.66-.82,1.07a10.88,10.88,0,0,1-8.34,8.33h0c-.06,1.77-1.4.52-2.08.85-.21.09-1.11.11-.39-.62.14-.14.44-.14.66-.21a10.53,10.53,0,0,1-9.08-8.35h0c-1.49.6-.93-.83-.83-1.07C465.77,433.46,464.61,432.06,466.39,432.47ZM403.76,481.7h-.31V459.45h.31ZM408,425.59h.37v17l-.37-.13ZM276.5,423.25a2.62,2.62,0,0,1,2.37-.75h27.51c.87,0,1.75-.05,2.37.75-.3.2-.61.58-.91.58q-15.61,0-31.24,0c-.07,0-.19-.16-.2-.25a1.24,1.24,0,0,1,.1-.35Zm-5,96.67c-10.44.06-20.89.06-31.33.07-.11,0-.29,0-.32-.12a4.21,4.21,0,0,1-.09-.62c0-.33.06-.66.08-1-.52-1.48.85-1.51,1.57-2,3.81-2.73,4.69-5.79,2.78-10.05-2.85-6.36-5.78-12.68-8.61-19.05-.64-1.46-1.22-2.46-3.17-2.44-11.59.1-23.18.05-34.77.05-.62,0-1.25,0-1.64.62h36.19v.89h-20c-4.12,0-8.23,0-12.35,0-1.34,0-2.78.3-3.88-.86l0,0,0,0a48.17,48.17,0,0,0-7.11,17.39,11,11,0,0,1,0,8.22c.49,2.18,2.06,3.51,3.83,4.62,1.11.69,2.18,1.25,1.1,2.75l1,.88c-.61.81-1.5.76-2.36.76H170.11c-.86,0-1.75,0-2.36-.75h0l1-.88h0c-1.58-1.22-.63-2.15.41-3,7-5.36,10.78-12.9,14.32-20.7,10.18-22.52,20.59-44.93,30.76-67.44,1.19-2.62,2.54-3.75,5.48-3.86,8-.3,8-.44,11.1,6.82q15.33,36,30.71,71.95c2.33,5.42,5.09,10.63,10.29,13.95,1.42.91.86,1.49,0,2.23l1,.88C272.33,519.48,271.91,519.92,271.49,519.92Zm67.2-1.61h0l.06.93h0c-.62.82-1.51.76-2.38.76H277.66a3.5,3.5,0,0,1-1.07-.15c-.08,0-.06-.39-.09-.6s0-.49,0-.73c-.12-.69-.16-1.33.73-1.55l1.34-.93c1.15-1.8,3.43-2.73,3.92-5h0c-1.12-1-.71-2.33-.71-3.53q0-35.43,0-70.86c0-1.21-.38-2.52.59-3.59-.85-3.36-3.42-5.55-6.06-8.3h32.37c-2.85,3.69-7.07,6.27-7.37,11.28h.7c1.14,1,.73,2.31.73,3.5q0,32.49,0,65c0,1.2.41,2.53-.73,3.51l-.62.73c1.89,5.12,6.32,4.37,10.38,4.48a3.57,3.57,0,0,1,4.48,0h0c1.61.11,3.24.29,4.73-.57l-3-.35c1.85-.66,3.11-.84,4.3.15,5-.68,9-3.3,12.53-6.73s5.75-7.62,7.91-11.93l.9.33q-2.44,11.09-4.88,22.17l-.12,1.38A1.55,1.55,0,0,1,338.69,518.31Zm42.37-45.6c-3.09.18-6.21,0-9.31,0,0,9.45,0,18.89,0,28.33,0,1.32.47,2.76-.67,3.9.57,4.64,2.05,8.87,5.84,11.85,1.1.86.39,1.07-.11,1.54h0l1,.88c-.9.13-1.81.22-2.71.29a128.5,128.5,0,0,1-24.1.12,31,31,0,0,1-3.94-.41c-.64-.48-.15-.67.24-.89-.65-.66-.56-1,.23-1.68a10.66,10.66,0,0,0,4-6.42h0c-1.53-2.13.1-4.26.08-6.4-.17-20.95-.11-41.9-.07-62.85,0-1.43-.57-3,.72-4.26-.48-4.24-3.45-7-6-10-.85-.56-1.83-1-2.29-2l-.67-.63c0-.29,0-.58-.05-.87,1-1.14,2.31-.73,3.5-.73q28.38,0,56.75,0c1.19,0,2.52-.41,3.5.73v1.52l0,2.23v16.49c-4.27-6.57-8-12.87-15.59-13.81-6.74-.84-13.61-1.33-20.38.32,1.24,1.09.74,2.55.75,3.85,0,7.83,0,15.66,0,23.49,0,8.66,0,8.58,8.85,8.71,2.79,0,5.69-.82,8.38.62,5.7-.5,9.8-3.53,12.92-8.58,1.15,1.82.68,3.45.69,5,.07,5,.09,10,0,14.95,0,1.4.84,3.53-.65,4.05-1.71.59-2-1.75-2.82-2.87-1.52-2.14-2.94-4.35-5.22-5.78-1.26-.79-2.53-1.62-4.14-1.41C387,473.57,384,472.53,381.06,472.71Z" transform="translate(-119.69 -208.66)"/><path class="b" d="M346.33,426.38a.31.31,0,0,1,.05-.1h0S346.34,426.35,346.33,426.38Z" transform="translate(-119.69 -208.66)"/><path class="b" d="M494.75,538.75h-375v40.13c0,4.87,0,4.87,4.88,4.87q183.56,0,367.12.07c2.57,0,3.11-.5,3.08-3.07C494.67,566.75,494.75,552.75,494.75,538.75ZM475.15,545l-.17.37H456V545Zm-81,0a7.36,7.36,0,0,1-5,0ZM376,545.3h-5A6.4,6.4,0,0,1,376,545.3ZM343.15,545v.35H338.1V545Zm-54.45,0h14v.37h-14ZM186,545.16a5.72,5.72,0,0,1-4.19-.08A5.72,5.72,0,0,1,186,545.16Zm-16.75-.22v.36H164v-.36Zm-24.78,29.6a3.47,3.47,0,0,1-5.14,0c0-.21,0-.41,0-.62l-.18.14-.35,0-.35-.09h-.72c-.81.28-.75-.33-.75-.78q0-12.48,0-25a2.26,2.26,0,0,1,.75-2h.79l.75,0h0a.63.63,0,0,1,.71,0c4.84-.32,4.92-.32,4.82,4.44C144.64,558.68,145.35,566.62,144.44,574.54Zm1.36-.63h-.36V547.13l.36.13Zm17.26,0-.36-.1V547.09h.36Zm23.57-24.4c-.11,8.33-.14,16.66-.21,25-1.46,1.93-3.37.93-5.15.79a.56.56,0,0,1,0-.31.94.94,0,0,1,.2-.29c-3.41-3.42-4.89-8.06-7.51-12-.82-1.23-1.6-2.5-2.4-3.75-.26.28-.52.57-.79.85V573c-.41-4.43-1.6-8.87,0-13.27-.2-.75-1.18-1.51,0-2.25a2.13,2.13,0,0,0-1.49-1.88c0,5.22,0,10.26,0,15.3,0,1.27.62,2.79-.93,3.71-1.46,1.59-2.87,1.24-4.25-.12-.76-8.82-.14-17.65-.33-26.48,0-.86,0-2,1.22-1.8,2,.27,4.44-1.18,6,1.62,2.49,4.57,5.24,9,7.88,13.49,1.91-2.17.69-4.77.91-7.15s.05-4.69.43-7c0,5.44,1.05,10.88-.22,16.31.18.31.31.83.55.89,1.09.28.66-.64.66-1.06,0-4.6,0-9.2,0-13.8,0-1.93-.28-3.48,2.73-3.46S186.66,547.46,186.63,549.46Zm1.18,23.75h-.37V545.67l.37,0Zm25.3,2.45h6.24A9.39,9.39,0,0,1,213.11,575.66Zm15.11-7.72c-.1,0-.26,0-.29-.11-.1-.23-.16-.47-.24-.7-2.84,7.8-13.37,10.73-20.05,5.59a6.84,6.84,0,0,1-2.32-2.88c-.51-1.31-1.8-3.32-.28-3.91s4.21-1.61,5.4,1.27a3.18,3.18,0,0,0,2.33,2.18,7.91,7.91,0,0,1,6.71,0,2.62,2.62,0,0,0,2.23-2.94c-.05-1.67-1.39-2.29-2.71-2.67-2.39-.69-4.8-1.25-7.22-1.79-3.52-.79-6.13-2.58-7.13-6.23h0c-1.9-.88-.68-2.27-.57-3.47.16.29.33.58.5.87,1.1-4.5,3.95-7.11,8.56-7.56s8.83-.15,11.77,3.93c1,1.42,2.71,3.61.83,4.78-1.36.84-4.37,1.5-5.54-1.62a2.88,2.88,0,0,0-3-1.87,2.63,2.63,0,0,1-3.72,0,2.8,2.8,0,0,0-3,3c0,1.92,1.49,2.43,3,2.81q3.45.89,6.91,1.66c3.51.79,6.21,2.52,7.32,6.14.16-.29.33-.58.5-.87A6.52,6.52,0,0,1,228.22,567.94Zm-22.89-3.53H209C207.79,565.55,206.56,564.59,205.33,564.41ZM227,555.57a12.6,12.6,0,0,1-6,.13A12.61,12.61,0,0,1,227,555.57ZM254.25,576l-.16-.36h5.07V576Zm13.87-11.62c-.14,7-3.72,10.41-10.83,10.61-7.51.2-11.48-2.91-11.87-9.84-.31-5.61,0-11.24-.17-16.86-.07-2.79,1.79-2.06,3.28-2.16,1.73-.12,3.15-.16,3.06,2.4-.17,5.12-.05,10.25-.05,15.37,0,2.17.1,4.3,2.5,5.36a5.39,5.39,0,0,1,5.18.06,2.5,2.5,0,0,0,2.14-2.14.39.39,0,0,1-.08-.42c-1.27-6.51-.07-13.06.25-19.6v19.38c1.23-5.68.29-11.42.5-17.13.08-2.05,0-3.47,2.86-3.39,2.6.08,3.42.73,3.31,3.37C268,554.42,268.22,559.43,268.12,564.42Zm18.58,8.72-.35-.16V547.27h.35Zm23.35,1.49c-1.47,1.83-3.32.64-5,.61a.71.71,0,0,1,0-.32.83.83,0,0,1,.21-.29c-1.87-1.63-1.4-3.89-1.5-5.93-.25-4.87-.59-5.28-5.48-5.3-1.25,0-2.49.1-3.73.15v10.39h-.74v-10.3c-1.57,3.51,0,7.27-.83,10.84h0c-1.7,1.62-3.4,1.56-5.12,0-.81-8.84-.14-17.69-.37-26.54,0-1.56.73-1.84,2.06-1.82,4.49.07,9,0,13.48.14a7.13,7.13,0,0,1,6.91,4.87c1.1,3.11.84,6.13-1.73,8.64-.38.36-1.82.69-.81,1.47,3,2.34,2.29,5.63,2.22,8.63,0,1.64,1.8,3,.48,4.72Zm1.4-19.33c-.68-.75-.49-1.51,0-2.66C311.8,553.83,311.91,554.54,311.45,555.3Zm41.35,19.32a3.41,3.41,0,0,1-5-.07h0l-2.25-5.19h0c-3.28.21-6.57.58-9.78-.52-1.93,1.45-1.13,4.42-3.22,5.79-1.48,1.82-3.32.67-5,.59a.76.76,0,0,1,0-.32c0-.11.15-.19.22-.29a2.43,2.43,0,0,1,0-2.15c2.9-8.09,5.87-16.15,8.63-24.29.65-1.92,1.81-2.22,3.38-2s3.86-1.12,4.79,1.52q4.44,12.69,8.93,25.37C353.71,573.88,353.31,574.24,352.8,574.62Zm17.17-.73-.37-.15V547.26H370Zm24.29.87c-1.9,1.33-4,.72-6,.49a.53.53,0,0,1,0-.33c0-.11.14-.2.21-.3-3.91-4.82-6-10.73-9.65-15.74-1.88,1.41-.93,3.43-1,5.17-.15,3.05,0,6.11-.44,9.16.06-5.48-1.11-11,.27-16.44-.15-.32-.25-.86-.48-.92-1.37-.36-.76.78-.77,1.24,0,4.44,0,8.87,0,13.31,0,1.35-.11,2.71-.17,4.06h0a3.34,3.34,0,0,1-5.09,0q-.1-13.05-.2-26.11c0-.9-.35-2.32,1.24-2.12,2,.24,4.45-1.19,6,1.57,2.51,4.56,5.25,9,7.89,13.47,1.41-5.4.93-10.81.68-16.24.82,5.87,1.45,11.75.12,17.71l.75,1.63.67,0c0-5,.08-10,0-15-.05-2.2.21-3.32,2.93-3.3s2.69,1.24,2.67,3.19c-.07,7.36,0,14.72,0,22.08a5.67,5.67,0,0,1-.51,3.27h0l1,.14h0V547.08C394.47,556.31,396,565.55,394.26,574.76ZM422.1,576l.14-.36H427l0,.36Zm14-20.89c-1.59.64-4.35,1.49-5.63-1-1.6-3.13-4.17-3.93-7.19-3.2-3.28.8-4.83,3.27-5,6.62a4.44,4.44,0,0,1-.05,5.24c.17,3.13,1.19,5.68,4.52,6.65a2.67,2.67,0,0,1,3.72.05c2.92-.33,3.7-2.66,4.59-4.89h0c1.46-1.93,3.37-.93,5.15-.79a.53.53,0,0,1,0,.31,1.42,1.42,0,0,1-.21.29c.88,4.14-2.64,8.94-7.5,10.25-8.21,2.22-15.09-2.27-16.48-10.69a18.79,18.79,0,0,1,1.57-12c2.3-4.43,6.11-6.4,11-6.43,4.7,0,8.59,1.56,10.94,5.84C436.22,552.48,437.65,554.47,436.1,555.09Zm0,1.4H432l-.15-.32H436Zm18,17.32-.37,0V547h.37Zm22.7,1c0,.24,0,.49,0,.73-1.61,1.44-3.57.79-5.32.7-5.47-.29-11,1-16.43-.69l.1-1.06c-.05-8.7-.08-17.4-.19-26.1,0-1.51.31-2.23,2-2.2,5.47.09,10.95-.17,16.41.09,4.27.21,1.66,3.29,1.77,5.21h0l.86,0v-4.31c.61,1.47,1.33,3,0,4.34h0c-3.33,1.58-6.86.31-10.26.77-1.49.21-4-1-3.91,1.93s2.58,1.62,4.06,1.75c2.58.24,5.18.18,7.78.26,0,0,.1.21.09.3a1.19,1.19,0,0,1-.18.33c1.91,4.37,1.42,5.22-3,5.22-1.75,0-3.5,0-5.25,0-4.32,0-5.67,1.92-4.51,6.12.41,1.47,1.41,1.15,2.34,1.16,2.87,0,5.74,0,8.61,0,5.19,0,5.21,0,4,5.25l1,.13v-4.32c.61,1.47,1.32,3,0,4.34l0,0Z" transform="translate(-119.69 -208.66)"/><path class="c" d="M491,536.75c1.24,0,2.47-.16,3.71-.25v-9h-375v9c1.24.09,2.47.26,3.71.26Q307.26,536.78,491,536.75Z" transform="translate(-119.69 -208.66)"/><path class="d" d="M425.43,478.36a2.77,2.77,0,0,0-.42,0h5.22l-.57,0Z" transform="translate(-119.69 -208.66)"/><path class="d" d="M490.3,513.1a40.77,40.77,0,0,1-6.66-10.78c-3.81-8.94-7.58-17.89-11.41-26.82q-11.34-26.44-22.72-52.87l-.17.09-.15-.13h0l-.08,0c-2,1-4.12.8-6.16.73-3.56-.12-5.4,1.18-6.93,4.59-10,22.43-20.46,44.69-30.58,67.08-3.48,7.7-7.24,15.08-14.14,20.36-1,.78-2.05,1.67-.57,3q12.52-.5,25,0c1.64-1.47.28-2-.8-2.65-4.11-2.53-5.46-6.19-4.6-10.88,1.18-6.46,3.73-12.37,6.69-18.16a3.4,3.4,0,0,1,3.56-2c11.22.07,22.45,0,33.67.06a4.47,4.47,0,0,1,1.71,0,1.19,1.19,0,0,1,.63.58h0l0,.06c3.78,7.36,7.14,14.91,10.24,22.58a2.79,2.79,0,0,1,.12,3c-.2,3.35-3,4.7-5.41,6.51,1.95,1.13,3.86.15,5.53.83l.09,0c9.17-.28,18.34-.5,27.51.12v-2.25C492.68,516,491.5,514.5,490.3,513.1Zm-36.93-35.83a.51.51,0,0,1,.19.61c1.22,1.46.26,1.59-1,1.59H420.39l17.76-39.38Z" transform="translate(-119.69 -208.66)"/><ellipse class="e" cx="187.56" cy="318.09" rx="265.17" ry="1.06"/><path class="f" d="M494.75,538v-1.5c-1.24.09-2.47.25-3.71.25q-183.79,0-367.58,0c-1.24,0-2.47-.17-3.71-.26V538Z" transform="translate(-119.69 -208.66)"/><ellipse class="g" cx="187.56" cy="329.71" rx="265.17" ry="0.53"/><path class="h" d="M461.75,519.25c1.1,1.22,2.57.72,3.87.73,9.71,0,19.42,0,29.13,0v-.75Z" transform="translate(-119.69 -208.66)"/><path class="i" d="M467.24,518.38h0l-.12,0c-1.76.49-3.76-.55-5.37.84h33v-.75C485.58,517.88,476.41,518.1,467.24,518.38Z" transform="translate(-119.69 -208.66)"/><path class="d" d="M228.17,478.37h-4.6l.33,0Z" transform="translate(-119.69 -208.66)"/><path class="d" d="M271.79,516.14c-5.2-3.32-8-8.53-10.29-13.95q-15.44-35.94-30.71-71.95c-3.09-7.26-3.07-7.12-11.1-6.82-2.94.11-4.29,1.24-5.48,3.86-10.17,22.51-20.58,44.92-30.76,67.44-3.54,7.8-7.3,15.34-14.32,20.7-1,.8-2,1.73-.41,3,8.35-.35,16.69-.33,25,0,1.08-1.5,0-2.06-1.1-2.75-1.77-1.11-3.34-2.44-3.83-4.62-1.43-2.75-.87-5.48,0-8.22A48.17,48.17,0,0,1,196,485.38l0,0c.39-.63,1-.62,1.64-.62,11.59,0,23.18.05,34.77-.05,1.95,0,2.53,1,3.17,2.44,2.83,6.37,5.76,12.69,8.61,19.05,1.91,4.26,1,7.32-2.78,10.05-.72.52-2.09.55-1.57,2l31.95.11C272.65,517.63,273.21,517.05,271.79,516.14Zm-71.63-36.67c-1.18,0-2.22-.07-1-1.57h0a.52.52,0,0,1,.21-.63l16.51-37.18,16.41,39.38Z" transform="translate(-119.69 -208.66)"/><path class="d" d="M371,472.75c-.08-.73.19-1.22,1-1.19,5.93.21,11.88-.57,17.79.42,1.61-.21,2.88.62,4.14,1.41,2.28,1.43,3.7,3.64,5.22,5.78.79,1.12,1.11,3.46,2.82,2.87,1.49-.52.63-2.65.65-4.05.1-5,.08-10,0-14.95,0-1.5.46-3.13-.69-5-3.12,5.05-7.22,8.08-12.92,8.58-5.35.07-10.71.1-16.07.24-1.62,0-2.16-.47-2.14-2.12.12-11.6.15-23.2.21-34.79,6.77-1.65,13.64-1.16,20.38-.32,7.6.94,11.32,7.24,15.59,13.81V427l-.7-.75-59.87,0a.31.31,0,0,0-.05.1c0,.12-.05.25-.07.37,2.54,3,5.51,5.76,6,10,.91,1.47.7,3.12.7,4.73q0,30.6,0,61.2c0,2.62-.14,5.21-1.44,7.58h0a10.66,10.66,0,0,1-4,6.42c-.79.65-.88,1-.23,1.68,9.85-.32,19.7-.34,29.55,0,.5-.47,1.21-.68.11-1.54-3.79-3-5.27-7.21-5.84-11.85C370.57,494.24,370.73,483.5,371,472.75Z" transform="translate(-119.69 -208.66)"/><path class="d" d="M338.69,516.25q2.44-11.08,4.88-22.17l-.9-.33c-2.16,4.31-4.44,8.55-7.91,11.93s-7.51,6.05-12.53,6.73l-1.26.2c-1.49.86-3.12.68-4.73.57h0l-4.48,0c-4.06-.11-8.49.64-10.38-4.48a1.21,1.21,0,0,1-.12-.35c-.27-24.13-.36-48.25,0-72.38.3-5,4.52-7.59,7.37-11.28H276.3c2.64,2.75,5.21,4.94,6.06,8.3,1,1.59.85,3.36.85,5.1q0,34.47,0,68.94c0,1.34.34,2.78-.72,3.94h0c-.49,2.31-2.77,3.24-3.92,5l.26.25Zm-39.44-78.7h.31V507.8h-.31Z" transform="translate(-119.69 -208.66)"/><path class="j" d="M283.2,507.06q0-34.47,0-68.94c0-1.74.12-3.51-.85-5.1-1,1.07-.59,2.38-.59,3.59q0,35.43,0,70.86c0,1.2-.41,2.53.71,3.53h0C283.54,509.84,283.2,508.4,283.2,507.06Z" transform="translate(-119.69 -208.66)"/><path class="k" d="M353,441.48c0-1.61.21-3.26-.7-4.73-1.29,1.23-.72,2.83-.72,4.26,0,20.95-.1,41.9.07,62.85,0,2.14-1.61,4.27-.08,6.4h0c1.3-2.37,1.44-5,1.44-7.58Q353,472.08,353,441.48Z" transform="translate(-119.69 -208.66)"/><path class="l" d="M466.39,435a10.53,10.53,0,0,0,9.08,8.35l1.81,0h0a10.88,10.88,0,0,0,8.34-8.33v-2.57a10.8,10.8,0,0,0-8.37-8.32l-1.79,0h0a10.56,10.56,0,0,0-9.06,8.36V435Zm2.93-4.26a5.5,5.5,0,0,1,2.93-3.71h0c4.34-1.5,8.49-.21,10.44,3.24,1.82,3.22.66,7.16-3,10.07-2.87,1.57-5.62,1.63-8.19-.63a4,4,0,0,1-2.21-3A6,6,0,0,1,469.32,430.77Z" transform="translate(-119.69 -208.66)"/><path class="m" d="M301.26,508.38a1.21,1.21,0,0,0,.12.35L302,508V436h-.7C300.9,460.13,301,484.25,301.26,508.38Z" transform="translate(-119.69 -208.66)"/><path class="n" d="M302,508c1.14-1,.73-2.31.73-3.51q0-32.49,0-65c0-1.19.41-2.52-.73-3.5h0Z" transform="translate(-119.69 -208.66)"/><path class="o" d="M346.35,426.28c.92-1.26,2.28-.76,3.45-.76q26.47,0,52.95,0c1.2,0,2.53-.41,3.5.73l.7.75,0-2.23-63,0c.46,1,1.44,1.44,2.29,2,0-.12.05-.25.07-.37S346.34,426.31,346.35,426.28Z" transform="translate(-119.69 -208.66)"/><path class="h" d="M403.5,422.52q-28.38,0-56.75,0c-1.19,0-2.52-.41-3.5.73H407C406,422.11,404.69,422.52,403.5,422.52Z" transform="translate(-119.69 -208.66)"/><path class="p" d="M407,424v-.77H343.25c0,.29,0,.58.05.87Z" transform="translate(-119.69 -208.66)"/><path class="q" d="M407,424l-63.69.1.67.63,63,0Z" transform="translate(-119.69 -208.66)"/><path class="h" d="M276.59,519.85a3.5,3.5,0,0,0,1.07.15h58.71c.87,0,1.76.06,2.38-.76H276.5C276.53,519.46,276.51,519.82,276.59,519.85Z" transform="translate(-119.69 -208.66)"/><path class="q" d="M282.89,517.71c-1.88,0-4,.79-5.67-.74-.89.22-.85.86-.73,1.55q28.86,0,57.71,0c1.5,0,3-.12,4.49-.18h0a1.55,1.55,0,0,0-.12-.68c-.22,0-.43-.07-.65-.09C319.58,517.61,301.23,517.71,282.89,517.71Z" transform="translate(-119.69 -208.66)"/><path class="o" d="M282.89,517.71c18.34,0,36.69-.1,55-.17-1.22-.94-2.65-.52-4-.52-17.08,0-34.16,0-51.24,0-1.3,0-2.77.52-3.88-.69h0l-.26-.25-1.34.93C278.93,518.5,281,517.71,282.89,517.71Z" transform="translate(-119.69 -208.66)"/><path class="i" d="M334.2,518.49q-28.84,0-57.71,0c0,.24,0,.49,0,.73h62.25l-.06-.93h0C337.19,518.37,335.7,518.49,334.2,518.49Z" transform="translate(-119.69 -208.66)"/><path class="r" d="M278.82,516.29h0c1.11,1.21,2.58.68,3.88.69,17.08,0,34.16,0,51.24,0,1.33,0,2.76-.42,4,.52.22,0,.43.05.65.09l.12-1.38Z" transform="translate(-119.69 -208.66)"/><path class="s" d="M372.91,466.91c5.36-.14,10.72-.17,16.07-.24-2.69-1.44-5.59-.58-8.38-.62-8.85-.13-8.85-.05-8.85-8.71,0-7.83,0-15.66,0-23.49,0-1.3.49-2.76-.75-3.85-.06,11.59-.09,23.19-.21,34.79C370.75,466.44,371.29,467,372.91,466.91Z" transform="translate(-119.69 -208.66)"/><path class="t" d="M199.83,486.24c4.12,0,8.23,0,12.35,0h20v-.89H196l0,0C197.05,486.54,198.49,486.23,199.83,486.24Z" transform="translate(-119.69 -208.66)"/><path class="t" d="M456.09,485.38H420.64q4.19.3,8.37.47l.82,0c8.4.33,16.8.33,25.21.29.48,0,1-.42,1.44-.71a1.19,1.19,0,0,1,.15-.09Z" transform="translate(-119.69 -208.66)"/><polygon class="t" points="336.94 276.71 336.94 276.71 336.94 276.71 336.94 276.71 336.94 276.71 336.94 276.71"/><path class="i" d="M372,471.56c-.79,0-1.06.46-1,1.19h.77c3.1,0,6.22.14,9.31,0,2.9-.18,5.91.86,8.69-.73C383.84,471,377.89,471.77,372,471.56Z" transform="translate(-119.69 -208.66)"/><path class="h" d="M239.84,519.87c0,.07.21.12.32.12,10.44,0,20.89,0,31.33-.07.42,0,.84-.44,1.26-.67h-33A4.21,4.21,0,0,0,239.84,519.87Z" transform="translate(-119.69 -208.66)"/><path class="f" d="M276.6,423.85q15.61,0,31.24,0c.3,0,.61-.38.91-.58H276.5a1.24,1.24,0,0,0-.1.35C276.41,423.69,276.53,423.85,276.6,423.85Z" transform="translate(-119.69 -208.66)"/><path class="i" d="M239.83,518.26c0,.33-.05.66-.08,1h33l-1-.88Z" transform="translate(-119.69 -208.66)"/><path class="u" d="M306.38,422.5H278.87a2.62,2.62,0,0,0-2.37.75h32.25C308.13,422.45,307.25,422.5,306.38,422.5Z" transform="translate(-119.69 -208.66)"/><path class="v" d="M371,472.75c-.25,10.75-.41,21.49.08,32.23,1.14-1.14.66-2.58.67-3.9,0-9.44,0-18.88,0-28.33Z" transform="translate(-119.69 -208.66)"/><path class="i" d="M350.94,519.66c-1.31-.11-2.62-.25-3.94-.41A31,31,0,0,0,350.94,519.66Z" transform="translate(-119.69 -208.66)"/><path class="i" d="M377.75,519.25c-.9.11-1.81.2-2.71.29C375.94,519.47,376.85,519.38,377.75,519.25Z" transform="translate(-119.69 -208.66)"/><path class="i" d="M347.24,518.36c-.39.22-.88.41-.24.89h30.75l-1-.88h0C366.94,518,357.09,518,347.24,518.36Z" transform="translate(-119.69 -208.66)"/><path class="h" d="M350.94,519.66a128.5,128.5,0,0,0,24.1-.12c.9-.09,1.81-.18,2.71-.29H347C348.32,519.41,349.63,519.55,350.94,519.66Z" transform="translate(-119.69 -208.66)"/><path class="i" d="M390.73,518.37l-1,.87h27l-1-.87Q403.26,517.86,390.73,518.37Z" transform="translate(-119.69 -208.66)"/><polygon class="w" points="48.06 310.58 48.06 310.58 48.06 310.58 48.06 310.58"/><path class="w" d="M167.75,519.25c.61.8,1.5.75,2.36.75h22.28c.86,0,1.75,0,2.36-.76Z" transform="translate(-119.69 -208.66)"/><path class="x" d="M389.75,519.24c.61.81,1.5.76,2.36.76h22.28c.86,0,1.75,0,2.36-.76h-27Z" transform="translate(-119.69 -208.66)"/><path class="y" d="M168.72,518.37h0l-1,.88h27l-1-.88C185.41,518,177.07,518,168.72,518.37Z" transform="translate(-119.69 -208.66)"/><ellipse class="z" cx="283.91" cy="261.91" rx="0.21" ry="15.74"/><path class="aa" d="M408.34,425.6H408V442.5l.37.13Z" transform="translate(-119.69 -208.66)"/><path class="ab" d="M188.83,511a11,11,0,0,0,0-8.22C188,505.51,187.4,508.24,188.83,511Z" transform="translate(-119.69 -208.66)"/><path class="ac" d="M449.19,422.59l.15.13.17-.09a1,1,0,0,0,.23-.28c0-.1,0-.31,0-.32a6,6,0,0,0-4.49.32l3.88.24Z" transform="translate(-119.69 -208.66)"/><path class="m" d="M477.78,423.4c-.64-.34-2.23-.94-3,.49l.69.22h0l1.79,0C477.41,423.83,478.87,424,477.78,423.4Z" transform="translate(-119.69 -208.66)"/><path class="ad" d="M316.24,513.18a3.57,3.57,0,0,0-4.48,0l4.48,0Z" transform="translate(-119.69 -208.66)"/><path class="m" d="M466.39,435h0v-2.56c-1.78-.41-.62,1-.83,1.49C465.46,434.2,464.9,435.63,466.39,435Z" transform="translate(-119.69 -208.66)"/><path class="ae" d="M486.44,434c-.21-.5.95-1.9-.83-1.5V435C487.1,435.62,486.54,434.21,486.44,434Z" transform="translate(-119.69 -208.66)"/><path class="af" d="M474.81,443.59c-.72.73.18.71.39.62.68-.33,2,.92,2.08-.85h0l-1.81,0C475.25,443.45,475,443.45,474.81,443.59Z" transform="translate(-119.69 -208.66)"/><path class="ag" d="M317.93,512.26l3,.35,1.26-.2C321,511.42,319.78,511.6,317.93,512.26Z" transform="translate(-119.69 -208.66)"/><path class="ae" d="M466.91,508a1.86,1.86,0,0,0,.12,3A2.79,2.79,0,0,0,466.91,508Z" transform="translate(-119.69 -208.66)"/><path class="ah" d="M309.57,569.91c.07-3,.83-6.29-2.22-8.63-1-.78.43-1.11.81-1.47,2.57-2.51,2.83-5.53,1.73-8.64A7.13,7.13,0,0,0,303,546.3c-4.49-.16-9-.07-13.48-.14-1.33,0-2.1.26-2.06,1.82.23,8.85-.44,17.7.37,26.54l5.12,0h0c.85-3.57-.74-7.33.83-10.84l.74-.09c1.24,0,2.48-.16,3.73-.15,4.89,0,5.23.43,5.48,5.3.1,2-.37,4.3,1.5,5.93a11.78,11.78,0,0,1,4.84,0C311.37,572.93,309.53,571.55,309.57,569.91Zm-8.26-11.54a27.42,27.42,0,0,1-3.74,0c-4.25.1-5.73-2-4.42-6.09a2,2,0,0,1,.23-.67c1.21-1.48,9.91-.29,10.75,1.45A3.55,3.55,0,0,1,301.31,558.37Z" transform="translate(-119.69 -208.66)"/><path class="ai" d="M393.23,574.6a5.67,5.67,0,0,0,.51-3.27c0-7.36,0-14.72,0-22.08,0-2,0-3.17-2.67-3.19s-3,1.1-2.93,3.3c.12,5,0,10,0,15l-.67,0-.75-1.63-.8-1.47c-2.64-4.48-5.38-8.91-7.89-13.47-1.53-2.76-4-1.33-6-1.57-1.59-.2-1.24,1.22-1.24,2.12q.08,13.06.2,26.11h5.09c.06-1.35.16-2.71.17-4.06,0-4.44,0-8.87,0-13.31,0-.46-.6-1.6.77-1.24.23.06.33.6.48.92l1.19,2.11c3.61,5,5.74,10.92,9.65,15.74l4.77,0Z" transform="translate(-119.69 -208.66)"/><path class="ai" d="M183.85,546c-3,0-2.75,1.53-2.73,3.46,0,4.6,0,9.2,0,13.8,0,.42.43,1.34-.66,1.06-.24-.06-.37-.58-.55-.89-.37-.71-.74-1.42-1.12-2.13-2.64-4.49-5.39-8.92-7.88-13.49-1.52-2.8-3.92-1.35-6-1.62-1.27-.17-1.24.94-1.22,1.8.19,8.83-.43,17.66.33,26.48l4.25.12c1.55-.92.92-2.44.93-3.71.07-5,0-10.08,0-15.3a2.13,2.13,0,0,1,1.49,1.88l.78,1.4c.8,1.25,1.58,2.52,2.4,3.75,2.62,3.92,4.1,8.56,7.51,12l5-.19c.07-8.32.1-16.65.21-25C186.66,547.46,186.78,546.05,183.85,546Z" transform="translate(-119.69 -208.66)"/><path class="ai" d="M471.76,569.36c-2.87,0-5.74,0-8.61,0-.93,0-1.93.31-2.34-1.16-1.16-4.2.19-6.11,4.51-6.12,1.75,0,3.5,0,5.25,0,4.45,0,4.94-.85,3-5.22-3.24.06-6.49,0-9.72.23-2.47.2-3.07-.68-3.13-3.09-.06-2.63,1.16-2.76,3.15-2.69,3.74.13,7.48.11,11.22.15h0c-.11-1.92,2.5-5-1.77-5.21-5.46-.26-10.94,0-16.41-.09-1.72,0-2.05.69-2,2.2.11,8.7.14,17.4.19,26.1l20.64.17C477,569.39,477,569.36,471.76,569.36Z" transform="translate(-119.69 -208.66)"/><path class="aj" d="M220.34,558.29q-3.47-.78-6.91-1.66c-1.48-.38-3-.89-3-2.81a2.8,2.8,0,0,1,3-3,5.47,5.47,0,0,1,3.72,0h0a2.88,2.88,0,0,1,3,1.87c1.17,3.12,4.18,2.46,5.54,1.62,1.88-1.17.18-3.36-.83-4.78-2.94-4.08-7.29-4.37-11.77-3.93s-7.46,3.06-8.56,7.56c0,.87,0,1.73.07,2.6h0c1,3.65,3.61,5.44,7.13,6.23,2.42.54,4.83,1.1,7.22,1.79,1.32.38,2.66,1,2.71,2.67a2.62,2.62,0,0,1-2.23,2.94,7.15,7.15,0,0,1-6.71,0,3.18,3.18,0,0,1-2.33-2.18c-1.19-2.88-3.86-1.86-5.4-1.27s-.23,2.6.28,3.91a6.84,6.84,0,0,0,2.32,2.88c6.68,5.14,17.21,2.21,20.05-5.59l0-2.7C226.55,560.81,223.85,559.08,220.34,558.29Z" transform="translate(-119.69 -208.66)"/><path class="ah" d="M264.89,546.06c-2.9-.08-2.78,1.34-2.86,3.39-.21,5.71.73,11.45-.5,17.13a.49.49,0,0,1-.17.64,2.5,2.5,0,0,1-2.14,2.14,5.11,5.11,0,0,1-5.18-.06h0c-2.4-1.06-2.49-3.19-2.5-5.36,0-5.12-.12-10.25.05-15.37.09-2.56-1.33-2.52-3.06-2.4-1.49.1-3.35-.63-3.28,2.16.15,5.62-.14,11.25.17,16.86.39,6.93,4.36,10,11.87,9.84,7.11-.2,10.69-3.64,10.83-10.61.1-5-.13-10,.08-15C268.31,546.79,267.49,546.14,264.89,546.06Z" transform="translate(-119.69 -208.66)"/><path class="ah" d="M261.36,567.22c0-.14-.05-.28-.08-.42A.39.39,0,0,0,261.36,567.22Z" transform="translate(-119.69 -208.66)"/><path class="aj" d="M344.5,547.72c-.93-2.64-3.14-1.24-4.79-1.52s-2.73,0-3.38,2c-2.76,8.14-5.73,16.2-8.63,24.29a2.43,2.43,0,0,0,0,2.15,12.41,12.41,0,0,1,4.82,0c2.09-1.37,1.29-4.34,3.22-5.79,3.27-.09,6.59-1,9.78.52h0l2.25,5.19h0l5,.07c.51-.38.91-.74.63-1.53Q348.93,560.42,344.5,547.72Zm-5.72,10.09c.44-1.4.94-2.79,1.74-5.1,1.26,4.17,2.23,7.35,3.2,10.57C336.76,564.11,336.76,564.11,338.78,557.81Z" transform="translate(-119.69 -208.66)"/><path class="aj" d="M424.65,545.48c-4.9,0-8.71,2-11,6.43a18.79,18.79,0,0,0-1.57,12c1.39,8.42,8.27,12.91,16.48,10.69,4.86-1.31,8.38-6.11,7.5-10.25l-5,.19h0c-.89,2.23-1.67,4.56-4.59,4.89a4.36,4.36,0,0,1-3.72-.05c-3.33-1-4.35-3.52-4.52-6.65a8.24,8.24,0,0,1,.05-5.24c.15-3.35,1.7-5.82,5-6.62,3-.73,5.59.07,7.19,3.2,1.28,2.49,4,1.64,5.63,1s.12-2.61-.51-3.77C433.24,547,429.35,545.45,424.65,545.48Z" transform="translate(-119.69 -208.66)"/><path class="ak" d="M144.82,550.76c.1-4.76,0-4.76-4.82-4.44,0,7.91,0,15.81,0,23.72,0,1.31.47,2.74-.63,3.89,0,.21,0,.41,0,.62h5.14C145.35,566.62,144.64,558.68,144.82,550.76Z" transform="translate(-119.69 -208.66)"/><path class="al" d="M463.9,551.29c-2-.07-3.21.06-3.15,2.69.06,2.41.66,3.29,3.13,3.09,3.23-.24,6.48-.17,9.72-.23a1.19,1.19,0,0,0,.18-.33c0-.09-.06-.3-.09-.3-2.6-.08-5.2,0-7.78-.26-1.48-.13-4,1.16-4.06-1.75s2.42-1.72,3.91-1.93c3.4-.46,6.93.81,10.26-.77l0,0-.86,0h0C471.38,551.4,467.64,551.42,463.9,551.29Z" transform="translate(-119.69 -208.66)"/><path class="ac" d="M187.44,573.2h.37V545.7l-.37,0Z" transform="translate(-119.69 -208.66)"/><path class="am" d="M162.7,573.76l.36.1V547.09h-.36Z" transform="translate(-119.69 -208.66)"/><path class="an" d="M137,548.25q0,12.48,0,25c0,.45-.06,1.06.75.78V546.25A2.26,2.26,0,0,0,137,548.25Z" transform="translate(-119.69 -208.66)"/><path class="ag" d="M369.6,573.74l.37.15V547.26h-.37Z" transform="translate(-119.69 -208.66)"/><path class="m" d="M394.24,574.74h0l0,0c1.72-9.21.21-18.45,0-27.68Z" transform="translate(-119.69 -208.66)"/><path class="ao" d="M453.69,573.78l.37,0V547h-.37Z" transform="translate(-119.69 -208.66)"/><path class="al" d="M145.44,573.9h.36V547.26l-.36-.13Z" transform="translate(-119.69 -208.66)"/><path class="ap" d="M286.35,573l.35.16V547.26h-.35Z" transform="translate(-119.69 -208.66)"/><path class="y" d="M138.54,546.26h-.79V574h.72Q138.5,560.14,138.54,546.26Z" transform="translate(-119.69 -208.66)"/><path class="d" d="M140,570c0-7.91,0-15.81,0-23.72a.63.63,0,0,0-.71,0h0l-.12,27.77.18-.14C140.45,572.78,140,571.35,140,570Z" transform="translate(-119.69 -208.66)"/><path class="aq" d="M139.29,546.3h0l-.75,0h0q0,13.88-.07,27.75l.35.09.35,0Z" transform="translate(-119.69 -208.66)"/><path class="ar" d="M386.67,545c.25,5.43.73,10.84-.68,16.24l.8,1.47C388.12,556.78,387.49,550.9,386.67,545Z" transform="translate(-119.69 -208.66)"/><path class="as" d="M471.43,576.19c1.75.09,3.71.74,5.32-.7H455C460.41,577.2,466,575.9,471.43,576.19Z" transform="translate(-119.69 -208.66)"/><path class="i" d="M455.1,574.44l-.1,1.06h21.75c0-.24,0-.49,0-.73l0,0-1-.13Z" transform="translate(-119.69 -208.66)"/><path class="at" d="M261.53,566.58V547.2c-.32,6.54-1.52,13.09-.25,19.6,0,.14.05.28.08.42A.49.49,0,0,0,261.53,566.58Z" transform="translate(-119.69 -208.66)"/><path class="au" d="M475,545.39l.17-.37H456v.37Z" transform="translate(-119.69 -208.66)"/><path class="av" d="M180.13,547.16c-.38,2.34-.21,4.7-.43,7s1,5-.91,7.15c.38.71.75,1.42,1.12,2.13C181.18,558,180.15,552.6,180.13,547.16Z" transform="translate(-119.69 -208.66)"/><path class="aw" d="M377.35,573.21c.4-3.05.29-6.11.44-9.16.09-1.74-.86-3.76,1-5.17l-1.19-2.11C376.24,562.23,377.41,567.73,377.35,573.21Z" transform="translate(-119.69 -208.66)"/><path class="au" d="M302.71,545h-14l0,.37h14Z" transform="translate(-119.69 -208.66)"/><path class="ax" d="M219.48,569.39a7.91,7.91,0,0,0-6.71,0A7.15,7.15,0,0,0,219.48,569.39Z" transform="translate(-119.69 -208.66)"/><path class="ay" d="M293.76,573.94h.74V563.55l-.74.09Z" transform="translate(-119.69 -208.66)"/><path class="y" d="M335.77,568.84c3.21,1.1,6.5.73,9.78.52h0C342.36,567.83,339,568.75,335.77,568.84Z" transform="translate(-119.69 -208.66)"/><path class="az" d="M219.35,575.66h-6.24A9.39,9.39,0,0,0,219.35,575.66Z" transform="translate(-119.69 -208.66)"/><path class="ax" d="M259.22,569.36a5.39,5.39,0,0,0-5.18-.06h0A5.11,5.11,0,0,0,259.22,569.36Z" transform="translate(-119.69 -208.66)"/><path class="ba" d="M169.22,545.3v-.36H164v.36Z" transform="translate(-119.69 -208.66)"/><path class="bb" d="M343.16,545.32V545h-5v.35Z" transform="translate(-119.69 -208.66)"/><path class="au" d="M371,545.3h5A6.4,6.4,0,0,0,371,545.3Z" transform="translate(-119.69 -208.66)"/><path class="al" d="M422.24,575.62l-.14.36H427l0-.36Z" transform="translate(-119.69 -208.66)"/><path class="ae" d="M254.09,575.68l.16.36h4.92v-.36Z" transform="translate(-119.69 -208.66)"/><path class="bc" d="M394.24,574.74l-1-.14h0l-4.77,0c-.07.1-.18.19-.21.3a.53.53,0,0,0,0,.33c2,.23,4.08.84,6-.49l0,0Z" transform="translate(-119.69 -208.66)"/><path class="bc" d="M327.73,574.61c-.07.1-.18.18-.22.29a.76.76,0,0,0,0,.32c1.71.08,3.55,1.23,5-.59A12.41,12.41,0,0,0,327.73,574.61Z" transform="translate(-119.69 -208.66)"/><path class="ae" d="M305.21,574.63a.83.83,0,0,0-.21.29.71.71,0,0,0,0,.32c1.71,0,3.56,1.22,5-.61h0A11.78,11.78,0,0,0,305.21,574.63Z" transform="translate(-119.69 -208.66)"/><path class="y" d="M347.8,574.55a3.41,3.41,0,0,0,5,.07l-5-.07Z" transform="translate(-119.69 -208.66)"/><path class="bd" d="M394.19,545h-5A7.36,7.36,0,0,0,394.19,545Z" transform="translate(-119.69 -208.66)"/><path class="am" d="M221,555.7a12.6,12.6,0,0,0,6-.13A12.61,12.61,0,0,0,221,555.7Z" transform="translate(-119.69 -208.66)"/><path class="be" d="M418.25,562.75a4.44,4.44,0,0,0,.05-5.24A8.24,8.24,0,0,0,418.25,562.75Z" transform="translate(-119.69 -208.66)"/><path class="ac" d="M432,556.49h4.1l0-.32h-4.21Z" transform="translate(-119.69 -208.66)"/><path class="af" d="M436.26,564.08a.53.53,0,0,0,0-.31c-1.78-.14-3.69-1.14-5.15.79h0l5-.19A1.42,1.42,0,0,0,436.26,564.08Z" transform="translate(-119.69 -208.66)"/><path class="al" d="M227.66,564.43l0,2.7c.08.23.14.47.24.7,0,.07.19.08.29.11a6.52,6.52,0,0,0-.06-4.38C228,563.85,227.82,564.14,227.66,564.43Z" transform="translate(-119.69 -208.66)"/><path class="p" d="M181.25,574.92a.56.56,0,0,0,0,.31c1.78.14,3.69,1.14,5.15-.79l-5,.19A.94.94,0,0,0,181.25,574.92Z" transform="translate(-119.69 -208.66)"/><path class="bc" d="M476.74,570.42v4.32l0,0C478.06,573.37,477.35,571.89,476.74,570.42Z" transform="translate(-119.69 -208.66)"/><path class="y" d="M144.44,574.54H139.3A3.47,3.47,0,0,0,144.44,574.54Z" transform="translate(-119.69 -208.66)"/><path class="i" d="M168.31,574.63l-4.25-.12C165.44,575.87,166.85,576.22,168.31,574.63Z" transform="translate(-119.69 -208.66)"/><path class="bf" d="M205.33,564.41c1.23.18,2.46,1.14,3.69,0Z" transform="translate(-119.69 -208.66)"/><path class="p" d="M292.93,574.48h0l-5.12,0C289.53,576,291.23,576.1,292.93,574.48Z" transform="translate(-119.69 -208.66)"/><path class="al" d="M204.58,553.16c-.17-.29-.34-.58-.5-.87-.11,1.2-1.33,2.59.57,3.47h0C204.63,554.89,204.6,554,204.58,553.16Z" transform="translate(-119.69 -208.66)"/><path class="ac" d="M186,545.16a5.72,5.72,0,0,0-4.19-.08A5.72,5.72,0,0,0,186,545.16Z" transform="translate(-119.69 -208.66)"/><path class="p" d="M376.17,574.46h-5.09A3.34,3.34,0,0,0,376.17,574.46Z" transform="translate(-119.69 -208.66)"/><path class="y" d="M476,551.5c1.29-1.38.57-2.87,0-4.34v4.31l0,0Z" transform="translate(-119.69 -208.66)"/><path class="bg" d="M170.75,559.75c-1.6,4.4-.41,8.84,0,13.27V559.75c.27-.28.53-.57.79-.85l-.78-1.4C169.57,558.24,170.55,559,170.75,559.75Z" transform="translate(-119.69 -208.66)"/><path class="bh" d="M426.49,569.45a2.67,2.67,0,0,0-3.72-.05A4.36,4.36,0,0,0,426.49,569.45Z" transform="translate(-119.69 -208.66)"/><path class="f" d="M213.51,550.8a2.63,2.63,0,0,0,3.72,0h0A5.47,5.47,0,0,0,213.51,550.8Z" transform="translate(-119.69 -208.66)"/><path class="bi" d="M311.45,555.3c.46-.76.35-1.47,0-2.66C311,553.79,310.77,554.55,311.45,555.3Z" transform="translate(-119.69 -208.66)"/><path class="b" d="M420.39,479.47H452.6c1.22,0,2.18-.13,1-1.59-.52.28-1.05.8-1.58.8-7.25,0-14.5,0-21.75-.29H425a2.77,2.77,0,0,1,.42,0h4.23q-3-.14-6-.36c7.46,0,14.92.06,22.38,0,2.45,0,5,.63,7.33-.7l-15.22-37.18Z" transform="translate(-119.69 -208.66)"/><path class="bj" d="M446,478c-7.46.09-14.92,0-22.38,0q3,.22,6,.36l.57,0c7.25.33,14.5.33,21.75.29.53,0,1.06-.52,1.58-.8a.51.51,0,0,0-.19-.61C451,478.6,448.49,477.94,446,478Z" transform="translate(-119.69 -208.66)"/><path class="b" d="M199.41,477.27c1.33.93,2.85.73,4.33.73,6.61,0,13.22,0,19.83.36h.33c1.73.1,3.45.21,5.17.37h-13c-4.48,0-9,0-13.44,0-1.19,0-2.53.39-3.45-.83h0c-1.26,1.5-.22,1.57,1,1.57h32.17l-16.41-39.38Z" transform="translate(-119.69 -208.66)"/><path class="bk" d="M202.65,478.73c4.48,0,9,0,13.44,0h13c-1.72-.16-3.44-.27-5.17-.37l-.33,0C217,478,210.35,478,203.74,478c-1.48,0-3,.2-4.33-.73a.52.52,0,0,0-.21.63h0C200.12,479.12,201.46,478.72,202.65,478.73Z" transform="translate(-119.69 -208.66)"/><path class="r" d="M402.75,425.52q-26.47,0-52.95,0c-1.17,0-2.53-.5-3.45.76h0l59.87,0C405.28,425.11,404,425.52,402.75,425.52Z" transform="translate(-119.69 -208.66)"/><ellipse class="bl" cx="179.71" cy="264.01" rx="0.22" ry="49.68"/><path class="bm" d="M472.25,427.75h0c2,.26,4.08-.6,6,.58,2.24,1.63,3.29,3.47.73,5.64-1.82,1.54.05,2.4.59,3.32,1.11,1.91.52,2.11-1.24,1.59l1.42,1.49c3.63-2.91,4.79-6.85,3-10.07-1.95-3.45-6.1-4.74-10.44-3.24h0C472.25,427.29,472.26,427.52,472.25,427.75Z" transform="translate(-119.69 -208.66)"/><path class="bn" d="M477.49,437.27c-.69-.95-.91-2.71-2.27-2.59-1.84.17-.88,1.94-1,3-.15,1.39-.75,1.67-1.93,1.24l-.76.84c2.57,2.26,5.32,2.2,8.19.63l-1.42-1.49A11,11,0,0,0,477.49,437.27Z" transform="translate(-119.69 -208.66)"/><path class="bo" d="M469.32,436.73a4,4,0,0,0,2.21,3l.76-.84V428.6l0-.85h0c0-.23,0-.46,0-.69h0a5.5,5.5,0,0,0-2.93,3.71A5.91,5.91,0,0,1,469.32,436.73Z" transform="translate(-119.69 -208.66)"/><path class="ag" d="M469.32,430.77a6,6,0,0,0,0,6A5.91,5.91,0,0,0,469.32,430.77Z" transform="translate(-119.69 -208.66)"/><path class="bp" d="M293.38,551.64a2,2,0,0,0-.23.67c-1.31,4.11.17,6.19,4.42,6.09a27.42,27.42,0,0,0,3.74,0,3.55,3.55,0,0,0,2.82-5.28C303.29,551.35,294.59,550.16,293.38,551.64Z" transform="translate(-119.69 -208.66)"/><path class="bq" d="M338.78,557.81c-2,6.3-2,6.3,4.94,5.47-1-3.22-1.94-6.4-3.2-10.57C339.72,555,339.22,556.41,338.78,557.81Z" transform="translate(-119.69 -208.66)"/><path class="br" d="M474.22,437.66c.12-1-.84-2.81,1-3,1.36-.12,1.58,1.64,2.27,2.59a11,11,0,0,1,.81,1.61c1.76.52,2.35.32,1.24-1.59-.54-.92-2.41-1.78-.59-3.32,2.56-2.17,1.51-4-.73-5.64l-5.93.27v10.3C473.47,439.33,474.07,439.05,474.22,437.66Zm4.12-6.42c.09,1.53-1.09,1.7-2.28,1.77s-1.86-.21-1.86-1.6.76-1.65,1.9-1.55C477.08,430,478.26,429.9,478.34,431.24Z" transform="translate(-119.69 -208.66)"/><path class="bs" d="M478.22,428.33c-1.89-1.18-4-.32-6-.58h0l0,.85Z" transform="translate(-119.69 -208.66)"/><path class="bt" d="M474.2,431.41c0,1.39.68,1.66,1.86,1.6s2.37-.24,2.28-1.77c-.08-1.34-1.26-1.29-2.24-1.38C475,429.76,474.21,430,474.2,431.41Z" transform="translate(-119.69 -208.66)"/></svg>