<svg xmlns="http://www.w3.org/2000/svg" viewBox="0 0 373.11 262.78"><defs><style>.a{fill:#fff;}.b{fill:#fefefe;}.c{fill:#017cc1;}</style></defs><title>cahd</title><path class="a" d="M-394.52,230q91.23,0,182.45,0v0q91,0,182,0c1.93,0,3.59.29,3.62-2.6s-1.13-3.21-3.62-3.19q-32,.22-64,.2-150.22,0-300.45-.11c-2.22,0-4.78-.19-4.79,2.9S-396.63,230-394.52,230Z" transform="translate(399.35 -5.52)"/><path class="a" d="M-241.49,209c0,7.27-.16,7.12,7.15,7.05,3.17,0,3.91-1.1,3.73-4.14-.34-5.65-.08-11.33-.27-17-.1-3.06,1-4.1,4.1-3.92,4.48.25,9,.1,13.48,0,2.73-.09,3.92.83,3.81,3.75-.22,5.82.08,11.67-.29,17.48-.22,3.43,1.26,4.24,4.05,3.74,2.4-.44,6.42,2.15,6.25-3.5-.24-8-.06-16-.06-24h0c0-8.16-.12-16.33.06-24.49.06-3.15-1-4.26-4.09-3.79-2.64.4-6.44-1.47-6.15,3.84.27,4.82.06,9.66.24,14.49.11,2.79-.87,3.9-3.75,3.77-4.49-.2-9-.25-13.49,0-3.1.17-4.24-.92-4.13-4,.17-4.5-.22-9,.24-13.49.59-5.76-3.23-4.32-6.4-4.66-3.94-.41-4.72,1.19-4.66,4.86C-241.43,179.69-241.44,194.35-241.49,209Z" transform="translate(399.35 -5.52)"/><path class="a" d="M-89.08,216.28c6,.24,12.06-1.36,18.15-.33,2.66.45,3.29-1.11,3.24-3.62-.15-8.49-.06-17-.06-25.47h-.15c0-7.33-.06-14.66,0-22,.08-8.33.07-8.25-7.75-5.34-2.23.83-2.78,1.88-2.63,4,.21,2.82.1,5.66.38,8.47.28,3-.69,4.21-3.65,3.11a14.73,14.73,0,0,0-7.87-.43c-13,2.33-18.76,15.38-15.22,29.36C-102.66,211.79-97.13,216-89.08,216.28Zm-3.62-29.53c3-4.07,7.24-4.41,11.68-3.5,2.91.6,3.17,3,3,5.49-.12,2.32,0,4.66,0,7h-.19c0,1.33,0,2.66,0,4,.06,3.18,1.53,6.91-3.15,8.27-4.22,1.24-9.76-.71-12-4.19C-96.38,199.08-96,191.23-92.7,186.75Z" transform="translate(399.35 -5.52)"/><path class="a" d="M-28.86,199.26c0-2.87,0-4.37,0-5.86.29-16-8.06-20.05-21.83-18.87-1.15.1-2.26.55-3.41.69-2.79.36-4.77,1-3.88,4.7.78,3.29,1.43,4.78,5.5,3.51s8.93-1.91,12.54,2c.65.72,1.38,1.59,1,2.66s-1.66.93-2.58.9c-2.83-.11-5.68-.37-8.45.35-6.13,1.6-11,4.72-12.61,11.33-1.26,5.07.56,10.72,4.56,13.37,5.28,3.49,11.1,3.34,16.6.93,2.58-1.14,4.07-2.82,6.51.37,1.79,2.33,5.11,1.45,7.5.48,1.74-.71,1.29-3.28.53-4.43C-29.78,207.16-28.55,202.43-28.86,199.26Zm-17.84,9.43c-3.74.09-6.22-1.72-6.43-5.41-.23-4,4.32-6.71,10.59-6.84,2.35-.05,4.27,0,4.27,3.25C-38.26,205.11-41.41,208.63-46.7,208.69Z" transform="translate(399.35 -5.52)"/><path class="a" d="M-173.64,216.62c12.38.18,20-8.05,20-21.61,0-12.51-7.63-20.65-19.34-20.68-12.18,0-20,8.26-20,21.22C-193,208.72-185.88,216.45-173.64,216.62Zm-8.91-24.12c.88-6.56,4.15-9.91,9.61-9.84,5.16.06,7.84,3.27,8.87,10.61,1.24,8.85-3.56,15.67-10.57,15a9.21,9.21,0,0,1-1.48-.18C-181.09,206.81-183.64,200.62-182.55,192.5Z" transform="translate(399.35 -5.52)"/><path class="a" d="M-147.74,195.26c0,5.83.08,11.66,0,17.49-.11,5.27,3.79,2.74,6.06,3.19,2.61.53,3.94-.35,3.82-3.46-.29-7.15-.18-14.32-.27-21.48-.07-5.44,2.61-8.19,8.09-8.25,5.25-.05,7.69,2.41,7.73,8.13,0,7.33,0,14.66-.18,22-.11,4.44,3.09,3.07,5.24,3s5.46,1.45,5.38-2.94c-.12-7.83.11-15.67-.37-23.48-.8-13.08-12.64-19.33-24.08-12.79-2.1,1.19-2.94,1.07-4.36-.8s-3.75-1.38-5.59-.91c-2.17.55-1.39,2.73-1.41,4.28C-147.77,184.6-147.73,189.93-147.74,195.26Z" transform="translate(399.35 -5.52)"/><path class="a" d="M-146.08,262c-4,0-8-.09-12,.18-3.44.24-3.72-1.51-3.62-4.26s.22-4.6,3.72-4.33,7.31.15,11,.27c1.63.05,3.15-.09,3.23-2.13.09-2.35-1.56-2.56-3.4-2.48-3.49.14-7,.06-10.46.36-2.7.24-4.15-.44-4.11-3.4,0-2.65.41-4.54,3.85-4.24,3.81.33,7.65.2,11.47.27,1.68,0,3.08-.42,3-2.43-.08-1.7-1.4-2.1-2.84-2.09-5.65,0-11.31.17-17,.15-2.59,0-3.54,1.12-3.45,3.65.13,3.65,0,7.32,0,11s.07,7.32,0,11c-.06,2.12.8,3.08,2.89,3.1,6,0,12,.1,18,.13,1.62,0,3.21-.5,3.28-2.33C-142.44,262-144.36,262-146.08,262Z" transform="translate(399.35 -5.52)"/><path class="a" d="M-384.51,237.92c-14.27-.11-14.27-.11-14.27,14.29,0,14.8,0,14.8,14.53,14.23,8.53-.33,12.75-5.37,12.59-15C-371.81,242.3-375.92,238-384.51,237.92Zm6.46,21.17c-2.34,3.6-5.87,3.16-9.88,2.94-5.12,1.62-6.53-.89-5.9-6.13.42-3.43,0-7,0-10.44,0-1.27-.26-2.67,1.38-3.37,3-1.3,12.18.5,14.06,2.83C-375.82,248.06-375.74,255.51-378,259.09Z" transform="translate(399.35 -5.52)"/><path class="a" d="M-317.83,262c-3.32.14-6.67-.1-10,.16s-5.2-.25-5.06-4.43c.12-3.86,1.75-4.38,4.95-4.1s6.64.11,10,.24c1.71.07,3.1-.24,3.11-2.24s-1.27-2.47-3-2.4c-3.65.16-7.32.1-11,.41-2.78.23-4-.71-4-3.55s.74-4.38,4-4.11c3.8.3,7.64.2,11.46.25,1.68,0,3.07-.48,2.92-2.49-.12-1.71-1.46-2-2.89-2-5.65,0-11.3.18-16.95.13-2.6,0-3.56,1.14-3.52,3.62.14,8.13.21,16.26.31,24.4h22.86C-313.75,263-314.92,261.9-317.83,262Z" transform="translate(399.35 -5.52)"/><path class="a" d="M-34.94,250.28c-2.61-.55-5.23-1-7.86-1.47-1.8-.32-3.13-1.2-3.39-3.12s1.15-3.12,2.76-3.66c4.29-1.44,8.22-1.19,10.94,3.11a2.74,2.74,0,0,0,4.28.87c1.87-1.28.5-2.7-.21-3.88-3-4.94-11.52-6.81-17.56-4-3.57,1.68-5.36,4.54-5.13,8.37.22,3.63,2.68,5.63,6,6.4s6.55,1.17,9.81,1.85c2,.43,4,1.39,3.84,3.83-.15,2.21-1.72,3.44-4,3.82-4.67.77-9,.81-11.69-4.1-.82-1.5-2.22-2.24-3.77-1.42-1.77.94-1,2.72-.52,4,1,2.6,3.23,4.17,5.75,5.26a30.55,30.55,0,0,0,14-.17c4-2.34,6.1-5.79,4.88-10.38C-27.75,251.63-31.52,251-34.94,250.28Z" transform="translate(399.35 -5.52)"/><path class="a" d="M-83.49,244.7c-.63-5.21-3.11-6.89-10.72-6.73-4.61.1-10.41-2-13.54.88s-.55,8.85-1.16,13.54c0,3.71,0,7.55,0,11.38,0,1.46.26,2.82,2,2.89a2.46,2.46,0,0,0,2.74-2.82c0-2-.19-4-.31-6-.08-1.35-.2-2.59,1.48-3.27,7.21-2.88,13.75.89,14.57,8.6.23,2.09.79,3.75,3.17,3.52,2.54-.25,1.74-2.18,1.67-3.83-.23-5.39-3.91-10.84.17-16.22C-83.14,246.24-83.41,245.35-83.49,244.7ZM-93,250.5c-1.65.13-3.32,0-4.18,0-4.21.21-8.15,1.41-7.43-4.65.35-3,1.24-4.21,4.27-3.93,2.31.22,4.65.11,7,.1,2.84,0,5.14,1.08,5.32,4.05S-90.29,250.29-93,250.5Z" transform="translate(399.35 -5.52)"/><path class="a" d="M-263.8,241.81c-.88-1.87-1.44-4.18-4.37-4-2.69.14-3.57,2-4.48,4-3.09,6.77-6.21,13.52-9.3,20.29-.66,1.46-1.91,3.2.21,4.32s3.67-.26,4.15-2.19c1.18-4.88,4-6.27,9-6.13,4.74.12,8.56.22,9.36,6a2.77,2.77,0,0,0,1.82,2.21c1.8.71,3.57,1.35,4.17-1.6-.23-.53-.46-1.14-.73-1.73C-257.26,255.9-260.48,248.83-263.8,241.81ZM-269,254.26c-3.36.05-4.33-.81-2.62-3.94.94-1.71,1.58-3.59,2.45-5.35.18-.36.77-.52,1.19-.79,1.71,1.15,1.72,3.17,2.48,4.73C-263.1,254-263.42,254.17-269,254.26Z" transform="translate(399.35 -5.52)"/><path class="a" d="M-273.39,201.87c-1.19-4.17-4.33-5.49-8.19-4a7.42,7.42,0,0,1-6.05,0c-3.32-1.34-7,.18-10.13.91-2.38.54-.42,4.48-.9,6.85a5.46,5.46,0,0,0,0,1h0v5c0,1.84-.25,4.06,2.35,4.16s2.44-2.14,2.38-4c-.07-2-.22-4-.27-6-.06-2.42.74-4.62,3.42-4.58s2.89,2.23,2.75,4.43-.19,4.66-.21,7c0,1.59.28,3.22,2.26,3.22s2.46-1.43,2.42-3.12c-.06-2.5-.18-5-.22-7.5,0-2.31,1.08-4.06,3.4-4.1s2.79,2.11,2.87,4c.1,2.66-.1,5.33-.13,8a2.38,2.38,0,0,0,2.32,2.71,2,2,0,0,0,2.38-2C-273.11,209.81-272.28,205.76-273.39,201.87Z" transform="translate(399.35 -5.52)"/><path class="a" d="M-332.73,197.61c-3.89,1-4.92.32-4.22-3.52.31-1.68-.38-3-2.34-3.06s-2.43,1.34-2.42,3c0,6.15.12,12.3.14,18.46,0,2.26.85,3.55,3.3,3a10.55,10.55,0,0,1,3.92.29c7,1.11,10.48-1.94,10.42-8.92C-324,200.45-327.58,196.3-332.73,197.61Zm4.4,8.06c0,4.12-1,6.57-4.66,6.58-3.29,0-4-2.58-4.07-5.16-.13-3.05.79-5.94,4.38-6A4.17,4.17,0,0,1-328.33,205.67Z" transform="translate(399.35 -5.52)"/><path class="a" d="M-363.45,186c4.39.91,9.6-1.36,11.46-5.19.79-1.6,1.73-3.68-.28-4.92-2.3-1.42-3.21.62-3.93,2.35-1,2.38-2.68,4-5.28,3.78-3.59-.3-5.56-2.61-6.34-6.06-.9-4-.33-7.81,3.3-10.11,2.94-1.86,6-1.61,8.2,1.79,1.06,1.65,2.82,3,4.49,1.16,1.51-1.61.32-3.35-1.08-4.74a11.08,11.08,0,0,0-12.36-2.67c-5.07,1.82-7.43,5.91-7.36,12.24,0,.83-.07,1.67,0,2.49A11.49,11.49,0,0,0-363.45,186Z" transform="translate(399.35 -5.52)"/><path class="a" d="M-396.43,215.78c2,.45,3.19-.72,3.82-2.38.89-2.37,1.43-4.42,4.92-4.42,3.67,0,6,.77,6.9,4.59A2.64,2.64,0,0,0-377,215.7c1.47-.49,1.57-1.58,1.09-2.79-2.65-6.79-5.19-13.63-8.08-20.31a2.78,2.78,0,0,0-5.18-.32c-3.18,6.9-5.73,14.09-8.52,21.18C-397.88,214.56-397.64,215.51-396.43,215.78Zm9.17-17.73c2.16,2.09,3.92,4.43,2.59,7.28-.64,1.38-3.25,1.26-4,.36C-390.84,203-387.77,200.73-387.26,198.05Z" transform="translate(399.35 -5.52)"/><path class="a" d="M-202.34,262c-3.49,0-7,0-10.47.15-2.63.1-3.4-.92-3.26-3.56.31-5.81.23-11.63.37-17.44,0-2-.72-3.32-2.72-3.47-2.57-.21-2.31,1.81-2.33,3.44,0,3.66,0,7.31,0,11h0c0,3.82.05,7.64,0,11.47,0,2,.45,3.16,2.75,3.14,5.31-.05,10.63,0,15.95.09,1.73,0,3.08-.59,3.18-2.39C-198.75,262-200.59,262-202.34,262Z" transform="translate(399.35 -5.52)"/><path class="a" d="M-273.36,175.23c-3.62.77-6.53,2.43-5.36,6.7,1.07,3.89,4.35,4.8,7.89,3.87,2.16-.56,4-.88,6.2,0,2.62,1,4.11-.64,2.85-3.06S-263,178-263,175.51c.18-3,.73-6.25-3-7.53-3.55-1.2-7.17-1.54-10.31,1.16-1,.85-2.24,2-1.47,3.37s2.37.84,3.59.27c.73-.34,1.28-1.07,2-1.4,2.59-1.17,5.68.19,4.7,1.94C-268.76,175.57-271.32,174.8-273.36,175.23Zm6.25,4.12c-.31,2.08-2.15,2.93-4,3.08-1.46.12-3.37-.35-3.25-2.21.18-2.69,2.84-2.19,4.45-2.81C-268.35,177.35-266.83,177.5-267.11,179.35Z" transform="translate(399.35 -5.52)"/><path class="a" d="M-267.52,200.64c-.86,1.36-.37,2.53.94,3.38,2.28.12,3.2-2.12,5-2.85s3.5-.64,4.09,1.34-1.23,2.25-2.69,2.52c-2.09.38-4.18.78-6.27,1.18-2.33,1.93-3,4.37-1.71,7.08s3.77,3.12,6.39,2.72a22.33,22.33,0,0,1,8.31,0c1.57.34,3.59-.89,2.16-2.51-2.91-3.3-1.66-6.91-1.67-10.42,0-3.93-2.59-5.24-5.71-5.58C-262,197.11-265.44,197.32-267.52,200.64Zm10.19,9c-.24,2.33-2.14,2.66-3.94,2.95-1.47-.12-3-.56-2.85-2.15.31-2.59,2.8-2.38,4.67-2.76A1.63,1.63,0,0,1-257.33,209.59Z" transform="translate(399.35 -5.52)"/><path class="a" d="M-361.65,200.81c-1,1.47-.16,2.47,1.08,3.28h0c1.89,0,2.79-1.48,4-2.49a3.32,3.32,0,0,1,4.11-.18,1.81,1.81,0,0,1,1,2.07c-.54,1.51-2,1.44-3.3,1.64l-4.84.73h0c-2.82,1.65-4,4.06-2.7,7.13,1.21,2.92,3.89,3.44,6.68,3.06,2.61-.35,5.09-.9,7.78-.08,1.71.52,3.37-1,2.17-2.54-2.43-3.21-1.64-6.65-1.48-10,.18-3.62-1.59-5.27-4.74-5.8C-355.64,197-359.25,197.22-361.65,200.81Zm6.9,11.63c-1.48.08-3.39,0-3.37-2,0-2.41,2.37-2.32,4.05-2.76s2.53.22,2.66,2.09C-351.46,211.82-353,212.36-354.75,212.44Z" transform="translate(399.35 -5.52)"/><path class="a" d="M-318.85,200.91c-.92,1.48.07,2.48,1.26,3.29,2,.14,2.57-1.82,3.91-2.65s2.77-1.05,4.07,0a2.24,2.24,0,0,1,.87,1.62c-.26,1.64-1.77,1.66-3,1.9-1.92.38-3.85.69-5.77,1-1.86,2-3.79,3.88-2.16,7s4.38,3.34,7.29,2.92c2.28-.33,4.43-.74,6.78-.05,1.52.44,4.23-.13,2.79-2.38-2.14-3.34-1.57-6.67-1.47-10.09.12-3.77-2-5.46-5.35-5.93C-313.25,197-316.69,197.42-318.85,200.91Zm6.26,11.64c-1.32-.22-3-.37-2.82-2.07.25-2.65,2.59-2.53,4.5-2.69,1.29-.11,2.28.45,2.19,2C-308.88,212.2-310.82,212.29-312.59,212.55Z" transform="translate(399.35 -5.52)"/><path class="a" d="M-339.39,186c4.22.26,8-.8,8.78-6-2-1.58-3.34,0-4.78,1s-2.75,1.85-4.54,1c-1.25-.62-2.37-1.46-2.12-3s1.68-1.14,2.78-1.35c3.2-.62,7,1.75,9.6-1.94h0c-.29-.94-.52-1.91-.86-2.83a8.28,8.28,0,0,0-9.32-5.68c-4.66.88-7.09,4.13-7,9.37C-346.75,182.23-344.19,185.75-339.39,186Zm.6-15.06c1.74-.07,3.59.46,3.61,2.45,0,2.22-2.17,1.27-3.19,1.76-1.5-.35-3.54.57-3.54-1.8C-341.91,171.54-340.32,171-338.79,171Z" transform="translate(399.35 -5.52)"/><path class="a" d="M-323.3,185.69c1.93,0,2.49-1.32,2.46-3,0-2.66-.13-5.31-.12-8,0-2.14,1.06-3.55,3.27-3.59s3.12,1.54,3.08,3.64c-.05,2.82-.19,5.64-.2,8.47a2.26,2.26,0,0,0,2.54,2.43c1.32,0,2.4-.75,2.37-2.07a116.29,116.29,0,0,0-.62-12.39c-.33-2.59-2.48-3.79-5.06-4-8.17-.66-9.83.84-10.21,9,0,2.15,0,4.31,0,6.47C-325.82,184.38-325.16,185.65-323.3,185.69Z" transform="translate(399.35 -5.52)"/><path class="a" d="M-303.66,180.44c.06,3.35,1.37,5,4.6,5.23,1.13.13,2.37.36,3.07-.91.54-1,.14-1.8-.62-2.64-3.79-4.19-3.77-7.33.05-11.19,1.21-1.21,1.3-2.29-.18-3.22-.82-.51-2-.48-2.32-1.65-.48-1.83-1-5.17-3.21-3.06-1.57,1.49-4.65,5.76-3.52,6.79C-302.11,173.14-303.72,176.9-303.66,180.44Z" transform="translate(399.35 -5.52)"/><path class="a" d="M-255.12,185.75c1.88-.12,2.29-1.55,2.26-3.23,0-3,0-6,0-9s0-6,0-8.94c0-1.8-.19-3.5-2.48-3.49-2.06,0-2.19,1.62-2.19,3.19q0,9.19,0,18.4C-257.5,184.35-257.12,185.88-255.12,185.75Z" transform="translate(399.35 -5.52)"/><path class="a" d="M-291.69,176.22c0,2.32,0,4.64,0,6.95a2.24,2.24,0,0,0,2.45,2.5,2.28,2.28,0,0,0,2.44-2.53c0-1.82-.11-3.64-.18-5.46a6.68,6.68,0,0,1,1.46-5.09c1.43-1.58,6.25-.07,4.61-4.11-1.4-3.44-4.4.39-6.56-.32-4.22-1.38-4.43,1-4.16,4.09.12,1.32,0,2.65,0,4Z" transform="translate(399.35 -5.52)"/><path class="a" d="M-367,194.13c0-1.64-.36-3.11-2.33-3.16-2.22-.05-2.72,1.52-2.7,3.37.07,6,.16,12,.23,17.95,0,1.75.13,3.52,2.48,3.49,2.06,0,2.25-1.67,2.27-3.21.06-3,0-6,0-9h0C-367,200.45-367,197.29-367,194.13Z" transform="translate(399.35 -5.52)"/><path class="a" d="M-336,267c6.61.47,13.25-.31,19.86.56.84.12,1.37-.8,1.54-1.69h-22.86C-337,266.28-336.56,267-336,267Z" transform="translate(399.35 -5.52)"/><path class="a" d="M-45.62,266.16c4.72,3.12,9.39,2.64,14-.17A30.55,30.55,0,0,1-45.62,266.16Z" transform="translate(399.35 -5.52)"/><rect class="b" x="0.39" width="372.72" height="146.25" rx="4" ry="4"/><path class="c" d="M-245,101.16c10.06,1.51,20.15,1.18,30.24,1.51,10.3-.3,20.62.09,30.86-1.64,9.93-1.67,16.41-6.66,18.68-16.91a160.28,160.28,0,0,0,3.16-47.68c-.78-9.94-6.06-15.88-16.15-17.5a229.67,229.67,0,0,0-73.54,0c-9.58,1.55-14.41,7.54-15.51,17.36-1.77,15.84-.2,31.5,2.87,47.06C-262.3,94.07-255.59,99.56-245,101.16Zm-16.64-64.49c.69-8,5-12.84,13-14.2a201.29,201.29,0,0,1,67.9,0c7.45,1.26,11.92,5.95,12.81,13.63a131.41,131.41,0,0,1-2.82,47.67c-2.37,9.33-7.35,12.78-17.37,13.44h0c-8.4,2.63-17.13,1.59-25.64,1.67-9.35.09-18.9.83-28.17-1.68h0c-10.05-1.1-14.69-4.69-17-14C-262.65,67.87-263,52.27-261.65,36.67Z" transform="translate(399.35 -5.52)"/><path class="c" d="M-273.51,120.12c.7-.54,1.36-.82,1.24-1.82s-1.07-1.25-1.85-1.26c-4.63-.06-9.29-.3-13.89.08-2.59.21-2.53,2.07-.32,3s3,2.29,2.36,4.37c-.72,2.25-2.78,1.26-4.33,1.35s-2.95.07-4.42,0-3.59.68-4.13-1.71a3,3,0,0,1,2.21-3.91c1-.32,2-.69,1.63-2.11s-1.59-1.18-2.57-1.2c-4,0-8,0-12,0-1,0-2.22-.15-2.64,1.11s.56,1.54,1.42,2.24c3.67,3,3.58,12.67-.07,15.6-.84.68-1.85,1-1.33,2.32.39,1,1.34.86,2.12.88,2.1.06,4.21,0,6.32,0v0c1.26,0,2.53.06,3.79,0,1.64-.1,3.92.75,4.75-.74,1.34-2.42-1.6-2.24-2.72-3.14s-1.11-2.21-.84-3.43,1.39-1.36,2.49-1.36c2.53,0,5.06,0,7.58,0,3.74.11,3.51,2.28,2.15,4.65-.71,1.25-4.11.62-2.92,3.07.9,1.88,3.42.82,5.21.89,3.15.14,6.32.07,9.48,0,1,0,2.21.2,2.47-1.26.19-1-.56-1.3-1.25-1.83C-278.28,132.38-278.25,123.79-273.51,120.12Z" transform="translate(399.35 -5.52)"/><path class="c" d="M-243.32,117.63a31.33,31.33,0,0,0-21.08.41c-4.52,1.67-7.26,5.27-7.12,10.2a10.39,10.39,0,0,0,7.36,10A25.92,25.92,0,0,0-253,139.9a21.25,21.25,0,0,0,9.92-1.45c4.66-1.8,7.94-4.7,8-10.19C-235,122.54-238.32,119.28-243.32,117.63Zm-10,17.87c-4.78,0-7.55-2-7.67-7-.12-5.19,2.29-7.68,7.57-7.74s7.86,2.18,8,5.47C-245.37,133.44-248.25,135.55-253.34,135.5Z" transform="translate(399.35 -5.52)"/><path class="c" d="M-208,117.12c-1.6.08-2.35,1.95-1,2.47,6.87,2.56,2.89,7.77,3.39,11.95-2.22-2.06-4.53-4.09-5.66-6.64-4.26-9.59-12.55-8.12-20.44-7.94-1.66,0-3.21.62-2,2.64,5.25,8.44,5.31,9.8.11,16.8a1.6,1.6,0,0,0-.09,2.21c.65.75,12.51.85,13,0a1.52,1.52,0,0,0-.69-2.53c-1.17-.47-2.47-.68-2.89-2.14-1.65-2.74-.78-5.75-.74-8.61,0-1.79,1.15-2.06,2.12-.28q4.36,5.79,8.73,11.59c3.39,4.51,8.28,2.51,12.3,2.15s1.62-4.44,1.91-6.81c.62-4.92-2-10.78,6.5-13.9l0-.12C-199.47,116.45-203.76,116.89-208,117.12Z" transform="translate(399.35 -5.52)"/><path class="c" d="M-165.69,117.76c-8.49-1.78-17.19-.65-25.8-.75-.74,0-1.53.12-1.82,1l0,.12a.45.45,0,0,0,0,.11c-.2,1,.47,1.29,1.1,1.88,3.62,3.46,3.8,12.59.3,15.74-.78.71-1.93,1-1.39,2.31s1.74.93,2.72.94c3.58,0,7.15,0,10.73,0v-.36c4.41,0,8.88.47,13.21-.12,5.53-.75,9.28-4.12,9.58-10S-160.25,118.9-165.69,117.76ZM-176,135.13c-6.15.41-4.71-3.6-4.84-7.85-.35-3.08-.61-6.39,5.48-6.08,5.2.27,8.05,1.81,7.91,7.17C-167.57,134-171.19,134.81-176,135.13Z" transform="translate(399.35 -5.52)"/><path class="c" d="M-126,128c-4-10.24-11.68-12.64-21.57-11.07-1.35.21-3.26-.62-3.83,1.2-.77,2.43,1.61,1.8,2.75,2.29s2.39,1.23,1.12,2.68c-3.63,4.15-4,10.83-10.18,13-.86.3-1.47.75-1.33,1.77s1.05,1.21,1.87,1.22c4.06,0,8.12,0,11.89,0,.79-3.36-3.52-2.87-2.43-5.21s3.72-1.17,5.67-1.36a51.24,51.24,0,0,1,5.68,0c1.24,0,2.71-.13,3.27,1.3.72,1.83-.88,1.93-2,2.32a1.46,1.46,0,0,0-1.11,1.89c.26,1.09,1.2,1.07,2,1.08,5.77,0,11.54,0,17.31,0,.18-.62.35-1.24.53-1.86C-121.34,135.8-124.37,132.23-126,128Zm-18,.28c.27-2.61,1.9-4,3-5.78,2.36,1,3,3.16,4.22,5.61A14.74,14.74,0,0,1-144,128.28Z" transform="translate(399.35 -5.52)"/><path class="c" d="M-229.19,90.27a26.38,26.38,0,0,1,1-3.66C-225.62,77.91-223.28,76-215,76c9.06,0,11.19,1.63,13.84,10.54a16.32,16.32,0,0,1,1,3.64c.23,5.29,3.27,6.65,7.93,5.91,2.52-.32,4.73-.38,4.94-4.13,1.22-21,2.75-42,4.13-63,.16-2.44.79-5-3.27-5.32-3.91-.32-4.28,1.7-4.95,4.7C-193.7,38.63-196,48.89-198.94,59c-2.56,8.89-6.15,11.06-15.85,11.12-9.47.06-12.87-2.31-15.78-11.22-3.34-10.2-5.31-20.75-7.51-31.23-.62-3-1.8-4.17-5-3.95-3.42.22-3.56,2-3.37,4.59,1.55,21,3.19,42,4.41,63,.25,4.27,2.34,4.76,5.49,4.89C-231.71,97.21-229.79,94.62-229.19,90.27Z" transform="translate(399.35 -5.52)"/></svg>