<svg xmlns="http://www.w3.org/2000/svg" viewBox="0 0 294.7 95.4"><defs><style>.a{fill:none;}.b{fill:#e13941;}.c{fill:#fff;}.d{fill:#059b67;}.e{fill:#0560aa;}.f{fill:#e23940;}.g{fill:#e13940;}.h{fill:#055fa9;}.i{fill:#0660a9;}.j{fill:#01449d;}.k{fill:#e0333a;}.l{fill:#0d935d;}.m{fill:#02429c;}.n{fill:#dd1720;}.o{fill:#023895;}.p{fill:#dc1822;}.q{fill:#0b55a2;}.r{fill:#0a915a;}.s{fill:#007a3a;}.t{fill:#0e53a1;}.u{fill:#df2b32;}.v{fill:#024da1;}.w{fill:#0155a4;}.x{fill:#dd1921;}.y{fill:#069a66;}.z{fill:#0b8e54;}.aa{fill:#02479c;}.ab{fill:#df2226;}.ac{fill:#028b4d;}.ad{fill:#0d9059;}.ae{fill:#2d67ac;}.af{fill:#1253a3;}.ag{fill:#dd1925;}.ah{fill:#124e9d;}.ai{fill:#2f6bae;}.aj{fill:#068e52;}.ak{fill:#2563a9;}.al{fill:#df1e28;}.am{fill:#2567aa;}.an{fill:#1358a5;}.ao{fill:#dd242d;}.ap{fill:#028a50;}.aq{fill:#00278d;}.ar{fill:#e0232b;}.as{fill:#022288;}.at{fill:#d61723;}.au{fill:#028f52;}.av{fill:#de2126;}</style></defs><title>lakeshore_w</title><path class="a" d="M256.24,377.21l-.05,0-.11.06a.41.41,0,0,1,.11.07Z" transform="translate(-160.14 -349.78)"/><path class="a" d="M325,356.07l0,.1C325.1,356.13,325.06,356.1,325,356.07Z" transform="translate(-160.14 -349.78)"/><path class="b" d="M356.22,382.72c2.12-.23,3-.59,2.78-2.72a11.42,11.42,0,0,0-9.25-.14l6.26.41,0,.65h-9.3c-9,1.86-16,7.11-21.86,13.88-1.69,1.94-3.09,4.32-2.78,7.18a15,15,0,0,0,9.2-1.82c-2.33-.62-1.38-1,.09-1.37a13,13,0,0,0,1.76-.77A38.87,38.87,0,0,1,351,385C351.59,381.69,354.54,382.91,356.22,382.72Z" transform="translate(-160.14 -349.78)"/><path class="c" d="M435.65,422.88c5.48.29,11,.1,16.47.06,1.07,0,2.68.45,2.72-1.25s-1.52-1.39-2.63-1.39c-6.66,0-13.32.07-20-.05-2.23,0-2.88.74-2.82,2.89.14,4.49.05,9,0,13.48,0,8.25,0,8.45,8.35,8.19,5.65-.18,11.39,1.19,16.95-.85H433v-.91H454.7c-5-1.66-10.09-.56-15.14-.71-7.31-.21-7.32,0-6.84-7.27a9.54,9.54,0,0,1,.53-1.91c.32-2.3,2.1-1,3.14-1.13,5.18-.65,10.5,1,15.61-.93-5.48-.08-11-.32-16.45-.16-3.77.11-2.71-2.4-2.83-4.35S432.4,422.7,435.65,422.88Z" transform="translate(-160.14 -349.78)"/><path class="d" d="M331.92,366a4.79,4.79,0,0,1-4.91-2.66c-2.31-4.21-5.48-4-9.15-2.3,6.26,9.29,15.4,13.5,26.17,14.85a11.91,11.91,0,0,1,10,0h0a10.23,10.23,0,0,0,7-3c.45-1.78.71-3.42-2.06-3a37.6,37.6,0,0,1-15,.81,9.43,9.43,0,0,1-5.11-1.75h0a.73.73,0,0,1-.85-.26Zm19.21,6.4c-1.8,1.13-3.44.28-5,.18A6.76,6.76,0,0,1,351.13,372.42Z" transform="translate(-160.14 -349.78)"/><path class="e" d="M317,399.12c2.24-3.77-.36-8.28,1.83-12.06h0c.19-1.65-.7-2.76-1.73-3.91-6-6.73-13.36-8.64-21.95-6.06-1.48,4.77,1.38,5.08,4.87,4.74,3.65-.83,6.43,2.23,9.9,2.23.77-1.13,1.61-.95,2.37-.06a1.23,1.23,0,0,1-.37,2h0c1.06,1.49,1.05,3.24,1.21,5l1.4-2.25c.77,2.12.22,3.44-1.68,4.24h0q-1.54,5-3.08,10C313.52,404.13,315.34,401.73,317,399.12Z" transform="translate(-160.14 -349.78)"/><path class="c" d="M278.11,442.31c-5.5,0-11,0-16.48,0-1.36,0-3.38.56-3.18-1.9s-.91-5,.78-7.24c.37-2.25,2.12-1,3.17-1.1,5.17-.66,10.49,1,15.6-1-5.49-.07-11-.34-16.47-.12-3.47.14-3.12-1.83-3.16-4.09s-.16-4.18,3.23-4c5.31.27,10.65.11,16,.05,1.16,0,3.09.72,3-1.38,0-1.53-1.67-1.24-2.81-1.24-6.49,0-13,.09-19.48,0-2.28,0-3.28.46-3.2,3,.17,6.15.14,12.32,0,18.48-.06,2.34.57,3.22,3.06,3.16,6.65-.15,13.31,0,20-.06,1.1,0,2.73.37,2.7-1.29S279.22,442.32,278.11,442.31Zm.84,1.42H259.21l.06-.38H279Z" transform="translate(-160.14 -349.78)"/><path class="f" d="M293.1,375l-.32-1L286,375.18a1.43,1.43,0,0,1-.11.58h0l.95,2.43h0c1.71,1.45,1.61,2.21-.66,4.74l-1.25,2c-.75,2.64-1.73,5-5.15,4.81h0a30.5,30.5,0,0,1-18.1,3.39c-1.09-.13-2.32-.55-3.12.72l8.41.42c-1.31,1.74-4.05-.34-4.93,2h0a5.41,5.41,0,0,0,5,1.59,4.8,4.8,0,0,1,5.9,0l4-.05h0c2.8-1.39,6-2,8.11-4.65l5.88-6.28a3.58,3.58,0,0,1,1.21-2.89A28.34,28.34,0,0,0,293.1,375Z" transform="translate(-160.14 -349.78)"/><path class="g" d="M252.33,372.25c2.49.54,3.71-1.19,4.71-3.1.65-2,2.31-2.16,4-2.13a26.07,26.07,0,0,1,3.63-1.35c6.29-1.36,12.43-1.79,17.35,3.57,2.51-.07,5.05.09,7.38-1.15h0l-9.64-8h0l-4.87-.92a10.38,10.38,0,0,1-8.88,0c-7.57,0-11.2,5.49-15.06,10.68C249.63,371.62,251.28,372,252.33,372.25Zm21.31-9c-2.64,1.26-4.61.45-6.36,0Z" transform="translate(-160.14 -349.78)"/><path class="c" d="M349,421.11c-.52,3.27,1.2,6.79-1.12,9.86-4.82,0-9.64-.06-14.46-.06-8,0-8,0-8.64-7.92-.1-1.38.06-2.87-1.91-2.73-1.63.12-1.47,1.46-1.47,2.64,0,6.49,0,13,0,19.46,0,1.14-.15,2.5,1.54,2.56,2.06.08,1.72-1.52,1.82-2.81.21-3-.56-6,.52-8.89l-.25-.88c8-.29,16-1.38,23.94.6h0c0,3.66,0,7.31,0,11l2,0V421.14Z" transform="translate(-160.14 -349.78)"/><path class="c" d="M360.05,440.85a1.26,1.26,0,0,0-.18-.85,23.66,23.66,0,0,1-.05-14c4.08-4.75,22.39-4.58,26,.22h.06a3.91,3.91,0,0,1,2-2.19c-.7-2.78-3.06-3.54-5.32-3.61-6.62-.21-13.26-.38-19.86,0-3.77.24-6.27,2.63-5.8,6.95,0,3.72,0,7.43,0,11.15h0c-.25,1.88-.23,3.64,1.91,4.5A2.24,2.24,0,0,0,360.05,440.85Z" transform="translate(-160.14 -349.78)"/><path class="c" d="M249.93,443.22c-5.81-2.8-11-6.66-16.4-10.07-1.67-1-1.61-1-.1-1.92,5.19-3.11,9.94-6.94,15.52-9.42-.92-1-2.27-.6-3.38-1h0c-5.91,2.79-11.12,6.71-16.57,10.24-1.26,1.49-3,.66-4.52,1-.73.17-.5.58,0,.84a3.34,3.34,0,0,0,.93.24,12.27,12.27,0,0,1,6.81,2.36c4.33,3.19,9.14,5.73,13.75,8.53C247.26,443.75,248.79,444.44,249.93,443.22Z" transform="translate(-160.14 -349.78)"/><path class="h" d="M292,356.1c.77-2.94-1.25-4.84-3.17-5.92-2.1-1.17-4,.45-6,1.92-3.15,2.36-2.32,5-1.61,7.8h0C286.24,362.64,289.32,359.9,292,356.1Z" transform="translate(-160.14 -349.78)"/><path class="i" d="M343.27,356.55A6.37,6.37,0,0,0,341,363a.94.94,0,0,1,1,1l6.86,0h0l3-3.05c.09-.65.18-1.31.28-2C350.05,353.21,347.67,352.7,343.27,356.55Z" transform="translate(-160.14 -349.78)"/><path class="c" d="M163.14,443.15h0l19.73-.13c-3.78-1.63-7.73-.54-11.59-.64-8.14-.21-8.12-.06-8.15-7.95,0-4.15-.13-8.29-.19-12.44h-2.74v21l2.95.13Z" transform="translate(-160.14 -349.78)"/><path class="c" d="M224.48,432.06c1.5-.34,3.26.49,4.52-1-3.24.28-4.94-.84-4.29-4.41a20,20,0,0,0,0-3.46c0-1.32.29-2.9-1.72-2.84-1.7,0-1.41,1.49-1.41,2.6q0,9.66,0,19.33c0,1.1-.26,2.55,1.46,2.56,2,0,1.57-1.64,1.68-2.9.25-2.93-.65-5.94.6-8.8a3.34,3.34,0,0,1-.93-.24C224,432.64,223.75,432.23,224.48,432.06Z" transform="translate(-160.14 -349.78)"/><path class="c" d="M398.46,433.93c-.12,0-.34-.15-.33-.23a5.23,5.23,0,0,1,.13-.87c-2.5-2.51-.84-5.62-1.08-8.43-.18-2,1.81-1.44,3-1.46,5.59-.08,11.18-.07,16.78-.09v0C410,421,403,422.4,396,422h0c0,.33-.05.66-.05,1h0q0,4.49,0,9c0,1,0,2,0,3h0c.45,2.64-.9,5.49.92,8a14.17,14.17,0,0,0,.17-3c-.67-4.06.74-5.54,5-5.19,4.95.4,9.95.07,14.93,0C410.91,432.85,404.63,434.5,398.46,433.93Z" transform="translate(-160.14 -349.78)"/><path class="c" d="M396,422h0c7,.37,14-1.06,20.9.8l.08,0,2.6,1.32c.49-.44,1-.88,1.46-1.33,0-2.23-1.88-2.2-3.21-2.24-7.48-.17-14.95-.18-22.43-.23-1.05,0-1.42.63-1.25,1.62Z" transform="translate(-160.14 -349.78)"/><path class="c" d="M201.16,423c3,2.49,4,6.43,6.63,9.1,0,1.81,1.66,2.56,2.36,3.92a1.94,1.94,0,0,1,.84,2l2,0h0c0-.37,0-.75,0-1.13-.09-2.83-2-4.53-3.91-6.18.23-.91-.4-1.45-.8-2.15-1.74-3.1-2.69-7.38-7-7.45-4.69-.08-4.87,4.8-6.78,7.73l1.54,1.35Z" transform="translate(-160.14 -349.78)"/><path class="c" d="M295,422.87a20.21,20.21,0,0,1,13,0c1.29.37,2.66.82,3.29,2s1.28,3.29,3,1.92.17-3.18-.9-4.22-2.49-1.16-3.77-1.71H292.42c-1.86-.13-3.74-.28-4.43,2.09l2.16,1.07Z" transform="translate(-160.14 -349.78)"/><path class="c" d="M311.6,440.85h0l-2.6,1.27a30.61,30.61,0,0,1-17-.09,4.09,4.09,0,0,1-2.25-3.35c-.18-1.9-1.3-2.55-2.74-.68,3,.84,1.6,1.9.15,3,.49,2.35,2,3.26,4.33,3.19h19.05a6.84,6.84,0,0,0,3.57-1.92A2.86,2.86,0,0,0,311.6,440.85Z" transform="translate(-160.14 -349.78)"/><path class="c" d="M311.22,431.91c-6.07-.29-12.22,1.16-18.21-.85-.93-.23-2-.16-2.51-1.23-1.25-.18-2.65-.61-2.63,1.48a4.18,4.18,0,0,0,4.59,1.8c5.85.21,11.78-1.19,17.54.88,1.07.74,2.09,1.52,2.12,3l2.24-2.13C314.65,432.45,312.18,433,311.22,431.91Z" transform="translate(-160.14 -349.78)"/><path class="c" d="M387.89,424a3.91,3.91,0,0,0-2,2.19s0,0,0,.06h0c-.16,5.18.47,10.41-.94,15.51,0,.45.09.9.14,1.34,2.32.4,2.16-1.81,3-2.91V424.79A.59.59,0,0,0,387.89,424Z" transform="translate(-160.14 -349.78)"/><path class="j" d="M250.83,384.8c-3.93-1.81-7.87-2.38-11.84-.1a2.09,2.09,0,0,0-.88,3c.86,1.36,1.57-.15,2.38-.42,3.48-1.16,7-2.11,10.51-.07C252.59,386.27,252.27,385.46,250.83,384.8Z" transform="translate(-160.14 -349.78)"/><path class="c" d="M420.19,430c-1.58,2.41-4,2.59-6.57,2.63l-15.36.18a5.23,5.23,0,0,0-.13.87c0,.08.21.22.33.23,6.17.57,12.45-1.08,18.55,1l1.95,1.21c0-.78.09-1.56.13-2.34l2.87-2Z" transform="translate(-160.14 -349.78)"/><path class="k" d="M359,380c.23,2.13-.66,2.49-2.78,2.72-1.68.19-4.63-1-5.22,2.23,4.37-.17,8.84-1.68,13,.89a3.49,3.49,0,0,0-1-4l-1-1.13h0C360.76,381.5,360,380.14,359,380Z" transform="translate(-160.14 -349.78)"/><path class="c" d="M383,442.09h0a41.06,41.06,0,0,1-20,.14l-2.94-1.38a2.24,2.24,0,0,1-1.21,2.21c.32,1.05,1.15,1.08,2,1l23.35.05h0c.28-.32.55-.65.83-1-.05-.44-.09-.89-.14-1.34Z" transform="translate(-160.14 -349.78)"/><path class="c" d="M396,435h0c0-1,0-2,0-3a9.2,9.2,0,0,1,0-9h0c0-.33,0-.66.05-1h0l-1.85,0c-.05,6.74-.14,13.48-.13,20.21,0,2.32.14,2.32,2.73,1.79C393.58,441.26,394.94,438.13,396,435Z" transform="translate(-160.14 -349.78)"/><path class="c" d="M191,437.94h0a2.31,2.31,0,0,1,2.16-1c.14-2.59,3.06-4,2.87-6.74l-1.54-1.35A46.86,46.86,0,0,0,189,438l2,0Z" transform="translate(-160.14 -349.78)"/><path class="c" d="M420.19,430,422,431.8c2.23-3.24,3-6.32-.88-9-.48.45-1,.89-1.46,1.33C420.46,426.06,420.23,428.05,420.19,430Z" transform="translate(-160.14 -349.78)"/><path class="c" d="M163.14,443.15h0l-2.95-.13c-.06.63-.18,1.62.54,1.61,7.38-.14,14.81,1.13,22.15-.63C176.31,443.47,169.66,445,163.14,443.15Z" transform="translate(-160.14 -349.78)"/><path class="c" d="M349,432.94h0c-7.93-2-16-.89-23.94-.6l.25.88,22.39,0Z" transform="translate(-160.14 -349.78)"/><path class="c" d="M436.39,432c-1,.13-2.82-1.17-3.14,1.13,6.22,0,12.45.1,18.68.12.95,0,2.15.11,2-1.38-.14-1.14-1.12-.88-1.91-.8C446.89,433.05,441.57,431.38,436.39,432Z" transform="translate(-160.14 -349.78)"/><path class="c" d="M262.4,432c-1,.13-2.8-1.15-3.17,1.1,6.1.05,12.19.12,18.29.15.93,0,2.2.23,2.25-1.19,0-1.08-.9-1.15-1.77-1C272.89,433.08,267.57,431.38,262.4,432Z" transform="translate(-160.14 -349.78)"/><path class="l" d="M321.11,358.55h0c-4.17.32-4.17.32-3.25,2.51,3.67-1.72,6.84-1.91,9.15,2.3a4.79,4.79,0,0,0,4.91,2.66l-1.86-2c-2.25-.91-3.19-2.89-4.07-4.92Z" transform="translate(-160.14 -349.78)"/><path class="c" d="M433,444h21.74l-.06-.91H433Z" transform="translate(-160.14 -349.78)"/><path class="c" d="M360.87,444.06a62.79,62.79,0,0,0,23.35.05h0Z" transform="translate(-160.14 -349.78)"/><path class="c" d="M351,443.87a86.06,86.06,0,0,0,0-22.73Z" transform="translate(-160.14 -349.78)"/><path class="c" d="M213,436.89c0,.38,0,.76,0,1.13h0v0l-2,0h0l-20-.05,0,.08c.06.47.12.93.17,1.4l20.46-.28c.89,1.55,1.76,3.11,2.7,4.64a2.29,2.29,0,0,0,3,1.12c1.69-.95.28-1.83-.41-2.69C215.55,440.49,215.05,438.14,213,436.89Z" transform="translate(-160.14 -349.78)"/><path class="c" d="M163.13,443.15h0c6.52,1.81,13.17.32,19.74.85.07-.11.21-.23.2-.33a3.11,3.11,0,0,0-.22-.65Z" transform="translate(-160.14 -349.78)"/><path class="c" d="M290.5,429.83c-1-1.87-.62-3.82-.35-5.76L288,423c-1.86,2.74-2.23,5.51-.12,8.31C287.85,429.22,289.25,429.65,290.5,429.83Z" transform="translate(-160.14 -349.78)"/><path class="m" d="M243.14,375.07h4.73l1.59-.92h0c-.1-1.78-1.71-.76-2.46-1.32-2-.34-4-.78-6,.35Z" transform="translate(-160.14 -349.78)"/><path class="m" d="M248.32,375.22l-.45-.14A1.53,1.53,0,0,0,248.32,375.22Z" transform="translate(-160.14 -349.78)"/><path class="c" d="M311.22,431.91c-6-1.64-12.15-.43-18.21-.85C299,433.07,305.15,431.62,311.22,431.91Z" transform="translate(-160.14 -349.78)"/><path class="c" d="M291.49,444.16a46.84,46.84,0,0,0,19.05,0H291.49Z" transform="translate(-160.14 -349.78)"/><path class="c" d="M312.12,437l-.52,3.86h0a2.86,2.86,0,0,1,2.51,1.39,6.71,6.71,0,0,0,.25-7.38Z" transform="translate(-160.14 -349.78)"/><path class="c" d="M309,442.12a116.22,116.22,0,0,1-17-.09A30.61,30.61,0,0,0,309,442.12Z" transform="translate(-160.14 -349.78)"/><path class="c" d="M292.46,433.11c5.79,1.38,11.7.5,17.54.88C304.24,431.92,298.31,433.32,292.46,433.11Z" transform="translate(-160.14 -349.78)"/><path class="c" d="M420.06,438h0a3.69,3.69,0,0,1,.07,5h0l.07,1c3.68-2,.9-5.53,1.91-8.16l-3-2c0,.78-.09,1.56-.13,2.34C419.33,436.74,419.69,437.37,420.06,438Z" transform="translate(-160.14 -349.78)"/><path class="c" d="M292.42,420.91h17.19A40.5,40.5,0,0,0,292.42,420.91Z" transform="translate(-160.14 -349.78)"/><path class="c" d="M388.09,440.22a28.57,28.57,0,0,0,0-15.43Z" transform="translate(-160.14 -349.78)"/><path class="n" d="M274.94,359.16a13.45,13.45,0,0,0-8.88,0A10.38,10.38,0,0,0,274.94,359.16Z" transform="translate(-160.14 -349.78)"/><path class="o" d="M247,379.87a1.22,1.22,0,0,1-.14-.56h0l-6.13-.42h0L239,379l-.07,2.19h0C241.63,380.74,244.45,381.07,247,379.87Z" transform="translate(-160.14 -349.78)"/><path class="p" d="M364,385.84l3,.78,1.92-1.47c-2.08-.91-3-3.83-5.93-3.3A3.49,3.49,0,0,1,364,385.84Z" transform="translate(-160.14 -349.78)"/><path class="c" d="M295,422.87h13A20.21,20.21,0,0,0,295,422.87Z" transform="translate(-160.14 -349.78)"/><path class="q" d="M243.14,375.07h0l-2.1-1.88c-1.31,1-4.63,1-2,4h0Z" transform="translate(-160.14 -349.78)"/><path class="c" d="M420.2,444c1.38,1.84,2.68,1.53,2.72-.6,0-2.5,1-5.22-.81-7.56C421.1,438.43,423.88,442,420.2,444Z" transform="translate(-160.14 -349.78)"/><path class="c" d="M349,432.94l-1.3.26c1.77,3.41-.56,7.32,1.32,10.71,0-3.66,0-7.31,0-11Z" transform="translate(-160.14 -349.78)"/><path class="c" d="M396,435h0c-1.05,3.11-2.41,6.24.8,9l.12-1C395.09,440.51,396.44,437.66,396,435Z" transform="translate(-160.14 -349.78)"/><path class="c" d="M356.93,438.56h0c0-3.72,0-7.43,0-11.15A19.71,19.71,0,0,0,356.93,438.56Z" transform="translate(-160.14 -349.78)"/><path class="c" d="M349,421.11c-1.85,3.12.27,6.69-1.12,9.86C350.2,427.9,348.48,424.38,349,421.11Z" transform="translate(-160.14 -349.78)"/><path class="c" d="M185.16,444.87c1.62,0,3.32.45,3.78-1.89l-1.82-2C186.19,442.06,185,443,185.16,444.87Z" transform="translate(-160.14 -349.78)"/><path class="r" d="M360.9,369h0c-.81.07-1.85-.3-2,1.05,2.77-.46,2.51,1.18,2.06,3l2-.81,1.1-2.1Z" transform="translate(-160.14 -349.78)"/><path class="d" d="M360.9,369h0l3.23,1.1.92-.95-.1-2.22h0l-3.64,1.24h0A3.77,3.77,0,0,1,360.9,369Z" transform="translate(-160.14 -349.78)"/><path class="s" d="M365.05,369.1l4.59-3.94c-2.6-.14-3.74.59-4.69,1.72h0Z" transform="translate(-160.14 -349.78)"/><path class="t" d="M348.84,364h0L342,364c-1.2,1.67,1,.52,1,1.25C345,365.11,347.28,366.28,348.84,364Z" transform="translate(-160.14 -349.78)"/><path class="c" d="M191,438l-2,0c-.38.65-.77,1.3-1.16,1.95L190,441l1.17-1.59C191.13,439,191.07,438.49,191,438Z" transform="translate(-160.14 -349.78)"/><path class="u" d="M371,387.12c.64-1.14-.87-1.79-2.05-2L367,386.62C368.5,386.09,369.66,389.57,371,387.12Z" transform="translate(-160.14 -349.78)"/><path class="v" d="M312.33,384c-.76-.89-1.6-1.07-2.37.06a3.09,3.09,0,0,0,2,2h0A1.23,1.23,0,0,0,312.33,384Z" transform="translate(-160.14 -349.78)"/><path class="c" d="M249.93,443.22c-1.14,1.22-2.67.53-4,.81a4.07,4.07,0,0,0,4.58.79C252.37,444.13,250.53,443.66,249.93,443.22Z" transform="translate(-160.14 -349.78)"/><path class="w" d="M314.57,388.73l-1.4,2.25c-.09.66-.19,1.33-.28,2h0C314.79,392.17,315.34,390.85,314.57,388.73Z" transform="translate(-160.14 -349.78)"/><path class="c" d="M161.81,420.4c-1.08,0-1.89.22-1.62,1.58h2.74C163.12,421.07,162.84,420.45,161.81,420.4Z" transform="translate(-160.14 -349.78)"/><path class="c" d="M287,438a3.22,3.22,0,0,0,.15,3C288.61,439.9,290,438.84,287,438Z" transform="translate(-160.14 -349.78)"/><path class="c" d="M420.06,438h0c0,1.67.05,3.34.07,5h0A3.69,3.69,0,0,0,420.06,438Z" transform="translate(-160.14 -349.78)"/><path class="c" d="M187.12,441l1.82,2c.36-.65.72-1.31,1.07-2L187.85,440Z" transform="translate(-160.14 -349.78)"/><path class="x" d="M331.25,400.16c1.72.23,1.79-1,1.85-2.14a13,13,0,0,1-1.76.77C329.87,399.19,328.92,399.54,331.25,400.16Z" transform="translate(-160.14 -349.78)"/><path class="c" d="M249,421.81c1.08-.43,1.71-1.19.17-1.55a3.87,3.87,0,0,0-3.55.56h0C246.68,421.21,248,420.79,249,421.81Z" transform="translate(-160.14 -349.78)"/><path class="y" d="M282.07,369.24a.63.63,0,0,0-.1.69c-1,1.43-3.18,1.93-3,4.16,2.38.25,5-1.11,7.11,1.09h0l6.74-1.21h0c3.72-1.74,8-2.28,11.22-5.1h0a5.69,5.69,0,0,1,2-3.88l-1.13-1.05h0c-5,1.82-9.9,4.09-15.39,4.15h0C287.12,369.33,284.58,369.17,282.07,369.24Z" transform="translate(-160.14 -349.78)"/><path class="z" d="M306,365l1.5.18h0c.63-.16,1.49-.12,1.84-.53,1-1.13,3.44-2.11,2.37-3.68-1.38-2-2.69.58-4,1.1a14.36,14.36,0,0,0-2.81,1.88h0Z" transform="translate(-160.14 -349.78)"/><path class="aa" d="M317,399.12c.72-.19,1.66.23,2.11-.75,0-3.24,0-6.48,0-9.73h0l-.27-1.58h0C316.68,390.84,319.28,395.35,317,399.12Z" transform="translate(-160.14 -349.78)"/><path class="ab" d="M356,380.92l0-.65-6.26-.41c-1.12.07-2.36-.22-3.06,1.06H356Z" transform="translate(-160.14 -349.78)"/><path class="ac" d="M344,375.91a23.72,23.72,0,0,0,10,0h0A11.91,11.91,0,0,0,344,375.91Z" transform="translate(-160.14 -349.78)"/><path class="e" d="M319.15,398.37c1.41-3.24,1-6.48,0-9.73h0C319.14,391.89,319.15,395.13,319.15,398.37Z" transform="translate(-160.14 -349.78)"/><path class="ad" d="M306,365a5.69,5.69,0,0,0-2,3.88h0c1.65-.77,3.42-1.42,3.47-3.7h0Z" transform="translate(-160.14 -349.78)"/><path class="ae" d="M254.84,383.09h0c3.7,2.29,7.33,2.71,12.22-.63L257,382h0C256.56,383,255.61,382.85,254.84,383.09Z" transform="translate(-160.14 -349.78)"/><path class="af" d="M256.27,377.14l0,.07-.05.1-.17.38h0c3.6,2.88,6.9,1.3,10.2-.49-3.33.33-6.64-.29-10-.06Z" transform="translate(-160.14 -349.78)"/><path class="ag" d="M262.08,396.27h0c.88-2.38,3.62-.3,4.93-2l-8.41-.42C258.31,396.34,259.14,396.93,262.08,396.27Z" transform="translate(-160.14 -349.78)"/><path class="ah" d="M247.54,378.68c.17.1.35.18.52.3A1.14,1.14,0,0,0,247.54,378.68Z" transform="translate(-160.14 -349.78)"/><path class="ah" d="M246.87,379.31h0a1.22,1.22,0,0,0,.14.56c1.7,1.38,3.85,1.56,5.83,2.21l1.19-1h0c-1.84-1.13-3.65-2.32-6-2.08Z" transform="translate(-160.14 -349.78)"/><path class="ai" d="M257.74,389.14c2.65,1.68,5.23,1.55,8.16,0-2.48-1.46-4.81-.28-6.93-1l-1.23.95Z" transform="translate(-160.14 -349.78)"/><path class="aj" d="M278.93,374.09s0,0,0,0v0h0c1.87,2.59,4.64,1.43,7.06,1.68h0a1.43,1.43,0,0,0,.11-.58h0C284,373,281.31,374.34,278.93,374.09Z" transform="translate(-160.14 -349.78)"/><path class="ak" d="M247.87,375.08l.45.14,4.84,1.55a1,1,0,0,1,.54-.22l1.39-.57h0c-1.67-1.25-3.42-2.24-5.63-1.82h0Z" transform="translate(-160.14 -349.78)"/><path class="al" d="M279.82,389.7h0c3.42.22,4.4-2.17,5.15-4.81C282.7,385.91,281.52,388.08,279.82,389.7Z" transform="translate(-160.14 -349.78)"/><path class="am" d="M257.74,389.14l1.23-.95c-2-.22-3.53-2.32-6.59-1.29,2.07,1.25,3.54,2.1,5.36,2.24Z" transform="translate(-160.14 -349.78)"/><path class="an" d="M246.87,379.31h0l1.19-.33c-.17-.12-.35-.2-.52-.3a6.55,6.55,0,0,0-6.8.21h0Z" transform="translate(-160.14 -349.78)"/><path class="ao" d="M286.88,378.19h0l-.66,4.74C288.49,380.4,288.59,379.64,286.88,378.19Z" transform="translate(-160.14 -349.78)"/><path class="ap" d="M278.92,374.12s0,0,0,0c-.14-2.23,2.08-2.73,3-4.16-4.11.28-4.43.7-3.06,4.15Z" transform="translate(-160.14 -349.78)"/><path class="aq" d="M252.84,382.08l2,1h0c.77-.24,1.72-.13,2.12-1.09h0l-2.93-.94h0Z" transform="translate(-160.14 -349.78)"/><path class="ar" d="M273,397.87a4.8,4.8,0,0,0-5.9,0A12.78,12.78,0,0,0,273,397.87Z" transform="translate(-160.14 -349.78)"/><path class="as" d="M253.7,376.55l-.54.22c1,.27,1.65,1.38,2.86.92h0a.37.37,0,0,1,.06-.45l.11-.06.08,0h0c.45-1.24-.62-.94-1.18-1.16h0Z" transform="translate(-160.14 -349.78)"/><path class="at" d="M257,369.15a5.29,5.29,0,0,0,4-2.13C259.35,367,257.69,367.11,257,369.15Z" transform="translate(-160.14 -349.78)"/><path class="au" d="M351.13,372.42a6.76,6.76,0,0,0-5,.18C347.69,372.7,349.33,373.55,351.13,372.42Z" transform="translate(-160.14 -349.78)"/><path class="c" d="M259.21,443.73H279v-.38H259.27Z" transform="translate(-160.14 -349.78)"/><path class="av" d="M273.64,363.21h-6.36C269,363.66,271,364.47,273.64,363.21Z" transform="translate(-160.14 -349.78)"/><path class="c" d="M359.87,440q0-7-.05-14A23.66,23.66,0,0,0,359.87,440Z" transform="translate(-160.14 -349.78)"/><path class="c" d="M396,432q0-4.5,0-9h0A9.2,9.2,0,0,0,396,432Z" transform="translate(-160.14 -349.78)"/><path class="c" d="M383,442.09h0l-20,.14A41.06,41.06,0,0,0,383,442.09Z" transform="translate(-160.14 -349.78)"/><path class="c" d="M210.15,436c-5.55,2-11.32.35-17,.93a2.31,2.31,0,0,0-2.16,1h0l20,.05h0A1.94,1.94,0,0,0,210.15,436Z" transform="translate(-160.14 -349.78)"/></svg>