<svg xmlns="http://www.w3.org/2000/svg" viewBox="0 0 361.81 275.13"><defs><style>.a{fill:#231f20;}.b{fill:#242021;}.c{fill:#252122;}.d{fill:#252022;}.e{fill:#262223;}.f{fill:#262324;}.g{fill:#1a1617;}.h{fill:#191516;}.i{fill:#191718;}.j{fill:#161213;}.k{fill:#191517;}.l{fill:#191617;}.m{fill:#1a1718;}.n{fill:#151112;}.o{fill:#141012;}.p{fill:#1d1a1b;}.q{fill:#161314;}.r{fill:#1c1718;}.s{fill:#1d191a;}.t{fill:#2e2a2b;}.u{fill:#141112;}.v{fill:#1b1819;}.w{fill:#120f10;}.x{fill:#141011;}.y{fill:#151213;}.z{fill:#161113;}.aa{fill:#171314;}.ab{fill:#302d2e;}.ac{fill:#131011;}.ad{fill:#151113;}.ae{fill:#322f30;}.af{fill:#120d0f;}.ag{fill:#181515;}.ah{fill:#161214;}.ai{fill:#171415;}.aj{fill:#1f1c1d;}.ak{fill:#989898;}.al{fill:#181415;}.am{fill:#171414;}.an{fill:#130f10;}.ao{fill:#ed3b34;}.ap{fill:#fdf100;}.aq{fill:#8ebd5f;}.ar{fill:#692927;}.as{fill:#151d1f;}.at{fill:#1e1e1f;}.au{fill:#5e2625;}.av{fill:#1d1d20;}.aw{fill:#382221;}.ax{fill:#762a27;}.ay{fill:#141122;}.az{fill:#161221;}.ba{fill:#898012;}.bb{fill:#121c1e;}.bc{fill:#161d1d;}.bd{fill:#161d1f;}.be{fill:#716a15;}.bf{fill:#1c151c;}.bg{fill:#151d1e;}.bh{fill:#f93c34;}.bi{fill:#141d1f;}.bj{fill:#f73c34;}.bk{fill:#f73b35;}.bl{fill:#161d1e;}.bm{fill:#171d20;}.bn{fill:#1b131c;}.bo{fill:#171d1f;}.bp{fill:#221e20;}.bq{fill:#f83c34;}.br{fill:#171e1e;}.bs{fill:#f93c35;}.bt{fill:#141c1c;}.bu{fill:#181314;}.bv{fill:#191c1f;}.bw{fill:#1f1b1c;}.bx{fill:#fa3c34;}.by{fill:#2a1f20;}.bz{fill:#f53c33;}.ca{fill:#f83c35;}.cb{fill:#fa3c33;}.cc{fill:#fefd00;}.cd{fill:#fefc01;}.ce{fill:#9c6;}</style></defs><title>moes</title><path class="a" d="M401.41,330.85l.12-.29h-.32a3.37,3.37,0,0,1,.19.32Z" transform="translate(-115.92 -259.82)"/><path class="a" d="M476.93,423q-1.29-15.4-2.54-30.8a4,4,0,0,0-1.48-3c-5-4.07-10.25-7.89-14.92-12.32-4.17-4-9.58-6.61-13.07-12,4-1.38,7.77-2.61,11.48-4,8.53-3.13,13.58-11,11.34-18-3-9.49-6.36-18.89-9.5-28.35-.51-1.53-.88-2.84-3-2.35-3.87.89-7.75,1.87-11.69,2.38-5.14.67-9.93,3.78-15.38,2.17-2.06-4.19-1.56-8.43-.27-12.7-.61-7.29-3-13.85-8.39-19-1.88-1.79-2.28-3.64-1.39-5.75,1.62-3.89,1.12-6.11-3.68-5.3,1.84-4.28,5.6-6.88,8.21-10.75-4.71-1-9.08-1.78-13.4-2.82-9.31-2.24-15.39,1.8-17.21,11.59,1.27,1.19,1.2,2.54.31,4.6-.19-1.67-.32-2.73-.44-3.8h0c-1.36,2.65-.84,5.52-.92,8.3a6.4,6.4,0,0,1-3.43,5.91c-1.57.89-3.54.7-3.38,4.3.13,2.89-1.95,7-4.76,9.81-1.49,1.5-3.5,4.45,1.55,3.77,1.6-.22,2,.51,2.17,1.86.24,2.41,1.93,4.51,1.66,7.29l-36.81-2c-2.52,1.5-5.12.92-7.73.46-.51,0-1,0-1.56.11a6.78,6.78,0,0,1,1.33-.15,20.35,20.35,0,0,0-2-.27l7.31-.38h0c-6.1-.5-12.21-.95-18.3-1.54-2.52-.25-2.56,1.49-2.89,3.1q-1.62,8-3.21,16.08c-.35,1.72-.19,3.85-2.94,3.62-1.12,1.22-2.47,1-4.68.44l3-.67A134.33,134.33,0,0,0,296,329.11a3.62,3.62,0,0,1-5,0l-14.35,4.75c.74-12.36,1.48-24.63,2.21-36.9-1.79-2.51-.49-5.37-.89-8a40.78,40.78,0,0,0-11.23,1.95l3,.52c-2.14.75-3.49,1-4.72-.3a6.29,6.29,0,0,0-4.29.76l3,.53c-2.14.76-3.48,1-4.72-.3a36.79,36.79,0,0,0-9.28,1.77l3,.54c-2.14.75-3.49,1-4.72-.31-3.85-.57-5.88,2.27-8.15,4.5-10.33,10.14-20.65,20.29-30.85,30.56-2.48,2.5-3.42,2.3-5.73-.63C197.06,320.61,192,311.61,183,306c-4.54-2.82-8.64-6.34-13-9.46-3.75-2.68-7.1-5.46-12.63-4.67-11.34,1.63-22.88,1.91-34.25,3.39-9,1.16-7.3-1.08-6.76,8.41.14,2.49.36,5,.66,7.46,1.78,14.36,1.63,29,4.62,43.14,5.35,25.36,11.19,50.62,16.82,75.92.24,1.09,1.12,2.62-.15,3.19-5.07,2.3-1.85,5.76-1.47,8.83.14-.75.27-1.5.53-3,.75,2.14,1,3.49-.32,4.72,1.43,9.12,2.43,18.31,4.79,27.27.13-.75.27-1.5.53-3,.75,2.14,1,3.49-.32,4.72a6.57,6.57,0,0,0,.74,4.36c.14-.77.27-1.54.56-3.13.69,2.22,1.07,3.56-.34,4.78.39,7.64.63,7.85,7.93,6.75a5.58,5.58,0,0,0,1.33-.59l-3.08-.54c2.18-.71,3.51-1,4.75.29a12.79,12.79,0,0,0,6.27-.78l-4.08-.53c2.55-.71,4.27-1.1,5.82.36,2.16.1,4.33.22,6.37-.76l-3.39-.48c2.06-.68,4.11-1.38,6,.22,2.16.1,4.32.21,6.34-.77l-3.08-.56c2.18-.69,3.52-1,4.74.32,1.82,0,3.65.17,5.34-.76l-3.37-.45c2.07-.67,4.12-1.38,6,.2,1.32,0,2.66,0,4-.12,6.88-.73,6.9-.75,5.45-7.41q-9.42-43.12-18.86-86.26c-1.9-8.68-3.78-17.37-5.82-26.74,3.13,1.56,5.38,2.44,6.28,5.53,2.89,9.89,6.06,19.69,9.17,29.52,2.95,9.31,6,18.6,9.3,29,1.42-4.58,2.72-7.85,3.45-11.25,2.83-13.07,8.47-24.48,18.88-33.23.83-.7,1.31-2.46,2.61-1.76,1.59.86.4,2.34,0,3.49-2.42,6.72-5,13.39-7.3,20.15-1.49,4.39-4,8.54-4.24,13.24-1,18.13-1.74,36.27-2.76,54.4-.19,3.32.91,4.21,3.9,3.46a3.22,3.22,0,0,1,2.73-.92c11.4,0,22.8,0,34.21,1.18h-22.3c7.61,1,15.27.6,22.91.77,12.6.27,12.61.21,12.42-12.33-.13-8-.34-16-.4-24,0-1.15-1-2.74.75-3.49s1.74,1.13,2.59,1.73c2.94,2.08,5.88,4.16,8.72,6.36a4.25,4.25,0,0,0,3.74.76l23.86-4.9-3-.52c2.13-.77,3.47-1,4.71.27a12.89,12.89,0,0,0,2-.06c7.68-1.5,7.68-1.51,8.14,6.2a32.63,32.63,0,0,1,0,17c.2,1.38,1.47,1.15,2.3,1.43q29.63,10.25,59.26,20.42c9.17,3.16,9.16,3.19,10.25-6.84-1.24-1.11-1-2.47-.68-3.92,1.23.4.49,1.5.87,2.15a8.89,8.89,0,0,0,.8-5.23c-1.22-1.12-1-2.47-.67-3.92,1.21.4.48,1.5.87,2.15a8.89,8.89,0,0,0,.8-5.23c-1.22-1.11-1-2.47-.66-3.92,1.21.41.47,1.51.86,2.16,1.28-3.6,1.61-7.37,2-11.12-.13-.85-.7-2.11.59-2.21,1-.08,1.32,1.13,1.19,2.16,2,6.4,5.07,12.37,6.34,19.08.92,4.86,4.51,8.06,9.75,8.77a8,8,0,0,1,8,0c14.95-3.45,28.9-9.79,43.14-15.25,1.23-.48,2.25-1.94,3-3.17,5.35-8.79,10.6-17.64,15.88-26.47C476.44,429,475,425.84,476.93,423ZM165.52,483v0C165.59,483.41,165.36,483.23,165.52,483Zm15.94-1.92c0,.32-.12.21,0,0ZM398.2,275.63c.34-1.48.59.33.92.6,1.81-2.63.61-7.91,6.51-7.23l-2.5,4.05h0c1.19,1.14,1,2.48.58,4-1.15-.51-.5-1.59-.85-2.28-.4,3.54-3.08,7.39,1.44,10.24-1,1.35-.71,3.09-1.29,4.48a4.43,4.43,0,0,1-4,2.52c-1.65,0-1.23-1.76-1-2.73a18.06,18.06,0,0,0,.82-7.29h0C397.23,280,397.75,277.59,398.2,275.63ZM390.14,299c.1-1.5.3-3.39,2.3-4,1.73-.55,2.4.67,3,1.85.91,1.69,2.1,1.42,3.19.37A50.44,50.44,0,0,1,411,289c3.14-1.6,3.29-.27,4.23,1.33A47.92,47.92,0,0,1,421.14,305a4,4,0,0,0,.69.05c2.35,3.1.83,6.57.93,9.88,0,.05-.26.17-.39.16a1.3,1.3,0,0,1-.44-.22h0a3.68,3.68,0,0,1-.75.13c-2.79,7.08-3,15-7,21.67-2.87,4.81-6.07,9.09-13.38,9.42,2.76-2.82.68-4.86.13-7.1a6.12,6.12,0,0,0-.74,0c-1.82-3.05-1.57-6.16-.49-9.29a1,1,0,0,1,.22-.63c-4.49-6.22-5.12-13.92-7.93-20.78A20.87,20.87,0,0,1,390.14,299Zm-4.63,16.33a3.41,3.41,0,0,1-3.61.22C382.84,314.64,383.85,315,385.51,315.37ZM240.59,472.53c2.21,0,4.42,0,6.63-.08C245,472.59,242.8,472.58,240.59,472.53ZM380,437.41c-.08,1.32-1,.88-1.77.61l-1.44,9.92h0c.24,1.13.65,2.29-.6,3.14-.11.93-.23,1.87-.34,2.8h0c1.53,1.16,1.44,2.63.82,4.2L375.21,457l-.33,1h0c-.23,12.5-.53,12.79-11.92,9-12.93-4.3-25.8-8.76-38.7-13.16h0L323,453h0a3,3,0,0,1-1-2.68q0-16.85,0-33.69a2.8,2.8,0,0,1,1.06-2.61h.79c-.16-1.32,1.9-2.43.78-3.57s-2.39.39-3.52.87c-3.53,1.48-7,3.14-10.5,4.62-6.87,2.9-6.88,2.87-4.17,9.63-9.06,2.66-18.47,3.32-27.61,5.36a2.52,2.52,0,0,1-1.91-.19c-5.8-4.68-13.56-7.11-16-15.54-2-6.79-4.91-13.29-7.49-20.11a7.32,7.32,0,0,0-3.22,4.63c-1.94,7.73-3.85,15.48-5.82,23.21-.5,1.93-.91,3.68,1.91,4,1.88.22,1.7,1.71,1.74,3,.24,9.48.38,19,.76,28.46.12,3-1.05,3.67-3.78,3.53-7.15-.38-14.31-.66-21.46-.73-2.82,0-3.69-.9-3.62-3.75.58-25,1.84-49.85,9.93-73.85,1.86-5.5,3-11.24,4.44-16.87,1.2-4.7,5.82-8,5.41-13.38a20.41,20.41,0,0,1,.1-2.47h0c-1.11-1.6-1.35-3.15,0-4.59a1.09,1.09,0,0,1,.28-.29c1-.33.87-1.24,1.08-2h0L241,342c-2.52.27-4,2.15-5.73,3.67a195,195,0,0,0-35.7,42.05c-1.58,2.51-3.73,4.7-4.86,8-1.48-4.57-3-9.14-4.45-13.73-2.15-6.82-4.23-13.65-6.34-20.48-.25-.79-.88-1.7-.69-2.37,2-7.16-3.74-8.61-8-11.14L158,338h0a2.16,2.16,0,0,1-1,2c-.08,6.11,1.54,11.95,2.61,17.89.47,2.64,3,2.94,3.73,4.78.63,1.62.43,3.56.59,5.36h0l.18,1.72c1,1.66.9,3.48.77,5.3h0c.1.32.21.65.32,1l1.41-1.09c.62,1.57.71,3-.81,4.19a681.67,681.67,0,0,0,16.63,86.51c.69,2.7-.06,3.52-2.48,3.88-5.07.75-10.13,1.59-15.19,2.39h0l4.33.47c-2.82.75-4.54,1.16-6.09-.3-2.93-1.06-6.53,2.64-8.52,0-1.7-2.27-1.49-6-2.05-9.06-.3-1.63-.45-3.28-.66-4.92l-1.5,1c-.47-1.45-.62-2.85.61-4,.14-3.24-.81-6.28-1.76-9.31h0c-.11.75-.22,1.51-.48,3.36-.74-2.49-1.11-3.85.27-5.06,5.95-4.24,3-9.76,1.88-14.79-5.77-26-12.34-51.77-17.35-77.88-2.66-13.83-2.68-28.15-4-42.24-.18-2,.83-2.18,2.31-2.32q13.42-1.23,26.84-2.54c1.73-.17,2.68,1,4,1.75,16.91,9.78,28.26,25,39.37,40.4,2.44,3.37,3.61,2.88,6.19.3,11.67-11.65,23.74-22.9,35.25-34.7,4.19-4.29,8.65-6.9,14.53-7.58,2.09-.24,4.37-.06,6.29-1.32h0l-3.43-.41c2.61-.84,4-1.09,5.18.25,1.07,5-.07,10.05-.38,15.05-.64,10-1.63,20-2.47,30h0l1.85,1.88c6.26-2.11,12.6-4,18.78-6.37,13.72-5.19,26.32-2.67,38.25,5.1,2.06,1.35,4,2.91,6,4.37,2.53-3-.43-7,1.88-10,1.19-5.86,2.42-11.71,3.53-17.59.44-2.32,1.26-3.18,4-3,16.41,1.32,32.85,2.42,49.28,3.43,2.8.17,4.17.9,3.16,3.79-1.19,3.39-.27,7.34-2.77,10.38.93,1.34,1.28,2.65-.15,3.89l-.75,6.09h0c1.33,1.24.78,2.66.1,4.11-.1-.78-.21-1.55-.31-2.32-.57,4.73-2.55,7.66-7.95,6.21h0c-1.54,1.48-3.27,1-6.19.32l4.4-.46c-2-1.05-4.11-.86-6.23-.8h0c-1.52.57-3.41,2.85-4-.87-2-.48-4.16.12-5.91-1.34h0c-2.32-.57-4.63-1.25-7.07-.9l-.82,2.06h0c-.27,7.32-1.52,14.59-1.11,21.94,4.78,0,9.57,0,14.35,0,1.57,0,3.35-.57,4.58,1.05,0,1.38.38,2.85-.89,3.94h0c-1.27,5.15-2.64,10.28-3.76,15.47-.59,2.73-1.39,4-4.65,3.18-4.06-1-9.34-3.94-12.08-1.42-2.27,2.09-1.26,7.8-1.61,11.92-.4,4.63-.6,9.28-1.07,13.9-.26,2.59,1.16,3.42,3.26,4a53.89,53.89,0,0,0,25.83.79h0c.24-2.06,1.8-1.82,3.19-1.78,1.68.05,1,1.12.79,2l-.83,3h0C380.38,434.29,380,436,380,437.41Zm-19-15.77c1-1.14,2-.21,2.93-.25A2.58,2.58,0,0,1,361,421.64Zm31.47-2.35c.59-1.86-.35-2.37-2-2.11l-10.65,1.7,3.32.46c-2.08.58-4.15,1.33-6.05-.24a16.44,16.44,0,0,0-7.23.8l4.21.37c-2.06.63-4.12,1.44-6-.22-1.95.08-3.9.22-5.85.22-1.78,0-3.72.16-4.2-2.28-1.11-.77-1-1.93-.93-3,0-.36-.11-1.06.55-.83.3.1.41.79.6,1.21.58-1.08.68-2.6,2.72-1.82a46.44,46.44,0,0,0,5.78,1.42c6.63,1.59,6.66,1.6,8.06-4.85,2.21-10.22,4.17-20.49,6.64-30.64.81-3.3-.26-4-3.07-4.38-4.76-.67-9.5-1.59-14.23-2.46-1.82-.33-3.83-.63-2.53-3.38.82-1.75-.65-5.2,3.5-4.45a31.48,31.48,0,0,0,5,.17c2.24-1.66,4.63-.79,7-.22l-4.33.43c2.36,1,4.84.85,7.31.77,1.58-1.42,3.28-1,6.3-.35l-4.63.59c2.91,1.2,6,.88,9,.94,4.22.77,1.54,3.81,2.81,7-2-2.42-1.12-4-1.59-5.31-1.34,5.14-2,9.21,3.93,13.1a232.32,232.32,0,0,1,19.32,14c2,1.62,5.23.53,7.36,3.29a78.81,78.81,0,0,1,5.22,7.61c2.74,4.54,1.24,7-3.22,8.19-6.91,1.86-12.08,8.09-19.81,7.83l4.31.44c-2.7.48-5.41,1.54-8-.18a23,23,0,0,0-4.4.12C393.16,424,391.08,423.56,392.43,419.29Zm71.75,10.6c-3.85,6-7.63,12.07-11.16,18.27a11,11,0,0,1-6.18,5.34c-11.09,4-22,8.43-33.29,11.82-3.8,1.14-5.77,1.42-7-3.88-1.75-7.68-5.45-14.93-8.47-22.29-1.18-2.88-1.28-4.43,2.58-4.6,6.13-.28,12.17-1.66,18.35-1.48h0l2.75-.18c.44-.24,1.27-.62,1.24-.71-1.88-5.63,3.23-5,5.85-6.5a100.08,100.08,0,0,1,10.19-5.25c4.5-1.87,4.58-5.12,3.47-9-3.34-11.47-10.26-21-20-27-5.09-3.08-10.64-5.93-15.89-9.09-2.86-1.72-4-3.62-3-6.92a23.68,23.68,0,0,0,.49-4.95c.42-5.51.59-10.41,7.41-13.15,5.91-2.37,9.36-8.66,11.22-14.7,1.41-4.58,4.43-5.69,8.08-6.54,5-1.17,10.11-2,15.16-3.06,2.4-.51,4.07-.24,4.92,2.54,1.55,5.08,3.25,10.12,5.16,15.08,1.19,3.08,0,4.75-2.62,5.93-6.71,3.06-14,4.06-21,6.12-2.13.62-3.21-3.88-6-.66a9,9,0,0,0,2,13.22,255.27,255.27,0,0,1,29.46,22.18c3,2.69,5.76,5.45,6,9.8h0c.14-1.12.29-2.24.44-3.36.66,2.08,1.4,4.14-.2,6,.49,6.79.88,13.58,1.54,20.35A9.58,9.58,0,0,1,464.18,429.89Z" transform="translate(-115.92 -259.82)"/><path class="b" d="M292.6,501.2c-2.48-1-3.17.32-3.71,2.43-.86,3.35-2,6.63-3.28,10.8-1.48-3.74-2.63-6.66-3.79-9.57-.7-1.79-1.54-3-3.95-2.84s-2.93,1.7-3.34,3.53l-2.26,10.13c-2-4.33-3.71-7.66-5.17-11.07-1-2.29-2.29-1.79-4-.93s-2.92,1.54-1.73,3.72C264,512.21,266.59,517,269,522c1,2,2.31,2.36,4.38,2.17,2.26-.22,2.42-1.65,2.92-3.31.75-2.52.72-5.33,2.51-8a75.76,75.76,0,0,1,3.28,7.16c1.36,4,3.73,3.8,6.7,2-.64-.23-1.73.42-1.84-.7,0-.41.7-1.14,1.23-1.33,1.06-.38.58.74.87,1.14,1.9-5.3,3.72-10.63,5.72-15.89C295.66,502.85,294.54,502,292.6,501.2Z" transform="translate(-115.92 -259.82)"/><path class="c" d="M255.8,509.89c-.35-2.84-1.76-5.1-4.8-5.9-1.33,1.42-2.66,1.42-4,0-5.49,1.7-5.49,1.7-6.06-4.62a6.69,6.69,0,0,1,0-1c.12-2.6-1.61-2.31-3.35-2.28-2,0-3.07.53-2.85,2.88.76,8.42,1.49,16.85,2,25.3.17,2.77,1.61,2.63,3.6,2.54,2.25-.11,2.78-1.11,2.53-3.18-.39-3.13-.61-6.28-.8-9.43-.15-2.39.49-4.13,3.41-4.32s4.38.88,4.55,3.83c.18,3.15.61,6.28.71,9.43.06,2.13.76,3,3,2.67,1.92-.27,3.6-.26,3.26-3.05C256.44,518.5,256.33,514.16,255.8,509.89Z" transform="translate(-115.92 -259.82)"/><path class="c" d="M399.39,492.39c-2.25,1.25-4.08.24-6.16-.19-5.39-1.13-9.67,1.95-11.17,7.81a4.7,4.7,0,0,1,0,6c-.3,3.6,2.18,5.73,4.63,7.37,3.19,2.14,6.7,1.17,10.13-1.14-.94,4-.94,4-6,5.71,3.23.85-1,2.11.17,3.07,6.89,0,11.6-3.28,11.57-8.82,0-6-.8-11.92-1.28-17.87C401.2,493.17,401,491.49,399.39,492.39Zm-6.81,16.69c-4-.1-4.56-3.2-4.78-6.26s.83-5.68,4.5-5.75c4.93-.1,3.21,3.92,3.71,5.9C396.39,506.34,396.58,509.18,392.58,509.08Zm5.23-.85c-1-2.89-.89-4.49,0-6Z" transform="translate(-115.92 -259.82)"/><path class="c" d="M209.46,510.63c-.11-2.36-.92-3.12-3.33-2.85-2.24.25-3.33.85-3,3.34.42,3,.47,6,.82,9,.36,3.14-1.66,4.24-4.09,4.53-2.86.34-3.62-1.71-3.76-4.13-.19-3-.53-6-.61-9,0-2.27-1.08-2.58-3.13-2.55-4.85.05-3.18,2.9-2.56,5.39l.54-3.36c.47,2.39,1.41,4.79-.3,7l.05,2c1.59,1.87.71,4.08.82,6.16,2.29,4.65,6,4.91,10.21,3.13,1.64-.7,2.67-1.17,4.75-.24,2.34,1.05,5.62.79,4.75-4A111.86,111.86,0,0,1,209.46,510.63Z" transform="translate(-115.92 -259.82)"/><path class="d" d="M182,518c-.47-4.3-3.42-6.39-7-7.88a6.49,6.49,0,0,1-6.95,0,7.67,7.67,0,0,0-6.87,5.91,12.27,12.27,0,0,1-.06,10c.71,3.23,2.58,5.31,5.92,5.91a8,8,0,0,1,7.95,0c3.69-.91,6.2-3,7-6.89A5.87,5.87,0,0,1,182,518Zm-4.34,5.85c-.14.37-.55-.73-.84-1.16-.8,2.65-1.94,5.07-5.17,5.09a5,5,0,0,1-4.59-3.23c-1.36-2.88-1.7-6,.42-8.42s5.06-2.46,7.19.26c1.07,1.36,1.45,3.25,2.15,4.91l.63-1.23C178.54,521.26,178.1,522.68,177.67,523.85Z" transform="translate(-115.92 -259.82)"/><path class="c" d="M313.74,498.82c-6.53-.95-10.89,1.86-12.71,8.19a4.59,4.59,0,0,1,0,6c.37,4.37,2.73,7,7,8a7.73,7.73,0,0,1,8,0c1.62-.07,3.12-.43,4.07-1.93-1.75-1.27-.78-3.18-1.12-4.79l.12-.38c-5.53,3.48-8.64,3.26-12.26-.86.69-4.27,3.75-1.11,5.58-1.78h0l3.61-.36c1.8-1.52,3.94-.64,5.93-.86C321.92,503.59,319,499.59,313.74,498.82Zm.44,18.74a2.92,2.92,0,0,1-3.35-.1A3,3,0,0,1,314.18,517.56Zm-1.58-8.69a9.77,9.77,0,0,1-2-.09c-1.38-.33-3.69,1.47-4-1s1.61-3.75,4-4c2.12-.19,4.19-.17,5.21,2.24C317.17,509,317.06,509,312.6,508.87Z" transform="translate(-115.92 -259.82)"/><path class="c" d="M338,504.88c-1.5-.07-3.88.34-3.83-1.9s2.31-1.83,3.92-1.93l2-.13,2.9-1.9,0-1c-3.28-.39-6.71.93-9.85-.88a3.66,3.66,0,0,0-3.15,2.46v7.83h0a2,2,0,0,0,2.14,1.53c1.25-1.19,2.62-1.05,4-.56a10.64,10.64,0,0,0,1.37-.17,8.37,8.37,0,0,1-1.27.21c.28.1.56.2.84.32l-4.17.36c1.14.87,2.51.62,3.8.75s3.38-.21,3.46,1.84c.1,2.29-2,2.38-3.58,2.35-2.51,0-5-.38-7.6-.61,0,3.13-.39,6.19,4.13,5.5a4.79,4.79,0,0,1,6-.06c4.29-.84,7.08-3.33,6.93-7.79C345.74,506.22,342.14,505.07,338,504.88Zm-4.38,10.65c1.53-.62,2.54-.72,3.58,0C336.13,516.24,335.11,516.11,333.58,515.53Z" transform="translate(-115.92 -259.82)"/><path class="e" d="M227.9,522.37c-3.1-3.54-2.46-8-.17-12.71,1.63-3.41-4.89-5.26-3.46-9.58.29-.89-1-1.08-1.85-.92-2.49-.08-7.15,8-5.3,10.37,2.95,3.79,1.91,8,2.77,12a9,9,0,0,0,3.68,5.7c2.67,1.92,3.25-1.11,4.73-2C230.44,523.93,228.74,523.33,227.9,522.37Z" transform="translate(-115.92 -259.82)"/><path class="e" d="M361.53,498a2.6,2.6,0,0,0,.32-.86c-4.59-1.3-2.66-5.6-3.91-8.44-.41-.94-1.4-.56-2.2-.48-2.1.21-6.48,8.59-4.82,10.45,3.29,3.67,1.86,8,2.83,11.88.66,2.69,1.46,5.2,4.33,6.11s3.16-2.34,4.62-3C360,508.52,356.63,503.67,361.53,498Z" transform="translate(-115.92 -259.82)"/><path class="c" d="M149,521c-1.23-1.16-2.8-.64-4.23-.83-1.09-.15-2.59.16-2.72-1.43-.15-1.9,1.54-1.82,2.78-2a12.13,12.13,0,0,1,2.95,0c5.44.64,3.46-2.13,2.15-4.6a6.51,6.51,0,0,1-6.95-.08,6.14,6.14,0,0,0-5.9,3.94c1.71,2.06.54,4.49.87,6.72,1.22,1,1.93,2.86,4,2.13,1.63-1,3.24-1.7,4.65.32,3,2.25,1.12,3.46-1,4.63-1.34,2.7-3.65.59-5.45,1-.56.14-.77-.47-.15-.33.32.07.75-.41,1.13-.64-1.48-.73-3.2-1.82-4.41,0-.94,1.4-.13,2.9,1.23,3.92a16.16,16.16,0,0,1,10.91,0c3.52-1.3,5.31-3.85,5-7.58C153.69,523.33,152.16,521.33,149,521Zm-1.19-5.23h-4.57C145.33,514.73,146.6,515,147.85,515.74Zm-3.13,5.79h0q-.32-.12-.63-.27L149,521h0C147.74,522.37,146.25,522.14,144.72,521.53Z" transform="translate(-115.92 -259.82)"/><path class="f" d="M455.88,503c-3.22-1.91-2.12-4.43-1-7,.43-4.86-.84-9.6-.94-14.42-.05-2.42-1.25-2.57-3.2-2.45-2.24.13-3.22.72-2.95,3.29.67,6.45,1,12.94,1.51,19.41.16,2,.35,4.06,2.09,5.42,1.48,1.16,2.34,3.92,5.16,1.42S458.14,504.65,455.88,503Z" transform="translate(-115.92 -259.82)"/><path class="c" d="M471.16,498.71h0a3.6,3.6,0,0,1-.31.89.78.78,0,0,1-.5.37.74.74,0,0,1-.23.2,1.71,1.71,0,0,0,.13-.23c-.11,0-.19-.19-.19-.46,0-1.52-.59-3.21.87-4.46.4-5-.75-9.87-.94-14.8-.1-2.56-1.53-2.4-3.29-2.32s-3.16.09-2.87,2.68c.83,7.2,1.39,14.42,2.06,21.64l.38-5.17c.1.35.22.71.32,1.07a2.1,2.1,0,0,1,.06-.24c0,.08,0,.17-.06.25.5,1.67.85,3.34-.56,4.86-.25,1.73.88,2.8,2.05,3.64s2,3.14,3.95,1.2c1.44-1.45,3.38-2.81.94-5.21C472,501.68,471.74,500,471.16,498.71Z" transform="translate(-115.92 -259.82)"/><path class="e" d="M420.73,490.17c-2.39.73-4.35,2.25-7.27,1-1.93-.83-3.7.33-3.36,3.24.54,4.6.94,9.23,1,13.86s1.76,5.92,5.92,3.86c-1.16-2.68-1.86-5.36-.14-8.09.23-3.54-1.27-8.32,5-7.9,3.32.22,3.32-1.42,3.16-3.88C424.78,488.84,422.46,489.65,420.73,490.17Z" transform="translate(-115.92 -259.82)"/><path class="e" d="M439,492.45c-.09-3.49-1.44-4-4.23-2.55l1.91.31a2.89,2.89,0,0,0-1,.32c.13.11.06.07,0,0-1.3.71-1.7,2.28-2.55,3.42.27,4.77.59,9.54.78,14.31.08,1.91.32,3,2.78,2.79,2.28-.23,3.75-.48,3.46-3.32C439.59,502.67,439.14,497.56,439,492.45Z" transform="translate(-115.92 -259.82)"/><path class="g" d="M248,473.18C236.54,472,225.14,472,213.74,472a3.22,3.22,0,0,0-2.73.92l14.64.26H248Z" transform="translate(-115.92 -259.82)"/><path class="h" d="M428.17,316.72c1.37-4.26.8-8.48-.27-12.7C426.61,308.29,426.11,312.53,428.17,316.72Z" transform="translate(-115.92 -259.82)"/><path class="i" d="M438,485c-1.61-1.64-2.94-3.82-5.82-3-.24,1.7-1.06,4.1.57,4.8S436.56,486.46,438,485Z" transform="translate(-115.92 -259.82)"/><path class="i" d="M432.21,482l1.3-.49A7.54,7.54,0,0,0,432.21,482Z" transform="translate(-115.92 -259.82)"/><path class="j" d="M138,533.79a13.54,13.54,0,0,0,10.91,0A16.16,16.16,0,0,0,138,533.79Z" transform="translate(-115.92 -259.82)"/><path class="k" d="M342.88,498c-3-3.71-6.46-1.77-9.85-.88C336.17,498.92,339.6,497.6,342.88,498Z" transform="translate(-115.92 -259.82)"/><path class="l" d="M161.16,516a11.07,11.07,0,0,0-.06,10A12.27,12.27,0,0,0,161.16,516Z" transform="translate(-115.92 -259.82)"/><path class="m" d="M312.08,444a120,120,0,0,0,0,17A32.63,32.63,0,0,0,312.08,444Z" transform="translate(-115.92 -259.82)"/><path class="n" d="M308,521a9.51,9.51,0,0,0,8,0A7.73,7.73,0,0,0,308,521Z" transform="translate(-115.92 -259.82)"/><path class="o" d="M167,531.89a10.2,10.2,0,0,0,7.95,0A8,8,0,0,0,167,531.89Z" transform="translate(-115.92 -259.82)"/><path class="p" d="M476,432c3.22-2.68,1-5.93.94-9C475,425.84,476.44,429,476,432Z" transform="translate(-115.92 -259.82)"/><path class="q" d="M329.88,499.57c-2.49,2.61-2.37,5.22,0,7.83h0Z" transform="translate(-115.92 -259.82)"/><path class="o" d="M182,525a7.57,7.57,0,0,0,.06-7A5.87,5.87,0,0,0,182,525Z" transform="translate(-115.92 -259.82)"/><path class="r" d="M338,312.22a20.35,20.35,0,0,1,2,.27l.23,0c2.61.46,5.21,1,7.73-.46l-2.67-.23h0Z" transform="translate(-115.92 -259.82)"/><path class="s" d="M137.12,516c-1.45,2.47-1.5,4.75.87,6.72C137.66,520.51,138.83,518.08,137.12,516Z" transform="translate(-115.92 -259.82)"/><path class="q" d="M417,512.12c1.34-2.72-.09-5.4-.14-8.09C415.18,506.76,415.88,509.44,417,512.12Z" transform="translate(-115.92 -259.82)"/><path class="q" d="M278.89,297a38.08,38.08,0,0,0,.48-5.19c0-1,1.63-3.17-1.37-2.85C278.4,291.61,277.1,294.47,278.89,297Z" transform="translate(-115.92 -259.82)"/><path class="n" d="M301,507a5.79,5.79,0,0,0,0,6A4.59,4.59,0,0,0,301,507Z" transform="translate(-115.92 -259.82)"/><path class="t" d="M438,485c.49-5.08-1.93-4.44-4.52-3.46l-1.3.49C435.09,481.18,436.42,483.36,438,485Z" transform="translate(-115.92 -259.82)"/><path class="u" d="M175,510.12a9.53,9.53,0,0,0-6.95,0A6.49,6.49,0,0,0,175,510.12Z" transform="translate(-115.92 -259.82)"/><path class="v" d="M455.88,503l-1-7C453.76,498.56,452.66,501.08,455.88,503Z" transform="translate(-115.92 -259.82)"/><path class="n" d="M406,476.9a14.42,14.42,0,0,0,8,0A8,8,0,0,0,406,476.9Z" transform="translate(-115.92 -259.82)"/><path class="w" d="M435.62,490.56l0,0a2.89,2.89,0,0,1,1-.32l-1.91-.31c-3.84,0-1.48,2.58-1.72,4.08C433.92,492.84,434.32,491.27,435.62,490.56Z" transform="translate(-115.92 -259.82)"/><path class="x" d="M190.36,511l-.54,3.36.24,3.64C191.77,515.77,190.83,513.37,190.36,511Z" transform="translate(-115.92 -259.82)"/><path class="y" d="M140.24,530.86c1.8-.45,4.11,1.66,5.45-1l-4.47.07c-.38.23-.81.71-1.13.64C139.47,530.39,139.68,531,140.24,530.86Z" transform="translate(-115.92 -259.82)"/><path class="z" d="M466.59,498.13h0c-.1-.36-.22-.72-.32-1.07l-.38,5.17a.52.52,0,0,0,.14.77C467.44,501.47,467.09,499.8,466.59,498.13Z" transform="translate(-115.92 -259.82)"/><path class="aa" d="M181,480.71l3.37.45,2.66-.25C185.07,479.33,183,480,181,480.71Z" transform="translate(-115.92 -259.82)"/><path class="q" d="M165,482.71l3.39.48,2.62-.26C169.08,481.33,167,482,165,482.71Z" transform="translate(-115.92 -259.82)"/><path class="ab" d="M312.38,511.21c-1.83.67-4.89-2.49-5.58,1.78,1.32-1.93,3.26-1,5-1.08h0C312,511.68,312.18,511.44,312.38,511.21Z" transform="translate(-115.92 -259.82)"/><path class="j" d="M296,329.11c-1.65-.59-3.3-1.19-5,0A3.62,3.62,0,0,0,296,329.11Z" transform="translate(-115.92 -259.82)"/><path class="u" d="M150,512.16a13.43,13.43,0,0,0-6.95-.08A6.51,6.51,0,0,0,150,512.16Z" transform="translate(-115.92 -259.82)"/><path class="ac" d="M382.06,500a9,9,0,0,0,0,6A4.7,4.7,0,0,0,382.06,500Z" transform="translate(-115.92 -259.82)"/><path class="ab" d="M316,510.85l2,.28c1.22-.69,3,.47,3.93-1.14C319.93,510.21,317.79,509.33,316,510.85Z" transform="translate(-115.92 -259.82)"/><path class="y" d="M470.06,499.48c0,.27.08.42.19.46a.17.17,0,0,0,.1,0,.78.78,0,0,0,.5-.37,3.6,3.6,0,0,0,.31-.89h0c-.08-1.23-.16-2.46-.23-3.69C469.47,496.27,470.08,498,470.06,499.48Z" transform="translate(-115.92 -259.82)"/><path class="ad" d="M336.14,508.41l-.1,0c-1.4-.49-2.77-.63-4,.56l.36.25.43-.09,4.17-.36C336.7,508.61,336.42,508.51,336.14,508.41Z" transform="translate(-115.92 -259.82)"/><path class="k" d="M318.94,514.23c.34,1.61-.63,3.52,1.12,4.79l.81-.79C319.56,517.21,321.38,514.69,318.94,514.23Z" transform="translate(-115.92 -259.82)"/><path class="ae" d="M190.11,520c-.07,2.09-.5,4.24.82,6.16C190.82,524.09,191.7,521.88,190.11,520Z" transform="translate(-115.92 -259.82)"/><path class="g" d="M333,518.92a12.47,12.47,0,0,0,6-.06A4.79,4.79,0,0,0,333,518.92Z" transform="translate(-115.92 -259.82)"/><path class="af" d="M390.83,517.92c-.93,0-1.48.36-1.32,1.37s0,2,1.49,1.7C389.85,520,394.06,518.77,390.83,517.92Z" transform="translate(-115.92 -259.82)"/><path class="ag" d="M142,524.87l4.65.32C145.26,523.17,143.65,523.89,142,524.87Z" transform="translate(-115.92 -259.82)"/><path class="j" d="M156.17,483.59l4.08.53L162,484C160.44,482.49,158.72,482.88,156.17,483.59Z" transform="translate(-115.92 -259.82)"/><path class="j" d="M174.24,481.6l3.08.56,1.66-.24C177.76,480.56,176.42,480.91,174.24,481.6Z" transform="translate(-115.92 -259.82)"/><path class="q" d="M269.75,291.41l-3-.52-1.74.22C266.26,292.37,267.61,292.16,269.75,291.41Z" transform="translate(-115.92 -259.82)"/><path class="q" d="M263.74,292.4l-3-.53-1.72.23C260.26,293.37,261.6,293.16,263.74,292.4Z" transform="translate(-115.92 -259.82)"/><path class="ah" d="M143.39,474.21c-.29,1.59-.42,2.36-.56,3.13l.22,1.65C144.46,477.77,144.08,476.43,143.39,474.21Z" transform="translate(-115.92 -259.82)"/><path class="j" d="M385.24,458.06c-.33,1.45-.56,2.81.66,3.92.07-.59.14-1.18.2-1.76C385.71,459.57,386.45,458.47,385.24,458.06Z" transform="translate(-115.92 -259.82)"/><path class="y" d="M252.74,294.41l-3-.54-1.72.23C249.25,295.37,250.6,295.16,252.74,294.41Z" transform="translate(-115.92 -259.82)"/><path class="ai" d="M318,333.1l-1.72-.23-3,.67C315.51,334.12,316.86,334.32,318,333.1Z" transform="translate(-115.92 -259.82)"/><path class="q" d="M137.41,439.26c-.26,1.48-.39,2.23-.53,3l.21,1.74C138.38,442.75,138.16,441.4,137.41,439.26Z" transform="translate(-115.92 -259.82)"/><path class="aa" d="M297.26,437.6l3,.52,1.73-.25C300.73,436.64,299.39,436.83,297.26,437.6Z" transform="translate(-115.92 -259.82)"/><path class="q" d="M142.41,468.26c-.26,1.49-.4,2.24-.53,3l.21,1.73C143.38,471.75,143.16,470.4,142.41,468.26Z" transform="translate(-115.92 -259.82)"/><path class="aj" d="M342.91,499l-2.9,1.9C341.86,501.63,344,502.85,342.91,499Z" transform="translate(-115.92 -259.82)"/><path class="y" d="M384.23,465.06c-.32,1.45-.55,2.8.67,3.92.07-.59.13-1.18.2-1.77C384.71,466.56,385.44,465.46,384.23,465.06Z" transform="translate(-115.92 -259.82)"/><path class="ak" d="M388.74,446.89c-1.29.1-.72,1.36-.59,2.21l1.78-.05C390.06,448,389.77,446.81,388.74,446.89Z" transform="translate(-115.92 -259.82)"/><path class="al" d="M149.23,484.61l3.08.54,1.67-.25C152.74,483.57,151.41,483.9,149.23,484.61Z" transform="translate(-115.92 -259.82)"/><path class="al" d="M288.17,520c-.53.19-1.27.92-1.23,1.33.11,1.12,1.2.47,1.84.7a.68.68,0,0,0,.26-.89C288.75,520.7,289.23,519.58,288.17,520Z" transform="translate(-115.92 -259.82)"/><path class="am" d="M383.23,472.06c-.32,1.45-.56,2.81.68,3.92.06-.59.13-1.18.19-1.77C383.72,473.56,384.46,472.46,383.23,472.06Z" transform="translate(-115.92 -259.82)"/><path class="an" d="M251,504a4,4,0,0,0-4,0C248.34,505.41,249.67,505.41,251,504Z" transform="translate(-115.92 -259.82)"/><path class="aa" d="M392.35,276.61c.89-2.06,1-3.41-.31-4.6a.57.57,0,0,0-.13.8h0C392,273.88,392.16,274.94,392.35,276.61Z" transform="translate(-115.92 -259.82)"/><path class="ao" d="M239.85,346.31a3.76,3.76,0,0,1,.28-.29A1.09,1.09,0,0,0,239.85,346.31Z" transform="translate(-115.92 -259.82)"/><path class="ao" d="M378.17,434h0l.83-3-4-.18h0a53.89,53.89,0,0,1-25.83-.79c-2.1-.54-3.52-1.37-3.26-4,.47-4.62.67-9.27,1.07-13.9.35-4.12-.66-9.83,1.61-11.92,2.74-2.52,8,.44,12.08,1.42,3.26.78,4.06-.45,4.65-3.18,1.12-5.19,2.49-10.32,3.76-15.47h0l-.27-1.06h0c-3.23-1.75-6.74-.61-10.1-1-1.89-.2-3.94.65-5.65-.81-.78-.24-1.82,0-2.09-1.17h0c0-.34.05-.67.07-1-.41-7.35.84-14.62,1.11-21.94h0c-.05-1.27-.1-2.54-.14-3.81h0c2.58-2.05,5.26-1.61,8-.3a2.17,2.17,0,0,1,.07,1h0c0,.66,0,1.32,0,2h0c1.75,1.46,3.95.86,5.91,1.34a3.82,3.82,0,0,1,4,.87h0c2.12-.06,4.26-.25,6.23.8l1.79.14h0c5.4,1.45,7.38-1.48,7.95-6.21h0l.21-1.79h0l.75-6.09c-1.19-1.34-1.51-2.66.15-3.89,2.5-3,1.58-7,2.77-10.38,1-2.89-.36-3.62-3.16-3.79-16.43-1-32.87-2.11-49.28-3.43-2.71-.22-3.53.64-4,3-1.11,5.88-2.34,11.73-3.53,17.59,0,3,.05,5.89.05,8.83,0,1.38-.28,2.45-1.93,1.16-2-1.46-3.92-3-6-4.37-11.93-7.77-24.53-10.29-38.25-5.1-6.18,2.34-12.52,4.26-18.78,6.37l-.83,1.83h0c3.18,5.14,3,6.14-2.16,10.23-.95,1-1.36,2.58-3.86,3.23,1.77-6.07,3.38-11.62,5-17.17h0c.84-10,1.83-20,2.47-30,.31-5,1.45-10,.38-15.05l-1.75.16h0c-1.92,1.26-4.2,1.08-6.29,1.32-5.88.68-10.34,3.29-14.53,7.58-11.51,11.8-23.58,23.05-35.25,34.7-2.58,2.58-3.75,3.07-6.19-.3C190.86,331,179.51,315.79,162.6,306c-1.28-.74-2.23-1.92-4-1.75q-13.41,1.32-26.84,2.54c-1.48.14-2.49.35-2.31,2.32,1.29,14.09,1.31,28.41,4,42.24,5,26.11,11.58,51.91,17.35,77.88,1.11,5,4.07,10.55-1.88,14.79l.21,1.7h0c1,3,1.9,6.07,1.76,9.31.29,1,.59,2,.89,3h0c.21,1.64.36,3.29.66,4.92.56,3.08.35,6.79,2.05,9.06,2,2.68,5.59-1,8.52,0l1.76-.17h0c5.06-.8,10.12-1.64,15.19-2.39,2.42-.36,3.17-1.18,2.48-3.88a681.67,681.67,0,0,1-16.63-86.51,6.93,6.93,0,0,1-.79-.17c-1.64-1.24-1.34-2.56-.13-3.9h0c.13-1.82.21-3.64-.77-5.3-.13,1.11-.26,2.22-.5,4.22-.76-2.66-1.15-4.38.32-5.94h0c-.16-1.8,0-3.74-.59-5.36-.71-1.84-3.26-2.14-3.73-4.78-1.07-5.94-2.69-11.78-2.61-17.89-.4-.84-1.24-1.73-.49-2.62.44-.52,1.14,0,1.49.58h0L175.19,348c4.3,2.53,10.07,4,8,11.14-.19.67.44,1.58.69,2.37,2.11,6.83,4.19,13.66,6.34,20.48,1.44,4.59,3,9.16,4.45,13.73,1.13-3.34,3.28-5.53,4.86-8a195,195,0,0,1,35.7-42.05c1.71-1.52,3.21-3.4,5.73-3.67.92-.95,1.69-.87,1.88.48a10.19,10.19,0,0,1-.26,2.61l-1.41-1h0c-.21.73-.12,1.64-1.08,2,0,.33,0,.66,0,1,2.22.28,1.87,2,1.79,3.41s-1,.87-1.8.66l-.34-.18h0a20.41,20.41,0,0,0-.1,2.47c.41,5.36-4.21,8.68-5.41,13.38-1.45,5.63-2.58,11.37-4.44,16.87-8.09,24-9.35,48.86-9.93,73.85-.07,2.85.8,3.73,3.62,3.75,7.15.07,14.31.35,21.46.73,2.73.14,3.9-.53,3.78-3.53-.38-9.48-.52-19-.76-28.46,0-1.32.14-2.81-1.74-3-2.82-.33-2.41-2.08-1.91-4,2-7.73,3.88-15.48,5.82-23.21a7.32,7.32,0,0,1,3.22-4.63c2.58,6.82,5.53,13.32,7.49,20.11,2.45,8.43,10.21,10.86,16,15.54a2.52,2.52,0,0,0,1.91.19c9.14-2,18.55-2.7,27.61-5.36-2.71-6.76-2.7-6.73,4.17-9.63,3.52-1.48,7-3.14,10.5-4.62,1.13-.48,2.33-2.09,3.52-.87s-.94,2.25-.78,3.57h0l.43,0h0c1.57,8,.53,16.11.62,24.16.06,4.88,1,9.86-.68,14.69a3.47,3.47,0,0,0,0,.91h0c12.9,4.4,25.77,8.86,38.7,13.16,11.39,3.79,11.69,3.5,11.92-9h0c-1.13-1.35-1.58-2.67.15-3.9a5.49,5.49,0,0,1,.78-.18h0c.11-.93.23-1.87.34-2.8-1.52-1.14-1.35-2.62-.82-4.16l1.42,1h0l1.44-9.92h0C378.19,436.69,378.18,435.35,378.17,434ZM322.3,384c-1.65,3.64-3,7.41-4.33,11.17a8.46,8.46,0,0,1-3.77,4.45c-7.87,5-15.78,9.93-23.54,15.09-2.26,1.51-3.58.93-5.67-.37-8.43-5.26-13-13.62-18.14-21.57-1.52-2.35-.78-4.86-.63-7.3.23-3.82.67-7.63,1-11.44h0c-.18-1.4-.94-3.1,1.59-3.13,11.63-4.46,23.28-8.89,34.89-13.42,2.28-.89,3.66-.38,5,1.65q6.34,9.56,13,18.91A5.32,5.32,0,0,1,322.3,384Z" transform="translate(-115.92 -259.82)"/><path class="ao" d="M464.08,403l-.24-2.67h0c-.2-4.35-2.95-7.11-6-9.8a255.27,255.27,0,0,0-29.46-22.18,9,9,0,0,1-2-13.22c2.78-3.22,3.86,1.28,6,.66,7-2.06,14.3-3.06,21-6.12,2.58-1.18,3.81-2.85,2.62-5.93-1.91-5-3.61-10-5.16-15.08-.85-2.78-2.52-3.05-4.92-2.54-5.05,1.05-10.14,1.89-15.16,3.06-3.65.85-6.67,2-8.08,6.54-1.86,6-5.31,12.33-11.22,14.7-6.82,2.74-7,7.64-7.41,13.15a23.68,23.68,0,0,1-.49,4.95c-1,3.3.18,5.2,3,6.92,5.25,3.16,10.8,6,15.89,9.09,9.77,5.91,16.69,15.49,20,27,1.11,3.85,1,7.1-3.47,9a100.08,100.08,0,0,0-10.19,5.25c-2.62,1.48-7.73.87-5.85,6.5,0,.09-.8.47-1.24.71a2.91,2.91,0,0,1,.91.25c.49.34.42.77-.18.8-1.23.07-2.56.36-3.48-.87-6.18-.18-12.22,1.2-18.35,1.48-3.86.17-3.76,1.72-2.58,4.6,3,7.36,6.72,14.61,8.47,22.29,1.21,5.3,3.18,5,7,3.88,11.29-3.39,22.2-7.86,33.29-11.82a11,11,0,0,0,6.18-5.34c3.53-6.2,7.31-12.26,11.16-18.27a9.58,9.58,0,0,0,1.44-6.57C465,416.55,464.57,409.76,464.08,403Z" transform="translate(-115.92 -259.82)"/><path class="ap" d="M399.89,329a1.1,1.1,0,0,1,.27.81l.75.29h0c.11.15.2.29.3.44h.32l-.12.29v0c1.47,2.63.6,5.37-.07,8.1h-.43c.55,2.24,2.63,4.28-.13,7.1,7.31-.33,10.51-4.61,13.38-9.42,4-6.69,4.24-14.59,7-21.67h-.44a14.63,14.63,0,0,1,0-10h.42a47.92,47.92,0,0,0-5.94-14.69c-.94-1.6-1.09-2.93-4.23-1.33a50.44,50.44,0,0,0-12.31,8.25c-1.09,1-2.28,1.32-3.19-.37-.63-1.18-1.3-2.4-3-1.85-2,.64-2.2,2.53-2.3,4a20.87,20.87,0,0,0,1.82,9.21C394.77,315.11,395.4,322.81,399.89,329Z" transform="translate(-115.92 -259.82)"/><path class="ap" d="M399.67,329.66c.08-.21.14-.42.22-.63A1,1,0,0,0,399.67,329.66Z" transform="translate(-115.92 -259.82)"/><path class="aq" d="M398.89,282h0a18.06,18.06,0,0,1-.82,7.29c-.26,1-.68,2.72,1,2.73a4.43,4.43,0,0,0,4-2.52c.58-1.39.3-3.13,1.29-4.48-4.52-2.85-1.84-6.7-1.44-10.24l.27-1.69h0l2.5-4.05c-5.9-.68-4.7,4.6-6.51,7.23-.08,1.91-.15,3.82-.23,5.73Z" transform="translate(-115.92 -259.82)"/><polygon class="ar" points="208.37 154.22 208.37 154.22 208.37 154.22 208.37 154.22"/><path class="ar" d="M324.29,414l-.43,0h-.79q0,19.49-.1,39l1.29.82h0a3.47,3.47,0,0,1,0-.91C323.89,439.94,323.77,427,324.29,414Z" transform="translate(-115.92 -259.82)"/><path class="as" d="M322,416.61q0,16.84,0,33.69a3,3,0,0,0,1,2.68h0q0-19.5.1-39A2.8,2.8,0,0,0,322,416.61Z" transform="translate(-115.92 -259.82)"/><path class="at" d="M258.13,365.2c2.5-.65,2.91-2.22,3.86-3.23-1.47-3.88,2.91-6.51,2.16-10.23h0l.83-1.83L263.13,348h0C261.51,353.58,259.9,359.13,258.13,365.2Z" transform="translate(-115.92 -259.82)"/><path class="au" d="M351,379h0c.27,1.14,1.31.93,2.09,1.17,4.26-.06,8.53-.18,12.79-.16,1.28,0,3.25-.65,3,1.93h0l.27,1.06h0c1.27-1.09.87-2.56.89-3.94Z" transform="translate(-115.92 -259.82)"/><path class="av" d="M351,379l19,.06c-1.23-1.62-3-1-4.58-1.05-4.78-.06-9.57,0-14.35,0,0,.34-.05.67-.07,1Z" transform="translate(-115.92 -259.82)"/><path class="aw" d="M329.92,351.85c0-2.94,0-5.88-.05-8.83-2.31,3,.65,7-1.88,10C329.64,354.3,329.91,353.23,329.92,351.85Z" transform="translate(-115.92 -259.82)"/><path class="ax" d="M360.07,352.93h0a2.17,2.17,0,0,0-.07-1l-8,.3h0c0,1.27.09,2.54.14,3.81h0L353,354C355.1,352,357.74,353.47,360.07,352.93Z" transform="translate(-115.92 -259.82)"/><path class="ay" d="M422.37,315.09c.13,0,.39-.11.39-.16-.1-3.31,1.42-6.78-.93-9.88,0,3.27.07,6.55.1,9.82A1.3,1.3,0,0,0,422.37,315.09Z" transform="translate(-115.92 -259.82)"/><path class="az" d="M400.16,329.84a1.1,1.1,0,0,0-.27-.81c-.08.21-.14.42-.22.63-1.08,3.13-1.33,6.24.49,9.29Z" transform="translate(-115.92 -259.82)"/><path class="ba" d="M420.74,315h.44a3.68,3.68,0,0,0,.75-.13h0c0-3.27-.07-6.55-.1-9.82a4,4,0,0,1-.69-.05h-.42A34.76,34.76,0,0,1,420.74,315Z" transform="translate(-115.92 -259.82)"/><path class="ah" d="M409,423.29l-4.31-.44-3.68.26C403.6,424.83,406.31,423.77,409,423.29Z" transform="translate(-115.92 -259.82)"/><path class="bb" d="M360.07,352.93c-2.33.54-5-.94-7.08,1.07,2.44-.35,4.75.33,7.07.9h0c0-.65,0-1.31,0-2Z" transform="translate(-115.92 -259.82)"/><path class="bc" d="M379,431c.19-.84.89-1.91-.79-2-1.39,0-2.95-.28-3.19,1.78h0Z" transform="translate(-115.92 -259.82)"/><path class="bd" d="M378.17,434h0c0,1.33,0,2.67,0,4h0c.76.27,1.69.71,1.77-.61S380.38,434.29,378.17,434Z" transform="translate(-115.92 -259.82)"/><path class="be" d="M400.91,330.13h0l-.75-.29V339a6.12,6.12,0,0,1,.74,0h.43Z" transform="translate(-115.92 -259.82)"/><path class="bf" d="M398.89,282c.08-1.91.15-3.82.23-5.73-.33-.27-.58-2.08-.92-.6-.45,2-1,4.39.69,6.33Z" transform="translate(-115.92 -259.82)"/><path class="bg" d="M366,356.24c.58,3.72,2.47,1.44,4,.87h0A3.82,3.82,0,0,0,366,356.24Z" transform="translate(-115.92 -259.82)"/><path class="ah" d="M377,364.72c-2.39-.57-4.78-1.44-7,.22l2.69.21Z" transform="translate(-115.92 -259.82)"/><path class="aa" d="M393.49,374.13c-1.27-3.22,1.41-6.26-2.81-7l1.22,1.72C392.37,370.15,391.53,371.71,393.49,374.13Z" transform="translate(-115.92 -259.82)"/><path class="bd" d="M375.21,457l1.42,1.09c.62-1.57.71-3-.82-4.2h0a5.49,5.49,0,0,0-.78.18Z" transform="translate(-115.92 -259.82)"/><path class="bh" d="M376.15,451.08c1.25-.85.84-2,.6-3.14h0l-1.42-1C374.8,448.46,374.63,449.94,376.15,451.08Z" transform="translate(-115.92 -259.82)"/><path class="bi" d="M165,378.94a6.93,6.93,0,0,0,.79.17c1.52-1.16,1.43-2.62.81-4.19L165.22,376C165.16,377,165.09,378,165,378.94Z" transform="translate(-115.92 -259.82)"/><path class="bj" d="M242.88,342.48c-.19-1.35-1-1.43-1.88-.48l.21,2.05h0l1.41,1A10.19,10.19,0,0,0,242.88,342.48Z" transform="translate(-115.92 -259.82)"/><path class="ah" d="M383.07,419.34l-3.32-.46-2.73.22C378.92,420.67,381,419.92,383.07,419.34Z" transform="translate(-115.92 -259.82)"/><path class="bd" d="M464.28,396.94c-.15,1.12-.3,2.24-.44,3.36h0l.24,2.67C465.68,401.08,464.94,399,464.28,396.94Z" transform="translate(-115.92 -259.82)"/><path class="bk" d="M386.89,344c1.43-1.24,1.08-2.55.15-3.89C385.38,341.3,385.7,342.62,386.89,344Z" transform="translate(-115.92 -259.82)"/><path class="al" d="M374,420.27l-4.21-.37-1.78.15C369.88,421.71,371.94,420.9,374,420.27Z" transform="translate(-115.92 -259.82)"/><path class="bl" d="M150.9,455c-1.23,1.19-1.08,2.59-.61,4l1.5-1h0C151.49,457,151.19,456,150.9,455Z" transform="translate(-115.92 -259.82)"/><path class="bm" d="M169.11,472.36l-4.33-.47h0l-1.76.17C164.57,473.52,166.29,473.11,169.11,472.36Z" transform="translate(-115.92 -259.82)"/><path class="bj" d="M163.63,374c.24-2,.37-3.11.5-4.22L164,368h0C162.48,369.58,162.87,371.3,163.63,374Z" transform="translate(-115.92 -259.82)"/><path class="q" d="M386.31,365.57c-3-.63-4.72-1.07-6.3.35l1.67.24Z" transform="translate(-115.92 -259.82)"/><path class="bd" d="M376.19,357.91l-4.4.46c2.92.72,4.65,1.16,6.19-.32h0Z" transform="translate(-115.92 -259.82)"/><path class="bn" d="M402.86,274.74c.35.69-.3,1.77.85,2.28.41-1.49.61-2.83-.58-4h0Z" transform="translate(-115.92 -259.82)"/><path class="bo" d="M260.8,302.7l3.43.41h0L266,303C264.76,301.61,263.41,301.86,260.8,302.7Z" transform="translate(-115.92 -259.82)"/><path class="bp" d="M385.51,315.37c-1.66-.36-2.67-.73-3.61.22A3.41,3.41,0,0,0,385.51,315.37Z" transform="translate(-115.92 -259.82)"/><path class="bq" d="M165,378.94c.06-1,.13-1.95.19-2.93-.11-.32-.22-.65-.32-1h0C163.69,376.38,163.39,377.7,165,378.94Z" transform="translate(-115.92 -259.82)"/><path class="br" d="M240.16,351.08c0-1.36,0-2.71,0-4.07,0-.33,0-.66,0-1a3.76,3.76,0,0,0-.28.29c-1.38,1.44-1.14,3,0,4.59h0Z" transform="translate(-115.92 -259.82)"/><path class="bs" d="M422.51,433.94c.6,0,.67-.46.18-.8a2.91,2.91,0,0,0-.91-.25l-2.75.18h0C420,434.3,421.28,434,422.51,433.94Z" transform="translate(-115.92 -259.82)"/><path class="bo" d="M148.66,449.09c.26-1.85.37-2.61.48-3.36h0l-.21-1.7C147.55,445.24,147.92,446.6,148.66,449.09Z" transform="translate(-115.92 -259.82)"/><path class="bt" d="M156.53,337.37c-.75.89.09,1.78.49,2.62a2.16,2.16,0,0,0,1-2h0C157.67,337.34,157,336.85,156.53,337.37Z" transform="translate(-115.92 -259.82)"/><path class="bs" d="M375,454.06c-1.73,1.23-1.28,2.55-.15,3.9h0l.33-1Z" transform="translate(-115.92 -259.82)"/><path class="bu" d="M361,421.64a2.58,2.58,0,0,0,2.93-.25C363,421.43,361.92,420.5,361,421.64Z" transform="translate(-115.92 -259.82)"/><path class="ac" d="M357.58,414.12c-.66-.23-.54.47-.55.83,0,1.11-.18,2.27.93,3,.07-.89.15-1.77.22-2.66C358,414.91,357.88,414.22,357.58,414.12Z" transform="translate(-115.92 -259.82)"/><path class="bv" d="M385.93,351.84h0c.1.77.21,1.54.31,2.32.68-1.45,1.23-2.87-.1-4.11h0Z" transform="translate(-115.92 -259.82)"/><path class="bw" d="M397.81,508.23v-6C396.92,503.74,396.81,505.34,397.81,508.23Z" transform="translate(-115.92 -259.82)"/><path class="x" d="M176.83,521.3v1.39c.29.43.7,1.53.84,1.16.43-1.17.87-2.59-.21-3.78Z" transform="translate(-115.92 -259.82)"/><path class="ab" d="M312.6,508.87c4.46.17,4.57.08,3.26-2.82C317,509.57,313.48,507.69,312.6,508.87Z" transform="translate(-115.92 -259.82)"/><path class="h" d="M314.18,517.56a3,3,0,0,0-3.35-.1A2.92,2.92,0,0,0,314.18,517.56Z" transform="translate(-115.92 -259.82)"/><path class="g" d="M333.58,515.53c1.53.58,2.55.71,3.58,0C336.12,514.81,335.11,514.91,333.58,515.53Z" transform="translate(-115.92 -259.82)"/><path class="u" d="M143.28,515.74h4.57C146.6,515,145.33,514.73,143.28,515.74Z" transform="translate(-115.92 -259.82)"/><path class="aa" d="M144.09,521.26q.32.15.63.27h0c1.53.61,3,.84,4.3-.56Z" transform="translate(-115.92 -259.82)"/><path class="aa" d="M149,521h0Z" transform="translate(-115.92 -259.82)"/><path class="a" d="M308.73,359.15c-1.35-2-2.73-2.54-5-1.65-11.61,4.53-23.26,9-34.89,13.42,2.45,1.49-.6,2.78-.16,4.19l-1.42-1.06c-.36,3.81-.8,7.62-1,11.44-.15,2.44-.89,4.95.63,7.3,5.14,7.95,9.71,16.31,18.14,21.57,2.09,1.3,3.41,1.88,5.67.37,7.76-5.16,15.67-10.11,23.54-15.09a8.46,8.46,0,0,0,3.77-4.45c1.33-3.76,2.68-7.53,4.33-11.17a5.32,5.32,0,0,0-.56-6Q315.08,368.72,308.73,359.15ZM301,392.26a113.94,113.94,0,0,0-9.65,6.2c-2.58,2-4,1.16-5.61-1.14-4.83-6.73-5.95-8.86-5.9-12.77-.71-2.87,1-4.39,4-5.36,4.89-1.64,9.79-3.28,14.52-5.31,2.8-1.19,4-.05,5.73,1.9C311.33,383.85,307.82,388.13,301,392.26Z" transform="translate(-115.92 -259.82)"/><path class="bx" d="M324.23,452.89c1.65-4.83.74-9.81.68-14.69-.09-8.05.95-16.15-.62-24.16h0C323.77,427,323.89,439.94,324.23,452.89Z" transform="translate(-115.92 -259.82)"/><path class="by" d="M262,362c5.13-4.09,5.34-5.09,2.16-10.23h0C264.9,355.46,260.52,358.09,262,362Z" transform="translate(-115.92 -259.82)"/><path class="bz" d="M365.87,380c-4.26,0-8.53.1-12.79.16,1.71,1.46,3.76.61,5.65.81,3.36.35,6.87-.79,10.1,1h0C369.12,379.37,367.15,380,365.87,380Z" transform="translate(-115.92 -259.82)"/><path class="bl" d="M268.83,370.92c-2.53,0-1.77,1.73-1.59,3.13h0l1.42,1.06C268.23,373.7,271.28,372.41,268.83,370.92Z" transform="translate(-115.92 -259.82)"/><path class="ca" d="M240.16,351.08c.76.21,1.72.65,1.8-.66s.43-3.13-1.79-3.41C240.17,348.37,240.16,349.72,240.16,351.08Z" transform="translate(-115.92 -259.82)"/><path class="cb" d="M352,352.25h0l8-.3C357.29,350.64,354.61,350.2,352,352.25Z" transform="translate(-115.92 -259.82)"/><path class="cc" d="M420.72,305a14.63,14.63,0,0,0,0,10h0A34.76,34.76,0,0,0,420.72,305Z" transform="translate(-115.92 -259.82)"/><path class="cd" d="M401.33,339c.67-2.73,1.54-5.47.07-8.1a3.37,3.37,0,0,0-.19-.32c-.1-.15-.19-.29-.3-.44h0Z" transform="translate(-115.92 -259.82)"/><path class="ce" d="M298.31,373.88c-4.73,2-9.63,3.67-14.52,5.31-2.91,1-4.66,2.49-4,5.36,0,3.91,1.07,6,5.9,12.77,1.66,2.3,3,3.09,5.61,1.14a113.94,113.94,0,0,1,9.65-6.2c6.82-4.13,10.33-8.41,3-16.48C302.28,373.83,301.11,372.69,298.31,373.88Z" transform="translate(-115.92 -259.82)"/></svg>