<svg xmlns="http://www.w3.org/2000/svg" viewBox="0 0 608.09 126.64"><defs><style>.a{fill:#fff;}.b{fill:#11274b;}</style></defs><title>bart_durham_w</title><path class="a" d="M141.14,282a17,17,0,0,1-8.06,14.66c-3.86,2.52-8.9,3.78-16.29,3.78-2.44,0-5-.17-7.39-.26-1.43,0-3.78-.08-6.3-.08v-1c3.52-.16,3.52-2.68,3.52-25.73V260.26c0-21.54,0-24-3.1-24.22V235c1.59,0,4.28-.09,6.13-.09,2.1,0,5.37-.16,8.14-.16a33.45,33.45,0,0,1,9.83,1.34c4.7,1.5,10.75,6,10.75,15.33A14.78,14.78,0,0,1,126.86,266v.17c7.81,1.09,14.28,7,14.28,15.67Zm-10.75-30c0-7.21-5.21-10.81-12-10.81-1.76,0-3.36.08-4.2.17v22c.59,0,1.51.08,2.27.08a19.59,19.59,0,0,0,5.8-.75A10.85,10.85,0,0,0,130.39,252Zm2.6,29.59c0-6-4.2-9.56-8.31-10.81a24,24,0,0,0-7.22-1c-.84,0-2.44,0-3.28.08v22c0,1.26,0,1.43.59,1.59a14.24,14.24,0,0,0,3.78.34,19.17,19.17,0,0,0,7.47-1.51,11.09,11.09,0,0,0,7-10.56Z" transform="translate(-99.96 -233.77)"/><path class="a" d="M161.88,281.63c-6,14.84-7,17.35-3.44,17.6v1.09c-2.1-.08-4.7-.08-7.31-.08-3.19,0-5.37,0-6.89.08v-1.09c2.61-.25,3.78-2.76,13.36-26l16.12-39.48H175l15.62,39.56c9.24,23.05,10.33,25.65,12.85,25.9v1.09c-1.43-.08-3.61-.08-6.72-.08-2.94,0-5.88,0-8,.08v-1.09c3.53-.25,2.44-2.76-3.27-17.6ZM183,275.26V275c-7.55-20.12-8.39-22.46-9.07-24.81h-.08c-.76,2.26-1.68,4.69-9.49,24.81l-.08.25Z" transform="translate(-99.96 -233.77)"/><path class="a" d="M211.59,260.26c0-21.54,0-24.14-3.44-24.31v-1c2.18,0,4-.09,6.63-.09,2.27-.08,5.71-.25,7.9-.25a33.23,33.23,0,0,1,11.59,1.76c4.95,1.76,10.83,6.79,10.83,16.43a18.51,18.51,0,0,1-7.81,15.5,20.7,20.7,0,0,1-6,3v.17c1.85,2.6,3.69,5.11,16,21.71,2.26,3,4.95,5.78,7,6v1.09c-1.76,0-3.53-.08-5.62-.08-1.52,0-2.36.08-3.78.08a4.58,4.58,0,0,1-3-1.17c-5.29-7.55-10.91-15.68-18.56-26.4h-4.2v3.52c0,20.11,0,22.71,3.28,23v1.09c-1.93,0-4.28-.08-7-.08-3,0-5.21.08-7.39.08v-1.09c3.44-.25,3.44-2.85,3.44-25.9Zm25.45-7c0-7.38-5-12-13.44-12-1.59,0-3.53.09-4.37.17v25.14c.93.09,1.94.09,3.28.09a17,17,0,0,0,8.15-1.93A12.48,12.48,0,0,0,237,253.3Z" transform="translate(-99.96 -233.77)"/><path class="a" d="M273.4,241.32H260.63c-4.62,0-6.13.75-6.88,4.36h-1.1v-10.9c6.72.08,14.87.08,21,.08h7.22c6.8,0,14.95,0,21-.08v10.9h-1.1c-.75-3.61-2.43-4.36-6.8-4.36H281.21v32c0,23.14,0,25.73,3.78,25.9v1.09c-2.1-.08-4.79-.08-7.65-.08-3,0-5.87,0-7.72.08v-1.09c3.78-.33,3.78-2.76,3.78-25.9Z" transform="translate(-99.96 -233.77)"/><path class="a" d="M385.08,266.13c0,11.81-4.45,20.95-12.17,27.07-6.13,5-14.11,7.29-24.36,7.29-2.52,0-6.38-.17-9.32-.25h-8v-1.18c3.7-.25,3.7-2.76,3.7-25.73V260.26c0-21.54,0-23.89-3.53-24.14V235c2.18-.08,5.54-.25,8.4-.25,3.11-.08,5.79-.17,9.74-.17,9.49,0,16.29,1.68,22,5.2,8.57,5.11,13.52,15,13.52,26.23Zm-8.31.16c0-8.55-3.78-16-9.74-20.36-4.12-2.85-10.42-4.53-17.13-4.53-2.69,0-4.79.08-7.06.25v50.29c0,1,.25,1.26.93,1.34a43.27,43.27,0,0,0,6,.34c7.14,0,13.52-2,18.14-6,5.54-4.77,8.9-11.9,8.9-21.28Z" transform="translate(-99.96 -233.77)"/><path class="a" d="M395.74,260.26c0-21.54,0-24.14-3.44-24.39v-1.09c2,0,4.62.08,7.73.08,2.94,0,5.46-.08,7.39-.08v1.09c-3.7.25-3.7,2.85-3.7,24.39v12.65c0,7.46,1.35,11.82,4.2,15.34,2.86,3.69,7.81,5.62,13.1,5.62,5.13,0,9.75-1.76,12.77-5.37s4.45-8.55,4.45-15.92V260.26c0-21.54.08-24.14-3.7-24.47v-1c2.1,0,4.62.08,7.31.08,3,0,5.46-.08,7.22-.08v1c-3.27.33-3.27,2.93-3.27,24.47v12.4c0,9.72-2.1,15.93-6.05,20.54s-10.58,8-18.81,8c-8.73,0-15.7-3.1-19.9-8.88-3.7-4.61-5.3-10.31-5.3-18.94Z" transform="translate(-99.96 -233.77)"/><path class="a" d="M461.83,260.26c0-21.54,0-24.14-3.44-24.31v-1c2.18,0,4-.09,6.63-.09,2.27-.08,5.72-.25,7.9-.25a33.13,33.13,0,0,1,11.58,1.76c5,1.76,10.84,6.79,10.84,16.43a18.51,18.51,0,0,1-7.81,15.5,20.7,20.7,0,0,1-6,3v.17c1.84,2.6,3.69,5.11,16,21.71,2.26,3,4.95,5.78,7.05,6v1.09c-1.76,0-3.53-.08-5.62-.08-1.52,0-2.36.08-3.79.08a4.58,4.58,0,0,1-3-1.17c-5.29-7.55-10.92-15.68-18.56-26.4h-4.2v3.52c0,20.11,0,22.71,3.28,23v1.09c-1.93,0-4.28-.08-7-.08-3,0-5.21.08-7.39.08v-1.09c3.44-.25,3.44-2.85,3.44-25.9Zm25.45-7c0-7.38-5-12-13.44-12-1.6,0-3.53.09-4.37.17v25.14c.93.09,1.94.09,3.28.09a16.88,16.88,0,0,0,8.14-1.93,12.47,12.47,0,0,0,6.39-11.4Z" transform="translate(-99.96 -233.77)"/><path class="a" d="M560.92,273.33c0,23.05,0,25.65,4,25.9v1.09c-2,0-4.54-.08-7.47-.08-3.11,0-5.8.08-8.15.08v-1.09c3.86-.25,3.86-2.85,3.86-24.22v-4.78H519.86V275c0,21.37,0,24,3.69,24.22v1.09c-2.1,0-4.62-.08-7.56-.08s-6,.08-7.72.08v-1.09c3.69-.25,3.69-2.85,3.69-25.9V260.26c0-21.54,0-24.14-3.52-24.39v-1.09c1.59,0,4.61.08,7.47.08,3,0,5.46-.08,7.31-.08v1.09c-3.36.25-3.36,2.85-3.36,23.3v4.36h33.25v-4.44c0-20.37,0-23-3.36-23.22v-1.09c1.85,0,4.37.08,7.31.08s5.37-.08,7.14-.08v1.09c-3.28.25-3.28,2.85-3.28,24.39Z" transform="translate(-99.96 -233.77)"/><path class="a" d="M586.79,281.63c-6,14.84-7,17.35-3.45,17.6v1.09c-2.1-.08-4.7-.08-7.3-.08-3.2,0-5.38,0-6.89.08v-1.09c2.6-.25,3.78-2.76,13.35-26l16.12-39.48h1.27l15.61,39.56c9.24,23.05,10.33,25.65,12.85,25.9v1.09c-1.42-.08-3.61-.08-6.71-.08-2.94,0-5.88,0-8,.08v-1.09c3.53-.25,2.43-2.76-3.28-17.6ZM608,275.26V275c-7.56-20.12-8.4-22.46-9.07-24.81h-.09c-.75,2.26-1.68,4.69-9.49,24.81l-.08.25Z" transform="translate(-99.96 -233.77)"/><path class="a" d="M642.88,234.28h1.17c21.92,43.24,23.35,46,25.79,51.46H670c2.27-5.28,3.87-8.22,26.29-51.46h1.26l4.45,39c2.6,23.05,2.94,25.65,6,25.9v1.09c-1.85-.08-4.2-.08-7-.08-3,0-6,0-8.07.08v-1.09c4-.25,3.7-3,1.6-22-1.43-12.74-1.93-17.52-2.1-22.46h-.08c-3,7-5.63,11.9-10.59,21.87-2.77,5.45-6.63,12.83-11.75,22.38h-1.18c-5-9.64-8.9-17.1-11.59-22.46-4.78-9.81-7.56-15.34-10.24-21.88H647c-.25,4.95-.84,10-2.18,22.55-2,19-2.35,21.79,1.51,22v1.09c-2,0-5-.08-7.72-.08-2.94,0-5.13.08-6.81.08v-1.09c3.19-.25,3.61-2.85,6.39-25.9Z" transform="translate(-99.96 -233.77)"/><rect class="a" y="80.48" width="607.94" height="46.16"/><path class="b" d="M206.37,340.12c0,8,0,8.86,1.31,9v.38c-.73,0-1.66,0-2.69,0s-2,0-2.62,0v-.38c1.25-.15,1.25-1,1.25-9v-4.58c0-7.49,0-8.34-1.23-8.45v-.41c.65,0,1.52,0,2.57,0s2,0,2.58,0v.38c-1.17.14-1.17,1-1.17,8.48Z" transform="translate(-99.96 -233.77)"/><path class="b" d="M253.19,349.77h-.44c-5.58-6.5-8.88-10.35-10.92-12.74-1.35-1.55-2.31-2.65-3.77-4.52h0v7.7c0,7.9,0,8.83,1.26,8.92v.38c-.79,0-1.67,0-2.6,0s-1.7,0-2.37,0v-.35c1.26-.12,1.26-1.05,1.26-9V326.5H236c5.7,6.68,9.06,10.65,11.1,13,1.29,1.48,2.2,2.56,3.57,4.31h.06v-8.34c0-7.4,0-8.33-1.29-8.45v-.35c.67,0,1.58,0,2.46,0s1.75,0,2.39,0v.35c-1.11.12-1.11,1.05-1.11,8.54Z" transform="translate(-99.96 -233.77)"/><path class="b" d="M290.52,340.88c0,2.62-.14,4.14-.7,5.42a5.77,5.77,0,0,1-2.1,2.54,7.2,7.2,0,0,1-3.92,1,12,12,0,0,1-2.54-.32,7.57,7.57,0,0,1-1.37-.47v-3.79h.35a2.21,2.21,0,0,0,1.14,1.69,4.45,4.45,0,0,0,2.28.5,4.3,4.3,0,0,0,2.45-.7A3.39,3.39,0,0,0,287.4,345a12.53,12.53,0,0,0,.41-4.14V335.6c0-7.52,0-8.31-1.23-8.51v-.38c.9,0,1.78,0,2.72,0s1.78,0,2.39,0v.38c-1.17.2-1.17,1-1.17,8.48Z" transform="translate(-99.96 -233.77)"/><path class="b" d="M319.24,335.57c0-7.49,0-8.39-1.2-8.48v-.38c.7,0,1.6,0,2.69,0s1.89,0,2.57,0v.38c-1.29.09-1.29,1-1.29,8.48V340c0,2.6.47,4.11,1.46,5.34a6.27,6.27,0,0,0,9,.09c1.08-1.23,1.55-3,1.55-5.54v-4.29c0-7.49,0-8.39-1.29-8.51v-.35c.73,0,1.61,0,2.54,0s1.9,0,2.51,0v.35c-1.14.12-1.14,1-1.14,8.51v4.32c0,3.38-.73,5.54-2.1,7.14a8.49,8.49,0,0,1-6.54,2.8c-3,0-5.46-1.08-6.92-3.09-1.29-1.61-1.84-3.59-1.84-6.59Z" transform="translate(-99.96 -233.77)"/><path class="b" d="M365.59,335.57c0-7.49,0-8.39-1.2-8.45v-.35c.76,0,1.41,0,2.31,0s2-.09,2.75-.09a11.66,11.66,0,0,1,4,.61,5.76,5.76,0,0,1,3.77,5.72,6.43,6.43,0,0,1-2.72,5.39,7.1,7.1,0,0,1-2.07,1.05v.06c.64.9,1.28,1.78,5.58,7.55.78,1.05,1.72,2,2.45,2.1v.38c-.61,0-1.23,0-2,0-.52,0-.82,0-1.31,0a1.59,1.59,0,0,1-1.05-.41c-1.84-2.62-3.8-5.45-6.46-9.18h-1.46v1.22c0,7,0,7.9,1.14,8v.38c-.67,0-1.49,0-2.43,0s-1.81,0-2.57,0v-.38c1.2-.09,1.2-1,1.2-9Zm8.85-2.45c0-2.56-1.72-4.17-4.67-4.17-.56,0-1.23,0-1.52.06v8.75c.32,0,.67,0,1.14,0a6,6,0,0,0,2.83-.67,4.36,4.36,0,0,0,2.22-4Z" transform="translate(-99.96 -233.77)"/><path class="b" d="M412.77,340.27v1c0,6.79,0,7.72,1.31,7.84v.38c-.7,0-1.63,0-2.63,0-1.17,0-2.19,0-2.71,0v-.38c1.28-.12,1.28-1.05,1.28-7.82v-.84l-2.54-4.84c-4.09-7.64-4.44-8.43-5.37-8.54v-.38c.35,0,1.28,0,2.36,0s2.07,0,2.92,0v.38c-1.34.11-.87,1,1.46,5.54,1.26,2.36,2,3.84,2.6,5h.06c.56-1.2,1.32-2.62,2.57-5,2.4-4.55,2.83-5.48,1.55-5.57v-.38c.91,0,1.81,0,2.8,0s1.7,0,2.17,0v.38c-.82.11-1.17.87-5.35,8.57Z" transform="translate(-99.96 -233.77)"/><path class="b" d="M478.05,335.57c0-7.49,0-8.28-1.22-8.48v-.38c.61,0,1.54,0,2.59,0s1.93,0,2.58,0v.38c-1.2.2-1.2,1-1.2,8.48v11.14c0,.35.08.44.41.44h5.23a2.88,2.88,0,0,0,1.66-.33,1.4,1.4,0,0,0,.7-1.07h.35c0,1.37-.06,2.24-.09,3.76-1.6,0-4.06,0-6.31,0-2.77,0-5.28,0-5.95,0v-.41c1.28-.17,1.25-1,1.25-9Z" transform="translate(-99.96 -233.77)"/><path class="b" d="M519.53,343c-2.1,5.16-2.42,6-1.2,6.12v.38c-.73,0-1.63,0-2.54,0-1.11,0-1.87,0-2.39,0v-.38c.9-.09,1.31-1,4.64-9l5.61-13.73h.44l5.43,13.76c3.21,8,3.59,8.92,4.47,9v.38c-.5,0-1.26,0-2.34,0s-2,0-2.77,0v-.38c1.23-.09.85-1-1.14-6.12Zm7.36-2.22v-.09c-2.63-7-2.92-7.81-3.15-8.63h0c-.26.79-.59,1.64-3.3,8.63l0,.09Z" transform="translate(-99.96 -233.77)"/><path class="b" d="M577.13,349.94h-.43c-5.38-13.58-6.17-15.71-6.72-17.37h0c-.56,1.66-1.37,3.82-6.87,17.37h-.46l-4.06-14.63c-2-7.23-2.22-8.11-3.22-8.22v-.38c.65,0,1.46,0,2.51,0s1.87,0,2.87,0v.38c-1.52.11-1.29,1,.38,7.26,1.43,5.19,1.81,6.76,2.33,9h.06c.65-1.92,1.2-3.35,3.33-8.89.82-2,2-4.66,3.07-7.37h.38c1.11,2.68,2.19,5.3,3.07,7.4,2,5.37,2.57,6.91,3.21,8.78h0c.5-2.22,1-4.23,2.28-8.86,1.66-6.33,1.9-7.21.38-7.32v-.38c.93,0,1.72,0,2.77,0s1.64,0,2.31,0v.38c-.93.11-1.2,1-3.19,8.22Z" transform="translate(-99.96 -233.77)"/></svg>