<svg xmlns="http://www.w3.org/2000/svg" viewBox="0 0 395.76 89.28"><defs><style>.a{fill:#fff;}.b{fill:#9d81b8;}.c{fill:#5b2d87;}.d{fill:#5c2c88;}.e{fill:#9687a6;}.f{fill:#9e8ab3;}.g{fill:#9e80b7;}.h{fill:#5c2d87;}.i{fill:#5b2c87;}.j{fill:#5b2c88;}.k{fill:#5a307f;}.l{fill:#5b2f7f;}.m{fill:#4f3966;}.n{fill:#59317e;}.o{fill:#503963;}.p{fill:#9886ac;}.q{fill:#9786a9;}.r{fill:#543572;}.s{fill:#523968;}.t{fill:#54366d;}.u{fill:#513968;}.v{fill:#5a307d;}.w{fill:#5b3481;}.x{fill:#9687a7;}.y{fill:#54356d;}.z{fill:#9d84b2;}.aa{fill:#9785ae;}.ab{fill:#563871;}.ac{fill:#55366d;}.ad{fill:#583c74;}</style></defs><title>st_lukes_w</title><path class="a" d="M499.21,366.9c-.75,0-.95.23-.95,1q0,15.57,0,31.16c0,.73.21,1,.95,1,1.59,0,3.19,0,4.79,0V366.88C502.4,366.89,500.8,366.94,499.21,366.9Z" transform="translate(-108.24 -352.24)"/><path class="a" d="M337.48,433.75a6.32,6.32,0,0,0,10.27-1.68,10.46,10.46,0,0,0,.25-8.72,6.11,6.11,0,0,0-6.55-3.79,6.69,6.69,0,0,0-4.41,2.25,3.84,3.84,0,0,1-.11-.45c-.07-1.52-.07-1.44-1.82-1.5-1.48-.06-1,1-1,1.62,0,6.68,0,13.36-.05,20H337v-7.94A.41.41,0,0,1,337.48,433.75Zm4.34-11.88c2,.16,3.44,1.7,3.77,4,.07.47.08,1,.11,1.24a7.24,7.24,0,0,1-1.05,4.3,3.79,3.79,0,0,1-6.36.17,7,7,0,0,1-.86-6.39A4.29,4.29,0,0,1,341.82,421.87Z" transform="translate(-108.24 -352.24)"/><path class="b" d="M130.12,361.35a1.29,1.29,0,0,0,.79.23H142.5c.2,0,.4,0,.51-.22h0c-.45-1-.1-2.08-.21-3.11a6.68,6.68,0,0,0-2.93-3.08c-.34-.19-.58-.45-.34-.72s.53.14.72.3c.91.79.9.8,1.13.09-1-1.55-2.71-2-4.34-2.59h-7l0,9.11Z" transform="translate(-108.24 -352.24)"/><path class="b" d="M116.09,388.25c.42,0,.88-.15,1.26.19h0c.05-.05.16-.09.16-.15q0-6,.06-12.09c0-.39-.18-.56-.58-.59-2.81-.2-6.39.68-7.8,3.74a4.71,4.71,0,0,1-1,3.13v5.76C110.86,388.24,113.48,388.23,116.09,388.25Z" transform="translate(-108.24 -352.24)"/><path class="c" d="M150.92,362c0,3.8,0,7.59,0,11.38,0,.71.15,1,.92,1,1.12-.07,2.24,0,3.36,0,.57,0,.77-.2.75-.76-.1-4.39.23-8.79-.21-13.16s-2.92-7.13-7.32-7.9c-.16,0-.3-.05-.36-.23h-1.44c0,.15,0,.37.11.43C150.05,354.92,150.9,358.25,150.92,362Z" transform="translate(-108.24 -352.24)"/><path class="d" d="M141.14,352.85A8.78,8.78,0,0,1,144.5,359h0a.91.91,0,0,1,.05,1.18q0,7.07,0,14.13c1.62-.13,3.28.26,4.89-.2h-1.55c-1,0-1,0-.52-1.19.3,1.37,1.31.87,2.09.95h0c0-4.75.29-9.51-.2-14.25a7.48,7.48,0,0,0-6.36-7.09c-.21-.05-.5.05-.6-.26h-1.44A.53.53,0,0,0,141.14,352.85Z" transform="translate(-108.24 -352.24)"/><path class="e" d="M117.35,388.44c-.38-.34-.84-.19-1.26-.19-2.61,0-5.23,0-7.85,0v.24l9.11,0Z" transform="translate(-108.24 -352.24)"/><path class="f" d="M109.19,379.35c-.56.52-.42,1.39-1,1.93v1.2A4.71,4.71,0,0,0,109.19,379.35Z" transform="translate(-108.24 -352.24)"/><path class="a" d="M374.11,400a35.13,35.13,0,0,1,3.84,0c.81,0,1-.26,1-1-.05-1.92,0-3.84,0-5.76,0-7.56,0-15.11,0-22.67,0-1.09-.31-1.38-1.34-1.3a23.9,23.9,0,0,1-3.59,0c-.93-.06-1.13.27-1.12,1.14.05,3.4,0,6.8,0,10.2,0,.78-.12,1.13-1,1.11-3.23-.07-6.47-.07-9.71,0-.93,0-1.23-.22-1.21-1.19.06-3.4,0-6.8,0-10.2,0-.76-.17-1.07-1-1a34.88,34.88,0,0,1-4,0c-.88-.05-1.14.2-1.13,1.12.05,4.75,0,9.51,0,14.27s0,9.52,0,14.28c0,.79.15,1.15,1,1.09,1.31-.07,2.64-.06,3.95,0,.83,0,1.1-.21,1.09-1.06,0-3.8,0-7.6,0-11.4,0-.77.19-1,1-1,3.28.05,6.56.06,9.84,0,.92,0,1.13.27,1.12,1.15,0,3.72,0,7.44,0,11.15C372.88,399.78,373.18,400,374.11,400Z" transform="translate(-108.24 -352.24)"/><path class="a" d="M430.59,407.54c0-3.26,0-6.52,0-9.82.55.08.73.48,1,.74a7.23,7.23,0,0,0,3.32,1.81c4.94,1.11,9.21-1.27,10.71-6.09a18.72,18.72,0,0,0,0-11.21,8.19,8.19,0,0,0-7.53-6.2,7.87,7.87,0,0,0-7.79,3.73c0-1.06,0-1.77,0-2.47s-.22-.82-.83-.8c-1.28,0-2.56,0-3.84,0-.68,0-.87.2-.87.88q0,15.12,0,30.22c0,.71.25.88.9.85,1.12,0,2.24,0,3.36,0C430.83,409.13,430.58,409.41,430.59,407.54ZM432,383.6a4.12,4.12,0,0,1,4.09-2.19,4,4,0,0,1,3.5,2.69,10.42,10.42,0,0,1,.86,4.57,10.17,10.17,0,0,1-1,4.61,4.13,4.13,0,0,1-3.72,2.59,4,4,0,0,1-3.84-2.23A10,10,0,0,1,432,383.6Z" transform="translate(-108.24 -352.24)"/><path class="a" d="M299.72,400a2.44,2.44,0,0,0-.69-1.24q-3.81-5.22-7.67-10.41a1.15,1.15,0,0,1,0-1.73c2.14-2.54,4.2-5.14,6.28-7.72.39-.48.76-1,1.28-1.62-2.06,0-3.85,0-5.64,0a2,2,0,0,0-1.88.92c-2,2.67-4,5.29-6,7.92l-.22-.11v-.6c0-5.79,0-11.59,0-17.39,0-.84-.21-1.11-1.06-1.06a25.12,25.12,0,0,1-3.47,0c-1.06-.09-1.27.33-1.26,1.28q0,15.48,0,30.95c0,.75.29.86.92.84,1.12,0,2.24,0,3.36,0,1.55,0,1.52,0,1.5-1.59,0-3,0-6,0-9.35.39.57.62.87.84,1.19l6,9c.23.35.38.79.95.79C295.25,400,297.46,400,299.72,400Z" transform="translate(-108.24 -352.24)"/><path class="a" d="M194.73,383.45c-2-1-4.11-1.75-6.11-2.73a3.17,3.17,0,0,1-2.08-3.55,3.84,3.84,0,0,1,2.89-3.32,8.48,8.48,0,0,1,3.44-.14,26.76,26.76,0,0,1,4.37,1.13c.18-1.47.32-2.82.5-4.16.08-.59,0-1-.69-1.13a21,21,0,0,0-9.72-.47,8.41,8.41,0,0,0-7,7.49,8.2,8.2,0,0,0,4.79,9.16c1.24.63,2.54,1.15,3.83,1.7a11.73,11.73,0,0,1,3,1.63,3.3,3.3,0,0,1-.23,5.42,6.58,6.58,0,0,1-4.2,1.1,15.37,15.37,0,0,1-6.26-1.85c-.18,1.68-.34,3.19-.52,4.69-.05.51-.07.91.59,1.08a25.19,25.19,0,0,0,8.54.94c3-.27,5.77-1,7.79-3.42A9,9,0,0,0,194.73,383.45Z" transform="translate(-108.24 -352.24)"/><path class="a" d="M404.36,388.81c0-7.16-4.68-12.08-11.55-12.08s-11.48,4.89-11.49,12,4.59,11.74,11.41,11.75S404.35,395.8,404.36,388.81Zm-16.14,4.05a10.65,10.65,0,0,1-.86-4.68,7.41,7.41,0,0,1,.41-2.81c.88-2.66,2.71-4,5.31-4a5.16,5.16,0,0,1,4.85,4.09,10.87,10.87,0,0,1-.54,7.47,5,5,0,0,1-9.17-.09Z" transform="translate(-108.24 -352.24)"/><path class="a" d="M275,400c.62,0,.82-.18.82-.81q0-10.56,0-21.12c0-.62-.19-.84-.82-.81-1.28,0-2.56.06-3.84,0-.89-.06-1.15.2-1.14,1.12q.07,5.34,0,10.67a8.51,8.51,0,0,1-1.51,5.1,4,4,0,0,1-4.2,1.66c-1.73-.32-2.4-1.53-2.72-3.09a13.21,13.21,0,0,1-.2-2.51c0-4,0-7.92,0-11.87,0-.84-.21-1.13-1.06-1.08-1.32.07-2.64,0-4,0-.57,0-.77.18-.76.76,0,5.07-.12,10.16.09,15.23.21,5.32,4.21,8.17,9.43,7a9.89,9.89,0,0,0,5.19-3.32c0,.88.05,1.44,0,2-.1.87.27,1.1,1.09,1.06C272.54,399.92,273.75,399.93,275,400Z" transform="translate(-108.24 -352.24)"/><path class="a" d="M318.69,385.24c-.85-5.08-3.6-7.85-8.54-8.41-4.13-.47-7.6.75-9.87,4.47a14.28,14.28,0,0,0-1.81,8.41c.17,3.4,1.19,6.43,4,8.6,3.41,2.62,10.83,2.94,14.53.66a1,1,0,0,0,.51-1c0-1.32,0-2.64,0-4.21a17,17,0,0,1-6.07,2.27c-3.57.52-6.5-1.19-7.3-4.31-.23-.91-.16-1.36,1-1.34,4.36.07,8.72,0,13.08,0,.71,0,1-.14.92-.93C319,388.1,318.92,386.65,318.69,385.24Zm-5.9,1.13c-1.36,0-2.71,0-4.06,0s-2.63,0-4,0c-.61,0-.81-.12-.73-.8a5,5,0,0,1,5-4.49c2.4.06,4.11,1.83,4.42,4.48C313.59,386.23,313.41,386.39,312.79,386.37Z" transform="translate(-108.24 -352.24)"/><path class="a" d="M493.91,385.92a17.1,17.1,0,0,0-.27-2.86,6.81,6.81,0,0,0-5.61-5.94,18.09,18.09,0,0,0-10.56,1,.9.9,0,0,0-.71,1c0,1.4,0,2.79,0,4.23a1.38,1.38,0,0,0,1.12-.39,11.77,11.77,0,0,1,5.38-1.84c3.15-.29,5,1.06,5.35,3.79.1.81-.08,1.13-1,1.11a31.6,31.6,0,0,0-6.8.33c-4.32.87-6.72,3.77-6.47,7.74.32,5.1,5.48,6.93,9,6.3a8.2,8.2,0,0,0,5.44-3.57,20.7,20.7,0,0,1,.21,2.29c0,.78.36.92,1,.89a24.86,24.86,0,0,1,3,0c.89.06,1.18-.18,1.11-1.13C493.86,394.55,493.92,390.23,493.91,385.92Zm-10.55,10.2c-1.89,0-3.12-.81-3.39-2.19a3.27,3.27,0,0,1,2.3-3.82,15.91,15.91,0,0,1,5.9-.63c.38,0,.47.22.47.54C488.66,393.25,486.82,396.16,483.36,396.12Z" transform="translate(-108.24 -352.24)"/><path class="a" d="M253.9,396.21c.1-.92-.26-1.17-1.13-1.16-3.12,0-6.24,0-9.36,0-1,0-1.18-.33-1.17-1.22,0-3.92,0-7.84,0-11.75s0-7.92,0-11.88c0-.77-.22-1.05-1-1-1.32.06-2.64,0-4,0-.75,0-1,.17-1,1q0,14.38,0,28.78c0,.84.27,1,1,1,4.27,0,8.55,0,12.83,0,1.19,0,2.77.39,3.47-.21S253.75,397.42,253.9,396.21Z" transform="translate(-108.24 -352.24)"/><path class="a" d="M422.12,392.82c-.05-2.91-1.48-4.87-4.45-6-1.15-.45-2.35-.77-3.51-1.22s-2.05-.85-2-2.23c.08-1.12.94-1.85,2.39-2.14a10.15,10.15,0,0,1,4.38.35c1.63.39,1.67.42,1.82-1.27.33-3.45.69-2.64-2.4-3.23a13,13,0,0,0-8.66.81,6.33,6.33,0,0,0-3.6,6.15,5.69,5.69,0,0,0,4.13,5.69c.57.2,1.13.4,1.7.58a17.32,17.32,0,0,1,2.69,1,2.31,2.31,0,0,1,1.44,2.16,2.4,2.4,0,0,1-1.66,2.28,6.46,6.46,0,0,1-3.29.34,16.19,16.19,0,0,1-4.44-1.4,20.2,20.2,0,0,1-.23,3.3c-.33,1.4.26,1.78,1.49,2,3.34.6,6.66,1,9.9-.42A6.66,6.66,0,0,0,422.12,392.82Z" transform="translate(-108.24 -352.24)"/><path class="a" d="M337.45,386.64c-1.15-.43-2.34-.77-3.49-1.22-.94-.36-1.72-.9-1.59-2.1a2.34,2.34,0,0,1,2-2.05,9.52,9.52,0,0,1,4.62.27c1.82.44,1.82.47,2-1.4.21-2.61.22-2.65-2.35-3.08-2.94-.49-5.89-.62-8.68.76A6.33,6.33,0,0,0,326.3,384a5.67,5.67,0,0,0,4.13,5.68c1.24.43,2.51.78,3.74,1.25,1.52.59,2.15,1.44,2.06,2.6s-.92,2-2.47,2.38a6.79,6.79,0,0,1-1.42.16,12.67,12.67,0,0,1-5.48-1.49c-.1,1.54-.16,2.93-.3,4.31,0,.48.14.67.53.76,3.22.74,6.45,1.23,9.71.29s5.31-3.32,5.44-6.24C342.4,390,341.07,388,337.45,386.64Z" transform="translate(-108.24 -352.24)"/><path class="a" d="M215.42,395.32c-4.25,1.21-5.42.31-5.42-3.9,0-2.72,0-5.44,0-8.16,0-1.88-.29-1.59,1.66-1.65,1.11,0,2.67.52,3.2-.2s.16-2.22.18-3.38v-.12c.06-.52-.18-.69-.69-.68-1.16,0-2.32,0-3.48,0-.68,0-.9-.19-.88-.87,0-1.52,0-3,0-4.56,0-.75-.1-1-.92-.7a32.28,32.28,0,0,1-3.75,1.24,1.28,1.28,0,0,0-1.12,1.58c.08,1,.37,2.39-.14,3s-2,.25-3.07.24c-.84,0-1.16.24-1.06,1.08.12,1.06-.45,2.43.24,3.12s2,.22,3,.19c.84,0,1.07.24,1.06,1.07q-.06,5.52,0,11a6.38,6.38,0,0,0,4.21,6.35,12.29,12.29,0,0,0,6.4.06c.46-.1.62-.29.58-.82C215.37,398,215.42,396.75,215.42,395.32Z" transform="translate(-108.24 -352.24)"/><path class="a" d="M471.35,395.82a3.4,3.4,0,0,1-1.19,0c-1.41-.27-2.13-1.33-2.15-3.29,0-3.28,0-6.56,0-9.83,0-.84.22-1.17,1-1.06a5.79,5.79,0,0,0,.72,0c3.53,0,3.52,0,3.34-3.58,0-.62-.21-.84-.83-.81-1.08,0-2.16-.05-3.24,0-.88.06-1.07-.28-1-1.09.06-1.71,0-3.43,0-5.33-1.87.63-3.52,1.2-5.2,1.72-.5.15-.57.44-.57.88,0,1,0,2.08,0,3.12,0,.52-.18.7-.69.68-.92,0-1.84,0-2.76,0-.49,0-.77.12-.76.65,0,1.19-.31,2.57.18,3.52.35.69,1.84.11,2.82.22h.24c.79-.11,1,.25,1,1,0,3.64,0,7.28,0,10.91,0,3.33,1.73,5.83,4.52,6.62a12.63,12.63,0,0,0,6.05,0c.43-.09.72-.26.68-.79-.11-1.31-.17-2.62-.25-3.95C472.58,395.54,472,395.72,471.35,395.82Z" transform="translate(-108.24 -352.24)"/><path class="a" d="M253.78,424.73v-8.64c0-1.9,0-1.83-1.87-1.92-1,0-1.19.33-1.17,1.23.06,2.23,0,4.47,0,6.71,0,.67-.18.91-.88.91q-4.14-.06-8.27,0c-.69,0-.9-.22-.89-.9,0-2,0-3.92,0-5.88s0-2.06-2.1-2.06c-.73,0-1,.2-1,.94q0,9.53,0,19.07c0,.85.28,1.17,1.1,1.06a2.63,2.63,0,0,1,.84,0c.92.15,1.14-.25,1.12-1.14-.06-2.51,0-5,0-7.55,0-.67.18-.9.87-.89q4.14,0,8.28,0c.68,0,.9.19.89.88,0,2.27,0,4.55,0,6.83,0,1.89,0,1.83,1.93,1.89.95,0,1.12-.33,1.11-1.18C253.75,431,253.78,427.85,253.78,424.73Z" transform="translate(-108.24 -352.24)"/><path class="a" d="M455.48,388.68c0-3.47,0-6.95,0-10.43,0-.77-.18-1.07-1-1-1.36.06-2.72,0-4.08,0-.65,0-.83.22-.8.84.05,1,0,1.92,0,2.88q0,8.87-.05,17.75c0,.79,0,1.4,1.12,1.3a25.66,25.66,0,0,1,3.72,0c.88,0,1.06-.29,1.05-1.1C455.46,395.48,455.48,392.08,455.48,388.68Z" transform="translate(-108.24 -352.24)"/><path class="a" d="M314.88,419.74a6.36,6.36,0,0,0-6.82,2.2c0-2.84,0-5.38,0-7.93,0-.95-.11-1.51-1.28-1.35-.86.11-1.72-.26-1.7,1.29.11,6.79.08,13.59.06,20.38,0,.76.23,1,.95.92a3.43,3.43,0,0,1,1,0c.83.12,1-.27,1-1,0-1.92,0-3.84,0-5.76a8.27,8.27,0,0,1,1.11-4.82,3.83,3.83,0,0,1,3.94-1.73,3,3,0,0,1,2.56,2.91,13.42,13.42,0,0,1,.18,1.78c0,2.2,0,4.4,0,6.59s0,2.23,2.21,2.06c.53,0,.68-.23.68-.72,0-3.24.06-6.48-.05-9.71C318.58,422.17,317.07,420.22,314.88,419.74Z" transform="translate(-108.24 -352.24)"/><path class="a" d="M441.15,420.94c-2.08-1.75-4.57-1.8-7-.93-3.22,1.14-5,4.7-4.44,8.67s2.35,6.09,5.75,6.73a10.38,10.38,0,0,0,4.64-.07c2.95-.78,2.29-.29,2.37-3.13,0-.07,0-.14-.12-.37A12.36,12.36,0,0,1,439.5,433c-3.1.82-5.84-.63-6.64-3.48-.27-.93-.19-1.37,1-1.34,3,.06,5.92,0,8.87,0,.38,0,.86.17.86-.5C443.55,425.16,443.21,422.67,441.15,420.94ZM439.64,426c-1,0-2.07,0-3.11,0v0c-1,0-2.06,0-3.1,0-.31,0-.73.14-.68-.5a4.24,4.24,0,0,1,3.81-3.68,3.72,3.72,0,0,1,3.87,3.17C440.56,425.74,440.45,426.07,439.64,426Z" transform="translate(-108.24 -352.24)"/><path class="a" d="M265.81,419.89c-5.27-1.66-9.93,2.07-9.65,7.71.22,4.53,2.08,7.06,5.8,7.81a12.86,12.86,0,0,0,4.06.07c2.87-.34,3.06-.59,2.94-3.69A12.81,12.81,0,0,1,266,433c-3.17.81-5.88-.7-6.64-3.63-.23-.89-.09-1.22.9-1.2,2.28.06,4.55,0,6.83,0,3.48,0,3.48,0,2.69-3.52C269.27,422.43,268.17,420.63,265.81,419.89Zm.41,6.15c-1,0-2.08,0-3.12,0H260c-.43,0-.75,0-.63-.65a4.11,4.11,0,0,1,3.84-3.51A3.74,3.74,0,0,1,267,425C267.16,425.75,267,426.07,266.22,426Z" transform="translate(-108.24 -352.24)"/><path class="a" d="M280.62,419.74a9.79,9.79,0,0,0-5.2.28c-2.17.74-2.25.87-1.77,3.32a7.56,7.56,0,0,1,4.94-1.46,3,3,0,0,1,2.89,2c.61,1.66.46,1.88-1.25,1.88-.56,0-1.12,0-1.68,0a9.31,9.31,0,0,0-5.09,1.52c-2.69,2-2.43,6.4.56,7.69a6.62,6.62,0,0,0,7.41-.9c.16-.14.24-.44.56-.3.1,1.55.1,1.55,1.71,1.51h.36c.45,0,.63-.14.63-.62,0-3.28,0-6.56-.11-9.84C284.45,422,283,420.24,280.62,419.74Zm1.12,10a4,4,0,0,1-5.05,3.36,2.35,2.35,0,0,1-1.92-2,2.29,2.29,0,0,1,1.45-2.49,8.39,8.39,0,0,1,3.52-.73C281.86,427.88,281.94,428,281.74,429.76Z" transform="translate(-108.24 -352.24)"/><path class="a" d="M417.22,429.66c0-1.83,0-3.68-.11-5.5a4.65,4.65,0,0,0-3.88-4.43,9.81,9.81,0,0,0-5.64.46c-1.7.66-1.93,1.23-1.23,3.08a7.58,7.58,0,0,1,4.85-1.39,3,3,0,0,1,3,2.18c.42,1.43.25,1.68-1.21,1.65-2.29,0-4.55.06-6.58,1.33a4.41,4.41,0,0,0-2,4.75,4,4,0,0,0,3.16,3.49c2.62.66,5.07.43,7-1.72.1.09.15.11.15.13.11,1.59.11,1.55,1.76,1.57.71,0,1-.14.93-.93C417.24,432.78,417.25,431.22,417.22,429.66Zm-2.88-.6c0,3-2.36,4.82-5,4.06a2.43,2.43,0,0,1-2-2.15,2.27,2.27,0,0,1,1.49-2.36,9.76,9.76,0,0,1,4.9-.68C414.71,428,414.23,428.72,414.34,429.06Z" transform="translate(-108.24 -352.24)"/><path class="g" d="M166.32,378.1c-.11-1.09.24-2.21-.32-3.27-.27-.49.16-.48.48-.51h0c-.1-.06-.2-.16-.3-.16l-8.27,0c-.6,0-.72.29-.72.82,0,3.95,0,7.9.05,11.85,1.09.11,2.22-.23,3.3.19h0a7,7,0,0,0,6-6.93C166.12,379.44,166.39,378.75,166.32,378.1Z" transform="translate(-108.24 -352.24)"/><path class="b" d="M143.52,401.16c-3.23,0-6.46,0-9.69,0-2.11,0-2.11,0-2.1,2.16a6.87,6.87,0,0,0,5.92,7,34.24,34.24,0,0,0,6.56.15c-.52-.5.09-1,.07-1.46-.09-1.91-.05-3.82,0-5.73,0-.38-.14-.8.22-1.12h0C144.66,401.35,144.29,401.15,143.52,401.16Z" transform="translate(-108.24 -352.24)"/><path class="a" d="M370.81,420.82c0-.71-.14-1.05-.91-.94a3.85,3.85,0,0,1-1,0c-.88-.14-1.06.26-1,1.07.06,2.2,0,4.4,0,6.6a7.46,7.46,0,0,1-.75,3.35,4,4,0,0,1-4.45,2.26c-1.48-.28-2.32-1.45-2.49-3.5-.23-2.6-.11-5.19-.13-7.79,0-2.22,0-2.22-2.24-2-.43,0-.64.14-.63.63.06,3.39-.18,6.79.13,10.18a4.87,4.87,0,0,0,3.79,4.69A6.28,6.28,0,0,0,368,433a8.11,8.11,0,0,1,0,1.17c-.2,1.16.55,1.1,1.3,1s1.52.36,1.5-1C370.76,429.78,370.78,425.3,370.81,420.82Z" transform="translate(-108.24 -352.24)"/><path class="h" d="M162.48,393.74l-.67.28c-.51.42-1.21.32-1.76.64h0c-.34.48-.75.35-1.17.11l-1.69,0h0c-.75.06-1.49.15-2.24.16-3.41,0-6.82,0-10.23.06-.1,1.59.2,3.19-.16,4.77h0c.06.05.12.14.18.14,4.52,0,9,.27,13.54-.16,5.27-.51,8.47-4.22,8.07-9.09l-.26,0A7.54,7.54,0,0,1,162.48,393.74Z" transform="translate(-108.24 -352.24)"/><path class="h" d="M157.19,394.75c.2,0,.4-.08.59-.12A2.14,2.14,0,0,0,157.19,394.75Z" transform="translate(-108.24 -352.24)"/><path class="i" d="M165.6,389.2a13.09,13.09,0,0,0,.85-4.36c-.32-.08-.4.15-.52.29a8.81,8.81,0,0,1-7.32,3.36c-4.55,0-9.09.05-13.64.08a11,11,0,0,0,0,4.91h0l12.48,0,.73-.22h0c.53-.51,1.17-.19,1.76-.24l.38,0,.45-.09A8.18,8.18,0,0,0,165.6,389.2Z" transform="translate(-108.24 -352.24)"/><path class="d" d="M130.31,401.64c0-4.3,0-8.61,0-12.91-1.58-.13-3.18.22-4.76-.19h0c-.06.08-.19.16-.19.25.07,4.77-.28,9.55.22,14.31.37,3.6,2.32,6,5.22,6.82.11-.3-.12-.92.29-.86a1.33,1.33,0,0,1,.94,1.19,5.42,5.42,0,0,0,2.27.08C131.05,408.13,130.28,405.08,130.31,401.64Z" transform="translate(-108.24 -352.24)"/><path class="i" d="M124.1,403.2c-.14-1.59-.19-3.19-.21-4.78,0-3.08,0-6.15-.06-9.23h0a1.3,1.3,0,0,0-1.13-.48c-1.14,0-2.28,0-3.42,0,.06,4.32-.13,8.65.09,13a3,3,0,0,1-.22.91c.76,5.12,4.89,8.66,9,7.64l-.81-.71A9.2,9.2,0,0,1,124.1,403.2Z" transform="translate(-108.24 -352.24)"/><path class="j" d="M108.7,377.91a8.64,8.64,0,0,1,7.65-3.63q6.41,0,12.82,0c.36,0,.79.22,1.09-.19H116.17v-.24h10.62c.6,0,1.3.16,1.26-1,.45,1.42,1.44,1,2.23,1v-4.32H118.62c-.42,0-.88.14-1.26-.18h0q-7.77.09-8.92,7.15h0C108.66,376.93,108.1,377.53,108.7,377.91Z" transform="translate(-108.24 -352.24)"/><path class="i" d="M108.48,372.16c1.32-1.48,2.67-3,4.64-3.56,1-.32,2.07-.49,3.11-.72a1,1,0,0,1,.87-.28h13.18v-4.32H117.84c-.56-.08-1.15.19-1.67-.19h0c-4.59.63-7.14,3.14-7.73,7.63h0C108.45,371.2,108.46,371.68,108.48,372.16Z" transform="translate(-108.24 -352.24)"/><path class="a" d="M298.8,429.65c0-1.4,0-2.8,0-4.2,0-1.06-.47-2.47.22-3.08s2-.16,3-.19c.16,0,.32,0,.48,0a.35.35,0,0,0,.34-.26,1.36,1.36,0,0,0-1.33-2.05c-.64,0-1.28,0-1.92,0s-.85-.17-.82-.81c0-.95,0-1.91,0-2.87,0-.23.17-.72-.26-.63a9.6,9.6,0,0,0-2.38.77c-.49.24-.21.86-.22,1.31,0,2.2,0,2.26-2.27,2.2-1,0-1.15.34-1.17,1.22s.29,1.22,1.16,1.11c.43-.06.88,0,1.32,0,.8-.09,1,.26,1,1-.05,2.55,0,5.11,0,7.67,0,3.3,1.51,4.77,4.8,4.68,2.9-.08,2.45-.21,2.3-2.66C299.93,433.76,298.8,432.9,298.8,429.65Z" transform="translate(-108.24 -352.24)"/><path class="a" d="M380.29,426.7a14.67,14.67,0,0,1-2.86-1.49,1.83,1.83,0,0,1-.73-1.79,1.71,1.71,0,0,1,1.36-1.35,3.41,3.41,0,0,1,2-.1c.72.2,1.45.36,2.22.55.08-.61.15-1.21.25-1.79A.61.61,0,0,0,382,420a9.16,9.16,0,0,0-5.53,0,4.15,4.15,0,0,0-2.83,3.54,3.79,3.79,0,0,0,2,4.1c1.11.64,2.26,1.19,3.37,1.82a1.89,1.89,0,0,1,1.11,2.06,2.06,2.06,0,0,1-1.81,1.67,6.39,6.39,0,0,1-3.73-.54c-.23-.09-.45-.41-.74-.11a2.18,2.18,0,0,0,.61,2.62,9.42,9.42,0,0,0,5,.32,4.51,4.51,0,0,0,3.83-4.89C383.18,428.56,381.9,427.5,380.29,426.7Z" transform="translate(-108.24 -352.24)"/><path class="a" d="M400.91,422.23c.24.06.8.56.82-.09s.84-1.77-.18-2.13c-2.86-1-6.86-.73-9.13,2.32a8.27,8.27,0,0,0-.8,9.05c1.46,3,4,4.27,7.33,4.19,3.08-.07,3.26-.2,2.95-3.09-.48.18-.84.35-1.22.46-2,.58-3.9.44-5.42-1.16a6.71,6.71,0,0,1-.55-7.62C396,422.05,398,421.45,400.91,422.23Z" transform="translate(-108.24 -352.24)"/><path class="a" d="M289.68,412.67a1.75,1.75,0,0,1-.72,0c-.93-.17-1.12.25-1.11,1.12,0,3.35,0,6.71,0,10.06h0c0,3.47,0,6.95,0,10.42,0,.68.14,1,.92,1,2.4-.08,2,.25,2-1.93,0-.68,0-1.35,0-2,0-5.83,0-11.66,0-17.49C290.8,413,290.63,412.5,289.68,412.67Z" transform="translate(-108.24 -352.24)"/><path class="a" d="M352.52,412.67c-.81,0-1.49-.15-1.47,1.15.07,6.56,0,13.12,0,19.68,0,2-.31,1.65,1.79,1.76,1,.05,1.11-.32,1.1-1.16,0-3.36,0-6.72,0-10.08s-.07-6.8,0-10.2C354,412.52,353.33,412.67,352.52,412.67Z" transform="translate(-108.24 -352.24)"/><path class="a" d="M323.82,378.61c.59.05.85-.21,1-.74q1.69-4.78,3.42-9.55c.19-.54.13-.79-.53-.77-1.52,0-3,.07-4.55,0-.83,0-1.08.3-1.25,1-.58,2.52-1.22,5-1.84,7.54s-.63,2.5,1.93,2.49C322.63,378.6,323.23,378.57,323.82,378.61Z" transform="translate(-108.24 -352.24)"/><path class="a" d="M427.34,419.52c-1.91-.06-3.23.86-4.41,2.51-.11-2.18-.11-2.14-1.75-2.17-.79,0-1,.24-1,1,.05,2.11,0,4.23,0,6.34s0,4.23,0,6.35c0,1.95-.22,1.59,1.62,1.69,1,.05,1.32-.19,1.28-1.22-.09-2,0-4.07,0-6.11A7.74,7.74,0,0,1,424,424a3.34,3.34,0,0,1,3.66-1.9c1.14.22,1-.28,1.1-1.06C428.9,419.88,428.45,419.56,427.34,419.52Z" transform="translate(-108.24 -352.24)"/><path class="a" d="M224.6,393.93c-.57-.48-1.82-.18-2.77-.16s-2.18-.41-2.77.16-.1,1.89-.22,2.7,0,1.69,0,2.44.16.93.87.91c1.39-.05,2.79-.06,4.18,0,.84,0,1-.3,1-1.05s0-1.43,0-2.15C224.78,395.8,225.29,394.5,224.6,393.93Z" transform="translate(-108.24 -352.24)"/><path class="a" d="M452.27,367.57c-2.65,0-2.65,0-2.65,2.69,0,2.9,0,2.9,2.91,2.9h.6c2.36,0,2.38,0,2.35-2.4,0-1,.44-2.35-.21-3S453.29,367.58,452.27,367.57Z" transform="translate(-108.24 -352.24)"/><path class="a" d="M323.81,431.78c-1.13-.31-1.61.34-1.84,1.57-.32,1.64-.83,3.24-1.24,4.86-.08.3-.26.64,0,.91.41.46,2.58,0,2.8-.63.58-1.65,1.14-3.32,1.72-5S325.84,431.76,323.81,431.78Z" transform="translate(-108.24 -352.24)"/><path class="a" d="M447.35,431.78c-.93,0-1.89-.28-1.75,1.36.19,2.41-.21,2.08,1.46,2.1,2,0,2,0,2-1.65C449,431.78,449,431.78,447.35,431.78Z" transform="translate(-108.24 -352.24)"/><path class="k" d="M117.84,363.28h12.44c0-.8-.65-.42-1-.42q-4.91,0-9.83,0a3.32,3.32,0,0,0-1.65.16Z" transform="translate(-108.24 -352.24)"/><path class="a" d="M453.32,420.94a1.43,1.43,0,0,1-.22.11,8.34,8.34,0,0,0-.48-1.09c-.24-.41-.78-.54-.88-.06a6.15,6.15,0,0,0,.08,2.68c.52-.61.3-1.08.44-1.52.54.35.28,1.23.91,1.24s.35-.93.91-1.19c0,.35,0,.67.06,1a.35.35,0,0,0,.23.21.38.38,0,0,0,.28-.15,4.35,4.35,0,0,0-.23-2.48C453.43,419.54,453.69,420.52,453.32,420.94Z" transform="translate(-108.24 -352.24)"/><path class="l" d="M128.05,372.81c0,1.19-.66,1-1.26,1H116.17v.24h14.09l0-.24C129.49,373.77,128.5,374.23,128.05,372.81Z" transform="translate(-108.24 -352.24)"/><path class="m" d="M116.23,367.88q6.57,0,13.13-.05c.3,0,.71.22.92-.23H117.1A1,1,0,0,0,116.23,367.88Z" transform="translate(-108.24 -352.24)"/><path class="n" d="M119.28,388.73H119l.16-.05a.17.17,0,0,0-.16.05c0,2.24-.08,4.48-.07,6.71a52.11,52.11,0,0,0,.21,7.18,3,3,0,0,0,.22-.91C119.15,397.38,119.34,393.05,119.28,388.73Z" transform="translate(-108.24 -352.24)"/><path class="o" d="M118.62,369.51h11.66c0-.28-.27-.24-.45-.24l-12.47.05h0C117.74,369.65,118.2,369.51,118.62,369.51Z" transform="translate(-108.24 -352.24)"/><path class="p" d="M144.25,403.29c0,1.91-.06,3.82,0,5.73,0,.5-.59,1-.07,1.46.38-.1.29-.43.29-.68,0-2.55,0-5.09,0-7.63h0C144.11,402.49,144.25,402.91,144.25,403.29Z" transform="translate(-108.24 -352.24)"/><path class="a" d="M448.87,419.89c.47.27,1,.35.88,1.09-.06.42-.25,1,.3,1.4.54-.81-.46-2.1,1.29-2.51A3.35,3.35,0,0,0,448.87,419.89Z" transform="translate(-108.24 -352.24)"/><path class="q" d="M166.48,374.32c-.32,0-.75,0-.48.51.56,1.06.21,2.18.32,3.27.07.65-.2,1.34.19,2a50,50,0,0,0,0-5.74Z" transform="translate(-108.24 -352.24)"/><path class="r" d="M145,388.57c-.27-.07-.48,0-.48.3,0,1.43,0,2.86,0,4.29,0,.35.22.36.48.32h0A11,11,0,0,1,145,388.57Z" transform="translate(-108.24 -352.24)"/><path class="s" d="M119.28,388.73c1.14,0,2.28,0,3.42,0a1.3,1.3,0,0,1,1.13.48h0c0-.25.18-.69-.2-.67-1.49.06-3-.31-4.46.15l-.16.05Z" transform="translate(-108.24 -352.24)"/><path class="t" d="M144.72,395c-.51,1.58-.19,3.18-.16,4.77h0C144.92,398.16,144.62,396.56,144.72,395Z" transform="translate(-108.24 -352.24)"/><path class="u" d="M130.28,388.73c-1.56-.53-3.17-.17-4.76-.19h0C127.1,389,128.7,388.6,130.28,388.73Z" transform="translate(-108.24 -352.24)"/><path class="v" d="M147.39,372.89c-.44,1.17-.44,1.17.52,1.19h1.55l0-.24h0C148.7,373.76,147.69,374.26,147.39,372.89Z" transform="translate(-108.24 -352.24)"/><path class="w" d="M131.06,409.06c-.41-.06-.18.56-.29.86l1.23.33A1.33,1.33,0,0,0,131.06,409.06Z" transform="translate(-108.24 -352.24)"/><path class="x" d="M157.24,386.8c1.07.55,2.2.18,3.3.19h0C159.46,386.57,158.33,386.91,157.24,386.8Z" transform="translate(-108.24 -352.24)"/><path class="y" d="M117.84,363.28l0-.27-1.65.08h0C116.69,363.47,117.28,363.2,117.84,363.28Z" transform="translate(-108.24 -352.24)"/><path class="z" d="M143,358.24h0a5.84,5.84,0,0,0-1.6-3.41c-.23.71-.22.7-1.13-.09-.19-.16-.38-.68-.72-.3s0,.53.34.72a6.68,6.68,0,0,1,2.93,3.08Z" transform="translate(-108.24 -352.24)"/><path class="aa" d="M143,358.24h-.18c.11,1-.24,2.1.21,3.11h0A14.7,14.7,0,0,0,143,358.24Z" transform="translate(-108.24 -352.24)"/><path class="ab" d="M144.5,359h0c0,.39,0,.78.05,1.18A.91.91,0,0,0,144.5,359Z" transform="translate(-108.24 -352.24)"/><path class="ac" d="M160.05,394.66h0l-1.17.11C159.3,395,159.71,395.14,160.05,394.66Z" transform="translate(-108.24 -352.24)"/><path class="ad" d="M159.93,393.07c-.59.05-1.23-.27-1.76.24h0A3.21,3.21,0,0,0,159.93,393.07Z" transform="translate(-108.24 -352.24)"/></svg>