<svg xmlns="http://www.w3.org/2000/svg" viewBox="0 0 558.55 261.78"><defs><style>.a,.c,.d{fill:#e82c2d;}.a,.c{stroke:#e82c2d;stroke-miterlimit:10;}.a{stroke-width:2.75px;}.b{fill:#d8d8d8;}.c{stroke-width:1.75px;}</style></defs><title>toledo_clinic_w</title><path class="a" d="M446.3,410.7c-5,14.69-19.91,26-38.2,26A41.55,41.55,0,0,1,366,394.81c0-22.09,17.08-41.68,42-41.68a41,41,0,0,1,38.42,26.44h-13.6a28.51,28.51,0,0,0-24.92-15.12c-17.09,0-29.06,14-29.06,30.36,0,16.76,12.19,30.58,29.16,30.58,15.57,0,23.08-11.75,24.82-14.69Z" transform="translate(-115.73 -176.52)"/><path class="a" d="M461.83,354.65h11.32v80.53H461.83Z" transform="translate(-115.73 -176.52)"/><path class="a" d="M488.39,354.65H499.7v12H488.39Zm0,21.33H499.7v59.2H488.39Z" transform="translate(-115.73 -176.52)"/><path class="a" d="M514.94,376H525.6v9.14c2.83-6.09,9.47-11,20-10.88,18.93.22,23.94,13.93,23.94,26.23v34.71H558.14v-32.1c0-10.67-4.13-18.28-15.67-18.17-11.1.1-16.21,7.07-16.21,17.3v33H514.94Z" transform="translate(-115.73 -176.52)"/><path class="a" d="M584.58,354.65H595.9v12H584.58Zm0,21.33H595.9v59.2H584.58Z" transform="translate(-115.73 -176.52)"/><path class="a" d="M672.47,414.4a30.81,30.81,0,0,1-30,22.52c-19.37,0-31.67-14.9-31.67-31.34,0-17.52,13.39-31.34,31.13-31.34,14.14,0,26.88,8.71,30.58,23H660.82a19.38,19.38,0,0,0-18.5-12.4,19.09,19.09,0,0,0-14.47,5.77,21.52,21.52,0,0,0-5.77,15c0,12.19,8.92,20.79,20.24,20.79,9.91-.11,16.11-6.1,18.5-12Z" transform="translate(-115.73 -176.52)"/><path class="b" d="M268.31,182.92H257.85v-6.4h28.2v6.4H275.58v39.16h-7.27Z" transform="translate(-115.73 -176.52)"/><path class="b" d="M293.27,176.52h6.4v16.75c2-4,6.53-5.73,10.9-5.67,5.23,0,8.55,1.72,10.71,4.68s2.89,6.9,2.89,11.51v18.29h-6.46v-18c0-3-.56-5.66-1.91-7.51s-3.69-3-7-3-5.72,1.3-7.08,3.08a10.55,10.55,0,0,0-2,6.47v18.9h-6.4Z" transform="translate(-115.73 -176.52)"/><path class="b" d="M338.09,207.36c.31,6.78,6.22,10.23,11.27,10.23a10.39,10.39,0,0,0,9.66-5.67h6.65a18.41,18.41,0,0,1-6.77,8.31,17,17,0,0,1-9.54,2.84,17.74,17.74,0,1,1,12.31-30.54,18.06,18.06,0,0,1,5.05,14.83Zm22.29-5c-.31-4.44-4.74-9.42-11.09-9.3-6.52,0-10.77,4.74-11.08,9.3Z" transform="translate(-115.73 -176.52)"/><path class="c" d="M279.69,253.26H258.36v-13h57.48v13H294.5v79.82H279.69Z" transform="translate(-115.73 -176.52)"/><path class="c" d="M312.2,298.82c0-18.2,13.43-36,36.4-36S385,280.62,385,298.94s-13.42,36-36.39,36-36.4-17.69-36.4-36Zm13.06.25c0,13.55,10.29,23.72,23.34,23.72s23.34-10.17,23.34-23.85S361.65,275.1,348.6,275.1s-23.34,10.16-23.34,23.84Z" transform="translate(-115.73 -176.52)"/><path class="c" d="M399.93,240.21H413v92.87H399.93Z" transform="translate(-115.73 -176.52)"/><path class="c" d="M441.09,303.08c.63,13.81,12.67,20.84,23,20.84,9.16,0,15.93-4.39,19.7-11.55h13.55a37.6,37.6,0,0,1-13.8,16.95,34.63,34.63,0,0,1-19.45,5.77c-22.34,0-36.15-17.95-36.15-36,0-19.58,15.31-36.27,36-36.27a35.7,35.7,0,0,1,25.23,10c8,8.16,11.42,18.82,10.29,30.24Zm45.43-10.16c-.63-9-9.66-19.2-22.59-18.95-13.3,0-22,9.66-22.59,18.95Z" transform="translate(-115.73 -176.52)"/><path class="c" d="M586,333.08H573.48V321.16c-3.76,7-11.42,13.93-25.47,13.93-21.46,0-35-16.57-35-36.27,0-21.21,15.31-36,34.77-36,13.93,0,22.46,7.78,25.22,13.18V240.21h13Zm-60-34.14c.13,12.55,8.91,24,24,24a23.87,23.87,0,0,0,17.07-7.15,22.76,22.76,0,0,0,6.65-17.19,23.15,23.15,0,0,0-6.9-16.82A23.48,23.48,0,0,0,550,275c-14.43,0-24,11-24,23.85Z" transform="translate(-115.73 -176.52)"/><path class="c" d="M600.09,298.82c0-18.2,13.43-36,36.4-36s36.4,17.82,36.4,36.14-13.43,36-36.4,36-36.4-17.69-36.4-36Zm13.06.25c0,13.55,10.29,23.72,23.34,23.72s23.34-10.17,23.34-23.85-10.29-23.84-23.34-23.84-23.34,10.16-23.34,23.84Z" transform="translate(-115.73 -176.52)"/><rect class="d" y="0.25" width="24.74" height="24.74"/><rect class="d" x="44.23" y="0.24" width="24.74" height="24.74"/><rect class="d" x="88.46" y="0.24" width="24.74" height="24.74"/><rect class="b" y="44.47" width="24.74" height="24.74"/><rect class="d" x="44.23" y="44.47" width="24.74" height="24.74"/><rect class="b" y="88.7" width="24.74" height="24.74"/><rect class="d" x="44.23" y="88.7" width="24.74" height="24.74"/><rect class="b" y="132.93" width="24.74" height="24.74"/><rect class="d" x="44.23" y="132.93" width="24.74" height="24.74"/><rect class="b" x="88.46" y="132.93" width="24.74" height="24.74"/><rect class="b" x="88.46" y="44.47" width="24.74" height="24.74"/></svg>