<svg xmlns="http://www.w3.org/2000/svg" viewBox="0 0 342.48 125.53"><defs><style>.a,.am{fill:none;}.b{fill:#1e2f5b;}.c{fill:#1f305b;}.d{fill:#1d2e5b;}.e{fill:#1e2f57;}.f{fill:#243151;}.g{fill:#2a324f;}.h{fill:#29334e;}.i{fill:#b24746;}.j{fill:#2a3249;}.k{fill:#34477a;}.l{fill:#2b3e6e;}.m{fill:#435386;}.n{fill:#465a8b;}.o{fill:#30497c;}.p{fill:#1f2f5b;}.q{fill:#c02436;}.r{fill:#1e305b;}.s{fill:#1e305c;}.t{fill:#21315c;}.u{fill:#1d315c;}.v{fill:#192f58;}.w{fill:#20315b;}.x{fill:#2e3553;}.y{fill:#253053;}.z{fill:#303247;}.aa{fill:#2a3459;}.ab{fill:#21315a;}.ac{fill:#2b324f;}.ad{fill:#363b56;}.ae{fill:#b7383f;}.af{fill:#2d3652;}.ag{fill:#7483ab;}.ah{fill:#2b3452;}.ai{fill:#2e3750;}.aj{fill:#b6c7e1;}.ak{fill:#2f3247;}.al{fill:#31384e;}.am{stroke:#f3f1ef;stroke-linecap:round;stroke-linejoin:round;stroke-width:0;}.an{fill:#32364f;}.ao{fill:#a1615b;}.ap{fill:#303448;}.aq{fill:#2d3554;}.ar{fill:#263359;}.as{fill:#313548;}.at{fill:#20325a;}.au{fill:#30334e;}.av{fill:#353854;}.aw{fill:#2e3552;}.ax{fill:#30375a;}.ay{fill:#2b3259;}.az{fill:#303447;}.ba{fill:#26314a;}.bb{fill:#3b3d51;}.bc{fill:#b2293e;}.bd{fill:#343055;}.be{fill:#3d3861;}.bf{fill:#4f2d4a;}.bg{fill:#644062;}.bh{fill:#7c3652;}.bi{fill:#753755;}.bj{fill:#714859;}.bk{fill:#623657;}.bl{fill:#793758;}.bm{fill:#30384b;}.bn{fill:#313248;}.bo{fill:#1c2b56;}.bp{fill:#2a314b;}.bq{fill:#2d324b;}.br{fill:#243154;}.bs{fill:#57699e;}.bt{fill:#292e45;}.bu{fill:#34374e;}.bv{fill:#1f2f5d;}.bw{fill:#2f3655;}.bx{fill:#2f3446;}.by{fill:#32344c;}.bz{fill:#5f2c4b;}.ca{fill:#2e354b;}.cb{fill:#663c61;}.cc{fill:#ab2941;}.cd{fill:#aa3042;}.ce{fill:#403155;}.cf{fill:#b4223b;}.cg{fill:#172c51;}.ch{fill:#573b5f;}.ci{fill:#43294b;}.cj{fill:#66203d;}.ck{fill:#512546;}.cl{fill:#6b2f47;}.cm{fill:#70415f;}.cn{fill:#6c3b5f;}.co{fill:#b92a37;}.cp{fill:#5e3850;}.cq{fill:#b73b3e;}.cr{fill:#bc2c32;}.cs{fill:#b14e4b;}.ct{fill:#533559;}.cu{fill:#863e5e;}.cv{fill:#7d3951;}.cw{fill:#6a3359;}.cx{fill:#793853;}.cy{fill:#523756;}.cz{fill:#984543;}.da{fill:#2e3348;}.db{fill:#392e55;}.dc{fill:#993346;}.dd{fill:#964443;}.de{fill:#60253e;}.df{fill:#934746;}.dg{fill:#7e415d;}.dh{fill:#453960;}.di{fill:#72304b;}.dj{fill:#9a4042;}.dk{fill:#592a43;}.dl{fill:#b66560;}.dm{fill:#79405d;}.dn{fill:#929fc8;}.do{fill:#3d3e55;}.dp{fill:#2c375a;}.dq{fill:#253458;}.dr{fill:#243053;}.ds{fill:#253250;}.dt{fill:#33334d;}.du{fill:#3b4465;}.dv{fill:#2b3048;}.dw{fill:#2d3042;}.dx{fill:#282b45;}.dy{fill:#252f4a;}.dz{fill:#303559;}.ea{fill:#313753;}.eb{fill:#223150;}.ec{fill:#2a3248;}.ed{fill:#25315a;}.ee{fill:#394261;}.ef{fill:#363d5a;}.eg{fill:#2e344c;}.eh{fill:#1f2c51;}.ei{fill:#333950;}.ej{fill:#2c3353;}.ek{fill:#232f54;}.el{fill:#212f56;}.em{fill:#2f334d;}.en{fill:#253161;}.eo{fill:#212f52;}.ep{fill:#2d3551;}.eq{fill:#243158;}.er{fill:#36384f;}.es{fill:#223152;}.et{fill:#2a304b;}.eu{fill:#2d3144;}.ev{fill:#2f3347;}.ew{fill:#2b304f;}.ex{fill:#2a3048;}.ey{fill:#1e325f;}.ez{fill:#2f3754;}.fa{fill:#302f47;}.fb{fill:#343a56;}.fc{fill:#2f3349;}.fd{fill:#2c324e;}.fe{fill:#3c4464;}.ff{fill:#22325d;}.fg{fill:#202d55;}.fh{fill:#27355b;}.fi{fill:#32334a;}.fj{fill:#31364f;}.fk{fill:#352a4f;}.fl{fill:#383b53;}.fm{fill:#3e4059;}.fn{fill:#233151;}</style></defs><title>cmc</title><path class="a" d="M390.8,403.36h0v0l0,0Z" transform="translate(-134.24 -334.24)"/><path class="a" d="M390.8,403.36h0v0l0,0s0,0,0,.05Z" transform="translate(-134.24 -334.24)"/><path class="a" d="M435.25,443.23a.71.71,0,0,1-.09-.07.92.92,0,0,0,0,.16Z" transform="translate(-134.24 -334.24)"/><path class="a" d="M459,452.53h0Z" transform="translate(-134.24 -334.24)"/><path class="a" d="M390.34,401l0,0h0v0Z" transform="translate(-134.24 -334.24)"/><path class="a" d="M433.48,454.28v0l0,0Z" transform="translate(-134.24 -334.24)"/><polygon class="a" points="300.92 107.68 300.92 107.68 300.92 107.68 300.92 107.68 300.92 107.68"/><path class="a" d="M456,440.27h0Z" transform="translate(-134.24 -334.24)"/><path class="a" d="M136.94,361.56l0,0h0Z" transform="translate(-134.24 -334.24)"/><polygon class="a" points="25.68 38.9 25.68 38.9 25.68 38.9 25.68 38.9"/><path class="a" d="M151.54,380.29h0v0Z" transform="translate(-134.24 -334.24)"/><polygon class="a" points="317.57 119.77 317.57 119.77 317.57 119.77 317.57 119.77"/><polygon class="a" points="12.72 31.2 12.72 31.2 12.72 31.2 12.72 31.2"/><path class="a" d="M147,365.43h0Z" transform="translate(-134.24 -334.24)"/><path class="a" d="M451.77,454l0,0-.09,0Z" transform="translate(-134.24 -334.24)"/><path class="a" d="M195.68,434.56h0s0,0,0,.05l0-.05Z" transform="translate(-134.24 -334.24)"/><path class="a" d="M390.42,379l.11-.09a1.6,1.6,0,0,0-.11-.4Z" transform="translate(-134.24 -334.24)"/><path class="a" d="M175.17,356.53v0h.13v-.05l-.14,0Z" transform="translate(-134.24 -334.24)"/><path class="a" d="M197.77,440.52a2.15,2.15,0,0,1,.1-.64,4,4,0,0,1-.55.25A1.36,1.36,0,0,1,197.77,440.52Z" transform="translate(-134.24 -334.24)"/><path class="a" d="M195.68,434.56h0l0,0,0,0Z" transform="translate(-134.24 -334.24)"/><path class="a" d="M165.75,356.51v0h.05Z" transform="translate(-134.24 -334.24)"/><polygon class="a" points="68.37 114.44 68.37 114.44 68.37 114.44 68.37 114.44"/><path class="a" d="M196.57,447.46s0,.06,0,.09l0,0Z" transform="translate(-134.24 -334.24)"/><path class="a" d="M397.92,412.76c0,.27.11,0,.13,0l.06,0-.2-.12S397.92,412.72,397.92,412.76Z" transform="translate(-134.24 -334.24)"/><path class="a" d="M185.35,369a.08.08,0,0,0,0,0h.06Z" transform="translate(-134.24 -334.24)"/><path class="a" d="M185.29,369.85l.07-.07h-.19Z" transform="translate(-134.24 -334.24)"/><path class="a" d="M468.41,454.38l-.16-.1h-.2Z" transform="translate(-134.24 -334.24)"/><path class="a" d="M200.43,437.74s0,0,0-.05l-.06,0Z" transform="translate(-134.24 -334.24)"/><path class="a" d="M391.28,393.74v-.08l0,0a.21.21,0,0,1,0,.06Z" transform="translate(-134.24 -334.24)"/><polygon class="a" points="63.6 103.92 63.6 103.92 63.6 103.92 63.6 103.93 63.6 103.92 63.6 103.92"/><path class="a" d="M279.7,446a.7.7,0,0,0,0-.38,2,2,0,0,1-.07.5A.75.75,0,0,0,279.7,446Z" transform="translate(-134.24 -334.24)"/><path class="a" d="M262.4,419.92h0a.19.19,0,0,1,0,.07v0s0,0,0-.06Z" transform="translate(-134.24 -334.24)"/><path class="a" d="M262.43,419.93s0,0,0,0h0Z" transform="translate(-134.24 -334.24)"/><path class="a" d="M323.94,338.28h0v0Z" transform="translate(-134.24 -334.24)"/><path class="a" d="M389.88,351.52l.06,0-.06-.06h0Z" transform="translate(-134.24 -334.24)"/><path class="a" d="M466.14,450v0h0Z" transform="translate(-134.24 -334.24)"/><polygon class="a" points="142.2 33.38 142.2 33.38 142.2 33.37 142.2 33.38"/><path class="a" d="M390.11,389.86v.07h0S390.11,389.88,390.11,389.86Z" transform="translate(-134.24 -334.24)"/><path class="a" d="M269.74,454.28a.44.44,0,0,0,0,.1l.11-.1Z" transform="translate(-134.24 -334.24)"/><path class="a" d="M240.78,388s0,0,0,0h0v0Z" transform="translate(-134.24 -334.24)"/><path class="a" d="M225.24,372.57h0l0,0,0,0v-.06Z" transform="translate(-134.24 -334.24)"/><path class="a" d="M235.75,372.47l.06-.06s.11-.12,0-.07h0Z" transform="translate(-134.24 -334.24)"/><path class="a" d="M267.87,414.35h0v0l0,0Z" transform="translate(-134.24 -334.24)"/><polygon class="a" points="56.88 61.44 56.88 61.44 56.88 61.44 56.88 61.44 56.88 61.44"/><path class="a" d="M448.64,437.44v-.09l-.1,0A.53.53,0,0,1,448.64,437.44Z" transform="translate(-134.24 -334.24)"/><path class="a" d="M447.48,437.34s.22.19.17,0,0,0,0-.05h-.2Z" transform="translate(-134.24 -334.24)"/><path class="a" d="M323.37,337.21c-.05-.07-.11-.13-.16-.19s0,.09,0,.14Z" transform="translate(-134.24 -334.24)"/><path class="a" d="M184.39,355.35l0,0,0,0Z" transform="translate(-134.24 -334.24)"/><path class="a" d="M471,454.5a.08.08,0,0,1,0,.07h0C471.07,454.54,471,454.36,471,454.5Z" transform="translate(-134.24 -334.24)"/><path class="a" d="M194,454.71s0,0,0,0l0,0Z" transform="translate(-134.24 -334.24)"/><path class="a" d="M390.8,418.72h0c.06-.07.09-.15.14-.22l-.21.09.07.13Z" transform="translate(-134.24 -334.24)"/><polygon class="a" points="102.24 75.36 102.24 75.36 102.24 75.35 102.24 75.36"/><path class="a" d="M430.5,454.71h0S430.52,454.77,430.5,454.71Z" transform="translate(-134.24 -334.24)"/><path class="a" d="M240.38,397.9h-.23C240.21,398,240.3,398,240.38,397.9Z" transform="translate(-134.24 -334.24)"/><path class="a" d="M210.34,453.23l0,0h0l0,0Z" transform="translate(-134.24 -334.24)"/><path class="a" d="M224.11,454.35a.3.3,0,0,1,0-.08A.09.09,0,0,0,224.11,454.35Z" transform="translate(-134.24 -334.24)"/><path class="a" d="M315.92,401.22h0Z" transform="translate(-134.24 -334.24)"/><path class="a" d="M348.32,414.88a.67.67,0,0,1,.12-.06v0l-.11.08Z" transform="translate(-134.24 -334.24)"/><path class="a" d="M390.8,418.72v0Z" transform="translate(-134.24 -334.24)"/><path class="a" d="M194,454.77l0,0,0,0Z" transform="translate(-134.24 -334.24)"/><path class="a" d="M360.1,363.58h.07l-.05,0Z" transform="translate(-134.24 -334.24)"/><path class="a" d="M279.92,423.54l0,.08.11-.08Z" transform="translate(-134.24 -334.24)"/><path class="a" d="M440.5,454.3s0,0,0,0h0Z" transform="translate(-134.24 -334.24)"/><path class="a" d="M229.05,443.71v0l0,0Z" transform="translate(-134.24 -334.24)"/><path class="a" d="M272.25,456.15l0,0s0,0,0,0S272.24,456.14,272.25,456.15Z" transform="translate(-134.24 -334.24)"/><path class="a" d="M390.57,400h0a.07.07,0,0,0,0-.05C390.53,400,390.47,400.08,390.57,400Z" transform="translate(-134.24 -334.24)"/><path class="a" d="M441.8,406.45c-.08.12-.16.24-.23.36A1,1,0,0,0,441.8,406.45Z" transform="translate(-134.24 -334.24)"/><path class="a" d="M260.52,441.84l0,0h0v0l-.07.06Z" transform="translate(-134.24 -334.24)"/><path class="a" d="M218.7,454.21h0l0-.07,0,0Z" transform="translate(-134.24 -334.24)"/><polygon class="a" points="75.15 117.82 75.16 117.82 75.16 117.82 75.16 117.82 75.15 117.82"/><path class="a" d="M211,453.78h0l0,0h0Z" transform="translate(-134.24 -334.24)"/><path class="a" d="M391.4,400.19a2.84,2.84,0,0,0,0,.66c0-.18,0-.36.05-.54S391.41,400.23,391.4,400.19Z" transform="translate(-134.24 -334.24)"/><path class="a" d="M315.79,402.81a.07.07,0,0,0,0-.05.64.64,0,0,1,0-.07A.49.49,0,0,0,315.79,402.81Z" transform="translate(-134.24 -334.24)"/><path class="a" d="M391.06,384.17s0,0,0-.05v0Z" transform="translate(-134.24 -334.24)"/><path class="a" d="M244.46,449.78Z" transform="translate(-134.24 -334.24)"/><path class="a" d="M279.87,444.64a3.9,3.9,0,0,0,0,.58,6.83,6.83,0,0,0,.23-.73A1.67,1.67,0,0,1,279.87,444.64Z" transform="translate(-134.24 -334.24)"/><path class="a" d="M265,449.26v0h0C265.12,449.32,265,449.1,265,449.26Z" transform="translate(-134.24 -334.24)"/><path class="a" d="M391.4,392.79v0h0Z" transform="translate(-134.24 -334.24)"/><path class="a" d="M425.34,425.23h0Z" transform="translate(-134.24 -334.24)"/><path class="a" d="M267.83,451.77a.6.6,0,0,1,.08-.08s-.06,0-.09-.05S267.83,451.72,267.83,451.77Z" transform="translate(-134.24 -334.24)"/><path class="a" d="M263.78,446l-.06,0S263.75,446,263.78,446Z" transform="translate(-134.24 -334.24)"/><path class="a" d="M190.11,395.82s0-.05,0-.08S190.09,395.84,190.11,395.82Z" transform="translate(-134.24 -334.24)"/><polygon class="a" points="207.84 6.96 207.84 6.96 207.84 6.95 207.84 6.96"/><path class="a" d="M238.07,441.3Z" transform="translate(-134.24 -334.24)"/><path class="a" d="M399.3,413.05v0Z" transform="translate(-134.24 -334.24)"/><path class="a" d="M449,426l0,.1.16-.07,0,0a.25.25,0,0,0,0-.08l0,0Z" transform="translate(-134.24 -334.24)"/><polygon class="a" points="255.88 34.56 255.88 34.56 255.88 34.57 255.88 34.57 255.88 34.56 255.88 34.56"/><path class="a" d="M279.09,336.16a1.14,1.14,0,0,0-.1-.19.54.54,0,0,0,0,.19Z" transform="translate(-134.24 -334.24)"/><path class="a" d="M427.1,391.58l0,0h0Z" transform="translate(-134.24 -334.24)"/><path class="a" d="M462.36,421.09a3,3,0,0,1,.41-.38A.53.53,0,0,0,462.36,421.09Z" transform="translate(-134.24 -334.24)"/><path class="a" d="M392.69,378.45h0v-.05Z" transform="translate(-134.24 -334.24)"/><path class="a" d="M464.43,340.06l0,0,0,0h0l0,0Z" transform="translate(-134.24 -334.24)"/><path class="a" d="M427.08,391.86a.73.73,0,0,0,0-.16.38.38,0,0,0-.09.13c0,.05,0,.09,0,.14A1.05,1.05,0,0,1,427.08,391.86Z" transform="translate(-134.24 -334.24)"/><path class="a" d="M393.86,365.48v.29A.57.57,0,0,0,393.86,365.48Z" transform="translate(-134.24 -334.24)"/><path class="a" d="M148.68,379.86h0s0,0,0,0h0S148.67,379.85,148.68,379.86Z" transform="translate(-134.24 -334.24)"/><path class="a" d="M279.71,445.63l0,0h0Z" transform="translate(-134.24 -334.24)"/><polygon class="a" points="309.02 71.02 309.01 71.03 309.02 71.03 309.02 71.02"/><polygon class="a" points="133.41 10.6 133.4 10.6 133.4 10.61 133.41 10.6"/><path class="a" d="M444,402a2,2,0,0,1,.06.23c0-.08.07-.16.12-.24A.51.51,0,0,0,444,402Z" transform="translate(-134.24 -334.24)"/><path class="b" d="M443.35,405.27h0v0l-.09,0h.09Z" transform="translate(-134.24 -334.24)"/><path class="b" d="M433.52,334.48a5.3,5.3,0,0,1-3.6.06h0l-.24-.08a66,66,0,0,0-12.76,2.4,14.84,14.84,0,0,0-3.09,1.19c-.1.17,1,.49-.1.55-.7,0-1.32.56-2.07.42,0,.23,0,.48-.25.58s-.34-.1-.44-.27l-.75.42c.53.42,1.24.09,2,.5-1,.44-1.94,0-2.8.12a.8.8,0,0,1-.39.08l-1.87,1.06h0l-.53.41a38.59,38.59,0,0,0-5.71,5.79h0a1.29,1.29,0,0,1-.49.7,1.08,1.08,0,0,1-.48.71h0a46.7,46.7,0,0,0-4.8,11.76h0a86.41,86.41,0,0,0-1.57,11.66c-.1,2-.19,4-.29,5.94h0a17.91,17.91,0,0,1,0,3.66c.27,3,.11,6.06.34,9.09a64.24,64.24,0,0,0,1.73,11.45,3.93,3.93,0,0,1,.06.59h0a47.35,47.35,0,0,0,3.07,7.33,33.18,33.18,0,0,0,4.29,5.71,39.85,39.85,0,0,0,5.79,4.3h0l.49.26h0l3.61,1.66h0a.9.9,0,0,1,.71.26h0a7.64,7.64,0,0,1,2,.66,47.6,47.6,0,0,0,8,1.52h2.52c-.14.26-.34.19-.5.23h0a31.49,31.49,0,0,0,5.31.4,26.87,26.87,0,0,1,6.94,0l2.32,0h0a3.28,3.28,0,0,1,1.52-.16l1.69-.06h0l.3-.21h0c.43-.47.9-.33,1.37-.08a10.88,10.88,0,0,0,2.72-.38h0c.32-.53.73-.3,1.12-.12l1.21-.13.45-.06h0l7-1.87.09-.07h.1a35,35,0,0,0,10.65-6.26,12.27,12.27,0,0,0,2.15-2.23h0a1.84,1.84,0,0,1,1.18-1.56l.53-.64c-.06-.39-.11-.77.47-.75a1.89,1.89,0,0,1,1.15-2,27,27,0,0,0,2.35-6.25c.08-1.29.52-2.53.49-3.83-.18-.53-.57-1.11.28-1.44v-1.68a1.4,1.4,0,0,1,0-1.68v-1q-15,0-29.91,0c-.44,0-1.09.34-1.28-.46l-.21-.24A43.27,43.27,0,0,1,444.07,404c-.13.46-.34.89-.51,1.33h0a10.49,10.49,0,0,1-1.45,2.62h0c.25.62.13.74-.67.72a8.47,8.47,0,0,1-8.68,1.26,7.56,7.56,0,0,1-4.08-4,25.27,25.27,0,0,1-2.11-8.41,24.14,24.14,0,0,1-.27-4.41l-.05-.08,0-.08h0a11,11,0,0,1-.17-3c-.25-5.6-.29-11.2,0-16.8a6.44,6.44,0,0,1,.17-2.23c0-.86,0-1.72.08-2.57a5.19,5.19,0,0,1,.16-2c0-.21,0-.43,0-.65h0a4.91,4.91,0,0,1,.31-3.59c.46-.56.07-1.36.53-1.92a1.31,1.31,0,0,1,.22-1c-.1-.9.52-1.59.72-2.4h0a6.28,6.28,0,0,1,1.09-2.43,2.61,2.61,0,0,1,.75-1.2h0a7.52,7.52,0,0,1,5.58-3.53,6.67,6.67,0,0,1,3.14.16,2.11,2.11,0,0,1,1.46.5h0a.47.47,0,0,1,.47.23,1,1,0,0,1,.72.45c2.33,1.58,3.18,4,3.57,6.6.5,3.41.23,6.85.28,10.27h30.44a55.82,55.82,0,0,0-.05-6.34,42.75,42.75,0,0,0-1.17-7c-.29-1-.87-1.95-.68-3.06l-.34-1.11c-.39-.73-.79-1.45-1.18-2.17-.22-.39-.62-.67-.69-1.15-1.11-1.26-2.2-2.53-3.33-3.77a9.66,9.66,0,0,0-1.09-.9h0a1.76,1.76,0,0,1-1.75-.84c-.26-.31-.49-.76-1-.65-.33.07-.57,0-.63-.34s.48-.08.42-.43L464,340c-.76,0-1.64.22-1.69-1l-1.49-.9a.18.18,0,0,1-.2-.07l-5.06-1.86h-.12l-.1-.05h0a62.69,62.69,0,0,0-9.61-1.56h0a8.69,8.69,0,0,1-3.83-.05h0c-.55-.16-1.18.18-1.68-.28h-4.56C435,334.7,434.24,334.4,433.52,334.48Zm-19,5.62a.32.32,0,0,1-.29.32c-.32,0-.35-.24-.46-.44s-.71-.34-.85-.84a2,2,0,0,1,1.29.25A.6.6,0,0,1,414.53,340.1Zm48.87.57c.07.09.19.18.19.27,0,.39-.32.36-.69.45C462.93,341,463.2,340.83,463.4,340.67Z" transform="translate(-134.24 -334.24)"/><path class="b" d="M393.2,377.13v-.24c0,.07,0,.15,0,.22Z" transform="translate(-134.24 -334.24)"/><path class="b" d="M393.2,385.19v0Z" transform="translate(-134.24 -334.24)"/><path class="b" d="M400.43,348.42h0s0,.05-.07.08A.11.11,0,0,0,400.43,348.42Z" transform="translate(-134.24 -334.24)"/><path class="b" d="M417.55,336.36a1,1,0,0,0,.4-.11Z" transform="translate(-134.24 -334.24)"/><path class="b" d="M226.42,334.52c-2.78.46-5.6.71-8.34,1.39-.42.1-.85.16-1.28.24l-.07.06-.09,0h0L211.27,338l-.24.06a1.72,1.72,0,0,1-1,.45l-.08.06h-.1l-.78.4a.18.18,0,0,1-.2.08,4.67,4.67,0,0,1-1.71.89,48.82,48.82,0,0,0-5.47,4.25,33.59,33.59,0,0,0-6.29,9l-.19.74h0c1.42.11,2.87-.28,4.27.23h0a1.34,1.34,0,0,0,0,.2l.94.08h0c1.16,0,2.35-.28,3.42.41l2.32.06h0c.65,0,1.34-.26,1.94.21h0a1.49,1.49,0,0,1,0,.21h0c2,.33,4,1,6,1.51h0c.38-.08.69,0,.79.41l.66.06h0c.37-.06.69,0,.77.43.6,0,1,.64,1.6.55h0a.64.64,0,0,1,.78.43l3.59,1.92h0a.7.7,0,0,1,.74.48c.28.22.5.54.91.52h0l.7,0,.1-.73c.5-2,.8-4,1.89-5.76,1.45-3.22,3.7-5.35,7.42-5.51h0a5.68,5.68,0,0,1,1.93,0c1.51.28,3,.67,3.85,2.09l.45.32h0a3.2,3.2,0,0,1,1.24,1.87l.2.49c1,1.3,1,2.88,1.14,4.38a51.09,51.09,0,0,1,.06,8.57l-.16.48c9.84,0,19.68,0,29.52,0,1.09,0,1.45-.27,1.41-1.39a10.08,10.08,0,0,1,.16-3.67l0-1.62h0a2,2,0,0,1-.18-1.26l0-.72-1.23-5.75c-.26-.18-.21-.46-.24-.72a29.55,29.55,0,0,0-4.57-7.88h0l-.92-1-1.46-1.38-1-.75a4.46,4.46,0,0,1-1.22-1,.17.17,0,0,1-.18-.1l-.83-.59a.13.13,0,0,1-.15-.08c-.49-.31-1-.61-1.48-.9h0c-.18,0-.38,0-.46-.22a4.53,4.53,0,0,1-1.43-.74h0a.83.83,0,0,1-.7-.31l-2.19-.86-2.61-.82a71.28,71.28,0,0,0-9.86-1.58h0a6.21,6.21,0,0,1-3.34,0h0c-.48-.14-1,.15-1.45-.28h-4.32a2.16,2.16,0,0,1-2.16,0h-3.6C227.74,334.71,227.06,334.48,226.42,334.52Z" transform="translate(-134.24 -334.24)"/><path class="c" d="M473.63,441.31l-.34.43h0l-.76,1.18c-.28-.34-.16-.63-.13-.92.08-.78-.28-1-1-1-1.07.07-2.15,0-3.23,0L468,449v4.56h0c0,.25-.49.51,0,.76h.22l3.65-.08h0c0-2.54,0-5.08,0-7.63,0-.42-.24-1,.48-1.2,1.36-1.64,2.38-1.81,4.31-.73V441C475.64,440.6,474.64,441.06,473.63,441.31Z" transform="translate(-134.24 -334.24)"/><path class="d" d="M445.32,392.56l.21.24c9.2.52,18.42.11,27.63.24a13.72,13.72,0,0,0,3.56-.24v-1l-31.39,0C445.33,392.1,445.33,392.33,445.32,392.56Z" transform="translate(-134.24 -334.24)"/><path class="e" d="M473.16,393c-9.21-.13-18.43.28-27.63-.24.19.8.84.46,1.28.46q15,0,29.91,0v-.48A13.72,13.72,0,0,1,473.16,393Z" transform="translate(-134.24 -334.24)"/><path class="f" d="M429.92,334.54h0a5.3,5.3,0,0,0,3.6-.06,1,1,0,0,1,0-.24h-2.64C430.67,334.7,430.21,334.36,429.92,334.54Z" transform="translate(-134.24 -334.24)"/><path class="g" d="M441.92,334.52h0a8.69,8.69,0,0,0,3.83.05h0c-.53-.27-1.2.2-1.67-.33h-1.92Z" transform="translate(-134.24 -334.24)"/><path class="h" d="M239.85,334.52h0a6.21,6.21,0,0,0,3.34,0h0c-.45-.22-1,.2-1.43-.3h-1.68A3.11,3.11,0,0,0,239.85,334.52Z" transform="translate(-134.24 -334.24)"/><path class="i" d="M134.64,353.93c.32.07.42.56.83.43h0c-.35-.52-.24-1.44-1.23-1.4v1Z" transform="translate(-134.24 -334.24)"/><path class="j" d="M476.44,399c.07-.17,0-.44.28-.48v-1C475.87,397.93,476.26,398.51,476.44,399Z" transform="translate(-134.24 -334.24)"/><path class="k" d="M433.52,334.48c.72-.08,1.48.22,2.16-.24h-2.16A1,1,0,0,0,433.52,334.48Z" transform="translate(-134.24 -334.24)"/><path class="l" d="M234.08,334.24h-2.16A2.16,2.16,0,0,0,234.08,334.24Z" transform="translate(-134.24 -334.24)"/><path class="m" d="M441.92,334.52h0l.24-.28h-1.92C440.74,334.7,441.37,334.36,441.92,334.52Z" transform="translate(-134.24 -334.24)"/><path class="n" d="M239.85,334.52h0a3.11,3.11,0,0,1,.23-.28H238.4C238.82,334.67,239.37,334.38,239.85,334.52Z" transform="translate(-134.24 -334.24)"/><path class="o" d="M476.72,395.92v-1.68A1.4,1.4,0,0,0,476.72,395.92Z" transform="translate(-134.24 -334.24)"/><path class="p" d="M390.21,391c0-.37-.06-.73-.09-1.1h0v9.34h-.22c0-.31,0-.62,0-.93q0-15.15,0-30.3c0-.39-.12-.8.18-1.15q0-6.75,0-13.49c0-.59,0-1.19.06-1.78h0l-.11-.12-.06,0V357h-.28v-3.45c0-3.43.12-6.87-.05-10.29-.11-2.06-.14-4.12-.19-6.18a6.42,6.42,0,0,0-2-.25H346.72c-.53,0-1.14.2-1.51-.42-.82-.23-1.08.14-1.25.93-.91,4.34-1.88,8.67-2.84,13a5.75,5.75,0,0,1-.23.66c-.73,3.42-1.41,6.85-2.18,10.26q-2.62,11.6-4.51,23.33c0,.19-.09.37-.15.67l-.27-1.16c-.27.06-.35.29-.51.52a26.73,26.73,0,0,0-.58-5.52,33.12,33.12,0,0,0-1-4.85c-.56-1.94-.81-3.93-1.37-5.86l-.87-3.13c-.31-1.1-.25-2.31-.55-3.46-.45-1.7-.72-3.45-1.18-5.15-.57-2.14-1-4.3-1.43-6.48,0-.11.14-.25.22-.38h0l-.05-.24h0c-.52,0-.41-.48-.52-.79a12.87,12.87,0,0,1-.88-5.49l-.07-.44h0c-.47,0-.42-.4-.44-.72h0c-.67.06-1-.13-.61-.84.47-.95-.21-1.78-.41-2.64-.06-.24-.09.51-.3.37s-.77-.72-.51-.94-.76-1.32.48-.95c0-.05,0-.09,0-.14a1,1,0,0,0-.77-.34c-14,.47-28.06.07-42.09.2a3.67,3.67,0,0,0-2.36.48c-.07,6-.16,12-.2,18q-.15,22.65-.26,45.29c0,.44,0,.88,0,1.32.32.34.19.76.2,1.14q0,9.3,0,18.6c0,.38.16.82-.25,1.11a.83.83,0,0,0,.07.72h0l2.35,0H280c3.16,0,6.32-.05,9.47-.05l15.65.05h1.2l.43,0a.36.36,0,0,0,0-.23h0c-.7-.21-.4-.8-.4-1.21q0-28.59,0-57.16a6.45,6.45,0,0,1,.17-2.83h0c0-.32.05-.63.07-.95h0c-.42-.34-.2-.78-.31-1.35a1.48,1.48,0,0,1,.49,1.36c.28,1.26.55,2.52.83,3.78a4.51,4.51,0,0,1,.41,2l0,.48c.47.38.22.92.3,1.39,1.69,4.61,2.55,9.45,3.76,14.19,3.36,13.16,6.61,26.34,9.92,39.51.1.37.1.81.45,1.08l15.64-.05c2.47,0,4.93,0,7.4,0a.48.48,0,0,0,.07-.21c-.46-.39-.4-.64.2-.73l1.08-3.89h0l.11-.45a22,22,0,0,1,1-3.84,1.91,1.91,0,0,1,.27-1.19,11,11,0,0,1,.67-2.65c.4-2.73,1.24-5.35,1.86-8q1.32-5.76,2.74-11.51c.53-2.14,1.12-4.26,1.68-6.39.53-2.59,1.11-5.16,1.88-7.7a5.78,5.78,0,0,1,.05-.83c.75-3,1.52-6,2.28-9,.12-.32,0-.72.3-1a7.51,7.51,0,0,1,.52-2.52l0-.05c0-.19-.06-.38.13-.51l.37-1.87h0c.07-.41.15-.82.23-1.22H361v4.95c.16,2.92.3,5.85.3,8.78q0,24.16,0,48.33c0,.7-.1,1.2,1,1.19,7.93-.11,15.86-.11,23.8-.15,1.19,0,2.36.42,3.56.21a1.34,1.34,0,0,0,.45-1c0-2.77,0-5.55-.1-8.3a50.6,50.6,0,0,1,.1-6.16,2.52,2.52,0,0,1,.18-.55h0c0-2.08.05-4.16.07-6.24h0v0c0-.55,0-1.11,0-1.66C390.29,396.53,390.26,393.78,390.21,391Zm-28.56-22.42a1.14,1.14,0,0,1,0-1.06A1.14,1.14,0,0,1,361.65,368.61Zm.59,53.95c-.34-.27-.24-.66-.24-1V368c0-.12,0-.23.05-.5a2.53,2.53,0,0,1,.19,1.3c.39.35.23.82.23,1.24q0,25.63,0,51.28C362.47,421.74,362.63,422.21,362.24,422.56Z" transform="translate(-134.24 -334.24)"/><path class="p" d="M324.16,339.47a.56.56,0,0,0,0-.12A.16.16,0,0,0,324.16,339.47Z" transform="translate(-134.24 -334.24)"/><path class="b" d="M242,403c-.12.45-.29.9-.43,1.34h0c-.84,2.78-2.38,4.91-5.32,5.75a8.52,8.52,0,0,1-7.94-1.47,1.71,1.71,0,0,1-1.59-1.15,26.66,26.66,0,0,1-2.13-5.78,31.88,31.88,0,0,1-.79-9.22h0l0-.66h0a16.53,16.53,0,0,1-.48-3.83h0l-.1,0h-.1c-.51-.1-1.2.41-1.49-.44a4.11,4.11,0,0,0-2.14-.51h0l-1.69,0s-.05-.05-.05-.08a.47.47,0,0,1,.05-.1h0a1.36,1.36,0,0,1,0-.2h0c-1.22,0-2.36-.63-3.59-.56h-3.11c-.64-.07-1.33.25-1.93-.22a1.34,1.34,0,0,0,0-.2h-7.66l-.25.2c-1.1.47-2.25.16-3.38.21h-.95l-1.18.07h0l-.27.21c-.52.42-1.12.19-1.69.2h-1.18c-.47.15-1.06-.17-1.44.36h0c.2,7.36.95,14.62,3.85,21.5h0a3.6,3.6,0,0,1,.69,1.45c0,.43.4.6.54.94h0a3.31,3.31,0,0,1,.72,1.19h0a2.11,2.11,0,0,1,.68,1,33,33,0,0,0,5.61,5.72h0a.12.12,0,0,1,.15.1h0a56.88,56.88,0,0,0,5.8,3.28,53.69,53.69,0,0,0,14.14,3.35h0l.46,0h0l.71,0,3.86.15a23.87,23.87,0,0,1,6.7,0l2.34,0h0a4.63,4.63,0,0,1,1.74-.17l4.27-.31a1.77,1.77,0,0,1,.65-.1l3.49-.56.59-.24h0l0-.11.12,0c.33-.38.83,0,1.22-.15,2-.19,3.82-1,5.75-1.46h0l2.45-1.17a3.55,3.55,0,0,0-1.24-.36c.54-.13,1.07-.29,1.45.3l.71-.2a1.65,1.65,0,0,1,1-.47h0L262.4,419l.46-.29a55.62,55.62,0,0,0,5-4.32h0a32.54,32.54,0,0,0,4.36-6.92h0l1.14-3.83h0c-.18-.69-.5-1.4.36-1.89l.1-.29c-.51-1.33.21-2.68-.05-4,0,0,.16-.09.24-.13l.18.42h0a7,7,0,0,0,.15-2.49h0c-.34-.44-.12-1-.2-1.44-9.24,1.05-18.51.24-27.77.44a3.63,3.63,0,0,1-2.7-.92c.35-.39.82-.23,1.24-.23h26.56c.42,0,.89-.16,1.24.23h1.43c.06-.4-.12-.84.19-1.2h0a.3.3,0,0,0,0-.21H243A48.06,48.06,0,0,1,242,403Z" transform="translate(-134.24 -334.24)"/><polygon class="b" points="137.99 73.19 137.99 73.19 137.99 73.19 137.99 73.19"/><path class="q" d="M223.64,378.9h0c-.38,0-.79.06-.88-.47a21.88,21.88,0,0,1-2.83-1.5h0c-.38.08-.58-.16-.74-.44a2.87,2.87,0,0,1-1.41-.51h0c-.37.06-.68,0-.77-.44l-.19,0h0c-.36,0-.7,0-.79-.42l-.64-.07h0c-.38.07-.68,0-.77-.43-1.57-.4-3.17-.75-4.72-1.22-.42-.13-.83-.18-1.25-.28h0c-.52-.06-1.15.29-1.49-.41-3.29,0-6.55-.84-9.85-.43a46.49,46.49,0,0,1-6,.47,2.65,2.65,0,0,1-1.86.42h0a60.74,60.74,0,0,1-6.25,1.42.2.2,0,0,1-.21,0h0a7.23,7.23,0,0,1-2.64.49,12.92,12.92,0,0,1-3.86.45l-.4,0a1.81,1.81,0,0,1-.83.09,34.93,34.93,0,0,1-6.05,0l-2.26-.13h0c-1.42-.28-2.7.78-4.14.45.14-.66,1.18-.12,1.19-.92-.34-.11-.89.24-1-.43a3.81,3.81,0,0,1-1.9-.48l-.23-.06a8.44,8.44,0,0,1-2.73-.9h0a.1.1,0,0,1-.15-.05h-.42c-1.18.56-1.74-.39-2.44-1l-2.41-1.38h0a14,14,0,0,1-3.14-1.9h0a32.6,32.6,0,0,1-5.82-4.51,53.27,53.27,0,0,1-7.32-8.48h0c-.78-.18-.87-.83-1-1.46h0c-.41.13-.51-.36-.83-.43h0a17.54,17.54,0,0,0,.4,1.94c.61,1.91,1.27,3.8,1.9,5.69v0c1.09,1.85,1.58,4,2.81,5.79a19,19,0,0,1,2.18,3.3,1.83,1.83,0,0,1,.75,1h0a3.45,3.45,0,0,1,1,1.22h0a55.54,55.54,0,0,0,7.91,7.42h0a20.75,20.75,0,0,1,3.11,1.94h0l3.86,1.93h.11l.09.06a1.61,1.61,0,0,1,1,.42h.11l.09.07a1.82,1.82,0,0,1,1,.4h.1l.08.07a2.38,2.38,0,0,1,1.26.43h0l1.86.54a3.35,3.35,0,0,1,1.52.41h.09l.07.05a4.87,4.87,0,0,1,2,.44h0a15,15,0,0,1,3.33.52h0l.47,0,4.84.32a12.13,12.13,0,0,1,1.48.1h.34c2.41-.15,4.82-.27,7.23-.45,1.46-.11,2.91-.3,4.37-.45a2.39,2.39,0,0,1,1.18-.18h0c.38-.53,1-.21,1.44-.36.3-.81,1-.32,1.47-.43h1.67l1.18-.07h0c.42-.8,1.14-.33,1.72-.42l2.86,0H211l1.68,0h0c.52,0,1.11-.19,1.46.43,1.23-.07,2.37.52,3.59.56h0c.4,0,.83-.18,1.17.21a.59.59,0,0,1,.54.21h0a4.11,4.11,0,0,1,2.14.51c.54,0,1.11-.09,1.49.44h.1l.1,0h0l.5.06,2.37.89h0a6.82,6.82,0,0,1,2.4,1,.19.19,0,0,1,.22,0,5.52,5.52,0,0,1,1.93.91h0a4.62,4.62,0,0,1,1.77.92,7.55,7.55,0,0,1,2.34,1.44h0a1,1,0,0,1,.72.47h0a6.32,6.32,0,0,1,1.91,1.41h0l1.39,1.06c.49-.38-.15-.77,0-1.15h0l-1.2-2.2L234,388a.77.77,0,0,1-.45-.48,3,3,0,0,1-1.05-1.18h0l-.41-.45a9.6,9.6,0,0,1-1.71-1.72.64.64,0,0,1-.45-.44,3.45,3.45,0,0,1-1.19-1,.69.69,0,0,1-.48-.44Zm-26,5.81h1.74C198.86,385.21,198.35,385.18,197.63,384.71Z" transform="translate(-134.24 -334.24)"/><path class="q" d="M224.68,362.1h0c-.33,0-.67,0-.72-.46h0c-.41,0-.63-.3-.91-.52-.38,0-.68,0-.74-.48h0l-3.59-1.92c-.34,0-.69,0-.78-.43h0c-.63.09-1-.54-1.6-.55-.36.05-.69,0-.77-.43h0l-.66-.06c-.36.05-.69.05-.79-.41h0c-2-.51-3.92-1.18-6-1.51h0c-.47,0-1,.2-1.4-.23a.59.59,0,0,1-.56-.19h0l-2.32-.06-2.59,0c-.35,0-.74.05-.83-.44h0l-.94-.08H195a14.4,14.4,0,0,0-3.21.26h0c-.7.5-1.48.15-2.22.22-1.75-.11-3.43.56-5.18.52l0,0a.12.12,0,0,1-.14,0h0a47.74,47.74,0,0,1-7,.93,10.67,10.67,0,0,0-1.87.18v.05h-.13c.21.34-.12.24-.24.24h-9.73c.12-.33.37-.21.55-.25v0a13.93,13.93,0,0,0-2.88-.22h0l-1.74,0a.15.15,0,0,1,0-.09s0-.06.06-.1c-1-.39-2.19-.22-3.2-.69a.12.12,0,0,1-.19,0,39.58,39.58,0,0,1-11.85-3.8h0a.1.1,0,0,1-.15-.05,5.08,5.08,0,0,1-1.71-.89h0c-.78,0-1.17-.6-1.71-1-.34,0-.51-.22-.69-.44a1,1,0,0,1-.74-.48,2.58,2.58,0,0,1-1.15-.8,9.21,9.21,0,0,1-2.5-2.11.11.11,0,0,1-.14-.09h0l-.07,0H137l-.36.28a56.59,56.59,0,0,0,4.86,7.41h0l5.54,5.73h0a2.17,2.17,0,0,1,1.1,1h0l.28.24c.5,0,.72.38,1,.69l6,3.86a14.1,14.1,0,0,1,2.89,1.42h0a1.87,1.87,0,0,1,1.19.49h0a2,2,0,0,1,1.21.47h0a2.81,2.81,0,0,1,1.43.48h0a2.87,2.87,0,0,1,1.48.46h.1l.09.06a4.25,4.25,0,0,1,1.71.44h.11l.1.05a50.88,50.88,0,0,0,10.93,1.11,40.66,40.66,0,0,0,8.73-.87.08.08,0,0,1,0,0c-.14,0-.38-.08,0-.19a5.14,5.14,0,0,1,1.36,0h.86l.4-.06a23.87,23.87,0,0,1,3.73-.91h0a4.17,4.17,0,0,1,2.32-.52h0l.32-.19h0c.41-.44.93-.21,1.41-.24h0l1.16-.06h0c.61-.85,1.47-.32,2.22-.41h8.1c.64,0,1.31-.23,1.9.21l.3.2a22.31,22.31,0,0,1,6.35,1.36,5.27,5.27,0,0,0,.81.15h0a.81.81,0,0,1,1,.43,12,12,0,0,1,3.36,1.42h0a3.21,3.21,0,0,1,1.92,1h0a1.13,1.13,0,0,1,1,.52h0a3.39,3.39,0,0,1,1.4.86h0a13.17,13.17,0,0,1,3.05,2h0a9,9,0,0,1,2.93,2.6h0l.23.2a9.5,9.5,0,0,1,3.18,2.9.13.13,0,0,1,.15.11,26,26,0,0,1,4.83,6.34l.22,0h0c.82,0,.9.58.92,1.2h0c.54-1-.35-1.71-.48-2.58-.16-1.07-.87-2-.7-3.19h0c-.26-1.61-1.26-2.94-1.72-4.47a9.85,9.85,0,0,1-1.18-2.22h0a1.48,1.48,0,0,1-.52-.91h0c-.8-1.19-1.59-2.38-2.38-3.57a3.45,3.45,0,0,1-.95-1.26,1.9,1.9,0,0,1-.76-1,2.67,2.67,0,0,1-.91-.95,2.84,2.84,0,0,1-.92-1v0c-.65-.62-1.29-1.25-1.93-1.88h0a8.28,8.28,0,0,1-1.7-1.42h0a.74.74,0,0,1-.5-.41Z" transform="translate(-134.24 -334.24)"/><polygon class="q" points="29.33 34.05 29.33 34.05 29.33 34.05 29.33 34.05"/><path class="r" d="M310.91,440.32l.24-1h.17v1.7q0,6.6.07,13.18l2.37,0,1.68-.08h0c0-5.57,0-11.13,0-16.7,0-1.2-.27-1.64-1.52-1.52s-2.39,0-3.58,0c-.55,0-1.37-.37-1.44.7l-.49-.26h0q-1.15,3.78-2.33,7.54c-.07.22-.18.43-.27.64h0a12.45,12.45,0,0,1-1,3.13c-.49-1.83-1-3.67-1.46-5.5a3,3,0,0,1-.47-1.59c-.44-1.38-.88-2.76-1.31-4.15-.12-.37-.15-.79-.57-1h-.49a3,3,0,0,1-1.42,0,19.79,19.79,0,0,1-3.61,0c-1.14-.11-1.3.5-1.31,1.49,0,5.23,0,10.46-.19,15.68,0,1.22.24,1.76,1.5,1.57l2.85,0,.07-.71c0-.72,0-1.44,0-2.17V439.52a.55.55,0,0,1,.4.63l1.23,4.49.08.22a3,3,0,0,1,.43,1.43h0v0h0a3.4,3.4,0,0,1,.51,1.64v0h0a6.17,6.17,0,0,1,.68,2.17h0l1.43,4.11h3.35a.14.14,0,0,1,.18-.05c.08-.32,0-.67.31-.93a33.61,33.61,0,0,1,1.46-4.8C309.3,445.76,310.11,443,310.91,440.32Z" transform="translate(-134.24 -334.24)"/><path class="r" d="M311.32,441.05l-.07-.13A.21.21,0,0,0,311.32,441.05Z" transform="translate(-134.24 -334.24)"/><path class="r" d="M248.39,446.16c.74,2.85,1.41,5.45,2.08,8H255c0-.37-.15-.87.48-.93.65-2.4,1.29-4.81,1.93-7.21a4.07,4.07,0,0,1,.5-1.43h0a2.94,2.94,0,0,1,.45-1.92,1,1,0,0,1,.2-.81l0-.85h0c-.67,0-1.42-.09-2.12-.11a2.9,2.9,0,0,1-.51,0,2.14,2.14,0,0,0-1.09.3c-.91.61-.7,2.32-1,3.54-.43,1.73-.76,3.48-1.15,5.33a20,20,0,0,1-.82-3.33.18.18,0,0,1,0-.21,4.2,4.2,0,0,1-.44-1.7.2.2,0,0,1,0-.22.49.49,0,0,0-.16-.05c-.52,0-.59-.33-.54-.71a3.28,3.28,0,0,0-.59-2c-.69-1.19-1.88-.53-2.85-.49-.25,0-.38.18-.42-.17h0l-.2.06a52.32,52.32,0,0,1-1.66,6.25h0c-.16.73-.31,1.47-.48,2.22h0l-.06.31c-.41-.24-.12-.7-.42-.92-.82-.92-.61-2.16-1-3.22a22.89,22.89,0,0,1-.75-3.7c-.12-.73-.49-.94-1.21-1-1-.08-2,.33-2.94.05h0c0,.31,0,.61.08.92h0a4.82,4.82,0,0,1,.49,1.9,4.63,4.63,0,0,1,.49,1.93h0a4.89,4.89,0,0,1,.51,1.91h0c.71,2.05,1.14,4.17,1.68,6.26l4.27,0a27.73,27.73,0,0,0,1.19-3.82c.09-.26.18-.42.45-.46h0l.21-.27C247.74,448.58,248,447.51,248.39,446.16Z" transform="translate(-134.24 -334.24)"/><path class="c" d="M204.18,453.63a3.45,3.45,0,0,0,1.39-1.05c0-.56-.54-.91-.74-1.46.77-.08,1.79.18,1.55-1.16-.09-.46.57-.12.57-.45,0-.6.22-1.36-.86-1.28-.63,0-1.27,0-1.91,0-.81,0-1.47.18-1.29,1.31-.36-.33-.2-.62-.28-.87h0a16.85,16.85,0,0,1-.66,2,2.87,2.87,0,0,1-4.92.23l-.63-1c-.2,0-.41-.09-.44-.32-.37-2.26-.84-4.52-.19-6.81.31-1.09,0-2.29.6-3.36.24-.45.33-.92,1-.82l.49-.44h0c-.17,0-.46,0-.13-.3.91-.74,2-.33,3-.36,0,0-.11.12-.23.19s0,0,0,.05a3.2,3.2,0,0,1,2,3.1,8.9,8.9,0,0,0,.19,1.15l4.53,0h0a6.54,6.54,0,0,0-1.64-5l-.53-.43h0l-.25-.16a9.28,9.28,0,0,0-3.34-1,5.25,5.25,0,0,1-3.09,0,10.51,10.51,0,0,0-3.13.64h0a.17.17,0,0,1-.19.08h0l-.77.46-.66.48a8.64,8.64,0,0,0-2.41,6,12.07,12.07,0,0,1,0,4.79,7.78,7.78,0,0,0,2.37,5.5h0a11.58,11.58,0,0,0,5.48,1.47l1.21,0A12.8,12.8,0,0,0,204.18,453.63Z" transform="translate(-134.24 -334.24)"/><path class="r" d="M345.67,435.81a19.14,19.14,0,0,0-3.55-.13H342a.8.8,0,0,0-.35.12c-.15.16-.1.44-.1.69q0,2.56,0,5.13c0,.68-.17.77-.57.18l-1.12-.69-1.18-.32-1.89,0h0c-.32.67-1.05.07-1.46.46h0l-.71.42c-2.33,2.28-1.94,5.18-1.81,8a8.72,8.72,0,0,0,.46,2.19,3.65,3.65,0,0,0,2.53,2.4l1,.12h0a1,1,0,0,1,1.2,0l1.45-.2a.09.09,0,0,1,.14,0h0l1.25-.8h0l.19-.17h0c.22-.25.46-.67.55.06,0,.31,0,.62,0,.93l3.82,0,.23-.12Zm-4.42,15.11a1.87,1.87,0,0,1-1.91,1.36A1.82,1.82,0,0,1,337.5,451c-.2-.51-.31-1.07-.46-1.6h0a3.72,3.72,0,0,1,0-3.81c.14-.41.28-.82.41-1.23a1.92,1.92,0,0,1,2-1.35,1.77,1.77,0,0,1,1.8,1.48A15.18,15.18,0,0,1,341.25,450.92Z" transform="translate(-134.24 -334.24)"/><path class="r" d="M345.9,439.84h0Z" transform="translate(-134.24 -334.24)"/><path class="r" d="M277.12,441.74a.73.73,0,0,0-.86-.71c-.94,0-1.88,0-2.81,0h-.26c-1,0-.59.55-.44,1,1.29,3.84,2.59,7.67,3.86,11.51.49,1.48.12,2.53-1,3.12-.51.82-1.16.19-1.75.17a6.61,6.61,0,0,1-.89-.15c0,1,0,1.91,0,2.87l1.92.2a2.22,2.22,0,0,1,1.9,0h0a1.42,1.42,0,0,0,1-.14,4.09,4.09,0,0,0,2.4-1.93c.87-1.41,1.11-3.06,1.72-4.57L285.39,442h0c-.29-.24-.16-.58-.19-.89-3.44-.26-3.43-.26-4.25,3-.5,2-1,3.95-1.65,6.31-.48-1.82-.87-3.32-1.26-4.81h0l-.05-.7A17.19,17.19,0,0,1,277.12,441.74Z" transform="translate(-134.24 -334.24)"/><polygon class="r" points="138.73 125.27 138.73 125.27 138.73 125.27 138.73 125.27"/><path class="c" d="M374.42,442.94l0,0h0Z" transform="translate(-134.24 -334.24)"/><path class="c" d="M381.83,454.2h0a.07.07,0,0,1,.05-.1,1,1,0,0,1-.47-1.05l-.17-.08h0c-.62-.45-.32-1.13-.33-1.66a37.6,37.6,0,0,0-.16-6.54,1.33,1.33,0,0,1,.39-1.09,4,4,0,0,0-.93-1.9l-.23-.2a11.73,11.73,0,0,0-7-.59l0,0c.1,0,.24.05.27.12s-.1.14-.19.14c-.26,0-.54.05-.74-.18-.7,0-1.24.53-1.9.69h0a4,4,0,0,0-1.44,3.27l0,0,3.43.1c1,0,.68-.78.82-1.29-.2-1,.43-1.21,1.24-1.18h1.41c.83-.14,1.22.27,1.21,1.05A6.27,6.27,0,0,1,377,446l-3.89.53c-2.92.38-4.93,1.43-4.38,5.51,1.07,3.2,5.26,3.18,8.1.85,0,1.19.69,1.37,1.63,1.33s1.82,0,2.74,0h.24Zm-5.21-2.84a2.08,2.08,0,0,1-3.11.5c-.65-.53-.55-1.24-.45-1.94a1.29,1.29,0,0,1,.94-1.41.73.73,0,0,1,.08-.09c.87-.45,2.31-.91,2.65-.43A3.5,3.5,0,0,1,376.62,451.36Z" transform="translate(-134.24 -334.24)"/><path class="s" d="M466.14,450l0,0-3.56-.05c-.25.14-.73-.08-.73.47h0c.19,1.17-.55,1.72-1.45,2.17h0a1.54,1.54,0,0,1-1.51.18c-.32-.08.05-.13.15-.21h0a1.18,1.18,0,0,0-.11-.19h0c-1.33-.59-1.3-1.81-1.44-3-.12-1,.07-1.49,1.27-1.4,1.91.13,3.83.06,5.75.07h1.43a.14.14,0,0,1,.17,0,7.81,7.81,0,0,0-.13-2.85h0l-.78-2.36a7.34,7.34,0,0,0-11.74,1.88,16.06,16.06,0,0,0-.26,4.94,6.36,6.36,0,0,0,1.69,3.7h0a9.9,9.9,0,0,0,9.57.17l.24-.19h0A4.87,4.87,0,0,0,466.14,450Zm-6.38-7.21c.63.14,1.38.24,1.76,1,.86,1.75.42,2.32-1.86,2.31-.16,0-.36.07-.48,0-.51-.32-1.68.77-1.64-.72S458.73,442.55,459.76,442.79Z" transform="translate(-134.24 -334.24)"/><path class="r" d="M271.75,454.27h0a.21.21,0,0,1,.2,0h0l-.42-.7c-.27-.19-.26-.48-.26-.76,0-2.74,0-5.48,0-8.22a4.58,4.58,0,0,0-.75-2.56c-3.3-1.87-6.64-1.57-10-.17l0,0c-.17.39-.75.4-.83.87h0c-.46.64-.34,1.46-.67,2.14h0l.13.49a13.28,13.28,0,0,1,3-.15c.42,0,.89.15,1.19-.31l0-.47a1.18,1.18,0,0,1,.68-1.21h0a1.22,1.22,0,0,1,1.21-.44h.24c1.54.3,2.06,1.5,1.43,3.27h0l-.88.09h0a1.5,1.5,0,0,1-1,.15l-2.21.33c-3.54.52-5,3.11-3.56,6.48h0a1.35,1.35,0,0,1,.66.69,1.1,1.1,0,0,0,.8.5c2.11.53,4.11.43,5.81-1.14-.21-.53-.56-.49-1-.38s-1.12.26-1.36-.48c-1.08,0-1.76-1.36-1.39-2.73.16-.59.32-1.2,1.16-1h0l.68-.22h0c2.48-.92,2.59-.82,2.6,2.33h0a1.42,1.42,0,0,1,.65,1s.05,0,.09.05a.6.6,0,0,0-.08.08,5.5,5.5,0,0,1-.66,1.76h0c-.06.29.18.44.29.66h0l1.16.08h3.11Z" transform="translate(-134.24 -334.24)"/><path class="r" d="M267.48,454.2a.87.87,0,0,0,.18.11A.33.33,0,0,0,267.48,454.2Z" transform="translate(-134.24 -334.24)"/><path class="c" d="M420,440.86a6,6,0,0,0-4.25,2.62,11.1,11.1,0,0,0-.44,7.47c.59,2.27,2.39,3.14,4.5,3.56l3.12,0a11.41,11.41,0,0,0,2.87-.78l.73-.47c0-.08,0-.16,0-.24h0c-.12-.68.56-1,.75-1.55.36-1.07.11-1.58-.93-1.27s-1.91-.51-2.66.4h0a2.27,2.27,0,0,1-1.35,1.9h0c-.53.54-1.19.19-1.79.26,0,0,0-.08,0-.08l.19-.11h0l0,0a.08.08,0,0,0,.09,0c-.23-.25-.69-.27-.74-.7-1-1-.76-2.29-.78-3.5,0-.56.54-.34.84-.34,2.59,0,5.18,0,7.78,0,0-.79,0-1.58,0-2.37l-.17,0a1.16,1.16,0,0,1-.33-1.63h0l0-.25-.7-1h0c-.47,0-.73-.23-.72-.72a1.12,1.12,0,0,0,0-.21h0A9.73,9.73,0,0,0,420,440.86Zm-.17,6.17c-.26,0-.49-.07-.45-.41a.31.31,0,0,1,.33-.27c.21.11-.05.52.35.55C420.13,446.91,420,447,419.86,447Zm3.5-3.22a4.2,4.2,0,0,1,.35,1.62c0,.53-.13.71-.65.68s-1,0-1.56,0h0a1.36,1.36,0,0,1-.35,0c-.62-.21-1.51.5-1.86-.46-.27-.74.92-2.57,1.77-2.81A1.81,1.81,0,0,1,423.36,443.81Z" transform="translate(-134.24 -334.24)"/><path class="c" d="M323.13,454.43h0a9.06,9.06,0,0,1,3.81-.05h0c1.34-.33,2.77-.51,3.4-2,.13-.45-.32-1.05.34-1.39.06,0,.05-.39,0-.41s-.52-.22-.65-.12c-.91.61-1.72.22-2.54-.29h3.63l.08,0c0-.05,0-.09,0-.14l-3.29,0c-.36,0-.81-.17-.94.41h0a1.39,1.39,0,0,1-.48,1.43l0,0h0l-.27.46c.27.43-.11.45-.35.47-.43,0-.87,0-1.3,0-.16.26-.2.7-.59.66s-.53-.52-.6-.91l-.24-.24h0c-.34.66-.5-.27-.79-.09-.2-.39.06-.62.3-.86a5.73,5.73,0,0,1-.47-2.83c0-.27-.05-.68.47-.56h8.58a11.63,11.63,0,0,0-.14-3.33,4.35,4.35,0,0,0-2.47-3.19c-2.82-1.05-7.15-1.35-9.51,2a8.37,8.37,0,0,0-.72,2.63h0a4.11,4.11,0,0,1,0,2.85v1.21h0A9.6,9.6,0,0,0,320,453.3h0a1.25,1.25,0,0,0,.75.49,2.75,2.75,0,0,1,1.21.46Zm4.74-7.94c-.45,1-.45,1,.61,1h1.29l0,.19h-5.19C325.74,447.39,327.13,448,327.87,446.49Zm-5.27-1.37c.11-.3.22-.59.34-.88a2.16,2.16,0,0,1,2.68-1.4,3,3,0,0,1,1.38,2.94c-.14.48-.5.31-.77.31-1.2,0-2.4,0-3.6,0h0C322,445.77,322,445.45,322.6,445.12Z" transform="translate(-134.24 -334.24)"/><polygon class="c" points="229.23 120.05 229.23 120.05 229.23 120.05 229.23 120.05"/><path class="c" d="M358.9,454.25h0l4.57,0c0-.25.06-.45.36-.5.12,0,.31,0,.33-.08s-.86-.12-.26-.55l0,0,0,0,.08-.05c.5-.32.48.36.86.33a3,3,0,0,0,1.93-2.17c.05-.49.07-.88.7-.83a1.54,1.54,0,0,0,0-.95h0l-4,0h0a6.66,6.66,0,0,1-.56,2.11c-.22.35-.41.76-.94.71l-.23,0h0a.93.93,0,0,1-1.23,0c-.88-.34-1.1-1.07-1.24-1.92a14.81,14.81,0,0,1,.05-5.63c.31-1.45,1.06-2.16,2.13-2.09,1.3.09,1.67,1.05,1.87,2.12.06.31.07.63.11.95h0a29.59,29.59,0,0,1,3,0c1,.1,1.27-.32,1.12-1.2h0a7.52,7.52,0,0,0-1-2.29c-2.06-1.88-4.58-1.62-7.07-1.52h0l-2.26.88-1.13,1.05a7.06,7.06,0,0,0-1.26,4.78h0a1.83,1.83,0,0,1,0,1.89,6,6,0,0,0,.9,2.89h0l.34.46h0l.42.45a6.15,6.15,0,0,0,2.38,1Z" transform="translate(-134.24 -334.24)"/><path class="c" d="M445,441.08a.93.93,0,0,1-1.18,0c-.45,1.46-.35,1.71.91,1.81.64.06.55.42.55.81,0,1.86,0,3.72,0,5.59a17.9,17.9,0,0,0,.24,3.19c1.21,2.31,4.12,2.22,6.22,1.52l0,0-.45-.13c.88-.49.33-1.33.5-2-1.8,0-1.94-.15-2.13-1.7,0-2.08,0-4.16-.06-6.24,0-.76.17-1.05,1-1,.38,0,1.08.43,1.17-.45-.6-1-.6-1-1.88-1.38-.56-.77-.21-1.64-.23-2.46s-.18-1.09-1-.9l-3.33.71C445.16,439.31,445.62,440.25,445,441.08Z" transform="translate(-134.24 -334.24)"/><path class="t" d="M433.51,454.2h0c0-.43.34-.45.67-.45,0-2.75.05-5.5,0-8.26a2.52,2.52,0,0,1,.94-2.17.92.92,0,0,1,0-.16c-.6-.37.15-.84,0-1.24h0l-1,.47c.29-1.32-.43-1.37-1.38-1.36-2.91,0-2.91,0-2.91,2.89l0,10.31,3.53,0h0Z" transform="translate(-134.24 -334.24)"/><path class="s" d="M442.38,454h0c-.1-.05-.28-.1-.28-.15,0-3.25,0-6.49.07-9.73a1.29,1.29,0,0,1,.17-.43h0c.07-.75-.44-1.28-.75-1.88h0l-.18-.2a5.48,5.48,0,0,0-6.25.32h0c.15.4-.6.87,0,1.24a.71.71,0,0,0,.09.07c2.18-.46,2.94.13,3,2.4,0,2.87,0,5.74.08,8.61l.72.05h3.13C442.28,454.22,442.44,454.18,442.38,454ZM437,442.34c0,.11-.26,0-.39,0s-.15-.2-.07-.42c.28-.68.75-.39,1.24-.44C437.66,442.1,436.73,441.54,437,442.34Z" transform="translate(-134.24 -334.24)"/><path class="r" d="M236.25,454.2h0c0-.15,0-.29,0-.44v-9.23a3,3,0,0,0-2.89-3.34c.22-.25.52-.1.77-.16a4.9,4.9,0,0,0-4.37.69c-.22.31-.43.63-.68,1h2.1c.35,0,.4.14.27.42.29.29.77.43.76,1h0a3.27,3.27,0,0,1,.24,1.85c0,2.4,0,4.79,0,7.19,0,.38-.15.8.19,1.13H235Z" transform="translate(-134.24 -334.24)"/><path class="r" d="M227.85,454.2h0a13.1,13.1,0,0,0,.22-3.9c0-1.79,0-3.58,0-5.36,0-.51-.09-1.16.74-1.2a1.38,1.38,0,0,1,.2,0l0,0,0-.18h0c-.56-.33-1.25-.56-1-1.45a.15.15,0,0,0,0-.11c-.69-.94-1.74-.37-2.61-.59-.47-.13-.92.45-.92,1,0,3.67,0,7.35,0,11a3.8,3.8,0,0,0,.22.8l.71.08Z" transform="translate(-134.24 -334.24)"/><polygon class="u" points="256.04 89.03 256.04 89.03 256.04 89.03 256.04 89.03"/><path class="u" d="M365.58,423.49l24,0c.2-.15.57.12.68-.26l-.64,0h0c-1.2.21-2.37-.22-3.56-.21-7.94,0-15.87,0-23.8.15-1.11,0-1-.49-1-1.19q0-24.17,0-48.33c0-2.93-.14-5.86-.3-8.78a.38.38,0,0,1-.17.08h0l0,3.81c0,.56,0,1.12,0,1.67q0,25.88,0,51.73c0,.45-.23,1,.22,1.35h0C362.56,423.52,364.07,423.49,365.58,423.49Z" transform="translate(-134.24 -334.24)"/><path class="v" d="M323.93,338.3h0v0c-.13-.85.08-1.87-1.36-1.87q-21.87,0-43.75,0c-.76,0-1,.22-.83,1a3.67,3.67,0,0,1,2.36-.48c14-.13,28.06.27,42.09-.2a1,1,0,0,1,.77.34c.05.06.11.12.16.19l-.17,0c-1.24-.37-.12.65-.48.95s.2.73.51.94.24-.61.3-.37c.2.86.88,1.69.41,2.64-.35.71-.06.9.61.84h0c0-.16,0-.33,0-.5l-.28-2.13a.39.39,0,0,1-.13-.06.16.16,0,0,1,0-.12.41.41,0,0,1,0-.08s0-.09,0-.13C324.13,338.85,323.69,338.65,323.93,338.3Z" transform="translate(-134.24 -334.24)"/><path class="w" d="M348.31,436.49c.05.87,0,1.74.06,2.61h0a28.37,28.37,0,0,1,3.06,0c1,.12,1.31-.32,1.25-1.22l-.05-2.13h0c-1.19,0-2.38,0-3.57,0C348.49,435.73,348.28,435.91,348.31,436.49Z" transform="translate(-134.24 -334.24)"/><path class="x" d="M326.51,349.84h0c-.08.13-.24.27-.22.38.4,2.18.86,4.34,1.43,6.48.46,1.7.73,3.45,1.18,5.15.3,1.15.24,2.36.55,3.46l.87,3.13c.56,1.93.81,3.92,1.37,5.86a33.12,33.12,0,0,1,1,4.85,26.73,26.73,0,0,1,.58,5.52c.16-.23.24-.46.51-.52h0l-.12-1.67L332,373.86l-2.07-9.14c-.56-2.64-1.13-5.28-1.69-7.92l-.06-.4Z" transform="translate(-134.24 -334.24)"/><path class="y" d="M308.44,436.45h0l.49.26c.07-1.07.89-.68,1.44-.7,1.19,0,2.4.08,3.58,0s1.53.32,1.52,1.52c-.07,5.57,0,11.13,0,16.7h0c.73,0,.42-.54.43-.85,0-1.3,0-2.61,0-3.91a11.65,11.65,0,0,1,0-2.64,2,2,0,0,1,0-1.12c-.26-3-.14-6-.16-9,0-.78-.15-1.22-1-1.18a21.41,21.41,0,0,1-3.84,0c-.55,0-1.1.08-1.64.07S308.36,435.85,308.44,436.45Z" transform="translate(-134.24 -334.24)"/><path class="z" d="M390.12,368.8l-.09-1.91c-.3.35-.18.76-.18,1.15q0,15.15,0,30.3c0,.31,0,.62,0,.93h.22v-9.41c0-.6.06-1.2.06-1.79q0-6.76-.05-13.51v-5.75Z" transform="translate(-134.24 -334.24)"/><path class="aa" d="M224.5,453.4c0-3.67,0-7.35,0-11,0-.58.45-1.16.92-1,.87.22,1.92-.35,2.61.59a.15.15,0,0,1,0,.11c-.22.89.47,1.12,1,1.45h0a3.1,3.1,0,0,1,2.36-.36c.13-.28.08-.43-.27-.42h-2.1c.25-.37.46-.69.68-1l-1.24.65c.24-1.2-.33-1.45-1.32-1.34a14,14,0,0,1-2.15,0c-.58,0-.84.09-.83.77,0,4.14,0,8.28,0,12.42l.47,0A3.8,3.8,0,0,1,224.5,453.4Z" transform="translate(-134.24 -334.24)"/><path class="ab" d="M408.29,453.27c-.19-.08-.32-.14-.39.18-.12.51-.65.41-1,.55a7.94,7.94,0,0,1-5.21-.56c-.49-.26-1-.52-1.52-.13,1.56,1.21,3.45,1.24,5.29,1.43l.48,0a26.29,26.29,0,0,0,3.83-.79Z" transform="translate(-134.24 -334.24)"/><path class="ac" d="M472.41,445.37c-.72.17-.47.78-.48,1.2,0,2.55,0,5.09,0,7.63h.4Z" transform="translate(-134.24 -334.24)"/><path class="ad" d="M238.09,441.3h0c1,.28,2-.13,2.94-.05.72.06,1.09.27,1.21,1A22.89,22.89,0,0,0,243,446c.37,1.06.16,2.3,1,3.22,0-.23,0-.46,0-.69a3.53,3.53,0,0,1-.32-1.6,4.66,4.66,0,0,1-.4-1.76c0-.15-.06-.31-.08-.47h0c-.23-.91-.49-1.82-.66-2.74-.11-.61-.31-.91-1-.88-1.18.06-2.37.05-3.56.06a.22.22,0,0,1,0,.18l.14,0Z" transform="translate(-134.24 -334.24)"/><path class="c" d="M352.61,441.11h-.1l-.1,0h0q0,6.54,0,13.06a.43.43,0,0,0,.19,0c0-.31.05-.63.08-.94q0-6,0-12A.15.15,0,0,1,352.61,441.11Z" transform="translate(-134.24 -334.24)"/><path class="ae" d="M240.31,385.41c.13.87,1,1.61.48,2.58,0,0,0,0,0,0l.52,1h0l.28-.33-.26-1.61h0c-.27-.94-.53-1.88-.79-2.82a5.21,5.21,0,0,1-.65-1.75l-.27-.25h0C239.44,383.38,240.15,384.34,240.31,385.41Z" transform="translate(-134.24 -334.24)"/><path class="x" d="M325.06,343.32a12.87,12.87,0,0,0,.88,5.49c.11.31,0,.76.52.79h0l-.27-1.9a5.64,5.64,0,0,1-.43-1.94C325.52,345,325.29,344.14,325.06,343.32Z" transform="translate(-134.24 -334.24)"/><polygon class="af" points="116.12 106.81 116.12 106.81 116.12 106.81 116.12 106.81"/><path class="af" d="M250.87,442.75l-.51-1.7c-1.19.1-2.4-.23-3.56.19h0c0,.35.17.18.42.17,1,0,2.16-.7,2.85.49a3.28,3.28,0,0,1,.59,2c-.05.38,0,.73.54.71l0-.7a1,1,0,0,1-.24-1A.18.18,0,0,1,250.87,442.75Z" transform="translate(-134.24 -334.24)"/><path class="ag" d="M298.84,440.15a.55.55,0,0,0-.4-.63v8a.47.47,0,0,0,.17,0h0c0-1.9.05-3.8.07-5.69C298.67,441.22,298.47,440.66,298.84,440.15Z" transform="translate(-134.24 -334.24)"/><path class="ah" d="M246.79,450.38a27.73,27.73,0,0,1-1.19,3.82c1,.12.47-.9.93-1.17a1.34,1.34,0,0,1,.26-.95,2.33,2.33,0,0,1,.46-1.53h0v-.63h0C247,450,246.88,450.12,246.79,450.38Z" transform="translate(-134.24 -334.24)"/><path class="ai" d="M274,397.27c-.08,0-.24.1-.24.13.26,1.34-.46,2.69.05,4,.1-.42.2-.83.29-1.25l.08-2.48h0Z" transform="translate(-134.24 -334.24)"/><path class="aj" d="M361,364.89v-4.95h-.14c-.08.4-.16.81-.23,1.22h0c.41,1.26-.06,2.56.2,3.82h0A.38.38,0,0,0,361,364.89Z" transform="translate(-134.24 -334.24)"/><path class="ak" d="M274.34,392.07h0c-.31.36-.13.8-.19,1.2h0v.48h0c.08.48-.14,1,.2,1.44h0l.09-2.4C274.41,392.56,274.37,392.32,274.34,392.07Z" transform="translate(-134.24 -334.24)"/><path class="ae" d="M240.78,388v0c0-.62-.1-1.18-.92-1.2h0a.54.54,0,0,0,.22.53C240.49,387.37,240.43,387.89,240.78,388Z" transform="translate(-134.24 -334.24)"/><path class="al" d="M427.8,445.57c0-.31,0-.62,0-.93h0l-.31-.7h0A1.16,1.16,0,0,0,427.8,445.57Z" transform="translate(-134.24 -334.24)"/><line class="am" x1="256.8" y1="49.92" x2="256.8" y2="49.92"/><path class="an" d="M249.43,424c-.39.13-.89-.23-1.22.15a.64.64,0,0,0-.1.13h0l1.25-.08A.48.48,0,0,1,249.43,424Z" transform="translate(-134.24 -334.24)"/><line class="am" x1="257.04" y1="59.52" x2="257.04" y2="59.52"/><path class="ao" d="M241.58,388.65l-.28.33h0l.33.59.06-.13h0l.12-.23h0l-.06-.46A1.4,1.4,0,0,0,241.58,388.65Z" transform="translate(-134.24 -334.24)"/><path class="ap" d="M445.29,368.05l30.95,0h0l.09-.21h0c-.05-1.61-.09-3.21-.14-4.81-.42,1.12-.08,2.29-.19,3.43-.05.45.18,1-.24,1.36H445.32A.24.24,0,0,0,445.29,368.05Z" transform="translate(-134.24 -334.24)"/><path class="aq" d="M476,366.48c.11-1.14-.23-2.31.19-3.43l-.15-2.89c0-.38-.05-.75-.08-1.12h0a7.73,7.73,0,0,1-.19-.8,23.65,23.65,0,0,0-1.91-6.78c-.19,1.11.39,2.07.68,3.06a42.75,42.75,0,0,1,1.17,7,55.82,55.82,0,0,1,.05,6.34C476.18,367.44,476,366.93,476,366.48Z" transform="translate(-134.24 -334.24)"/><path class="ar" d="M464.45,340.08l0,0h0a.53.53,0,0,0-.18,0c.06.35-.47.17-.42.43s.3.41.63.34c.53-.11.76.34,1,.65a1.76,1.76,0,0,0,1.75.84h0A35.43,35.43,0,0,0,464.45,340.08Z" transform="translate(-134.24 -334.24)"/><path class="as" d="M437.59,425.62a26.87,26.87,0,0,0-6.94,0Z" transform="translate(-134.24 -334.24)"/><path class="at" d="M412.22,340.25c-.76-.41-1.47-.08-2-.5a2.67,2.67,0,0,0-1.19.7,1.8,1.8,0,0,1,.39-.08C410.28,340.27,411.21,340.69,412.22,340.25Z" transform="translate(-134.24 -334.24)"/><path class="at" d="M414.22,339.39a2,2,0,0,0-1.29-.25c.14.5.67.5.85.84s.14.48.46.44a.32.32,0,0,0,.29-.32A.6.6,0,0,0,414.22,339.39Z" transform="translate(-134.24 -334.24)"/><path class="au" d="M426.79,362.08a4.91,4.91,0,0,0-.31,3.59h0Z" transform="translate(-134.24 -334.24)"/><path class="ar" d="M462.33,339c.05,1.21.93,1,1.69,1h0A4.8,4.8,0,0,0,462.33,339Z" transform="translate(-134.24 -334.24)"/><path class="av" d="M472.46,411.09a5.81,5.81,0,0,0,1.14-2,1.89,1.89,0,0,0-1.15,2Z" transform="translate(-134.24 -334.24)"/><path class="aw" d="M425.31,425.22h0c.16,0,.36,0,.5-.23h-2.52A4.43,4.43,0,0,0,425.31,425.22Z" transform="translate(-134.24 -334.24)"/><path class="ax" d="M471.45,412.48a1.84,1.84,0,0,0-1.18,1.56h0A3.65,3.65,0,0,0,471.45,412.48Z" transform="translate(-134.24 -334.24)"/><path class="ay" d="M441.44,408.62c.8,0,.92-.1.67-.72h0Z" transform="translate(-134.24 -334.24)"/><path class="ar" d="M463.59,340.94c0-.09-.12-.18-.19-.27-.2.16-.47.28-.5.72C463.27,341.3,463.59,341.33,463.59,340.94Z" transform="translate(-134.24 -334.24)"/><path class="az" d="M447.51,424.77h0l1.12-.12C448.24,424.47,447.83,424.24,447.51,424.77Z" transform="translate(-134.24 -334.24)"/><path class="ba" d="M443.42,425.23h0l1.37-.08C444.32,424.9,443.85,424.76,443.42,425.23Z" transform="translate(-134.24 -334.24)"/><path class="at" d="M411.41,339.6c.24-.1.26-.35.25-.58.75.14,1.37-.38,2.07-.42,1.06-.06,0-.38.1-.55a6.14,6.14,0,0,0-2.17,1h0l-.69.32C411.07,339.5,411.19,339.69,411.41,339.6Z" transform="translate(-134.24 -334.24)"/><path class="bb" d="M472.46,411.09h0c-.58,0-.53.36-.47.75h0A1.14,1.14,0,0,0,472.46,411.09Z" transform="translate(-134.24 -334.24)"/><path class="ap" d="M243.84,368.07c2.75,0,5.5,0,8.25,0,6.94,0,13.88,0,20.82,0,.92,0,1.15-.23,1.08-1.13-.11-1.39-.09-2.79-.12-4.18a10.08,10.08,0,0,0-.16,3.67c0,1.12-.32,1.4-1.41,1.39-9.84,0-19.68,0-29.52,0C243.05,368.31,243.49,368.07,243.84,368.07Z" transform="translate(-134.24 -334.24)"/><path class="bc" d="M201.3,354.88l2.59,0c-1.07-.69-2.26-.37-3.42-.41h0C200.56,354.93,201,354.88,201.3,354.88Z" transform="translate(-134.24 -334.24)"/><path class="bd" d="M195,354.37h.68c1.26-.44,2.56-.08,3.83-.2h0c-1.4-.51-2.85-.12-4.27-.23h0Z" transform="translate(-134.24 -334.24)"/><path class="be" d="M195.69,354.36h3.84a1.34,1.34,0,0,1,0-.2h0C198.25,354.28,197,353.92,195.69,354.36Z" transform="translate(-134.24 -334.24)"/><path class="bf" d="M208.15,355.12c-.6-.47-1.29-.19-1.94-.21h0a.59.59,0,0,0,.56.19Z" transform="translate(-134.24 -334.24)"/><path class="bg" d="M206.77,355.1c.41.43.93.21,1.4.23h0a1.49,1.49,0,0,0,0-.21h0Z" transform="translate(-134.24 -334.24)"/><path class="bh" d="M214.91,357.25c-.1-.44-.41-.49-.79-.41h0C214.22,357.3,214.55,357.3,214.91,357.25Z" transform="translate(-134.24 -334.24)"/><path class="bi" d="M216.34,357.74c-.08-.46-.4-.49-.77-.43h0C215.65,357.77,216,357.79,216.34,357.74Z" transform="translate(-134.24 -334.24)"/><path class="bj" d="M224.68,362.1h0l0-.49-.7,0h0C224,362.09,224.35,362.09,224.68,362.1Z" transform="translate(-134.24 -334.24)"/><path class="bk" d="M218.72,358.72a.64.64,0,0,0-.78-.43h0C218,358.74,218.38,358.73,218.72,358.72Z" transform="translate(-134.24 -334.24)"/><path class="bl" d="M223.05,361.12a.7.7,0,0,0-.74-.48h0C222.37,361.08,222.67,361.16,223.05,361.12Z" transform="translate(-134.24 -334.24)"/><path class="i" d="M136.45,355.83h0l-.13-.44-.17-.25h0c-.22-.26-.45-.51-.68-.77h0C135.58,355,135.67,355.65,136.45,355.83Z" transform="translate(-134.24 -334.24)"/><path class="bm" d="M274.89,459.71a6.37,6.37,0,0,0,1.9,0h0A2.22,2.22,0,0,0,274.89,459.71Z" transform="translate(-134.24 -334.24)"/><path class="bn" d="M306.8,422.2V370.94c0-1,0-2.07-.06-3.11a8.09,8.09,0,0,1-.14-3h0l-.09-2.78h0a6.45,6.45,0,0,0-.17,2.83q0,28.58,0,57.16c0,.41-.3,1,.4,1.21h0C306.76,422.91,306.8,422.55,306.8,422.2Z" transform="translate(-134.24 -334.24)"/><path class="v" d="M346.72,336.87h40.64a6.42,6.42,0,0,1,2,.25c-.24-.73-1-.28-1.43-.67-.44,0-.87,0-1.31,0H351.43c-2.08,0-4.15,0-6.22,0C345.58,337.07,346.19,336.87,346.72,336.87Z" transform="translate(-134.24 -334.24)"/><path class="u" d="M362.05,367.5c0,.27-.05.38-.05.5v53.56c0,.34-.1.73.24,1V368.8A2.53,2.53,0,0,0,362.05,367.5Z" transform="translate(-134.24 -334.24)"/><path class="bo" d="M362.24,368.8v53.76c.39-.35.23-.82.23-1.24q0-25.63,0-51.28C362.47,369.62,362.63,369.15,362.24,368.8Z" transform="translate(-134.24 -334.24)"/><path class="bp" d="M389.36,337.12c.05,2.06.08,4.12.19,6.18.17,3.42.05,6.86.05,10.29V357h.28v-5.6h0q0-6.68,0-13.34c0-1.74,0-1.74-1.81-1.67l-.12,0C388.33,336.84,389.12,336.39,389.36,337.12Z" transform="translate(-134.24 -334.24)"/><path class="bq" d="M390.28,423.27h0q0-8,0-16.07h0a2.52,2.52,0,0,0-.18.55,50.6,50.6,0,0,0-.1,6.16c.09,2.75.09,5.53.1,8.3a1.34,1.34,0,0,1-.45,1h0Z" transform="translate(-134.24 -334.24)"/><path class="br" d="M277.75,421.67q0-9.3,0-18.6c0-.38.12-.8-.2-1.14,0,3.75-.06,7.51-.07,11.27,0,3.19,0,6.39,0,9.58C277.91,422.49,277.75,422.05,277.75,421.67Z" transform="translate(-134.24 -334.24)"/><path class="bs" d="M306.67,361.13h.09a1.48,1.48,0,0,0-.49-1.36c.11.57-.11,1,.31,1.35h.09Z" transform="translate(-134.24 -334.24)"/><path class="u" d="M361.65,368.61a1.14,1.14,0,0,0,0-1.06A1.14,1.14,0,0,0,361.65,368.61Z" transform="translate(-134.24 -334.24)"/><path class="bt" d="M325,342.88h0c-.16-.4,0-.9-.42-1.22,0,.17,0,.34,0,.5h0C324.57,342.48,324.52,342.84,325,342.88Z" transform="translate(-134.24 -334.24)"/><path class="bu" d="M345.71,422.58c-.6.09-.66.34-.2.73C345.75,423.11,345.7,422.84,345.71,422.58Z" transform="translate(-134.24 -334.24)"/><path class="bv" d="M274.15,393.28h-1.91c-.08.59-.55.48-.93.48H246.53c-.38,0-.85.11-.93-.48h-1.92a3.63,3.63,0,0,0,2.7.92c9.26-.2,18.53.61,27.77-.44h0Z" transform="translate(-134.24 -334.24)"/><path class="e" d="M272.24,393.28h.48c-.35-.39-.82-.23-1.24-.23H244.92c-.42,0-.89-.16-1.24.23h28.56Z" transform="translate(-134.24 -334.24)"/><path class="bw" d="M224.52,399a35.6,35.6,0,0,1-.55-6.44l-.16-.11h0a31.88,31.88,0,0,0,.79,9.22,26.66,26.66,0,0,0,2.13,5.78,1.71,1.71,0,0,0,1.59,1.15C225.79,405.94,225,402.57,224.52,399Z" transform="translate(-134.24 -334.24)"/><path class="bx" d="M235,425.63a23.87,23.87,0,0,0-6.7,0Z" transform="translate(-134.24 -334.24)"/><path class="by" d="M223.77,391.83h0c0-1.26,0-2.52,0-3.77l-.5-.06h0A16.53,16.53,0,0,0,223.77,391.83Z" transform="translate(-134.24 -334.24)"/><path class="bz" d="M198.59,385.85h0a.86.86,0,0,0-.77.2c1.13-.05,2.28.26,3.38-.21Z" transform="translate(-134.24 -334.24)"/><path class="ca" d="M273.73,401.71c-.86.49-.54,1.2-.36,1.89h0A6.45,6.45,0,0,0,273.73,401.71Z" transform="translate(-134.24 -334.24)"/><path class="cb" d="M198.59,385.85h2.61l.25-.2h0l-2.86,0A.45.45,0,0,0,198.59,385.85Z" transform="translate(-134.24 -334.24)"/><path class="cc" d="M197.82,386.05h0a.86.86,0,0,1,.77-.2h0a.45.45,0,0,1,0-.23c-.58.09-1.3-.38-1.72.42h.95Z" transform="translate(-134.24 -334.24)"/><path class="cd" d="M194,386.31h0a1.49,1.49,0,0,1,0-.21c-.5.11-1.17-.38-1.47.43h1.18Z" transform="translate(-134.24 -334.24)"/><path class="ce" d="M223.09,388h0c-.38-.53-1-.45-1.49-.44C221.89,388.38,222.58,387.87,223.09,388Z" transform="translate(-134.24 -334.24)"/><path class="cf" d="M212.71,385.85l.27.19h1.18c-.35-.62-.94-.41-1.46-.43A1,1,0,0,1,212.71,385.85Z" transform="translate(-134.24 -334.24)"/><path class="cg" d="M257.74,421.37l.1-.06c-.38-.59-.91-.43-1.45-.3a3.55,3.55,0,0,1,1.24.36Z" transform="translate(-134.24 -334.24)"/><path class="ch" d="M211,385.85h0l0,0,0-.19h-1.91a1.34,1.34,0,0,1,0,.2Z" transform="translate(-134.24 -334.24)"/><path class="ci" d="M211,385.85h-1.91c.6.47,1.29.15,1.93.22A1.49,1.49,0,0,0,211,385.85Z" transform="translate(-134.24 -334.24)"/><path class="cj" d="M211.05,385.83h0l0,0h0a1.49,1.49,0,0,1,0,.21H213l-.27-.19Z" transform="translate(-134.24 -334.24)"/><path class="ck" d="M217.77,386.8a.47.47,0,0,0-.05.1s0,.08.05.08l1.69,0h0a.59.59,0,0,0-.54-.21Z" transform="translate(-134.24 -334.24)"/><path class="cl" d="M194,386.31h0l-.27.21c.57,0,1.17.22,1.69-.2Z" transform="translate(-134.24 -334.24)"/><path class="cm" d="M194,386.31h1.42l.27-.21H194A1.49,1.49,0,0,0,194,386.31Z" transform="translate(-134.24 -334.24)"/><path class="cn" d="M217.77,386.8h1.15c-.34-.39-.77-.22-1.17-.21h0a1.36,1.36,0,0,0,0,.2Z" transform="translate(-134.24 -334.24)"/><polygon class="r" points="88.57 36.95 88.57 36.95 88.57 36.95 88.57 36.95"/><path class="r" d="M191.31,372.71a46.49,46.49,0,0,0,6-.47c3.3-.41,6.56.39,9.85.43.51.09,1.18-.39,1.49.41h0c.42.1.83.15,1.25.28,1.55.47,3.15.82,4.72,1.22.36-.05.68,0,.77.43h0l.64.07a.7.7,0,0,1,.79.42h0l.19,0a.7.7,0,0,1,.77.44h0a2.87,2.87,0,0,0,1.41.51c.35,0,.69,0,.74.44h0a21.88,21.88,0,0,0,2.83,1.5c.65,0,.77-.35.76-.91,0-1,0-2,0-2.95h0c0-.35,0-.7,0-1.05a3,3,0,0,0-.71-2.33h0c-.77-.07-1.82.4-1.92-1h0a12,12,0,0,0-3.36-1.42c-.39,0-.85.15-1-.43h0a5.27,5.27,0,0,1-.81-.15,22.31,22.31,0,0,0-6.35-1.36l-2.16,0h0c-.65-.09-1.34.25-1.94-.24v-.19h-6.2a3.44,3.44,0,0,1-2.22.41h0l-1.16.06h0a1.43,1.43,0,0,1-.08.22c-.5.45-1.09.19-1.65.21h0a4.17,4.17,0,0,0-2.32.52h0Z" transform="translate(-134.24 -334.24)"/><path class="co" d="M164,375c0,.8-1.05.26-1.19.92,1.44.33,2.72-.73,4.14-.45h0A17.27,17.27,0,0,0,164,375Z" transform="translate(-134.24 -334.24)"/><path class="cp" d="M223.62,374.57h-.09c0,1,0,2,0,2.95,0,.56-.11.93-.76.91.09.53.5.47.88.47h0c0-1.44.05-2.88.07-4.32Z" transform="translate(-134.24 -334.24)"/><path class="cq" d="M155.14,372.09c.7.62,1.26,1.57,2.44,1h0A10.39,10.39,0,0,0,155.14,372.09Z" transform="translate(-134.24 -334.24)"/><path class="cr" d="M199.37,384.71h-1.74C198.35,385.18,198.86,385.21,199.37,384.71Z" transform="translate(-134.24 -334.24)"/><path class="cs" d="M239.63,396.89a2.16,2.16,0,0,0-.77-1.86h0c-.15.38.49.77,0,1.15h0C239.08,396.45,239.24,396.8,239.63,396.89Z" transform="translate(-134.24 -334.24)"/><path class="ct" d="M207.16,372.67c.34.7,1,.35,1.49.41h0C208.34,372.28,207.67,372.76,207.16,372.67Z" transform="translate(-134.24 -334.24)"/><path class="cu" d="M211.05,385.83h0l1.66,0a1,1,0,0,0,0-.24h0l-1.68,0h0Z" transform="translate(-134.24 -334.24)"/><path class="cv" d="M214.62,374.58c.09.45.39.5.77.43h0C215.3,374.57,215,374.53,214.62,374.58Z" transform="translate(-134.24 -334.24)"/><path class="cw" d="M216,375.08c.09.46.43.46.79.42h0A.7.7,0,0,0,216,375.08Z" transform="translate(-134.24 -334.24)"/><path class="cx" d="M217,375.54c.09.44.4.5.77.44h0A.7.7,0,0,0,217,375.54Z" transform="translate(-134.24 -334.24)"/><path class="cy" d="M219.19,376.49c.16.28.36.52.74.44h0C219.88,376.46,219.54,376.45,219.19,376.49Z" transform="translate(-134.24 -334.24)"/><path class="cz" d="M175.17,356.53h-9.41c-.18,0-.43-.08-.55.25h9.73c.12,0,.45.1.24-.24v0Z" transform="translate(-134.24 -334.24)"/><path class="da" d="M223.52,373.52c0,.35,0,.7,0,1.05h.18c0-1,.09-1.91.13-2.87h0a1.13,1.13,0,0,0-1-.52h0A3,3,0,0,1,223.52,373.52Z" transform="translate(-134.24 -334.24)"/><path class="db" d="M222.81,371.19a3.21,3.21,0,0,0-1.92-1h0C221,371.59,222,371.12,222.81,371.19Z" transform="translate(-134.24 -334.24)"/><path class="dc" d="M199.08,366.43c-.75.09-1.61-.44-2.22.41h0A3.44,3.44,0,0,0,199.08,366.43Z" transform="translate(-134.24 -334.24)"/><path class="dd" d="M189.58,354.85c.74-.07,1.52.28,2.22-.22h0A5.21,5.21,0,0,0,189.58,354.85Z" transform="translate(-134.24 -334.24)"/><path class="de" d="M207.22,366.63h0l0,0,0,.22h0l2.16,0-.3-.2Z" transform="translate(-134.24 -334.24)"/><path class="df" d="M161.15,356.07s-.05.07-.06.1a.15.15,0,0,0,0,.09l1.74,0h0A3.68,3.68,0,0,0,161.15,356.07Z" transform="translate(-134.24 -334.24)"/><path class="dg" d="M207.22,366.63h0l1.86,0c-.59-.44-1.26-.2-1.9-.21A1.29,1.29,0,0,0,207.22,366.63Z" transform="translate(-134.24 -334.24)"/><path class="dh" d="M207.19,366.65h0l0,0h0a1.29,1.29,0,0,1,0-.19h-1.9v.19Z" transform="translate(-134.24 -334.24)"/><path class="di" d="M217.53,368.79a.81.81,0,0,0-1-.43h0C216.68,368.94,217.14,368.79,217.53,368.79Z" transform="translate(-134.24 -334.24)"/><path class="dj" d="M185.4,369.05a1.91,1.91,0,0,0,1.26-.23,5.14,5.14,0,0,0-1.36,0c-.33.11-.09.15,0,.19l.05,0Z" transform="translate(-134.24 -334.24)"/><path class="dk" d="M195.62,367.12l-1.33,0h0l-.32.19h0C194.53,367.31,195.12,367.57,195.62,367.12Z" transform="translate(-134.24 -334.24)"/><path class="dl" d="M136.42,345.28c-.35.24,0,.51.19.73l.36-.28h0C136.87,345.46,136.67,345.11,136.42,345.28Z" transform="translate(-134.24 -334.24)"/><path class="dm" d="M195.62,367.12a1.43,1.43,0,0,0,.08-.22h0c-.48,0-1-.2-1.41.24h0Z" transform="translate(-134.24 -334.24)"/><path class="dn" d="M311.15,439.35l-.24,1h0l.34.6.07.13v-1.7Z" transform="translate(-134.24 -334.24)"/><path class="do" d="M255,454.21c.58-.09.44-.56.48-.93C254.81,453.34,255,453.84,255,454.21Z" transform="translate(-134.24 -334.24)"/><path class="dp" d="M196.42,449.44a4.39,4.39,0,0,1-.29-2.32,1.79,1.79,0,0,1-.08-.55,9.88,9.88,0,0,1,0-2.24,3.39,3.39,0,0,1,.11-.71l.06-1.38a6.51,6.51,0,0,1,1.15-3.63c-.65-.1-.74.37-1,.82-.57,1.07-.29,2.27-.6,3.36-.65,2.29-.18,4.55.19,6.81,0,.23.24.29.44.32Z" transform="translate(-134.24 -334.24)"/><path class="dq" d="M202.89,449.55c-.18-1.13.48-1.31,1.29-1.31.64,0,1.28,0,1.91,0,1.08-.08.87.68.86,1.28,0,.33-.66,0-.57.45.24,1.34-.78,1.08-1.55,1.16.2.55.69.9.74,1.46h0a5.6,5.6,0,0,0,1.86-4.07c.06-.41-.11-.55-.52-.54-1.27,0-2.54,0-3.8,0-.53,0-.56.31-.5.71h0C202.69,448.93,202.53,449.22,202.89,449.55Z" transform="translate(-134.24 -334.24)"/><path class="dr" d="M191.16,447.76a12.07,12.07,0,0,0,0-4.79h0A25.55,25.55,0,0,0,191.16,447.76Z" transform="translate(-134.24 -334.24)"/><path class="ds" d="M197.84,438.16a4.6,4.6,0,0,1,2.55-.44l.06,0c.12-.07.26-.19.23-.19-1,0-2.06-.38-3,.36-.33.27,0,.26.13.3Z" transform="translate(-134.24 -334.24)"/><path class="dt" d="M198.33,435.32a5.25,5.25,0,0,0,3.09,0h0A13.31,13.31,0,0,0,198.33,435.32Z" transform="translate(-134.24 -334.24)"/><path class="du" d="M345.88,435.83h0l-.21,0v18.35c.32-.23.06-.61.24-.88-.13-3.84-.11-7.68,0-11.53h0a5.83,5.83,0,0,1,0-1.91v0C345.89,438.49,345.89,437.16,345.88,435.83Z" transform="translate(-134.24 -334.24)"/><path class="dv" d="M337,449.43h0c0-1.27,0-2.54,0-3.81A3.72,3.72,0,0,0,337,449.43Z" transform="translate(-134.24 -334.24)"/><path class="dw" d="M338,454.44a1,1,0,0,0-1.2,0H338Z" transform="translate(-134.24 -334.24)"/><path class="dx" d="M285.2,441.1c0,.31-.1.65.19.89h0C285.25,441.72,285.9,441.26,285.2,441.1Z" transform="translate(-134.24 -334.24)"/><path class="dy" d="M381.14,443.68a1.33,1.33,0,0,0-.39,1.09,37.6,37.6,0,0,1,.16,6.54c0,.53-.29,1.21.33,1.66h0C381.21,449.87,381.17,446.78,381.14,443.68Z" transform="translate(-134.24 -334.24)"/><path class="dz" d="M376,442.93h0a1,1,0,0,1,.86.86c.11.74.1,1.49.15,2.24a6.27,6.27,0,0,0,.11-2.24c0-.78-.38-1.19-1.21-1.05h0A.66.66,0,0,1,376,442.93Z" transform="translate(-134.24 -334.24)"/><path class="ea" d="M374.43,442.91a.64.64,0,0,1,.06-.18h0c-.81,0-1.44.14-1.24,1.18h0C373.58,443.51,373.71,442.86,374.43,442.91Z" transform="translate(-134.24 -334.24)"/><path class="eb" d="M372.33,441.09c.2.23.48.19.74.18.09,0,.26,0,.19-.14s-.17-.09-.27-.12h0Z" transform="translate(-134.24 -334.24)"/><path class="ec" d="M459,452.53h0c-.1.08-.47.13-.15.21a1.54,1.54,0,0,0,1.51-.18h0Z" transform="translate(-134.24 -334.24)"/><path class="ed" d="M267.17,453.53h0a5.5,5.5,0,0,0,.66-1.76s0-.09,0-.13a1.42,1.42,0,0,0-.65-1h0c-.67,1.51-1.21,1.8-3.06,1.64h0c.24.74.87.58,1.36.48s.84-.15,1,.38h0C267.05,452.76,266.91,453.46,267.17,453.53Z" transform="translate(-134.24 -334.24)"/><path class="ee" d="M271.31,444.54c0,2.74,0,5.48,0,8.22,0,.28,0,.57.26.76,0-1.15,0-2.29-.08-3.43A44.68,44.68,0,0,0,271.31,444.54Z" transform="translate(-134.24 -334.24)"/><path class="aw" d="M264.11,452.26a2.22,2.22,0,0,1-.52-3.32l.3-.43h0c-.84-.17-1,.44-1.16,1-.37,1.37.31,2.69,1.39,2.73h0Z" transform="translate(-134.24 -334.24)"/><path class="ef" d="M423.76,450.62h0c.75-.91,1.77-.13,2.66-.4s1.29.2.93,1.27c-.19.56-.87.87-.75,1.55h0a4,4,0,0,0,1.33-2.18v0c.11-.62,0-.92-.77-.88-1.06.06-2.12,0-3.18,0C423.85,450.15,423.65,450.33,423.76,450.62Z" transform="translate(-134.24 -334.24)"/><path class="eg" d="M420.86,452.54l-.09,0-.19.11s0,.08,0,.08c.6-.07,1.26.28,1.79-.26h0Z" transform="translate(-134.24 -334.24)"/><path class="eh" d="M419.74,446.35a.31.31,0,0,0-.33.27c0,.34.19.4.45.41.1,0,.27-.12.23-.13C419.69,446.87,420,446.46,419.74,446.35Z" transform="translate(-134.24 -334.24)"/><path class="ei" d="M426.1,442c0,.49.25.71.72.72h0A1.34,1.34,0,0,0,426.1,442Z" transform="translate(-134.24 -334.24)"/><path class="ej" d="M324.05,452.34h0c-.62,0-.75-.51-.95-.94a3.15,3.15,0,0,1-.44-2.2l0-1.22h0c-.52-.12-.43.29-.47.56a5.73,5.73,0,0,0,.47,2.83c0,.41.35.62.49.95h0l.24.24a2.06,2.06,0,0,0,1.19.25h0c.43,0,.87,0,1.3,0,.24,0,.62,0,.35-.47C325.48,452.5,324.77,452.8,324.05,452.34Z" transform="translate(-134.24 -334.24)"/><path class="ek" d="M327.48,450.15c.82.51,1.63.9,2.54.29.13-.1.45,0,.65.12s.07.38,0,.41c-.66.34-.21.94-.34,1.39.73-.35.54-1.2.93-1.74l-.09-.47h-3.7Z" transform="translate(-134.24 -334.24)"/><path class="el" d="M329.81,447.71l0-.19h-1.29c-1.06,0-1.06,0-.61-1-.74,1.49-2.13.9-3.25,1.22Z" transform="translate(-134.24 -334.24)"/><path class="em" d="M323.13,454.43h0a17.94,17.94,0,0,0,3.11.1l.7-.15A9.06,9.06,0,0,0,323.13,454.43Z" transform="translate(-134.24 -334.24)"/><path class="en" d="M323.36,452.56c.07.39.12.86.6.91s.43-.4.59-.66h0A2.06,2.06,0,0,1,323.36,452.56Z" transform="translate(-134.24 -334.24)"/><path class="eo" d="M318.33,448.94a4.11,4.11,0,0,0,0-2.85h0A9.65,9.65,0,0,0,318.33,448.94Z" transform="translate(-134.24 -334.24)"/><path class="en" d="M322.63,451.37c-.24.24-.5.47-.3.86.29-.18.45.75.79.09h0C323,452,322.61,451.78,322.63,451.37Z" transform="translate(-134.24 -334.24)"/><path class="ep" d="M322.63,446.06h0l0-.94C322,445.45,322,445.77,322.63,446.06Z" transform="translate(-134.24 -334.24)"/><path class="eq" d="M366.78,451.23a3,3,0,0,1-1.93,2.17c-.38,0-.36-.65-.86-.33l-.08.05v0c-.6.43.33.34.26.55s-.21.07-.33.08c-.3.05-.36.25-.36.5h0c2.39-.41,3.74-1.71,4-3.89C366.85,450.35,366.83,450.74,366.78,451.23Z" transform="translate(-134.24 -334.24)"/><path class="er" d="M363.47,454.27l-4.57,0h0a8.45,8.45,0,0,0,4.57,0h0Z" transform="translate(-134.24 -334.24)"/><path class="es" d="M354.8,447.54h0c0,.63,0,1.26,0,1.89A1.83,1.83,0,0,0,354.8,447.54Z" transform="translate(-134.24 -334.24)"/><path class="et" d="M451.27,453.86l.45.13.09,0h0a1.59,1.59,0,0,0,0-2.15C451.6,452.53,452.15,453.37,451.27,453.86Z" transform="translate(-134.24 -334.24)"/><path class="eu" d="M451.75,441.06h0l-1.9,0c1.28.39,1.28.39,1.88,1.38h0C451.74,442,451.75,441.52,451.75,441.06Z" transform="translate(-134.24 -334.24)"/><path class="ev" d="M445,441.08l-1.18,0A.93.93,0,0,0,445,441.08Z" transform="translate(-134.24 -334.24)"/><path class="ew" d="M433.51,454.2h0c.39.1.61-.05.67-.45C433.85,453.75,433.55,453.77,433.51,454.2Z" transform="translate(-134.24 -334.24)"/><path class="ex" d="M442.1,453.84c0,.05.18.1.28.15h0l.06-10.07-.1-.24h0a1.29,1.29,0,0,0-.17.43C442.14,447.35,442.11,450.59,442.1,453.84Z" transform="translate(-134.24 -334.24)"/><path class="ey" d="M436.49,441.89c-.08.22-.17.31.07.42s.42.14.39,0c-.22-.8.71-.24.78-.89C437.24,441.5,436.77,441.21,436.49,441.89Z" transform="translate(-134.24 -334.24)"/><path class="ez" d="M234.12,441h0c-.25.06-.55-.09-.77.16a3,3,0,0,1,2.89,3.34v9.23c.39-.36.23-.83.23-1.25,0-2.16,0-4.32,0-6.48,0-.38-.13-.8.19-1.14a4.12,4.12,0,0,0-.91-3.18C235.23,441.46,234.79,441,234.12,441Z" transform="translate(-134.24 -334.24)"/><path class="fa" d="M236.49,446c0,2.16,0,4.32,0,6.48,0,.42.16.89-.23,1.25,0,.15,0,.29,0,.44h0c.84,0,.45-.61.45-.93.05-2.64.05-5.27.06-7.91l-.08-.47C236.36,445.23,236.49,445.65,236.49,446Z" transform="translate(-134.24 -334.24)"/><path class="p" d="M306.78,365l-.18-.15h0a8.09,8.09,0,0,0,.14,3l.06-2.15C306.79,365.45,306.79,365.23,306.78,365Z" transform="translate(-134.24 -334.24)"/><path class="r" d="M217.72,440.83h0c-2.29-.12-4.57-.24-6.68.93h0a6.07,6.07,0,0,0-2.34,4.35,11.38,11.38,0,0,0,.71,5.94h0l.94,1.17v0l.7.49h0c.62.12,1.15.57,1.82.52h4.94l.84-.1h0l0,0c.5-.4,1.17-.55,1.59-1.07-.19-.09-.41-.26-.18-.42,1.36-.88,1.24-2.43,1.74-3.69h0c.09-1.12-.21-2.25.18-3.35h0a6.82,6.82,0,0,0-1-2.86A7,7,0,0,0,217.72,440.83Zm-1.13,11.28h0c-.76.76-1.61.45-2.46.21h0c-1.2.05-1.24-1.09-1.29-1.67a53.24,53.24,0,0,1,0-5.79c0-.24.26-.47.4-.7h0c0-.35.16-.64.57-.67l.16,0c.13-.49.54-.52.93-.56.22-.23.49-.15.75-.12a1.7,1.7,0,0,1,1.77,1.31,13,13,0,0,1-.06,7.15A1.15,1.15,0,0,1,216.59,452.11Z" transform="translate(-134.24 -334.24)"/><path class="fb" d="M221.84,449c-.5,1.26-.38,2.81-1.74,3.69-.23.16,0,.33.18.42A5.39,5.39,0,0,0,222,449Z" transform="translate(-134.24 -334.24)"/><path class="fc" d="M221.84,449h.2a17,17,0,0,0,0-3.35h0C221.63,446.71,221.93,447.84,221.84,449Z" transform="translate(-134.24 -334.24)"/><path class="fd" d="M228.09,444.94c0,1.78,0,3.57,0,5.36a13.1,13.1,0,0,1-.22,3.9h0c.85.17.64-.47.64-.89,0-2.54,0-5.08,0-7.62a3.15,3.15,0,0,1,.33-1.95C228,443.78,228.1,444.43,228.09,444.94Z" transform="translate(-134.24 -334.24)"/><path class="b" d="M387.91,435.81h0a20.58,20.58,0,0,0-3.33-.14c-.67-.06-.78.26-.78.84,0,5.9,0,11.81.05,17.72l4.06-.06A.55.55,0,0,0,388,454a1.09,1.09,0,0,1-.08.15Z" transform="translate(-134.24 -334.24)"/><path class="fe" d="M387.91,435.81v18.36A1.09,1.09,0,0,0,388,454a2.06,2.06,0,0,0,.07-1.1q0-8.55.06-17.09l-.21,0Z" transform="translate(-134.24 -334.24)"/><path class="ff" d="M405,452.14h0c.57.52,1.59.58,1.67,1.62l.24.24c.37-.14.9,0,1-.55.07-.32.2-.26.39-.18l1.46.66a5.59,5.59,0,0,0,3.84-4.49c.28-1.46.25-1.47-1.26-1.47a15.43,15.43,0,0,1-1.8,0c-1.14-.14-1.93.05-1.83,1.47,0,.31-.25.65-.39,1C407.75,452.05,406.42,452.2,405,452.14Z" transform="translate(-134.24 -334.24)"/><path class="r" d="M410.63,442.21l.51,0A.57.57,0,0,0,410.63,442.21Z" transform="translate(-134.24 -334.24)"/><path class="r" d="M406.64,453.76a2.2,2.2,0,0,1-1.22-.68,1.66,1.66,0,0,0-1.9-.52l.49-.75-.26-.41h0l-.11-.09a3.43,3.43,0,0,1-1.08-2.1,26.77,26.77,0,0,1-.19-6,2.52,2.52,0,0,1,.18-1.46c.12-1.87.77-3.39,2.7-4.05.56-.52.72-.55,1.42-.18a.15.15,0,0,1,0,.11s-.05.05-.08.08h0l.3.23c1.46.59,2,1.61,1.88,3.82h0a.36.36,0,0,1,.06.2l4.53,0h0a7,7,0,0,0-.43-3.6,6,6,0,0,0-4.86-3,9.77,9.77,0,0,1-3.81-.06h0l-1.21.22a1.85,1.85,0,0,1-2.21.9c-.79.28-1.24,1-1.85,1.49h0a12.54,12.54,0,0,0-1.05,2.26,19.62,19.62,0,0,0,.05,10.26,4.8,4.8,0,0,0,2.17,2.84c.54-.39,1-.13,1.52.13a7.94,7.94,0,0,0,5.21.56Zm-2.52-.69c-.62.27-.88-.21-1.42-.58a1,1,0,0,1,.79.12l0,0v0C403.74,452.75,403.91,453,404.12,453.07Zm-4.72-1.48a1.12,1.12,0,0,1,.41-.2c.12,0,.21.1.07.2a2.1,2.1,0,0,1-.42.22C399.43,451.71,399.38,451.6,399.4,451.59Zm1,.38c0-.09.2-.21.23-.19.3.2.45.49.39,1.09C400.68,452.48,400.23,452.43,400.37,452Z" transform="translate(-134.24 -334.24)"/><path class="c" d="M352.17,442.92c.1-1.13-.14-1.72-1.41-1.4a2.67,2.67,0,0,1-.49,0c-.06-.37.39-.19.44-.42h0l-2.37,0c0,3.35,0,6.69,0,10,0,1-.46,2.46.22,2.95s2.06.12,3.13.13C352.76,450.48,351.84,446.67,352.17,442.92Z" transform="translate(-134.24 -334.24)"/><path class="fg" d="M352.41,441.12h0l-1.7,0h0c0,.23-.5,0-.44.42a2.67,2.67,0,0,0,.49,0c1.27-.32,1.51.27,1.41,1.4-.33,3.75.59,7.56-.49,11.28l.72,0Q352.4,447.66,352.41,441.12Z" transform="translate(-134.24 -334.24)"/><path class="fh" d="M400.83,436.46a1.85,1.85,0,0,0,2.21-.9l-1.63.44,0,0h0l-.54.44Z" transform="translate(-134.24 -334.24)"/><path class="fi" d="M408.06,435.4a13.9,13.9,0,0,0-3.81-.06h0A9.77,9.77,0,0,0,408.06,435.4Z" transform="translate(-134.24 -334.24)"/><path class="fj" d="M212.88,454.27a9.58,9.58,0,0,0,4.93,0h-4.93Z" transform="translate(-134.24 -334.24)"/><path class="b" d="M245.6,393.28c.08.59.55.48.93.48h24.78c.38,0,.85.11.93-.48Z" transform="translate(-134.24 -334.24)"/><path class="fk" d="M207.19,366.65h0l-1.91,0c.6.49,1.29.15,1.94.24h0Z" transform="translate(-134.24 -334.24)"/><path class="fl" d="M213,448.72c0-.64,0-1.28,0-1.92a2.49,2.49,0,0,1,.16-1.45h0l.05-.9h0l0-.28h0c-.14.23-.4.46-.4.7a53.24,53.24,0,0,0,0,5.79c0,.58.09,1.72,1.29,1.67h0A4.64,4.64,0,0,1,213,448.72Z" transform="translate(-134.24 -334.24)"/><path class="fm" d="M213.22,444.44l.54-.95c-.41,0-.53.32-.57.67h0l0,.28Z" transform="translate(-134.24 -334.24)"/><path class="fn" d="M406.66,437.63a.15.15,0,0,0,0-.11c-.7-.37-.86-.34-1.42.18h1.33S406.65,437.66,406.66,437.63Z" transform="translate(-134.24 -334.24)"/><path class="ab" d="M403.52,452.56a1.66,1.66,0,0,1,1.9.52,2.2,2.2,0,0,0,1.22.68c-.08-1-1.1-1.1-1.67-1.62h0c-.31-.14-.7,0-1-.33Z" transform="translate(-134.24 -334.24)"/><path class="ab" d="M402.7,452.49c.54.37.8.85,1.42.58-.21-.12-.38-.32-.61-.46h0A1,1,0,0,0,402.7,452.49Z" transform="translate(-134.24 -334.24)"/><path class="ab" d="M400.6,451.78s-.21.1-.23.19c-.14.46.31.51.62.9C401.05,452.27,400.9,452,400.6,451.78Z" transform="translate(-134.24 -334.24)"/><path class="ab" d="M399.81,451.39a1.12,1.12,0,0,0-.41.2s0,.12.06.22a2.1,2.1,0,0,0,.42-.22C400,451.49,399.93,451.38,399.81,451.39Z" transform="translate(-134.24 -334.24)"/></svg>