<svg xmlns="http://www.w3.org/2000/svg" viewBox="0 0 406.83 166.27"><defs><style>.a,.b{fill:#fff;}.b{fill-rule:evenodd;}</style></defs><title>net_w</title><path class="a" d="M126.36,78.82a60.19,60.19,0,0,0-95.12,68.64L65,76.8H86.87l16.44,64.48,17.32-36.8L130.71,83l2.94-6.24Z" transform="translate(-10.74 -57.26)"/><path class="a" d="M44.13,166.59,41,173.16l7.21-2.85C46.8,169.13,45.43,167.9,44.13,166.59Z" transform="translate(-10.74 -57.26)"/><path class="a" d="M143.1,103.06l-32.88,70.1h-22L71.84,108.42l-22,46.17-5.72,12c1.3,1.31,2.67,2.54,4.08,3.72a60.19,60.19,0,0,0,94.89-67.25Z" transform="translate(-10.74 -57.26)"/><path class="a" d="M47,84l-7.78,0c-2.76,0-4.34-.39-4.36-4.16l0-3.76c0-2.56.74-4.16,3.45-4.17h2.21c2.43,0,3,.91,3,2.91l0,3.7a2.34,2.34,0,0,0,2.34,2.32l4.73,0a2.34,2.34,0,0,0,2.33-2.35V75.05c0-3.17,2.46-2.94,4.58-2.94l5.66,0a3.36,3.36,0,0,0,3.33-3.37l0-6.8a3.35,3.35,0,0,0-3.36-3.33l-6.81,0A3.36,3.36,0,0,0,53,62l0,5.56c0,2.46-.52,3.88-3.61,3.9H47.54c-2.18,0-3.63-.59-3.64-3.24V64.73a2.37,2.37,0,0,0-2.38-2.36l-4.81,0a2.38,2.38,0,0,0-2.36,2.39V68c0,3-1.57,3.85-4.54,3.86l-4.46,0A3.13,3.13,0,0,0,22.25,75l0,6.34a3.13,3.13,0,0,0,3.14,3.11l4.81,0c3.6,0,4.37,1.26,4.39,4.32l0,7.68a3,3,0,0,0,3,3l9.37,0a3.06,3.06,0,0,0,3-3L50,87A3,3,0,0,0,47,84Z" transform="translate(-10.74 -57.26)"/><rect class="a" x="17.29" y="85.86" width="8.22" height="8.21" rx="1.83" ry="1.83" transform="translate(-11.16 -57.16) rotate(-0.26)"/><path class="b" d="M15,77.52l-3,0a1.23,1.23,0,0,0-1.22,1.23l0,3A1.23,1.23,0,0,0,12,83l3,0a1.23,1.23,0,0,0,1.22-1.23v-3A1.24,1.24,0,0,0,15,77.52Z" transform="translate(-10.74 -57.26)"/><path class="b" d="M44.28,81.59l-7.44,0c-2.65,0-4.16-.38-4.17-4l0-3.6c0-2.45.7-4,3.29-4h2.12c2.33,0,2.88.88,2.88,2.8l0,3.53a2.23,2.23,0,0,0,2.24,2.22l4.53,0A2.23,2.23,0,0,0,50,76.32l0-3.29c0-3,2.36-2.81,4.39-2.82l5.42,0A3.21,3.21,0,0,0,62.94,67l0-6.51a3.22,3.22,0,0,0-3.22-3.19l-6.51,0A3.21,3.21,0,0,0,50,60.51l0,5.33c0,2.35-.49,3.71-3.45,3.73H44.81c-2.09,0-3.47-.56-3.48-3.11l0-3.32A2.27,2.27,0,0,0,39,60.89l-4.61,0a2.27,2.27,0,0,0-2.26,2.28v3.1c0,2.92-1.5,3.69-4.34,3.7l-4.27,0a3,3,0,0,0-3,3l0,6.07a3,3,0,0,0,3,3l4.61,0c3.43,0,4.18,1.21,4.19,4.13l0,7.35a2.92,2.92,0,0,0,2.92,2.89l9,0a2.93,2.93,0,0,0,2.9-2.92l0-9A2.9,2.9,0,0,0,44.28,81.59Z" transform="translate(-10.74 -57.26)"/><path class="a" d="M50.05,212.92l6,.88A15,15,0,0,1,50.78,221a13.74,13.74,0,0,1-8.2,2.5c-3.52,0-6.28-1-8.26-3.1s-3-5.07-3-9a19.25,19.25,0,0,1,2-8.76,14.36,14.36,0,0,1,5.53-6.09,14.81,14.81,0,0,1,7.7-2.11,11.33,11.33,0,0,1,7.57,2.45,9.94,9.94,0,0,1,3.4,6.66l-5.68.53A5.84,5.84,0,0,0,50,200.55a5.46,5.46,0,0,0-3.59-1.1,8,8,0,0,0-4.59,1.45,9.94,9.94,0,0,0-3.41,4.55,16.16,16.16,0,0,0-1.27,6.18,7.48,7.48,0,0,0,1.66,5.21A5.32,5.32,0,0,0,43,218.68a6.81,6.81,0,0,0,4.22-1.45A8.62,8.62,0,0,0,50.05,212.92Z" transform="translate(-10.74 -57.26)"/><path class="a" d="M72.35,223H66.41l6-28.09H85.24a15.82,15.82,0,0,1,5.14.66,5.89,5.89,0,0,1,3,2.43,7.77,7.77,0,0,1,1.13,4.27,8.28,8.28,0,0,1-2.2,5.91,10.69,10.69,0,0,1-6.67,2.89,11.21,11.21,0,0,1,2.15,2.62A70.26,70.26,0,0,1,92.18,223H85.81q-.77-2.37-3-7.41A8.51,8.51,0,0,0,80.21,212a5.68,5.68,0,0,0-2.95-.56H74.84Zm3.4-15.84h3.14a22.83,22.83,0,0,0,6.34-.56,5.1,5.1,0,0,0,2.45-1.74,4.09,4.09,0,0,0,.88-2.49,2.49,2.49,0,0,0-1.28-2.3,7.86,7.86,0,0,0-3.4-.46H77.36Z" transform="translate(-10.74 -57.26)"/><path class="a" d="M103.41,223l6-28.09h21.36l-1,4.7H114.36L113,206H127.9l-1,4.69H112l-1.81,7.63h16.77l-1,4.69Z" transform="translate(-10.74 -57.26)"/><path class="a" d="M138.4,223l6-28.09h7.76c2.16,0,3.54,0,4.15.1a12,12,0,0,1,3.19.71,9,9,0,0,1,2.56,1.5,9.77,9.77,0,0,1,2,2.33,11.18,11.18,0,0,1,1.29,3.13,15.77,15.77,0,0,1,.45,3.88,17.55,17.55,0,0,1-1.78,8.06,16,16,0,0,1-4.47,5.59,13.59,13.59,0,0,1-5.33,2.37,27.89,27.89,0,0,1-5.68.42Zm6.9-4.52h3a20.4,20.4,0,0,0,4.73-.39,6.57,6.57,0,0,0,2.68-1.47,12.41,12.41,0,0,0,2.95-4.14,14.32,14.32,0,0,0,1.2-6.09,8.23,8.23,0,0,0-1-4.49,4.77,4.77,0,0,0-2.44-2,13,13,0,0,0-3.64-.35h-3.44Z" transform="translate(-10.74 -57.26)"/><path class="a" d="M175.17,223l6-28.09h5.92l-6,28.09Z" transform="translate(-10.74 -57.26)"/><path class="a" d="M207.19,223h-5.93l5-23.39h-8.45l1-4.7h22.7l-1,4.7h-8.33Z" transform="translate(-10.74 -57.26)"/><path class="a" d="M252.56,194.94h5.91l-3.26,15.25L254.4,214a5.88,5.88,0,0,0-.08.9,3.49,3.49,0,0,0,1.25,2.75,5.39,5.39,0,0,0,3.63,1.08,7.19,7.19,0,0,0,3.54-.78,5.29,5.29,0,0,0,2.16-2.34,24.34,24.34,0,0,0,1.55-5.27l3.3-15.35h5.92l-3.28,15.37a30.54,30.54,0,0,1-2.4,7.42,10.48,10.48,0,0,1-4.11,4.17,13.63,13.63,0,0,1-7,1.61q-5,0-7.7-2.4a8,8,0,0,1-2.67-6.18,11.82,11.82,0,0,1,.13-1.71q.09-.61.69-3.48Z" transform="translate(-10.74 -57.26)"/><path class="a" d="M306.67,223h-5.52l-7.78-18.87L289.32,223H283.8l6-28.09h5.54l7.8,18.8,4-18.8h5.51Z" transform="translate(-10.74 -57.26)"/><path class="a" d="M320.5,223l6-28.09h5.92l-6,28.09Z" transform="translate(-10.74 -57.26)"/><path class="a" d="M341.85,212a19.69,19.69,0,0,1,.77-5.26,18.6,18.6,0,0,1,3.06-6.41,14.61,14.61,0,0,1,5.17-4.3,15.51,15.51,0,0,1,7.12-1.59,11.8,11.8,0,0,1,8.64,3.24,11.52,11.52,0,0,1,3.29,8.59,18.65,18.65,0,0,1-2.14,8.6,15.36,15.36,0,0,1-14.13,8.64,12.15,12.15,0,0,1-6.77-1.78,10,10,0,0,1-3.87-4.42A13.26,13.26,0,0,1,341.85,212Zm5.86-.12a6.86,6.86,0,0,0,1.81,4.85,6.17,6.17,0,0,0,4.76,1.95,7.91,7.91,0,0,0,4.6-1.54,11.23,11.23,0,0,0,3.66-4.68,14.52,14.52,0,0,0,1.44-6.1,7.19,7.19,0,0,0-1.82-5.2,6.22,6.22,0,0,0-4.66-1.89,8.27,8.27,0,0,0-7.07,4A15,15,0,0,0,347.71,211.9Z" transform="translate(-10.74 -57.26)"/><path class="a" d="M402.38,223h-5.53l-7.78-18.87L385,223H379.5l6-28.09h5.55l7.8,18.8,4-18.8h5.5Z" transform="translate(-10.74 -57.26)"/><path class="a" d="M218.06,181.05l-26.5-63.87h-.41l-10.87,63.87H158l17-96.22h25.41l26.37,63.47H227L237.9,84.83h22.29l-17,96.22Z" transform="translate(-10.74 -57.26)"/><path class="a" d="M254.21,181.05l17-96.22h61.56l-3.39,19.3h-40l-3.26,18.62H324.2L320.94,141H282.89l-3.53,20.66h43.76l-3.4,19.43Z" transform="translate(-10.74 -57.26)"/><path class="a" d="M387.8,104.27l-13.59,76.78H351.65l13.46-76.78H338.2l3.53-19.44h75.84l-3.4,19.44Z" transform="translate(-10.74 -57.26)"/></svg>