<svg xmlns="http://www.w3.org/2000/svg" viewBox="0 0 438.66 192.64"><defs><style>.a{fill:#ffd521;}.b{fill:#00539f;}.c{fill:#ffd520;}.d{fill:#fedc46;}.e{fill:#fee88a;}.f{fill:#fee574;}.g{fill:#fee267;}.h{fill:#fee474;}.i{fill:#ffed9e;}.j{fill:#feed9d;}.k{fill:#ffe475;}.l{fill:#feeea8;}.m{fill:none;stroke:#fefefe;stroke-linecap:round;stroke-linejoin:round;stroke-width:0;}.n{fill:#ffeb97;}.o{fill:#fedd4b;}.p{fill:#709ec9;}</style></defs><title>vu</title><path class="a" d="M205,395.88c-.56,0-1.11,0-1.67-.07v4.26A4.9,4.9,0,0,1,205,400H515.56a4.89,4.89,0,0,1,1.66.11v-4.26c-.56,0-1.11.07-1.67.07Z" transform="translate(-78.56 -299.51)"/><path class="b" d="M202,357.1a.44.44,0,0,1,.2-.42.47.47,0,0,1,.2-.42.45.45,0,0,1,.21-.41.46.46,0,0,1,.2-.42.47.47,0,0,1,.2-.42.53.53,0,0,1,.2-.42.46.46,0,0,1,.21-.41.59.59,0,0,1,.22-.48h0c0-.06,0-.09,0-.12a.42.42,0,1,1,.14-.2.3.3,0,0,0,0-.1v-.07l.06,0a.31.31,0,0,1,.16-.31.35.35,0,0,1,0,.11.2.2,0,0,0,0-.11v-.06l0,0a.44.44,0,0,1,.2-.41h0c0-.19.08-.44-.22-.47a5.07,5.07,0,0,0-.55,0h-1q-18.37,0-36.74,0c-.43,0-.9-.12-1.22.3a.79.79,0,0,1-.23.62.56.56,0,0,1-.19.49h0c0,.06,0,.1,0,.12a.5.5,0,0,1-.18.46,2.15,2.15,0,0,1-.27.89q-5.46,14.46-11,28.91-5.88,15.53-11.77,31c-.13.33-.14.73-.54.95l-.3-.82Q130,386.6,120,358.39c-.66-1.84-1.41-3.66-1.92-5.56a.52.52,0,0,1-.17-.48l0-.05,0-.07a.78.78,0,0,0-.68-.39c-.27,0-.55,0-.83,0H79.23a1.32,1.32,0,0,0-.64.11c-.12.38.24.64.22,1h0a.5.5,0,0,1,.19.43.45.45,0,0,1,.19.43,2.09,2.09,0,0,1,.46,1,.5.5,0,0,1,.18.44h0a3.07,3.07,0,0,1,.57,1.26l.06,0,0,.06a.59.59,0,0,1,.23.49.5.5,0,0,1,.19.43.45.45,0,0,1,.19.42.44.44,0,0,1,.19.42h0a.13.13,0,0,1,.06.07.74.74,0,0,1,.2.51.52.52,0,0,1,.19.44,3.31,3.31,0,0,1,.57,1.25h0a.09.09,0,0,1,0,.13.57.57,0,0,1,.21.48,1.39,1.39,0,0,1,.38.84h0a.44.44,0,0,1,.19.41.09.09,0,0,1,0,.13.58.58,0,0,1,.21.47.45.45,0,0,1,.19.43.44.44,0,0,1,.19.42h0a.77.77,0,0,1,.26.59.48.48,0,0,1,.19.42.46.46,0,0,1,.19.42.48.48,0,0,1,.19.43h0a.44.44,0,0,1,.19.41c.06,0,.07.07,0,.13a.56.56,0,0,1,.22.48,3.58,3.58,0,0,1,.56,1.26.08.08,0,0,1,.05.13.51.51,0,0,1,.21.47.45.45,0,0,1,.19.43.44.44,0,0,1,.19.42h0a.41.41,0,0,1,.19.4.09.09,0,0,1,0,.14.55.55,0,0,1,.21.47.46.46,0,0,1,.19.42.43.43,0,0,1,.18.42l.06,0,0,.07a.58.58,0,0,1,.22.49.45.45,0,0,1,.19.42.45.45,0,0,1,.19.43.43.43,0,0,1,.19.42c.06,0,.07.06,0,.11a.58.58,0,0,1,.22.49.45.45,0,0,1,.18.42,1.93,1.93,0,0,1,.45,1h0a.51.51,0,0,1,.19.43.48.48,0,0,1,.19.43,2,2,0,0,1,.44,1,.44.44,0,0,1,.19.42A.45.45,0,0,1,90,378h0a.83.83,0,0,1,.26.59.47.47,0,0,1,.18.43.44.44,0,0,1,.19.42.45.45,0,0,1,.19.43h0a.19.19,0,0,1,.06.07.91.91,0,0,1,.2.52.47.47,0,0,1,.18.43.44.44,0,0,1,.19.42.46.46,0,0,1,.19.42.08.08,0,0,1,0,.12.58.58,0,0,1,.21.48.45.45,0,0,1,.19.43.44.44,0,0,1,.19.42h0a.13.13,0,0,1,.06.07.79.79,0,0,1,.19.52.44.44,0,0,1,.19.42.45.45,0,0,1,.18.43h0a.83.83,0,0,1,.26.59.49.49,0,0,1,.18.43.44.44,0,0,1,.18.43.42.42,0,0,1,.19.41l0,.05v.07a.56.56,0,0,1,.22.48.47.47,0,0,1,.18.43.45.45,0,0,1,.19.43h0l.07.07a.82.82,0,0,1,.18.52.45.45,0,0,1,.19.43.41.41,0,0,1,.18.42h0a2,2,0,0,1,.43,1,53.1,53.1,0,0,0,.38.85c.06,0,.07.06,0,.12a.53.53,0,0,1,.21.48.45.45,0,0,1,.19.43.43.43,0,0,1,.18.42l.06,0,0,.07a.59.59,0,0,1,.22.5,2,2,0,0,1,.44,1h0a.48.48,0,0,1,.19.44.43.43,0,0,1,.18.43.44.44,0,0,1,.19.42h0l.05,0v.07a.6.6,0,0,1,.21.49.45.45,0,0,1,.19.42.46.46,0,0,1,.18.43h0a.13.13,0,0,1,.06.07.81.81,0,0,1,.19.52.47.47,0,0,1,.18.43.44.44,0,0,1,.19.42h0a.13.13,0,0,1,.06.07.83.83,0,0,1,.19.52,4,4,0,0,1,.62,1.45.47.47,0,0,1,.18.43.44.44,0,0,1,.19.42l0,0,0,.07a.58.58,0,0,1,.22.49.47.47,0,0,1,.18.43.41.41,0,0,1,.18.42l.06,0V403a.6.6,0,0,1,.21.49.47.47,0,0,1,.18.43.41.41,0,0,1,.18.42h0a.08.08,0,0,1,.05.12.57.57,0,0,1,.2.49,1.38,1.38,0,0,1,.37.84.08.08,0,0,1,0,.12.57.57,0,0,1,.2.49.42.42,0,0,1,.18.43h0a.78.78,0,0,1,.25.59.47.47,0,0,1,.18.43.44.44,0,0,1,.18.43h0l.07.07a.88.88,0,0,1,.18.52,23.86,23.86,0,0,0,.37.86l0,0v.07a.57.57,0,0,1,.2.49.45.45,0,0,1,.19.43.43.43,0,0,1,.18.41h0a.09.09,0,0,1,0,.13.56.56,0,0,1,.2.48.46.46,0,0,1,.18.43h0l.06.06a.84.84,0,0,1,.19.53.47.47,0,0,1,.18.43.41.41,0,0,1,.18.42l.06,0,0,.06a.57.57,0,0,1,.21.5.42.42,0,0,1,.18.43.42.42,0,0,1,.18.41.1.1,0,0,1,0,.14.52.52,0,0,1,.2.47.46.46,0,0,1,.18.43h0a4.16,4.16,0,0,1,.6,1.44c.06,0,.08.07,0,.13a.55.55,0,0,1,.2.48.44.44,0,0,1,.18.43h0a.27.27,0,0,1,.07.08.84.84,0,0,1,.18.52.46.46,0,0,1,.18.43.43.43,0,0,1,.18.41.09.09,0,0,1,0,.14.52.52,0,0,1,.2.48,2,2,0,0,1,.43,1,.43.43,0,0,1,.18.43.44.44,0,0,1,.18.42.1.1,0,0,1,0,.14.51.51,0,0,1,.19.47.42.42,0,0,1,.18.43h0c.06,0,.08.06,0,.11a.58.58,0,0,1,.2.49.43.43,0,0,1,.18.43h0l.06.06a.84.84,0,0,1,.19.53.44.44,0,0,1,.17.43.42.42,0,0,1,.18.42.1.1,0,0,1,0,.14.51.51,0,0,1,.2.47.44.44,0,0,1,.18.43.07.07,0,0,1,0,.11.58.58,0,0,1,.2.49.44.44,0,0,1,.18.43h0a.19.19,0,0,1,.06.07.77.77,0,0,1,.18.52.45.45,0,0,1,.18.44.42.42,0,0,1,.18.41.11.11,0,0,1,.05.15.49.49,0,0,1,.19.47.79.79,0,0,1,.25.6.46.46,0,0,1,.17.43.43.43,0,0,1,.18.42c.06,0,.07.07,0,.12a.54.54,0,0,1,.2.49.44.44,0,0,1,.18.43h0l.07.07a.82.82,0,0,1,.17.53.42.42,0,0,1,.18.43h0a.13.13,0,0,1,.06.07.83.83,0,0,1,.18.53.45.45,0,0,1,.18.43.76.76,0,0,1,.24.6.48.48,0,0,1,.18.43.43.43,0,0,1,.17.42.1.1,0,0,1,.05.15.49.49,0,0,1,.19.47.41.41,0,0,1,.18.42c.06,0,.07.07.05.14a.52.52,0,0,1,.19.47.43.43,0,0,1,.17.42.1.1,0,0,1,0,.14.52.52,0,0,1,.19.48.41.41,0,0,1,.18.42c.06,0,.08.07.05.13a.54.54,0,0,1,.19.48.43.43,0,0,1,.18.42.08.08,0,0,1,0,.13.54.54,0,0,1,.2.49.79.79,0,0,1,.24.6.47.47,0,0,1,.17.43.45.45,0,0,1,.18.43h0a.09.09,0,0,1,0,.13.54.54,0,0,1,.19.48.77.77,0,0,1,.24.6.5.5,0,0,1,.18.44.42.42,0,0,1,.17.42.1.1,0,0,1,0,.14l.27.46-.07,0,.07,0,.62,0h41.53c.27,0,.55,0,.82,0l.41-.49h0a.08.08,0,0,1,0-.12.43.43,0,0,1,.18-.42h0a.46.46,0,0,1,.19-.42.5.5,0,0,1,.19-.43.58.58,0,0,1,.22-.49h0v-.06l.05,0a.42.42,0,0,1,.19-.41.45.45,0,0,1,.19-.43.53.53,0,0,1,.21-.47h0a.1.1,0,0,1,0-.14.43.43,0,0,1,.19-.4h0a.44.44,0,0,1,.19-.42.48.48,0,0,1,.19-.43.49.49,0,0,1,.19-.42.75.75,0,0,1,.2-.52.18.18,0,0,1,0-.07h0a.45.45,0,0,1,.19-.43.44.44,0,0,1,.19-.42.45.45,0,0,1,.19-.43h0a3.77,3.77,0,0,1,.64-1.43h0a.5.5,0,0,1,.19-.43.77.77,0,0,1,.26-.59h0a.43.43,0,0,1,.19-.43.45.45,0,0,1,.18-.42.56.56,0,0,1,.22-.48h0a.09.09,0,0,1,0-.13.43.43,0,0,1,.19-.4h0a.46.46,0,0,1,.19-.42.48.48,0,0,1,.19-.43.55.55,0,0,1,.22-.47h0c0-.06,0-.1,0-.13a.44.44,0,0,1,.19-.41h0a.48.48,0,0,1,.19-.43.48.48,0,0,1,.19-.42.48.48,0,0,1,.19-.42,2.06,2.06,0,0,1,.46-1,.44.44,0,0,1,.19-.42.43.43,0,0,1,.19-.42.57.57,0,0,1,.22-.49h0v-.07l.05,0a9769214153700,9769214153700,0,0,1,.38-.84.5.5,0,0,1,.19-.43.58.58,0,0,1,.22-.48h0c0-.05,0-.09,0-.12a.44.44,0,0,1,.19-.41h0a.45.45,0,0,1,.2-.42.45.45,0,0,1,.19-.43.45.45,0,0,1,.19-.42.78.78,0,0,1,.19-.51l.07-.07h0a.43.43,0,0,1,.19-.42.48.48,0,0,1,.19-.43.49.49,0,0,1,.19-.42.62.62,0,0,1,.22-.48h0a.08.08,0,0,1,0-.12.42.42,0,0,1,.19-.41h0a.45.45,0,0,1,.19-.43.46.46,0,0,1,.19-.42.48.48,0,0,1,.19-.42.62.62,0,0,1,.23-.49h0v-.07l0,0a.42.42,0,0,1,.19-.41h0a.45.45,0,0,1,.19-.43.48.48,0,0,1,.19-.42.56.56,0,0,1,.22-.47h0a.08.08,0,0,1,0-.13.41.41,0,0,1,.19-.41h0a.43.43,0,0,1,.19-.42.45.45,0,0,1,.2-.43.44.44,0,0,1,.19-.42.48.48,0,0,1,.19-.43,3.82,3.82,0,0,1,.65-1.42.45.45,0,0,1,.19-.43,4,4,0,0,1,.65-1.43.46.46,0,0,1,.2-.43.45.45,0,0,1,.19-.42.49.49,0,0,1,.19-.42.85.85,0,0,1,.2-.51.13.13,0,0,1,.06-.07h0a.44.44,0,0,1,.19-.42.45.45,0,0,1,.2-.42.43.43,0,0,1,.19-.42.5.5,0,0,1,.19-.43.6.6,0,0,1,.23-.48h0l0-.07.06,0a.44.44,0,0,1,.19-.41h0a.45.45,0,0,1,.2-.42.44.44,0,0,1,.19-.42.48.48,0,0,1,.19-.42.46.46,0,0,1,.2-.42.77.77,0,0,1,.26-.59h0a.46.46,0,0,1,.2-.42.44.44,0,0,1,.2-.42.45.45,0,0,1,.19-.43.49.49,0,0,1,.19-.42.49.49,0,0,1,.19-.42,1,1,0,0,1,.21-.52l.05-.05h0a3.27,3.27,0,0,1,.59-1.25.5.5,0,0,1,.19-.43.62.62,0,0,1,.23-.49h0v-.06l.05-.05a.45.45,0,0,1,.19-.4h0a23.64,23.64,0,0,1,.39-.84.43.43,0,0,1,.19-.42.48.48,0,0,1,.2-.43.58.58,0,0,1,.22-.48h0v-.07l.06,0a.42.42,0,0,1,.19-.41h0a.44.44,0,0,1,.2-.42.41.41,0,0,1,.19-.42.46.46,0,0,1,.2-.42.5.5,0,0,1,.19-.43.53.53,0,0,1,.2-.42.85.85,0,0,1,.2-.51l.06-.06h0a.43.43,0,0,1,.19-.42h0a.46.46,0,0,1,.2-.42.43.43,0,0,1,.2-.42,16.49,16.49,0,0,1,.39-.85.59.59,0,0,1,.22-.48h0V392l.06,0a3.5,3.5,0,0,1,.59-1.25.44.44,0,0,1,.2-.42.43.43,0,0,1,.19-.42.48.48,0,0,1,.2-.42.61.61,0,0,1,.22-.49h0v-.07l.06,0a.43.43,0,0,1,.19-.4h0a.44.44,0,0,1,.19-.42.47.47,0,0,1,.2-.42.45.45,0,0,1,.2-.42.46.46,0,0,1,.19-.42.49.49,0,0,1,.2-.42.6.6,0,0,1,.23-.48h0c0-.06,0-.09,0-.12a.43.43,0,0,1,.2-.4h0a.43.43,0,0,1,.2-.41h0a.41.41,0,0,1,.2-.42.43.43,0,0,1,.19-.42.46.46,0,0,1,.2-.42.46.46,0,0,1,.2-.42.48.48,0,0,1,.19-.42.52.52,0,0,1,.2-.42.8.8,0,0,1,.21-.51.13.13,0,0,1,.06-.07h0a.41.41,0,0,1,.19-.41h0a.47.47,0,0,1,.2-.42,48.88,48.88,0,0,1,.4-.83,5019692543618.68,5019692543618.68,0,0,0,.4-.84.48.48,0,0,1,.19-.42.49.49,0,0,1,.2-.42.87.87,0,0,1,.21-.52l.06-.06h0a1.37,1.37,0,0,1,.39-.83,10039385087346.9,10039385087346.9,0,0,1,.4-.84.47.47,0,0,1,.2-.42.49.49,0,0,1,.2-.42.59.59,0,0,1,.22-.48h0a.08.08,0,0,1,0-.12.42.42,0,1,1,.14-.2.3.3,0,0,0,0-.1v-.07l.05,0a.42.42,0,0,1,.2-.4h0a.44.44,0,0,1,.2-.42h0a10039385087264.89,10039385087264.89,0,0,0,.4-.84.47.47,0,0,1,.2-.42.45.45,0,0,1,.2-.41.46.46,0,0,1,.2-.42.47.47,0,0,1,.2-.42.49.49,0,0,1,.2-.42,2.12,2.12,0,0,1,.47-1h0a.46.46,0,0,1,.2-.42h0a10039385087347.08,10039385087347.08,0,0,1,.4-.84.45.45,0,0,1,.21-.41.43.43,0,0,1,.19-.42.48.48,0,0,1,.21-.42.45.45,0,0,1,.2-.42.49.49,0,0,1,.19-.42.56.56,0,0,1,.2-.42,4.29,4.29,0,0,1,.68-1.41h0a.46.46,0,0,1,.21-.42h0a1.39,1.39,0,0,1,.4-.83.43.43,0,0,1,.2-.42.46.46,0,0,1,.2-.42.49.49,0,0,1,.2-.42.49.49,0,0,1,.2-.42.5.5,0,0,1,.2-.41.52.52,0,0,1,.21-.43h0a4.31,4.31,0,0,1,.67-1.4h0a5.34,5.34,0,0,1,.81-1.66A.44.44,0,0,1,202,357.1Z" transform="translate(-78.56 -299.51)"/><path class="c" d="M146.47,301.61a1,1,0,0,0-.18-.23l.18.23Z" transform="translate(-78.56 -299.51)"/><path class="c" d="M140.52,329s0,0,0-.06S140.52,329,140.52,329Z" transform="translate(-78.56 -299.51)"/><path class="c" d="M137.2,337.44a.8.8,0,0,1-.22.62.75.75,0,0,1-.21.62,132.14,132.14,0,0,1-.41,1.26h0a3.17,3.17,0,0,1-.27,1.1,64.15,64.15,0,0,0-2.15,8.72c-.39,2.66-.76,5.32-1,8a28.13,28.13,0,0,0,.21,7.1,36.08,36.08,0,0,0,3.05,9.62,37.08,37.08,0,0,1,2.52,6.44,8.94,8.94,0,0,1-.16,5.78l.24.22h0c.51-.61,1-1.2,1.54-1.82a24,24,0,0,0,5.17-10,9.78,9.78,0,0,0,.25-2.86,19.5,19.5,0,0,0-1.6-6c-1.06-2.61-2.24-5.18-3.17-7.85a16.79,16.79,0,0,1-.71-9.64,22.59,22.59,0,0,1,4.36-9.48.93.93,0,0,1,.52-.55c.1.35-.12.55-.28.78h0c-.17.45-.35.9-.51,1.35a15.22,15.22,0,0,0-.3,10.14,40.64,40.64,0,0,0,2.32,5.53,44.33,44.33,0,0,1,3.72,9.63c1,4.67.95,9.23-1.31,13.6a43.07,43.07,0,0,0-2.41,5.83,12.48,12.48,0,0,0,0,8.12c.07.22,0,.58.46.63.11-.25.22-.5.32-.76q6.3-16.62,12.62-33.26c.81-2.12,1.53-4.28,2.47-6.35a5.23,5.23,0,0,1,.63-1.66.54.54,0,0,1,.19-.48h0a.11.11,0,0,1,0-.14.42.42,0,0,1,.17-.42.76.76,0,0,1,.22-.61.55.55,0,0,1,.19-.47h0a.15.15,0,0,1,0-.16.45.45,0,0,1,.17-.42.58.58,0,0,1,.2-.49h0a.08.08,0,0,1,0-.12.48.48,0,0,1,.19-.46h0a.15.15,0,0,1,0-.17.43.43,0,0,1,.17-.41.6.6,0,0,1,.19-.49h0a.1.1,0,0,1,0-.13.44.44,0,0,1,.19-.42.45.45,0,0,1,.2-.41.49.49,0,0,1,.2-.42.55.55,0,0,1,.21-.46h0a.15.15,0,0,1,.05-.16.29.29,0,0,1,.15-.28h0a.1.1,0,0,1,0-.13.42.42,0,0,1,.19-.41.45.45,0,0,1,.19-.43.56.56,0,0,1,.2-.48h0a.1.1,0,0,1,0-.13.44.44,0,0,1,.17-.42,2.15,2.15,0,0,1,.42-1.09h0a.12.12,0,0,1,0-.15.51.51,0,0,1,.18-.46h0a.14.14,0,0,1,0-.16.5.5,0,0,1,.16-.47h0a.14.14,0,0,1,0-.15.82.82,0,0,1,.14-.55.18.18,0,0,1,.05-.07.89.89,0,0,1,.19-.69h0a.11.11,0,0,1,0-.14,1.33,1.33,0,0,1,.19-.87h0a.11.11,0,0,1,0-.15,3.08,3.08,0,0,1,.16-1.24l0-.07v-2.14a1.85,1.85,0,0,1-.18-1.11.1.1,0,0,1,0-.14,1,1,0,0,1-.19-.69.08.08,0,0,1,0-.12.56.56,0,0,1-.18-.5.43.43,0,0,1-.18-.41h0a.18.18,0,0,1,0-.16.57.57,0,0,1-.2-.46.47.47,0,0,1-.21-.41,24.2,24.2,0,0,0-.43-.82.22.22,0,0,1-.15-.22l.16.22h0a1.77,1.77,0,0,0-.16-.22.1.1,0,0,1,0-.12.37.37,0,0,1-.19-.29.5.5,0,0,1-.24-.4.25.25,0,0,1-.16-.23h0a.49.49,0,0,1-.25-.4.24.24,0,0,1-.17-.22l.18.22h0a1,1,0,0,0-.18-.22h0a.5.5,0,0,1-.25-.39.26.26,0,0,1-.17-.23.19.19,0,0,1-.16-.2l.16.2h0a1,1,0,0,1-.16-.2.1.1,0,0,1-.07-.12.4.4,0,0,1-.2-.29h0a.94.94,0,0,1-.43-.56c-.22.12-.12.36-.18.54h0l0,.37a3.52,3.52,0,0,1,.17,1.7h0a10.45,10.45,0,0,1,0,2.5,2.88,2.88,0,0,1-.17,1.51h0l0,.35a1.22,1.22,0,0,1-.17.89h0l0,.36a.78.78,0,0,1-.17.64h0a.17.17,0,0,1,0,.18.53.53,0,0,1-.16.49h0a.09.09,0,0,1,0,.13.71.71,0,0,1-.14.55.13.13,0,0,1-.06.07.54.54,0,0,1-.18.49h0a.11.11,0,0,1,0,.14.43.43,0,0,1-.18.42.54.54,0,0,1-.2.47h0a.11.11,0,0,1-.05.14.32.32,0,0,1-.15.3h0a.09.09,0,0,1,0,.12.42.42,0,0,1-.2.4h0a.33.33,0,0,1-.18.3h0a.07.07,0,0,1,0,.11.34.34,0,0,1-.17.3h0a.09.09,0,0,1,0,.12.23.23,0,0,1-.15.22.49.49,0,0,1-.23.41,3.46,3.46,0,0,1-.82,1.31h0a.13.13,0,0,1-.07.14.19.19,0,0,1-.15.2.25.25,0,0,1-.18.22.46.46,0,0,1-.25.39h0a.25.25,0,0,1-.17.23.46.46,0,0,1-.25.37h0v0a.23.23,0,0,1-.18.22.25.25,0,0,1-.18.22.45.45,0,0,1-.25.37h0l0,0a.23.23,0,0,1-.17.22.27.27,0,0,1-.19.22.36.36,0,0,1-.21.28h0a.1.1,0,0,1-.06.12.21.21,0,0,1-.16.21.27.27,0,0,1-.18.22.47.47,0,0,1-.25.38h0a.24.24,0,0,1-.17.22A10.62,10.62,0,0,1,156,348a.36.36,0,0,1-.2.29h0a.1.1,0,0,1-.05.13.2.2,0,0,1-.15.21.49.49,0,0,1-.23.4.36.36,0,0,1-.19.3l0-.1,0,.1a.09.09,0,0,1,0,.12.29.29,0,0,1-.17.27h0a.13.13,0,0,1,0,.15.18.18,0,0,1-.15.21,1.74,1.74,0,0,1-.41.89h0a.13.13,0,0,1-.05.14.43.43,0,0,1-.18.41.57.57,0,0,1-.19.49h0a.09.09,0,0,1,0,.13.82.82,0,0,1-.19.64h0a.21.21,0,0,1,0,.19,1.52,1.52,0,0,1-.12.76.27.27,0,0,1-.06.1l0,.8v.2l0,.62h0a6.64,6.64,0,0,1,.39,1.64h0v0c.07,0,.15,0,.12.06s-.1,0-.12-.06h0v0h0s0,0,0,0h0a.07.07,0,0,0,0-.05,3.61,3.61,0,0,1-1.6-2.23h0a.2.2,0,0,1-.06-.07.7.7,0,0,1-.14-.55h0a.15.15,0,0,1,0-.17,3.87,3.87,0,0,1,0-2.58h0a.12.12,0,0,1,0-.15.87.87,0,0,1,.18-.71h0a.08.08,0,0,1,0-.12.74.74,0,0,1,.2-.63.54.54,0,0,1,.19-.48h0a.11.11,0,0,1,0-.14.43.43,0,0,1,.18-.41.49.49,0,0,1,.2-.42.48.48,0,0,1,.21-.42.49.49,0,0,1,.21-.41.46.46,0,0,1,.22-.4h0a.37.37,0,0,1,.18-.3h0a.1.1,0,0,1,0-.12.2.2,0,0,1,.16-.22.45.45,0,0,1,.23-.4.34.34,0,0,1,.18-.29h0a.11.11,0,0,1,.06-.13.22.22,0,0,1,.16-.22,2.55,2.55,0,0,1,.62-1,.47.47,0,0,1,.22-.41.25.25,0,0,1,.16-.24,1.4,1.4,0,0,1,.43-.81.48.48,0,0,1,.22-.42.47.47,0,0,1,.21-.41,1.6,1.6,0,0,1,.41-.88h0a.13.13,0,0,1,.05-.15.43.43,0,0,1,.18-.41,4.93,4.93,0,0,1,.6-1.53h0a.08.08,0,0,1,0-.12.83.83,0,0,1,.14-.56l.05-.07a.77.77,0,0,1,.19-.63,1.35,1.35,0,0,1,.21-.87h0a.12.12,0,0,1,0-.15,1.29,1.29,0,0,1,.18-.9h0l0-.35a3.43,3.43,0,0,1,.18-1.52h0v-1.92a3.43,3.43,0,0,1-.18-1.52h0l0-.36a1.26,1.26,0,0,1-.18-.89h0a.14.14,0,0,1,0-.16.8.8,0,0,1-.18-.66h0a.19.19,0,0,1,0-.18.82.82,0,0,1-.19-.66h0a.11.11,0,0,1,0-.13.52.52,0,0,1-.16-.48h0a.14.14,0,0,1,0-.16.49.49,0,0,1-.17-.47h0a.11.11,0,0,1,0-.14.57.57,0,0,1-.19-.48.43.43,0,0,1-.17-.41h0a.16.16,0,0,1-.05-.16.54.54,0,0,1-.19-.46,4.91,4.91,0,0,1-.65-1.44.48.48,0,0,1-.2-.42,3.15,3.15,0,0,1-.62-1.24.45.45,0,0,1-.22-.4.22.22,0,0,1-.14-.23l.15.22h0l-.15-.22a.1.1,0,0,1,0-.13.37.37,0,0,1-.18-.29h0v0a.47.47,0,0,1-.22-.39.49.49,0,0,1-.22-.41.5.5,0,0,1-.22-.41.47.47,0,0,1-.22-.4.24.24,0,0,1-.16-.24l-.05,0-.18.19h0l0,.4h0a.09.09,0,0,1,0,.13.88.88,0,0,1,.19.7.09.09,0,0,1,0,.13.78.78,0,0,1,.16.69h0l0,.37a2.72,2.72,0,0,1,.17,1.49h0a5.5,5.5,0,0,1,0,1.67,2.64,2.64,0,0,1-.18,1.47h0a.19.19,0,0,1,0,.19,1.11,1.11,0,0,1-.18.85h0a.17.17,0,0,1,0,.18.72.72,0,0,1-.12.56l-.06.06a.73.73,0,0,1-.2.63.56.56,0,0,1-.19.48h0a.11.11,0,0,1,0,.14.42.42,0,0,1-.19.41.45.45,0,0,1-.2.42,3.38,3.38,0,0,1-1,1.57,4,4,0,0,1,.12-2.06h0l0-.56a2.38,2.38,0,0,1,.17-1.29h0l0-.57a7.86,7.86,0,0,1,.17-2.32h0V323.4a9.86,9.86,0,0,1-.18-2.54h0l0-.37a2.48,2.48,0,0,1-.17-1.29l0-.36a1.79,1.79,0,0,1-.18-1.09.15.15,0,0,1,0-.17,1.73,1.73,0,0,1-.19-1.07.14.14,0,0,1,0-.16,1.21,1.21,0,0,1-.17-.87h0a.22.22,0,0,1,0-.19l-.06-.11a1.25,1.25,0,0,1-.12-.74h0l0-.34a.83.83,0,0,1-.17-.7h0a.17.17,0,0,1,0-.18,4.85,4.85,0,0,1-.39-1.68h0a.14.14,0,0,1,0-.17.8.8,0,0,1-.18-.66h0a.17.17,0,0,1,0-.17.8.8,0,0,1-.18-.66h0a.11.11,0,0,1,0-.15.88.88,0,0,1-.2-.68.71.71,0,0,1-.19-.62.09.09,0,0,1,0-.13.54.54,0,0,1-.18-.49.09.09,0,0,1,0-.13.57.57,0,0,1-.19-.49.73.73,0,0,1-.22-.61.46.46,0,0,1-.19-.43.46.46,0,0,1-.18-.41h0l-.08-.19a1.6,1.6,0,0,1-.39-.83.19.19,0,0,1-.14-.22l.15.22h0l-.15-.22a.13.13,0,0,1-.05-.15.29.29,0,0,1-.17-.27l.17.27a.77.77,0,0,0-.17-.27.09.09,0,0,1-.05-.12,7.23,7.23,0,0,1-1-1.73.23.23,0,0,1-.17-.23h0a.46.46,0,0,1-.25-.39.25.25,0,0,1-.17-.23h0a4,4,0,0,1-.84-1.23.25.25,0,0,1-.17-.22l-.05,0-.22.22,0,.37h0a.14.14,0,0,1,0,.16.81.81,0,0,1,.19.67.18.18,0,0,1,.05.07.72.72,0,0,1,.13.55h0a.2.2,0,0,1,0,.18.77.77,0,0,1,.18.65h0a.21.21,0,0,1,0,.19.3.3,0,0,1,.06.11,1.24,1.24,0,0,1,.12.74h0a.15.15,0,0,1,0,.17,1.66,1.66,0,0,1,.19,1.07.12.12,0,0,1,0,.16,1.68,1.68,0,0,1,.17,1.08h0l0,.57a14.22,14.22,0,0,1,0,5.08h0l0,.37a2.18,2.18,0,0,1-.18,1.26h0a.17.17,0,0,1,0,.18,1.2,1.2,0,0,1-.17.87h0a.13.13,0,0,1,0,.15,1.24,1.24,0,0,1-.14.76l0,.07a1.26,1.26,0,0,1-.15.74.24.24,0,0,1-.06.09.83.83,0,0,1-.2.67h0a.12.12,0,0,1,0,.16.51.51,0,0,1-.17.49h0a.09.09,0,0,1,0,.13.77.77,0,0,1-.15.55.13.13,0,0,1-.06.07.56.56,0,0,1-.18.5h0a.08.08,0,0,1,0,.12.51.51,0,0,1-.18.48h0a.11.11,0,0,1,0,.14.49.49,0,0,1-.18.46h0a.16.16,0,0,1,0,.17.43.43,0,0,1-.17.41.56.56,0,0,1-.19.47h0a.14.14,0,0,1-.05.15.46.46,0,0,1-.18.42.49.49,0,0,1-.19.46h0a.16.16,0,0,1,0,.16.42.42,0,0,1-.18.41h0a.43.43,0,0,1-.18.42.58.58,0,0,1-.21.48h0a.11.11,0,0,1,0,.14.44.44,0,0,1-.19.41h0a.46.46,0,0,1-.19.42.53.53,0,0,1-.2.47h0a.13.13,0,0,1,0,.15.34.34,0,0,1-.15.3h0a.08.08,0,0,1,0,.11,3.36,3.36,0,0,1-.58,1.31h0a.11.11,0,0,1,0,.14.44.44,0,0,1-.19.41h0a.48.48,0,0,1-.19.43.52.52,0,0,1-.2.46h0a.17.17,0,0,1-.05.16.34.34,0,0,1-.15.29h0a.09.09,0,0,1,0,.12.46.46,0,0,1-.18.42.49.49,0,0,1-.19.42.83.83,0,0,1-.18.53l-.06.07h0a.46.46,0,0,1-.18.43.54.54,0,0,1-.2.47h0a.11.11,0,0,1,0,.14.44.44,0,0,1-.18.42.45.45,0,0,1-.18.42.77.77,0,0,1-.23.61.45.45,0,0,1-.19.43.73.73,0,0,1-.22.61.59.59,0,0,1-.19.48h0a.13.13,0,0,1-.05.14.41.41,0,0,1-.17.42.73.73,0,0,1-.22.61.54.54,0,0,1-.19.49h0a.11.11,0,0,1,0,.14.51.51,0,0,1-.18.46h0a.16.16,0,0,1,0,.16A.44.44,0,0,1,137.2,337.44Z" transform="translate(-78.56 -299.51)"/><path class="c" d="M142,325.71a.24.24,0,0,1,0-.08A.24.24,0,0,0,142,325.71Z" transform="translate(-78.56 -299.51)"/><polygon class="c" points="66.72 0.42 66.72 0.42 66.72 0.42 66.72 0.42"/><path class="c" d="M157.9,345.3a.83.83,0,0,0-.19.23h0Z" transform="translate(-78.56 -299.51)"/><path class="c" d="M158.33,344.69l.19-.21h0a1.3,1.3,0,0,0-.19.22Z" transform="translate(-78.56 -299.51)"/><path class="c" d="M154.14,319c0-.1-.12-.16-.18-.24l.17.23Z" transform="translate(-78.56 -299.51)"/><path class="c" d="M165.94,329a.66.66,0,0,0-.17-.23l.17.22Z" transform="translate(-78.56 -299.51)"/><path class="c" d="M157.46,345.92c-.05.08-.13.14-.18.23h0Z" transform="translate(-78.56 -299.51)"/><path class="c" d="M153.53,354.83a.59.59,0,0,1,0-.08A.12.12,0,0,0,153.53,354.83Z" transform="translate(-78.56 -299.51)"/><path class="c" d="M159.75,342.81a2,2,0,0,0-.18.23h0Z" transform="translate(-78.56 -299.51)"/><path class="c" d="M161.85,339.39a.29.29,0,0,1,0-.1Z" transform="translate(-78.56 -299.51)"/><path class="c" d="M155,349.72l.17-.27A.69.69,0,0,0,155,349.72Z" transform="translate(-78.56 -299.51)"/><polygon class="c" points="86.36 27.98 86.36 27.98 86.36 27.98 86.36 27.98"/><path class="c" d="M146.89,302.24a1.08,1.08,0,0,0-.18-.24l.18.24Z" transform="translate(-78.56 -299.51)"/><path class="c" d="M113.33,331.62h0a1.63,1.63,0,0,1,0,.76,2.4,2.4,0,0,1,.18,1.32l0,.34a1.24,1.24,0,0,1,.17.9h0l0,.34a.85.85,0,0,1,.16.69h0a.24.24,0,0,1,0,.2.41.41,0,0,1,.07.11,1.31,1.31,0,0,1,.13.73.14.14,0,0,1,0,.16.78.78,0,0,1,.18.67h0a.14.14,0,0,1,0,.15.84.84,0,0,1,.19.68l.06.07a.81.81,0,0,1,.13.55h0a.16.16,0,0,1,0,.16.84.84,0,0,1,.21.66.77.77,0,0,1,.2.63,44.92,44.92,0,0,0,.41,1.24.78.78,0,0,1,.22.62.42.42,0,0,1,.16.42h0a.14.14,0,0,1,0,.16.49.49,0,0,1,.19.46h0a.11.11,0,0,1,0,.13.57.57,0,0,1,.19.49,2.07,2.07,0,0,1,.39,1h0a.1.1,0,0,1,0,.13.57.57,0,0,1,.19.49,2.17,2.17,0,0,1,.39,1,.1.1,0,0,1,0,.13.31.31,0,0,1,.16.28h0a.1.1,0,0,1,0,.13.55.55,0,0,1,.18.49l.06.07a.83.83,0,0,1,.16.55.41.41,0,0,1,.16.41h0a.17.17,0,0,1,0,.18.48.48,0,0,1,.17.45h0a.16.16,0,0,1,0,.16.49.49,0,0,1,.18.46h0a.12.12,0,0,1,0,.14.53.53,0,0,1,.18.48s.06.08,0,.12a.56.56,0,0,1,.19.5.8.8,0,0,1,.22.62h0c.21.17.22.43.3.65,1.77,5,3.52,9.92,5.3,14.88,1.08,3,2.19,6.09,3.29,9.13.26-.15.17-.43.23-.66h0c0-.2,0-.41-.05-.61a51.28,51.28,0,0,1-.88-8.74A50.3,50.3,0,0,1,130,350.09c1.23-3.78,3.2-7.25,4.46-11a.78.78,0,0,1,.2-.65h0a.19.19,0,0,1,0-.19.51.51,0,0,1,.15-.48h0a.11.11,0,0,1,0-.13.87.87,0,0,1,.18-.68h0a.12.12,0,0,1,0-.15.86.86,0,0,1,.18-.69h0a.11.11,0,0,1,0-.14,1.27,1.27,0,0,1,.19-.87h0a.15.15,0,0,1,0-.17,1.27,1.27,0,0,1,.17-.89h0l0-.35a2,2,0,0,1,.12-.95.38.38,0,0,1,.06-.13l0-.38a2.32,2.32,0,0,1,.17-1.3h0l0-.56a3.1,3.1,0,0,1,.17-1.51h0a1.67,1.67,0,0,1,0-.77c0-2.48.07-5,0-7.45a1.06,1.06,0,0,1,0-.56,2.42,2.42,0,0,1-.18-1.3l0-.36a1.79,1.79,0,0,1-.18-1.09.12.12,0,0,1,0-.16,1.19,1.19,0,0,1-.18-.88h0a.17.17,0,0,1,0-.17,1.21,1.21,0,0,1-.19-.87.11.11,0,0,1,0-.14.84.84,0,0,1-.18-.68h0a.15.15,0,0,1,0-.17.76.76,0,0,1-.19-.66.14.14,0,0,1,0-.15.84.84,0,0,1-.19-.68.71.71,0,0,1-.19-.62.1.1,0,0,1,0-.14.49.49,0,0,1-.17-.48h0a.16.16,0,0,1,0-.16.5.5,0,0,1-.17-.46h0a.16.16,0,0,1,0-.16.49.49,0,0,1-.18-.46h0a.12.12,0,0,1,0-.15.52.52,0,0,1-.19-.48h0l-.06-.07a.79.79,0,0,1-.16-.54.43.43,0,0,1-.18-.42h0a.13.13,0,0,1,0-.14.57.57,0,0,1-.19-.48.43.43,0,0,1-.18-.42h0a.11.11,0,0,1-.05-.14,3.53,3.53,0,0,1-.59-1.31h0a.44.44,0,0,1-.19-.41h0a.1.1,0,0,1,0-.13,1.64,1.64,0,0,1-.42-.89.18.18,0,0,1-.14-.22l.14.22h0a1.64,1.64,0,0,0-.14-.22.15.15,0,0,1-.06-.15.29.29,0,0,1-.15-.27l.15.27a.89.89,0,0,0-.15-.27.11.11,0,0,1,0-.14.3.3,0,0,1-.16-.27l.16.27a.92.92,0,0,0-.16-.27.11.11,0,0,1,0-.14.32.32,0,0,1-.17-.29l-.06,0c-.15.09-.14.26-.18.4h0v.4a.09.09,0,0,1,0,.13.49.49,0,0,1,.15.48h0a.2.2,0,0,1,0,.2.24.24,0,0,1,.06.09,1.3,1.3,0,0,1,.14.75.12.12,0,0,1,0,.15,1.21,1.21,0,0,1,.17.89l0,.35a2.78,2.78,0,0,1,.16,1.51h0a3.75,3.75,0,0,1,0,1.25,3.31,3.31,0,0,1-.18,1.68h0a.19.19,0,0,1,0,.18,1.12,1.12,0,0,1-.19.87h0a.15.15,0,0,1,0,.17.83.83,0,0,1-.18.66h0a.18.18,0,0,1,0,.17.51.51,0,0,1-.16.48h0a.11.11,0,0,1,0,.14.51.51,0,0,1-.17.48h0a.11.11,0,0,1,0,.14.5.5,0,0,1-.17.46h0a.18.18,0,0,1-.05.17.42.42,0,0,1-.18.41.41.41,0,0,1-.18.42.57.57,0,0,1-.2.49h0a.09.09,0,0,1,0,.12.44.44,0,0,1-.19.42.43.43,0,0,1-.19.42.56.56,0,0,1-.21.48h0a.13.13,0,0,1,0,.14.43.43,0,0,1-.19.4h0a.45.45,0,0,1-.19.43.47.47,0,0,1-.19.42.56.56,0,0,1-.21.46h0a.14.14,0,0,1,0,.15.33.33,0,0,1-.15.29h0a.08.08,0,0,1,0,.12,9769214153631.26,9769214153631.26,0,0,0-.38.84.54.54,0,0,1-.21.47h0a.12.12,0,0,1,0,.15.48.48,0,0,1-.18.41.46.46,0,0,1-.19.42.57.57,0,0,1-.2.49h0a.09.09,0,0,1,0,.12.46.46,0,0,1-.18.43.75.75,0,0,1-.23.61.5.5,0,0,1-.18.47h0a.14.14,0,0,1,0,.15.49.49,0,0,1-.18.45h0a.17.17,0,0,1,0,.18.41.41,0,0,1-.16.41,12836974237218.6,12836974237218.6,0,0,1-.42,1.24.82.82,0,0,1-.21.65h0a.19.19,0,0,1,0,.18.44.44,0,0,1-.16.43h0a3.71,3.71,0,0,1-.43,1.49h0a.14.14,0,0,1,0,.15.8.8,0,0,1-.18.66h0a.17.17,0,0,1,0,.17.8.8,0,0,1-.18.66h0a.14.14,0,0,1,0,.17.81.81,0,0,1-.17.68h0a.11.11,0,0,1,0,.14c0,.91-.37,1.76-.46,2.65h0l0,.43h0c0,.21,0,.49-.23.48s-.12-.3-.14-.47v-1.24l-.21-1.43a.17.17,0,0,1,0-.17.82.82,0,0,1-.21-.65.8.8,0,0,1-.22-.62.48.48,0,0,1-.19-.42.49.49,0,0,1-.19-.42h0a.43.43,0,0,1-.2-.4h0a.09.09,0,0,1,0-.12.37.37,0,0,1-.18-.3h0a.48.48,0,0,1-.22-.4.5.5,0,0,1-.22-.4A.46.46,0,0,1,121,329a.25.25,0,0,1-.17-.23h0a.49.49,0,0,1-.23-.4.22.22,0,0,1-.15-.22l.15.21h0l-.15-.21a.1.1,0,0,1-.06-.12.39.39,0,0,1-.19-.29.49.49,0,0,1-.23-.4.25.25,0,0,1-.16-.23l.17.22h0c0-.08-.12-.14-.17-.22v0a.48.48,0,0,1-.23-.38.46.46,0,0,1-.22-.41.24.24,0,0,1-.16-.22l.16.22h0a.69.69,0,0,0-.16-.22.08.08,0,0,1,0-.11.37.37,0,0,1-.18-.31,2.63,2.63,0,0,1-.63-1.23.45.45,0,0,1-.19-.42h0a.1.1,0,0,1,0-.13,1.51,1.51,0,0,1-.37-.91.16.16,0,0,1,0-.16.78.78,0,0,1-.2-.67,1.07,1.07,0,0,1-.2-.83.14.14,0,0,1,0-.16,2.09,2.09,0,0,1-.17-1.28,5.84,5.84,0,0,1,0-1.67,2.16,2.16,0,0,1,.17-1.3h0l0-.36a1.16,1.16,0,0,1,.15-.81l0,0a.15.15,0,0,1,0-.18h0v-.41h-.21l0,0a.24.24,0,0,1-.16.23.46.46,0,0,1-.22.41,5114935592896.14,5114935592896.14,0,0,1-.42.82.47.47,0,0,1-.21.41.49.49,0,0,1-.21.42.45.45,0,0,1-.2.42.46.46,0,0,1-.19.42.6.6,0,0,1-.21.48h0a.1.1,0,0,1,0,.13.43.43,0,0,1-.18.42.57.57,0,0,1-.19.48h0a.1.1,0,0,1,0,.13.49.49,0,0,1-.18.47h0a.14.14,0,0,1,0,.16.46.46,0,0,1-.17.45h0a.15.15,0,0,1,0,.17.49.49,0,0,1-.16.47h0a.14.14,0,0,1,0,.15.75.75,0,0,1-.19.64h0a.21.21,0,0,1,0,.19.77.77,0,0,1-.18.63h0a.21.21,0,0,1,0,.19.81.81,0,0,1-.16.67h0a.12.12,0,0,1,0,.15,2,2,0,0,1-.12.93l-.07.14a.17.17,0,0,1,0,.18,2.42,2.42,0,0,1-.18,1.3h0l0,.56v4.34Z" transform="translate(-78.56 -299.51)"/><path class="c" d="M121,329a.58.58,0,0,0-.18-.23l.17.23Z" transform="translate(-78.56 -299.51)"/><path class="c" d="M117.27,315.05c0,.09-.12.14-.16.23h0Z" transform="translate(-78.56 -299.51)"/><path class="c" d="M131,303.24l.17.29A1.22,1.22,0,0,0,131,303.24Z" transform="translate(-78.56 -299.51)"/><path class="c" d="M121.79,330.38s0,.06,0,.1A.19.19,0,0,0,121.79,330.38Z" transform="translate(-78.56 -299.51)"/><path class="c" d="M119.1,325.82a.35.35,0,0,1,0,.11A.35.35,0,0,0,119.1,325.82Z" transform="translate(-78.56 -299.51)"/><path class="b" d="M428.51,374.22a4.15,4.15,0,0,0,.27.32l-.27-.32Z" transform="translate(-78.56 -299.51)"/><path class="b" d="M428.08,373.8a.38.38,0,0,0,.15.09h0A.32.32,0,0,1,428.08,373.8Z" transform="translate(-78.56 -299.51)"/><path class="b" d="M419.66,353.89c-.08-.11-.19-.2-.27-.31l.27.31Z" transform="translate(-78.56 -299.51)"/><path class="b" d="M420.08,354.3l-.14-.08h0A.47.47,0,0,1,420.08,354.3Z" transform="translate(-78.56 -299.51)"/><path class="b" d="M429.74,375.73a1,1,0,0,0,.28.32l-.28-.32Z" transform="translate(-78.56 -299.51)"/><path class="b" d="M428,373.56a.36.36,0,0,0,.07.18.36.36,0,0,1-.07-.18Z" transform="translate(-78.56 -299.51)"/><path class="b" d="M425.35,370.46a.42.42,0,0,0,.14.09h0A.34.34,0,0,1,425.35,370.46Z" transform="translate(-78.56 -299.51)"/><path class="b" d="M425.22,370.22a.35.35,0,0,0,.06.18.48.48,0,0,1-.06-.18Z" transform="translate(-78.56 -299.51)"/><path class="b" d="M441.55,387.59l-.34.3A1.41,1.41,0,0,0,441.55,387.59Z" transform="translate(-78.56 -299.51)"/><path class="b" d="M445.33,354.87c.82.05.88-.38.88-1,0-.41,0-.71-.26-.87l-.07,0-.08,0-.06,0a1.69,1.69,0,0,0-.43-.05c-3,0-6,0-8.94,0-.71,0-1.42,0-2.13,0h-.1a.71.71,0,0,0-.61.57c0,.14,0,.3,0,.45a3.14,3.14,0,0,0,0,.55h0a.5.5,0,0,0,0,.13l0,.05c.1.16.29.26.65.26a3.32,3.32,0,0,1,1.92.2h0l.1,0,.09.08a.56.56,0,0,1,.64.25.69.69,0,0,1,.66.6h0a.6.6,0,0,1,.21.66c.09.07.1.14,0,.22a2.76,2.76,0,0,1,.26,1.62q0,8.81,0,17.6a3.08,3.08,0,0,1-.12.47,9.83,9.83,0,0,1-1.78-2.2A.39.39,0,0,1,436,374a.36.36,0,0,1-.27-.33.32.32,0,0,1-.27-.32l.27.32h0a2.69,2.69,0,0,0-.27-.32v0a1.42,1.42,0,0,1-.68-.84.38.38,0,0,1-.27-.33.34.34,0,0,1-.27-.32l.27.31h0a1.24,1.24,0,0,0-.28-.32h0a4.47,4.47,0,0,1-1.23-1.5.34.34,0,0,1-.27-.33h0a1.57,1.57,0,0,1-.68-.84.38.38,0,0,1-.27-.34.34.34,0,0,1-.27-.32l.27.32h0a1.43,1.43,0,0,0-.28-.32h0a1.44,1.44,0,0,1-.67-.84.41.41,0,0,1-.28-.33.36.36,0,0,1-.27-.33.33.33,0,0,1-.27-.32l.27.32h0l-.27-.32,0,0a.67.67,0,0,1-.4-.51.39.39,0,0,1-.26-.33.36.36,0,0,1-.28-.33.35.35,0,0,1-.27-.32l.27.31h0a2,2,0,0,0-.27-.31v0a1.41,1.41,0,0,1-.67-.84.37.37,0,0,1-.27-.33,2.55,2.55,0,0,1-1-1.17.39.39,0,0,1-.28-.34.36.36,0,0,1-.27-.33.32.32,0,0,1-.26-.32l.26.32h0a4,4,0,0,0-.26-.32l0,0a1.44,1.44,0,0,1-.67-.84.36.36,0,0,1-.27-.33.34.34,0,0,1-.28-.32h0a.3.3,0,0,1-.26-.31l.26.31a1.53,1.53,0,0,1-.26-.31l0,0a.66.66,0,0,1-.4-.51.37.37,0,0,1-.26-.33.34.34,0,0,1-.28-.32.33.33,0,0,1-.26-.32l0,0a.67.67,0,0,1-.41-.51.37.37,0,0,1-.26-.33h0a4.17,4.17,0,0,1-1.23-1.5.36.36,0,0,1-.27-.33.34.34,0,0,1-.27-.33h0a.3.3,0,0,1-.26-.32l.26.32a4,4,0,0,1-.26-.32l0,0a.64.64,0,0,1-.4-.5.37.37,0,0,1-.27-.33.36.36,0,0,1-.27-.33.33.33,0,0,1-.27-.32v0h0c-.44-.31-.75-.75-1.42-.74-2.87.05-5.75,0-8.63.05h-.17a1.6,1.6,0,0,0-.42.1c0,.59,0,1.18,0,1.77.7.25,1.48-.1,2.15.32l.14,0,.12.08a.58.58,0,0,1,.64.22,1,1,0,0,1,.87.35h0a1.12,1.12,0,0,1,.91.6h0a.32.32,0,0,1,.31.29.34.34,0,0,1,.31.31.35.35,0,0,1,.3.31.32.32,0,0,1,.29.31h0a.32.32,0,0,1,.27.31v0c.41.29.26.73.26,1.11q0,11.19,0,22.39a3.12,3.12,0,0,1-.16,1.32.52.52,0,0,1-.06.16l-.06.52a.58.58,0,0,1-.21.65c-.49,1.11-1.45,1.23-2.49,1.15a2.52,2.52,0,0,1-1.22,0l-.31,0c-.5.61-.12,1.34-.27,2,2.66.21,5.33.05,8,.09q1.82,0,3.63,0c1.14,0,1.15,0,1.13-1.18,0-.3-.07-.59-.1-.89a.17.17,0,0,1-.22,0h-.61a2.4,2.4,0,0,1-1.22,0,1.09,1.09,0,0,1-1.05-.24h0l-.1,0-.06-.08a.31.31,0,0,1-.37-.21.65.65,0,0,1-.55-.68,1.94,1.94,0,0,1-.28-1.52c0-.5-.11-1-.11-1.5q0-7.09,0-14.19c0-1.25.05-2.51.08-3.77,0-.21-.23-.73.32-.38a1.61,1.61,0,0,1,.68.92.37.37,0,0,1,.27.33.36.36,0,0,1,.28.33,2.56,2.56,0,0,1,.95,1.18.37.37,0,0,1,.28.33.34.34,0,0,1,.27.33h0a1.51,1.51,0,0,1,.69.84.39.39,0,0,1,.27.34.34.34,0,0,1,.27.32.32.32,0,0,1,.27.32h0v0a1.45,1.45,0,0,1,.68.84.36.36,0,0,1,.27.33.35.35,0,0,1,.28.33h0a.3.3,0,0,1,.26.31h0l0,0a.68.68,0,0,1,.4.51.36.36,0,0,1,.26.32.37.37,0,0,1,.28.33.35.35,0,0,1,.27.33l-.27-.32h0a2.69,2.69,0,0,0,.27.32h0a1.45,1.45,0,0,1,.68.84.37.37,0,0,1,.27.33,2.64,2.64,0,0,1,1,1.18.38.38,0,0,1,.27.33.35.35,0,0,1,.27.33.32.32,0,0,1,.27.32h0a1.48,1.48,0,0,1,.68.84.37.37,0,0,1,.27.33.36.36,0,0,1,.28.33h0a.3.3,0,0,1,.26.32l0,0a1.46,1.46,0,0,1,.67.83.36.36,0,0,1,.27.33.33.33,0,0,1,.27.32l-.27-.32h0a1.69,1.69,0,0,0,.27.32h0a14,14,0,0,1,2.18,2.68,4.11,4.11,0,0,1,1.23,1.51.36.36,0,0,1,.27.33.35.35,0,0,1,.28.33h0a.32.32,0,0,1,.27.31l-.27-.31.27.31,0,0a1.45,1.45,0,0,1,.67.83.36.36,0,0,1,.27.33.33.33,0,0,1,.27.33h0a1.39,1.39,0,0,1,.68.84,6,6,0,0,1,1.5,1.83.35.35,0,0,1,.27.33.49.49,0,0,1,.37.3h1.39l.34-.3c0-.25,0-.51,0-.76V359.64c0-.3,0-.6.07-.9a3.9,3.9,0,0,1,.24-2.24h0a.12.12,0,0,1,.05-.19,1,1,0,0,1,.86-1h0a.57.57,0,0,1,.65-.25l.08-.07.1,0A2.65,2.65,0,0,1,445.33,354.87Z" transform="translate(-78.56 -299.51)"/><path class="b" d="M424.27,369.05a1.06,1.06,0,0,0,.28.32l-.28-.32Z" transform="translate(-78.56 -299.51)"/><path class="b" d="M429.63,366.1a.35.35,0,0,0-.06-.18.48.48,0,0,1,.06.18Z" transform="translate(-78.56 -299.51)"/><path class="b" d="M426.76,362.51a.57.57,0,0,0-.13-.08h0A.35.35,0,0,1,426.76,362.51Z" transform="translate(-78.56 -299.51)"/><path class="b" d="M424.18,359.41a.52.52,0,0,0-.06-.15.66.66,0,0,1,.05.15Z" transform="translate(-78.56 -299.51)"/><path class="b" d="M424,359.15a.41.41,0,0,0-.11-.07h0A.41.41,0,0,1,424,359.15Z" transform="translate(-78.56 -299.51)"/><path class="b" d="M425.12,360.59a1.43,1.43,0,0,0-.28-.32l.28.31Z" transform="translate(-78.56 -299.51)"/><path class="b" d="M423,357.9a.3.3,0,0,0-.07-.18.28.28,0,0,1,.06.18Z" transform="translate(-78.56 -299.51)"/><path class="b" d="M426.91,362.76a.36.36,0,0,0-.07-.17.51.51,0,0,1,.07.17Z" transform="translate(-78.56 -299.51)"/><path class="b" d="M429.51,365.86l-.15-.09h0A.54.54,0,0,1,429.51,365.86Z" transform="translate(-78.56 -299.51)"/><path class="b" d="M421.16,355.73a1,1,0,0,0-.27-.32l.27.32Z" transform="translate(-78.56 -299.51)"/><path class="b" d="M420.22,354.55a.29.29,0,0,0-.07-.16.28.28,0,0,1,.06.16Z" transform="translate(-78.56 -299.51)"/><path class="b" d="M436.32,374.3a.43.43,0,0,0-.06-.17.49.49,0,0,1,.06.17Z" transform="translate(-78.56 -299.51)"/><path class="b" d="M422.83,357.66a.46.46,0,0,0-.17-.09h0A.35.35,0,0,1,422.83,357.66Z" transform="translate(-78.56 -299.51)"/><path class="b" d="M436.72,384.25a2,2,0,0,0,.27.31l-.27-.31Z" transform="translate(-78.56 -299.51)"/><path class="b" d="M436.19,374.06A.53.53,0,0,0,436,374h0A.47.47,0,0,1,436.19,374.06Z" transform="translate(-78.56 -299.51)"/><path class="b" d="M423,367.54a2.73,2.73,0,0,0,.27.31l-.27-.31Z" transform="translate(-78.56 -299.51)"/><path class="b" d="M435.21,382.41a1,1,0,0,0,.28.33l-.27-.32Z" transform="translate(-78.56 -299.51)"/><path class="b" d="M419.74,363.54a.33.33,0,0,0,.07.17.32.32,0,0,1-.06-.17Z" transform="translate(-78.56 -299.51)"/><path class="b" d="M421.53,365.7a1,1,0,0,0,.28.33l-.27-.32Z" transform="translate(-78.56 -299.51)"/><path class="b" d="M419.88,363.79l.14.08h0A.47.47,0,0,1,419.88,363.79Z" transform="translate(-78.56 -299.51)"/><path class="b" d="M414.53,357.21l-.3-.31h0a1.18,1.18,0,0,0,.31.32Z" transform="translate(-78.56 -299.51)"/><path class="b" d="M422.48,366.88a.43.43,0,0,0,.06.17.43.43,0,0,1-.06-.17Z" transform="translate(-78.56 -299.51)"/><path class="b" d="M413.61,356.3a1.31,1.31,0,0,0,.32.3h0Z" transform="translate(-78.56 -299.51)"/><path class="b" d="M422.61,367.12a.46.46,0,0,0,.15.09h0A.38.38,0,0,1,422.61,367.12Z" transform="translate(-78.56 -299.51)"/><path class="b" d="M419.73,384.67a.21.21,0,0,0-.12,0h0A.35.35,0,0,1,419.73,384.67Z" transform="translate(-78.56 -299.51)"/><path class="b" d="M389.37,362.8l-.11-.07h0A.34.34,0,0,1,389.37,362.8Z" transform="translate(-78.56 -299.51)"/><path class="b" d="M408.39,354.79l0,0,0-1.73-.08-.1a14.69,14.69,0,0,0-1.62-.11h-1c-.73,0-1.45,0-2.18,0-2.27,0-4.55,0-6.83,0-.79,0-.91.35-.9,1s.05,1.08.88,1a2.65,2.65,0,0,1,1.77.19h0l.1,0,.08.07a.57.57,0,0,1,.66.24h0a.55.55,0,0,1,.54.38v0c.28.11.32.33.3.59a.12.12,0,0,1,0,.2,4,4,0,0,1,.26,2.23c0,.9.06,1.8.06,2.7,0,4.47,0,8.94-.06,13.41,0,.49.05,1,.08,1.67a5.33,5.33,0,0,1-1.66-1.9.39.39,0,0,1-.28-.34.36.36,0,0,1-.27-.33.32.32,0,0,1-.27-.32h0v0a1.42,1.42,0,0,1-.68-.84.38.38,0,0,1-.27-.33.33.33,0,0,1-.27-.32h0a.31.31,0,0,1-.26-.31l0,0a.67.67,0,0,1-.4-.51.38.38,0,0,1-.27-.33,6.62,6.62,0,0,1-1.5-1.83.36.36,0,0,1-.27-.33h0a1.4,1.4,0,0,1-.67-.84.39.39,0,0,1-.27-.33.36.36,0,0,1-.28-.33h0a1.46,1.46,0,0,1-.68-.84.38.38,0,0,1-.28-.33.36.36,0,0,1-.27-.33.35.35,0,0,1-.27-.32l.27.31h0c-.09-.1-.17-.21-.27-.31v0a4.8,4.8,0,0,1-1.22-1.5h0a1.47,1.47,0,0,1-.68-.85,24,24,0,0,0-.55-.66.32.32,0,0,1-.26-.32l0,0a.67.67,0,0,1-.41-.5.39.39,0,0,1-.26-.34.36.36,0,0,1-.27-.33.32.32,0,0,1-.27-.32l.27.31h0a2.85,2.85,0,0,0-.27-.32l0,0a.28.28,0,0,1-.25-.3h0l0,0a.61.61,0,0,1-.39-.5.36.36,0,0,1-.27-.33.34.34,0,0,1-.28-.33l.28.32h0a1,1,0,0,0-.28-.33h0a.29.29,0,0,1-.26-.31l.26.31a3.88,3.88,0,0,1-.26-.31l0,0a.67.67,0,0,1-.41-.5.38.38,0,0,1-.26-.34,4.16,4.16,0,0,1-1.23-1.5.37.37,0,0,1-.27-.33.34.34,0,0,1-.27-.33l.27.32h0a1.39,1.39,0,0,0-.27-.32h0a.28.28,0,0,1-.26-.31l0,0a.65.65,0,0,1-.39-.5.4.4,0,0,1-.27-.33.36.36,0,0,1-.27-.33.33.33,0,0,1-.27-.32l0,0a.67.67,0,0,1-.4-.51.4.4,0,0,1-.27-.33,3.68,3.68,0,0,0-1.28-.18c-2.56,0-5.11,0-7.66,0a2.2,2.2,0,0,0-1.31.23h0a.13.13,0,0,1,0,.2l.06,1.46c.68.26,1.46-.08,2.12.34h0l.13,0,.11.08a3.3,3.3,0,0,1,2.12.89h0a.33.33,0,0,1,.33.26.34.34,0,0,1,.31.29.38.38,0,0,1,.31.31.35.35,0,0,1,.3.3.36.36,0,0,1,.29.32.35.35,0,0,1,.29.32c.44.28.28.72.28,1.1q0,11.26,0,22.53a2.9,2.9,0,0,1-.26,1.76h0a.45.45,0,0,1-.06.46.84.84,0,0,1-.57.9h0a.51.51,0,0,1-.58.32h0a.91.91,0,0,1-.92.25,7.32,7.32,0,0,1-2.09.06,4.33,4.33,0,0,1-.18.85c-.06,1.17,0,1.23,1.28,1.23h10c1.51,0,1.52,0,1.43-1.5a3.16,3.16,0,0,0-.14-.59.21.21,0,0,1-.24,0H385a3.44,3.44,0,0,1-1.53,0,1,1,0,0,1-1-.23h0c-.1,0-.17,0-.21-.07a.3.3,0,0,1-.35-.22.35.35,0,0,1-.33-.29.31.31,0,0,1-.2-.36.19.19,0,0,1-.05-.25,3.71,3.71,0,0,1-.26-2.18c0-2.21-.07-4.42-.07-6.63,0-3.87,0-7.74.06-11.61a2.2,2.2,0,0,1-.05-.44,3,3,0,0,1,.11-.51,5.83,5.83,0,0,1,1.5,1.81.36.36,0,0,1,.28.33,16.46,16.46,0,0,1,2.45,3,.36.36,0,0,1,.28.33.34.34,0,0,1,.28.33h0a1.42,1.42,0,0,1,.68.84.36.36,0,0,1,.27.33.35.35,0,0,1,.28.33h0a2.59,2.59,0,0,1,.95,1.17.38.38,0,0,1,.28.33.34.34,0,0,1,.27.33l-.27-.32h0a1.35,1.35,0,0,0,.27.32h0a4.56,4.56,0,0,1,1.22,1.5h0a.31.31,0,0,1,.27.32l0,0a1.44,1.44,0,0,1,.67.84.36.36,0,0,1,.27.33.34.34,0,0,1,.28.32l-.28-.32h0a1.43,1.43,0,0,0,.28.32h0a1.39,1.39,0,0,1,.68.84.37.37,0,0,1,.27.33.36.36,0,0,1,.28.33,2.56,2.56,0,0,1,1,1.18.37.37,0,0,1,.28.33.33.33,0,0,1,.27.32l-.27-.31h0a1.18,1.18,0,0,0,.27.32h0a1.45,1.45,0,0,1,.68.84.38.38,0,0,1,.27.34,3.9,3.9,0,0,1,1.23,1.5.36.36,0,0,1,.27.33.34.34,0,0,1,.28.32l-.27-.31h0a1.24,1.24,0,0,0,.28.32h0a1.47,1.47,0,0,1,.69.84.4.4,0,0,1,.27.33.36.36,0,0,1,.27.33.33.33,0,0,1,.27.32l-.27-.31h0l.27.31,0,0a1.48,1.48,0,0,1,.67.84.36.36,0,0,1,.27.33.34.34,0,0,1,.28.33l-.28-.32h0a1.06,1.06,0,0,0,.28.32h0a13.39,13.39,0,0,1,2.18,2.68.5.5,0,0,1,.36.32h1.58a5.52,5.52,0,0,0,.12-1.81q0-13.36,0-26.72a5.33,5.33,0,0,1,.27-2.53h0a.13.13,0,0,1,0-.21.56.56,0,0,1,.24-.65.69.69,0,0,1,.65-.59.55.55,0,0,1,.63-.27l.1-.07.11,0C406.7,354.62,407.58,355,408.39,354.79Z" transform="translate(-78.56 -299.51)"/><path class="b" d="M389.54,363.05a.59.59,0,0,0-.06-.14.58.58,0,0,1,0,.14Z" transform="translate(-78.56 -299.51)"/><path class="b" d="M388.19,361.31l-.16-.1h0A.42.42,0,0,1,388.19,361.31Z" transform="translate(-78.56 -299.51)"/><path class="b" d="M399,374.6a.34.34,0,0,0-.06-.15.34.34,0,0,1,.06.15Z" transform="translate(-78.56 -299.51)"/><path class="b" d="M388.31,361.55a.36.36,0,0,0-.07-.19.36.36,0,0,1,.06.19Z" transform="translate(-78.56 -299.51)"/><path class="b" d="M397.56,382.38a.44.44,0,0,0,.06.16.44.44,0,0,1-.06-.16Z" transform="translate(-78.56 -299.51)"/><path class="b" d="M392.26,366.4a.28.28,0,0,0-.06-.16.44.44,0,0,1,.06.16Z" transform="translate(-78.56 -299.51)"/><path class="b" d="M381.62,353.34a.27.27,0,0,0-.07-.18.36.36,0,0,1,.07.18Z" transform="translate(-78.56 -299.51)"/><path class="b" d="M392.24,376a.57.57,0,0,0,.13.08h0A.41.41,0,0,1,392.24,376Z" transform="translate(-78.56 -299.51)"/><path class="b" d="M375.63,356a1,1,0,0,0,.32.26h0Z" transform="translate(-78.56 -299.51)"/><path class="b" d="M394.82,379a.33.33,0,0,0,.07.16.31.31,0,0,1-.06-.16Z" transform="translate(-78.56 -299.51)"/><path class="b" d="M381.51,353.11a.38.38,0,0,0-.15-.09h0A.39.39,0,0,1,381.51,353.11Z" transform="translate(-78.56 -299.51)"/><path class="b" d="M398.8,374.35l-.13-.07h0A.27.27,0,0,1,398.8,374.35Z" transform="translate(-78.56 -299.51)"/><path class="b" d="M386.62,369a.53.53,0,0,0,.05.15.58.58,0,0,1-.05-.14Z" transform="translate(-78.56 -299.51)"/><path class="b" d="M385.67,367.84a1.64,1.64,0,0,0,.28.31l-.28-.31Z" transform="translate(-78.56 -299.51)"/><path class="b" d="M386.78,369.27a.41.41,0,0,0,.11.07h0A.26.26,0,0,1,386.78,369.27Z" transform="translate(-78.56 -299.51)"/><path class="b" d="M381.64,384.32l0-.1a.3.3,0,0,1,0,.1Z" transform="translate(-78.56 -299.51)"/><path class="b" d="M393.21,367.58a1.06,1.06,0,0,0-.28-.32l.27.32Z" transform="translate(-78.56 -299.51)"/><path class="b" d="M394.44,369.09c-.08-.12-.19-.21-.28-.32l.27.32Z" transform="translate(-78.56 -299.51)"/><path class="b" d="M392.09,375.7a.34.34,0,0,0,.06.15.34.34,0,0,1-.06-.15Z" transform="translate(-78.56 -299.51)"/><path class="b" d="M382.69,354.59l-.12-.07h0Z" transform="translate(-78.56 -299.51)"/><path class="b" d="M397.71,382.63a.57.57,0,0,0,.13.08h0A.41.41,0,0,1,397.71,382.63Z" transform="translate(-78.56 -299.51)"/><path class="b" d="M385.44,358l-.14-.08h0A.47.47,0,0,1,385.44,358Z" transform="translate(-78.56 -299.51)"/><polygon class="b" points="307.02 85.69 307.02 85.69 307.02 85.69 307.02 85.69"/><polygon class="b" points="310.41 62.89 310.41 62.89 310.41 62.89 310.41 62.89"/><path class="b" d="M385.58,358.2a.33.33,0,0,0-.07-.17.32.32,0,0,1,.06.17Z" transform="translate(-78.56 -299.51)"/><path class="b" d="M397.16,372.44a1.39,1.39,0,0,0-.27-.32l.27.31Z" transform="translate(-78.56 -299.51)"/><path class="b" d="M392.12,366.15a.57.57,0,0,0-.13-.08h0A.57.57,0,0,1,392.12,366.15Z" transform="translate(-78.56 -299.51)"/><path class="b" d="M395,379.29l.14.08h0A.47.47,0,0,1,395,379.29Z" transform="translate(-78.56 -299.51)"/><path class="b" d="M382.85,354.85a.34.34,0,0,0-.06-.15.67.67,0,0,1,.06.15Z" transform="translate(-78.56 -299.51)"/><polygon class="b" points="206.47 85.68 206.47 85.68 206.47 85.68 206.47 85.68"/><path class="b" d="M298.41,374.56a2.69,2.69,0,0,0-.27-.32l.27.32Z" transform="translate(-78.56 -299.51)"/><path class="b" d="M294.46,369.7a1.69,1.69,0,0,0-.28-.32l.27.32Z" transform="translate(-78.56 -299.51)"/><path class="b" d="M307.46,354.86c.68,0,.7-.43.67-.91s.17-1.08-.64-1.1h-11a1.15,1.15,0,0,0-1,1.72c.14.26.4.25.65.28.69.08,1.42-.2,2.06.23h0a1.21,1.21,0,0,1,1.22.6.28.28,0,0,1,.25.33.12.12,0,0,1,.07.18,1.12,1.12,0,0,1,.23,1,1.49,1.49,0,0,1,.06,1.08,2.4,2.4,0,0,1,.13,1.19v3.25c0,2.06,0,4.11,0,6.17s0,4.14,0,6.21a3,3,0,0,1-.08,1c-.1.29-.29.11-.39-.09h0a.31.31,0,0,1-.27-.31l0,0a.66.66,0,0,1-.4-.51.39.39,0,0,1-.27-.33.36.36,0,0,1-.27-.33.34.34,0,0,1-.27-.32h0a14,14,0,0,1-2.17-2.68.36.36,0,0,1-.28-.33.35.35,0,0,1-.27-.32v0a1.43,1.43,0,0,1-.67-.84.37.37,0,0,1-.27-.33.35.35,0,0,1-.28-.33h0a.28.28,0,0,1-.26-.3l0,0a.64.64,0,0,1-.4-.5.39.39,0,0,1-.26-.33.36.36,0,0,1-.28-.33h0a1.44,1.44,0,0,1-.68-.85.37.37,0,0,1-.27-.33.35.35,0,0,1-.27-.33,2.58,2.58,0,0,1-1-1.18,24,24,0,0,0-.55-.66l.28.32h0a1.06,1.06,0,0,0-.28-.32h0a1.49,1.49,0,0,1-.68-.84.38.38,0,0,1-.27-.34A.36.36,0,0,1,289,363a.32.32,0,0,1-.26-.32l0,0a1.44,1.44,0,0,1-.67-.84.36.36,0,0,1-.27-.33.32.32,0,0,1-.27-.32l.27.32h0a1.69,1.69,0,0,0-.27-.32h0a.3.3,0,0,1-.26-.31l0,0a.67.67,0,0,1-.39-.5.38.38,0,0,1-.27-.34.34.34,0,0,1-.28-.32.33.33,0,0,1-.26-.32h0l0,0a.71.71,0,0,1-.41-.51.41.41,0,0,1-.26-.33.37.37,0,0,1-.27-.33.33.33,0,0,1-.27-.33l.27.32h0a2.69,2.69,0,0,0-.27-.32h0a.3.3,0,0,1-.26-.3l.26.3a1.22,1.22,0,0,1-.26-.3l0,0a.65.65,0,0,1-.39-.5.39.39,0,0,1-.27-.33.35.35,0,0,1-.27-.33l.27.32h0a1.18,1.18,0,0,0-.27-.32h0a1.49,1.49,0,0,1-.68-.84.41.41,0,0,1-.27-.34.36.36,0,0,1-.27-.33.33.33,0,0,1-.27-.32l.27.32h0c-.08-.12-.19-.21-.27-.32v0a1.42,1.42,0,0,1-.68-.84.38.38,0,0,1-.27-.33.36.36,0,0,1-.28-.32c-.76-.09-1.52-.13-2.28-.16s-1.38,0-2.07,0c-1.14,0-2.28,0-3.41,0-.53,0-1.06,0-1.6,0-.72,0-.73.45-.71,1s-.17,1.06.67,1a2.07,2.07,0,0,1,1.31.21h0l.11,0,.09.07a2.1,2.1,0,0,1,1.56.56h0a.61.61,0,0,1,.6.33,4.23,4.23,0,0,1,1.86,1.79.29.29,0,0,1,.22.37c0,.35.1.7.1,1.05v21.31c0,.55-.07,1.1-.11,1.65a2.26,2.26,0,0,1-.25,1.61h0a.15.15,0,0,1-.06.22.29.29,0,0,1-.23.34.32.32,0,0,1-.31.29.29.29,0,0,1-.34.23h0a.16.16,0,0,1-.22.08,1,1,0,0,1-1,.23,8,8,0,0,1-2.07.07,6,6,0,0,0-.11.74c0,1.32,0,1.33,1.29,1.33H284a3.41,3.41,0,0,0,1.35-.15h0a4,4,0,0,1,0-1.58c-.11-.12-.21-.24-.31-.37a4.2,4.2,0,0,1-1.5,0,1.82,1.82,0,0,1-1.53-.27h0a.53.53,0,0,1-.59-.31h0a.28.28,0,0,1-.3-.3h0c-.35-.22-.33-.57-.3-.91a.14.14,0,0,1,0-.22,3.25,3.25,0,0,1-.24-1.77q0-8.92,0-17.87c0-.25,0-.5,0-.75s.11-.29.26-.26.3.24.37.43h0a.35.35,0,0,1,.29.34.34.34,0,0,1,.28.32l-.27-.31a1.05,1.05,0,0,1-.11-.07l.1.06a.87.87,0,0,0,.28.32h0a.3.3,0,0,1,.27.31l-.27-.31a4,4,0,0,1,.27.31l0,0a.66.66,0,0,1,.4.5.39.39,0,0,1,.27.34,2101558464133.7,2101558464133.7,0,0,0,.54.64l-.27-.31h0a2,2,0,0,0,.27.31v0a1.45,1.45,0,0,1,.68.84.36.36,0,0,1,.27.33,2.62,2.62,0,0,1,1,1.17h0a.38.38,0,0,1,.28.33.36.36,0,0,1,.28.33,2.62,2.62,0,0,1,.95,1.18.39.39,0,0,1,.28.33.35.35,0,0,1,.27.33l-.27-.32h0a1.06,1.06,0,0,0,.28.32h0a.31.31,0,0,1,.27.31l0,0a.66.66,0,0,1,.4.51.38.38,0,0,1,.27.33.35.35,0,0,1,.27.33.32.32,0,0,1,.27.32l-.27-.32h0a2.69,2.69,0,0,0,.27.32h0a1.45,1.45,0,0,1,.68.84.37.37,0,0,1,.27.33.35.35,0,0,1,.27.33h0a1.47,1.47,0,0,1,.68.85,6.16,6.16,0,0,1,1.5,1.83.37.37,0,0,1,.28.33.36.36,0,0,1,.27.33h0a2.62,2.62,0,0,1,1,1.17,4.26,4.26,0,0,1,1.23,1.5.38.38,0,0,1,.27.34.33.33,0,0,1,.27.33h0a13.33,13.33,0,0,1,2.18,2.67.39.39,0,0,1,.28.34.34.34,0,0,1,.27.33h0a2.6,2.6,0,0,1,1,1.17.36.36,0,0,1,.27.33.33.33,0,0,1,.27.33h0a1.39,1.39,0,0,1,.68.84.37.37,0,0,1,.27.33.36.36,0,0,1,.28.33h0l.94.9h1.39a4,4,0,0,0,.17-1.79q0-13.3,0-26.61a3.49,3.49,0,0,1,.18-1.78h0a.46.46,0,0,1,0-.48c.13-1.53.36-1.8,1.8-2.15h0C306.05,354.65,306.78,354.89,307.46,354.86Z" transform="translate(-78.56 -299.51)"/><path class="b" d="M300.48,386.6l.11.06h0A.6.6,0,0,1,300.48,386.6Z" transform="translate(-78.56 -299.51)"/><polygon class="b" points="194.11 85.69 194.11 85.69 194.11 85.69 194.11 85.69"/><path class="b" d="M298.84,375a.42.42,0,0,0-.14-.09h0A.34.34,0,0,1,298.84,375Z" transform="translate(-78.56 -299.51)"/><path class="b" d="M299,375.22a.35.35,0,0,0-.06-.18.48.48,0,0,1,.06.18Z" transform="translate(-78.56 -299.51)"/><path class="b" d="M285.26,368a.38.38,0,0,0,.15.09h0A.38.38,0,0,1,285.26,368Z" transform="translate(-78.56 -299.51)"/><path class="b" d="M292.29,367a.3.3,0,0,0-.07-.18.32.32,0,0,1,.06.18Z" transform="translate(-78.56 -299.51)"/><path class="b" d="M300.32,386.34a.58.58,0,0,0,.05.14.58.58,0,0,1-.05-.14Z" transform="translate(-78.56 -299.51)"/><path class="b" d="M289.66,373.3a1,1,0,0,0,.27.32l-.27-.32Z" transform="translate(-78.56 -299.51)"/><path class="b" d="M287.87,371.13a.35.35,0,0,0,.06.18.48.48,0,0,1-.06-.18Z" transform="translate(-78.56 -299.51)"/><path class="b" d="M276.92,357.77l0,.11a.45.45,0,0,1,0-.11Z" transform="translate(-78.56 -299.51)"/><path class="b" d="M281.16,362.93a.39.39,0,0,0,.06.15.67.67,0,0,1-.06-.15Z" transform="translate(-78.56 -299.51)"/><path class="b" d="M282.4,364.45a.32.32,0,0,0,.06.17.43.43,0,0,1-.06-.17Z" transform="translate(-78.56 -299.51)"/><path class="b" d="M292.16,366.77l-.15-.09h0A.36.36,0,0,1,292.16,366.77Z" transform="translate(-78.56 -299.51)"/><polygon class="b" points="202.24 53.47 202.24 53.47 202.24 53.47 202.24 53.47"/><path class="b" d="M282.53,364.69a.42.42,0,0,0,.14.09h0A.34.34,0,0,1,282.53,364.69Z" transform="translate(-78.56 -299.51)"/><path class="b" d="M285.13,367.78a.36.36,0,0,0,.07.19.4.4,0,0,1-.07-.19Z" transform="translate(-78.56 -299.51)"/><path class="b" d="M285.6,358.81a.36.36,0,0,0-.07-.18.36.36,0,0,1,.07.18Z" transform="translate(-78.56 -299.51)"/><path class="b" d="M299.37,385.16a2.69,2.69,0,0,0,.27.32l-.27-.32Z" transform="translate(-78.56 -299.51)"/><path class="b" d="M289.41,363.42a.57.57,0,0,0-.13-.08h0A.57.57,0,0,1,289.41,363.42Z" transform="translate(-78.56 -299.51)"/><path class="b" d="M289.56,363.67a.33.33,0,0,0-.07-.17.32.32,0,0,1,.06.17Z" transform="translate(-78.56 -299.51)"/><path class="b" d="M285.48,358.57l-.16-.09h0A.48.48,0,0,1,285.48,358.57Z" transform="translate(-78.56 -299.51)"/><path class="b" d="M282.73,355.22l-.14-.09h0A.32.32,0,0,1,282.73,355.22Z" transform="translate(-78.56 -299.51)"/><path class="b" d="M281.08,353.29h0a1,1,0,0,0-.28-.31h0Z" transform="translate(-78.56 -299.51)"/><path class="b" d="M282.87,355.47a.38.38,0,0,0-.06-.17.38.38,0,0,1,.06.17Z" transform="translate(-78.56 -299.51)"/><path class="b" d="M288,371.37a.51.51,0,0,0,.16.09h0A.46.46,0,0,1,288,371.37Z" transform="translate(-78.56 -299.51)"/><path class="b" d="M369.5,381.81a1.15,1.15,0,0,1,.31-.9,1.12,1.12,0,0,1,.31-.91,1.11,1.11,0,0,1,.32-.91,1.13,1.13,0,0,1,.3-.91,2,2,0,0,0-2.4,0,.65.65,0,0,1-.32.59h0a.62.62,0,1,1-.22.28.47.47,0,0,0,0,.17v.1l-.09.06a.32.32,0,0,1-.22.35,1.36,1.36,0,0,1-.58.91.67.67,0,0,1-.38.55h0a1.86,1.86,0,0,1-.82,1h0a3.29,3.29,0,0,1-1.89,1.44h0a1,1,0,0,1-.91.3l-.08.07-.11,0a3.2,3.2,0,0,1-1.93.23,65.24,65.24,0,0,1-7.91,0c-.25,0-.49.07-.65-.18h0c-.54-.13-.61-.52-.53-1a1.86,1.86,0,0,1-.05-1.12,6.25,6.25,0,0,1-.12-2.24c0-.49,0-1,0-1.48,0-1.16,0-2.31,0-3.47,0-.77,0-1.53,0-2.29,0-.49-.17-1,.15-1.47h0a37.26,37.26,0,0,1,7.9-.08,1.39,1.39,0,0,1,1.24.27h0a.58.58,0,0,1,.62.3.76.76,0,0,1,.64.59.32.32,0,0,1,.22.36.12.12,0,0,1,.06.18,1.18,1.18,0,0,1,.26,1,.13.13,0,0,1,0,.21,2.64,2.64,0,0,1,.28,1.61c.64.46,1.35.22,2,.22,0-3.9,0-7.8.08-11.7,0-.82-.28-1.09-1.05-1l-1,.1a.18.18,0,0,1,0,.22,2.94,2.94,0,0,1-.27,1.89h0a.18.18,0,0,1-.05.24.59.59,0,0,1-.24.63,1.38,1.38,0,0,1-.95,1.16c0,.09-.08.11-.17.07a.71.71,0,0,1-.73.24.2.2,0,0,1-.27.05,2,2,0,0,1-1.16.24l-6.78,0c-.24,0-.5,0-.62-.28h0a1.33,1.33,0,0,1-.15-.87v-.4c-.06-1,0-1.92,0-2.88v-2.69c0-1.08-.07-2.17,0-3.24v-.6c0-.3-.06-.61.17-.86h0v0c.1-.22.28-.25.49-.25h9.07a1.42,1.42,0,0,1,.87.2h0a.5.5,0,0,1,.49,0,.88.88,0,0,1,.92.27h0a1.09,1.09,0,0,1,.9.61h0a.31.31,0,0,1,.28.31v0a.57.57,0,0,1,.33.57.59.59,0,0,1,.26.62.13.13,0,0,1,.05.2,1.2,1.2,0,0,1,.29,1,1.62,1.62,0,0,1,.27,1.23.12.12,0,0,1,0,.19l.19.06c1.89.31,1.9.29,1.89-1.63,0-.15,0-.29,0-.44a3.5,3.5,0,0,1-.05-1.44,24.63,24.63,0,0,1-.29-4.62,2,2,0,0,0-.68-.14H342c-.7,0-1.12.35-1.2.86,0,0,0,.09,0,.14s0,.23,0,.34a1.65,1.65,0,0,0,.09.33c.14.38.45.31.74.34.69.08,1.41-.19,2.06.23h0c.81,0,1.44.29,1.55,1.21h0a2.83,2.83,0,0,1,.25,1.85c0,.5.1,1,.1,1.5v20.71c0,.6-.07,1.2-.11,1.8a2.41,2.41,0,0,1-.28,1.82h0a.32.32,0,0,1-.25.36.33.33,0,0,1-.34.27h0a.57.57,0,0,1-.6.29h0a.92.92,0,0,1-.9.26,6.91,6.91,0,0,1-2.08.06,6.37,6.37,0,0,0-.13.74c-.06,1.33,0,1.34,1.28,1.34q12,0,24.09,0c.5,0,1,.12,1.44-.28a.82.82,0,0,1,.27-.74h0c-.05-.08,0-.13,0-.17a.75.75,0,0,1,.25-.73h0c0-.08,0-.14.06-.18a.78.78,0,0,1,.25-.72h0a.13.13,0,0,1,.06-.2.61.61,0,0,1,.23-.63,1.22,1.22,0,0,1,.33-1h0a.18.18,0,0,1,.06-.23A.61.61,0,0,1,369.5,381.81Z" transform="translate(-78.56 -299.51)"/><path class="b" d="M352.18,384l.05,0-.07,0h0Z" transform="translate(-78.56 -299.51)"/><path class="b" d="M362,372.06a.2.2,0,0,0,0,.11.45.45,0,0,1,0-.11Z" transform="translate(-78.56 -299.51)"/><path class="b" d="M367.71,353h0Z" transform="translate(-78.56 -299.51)"/><path class="b" d="M345,384.21a.42.42,0,0,0,0,.1h0A1,1,0,0,0,345,384.21Z" transform="translate(-78.56 -299.51)"/><polygon class="b" points="391.65 76.21 391.65 76.21 391.65 76.21 391.65 76.21"/><path class="b" d="M475.05,379.14h0a29.22,29.22,0,0,1-.68,1.15l0,0a.35.35,0,0,1-.23.35.63.63,0,0,1-.37.53h0v0a.33.33,0,0,1-.26.33.36.36,0,0,1-.28.33,8.54,8.54,0,0,1-.58.63.36.36,0,0,1-.32.29.35.35,0,0,1-.34.28.29.29,0,0,1-.32.24h0l-.05,0a.54.54,0,0,1-.55.3h0a.89.89,0,0,1-.89.3.13.13,0,0,1-.21,0,3.14,3.14,0,0,1-1.91.23,69.58,69.58,0,0,1-7.91,0c-.65,0-1.15-.11-1.19-.87a1,1,0,0,1,0-.79,4.12,4.12,0,0,1-.18-1.63c0-3.06,0-6.12,0-9.18,0-.28-.1-.6.22-.81h0a40.88,40.88,0,0,1,7.9,0,1.34,1.34,0,0,1,1.23.27h0a2.27,2.27,0,0,1,1.78,2.46.2.2,0,0,1,0,.26,4.88,4.88,0,0,1,.38,1.77,6.39,6.39,0,0,0,2,0h0V363.08c-.3,0-.6-.09-.89-.1-1.09,0-1.09,0-1.23,1.14a1.34,1.34,0,0,1-.25.84h0l0,.09-.07.07a1,1,0,0,1-.3.92.55.55,0,0,1-.32.58v0a.3.3,0,0,1-.28.31h0c0,.18-.12.27-.3.25a.14.14,0,0,1-.2.09.68.68,0,0,1-.72.24.23.23,0,0,1-.28,0,1.9,1.9,0,0,1-1.16.25c-2.23,0-4.45,0-6.68,0-.62,0-.92-.17-.92-.85,0-3.54,0-7.08,0-10.62,0-.13.12-.25.18-.38h0a.55.55,0,0,1,.52-.23h9.06a1.4,1.4,0,0,1,.87.2h0l.1-.05.1.07a1.28,1.28,0,0,1,1.22.31h0a2.08,2.08,0,0,1,1.52,1.52,1,1,0,0,1,.33.9,1.06,1.06,0,0,1,.26.93.13.13,0,0,1,0,.2,3.73,3.73,0,0,1,.2.4c.13.31,0,.82.4.9a5.37,5.37,0,0,0,1.5,0c.22,0,.28-.24.29-.46s0-.7,0-1a4,4,0,0,1-.05-1.69,17,17,0,0,1-.26-4.39l0-.55a3.52,3.52,0,0,0-1.64-.19h-24.1a1.2,1.2,0,0,0-1.13.66,3.25,3.25,0,0,0,0,.33,1.63,1.63,0,0,0,.14.82c.17.22.44.17.69.2.69.07,1.42-.18,2.07.23h0a.85.85,0,0,1,.88.31h0l0,0a.29.29,0,0,1,.32.27h0a3.57,3.57,0,0,1,.55,2.75c0,.55.07,1.11.08,1.66v18.58c0,.85-.05,1.71-.07,2.56a4.68,4.68,0,0,1-.25,2.54h0a.12.12,0,0,1-.06.19.29.29,0,0,1-.24.33.31.31,0,0,1-.33.27h0a.57.57,0,0,1-.6.29h0a.88.88,0,0,1-.89.25l-.62,0a2.36,2.36,0,0,1-1.21,0,.25.25,0,0,1-.26,0c-.26.37-.16.82-.21,1.24a.84.84,0,0,1-.12.4h0c.27.49.74.44,1.19.44q12.34,0,24.68,0A1.52,1.52,0,0,0,475,387a149.13,149.13,0,0,1,.63-1.81,1.12,1.12,0,0,1,.22-.8l.09-.11h0a1.11,1.11,0,0,1,.22-.79.44.44,0,0,1,.09-.11h0a.78.78,0,0,1,.26-.73h0l0-.11.08-.07a.78.78,0,0,1,.26-.72h0a.12.12,0,0,1,.05-.19.72.72,0,0,1,.25-.7h0a.15.15,0,0,1,.06-.21.72.72,0,0,1,.25-.7h0a.16.16,0,0,1,.06-.22.66.66,0,0,1,.23-.63,1.29,1.29,0,0,1,.33-.95h0a.18.18,0,0,1,0-.21A2.28,2.28,0,0,0,475.05,379.14Z" transform="translate(-78.56 -299.51)"/><path class="b" d="M473.74,381.22c-.09.11-.17.22-.26.32h0Z" transform="translate(-78.56 -299.51)"/><path class="b" d="M452.23,384.3a1,1,0,0,0-.33.27l.32-.27Z" transform="translate(-78.56 -299.51)"/><path class="b" d="M451.9,355.41a1.69,1.69,0,0,0,.32.27h0Z" transform="translate(-78.56 -299.51)"/><path class="b" d="M474.35,380.31a2.62,2.62,0,0,0-.24.34h0Z" transform="translate(-78.56 -299.51)"/><path class="b" d="M503.54,376.37l-.07-.08,0-.1a1.43,1.43,0,0,1-.31-1,.68.68,0,0,1-.26-.64h0a.7.7,0,0,1-.3-.6h0a.65.65,0,0,1-.33-.57.72.72,0,0,1-.38-.55.4.4,0,0,1-.26-.34.36.36,0,0,1-.27-.33.34.34,0,0,1-.29-.31h0a.34.34,0,0,1-.3-.31l.3.31a2.91,2.91,0,0,0-.3-.31h0a8.54,8.54,0,0,0-.63-.58.36.36,0,0,1-.33-.27.65.65,0,0,1-.52-.37l0,0A.32.32,0,0,1,499,370a.65.65,0,0,1-.55-.34l0,0a.34.34,0,0,1-.35-.23.62.62,0,0,1-.56-.35h0a.36.36,0,0,1-.37-.22,44.68,44.68,0,0,0-1.16-.68h0a.61.61,0,0,1-.58-.32h0a.47.47,0,0,1-.44-.25.53.53,0,0,1,.17,0,.47.47,0,0,0-.17,0c-.08,0-.14,0-.16-.08a.3.3,0,0,1-.35-.2.66.66,0,0,1-.59-.33.62.62,0,0,1-.6-.32.61.61,0,0,1-.59-.32h0a6,6,0,0,1-2.11-1.22h0a3.39,3.39,0,0,1-1.47-.93l0,0a.33.33,0,0,1-.34-.24.5.5,0,0,1-.42-.29h0c-.09,0-.14,0-.16-.09a.27.27,0,0,1-.3-.24h0a.32.32,0,0,1-.32-.27.36.36,0,0,1-.33-.28.37.37,0,0,1-.31-.3.38.38,0,0,1-.3-.31.34.34,0,0,1-.27-.34.64.64,0,0,1-.36-.58.64.64,0,0,1-.23-.66l-.07-.07,0-.09a1.26,1.26,0,0,1,0-1.45h0a.13.13,0,0,1,0-.21.59.59,0,0,1,.24-.64.62.62,0,0,1,.34-.59.34.34,0,0,1,.27-.35,8.61,8.61,0,0,1,.6-.61.34.34,0,0,1,.34-.28,1.58,1.58,0,0,1,1.19-.65h0v0c2.62-1.08,4.92-.32,7.07,1.25a.35.35,0,0,1,.35.26,2.4,2.4,0,0,1,1.21,1.22.38.38,0,0,1,.26.36.65.65,0,0,1,.35.57.71.71,0,0,1,.31.61.64.64,0,0,1,.26.63,1.09,1.09,0,0,1,.31.92,1,1,0,0,1,.25.92h0a.17.17,0,0,1,0,.24,2.45,2.45,0,0,1,.28,1.59.15.15,0,0,1,0,.21l.34.37h1.63a11.26,11.26,0,0,0,.12-2.84c0-2.81,0-5.62,0-8.43,0-1.63-.47-1.86-2.11-1.09h0a.19.19,0,0,1,0,.25c-.35,1.25-.63,1.46-1.69,1.15a1.82,1.82,0,0,1-1-.52.77.77,0,0,1-.71-.29h0c-.09.05-.15,0-.19-.06a.7.7,0,0,1-.68-.25h0a.18.18,0,0,1-.23-.06,8.74,8.74,0,0,1-2.24-.55h0a2.46,2.46,0,0,1-1.11-.08h-1.5a2.5,2.5,0,0,1-1.12.08,9,9,0,0,1-2.22.58h0a.64.64,0,0,1-.6.26h0a.14.14,0,0,1-.2.07.39.39,0,0,1-.41.23.11.11,0,0,1-.17.07.47.47,0,0,1-.43.27h0a.66.66,0,0,1-.55.37.37.37,0,0,1-.34.26.35.35,0,0,1-.32.28h0a2.73,2.73,0,0,1-.92.9h0a.36.36,0,0,1-.28.32.39.39,0,0,1-.26.33.67.67,0,0,1-.38.54h0v0a.35.35,0,0,1-.23.35.7.7,0,0,1-.32.59,1.23,1.23,0,0,1-.26.77.48.48,0,0,1-.09.11h0a1.32,1.32,0,0,1-.29,1h0a.19.19,0,0,1,0,.25l0,3.64.07.08,0,.09a1.54,1.54,0,0,1,.32,1,.72.72,0,0,1,.27.63.7.7,0,0,1,.31.6,27,27,0,0,0,2.7,3.05h0v0a.34.34,0,0,1,.33.26.35.35,0,0,1,.34.26.65.65,0,0,1,.54.37h0a.33.33,0,0,1,.35.24.63.63,0,0,1,.55.36h0a.34.34,0,0,1,.35.22.68.68,0,0,1,.57.36h0a1.47,1.47,0,0,1,.93.56h0a59.41,59.41,0,0,0,1.16.66h0l0,0a.31.31,0,0,1,.36.21.65.65,0,0,1,.58.33.63.63,0,0,1,.59.33.64.64,0,0,1,.59.33h0a.59.59,0,0,1,.56.32h0a.32.32,0,0,1,.35.22,51.81,51.81,0,0,0,1.16.67h0a4.43,4.43,0,0,1,1.84,1.17.35.35,0,0,1,.35.27,3.08,3.08,0,0,1,1.48,1.56.63.63,0,0,1,.34.59.66.66,0,0,1,.26.65h0a2.88,2.88,0,0,1,0,2.76.61.61,0,0,1-.29.63.56.56,0,0,1-.35.54h0l0,0a.28.28,0,0,1-.26.31h0a.32.32,0,0,1-.3.3h0a.31.31,0,0,1-.31.28l.31-.28-.31.28,0,0a.58.58,0,0,1-.54.36.28.28,0,0,1-.34.21h0a.13.13,0,0,1-.19.08.74.74,0,0,1-.72.27h0a1.4,1.4,0,0,1-1.2.27,5.29,5.29,0,0,1-2.44,0,1.55,1.55,0,0,1-1.24-.25.24.24,0,0,1-.28-.06.59.59,0,0,1-.63-.23h0a1.77,1.77,0,0,1-1.24-.56h0a.66.66,0,0,1-.59-.35h0a2,2,0,0,1-1.2-.92h0a.34.34,0,0,1-.31-.31,1.88,1.88,0,0,1-.92-1.21.63.63,0,0,1-.31-.61.62.62,0,0,1-.27-.63h0a4,4,0,0,1-.63-2.11,1.59,1.59,0,0,1-.27-1.23.16.16,0,0,1,0-.23l-.31-.67h-1.75c-.19,4.08,0,8.16-.09,12.35a.25.25,0,0,0,.08.1c.85.08,1.66.47,2.09-.66h0a.19.19,0,0,1,0-.26c0-.25,0-.47.29-.56h0l0,0c.31-.4.64-.3,1,0h0l.11,0,.08.07a1.21,1.21,0,0,1,1,.27h0l.12,0,.1.08a3.87,3.87,0,0,1,1.81.58h0a1,1,0,0,1,.92.29h0a1.68,1.68,0,0,1,1.21.3h0a39.41,39.41,0,0,0,5.75,0h0a.54.54,0,0,1,.15-.09,2.13,2.13,0,0,1,1.06-.22h0a1.11,1.11,0,0,1,.9-.33,9.29,9.29,0,0,0,1.21-.6.66.66,0,0,1,.57-.35.36.36,0,0,1,.35-.25l2.43-2.42a.38.38,0,0,1,.24-.36,11,11,0,0,0,.65-1.17.89.89,0,0,1,.31-.72h0l0-.1.08-.06a1.24,1.24,0,0,1,.27-1h0a.2.2,0,0,1,0-.25h0c0-1.22,0-2.43,0-3.64Z" transform="translate(-78.56 -299.51)"/><path class="b" d="M499.23,386.33l.14-.05a.33.33,0,0,1-.14,0Z" transform="translate(-78.56 -299.51)"/><path class="b" d="M485.6,382.47h0a.92.92,0,0,0-.31-.31h0Z" transform="translate(-78.56 -299.51)"/><path class="b" d="M495.55,375.94a.44.44,0,0,0,.16.06h0A.3.3,0,0,1,495.55,375.94Z" transform="translate(-78.56 -299.51)"/><path class="b" d="M492.32,373.88l-.07,0Z" transform="translate(-78.56 -299.51)"/><path class="b" d="M495.37,375.72a1.27,1.27,0,0,0,.07.12,1.27,1.27,0,0,1-.07-.12Z" transform="translate(-78.56 -299.51)"/><polygon class="b" points="406.75 53.73 406.75 53.73 406.75 53.73 406.75 53.73"/><path class="b" d="M482.58,355.41a1.38,1.38,0,0,0-.28.31h0Z" transform="translate(-78.56 -299.51)"/><path class="b" d="M501.4,372.13h0a1.72,1.72,0,0,0-.29-.31l.29.31Z" transform="translate(-78.56 -299.51)"/><path class="b" d="M500.49,371.21h0a1.07,1.07,0,0,0-.31-.29h0Z" transform="translate(-78.56 -299.51)"/><path class="b" d="M502.21,383.44a.25.25,0,0,0,.05-.15h0A.53.53,0,0,1,502.21,383.44Z" transform="translate(-78.56 -299.51)"/><path class="b" d="M484.42,369l-.32-.26a1.92,1.92,0,0,0,.32.26l.07.1A.43.43,0,0,1,484.42,369Z" transform="translate(-78.56 -299.51)"/><path class="b" d="M484.62,369.26a.25.25,0,0,0,.15.05h0A.38.38,0,0,1,484.62,369.26Z" transform="translate(-78.56 -299.51)"/><path class="b" d="M499.29,370.27A2,2,0,0,0,499,370h0Z" transform="translate(-78.56 -299.51)"/><path class="b" d="M485.55,369.89a.25.25,0,0,0,.12,0h0A.25.25,0,0,1,485.55,369.89Z" transform="translate(-78.56 -299.51)"/><path class="b" d="M485,353.36a.69.69,0,0,1,.17-.05A.69.69,0,0,0,485,353.36Z" transform="translate(-78.56 -299.51)"/><path class="b" d="M495.87,357.12a.33.33,0,0,0,.14,0h0C496,357.16,495.92,357.13,495.87,357.12Z" transform="translate(-78.56 -299.51)"/><path class="b" d="M487.73,363.3a.94.94,0,0,0-.32-.27h0Z" transform="translate(-78.56 -299.51)"/><path class="b" d="M484.15,353.94,484,354l.13-.05Z" transform="translate(-78.56 -299.51)"/><path class="b" d="M497.23,368.88a.28.28,0,0,0-.13,0h0A.28.28,0,0,1,497.23,368.88Z" transform="translate(-78.56 -299.51)"/><path class="b" d="M483.88,354.12l-.06.09a1.11,1.11,0,0,0-.32.29l.32-.28A.33.33,0,0,1,483.88,354.12Z" transform="translate(-78.56 -299.51)"/><path class="b" d="M502,383.64l.1-.07-.1.07Z" transform="translate(-78.56 -299.51)"/><path class="b" d="M489.5,372.31a.28.28,0,0,0,.13,0h0A.28.28,0,0,1,489.5,372.31Z" transform="translate(-78.56 -299.51)"/><path class="b" d="M486.47,370.5a.35.35,0,0,0,.11,0h0A.45.45,0,0,1,486.47,370.5Z" transform="translate(-78.56 -299.51)"/><path class="b" d="M484.72,353.58a.43.43,0,0,1,.09-.1Z" transform="translate(-78.56 -299.51)"/><path class="b" d="M502,372.79a.28.28,0,0,0-.06-.18.48.48,0,0,1,.06.18Z" transform="translate(-78.56 -299.51)"/><path class="b" d="M501.82,372.54a.6.6,0,0,0-.13-.09h0A.38.38,0,0,1,501.82,372.54Z" transform="translate(-78.56 -299.51)"/><path class="b" d="M319.39,382.45a.91.91,0,0,0-.32-.27h0Z" transform="translate(-78.56 -299.51)"/><path class="b" d="M335.56,380.06a.46.46,0,0,0-.17.09.51.51,0,0,1,.16-.09Z" transform="translate(-78.56 -299.51)"/><path class="b" d="M338.78,379.65a.69.69,0,0,1,.33-.58l0-.51a.67.67,0,0,1-.52-.37h0a.34.34,0,0,1-.36-.24c-.71-.4-1,.3-1.4.59a1.45,1.45,0,0,1-.66.87h0a.34.34,0,0,1-.27.33.37.37,0,0,1-.27.33.4.4,0,0,1-.29.33,6.15,6.15,0,0,1-2.14,2.1.35.35,0,0,1-.35.27.31.31,0,0,1-.32.25h0l-.05,0a.58.58,0,0,1-.55.32h0a.58.58,0,0,1-.59.3h0a2.31,2.31,0,0,1-1.52.57.19.19,0,0,1-.25.06,1.07,1.07,0,0,1-1,.23,1.38,1.38,0,0,1-.85.07,3.23,3.23,0,0,1-2.29,0h0a1.13,1.13,0,0,1-.83-.06,1.67,1.67,0,0,1-1.08-.17l-.14-.08h0l-.28,0a.65.65,0,0,1-.68-.23h0a.18.18,0,0,1-.24-.07.57.57,0,0,1-.6-.26h0a.59.59,0,0,1-.62-.28h0a.6.6,0,0,1-.58-.32h0a.34.34,0,0,1-.36-.22.64.64,0,0,1-.54-.38h0a.35.35,0,0,1-.33-.27.36.36,0,0,1-.33-.28,6.59,6.59,0,0,1-.62-.6.4.4,0,0,1-.29-.32.36.36,0,0,1-.27-.33.33.33,0,0,1-.26-.33c.09.1.17.21.26.32h0a4,4,0,0,0-.26-.32v0a.63.63,0,0,1-.36-.55.33.33,0,0,1-.23-.35h0v0a.59.59,0,0,1-.3-.57h0v0a.6.6,0,0,1-.28-.59A.12.12,0,0,1,316,378a.75.75,0,0,1-.28-.71,1.08,1.08,0,0,1-.3-.92.42.42,0,0,1-.09-.14,1.69,1.69,0,0,1-.21-1.08l-.07-.08,0-.09a1.85,1.85,0,0,1-.24-1.34,1.14,1.14,0,0,1-.06-.79,11.24,11.24,0,0,1,0-4.83h0a1,1,0,0,1,.05-.77,3.5,3.5,0,0,1,.17-1.61.87.87,0,0,1,.1-.25.23.23,0,0,1,0-.27,1.2,1.2,0,0,1,.24-1h0c-.05-.08,0-.15,0-.19a1,1,0,0,1,.26-.93,1.1,1.1,0,0,1,.32-.91.64.64,0,0,1,.26-.63.72.72,0,0,1,.3-.63h0a1.86,1.86,0,0,1,.66-1.18,1.31,1.31,0,0,1,.62-.9h0a8.49,8.49,0,0,1,.56-.65,5.35,5.35,0,0,1,.62-.61.34.34,0,0,1,.33-.27.3.3,0,0,1,.32-.26h0l0,0a1.82,1.82,0,0,1,1.14-.69h0a.66.66,0,0,1,.63-.3h0a2.83,2.83,0,0,1,1.83-.61h0v0a2,2,0,0,1,1.55-.26,3.26,3.26,0,0,1,1.83,0,2.73,2.73,0,0,1,1.82.28h0a1,1,0,0,1,.92.28h0a1.06,1.06,0,0,1,.77.26l.06.06,0,0h0a.6.6,0,0,1,.57.29l0,0a.31.31,0,0,1,.35.22.62.62,0,0,1,.55.36h0l0,0a.31.31,0,0,1,.32.26.35.35,0,0,1,.33.28,6.6,6.6,0,0,1,.9.93.35.35,0,0,1,.28.33h0a1.34,1.34,0,0,1,.62.9,3.1,3.1,0,0,1,.85,1.54.12.12,0,0,1,.07.18.78.78,0,0,1,.31.71.62.62,0,0,1,.25.63l.08.07,0,.09a.77.77,0,0,1,.26.75l.08.07,0,.09a1,1,0,0,1,.31.71h.12c1.63.08,1.63.08,1.69-1.48a2.28,2.28,0,0,1-.06-1.13,4.1,4.1,0,0,1-.1-.48,13.22,13.22,0,0,1-.15-2.95,2.17,2.17,0,0,1,0-1.13,10.71,10.71,0,0,1-.25-3.43l0-.31a1.43,1.43,0,0,1-.05-.89h0c-.45-1-1.31-.53-2-.55-.06.33,0,.69-.33.93h0a.15.15,0,0,1-.08.21.3.3,0,0,1-.2.35.64.64,0,0,1-.65.58h0c-.22.27-.42.19-.62,0h0a.57.57,0,0,1-.62-.28h0a8.64,8.64,0,0,1-2.11-.93h0a1.09,1.09,0,0,1-.89-.3h0a11.14,11.14,0,0,1-2.54-.58h0a2.27,2.27,0,0,1-1.1-.07h-2.11a2.5,2.5,0,0,1-1.12.07,4.56,4.56,0,0,1-1.89.34.63.63,0,0,1-.64.19l-.29.06a1.14,1.14,0,0,1-.92.3h0a1.09,1.09,0,0,1-.89.34h0a6,6,0,0,1-1.82.91.68.68,0,0,1-.57.35.36.36,0,0,1-.36.23h0a.66.66,0,0,1-.55.37.37.37,0,0,1-.35.25.34.34,0,0,1-.33.27h0a1.59,1.59,0,0,1-.82.69.38.38,0,0,1-.31.29,5.19,5.19,0,0,0-.6.61,3,3,0,0,1-1,1.14h0a.34.34,0,0,1-.26.33,1.56,1.56,0,0,1-.63.9.65.65,0,0,1-.34.56h0v0a.35.35,0,0,1-.22.36.66.66,0,0,1-.33.58.67.67,0,0,1-.3.61.72.72,0,0,1-.28.62,1.16,1.16,0,0,1-.37.87.76.76,0,0,1-.27.73h0c.05.08,0,.14-.05.18a1.12,1.12,0,0,1-.2.82.36.36,0,0,1-.07.1,2.21,2.21,0,0,1-.22,1.11.53.53,0,0,1-.08.15.2.2,0,0,1,0,.26,3,3,0,0,1-.24,1.57l0,0a1.22,1.22,0,0,1-.05.82v3a1.25,1.25,0,0,1,.06.81,3.1,3.1,0,0,1,.26,1.62.15.15,0,0,1,0,.23,2,2,0,0,1,.31,1.27,1.12,1.12,0,0,1,.29.92,1.2,1.2,0,0,1,.34.9.65.65,0,0,1,.26.62.69.69,0,0,1,.3.62h0a.66.66,0,0,1,.31.6,13.87,13.87,0,0,0,.7,1.15.38.38,0,0,1,.23.36.33.33,0,0,1,.25.33l0,0,2.75,3h0a.34.34,0,0,1,.33.27.37.37,0,0,1,.34.26.64.64,0,0,1,.54.38h0a.34.34,0,0,1,.35.24.64.64,0,0,1,.57.34.65.65,0,0,1,.6.32h0a13.08,13.08,0,0,0,1.24.57,1.1,1.1,0,0,1,.89.34h0a1.35,1.35,0,0,1,1,.3h0l.1,0,.08.08a2,2,0,0,1,1.28.27h0l.13,0,.11.07c2,.09,4.05.11,6.07,0h0l.12-.07.13,0a1.91,1.91,0,0,1,1.27-.29l.07-.07.1,0,2.52-.95a1.54,1.54,0,0,1,.95-.53h0a.68.68,0,0,1,.57-.35.33.33,0,0,1,.33-.24h0a.66.66,0,0,1,.52-.39.38.38,0,0,1,.34-.27l2.11-2.12a1.55,1.55,0,0,1,.67-.86h0a.34.34,0,0,1,.26-.33,1.48,1.48,0,0,1,.61-.91.65.65,0,0,1,.35-.56h0v0A.34.34,0,0,1,338.78,379.65Z" transform="translate(-78.56 -299.51)"/><path class="b" d="M313.08,357a.38.38,0,0,0-.18.09.38.38,0,0,1,.18-.09Z" transform="translate(-78.56 -299.51)"/><path class="b" d="M316.12,354.56a.33.33,0,0,0-.14,0,.37.37,0,0,1,.14,0Z" transform="translate(-78.56 -299.51)"/><path class="b" d="M314.44,385.05a.43.43,0,0,0,.17.06h0A.43.43,0,0,1,314.44,385.05Z" transform="translate(-78.56 -299.51)"/><path class="b" d="M337.33,381.83a.93.93,0,0,0,.26-.33h0Z" transform="translate(-78.56 -299.51)"/><path class="b" d="M316.93,379.74a2.62,2.62,0,0,0-.24-.34l.23.34Z" transform="translate(-78.56 -299.51)"/><path class="b" d="M318.74,381.89a.39.39,0,0,0-.09-.17.39.39,0,0,1,.09.17Z" transform="translate(-78.56 -299.51)"/><path class="b" d="M320.07,382.84l-.12,0h0Z" transform="translate(-78.56 -299.51)"/><path class="b" d="M310.66,380.86a.25.25,0,0,0,0,.15.53.53,0,0,1,0-.15Z" transform="translate(-78.56 -299.51)"/><path class="b" d="M318.61,381.67a.36.36,0,0,0-.19-.07h0A.47.47,0,0,1,318.61,381.67Z" transform="translate(-78.56 -299.51)"/><path class="b" d="M310.92,381.21l-.1-.07Z" transform="translate(-78.56 -299.51)"/><path class="b" d="M335.34,380.2a.29.29,0,0,0-.07.19h0A.36.36,0,0,1,335.34,380.2Z" transform="translate(-78.56 -299.51)"/><path class="b" d="M310.57,360.26c-.08.12-.2.2-.24.35h0Z" transform="translate(-78.56 -299.51)"/><path class="b" d="M310.92,381.21c.07.12.18.21.25.32l-.25-.32Z" transform="translate(-78.56 -299.51)"/><path class="b" d="M312.86,357.1a.37.37,0,0,0-.08.19h0A.36.36,0,0,1,312.86,357.1Z" transform="translate(-78.56 -299.51)"/><path class="b" d="M334.22,385.11a.48.48,0,0,0,.18-.06.48.48,0,0,1-.18.06Z" transform="translate(-78.56 -299.51)"/><path class="b" d="M315.39,385.68a.21.21,0,0,0,.12,0h0A.25.25,0,0,1,315.39,385.68Z" transform="translate(-78.56 -299.51)"/><path class="b" d="M314.27,384.84a.57.57,0,0,0,.08.13.57.57,0,0,1-.08-.13Z" transform="translate(-78.56 -299.51)"/><path class="b" d="M314.86,355.43a.39.39,0,0,1,.08-.1.36.36,0,0,0-.07.1,1.18,1.18,0,0,0-.32.27Z" transform="translate(-78.56 -299.51)"/><path class="b" d="M333.34,385.74a.9.9,0,0,0,.33-.25l-.32.25Z" transform="translate(-78.56 -299.51)"/><path class="b" d="M313.7,356.38a.34.34,0,0,0-.21.09.34.34,0,0,1,.22-.09Z" transform="translate(-78.56 -299.51)"/><path class="b" d="M315.21,355.16l-.15,0,.15,0Z" transform="translate(-78.56 -299.51)"/><path class="b" d="M336.11,379.41a1.18,1.18,0,0,0-.27.32h0Z" transform="translate(-78.56 -299.51)"/><path class="b" d="M331.87,356.93a1.35,1.35,0,0,0,.32.26h0Z" transform="translate(-78.56 -299.51)"/><path class="b" d="M338.19,377.93l.1,0Z" transform="translate(-78.56 -299.51)"/><polygon class="b" points="259.62 78.42 259.62 78.42 259.62 78.42 259.62 78.42"/><path class="b" d="M313.48,356.47a.34.34,0,0,0-.09.21h0A.34.34,0,0,1,313.48,356.47Z" transform="translate(-78.56 -299.51)"/><path class="b" d="M334.47,385l.09-.15h0A.75.75,0,0,1,334.47,385Z" transform="translate(-78.56 -299.51)"/><path class="b" d="M245.32,356a.28.28,0,0,0,0,.12.25.25,0,0,1,0-.12Z" transform="translate(-78.56 -299.51)"/><path class="b" d="M250,357a.34.34,0,0,0,0-.12h0C250.05,356.91,250,356.94,250,357Z" transform="translate(-78.56 -299.51)"/><path class="b" d="M253.76,353.27a.13.13,0,0,1,0-.2,2.45,2.45,0,0,0-1.46-.23H243.7c-1.63,0-1.46,0-1.45,1.49,0,.14,0,.28,0,.42.33.08.69.05,1,.31h0l.11,0,.08.07a1,1,0,0,1,.95.27h0a.57.57,0,0,1,.62.3.35.35,0,0,1,.33.29.33.33,0,0,1,.26.36c.35.33.25.67,0,1h0a.13.13,0,0,1,0,.21,1,1,0,0,1-.27.92,1.06,1.06,0,0,1-.31.91.82.82,0,0,1-.28.73h0c.05.08,0,.14-.06.17a.64.64,0,0,1-.26.63.77.77,0,0,1-.29.69h0a.15.15,0,0,1-.07.21.59.59,0,0,1-.26.61.74.74,0,0,1-.28.69h0a.16.16,0,0,1-.07.22.62.62,0,0,1-.27.6.68.68,0,0,1-.25.64,1.17,1.17,0,0,1-.27.77.28.28,0,0,1-.09.1h0a2.38,2.38,0,0,1-.56,1.36h0l0,.09-.08.07a.63.63,0,0,1-.26.62.82.82,0,0,1-.29.72h0a.12.12,0,0,1-.07.18.62.62,0,0,1-.25.62.69.69,0,0,1-.26.63,1.17,1.17,0,0,1-.36.88.66.66,0,0,1-.26.63,1.11,1.11,0,0,1-.36.88h0a.64.64,0,0,1-.26.63,1.18,1.18,0,0,1-.26.77.28.28,0,0,1-.09.1h0a.62.62,0,0,1-.26.63.82.82,0,0,1-.3.73h0l0,.1-.07.06a.66.66,0,0,1-.26.63.77.77,0,0,1-.3.7h0c.05.09,0,.15-.06.19a2.93,2.93,0,0,1-.64,1.5,3.07,3.07,0,0,1-.63-1.44h0a.71.71,0,0,1-.28-.63.69.69,0,0,1-.27-.63.64.64,0,0,1-.27-.62h0v0a.28.28,0,0,1-.09-.1,1.2,1.2,0,0,1-.28-.76.67.67,0,0,1-.27-.62.64.64,0,0,1-.27-.63h0a.64.64,0,0,1-.27-.6h0a.14.14,0,0,1-.07-.2.77.77,0,0,1-.3-.69.65.65,0,0,1-.27-.63.63.63,0,0,1-.28-.61.12.12,0,0,1-.06-.18.81.81,0,0,1-.31-.71.63.63,0,0,1-.27-.62.64.64,0,0,1-.28-.62h0v0a.26.26,0,0,1-.1-.11,1.11,1.11,0,0,1-.27-.75,91,91,0,0,0-.55-1.25h0a.38.38,0,0,1-.09-.09,1.14,1.14,0,0,1-.28-.77.67.67,0,0,1-.27-.63.63.63,0,0,1-.28-.62h0a6.57,6.57,0,0,1-.92-2.12.63.63,0,0,1-.27-.62h0c-.09,0-.11-.09-.06-.17a.84.84,0,0,1-.32-.71.66.66,0,0,1-.26-.63,1.09,1.09,0,0,1-.33-.9,1.06,1.06,0,0,1-.28-.93h0c-.5-1.7-.13-2.19,1.83-2.43h0l.12-.07.13,0a1.77,1.77,0,0,1,.56-.19c1,0,.72-.73.77-1.29.06-.77-.45-.75-1-.75H218.24a3,3,0,0,0-.53,0,.66.66,0,0,0-.42.32,1.14,1.14,0,0,0,0,.4c.05.55-.24,1.28.76,1.28a1.1,1.1,0,0,1,.44.15l.12.05.14,0,.11.07a.92.92,0,0,1,.92.27h0a.56.56,0,0,1,.59.3h0a.33.33,0,0,1,.35.25.36.36,0,0,1,.31.3.34.34,0,0,1,.27.34.61.61,0,0,1,.33.59,14.84,14.84,0,0,1,.59,1.23.65.65,0,0,1,.27.63.63.63,0,0,1,.28.61.1.1,0,0,1,.06.17.83.83,0,0,1,.31.71.68.68,0,0,1,.28.63.63.63,0,0,1,.27.62l.08.06,0,.09a.87.87,0,0,1,.31.73.65.65,0,0,1,.28.62.66.66,0,0,1,.27.63h0a1.17,1.17,0,0,1,.38.87.71.71,0,0,1,.27.62.65.65,0,0,1,.27.63,1.15,1.15,0,0,1,.38.87.71.71,0,0,1,.27.62.65.65,0,0,1,.27.63.63.63,0,0,1,.28.62l.08.06,0,.09a.84.84,0,0,1,.32.72.68.68,0,0,1,.28.63,2.85,2.85,0,0,1,.64,1.49h0a.7.7,0,0,1,.28.63.65.65,0,0,1,.27.63h0a3,3,0,0,1,.65,1.49,35.38,35.38,0,0,0,.55,1.25h0l.07.06,0,.09a.84.84,0,0,1,.32.72.67.67,0,0,1,.27.63.64.64,0,0,1,.28.62h0a.28.28,0,0,1,.09.1,1.18,1.18,0,0,1,.28.77,91,91,0,0,0,.55,1.25.62.62,0,0,1,.27.61.11.11,0,0,1,.07.17.86.86,0,0,1,.31.71.67.67,0,0,1,.27.63.62.62,0,0,1,.27.61l.08.06,0,.1a.84.84,0,0,1,.32.72.67.67,0,0,1,.27.63,3,3,0,0,1,.65,1.49.67.67,0,0,1,.27.63.68.68,0,0,1,.28.63h0a.61.61,0,0,1,.27.6l.08.07,0,.1a2.61,2.61,0,0,0,2.05.1.88.88,0,0,1,.31-.7h0l0-.1.08-.06a.61.61,0,0,1,.27-.62.78.78,0,0,1,.29-.71h0a.12.12,0,0,1,.06-.19.63.63,0,0,1,.27-.62.64.64,0,0,1,.26-.63,7.38,7.38,0,0,1,1-2.38h0a.64.64,0,0,1,.27-.63.82.82,0,0,1,.29-.72h0a.12.12,0,0,1,.06-.18.64.64,0,0,1,.27-.62.67.67,0,0,1,.25-.63,1.17,1.17,0,0,1,.36-.88.69.69,0,0,1,.26-.63,1.27,1.27,0,0,1,.27-.78.38.38,0,0,1,.09-.09h0a.65.65,0,0,1,.27-.63.83.83,0,0,1,.3-.73h0l0-.1.07-.06a.66.66,0,0,1,.26-.63.67.67,0,0,1,.27-.63h0a1.17,1.17,0,0,1,.36-.88.69.69,0,0,1,.26-.63,1.17,1.17,0,0,1,.36-.88h0a.66.66,0,0,1,.26-.63,1.19,1.19,0,0,1,.27-.77.28.28,0,0,1,.09-.1h0v0a.66.66,0,0,1,.27-.63.81.81,0,0,1,.29-.71h0a.11.11,0,0,1,.06-.17.65.65,0,0,1,.26-.62.8.8,0,0,1,.29-.7h0a.14.14,0,0,1,.07-.2.63.63,0,0,1,.26-.61.69.69,0,0,1,.26-.63,1.13,1.13,0,0,1,.28-.78s0-.05.06-.08l0,0h0a.67.67,0,0,1,.27-.64.8.8,0,0,1,.3-.72h0l0-.1.08-.06a.64.64,0,0,1,.26-.63.79.79,0,0,1,.3-.7h0a.12.12,0,0,1,.06-.19.64.64,0,0,1,.26-.62.69.69,0,0,1,.26-.63,1.12,1.12,0,0,1,.36-.88.65.65,0,0,1,.27-.63.7.7,0,0,1,.28-.63.69.69,0,0,1,.31-.6.65.65,0,0,1,.35-.58.37.37,0,0,1,.24-.36,2.08,2.08,0,0,1,1.23-1.23.3.3,0,0,1,.36-.2h0l.07-.08.1,0a.74.74,0,0,1,.75-.26l.08-.08.11,0c.26-.26.62-.25.94-.35C253.7,354.23,253.73,353.75,253.76,353.27Z" transform="translate(-78.56 -299.51)"/><path class="b" d="M251.27,355.64a.28.28,0,0,0,.13,0,.19.19,0,0,1-.13,0Z" transform="translate(-78.56 -299.51)"/><path class="b" d="M254.63,386c0,1.32,0,1.33,1.3,1.33h12.59c1.5,0,1.51,0,1.43-1.51a3.82,3.82,0,0,0-.11-.57l-.58,0a3.44,3.44,0,0,1-1.53,0,.9.9,0,0,1-.89-.26h0c-1.36-.28-1.6-1.25-1.49-2.43,0-.45-.1-.9-.1-1.35q0-11,0-21.92c0-.45.07-.9.11-1.35a2,2,0,0,1,.26-1.53,1,1,0,0,1,.89-1h0a.59.59,0,0,1,.66-.25l.08-.07.1,0a3.32,3.32,0,0,1,1.92-.2c.81,0,.71-.51.72-1a1.2,1.2,0,0,0-.16-.83h0l-.1-.07-.06,0a1,1,0,0,0-.42-.07c-1.67,0-3.33,0-5,0h-8.34c-1.27,0-1.37.15-1.26,1.39,0,.44.19.6.64.63.64,0,1.32-.19,1.92.2h0l.13,0,.11.07c1.57.49,1.75.72,1.79,2.41,0,.45.11.9.11,1.35q0,11.11,0,22.23c0,.45-.07.9-.11,1.35a1.67,1.67,0,0,1-.24,1.34h0l0,.1-.08.07a.3.3,0,0,1-.24.36.34.34,0,0,1-.32.29.28.28,0,0,1-.33.22l.32-.22h0a3.62,3.62,0,0,0-.32.22.16.16,0,0,1-.22.08,1,1,0,0,1-1,.23,7.89,7.89,0,0,1-2.06.07c0,.07,0,.14,0,.22A3.12,3.12,0,0,0,254.63,386Z" transform="translate(-78.56 -299.51)"/><path class="b" d="M258.71,384.22a.16.16,0,0,0,0,.09h0A.32.32,0,0,1,258.71,384.22Z" transform="translate(-78.56 -299.51)"/><path class="d" d="M128.27,376.79a7.17,7.17,0,0,0,.44,1.43l.22-.23h0a7.08,7.08,0,0,0-.43-1.86h0C128.44,376.36,128.53,376.64,128.27,376.79Z" transform="translate(-78.56 -299.51)"/><path class="e" d="M138,387.6c.22.07.29-.05.37-.14a1.2,1.2,0,0,0,.41-.54h0l-.24-.22A1.78,1.78,0,0,0,138,387.6Z" transform="translate(-78.56 -299.51)"/><path class="f" d="M128.71,378.22l.4,1.25.21,0h0a4.11,4.11,0,0,0-.39-1.5h0Z" transform="translate(-78.56 -299.51)"/><path class="g" d="M130.57,302.41h0l.17.26C130.7,302.57,130.62,302.51,130.57,302.41Z" transform="translate(-78.56 -299.51)"/><path class="g" d="M130.74,303.68c0-.14,0-.31.18-.4l0-.21a.25.25,0,0,1-.15-.22l.15.22-.15-.22a.32.32,0,0,1-.06-.18l-.17-.26,0,0h-.22c0,.14,0,.27,0,.41h0a.23.23,0,0,1,0,.16.56.56,0,0,1,.17.46h0a.25.25,0,0,1,0,.17Z" transform="translate(-78.56 -299.51)"/><path class="h" d="M145,300.18h0l.22-.22a1.36,1.36,0,0,0,0-.2l-.19-.24.19.24c-.05-.09-.14-.16-.19-.24h0c-.24.05-.22.25-.25.42a.36.36,0,0,1,0,.2Z" transform="translate(-78.56 -299.51)"/><path class="i" d="M130.31,302.42h.22a1.41,1.41,0,0,0,0-.2h0c-.15.07-.27-.67-.44,0h0a.39.39,0,0,1,0,.21Z" transform="translate(-78.56 -299.51)"/><path class="j" d="M117.29,314.85h0l.18-.2A1.12,1.12,0,0,1,117.29,314.85Z" transform="translate(-78.56 -299.51)"/><path class="j" d="M117.71,315.06h0l0-.22h0l-.06-.4h0l-.2.21-.18.2,0,.22h.4Z" transform="translate(-78.56 -299.51)"/><path class="k" d="M153.77,318.37h0l.17.25A2.2,2.2,0,0,0,153.77,318.37Z" transform="translate(-78.56 -299.51)"/><path class="k" d="M153.73,319l.18-.19a.69.69,0,0,0,0-.2l-.17-.25h-.27c0,.13,0,.26,0,.4h0a.3.3,0,0,1,0,.18Z" transform="translate(-78.56 -299.51)"/><path class="l" d="M153.5,318.38h.23a1.27,1.27,0,0,0,0-.2c-.06-.07-.13-.14-.19-.22h0l-.25.22h0l0,.22Z" transform="translate(-78.56 -299.51)"/><path class="m" d="M153.77,318.37l.17.25" transform="translate(-78.56 -299.51)"/><line class="m" x1="75.21" y1="18.86" x2="75.21" y2="18.86"/><path class="m" d="M153.74,318.18l-.19-.22" transform="translate(-78.56 -299.51)"/><path class="m" d="M153.55,318h0" transform="translate(-78.56 -299.51)"/><path class="m" d="M117.29,314.85l.18-.2" transform="translate(-78.56 -299.51)"/><line class="m" x1="38.72" y1="15.33" x2="38.72" y2="15.33"/><path class="m" d="M130.57,302.41l.17.26" transform="translate(-78.56 -299.51)"/><line class="m" x1="52.01" y1="2.9" x2="52.01" y2="2.9"/><path class="m" d="M145.06,299.52l.19.24" transform="translate(-78.56 -299.51)"/><path class="m" d="M441.21,387.89l.34-.3" transform="translate(-78.56 -299.51)"/><path class="b" d="M279.37,409.88c-3.7,0-7.4,0-11.09,0-.57,0-.8.21-.83.79,0,1.19,0,1.24,1.23,1.27A8.73,8.73,0,0,1,270,412a2,2,0,0,1,2,2.1,19.55,19.55,0,0,1,.17,2.42q0,7.75,0,15.5a3.22,3.22,0,0,1-.14,1.44,2.85,2.85,0,0,1-1-1q-8.75-10.71-17.46-21.43a2.75,2.75,0,0,0-2.43-1.15c-6.53,0-13.06,0-19.6,0h-.91c-.55,0-.81.18-.83.78-.05,1.19,0,1.25,1.22,1.28.36,0,.71,0,1.06,0a2.32,2.32,0,0,1,2.41,2.24,14.38,14.38,0,0,1,.13,2c0,4.81,0,9.62,0,14.43a34,34,0,0,1-.33,4.39,6.79,6.79,0,0,1-3.14,5.12,11,11,0,0,1-9,1.46,6.22,6.22,0,0,1-4.77-5,16.18,16.18,0,0,1-.37-2.4c-.52-6.21-.22-12.44-.21-18.67,0-2.9.79-3.5,3.68-3.56a1.07,1.07,0,0,1,.31,0c.87.13.82-.45.83-1s-.07-1.07-.88-1c-1.47.05-2.94,0-4.4,0-3.09,0-6.18,0-9.27,0-.7,0-1,.19-1,.95,0,1.07,0,1.08,1.07,1.12.45,0,.91,0,1.36,0a2.22,2.22,0,0,1,2.19,1.94,8.92,8.92,0,0,1,.23,2.41v13.37a50.4,50.4,0,0,0,.3,5.76,10.46,10.46,0,0,0,7.54,9,20,20,0,0,0,10.52.17c4.42-1.15,7.32-3.94,8.19-8.58a31.45,31.45,0,0,0,.5-5.89q0-6.84,0-13.67a12.45,12.45,0,0,1,.13-2.12,2.68,2.68,0,0,1,2.71-2.38c.86,0,1.72,0,2.59,0a6.56,6.56,0,0,1,5.22,2.32,2.46,2.46,0,0,1,.69,1.77c0,7.54,0,15.09,0,22.63,0,3.09-.52,3.56-3.63,3.67h-.16c-.82-.12-.88.37-.88,1s0,1.07.86,1.06c3.65,0,7.29,0,10.94,0,.72,0,1-.22,1-1,0-1.05,0-1.07-1.1-1.11a12.79,12.79,0,0,1-1.52-.06,2,2,0,0,1-2-1.92,10.68,10.68,0,0,1-.18-2.11q0-8.82,0-17.63c0-.37-.12-.77.13-1.13.48.19.65.58.9.89q9.53,11.63,19.06,23.26c.22.28.46.54.67.82a1.44,1.44,0,0,0,1.66.41c.63-.14.33-.74.39-1.15a4.82,4.82,0,0,0,0-.76q0-12.84,0-25.68a28.26,28.26,0,0,1,.19-3.18,2,2,0,0,1,1.88-2,6.46,6.46,0,0,1,1.81-.09c.81.06.92-.34.9-1S280.21,409.87,279.37,409.88Z" transform="translate(-78.56 -299.51)"/><path class="b" d="M369.15,412h.76c1.84.09,2.53.74,2.72,2.57a12.09,12.09,0,0,1,.08,1.21c0,7.59,0,15.18,0,22.78,0,3.22-.5,3.7-3.82,3.8-.75,0-1,.26-.93,1,0,1,0,1.1,1,1.1,4.5,0,9,0,13.51,0,.74,0,1-.27,1-1,0-1-.05-1.07-1.11-1.1h-.61c-2.22-.05-2.89-.69-3-2.88,0-.45,0-.91,0-1.37q0-3.65,0-7.29c0-2.13,0-2.09,2.07-2,.7.05.93.53,1.24,1l9.88,13.65a1.73,1.73,0,0,0,1.56,1c2.63-.06,5.26,0,7.89,0,.66,0,1.08-.11,1-.9s0-1.15-.91-1.22a8.4,8.4,0,0,1-6.16-3.44c-2.71-3.48-5.17-7.12-7.91-10.84a19.2,19.2,0,0,0,3.9-1.74,8.51,8.51,0,0,0,1-13.58,10.85,10.85,0,0,0-6.53-2.54c-5.61-.45-11.23-.19-16.85-.25-.56,0-.81.17-.83.77C367.91,411.89,367.91,411.92,369.15,412Zm10.12,1.21a13.83,13.83,0,0,1,3.91-.14,5.94,5.94,0,0,1,5.08,4.74,6.19,6.19,0,0,1-2.42,6.7c-2,1.44-4.28,1.68-6.63,1.69-.6,0-.6-.4-.6-.82v-5.61c0-1.86,0-3.73,0-5.6C378.6,413.64,378.63,413.21,379.27,413.16Z" transform="translate(-78.56 -299.51)"/><path class="b" d="M362.08,444.39a.79.79,0,0,0,.9-.62c1-2.86,2-5.72,3-8.66-1.43-.44-2.28-.13-2.82,1.16a11.81,11.81,0,0,1-1.94,2.89,5.65,5.65,0,0,1-4.34,2.18c-2.83.07-5.67.08-8.5.05-1.23,0-1.56-.34-1.58-1.54,0-3.75,0-7.49,0-11.24,0-.59.24-.8.81-.79,1.47,0,2.94,0,4.41,0a18.46,18.46,0,0,1,3.48.18,2.62,2.62,0,0,1,2.36,2.22c.1.6.25,1.19.32,1.79.09.9.72.78,1.33.8.8,0,.74-.49.74-1,0-3.6,0-7.19,0-10.79,0-.95-.06-.94-1.06-1-.63,0-.93.2-1,.84a9.54,9.54,0,0,1-.23,1.5,2.76,2.76,0,0,1-2.59,2.37c-.45,0-.9.15-1.36.16-2.07,0-4.15,0-6.22,0-.83,0-1-.3-1-1.06q0-5,0-10c0-.8.25-1,1-1,2.63,0,5.26,0,7.9,0,3.68,0,4.55.7,5.41,4.34.28,1.16.45,1.26,1.66,1.13.46,0,.58-.22.56-.67-.14-2.32-.27-4.65-.37-7,0-.57-.24-.83-.82-.79-.25,0-.51,0-.76,0h-24.6c-.82,0-.58.67-.61,1.13s-.07.92.64.92a9.64,9.64,0,0,1,2.27.11,1.92,1.92,0,0,1,1.7,1.83c.09,1,.2,1.92.2,2.88,0,6.73,0,13.46,0,20.2a27.75,27.75,0,0,1-.13,2.88c-.18,1.67-.82,2.28-2.5,2.45-.5.05-1,0-1.52,0-.25,0-.49,0-.61.3a1.15,1.15,0,0,0,1,1.75h24C361.48,444.39,361.78,444.37,362.08,444.39Z" transform="translate(-78.56 -299.51)"/><path class="b" d="M426,437.23c.87-4.15-.79-7.43-4.22-9.82-1.16-.8-2.39-1.51-3.62-2.22C416.11,424,414,423,412,421.65a14.44,14.44,0,0,1-2.87-2.23,3.76,3.76,0,0,1-.12-5.22,5.54,5.54,0,0,1,5.62-1.84,8.1,8.1,0,0,1,6.74,6c.23.78.36,1.58.52,2.37.21,1.07.34,1.13,1.4,1.09s.7-.68.7-1.19c0-1.72,0-3.44,0-5.16V410c0-.28.07-.62-.26-.8a1.46,1.46,0,0,0-1.83.72c-.5,1.19-.74,1.31-1.92.91-.47-.16-.93-.38-1.4-.57a13.42,13.42,0,0,0-6.37-1.07c-4.06.38-7.09,2.31-8.66,6.15-1.43,3.49-.41,7.19,2.57,9.9a24.28,24.28,0,0,0,4.23,2.95c2.22,1.31,4.46,2.58,6.69,3.88a8.92,8.92,0,0,1,2.65,2.24,4.52,4.52,0,0,1,.16,5.5A5.45,5.45,0,0,1,416,442c-4.13.49-9.1-1.21-10.27-7-.12-.6-.25-1.19-.37-1.78-.2-.93-.95-.54-1.49-.59s-.58.42-.58.83v10.93c0,.25,0,.59.24.65a5.06,5.06,0,0,0,1.35.06c.48,0,.42-.47.53-.8.35-1.09.48-1.18,1.65-.86,1.37.37,2.71.82,4.07,1.2a14,14,0,0,0,7.35.12C422.39,443.69,425.14,441.27,426,437.23Z" transform="translate(-78.56 -299.51)"/><path class="b" d="M513.61,409.89H502.67c-.25,0-.53,0-.59.34a2.49,2.49,0,0,0,0,1.48c.17.39.63.19,1,.23,2.14.23,2.76,1.27,1.9,3.2a3.11,3.11,0,0,1-.2.41l-6.85,10.92L490.59,415a4.37,4.37,0,0,1-.33-.69,1.39,1.39,0,0,1,.88-2.06,4.57,4.57,0,0,1,1.94-.3c.28,0,.61.08.76-.3a1.17,1.17,0,0,0-1.18-1.75H479.75a3.23,3.23,0,0,0-.76,0c-.65.16-.43.71-.44,1.12s-.16.85.49.91a6,6,0,0,1,4.59,3.09q4.77,7.32,9.59,14.59a2.67,2.67,0,0,1,.46,1.57c0,2.43,0,4.86,0,7.29-.09,3.36-.42,3.69-3.78,3.82-.78,0-.93.33-.91,1,0,1,0,1.07,1,1.07,4.46,0,8.91,0,13.37,0,.63,0,.91-.17.92-.85,0-1.13,0-1.18-1.13-1.22-.3,0-.61,0-.91,0-1.8-.12-2.43-.73-2.58-2.51,0-.46-.05-.92-.05-1.37,0-2.48,0-5,0-7.44a3.86,3.86,0,0,1,.68-2.26c2.55-4,5.05-8,7.58-11.91a27.2,27.2,0,0,1,1.57-2.24A6.24,6.24,0,0,1,514.1,412c.26,0,.52,0,.66-.27A1.21,1.21,0,0,0,513.61,409.89Z" transform="translate(-78.56 -299.51)"/><path class="b" d="M334.28,409.89h-9.56c-.33,0-.73-.11-1,.28a1.31,1.31,0,0,0,.83,1.82,9.75,9.75,0,0,1,1.31.36c1.2.45,1.5,1.09,1.18,2.36a9.86,9.86,0,0,1-.39,1.31L319,435.16c-.45-.08-.46-.31-.54-.48q-3.93-9-7.84-18.09a13.36,13.36,0,0,1-.73-2.3c-.27-1.14.1-1.71,1.23-2a9.09,9.09,0,0,1,1.64-.29c.53,0,.66-.29.69-.77.06-1.17,0-1.3-1.22-1.3H299.91c-1.19,0-1.19.05-1.21,1.15,0,.63.19.88.84.93a4.39,4.39,0,0,1,4.12,3.25c.15.43.37.83.55,1.25q5.93,13.62,11.85,27.25c.29.66.38,1.43,1.48,1.41s1.12-.85,1.39-1.49c1.19-2.84,2.35-5.7,3.52-8.55q3.81-9.33,7.64-18.66c.87-2.09,1.89-4.08,4.47-4.5,1-.15.52-.94.57-1.47S334.69,409.9,334.28,409.89Z" transform="translate(-78.56 -299.51)"/><path class="b" d="M477.39,411.23c-.06-1.32-.06-1.33-1.37-1.34H450.21c-1.15,0-1.18,0-1.25,1.17-.14,2.17-.24,4.34-.34,6.51-.06,1.28.08,1.38,1.33,1.29.51,0,.71-.24.74-.73a6.88,6.88,0,0,1,.2-1.19c.62-2.57,2-3.7,4.58-3.79,1.11,0,2.23,0,3.34,0,1.29,0,1.3,0,1.3,1.34q0,12,0,24c0,3.27-.45,3.74-3.75,3.85-.76,0-.95.3-.92,1,0,1,0,1.08,1,1.08h13.36l.45,0a.46.46,0,0,0,.44-.33c.37-1-.06-1.66-1.05-1.7a12.46,12.46,0,0,1-1.37-.05,2,2,0,0,1-2.11-2.12,19.55,19.55,0,0,1-.17-2.42q0-11.46,0-22.92c0-.3,0-.61,0-.91,0-.61.27-.79.83-.78,1.42,0,2.84,0,4.25.05a4.37,4.37,0,0,1,4.28,3.43c.11.44.19.89.28,1.34.17.89.3.93,1.35.93.9,0,.77-.58.75-1.13Z" transform="translate(-78.56 -299.51)"/><path class="b" d="M296.66,442.33c-.41,0-.82,0-1.22,0a2.42,2.42,0,0,1-2.48-2.67c0-.61,0-1.21,0-1.82q0-10.63,0-21.27c0-.7,0-1.42.08-2.12a2.39,2.39,0,0,1,2.53-2.46,12.86,12.86,0,0,1,1.52,0c.54,0,.68-.25.7-.74.05-1.18,0-1.31-1.23-1.31H283c-.93,0-.65.7-.69,1.2s0,.91.7.86a8.47,8.47,0,0,1,1.51,0,2.36,2.36,0,0,1,2.44,2.53c.08,1,.14,1.92.14,2.88q0,9,0,18.08c0,1.06,0,2.12-.05,3.18-.23,3.29-.49,3.55-3.82,3.66-.74,0-1,.26-.94,1,0,1,0,1.09.95,1.1,2.23,0,4.46,0,6.69,0h6.83c.34,0,.72.1.92-.33A1.13,1.13,0,0,0,296.66,442.33Z" transform="translate(-78.56 -299.51)"/><path class="b" d="M445.72,444c.36-1-.06-1.64-1.07-1.68h-.46c-2.44-.06-3.22-.77-3.23-3.18,0-7.89,0-15.79,0-23.68a12.87,12.87,0,0,1,.15-1.51,2.15,2.15,0,0,1,1.87-1.91,6.12,6.12,0,0,1,1.81-.09c.67,0,1-.11,1-.91,0-1,0-1.15-.92-1.15-4.56,0-9.11,0-13.66,0-.8,0-.92.37-.9,1s0,1.12.84,1a5.52,5.52,0,0,1,1.81.09c1.41.37,1.86.83,2,2.27a22,22,0,0,1,.15,2.57c0,6.83,0,13.66,0,20.49a16.51,16.51,0,0,1-.19,2.72c-.24,1.45-.81,2-2.25,2.19a11.68,11.68,0,0,1-1.67,0c-.53,0-.69.22-.72.72-.06,1.2,0,1.33,1.18,1.33,2.18,0,4.35,0,6.53,0h6.83C445.17,444.38,445.56,444.48,445.72,444Z" transform="translate(-78.56 -299.51)"/><path class="n" d="M123.11,334.72V336h.37l0-.43h0C123.21,335.32,123.38,334.92,123.11,334.72Z" transform="translate(-78.56 -299.51)"/><path class="o" d="M123.25,336.43c.24,0,.24-.27.23-.48h-.37C123.13,336.13,123,336.42,123.25,336.43Z" transform="translate(-78.56 -299.51)"/><path class="p" d="M408.46,353h0V353l0,1.73h0l.33,0c0-.59,0-1.18,0-1.77A.24.24,0,0,0,408.46,353Z" transform="translate(-78.56 -299.51)"/><path class="b" d="M98.29,488.38v1.82l-2.15.46.86-4.9h2.12L99,490.57a15.22,15.22,0,0,1-7,1.59c-7,0-11.74-4.84-11.74-11.6A11.32,11.32,0,0,1,91.93,469a13.88,13.88,0,0,1,6.71,1.59l.14,4.8H96.66l-.87-4.9,2.15.46v2a8.33,8.33,0,0,0-5.59-2.32c-4.69,0-8.47,3.48-8.47,9.94s3.4,9.94,8.23,9.94A9.89,9.89,0,0,0,98.29,488.38Z" transform="translate(-78.56 -299.51)"/><path class="b" d="M123.4,480.56c0,7.26-5.21,11.6-10.59,11.6s-10.63-4.05-10.63-11.6c0-7.25,5.28-11.59,10.63-11.59S123.4,473,123.4,480.56Zm-10.59,9.94c4.89,0,6.94-5,6.94-9.94s-2-9.94-6.94-9.94-7,5-7,9.94S107.91,490.5,112.81,490.5Z" transform="translate(-78.56 -299.51)"/><path class="b" d="M125.76,470.79v-1.33h9.72v1.33l-4.51.5h-.7Zm4.86,19v1.82h-4.86v-1.33l4.51-.49ZM129,469.46h3.34c-.11,3.42-.11,6.86-.11,10.27v2.32c0,2.82,0,6.26.11,9.61H129c.11-3.41.11-6.86.11-10.27v-1.66C129.06,476.25,129.06,472.81,129,469.46Zm14.42,16-.35,6.23h-12.4V490H141.8l-1.91,1.66,1.39-6.23Z" transform="translate(-78.56 -299.51)"/><path class="b" d="M145.8,470.79v-1.33h9.72v1.33l-4.51.5h-.7Zm4.86,19v1.82H145.8v-1.33l4.51-.49ZM149,469.46h3.34c-.11,3.42-.11,6.86-.11,10.27v2.32c0,2.82,0,6.26.11,9.61H149c.11-3.41.11-6.86.11-10.27v-1.66C149.1,476.25,149.1,472.81,149,469.46Zm14.41,16-.34,6.23h-12.4V490h11.18l-1.91,1.66,1.39-6.23Z" transform="translate(-78.56 -299.51)"/><path class="b" d="M165.84,470.79v-1.33h4.86v1.83h-.35Zm4.86,19v1.82h-4.86v-1.33l4.51-.49Zm-1.57-10.11c0-3.41,0-6.85-.1-10.27h3.33c-.1,3.35-.1,6.79-.1,10.27V481c0,3.81,0,7.26.1,10.67H169c.1-3.35.1-6.79.1-10.27Zm11.19-10.27,1.56,1.66H170.7v-1.66h12.4l.24,5.9h-2Zm-1.77,11.63H170.7v-1.52h7.85Zm5.48,4.67-.24,5.9H170.7V490h11.87L181,491.66l1.08-5.9Zm-6.6-5.86.53-3.51h1.56v7.85H178l-.53-3.68Z" transform="translate(-78.56 -299.51)"/><path class="b" d="M206.22,490.2a16.47,16.47,0,0,1-7.64,2c-6.94,0-11.66-4.94-11.66-11.6S191.67,469,198.72,469a13.48,13.48,0,0,1,7,1.59l.14,4.8h-2.12l-.86-4.9,2.15.66V473a8.66,8.66,0,0,0-6-2.39c-4.86,0-8.44,3.61-8.44,9.94s3.27,9.91,8.68,9.91a11.7,11.7,0,0,0,5.42-1.36l-1.56,1.55v-1.92c0-2.51,0-5.1-.1-7.62h3.33c-.07,2.49-.11,5-.11,7.62Zm-6.84-7.75v-1.33h9v1.33l-3.82.33h-.69Z" transform="translate(-78.56 -299.51)"/><path class="b" d="M210.15,470.79v-1.33H215v1.83h-.35Zm4.86,19v1.82h-4.86v-1.33l4.51-.49Zm-1.56-10.11c0-3.41,0-6.85-.11-10.27h3.34c-.11,3.35-.11,6.79-.11,10.27V481c0,3.81,0,7.26.11,10.67h-3.34c.11-3.35.11-6.79.11-10.27Zm11.18-10.27,1.56,1.66H215v-1.66h12.4l.24,5.9h-1.94Zm-1.77,11.63H215v-1.52h7.85Zm5.49,4.67-.25,5.9H215V490h11.88l-1.56,1.66,1.07-5.9Zm-6.6-5.86.52-3.51h1.56v7.85h-1.56l-.52-3.68Z" transform="translate(-78.56 -299.51)"/><path class="b" d="M260.57,480.56c0,7.26-5.2,11.6-10.59,11.6s-10.63-4.05-10.63-11.6c0-7.25,5.28-11.59,10.63-11.59S260.57,473,260.57,480.56ZM250,490.5c4.9,0,7-5,7-9.94s-2.05-9.94-7-9.94-7,5-7,9.94S245.09,490.5,250,490.5Z" transform="translate(-78.56 -299.51)"/><path class="b" d="M262.94,470.79v-1.33h4.86v1.83h-.35Zm5.2,19,4.52.49v1.33h-9.72v-1.33l4.51-.49Zm-1.91-10.11c0-3.41,0-6.85-.1-10.27h3.33c-.1,3.35-.1,6.79-.1,10.27V481c0,3.81,0,7.26.1,10.67h-3.33c.1-3.35.1-6.79.1-10.27Zm11.19-10.27,1.56,1.66H267.8v-1.66h12.4l.24,5.9h-1.95Zm-1.5,11.63H267.8v-1.52h8.12Zm-1.11-1.19.52-3.51h1.57v8.18h-1.57l-.52-3.68Z" transform="translate(-78.56 -299.51)"/><path class="b" d="M291.1,471.12l1.56-1.66-1.11,5.9h-1.94l.27-5.9h19l.28,5.9h-1.95l-1.11-5.9,1.56,1.66Zm8.61,18.72,4.87.49v1.33H294.16v-1.33l4.86-.49Zm-1.91-10.11c0-3.41,0-6.85-.1-10.27H301c-.1,3.35-.1,6.79-.1,10.27v1.66c0,3.41,0,6.86.1,10.27H297.7c.1-3.35.1-6.79.1-10.27Z" transform="translate(-78.56 -299.51)"/><path class="b" d="M311.38,470.79v-1.33h4.86v1.83h-.34Zm4.86,19v1.82h-4.86v-1.33l4.52-.49Zm-1.56-10.11c0-3.41,0-6.85-.1-10.27h3.33c-.1,3.35-.1,6.79-.1,10.27V481c0,3.81,0,7.26.1,10.67h-3.33c.1-3.35.1-6.79.1-10.27Zm11.18-10.27,1.57,1.66H316.24v-1.66h12.4l.25,5.9h-1.95Zm-1.77,11.63h-7.85v-1.52h7.85Zm5.49,4.67-.24,5.9h-13.1V490h11.88l-1.56,1.66,1.08-5.9ZM323,479.9l.52-3.51h1.57v7.85H323.5l-.52-3.68Z" transform="translate(-78.56 -299.51)"/><path class="b" d="M350.52,488.38v1.82l-2.15.46.87-4.9h2.11l-.13,4.81a15.29,15.29,0,0,1-7,1.59c-7,0-11.74-4.84-11.74-11.6A11.33,11.33,0,0,1,344.17,469a13.84,13.84,0,0,1,6.7,1.59l.14,4.8h-2.12l-.87-4.9,2.15.46v2a8.33,8.33,0,0,0-5.59-2.32c-4.69,0-8.47,3.48-8.47,9.94s3.4,9.94,8.23,9.94A9.89,9.89,0,0,0,350.52,488.38Z" transform="translate(-78.56 -299.51)"/><path class="b" d="M354.31,470.79v-1.33H364v1.33l-4.51.5h-.7Zm5.21,19,4.51.49v1.33h-9.72v-1.33l4.51-.49Zm-1.91-10.11c0-3.41,0-6.85-.11-10.27h3.33c-.1,3.35-.1,6.79-.1,10.27v1c0,4.07,0,7.52.1,10.93H357.5c.11-3.35.11-6.79.11-10.27Zm1.56,1.33v-1.53h14.58v1.53Zm9.72-10.27v-1.33h9.73v1.33l-4.52.5h-.69Zm5.21,19,4.52.49v1.33h-9.73v-1.33l4.52-.49Zm-1.91-10.11c0-3.41,0-6.85-.1-10.27h3.33c-.1,3.35-.1,6.79-.1,10.27v1.66c0,3.41,0,6.86.1,10.27h-3.33c.1-3.35.1-6.79.1-10.93Z" transform="translate(-78.56 -299.51)"/><path class="b" d="M381.57,490.33l3.64-.49h.7l4,.49v1.33h-8.33Zm2.19-19.84,2.15.8-4.17-.5v-1.33H387l14.41,18.92v3.51h-1.11Zm.76-1,1.74,1.33v20.87h-1.74Zm11.46,0h8.34v1.33l-3.48.5h-.69l-4.17-.5Zm3.65,0h1.73v22.43l-1.73-1.66Z" transform="translate(-78.56 -299.51)"/><path class="b" d="M427.9,480.56c0,7.26-5.21,11.6-10.6,11.6s-10.62-4.05-10.62-11.6c0-7.25,5.28-11.59,10.62-11.59S427.9,473,427.9,480.56Zm-10.6,9.94c4.9,0,6.95-5,6.95-9.94s-2.05-9.94-6.95-9.94-7,5-7,9.94S412.41,490.5,417.3,490.5Z" transform="translate(-78.56 -299.51)"/><path class="b" d="M430.26,470.79v-1.33H440v1.33l-4.51.5h-.7Zm4.86,19v1.82h-4.86v-1.33l4.51-.49Zm-1.67-20.38h3.34c-.11,3.42-.11,6.86-.11,10.27v2.32c0,2.82,0,6.26.11,9.61h-3.34c.11-3.41.11-6.86.11-10.27v-1.66C433.56,476.25,433.56,472.81,433.45,469.46Zm14.42,16-.35,6.23h-12.4V490H446.3l-1.91,1.66,1.39-6.23Z" transform="translate(-78.56 -299.51)"/><path class="b" d="M471.62,480.56c0,7.26-5.21,11.6-10.59,11.6s-10.63-4.05-10.63-11.6c0-7.25,5.28-11.59,10.63-11.59S471.62,473,471.62,480.56ZM461,490.5c4.89,0,6.94-5,6.94-9.94s-2.05-9.94-6.94-9.94-7,5-7,9.94S456.13,490.5,461,490.5Z" transform="translate(-78.56 -299.51)"/><path class="b" d="M494.61,490.2a16.54,16.54,0,0,1-7.64,2c-7,0-11.67-4.94-11.67-11.6S480.06,469,487.11,469a13.53,13.53,0,0,1,7,1.59l.14,4.8h-2.12l-.87-4.9,2.15.66V473a8.63,8.63,0,0,0-6-2.39c-4.86,0-8.43,3.61-8.43,9.94s3.26,9.91,8.68,9.91a11.63,11.63,0,0,0,5.41-1.36l-1.56,1.55v-1.92c0-2.51,0-5.1-.1-7.62h3.33c-.07,2.49-.1,5-.1,7.62Zm-6.84-7.75v-1.33h9v1.33l-3.82.33h-.7Z" transform="translate(-78.56 -299.51)"/><path class="b" d="M496.1,470.79v-1.33h9.73v1.33l-4.52.5h-.69Zm9.55,13.42-7.6-14.75h3.61L508,482.52h-1.22l6.5-13.06H515l-7.47,14.75Zm1.32,5.63,4.86.49v1.33H501.42v-1.33l4.86-.49Zm-1.91-8.12h3.13c0,3.78,0,7,.1,9.94H505C505.06,488.78,505.06,485.53,505.06,481.72Zm8-10.43-3.85-.5v-1.33h8v1.33l-3.48.5Z" transform="translate(-78.56 -299.51)"/></svg>