<svg xmlns="http://www.w3.org/2000/svg" viewBox="0 0 864.14 303.84"><defs><style>.a{fill:#fff;}.b{fill:#ed1d24;}</style></defs><title>frantz_w</title><path class="a" d="M250,51.38c1.5.17,3,.41,4.48.51,10.15.7,20.23,1.74,30,4.79a47.59,47.59,0,0,1,12.6,5.76,26.32,26.32,0,0,1,7.49,7.34,17.21,17.21,0,0,1-.94,20.77A31.64,31.64,0,0,1,294,98.37c-6.42,3.58-13.37,5.64-20.51,7.17a1.68,1.68,0,0,0-1.07.6c.58.17,1.15.37,1.73.51a41.11,41.11,0,0,1,14.42,6.28,32.48,32.48,0,0,1,10.83,13.49c2.78,6.19,5.5,12.42,8.48,18.53,1.57,3.21,3.64,6.18,5.49,9.26.15.26.27.53.52,1-.79.07-1.4.17-2,.17-7,0-14.08,0-21.12,0a3.43,3.43,0,0,1-3.34-1.8c-1.6-2.76-3.34-5.46-4.69-8.35-2.18-4.62-4.3-9.29-6.09-14.07-4-10.65-11.63-16.7-22.6-18.9a79.68,79.68,0,0,0-15.48-1.55c-7.36,0-14.72,0-22.08,0-.4,0-.79.06-1.55.12-.08,2.91,0,5.84,0,8.76s0,5.92,0,8.88v26.72h-24.5V53.7c.92-.12,1.76-.3,2.6-.35l26.58-1.57c.86-.06,1.72-.27,2.57-.4Zm-35,49.21h2.78c6.88,0,13.75,0,20.62,0a116.85,116.85,0,0,0,17.92-1.17,55.44,55.44,0,0,0,16.23-4.82,23.08,23.08,0,0,0,6.92-5.07,12.59,12.59,0,0,0-.32-17.73,24,24,0,0,0-8.89-5.52,66.66,66.66,0,0,0-18.46-3.84,221.75,221.75,0,0,0-32.09,0c-1.56.1-3.11.35-4.71.53Z" transform="translate(-44.57 -51.38)"/><path class="b" d="M698.33,355.22c-.59-.2-1.18-.44-1.78-.6a12.41,12.41,0,1,1,15.52-12.44,12.6,12.6,0,0,1-8.88,12.33c-.67.2-1.32.47-2,.71Z" transform="translate(-44.57 -51.38)"/><path class="a" d="M607.68,134.62V52.7c1.88-.55,20.44-.66,23.17-.16V155.2c-.67.08-1.21.18-1.74.19-7.12,0-14.24,0-21.36,0a4.25,4.25,0,0,1-3-1.14q-33.26-28.86-66.52-57.7a275.38,275.38,0,0,1-25.16-24.7c-.29-.33-.65-.62-1.38-1.3v84.65H488.1V52.38c.75-.05,1.37-.13,2-.13,7.75,0,15.51,0,23.27,0a4.33,4.33,0,0,1,3,1.1C538.26,72.18,560.19,91,582,109.87a259.57,259.57,0,0,1,23.9,23.59c.42.46.79,1,1.19,1.46Z" transform="translate(-44.57 -51.38)"/><path class="a" d="M478.91,102.9c-11.56,1.22-23,2.46-34.62,4.64l30,47.68c-1.07.07-1.75.17-2.43.17-7.2,0-14.4,0-21.59.05a3.4,3.4,0,0,1-3.4-2q-11.48-19.53-23-39c-.41-.68-.83-1.35-1.33-2.17-.71.16-1.4.29-2.07.46-17.22,4.53-33.83,10.61-49.42,19.3A127.3,127.3,0,0,0,341.78,154a3.71,3.71,0,0,1-2.85,1.44c-7.43-.06-14.87,0-22.31,0-.37,0-.75-.07-1.15-.11.64-2.17,58-93.7,64.52-102.94.61,0,1.32-.09,2-.09,8.4,0,16.79,0,25.19,0a3.54,3.54,0,0,1,3.43,1.93c9.29,14.84,18.68,29.61,27.94,44.46a3.89,3.89,0,0,0,4,2.08,180.46,180.46,0,0,1,35.37,2C478.3,102.77,478.6,102.84,478.91,102.9Zm-61.74.22L393.83,63.63l-34,58.4.37.38A194.24,194.24,0,0,1,417.17,103.12Z" transform="translate(-44.57 -51.38)"/><path class="a" d="M769.4,155.16c0-2.33,0-4.55,0-6.78,0-1.19.91-1.61,1.63-2.19q11.64-9.25,23.3-18.49L872.12,66c.8-.64,1.58-1.29,2.33-1.91-.11-.24-.13-.32-.17-.38s-.08-.16-.14-.17a3.37,3.37,0,0,0-.71-.09l-94.29-.07a.64.64,0,0,1-.24,0,2.26,2.26,0,0,1-.34-.27V52.38H907.05c0,2.47.09,4.93-.07,7.36,0,.62-.82,1.3-1.41,1.77q-9,7.18-18,14.33Q845.71,109,803.9,142.17c-.59.47-1.14,1-2.17,1.89H908.35V155C906.65,155.48,773.65,155.68,769.4,155.16Z" transform="translate(-44.57 -51.38)"/><path class="a" d="M179.47,63.43H76.4c-.54,2.08-.55,35.13,0,37.34h89.53c.09,3.31,0,6.47,0,9.91-2.76.3-5.45.1-8.13.14s-5.44,0-8.16,0H100.71c-2.72,0-5.44,0-8.16,0H76v44.41H47.66V52.38h132C180.16,54.9,180.08,61.62,179.47,63.43Z" transform="translate(-44.57 -51.38)"/><path class="a" d="M722.75,154.59H698V63.83c-4,0-7.84,0-11.65,0H640.58V52.56h128c.59,1.72.21,3.56.28,5.35s0,3.66,0,5.81c-3.14.12-6.15.05-9.15.06s-6.08,0-9.12,0H722.75Z" transform="translate(-44.57 -51.38)"/><path class="a" d="M520,185.48h45.53v5.27c-3.79.1-7.52,0-11.24.05H531.44v16.09h30.34v5.71h-30c-.54,2-.72,24.69-.27,29.3,2.3.19,4.67.06,7,.08s4.8,0,7.2,0h21.49v5.86c-1.55.51-43.16.73-47.21.2Z" transform="translate(-44.57 -51.38)"/><path class="a" d="M746.6,234.78l6.71,6.43c-1,.71-1.73,1.32-2.54,1.8-12.64,7.47-25.93,8.73-39.6,3.51-12.19-4.66-19.06-15.35-19.3-29.06-.28-16.27,10.82-29.65,27.16-32.56a46.94,46.94,0,0,1,30.7,4.66c.5.26,1,.53,1.46.81a8.23,8.23,0,0,1,.76.64c-2,2.18-4,4.33-6.08,6.63L744,196c-6.95-6-14.84-7.9-23.68-5.31a19.41,19.41,0,0,0-13,11.89A39.7,39.7,0,0,0,704.9,220a41.17,41.17,0,0,0,1.18,8c2.52,9.74,9.73,15.36,19.77,15.83,7.43.36,13.54-2.48,18.89-7.36C745.32,236,745.89,235.45,746.6,234.78Z" transform="translate(-44.57 -51.38)"/><path class="a" d="M768.64,212.24,763.43,208c1.29-1,2.32-1.81,3.46-2.52a34.87,34.87,0,0,1,22-5.06,49.58,49.58,0,0,1,8.66,1.74,13.45,13.45,0,0,1,6.09,3.69,10.22,10.22,0,0,1,3.15,7.51c-.05,7.11,0,14.23.1,21.35.09,4.61.07,9.27,2.22,13.76H798.4l-1.71-5.88c-.24.11-.49.15-.61.29-3.86,4.5-9,6.19-14.67,6.66a23.51,23.51,0,0,1-10.61-1.39,25.77,25.77,0,0,1-4.46-2.3c-7.51-4.93-5.62-15.77,1.07-18.86a68,68,0,0,1,6.88-2.75c4.7-1.55,9.48-2.89,14.17-4.47a17.4,17.4,0,0,0,5.1-2.54c4.07-3.16,3.4-8.35-1.35-10.36a17.55,17.55,0,0,0-14.23-.24,68.87,68.87,0,0,0-7.27,4.13C770,211.15,769.42,211.67,768.64,212.24Zm27.19,9.61-1.84.65c-4,1.48-8.09,2.95-12.12,4.47a31.82,31.82,0,0,0-4.85,2c-3.19,1.83-4.34,4.8-3.93,8.35s2.55,5.59,5.8,6.61a12.8,12.8,0,0,0,16.13-8.6C796.3,231,795.69,226.53,795.83,221.85Z" transform="translate(-44.57 -51.38)"/><path class="b" d="M470.66,279.62a18.81,18.81,0,1,1-18.75-18.81A18.83,18.83,0,0,1,470.66,279.62Z" transform="translate(-44.57 -51.38)"/><path class="a" d="M680.16,218.08l-37.42,8.39a20.28,20.28,0,0,0,1.06,9.46c2.11,5.78,6.47,8.63,12.45,8.84,8,.27,14.77-2.27,19.72-9.26l5.62,3.93c-.68.77-1.21,1.45-1.82,2a27.59,27.59,0,0,1-14.3,7.33c-6.21,1.24-12.39,1.33-18.47-.69-9.72-3.22-16.36-11.65-16.61-21.86s4.58-17.66,13.3-22.52c7.6-4.23,15.74-4.59,23.92-1.85,6.57,2.2,10.62,6.88,12.2,13.65C680,216.3,680,217.09,680.16,218.08Zm-36.88,3c7.67-1.14,24.13-5,25.63-5.93-.87-5.51-3.48-8.58-8.31-9.55a18.85,18.85,0,0,0-4.05-.22C647.63,205.56,642.15,212,643.28,221.1Z" transform="translate(-44.57 -51.38)"/><path class="a" d="M907.43,218.11l-37.15,8.31c-1.3,9,3,18.25,13.84,18.38,7.79.1,14.42-2.48,19.22-9.3l5.37,3.77a5.16,5.16,0,0,1-.87,1.46c-2.18,1.74-4.22,3.77-6.66,5a34.24,34.24,0,0,1-26.74,2.35,23.34,23.34,0,0,1-16.67-23.43c.28-9,4.72-15.85,12.35-20.41,8-4.81,16.66-5.28,25.4-2.15A17.82,17.82,0,0,1,907.43,218.11Zm-36.86,2.94c5.14-.59,24.24-5,25.67-5.85-.65-6.07-4.54-9.66-10.63-9.82-.8,0-1.6,0-2.4,0C874.94,205.7,869.33,212.58,870.57,221.05Z" transform="translate(-44.57 -51.38)"/><path class="a" d="M605.35,239.21c.31-.24.49-.31.56-.43,3.83-7.55,7.46-15.18,9.92-23.33a15.69,15.69,0,0,0-1-12.29l9-4.7a9.55,9.55,0,0,1,1.75,7.85,79.7,79.7,0,0,1-2.4,9,104.11,104.11,0,0,1-9.55,20.87c-2.31,3.74-4.44,7.58-6.68,11.37a53.24,53.24,0,0,1-9.22,11.9,24.56,24.56,0,0,1-9,5.71,13.46,13.46,0,0,1-11.25-.72v-6.94l3.71,1.26a9.89,9.89,0,0,0,6.36,0c5.15-1.63,8.47-5.22,10.76-9.95.48-1-.11-1.69-.47-2.45q-5-10.48-10.1-20.93l-10.53-21.79c-.33-.7-.62-1.43-1-2.34h11.19Q596.32,220.13,605.35,239.21Z" transform="translate(-44.57 -51.38)"/><path class="b" d="M501.35,318.32a17.48,17.48,0,1,1,0-34.95,17.5,17.5,0,0,1,17.44,17.4A17.31,17.31,0,0,1,501.35,318.32Z" transform="translate(-44.57 -51.38)"/><path class="b" d="M419,258.3a17.26,17.26,0,0,1-17.56,17.49,17.48,17.48,0,0,1-17.4-17.7,17.48,17.48,0,0,1,35,.21Z" transform="translate(-44.57 -51.38)"/><path class="b" d="M534.64,316.76a16.18,16.18,0,1,1,16.19,16.31A16.08,16.08,0,0,1,534.64,316.76Z" transform="translate(-44.57 -51.38)"/><path class="b" d="M335.87,242.35a16.2,16.2,0,1,1,32.39-.09,16.2,16.2,0,1,1-32.39.09Z" transform="translate(-44.57 -51.38)"/><path class="b" d="M585.46,329.15a14.91,14.91,0,1,1,14.79,15A14.7,14.7,0,0,1,585.46,329.15Z" transform="translate(-44.57 -51.38)"/><path class="b" d="M302.51,215a14.9,14.9,0,1,1-15,14.86A14.92,14.92,0,0,1,302.51,215Z" transform="translate(-44.57 -51.38)"/><path class="a" d="M834.75,248.15H824.27v-46.9c3-.16,6.06-.11,9.24,0,.26,2.21.5,4.25.77,6.62a44.89,44.89,0,0,1,4.23-3.87,19.36,19.36,0,0,1,4.83-2.58A22.32,22.32,0,0,1,849,200.3a45.22,45.22,0,0,1,5.61.24v6.85c-.87-.1-1.71-.26-2.55-.28a31.23,31.23,0,0,0-6.19,0c-6.6,1.18-11,6.75-11.07,13.71,0,8.16,0,16.31,0,24.47Z" transform="translate(-44.57 -51.38)"/><path class="b" d="M649.85,325.39a13.66,13.66,0,1,1-13.5,13.79A13.44,13.44,0,0,1,649.85,325.39Z" transform="translate(-44.57 -51.38)"/><path class="b" d="M252.67,233.75a13.64,13.64,0,1,1,13.94-13.49A13.69,13.69,0,0,1,252.67,233.75Z" transform="translate(-44.57 -51.38)"/><path class="b" d="M203.15,228.93a12.4,12.4,0,1,1,12.37-12.3A12.3,12.3,0,0,1,203.15,228.93Z" transform="translate(-44.57 -51.38)"/><path class="b" d="M164.51,219.13a11.08,11.08,0,0,1-11.07,11.16,11.14,11.14,0,1,1,11.07-11.16Z" transform="translate(-44.57 -51.38)"/><path class="b" d="M738.29,340a11.15,11.15,0,1,1,11.16,11.06A11.08,11.08,0,0,1,738.29,340Z" transform="translate(-44.57 -51.38)"/><path class="b" d="M103.51,238.64a9.78,9.78,0,0,1-9.86-9.92,9.93,9.93,0,0,1,9.89-9.71,9.82,9.82,0,0,1,9.81,10A9.67,9.67,0,0,1,103.51,238.64Z" transform="translate(-44.57 -51.38)"/><path class="b" d="M809.14,330.2a9.94,9.94,0,0,1-9.89,9.95,9.86,9.86,0,0,1,.09-19.72A9.88,9.88,0,0,1,809.14,330.2Z" transform="translate(-44.57 -51.38)"/><path class="b" d="M857.76,314.3a8.52,8.52,0,1,1-8.51-8.46A8.45,8.45,0,0,1,857.76,314.3Z" transform="translate(-44.57 -51.38)"/><path class="b" d="M892.19,287.79a7.22,7.22,0,1,1,7.18,7.36A7.12,7.12,0,0,1,892.19,287.79Z" transform="translate(-44.57 -51.38)"/><circle class="b" cx="8.79" cy="193.38" r="8.79"/></svg>