<svg xmlns="http://www.w3.org/2000/svg" viewBox="0 0 425.91 143.04"><defs><style>.a{fill:#ffa814;}.b{fill:#fff;}.c{fill:#533a98;}.d{fill:#ca0026;}.e{fill:#0671b0;}.f{fill:#ff4d00;}.g{fill:#33a02c;}.h{fill:#ffb300;}</style></defs><title>nbc12</title><path class="a" d="M349.5,204.63v.23H290.61v-78H244.46V100c31.14-.37,53.79-7.58,60.3-30.72H349.5V185.59" transform="translate(-107.09 -65.19)"/><path class="a" d="M347.4,188c.17-.31.36-.62.54-.92,4.45-7.36,12.21-13.86,22.52-20.22,37.53-23.33,96.38-32.44,96.38-54.63,0-8.53-13.68-13.46-27-13.46-25.44,0-32.76,12.7-32.44,25.6H347.88c.95-39.26,36.9-55.19,95.1-55.19,46.44,0,90,12.14,90,43.24,0,23.52-30.22,33.19-59.48,44-16.22,6.07-33.4,11.19-45.17,16.12h104v32.25H343.74c-.08-1-.11-1.91-.1-2.84" transform="translate(-107.09 -65.19)"/><path class="a" d="M216.36,148.48A20.46,20.46,0,0,0,196,167.34l-.11,0c-.55,0-1.11-.07-1.67-.07s-1.2,0-1.78.09a20.48,20.48,0,0,0-40.84,0h-.06l-.28,0h-.13c-.43,0-.86-.05-1.31-.05-.6,0-1.19,0-1.77.09a20.49,20.49,0,1,0-20.42,22.1c.6,0,1.19,0,1.77-.08v.22h0a20.48,20.48,0,0,0,40.82-.21c.59,0,1.18.08,1.78.08s1.19,0,1.77-.08a.19.19,0,0,0,0,.08,20.48,20.48,0,0,0,40.83-.08c.59,0,1.18.08,1.78.08a20.48,20.48,0,1,0,0-41m-5.31,36.7a17.09,17.09,0,0,1-11.57-13.66,17.09,17.09,0,0,1,11.57,13.66m-33.75-.11a17.06,17.06,0,0,1,11.55-13.55,17.07,17.07,0,0,1-11.56,13.66.45.45,0,0,1,0-.11m-10.65.11a17.09,17.09,0,0,1-11.56-13.66,17,17,0,0,1,11.56,13.66m-33.75-.11a17.1,17.1,0,0,1,11.56-13.55,17.09,17.09,0,0,1-11.57,13.66.37.37,0,0,0,0-.11M110.51,169a17.07,17.07,0,0,1,34.1-1,20.54,20.54,0,0,0-15.23,17.81,1.64,1.64,0,0,1,0,.22,14.79,14.79,0,0,1-1.78.11A17.07,17.07,0,0,1,110.51,169m39.26,35.87a17.06,17.06,0,0,1-17-16v0a20.5,20.5,0,0,0,15.24-18,17.73,17.73,0,0,1,1.79-.09c.57,0,1.14,0,1.69.08h.1a20.49,20.49,0,0,0,15.25,18,17.07,17.07,0,0,1-17,16m20.41-18.89a20.52,20.52,0,0,0-15-18l-.07,0-.17,0a17.07,17.07,0,0,1,34.08,0,20.51,20.51,0,0,0-15.24,17.92.45.45,0,0,0,0,.11,14.62,14.62,0,0,1-3.58,0m24,18.89a17.09,17.09,0,0,1-17-16v-.07a20.52,20.52,0,0,0,15.25-18,17.44,17.44,0,0,1,1.79-.09,17.73,17.73,0,0,1,1.79.09,20.49,20.49,0,0,0,15.25,18,17.07,17.07,0,0,1-17,16M216.36,186a15.22,15.22,0,0,1-1.79-.11,20.51,20.51,0,0,0-15.15-18h0l-.09,0h0a17.08,17.08,0,1,1,17,18.14" transform="translate(-107.09 -65.19)"/><path class="b" d="M171.83,73.66a17.82,17.82,0,0,1,7.8-7.14A16.6,16.6,0,0,1,196.69,69a16.14,16.14,0,0,1,5.42,15.1,27.11,27.11,0,0,0,3.22-1.24,16.36,16.36,0,0,1,17.86,5.84,16.16,16.16,0,0,1,2.11,15.24,17.3,17.3,0,0,1-4.68,6.58l.22.21a16.43,16.43,0,0,1,14.1,11,16.08,16.08,0,0,1-4.1,16.58c-3.54,3.49-8.07,4.71-13.14,4.61H125.93c-7.55.16-13.37-3.19-16.51-9.88-2.45-5.76-1.25-13.12,3.36-17.49,2.87-3,6.51-4.28,10.43-4.91a16.52,16.52,0,0,1-5.32-15.77,16.22,16.22,0,0,1,9.84-11.54,16.84,16.84,0,0,1,13.79.89l.15-.16c-1.17-6.66,1.79-12.65,7.3-16.33,4.9-3.32,12.78-3.24,17.61.3a17.85,17.85,0,0,1,5.25,5.69" transform="translate(-107.09 -65.19)"/><path class="c" d="M197.81,76.15c1.95,4,.83,9.19-1.25,12.75l-15.93,35.84-.13.15-5.77-36.35c-.47-3.47,3.28-5,5.46-6.65-.09-.51-.68-.49-1-.72l-5.38-.06-.15-.17a12.32,12.32,0,0,1,6.56-10.87,12.83,12.83,0,0,1,14.09,1.37,13.68,13.68,0,0,1,3.53,4.71" transform="translate(-107.09 -65.19)"/><path class="d" d="M168.47,74.88a13,13,0,0,1,1.59,8.18l-6.49,41.61a.12.12,0,0,1-.09.14l-1.66-3.34L145.53,85.11A12.61,12.61,0,0,1,162.4,69.65a13.64,13.64,0,0,1,6.07,5.23" transform="translate(-107.09 -65.19)"/><path class="e" d="M221.36,92.41c2.19,3.74,1.69,9.39-.74,12.85-1.51,2.44-4,3.65-6.09,5.25L180.8,133.66h-.09l.38-1.11L199,92.2a12.86,12.86,0,0,1,13.19-6.44,13,13,0,0,1,9.2,6.65" transform="translate(-107.09 -65.19)"/><path class="f" d="M144.75,92.2l18.6,41.45h-.3L125.54,107.8a12.4,12.4,0,0,1-4.08-12.9,12.66,12.66,0,0,1,23.29-2.7" transform="translate(-107.09 -65.19)"/><path class="g" d="M231.15,121.67a12.89,12.89,0,0,1-1.55,12.72,12.58,12.58,0,0,1-10.35,4.85l-40,0,33.5-23.3a12.9,12.9,0,0,1,11.82-.79,13.06,13.06,0,0,1,6.58,6.48" transform="translate(-107.09 -65.19)"/><path class="h" d="M112.73,121.67a12.79,12.79,0,0,0,1.53,12.72,12.6,12.6,0,0,0,10.36,4.85l40,0L131.11,116a12.85,12.85,0,0,0-18.38,5.69" transform="translate(-107.09 -65.19)"/></svg>