<svg xmlns="http://www.w3.org/2000/svg" viewBox="0 0 378.26 94.4"><defs><style>.a{fill:#414042;}.b{fill:#1a1a1a;}.c{fill:#006fba;}.d{fill:#fff;}.e{fill:#fdb515;}</style></defs><title>tch</title><path class="a" d="M78.33,90.79v8.3H87.1v-8.3h3.78v20.72H87.1v-9.13H78.33v9.13H74.55V90.79Z" transform="translate(-16.8 -18.05)"/><path class="a" d="M97,105.09c.09,2.7,2.21,3.87,4.61,3.87a11.27,11.27,0,0,0,4.15-.68l.56,2.62a14.22,14.22,0,0,1-5.23.92c-4.86,0-7.72-3-7.72-7.56,0-4.16,2.52-8.06,7.32-8.06s6.46,4,6.46,7.29a9.41,9.41,0,0,1-.13,1.6Zm6.58-2.65c0-1.38-.59-3.66-3.11-3.66-2.33,0-3.32,2.12-3.47,3.66Z" transform="translate(-16.8 -18.05)"/><path class="a" d="M117.82,111.51l-.25-1.66h-.09a5.56,5.56,0,0,1-4.43,2,4.44,4.44,0,0,1-4.7-4.46c0-3.78,3.35-5.69,8.88-5.66v-.24c0-1-.4-2.61-3-2.61a8,8,0,0,0-4,1.1l-.74-2.46a10.88,10.88,0,0,1,5.41-1.32c4.8,0,6.18,3,6.18,6.3v5.41a24.4,24.4,0,0,0,.22,3.6Zm-.5-7.32c-2.67-.06-5.22.53-5.22,2.8a2,2,0,0,0,2.15,2.15,3.05,3.05,0,0,0,3-2.06,2.73,2.73,0,0,0,.12-.83Z" transform="translate(-16.8 -18.05)"/><path class="a" d="M124.24,89.68h3.82v21.83h-3.82Z" transform="translate(-16.8 -18.05)"/><path class="a" d="M135.71,92.26v4.28h3.6v2.83h-3.6V106c0,1.81.5,2.76,1.94,2.76a5.74,5.74,0,0,0,1.48-.18l.06,2.89a8.5,8.5,0,0,1-2.74.37,4.39,4.39,0,0,1-3.26-1.23c-.8-.86-1.17-2.21-1.17-4.18v-7h-2.15V96.54H132V93.16Z" transform="translate(-16.8 -18.05)"/><path class="a" d="M141.4,89.68h3.82V98.6h.06a5,5,0,0,1,1.87-1.72,5.14,5.14,0,0,1,2.58-.68c2.56,0,5.23,1.69,5.23,6.49v8.82h-3.78v-8.39c0-2.19-.8-3.81-2.89-3.81a3.08,3.08,0,0,0-2.92,2.12,3.19,3.19,0,0,0-.15,1.13v9H141.4Z" transform="translate(-16.8 -18.05)"/><path class="a" d="M164,111.51V90.79h4.31l5.35,8.88a57.62,57.62,0,0,1,3.53,7h.06c-.24-2.76-.33-5.44-.33-8.61V90.79h3.5v20.72h-3.9l-5.42-9.1a73.9,73.9,0,0,1-3.72-7.16l-.09,0c.16,2.67.19,5.41.19,8.82v7.41Z" transform="translate(-16.8 -18.05)"/><path class="a" d="M186.51,105.09c.09,2.7,2.22,3.87,4.61,3.87a11.19,11.19,0,0,0,4.15-.68l.56,2.62a14.18,14.18,0,0,1-5.23.92c-4.86,0-7.72-3-7.72-7.56,0-4.16,2.52-8.06,7.32-8.06s6.46,4,6.46,7.29a8.47,8.47,0,0,1-.13,1.6Zm6.58-2.65c0-1.38-.58-3.66-3.1-3.66-2.34,0-3.32,2.12-3.48,3.66Z" transform="translate(-16.8 -18.05)"/><path class="a" d="M203.27,92.26v4.28h3.6v2.83h-3.6V106c0,1.81.49,2.76,1.94,2.76a5.71,5.71,0,0,0,1.47-.18l.06,2.89a8.38,8.38,0,0,1-2.73.37,4.37,4.37,0,0,1-3.26-1.23c-.8-.86-1.17-2.21-1.17-4.18v-7h-2.15V96.54h2.15V93.16Z" transform="translate(-16.8 -18.05)"/><path class="a" d="M211.45,96.54l1.57,6.79c.34,1.6.67,3.23.95,4.86H214c.31-1.63.8-3.29,1.23-4.83l1.94-6.82h3.07l1.88,6.64c.46,1.75.86,3.38,1.2,5h.06c.25-1.63.58-3.26,1-5l1.66-6.64h3.72l-4.7,15h-3.51l-1.78-6.09a46.26,46.26,0,0,1-1.14-4.79h-.06a38,38,0,0,1-1.14,4.79l-1.9,6.09H212l-4.42-15Z" transform="translate(-16.8 -18.05)"/><path class="a" d="M245.27,103.89c0,5.5-3.87,8-7.68,8-4.25,0-7.5-2.92-7.5-7.72s3.22-7.93,7.74-7.93S245.27,99.34,245.27,103.89ZM234,104c0,2.89,1.41,5.07,3.72,5.07,2.15,0,3.66-2.12,3.66-5.13,0-2.34-1.05-5-3.63-5S234,101.55,234,104Z" transform="translate(-16.8 -18.05)"/><path class="a" d="M247.61,101.37c0-2,0-3.48-.12-4.83h3.29l.12,2.86H251a4.47,4.47,0,0,1,4.09-3.2,4.16,4.16,0,0,1,.9.09v3.57a5.45,5.45,0,0,0-1.11-.12,3.31,3.31,0,0,0-3.38,2.86,6.41,6.41,0,0,0-.13,1.16v7.75h-3.78Z" transform="translate(-16.8 -18.05)"/><path class="a" d="M261.57,103.12h.06c.37-.59.8-1.23,1.2-1.75l3.63-4.83H271l-5.53,6.12,6.33,8.85h-4.64l-4.31-6.61-1.29,1.51v5.1h-3.78V89.68h3.78Z" transform="translate(-16.8 -18.05)"/><path class="b" d="M385,46.67H382.9v-.74h5v.74h-2.05v6H385Z" transform="translate(-16.8 -18.05)"/><path class="b" d="M394,49.7c-.05-.93-.11-2.06-.1-2.9h0c-.23.79-.51,1.64-.85,2.56l-1.18,3.26h-.66l-1.09-3.2c-.32-1-.59-1.82-.78-2.62h0c0,.84-.07,2-.13,3L389,52.66h-.83l.47-6.73h1.11l1.15,3.26c.28.82.51,1.56.68,2.26h0c.16-.68.41-1.42.7-2.26l1.2-3.26h1.11l.42,6.73h-.85Z" transform="translate(-16.8 -18.05)"/><path class="b" d="M100.26,81.94a23.34,23.34,0,0,1-9.14,1.57c-11.19,0-18-7-18-17.72,0-11.6,8.1-18.55,18.86-18.55a20.12,20.12,0,0,1,8.52,1.52l-1.36,5.12a17.32,17.32,0,0,0-6.9-1.36c-7.15,0-12.33,4.5-12.33,13,0,7.73,4.5,12.65,12.28,12.65a19.5,19.5,0,0,0,7-1.26Z" transform="translate(-16.8 -18.05)"/><path class="b" d="M214.87,47.77V61.88h14.89V47.77h6.43V83h-6.43V67.47H214.87V83h-6.43V47.77Z" transform="translate(-16.8 -18.05)"/><path class="b" d="M117.05,54.16a9.47,9.47,0,0,0-4.8,1.27,9.06,9.06,0,0,0-3.31,3.17l-.15.23h-.14V44.48h-6.06V83h6.06v-17a6.73,6.73,0,0,1,.32-2.39,6.22,6.22,0,0,1,5.75-4.48c3.58,0,6,2.83,6,7.95V83h6V66.32C126.73,55,119.32,54.16,117.05,54.16Z" transform="translate(-16.8 -18.05)"/><path class="b" d="M136.21,60.07l-.12.33h-.28l-.24-5.58h-5.41c.15,2.38.21,5,.21,8.92V83h6.38V68.42a13.47,13.47,0,0,1,.25-2.37,7,7,0,0,1,7.09-6,9.81,9.81,0,0,1,1.66.14V54.26a8.77,8.77,0,0,0-1.35-.1A8.94,8.94,0,0,0,136.21,60.07Z" transform="translate(-16.8 -18.05)"/><rect class="b" x="131.45" y="37.34" width="6.44" height="27.65"/><path class="b" d="M158.06,62.84c-.06,3.5,2.47,6.28,7.31,8,3.17,1.17,4.89,2.27,4.89,4.73,0,1.13-.48,3.74-4.94,3.74a15.57,15.57,0,0,1-6.81-1.83l-1.11,4.33a17,17,0,0,0,7.86,1.78c6.65,0,10.79-3.3,10.79-8.62-.06-4-2.18-6.59-7.09-8.47-3.5-1.31-5.17-2.32-5.17-4.55s1.72-3.56,4.38-3.56a12.51,12.51,0,0,1,5.55,1.43l1.1-4.21a15.17,15.17,0,0,0-6.77-1.5C162.17,54.16,158.06,57.73,158.06,62.84Z" transform="translate(-16.8 -18.05)"/><path class="b" d="M187.15,46.62l-6.2,1.5v6.7h-4.2v4.52H181V73.58c0,3.76.68,6.25,2.15,7.82a8.05,8.05,0,0,0,6,2.24,17.32,17.32,0,0,0,4.83-.57l-.1-4.66a11.41,11.41,0,0,1-2.39.23c-3.79,0-4.28-3.15-4.28-5.9V59.34h7V54.82h-7Z" transform="translate(-16.8 -18.05)"/><path class="b" d="M253.11,54.16c-8.88,0-14.62,5.88-14.62,15,0,8.71,5.68,14.56,14.14,14.56,7.22,0,14.5-4.65,14.5-15C267.13,60,261.5,54.16,253.11,54.16Zm-.24,25.2c-4.64,0-7.76-4.18-7.76-10.4,0-4.79,2-10.4,7.82-10.4,5.24,0,7.58,5.17,7.58,10.28C260.51,75,257.37,79.36,252.87,79.36Z" transform="translate(-16.8 -18.05)"/><path class="b" d="M279.24,66.55c-3.5-1.31-5.17-2.32-5.17-4.55s1.72-3.56,4.38-3.56A12.51,12.51,0,0,1,284,59.87l1.1-4.21a15.17,15.17,0,0,0-6.77-1.5c-5.88,0-10,3.57-10,8.68,0,3.5,2.47,6.28,7.32,8,3.17,1.17,4.88,2.27,4.88,4.73,0,1.13-.48,3.74-4.94,3.74a15.57,15.57,0,0,1-6.81-1.83l-1.11,4.33a17,17,0,0,0,7.86,1.78c6.65,0,10.79-3.3,10.79-8.62C286.27,71,284.15,68.43,279.24,66.55Z" transform="translate(-16.8 -18.05)"/><path class="b" d="M303.65,54.16a10.64,10.64,0,0,0-9.41,4.93l-.15.23h-.15l-.34-4.5h-5.17c.1,2.57.21,5.59.21,9.22V94.92h6V79.8h.21L295,80c1.42,2.26,4.35,3.66,7.64,3.66,6.06,0,12.58-4.74,12.58-15.16C315.23,60.21,310.36,54.16,303.65,54.16ZM301.53,79a6.91,6.91,0,0,1-6.64-5.55,8.07,8.07,0,0,1-.24-2.15V66.8a7.46,7.46,0,0,1,.3-2A7.14,7.14,0,0,1,301.7,59c4.43,0,7.4,4,7.4,9.86C309.1,75,306.13,79,301.53,79Z" transform="translate(-16.8 -18.05)"/><rect class="b" x="301.21" y="37.34" width="6.44" height="27.65"/><path class="b" d="M341,78.64c-3.8,0-4.28-3.15-4.28-5.9V59.91h7V55.39h-7V46.62l-6.2,1.5v7.27h-4.2v4.52h4.2V73.58c0,3.76.68,6.25,2.14,7.82a8.08,8.08,0,0,0,6,2.24,17.37,17.37,0,0,0,4.83-.57l-.1-4.66A11.47,11.47,0,0,1,341,78.64Z" transform="translate(-16.8 -18.05)"/><path class="b" d="M367.78,76.52V66c0-5.38-2-11.8-11.56-11.8a20.66,20.66,0,0,0-10,2.32l1.14,3.81A16.22,16.22,0,0,1,355,58.38c5.81,0,6.44,3.92,6.44,5.6v1h-.76C350,65,344.06,68.71,344.06,75.5a7.86,7.86,0,0,0,.18,1.68c.05.25.12.5.19.74,1,3.14,3.92,5.78,8.66,5.78A11,11,0,0,0,361.68,80l.16-.19H362l.48,3.24h5.64A54.24,54.24,0,0,1,367.78,76.52Zm-6.2-3.24a5.93,5.93,0,0,1-.27,1.78,6.48,6.48,0,0,1-6.23,4.36,4.36,4.36,0,0,1-4.7-4.7c0-2.72,1.73-6,10-6h.73l.49,0Z" transform="translate(-16.8 -18.05)"/><rect class="b" x="354.49" y="28.09" width="6.44" height="36.9"/><circle class="b" cx="134.66" cy="32.56" r="3.51"/><circle class="b" cx="304.4" cy="32.56" r="3.51"/><path class="b" d="M78.87,22.4H73V19.23H88.61V22.4h-6V40H78.87Z" transform="translate(-16.8 -18.05)"/><path class="b" d="M90.58,18.12H94.4V27h.06a5,5,0,0,1,1.87-1.72,5.14,5.14,0,0,1,2.58-.68c2.56,0,5.23,1.69,5.23,6.49V40h-3.78V31.56c0-2.18-.8-3.81-2.89-3.81a3.08,3.08,0,0,0-2.92,2.12A3.28,3.28,0,0,0,94.4,31V40H90.58Z" transform="translate(-16.8 -18.05)"/><path class="b" d="M109.62,33.53c.09,2.7,2.21,3.87,4.61,3.87a11.29,11.29,0,0,0,4.15-.67l.55,2.61a14.12,14.12,0,0,1-5.22.92c-4.86,0-7.72-3-7.72-7.56,0-4.15,2.52-8.06,7.32-8.06s6.45,4,6.45,7.29a9.54,9.54,0,0,1-.12,1.6Zm6.58-2.65c0-1.38-.59-3.65-3.11-3.65-2.34,0-3.32,2.12-3.47,3.65Z" transform="translate(-16.8 -18.05)"/><path class="c" d="M33,75.08a2.56,2.56,0,0,0-2-1.66v-1.8h4V68.78h1.1V60.47h0v-.23a3.57,3.57,0,0,0-.12-.88,1.25,1.25,0,0,0-1-.81h0v-2H32V53.74h3.56a1.59,1.59,0,0,0,.43-.06c2-.59,5-5.4,7.24-10.16a6.53,6.53,0,0,1,.86-1.45,5,5,0,0,1,1.52-1c0-.38,0-.93.28-1.14A9.62,9.62,0,0,1,47,39.31a3.62,3.62,0,0,0,.91-.53,6.62,6.62,0,0,0,0-1.25,1.61,1.61,0,0,1-.65-1.29A1.66,1.66,0,0,1,48,34.86l.49-9.52.58-.6.58.6.48,9.52a1.65,1.65,0,0,1,.77,1.38,1.61,1.61,0,0,1-.67,1.3,3.45,3.45,0,0,0,.06,1.22c.07.19.53.39.93.58a7.79,7.79,0,0,1,1,.53c.31.23.33.78.3,1.16a5,5,0,0,1,1.52,1A6,6,0,0,1,55,43.52c.2.42.39.86.6,1.31,1.13,2.55,2.41,5.35,4.79,7.35V18.05H16.8V83.5H33.2V77.35A8,8,0,0,0,33,75.08Z" transform="translate(-16.8 -18.05)"/><path class="d" d="M60.35,52.18c-2.38-2-3.66-4.8-4.79-7.35-.21-.45-.4-.89-.6-1.31a6,6,0,0,0-.86-1.45,5,5,0,0,0-1.52-1c0-.38,0-.93-.3-1.16a7.79,7.79,0,0,0-1-.53c-.4-.19-.86-.39-.93-.58a3.45,3.45,0,0,1-.06-1.22,1.61,1.61,0,0,0,.67-1.3,1.65,1.65,0,0,0-.77-1.38l-.48-9.52-.58-.6-.58.6L48,34.86a1.66,1.66,0,0,0-.75,1.38,1.61,1.61,0,0,0,.65,1.29,6.62,6.62,0,0,1,0,1.25,3.62,3.62,0,0,1-.91.53,9.62,9.62,0,0,0-1.07.58c-.29.21-.31.76-.28,1.14a5,5,0,0,0-1.52,1,6.53,6.53,0,0,0-.86,1.45C41,48.28,38,53.09,36,53.68a1.59,1.59,0,0,1-.43.06H32v2.77h2.93v2h0a1.25,1.25,0,0,1,1,.81,3.57,3.57,0,0,1,.12.88v.23h0v8.31H35v2.84h-4v1.8a2.56,2.56,0,0,1,2,1.66,8,8,0,0,1,.23,2.27V83.5H60.35ZM48.48,35.73a.5.5,0,0,0-.12.08.53.53,0,0,1,.12-.14Zm1.24,0v-.06a.62.62,0,0,1,.14.14A1.48,1.48,0,0,0,49.72,35.73Z" transform="translate(-16.8 -18.05)"/><polygon class="e" points="43.55 78.61 43.55 67.33 0 67.33 0 94.4 32.02 69.34 43.55 78.61"/><path class="c" d="M42.36,68.59v.19h5V62A6.49,6.49,0,0,0,42.36,68.59Z" transform="translate(-16.8 -18.05)"/><path class="c" d="M50.26,62v6.81h5.05v-.19A6.49,6.49,0,0,0,50.26,62Z" transform="translate(-16.8 -18.05)"/><rect class="c" x="25.55" y="53.56" width="5.04" height="11.89"/><rect class="c" x="33.46" y="53.56" width="5.05" height="11.89"/><polygon class="d" points="43.55 61.92 43.55 65.45 0 65.45 0 67.33 43.55 67.33 43.55 61.92 43.55 61.92"/></svg>