<svg xmlns="http://www.w3.org/2000/svg" viewBox="0 0 1083.25 417.58"><defs><style>.a{fill:#eb1c2d;}.b{fill:#f6ce3b;}.c{fill:#f6cd3b;}.d{fill:#fefefe;}</style></defs><title>post</title><path class="a" d="M811.32,618H-263.93a4,4,0,0,1-4-4V204.42a4,4,0,0,1,4-4H811.32a4,4,0,0,1,4,4L725.63,409.21,815.32,614A4,4,0,0,1,811.32,618Z" transform="translate(267.93 -200.42)"/><path class="b" d="M245.62,552.16c-30.42,10.44-50.29,30.93-57.17,63h0c25.6.39,51.2.93,76.8,1.12,29.29.22,58.58.14,87.87.15,5.3,0,10.6,1.1,15.9.05a81.29,81.29,0,0,0-14-30.66C330.66,552.62,285.46,538.5,245.62,552.16Z" transform="translate(267.93 -200.42)"/><path class="b" d="M184.19,576.07c-10.59-1.61-21.2-3.1-33.29-4.86l25,28.72c1.79,2.06,2.44.43,3.07-1a99.75,99.75,0,0,1,8.44-15.2C191.83,577.32,191.82,577.23,184.19,576.07Z" transform="translate(267.93 -200.42)"/><path class="b" d="M357.34,573.57a106.63,106.63,0,0,1,15.74,24l23.13-27.38a284.72,284.72,0,0,0-31.59,2.32C362.51,572.77,360.41,573.13,357.34,573.57Z" transform="translate(267.93 -200.42)"/><path class="b" d="M258.63,539.54c10.39-1.56,19.8-1.26,30.16-1.09l-15.6-30.58C268.1,518.94,263.57,528.81,258.63,539.54Z" transform="translate(267.93 -200.42)"/><path class="c" d="M211.15,533.91,209,560.64a129.76,129.76,0,0,1,26.11-14.7c-7.8-4.78-14.79-9.08-21.8-13.36C211.83,531.65,211.26,532.47,211.15,533.91Z" transform="translate(267.93 -200.42)"/><path class="c" d="M336.29,531.66c-7.52,4-15,8-23.57,12.6A120,120,0,0,1,339,557.45c.67-8.88-.56-16.77-.75-24.68C338.25,531.34,337.37,531.09,336.29,531.66Z" transform="translate(267.93 -200.42)"/><path class="d" d="M34.72,321.13c8.77-31.66-2.66-54.3-33.27-66a121.64,121.64,0,0,0-38.06-7.49c-41.74-2-81,7.25-117.7,27.12-21.76,11.77-41.27,26.37-55.92,46.66-9.47,13.11-15.46,27.58-15.42,44,.05,21.56,16,36.31,37.47,35,5.35-.34,6.62-2.37,4.2-7-1.62-3.11-3.2-6.18-3.79-9.7-2.69-16,2.06-30.44,9.63-44,13.7-24.51,34.07-42,59.5-53.54,24.13-10.92,49.43-15.87,75.87-11.64,22.73,3.64,33.94,18.1,32.11,41-1.47,18.45-9.83,34.1-21.71,47.86-27.3,31.62-63.06,48.6-103.63,59.15.75-2.26,1.13-3.68,1.67-5,15.1-37.89,32-74.95,52-110.51a46.12,46.12,0,0,0,3.21-6.2c1.81-4.88-.58-7.87-5.81-7.36a25.36,25.36,0,0,0-9,2.92,103.5,103.5,0,0,0-41.66,37.85c-30.05,47.83-54.32,98.43-70.8,152.57-5.44,17.88-9.29,36.17-8.13,55.06.93,15.18,5.71,28.42,20.12,36.17,10,5.35,14.79,3,16.85-8,7.43-39.65,17.84-78.52,30.23-116.89,1.08-3.34,2.72-4.71,6.13-5.26a155.81,155.81,0,0,0,16.06-3.62c48.28-13,91.59-35.07,127.24-70.73C17.06,358.7,29,341.79,34.72,321.13Z" transform="translate(267.93 -200.42)"/><path class="d" d="M103.48,408.12c-2-19.66-14.16-33.18-33.5-37.09-11.88-2.4-23.55-.83-34.93,2.9-44.33,14.52-75.67,59.2-75.53,107.55.08,29,18.23,47.25,47.05,47.34a74.23,74.23,0,0,0,32.77-7.68c24.33-11.75,40.93-31,52-55.13C99.75,447.7,105.62,428.7,103.48,408.12Zm-41.09,25.2C58.6,451,52.88,467.91,43.1,483.26A53.2,53.2,0,0,1,29.79,498C16.34,507.81,3.15,502.36.52,485.91A84.61,84.61,0,0,1,0,477.46c2.58-26.82,11.09-51.23,29-71.77,4.53-5.19,10.05-9.26,17.12-10.51,8.87-1.58,15,2.25,17.26,11C65.73,415.28,64.32,424.34,62.39,433.32Z" transform="translate(267.93 -200.42)"/><path class="d" d="M352.51,318.84a23.5,23.5,0,0,0-9.82-3.42,100.72,100.72,0,0,0-25.9-.48c-6.66.67-13.3,1.51-20.31,2.31,1.22-3.14,2.16-5.8,3.26-8.4,3.91-9.18,7.88-18.33,11.82-27.5,1-2.36,1.79-4.9,0-7.07s-4.43-1.89-6.94-1.17a20.58,20.58,0,0,0-2.39.69c-13.08,5.7-24.46,13.42-31.88,26.1a193.59,193.59,0,0,0-12,25.17,8.16,8.16,0,0,1-5,5,98.33,98.33,0,0,0-18.81,9.18c-4.89,3.19-8.74,7.24-9.77,13.28s2,9.27,8,9.13c3.93-.09,7.42-1.75,12.12-3.2-.88,2.66-1.45,4.51-2.1,6.34-3.37,9.58-6.4,19.27-8.93,29.1-4.59,17.79-8.25,35.71-6.53,54.26,1.66,17.85,10.87,29.18,26.36,32,9.2,1.67,18.32,1,26.87-3.1,16.83-8.09,28-21.56,35.7-38.22a15.47,15.47,0,0,0,1.33-6.81c-.11-5.72-4.11-8.13-9.05-5.24-4.37,2.55-7.55,6.51-11.11,10-4.65,4.56-9.4,9-15.27,12-9.4,4.8-16.47,1-17.74-9.5a62.55,62.55,0,0,1,.56-17.39c4.07-25.94,12.66-50.62,20.77-75.45.82-2.52,2.51-3.22,4.63-3.83a333.8,333.8,0,0,1,34.49-8.08c8.35-1.47,16.76-2.7,25.13-4.06,2.91-.47,5.67-1.36,6.41-4.65S354.91,320.49,352.51,318.84Z" transform="translate(267.93 -200.42)"/><path class="d" d="M190.06,418.66c-5.43-4.12-11.35-7.58-16.95-11.47-5.2-3.6-10.44-7.21-14.12-12.53A16.66,16.66,0,0,1,160.42,374c9.43-9.84,28.78-6.55,34.35,5.83,2.27,5,4.77,6.11,9.84,3.8,6.55-3,9.93-8.64,11.94-15.2,3.27-10.66-.71-18.41-11.21-22-9-3-18.3-3.22-27.63-2.06-18.29,2.29-35,8.2-47.94,22.05-16.14,17.26-15.16,40,2.25,55.78,5.57,5.05,11.88,9.11,18.12,13.25,4.59,3,9.1,6.2,12.82,10.3s5.89,8.77,4.85,14.57c-2.55,14.3-19.75,22.44-33.21,15.62a16.14,16.14,0,0,1-9.36-13.76c-.52-6.08-2.76-7.63-8.4-5.21-9.61,4.13-16,11.41-18.34,21.61-1.78,7.77.73,14.42,7.28,19.37,7.61,5.76,16.44,6.78,24.41,6.91,9.15-.21,17.08-1.13,24.79-3.41,20.08-5.93,36.77-16.45,46.3-35.86C210.14,447.52,206,430.75,190.06,418.66Z" transform="translate(267.93 -200.42)"/><path class="d" d="M402.85,433.55c-1.21-.6-2.49-1-4.07-1.69,1.06-.63,1.9-1.1,2.7-1.62,8.18-5.35,7.67-16.14-1-20.73a21.42,21.42,0,0,0-10-2.43q-10.59-.07-21.17,0c-3.94,0-5.8,1.94-5.8,5.94q0,20.88,0,41.76c0,4.16,1.85,6,6,6.06,7.25,0,14.5.08,21.75,0,5.45-.07,10.52-1.45,14.68-5.22A13.26,13.26,0,0,0,402.85,433.55ZM376,416c2.41.05,4.82,0,7.23,0s4.64-.09,6.95,0c3.83.18,6.29,2.5,6.32,5.78s-2.31,5.92-6.05,6.12c-4.91.25-9.84.1-14.76.18-1.17,0-1.49-.5-1.48-1.56,0-3,0-6,0-9C374.14,416.25,374.77,415.93,376,416Zm23.46,30.43c-.68,2.79-3.42,5-6.81,5.44a8.92,8.92,0,0,1-1.16.07h-7.51V452c-2.61,0-5.21-.08-7.81,0-1.55.06-2-.53-2-2,.08-3.66.09-7.33,0-11,0-1.59.42-2.21,2.12-2.17,4.82.1,9.64,0,14.47.05a10.37,10.37,0,0,1,6,1.8A7.08,7.08,0,0,1,399.41,446.39Z" transform="translate(267.93 -200.42)"/><path class="d" d="M583.56,406.48c-3.25,0-5.06,1.78-5.13,5.3-.09,3.77,0,7.55,0,11.32V443c-10.07-11.81-19.59-22.88-29-34.05-1.87-2.23-4-3-6.64-2.2s-3.28,3.24-3.27,5.83q0,21.48,0,42.95c0,3.78,2,6.09,5.15,6.07s5.06-2.19,5.06-6.05c0-9.19,0-18.38,0-27.56,0-.8-.29-1.7.44-2.57.39.44.7.78,1,1.13q13.94,16.32,27.85,32.66c1.77,2.09,3.82,2.88,6.41,2s3.21-2.79,3.2-5.26c0-14.7,0-29.4,0-44.1C588.61,408.32,586.81,406.5,583.56,406.48Z" transform="translate(267.93 -200.42)"/><path class="d" d="M461.87,436.56a12.4,12.4,0,0,0,6.45-7.51c2.55-8,.85-19-12.37-21.26-10.14-1.73-20.46-.58-30.7-.6-2.65,0-4.28,2.29-4.3,5.23,0,7.25,0,14.51,0,21.76v21.19c0,3.93,1.9,6.16,5.27,6.22s5.4-2.31,5.43-6.11c0-4.45.11-8.9,0-13.34-.07-2.09.4-2.94,2.69-2.84,4.05.19,8.12.18,12.18,0,2-.09,2.91.73,3.74,2.38,2.82,5.61,5.75,11.16,8.68,16.71a5.51,5.51,0,0,0,7.85,2.43c2.64-1.48,3.18-4.05,1.49-7.26-2.43-4.62-4.81-9.26-7.37-13.8C460,438.11,460.16,437.41,461.87,436.56Zm-10.48-5.84c-3.16.28-6.36,0-9.54,0v.1c-2.7,0-5.41-.06-8.11,0-1.39,0-2.15-.24-2.11-1.87q.12-5.49,0-11c0-1.61.69-1.92,2.1-1.91,5.4.05,10.8,0,16.21,0a14.09,14.09,0,0,1,2.58.31,6.92,6.92,0,0,1,5.91,7.12A7.32,7.32,0,0,1,451.39,430.72Z" transform="translate(267.93 -200.42)"/><path class="d" d="M628.88,407.69c-7.38-1.32-14.84-.44-22.27-.6-4.16-.08-5.91,1.82-5.93,6.06,0,6.86,0,13.72,0,20.58,0,7.15,0,14.3,0,21.45,0,3.47,1.73,5.57,4.93,5.59,7.15.06,14.32.54,21.43-.24,13.84-1.52,23.5-12.06,23.91-25.79S642.46,410.13,628.88,407.69Zm11.34,27.4c-.87,10.09-7.27,16.18-17.45,16.5-3.09.1-6.19-.06-9.29.05-1.63.06-2.16-.45-2.13-2.12.1-5.22,0-10.45,0-15.67s0-10.26,0-15.39c0-.83-.51-2.14,1.13-2.1,4.63.11,9.31-.54,13.9.41C635.54,418.65,641,426,640.22,435.09Z" transform="translate(267.93 -200.42)"/><path class="d" d="M695.48,433.55a47.87,47.87,0,0,0-8.35-3.26c-4.7-1.47-9.57-2.37-14.1-4.37-2.32-1-4.38-2.36-4.11-5.31s2.36-4.07,4.8-4.76a25.06,25.06,0,0,1,13.74-.13c2.59.72,5.09,1.8,7.66,2.62,2.34.75,4.46.48,5.73-1.93s.37-4.29-1.63-5.8a8.72,8.72,0,0,0-2-1.23c-10.16-4.24-20.45-4.76-30.71-.54a12.65,12.65,0,0,0-8.4,12.1c-.17,5.9,2.66,9.88,7.75,12.52a59.43,59.43,0,0,0,12.82,4.47c3.74,1,7.56,1.77,10.87,3.88,3.87,2.48,3.75,7.05-.21,9.4a10.77,10.77,0,0,1-3.21,1.27A25.72,25.72,0,0,1,666.45,449c-3.8-2.42-6.73-2.26-8.24.11-1.67,2.63-.37,5.67,3.58,8a35.08,35.08,0,0,0,16.55,4.77c7.52,0,12.58-.63,17.18-3.2a14,14,0,0,0,7.62-13.06C703.13,439.91,700.29,436.11,695.48,433.55Z" transform="translate(267.93 -200.42)"/><path class="d" d="M509.07,409.35a4.5,4.5,0,0,0-4.87-2.85c-2.35-.22-3.83,1-4.8,3q-10.8,22.31-21.57,44.62c-1.53,3.18-.86,5.67,1.71,6.91a5.17,5.17,0,0,0,7.1-2.46c1.42-2.64,2.73-5.33,4-8a2.29,2.29,0,0,1,2.38-1.59q11.18.09,22.35,0a2.33,2.33,0,0,1,2.43,1.52c1.44,3,2.88,5.92,4.49,8.78a5.06,5.06,0,0,0,6.86,1.69,4.51,4.51,0,0,0,1.89-6.21Q520.11,432,509.07,409.35Zm-13.63,30.79c2.93-6.65,5.78-13.14,8.82-20.06,2.83,6.38,5.48,12.34,8.12,18.3.22.51.34,1.07.57,1.76Z" transform="translate(267.93 -200.42)"/><path class="d" d="M608.25,366.62c.55,5,.42,9.93.61,14.82.1,2.58-.29,4.1-3.35,3.59-1.66-.28-2.5.59-2.52,2.32s.33,2.87,2.34,2.86c4.35,0,8.71,0,13.06,0a2,2,0,0,0,2.18-2.13c.11-1.95-.39-3.4-2.68-3-3,.46-3.49-.87-3.4-3.54.19-5.8.2-11.61,0-17.41-.1-2.86.2-4.65,3.71-4.1,2,.3,2.4-1.07,2.38-2.76s-.83-2.39-2.52-2.33a73.11,73.11,0,0,1-7.55,0c-2.32-.17-3.48.81-4.38,2.85-3.42,7.67-7,15.28-10.73,23.44-3.76-8.17-7.34-15.87-10.82-23.61-.8-1.78-1.78-2.8-3.91-2.67-2.7.16-5.41.07-8.12,0-1.77,0-2.35.85-2.41,2.5-.09,2.61,1.59,2.83,3.46,2.6,2.21-.28,2.79.57,2.74,2.73-.14,6.09-.2,12.19,0,18.28.1,3-.36,4.61-3.8,4-1.69-.28-2.41.78-2.41,2.45s.47,2.69,2.25,2.7q6.52,0,13.06,0c1.28,0,1.89-.71,2-2,.18-2.09-.37-3.36-2.82-3.25-1,0-2.76.83-2.77-1.39v-17.2a5.34,5.34,0,0,1,1.76,2.69c2.83,6,5.67,12.07,8.42,18.14.72,1.57,1.61,2.5,3.47,2.47s2.53-1,3.18-2.45c2.47-5.46,5-10.89,7.5-16.32C606.87,369.46,607.57,368,608.25,366.62Z" transform="translate(267.93 -200.42)"/><path class="d" d="M480.93,390.07c2-.31,1.54-2.15,1.54-3.53,0-7.74.11-15.48,0-23.22-.05-2.48.4-3.79,3.21-3.33,1.9.31,2.79-.54,2.8-2.61s-1.12-2.53-2.92-2.5c-3.58.08-7.16,0-10.74,0-1.65,0-3.32-.32-3.38,2.31s1.24,2.95,3.25,2.8c1.25-.1,2.21-.08,2.18,1.72-.1,6.08,0,12.15,0,18.23l-.6.19-13.43-18.48c-5-6.94-5-6.91-13.57-6.8-1.77,0-3,.24-3,2.45,0,2,.85,2.93,2.79,2.67,2.16-.29,2.53.73,2.5,2.64-.1,6.48-.11,13,0,19.45,0,2.15-.37,3.3-2.82,2.94-1.7-.26-2.44.69-2.46,2.38s.42,2.82,2.39,2.8q6,0,11.9,0c1.91,0,2.48-1,2.52-2.71,0-2.42-1.45-2.48-3.25-2.57-1-.05-2.81,1-2.82-1.28,0-6.61,0-13.22,0-20.65,3.24,4.44,6,8.16,8.67,11.89,3.36,4.61,6.74,9.21,10.05,13.85C477.09,390.75,479.09,390.35,480.93,390.07Z" transform="translate(267.93 -200.42)"/><path class="d" d="M659.26,387.57c0-2.42-.06-4.84,0-7.26.06-2-.31-3.28-2.82-3.29s-3,1.19-2.79,3.25c.07.86-.07,1.75,0,2.61.18,1.64-.46,2.2-2.12,2.15-3.38-.11-6.77,0-10.16,0-4.38,0-4.38,0-4.38-4.49,0-5.5,0-5.42,5.5-5.44,1.85,0,2.72.42,2.45,2.4-.31,2.19,1,2.54,2.83,2.54s2.65-.69,2.6-2.58c-.08-3.09,0-6.19,0-9.29,0-1.88.29-3.66-2.63-3.69-2.76,0-3,1.43-2.8,3.48.21,1.69-.5,2.09-2.11,2.11-5.83.09-5.83.16-5.83-5.65a17.94,17.94,0,0,0,0-2.32c-.23-1.75.62-2.12,2.18-2.08,3.39.09,6.77,0,10.16,0,4.11,0,4.19,0,4.28,4,0,1.88.77,2.57,2.61,2.57s3-.36,3-2.49-.07-4.26,0-6.39-.89-2.85-3-2.8c-4.45.11-8.9,0-13.35,0s-8.9,0-13.35,0c-1.74,0-3.25-.14-3.27,2.42,0,2.33,1.09,2.94,3,2.68,2.15-.3,2.3.87,2.28,2.55-.06,6.58-.11,13.16,0,19.73,0,2.14-.49,3.05-2.72,2.74-1.81-.25-2.6.6-2.6,2.51s.55,2.7,2.46,2.69q13.94,0,27.87,0C658.52,390.22,659.29,389.37,659.26,387.57Z" transform="translate(267.93 -200.42)"/><path class="d" d="M668.22,360c2.12-.29,2.34.81,2.32,2.53-.07,6.48-.13,13,0,19.44.06,2.33-.45,3.43-3,3.06-1.79-.26-2.67.6-2.69,2.48s.65,2.72,2.53,2.71c4.15,0,8.31,0,12.47,0,1.92,0,2.45-.89,2.47-2.69s-.79-2.79-2.59-2.5c-3.12.49-4.17-.82-3.7-3.78a11.22,11.22,0,0,0,0-1.74c0-4.34,1.45-5.18,5.45-3.17a7.36,7.36,0,0,1,3.62,4.33,50.8,50.8,0,0,0,1.87,4.86,8.79,8.79,0,0,0,11,4.71c2.11-.66,3.65-2,3.79-4.27a3.37,3.37,0,0,0-2.52-3.51,4,4,0,0,0-5.12,2.09c-.08.13-.33.16-.62.28-2.44-2.62-2.29-6.54-4.69-9.34,5.72-2.62,8-5,8.52-8.65.91-6.46-4-11.82-11.08-11.92-6-.08-12,0-18,0-1.73,0-3.3-.09-3.37,2.39S666.25,360.26,668.22,360Zm12,0c2.13,0,4.26-.08,6.37.1,3.1.25,5.36,2.52,5.33,5.11s-2.2,4.76-5.38,5c-1.44.13-2.9,0-4.34,0-6.16,0-6.19,0-6.15-6.18C676.13,359.32,675.5,360.08,680.27,360Z" transform="translate(267.93 -200.42)"/><path class="d" d="M425.47,390.76c7.42-.62,13.52-3.46,16.43-10.82,4.09-10.32,0-25.51-18.06-25.61-.86,0-1.74,0-2.6,0-9.48.53-16.31,6.75-17.24,15.67-1.05,10,3.86,17.54,13.13,20A24.47,24.47,0,0,0,425.47,390.76Zm-16-19.71c.75-7.47,5.92-11.66,14.32-11.61,10.32.06,16.13,7.63,13.37,17.43-1.81,6.4-8.68,10-16.64,8.61C412.93,384.2,408.68,378.66,409.45,371.05Z" transform="translate(267.93 -200.42)"/><path class="d" d="M556.77,386.73a10,10,0,0,0,3.62-7.9c0-5.31.06-10.64,0-15.95,0-1.87,0-3.2,2.53-2.91,1.82.21,2.16-1.13,2.16-2.67,0-1.72-.72-2.44-2.45-2.41-3.87.06-7.74,0-11.61,0-1.59,0-2.23.69-2.33,2.25-.17,2.42,1.11,3.15,3.19,2.86,2.46-.34,3.1.64,3,3-.18,5.12-.09,10.25,0,15.38a5.78,5.78,0,0,1-3.18,5.46,13.14,13.14,0,0,1-13,.24A6.22,6.22,0,0,1,535,378c.08-4.84.18-9.68,0-14.51-.12-2.68.45-4,3.41-3.52,1.9.3,2.84-.62,2.81-2.66s-.95-2.49-2.73-2.45c-3.48.08-7,.05-10.45,0-1.63,0-3.09-.08-3.15,2.27-.06,2.18.83,3.09,2.91,2.83,1.72-.22,1.82.74,1.79,2.06,0,2.9,0,5.8,0,8.7,0,2.61.08,5.23,0,7.83a10.15,10.15,0,0,0,4.32,8.73C540,392.2,550.86,391.9,556.77,386.73Z" transform="translate(267.93 -200.42)"/><path class="d" d="M494.45,387.73c5.65,4,16.29,4.09,22,.11,5.45-3.79,5.67-10.19.48-14.4a25.1,25.1,0,0,0-8-4c-2.56-.86-5.13-1.69-7.63-2.7-1.35-.54-2.66-1.41-2.56-3.16s1.44-2.4,2.81-3a12.75,12.75,0,0,1,9.06-.26c1,.3,1.72.67,1.17,2.05a3,3,0,0,0,1.47,3.72,4,4,0,0,0,4.39,0,3.52,3.52,0,0,0,1.67-3.73,7.31,7.31,0,0,0-4-5.68,16.81,16.81,0,0,0-8.9-2.13,15.93,15.93,0,0,0-9.88,2.74c-4.63,3.34-4.56,9.38.07,12.71,2.32,1.67,5,2.46,7.66,3.34,3.1,1,6.37,1.74,9,3.92s2.45,4.55-.24,6.42c-3.56,2.49-10.82,2.54-14.4.12-.84-.57-1.57-1-.76-2.26a3,3,0,0,0-.63-4.18,3.9,3.9,0,0,0-4.32-.74,3.6,3.6,0,0,0-2.35,3.65A8.78,8.78,0,0,0,494.45,387.73Z" transform="translate(267.93 -200.42)"/><path class="d" d="M379.29,390.67c8.35,1.18,16.76-2.89,19.48-9.44.5-1.19,1.07-2.55-.66-3.12-1.52-.5-3.29-1.66-4.41.83-2.4,5.37-7.07,6.89-12.4,6.68S371.87,383,369.57,378a13,13,0,0,1,3.31-15.52c4.43-3.57,13.38-4.1,17.54-1.1.9.64.94,1.15.49,2.14a3.23,3.23,0,0,0,1.22,4.32,4.21,4.21,0,0,0,4.66.17,3.7,3.7,0,0,0,1.79-4.2,8.93,8.93,0,0,0-4.07-6.07,21.17,21.17,0,0,0-12.07-3.47c-10.77,0-18.89,6.72-19.59,16.2C362.07,381.08,368.64,389.16,379.29,390.67Z" transform="translate(267.93 -200.42)"/></svg>