<svg xmlns="http://www.w3.org/2000/svg" viewBox="0 0 518 258"><defs><style>.a{fill:#fff;}.b{fill:none;}.c{fill:#cd2227;}.d{fill:#010101;}.e{fill:#020202;}.f{fill:#040404;}.g{fill:#f8f6f3;}.h{fill:#f4f2f2;}.i{fill:#f5f3f1;}.j{fill:#cc2427;}.k{fill:#050505;}.l{fill:#cc2327;}.m{fill:#f4f1ee;}.n{fill:#f4efed;}.o{fill:#f58b81;}.p{fill:#f2eeec;}.q{fill:#f1edea;}.r{fill:#f4e6df;}.s{fill:#f3ece9;}.t{fill:#b12024;}.u{fill:#b12124;}.v{fill:#8b291c;}.w{fill:#b02024;}.x{fill:#eabfaf;}.y{fill:#a02021;}.z{fill:#853b3a;}.aa{fill:#a62022;}.ab{fill:#a22022;}.ac{fill:#a52624;}.ad{fill:#86332c;}.ae{fill:#b62125;}.af{fill:#edd5cc;}.ag{fill:#ae2124;}.ah{fill:#ad2023;}.ai{fill:#9c2020;}.aj{fill:#872827;}.ak{fill:#962320;}.al{fill:#b52125;}.am{fill:#9b2b23;}.an{fill:#a12321;}.ao{fill:#83252b;}.ap{fill:#f8e3d1;}.aq{fill:#9f2421;}.ar{fill:#a22322;}.as{fill:#9c2421;}.at{fill:#9a2421;}.au{fill:#a22522;}.av{fill:#ac2023;}.aw{fill:#932c24;}.ax{fill:#8a2a25;}.ay{fill:#962522;}.az{fill:#9c2523;}.ba{fill:#9c2521;}.bb{fill:#9d2622;}.bc{fill:#a22523;}.bd{fill:#992320;}.be{fill:#982821;}.bf{fill:#a02622;}.bg{fill:#a02923;}.bh{fill:#af2024;}.bi{fill:#a41f22;}.bj{fill:#ab2123;}.bk{fill:#a02522;}.bl{fill:#a92624;}.bm{fill:#9b2b24;}.bn{fill:#a22d26;}.bo{fill:#a62423;}.bp{fill:#8f2924;}.bq{fill:#9d2020;}.br{fill:#9a3428;}.bs{fill:#a92a26;}.bt{fill:#9f342a;}.bu{fill:#a92523;}.bv{fill:#a52c25;}.bw{fill:#a72f26;}.bx{fill:#842b25;}.by{fill:#a42623;}.bz{fill:#8f3329;}.ca{fill:#a82f27;}.cb{fill:#932522;}.cc{fill:#9b2120;}.cd{fill:#a32222;}.ce{fill:#a22b25;}.cf{fill:#8b2a25;}.cg{fill:#922b24;}.ch{fill:#902820;}.ci{fill:#882d2c;}.cj{fill:#a31f22;}.ck{fill:#9f2221;}.cl{fill:#a12221;}.cm{fill:#a12121;}.cn{fill:#9a2722;}.co{fill:#803934;}.cp{fill:#9d2923;}.cq{fill:#a72423;}.cr{fill:#9c2320;}.cs{fill:#a42222;}.ct{fill:#8b3532;}.cu{fill:#9d2421;}.cv{fill:#a92323;}.cw{fill:#882f2b;}.cx{fill:#932524;}.cy{fill:#9a2220;}.cz{fill:#9f2723;}.da{fill:#971f1f;}.db{fill:#a02b25;}.dc{fill:#972e28;}.dd{fill:#9b2020;}.de{fill:#9e2822;}.df{fill:#9e2622;}.dg{fill:#9b2220;}.dh{fill:#9f2621;}.di{fill:#782b25;}.dj{fill:#9b2622;}.dk{fill:#953428;}.dl{fill:#942822;}.dm{fill:#9e2621;}.dn{fill:#a02f26;}.do{fill:#c73e31;}.dp{fill:#c22226;}.dq{fill:#993126;}.dr{fill:#90221f;}.ds{fill:#853637;}.dt{fill:#863435;}.du{fill:#a12021;}.dv{fill:#c32226;}.dw{fill:#8c241f;}.dx{fill:#922521;}.dy{fill:#9f2021;}.dz{fill:#9b2d26;}.ea{fill:#a22924;}.eb{fill:#872423;}.ec{fill:#ad2324;}.ed{fill:#fbfaf9;}.ee{fill:#843937;}.ef{fill:#b32827;}.eg{fill:#8e2a26;}.eh{fill:#a62122;}.ei{fill:#8f2d27;}.ej{fill:#e6a99a;}.ek{fill:#89362e;}.el{fill:#9b3224;}.em{fill:#912824;}.en{fill:#a22423;}.eo{fill:#9e1f21;}.ep{fill:#9e2120;}.eq{fill:#9c2622;}.er{fill:#f2f0ee;}.es{fill:#9e2121;}.et{fill:#a61f22;}.eu{fill:#cd4e44;}.ev{fill:#faf9f9;}.ew{fill:#f6f5f4;}.ex{fill:#a92223;}.ey{fill:#9b1f20;}.ez{fill:#7e2b2c;}.fa{fill:#7f292b;}.fb{fill:#ebdbd0;}.fc{fill:#ad2424;}.fd{fill:#8d2920;}</style></defs><title>savon</title><rect class="a" width="518" height="258" rx="4" ry="4"/><path class="b" d="M-119.95,378.18V378h0A.91.91,0,0,1-119.95,378.18Z" transform="translate(551.17 -262.56)"/><path class="b" d="M-120.28,318h.08v-.06Z" transform="translate(551.17 -262.56)"/><path class="b" d="M-358.31,387.68c0-.24-.12-.35-.07-.11l-.16.05a1.06,1.06,0,0,1,.23.17Z" transform="translate(551.17 -262.56)"/><path class="b" d="M-196.49,425.27a2.11,2.11,0,0,0,0-.25l-.18.14.11.06Z" transform="translate(551.17 -262.56)"/><path class="b" d="M-362.64,365.33c0-.24-.13-.34-.08-.1,0,0-.1,0-.15.06a1.08,1.08,0,0,1,.24.14A.34.34,0,0,1-362.64,365.33Z" transform="translate(551.17 -262.56)"/><path class="b" d="M-473.63,433.47a.05.05,0,0,0,0,0l.08,0Z" transform="translate(551.17 -262.56)"/><path class="b" d="M-460.76,427.08h0Z" transform="translate(551.17 -262.56)"/><polygon class="b" points="203.92 166.22 203.92 166.22 203.92 166.22 203.92 166.22"/><path class="b" d="M-375.94,359.89c0,.24.12.33.07.09l.15-.06a.86.86,0,0,1-.23-.17C-375.94,359.8-375.95,359.84-375.94,359.89Z" transform="translate(551.17 -262.56)"/><path class="b" d="M-351.91,420.63v0h0Z" transform="translate(551.17 -262.56)"/><path class="b" d="M-372.92,374.92v0Z" transform="translate(551.17 -262.56)"/><path class="b" d="M-185,420.2l.08,0a.43.43,0,0,0-.05-.16Z" transform="translate(551.17 -262.56)"/><path class="b" d="M-172,382.13a.32.32,0,0,1-.11-.12h0A.57.57,0,0,0-172,382.13Z" transform="translate(551.17 -262.56)"/><path class="b" d="M-456.79,432.7l0,0h0Z" transform="translate(551.17 -262.56)"/><path class="b" d="M-171.95,372.91h0v0C-171.86,372.93-171.81,372.84-171.95,372.91Z" transform="translate(551.17 -262.56)"/><path class="b" d="M-204.17,436a8.77,8.77,0,0,0,1.42-.17A9.82,9.82,0,0,0-204.17,436Z" transform="translate(551.17 -262.56)"/><path class="b" d="M-300.87,339.23a.28.28,0,0,0-.11,0l0,0A.59.59,0,0,1-300.87,339.23Z" transform="translate(551.17 -262.56)"/><path class="b" d="M-303.75,353.57a.24.24,0,0,0-.14.09v0Z" transform="translate(551.17 -262.56)"/><path class="b" d="M-452.09,424.5h-.16a.7.7,0,0,1,0,.12A.74.74,0,0,0-452.09,424.5Z" transform="translate(551.17 -262.56)"/><path class="b" d="M-456.3,433.22l0,0a1,1,0,0,1-.05.18A1.1,1.1,0,0,0-456.3,433.22Z" transform="translate(551.17 -262.56)"/><path class="b" d="M-126.61,417.25l0,0S-126.61,417.23-126.61,417.25Z" transform="translate(551.17 -262.56)"/><path class="c" d="M-95.3,318.69c0-.24,0-.48,0-.72-4.65-.37-9.31-.11-14-.15-3.34,0-6.68.06-10,.1h0c-.81.58-.46,1.43-.46,2.16q0,28.08,0,56.16V378h-.14v.17a.91.91,0,0,0,0-.17h-.24V318h-.08c-.5.44-.22,1.05-.23,1.56,0,4.51-.06,9-.08,13.54q0,4,0,7.92,0,17.75,0,35.5a3.22,3.22,0,0,1-.1.51,1.52,1.52,0,0,1-.54-1.46l-.1-.62a4.18,4.18,0,0,1-.61-2.26c0-.21-.07-.42-.1-.64a4.23,4.23,0,0,1-.66-2.59.19.19,0,0,1-.08-.25,4.33,4.33,0,0,1-.63-2.63.26.26,0,0,1-.07-.3,4.8,4.8,0,0,1-.61-2.22l-.12-.64a3.56,3.56,0,0,1-.61-2.24l-2.53-9.48a1.17,1.17,0,0,1-.11.33c-.11.14-.27.2-.28-.08,0-.45,0-.91,0-1.36h0c-.1-.65-.15-1.31-.31-1.94q-1.33-5.33-2.71-10.63c-.8-3.12-1.59-6.24-2.39-9.35a.8.8,0,0,1-.1.32c-.13.15-.28.17-.28-.09,0-.46,0-.91,0-1.37h0c0-.5-.07-1-.11-1.5-1-2.24-1.11-4.71-1.86-7-.27-.84-.51-1.28-1.53-1.27-8.52,0-17,0-25.54,0a2.31,2.31,0,0,0-.52.12h0l-.06,14.51h0c0,2.86,0,5.73,0,8.59h0q0,11,0,22h0q0,6.28,0,12.57h0l0,55.46c0,.84,0,1.67,0,2.51,7.89,0,15.79,0,23.68.08,1,0,1.22-.37,1.21-1.27,0-4.06-.06-8.13-.08-12.19h0c-.54-.4-.34-1-.34-1.5q0-19,0-38h0c0-1.2-.06-2.39,0-3.58.05-.66.34-1,.69-.09h0c.38.14.36.45.34.76h0c.41.41.34.94.38,1.45h0c.48,1.83.93,3.67,1.45,5.48,1.46,5.13,2.58,10.34,4.3,15.39,1.09.36.83,1.07.46,1.8h0c1.27,5.24,2.51,10.48,4.18,15.6l.09-.18s0,0,0,0l.1-.22c.06.06.18.11.18.17,0,.45,0,.9,0,1.36h0l-.06.11.08.1c1.1.37.88,1.06.43,1.81.81,3.56,1.68,7.09,2.78,10.57a1.08,1.08,0,0,1,.09-.32c.08-.1.26-.32.29,0,0,.55,0,1.12,0,1.68h0c.09.4-.25.95.41,1.14.25-.76.89-.47,1.36-.47,3.51,0,7,0,10.52,0h.35a2.23,2.23,0,0,1,2.12-.72h0a1.92,1.92,0,0,1,1.44-.7h0a3.35,3.35,0,0,1,2.13-.72l.35-.14-.38-.5a1.5,1.5,0,0,1,1.14,0l-.37.51h0c.86.36,1.35.91,1,1.91l.13,1.05h7c0-.54.12-1.08.12-1.61Z" transform="translate(551.17 -262.56)"/><path class="c" d="M-216.87,355.18a2.53,2.53,0,0,1-.12.23A.57.57,0,0,0-216.87,355.18Z" transform="translate(551.17 -262.56)"/><path class="c" d="M-200.24,419.44h0c.37-.29.7-.66,1.23-.64,1.39-1.72,3.46-2.2,5.39-2.93a7.27,7.27,0,0,1,5.91-1.41c1.88.24,2.19,1.91,2.7,3.34h0c.94.79.16,1.81.36,2.7-.26.05-.29-.11-.32-.26l-.08,0c-.5,1.88-1,3.76-1.53,5.63-.08.29-.29.59,0,.79s.58-.26.91-.29a46.19,46.19,0,0,0,7.35-11.48,70.18,70.18,0,0,0,5.52-21.64,2.61,2.61,0,0,1-.11-2.17.28.28,0,0,1,.16,0c.05,0,.08.08.11.13h0a7.23,7.23,0,0,0,.35-3.26h0l0-3h0v-2.88h0v-2.45h.28V382a.32.32,0,0,0,.11.12l0,0h0a64.06,64.06,0,0,0,0-12.84v3.6h0c.14-.07.09,0,0,0V373h-.33v-8.53h0a49.4,49.4,0,0,0-1.11-10.28c-.05.28-.09.55-.14.83l-.27,0v-2.52h0a7.5,7.5,0,0,0-.39-2.82c-.69-2.77-1.47-5.5-2.38-8.21a47.85,47.85,0,0,0-6.36-12.6,31.61,31.61,0,0,0-7.73-7.75,38.36,38.36,0,0,0-7.31-3.9c-.57,0-1.24.35-1.67-.35h0a12.16,12.16,0,0,0-4.78-1.11H-213a11.24,11.24,0,0,0-4.74,1.1c-.46.7-1.15.3-1.74.37a26.69,26.69,0,0,0-9.07,5.14,40.62,40.62,0,0,0-10.81,15.18,43.05,43.05,0,0,0-3.55,11.19c0,.59,0,1.17,0,1.76,0,.3-.17.22-.29.07a1.06,1.06,0,0,1-.1-.33h0a3.22,3.22,0,0,0-.33,2.11c0,.58,0,1.16,0,1.75,0,.3-.17.21-.29.07a.8.8,0,0,1-.11-.33h0c-.23,1.25-.45,2.49-.67,3.74.6.54.37,1.16.16,2.27-.1-.86-.15-1.24-.2-1.63h0a86.25,86.25,0,0,0-1.11,16.44c.13,3.94-.29,7.91.38,11.83.78,1.09.28,2.32.36,3.48h0a5.18,5.18,0,0,0,.35,2.67c.91.51.28,1.27.32,1.92h0a8.68,8.68,0,0,0,.41,3.47,1.15,1.15,0,0,1,.09-.33c.08-.12.27-.32.29,0,0,.58,0,1.17,0,1.75h0a7.31,7.31,0,0,0,0,1.24,62,62,0,0,0,5.7,16.51,36.12,36.12,0,0,0,11.22,13.34,31.54,31.54,0,0,0,10.11,4.7l1.39.05h0c3.17-4.68,7.27-8.59,11.06-12.73A13.49,13.49,0,0,1-200.24,419.44Zm1-52.13h.18v15l-.18,0Zm-18.87,16.78h-.18V366.61l.18.08Zm3.38,18.78c-1.47-2.56-1.64-5.45-2.19-8.25a5.65,5.65,0,0,0-.38-1.91h0c-.11.19-.29,1-.35,0-.11-1.58,0-3.17,0-4.76v-24.5a4.34,4.34,0,0,0,.16-1c-.05.34-.09.68-.16,1,0-1.8,0-3.61,0-5.42,0,0,.08-.09.1-.08s.18.1.27.15a6,6,0,0,0,.32-2.72h0c0-.6.07-1.21.11-1.81a.2.2,0,0,1,.14,0c.05,0,.09.08.13.12a47.28,47.28,0,0,1,2.07-6.44,6.48,6.48,0,0,1,11.63-.08c.52.93.9,1.94,1.34,2.92h0c0-.28.08-.55.11-.83l.26,0v1.5l1,6.18h0c.14-.08.17-.77.35-.23a7.22,7.22,0,0,1,0,2.28h0c0,.64,0,1.28-.05,1.92h0c0,8.26.07,16.51,0,24.77,0,3.27-.73,6.51-.64,9.8h0c0,.59,0,1.18,0,1.77,0,.29-.17.23-.29.09a.91.91,0,0,1-.11-.34c-.69,2.26-.93,4.66-2.39,6.66A6.76,6.76,0,0,1-214.76,402.87Z" transform="translate(551.17 -262.56)"/><path class="c" d="M-396.31,369.56a1.13,1.13,0,0,1-.11-.22A.76.76,0,0,0-396.31,369.56Z" transform="translate(551.17 -262.56)"/><path class="c" d="M-401.17,366.66c0,.09-.07.19-.12.29A1.19,1.19,0,0,0-401.17,366.66Z" transform="translate(551.17 -262.56)"/><path class="c" d="M-401.89,372c0,.1-.06.2-.1.3A1.18,1.18,0,0,0-401.89,372Z" transform="translate(551.17 -262.56)"/><path class="c" d="M-409.28,433.16a2,2,0,0,0,.08-1.28c.12-.73-.47-1.58.38-2.19.49-3.79,1-7.58,1.45-11.38.13-1.2.44-1.74,1.83-1.7,3.84.12,7.68,0,11.52,0,3.2,0,3.19,0,3.54,3.12a8.52,8.52,0,0,0,.29,1.21c.75.64.24,1.48.34,2.23h0a7.69,7.69,0,0,0,.35,2.9,1.15,1.15,0,0,1,.09-.33c.07-.12.27-.33.28,0,0,.67.24,1.38-.2,2h0c.2,1.8.41,3.61.61,5.42h0l6.1,0c6.1,0,12.2-.06,18.3,0,1.51,0,2.07-.47,1.91-1.91h0c-.22-4.82-1.54-9.44-2.5-14.13a1.13,1.13,0,0,1-.09.34c-.09.12-.28.31-.3,0,0-.58,0-1.17,0-1.76h0c-.59-6.18-2.14-12.19-3.23-18.28l-.13.79-.25,0c0-.77,0-1.54,0-2.31h0a3.4,3.4,0,0,0-.34-2.08c-.9-.42-.17-1.18-.37-1.74h0a25.51,25.51,0,0,0-1.05-5.81c-.75-.46-.3-1.18-.37-1.78h0a5.44,5.44,0,0,0-.38-2.46c0,.34-.07.68-.1,1l-.27,0v-2.61h0a3.35,3.35,0,0,0-.35-2.06c-.1.14-.2.6-.31.28a5.36,5.36,0,0,1,0-1.75,4.46,4.46,0,0,0-.34-2.19l-.09.19v0l-.11.23c-.07-.05-.19-.11-.19-.16,0-.47,0-.94,0-1.4h0a3.34,3.34,0,0,0-.33-2.17c-.91-.33-.32-.84-.16-1.3h0l-2-10.22-.15.06c.05.24,0,.15-.07-.09,0-.05,0-.09,0-.14-.43-.41-.05-1-.14-1.5h0c-.06-3.59-1.32-7-1.8-10.48,0,.23-.07.47-.1.7l-.27,0v-2.18h0a29.59,29.59,0,0,0-1.06-6.19c-.79-.28-.27-.92-.37-1.38h0a2.66,2.66,0,0,0-.37-1.89c-.83-.35-.18-1-.33-1.52h0c-.07-.69.1-1.42-.37-2-.87-.61-.18-1.5-.39-2.23h0c-.45-4.25-1.37-8.43-2.14-12.63-.14-.79-.69-.7-1.21-.7h-29.07c-.67,0-1.26.11-1.28.89-.06,2.15-1,4.16-.9,6.33v2l-.25,0-.12-.77q-1,5.44-2,10.87c.27.49.57,1-.14,1.36h0A84.52,84.52,0,0,0-420.79,352c-.14.63.39,1.41-.4,1.9h0a58.75,58.75,0,0,0-1.66,8.33c-.76,4.19-1.8,8.33-2.26,12.57,0,.63.2,1.28-.13,1.89,0,0-.11,0-.15,0s-.08-.08-.12-.13h0a4.13,4.13,0,0,0-.33,2.47v1.94l-.25,0c-.05-.27-.09-.53-.13-.8h0a4,4,0,0,0-.34,2.14c0,.69,0,1.39,0,2.08,0,.34-.2.13-.28,0a.92.92,0,0,1-.11-.33h0a5.71,5.71,0,0,0-.52,2.6c-.52,3.72-1.68,7.32-2,11.07a5.13,5.13,0,0,1,0,1.71c-.23.57-.25,0-.34-.17h0a85.63,85.63,0,0,0-1.81,10.07c0,.53,0,1.06,0,1.59,0,.08-.08.16-.13.24l-.22-.41h0A37.4,37.4,0,0,0-433,417c-.06.57.35,1.25-.37,1.68h0a3.87,3.87,0,0,0-.33,2.15c-.06.64.22,1.31-.14,1.93,0,0-.1,0-.14,0a.68.68,0,0,1-.12-.12h0a4.4,4.4,0,0,0-.34,2.21c-.1.59.41,1.3-.38,1.74-.45,2.21-.9,4.43-1.34,6.64l26.93,0Zm6.08-50.39c.35-3.48,1.14-6.91,1.2-10.42h0c.08-.8-.43-1.69.37-2.38a6.7,6.7,0,0,0,.34-3h0a10.3,10.3,0,0,1,.07-2.67c.11-.4.16.23.3.33.37-3,1-6,1.06-9.09h0v-4c.52.12.26.55.38.8h0c.29-.08.52,0,.63.27h0c.67.48.33,1.16.34,1.77.13.77.25,1.55.37,2.33h0l.12-.82h.24v2.91a7.9,7.9,0,0,0,.38,3.2h0c.78.63.22,1.46.35,2.19a10.23,10.23,0,0,0,.36,3.57l.15-1.17.23,0v3c.27,4.94,1.08,9.83,1.79,14.72.1-.14.23-.58.3-.34a2.85,2.85,0,0,1-.09,2.07c.23,2,.45,4,.7,6,.06.43.16.83-.25,1.14h0c-.43.83-1.16.18-1.73.34-2.42,0-4.84,0-7.26,0-.44,0-1,.19-1.26-.36C-404.39,389.67-403.54,386.23-403.2,382.77Z" transform="translate(551.17 -262.56)"/><path class="c" d="M-425.23,375l.12-.27A.55.55,0,0,0-425.23,375Z" transform="translate(551.17 -262.56)"/><path class="c" d="M-371.49,321.67Z" transform="translate(551.17 -262.56)"/><path class="c" d="M-344.07,433.45c2.51-.6,5.06-.14,7.59-.27l6-2.28a1.75,1.75,0,0,1,2.23.54h0c.55,2.24,2.33,1.72,3.87,1.72,1.72,0,3.44,0,5.16,0l1.41-5.78h0l.33-2.49c-.34-.46-.62-.92.12-1.27a25.58,25.58,0,0,0,1.24-5.92c-.18-.48-.6-1,.19-1.32h0c.59-.66.29-1.54.57-2.28-.27-.47-.61-.95.15-1.3h0c.51-.69.3-1.54.55-2.29-.25-.59-.54-1.19.2-1.66a76.44,76.44,0,0,0,1.79-9.09c0-.6-.35-1.27.34-1.73h0c.38-1.9,1.19-3.71,1.06-5.71,0-.58,0-1.17,0-1.76,0-.3.18-.2.29-.06s.07.22.11.33h0a75.22,75.22,0,0,0,1.76-8.67c.31-1.55,1-3.07.78-4.7,0-.62-.39-1.31.35-1.78h0c.54-.55.37-1.27.44-1.94-.07-.46-.52-1,.26-1.29h0q1.74-8.7,3.47-17.41c-.37-.29-.28-.7-.26-1.09,0-.11.13-.21.2-.31l0,0a.24.24,0,0,1,.14-.09l-.13.13.16.38h0c.8-2,.88-4.15,1.29-6.23-.28-.48-.59-1,.14-1.34h0c.6-.63.35-1.42.42-2.16,0-.5-.43-1.08.3-1.42h0c.58-.66.33-1.52.55-2.26a1.48,1.48,0,0,1-.21-1.16c0-.12,0-.4.22-.26l0,0a.28.28,0,0,1,.11,0,.59.59,0,0,0-.08.08,3.79,3.79,0,0,1,.12.4h0a6.49,6.49,0,0,0,.39-2.55c.08-.48-.55-1.12.32-1.43h0a31,31,0,0,0,1.09-5.79c.11-.9-.62-2,.65-2.63h0l.05-1c.15-.46-.47-1.13.37-1.41h0c.37-1.79.7-3.59,1.15-5.36.37-1.44-.21-1.71-1.53-1.7-8,.05-15.91.07-23.87,0-1.48,0-2,.37-2,1.81a23.68,23.68,0,0,1-.33,3,2,2,0,0,1,.18,1.89c-.23.61-.21-.12-.34-.2h0a39.72,39.72,0,0,0-1.08,8.61c-.09.76.41,1.6-.36,2.24h0a38.19,38.19,0,0,0-1.12,8.24c-.05.84.45,1.75-.34,2.49-.87,2.73-.88,5.6-1.3,8.41a2.55,2.55,0,0,1,.15,2.16.27.27,0,0,1-.15,0c-.05,0-.09-.08-.13-.12h0c-.55.9-.28,1.9-.36,2.86s.43,1.79-.37,2.53h0c-.61.88-.34,1.87-.33,2.83-.14.74.45,1.6-.39,2.21-.61.91-.2,1.95-.35,2.91v2.45s-.07.12-.08.11a2.06,2.06,0,0,1-.26-.12h0a6.11,6.11,0,0,0-.41,2.93,5.73,5.73,0,0,1,0,2.26.21.21,0,0,1-.15,0,.67.67,0,0,1-.14-.11h0c-.68.89-.31,1.93-.39,2.9s.47,1.77-.36,2.5h0l-.31.46v2.39h0c-.16,1,.5,2-.39,2.9-.59.67-.2,1.47-.32,2.2h0c0,.62-.07,1.24-.1,1.86a.23.23,0,0,1-.15,0c-.05,0-.08-.08-.13-.12-1.13-.21-.91-1.15-1-1.9s-.07-1.27-.09-1.91h0l-.29-.5c-.87-.73-.22-1.68-.34-2.51h0c-.08-.87.35-1.81-.36-2.59-.87-.73-.23-1.68-.38-2.52h0a5.76,5.76,0,0,0-.35-3.18c-.9-.44-.19-1.19-.33-1.77h0c-.18-1,.39-2-.39-2.92-.79-.73-.28-1.65-.35-2.48h0c-.07-1.2.25-2.44-.39-3.57-.78-.5-.22-1.24-.34-1.86h0c-.11-1,.36-2-.34-2.87-.84-.73-.3-1.65-.35-2.49h0a43.06,43.06,0,0,0-1.11-8.38c-.8-.72-.29-1.63-.37-2.45h0a9,9,0,0,0-.35-3.34c-.7-.45-.3-1.1-.3-1.67h0c-.24-1.08.29-2.25-.44-3.26-.86-.73-.2-1.67-.33-2.5h0a39.42,39.42,0,0,0-1.08-8.3c-.84-.63-.26-1.5-.38-2.25h0c.21-2.71-.66-5.32-.85-8-.08-1.2-1-1.29-2-1.28-6.42,0-12.84,0-19.26,0-1.86,0-3.72,0-5.58,0-.62,0-1.11.06-.9.88.24,1,.49,1.94.74,2.92a1.21,1.21,0,0,1,.09-.34c.13-.24.28-.13.28.05,0,.41-.07.81-.11,1.22h0a3.93,3.93,0,0,0,.46,2.33c.85.32.21,1,.31,1.45h0a40.83,40.83,0,0,0,1.83,9c.74.48.32,1.18.35,1.8h0a62.67,62.67,0,0,0,1.82,10.08c.89.3.23,1,.33,1.43h0a19.26,19.26,0,0,0,1.08,5.41c.79.45.33,1.15.36,1.76h0c.05.75-.13,1.53.41,2.18.73.36.4.85.15,1.32h0a27.26,27.26,0,0,0,1.27,5.93c.05,0,.16-.05.15-.06,0-.24.05-.14.08.1a.34.34,0,0,0,0,.1c.57.43-.05,1.11.14,1.62h0c.21,3.42,1.23,6.7,1.8,10.06l.18-.48c.07.06.19.12.19.17,0,.41-.05.81-.07,1.21h0a56,56,0,0,0,1.85,9.61l.16-.05c-.05-.24,0-.13.07.11v.11c.47.45,0,1.09.14,1.61h0a63.71,63.71,0,0,0,1.79,9.7c.8.29.25.93.37,1.39h0a2.21,2.21,0,0,0,.34,1.83c.74.48.33,1.18.34,1.8h0a20.64,20.64,0,0,0,1.12,5.77c.75.33.29.93.32,1.41h0c.08.63-.28,1.33.36,1.85s.47,1.06.18,1.65h0a34,34,0,0,0,1.29,6.25,2.25,2.25,0,0,1,.15-.4v0h0s0,0,0,0c.24-.1.2.16.2.28,0,.39.11.82-.29,1.09h0l.35,2.79a17.42,17.42,0,0,1,.7,2.87c.08.49,0,1.43,1,1.19h0c.85-.79,1.72-1.33,2.61,0h0a20.14,20.14,0,0,1,2,3.66h0l.77,1.09.37-.09Z" transform="translate(551.17 -262.56)"/><path class="c" d="M-344.44,433.54a.85.85,0,0,0,.41.09l-.41-.09Z" transform="translate(551.17 -262.56)"/><path class="c" d="M-445.19,416.28l-.23.1A.94.94,0,0,0-445.19,416.28Z" transform="translate(551.17 -262.56)"/><path class="c" d="M-456.39,433.36a1,1,0,0,0,.05-.18l-.45-.48,0,0c-4.83,1.43-9.64,3.11-14.77,1.37a6.9,6.9,0,0,0-1.22-.2h-1.55c.13-.45.47-.28.73-.34a.05.05,0,0,1,0,0,41.36,41.36,0,0,1-9.25-3.44,4.88,4.88,0,0,1-2.09-1.85h0c-2.27-2.12-2.1-4.84.75-7.1A31,31,0,0,1-478,417a12.32,12.32,0,0,1,5.16-1.14c7.49-.16,15,.38,22.44.76,1.13.05,2.27,0,3.41-.06h0c.55-.52,1.21-.35,1.85-.28,2.31.15,3.92-1.95,6.21-1.91.14,0,.36-.44.43-.7.53-1.95,1.37-3.83,1.27-5.92h0a5.71,5.71,0,0,1,.11-2.29.27.27,0,0,1,.14,0,.68.68,0,0,1,.12.12,49.77,49.77,0,0,0-.13-15.12c-.13-.88-.22-1.76-.33-2.64h0c-1.51-5.13-3.47-10-7-14.2-4-4.84-8.75-9-13-13.53-2.27-2.42-4.68-4.74-6.17-7.77-1.67-3.37.3-8.32,3.73-9.07a13.83,13.83,0,0,1,10.62,1.84,66,66,0,0,1,8.65,6.28,3.86,3.86,0,0,0,.33-2.27q0-12.94,0-25.88h0a1,1,0,0,0-.46-1.38c-1.41-.47-2.48-1.57-3.85-2-3.62-1.23-7.1-2.86-10.88-3.66a31.13,31.13,0,0,0-15.6.68c-.35.83-1,.32-1.53.34l-.22.05a.54.54,0,0,1,.22-.05l.46-.1a1,1,0,0,0-.68.15,4.83,4.83,0,0,0-.86.15,27.15,27.15,0,0,0-12,8.88,33.56,33.56,0,0,0-6.87,19.47c.78,2.24.17,4.55.34,6.82h0c0,.64,0,1.27-.05,1.91h0c0,.12,0,.24,0,.36.44,6.05,3.2,11.18,6.43,16.1,4.19,6.38,9.53,11.8,14.74,17.31,2.49,2.64,4.82,5.31,5.27,9.08.54,4.57-2,9.39-7.64,9.17-2.81-.11-5.25-1.34-7.74-2.49-4.1-1.89-7.42-4.77-10.69-7.76-.25-.23-.43-.64-.87-.47s-.28.61-.28.93q0,14.83,0,29.67c0,.57,0,1.16.57,1.4,1.23.52,2.06,1.58,3.2,2.22a47.86,47.86,0,0,0,12,5.15,33.69,33.69,0,0,0,12.45.63c.5-.72,1.22-.39,1.86-.39h0c1.52.1,2.79-.88,4.25-1h0C-457.83,434-456.88,434.13-456.39,433.36Zm-30.43-7.65a2.27,2.27,0,0,1,0-1.78A2.48,2.48,0,0,1-486.82,425.71Z" transform="translate(551.17 -262.56)"/><path class="d" d="M-138,459.3c-2.89-.08-3.83-1-4.19-3.84a19.68,19.68,0,0,1,.85-7.27,19.21,19.21,0,0,0,1-4.59l-1.82.62c-.06-1.68.56-3.31.09-5-.65-2.35-2.22-3.21-4.47-2.33a21.48,21.48,0,0,0-5.88,3.6c-6.35,5.2-11.93,10.84-12.33,19.93a34.36,34.36,0,0,1-3.18-2.1c-3.09-2.59-3.82-6.21-4.1-10-.42-5.79.68-11.44,1.92-17.06a34.75,34.75,0,0,0,1-6.73c0-1.11-.45-2.08-1.65-1.78-3.42.86-6.81,2-9.07,4.89-4.28,5.54-8.43,11.18-12.66,16.77-1,1.32-1.83,2.81-3.35,3.78a195.64,195.64,0,0,0,8-21.55c.41-2,.85-4,1.22-6,.86-4.64-.27-5.76-4.78-4.83-.4.08-.71.49-1.17.3l-.72.52a3.56,3.56,0,0,1-1.69,2.8c-1,.59-.46,1.66-.09,2.53,1,0,.6.64.5,1.08a82.13,82.13,0,0,1-4.42,13.4l-4.83,13.64c-1.25,3.55-2.47,7.1-3.37,10.76-.5,2.07.31,3.16,2.34,2.77,2.53-.48,5.1-1.4,6.64-3.5,5.34-7.28,10.47-14.71,15.69-22.08,1.35-1.89,2.73-3.76,4.09-5.64a4.49,4.49,0,0,1,0,2.12c-1,5.48-2.21,10.94-1.95,16.56.21,4.32,1.1,8.43,4.29,11.65,2.33,2.35,4.5,2.58,7.47,1.36,2.25-.92,4.39-2.82,7.19-1.42.44.22,1.16-.08,1.75-.18,3-.5,4.94-2.67,7.3-4.22,1.12-.74,1.89-2,3.38-2.42a15,15,0,0,0,.64,5.82,4.05,4.05,0,0,0,4.52,2.93c2.33-.55,4.31-1.93,6.46-2.92.65-.29.7-.7.35-1.28S-137,459.33-138,459.3Zm-11.3-8.32c-1.62,2.17-3.31,4.31-5.81,5.59-.61.31-1.23.68-1.84.27s-.45-1.21-.34-1.83a23,23,0,0,1,4.57-9.57c.6-.81,1.4-1.47,1.95-2.3a2.42,2.42,0,0,1,2.85-.92c1,.26,1,1.37,1.15,2.22.09.47.12.95.2,1.6C-146.8,447.93-148.13,449.44-149.28,451Z" transform="translate(551.17 -262.56)"/><path class="e" d="M-440.31,443.68a26,26,0,0,0-8.43-1.48c-1.25,0-1.44-.26-1.12-1.45a73.07,73.07,0,0,1,4.62-12.38c1.64-3.44,2.63-7.31,6.22-9.58.78-.49,1.83-1.85.25-3a5.86,5.86,0,0,0-3.49,1c-1.44.88-3.25.8-4.87.78-7-.08-14.09-.25-21.13-.56a50.53,50.53,0,0,0-7.69.29c-1.28.14-2.24,1.08-3.28,1.75a51.23,51.23,0,0,0-4.66,3.2c-1.76,1.45-1.74,2.85-.21,5.38,5.46,3.75,11.73,5,18.1,5.93,2,.29,3.58-.74,5.31-1.33.79-.27,1.58-.56,2.35-.89.51-.22,1.59.49,1.43-.92-.11-1-.22-1.69-1.55-1.8a46.73,46.73,0,0,1-13.39-3.53,11.55,11.55,0,0,1-3.45-2.33l4.13.26c5.68-.12,11.33.6,17,.27a49.53,49.53,0,0,0,6.52-.86c-3.07,3.51-4.32,7.43-6.26,11h0c-.86,2.5-1.8,5-2.55,7.52a1.78,1.78,0,0,1-1.87,1.48c-5.19.37-10.36,1.12-15.59,1.13-.35,0-.81-.05-1,.14-1.77,1.49-3.51,3-5.25,4.56-.54.47-.23,1.12-.21,1.68,0,.38.37.44.67.35,1.35-.4,2.75-.13,4.11-.33,5.1-.77,10.25-1,15.38-1.45,1.05-.1,1.09.36.82,1.15-.68,2-1.29,4-2,5.92-1.51,3.94-2.77,8-5.34,11.44-.87,1.16-1.8,2.72-3.55,2.11s-1.53-2.39-1.51-3.87a8.74,8.74,0,0,0-1.7-5.55c-.51-.69-.84-.82-1.52-.17a27.13,27.13,0,0,1-3.17,2.59c-3,2-3.4,3-2.57,6.41a25.57,25.57,0,0,0,.81,2.75c1.29,3.46,4.39,5.23,7.23,4.09a27.2,27.2,0,0,0,12.08-9.31,59.43,59.43,0,0,0,8-16.66c.34-1,.79-1.29,1.76-1.14a19.43,19.43,0,0,1,5.31,1.57c.72.33,1.17.7.86,1.46s.31,1.06.74,1.39a1.06,1.06,0,0,0,1.47-.09c1.2-1.07,2.46-2.07,3.59-3.2A3.4,3.4,0,0,0-440.31,443.68Z" transform="translate(551.17 -262.56)"/><path class="e" d="M-100.13,439.17c-1.5,0-3-.07-4.5,0-1.08,0-1.2-.31-.83-1.24a32.66,32.66,0,0,0,1.22-3.74c.19-.76,1.08-1.63.34-2.26-.48-.4-1.22.55-1.9.73l-.69.2c-1.81.56-3.56,1.14-3.92,3.42-.28,1.77-1,3.2-3.21,2.66a1,1,0,0,0-.95.4c-1,1.07-2.37,1.58-3.39,2.37-2.29-4.49-6.43-1.84-9.64-2.56a8.35,8.35,0,0,1,.32-1.43,1.83,1.83,0,0,0-.54-2.26c-.65-.57-1.35-.28-2,0a17.69,17.69,0,0,0-5.68,3.56c-1.69,1.54-1.61,4.08.24,4.53,1.28.32.88.92.6,1.49a27.59,27.59,0,0,1-2.44,4.35c-.92,1.24-1,2,.32,3,.74.58.93.79,1.57-.1a37,37,0,0,0,4.19-6.61c.87-2,2.38-2.22,4.12-2.33.92-.06,1.33.21.66,1.08s-1.41,1.62-2,2.48c-2.33,3.27-4.5,6.62-5.05,10.72s2.47,6.54,6.47,5.2c1.76-.59,3.35-1.49,5.11-2.06,2.21-.72,2.51-1.44,2.27-3.52-.15-1.27-.68-1.33-1.43-.53a19.17,19.17,0,0,1-2.54,1.63c-.73.57-1.27.36-1.82-.31-1.21-1.47-.84-3.06-.34-4.58a20.41,20.41,0,0,1,4.33-7.55c.77-.83,1.31-3.27,3.38-1.4.13.12.47,0,.71,0l3.39.23c-.76,2.47-1.54,4.85-2.22,7.26a16,16,0,0,0-.5,7.47c.55,2.82,2.15,3.76,4.91,3.11,3-.69,5.39-2.41,7.91-3.93a4.65,4.65,0,0,0,2.28-4.4,1.81,1.81,0,0,0-.9-1.64,1.4,1.4,0,0,0-1.78.42,15.91,15.91,0,0,0-1.57,2.14c-.69,1-1,2.73-2.45,2.42s-1.5-1.95-1.69-3.24a6.22,6.22,0,0,1,0-1.43,52.37,52.37,0,0,1,1.35-6.11c.39-1.8,1.29-2.16,3-2.12,4.49.11,4.5,0,6.08-4.12l.08-.16C-99,439.55-99.19,439.16-100.13,439.17Z" transform="translate(551.17 -262.56)"/><path class="e" d="M-345,453.64l-1.15,1.85a4.43,4.43,0,0,1-4.92,2c-1.38-.51-2.09-2.13-1.71-4.3a35.25,35.25,0,0,1,2.25-8.09c.67-1.53,1.2-3.12,2-4.6a1.24,1.24,0,0,0-.54-1.82c-.32-.2-.42-.66-1-.24-2.57,1.89-5.88,3.1-6.23,7a3.92,3.92,0,0,1-.3.85c-1.34,3.89-3,7.7-2.91,11.93,0,.55-.3.7-.75.8-1.52.35-2.13-.58-2.36-1.79a17.37,17.37,0,0,1-.3-5.19c.31-2.85.7-5.71.83-8.58.1-2.38-1.8-3.54-3.67-2.27-2.16,1.46-4.65,2.34-6.68,4.05-.69.57-1.28,1.55-2.51,1.71.21-.74.39-1.37.56-2a9.21,9.21,0,0,0,.16-5.3,2.75,2.75,0,0,0-4.51-1.56c-1.43,1-2.87,1.92-4.35,2.82-1.32.8-2.52,1.86-2.52,3.65,0,1.57.59,2,2,1.26.91-.47,2-.61,2.65-1.67a15.71,15.71,0,0,1-.74,5.1,67.79,67.79,0,0,1-4.2,10.26c-.45.9-1,1.82-.15,2.8s1.84.11,2.38-.18c1.39-.75,3.21-.79,4.22-2.09s2-3.11,3-4.65a39.86,39.86,0,0,1,6.37-7.88c.34-.32.62-.88,1.16-.62s.28.87.25,1.31c-.09,1.43-.27,2.86-.37,4.29-.2,2.92-.59,5.85.08,8.75s2.37,3.63,5,2.72a21.54,21.54,0,0,0,4.27-2.48c.5-.32.9-1,1.62-.12,1.19,1.43,2.84,1.59,4.57,1.26,3.58-.68,6.34-2.87,9.13-5a.84.84,0,0,0,.33-1.09C-344.51,455.65-344.25,454.54-345,453.64Z" transform="translate(551.17 -262.56)"/><path class="e" d="M-293.64,457.32c-2.22.79-3.54.25-4.38-2a10.29,10.29,0,0,1,1-9.92,34.68,34.68,0,0,0,2.17-3.47,2,2,0,0,0-.19-2.5c-.76-.8-1.44-.24-2.11.05a10.78,10.78,0,0,0-5.92,5.31c-2.29,4.67-6.25,8-10.31,11.12-.51.39-1.29,1.21-2,.68s-.2-1.34-.14-2a1.54,1.54,0,0,1,.1-.35,32.9,32.9,0,0,1,4.69-10.57,9.76,9.76,0,0,0,1.51-3.8c.11-.86.12-2.37-1.29-1.83-3.4,1.31-6.64,3-8.41,6.47-.13.25-.64.67-.14.84,1.51.54.54,1.25.22,1.93-1.55,3.28-3.48,6.4-4.3,10-.76,3.32.68,4.87,4,4.33a23.49,23.49,0,0,0,8.2-3.33,23.1,23.1,0,0,0,5.18-4.23c.16,1.37.21,2.32.39,3.24a17.61,17.61,0,0,0,.79,2.75c.92,2.35,2.82,3.57,5,3.1a22.09,22.09,0,0,0,7.2-3.42c1.08-.7.16-1.49,0-2.21C-292.65,456.56-293.21,457.17-293.64,457.32Z" transform="translate(551.17 -262.56)"/><path class="e" d="M-406.39,457.4a2.9,2.9,0,0,1-3.74-1.09c-1.62-2.26-1.8-7.06-.23-9.54,1.05-1.66,2.14-3.29,3.05-5,.75-1.44-.12-3.14-1.27-2.71-2.15.81-4.54,1.51-5.79,3.64a56.88,56.88,0,0,1-4.28,6.53,31.67,31.67,0,0,1-8.23,7.25c-1.13.71-1.35.18-1.33-.82a6.46,6.46,0,0,1,.1-1.25,32.24,32.24,0,0,1,3.79-9,18.09,18.09,0,0,0,2.53-5.3,2.06,2.06,0,0,0-.47-2c-.66-.62-1.23.08-1.75.34-1.53.76-3.06,1.54-4.51,2.45s-2,2.6-3.08,3.86c-.76.9.67.68.65,1.24a2.59,2.59,0,0,1-.33,1c-1.5,3.43-3.52,6.64-4.4,10.33-.8,3.39.68,5,4.1,4.34a24.43,24.43,0,0,0,8.18-3.37,37.9,37.9,0,0,0,5.16-4.17c.12,1.35.13,2.31.3,3.24a15.68,15.68,0,0,0,.79,2.75c.88,2.28,2.74,3.54,4.82,3.12A20.81,20.81,0,0,0-405,459.7c1-.71.2-1.52,0-2.23C-405.31,456.38-406,457.26-406.39,457.4Z" transform="translate(551.17 -262.56)"/><path class="f" d="M-197.6,424.19c.85-.72,2-1.08,2.57-2.13-.37-.87-.87-1.94.09-2.53a3.56,3.56,0,0,0,1.69-2.8c-2.13.46-3.7,2-5.67,2.85,0,1.05-1,1-1.54,1.52a136.9,136.9,0,0,0-13.28,14.18,2.06,2.06,0,0,1-.41.3h0l-11.06,14.58c-5.18,6.81-10.32,13.65-14.32,21.26-.18.34-.78.66-.29,1,.74.57,1.75,1.54,2.36,1.36.94-.28,2.25-.33,2.79-1.58,2.85-6.54,7.21-12.14,11.3-17.89,5.23-7.34,10.85-14.39,16.75-21.21A95.25,95.25,0,0,1-197.6,424.19Z" transform="translate(551.17 -262.56)"/><path class="e" d="M-274.69,456.1c-1.4.14-2,1.42-3.21,1.91-1.7.71-2.8.34-3.1-1.52a5.13,5.13,0,0,1,.09-1.95,20.73,20.73,0,0,1,3.89-7.76c1-1.36,2.2-2.65,3.15-4.07s.52-2.34-.9-3.07a5.1,5.1,0,0,0-2.44-.51c-1.78,0-3.57,0-5.45,0,.3-1.22,1.13-2.46,0-3.55s-2.21,0-3.27.41c-.11.05-.26,0-.35.07-1.93,1.15-4,2.19-5,4.33-.66,1.34-.38,2.65,1.08,3.07,1.31.38,1,1,.6,1.67-.94,1.72-1.92,3.43-3,5.08s.8,1.7,1.28,2.42c.6.9.91-.21,1.21-.59a48.63,48.63,0,0,0,4.07-6.26c1.34-2.38,2.19-2.76,5.23-2.29-.33,1.43-1.6,2.18-2.36,3.29-2.47,3.59-5,7.13-5.08,11.76,0,3.68,2.71,5.51,6.17,4.3,1.62-.57,3.16-1.35,4.77-1.92,2.8-1,3.09-1.28,2.78-4.11C-274.61,456.59-274.65,456.36-274.69,456.1Z" transform="translate(551.17 -262.56)"/><path class="e" d="M-258.8,457.16c-2.46,1.46-6.59.42-7.74-1.81-.48-.92-.54-1.61.58-2.1a22.62,22.62,0,0,0,7.09-4.93c2.15-2.15,4-4.47,4.16-7.65.23-3.35-2.17-5.06-5.25-3.75a28.26,28.26,0,0,0-3.66,1.81,20.66,20.66,0,0,0-10.11,14.41c-1.22,6.53,2.88,11,9.8,9.45,3.11-.71,5.62-2.4,8.26-4,1.72-1,1.84-2.21.59-3.86A14.41,14.41,0,0,1-258.8,457.16Zm-4.91-14.63a1.47,1.47,0,0,1,2-.48c.8.46.77,1.06.54,1.82-.92,3.07-3,5-5.92,6.64A14.36,14.36,0,0,1-263.71,442.53Z" transform="translate(551.17 -262.56)"/><path class="e" d="M-390.51,458c-1.66.68-2.64.42-3.14-1.33a4.2,4.2,0,0,1,.08-2.3,25.64,25.64,0,0,1,6.48-10.71c.71-.76,1.44-1.61,1.12-2.65s-1.45-1.59-2.65-1.85c-2.16-.45-4.29.3-6.57,0a15.06,15.06,0,0,0,.43-2.19,1.57,1.57,0,0,0-2.19-1.74,15.76,15.76,0,0,0-6.42,4c-1.39,1.44-1.13,3.86.49,4.19s1,1,.65,1.66q-1.39,2.6-2.95,5.09c-1,1.56.88,1.63,1.32,2.41s.76-.26,1.05-.6a42.36,42.36,0,0,0,4.52-7,2.82,2.82,0,0,1,2.44-1.61c.79-.1,1.93-.55,2.3.15s-.65,1.36-1.17,2c-2.88,3.54-5.37,7.31-6.12,11.93-.71,4.34,2.3,6.74,6.43,5.3,1.47-.52,2.82-1.26,4.25-1.79,3.5-1.29,3.52-1.22,2.78-4.84C-388.7,456.28-389.35,457.54-390.51,458Z" transform="translate(551.17 -262.56)"/><path class="e" d="M-332.19,432.86c-1.88.77-4,1.2-4.28,3.87-.17,1.67-1.08,2.7-3,2.24a1.18,1.18,0,0,0-1.12.46c-1,1.1-2.4,1.54-3.49,2.47-.4.35-1.5.15-1,1.25.36.8.73,1.44,1.82,1.24.69-.12,1.44.08,2.15,0,1.21-.1,1.69.14,1.1,1.47a29.86,29.86,0,0,0-1.47,4.2c-.85,3.12-1.77,6.24-.95,9.52.68,2.68,2,3.45,4.73,2.88,3.05-.66,5.5-2.49,8.09-4a4.33,4.33,0,0,0,2.09-3.58c.06-.95.2-2.06-1-2.37-1-.26-1.76.4-2.29,1.28a37.93,37.93,0,0,1-2.1,3.32c-.7.95-1.49.87-2.12-.17a4.7,4.7,0,0,1-.56-1.12c-1-3.83.7-7.26,1.66-10.8.16-.61.8-.4,1.24-.4,1.43,0,2.87.08,4.31.1.51,0,1.1.15,1.37-.54a37,37,0,0,0,1.94-4.84c-2.26-.45-4.47.15-6.71-.22a17.63,17.63,0,0,1,1.05-3.42c.42-1.17.69-2.4,1-3.6l-2.13.65A3.58,3.58,0,0,0-332.19,432.86Z" transform="translate(551.17 -262.56)"/><path class="g" d="M-93.89,345.86c0-8.69,0-17.39,0-26.09,0-1.17-.16-2.15-1.45-2.52,0,.24,0,.48,0,.72s0,.48,0,.72V432.24c0,.53-.08,1.07-.12,1.61,1.78-.18,1.53-1.53,1.53-2.7Z" transform="translate(551.17 -262.56)"/><path class="h" d="M-253.42,380c-.75-1.45-1.94-.35-2.84-.36-11.52-.09-23,0-34.56-.1-1.52,0-2.23.48-2.36,1.93-.05.59-.14,1.19-.14,1.78q0,5.76,0,11.52c0,2.76,0,5.52,0,8.28.05,3.51.43,3.88,3.79,3.9l.36,0c4.35.37,8.71.1,13.07.12q5,0,10-.06c3.89-.07,7.78.2,11.68-.12,1.1-.09,1.69-.61,1.62-1.65a136.36,136.36,0,0,1,0-15.66c.13-3-.08-6,.31-9C-252.44,379.6-253,380-253.42,380Zm-.26,26.23a9.58,9.58,0,0,1-1.06.13h-36.11a9.38,9.38,0,0,1-1-.12h0c-.62-.13-.44-.64-.44-1q0-12.19,0-24.4a2.36,2.36,0,0,1,.12-.51h0c1.14-.67,2.41-.35,3.6-.35,11.48,0,23,0,34.45,0a4.94,4.94,0,0,1,.53.1.42.42,0,0,1,.22-.08h0v11.81c0,4.38.06,8.77.06,13.15C-253.36,405.34-253.09,405.89-253.68,406.18Z" transform="translate(551.17 -262.56)"/><path class="h" d="M-140.34,433.93q-10.6,0-21.23,0c-.6,0-1.33.33-1.81-.38h0q0-25.21,0-50.44c0-2.51.06-5,.09-7.53q0-6.3,0-12.59c-.16-7.33-.14-14.66,0-22h0v-8.59q0-6.84-.08-13.66c0-.35-.06-.75.44-.85h0a2.31,2.31,0,0,1,.52-.12c8.51,0,17,0,25.54,0,1,0,1.26.43,1.53,1.27.75,2.31.88,4.78,1.86,7,.42-2.82-1.13-5.25-1.58-7.91a1.39,1.39,0,0,0-1.51-1c-8.33.08-16.67.12-25,.07-1.6,0-2.17.35-2.15,2.07.1,7.52.05,15,.05,22.56v89.05c0,3.37,0,3.36,3.34,3.36h20.16c2.81,0,2.79,0,2.79-2.7,0-6.39,0-12.78,0-19.17,0-6.59,0-13.19,0-19.79,0-.64.2-1.33-.28-1.91q0,20.34,0,40.66C-137.77,434.28-137.41,433.92-140.34,433.93Z" transform="translate(551.17 -262.56)"/><path class="i" d="M-437,390.48a49.77,49.77,0,0,1,.13,15.12,3.34,3.34,0,0,1-.37,2.15h0c.1,2.09-.74,4-1.27,5.92-.07.26-.29.7-.43.7-2.29,0-3.9,2.06-6.21,1.91a.94.94,0,0,1-.23.1,3.42,3.42,0,0,1-1.62.18c-1.14,0-2.28.11-3.41.06-7.48-.38-14.95-.92-22.44-.76A12.32,12.32,0,0,0-478,417a31,31,0,0,0-6.17,4.08c-2.85,2.26-3,5-.75,7.1a1,1,0,0,0,.87-.48c-1.53-2.53-1.55-3.93.21-5.38a51.23,51.23,0,0,1,4.66-3.2c1-.67,2-1.61,3.28-1.75a50.53,50.53,0,0,1,7.69-.29c7,.31,14.09.48,21.13.56,1.62,0,3.43.1,4.87-.78a5.86,5.86,0,0,1,3.49-1c.06-.94-.94-.16-1.21-.66.65-.55,1.65-.21,2-1.37a61.11,61.11,0,0,0,2.15-13.85c.14-3.71-.57-7.34-.75-11a1.08,1.08,0,0,0-.76-1.09h0C-437.26,388.72-437.17,389.6-437,390.48Z" transform="translate(551.17 -262.56)"/><path class="j" d="M-450.79,424.31c-.25-.26-.65,0-1,.16a.91.91,0,0,1-1,1c-2.63-.52-5.3,0-7.92-.58,2.25,0,4.5,0,6.76,0,.57,0,1.22.2,1.71-.26a.7.7,0,0,0,0-.12l-8.12,0a65.21,65.21,0,0,1-8.15-.23c-.42,0-1.4-.61-1.23.66.39.49,1,.14,1.46.42a2.5,2.5,0,0,1,1.87.63.2.2,0,0,1,.29.09h0a2.48,2.48,0,0,1,1.57.62l2.57.06h1.93l0,.25-.71.11h0c1.14.25,2.26.54,3.41.73a1.77,1.77,0,0,1,1.62,1.14h0a1.47,1.47,0,0,1,.08,2.05,2.54,2.54,0,0,1-1.17,1.67l0,0,.45.48,0,0,1-.07h0c.05-.36.33-.38.6-.4a37.66,37.66,0,0,1,3.65-7.53C-450.91,424.94-450.5,424.62-450.79,424.31Z" transform="translate(551.17 -262.56)"/><path class="k" d="M-347.8,430a1.19,1.19,0,0,0-1.41-.21c-1.82.74-3.13,2.23-4.83,3.12a.85.85,0,0,0-.44.73,3.86,3.86,0,0,0,5,3.71,19.65,19.65,0,0,0,3-1.58c1-.67,1.63-1.53.41-2.62a7.06,7.06,0,0,1-1.24-2.1c-.37-.25-.35-.68-.46-1Z" transform="translate(551.17 -262.56)"/><path class="l" d="M-197.74,430c.28-1.53,1.11-2.93,1.25-4.77l0,0-.11-.06a71.42,71.42,0,0,0-7.47,7.08,10.85,10.85,0,0,1-2.45,2.38c-.31.43-.89.7-.77,1.38h3.17a9.82,9.82,0,0,1,1.42-.17C-199.85,435.23-198.31,433.16-197.74,430Z" transform="translate(551.17 -262.56)"/><path class="m" d="M-195,422.06c-.57,1.05-1.72,1.41-2.57,2.13a95.25,95.25,0,0,0-9,8.95c.72.47.23,1,.05,1.48a10.85,10.85,0,0,0,2.45-2.38,71.42,71.42,0,0,1,7.47-7.08l.18-.14a2.11,2.11,0,0,1,0,.25c-.14,1.84-1,3.24-1.25,4.77-.57,3.12-2.11,5.19-5,5.79a8.77,8.77,0,0,1-1.42.17c1.1,0,2.25.31,3.27-.29s1.6-.16,2,.83a82.13,82.13,0,0,0,4.42-13.4C-194.43,422.7-194,422-195,422.06Z" transform="translate(551.17 -262.56)"/><path class="n" d="M-447.64,422.5a49.53,49.53,0,0,1-6.52.86c-5.68.33-11.33-.39-17-.27v.71h0c3.61,0,7.23-.13,10.8.66l8.12,0h.16l.34,0c.31-.16.71-.42,1-.16s-.12.63-.29.91a37.66,37.66,0,0,0-3.65,7.53,1.41,1.41,0,0,1,.83.74h0C-452,429.93-450.71,426-447.64,422.5Z" transform="translate(551.17 -262.56)"/><path class="o" d="M-137.47,377.71h0c0-.31,0-.62-.34-.76h0c-.77,1.14-.12,2.45-.44,3.65l.09,39.55h0c0,4.06,0,8.13.08,12.19,0,.9-.25,1.28-1.21,1.27-7.89-.05-15.79-.06-23.68-.08h-.41c.48.71,1.21.37,1.81.38q10.62,0,21.23,0c2.93,0,2.57.35,2.57-2.59q0-20.32,0-40.66c-.16-3.83-.24-7.66,0-11.5C-137.8,378.67-138,378.12-137.47,377.71Z" transform="translate(551.17 -262.56)"/><path class="p" d="M-200.46,421.1c.52-.48,1.58-.47,1.54-1.52,2-.8,3.54-2.39,5.67-2.85l.72-.52c-.28-.39-.71-.3-1.09-.34-1.93.73-4,1.21-5.39,2.93,0,.22,0,.44,0,.66l-1.21,0h0a13.49,13.49,0,0,0-3.91,3.15c-3.79,4.14-7.89,8.05-11.06,12.73h0c.36,0,.76-.06,1.06.26h0a2.06,2.06,0,0,0,.41-.3A136.9,136.9,0,0,1-200.46,421.1Z" transform="translate(551.17 -262.56)"/><path class="q" d="M-186.61,426.62c-.26-.2,0-.5,0-.79.53-1.87,1-3.75,1.53-5.63l0-.12c0-.76,0-1.52,0-2.28-.51-1.43-.82-3.1-2.7-3.34a7.27,7.27,0,0,0-5.91,1.41c.38,0,.81-.05,1.09.34.46.19.77-.22,1.17-.3,4.51-.93,5.64.19,4.78,4.83-.37,2-.81,4-1.22,6,1,1.47,1.21,1.43,2.1-.37h0C-186,426.36-186.24,426.92-186.61,426.62Z" transform="translate(551.17 -262.56)"/><path class="r" d="M-120.28,318l.08-.07a.69.69,0,0,1,.87,0h0c3.35,0,6.69-.13,10-.1,4.66,0,9.32-.22,14,.15,0-.24,0-.48,0-.72h-23c-2.54,0-2.54,0-2.54,2.62,0,3.78,0,7.55,0,11.33,0,.64-.21,1.33.29,1.9,0-4.51,0-9,.08-13.54C-120.5,319-120.78,318.43-120.28,318Z" transform="translate(551.17 -262.56)"/><path class="s" d="M-328.36,434.09a40,40,0,0,1,8.4,0c.69.06,1.32-.1,1.37-.79.17-2,1.25-3.88.75-5.95h0l-1.41,5.78c0,.4-.25.49-.57.49h-8.75l.29-2.21a1.75,1.75,0,0,0-2.23-.54l-6,2.28c-.13.61-.63.48-1,.46-2.2-.12-4.4.21-6.59-.19h0l-.37.09h0l.41.09a30.79,30.79,0,0,0,7.79.25c.14,0,.26-.26.42-.31,1.6-.49,3-1.62,4.93-1.92l-.95,1.1,2.13-.65c1-.57.93,0,.7.68S-329.49,434.21-328.36,434.09Z" transform="translate(551.17 -262.56)"/><polygon class="s" points="222.89 168.88 222.89 168.88 222.89 168.88 222.89 168.88"/><path class="t" d="M-435.22,433.78q12.48,0,25,0c.44,0,1.05.19,1-.62h0l-26.93,0C-436.27,434-435.63,433.78-435.22,433.78Z" transform="translate(551.17 -262.56)"/><path class="u" d="M-364.32,433.21c-6.1-.09-12.2,0-18.3,0-.29.42-.76.31-1.16.41h0a6,6,0,0,0,2.3.2h17.87c2.24,0,2.33-.19,1.2-2.49h0C-362.25,432.74-362.81,433.23-364.32,433.21Z" transform="translate(551.17 -262.56)"/><path class="r" d="M-120.66,377a3.22,3.22,0,0,0,.1-.51q0-17.75,0-35.5c-.54.63-.3,1.38-.3,2.08q0,15.2,0,30.39c0,.7.25,1.45-.3,2.08A1.52,1.52,0,0,0-120.66,377Z" transform="translate(551.17 -262.56)"/><path class="v" d="M-440.21,349.12a3.86,3.86,0,0,1-.33,2.27c1.44.56.64-.71.64-.94,0-8.5,0-17,0-25.5,0-.58.21-1.21-.28-1.71h0Q-440.17,336.19-440.21,349.12Z" transform="translate(551.17 -262.56)"/><path class="w" d="M-122.28,433.65c3.63.32,7.25.06,10.88.14a1,1,0,0,0,1-.6h0c-3.5,0-7,0-10.52,0C-121.39,433.18-122,432.89-122.28,433.65Z" transform="translate(551.17 -262.56)"/><path class="x" d="M-334,392.36c0-.6-.21-1.26.38-1.75h0c.12-.73-.27-1.53.32-2.2.18-1-.34-2,.39-2.9h0v-2.39c-1.13,2.27-.35,5-1.56,7.33-.37-.68.08-1.47-.61-1.9h0c0,.64,0,1.28.09,1.91S-335.18,392.15-334,392.36Z" transform="translate(551.17 -262.56)"/><path class="y" d="M-171.95,373v-3.72a13.49,13.49,0,0,0-.33-4.82h0V373Z" transform="translate(551.17 -262.56)"/><path class="z" d="M-204.42,315.75a23.14,23.14,0,0,0-8.62,0h8.62Z" transform="translate(551.17 -262.56)"/><path class="s" d="M-350.9,427.64a17.42,17.42,0,0,0-.7-2.87,8.49,8.49,0,0,0,.51,4.09c.66,1.45.84.43,1.22,0h0C-350.94,429.07-350.82,428.13-350.9,427.64Z" transform="translate(551.17 -262.56)"/><path class="s" d="M-347.25,428.79c-.11.43,0,.94-.55,1.19h0c.11.37.09.8.46,1,.16-.73.39-.81.84-.15s.38,1.44,1.29,1.57h0a20.14,20.14,0,0,0-2-3.66Z" transform="translate(551.17 -262.56)"/><path class="aa" d="M-382.62,433.18l-6.1,0h0c0,.53.39.51.73.5,1.4,0,2.81-.07,4.21-.11h0C-383.38,433.49-382.91,433.6-382.62,433.18Z" transform="translate(551.17 -262.56)"/><path class="ab" d="M-492.07,352.55c-.17-2.27.44-4.58-.34-6.82a29.91,29.91,0,0,0,0,6.82A.92.92,0,0,1-492.07,352.55Z" transform="translate(551.17 -262.56)"/><path class="n" d="M-456.39,433.36c-.49.77-1.44.67-2.15,1h0c1.45.56,2.41-.13,3.21-1.24h0l-1,.07A1.1,1.1,0,0,1-456.39,433.36Z" transform="translate(551.17 -262.56)"/><path class="s" d="M-347.25,428.78h0c-.89-1.29-1.76-.75-2.61,0a7.88,7.88,0,0,1,2.61,0Z" transform="translate(551.17 -262.56)"/><path class="r" d="M-122.75,369.2c0-.93.45-2-.63-2.63A4.33,4.33,0,0,0-122.75,369.2Z" transform="translate(551.17 -262.56)"/><path class="ac" d="M-299,329.94c.85-.72.21-1.81.65-2.63h0C-299.65,327.92-298.92,329-299,329.94Z" transform="translate(551.17 -262.56)"/><path class="ad" d="M-245.5,386.49a7.89,7.89,0,0,0,.36,3.48h0C-245.22,388.81-244.72,387.58-245.5,386.49Z" transform="translate(551.17 -262.56)"/><path class="ae" d="M-126.31,418.75a4.08,4.08,0,0,0,.43,1.81C-125.43,419.81-125.21,419.12-126.31,418.75Z" transform="translate(551.17 -262.56)"/><path class="af" d="M-110,433.18c.78,0,1.65.22,2.12-.72h0A2.23,2.23,0,0,0-110,433.18Z" transform="translate(551.17 -262.56)"/><path class="r" d="M-122.67,369.45A4.23,4.23,0,0,0-122,372,3.31,3.31,0,0,0-122.67,369.45Z" transform="translate(551.17 -262.56)"/><path class="r" d="M-121.91,372.68a4.18,4.18,0,0,0,.61,2.26C-121.42,374.17-120.7,373.17-121.91,372.68Z" transform="translate(551.17 -262.56)"/><path class="ag" d="M-371.79,383.06l.27,0c0-.34.07-.68.1-1a2.18,2.18,0,0,0-.37-1.57h0Z" transform="translate(551.17 -262.56)"/><path class="ah" d="M-173.53,355c.05-.28.09-.55.14-.83a2.51,2.51,0,0,0-.41-1.72h0V355Z" transform="translate(551.17 -262.56)"/><path class="ai" d="M-172,382.13a.57.57,0,0,1-.11-.11l-.28,0h0v2.88h0a1.16,1.16,0,0,1,.32,0h0a8.49,8.49,0,0,0,.08-2.8h0Z" transform="translate(551.17 -262.56)"/><path class="aj" d="M-172.34,384.94h0l0,3h0a6.47,6.47,0,0,0,.3-3h0A1.16,1.16,0,0,0-172.34,384.94Z" transform="translate(551.17 -262.56)"/><path class="ak" d="M-335.41,388.05c0-.85.41-1.76-.34-2.51h0C-335.63,386.37-336.28,387.32-335.41,388.05Z" transform="translate(551.17 -262.56)"/><path class="al" d="M-131.34,400a4,4,0,0,0,.46,1.8h0C-130.51,401.1-130.25,400.39-131.34,400Z" transform="translate(551.17 -262.56)"/><path class="af" d="M-104.33,431a3.35,3.35,0,0,0-2.13.72C-105.68,431.69-104.79,432-104.33,431Z" transform="translate(551.17 -262.56)"/><path class="am" d="M-341.89,340.19c0-.85.4-1.75-.33-2.5h0C-342.09,338.52-342.75,339.46-341.89,340.19Z" transform="translate(551.17 -262.56)"/><path class="r" d="M-124.18,363.41a2.35,2.35,0,0,0-.61-2.24A3.56,3.56,0,0,0-124.18,363.41Z" transform="translate(551.17 -262.56)"/><path class="an" d="M-336.11,383c-.05-.85.44-1.78-.38-2.52h0C-336.34,381.27-337,382.22-336.11,383Z" transform="translate(551.17 -262.56)"/><path class="ao" d="M-330.9,372.27s.08-.07.08-.11v-2.45c-.69.73-.3,1.61-.34,2.44h0A2.06,2.06,0,0,0-330.9,372.27Z" transform="translate(551.17 -262.56)"/><path class="ap" d="M-137.47,377.71c-.51.41-.33,1-.3,1.47l.68,0h0c0-.51,0-1-.38-1.45Z" transform="translate(551.17 -262.56)"/><path class="aq" d="M-380.76,333.31a3.12,3.12,0,0,0-.39-2.23h0C-380.94,331.81-381.63,332.7-380.76,333.31Z" transform="translate(551.17 -262.56)"/><path class="ar" d="M-244.79,392.64a2,2,0,0,0,.32,1.92h0C-244.51,393.91-243.88,393.15-244.79,392.64Z" transform="translate(551.17 -262.56)"/><path class="as" d="M-331.75,377.37a.21.21,0,0,0,.15,0,5.73,5.73,0,0,0,0-2.26c-.72.64-.31,1.44-.32,2.18h0A.67.67,0,0,0-331.75,377.37Z" transform="translate(551.17 -262.56)"/><path class="at" d="M-327.25,343.44c-.75.74-.27,1.65-.34,2.49h0C-326.8,345.19-327.3,344.28-327.25,343.44Z" transform="translate(551.17 -262.56)"/><path class="aa" d="M-378.26,348.5l.27,0c0-.23.07-.47.1-.7a2,2,0,0,0-.37-1.45h0Z" transform="translate(551.17 -262.56)"/><path class="au" d="M-324.35,324.55a2,2,0,0,0-.18-1.89,1.94,1.94,0,0,0-.16,1.69h0C-324.56,324.43-324.58,325.16-324.35,324.55Z" transform="translate(551.17 -262.56)"/><path class="av" d="M-368.9,398.2l.25,0,.13-.79a2,2,0,0,0-.39-1.54h0C-368.9,396.66-368.9,397.43-368.9,398.2Z" transform="translate(551.17 -262.56)"/><path class="aw" d="M-340.43,350.91c-.06-.83.29-1.72-.37-2.45h0C-340.72,349.28-341.23,350.19-340.43,350.91Z" transform="translate(551.17 -262.56)"/><path class="ax" d="M-337.56,372.56c-.08-.83.29-1.72-.35-2.48h0C-337.84,370.91-338.35,371.83-337.56,372.56Z" transform="translate(551.17 -262.56)"/><path class="ay" d="M-329.38,359.23a3.39,3.39,0,0,0-.37,2.53h0C-328.95,361-329.43,360.08-329.38,359.23Z" transform="translate(551.17 -262.56)"/><path class="az" d="M-426.84,384.38c.08.1.27.31.28,0,0-.69,0-1.39,0-2.08a2.86,2.86,0,0,0-.39,1.78h0A.92.92,0,0,0-426.84,384.38Z" transform="translate(551.17 -262.56)"/><path class="ba" d="M-332.28,380.16c-.73.75-.33,1.66-.36,2.5h0C-331.81,381.93-332.32,381-332.28,380.16Z" transform="translate(551.17 -262.56)"/><path class="bb" d="M-389.13,425.77c0-.32-.21-.11-.28,0a1.15,1.15,0,0,0-.09.33,2.42,2.42,0,0,0,.17,1.67h0C-388.89,427.15-389.11,426.44-389.13,425.77Z" transform="translate(551.17 -262.56)"/><path class="r" d="M-124.06,364.05a4.8,4.8,0,0,0,.61,2.22A2.39,2.39,0,0,0-124.06,364.05Z" transform="translate(551.17 -262.56)"/><path class="bc" d="M-172.78,391.07a.28.28,0,0,0-.16,0,2.61,2.61,0,0,0,.11,2.17,2.75,2.75,0,0,0,.16-2h0C-172.7,391.15-172.73,391.09-172.78,391.07Z" transform="translate(551.17 -262.56)"/><path class="bd" d="M-328.89,356.49a.27.27,0,0,0,.15,0,2.55,2.55,0,0,0-.15-2.16,3.21,3.21,0,0,0-.13,2h0S-328.94,356.47-328.89,356.49Z" transform="translate(551.17 -262.56)"/><path class="be" d="M-339,361.78c-.16-.82.44-1.75-.34-2.49h0C-339.28,360.13-339.82,361.05-339,361.78Z" transform="translate(551.17 -262.56)"/><path class="bf" d="M-358.31,387.79a1.06,1.06,0,0,0-.23-.17c0,.63-.32,1.31.37,1.78h0C-358.29,388.88-357.84,388.24-358.31,387.79Z" transform="translate(551.17 -262.56)"/><path class="bg" d="M-470.95,316.84l-1.07.24-.46.1C-471.95,317.16-471.3,317.67-470.95,316.84Z" transform="translate(551.17 -262.56)"/><path class="bg" d="M-472.7,317.23l.22-.05A.54.54,0,0,0-472.7,317.23Z" transform="translate(551.17 -262.56)"/><path class="bh" d="M-244.73,357.58l0,.64h0c.05.39.1.77.2,1.63C-244.36,358.74-244.13,358.12-244.73,357.58Z" transform="translate(551.17 -262.56)"/><path class="bi" d="M-243.95,354.17c.12.14.28.23.29-.07,0-.59,0-1.17,0-1.75a1.79,1.79,0,0,0-.39,1.49h0A.8.8,0,0,0-243.95,354.17Z" transform="translate(551.17 -262.56)"/><path class="bj" d="M-415.75,326.92v-2c-.4.32-.33.78-.37,1.21l.12.77Z" transform="translate(551.17 -262.56)"/><path class="bk" d="M-343.3,329.39c0-.77.34-1.6-.38-2.25h0C-343.56,327.89-344.14,328.76-343.3,329.39Z" transform="translate(551.17 -262.56)"/><path class="bl" d="M-426.09,380.93l.25,0V379a1.18,1.18,0,0,0-.38,1.16h0C-426.18,380.4-426.14,380.66-426.09,380.93Z" transform="translate(551.17 -262.56)"/><path class="bm" d="M-372.45,378.67c.11.32.21-.14.31-.28a1.64,1.64,0,0,0-.35-1.47A5.36,5.36,0,0,0-372.45,378.67Z" transform="translate(551.17 -262.56)"/><path class="bn" d="M-243.68,397.72c0-.34-.21-.14-.29,0a1.15,1.15,0,0,0-.09.33,1.74,1.74,0,0,0,.38,1.44h0C-243.68,398.89-243.65,398.3-243.68,397.72Z" transform="translate(551.17 -262.56)"/><path class="bo" d="M-311,390.49c-.11-.14-.28-.24-.29.06,0,.59,0,1.18,0,1.76.6-.37.48-.93.39-1.49h0C-310.95,390.71-310.95,390.57-311,390.49Z" transform="translate(551.17 -262.56)"/><path class="bp" d="M-409.2,431.88a3.53,3.53,0,0,0,.38-2.19h0C-409.67,430.3-409.08,431.15-409.2,431.88Z" transform="translate(551.17 -262.56)"/><path class="bq" d="M-336.84,377.25c0-.61.39-1.29-.33-1.77h0C-337,376.06-337.74,376.81-336.84,377.25Z" transform="translate(551.17 -262.56)"/><path class="br" d="M-369.25,393.81a2.16,2.16,0,0,0-.37-1.74h0C-369.42,392.63-370.15,393.39-369.25,393.81Z" transform="translate(551.17 -262.56)"/><path class="bs" d="M-122.72,430.83c0-.34-.21-.12-.29,0a1.08,1.08,0,0,0-.09.32,2.26,2.26,0,0,0,.41,1.38h0C-122.7,432-122.68,431.38-122.72,430.83Z" transform="translate(551.17 -262.56)"/><path class="bt" d="M-429.46,399.43a5.13,5.13,0,0,0,0-1.71,2.11,2.11,0,0,0-.36,1.54h0C-429.71,399.39-429.69,400-429.46,399.43Z" transform="translate(551.17 -262.56)"/><path class="bu" d="M-103.22,430.38a1.5,1.5,0,0,0-1.14,0l.38.5h.39Z" transform="translate(551.17 -262.56)"/><path class="bv" d="M-243.24,350.57c.12.15.29.23.29-.07,0-.59,0-1.17,0-1.76a1.77,1.77,0,0,0-.39,1.5h0A1.06,1.06,0,0,0-243.24,350.57Z" transform="translate(551.17 -262.56)"/><path class="p" d="M-216.61,435.27c.43,1,.9.94,1.39.05h0Z" transform="translate(551.17 -262.56)"/><path class="bw" d="M-425.39,376.63s.14,0,.15,0c.33-.61.09-1.26.13-1.89l-.12.27a2.09,2.09,0,0,0-.28,1.47h0C-425.47,376.55-425.44,376.61-425.39,376.63Z" transform="translate(551.17 -262.56)"/><path class="bx" d="M-380.06,336.86c0-.53.2-1.11-.33-1.52h0C-380.24,335.84-380.89,336.51-380.06,336.86Z" transform="translate(551.17 -262.56)"/><path class="by" d="M-325.77,333c-.76.65-.38,1.47-.36,2.24h0C-325.36,334.56-325.86,333.72-325.77,333Z" transform="translate(551.17 -262.56)"/><path class="bz" d="M-431.73,411.16c.05-.08.13-.16.13-.24,0-.53,0-1.06,0-1.59a1.62,1.62,0,0,0-.34,1.42h0Z" transform="translate(551.17 -262.56)"/><path class="ca" d="M-365.3,417.48c0,.34.21.15.3,0a1.13,1.13,0,0,0,.09-.34,1.33,1.33,0,0,0-.38-1.46h0C-365.3,416.31-365.33,416.9-365.3,417.48Z" transform="translate(551.17 -262.56)"/><path class="cb" d="M-330.08,364.59c-.7.64-.3,1.47-.39,2.21h0C-329.63,366.19-330.22,365.33-330.08,364.59Z" transform="translate(551.17 -262.56)"/><path class="cc" d="M-338.3,366.51c0-.65.37-1.35-.34-1.86h0C-338.52,365.27-339.08,366-338.3,366.51Z" transform="translate(551.17 -262.56)"/><path class="cd" d="M-362.63,365.43a1.08,1.08,0,0,0-.24-.14c0,.61-.39,1.31.38,1.76h0C-362.68,366.54-362.06,365.86-362.63,365.43Z" transform="translate(551.17 -262.56)"/><path class="ce" d="M-434,422.71s.13,0,.14,0c.36-.62.08-1.29.14-1.93a2.83,2.83,0,0,0-.4,1.8h0A.68.68,0,0,0-434,422.71Z" transform="translate(551.17 -262.56)"/><path class="cf" d="M-390.19,421a3.66,3.66,0,0,0,.34,2.23h0C-389.95,422.46-389.44,421.62-390.19,421Z" transform="translate(551.17 -262.56)"/><path class="cg" d="M-375.95,359.75a.86.86,0,0,0,.23.17,2,2,0,0,0-.37-1.67h0C-376,358.74-376.38,359.34-375.95,359.75Z" transform="translate(551.17 -262.56)"/><path class="ch" d="M-217.78,316.86c-.6,0-1.24-.14-1.74.37h0C-218.93,317.16-218.24,317.56-217.78,316.86Z" transform="translate(551.17 -262.56)"/><path class="ci" d="M-198,317.21c-.48-.49-1.09-.35-1.67-.35h0C-199.21,317.56-198.54,317.16-198,317.21Z" transform="translate(551.17 -262.56)"/><path class="cj" d="M-371.12,321.38c0-.18-.15-.29-.28-.05a1.21,1.21,0,0,0-.09.34h0a.83.83,0,0,0,.26.93h0C-371.19,322.19-371.13,321.79-371.12,321.38Z" transform="translate(551.17 -262.56)"/><path class="ck" d="M-370.77,324.93c-.09.52-.3,1.07.31,1.45h0C-370.56,325.89-369.92,325.25-370.77,324.93Z" transform="translate(551.17 -262.56)"/><path class="cl" d="M-298.33,326.33a1.28,1.28,0,0,0,.37-1.41h0C-298.8,325.2-298.18,325.87-298.33,326.33Z" transform="translate(551.17 -262.56)"/><path class="cm" d="M-360.32,376.8c0-.05-.12-.11-.19-.17l-.18.48a.78.78,0,0,0,.3.9h0C-360.37,377.61-360.33,377.21-360.32,376.8Z" transform="translate(551.17 -262.56)"/><path class="cn" d="M-308.37,377.45c.68-.48.36-1.16.35-1.78h0C-308.76,376.14-308.35,376.83-308.37,377.45Z" transform="translate(551.17 -262.56)"/><path class="g" d="M-95.33,317.24c0-.35-.06-.83-.51-.78-.3,0-.18.49-.21.77h.72Z" transform="translate(551.17 -262.56)"/><path class="co" d="M-312.7,399.75c.54-.5.34-1.13.34-1.73h0C-313,398.48-312.67,399.15-312.7,399.75Z" transform="translate(551.17 -262.56)"/><path class="cm" d="M-356.38,399.1a1.24,1.24,0,0,0,.37,1.39h0C-356.13,400-355.58,399.39-356.38,399.1Z" transform="translate(551.17 -262.56)"/><path class="cp" d="M-355.67,402.32c-.07.63-.27,1.29.34,1.8h0C-355.34,403.5-354.93,402.8-355.67,402.32Z" transform="translate(551.17 -262.56)"/><path class="cq" d="M-373.23,375c0,.05.12.11.19.16l.11-.23v0l.09-.19c.2-.49-.19-.77-.39-1.12h0C-373.22,374.07-373.24,374.54-373.23,375Z" transform="translate(551.17 -262.56)"/><path class="cr" d="M-314.69,410.5a2.1,2.1,0,0,0,.2-1.66h0C-315.23,409.31-314.94,409.91-314.69,410.5Z" transform="translate(551.17 -262.56)"/><path class="cs" d="M-303.88,353.7v0l0,0c-.07.1-.19.2-.2.31,0,.39-.11.8.26,1.09.31-.28.21-.62.13-.95h0Z" transform="translate(551.17 -262.56)"/><path class="ct" d="M-433,417a2,2,0,0,0-.37,1.68h0C-432.7,418.21-433.11,417.53-433,417Z" transform="translate(551.17 -262.56)"/><path class="as" d="M-300.44,337.16c.59-.37.39-.92.32-1.43h0C-301,336-300.36,336.68-300.44,337.16Z" transform="translate(551.17 -262.56)"/><path class="cu" d="M-364.29,358a1.5,1.5,0,0,0,.15,1.32h0C-363.89,358.89-363.56,358.4-364.29,358Z" transform="translate(551.17 -262.56)"/><path class="cv" d="M-126.31,417.18c0-.06-.12-.11-.18-.17l-.1.22,0,0-.09.18a1.24,1.24,0,0,0,.37,1.11h0C-126.32,418.08-126.3,417.63-126.31,417.18Z" transform="translate(551.17 -262.56)"/><path class="cw" d="M-492.07,352.55h0a.92.92,0,0,0-.33,0c-.05.66-.25,1.34.28,1.91h0C-492.1,353.82-492.09,353.19-492.07,352.55Z" transform="translate(551.17 -262.56)"/><path class="cx" d="M-434.49,424.8a2.38,2.38,0,0,0-.39,1.74h0C-434.08,426.1-434.59,425.39-434.49,424.8Z" transform="translate(551.17 -262.56)"/><path class="cy" d="M-365,354.11c0,.6-.34,1.29.35,1.75h0C-364.72,355.26-364.26,354.56-365,354.11Z" transform="translate(551.17 -262.56)"/><path class="as" d="M-373.55,371.44a1.65,1.65,0,0,0-.16-1.3h0C-373.87,370.6-374.46,371.11-373.55,371.44Z" transform="translate(551.17 -262.56)"/><path class="cz" d="M-316.15,417.69a1.29,1.29,0,0,0,.19-1.32h0C-316.75,416.71-316.33,417.21-316.15,417.69Z" transform="translate(551.17 -262.56)"/><path class="da" d="M-420.79,352a2.81,2.81,0,0,0-.4,1.9h0C-420.4,353.37-420.93,352.59-420.79,352Z" transform="translate(551.17 -262.56)"/><path class="af" d="M-106.48,431.75h0a1.92,1.92,0,0,0-1.44.7A1.26,1.26,0,0,0-106.48,431.75Z" transform="translate(551.17 -262.56)"/><path class="db" d="M-127.71,351.94c0,.28.17.22.28.08a1.17,1.17,0,0,0,.11-.33c0-.42.08-.84-.36-1.11h0C-127.69,351-127.71,351.49-127.71,351.94Z" transform="translate(551.17 -262.56)"/><path class="af" d="M-103.11,433.55c.06.36.37.34.65.3h0l-.13-1.05C-102.88,433-103.17,433.17-103.11,433.55Z" transform="translate(551.17 -262.56)"/><path class="dc" d="M-370.67,386.26a2.38,2.38,0,0,0-.37-1.78h0C-371,385.08-371.42,385.8-370.67,386.26Z" transform="translate(551.17 -262.56)"/><path class="dd" d="M-307.58,373.73a1.37,1.37,0,0,0,.26-1.29h0C-308.1,372.73-307.65,373.27-307.58,373.73Z" transform="translate(551.17 -262.56)"/><path class="de" d="M-366.46,347.27c-.09.52-.2,1.05.33,1.43h0C-366.23,348.22-365.57,347.57-366.46,347.27Z" transform="translate(551.17 -262.56)"/><path class="df" d="M-353.53,413.15c0,.56-.2,1.14.18,1.65h0C-353.06,414.21-352.79,413.62-353.53,413.15Z" transform="translate(551.17 -262.56)"/><path class="dg" d="M-302.43,347.85c.35-.42.21-.88.14-1.34h0C-303,346.89-302.71,347.37-302.43,347.85Z" transform="translate(551.17 -262.56)"/><path class="cc" d="M-351.66,420.89c0-.12,0-.38-.2-.28,0,0,0,0,0,0h0a2.25,2.25,0,0,0-.15.4.88.88,0,0,0,.11.93h0C-351.55,421.71-351.66,421.28-351.66,420.89Z" transform="translate(551.17 -262.56)"/><path class="dh" d="M-315.39,414.09a1.34,1.34,0,0,0,.15-1.3h0C-316,413.14-315.66,413.62-315.39,414.09Z" transform="translate(551.17 -262.56)"/><path class="di" d="M-341.15,345.12c0-.58.27-1.2-.3-1.67h0C-341.45,344-341.85,344.67-341.15,345.12Z" transform="translate(551.17 -262.56)"/><path class="cy" d="M-301.87,344.35c.59-.37.36-.91.3-1.42h0C-302.3,343.27-301.88,343.85-301.87,344.35Z" transform="translate(551.17 -262.56)"/><path class="dj" d="M-300.95,339.31l0,0,0,0c-.25-.14-.22.14-.22.26a1.48,1.48,0,0,0,.21,1.16.93.93,0,0,0,.19-1h0A3.79,3.79,0,0,0-300.95,339.31Z" transform="translate(551.17 -262.56)"/><path class="dk" d="M-379.32,340.13a1.68,1.68,0,0,0-.37-1.38h0C-379.59,339.21-380.11,339.85-379.32,340.13Z" transform="translate(551.17 -262.56)"/><path class="cu" d="M-418.14,337a1.43,1.43,0,0,0-.14,1.36h0C-417.57,338-417.87,337.53-418.14,337Z" transform="translate(551.17 -262.56)"/><path class="dl" d="M-368.63,335.39c0,.62-.23,1.29.35,1.8h0C-368.31,336.57-367.89,335.87-368.63,335.39Z" transform="translate(551.17 -262.56)"/><path class="cl" d="M-317.51,424.88a1.49,1.49,0,0,0,.12-1.27h0C-318.13,424-317.85,424.42-317.51,424.88Z" transform="translate(551.17 -262.56)"/><path class="dm" d="M-354.21,409.89c-.12.53-.27,1.05.32,1.41h0C-353.92,410.82-353.46,410.22-354.21,409.89Z" transform="translate(551.17 -262.56)"/><path class="dn" d="M-133.47,328.89c0,.26.15.24.28.09a.8.8,0,0,0,.1-.32,1,1,0,0,0-.34-1.14h0C-133.45,328-133.47,328.43-133.47,328.89Z" transform="translate(551.17 -262.56)"/><path class="do" d="M-464.65,435.76a2.6,2.6,0,0,0,1.86-.39h0C-463.43,435.37-464.15,435-464.65,435.76Z" transform="translate(551.17 -262.56)"/><path class="dp" d="M-120.2,317.92V378h.39v-1.77q0-28.08,0-56.16c0-.73-.35-1.58.46-2.16h0A.69.69,0,0,0-120.2,317.92Z" transform="translate(551.17 -262.56)"/><path class="dq" d="M-163.33,375.57h0c0,2.51-.1,5-.09,7.53q0,25.22,0,50.44h.41c0-.84,0-1.67,0-2.51l0-55.46Z" transform="translate(551.17 -262.56)"/><path class="dr" d="M-138.51,380.62h0q0,19,0,38c0,.51-.2,1.1.34,1.5h0l-.09-39.55Z" transform="translate(551.17 -262.56)"/><path class="dq" d="M-163.2,341h-.15c-.13,7.34-.15,14.67,0,22a1.38,1.38,0,0,1,.29,0q0-11,0-22Z" transform="translate(551.17 -262.56)"/><path class="dq" d="M-163.43,318.73q0,6.82.08,13.66h.3l.06-14.51h0C-163.49,318-163.43,318.38-163.43,318.73Z" transform="translate(551.17 -262.56)"/><path class="ds" d="M-163.34,363q0,6.3,0,12.59h.29q0-6.29,0-12.57h0A1.38,1.38,0,0,0-163.34,363Z" transform="translate(551.17 -262.56)"/><path class="dt" d="M-163.35,332.39V341h.29c0-2.86,0-5.73,0-8.59h-.3Z" transform="translate(551.17 -262.56)"/><path class="du" d="M-138.25,380.6c.32-1.2-.33-2.51.44-3.65h0c-.35-.93-.64-.57-.69.09-.07,1.19,0,2.38,0,3.58h0Z" transform="translate(551.17 -262.56)"/><path class="dv" d="M-218.32,384.09h.18v-17.4l-.18-.08Z" transform="translate(551.17 -262.56)"/><path class="dv" d="M-199.09,367.31h-.18v15l.18,0Z" transform="translate(551.17 -262.56)"/><path class="dw" d="M-217.31,358.13c-.09-.05-.18-.11-.27-.15s-.1,0-.1.08c0,1.81,0,3.62,0,5.42.07-.34.11-.68.16-1A29.78,29.78,0,0,0-217.31,358.13Z" transform="translate(551.17 -262.56)"/><path class="dx" d="M-217.7,388c0,1.59-.09,3.18,0,4.76.06.93.24.16.35,0h0A15.67,15.67,0,0,0-217.7,388Z" transform="translate(551.17 -262.56)"/><path class="dy" d="M-185,420.08a.43.43,0,0,1,.05.16c0,.15.06.31.32.26-.2-.89.58-1.91-.36-2.7h0C-185,418.56-185,419.32-185,420.08Z" transform="translate(551.17 -262.56)"/><path class="bh" d="M-172.07,382h0V379.6h-.28v2.45h0Z" transform="translate(551.17 -262.56)"/><path class="aa" d="M-200.08,359a1.15,1.15,0,0,1,.32,0,7.22,7.22,0,0,0,0-2.28c-.18-.54-.21.15-.35.23h0A4.35,4.35,0,0,0-200.08,359Z" transform="translate(551.17 -262.56)"/><path class="dz" d="M-216.87,355.18a2.33,2.33,0,0,0,.26-1.47s-.08-.1-.13-.12a.2.2,0,0,0-.14,0c0,.6-.07,1.21-.11,1.81h0A2.53,2.53,0,0,0-216.87,355.18Z" transform="translate(551.17 -262.56)"/><path class="ea" d="M-200.86,397a.91.91,0,0,0,.11.34c.12.14.28.2.29-.09,0-.59,0-1.18,0-1.77h0A1.4,1.4,0,0,0-200.86,397Z" transform="translate(551.17 -262.56)"/><path class="eb" d="M-200.08,359a2.59,2.59,0,0,0,.27,1.91h0c0-.64,0-1.28.05-1.92h0A1.15,1.15,0,0,0-200.08,359Z" transform="translate(551.17 -262.56)"/><path class="ec" d="M-201.2,349.3l-.26,0c0,.28-.07.55-.11.83h0l.37.69Z" transform="translate(551.17 -262.56)"/><path class="q" d="M-200.24,419.44l1.21,0c0-.22,0-.44,0-.66-.53,0-.86.35-1.23.64Z" transform="translate(551.17 -262.56)"/><path class="ed" d="M-395.6,393.22h0l1.74,0c.41-.31.31-.71.25-1.14-.25-2-.47-4-.7-6a2.94,2.94,0,0,1-.21-1.73c-.71-4.89-1.52-9.78-1.79-14.72a.76.76,0,0,1-.11-.22,2.87,2.87,0,0,1-.27-1.61,10.23,10.23,0,0,1-.36-3.57,3.47,3.47,0,0,1-.35-2.19,7.9,7.9,0,0,1-.38-3.2,3.44,3.44,0,0,1-.36-2.09c-.12-.78-.24-1.56-.37-2.33-.49-.52-.34-1.16-.34-1.77h0c-.52.61,0,1.54-.65,2.11l-.36.85h0c-.08,3.06-.69,6.06-1.06,9.09a4.28,4.28,0,0,1-.25,2,1.19,1.19,0,0,1-.12.29h0a6.7,6.7,0,0,1-.34,3,4.16,4.16,0,0,1-.26,2.07,1.18,1.18,0,0,1-.1.3h0c-.06,3.51-.85,6.94-1.2,10.42s-1.19,6.9-.91,10.42Z" transform="translate(551.17 -262.56)"/><path class="ee" d="M-395.6,393.22h0l-8.51,0c.3.55.82.36,1.26.36,2.42,0,4.84,0,7.26,0A1.08,1.08,0,0,0-395.6,393.22Z" transform="translate(551.17 -262.56)"/><path class="ef" d="M-399.48,352.3c-.12-.25.14-.68-.38-.8v4h0l.36-.85C-399.49,353.89-399.48,353.09-399.48,352.3Z" transform="translate(551.17 -262.56)"/><path class="eg" d="M-401.17,366.66a4.28,4.28,0,0,0,.25-2c-.14-.1-.19-.73-.3-.33a10.3,10.3,0,0,0-.07,2.67h0C-401.24,366.85-401.21,366.75-401.17,366.66Z" transform="translate(551.17 -262.56)"/><path class="eh" d="M-396.42,369.34a1.13,1.13,0,0,0,.11.22v-3l-.23,0-.15,1.17A2.87,2.87,0,0,0-396.42,369.34Z" transform="translate(551.17 -262.56)"/><path class="ei" d="M-397.78,358.77v-2.91H-398l-.12.82h0A3.44,3.44,0,0,0-397.78,358.77Z" transform="translate(551.17 -262.56)"/><path class="ej" d="M-399.5,354.68c.64-.57.13-1.5.65-2.11-.11-.31-.34-.35-.63-.27h0C-399.48,353.09-399.49,353.89-399.5,354.68Z" transform="translate(551.17 -262.56)"/><path class="dy" d="M-394.31,386a2.85,2.85,0,0,0,.09-2.07c-.07-.24-.2.2-.3.34A2.94,2.94,0,0,0-394.31,386Z" transform="translate(551.17 -262.56)"/><path class="ek" d="M-401.89,372a4.16,4.16,0,0,0,.26-2.07c-.8.69-.29,1.58-.37,2.38h0C-401.95,372.24-401.92,372.14-401.89,372Z" transform="translate(551.17 -262.56)"/><path class="el" d="M-395.6,393.22a1.08,1.08,0,0,1,0,.31c.57-.16,1.3.49,1.73-.34h0l-1.74,0Z" transform="translate(551.17 -262.56)"/><path class="em" d="M-397,364.16c-.13-.73.43-1.56-.35-2.19h0A3.47,3.47,0,0,0-397,364.16Z" transform="translate(551.17 -262.56)"/><path class="ej" d="M-398.51,354.35c0-.61.33-1.29-.34-1.77C-398.85,353.19-399,353.83-398.51,354.35Z" transform="translate(551.17 -262.56)"/><path class="en" d="M-328.28,431.44h0l-.29,2.21h8.75c.32,0,.58-.09.57-.49-1.72,0-3.44,0-5.16,0C-325.95,433.16-327.73,433.68-328.28,431.44Z" transform="translate(551.17 -262.56)"/><path class="eo" d="M-344.07,433.45h0c2.19.4,4.39.07,6.59.19.37,0,.87.15,1-.46C-339,433.31-341.56,432.85-344.07,433.45Z" transform="translate(551.17 -262.56)"/><path class="ep" d="M-333.35,388.41c.89-.86.23-1.93.39-2.9h0C-333.69,386.4-333.17,387.46-333.35,388.41Z" transform="translate(551.17 -262.56)"/><path class="eq" d="M-334,392.36c.05,0,.08.1.13.12a.23.23,0,0,0,.15,0c0-.62.07-1.24.1-1.86h0C-334.26,391.1-334,391.76-334,392.36Z" transform="translate(551.17 -262.56)"/><path class="er" d="M-485,428.18h0a4.88,4.88,0,0,0,2.09,1.85,41.36,41.36,0,0,0,9.25,3.44h.06l.73.37h0a6.9,6.9,0,0,1,1.22.2c5.13,1.74,9.94.06,14.77-1.37h0a2.54,2.54,0,0,0,1.17-1.67c0-.68-.05-1.37-.08-2.05a1.77,1.77,0,0,0-1.62-1.14c-1.15-.19-2.27-.48-3.41-.73h0a1.31,1.31,0,0,1-1.19-.35h0l-2.57-.06c-.59,0-1.35.35-1.57-.62h0a.2.2,0,0,0-.29-.09c-.65-.12-1.54.47-1.87-.63-.44-.28-1.07.07-1.46-.42a7.77,7.77,0,0,1-1.61-.52c-.53-.29-.23-.5.19-.57h0v-.71l-4.13-.26a11.55,11.55,0,0,0,3.45,2.33,46.73,46.73,0,0,0,13.39,3.53c1.33.11,1.44.77,1.55,1.8.16,1.41-.92.7-1.43.92-.77.33-1.56.62-2.35.89-1.73.59-3.35,1.62-5.31,1.33-6.37-.95-12.64-2.18-18.1-5.93A1,1,0,0,1-485,428.18Z" transform="translate(551.17 -262.56)"/><path class="es" d="M-436.91,405.6a.68.68,0,0,0-.12-.12.27.27,0,0,0-.14,0,5.71,5.71,0,0,0-.11,2.29h0A3.34,3.34,0,0,0-436.91,405.6Z" transform="translate(551.17 -262.56)"/><path class="et" d="M-486.82,425.71a2.48,2.48,0,0,0,0-1.78A2.27,2.27,0,0,0-486.82,425.71Z" transform="translate(551.17 -262.56)"/><path class="ah" d="M-473.57,433.48l-.08,0c-.26.06-.6-.11-.73.34h1.54Z" transform="translate(551.17 -262.56)"/><path class="eu" d="M-445.42,416.38l.23-.1c-.64-.07-1.3-.24-1.85.28h0A3.42,3.42,0,0,0-445.42,416.38Z" transform="translate(551.17 -262.56)"/><path class="ev" d="M-147.9,442.22a2.42,2.42,0,0,0-2.85.92c-.55.83-1.35,1.49-1.95,2.3a23,23,0,0,0-4.57,9.57c-.11.62-.31,1.39.34,1.83s1.23,0,1.84-.27c2.5-1.28,4.19-3.42,5.81-5.59,1.15-1.54,2.48-3.05,2.73-4.94-.08-.65-.11-1.13-.2-1.6C-146.92,443.59-146.87,442.48-147.9,442.22Z" transform="translate(551.17 -262.56)"/><path class="ew" d="M-261.13,443.87c.23-.76.26-1.36-.54-1.82a1.47,1.47,0,0,0-2,.48,14.36,14.36,0,0,0-3.34,8C-264.16,448.89-262,446.94-261.13,443.87Z" transform="translate(551.17 -262.56)"/><polygon class="c" points="258.95 117.7 258.95 117.7 258.95 117.7 258.95 117.7"/><path class="c" d="M-291.9,382.12q0,11.83,0,23.66h38.1l.09-14h0q0-5.86,0-11.73h0a4.94,4.94,0,0,0-.53-.1c-11.48,0-23-.05-34.45,0-1.19,0-2.46-.32-3.6.35C-291.64,380.8-291.9,381.5-291.9,382.12Zm37.41-1.73-.08.17h-32.52v-.17Z" transform="translate(551.17 -262.56)"/><path class="ex" d="M-253.77,405.79h-38.1l0,.41h0a9.38,9.38,0,0,0,1,.12h36.11a9.58,9.58,0,0,0,1.06-.13Z" transform="translate(551.17 -262.56)"/><path class="ey" d="M-291.87,405.78q0-11.82,0-23.66c0-.62.26-1.32-.32-1.85h0a2.36,2.36,0,0,0-.12.51q0,12.21,0,24.4c0,.37-.18.88.44,1h0Z" transform="translate(551.17 -262.56)"/><path class="ez" d="M-253.42,391.77h-.26l-.09,14h0l.09.39c.59-.29.32-.84.32-1.26C-253.36,400.54-253.39,396.15-253.42,391.77Z" transform="translate(551.17 -262.56)"/><polygon class="fa" points="297.75 117.39 297.75 117.39 297.75 117.4 297.75 117.39"/><path class="fa" d="M-253.68,391.77h.26V380a.42.42,0,0,0-.22.08h0Q-253.67,385.91-253.68,391.77Z" transform="translate(551.17 -262.56)"/><path class="fb" d="M-471.36,424.37a7.77,7.77,0,0,0,1.61.52c-.17-1.27.81-.7,1.23-.66a65.21,65.21,0,0,0,8.15.23c-3.57-.79-7.19-.64-10.8-.66h0C-471.59,423.87-471.89,424.08-471.36,424.37Z" transform="translate(551.17 -262.56)"/><path class="dv" d="M-453.93,424.88c-2.26,0-4.51,0-6.76,0,2.62.62,5.29.06,7.92.58a.91.91,0,0,0,1-1l-.34,0a.74.74,0,0,1-.13.12C-452.71,425.08-453.36,424.87-453.93,424.88Z" transform="translate(551.17 -262.56)"/><path class="n" d="M-466.42,425.94a2.5,2.5,0,0,0-1.87-.63C-468,426.41-467.07,425.82-466.42,425.94Z" transform="translate(551.17 -262.56)"/><path class="n" d="M-464.56,426.65a2.48,2.48,0,0,0-1.57-.62h0C-465.91,427-465.15,426.6-464.56,426.65Z" transform="translate(551.17 -262.56)"/><path class="fc" d="M-460.8,427.07h.05l.71-.11,0-.25H-462A1.31,1.31,0,0,0-460.8,427.07Z" transform="translate(551.17 -262.56)"/><path class="fd" d="M-455.73,429h0c0,.68.06,1.37.08,2.05A1.47,1.47,0,0,0-455.73,429Z" transform="translate(551.17 -262.56)"/><path class="u" d="M-287.09,380.56h32.52l.08-.17h-32.6Z" transform="translate(551.17 -262.56)"/></svg>