<svg id="Layer_1" data-name="Layer 1" xmlns="http://www.w3.org/2000/svg" viewBox="0 0 792 419"><defs><style>.cls-1{fill:#231f20;}.cls-2{fill:#e83d30;}.cls-3,.cls-4{fill:#fff;}.cls-4{fill-rule:evenodd;}</style></defs><title>bobcat</title><rect class="cls-1" y="266.48" width="792" height="152.52"/><rect class="cls-2" width="792" height="274"/><path class="cls-3" d="M132.61,431.18a22.77,22.77,0,0,1,1.28-7.28,18.16,18.16,0,0,1,4.21-7,21.53,21.53,0,0,1,8.49-5.35q5.24-2,13.6-2a40.47,40.47,0,0,1,13.85,2,20.3,20.3,0,0,1,8.49,5.35,14.15,14.15,0,0,1,2.62,3.31,17.73,17.73,0,0,1,1.59,3.71,27.85,27.85,0,0,1,1,7.26v35.78a26.22,26.22,0,0,1-1,6.91,19.54,19.54,0,0,1-1.59,3.54,16.53,16.53,0,0,1-2.62,3.6A21,21,0,0,1,174,486.3a40,40,0,0,1-13.85,2.27q-8.37-.12-13.6-2.27A22.33,22.33,0,0,1,138.1,481a19.72,19.72,0,0,1-4.21-7.13,21.41,21.41,0,0,1-1.28-6.91Zm22,37.13a8.72,8.72,0,0,0,.7,4.06c.69,1.36,2.32,2.07,4.87,2.15,2.74-.08,4.42-.79,5-2.15a14.48,14.48,0,0,0,.56-4.06V429.73a15.78,15.78,0,0,0-.56-4.18,3.67,3.67,0,0,0-1.6-1.51,9.1,9.1,0,0,0-3.42-.52c-2.55.08-4.18.75-4.87,2a9.41,9.41,0,0,0-.7,4.18Z" transform="translate(0 -95)"/><path class="cls-3" d="M197.53,411.85h5.23v-5.46a16.45,16.45,0,0,1,1.69-8.13,8.68,8.68,0,0,1,4.12-4.24,16.13,16.13,0,0,1,6.13-1.8q3.44-.23,7.31-.23h8.32v13.23h-2.21q-4.44.12-4.17,3.87v2.76h6.38V426.6h-5.57V487h-22V426.6h-5.23Z" transform="translate(0 -95)"/><path class="cls-3" d="M285.69,392H317l19.22,95H311.49l-2.2-16.89H292.76L290.32,487H266.71Zm10.47,61.27h12.17l-5.7-46.53h-.26Z" transform="translate(0 -95)"/><path class="cls-3" d="M342.08,392h22v25.9h.25q4.81-8.42,16.87-8.42,16,.24,16,19.28V465.8q-.25,22.36-17,22.77-11.38-.12-15.92-9.14l-.26,0V487h-22Zm22,68.71a29.77,29.77,0,0,0,.84,8.13q.9,4.13,5.43,4.24a5.16,5.16,0,0,0,3.41-1.16q1.47-1.11,1.47-3.84V429.56a4.4,4.4,0,0,0-1.47-3.6,5.9,5.9,0,0,0-3.41-1q-3.69.12-4.95,3a13.84,13.84,0,0,0-1.32,6.69Z" transform="translate(0 -95)"/><path class="cls-3" d="M407.05,392h22V406h-22Zm0,19h22v76h-22Z" transform="translate(0 -95)"/><path class="cls-3" d="M442.43,392h22v95h-22Z" transform="translate(0 -95)"/><path class="cls-3" d="M475,431.16a22.71,22.71,0,0,1,1.28-7.27,18.25,18.25,0,0,1,4.21-7A21.55,21.55,0,0,1,489,411.5q5.24-2,13.6-2a40.47,40.47,0,0,1,13.85,2,20.39,20.39,0,0,1,8.49,5.34,14.36,14.36,0,0,1,2.62,3.31,17.81,17.81,0,0,1,1.59,3.72,27.85,27.85,0,0,1,1,7.26V452H497V468.3a8.76,8.76,0,0,0,.7,4.07c.69,1.35,2.32,2.07,4.87,2.15,2.74-.08,4.42-.8,5-2.15a14.55,14.55,0,0,0,.56-4.07v-9.47h22v8.08a26.22,26.22,0,0,1-1,6.91,19.54,19.54,0,0,1-1.59,3.54,16.53,16.53,0,0,1-2.62,3.6,21,21,0,0,1-8.49,5.34,40,40,0,0,1-13.85,2.27q-8.37-.12-13.6-2.27A22.33,22.33,0,0,1,480.5,481a19.9,19.9,0,0,1-4.21-7.14,21.41,21.41,0,0,1-1.28-6.91ZM497,438h11.15v-8.28a15.71,15.71,0,0,0-.56-4.17A3.71,3.71,0,0,0,506,424a9.1,9.1,0,0,0-3.42-.52c-2.55.08-4.18.75-4.87,2a9.42,9.42,0,0,0-.7,4.17Z" transform="translate(0 -95)"/><path class="cls-3" d="M539.84,411h21.28v8.54h.25a23.71,23.71,0,0,1,6.75-7.49q3.76-2.49,10-2.5,8.5.12,12.78,4.65,4.08,4.45,4.08,11.6V487H573V435a22.09,22.09,0,0,0-.56-4.77,4.36,4.36,0,0,0-1.6-1.92,8.26,8.26,0,0,0-3.42-.58c-2.55.08-4.18,1-4.87,2.85a12.62,12.62,0,0,0-.7,4.42v52h-22Z" transform="translate(0 -95)"/><path class="cls-3" d="M602,431.16a22.44,22.44,0,0,1,1.28-7.27,18.12,18.12,0,0,1,4.21-7A21.4,21.4,0,0,1,616,411.5q5.24-2,13.6-2a40.47,40.47,0,0,1,13.85,2,20.39,20.39,0,0,1,8.49,5.34,14.36,14.36,0,0,1,2.62,3.31,17.81,17.81,0,0,1,1.59,3.72,27.85,27.85,0,0,1,1,7.26V452H624V468.3a8.64,8.64,0,0,0,.7,4.07c.69,1.35,2.32,2.07,4.87,2.15q4.11-.12,5-2.15a14.55,14.55,0,0,0,.56-4.07v-9.47h22v8.08a26.22,26.22,0,0,1-1,6.91,19.54,19.54,0,0,1-1.59,3.54,16.53,16.53,0,0,1-2.62,3.6,21,21,0,0,1-8.49,5.34,40,40,0,0,1-13.85,2.27q-8.37-.12-13.6-2.27a22.17,22.17,0,0,1-8.49-5.34,19.76,19.76,0,0,1-4.21-7.14,21.14,21.14,0,0,1-1.28-6.91ZM624,438h11.15v-8.28a15.71,15.71,0,0,0-.56-4.17A3.71,3.71,0,0,0,633,424a9.1,9.1,0,0,0-3.42-.52c-2.55.08-4.18.75-4.87,2a9.28,9.28,0,0,0-.7,4.17Z" transform="translate(0 -95)"/><path class="cls-4" d="M313.77,237.78h-7.4V208.6c8.63,0,16.44-.41,16.44,10.27,0,8.63.41,18.91-9,18.91Zm-38.64,80.55H322.4c33.69,0,33.69-32.06,33.69-42.74,0-1.65,0-22.2-17.26-27.54,15.21-8.63,14-26.71,14-35.34,0-.82,0-27.54-30-27.54H275.13V318.33Zm31.24-23.84V260.38c12.33.41,17.67,0,17.67,16,0,18.49-4.11,18.08-17.67,18.08Z" transform="translate(0 -95)"/><path class="cls-4" d="M398,230.38c5.76,0,5.76,7.4,5.76,9.86v49.32c0,2.88,0,9.86-5.76,9.86-6.16,0-6.16-7-6.16-9.45V239.83c0-2.05,0-9.45,6.16-9.45Zm.41,90.41c34.94,0,34.94-27.94,34.94-30.82V246c0-10.69,0-35.76-34.94-35.76-35.75,0-35.75,25.07-35.75,31.24V290c0,4.93,0,30.82,35.75,30.82Z" transform="translate(0 -95)"/><path class="cls-4" d="M682.4,213.12h5.75V190.93h29.18v22.19h7.81v21.37h-7.81v53c0,10.69,1.65,9.87,8.22,10.69v20.55c-3.29,1.64-11.09,1.64-15.2,1.64-7.81,0-22.2-2.05-22.2-21.78V234.49H682.4V213.12Z" transform="translate(0 -95)"/><path class="cls-4" d="M479.8,233.26c4.52,0,4.52,5.75,4.52,8.63v47.67c0,6.57-1.65,9-4.52,9-3.7,0-7-4.11-7-14V246c0-4.52,1.64-12.74,7-12.74Zm-36.58,85.07H472v-9.87a23.11,23.11,0,0,0,20.55,12.33c21.37,0,21.78-21.37,21.78-34.11v-48.9c0-5.76,0-27.54-21.37-27.54-10.28,0-17.26,8.63-20.55,14V185.17H443.22V318.33Z" transform="translate(0 -95)"/><path class="cls-4" d="M594.45,252.57H565.69V239s0-8.22-6.17-8.22c-5.75,0-5.75,7.81-5.75,14v41.92c0,7,0,14,5.75,14,6.17,0,6.17-6.16,6.17-14v-14h28.76c-.41,22.6,2.88,48.08-34.93,48.08-35.34,0-35.75-27.12-35.75-38.22V246.82c0-10.28,0-36.58,35.75-36.58,32.47,0,34.93,17.67,34.93,42.33Z" transform="translate(0 -95)"/><path class="cls-4" d="M632.67,279.7c0-8.22,6.58-10.69,12.33-14.8v18.49c0,9.46-.82,13.15-7,13.15-2.88,0-5.35-1.64-5.35-5.34V279.7ZM645,318.33h28.77V240.24c0-21-17.67-28.76-34.93-28.76-17.67,0-35.34,7.8-35.34,28.76v7.4h29.17v-9c0-4.11,1.24-7.81,6.17-7.81s6.16,3.7,6.16,7.81c0,19.31-41.5,16-41.5,43.56v16c0,13.56,7.8,21.37,20.54,21.37,11.51,0,16.85-6.17,20.55-13.56H645v12.33Z" transform="translate(0 -95)"/><path class="cls-4" d="M41.29,132.57c7,13.56,10.69,22.19,25.9,31.23,15.61,9,17.67,7.81,19.31,8.22A5,5,0,0,1,89,176.13c3.7,0,16.44-2,22.6-1.64s20.14,2.46,30,5.75c7,2.06,15.62,5.34,16.85,5.76,1.64.41,4.11,1.23,5.75-.42,1.65-2.05-.41-2.87,8.63-6.57s18.09-8.22,21-9.45a106.62,106.62,0,0,0,25.07-18.09c1.24-1.23,1.65-1.64,2.06-1.23a1.36,1.36,0,0,1,0,2.06A212.74,212.74,0,0,1,209,177.37c-2.06,3.28-13.56,16-15.21,17.26-1.64,1.64-7.8,7-7.8,7s-5.35,4.52-.42,7.81c4.94,3.7,2.88,7.4-.82,10.28-3.7,2.46-13.15,8.63-21.37,7.8s-5.75,0-10.68-2.46c-1.65-.82-4.11-.82-2.88.82a2.13,2.13,0,0,1,.41,2c-1.64,5.76-1.64,14.39-.82,17.26a19.59,19.59,0,0,0,3.7,7.81c.41.83,1.64,1.24-.82,1.24-2.06,0-2.47-.41-4.11-1.65-2.06-.41-8.22-1.23-10.69.82s-.82,1.24-6.16,2.47c-1.65.82-2.47,2.05,0,4.93a59.75,59.75,0,0,0,5.34,5.34c.82.41,4.52,1.24-.41,4.11-4.52,2.88-9.86,6.58-21.37,5.76S98.42,269,96,264.49c-2-4.11-1.23-6.16-9.45-6.16s-22.19,2.87-26.71,3.28c-7.81,1.24-6.17,2.47-11.92-2.05-7.81-6.58-12.33-11.1-13.15-11.92s-3.29-1.64-1.23-6.16A83.06,83.06,0,0,1,46.23,219.7c8.22-9.87,9.86-11.92,12.74-14,6.16-4.93,3.28-5.34,9.86,0,5.34,4.11,10.68,8.22,14.38,10.28,3.7,1.64,4.52,2.05,7,7.8,2.47,6.17,4.93,10.69,5.75,12.33s6.58,6.58,11.51,7c7.81,0,14.38.41,19.32-5.34,2.05-5.35,3.28-9.45,6.16-12.33,1.23-1.23,1.64-2.47,0-2.47s-11.92-.41-15.21-1.23-29.17-9-32.87-10.69c-3.29-1.64-19.32-7.39-27.54-18.08-8.22-11.09-9-14.38-13.15-29.18-2.88-11.5-2.88-31.64-2.88-31.23Z" transform="translate(0 -95)"/><path class="cls-4" d="M189.65,223c-.41,2.88,0,25.48,4.94,31.65,1.64,1.23,2.46,2.87.82,2.87-1.24.41-10.69,0-11.92,0-.82,0-2.47-.41-2.47,2.47.41,3.7-.41,10.68-6.57,13.15-5.35,2.06-11.1,4.52-21.78-1.23-3.29-2.88-4.11-3.7-4.52-4.11s-.41-.82,0-1.65c.82-.82,7-7.39,8.22-9.86,1.23-2.88.82-2.88,0-4.52.41.82-4.52-6.16,0-5.75,3.28.41,10.27,2.46,15.61,0,5.34-2.06,10.69-4.52,12.74-16.44.41-4.52.41-5.76,2.47-7.4,1.23-1.64,2.46-4.11,2.46.82Z" transform="translate(0 -95)"/><path class="cls-4" d="M199.52,263.67c5.75,2.87,14.79,8.22,16.85,13.15.82,1.23,1.23,4.11-1.24.82-2.87-2.88-8.22-9.45-22.19-11.92-3.7-.41-8.63,0-8.22-3.29.41-1.64,0-3.28,5.76-2.05,4.93,1.64,9,3.29,9,3.29Z" transform="translate(0 -95)"/><path class="cls-4" d="M195,270.65a36.38,36.38,0,0,1,11.91,9.46c.83,1.23,1.65,2.05.83,2.46-1.24.82-1.65.41-2.88-.82s-8.22-7-20.14-9.86c-2.05-.83-3.29-1.65-1.23-3.29s2-1.23,4.11-.41c2.05.41,7,2.46,7.4,2.46Z" transform="translate(0 -95)"/><path class="cls-4" d="M189.65,279.7a119,119,0,0,1,9.87,9.45c.82,1.23.82,1.23-.83.82-1.64,0-4.1-3.29-6.16-4.52-2.47-1.23-10.68-6.58-12.74-7-2-.82-2.88-1.23-1.23-2.87,1.23-1.65,1.23-1.24,2.46-.83,1.65.83,8.63,4.94,8.63,4.94Z" transform="translate(0 -95)"/><path class="cls-4" d="M156,277.23c1.24.82,3.29,1.23,1.65,4.93a17.35,17.35,0,0,1-6.58,9.45c-1.64.83-6.57,4.11-2.05-1.64,1.64-4.11,2.88-6.17,2.88-11.51,0-2-.42-2.87,2.46-2.46a7.65,7.65,0,0,1,1.64,1.23Z" transform="translate(0 -95)"/><path class="cls-4" d="M120.61,299c2.06,4.52,5.34,8.63,9.86,8.63a15.84,15.84,0,0,0,12.74-6.16,10.09,10.09,0,0,1-1.64,6.16c-.41,1.23-1.64,2.88-.41,5.34,1.64,2.47.82,5.76,0,7.4-.41,2.06-2,7-9.86,7s-18.09,0-22.2-1.65c-2.87-1.23-4.1-.41-3.69-6.57a55.56,55.56,0,0,1,1.23-11.1c.41-2.05,1.23-2.88,4.52-2.88h4.11c1.23-.41,1.64-.82,1.64-2.46a20.31,20.31,0,0,1,1.24-6.58c1.23-1.64,1.64-1.23,1.64,0a17,17,0,0,1,.82,2.88Z" transform="translate(0 -95)"/><path class="cls-4" d="M131.3,278.46c-.83,3.7-2.88,11.1-5.76,14.8-.82-4.11-2.05-9-2.05-10.69s-1.65-2.46,4.52-4.93c4.93-2.05,3.29.82,3.29.82Z" transform="translate(0 -95)"/><path class="cls-4" d="M67.19,296.54c2.87-4.1,19.31-17.26,21.37-18.08A24.13,24.13,0,0,1,93.49,276c4.93-1.24,4.93,1.64,3.29,3.7C91,281.75,82.39,287.5,76.23,292c-4.52,3.29-11.51,10.28-13.56,13.15-1.24.42-3.29,0-1.65-2.05,2.47-2.88,6.17-6.16,6.17-6.58Z" transform="translate(0 -95)"/><path class="cls-4" d="M49.51,288.33c13.16-11.1,23.43-14.39,33.29-17.27,4.93-1.23,9.46-2.05,10.69.42.41,1.64,0,2.46-1.65,2.87-7,0-18.9,2.88-30.82,9.87a78,78,0,0,0-12.74,9.45c-1.23,1.23-4.93,0-2.05-2.06,2.87-2.46,3.28-3.28,3.28-3.28Z" transform="translate(0 -95)"/><path class="cls-4" d="M46.64,273.12a97.34,97.34,0,0,1,27.12-9.45s10.69-2.06,15.62-.82c3.7,4.93,1.23,4.52-1.65,4.52a98.57,98.57,0,0,0-29.17,4.93c-9.46,2.88-20.14,8.63-23.84,10.27-1.23.41-2.47.41-2.06-1.23.42-1.23,2.88-2.47,3.7-2.88s10.28-5.34,10.28-5.34Z" transform="translate(0 -95)"/><path class="cls-4" d="M747.33,317.09a10.17,10.17,0,0,1-10.27-10.27c0-6.17,4.52-10.69,10.27-10.69s10.28,4.52,10.28,10.69a10.17,10.17,0,0,1-10.28,10.27Zm0,1.65a12.13,12.13,0,0,0,0-24.25A12.37,12.37,0,0,0,735,306.82c0,6.57,5.76,11.92,12.33,11.92Zm2.06-11.51c2.46,0,4.11-1.23,4.11-3.7,0-2-1.23-3.7-4.93-3.7h-5.76v13.56h1.65v-6.16h2.87l4.11,6.16h2.06l-4.11-6.16ZM744.46,306v-4.93h3.7c2.05,0,3.69.41,3.69,2.46,0,2.88-2.87,2.47-4.93,2.47Z" transform="translate(0 -95)"/></svg>