<svg xmlns="http://www.w3.org/2000/svg" viewBox="0 0 429.77 152.31"><defs><style>.a{fill:#ed1b2e;stroke:#000;stroke-linecap:round;stroke-linejoin:round;stroke-width:2.64px;}.b{fill:#ffd520;}.c{fill:#231f20;}</style></defs><title>md_lotto</title><path d="M164,110.39h-8.71V68h13.87l4.67,19.69a89.82,89.82,0,0,1,1.62,9.78h.12a83.87,83.87,0,0,1,1.37-9.78L181.57,68h13.81v42.43h-8.71V97c0-8.43.18-16.86.74-25.29h-.12L178,110.39h-5.29l-9.15-38.64h-.31c.56,8.43.75,16.86.75,25.29Z" transform="translate(-1.23 -32.16)"/><path d="M200,110.39,211.17,68h11.76l10.57,42.43h-9.33l-2.3-10.75H211.66l-2.3,10.75Zm13-17h7.47l-2.36-12c-.44-2-.63-3.9-.88-5.88-.06-1-.18-1.93-.31-2.83h-.12c-.12.9-.25,1.86-.31,2.83-.25,2-.44,3.9-.87,5.88Z" transform="translate(-1.23 -32.16)"/><path d="M245.72,92.11v18.28H237V68H253.5c7.53,0,13.25,2.38,13.25,10.18,0,4.64-1.3,9.51-7.15,10.24v.12c5.16.62,6.72,3.61,6.72,7.69,0,1.75-.25,12.16,1.86,13.4v.8H258.6c-1.06-2.72-.87-7.92-.93-10.75-.06-2.6,0-6.17-3-7a29.35,29.35,0,0,0-7.4-.57Zm0-6.22h6.85c2.86-.17,5.1-1.86,5.1-6.11,0-4.75-2.18-5.54-5.48-5.59h-6.47Z" transform="translate(-1.23 -32.16)"/><path d="M281.14,79.11a26.59,26.59,0,0,1,2.06,6.5h.12a34.26,34.26,0,0,1,2.86-8L290.35,68h9.52L287.55,92.34v18h-8.71v-18L266.71,68h9.52Z" transform="translate(-1.23 -32.16)"/><path d="M302.29,110.39V68H311v36.2h16.18v6.23Z" transform="translate(-1.23 -32.16)"/><path d="M329.73,110.39,340.87,68h11.76l10.57,42.43h-9.33l-2.31-10.75h-10.2l-2.3,10.75Zm13-17h7.47l-2.37-12c-.43-2-.62-3.9-.87-5.88-.06-1-.18-1.93-.31-2.83h-.12c-.13.9-.25,1.86-.32,2.83-.25,2-.43,3.9-.87,5.88Z" transform="translate(-1.23 -32.16)"/><path d="M387.58,68h8.71v42.43h-9.08l-6.78-15.11a133.67,133.67,0,0,1-6.22-16.85h-.13c.31,3.5.68,7.8.94,12.1s.43,8.49.43,11.88v8h-8.71V68h9l6.78,15.45a132.54,132.54,0,0,1,6.22,16.85h.13c-.31-3.85-.62-8-.87-12.05s-.44-8.14-.44-11.93Z" transform="translate(-1.23 -32.16)"/><path d="M401.26,110.39V68h18.17a11.11,11.11,0,0,1,9,4.81c2,2.94,2.55,7.64,2.55,14.65,0,8.37,0,18-7.16,21.83a13.9,13.9,0,0,1-6.47,1.14Zm12.51-6.23c7.77,0,8.27-3.73,8.27-16,0-10-1.12-14-6.35-14H410v30Z" transform="translate(-1.23 -32.16)"/><path d="M154.71,160.25V117.83H164V154h17.16v6.23Z" transform="translate(-1.23 -32.16)"/><path d="M182.58,135.64c.39-10.8,1.38-18.83,16.16-18.83s15.78,8,16.17,18.83v6.05c0,11.32-1,19.58-16.17,19.58s-16.16-8.26-16.16-19.58Zm9.5,10c0,3.51.33,9.22,6.66,9.22,6.6,0,6.67-5.82,6.67-9.9V134.12c0-3.4.19-10.92-6.67-10.92-7.26,0-6.66,7.41-6.66,10.69Z" transform="translate(-1.23 -32.16)"/><path d="M215.46,117.83h30.81v6.22H235.52v36.2h-9.24v-36.2H215.46Z" transform="translate(-1.23 -32.16)"/><path d="M249,117.83h30.82v6.22H269.1v36.2h-9.24v-36.2H249Z" transform="translate(-1.23 -32.16)"/><path d="M283.36,160.25V117.83h26v6.22H292.6v10.69H308V141H292.6V154h16.77v6.23Z" transform="translate(-1.23 -32.16)"/><path d="M322.21,142v18.27H313V117.83h17.48c8,0,14.06,2.37,14.06,10.18,0,4.64-1.39,9.5-7.59,10.24v.11c5.48.62,7.13,3.62,7.13,7.69,0,1.75-.27,12.16,2,13.41v.79H335.88c-1.13-2.72-.93-7.92-1-10.75-.07-2.6,0-6.17-3.17-7a33,33,0,0,0-7.85-.56Zm0-6.22h7.26c3-.17,5.42-1.87,5.42-6.11,0-4.75-2.31-5.54-5.81-5.6h-6.87Z" transform="translate(-1.23 -32.16)"/><path d="M359.89,129a25.24,25.24,0,0,1,2.17,6.5h.13a32.84,32.84,0,0,1,3-8l4.42-9.61h10.1l-13.07,24.38v18h-9.24v-18l-12.87-24.38h10.1Z" transform="translate(-1.23 -32.16)"/><path class="a" d="M77.57,58.57C73.2,54.51,58.65,33.48,58.65,33.48s5.82,33.69-4.31,39S12.62,64,12.62,64,28.08,77.88,33.21,84.66,39.93,97,36,101.12c-4.52,4.67-33.41,11.61-33.41,11.61s12.36,1.58,19.06,3.41c8.32,2.27,15.57,2.89,19.59,8.42,6.91,9.49-10,25.92-15.6,35.13,7.67-4.11,23.45-12.79,29.46-9.93s7.46,23.87,6.39,32c0,0,12.86-22.17,20.59-25.7a7.16,7.16,0,0,1,3.61-.7c10.28.2,18.9,27.76,18.9,27.76s-3.83-32.42,6.5-37.52c7-4.91,36.81,15.23,36.81,15.23s-22.75-28-18.71-35.4,38-16.12,38-16.12S130.39,105.09,129.4,97c-1.88-7.49,22.31-31.66,22.31-31.66s-27.53,15.25-36.44,10.83c-2.85-2-5.4-4.42-5.48-9.25-.25-13,5.41-29.84,5.41-29.84S90.31,70.38,77.57,58.57Z" transform="translate(-1.23 -32.16)"/><path d="M78.57,72.44a37.2,37.2,0,1,0,43.6,29.45A37.25,37.25,0,0,0,78.57,72.44Zm12.55,64.8a28.8,28.8,0,1,1,22.8-33.75A28.81,28.81,0,0,1,91.12,137.24Z" transform="translate(-1.23 -32.16)"/><path class="b" d="M76.62,71.55A37.2,37.2,0,1,0,120.22,101,37.24,37.24,0,0,0,76.62,71.55Zm12.55,64.8A28.8,28.8,0,1,1,112,102.6,28.79,28.79,0,0,1,89.17,136.35Z" transform="translate(-1.23 -32.16)"/><path d="M81.47,126.47l-6.06-31.3,8.14-1.57,4.65,24,11.12-2.15,1.42,7.31Z" transform="translate(-1.23 -32.16)"/><path class="b" d="M79.23,125.28,73.17,94l8.14-1.58,4.65,24,11.12-2.15,1.42,7.3Z" transform="translate(-1.23 -32.16)"/><path class="c" d="M386.62,139a10.13,10.13,0,1,1-6.6,17.52,10.15,10.15,0,0,1,6.6-17.52Zm12.09,9.7A11.18,11.18,0,0,0,395,140.5a11.76,11.76,0,0,0-16.08,17.16,11.76,11.76,0,0,0,19.79-9ZM390,146.45a1.93,1.93,0,0,1-1.28,2,6,6,0,0,1-2.15.36l-2.09.07-.15-4.61,2-.06a5.94,5.94,0,0,1,2.78.4A1.91,1.91,0,0,1,390,146.45Zm-8-3.69.43,12.87,2.24-.07-.16-5,1.81-.06a5.54,5.54,0,0,1,2.56.32c.85.45,1.28,1.4,1.33,2.89l0,1,.05.41c0,.06,0,.1.05.14a.79.79,0,0,0,0,.13l2.09-.07-.07-.17a1.72,1.72,0,0,1-.12-.66c0-.35-.05-.65-.06-.94l0-.94a3.46,3.46,0,0,0-.79-2,3.13,3.13,0,0,0-2.25-1.2,5.24,5.24,0,0,0,1.85-.68,2.79,2.79,0,0,0,1.17-2.59,3.21,3.21,0,0,0-2.1-3.21,10,10,0,0,0-3.55-.34Z" transform="translate(-1.23 -32.16)"/></svg>