<svg id="Layer_1" data-name="Layer 1" xmlns="http://www.w3.org/2000/svg" viewBox="0 0 764.05 194.5"><defs><style>.cls-1{fill:#fff;}</style></defs><title>sanford-health-logo</title><path class="cls-1" d="M130.85,233.88h0c-2.22-2.82-3.72-6.06-5.43-9.18h0a5.16,5.16,0,0,1-1.47-2.88h0a4,4,0,0,1-1.45-2.46h0c-6.19-10.2-12.35-20.42-17.59-31.15h0c-4.41-1.59-9-.33-13.46-.74l-1.63,2.92h0a3.5,3.5,0,0,1-1.45,2.85h0l-.7,1h0a19.62,19.62,0,0,1-3.78,6.87v0C79.52,210,74.53,218.52,69.46,227c-1,3.21-3.58,5.66-4.41,9h0l11.64-.05c2.4-7.3,6.43-11.45,15.11-10.06,6,1,12.34.3,18.52.13,2.44-.07,3.95.51,5,2.86A71,71,0,0,0,119.6,236h0l12-.1Zm-25.53-18.29c-4.92,0-9.84-.05-14.76,0-2,0-2.53-.55-1.45-2.39,2.86-4.89,5.65-9.82,8.79-15.3,3.15,5.59,5.9,10.54,8.71,15.46C107.54,215,107.21,215.61,105.32,215.59Z" transform="translate(253 -42.18)"/><path class="cls-1" d="M39.68,226.4a8.12,8.12,0,0,0-4-.53c-10.59,0-21.18-.08-31.77,0C1,225.89-.08,225.06.08,222c.33-6.68-.79-5.68,5.92-5.75,5.67-.06,11.35,0,17,0q-.07-5.29-.14-10.57h0l-19.6-.08H2.52c-4.57-.08-1.74-3.52-2.27-5.33-.63-2.12,1.08-2.34,2.77-2.34,10.76,0,21.52-.14,32.28.11,3.63.08,5.13-.85,4.56-4.57a46.58,46.58,0,0,1-.23-5.29h0a1.13,1.13,0,0,0,0-.73l-49.81.07h0q0,24.22-.09,48.45h0a2,2,0,0,0,.62-.11l48.68.18c.51-2.05-.38-4.24.63-6.25h0A2.29,2.29,0,0,1,39.68,226.4Z" transform="translate(253 -42.18)"/><path class="cls-1" d="M354.87,187.41h0a1.52,1.52,0,0,0-.58.23l-.78,0h0a5,5,0,0,0-3,0h0c-2.27.24-4.85-1.48-6.77,1,1.7,4.89.52,9.91.64,14.87,0,1.37-1.42,1.16-2.39,1.16-10.23,0-20.46,0-30.69,0-2,0-2.66-.68-2.6-2.65.13-4.67.1-9.34.13-14h0l-.85-.81h0l-9.59.16q-.06,24.23-.11,48.45h0l10.37,0h0q0-9.12,0-18.24h0c-.3-2.72,1.3-3,3.49-3,10.75.07,21.5,0,32.25,0l.07,2.22q0,.38,0,.77h0q.12,9.09.25,18.18h0l5.87-.08h3.8a1.48,1.48,0,0,0,.66.11Q354.91,211.7,354.87,187.41Z" transform="translate(253 -42.18)"/><path class="cls-1" d="M272.33,188.13h0l-.85-.81h0c-17.13,0-34.27.08-51.4.18-1.28,0-2.77-.68-3.88.63l-.08,1.52q0,4.09-.06,8.17h0c6.45,0,12.9.18,19.34,0,2.61-.06,3.49.68,3.45,3.38-.15,10.11-.06,20.23-.06,30.35,0,5.14,0,5.14,5.05,5.06.88,0,1.76-.13,2.64-.2h0c2.44.65,2.41-1,2.4-2.59q-.07-17.46-.14-34.92c1-1.3,2.48-1,3.84-1,5.42,0,10.85-.13,16.27.05,2.66.09,3.63-.76,3.4-3.42A62.44,62.44,0,0,1,272.33,188.13Z" transform="translate(253 -42.18)"/><path class="cls-1" d="M204.6,226.07l-.36-.09-.36.07h0l-34.09,0c-1.42-.71-1.18-1.9-1.17-3.22,0-11.77,0-23.54,0-35.3H159a1.78,1.78,0,0,0-.73-.11V236a1.78,1.78,0,0,0,.73-.11h45.59a1.82,1.82,0,0,0,.71.11C205.13,232.68,206.37,229.26,204.6,226.07Z" transform="translate(253 -42.18)"/><path class="cls-1" d="M-43.59,186.8c-2.81.15-5.72-.89-8.44.59-.08,4.41-.3,8.82-.19,13.22.06,2.65-.85,3.48-3.5,3.44-8.45-.14-16.9,0-25.35,0-7.49,0-7.49,0-7.49-7.56,0-9.87,0-9.88-9.84-9.71h0q-.1,23.12-.21,46.24c0,1.56.46,2.38,2.15,2.28a18.37,18.37,0,0,1,3.79,0c3.33.5,4.27-.76,4.24-4.13-.05-5.49-.83-11,.49-16.5l.13-.08a1.87,1.87,0,0,1,.84-.42c10.85,0,21.7,0,32.55-.11,2,0,2.18,1.11,2.18,2.67,0,5.68.08,11.35.13,17h0l0,1.51h0l6.8.12c1,.31,1.88.86,3,.59q.1-23.46.2-46.91C-42.23,188-42.21,186.73-43.59,186.8Z" transform="translate(253 -42.18)"/><path class="cls-1" d="M292.83,51.17l.52.19a3,3,0,0,0-.53-.24Z" transform="translate(253 -42.18)"/><path class="cls-1" d="M324.24,141.43l.43-.5A.71.71,0,0,0,324.24,141.43Z" transform="translate(253 -42.18)"/><path class="cls-1" d="M388.59,136.1c-.09-.62-.13-1.25-.19-1.88l-3.05-1.27h0c-3.6-.78-5.72-3.37-7.64-6.22h0c-4.76-5.74-8.63-12.09-12.61-18.37l-.38-.68c-2.65-3.65-5.28-7.31-8-10.94-1.21-1.64.15-1.86,1.2-2.24a24.55,24.55,0,0,0,16-16.72h0a.39.39,0,0,1,.1-.56q0-4.55.1-9.11l-.07-.77a5.11,5.11,0,0,1-.77-3,2.47,2.47,0,0,1-.85-2.17L368.54,56l-.64-.7c-7.07-7.08-15.66-10.13-25.6-10-14.5.13-29,0-43.5,0-6,0-6,0-5.44,6.06.79,1.54,2.25,0,3.21.69,8.12.14,9.51,1.55,9.51,9.53q0,29.58,0,59.15c0,2.52-.15,5.05-.37,7.57-.2,2.31-1.13,4.13-3.82,4.31a.55.55,0,0,1-.68.09,2.75,2.75,0,0,1-1.29.39,6.63,6.63,0,0,1-1.19.26c-5.94.64-6.17.92-5.22,6.91h0c8.52.91,17.06-.25,25.58.11,1.87.08,3.78-.25,5.58.53h.7c3.22-.84,6.61.36,9.81-.78.17-2.51,1-5.25-2.18-6.66-1.38-.06-2.76,0-4.13-.19-3.74-.41-6.07-2.25-6.1-6.28-.07-8.82-.16-17.65-.19-26.47,0-1.9.9-3.07,3-3.08,3.86,0,7.8-.5,11.31,1.76a2.78,2.78,0,0,1,2.05,1.56.43.43,0,0,1,.29.54,93.86,93.86,0,0,1,9.19,12.2h0a6.56,6.56,0,0,1,2.21,3.15c5.09,6.43,9.32,13.45,13.77,20.3,1.71,2.63,3.73,3.86,6.84,3.73a102.26,102.26,0,0,1,13.25-.1C388.31,140.94,389,139.28,388.59,136.1ZM339.34,90.29c-4.63.52-9.31.57-14,.91-2.25.16-2.87-1.06-2.87-3q0-7,0-14c0-4.29,0-8.59,0-12.88,0-5.22,1.68-7.25,6.61-8.64a26.91,26.91,0,0,1,12.73-.39c9.25,1.87,14.1,9,13.82,20C355.37,84.35,351.27,89,339.34,90.29Z" transform="translate(253 -42.18)"/><path class="cls-1" d="M348.27,113.69l.08-.15s0,0,0,0h0Z" transform="translate(253 -42.18)"/><path class="cls-1" d="M353.44,45.87l-.14,0c0,.06,0,.12,0,.19Z" transform="translate(253 -42.18)"/><path class="cls-1" d="M510.81,89.38l.24,0-.07-.51C510.93,89.05,510.87,89.22,510.81,89.38Z" transform="translate(253 -42.18)"/><path class="cls-1" d="M507.82,78a3.42,3.42,0,0,1-.94-2.77h0l-5-9.38-1-1.45-3.16-3.8a53.7,53.7,0,0,0-21.87-13.1c-12-3-24.29-2-36.5-2-9.06,0-18.12-.1-27.18-.13-5.92,0-5.93,0-5.37,6,2.76.81,5.75.34,8.44,1.55h0l2.1,1.65c1.9.88,1.63,2.67,1.63,4.22q0,33.52-.06,67c0,1.8.83,4.13-1.57,5.35-2.53,2.32-5.65,2.49-8.83,2.43-3,1.61-1.73,4.29-1.69,6.67,18.07.19,36.15.81,54.22,0,.88,0,1.76,0,2.65,0l.2-.16.21.15a5.91,5.91,0,0,1,2.12-.32l6.58-1,1.52-.22a113,113,0,0,0,13.61-5.44c.23-.63.76-.67,1.32-.66l2.46-1.65c.45-.56.85-1.21,1.68-1.26l2.15-1.68L500,123.5l6.86-10.83c-.12-1.41.67-2.5,1.28-3.65l.94-2.65a1.26,1.26,0,0,1,.13-.36.59.59,0,0,1,.11-.69A53.1,53.1,0,0,0,507.82,78ZM489.5,109.61q-5.13,18-23.43,22.34a71.7,71.7,0,0,1-22.26,1.36c-6.55-.5-8.09-2.33-8.1-8.86,0-10.63,0-21.27,0-31.9,0-11,0-22,0-33,0-4.21,1.91-6.54,5.87-7.14,8.73-1.32,17.41-1.14,25.91,1.5,11.64,3.61,18.54,11.81,21.93,23.2A57.09,57.09,0,0,1,489.5,109.61Z" transform="translate(253 -42.18)"/><path class="cls-1" d="M-186.12,96.37h0l-2.49-3a1.08,1.08,0,0,0,.2.13,4,4,0,0,1-.4-.39l-.08-.09-2.25-2.17-.06,0c-4.41-3.14-9.41-5-14.48-6.76-8.05-1.41-16.14-2.73-23.91-5.33-8.21-2.74-12.69-8.2-12.16-14.45.57-6.76,6.35-12.69,14.31-14.08,6.1-1.06,12-.22,17.28,3.37h0c6.15,3.2,9.88,8.6,13.14,14.43,1,1.71,2,3.44,3.09,5.14a3.75,3.75,0,0,0,4.57,1.71c1.77-.53,1.35-2.25,1.26-3.55-.39-5.89-1.65-11.71-1.53-17.64l-.16-2.73a3.8,3.8,0,0,1-.31-1.26,5.39,5.39,0,0,1-.22-1.59c.14-2.41-1.23-2.89-3.19-2.78a.52.52,0,0,1-.65.06l-4.61,2.36h0l0,0c-1.34,1.05-2.67.79-4-.06h0a.51.51,0,0,1-.65-.13c-7.8-3-15.93-3.17-24.16-3a30.35,30.35,0,0,0-12.31,3l-1.43,1-3,2.43h0a41.37,41.37,0,0,0-7,10.48c-1.8,5.43-1.59,11-1.48,16.64.73.15.89.64.76,1.29h0a44.91,44.91,0,0,0,5.54,10l1.51,1.48,7.51,4.62c9,2.66,18.21,4,27.25,6.33,5.56,1.41,11,3.17,13.7,9,3.48,7.6.43,17.11-7,21.76a.51.51,0,0,1-.62.26c-8.35,4.38-16.69,3.25-24.51-1-8.38-4.51-14.41-11.36-16.68-20.9-.71-3-2.36-4.22-5.29-4.06-2.29.21-2.31,1.8-2.3,3.56,0,8.71,0,17.42.08,26.13,0,1.27-1.15,3.29,1,3.82,1.93.47,4.3.75,5.62-1.14,3.31-4.75,7.36-3.84,11.67-2h0l.33-.06.29.18a8.26,8.26,0,0,1,3.93,1.4h0l.35,0,.28.21c10.12,3.81,20.24,4.44,30.38.09l.72-.24h0A35.13,35.13,0,0,0-186,127.93c-.12-.91.49-1.47,1-2.06l2.8-8.58h0a.37.37,0,0,1,.08-.56C-181.48,109.55-182.46,102.7-186.12,96.37Z" transform="translate(253 -42.18)"/><path class="cls-1" d="M-188.92,57.37a3.57,3.57,0,0,1-.48.17l.56.21Z" transform="translate(253 -42.18)"/><path class="cls-1" d="M278.19,89.41a3.29,3.29,0,0,1-.15-1.15l-.84-6.35h0c-.7-.94-.38-2-.45-3.06a69.14,69.14,0,0,0-6.37-14.44h0l-.46-.78a58.55,58.55,0,0,0-13.7-12.94l-2.34-1.26a2.36,2.36,0,0,1-.62-.33l-.9-.43c-9-4.22-18.74-4-28.39-4.26-1.49,0-3,.24-4.42-.55h0l-1,0c-2.36.32-3.28,1.51-3.21,4,.18,6.76.07,13.53,0,20.29a8,8,0,0,0,.71,3.61c7.45.06,14.91.23,22.36.13,3,0,4.37.7,4.23,4-.4,9.32,1.76,8.43-8.34,8.42-1.93,0-3.86.1-5.78.11a46.18,46.18,0,0,1-8.32-.41h0a1.22,1.22,0,0,1-1.55,0c-2.72.19-3.64,1.5-3.14,4.26a23.23,23.23,0,0,1-.08,5.66c-.39,5.38-.18,5.63,5.09,5.63,10.36,0,20.72.08,31.08-.08,3.36-.05,4.76.7,4.44,4.47-.69,8.21-.49,8.22-8.9,8.23-9.1,0-18.2,0-27.29,0-1.68,0-3.3,0-4.48,1.46,0,7.88,0,15.76,0,23.64a9.78,9.78,0,0,0,.69,4.36,162.56,162.56,0,0,0,28.08-2.15l2.8-.92,10-5.37c.17-.7.72-.73,1.29-.74a77.45,77.45,0,0,0,12.45-12c1-.24-.66-1.49.62-1.62l5.36-13.18h0l.2-1.21h0l1.29-14.46h0A.45.45,0,0,1,278.19,89.41Z" transform="translate(253 -42.18)"/><path class="cls-1" d="M200.06,99.24c0-4.28,0-8.56.15-12.84,0-1.55-1-1.82-2-2.28h0c-7.3.75-14.61.13-21.92.34-1.48,0-3.08-.32-4.17,1.15l-.16,3c.06,2.53.17,5.05.16,7.58,0,1.44,0,2.8,1.5,3.56,7.46,0,14.92,0,22.38-.11C197.3,99.62,198.68,99.38,200.06,99.24Z" transform="translate(253 -42.18)"/><path class="cls-1" d="M177.72,112.3c-1.41,0-2.07.69-2,2.1a2.67,2.67,0,0,1,.21.36l3.33,5.76.31,1.36,9.92,9.88c3.53,1.78,6.44,4.73,10.52,5.46.13-8.08.38-16.16-.13-24.23C192.55,111.62,185.11,112.54,177.72,112.3Z" transform="translate(253 -42.18)"/><path class="cls-1" d="M200.2,69.62c-.06-6.69,0-13.38,0-20.28-3.36.67-5.52,3.25-8.48,4.18l-1.21,1a86.81,86.81,0,0,0-10.87,11.33l-3,5.88c7,.09,14.08.15,21.12.29C199.56,72.08,200.22,71.4,200.2,69.62Z" transform="translate(253 -42.18)"/><path class="cls-1" d="M53.11,46.21c-.58-1.62-2.43-.87-3.71-.88-10.56-.06-21.12,0-31.69,0-.29.21-.68.37-.42.85l-.38.69.09,3.8h0l.73.85c2.6.49,5.33.28,7.83,1.34h0a3.8,3.8,0,0,0,2.77.93c4,.89,5,3.94,5.19,7.5,0,12.26,0,24.53.19,36.79.06,3.7-1,7.37-.18,11.08v4.5A24.43,24.43,0,0,1,27.4,107l-2.21-2.38-.66-.76L-2.85,72.67c-1-.32-1.1-1.31-1.57-2a21.78,21.78,0,0,1-4.23-4.83l-1.08-1.32a17.73,17.73,0,0,1-4-4.64A2,2,0,0,1-15,58.36c-2.93-3.25-5.86-6.51-8.8-9.74-1.17-1.28-2.19-2.77-4.1-3.05-5.66-.09-11.33-.29-17-.22-3.21,0-6.48-.7-9.63.53-1,2.53-1.58,4.95,1.85,6.15a.33.33,0,0,1,.52.11c1.56,0,3.16-.24,4.63.57l3,1.06c3.33.89,4.6,3.45,4.63,6.49.23,21.48.71,43,0,64.45-.14,4.5-3.32,7.45-8.36,8.11h0v0c-1.68.92-3.54.6-5.32.79-2.25,1.48-1.82,3.87-1.34,5.75s2.74,1.17,4.28,1.28c2,.15,4,.19,6,.28l0,0c4.05-1.37,8.17-.14,12.26-.24s8.27-.44,12.38.23l1.21,0c3.38-1,1.91-3.74,2.16-5.86-1.13-1.41-2.82-1.38-4.38-1.68l-.77,0c-4.12-.6-8.49-.69-10.76-5.16-.84-.23-.53-1-.81-1.56.21-1.69-1.27-3.41.05-5.09h0c-.09-3-.25-6-.27-9.06q-.15-23.32-.25-46.64c.79-1.37,1.71-.81,2.39,0,3.22,3.78,7,7.12,9.56,11.42l.85.91C-12.89,86.93-5,96,2.68,105.18h0a8.24,8.24,0,0,1,2.9,3.16,21.86,21.86,0,0,1,5.21,6.12l1.57,1.7a33.8,33.8,0,0,1,6,6.69l0,.05c1,.82,2.09,1.53,2.25,3l.84.87c2.06,1.24,3.3,3.22,4.63,5.12a5.09,5.09,0,0,1,2.11,2.4l0,.05a35.84,35.84,0,0,1,3.47,3.79c2,2.91,4.56,4,8,2.93a31.22,31.22,0,0,0,.68-7.5q0-35.83,0-71.66c0-6,1.67-8,6.95-8.9l.74-.12L52,51.63C54.06,50.18,53.76,48,53.11,46.21Z" transform="translate(253 -42.18)"/><path class="cls-1" d="M153.8,55.95c-1.41-2.81-1.88-5.88-2.44-8.93l-1.49-1.47a15,15,0,0,0-2.22-.32q-36.84,0-73.68.08h0c-.94,2-1.46,3.94,0,5.91,2.23,1.19,4.93.23,7.13,1.56h0l2.75,1.67c1.84.76,1.5,2.42,1.5,3.86q.1,33.85.13,67.7c0,2.62.16,5.43-3.15,6.5l-1.38.21c-1.2.9-2.56.73-3.92.64l-2.73.19-1.19,2.16c-.58,3.95,1,5.12,5,5,10.34-.3,20.69-.07,31-.13,1.87,0,3.73-.32,5.6-.5a13.64,13.64,0,0,0,.1-5.86c-2.49-1.84-5.79.5-8.23-1.6-2.81-.57-3.93-2.42-3.92-5.15q0-14.56,0-29.11c0-1.31,0-2.72,1.76-2.75,4.38-.08,8.78-.71,13.11.5h0l2,.19c6.42,1,7.41,6.39,9.1,11.19.68,1.91,1,3.89,3.73,3.95,2.16,0,3.28-.48,3.27-2.89-.07-10.33.1-20.65-.08-31-.08-5-3.63-2.57-6-2.39-.58,1.92-1.1,3.87-1.76,5.77-1.71,4.89-5,7.76-10.35,7.93-3.78.12-7.56.22-11.34.38-2.33.1-3.42-.72-3.39-3.27.11-9.1,0-18.19,0-27.29,0-2.59.74-5.14,3.45-5.68,10.89-2.16,21.73-3,31.73,3.43,4.45,2.35,7.55,6.13,10.23,10.19,1.66,2.51,3.44,4.52,6.43,5.24h0l2.14-.14.63-.68C157.17,65.77,154.47,61.1,153.8,55.95Z" transform="translate(253 -42.18)"/><path class="cls-1" d="M-160.82,130.41a3.73,3.73,0,0,0-.74-.23l-.06.05c.23.09.55.11.8.18Z" transform="translate(253 -42.18)"/><path class="cls-1" d="M-69.55,137.78c.78-2.8.35-4.69-3.19-4.37a3,3,0,0,1-2.44-.66h0a.4.4,0,0,1-.56-.13c-2.52-.36-3.88-2.18-4.92-4.18a62.29,62.29,0,0,1-5-12.46L-101,77.28a7.54,7.54,0,0,1-1.34-3.82,7.71,7.71,0,0,1-1.53-3.82A16.21,16.21,0,0,1-106,64.31a2.54,2.54,0,0,1-.87-2.3,38.29,38.29,0,0,1-3.2-8.24h0a3.16,3.16,0,0,1-.13-.31L-112,49.08l-.27-1.12c-1.35-1.61-1.35-4-3.05-5.39h0a.57.57,0,0,1-.61-.2c-4.08-.82-6.48,1-8,4.32a4.27,4.27,0,0,1-.39.95h0a.63.63,0,0,1-.19.68l-8.09,19.26h0a.37.37,0,0,1-.16.52,5.4,5.4,0,0,1-1.32,3.13h0a7.47,7.47,0,0,1-1.56,3.92c-.94.72-.66,1.89-1,2.82-1.52,4.07-2.84,8.23-5.15,12-1,.58-.21,1.75-.81,2.46a56.14,56.14,0,0,1-5.26,12c-1,.58-.23,1.77-.86,2.46a90.34,90.34,0,0,1-6,13.63l-.83,1.54a12.61,12.61,0,0,1-3.66,6.91,2.15,2.15,0,0,1-1.55,1.49,5.94,5.94,0,0,1-4.58,2.27c-.69.47-1.35,1-2.29.7-2.8,1.16-2.64,3.62-2.09,5.79s2.71,1.41,4.24,1.42c8.83.07,17.66.05,26.49,0a3,3,0,0,0,1.84-.53,8.57,8.57,0,0,0,1-2.21,9,9,0,0,0-1.27-4.39c-2.23-.21-4.62.67-6.66-.94-4-2.66-4.66-5.67-2.33-11.42a.49.49,0,0,1,.14-.62,38.89,38.89,0,0,1,3.69-9.17.61.61,0,0,1,.2-.68c.52-2.06,2.1-2.2,3.83-2.2,9.58,0,19.16,0,28.74,0,1.33,0,2.83-.26,3.54,1.39.33.77,0,1.8.92,2.34a38.71,38.71,0,0,1,4.67,12.07l.69,1.48a6.56,6.56,0,0,1,.64,1.48c1.53,3.84.54,5.1-3.71,5.48l-.21.16-.23-.14h0c-1.48.8-3.13.44-4.69.68-1.41.22-3.13.05-3,2.28l-.3.75q0,.39,0,.77c-.15,2.19.38,3.27,3.07,3.24,12.12-.17,24.25-.06,36.37-.1.88,0,2.09.57,2.58-.83h0a3.17,3.17,0,0,1,.52-.08h0l0-.7ZM-137.14,97c4.32-10.48,8.65-21,13.48-32.65L-110,98.58c-.63,1.77-2.15,1.42-3.48,1.42l-23.72,0A3.59,3.59,0,0,1-137.14,97Z" transform="translate(253 -42.18)"/></svg>