<svg xmlns="http://www.w3.org/2000/svg" xmlns:xlink="http://www.w3.org/1999/xlink" viewBox="0 0 573.67 185.63"><defs><style>.cls-1{fill:#dcddde;}.cls-2{fill:#6b72a6;}.cls-3{fill:url(#linear-gradient);}.cls-4{fill:url(#linear-gradient-2);}.cls-5{fill:url(#linear-gradient-3);}.cls-6{fill:url(#linear-gradient-4);}.cls-7{fill:url(#linear-gradient-5);}.cls-8{fill:url(#linear-gradient-6);}.cls-9{fill:url(#linear-gradient-7);}.cls-10{fill:url(#linear-gradient-8);}.cls-11{fill:url(#linear-gradient-9);}.cls-12{fill:url(#linear-gradient-10);}.cls-13{fill:url(#linear-gradient-11);}.cls-14{fill:url(#linear-gradient-12);}.cls-15{fill:url(#linear-gradient-13);}.cls-16{fill:url(#linear-gradient-14);}</style><linearGradient id="linear-gradient" x1="414.63" y1="1079.91" x2="533.88" y2="1181.73" gradientTransform="translate(-176.59 -526.62) scale(0.84)" gradientUnits="userSpaceOnUse"><stop offset="0" stop-color="#cfcfcf"/><stop offset="0.16" stop-color="#575757"/><stop offset="0.31" stop-color="#e8e8e8"/><stop offset="0.76" stop-color="#212121"/><stop offset="0.86" stop-color="#a1a1a1"/><stop offset="1" stop-color="#404040"/></linearGradient><linearGradient id="linear-gradient-2" x1="524.55" y1="1174.77" x2="422.19" y2="1085.32" xlink:href="#linear-gradient"/><linearGradient id="linear-gradient-3" x1="505.79" y1="1134.93" x2="435.7" y2="1134.93" xlink:href="#linear-gradient"/><linearGradient id="linear-gradient-4" x1="505.79" y1="1134.86" x2="435.71" y2="1134.86" gradientTransform="translate(-176.59 -526.62) scale(0.84)" gradientUnits="userSpaceOnUse"><stop offset="0" stop-color="#4f0000"/><stop offset="1" stop-color="#d90000"/></linearGradient><linearGradient id="linear-gradient-5" x1="589.01" y1="925.88" x2="503.45" y2="870.23" gradientTransform="translate(-235.57 -326.45) scale(0.84)" xlink:href="#linear-gradient-4"/><linearGradient id="linear-gradient-6" x1="352.89" y1="1081.53" x2="417.47" y2="1127.49" gradientTransform="matrix(0.98, -0.11, 0.11, 0.93, -285.82, -569.12)" gradientUnits="userSpaceOnUse"><stop offset="0" stop-color="#4f0000"/><stop offset="1"/></linearGradient><linearGradient id="linear-gradient-7" x1="466.37" y1="1211.8" x2="466.37" y2="1211.8" gradientTransform="translate(-176.59 -518.2) scale(0.84)" xlink:href="#linear-gradient"/><linearGradient id="linear-gradient-8" x1="518.25" y1="884.29" x2="591.28" y2="883.25" gradientTransform="translate(-235.57 -326.45) scale(0.84)" gradientUnits="userSpaceOnUse"><stop offset="0" stop-color="#fff"/><stop offset="0.32" stop-color="#b5b5b5"/><stop offset="0.77" stop-color="#fff"/><stop offset="0.91" stop-color="#787878"/><stop offset="1" stop-color="#dbdbdb"/></linearGradient><linearGradient id="linear-gradient-9" x1="523.44" y1="828.6" x2="464.32" y2="879.37" gradientTransform="translate(-235.57 -326.45) scale(0.84)" gradientUnits="userSpaceOnUse"><stop offset="0.07" stop-color="#fff"/><stop offset="0.25" stop-color="#636363"/><stop offset="0.36" stop-color="#929292"/><stop offset="0.42" stop-color="#a6a6a6"/><stop offset="0.77" stop-color="#fff"/><stop offset="0.91" stop-color="#6e6e6e"/><stop offset="1" stop-color="#dbdbdb"/></linearGradient><linearGradient id="linear-gradient-10" x1="577.05" y1="891" x2="517.91" y2="941.78" xlink:href="#linear-gradient-9"/><linearGradient id="linear-gradient-11" x1="537.54" y1="845.03" x2="478.32" y2="895.89" xlink:href="#linear-gradient-9"/><linearGradient id="linear-gradient-12" x1="556.18" y1="866.79" x2="497.21" y2="917.44" xlink:href="#linear-gradient-9"/><linearGradient id="linear-gradient-13" x1="547.38" y1="854.19" x2="486.85" y2="906.18" xlink:href="#linear-gradient-9"/><linearGradient id="linear-gradient-14" x1="555.84" y1="866.32" x2="496.72" y2="917.1" xlink:href="#linear-gradient-9"/></defs><title>tss</title><g id="mountains_and_trees" data-name="mountains and trees"><path id="mountain_dark_shadow" data-name="mountain dark shadow" class="cls-1" d="M22.29,391.9s58-21.81,90.53-46.5c0,0,15.23-8.23,22.63,20.16,0,0,4.11,22.22,25.51,8.64l-8.23-9.88-2.88-4.94,56.38-39.5s31.69,50.2,30.45,74.07l36.21-.41s-20.16-28-31.69-32.92c0,0,25.1-32.92,42.8-23,0,0,2.88,25.1,9.05,28.39,0,0,31.27,12.35,24.28,22.63l17.28-2.06L312.4,362.68s18.31-5.35,24.18-13.37c0,0,16.56,9.26,17,17.49,0,0,19.75,32.51,44.85,31.27Z" transform="translate(-17.35 -313.46)"/><path id="mountain_snow" data-name="mountain snow" class="cls-2" d="M17.35,393.14s47.32-19.75,59.26-30.45c0,0,36.21-27.16,47.74-19.75,0,0,12.86,6.69,16.25,9.77,0,0,4.32,4.32,10.18-.93,0,0,51.23-42.59,62.65-38,0,0,35.49,29.94,37,29.32,0,0,21.6-13.27,25.62-13.89,0,0,3.39-1.54,10.49,4.32,0,0,27.16,23.46,34.57,23.15,0,0,13.27-4.32,15.43-7.41,0,0,2.78-6.48,13,3.7,0,0,45.37,39.5,79,32.41,0,0,115.12-13.27,153.08,5.56,0,0-168,3.36-220.06-.3,0,0-.62-5.26-8-9.58,0,0-13-5.25-7.1-15.12,0,0,2.78-2.16-1.85-6.48,0,0-5.86-3.09-2.78-5.86,0,0-.62-4.32-11.42,3.39,0,0-9.26,4.63-12.35,4.32,0,0-4,3.09,7.41,6.79,0,0,12.65,2.78,9.57,22.84,0,0,.31,5.64,8,4.72l-50.92-1.85s4.94-3.79,15.74-7.49c0,0,5.56-3.09-6.48-7.72,0,0-23.77-8-21.6-34.57,0,0,2.78-10.19-7.41-4.94,0,0-4.32,1.23-5.55,2.47,0,0-25.93,9.57-15.12,17.9,0,0,20.06,3.09,21.3,9.26,0,0-16.67,0-5.25,7.1,0,0,12.33,7.37,9.25,18.48l-43.33.67s.45-28.1-22.39-66.06c0,0-3.09-8.33-9.26-1.54,0,0-38.89,28.39-42.28,29.63,0,0-9.57,5.56-.62,10.49,0,0,21.71,5.12,17.38,11,0,0-11.09-8-34.36,7.23,0,0-21,6.48-13.58-21,0,0,0-12.35-9.26-13.89,0,0-1.85-3.7-8.33,0C111,350.85,83,379.25,17.35,393.14Z" transform="translate(-17.35 -313.46)"/><path d="M591,383.06s-11.34-2-12.9-9c0,0,8.6,4.3,10.95,3.13,0,0-10.95-5.08-10.95-9.38,0,0,.78-2,3.91.39,0,0,4.69,2,7.43,0,0,0-13.29-6.65-13.68-10.16,0,0,.39-3.13,3.91.39,0,0,3.52,3.52,5.87,2.74,0,0-2.74-6.25-8.6-7.82,0,0-3.52-3.52,4.69-4.3,0,0,.39-2.74-5.08-4.3,0,0-5.08-3.91,3.13-4.3,0,0,0-2.35-4.69-3.13,0,0-2.74-6.65-2.34-10.95,0,0-2.74-3.13-3.13,5.86,0,0-1.17,4.69-3.13,5.47,0,0-2.74,4.3-4.3,4.69l3.52.39s-6.25,4.3-7.43,7.82c0,0,1.17,1.56,6.64-2.74,0,0,1.17,5.08-7,8.21l-1.56,2s4.3-2,6.25-.39c0,0,.39,4.3-5.08,3.91,0,0-.78,4.3,2.74,3.91,0,0,2,5.08-3.52,3.52,0,0-3.13-3.91,5.86-3.91l-7-3.52s-7-2.74-.78-4.69c0,0,.78-1.56-2.74-3.52,0,0-4.3-3.52.39-5.08,0,0-2-5.08,0-5.86a6.09,6.09,0,0,1-2.74-5.47s-2.34.39-2,6.25c0,0-2.35,2.74-4.69,2.74,0,0,2,2.74,3.91,2.35,0,0-2.35,3.13-4.69,3.13,0,0,5.86.39,3.52,2.35l-3.91,2s1.56,2.74,4.3,2c0,0,.78,3.52-4.69,3.52,0,0-2,2.35,2.74,4.3,0,0-.39,2.74-4.69,2.74l4.69,1.56s-5.87,4.3-5.87.39a3.11,3.11,0,0,1,1.56-4.69s-4.69-2.74-3.13-5.08l2.74-2.35s-4.3-1.56-3.13-4.69l-1.56-8.6s-1.56.78-2,6.26l-1.56,3.13a2.83,2.83,0,0,1-2,3.13s-1.17,2.35,2,2.35c0,0,.78,5.08-3.13,5.08,0,0,4.69,2.74-.39,2,0,0-5.87-2.35-.78-3.52,0,0,1.56-1.56-2.74-2,0,0-4.69-2,2.34-4.3,0,0,3.13-1.56-5.47-2.35,0,0-4.3-3.13,2-3.91,0,0,4.3-3.13-2.74-5.47,0,0-3.91-1.56,0-3.91,0,0-7-2-1.56-4.69,0,0,1.56-2.74-2.34-3.91,0,0-1.17-8.21-4.69-3.13,0,0,3.13,3.91-1.56,5.86a3.17,3.17,0,0,1-1.17,4.69s-.39,3.52,4.3,2.74c0,0,0,2-2.74,3.13,0,0-5.08,3.52-4.3,6.25,0,0,3.91-3.52,5.86-2,0,0,2.35,3.91-3.13,4.3a6.3,6.3,0,0,1-5.47,2.74,4.78,4.78,0,0,0,5.47,2s-1.17,4.69-5.47,4.3c0,0,.78,1.56,3.91,2.74,0,0-2,4.3-5.86,1.17,0,0-7.43,5.86,3.52,6.65C505,374.06,584,387.75,591,383.06Z" transform="translate(-17.35 -313.46)"/><path d="M-47.45,301.52" transform="translate(-17.35 -313.46)"/><path d="M17.58,382.78s11.11-1.92,12.64-8.81c0,0-8.43,4.22-10.73,3.07,0,0,10.73-5,10.73-9.19,0,0-.77-1.92-3.83.38,0,0-4.6,1.92-7.28,0,0,0,13-6.51,13.41-10,0,0-.38-3.06-3.83.38,0,0-3.45,3.45-5.75,2.68,0,0,2.68-6.13,8.43-7.66,0,0,3.45-3.45-4.6-4.21,0,0-.38-2.68,5-4.21,0,0,5-3.83-3.06-4.21,0,0,0-2.3,4.6-3.06,0,0,2.68-6.51,2.3-10.73,0,0,2.68-3.06,3.07,5.75,0,0,1.15,4.6,3.06,5.36,0,0,2.68,4.21,4.22,4.6l-3.45.38s6.13,4.21,7.28,7.66c0,0-1.15,1.53-6.51-2.68,0,0-1.15,5,6.9,8l1.53,1.92s-4.21-1.92-6.13-.38c0,0-.38,4.21,5,3.83,0,0,.77,4.21-2.68,3.83,0,0-1.91,5,3.45,3.45,0,0,3.07-3.83-5.75-3.83l6.9-3.45s6.89-2.68.77-4.6c0,0-.77-1.53,2.68-3.45,0,0,4.21-3.45-.38-5,0,0,1.91-5,0-5.75a6,6,0,0,0,2.68-5.36s2.3.38,1.91,6.13c0,0,2.3,2.68,4.6,2.68,0,0-1.92,2.68-3.83,2.3,0,0,2.3,3.07,4.6,3.07,0,0-5.75.38-3.45,2.3L65.85,356s-1.53,2.68-4.21,1.91c0,0-.77,3.45,4.6,3.45,0,0,1.91,2.3-2.68,4.21,0,0-2.14,3.64,3.21,2.71,0,0-6.52,4.66.7,4.66,0,0,1.16,2.56-4.89,2.33,0,0-1.4,3.26,9.08,1.86,0,0,4,4-5.59,4,0,0-17-2.1-22.11,1.16C44,382.22,16.34,386.61,17.58,382.78Z" transform="translate(-17.35 -313.46)"/><path d="M369,385c-2.41-1.35-.83-2.27-.83-2.27.92,1.07,1.38-.4,1.38-.4a1.93,1.93,0,0,1-.92-.93c1,.13,1.29-1.47,1.29-1.47-.83.4-1.29-.67-1.29-.67a1.5,1.5,0,0,0,1.29-.93c1.29-.13.74-1.47.74-1.47-.46-.53-1.38.67-1.38.67-.19-.93,1-2.13,1-2.13a1.34,1.34,0,0,0,.65-1.07c-1.11.27-1-.93-1-.93a1.39,1.39,0,0,0,.28-1.6c1.11-.67.37-2,.37-2,.83-1.73,1.11,1.07,1.11,1.07a1,1,0,0,1,.55,1.33c-1.29.93.37,1.6.37,1.6-.92.8,0,1.33,0,1.33,1.66.8.65,1.87.65,1.87-1.48.27-.46,1.33-.46,1.33,2,.27,1.29.8,1.29.8-1.66.8-.55,1.47-.55,1.47,1,.13.65.67.65.67-1.2.4.18,1.2.18,1.2s-.32,1.67.92,1.57a2.59,2.59,0,0,1,1,1.2s-2.7-.8-3.53-.3C372.79,384.9,370.55,385.83,369,385Z" transform="translate(-17.35 -313.46)"/><path d="M119.75,382.9c4.57-1.77,1.57-3,1.57-3a1.58,1.58,0,0,1-2.62-.52,3.15,3.15,0,0,0,1.75-1.22c-1.92.17-2.45-1.92-2.45-1.92a2.14,2.14,0,0,0,2.45-.87,2.82,2.82,0,0,1-2.45-1.22c-2.45-.17-1.4-1.92-1.4-1.92.87-.7,2.62.87,2.62.87.35-1.22-1.92-2.8-1.92-2.8-1.22-.52-1.22-1.4-1.22-1.4,2.1.35,1.92-1.22,1.92-1.22a1.42,1.42,0,0,1-.52-2.1,1.59,1.59,0,0,1-.7-2.62c-1.57-2.27-2.1,1.4-2.1,1.4-1.75.52-1,1.75-1,1.75,2.45,1.22-.7,2.1-.7,2.1,1.75,1,0,1.75,0,1.75-3.15,1-1.22,2.45-1.22,2.45,2.79.35.87,1.75.87,1.75-3.84.35-2.45,1-2.45,1,3.15,1,1,1.92,1,1.92-1.92.18-1.22.87-1.22.87,2.27.52-.35,1.57-.35,1.57a1.53,1.53,0,0,1-1.75,2.05s-1.57.66-2,1.57c0,0,5.11-1,6.68-.39C112.59,382.81,116.83,384,119.75,382.9Z" transform="translate(-17.35 -313.46)"/><path d="M108.42,374.78c3.45-1.34,1.19-2.24,1.19-2.24a1.19,1.19,0,0,1-2-.4,2.37,2.37,0,0,0,1.32-.92c-1.45.13-1.85-1.45-1.85-1.45a1.61,1.61,0,0,0,1.85-.66,2.12,2.12,0,0,1-1.85-.92c-1.84-.13-1.05-1.45-1.05-1.45.66-.53,2,.66,2,.66.26-.92-1.45-2.11-1.45-2.11-.92-.4-.92-1.05-.92-1.05,1.58.26,1.45-.92,1.45-.92a1.07,1.07,0,0,1-.4-1.58,1.2,1.2,0,0,1-.53-2c-1.19-1.71-1.58,1.05-1.58,1.05-1.32.39-.79,1.32-.79,1.32,1.84.92-.53,1.58-.53,1.58,1.32.79,0,1.32,0,1.32-2.37.79-.92,1.85-.92,1.85,2.11.26.66,1.32.66,1.32-2.9.26-1.85.79-1.85.79,2.37.79.79,1.45.79,1.45-1.45.13-.92.66-.92.66,1.71.4-.26,1.19-.26,1.19a1.16,1.16,0,0,1-1.32,1.55s-1.19.49-1.48,1.19c0,0,3.85-.79,5-.3C103,374.71,106.21,375.64,108.42,374.78Z" transform="translate(-17.35 -313.46)"/><path d="M76.29,376.76c5.34-2.43,1.84-4.07,1.84-4.07-2,1.91-3.06-.72-3.06-.72a3.83,3.83,0,0,0,2-1.67c-2.25.24-2.86-2.63-2.86-2.63,1.84.72,2.86-1.2,2.86-1.2a3.25,3.25,0,0,1-2.86-1.67c-2.86-.24-1.63-2.63-1.63-2.63,1-1,3.06,1.2,3.06,1.2.41-1.68-2.25-3.83-2.25-3.83A2.32,2.32,0,0,1,72,357.62c2.45.48,2.25-1.68,2.25-1.68a2.14,2.14,0,0,1-.61-2.87c-2.45-1.2-.82-3.59-.82-3.59-1.84-3.11-2.45,1.91-2.45,1.91a1.69,1.69,0,0,0-1.22,2.39c2.86,1.67-.82,2.87-.82,2.87,2,1.44,0,2.39,0,2.39-3.68,1.44-1.43,3.35-1.43,3.35,3.27.48,1,2.39,1,2.39-4.49.48-2.86,1.44-2.86,1.44,3.68,1.44,1.23,2.63,1.23,2.63-2.25.24-1.43,1.2-1.43,1.2,2.65.72-.41,2.15-.41,2.15s.71,3-2,2.81a5.18,5.18,0,0,0-2.3,2.15s6-1.44,7.81-.54C67.92,376.64,72.88,378.32,76.29,376.76Z" transform="translate(-17.35 -313.46)"/><path d="M314.18,386.27c2.5-1.16.86-1.94.86-1.94-1,.91-1.43-.34-1.43-.34a1.81,1.81,0,0,0,1-.8c-1.05.11-1.34-1.25-1.34-1.25a1.11,1.11,0,0,0,1.34-.57,1.52,1.52,0,0,1-1.34-.8.81.81,0,0,1-.76-1.25c.48-.46,1.43.57,1.43.57.19-.8-1.05-1.82-1.05-1.82a1.1,1.1,0,0,1-.67-.91c1.15.23,1.05-.8,1.05-.8a1,1,0,0,1-.29-1.37,1.13,1.13,0,0,1-.38-1.71c-.86-1.48-1.15.91-1.15.91a.81.81,0,0,0-.57,1.14c1.34.8-.38,1.37-.38,1.37,1,.68,0,1.14,0,1.14-1.72.68-.67,1.6-.67,1.6,1.53.23.48,1.14.48,1.14-2.1.23-1.34.68-1.34.68,1.72.68.57,1.25.57,1.25-1.05.11-.67.57-.67.57,1.24.34-.19,1-.19,1s.33,1.42-1,1.34a2.43,2.43,0,0,0-1.08,1s2.79-.68,3.66-.26A6.26,6.26,0,0,0,314.18,386.27Z" transform="translate(-17.35 -313.46)"/><path d="M322.22,388c-2.59-1-.89-1.68-.89-1.68a.89.89,0,0,0,1.48-.3,1.78,1.78,0,0,1-1-.69c1.09.1,1.39-1.09,1.39-1.09a1.21,1.21,0,0,1-1.39-.49,1.6,1.6,0,0,0,1.39-.69c1.38-.1.79-1.09.79-1.09-.5-.4-1.48.49-1.48.49-.2-.69,1.09-1.58,1.09-1.58.69-.3.69-.79.69-.79-1.19.2-1.09-.69-1.09-.69a.8.8,0,0,0,.3-1.19.9.9,0,0,0,.39-1.48c.89-1.29,1.19.79,1.19.79,1,.3.59,1,.59,1-1.38.69.4,1.19.4,1.19-1,.59,0,1,0,1,1.78.59.69,1.38.69,1.38-1.58.2-.5,1-.5,1,2.18.2,1.39.59,1.39.59-1.78.59-.59,1.09-.59,1.09,1.09.1.69.49.69.49-1.29.3.2.89.2.89a.87.87,0,0,0,1,1.16s.89.37,1.11.89c0,0-2.89-.59-3.78-.22A7.64,7.64,0,0,1,322.22,388Z" transform="translate(-17.35 -313.46)"/><path d="M334.62,388.46c-4.14-1.61-1.42-2.69-1.42-2.69a1.43,1.43,0,0,0,2.37-.47,2.86,2.86,0,0,1-1.58-1.11c1.74.16,2.22-1.74,2.22-1.74a1.94,1.94,0,0,1-2.22-.79,2.55,2.55,0,0,0,2.22-1.11c2.21-.16,1.27-1.74,1.27-1.74-.79-.63-2.37.79-2.37.79-.32-1.11,1.74-2.53,1.74-2.53,1.11-.47,1.11-1.27,1.11-1.27-1.9.32-1.74-1.11-1.74-1.11a1.28,1.28,0,0,0,.47-1.9,1.44,1.44,0,0,0,.63-2.37c1.43-2.06,1.9,1.27,1.9,1.27,1.58.48.95,1.58.95,1.58-2.21,1.11.63,1.9.63,1.9-1.58.95,0,1.58,0,1.58,2.85,1,1.11,2.22,1.11,2.22-2.53.32-.79,1.58-.79,1.58,3.48.32,2.22,1,2.22,1-2.85.95-.95,1.74-.95,1.74,1.74.16,1.11.79,1.11.79-2.06.47.32,1.42.32,1.42a1.39,1.39,0,0,0,1.58,1.86s1.42.59,1.78,1.42c0,0-4.63-.95-6.05-.36C341.11,388.38,337.27,389.48,334.62,388.46Z" transform="translate(-17.35 -313.46)"/><path d="M389.68,381.29c-1.45.93-3.61-.1-3.61-.1a2.08,2.08,0,0,0,2.61-1c-1.24.14-1-1.38-1-1.38,1.92.14,1.79-1.37,1.79-1.37-.69-.55-2.2.14-2.2.14l.55-.69c2.89-1.1,2.48-2.89,2.48-2.89-1.93,1.51-2.34,1-2.34,1,.41-1.24,2.61-2.75,2.61-2.75l-1.24-.14c.55-.14,1.51-1.65,1.51-1.65.69-.27,1.1-1.92,1.1-1.92.14-3.16,1.1-2.06,1.1-2.06a10.65,10.65,0,0,0,.83,3.85c1.65.28,1.65,1.1,1.65,1.1-2.89.14-1.1,1.51-1.1,1.51,1.92.55,1.79,1.51,1.79,1.51-2.89.27-1.65,1.51-1.65,1.51a5.23,5.23,0,0,1,3,2.75c-.82.27-2.06-1-2.06-1-1.24-1.24-1.38-.14-1.38-.14.14,1.24,4.81,3.58,4.81,3.58-1,.69-2.61,0-2.61,0-1.1-.83-1.37-.14-1.37-.14,0,1.51,3.85,3.3,3.85,3.3-.82.41-3.85-1.1-3.85-1.1.55,2.48,4.54,3.16,4.54,3.16a23.72,23.72,0,0,1-5.54-1.17,8.28,8.28,0,0,0-5,.52,2.87,2.87,0,0,1-2.79,0s2.58-.31,3-1.65c0,0-1.34.83-2.17.41a5.67,5.67,0,0,0,1.75-1.13s-1-1.14-2.17-.62c0,0,.21-1,2.06-.52Z" transform="translate(-17.35 -313.46)"/><path d="M356,381.93c-1.27.81-3.17-.09-3.17-.09a1.83,1.83,0,0,0,2.29-.87c-1.08.12-.84-1.21-.84-1.21,1.69.12,1.57-1.21,1.57-1.21-.6-.48-1.93.12-1.93.12l.48-.6c2.54-1,2.17-2.53,2.17-2.53-1.69,1.33-2.05.85-2.05.85.36-1.09,2.29-2.41,2.29-2.41l-1.09-.12c.48-.12,1.33-1.45,1.33-1.45.6-.24,1-1.69,1-1.69.12-2.78,1-1.81,1-1.81a9.36,9.36,0,0,0,.72,3.38c1.45.24,1.45,1,1.45,1-2.53.12-1,1.33-1,1.33,1.69.48,1.57,1.33,1.57,1.33-2.54.24-1.45,1.33-1.45,1.33a4.59,4.59,0,0,1,2.66,2.41c-.72.24-1.81-.84-1.81-.84-1.08-1.09-1.21-.12-1.21-.12.12,1.09,4.22,3.14,4.22,3.14-.84.6-2.29,0-2.29,0-1-.72-1.21-.12-1.21-.12,0,1.33,3.38,2.9,3.38,2.9-.72.36-3.38-1-3.38-1,.48,2.17,4,2.78,4,2.78a20.83,20.83,0,0,1-4.86-1,7.26,7.26,0,0,0-4.34.45,2.52,2.52,0,0,1-2.44,0s2.26-.27,2.63-1.45c0,0-1.18.72-1.9.36a5,5,0,0,0,1.54-1,1.81,1.81,0,0,0-1.9-.54s.18-.9,1.81-.45Z" transform="translate(-17.35 -313.46)"/><path d="M377.78,383.24c-1,.81-2.53-.09-2.53-.09a1.4,1.4,0,0,0,1.83-.87c-.87.12-.67-1.2-.67-1.2a1.08,1.08,0,0,0,1.25-1.2c-.48-.48-1.54.12-1.54.12l.38-.6c2-1,1.73-2.52,1.73-2.52-1.35,1.32-1.64.84-1.64.84a6.77,6.77,0,0,1,1.83-2.4l-.87-.12c.38-.12,1.06-1.44,1.06-1.44.48-.24.77-1.68.77-1.68.09-2.76.77-1.8.77-1.8a11.23,11.23,0,0,0,.58,3.36c1.16.24,1.16,1,1.16,1-2,.12-.77,1.32-.77,1.32,1.35.48,1.25,1.32,1.25,1.32-2,.24-1.16,1.32-1.16,1.32a4.21,4.21,0,0,1,2.12,2.4c-.58.24-1.44-.84-1.44-.84-.87-1.08-1-.12-1-.12.1,1.08,3.37,3.12,3.37,3.12-.67.6-1.83,0-1.83,0-.77-.72-1-.12-1-.12,0,1.32,2.7,2.88,2.7,2.88-.58.36-2.7-1-2.7-1,.39,2.16,3.18,2.76,3.18,2.76a13.78,13.78,0,0,1-3.87-1,4.73,4.73,0,0,0-3.47.45,1.67,1.67,0,0,1-1.95,0s1.8-.27,2.1-1.44c0,0-.94.72-1.52.36a4,4,0,0,0,1.23-1s-.72-1-1.52-.54c0,0,.14-.9,1.44-.45Z" transform="translate(-17.35 -313.46)"/><path d="M500.82,370.91c3.61-2-.62-1.85-.62-1.85-3.39,0-4.32-3.7-4.32-3.7l2.88-.31c-3-.93-3.29-2.88-3.29-2.88,2.47,1.23,3.7-.41,3.7-.41-1.65.82-3.7-2.47-3.7-2.47-1.65-11.52-3.29-1.23-3.29-1.23s-1.23,1.75-2.47,1.75c0,0,0,2.47,2.16,1.85a2.23,2.23,0,0,1-2.47,2.16s.93.62,2.47,1.54c0,0-.31-2.78-1.54-.93l-1.23,1.85s1.23.93-1.54,1.54c0,0,1.54,3.4-1.54,3.4C486,371.22,497.43,372.76,500.82,370.91Z" transform="translate(-17.35 -313.46)"/><path d="M407,382.24c2.19-1.19-.37-1.12-.37-1.12-2.06,0-2.62-2.24-2.62-2.24l1.74-.19c-1.81-.56-2-1.74-2-1.74a1.72,1.72,0,0,0,2.24-.25c-1,.5-2.24-1.49-2.24-1.49-1-7-2-.75-2-.75s-.75,1.06-1.5,1.06c0,0,0,1.5,1.31,1.12a1.35,1.35,0,0,1-1.5,1.31s.56.37,1.5.93c0,0-.19-1.68-.94-.56l-.75,1.12s.75.56-.94.94c0,0,.94,2.06-.93,2.06C398,382.42,404.92,383.36,407,382.24Z" transform="translate(-17.35 -313.46)"/><path d="M134.2,377c-1.75-1.28.3-1.2.3-1.2,1.65,0,2.09-2.4,2.09-2.4l-1.4-.2a2.5,2.5,0,0,0,1.59-1.87,1.17,1.17,0,0,1-1.79-.27c.8.53,1.79-1.6,1.79-1.6.8-7.46,1.6-.8,1.6-.8s.6,1.13,1.2,1.13c0,0,0,1.6-1,1.2,0,0,0,1.4,1.2,1.4,0,0-.45.4-1.2,1,0,0,.15-1.8.75-.6l.6,1.2s-.6.6.75,1c0,0-.75,2.2.75,2.2C141.37,377.19,135.84,378.19,134.2,377Z" transform="translate(-17.35 -313.46)"/><path d="M127.29,376.65c-2-1.44.34-1.35.34-1.35,1.85,0,2.36-2.7,2.36-2.7l-1.57-.22a2.82,2.82,0,0,0,1.79-2.1,1.31,1.31,0,0,1-2-.3c.9.6,2-1.8,2-1.8.9-8.39,1.8-.9,1.8-.9s.67,1.27,1.34,1.27c0,0,0,1.8-1.18,1.35,0,0,0,1.57,1.35,1.57,0,0-.5.45-1.35,1.12,0,0,.17-2,.84-.67l.67,1.35s-.67.67.84,1.12c0,0-.84,2.47.84,2.47C135.37,376.87,129.14,378,127.29,376.65Z" transform="translate(-17.35 -313.46)"/><path d="M322.42,386c2.19-1.19-.37-1.12-.37-1.12-2.06,0-2.62-2.24-2.62-2.24l1.74-.19c-1.81-.56-2-1.74-2-1.74a1.71,1.71,0,0,0,2.24-.25c-1,.5-2.24-1.5-2.24-1.5-1-7-2-.75-2-.75s-.75,1.06-1.5,1.06c0,0,0,1.49,1.31,1.12a1.35,1.35,0,0,1-1.49,1.31s.56.37,1.49.93c0,0-.19-1.68-.93-.56l-.75,1.12s.75.56-.94.94c0,0,.94,2.06-.93,2.06C313.45,386.22,320.36,387.15,322.42,386Z" transform="translate(-17.35 -313.46)"/><path d="M328.44,385.5c-1.84-1,.31-.94.31-.94,1.73,0,2.2-1.89,2.2-1.89l-1.47-.16c1.52-.47,1.68-1.47,1.68-1.47a1.44,1.44,0,0,1-1.89-.21c.84.42,1.89-1.26,1.89-1.26.84-5.88,1.68-.63,1.68-.63s.63.89,1.26.89c0,0,0,1.26-1.1.94a1.13,1.13,0,0,0,1.26,1.1s-.47.31-1.26.79c0,0,.16-1.42.79-.47l.63.94s-.63.47.79.79c0,0-.79,1.73.79,1.73C336,385.66,330.17,386.44,328.44,385.5Z" transform="translate(-17.35 -313.46)"/><path d="M304.09,385.07c-1.33-.72.23-.68.23-.68,1.25,0,1.58-1.36,1.58-1.36l-1.06-.11c1.09-.34,1.21-1.06,1.21-1.06a1,1,0,0,1-1.36-.15c.6.3,1.36-.9,1.36-.9.6-4.22,1.21-.45,1.21-.45s.45.64.91.64c0,0,0,.9-.79.68a.82.82,0,0,0,.9.79s-.34.23-.9.57c0,0,.11-1,.57-.34l.45.68s-.45.34.57.57c0,0-.57,1.24.57,1.24C309.52,385.19,305.33,385.75,304.09,385.07Z" transform="translate(-17.35 -313.46)"/><path d="M287.59,383.93c-1.26-.69.21-.65.21-.65,1.18,0,1.51-1.29,1.51-1.29l-1-.11c1-.32,1.15-1,1.15-1a1,1,0,0,1-1.29-.14c.57.29,1.29-.86,1.29-.86.57-4,1.15-.43,1.15-.43s.43.61.86.61c0,0,0,.86-.75.64a.77.77,0,0,0,.86.75s-.32.22-.86.54c0,0,.11-1,.54-.32l.43.64s-.43.32.54.54c0,0-.54,1.18.54,1.18C292.75,384,288.77,384.57,287.59,383.93Z" transform="translate(-17.35 -313.46)"/><path d="M356.08,383.61c2.19-1.19-.37-1.12-.37-1.12-2.06,0-2.62-2.24-2.62-2.24l1.74-.19c-1.81-.56-2-1.74-2-1.74a1.72,1.72,0,0,0,2.24-.25c-1,.5-2.24-1.49-2.24-1.49-1-7-2-.75-2-.75s-.75,1.06-1.5,1.06c0,0,0,1.49,1.31,1.12a1.35,1.35,0,0,1-1.5,1.31s.56.37,1.5.93c0,0-.19-1.68-.93-.56L349,380.8s.75.56-.93.94c0,0,.93,2.06-.93,2.06C347.11,383.79,354,384.73,356.08,383.61Z" transform="translate(-17.35 -313.46)"/><path d="M421.28,381.09c3.62-2-.62-1.85-.62-1.85-3.39,0-4.32-3.7-4.32-3.7l2.88-.31c-3-.93-3.29-2.88-3.29-2.88,2.47,1.23,3.7-.41,3.7-.41-1.64.82-3.7-2.47-3.7-2.47-1.65-11.52-3.29-1.23-3.29-1.23s-1.23,1.75-2.47,1.75c0,0,0,2.47,2.16,1.85a2.23,2.23,0,0,1-2.47,2.16s.93.62,2.47,1.54c0,0-.31-2.78-1.54-.93l-1.23,1.85s1.23.93-1.54,1.54c0,0,1.54,3.39-1.54,3.39C406.47,381.39,417.89,382.94,421.28,381.09Z" transform="translate(-17.35 -313.46)"/><path d="M458.23,376.73c3.07-1.67-.52-1.57-.52-1.57-2.88,0-3.67-3.14-3.67-3.14l2.44-.26c-2.53-.79-2.79-2.44-2.79-2.44,2.09,1,3.14-.35,3.14-.35-1.4.7-3.14-2.09-3.14-2.09-1.4-9.77-2.79-1-2.79-1s-1,1.48-2.09,1.48c0,0,0,2.09,1.83,1.57a1.89,1.89,0,0,1-2.09,1.83s.79.52,2.09,1.31c0,0-.26-2.36-1.31-.79l-1,1.57s1,.79-1.31,1.31c0,0,1.31,2.88-1.31,2.88C445.66,377,455.35,378.3,458.23,376.73Z" transform="translate(-17.35 -313.46)"/><path d="M475,350.93s-1.54,3.39-.93,5.25c0,0-1.24,1.85-3.09,1.54s1.23,2.47,2.78,1.85c0,0-2.47,1.85-4.32,1.23,0,0-.31,2.47,2.16,2.16,0,0-1.24,2.16-3.4,1.85,0,0,.31,2.47,3.4,2.16,0,0-.31,2.16-4,1.85,0,0,2.47,3.4,4.63,2.47,0,0-5.25.62-6.17,1.85a12.14,12.14,0,0,0,7.41,1.23l11.11.62s-1.23-2.47,2.16-3.09a11.37,11.37,0,0,0-6.48-1.23,13.17,13.17,0,0,0,4.32-1.85,9.84,9.84,0,0,1-5.56-.62s-1.85-1.85,2.78-1.85a6,6,0,0,0,2.78-1.54s-5.56.93-6.17-.93c0,0-.93-1.85,3.7-2.47,0,0-4.32-.93-4.63-2.78l2.78-.93s-3.7,0-3.4-2.16A4.14,4.14,0,0,1,475,350.93Z" transform="translate(-17.35 -313.46)"/><path d="M300.32,376.61a3.66,3.66,0,0,0-.35,2,1.29,1.29,0,0,1-1.15.58c-.69-.12.46.92,1,.69,0,0-.92.69-1.61.46,0,0-.12.92.81.81a1.38,1.38,0,0,1-1.27.69s.12.92,1.27.81c0,0-.12.81-1.5.69,0,0,.92,1.27,1.73.92,0,0-2,.23-2.3.69a4.53,4.53,0,0,0,2.76.46l4.15.23s-.46-.92.81-1.15a4.24,4.24,0,0,0-2.42-.46,4.93,4.93,0,0,0,1.61-.69,3.67,3.67,0,0,1-2.07-.23s-.69-.69,1-.69a2.25,2.25,0,0,0,1-.58s-2.07.35-2.3-.35c0,0-.34-.69,1.38-.92,0,0-1.61-.35-1.73-1l1-.35s-1.38,0-1.27-.81A1.54,1.54,0,0,1,300.32,376.61Z" transform="translate(-17.35 -313.46)"/><path d="M439.79,350s1.27,3.92.76,6.05c0,0,1,2.14,2.53,1.78s-1,2.85-2.28,2.14c0,0,2,2.14,3.55,1.42,0,0,.25,2.85-1.77,2.49,0,0,1,2.49,2.79,2.14,0,0-.25,2.85-2.79,2.49,0,0,.25,2.49,3.29,2.14,0,0-2,3.92-3.8,2.85,0,0,4.31.71,5.07,2.14a7.68,7.68,0,0,1-6.08,1.42l-9.12.71s1-2.85-1.77-3.56a7.27,7.27,0,0,1,5.32-1.42,9.31,9.31,0,0,1-3.55-2.14,5.91,5.91,0,0,0,4.56-.71s1.52-2.14-2.28-2.14a4.67,4.67,0,0,1-2.28-1.78s4.56,1.07,5.07-1.07c0,0,.76-2.14-3-2.85,0,0,3.55-1.07,3.8-3.21l-2.28-1.07s3,0,2.79-2.49C438.27,355.34,440.3,353.92,439.79,350Z" transform="translate(-17.35 -313.46)"/><path d="M461.56,351.54s-1.13,3.39-.68,5.25c0,0-.9,1.85-2.26,1.54s.9,2.47,2,1.85c0,0-1.81,1.85-3.16,1.23,0,0-.23,2.47,1.58,2.16,0,0-.9,2.16-2.48,1.85,0,0,.22,2.47,2.48,2.16,0,0-.23,2.16-2.93,1.85,0,0,1.81,3.4,3.39,2.47,0,0-3.84.62-4.51,1.85a7,7,0,0,0,5.42,1.23l8.13.62s-.9-2.47,1.58-3.09a6.6,6.6,0,0,0-4.74-1.23,8.36,8.36,0,0,0,3.16-1.85,5.4,5.4,0,0,1-4.06-.62s-1.35-1.85,2-1.85a4.16,4.16,0,0,0,2-1.54s-4.06.93-4.51-.93c0,0-.68-1.85,2.71-2.47,0,0-3.16-.93-3.38-2.78l2-.93s-2.71,0-2.48-2.16C462.91,356.17,461.1,354.94,461.56,351.54Z" transform="translate(-17.35 -313.46)"/><path d="M427.23,356.93s-1.13,3.39-.68,5.25c0,0-.9,1.85-2.26,1.54s.9,2.47,2,1.85c0,0-1.81,1.85-3.16,1.23,0,0-.23,2.47,1.58,2.16,0,0-.9,2.16-2.48,1.85,0,0,.22,2.47,2.48,2.16,0,0-.23,2.16-2.93,1.85,0,0,1.81,3.39,3.39,2.47,0,0-3.84.62-4.51,1.85a7,7,0,0,0,5.42,1.23l8.13.62s-.9-2.47,1.58-3.09a6.6,6.6,0,0,0-4.74-1.23,8.37,8.37,0,0,0,3.16-1.85,5.4,5.4,0,0,1-4.06-.62s-1.35-1.85,2-1.85a4.17,4.17,0,0,0,2-1.54s-4.06.93-4.52-.93c0,0-.68-1.85,2.71-2.47,0,0-3.16-.93-3.39-2.78l2-.93s-2.71,0-2.48-2.16C428.58,361.56,426.78,360.33,427.23,356.93Z" transform="translate(-17.35 -313.46)"/><path d="M147.74,360.26s.36,2.94,1.42,3.56c0,0-.44.8-1,.44,0,0-.53,1,.36,1.16a5.19,5.19,0,0,1,1.87.8,2.52,2.52,0,0,0,1.51.71,5.23,5.23,0,0,1-3-.62.83.83,0,0,0,.27,1.51s1.69.53,1.78,1.07a3.77,3.77,0,0,0,1.69,1.07,4.61,4.61,0,0,1-2.85-.18s-1.07-.71-.89.36a3,3,0,0,0,1.25,1.07s1.16.53,1.33.89c0,0,1.07,1.69,2.14,1.87a2,2,0,0,1-2.76,0,2.28,2.28,0,0,1-1.07-.62s-1.16-.44-.71.44c0,0,.27,1.51,3.12,2.31,0,0,2.67.62,2.94,1.07,0,0-2.4-.09-2.85,0,0,0-2,.44-2.67-.18,0,0-1.25,1.07.8,1.51,0,0,3.92.44,4.09,1.87,0,0,.36,1.07.89,1.16a4.57,4.57,0,0,1-2.67-1s-2-1.25-2.4-.71c0,0-.44,1.78,2.4,2.67a16.58,16.58,0,0,0,3.56.89H140.44s2.31-2-.27-2.94c0,0,1.69-2.4,3.29-2.14,0,0,1.16-1.34-.36-1.87,0,0-2,.53-2.49-.18,0,0,3-.62,2.85-1.6,0,0,.27-.89.71-.89,0,0-2-.62-2.49.09a1.13,1.13,0,0,1,1.16-1.16s.36-1,1.16-.89c0,0,1.6-.89-.62-1.16,0,0-1-.27-1.07-.62a4.22,4.22,0,0,0,2.85-.27,6.19,6.19,0,0,1-2-.62s2.14.36,2.14-.44c0,0-1.07.09-1.51-.45,0,0,1.78,0,1.69-.89a2.59,2.59,0,0,0-2-.27,3.52,3.52,0,0,1,2.23-1.16s1.07-.71-.44-1.07c0,0,.89-.36,1-1C146.31,363.91,147.12,360.44,147.74,360.26Z" transform="translate(-17.35 -313.46)"/><path d="M61.74,339s-.21,3.91-1.23,4.53c0,0-2.47,1-2.67,1.65H60.3a2.57,2.57,0,0,1-1.85,2.68A5.94,5.94,0,0,0,57,350.09s2.47-1.65,3.29-.41c0,0,1,2.26-2.88,2.88,0,0-1.23.62-1.23,1.65,0,0,2.06-1,2.67-.21l-2.26,1.85a2.19,2.19,0,0,0,2.26.21s1.85,1.65-1,1.85c0,0-2.06.62-2.06,1.85,0,0,2.06-1.23,2.88-.21,0,0,.21,2.06-3.09,1.23A2.08,2.08,0,0,0,58,362s1.44,1.85-3.29,1.85A13.93,13.93,0,0,0,58,365.12a33.47,33.47,0,0,0-4.12.41A14.25,14.25,0,0,0,58.45,367s1.23,1.65-3.29,2.26l13.79.21s-3.5-2.26,0-3.91c0,0-.62-1.65-3.5-.41,0,0-2.67-1.44,3.09-2.26,0,0-1.44-1.44-4.53-1a11.28,11.28,0,0,1,4.53-1s-1-1-4.73-1.65c0,0-.21-1.65,3.29-1.65,0,0,0-.82-3.09-1.65,0,0-1-1.85,3.09-1,0,0,.21-1.24-2.88-1.65,0,0-1.65-1.23,1.44-2.47a20.87,20.87,0,0,1-2.26-1s.21-1,2.26-1.85a1.8,1.8,0,0,1-1.85-2.06s1.85-1,2.47,0c0,0-.41-2.47-2.67-2.06C63.59,343.72,61.74,341,61.74,339Z" transform="translate(-17.35 -313.46)"/><path d="M162.41,363.52s-.16,3-.95,3.47c0,0-1.89.79-2.05,1.26h1.89a2,2,0,0,1-1.42,2.05,4.55,4.55,0,0,0-1.1,1.74s1.89-1.26,2.53-.32c0,0,.79,1.74-2.21,2.21,0,0-.95.47-.95,1.26,0,0,1.58-.79,2.05-.16l-1.74,1.42a1.68,1.68,0,0,0,1.74.16s1.42,1.26-.79,1.42c0,0-1.58.47-1.58,1.42,0,0,1.58-.95,2.21-.16,0,0,.16,1.58-2.37.95a1.6,1.6,0,0,0,1.89.95s1.11,1.42-2.52,1.42a10.69,10.69,0,0,0,2.52.95,25.7,25.7,0,0,0-3.16.32,10.94,10.94,0,0,0,3.47,1.11s.95,1.26-2.52,1.74l10.58.16s-2.68-1.74,0-3c0,0-.47-1.26-2.68-.32,0,0-2.05-1.1,2.37-1.74a4.19,4.19,0,0,0-3.47-.79,8.66,8.66,0,0,1,3.47-.79s-.79-.79-3.63-1.26c0,0-.16-1.26,2.53-1.26,0,0,0-.63-2.37-1.26,0,0-.79-1.42,2.37-.79,0,0,.16-.95-2.21-1.26,0,0-1.26-.95,1.11-1.89a15.91,15.91,0,0,1-1.74-.79s.16-.79,1.74-1.42a1.38,1.38,0,0,1-1.42-1.58s1.42-.79,1.89,0c0,0-.32-1.89-2.05-1.58A8.23,8.23,0,0,1,162.41,363.52Z" transform="translate(-17.35 -313.46)"/><path d="M123.71,361.31s-.12,2.34-.74,2.71c0,0-1.48.62-1.6,1h1.48a1.54,1.54,0,0,1-1.11,1.6,3.55,3.55,0,0,0-.86,1.36s1.48-1,2-.25c0,0,.62,1.36-1.73,1.73,0,0-.74.37-.74,1,0,0,1.23-.62,1.6-.12l-1.36,1.11a1.32,1.32,0,0,0,1.36.12s1.11,1-.62,1.11c0,0-1.23.37-1.23,1.11,0,0,1.23-.74,1.73-.12,0,0,.12,1.23-1.85.74a1.25,1.25,0,0,0,1.48.74s.86,1.11-2,1.11a8.35,8.35,0,0,0,2,.74,20.13,20.13,0,0,0-2.47.25,8.55,8.55,0,0,0,2.71.86s.74,1-2,1.36l8.27.12s-2.1-1.36,0-2.34c0,0-.37-1-2.1-.25,0,0-1.6-.86,1.85-1.36a3.28,3.28,0,0,0-2.71-.62,6.76,6.76,0,0,1,2.71-.62,5.62,5.62,0,0,0-2.84-1s-.12-1,2-1c0,0,0-.49-1.85-1,0,0-.62-1.11,1.85-.62,0,0,.12-.74-1.73-1,0,0-1-.74.86-1.48a12.76,12.76,0,0,1-1.36-.62s.12-.62,1.36-1.11a1.08,1.08,0,0,1-1.11-1.23s1.11-.62,1.48,0c0,0-.25-1.48-1.6-1.23A6.43,6.43,0,0,1,123.71,361.31Z" transform="translate(-17.35 -313.46)"/><path d="M88.4,334.57s-.27,5.23-1.65,6.06c0,0-3.3,1.38-3.58,2.2h3.3A3.43,3.43,0,0,1,84,346.41a7.94,7.94,0,0,0-1.93,3s3.3-2.2,4.41-.55c0,0,1.38,3-3.85,3.85,0,0-1.65.83-1.65,2.2,0,0,2.75-1.38,3.58-.27l-3,2.48a2.94,2.94,0,0,0,3,.27s2.48,2.2-1.38,2.48c0,0-2.75.83-2.75,2.48,0,0,2.75-1.65,3.85-.27,0,0,.27,2.75-4.13,1.65a2.79,2.79,0,0,0,3.3,1.65s1.93,2.48-4.4,2.48c0,0,3.3,1.65,4.4,1.65a44.76,44.76,0,0,0-5.51.55S81.8,372,84,372c0,0,1.65,2.2-4.4,3l18.44.28s-4.68-3,0-5.23c0,0-.83-2.2-4.68-.55,0,0-3.58-1.93,4.13-3,0,0-1.93-1.93-6.06-1.38a15.1,15.1,0,0,1,6.06-1.38s-1.38-1.38-6.33-2.2c0,0-.27-2.2,4.4-2.2,0,0,0-1.1-4.13-2.2,0,0-1.38-2.48,4.13-1.38,0,0,.27-1.65-3.85-2.2,0,0-2.2-1.65,1.93-3.3a27.91,27.91,0,0,1-3-1.38s.27-1.38,3-2.48a2.41,2.41,0,0,1-2.48-2.75s2.48-1.38,3.3,0c0,0-.55-3.3-3.58-2.75C90.88,340.9,88.4,337.32,88.4,334.57Z" transform="translate(-17.35 -313.46)"/><path d="M588,382.5s-27-12-43.5-10.5a128.74,128.74,0,0,0-28,.5s-31.95-3.67-31,.5c0,0-20.5-.5-30,2.5,0,0-23,.5-28.5,4.5,0,0-13,1-19,1.5l-19-.5s-7.5,7-16.5,7c0,0-13-5.5-18.5-5,0,0-21.5,0-26.5,4.5,0,0-35.5,4.5-46,2h306Z" transform="translate(-17.35 -313.46)"/><path d="M167.5,382s-19-6.5-25.5-5.5c0,0-12-.5-22-.5,0,0-15-3-23-3.5,0,0-14-5.5-23-3.5,0,0-6,5-13,2,0,0-9.5-1-11.5,1.5,0,0-24,10.5-26.5,14H169Z" transform="translate(-17.35 -313.46)"/></g><g id="TSS_Logo" data-name="TSS Logo"><path id="text" d="M590,383.29H17.49v14.3h0v16.5H40.31c0,.39,0,.79,0,1.19q0,1,.08,1.94H17.49v5.69H27.1v7.63H17.49v5.69H42.15v-5.69H32V422.9h9.9a13.08,13.08,0,0,0,3.74,4.54q5.36,4.16,18,6.58,6.76,1.3,9.12,2.77a4.62,4.62,0,0,1,2.37,4.14,5.51,5.51,0,0,1-2.6,4.52q-2.6,1.89-7.9,1.89-11,0-13.39-8.52l-14.31,3a23.51,23.51,0,0,0,1.35,3.74H22.38v-6.11H17.49v31.66H590Zm-13.41,14.3v30.81a35,35,0,0,0,.34,4.05l-21.85-34.86Zm-38.76,0v24a35.1,35.1,0,0,0-6.65-16.36,22.12,22.12,0,0,0-9.81-7.59ZM522,427q0,19.66-11.69,19.66-12.08,0-12.08-19.71t12.08-19.66Q522,407.31,522,427ZM499.1,397.59a23.27,23.27,0,0,0-9.75,7A30.76,30.76,0,0,0,483.68,415V397.59Zm-168.59,0v7.89a20.43,20.43,0,0,0-10.3-7.89Zm-187.95,0v58.84l-19.09-37.77,15.37-21.06Zm-18.48,0-20.16,27.76V397.59Zm-35.37,0v12.23a20.62,20.62,0,0,0-13.52-12.23Zm-34.94,0a21,21,0,0,0-7.1,4,19,19,0,0,0-4.51,5.63v-9.66Zm-21.9,10.64V399H27.23v9.23H22.17V397.59H37.26v10.64ZM87.53,429a18.56,18.56,0,0,0-7.89-6.15A84.64,84.64,0,0,0,64.91,419q-6-1.15-7.72-2.67a4.75,4.75,0,0,1-1.71-3.7q0-5.48,9.16-5.48,8.58,0,11.23,7.27l12.83-4v20.34A16.63,16.63,0,0,0,87.53,429ZM22.38,456.82v-5.39H42.15v-.19a20.65,20.65,0,0,0,4.12,3.21,27.59,27.59,0,0,0,5.16,2.38Zm54.11,0a21.74,21.74,0,0,0,7.38-4.13,21.07,21.07,0,0,0,4.83-5.93v10.05Zm27.42,0v-13l9.23-12.4,12.6,25.4Zm54.08,0V397.59H296.65a20.75,20.75,0,0,0-6.08,3.65,17.43,17.43,0,0,0-6.39,13.66q0,8,5.36,12.17t18,6.58q6.76,1.3,9.13,2.77a4.63,4.63,0,0,1,2.37,4.14,5.51,5.51,0,0,1-2.6,4.52q-2.6,1.89-7.9,1.89-11,0-13.39-8.52l-14.31,3a20.26,20.26,0,0,0,9.38,12.61,28,28,0,0,0,6.31,2.76Zm161.23,0a22.4,22.4,0,0,0,8.55-4.5q6.87-6,6.87-14.21a15.32,15.32,0,0,0-3.21-9.48,18.57,18.57,0,0,0-7.89-6.15,85,85,0,0,0-14.73-3.85q-6-1.15-7.72-2.67a4.76,4.76,0,0,1-1.71-3.7q0-5.48,9.16-5.48,8.58,0,11.23,7.27L332.85,410c-.18-.46-.38-.9-.58-1.34H347v48.16Zm43.39,0V408.66H379V397.59h7.9l-20.49,59.23Zm31.89-44.49,7,21.36h-14Zm-14.61,44.49,3.91-11.91h21.31L409,456.82Zm45.69,0-20.08-59.23h7.69v11.07h16.45v48.16Zm19.72,0V408.66h16.34V397.59h6.62v59.23Zm38.39,0V438.54a32.65,32.65,0,0,0,5.57,10.55,23.06,23.06,0,0,0,10.89,7.72Zm36.28,0a22.81,22.81,0,0,0,11-7.59,33,33,0,0,0,6.87-16.64v24.23Zm29.92,0V421a19,19,0,0,0-.22-2.63q-.06-.49-.11-2l25.39,40.49Z" transform="translate(-17.35 -313.46)"/><path id="shield_outline" data-name="shield outline" class="cls-3" d="M199.74,362.33l-1.48.46L195.72,364a4,4,0,0,0-2.1,3.37v2.17a.71.71,0,0,1-.37.51l0,0-18.79,7.56-.05,0c-.74.37-1.92,1-2.63,1.48l-.69.43a4.31,4.31,0,0,0-1.9,3.43v13.35a6.77,6.77,0,0,0,.62,2.91,10.08,10.08,0,0,1,.65,1.81,123.16,123.16,0,0,1,0,50,10,10,0,0,1-.65,1.81,6.78,6.78,0,0,0-.62,2.91v10.83c0,1.08,1,2.48,1.76,3.46l.1.13.13.1c.25.19,25.44,19.54,49.46,28.48a5.27,5.27,0,0,0,3.46,0l0,0a265,265,0,0,0,49.53-28.58,4.61,4.61,0,0,0,1.72-3.43V455.62a7.36,7.36,0,0,0-.49-2.77,12.76,12.76,0,0,1-.59-1.81,123.8,123.8,0,0,1,0-49.89,12.74,12.74,0,0,1,.59-1.81,7.36,7.36,0,0,0,.49-2.77V383a4.31,4.31,0,0,0-1.9-3.43l-.69-.43c-.71-.44-1.89-1.1-2.64-1.47l-.05,0-20.36-8-.05,0a.67.67,0,0,1-.36-.48v-1.8a4,4,0,0,0-2.1-3.37l-1.15-.56a24.16,24.16,0,0,0-2.87-1.15c-.52-.16-12.88-4-21.73-4S200.26,362.17,199.74,362.33Z" transform="translate(-17.35 -313.46)"/><path id="shield_bit" data-name="shield bit" class="cls-4" d="M200.17,363.7l-1.37.43-1.29.63-1.15.56a2.53,2.53,0,0,0-1.29,2.07v2.17a2.11,2.11,0,0,1-1.37,1.88L175,379c-.71.35-1.84,1-2.51,1.41l-.69.43a2.9,2.9,0,0,0-1.22,2.2v13.35a5.51,5.51,0,0,0,.43,2.2,11.26,11.26,0,0,1,.79,2.16,124.56,124.56,0,0,1,0,50.72,11.16,11.16,0,0,1-.79,2.16,5.5,5.5,0,0,0-.43,2.21v10.83c0,.79,1.43,2.56,1.43,2.56.62.49,25.44,19.47,49.08,28.27a3.84,3.84,0,0,0,2.42,0A260.8,260.8,0,0,0,272.76,469a3.23,3.23,0,0,0,1.16-2.3V455.62a6.17,6.17,0,0,0-.34-2.14,13.69,13.69,0,0,1-.7-2.09,125.22,125.22,0,0,1,0-50.59,13.65,13.65,0,0,1,.7-2.09,6.18,6.18,0,0,0,.34-2.14V383a2.9,2.9,0,0,0-1.22-2.2l-.69-.43c-.67-.42-1.8-1.05-2.51-1.4l-20.25-7.92a2.07,2.07,0,0,1-1.38-1.86v-1.8a2.53,2.53,0,0,0-1.29-2.07l-1.15-.56a23.53,23.53,0,0,0-2.67-1.07s-12.57-3.95-21.3-3.95S200.17,363.7,200.17,363.7Z" transform="translate(-17.35 -313.46)"/><path id="shield_bit-2" data-name="shield bit" class="cls-5" d="M201.1,368.83l-.81.4v6c-9.3,1.88-17.51,4.93-23.8,8.86l-.68.42v12l.19.33c1.75,3.11,3.64,13.61,3.64,29.33s-1.89,26.22-3.64,29.33l-.19.33v9.78l.56.43c.22.18,22.7,17.57,45.37,26.16l.53.2.52-.21c21.4-8.58,45.08-26,45.32-26.13l.59-.43V455.39l-.15-.3c-2-4.16-3.47-16.08-3.47-29s1.43-24.84,3.47-29l.15-.3V384.48l-.68-.42c-6.66-4.17-15.42-7.32-25.37-9.16v-5.66l-.81-.4c-5-2.45-12.41-3.85-20.37-3.85S206.09,366.39,201.1,368.83Z" transform="translate(-17.35 -313.46)"/><path id="snowflake_shield_red" data-name="snowflake shield red" class="cls-6" d="M263.63,426.09c0-13.7,1.51-25.35,3.62-29.64V385.27c-6.67-4.18-15.68-7.4-26.05-9.2v-6c-4.6-2.25-11.72-3.7-19.73-3.7s-15.14,1.45-19.74,3.7v6.24c-9.71,1.84-18.14,4.95-24.47,8.91v10.78c2.22,3.92,3.83,15.89,3.83,30s-1.61,26.11-3.83,30v8.69s22.26,17.34,45,25.95c21.47-8.61,45-25.95,45-25.95v-9.09C265.15,451.44,263.63,439.79,263.63,426.09Z" transform="translate(-17.35 -313.46)"/><path id="snowflake_large_dark_shadow" data-name="snowflake large dark shadow" class="cls-7" d="M180.86,417v.1a5.73,5.73,0,0,1,2.83,1.68.47.47,0,0,1-.48.58c-.66.58-1.33,1.14-2,1.69.21,2.7.36,5.57.45,8.56q1.66-1.29,3.24-2.76a41.31,41.31,0,0,1,3.41-2.84,7.84,7.84,0,0,1,3.84-1.57l1.23-.14c.38.14,1,.41,2,.83l2.92,1.32q1.54.68,2.92,1.25a20.75,20.75,0,0,1,2,.9q.13,0,.75.44l.67,5.83q.06.53-1.33,1.74T200,437.19a38.7,38.7,0,0,1-3.61,2.34,8.16,8.16,0,0,1-2.44,1.07,5.63,5.63,0,0,1-3-.38q-1.31-.58-3.05-1.3c-.38-.13-1-.41-2-.83s-1.89-.84-2.91-1.25l-1.32-.55c0,2.61-.05,5.16-.15,7.62l3.94,1.77.74.44a5.73,5.73,0,0,1-4.35,3h-.6a126.09,126.09,0,0,1-1.48,13.1l.57,5c1.75,1.27,4.16,3,7.06,4.92a15.76,15.76,0,0,0,.9-5.35,39.4,39.4,0,0,0-.6-6.94,29.5,29.5,0,0,1-.56-5.49c.25-.2.8-.57,1.67-1.12l1.8-1.14.27,0,.28,0a5.2,5.2,0,0,0,.48.61,1.36,1.36,0,0,1,.33.49l1.64,14.23a7.19,7.19,0,0,0,4.24-2.14,5.24,5.24,0,0,0,1.8-4.11q-.09-.78-.25-2.81t-.37-4.39q-.21-2.36-.31-4.46c-.07-1.4-.14-2.37-.2-2.89.42-.4,1-.91,1.83-1.53l2.6-2q1.39-1.09,2.8-2a21.53,21.53,0,0,1,2.45-1.47l.54-.06.68-.08,2,.82,2.47,1a7.63,7.63,0,0,0,.74.45l1.45,12.53L202.4,464.36l.77,6.66a10.16,10.16,0,0,0,5.27-2.53q2.66-2.23,4.58-3.64c.52-.32,1.69-1,3.51-2.12l.76.57.53,4.57q.07.65-2.1,2.29T211,473.55c-1.72,1.17-3.31,2.28-4.76,3.33s-2.16,1.75-2.12,2.1l.4,3.48q1.62.89,3.29,1.75c.79-.54,1.38-.95,1.76-1.23s.9-.59,1.67-1.12l2.37-1.66q1.22-.87,2.37-1.67c.77-.53,1.33-.9,1.68-1.12a.41.41,0,0,1,.26-.16l.29.1a2.14,2.14,0,0,1,1,.41l1,9.06c.37,0,1.12-.16,2.26-.37s1.89-.33,2.26-.37l2.7-.84-1-8.76,1.5-.17,12.34,5.07.54-.06c.73-.08,1.15-.35,1.29-.82l-.27-2.35c-.08-.7-.19-1.43-.32-2.22a2.21,2.21,0,0,0-1.38-1.69c-.49-.2-1.32-.58-2.49-1.1l-3.73-1.69-3.73-1.69-2.48-1.1a4.43,4.43,0,0,1-1.91-1.5,10,10,0,0,1-.49-2.46l-.2-1.7.62-.6q.58.2,2.18.88l3.35,1.4q1.75.73,3.28,1.41a15.51,15.51,0,0,0,2.25.86,4.41,4.41,0,0,0,1.31.51l1.29.38.28,0,.27,0c.08-.09.29-.3.63-.6l-.74-6.41c0-.08-.12-.18-.31-.29a3.17,3.17,0,0,1-.45-.28q-.6-.32-3-1.24t-5.08-2q-2.69-1.08-4.82-2.16c-1.43-.72-2.16-1.29-2.21-1.73l-1.34-11.64a2.06,2.06,0,0,1,.45-1.51,5.29,5.29,0,0,1,1.45-1.29,12.16,12.16,0,0,1,1.77-.93,5.8,5.8,0,0,1,1.55-.44,8.67,8.67,0,0,1,3,.51c1.39.41,2.79.89,4.2,1.44a27.5,27.5,0,0,1,3.75,1.75c1.09.63,1.65,1.07,1.68,1.33l1.89,16.33a6.88,6.88,0,0,0,1.83.85,21.19,21.19,0,0,0,3,1l.68-.08.55-.06c-.06-.52-.12-1.42-.17-2.69s-.14-2.63-.26-4.08-.23-2.8-.33-4.07-.18-2.17-.24-2.69a.38.38,0,0,0,0-.4,2.09,2.09,0,0,1-.13-.51,11.27,11.27,0,0,1,1.94,0,11.68,11.68,0,0,1,2.2.34,4.26,4.26,0,0,1,1.85,1,2.91,2.91,0,0,1,.92,1.88l1.67,14.51a6.63,6.63,0,0,0,1,.54q1,.41,2.74,1.27a5.8,5.8,0,0,0,3.23.69l-1.71-14.77a5.84,5.84,0,0,1,2.45.24,17.5,17.5,0,0,1,2.33.92l.13.06a89.16,89.16,0,0,1-2.22-16.75q-1.66,1.21-3.18,2.26c-1.16.8-1.95,1.35-2.37,1.66a6.91,6.91,0,0,1-1,.71,5.61,5.61,0,0,1-1.15.2,4.89,4.89,0,0,1-3-.65,10.47,10.47,0,0,1-2.42-1.78,4.32,4.32,0,0,1,1-1.11q.7-.54,1.22-.87a20.66,20.66,0,0,1,1.85-1.41q1.34-1,2.87-2.12c1-.78,2-1.49,2.94-2.13a19.41,19.41,0,0,0,1.92-1.42,1,1,0,0,1,0-.33,1.06,1.06,0,0,0,0-.34,1.74,1.74,0,0,0-.76-1.17,8.21,8.21,0,0,0-1.63-.93,7.75,7.75,0,0,0-1.94-.57,6.31,6.31,0,0,0-1.67-.07,7.52,7.52,0,0,0-3.77,1.56q-1.72,1.33-3.34,2.83a41.52,41.52,0,0,1-3.42,2.85,7.84,7.84,0,0,1-3.84,1.57,8.82,8.82,0,0,1-3-.38,28.45,28.45,0,0,1-3.9-1.34A19.88,19.88,0,0,1,232,431c-1-.64-1.46-1.22-1.52-1.75l.08-5.26q-.06-.52,1.4-1.68t3.26-2.36q1.8-1.2,3.36-2.11a7.89,7.89,0,0,1,2-1l1-.11a22.41,22.41,0,0,0,2.12.95c1,.41,2.11.88,3.28,1.41s2.29,1,3.35,1.4a19.94,19.94,0,0,1,2.19.93c1.07.41,1.74.67,2,.76a4,4,0,0,0,1.53,0,6.82,6.82,0,0,0,1.55-.44,10.82,10.82,0,0,0,1.9-.95A7.53,7.53,0,0,0,261,419.6a1.68,1.68,0,0,0,.54-1.32l-.17-.25a.47.47,0,0,0-.61-.46l-12.45-5.72-.13-1.17c0-.17.33-.5,1.06-1s1.31-.84,1.75-1.07c.09,0,.34-.06.74-.15s.7-.15.88-.17a8.15,8.15,0,0,1,.83,0h.7l10,4c.23-2.67.51-5.14.86-7.32-.89-.4-1.72-.81-2.45-1.21q-1.7-.93-1.74-1.32a2,2,0,0,1,1-2,26.91,26.91,0,0,1,2.39-1.53,27.2,27.2,0,0,0,2.39-1.54,3,3,0,0,0,.41-.36c.09-.22.18-.43.28-.62v-1.9a7.47,7.47,0,0,0-.92-1.53,2.54,2.54,0,0,0-2.29-1.26,5.57,5.57,0,0,0-2.46.88,17.14,17.14,0,0,0-2.1,1.64,17.31,17.31,0,0,1-2.1,1.63,5.53,5.53,0,0,1-2.46.88l-1.74-15-.87-.43-5.47,3.54,1.89,16.34a1.83,1.83,0,0,1-.5,1.25,7.61,7.61,0,0,1-1.33,1.35,9.21,9.21,0,0,1-1.65,1.05,4.69,4.69,0,0,1-1.43.5,1,1,0,0,1-.59-.13.56.56,0,0,1-.33-.42l-1.77-15.3a5.4,5.4,0,0,0-1.5.64c-.73.39-1.5.83-2.31,1.32s-1.53,1-2.16,1.44-.93.84-.9,1.1l1.95,16.86c-.77.62-1.4,1.11-1.92,1.48s-1.05.74-1.61,1.11a11.81,11.81,0,0,0-1.34,1,33.26,33.26,0,0,0-3,2.07,5.55,5.55,0,0,1-2.87,1A9.16,9.16,0,0,1,222,417q-2.23-.66-2.37-1.84l-1.34-11.64a1.13,1.13,0,0,1,.48-1.24l1.24-.67q1.14-.93,3-2.2t3.6-2.54q1.73-1.26,4.31-3l1.1-1.32-.68-5.89c0-.08-.12-.18-.31-.29a.87.87,0,0,0-.44-.15.12.12,0,0,0-.15-.12l-.14,0c-.18,0-.27.08-.26.17l-11.61,7.83-.28,0-.27,0-.76-.57-.23-2-.18-1.57a1.83,1.83,0,0,1,.49-1.78l12.53-9.13-.89-7.71a5.11,5.11,0,0,0-1.29.28,5.33,5.33,0,0,0-1.1.66,19.74,19.74,0,0,1-1.92,1.42c-.94.64-1.92,1.35-2.94,2.13s-2,1.49-2.94,2.13a19.71,19.71,0,0,0-1.92,1.42l-.27,0-.27,0q-.29-.1-1-.42l-1-8.76c0-.08-.23-.17-.66-.25a7,7,0,0,1-.93-.22l-2.89.33-2.06.24-.75.75,1,9a8.16,8.16,0,0,1-4-.53c-.91-.36-1.82-.75-2.72-1.17q-4.38,1-8.39,2.35c.1.34.21.67.33,1a2.24,2.24,0,0,0,1.13,1.39,67.87,67.87,0,0,0,6.87,3,70.53,70.53,0,0,1,6.87,3,6.59,6.59,0,0,0,.75.45l.62,5.36-1.23.14-12.37-5.06-1.23.14.8,6.93a6.89,6.89,0,0,0,.62.59q.59.33,2.92,1.25l4.87,2q2.54,1,4.59,2t2.1,1.34l1.34,11.63a1.41,1.41,0,0,1-.62,1.13,10.91,10.91,0,0,1-1.65,1.19,13.6,13.6,0,0,1-1.88.95,5.89,5.89,0,0,1-1.32.41,7.39,7.39,0,0,1-2.53-.5c-1.24-.39-2.5-.86-3.8-1.42s-2.48-1.1-3.55-1.65-1.61-.89-1.63-1.07L193,398.78c0-.17-.33-.4-.92-.69a15,15,0,0,0-2-.76c-.73-.23-1.43-.43-2.11-.62a4.7,4.7,0,0,0-1.29-.25c-.37,0-.55.11-.54.19l-.28,2.42,1.34,11.63a1.31,1.31,0,0,1-.22.56,6.09,6.09,0,0,0-.34.7l-.27,0-.28,0-2.64-1.09a5.84,5.84,0,0,1-1.63-.81L180,394.32a2.15,2.15,0,0,0-1.13-1.46,10.1,10.1,0,0,0-1.59-.84v4C179,399.1,180.34,407,180.86,417Zm30.78,7.75a10.62,10.62,0,0,1,1.46-1.16,15.85,15.85,0,0,1,1.69-1,4.51,4.51,0,0,1,1.4-.49l.68-.08,1,.41c.49.21,1,.46,1.54.75L221,424a9.92,9.92,0,0,0,1,.48c.18,0,.43.13.75.44l.74,6.4a1.4,1.4,0,0,1-.63,1.13,10.48,10.48,0,0,1-1.67,1.19,13.6,13.6,0,0,1-1.9.95A5.85,5.85,0,0,1,218,435a5.05,5.05,0,0,1-1.33-.11,15.27,15.27,0,0,1-2-.5,11,11,0,0,1-1.9-.77c-.54-.29-.83-.61-.87-1l-.8-6.92C211,425.49,211.23,425.16,211.64,424.76Z" transform="translate(-17.35 -313.46)"/><path id="snoflake_black_shadow" data-name="snoflake black shadow" class="cls-8" d="M262,424.13l0-.22a11.18,11.18,0,0,0-2.75-1.37,6.74,6.74,0,0,0-2.54-.61l-.23,0c-.36.27-1,.74-2,1.42s-2,1.42-3.1,2.22-2.12,1.54-3.11,2.22-1.66,1.15-2,1.41a5.51,5.51,0,0,1-.81.6,4.86,4.86,0,0,1-1,.17,4.15,4.15,0,0,1-2.54-.55,9,9,0,0,1-2.06-1.51,3.65,3.65,0,0,1,.89-.94c.4-.31.74-.55,1-.74a17.91,17.91,0,0,1,1.57-1.19c.76-.54,1.58-1.14,2.44-1.8s1.7-1.26,2.5-1.81a16,16,0,0,0,1.63-1.2.84.84,0,0,1,0-.29.84.84,0,0,0,0-.29,1.48,1.48,0,0,0-.65-1,7.14,7.14,0,0,0-1.39-.79,6.67,6.67,0,0,0-1.65-.49,5.64,5.64,0,0,0-1.42-.06,6.4,6.4,0,0,0-3.21,1.33q-1.46,1.13-2.84,2.41a35.14,35.14,0,0,1-2.91,2.42,6.66,6.66,0,0,1-3.26,1.33,7.36,7.36,0,0,1-2.57-.32,24.47,24.47,0,0,1-3.32-1.13,17.21,17.21,0,0,1-2.89-1.53c-.81-.54-1.24-1-1.29-1.48l.07-4.47c0-.29.36-.77,1.19-1.43s1.75-1.33,2.77-2,2-1.28,2.86-1.79a6.75,6.75,0,0,1,1.68-.82l.81-.09a18.42,18.42,0,0,0,1.8.81q1.3.53,2.79,1.2t2.85,1.19a17.42,17.42,0,0,1,1.86.79l1.73.65a3.37,3.37,0,0,0,1.3,0,5.8,5.8,0,0,0,1.31-.38,9.27,9.27,0,0,0,1.62-.8,6.49,6.49,0,0,0,1.29-1.05,1.42,1.42,0,0,0,.46-1.12l-.15-.21a.4.4,0,0,0-.51-.39l-10.58-4.86-.12-1c0-.15.28-.43.91-.84s1.12-.71,1.49-.9l.63-.13c.35-.08.59-.12.75-.14s.39,0,.7,0,.51,0,.59,0l11.5,4.64a.94.94,0,0,0,.59,0,4.26,4.26,0,0,0,1.13-.41,16.69,16.69,0,0,0,1.66-.92,10.75,10.75,0,0,0,1.52-1.13,1.37,1.37,0,0,0,.58-1.14l-.06-.56q-.75-.36-2.61-1.16l-3.78-1.59a33.37,33.37,0,0,1-3.37-1.58c-1-.53-1.46-.9-1.48-1.12a1.73,1.73,0,0,1,.81-1.67,24.09,24.09,0,0,1,2-1.3,22.74,22.74,0,0,0,2-1.3,1.73,1.73,0,0,0,.81-1.67,4.55,4.55,0,0,0-1-2.08,2.17,2.17,0,0,0-1.95-1.07,4.78,4.78,0,0,0-2.1.75,15,15,0,0,0-1.79,1.39,14.86,14.86,0,0,1-1.78,1.39,4.72,4.72,0,0,1-2.1.75L241.81,380l-.74-.37-4.65,3,1.6,13.89a1.56,1.56,0,0,1-.42,1.06,6.62,6.62,0,0,1-1.13,1.15,8.07,8.07,0,0,1-1.4.9,4.05,4.05,0,0,1-1.22.42.83.83,0,0,1-.5-.11.47.47,0,0,1-.28-.36l-1.5-13a4.57,4.57,0,0,0-1.28.54q-.93.5-2,1.13t-1.84,1.23c-.54.4-.79.71-.77.93l1.66,14.34c-.65.53-1.19.95-1.63,1.26s-.89.63-1.37.95a10,10,0,0,0-1.14.86,28.1,28.1,0,0,0-2.58,1.76,4.72,4.72,0,0,1-2.44.84,7.81,7.81,0,0,1-2.95-.45q-1.9-.57-2-1.57l-1.14-9.89a1,1,0,0,1,.41-1.06l1.06-.57q1-.79,2.56-1.87t3.06-2.16q1.47-1.07,3.66-2.56l.94-1.12-.58-5c0-.07-.1-.16-.26-.25a.79.79,0,0,0-.37-.13.1.1,0,0,0-.13-.1l-.12,0c-.16,0-.23.06-.22.14l-9.87,6.66-.23,0-.23,0-.65-.49-.19-1.67-.15-1.33a1.55,1.55,0,0,1,.42-1.51l10.66-7.76-.76-6.56a4.34,4.34,0,0,0-1.09.24,4.57,4.57,0,0,0-.93.56,16.75,16.75,0,0,1-1.63,1.21q-1.2.82-2.5,1.81c-.87.66-1.7,1.27-2.5,1.81a16.31,16.31,0,0,0-1.63,1.2l-.23,0-.23,0c-.17-.06-.44-.17-.83-.36l-.86-7.45c0-.07-.19-.14-.56-.22a6.16,6.16,0,0,1-.79-.19l-2.46.28-1.75.2-.64.64.89,7.67a7,7,0,0,1-3.37-.45q-1.16-.46-2.31-1-3.72.88-7.13,2c.09.29.18.57.28.85a1.9,1.9,0,0,0,1,1.18,57.64,57.64,0,0,0,5.84,2.59,59.35,59.35,0,0,1,5.84,2.59,6,6,0,0,0,.63.38l.53,4.56-1,.12L193,387.19l-1,.12.68,5.89a6.44,6.44,0,0,0,.53.5q.5.28,2.48,1.07l4.14,1.66q2.17.87,3.91,1.69c1.16.54,1.76.92,1.78,1.14l1.14,9.89a1.2,1.2,0,0,1-.53,1,9.2,9.2,0,0,1-1.4,1,11.56,11.56,0,0,1-1.6.8,5.08,5.08,0,0,1-1.12.35,6.34,6.34,0,0,1-2.15-.43,34.47,34.47,0,0,1-3.23-1.2q-1.66-.71-3-1.4c-.91-.46-1.37-.76-1.39-.91l-1.6-13.89q0-.22-.79-.58a13,13,0,0,0-1.69-.65l-1.79-.52a4,4,0,0,0-1.1-.21c-.32,0-.46.09-.46.17l-.24,2.06,1.14,9.89a1.1,1.1,0,0,1-.18.47,5.1,5.1,0,0,0-.29.6l-.23,0-.24,0-2.25-.93a5.09,5.09,0,0,1-1.39-.68l-1.55-13.45a1.83,1.83,0,0,0-1-1.24,8.57,8.57,0,0,0-1.35-.71v7.35c1.3,2.3,2.39,7.35,3.07,14a4.88,4.88,0,0,1,2.41,1.43c0,.29-.1.46-.41.5-.56.49-1.13,1-1.69,1.43.17,2.3.3,4.73.38,7.28q1.41-1.1,2.75-2.34a34.71,34.71,0,0,1,2.9-2.42,6.67,6.67,0,0,1,3.26-1.34l1-.12c.33.12.88.35,1.67.71l2.49,1.12c.87.38,1.7.74,2.48,1.06s1.34.58,1.68.77a1.71,1.71,0,0,1,.63.37l.57,5q.05.45-1.13,1.48t-2.75,2.18a33.21,33.21,0,0,1-3.07,2,7,7,0,0,1-2.07.91,4.79,4.79,0,0,1-2.52-.33l-2.6-1.11c-.33-.11-.88-.35-1.67-.71s-1.61-.71-2.47-1.07l-1.12-.47c0,2.22,0,4.39-.12,6.48l3.35,1.51.63.37a4.87,4.87,0,0,1-3.7,2.57h-.51a107.09,107.09,0,0,1-1.25,11.14l1.32,11.39c0,.08.09.16.26.25a.81.81,0,0,0,.49.11,4.71,4.71,0,0,0,4.15-2.67,13,13,0,0,0,1-5.24,33.58,33.58,0,0,0-.51-5.9,25.09,25.09,0,0,1-.48-4.67c.21-.17.68-.49,1.41-1l1.53-1,.23,0,.23,0a4.89,4.89,0,0,0,.41.52,1.14,1.14,0,0,1,.29.42l1.4,12.09a6.13,6.13,0,0,0,3.61-1.82,4.46,4.46,0,0,0,1.53-3.5q-.08-.66-.22-2.39t-.31-3.73q-.18-2-.26-3.79c-.06-1.19-.12-2-.17-2.46.35-.34.87-.77,1.55-1.3l2.21-1.71q1.18-.92,2.38-1.74a18.52,18.52,0,0,1,2.09-1.25l.46-.05.58-.07,1.72.7,2.1.88a5.51,5.51,0,0,0,.63.38l1.23,10.65-11.77,8.67.65,5.66a8.64,8.64,0,0,0,4.48-2.15q2.26-1.89,3.9-3.09l3-1.81.65.49.45,3.88c0,.37-.55,1-1.79,1.95s-2.58,1.89-4,2.89-2.81,1.94-4,2.83-1.84,1.49-1.81,1.78l.64,5.55a5.15,5.15,0,0,0,2.25-.93c.8-.54,1.38-.94,1.75-1.21s.77-.5,1.42-.95l2-1.42q1-.74,2-1.42t1.42-1a.33.33,0,0,1,.22-.13l.25.08a1.79,1.79,0,0,1,.87.35l.89,7.7q.47-.05,1.92-.32c1-.17,1.61-.28,1.92-.31l2.29-.72-.86-7.45,1.27-.15,10.49,4.31.46-.05c.62-.07,1-.3,1.1-.69l-.23-2c-.07-.59-.16-1.22-.28-1.89a1.88,1.88,0,0,0-1.17-1.44l-2.11-.94-3.17-1.43-3.17-1.44-2.11-.94a3.73,3.73,0,0,1-1.62-1.28,8.51,8.51,0,0,1-.42-2.09L218,449l.53-.51q.49.17,1.85.74l2.85,1.19c1,.42,1.92.81,2.79,1.2a13.08,13.08,0,0,0,1.91.74,3.81,3.81,0,0,0,1.11.44l1.1.32.23,0,.23,0c.07-.08.25-.25.53-.51l-.63-5.45c0-.08-.1-.16-.26-.25a2.76,2.76,0,0,1-.38-.24q-.51-.28-2.54-1.06T223,443.9q-2.29-.92-4.1-1.84T217,440.59l-1.14-9.9a1.76,1.76,0,0,1,.38-1.28,4.51,4.51,0,0,1,1.23-1.1,10.63,10.63,0,0,1,1.51-.79,4.88,4.88,0,0,1,1.32-.38,7.39,7.39,0,0,1,2.59.43q1.77.53,3.57,1.22a23.11,23.11,0,0,1,3.19,1.49c.93.53,1.41.91,1.43,1.13l1.6,13.89a6,6,0,0,0,1.56.72,17.54,17.54,0,0,0,2.53.83l.58-.07.47-.05c-.05-.44-.1-1.2-.15-2.29s-.12-2.24-.22-3.47-.2-2.38-.28-3.46-.15-1.84-.2-2.29a.33.33,0,0,0,0-.34,1.73,1.73,0,0,1-.11-.44,9.72,9.72,0,0,1,1.65,0,10.07,10.07,0,0,1,1.87.29,3.62,3.62,0,0,1,1.57.83,2.48,2.48,0,0,1,.78,1.6l1.42,12.34a6.09,6.09,0,0,0,.87.46c.57.23,1.35.59,2.33,1.08a4.91,4.91,0,0,0,2.74.58l-1.45-12.56a5,5,0,0,1,2.08.21,14.69,14.69,0,0,1,2,.78c.62.3,1.25.57,1.86.8a4.15,4.15,0,0,0,2,.22,1.69,1.69,0,0,0,1-.62,9,9,0,0,0,.92-1.18,10.44,10.44,0,0,0,.69-1.21c.19-.4.24-.66.15-.8l-.7-.93q-1.25-.64-2.12-1c-.58-.23-1.17-.48-1.79-.75l-1.55-.66c-.5-.24-.83-.34-1-.28s-.25-.14-.3-.58a1.27,1.27,0,0,1,.47-1.07l9.2-7.14a.5.5,0,0,0,.27-.2l.26-.32Zm-46-1a9.08,9.08,0,0,1-1.42,1,11.49,11.49,0,0,1-1.62.8,5.15,5.15,0,0,1-1.14.36,4.53,4.53,0,0,1-1.13-.1,12.83,12.83,0,0,1-1.7-.42,9,9,0,0,1-1.61-.66c-.46-.25-.71-.52-.74-.81l-.68-5.89c0-.22.14-.51.49-.84a9.14,9.14,0,0,1,1.24-1,12.92,12.92,0,0,1,1.44-.84,3.77,3.77,0,0,1,1.19-.42l.58-.07.87.35c.42.18.85.39,1.31.64l1.32.69a7.52,7.52,0,0,0,.87.41c.15,0,.37.11.63.37l.63,5.45A1.2,1.2,0,0,1,216,423.09Z" transform="translate(-17.35 -313.46)"/><path class="cls-9" d="M216,501.77" transform="translate(-17.35 -313.46)"/><path id="snowflake_outline" data-name="snowflake outline" class="cls-10" d="M260.47,422.1l0-.22a11.28,11.28,0,0,0-2.75-1.37,6.78,6.78,0,0,0-2.54-.61l-.23,0q-.54.4-2,1.42t-3.1,2.22q-1.63,1.2-3.11,2.22t-2,1.41a5.84,5.84,0,0,1-.82.6,5.14,5.14,0,0,1-1,.17,4.15,4.15,0,0,1-2.54-.55,9,9,0,0,1-2.06-1.51,3.65,3.65,0,0,1,.89-.94c.4-.31.74-.55,1-.74a18.4,18.4,0,0,1,1.57-1.2q1.14-.81,2.44-1.8c.87-.66,1.7-1.26,2.5-1.81a16,16,0,0,0,1.63-1.2.84.84,0,0,1,0-.28.83.83,0,0,0,0-.29,1.48,1.48,0,0,0-.65-1,7.16,7.16,0,0,0-1.39-.79,6.62,6.62,0,0,0-1.65-.49,5.74,5.74,0,0,0-1.42-.06,6.41,6.41,0,0,0-3.21,1.33q-1.46,1.13-2.85,2.41a35,35,0,0,1-2.9,2.42,6.64,6.64,0,0,1-3.26,1.33,7.49,7.49,0,0,1-2.57-.32,24.22,24.22,0,0,1-3.32-1.14,16.74,16.74,0,0,1-2.89-1.52c-.81-.54-1.24-1-1.29-1.48l.07-4.47c0-.3.36-.77,1.19-1.43s1.75-1.33,2.77-2,2-1.28,2.86-1.79a6.8,6.8,0,0,1,1.68-.82l.81-.09a18.74,18.74,0,0,0,1.8.81c.86.35,1.79.75,2.79,1.19s1.94.84,2.85,1.19a17.62,17.62,0,0,1,1.86.79l1.73.65a3.46,3.46,0,0,0,1.3,0A6,6,0,0,0,244,412a9.24,9.24,0,0,0,1.62-.8,6.36,6.36,0,0,0,1.29-1.05,1.42,1.42,0,0,0,.46-1.12l-.14-.21a.4.4,0,0,0-.52-.39l-10.58-4.86-.12-1c0-.15.28-.42.91-.84s1.12-.71,1.48-.9l.63-.13c.34-.07.59-.12.75-.14s.39,0,.7,0h.59l11.5,4.64a1,1,0,0,0,.59,0,4.43,4.43,0,0,0,1.13-.41,16.49,16.49,0,0,0,1.66-.92,10.73,10.73,0,0,0,1.52-1.13,1.38,1.38,0,0,0,.58-1.14L258,401q-.75-.36-2.61-1.16l-3.78-1.59a34.66,34.66,0,0,1-3.37-1.58q-1.45-.79-1.48-1.13a1.73,1.73,0,0,1,.81-1.67,23.79,23.79,0,0,1,2-1.3,22.37,22.37,0,0,0,2-1.3,1.73,1.73,0,0,0,.81-1.67,4.57,4.57,0,0,0-1-2.08,2.16,2.16,0,0,0-1.95-1.07,4.76,4.76,0,0,0-2.1.75,14.77,14.77,0,0,0-1.79,1.39,14.62,14.62,0,0,1-1.78,1.39,4.69,4.69,0,0,1-2.09.75L240.29,378l-.74-.37-4.65,3,1.61,13.89a1.56,1.56,0,0,1-.42,1.06,6.56,6.56,0,0,1-1.13,1.15,7.76,7.76,0,0,1-1.4.89,4,4,0,0,1-1.22.42.83.83,0,0,1-.5-.11.47.47,0,0,1-.28-.36l-1.5-13a4.63,4.63,0,0,0-1.28.54q-.93.5-2,1.13T225,387.44c-.54.4-.79.71-.76.93l1.66,14.34c-.65.53-1.19.94-1.63,1.26s-.89.63-1.37.95a9.76,9.76,0,0,0-1.14.87,27.36,27.36,0,0,0-2.58,1.76,4.72,4.72,0,0,1-2.45.84,7.8,7.8,0,0,1-2.95-.45q-1.9-.57-2-1.57l-1.14-9.89a1,1,0,0,1,.41-1.06l1.06-.57q1-.79,2.56-1.87t3.06-2.16q1.47-1.07,3.67-2.56l.94-1.12-.58-5c0-.07-.1-.16-.26-.25a.75.75,0,0,0-.37-.13c0-.08-.05-.11-.13-.1h-.12c-.16,0-.23.06-.22.14l-9.87,6.66-.23,0-.23,0-.65-.49-.19-1.67-.15-1.33a1.55,1.55,0,0,1,.41-1.51l10.66-7.76-.76-6.56a4.27,4.27,0,0,0-1.09.24,4.58,4.58,0,0,0-.94.56,16.4,16.4,0,0,1-1.63,1.2c-.8.55-1.64,1.15-2.5,1.81s-1.7,1.26-2.5,1.81a16.48,16.48,0,0,0-1.63,1.2l-.23,0-.23,0q-.25-.08-.83-.35l-.86-7.45s0-.06-.1-.08a30.1,30.1,0,0,0-5.31,1.94v5.79l.09.74a6.59,6.59,0,0,1-1.56,0,87.55,87.55,0,0,0-9.9,2.63,57.69,57.69,0,0,0,5.73,2.54,59.83,59.83,0,0,1,5.84,2.59,5.82,5.82,0,0,0,.63.38l.53,4.56-1,.12-10.52-4.31-1,.12.68,5.89a6.1,6.1,0,0,0,.53.5q.5.28,2.48,1.07l4.14,1.66q2.17.88,3.91,1.69c1.16.54,1.76.93,1.79,1.15l1.14,9.89a1.2,1.2,0,0,1-.53,1,9.2,9.2,0,0,1-1.4,1,11.55,11.55,0,0,1-1.6.8,5,5,0,0,1-1.12.35,6.36,6.36,0,0,1-2.15-.42c-1.05-.33-2.12-.73-3.23-1.2s-2.11-.94-3-1.4-1.37-.76-1.39-.91l-1.61-13.89c0-.14-.28-.34-.79-.58a12.8,12.8,0,0,0-1.69-.65q-.93-.29-1.79-.53a3.94,3.94,0,0,0-1.1-.21c-.32,0-.47.09-.46.17l-.24,2.05,1.14,9.89a1.12,1.12,0,0,1-.19.47,5.76,5.76,0,0,0-.29.6l-.23,0-.24,0-2.25-.93a4.87,4.87,0,0,1-1.39-.68l-1.55-13.45a1.68,1.68,0,0,0-.79-1.12v8.54c1.2,2.13,2.23,6.62,2.91,12.54a5.39,5.39,0,0,1,1,.85.4.4,0,0,1-.41.5l-.44.38c.22,2.24.4,4.65.53,7.19q.69-.58,1.35-1.21a34.35,34.35,0,0,1,2.9-2.41,6.63,6.63,0,0,1,3.26-1.34l1-.12c.33.12.88.35,1.67.71l2.49,1.12c.87.39,1.7.74,2.48,1.06a18,18,0,0,1,1.68.76,1.73,1.73,0,0,1,.63.38l.57,5c0,.3-.34.79-1.13,1.48s-1.7,1.41-2.75,2.18a33.74,33.74,0,0,1-3.07,2,7.08,7.08,0,0,1-2.07.92,4.78,4.78,0,0,1-2.52-.33c-.74-.33-1.61-.7-2.6-1.11-.33-.11-.88-.35-1.67-.71s-1.36-.6-2.08-.9c0,.38,0,.76,0,1.14,0,1.84,0,3.65-.08,5.4l1.78.8.63.38a5.16,5.16,0,0,1-2.55,2.29,92.3,92.3,0,0,1-2.22,17.39l.63,5.44c0,.08.09.16.26.25a.82.82,0,0,0,.49.11,4.72,4.72,0,0,0,4.15-2.67,13,13,0,0,0,1-5.24,33.38,33.38,0,0,0-.51-5.9,25.3,25.3,0,0,1-.48-4.67c.21-.17.68-.49,1.42-.95l1.54-1,.23,0,.23,0a4.56,4.56,0,0,0,.41.52,1.16,1.16,0,0,1,.28.41l1.4,12.1a6.1,6.1,0,0,0,3.61-1.82,4.45,4.45,0,0,0,1.53-3.5c0-.44-.12-1.24-.22-2.39s-.2-2.39-.31-3.73-.21-2.6-.26-3.79-.12-2-.17-2.46a20.25,20.25,0,0,1,1.55-1.3l2.21-1.71q1.19-.92,2.38-1.74a18.32,18.32,0,0,1,2.09-1.25l.46-.05.58-.07,1.72.7,2.1.88a5.58,5.58,0,0,0,.63.38l1.23,10.65-11.77,8.67.65,5.66a8.63,8.63,0,0,0,4.48-2.15q2.26-1.89,3.9-3.09l3-1.8.65.49.45,3.88c0,.37-.55,1-1.79,2s-2.58,1.89-4,2.89-2.81,1.94-4,2.83-1.84,1.49-1.81,1.78l.64,5.55a5.16,5.16,0,0,0,2.25-.93c.8-.54,1.38-.94,1.75-1.22s.77-.5,1.42-1l2-1.41,2-1.42q1-.68,1.43-1a.32.32,0,0,1,.22-.14l.25.08a1.86,1.86,0,0,1,.87.35l.89,7.7c.31,0,1-.14,1.92-.31s1.61-.28,1.92-.32l2.29-.71-.86-7.45,1.27-.15,10.49,4.31.46-.05c.62-.07,1-.3,1.1-.69l-.23-2c-.07-.59-.16-1.22-.28-1.88a1.89,1.89,0,0,0-1.17-1.45c-.41-.17-1.12-.49-2.11-.93l-3.17-1.44-3.17-1.44-2.11-.94a3.73,3.73,0,0,1-1.62-1.28,8.44,8.44,0,0,1-.42-2.09l-.17-1.45.53-.51q.49.17,1.85.74l2.85,1.19q1.49.62,2.79,1.2a12.89,12.89,0,0,0,1.91.74,3.76,3.76,0,0,0,1.11.44l1.1.32.23,0,.23,0a6.84,6.84,0,0,1,.53-.51l-.63-5.45c0-.07-.1-.16-.26-.25a2.49,2.49,0,0,1-.38-.24q-.51-.27-2.54-1.06t-4.32-1.7c-1.53-.61-2.89-1.23-4.1-1.84s-1.84-1.1-1.88-1.47l-1.14-9.9a1.75,1.75,0,0,1,.38-1.28,4.49,4.49,0,0,1,1.23-1.1,10.42,10.42,0,0,1,1.51-.79,5,5,0,0,1,1.32-.38,7.32,7.32,0,0,1,2.59.43q1.77.53,3.57,1.22a23.85,23.85,0,0,1,3.18,1.49q1.39.8,1.43,1.13l1.6,13.89a5.92,5.92,0,0,0,1.56.72,18.19,18.19,0,0,0,2.52.83l.58-.07.47-.05c0-.44-.1-1.2-.15-2.29s-.12-2.24-.22-3.47-.2-2.38-.28-3.46-.15-1.84-.2-2.29a.33.33,0,0,0,0-.34,1.74,1.74,0,0,1-.11-.44,9.64,9.64,0,0,1,1.65,0,10.22,10.22,0,0,1,1.87.29,3.65,3.65,0,0,1,1.57.83,2.48,2.48,0,0,1,.78,1.6l1.42,12.34a6.09,6.09,0,0,0,.87.46q.85.35,2.33,1.08a4.94,4.94,0,0,0,2.74.58l-1.45-12.56a5,5,0,0,1,2.08.21,14.66,14.66,0,0,1,2,.78,20,20,0,0,0,1.86.8,4.15,4.15,0,0,0,2,.22,1.7,1.7,0,0,0,1-.62,8.85,8.85,0,0,0,.92-1.18,10.12,10.12,0,0,0,.69-1.21c.19-.39.24-.67.14-.8l-.7-.93q-1.25-.65-2.12-1l-1.79-.75-1.55-.67c-.5-.24-.83-.33-1-.28s-.25-.14-.3-.59a1.27,1.27,0,0,1,.47-1.07l9.2-7.14a.5.5,0,0,0,.27-.2l.26-.32Zm-46-1a9.29,9.29,0,0,1-1.42,1,11.91,11.91,0,0,1-1.62.8,5,5,0,0,1-1.14.36,4.42,4.42,0,0,1-1.13-.09,12.79,12.79,0,0,1-1.7-.42,9,9,0,0,1-1.61-.66c-.46-.24-.71-.52-.74-.81l-.68-5.89q0-.33.49-.85a9.23,9.23,0,0,1,1.24-1,13,13,0,0,1,1.44-.84,3.74,3.74,0,0,1,1.19-.42l.58-.07c.16.06.45.18.87.35s.85.39,1.31.64l1.32.69a7.84,7.84,0,0,0,.87.41c.15,0,.37.11.63.37l.63,5.45A1.21,1.21,0,0,1,214.51,421.07Z" transform="translate(-17.35 -313.46)"/><g id="snowflake_shadow" data-name="snowflake shadow"><path class="cls-11" d="M177.26,396.06a11.12,11.12,0,0,1,.76,1.73l-.76-6.6Z" transform="translate(-17.35 -313.46)"/><path class="cls-12" d="M209.23,458.65l.25-.22-.12.08Z" transform="translate(-17.35 -313.46)"/><path class="cls-13" d="M220,381.88a.85.85,0,0,0,.15.38Z" transform="translate(-17.35 -313.46)"/><path class="cls-14" d="M220,413.85h0s0,.08,0,.13Z" transform="translate(-17.35 -313.46)"/><path class="cls-15" d="M184.39,427.5h0l.05,0Z" transform="translate(-17.35 -313.46)"/><path class="cls-16" d="M254.5,434.28l-1.81-.76-1.55-.66a3.28,3.28,0,0,0-.44-.19,1.23,1.23,0,0,1-.75-.16,1.62,1.62,0,0,1-.7-1.34,2.25,2.25,0,0,1,.77-1.91l0,0,9-7a14,14,0,0,0-1.75-.77,6.92,6.92,0,0,0-2-.55l-1.79,1.26-3.07,2.2-3.13,2.24-2,1.39a5.06,5.06,0,0,1-1,.73,4.47,4.47,0,0,1-1.3.25,5.26,5.26,0,0,1-3.21-.68,10.16,10.16,0,0,1-2.3-1.69l-.54-.56.41-.66a4.62,4.62,0,0,1,1.15-1.23l1-.73a20.16,20.16,0,0,1,1.62-1.24l2.41-1.78c.86-.66,1.72-1.28,2.55-1.84.61-.41,1-.67,1.2-.86a.74.74,0,0,0-.23-.27,6.07,6.07,0,0,0-1.17-.67,5.54,5.54,0,0,0-1.37-.41,4.48,4.48,0,0,0-1.12-.06,5.26,5.26,0,0,0-2.66,1.11c-1,.74-1.89,1.53-2.77,2.34a36,36,0,0,1-3,2.49,7.79,7.79,0,0,1-3.8,1.54,8.4,8.4,0,0,1-3-.35,25.44,25.44,0,0,1-3.46-1.19,18.38,18.38,0,0,1-3.07-1.62,3.34,3.34,0,0,1-1.73-2.2v-.06l.07-4.54c0-.82.75-1.55,1.58-2.21s1.79-1.36,2.85-2.06,2-1.29,2.91-1.83a6.08,6.08,0,0,1,2.11-1l1.17-.13.31.17a17.8,17.8,0,0,0,1.68.75l2.83,1.21c1,.44,1.91.83,2.79,1.17a18.81,18.81,0,0,1,1.9.81l1.63.61a3,3,0,0,0,.82,0,4.69,4.69,0,0,0,1-.31,8,8,0,0,0,1.43-.71,5.27,5.27,0,0,0,1.07-.87,1.18,1.18,0,0,0,.1-.13l-11.08-5.09-.18-1.56c-.09-.77.6-1.29,1.37-1.8s1.16-.74,1.58-1l.14-.07.25,0,.52-.11.87-.16.83,0h.7l.31.08L253,404.17h.1a3.85,3.85,0,0,0,.78-.31,15.61,15.61,0,0,0,1.55-.86,9.57,9.57,0,0,0,1.36-1,.94.94,0,0,0,.23-.27l-2-.91-3.77-1.59a34.94,34.94,0,0,1-3.47-1.63c-1.43-.78-1.94-1.26-2-1.89a2.72,2.72,0,0,1,1.23-2.61,25.12,25.12,0,0,1,2.13-1.36,22.48,22.48,0,0,0,1.94-1.24.72.72,0,0,0,.38-.73,3.56,3.56,0,0,0-.81-1.6c-.25-.32-.61-.7-1-.66a3.61,3.61,0,0,0-1.61.57,13.72,13.72,0,0,0-1.65,1.29,15.8,15.8,0,0,1-1.91,1.49,5.85,5.85,0,0,1-2.58.92l-1.07.12L239.32,379,236,381.11l1.53,13.27a2.47,2.47,0,0,1-.62,1.79,7.57,7.57,0,0,1-1.32,1.33,9.05,9.05,0,0,1-1.6,1,5,5,0,0,1-1.58.53,1.94,1.94,0,0,1-1.16-.24,1.46,1.46,0,0,1-.8-1.13l-1.34-11.61-1.77,1c-.66.4-1.25.8-1.75,1.17a3.36,3.36,0,0,0-.32.27L227,403.15l-2.12,1.64-1.4,1a8.91,8.91,0,0,0-1,.77l-.07.07-.08.05a27.26,27.26,0,0,0-2.47,1.68,5.76,5.76,0,0,1-3,1.09,8.77,8.77,0,0,1-3.4-.49c-1.7-.51-2.62-1.32-2.75-2.43l-1.14-9.89a1.94,1.94,0,0,1,.94-2.07l1-.54c.65-.52,1.48-1.13,2.54-1.85l3-2.14,3.56-2.49.56-.68-.44-3.85-9.6,6.48-1.18.14-1.34-1-.4-3.42a2.47,2.47,0,0,1,.83-2.44l10.18-7.41-.55-4.79c-.11.07-.26.16-.43.29a18.12,18.12,0,0,1-1.68,1.24c-.8.54-1.62,1.14-2.45,1.77s-1.74,1.3-2.55,1.85a15,15,0,0,0-1.51,1.1l-.26.24-1.12.13-.2-.09L207,376.4l0-.56s-.67-5.8-.79-6.83l-.42-.1-1.5.17q-1.11.41-2.09.86l.88,7.61-1.07.12a8.11,8.11,0,0,1-3.91-.52h0q-3.23.75-6.23,1.68c1.54.75,3.12,1.44,4.71,2a61.35,61.35,0,0,1,5.95,2.64l0,0,.14.09.94.55.08.51.64,5.58-2.4.28-10.19-4.17.5,4.35.14.14c.24.12.83.39,2.26,1l4.15,1.66c1.43.58,2.76,1.15,4,1.71,1.74.81,2.3,1.27,2.37,1.95l1.14,9.89a2.12,2.12,0,0,1-.87,1.84,10.17,10.17,0,0,1-1.56,1.13,12.54,12.54,0,0,1-1.75.88,5.75,5.75,0,0,1-1.41.43,6.46,6.46,0,0,1-2.62-.47,35,35,0,0,1-3.33-1.24c-1.11-.47-2.14-1-3.08-1.43-1.31-.66-1.87-1-1.95-1.7l-1.57-13.55-.24-.13a12.28,12.28,0,0,0-1.54-.59l-1.76-.52-.28-.07-.13,1.09,1.13,9.78a1.8,1.8,0,0,1-.3,1.07l-.49,1-.63.14-.76.09-2.52-1c-.49-.2-.87-.36-1.17-.52.23,1.27.45,2.65.64,4.13a6.19,6.19,0,0,1,2,1.42l.23.25,0,.33a1.39,1.39,0,0,1-.92,1.51l-.88.75c.13,1.47.25,3,.34,4.61l.68-.61a36.07,36.07,0,0,1,3-2.49,7.8,7.8,0,0,1,3.8-1.55l1.34-.16.21.09,1.76.75,2.47,1.11,2.45,1c.77.31,1.31.56,1.69.76a3.34,3.34,0,0,1,.87.51l.35.26.62,5.39c.08.69-.35,1.37-1.48,2.36-.8.71-1.76,1.46-2.83,2.24a34.24,34.24,0,0,1-3.17,2.05,7,7,0,0,1-2.5,1.05,5.9,5.9,0,0,1-3.09-.42l-2.56-1.09c-.38-.14-1-.38-1.72-.73l-1.6-.69h0q0,2.18,0,4.28l2.27,1,1.56.92-.52.86a6.08,6.08,0,0,1-3.54,2.89,107.61,107.61,0,0,1-1.45,13l.92,7.94a3.48,3.48,0,0,0,2.91-2,12.05,12.05,0,0,0,1-4.84,32.29,32.29,0,0,0-.21-3.81c-.07-.64-.17-1.28-.28-1.92-.15-.87-.27-1.66-.35-2.37a18,18,0,0,1-.14-2.49v-.47l.38-.3c.26-.21.77-.55,1.52-1l1.74-1.09.26,0,1.07-.12.43.54.32.4a1.79,1.79,0,0,1,.53,1l1.26,10.93a5.51,5.51,0,0,0,1.91-1.25,3.46,3.46,0,0,0,1.22-2.72l-.21-2.37-.31-3.73-.27-3.83-.19-2.86.34-.38c.37-.36.91-.81,1.64-1.38l2.21-1.71c.79-.61,1.61-1.21,2.44-1.78a19.31,19.31,0,0,1,2.22-1.33l.18-.09,1.52-.18.22.09,1.77.72,2.17.91.17.11.93.55.09.51L210,440l-11.77,8.67.46,3.95a8.72,8.72,0,0,0,2.84-1.66c1.53-1.27,2.85-2.33,4-3.14l0,0,3.68-2.22.59.45,1,.75.5,4.31c.09.81-.52,1.62-2.19,2.88-1.25.94-2.62,1.92-4.09,2.92l-4,2.81a9.15,9.15,0,0,0-1.35,1.11l.47,4a5.62,5.62,0,0,0,.71-.4l1.71-1.19,1.45-1,2-1.4,2-1.43,1.34-.9a1.39,1.39,0,0,1,.8-.38l.25,0,.34.12a3.2,3.2,0,0,1,1.21.49l.44.26.82,7.12L214,466l1.85-.31,1.38-.43-.88-7.63,2.63-.31,10.49,4.31.18,0,.09,0-.17-1.53-.27-1.83a.87.87,0,0,0-.58-.69l-2.11-.94-6.34-2.87-2.13-.94,0,0A4.39,4.39,0,0,1,216,451a8.31,8.31,0,0,1-.5-2.38l-.22-1.94,1.41-1.36.63.25,1.91.77,2.84,1.19,2.82,1.21a11.67,11.67,0,0,0,1.73.67l.2,0,.18.13a3.57,3.57,0,0,0,.76.27l.63.19c-.11-1-.44-3.81-.51-4.39l-.31-.2.15.1c-.17-.09-.7-.34-2.41-1l-4.33-1.7c-1.54-.62-2.94-1.25-4.19-1.87-1.64-.83-2.35-1.48-2.44-2.26l-1.14-9.89a2.78,2.78,0,0,1,.58-2,5.65,5.65,0,0,1,1.52-1.36,11.77,11.77,0,0,1,1.66-.87,6,6,0,0,1,1.62-.46,8.12,8.12,0,0,1,3,.47c1.21.36,2.44.78,3.66,1.25a24.94,24.94,0,0,1,3.33,1.56c1.38.79,1.87,1.27,1.94,1.89l1.55,13.38c.19.09.49.21,1,.4a19.69,19.69,0,0,0,2,.69l-.08-1.26-.22-3.43-.28-3.46-.24-2.64,0,0-.37-1.47h1.23a10.88,10.88,0,0,1,1.85,0,11,11,0,0,1,2.08.32,4.67,4.67,0,0,1,2,1.08,3.44,3.44,0,0,1,1.1,2.22l1.37,11.84.24.12.05,0c.59.25,1.38.61,2.4,1.11a5,5,0,0,0,1,.38l-1.42-12.33L247,436a6.09,6.09,0,0,1,2.55.25,15.75,15.75,0,0,1,2.13.84c.6.29,1.2.55,1.76.76a3.07,3.07,0,0,0,1.43.16,1,1,0,0,0,.32-.27,8.26,8.26,0,0,0,.82-1,9.3,9.3,0,0,0,.62-1.09l0-.07-.33-.44C255.62,434.77,255,434.48,254.5,434.28Zm-39.26-12.46a10.05,10.05,0,0,1-1.59,1.13,12.65,12.65,0,0,1-1.77.88,5.88,5.88,0,0,1-1.43.43,5.27,5.27,0,0,1-1.46-.1,14.56,14.56,0,0,1-1.84-.46,10.22,10.22,0,0,1-1.8-.74,2.12,2.12,0,0,1-1.27-1.59l-.68-5.88a2.17,2.17,0,0,1,.8-1.69,10,10,0,0,1,1.38-1.1,14.06,14.06,0,0,1,1.56-.92,4.74,4.74,0,0,1,1.56-.53l.87-.1.21.09.93.38,1.4.68,1.31.69.67.32a2.19,2.19,0,0,1,1.1.66l.25.25.67,5.79A2.13,2.13,0,0,1,215.24,421.82Z" transform="translate(-17.35 -313.46)"/></g></g></svg>