<svg xmlns="http://www.w3.org/2000/svg" viewBox="0 0 362.5 178.57"><defs><style>.a{fill:#231f20;}.b{fill:#f5a81c;}</style></defs><title>ez_meals</title><path class="a" d="M200,69.48l0,0a9.79,9.79,0,0,0-.69-.73,7.17,7.17,0,0,0-6.16-1.55c-4.1.6-7.77,3.44-10.39,6-2,1.92-4.21,4.48-5.61,6l-1.34,1.27c-2.3,2.17-9.54,7.24-14,6.93a3,3,0,0,1-3.06-2.32v0h.09a21.75,21.75,0,0,0,6-1.49c3.58-1.26,7.82-3.43,10.39-7.07a12.77,12.77,0,0,0,1.74-3.53c.69-2.23.87-6.16-5.21-6a20.62,20.62,0,0,0-9.47,2.85c-5.11,2.69-10.23,8-11.87,13.6-1.29,4.41-.76,9.45,5.13,10.59a10.13,10.13,0,0,0,2.58.17c5.81-.3,13.23-5.31,17.67-9.62a9.48,9.48,0,0,0,.62,7.31,5.09,5.09,0,0,0,2,1.92c2.88,1.37,6.85-.33,9.32-2.34l.86-.67-4.09,7.63c-2.54,4.73-7.92,13.41-14.81,16.07-4.6,1.76-8.42-.36-7.88-5a14.39,14.39,0,0,1,.5-2.57l-.13.07c-3.08,1.91-4.7,5.57-4.23,8.3.26,2.72,1.86,5.72,6.83,6.81,13.2,2.07,23.55-14.9,27.62-22.48l17.35-32.25h-8.61L200,69.48ZM159,80l0,0a10.53,10.53,0,0,1,4.45-7c2.95-2,4.58-1.41,5.1-.28.92,2-2.12,4.17-3.41,5a14,14,0,0,1-5.64,2.17L159,80Zm35-8.2a4.64,4.64,0,0,1,.64-.07,2.57,2.57,0,0,1,2.59,2.68v0l-2.53,4.72c0,.08-.08.14-.11.21a16.92,16.92,0,0,1-6.73,7.18,4.3,4.3,0,0,1-1.41.52c-1.9.21-2.83-1.19-2.34-3.23,1.2-5,6.69-11.8,9.89-12Zm85.87,11.29L276,85.85c-.42-2.77,8.81-18.44,8.81-18.44h-8.7a11.67,11.67,0,0,1-.68,1.2c0-.08-3.38-3-9.42-.28a20.14,20.14,0,0,0-6.38,4c-7.52,6.49-3.61,3.89-11.09,9.62-2,1.54-3.63,2.74-3.63,2.74,1-2.16,1.94-4,2.73-5.67l.12-.24c1.78-3.58,3.32-7.26,3.12-9.42-.37-2.51-3-4.59-14.46,2.34-.12.07-1.07.74-1.88,1.3a10,10,0,0,0,.64-3.64c-.38-2.51-3-4.59-14.47,2.34-.08.05-.55.37-1.1.76l2.68-5,0-.07h-8.57L200.16,92.77h8.55a.64.64,0,0,0,.08-.15l8.07-15c1.67-1.3,2.93-2.14,4.72-3.3,1.42-.88,2.74-1.46,3.28-1.08a1.19,1.19,0,0,1,.29,1,17.65,17.65,0,0,1-1.1,2.5c-.2.39-8.47,16-8.47,16h9.09l.08-.17,5.33-10c.86-1.6,1.78-3.36,2.61-5.11,1.62-1.24,2.86-2.07,4.6-3.2,1.43-.88,2.74-1.46,3.29-1.08a1.21,1.21,0,0,1,.28,1,17.65,17.65,0,0,1-1.1,2.5L238.1,79.9h0a77,77,0,0,0-4.06,8.36c-.84,2.22-.91,5,2,5.21s6.43-2.49,7.84-3.57c1.84-1.39,5.67-4.82,7.64-6.53a11.77,11.77,0,0,0-.35,7.78,5.89,5.89,0,0,0,.24.58c1.78,3.63,6.59,2.79,10.11.73A29.47,29.47,0,0,0,266,89s-.29,4.87,3.59,4.92c3.25,0,11-6.45,13.56-8.69l-4,7.52h8.55l.08-.15,8.07-15c1.67-1.3,2.93-2.14,4.71-3.3,1.43-.88,2.74-1.46,3.29-1.08a1.18,1.18,0,0,1,.28,1,16.65,16.65,0,0,1-1.09,2.5l-1.76,3.32h0a75.29,75.29,0,0,0-4,8.18c-.78,2.07-.89,4.6,1.42,5.13,3.28.78,7.52-2.12,9.88-4.12,1.34-1,2.38-1.8,3-2.33a8.4,8.4,0,0,0,1.4,3.51c4.14,6.09,13.51,4.3,16.9,2.84,5-2.17,9.65-7.34,2.17-18.92-.9-1.38-1.37-2.77-.88-3.84a2.6,2.6,0,0,1,3.08-1.59c1.72.37.92,3.78,0,5.25,4.29,0,7.07-2.13,5.1-5.45-.72-1.21-5.49-4.58-11.19.34-3.09,2.67-4.07,7.94-1.79,13.55a13.71,13.71,0,0,1,1.21,5,3.32,3.32,0,0,1-3.67,3.52,5.48,5.48,0,0,1-5.22-6.34c.33-2.06,1.74-4.38,4.73-6.52a9.57,9.57,0,0,0-11.29,4.83c-.54.43-1.17.92-1.92,1.49-2,1.54-3.64,2.75-3.64,2.75C307.24,86,309.4,82.1,310,81,311,78.73,315.1,71.58,314,68.8c-.7-2.21-3.76-3.49-14.33,2.91-.08.05-.55.37-1.1.76l2.67-5,0-.07h-8.57l-2.15,4c-2.25,3.91-2.69,6-10.65,11.66Zm-10.3-11.29a4.64,4.64,0,0,1,.64-.07,2.3,2.3,0,0,1,2.23,2.68s0,0,0,0L270,79.13a1.39,1.39,0,0,1-.11.21,16.9,16.9,0,0,1-6.72,7.18,3.87,3.87,0,0,1-1.23.53c-1.73.2-2.59-.89-2.29-2.63.86-5,6.68-12.4,10-12.64ZM98.38,75.64c-2.58,5.77-4.42,11.46-3.73,15,.4,2.93,2.32,4.91,7.26,4,4.23-1,10.8-4.89,13-7a7.81,7.81,0,0,0,2.31,6c1.86,1.46,4.34,1.67,7.12,1,15.31-3.4,31.66-20.9,35.94-37.82,1.62-6.43,2-16.47-3.76-21.28-3.86-3.22-9.55-3.42-14.45,1.11l0,0a6.65,6.65,0,0,1,4.91,1c2.15,1.46,3.54,4.25,4.12,8.31.9,12.52-5.52,26.64-13.89,34.94A25.87,25.87,0,0,1,131,85.58c-1.91.89-3.19.74-3.94,0-1.87-1.91-.24-5.71.7-7.51l13.94-26.38h-9.47l-14,26.05c-1.07,1.69-2.67,3.18-6.25,5.91a16.54,16.54,0,0,1-2.66,1.84c-3.89,1.92-3.84-.93-2.87-4.19,1.43-4.77,10.68-22.69,14.41-28.19l.76-1.42H112l0,.06c-1.19,1.66-2.31,3.31-3.38,5-.19.33-.45.76-.75,1.26a39,39,0,0,1-5.48,7.57c-5.94,6.12-12,7.44-20.23,7.85h0c.09.1.22.23.38.38,3.44,3.13,11.75,3.3,15.35,2.08l.53-.18Z" transform="translate(-27.82 -33.18)"/><path class="b" d="M101.14,100.27c-3.34-4.25-12-1.32-17.53.78l-.92.12c-1.53.22-2.5,1.23-3.92,1.68a21.09,21.09,0,0,0-3.88,1.24c-.38.19-.76.36-1.14.52l-3,1c-1,.31-2,.62-3,1-9.42,3.2-19.79,6.62-20.7,6.84-1.75-.92-3.91-3.69-5.54-4.54-3.73-.31-6.45,3.15-5.52,7.12.06,3.69-.6,16.51-.94,19.26-.3,2.46-1.58,4.72-2.19,7.13-1,3.78-2,7.57-2.61,11.41-.92,5.49-1.68,11-2.21,16.56-.4,4.11-.6,12.76,1.87,16.48.82,3.21,3.31,4.42,6.21,5.1,1.84.44,3.69.85,5.55,1.18a18.66,18.66,0,0,0,3.17.26c2.51,0,3.76-1,4.09-3.35.16-1.15.11-2.33.17-3.7,5.16-3.13,10.27-6.36,15.51-9.35,3.08-1.76,6.36-3.17,9.57-4.69a19.5,19.5,0,0,0,2.65-1.12c2.83-2.48,5.94-4.84,7.63-8,.66-1.61-1-2.12-1.11-3.18a41.36,41.36,0,0,0-15.88,3.68,149.66,149.66,0,0,0-14.39,6.91,24.8,24.8,0,0,1-5.25,2.4c-.52-2.94,0-10.11-.16-12.8-.07-1.34.47-5.15,1.64-5.78,3.13-1.68,5.42-2.46,8.58-4.09,7-3.59,11.43-5.67,19.17-7.21a15.57,15.57,0,0,0,3.37-1.07,9.38,9.38,0,0,0,2.29-1.63,1.47,1.47,0,0,0,.42-1.26c-.65-1.49-.73-3.2-1.92-4.5a3.69,3.69,0,0,0-2.72-1.46c-2.71,0-2-.34-4.6.62-4.89,1.78-9.82,3.46-14.68,5.33-3.74,1.44-7,3.18-11.45,2.85-.37-3.25.26-17,.82-17.73,2.63-3.27,11-5.75,11.21-5.79,6.87-1.74,19.91-5.8,28-8.25,4.82.13,6.88-.54,11.5-1.75C104.58,107.12,105.4,103,101.14,100.27Z" transform="translate(-27.82 -33.18)"/><path class="a" d="M144.91,181.38V136.53l-1-9.38h10.68l1.07,6.79a17.91,17.91,0,0,1,15.64-8.41c6.79,0,12,2.59,15,8.63,3.23-5.61,8.95-8.63,15.74-8.63,10.89,0,17.14,6.36,17.14,19.09v36.76H206.36V147.2c0-6.36-1.08-11.75-8.19-11.75-5.93,0-9.7,5-9.7,10.57v35.36H175.64V147.2c0-5.82-.76-11.75-8.2-11.75-6,0-9.7,5.18-9.7,11v34.93Z" transform="translate(-27.82 -33.18)"/><path class="a" d="M268.78,140.52c0,16.6-20.59,18.76-30.51,18.86.43,7,4.42,13.8,13.58,13.8a23.22,23.22,0,0,0,13.58-4.74l4,8.52c-1.72,1.51-8.84,6-19,6-17.79,0-25.12-11.42-25.12-27.6,0-15.84,9.16-29.86,26.3-29.86C262.2,125.53,268.78,130.92,268.78,140.52Zm-17.9-5.82c-8.62,0-12.72,8.41-13,16.38,5.82.11,19.51-1.72,19.51-10C257.35,137.07,254.76,134.7,250.88,134.7Z" transform="translate(-27.82 -33.18)"/><path class="a" d="M320.36,171l1,10.35H310.22l-.75-5.72-.43-.11c-3.34,4.86-8.84,7.23-14.77,7.23-15.2,0-21.13-10.78-21.13-26.2,0-19,9.49-31.05,28-31.05a60.8,60.8,0,0,1,19.19,3.78Zm-12.72-34.72a21.52,21.52,0,0,0-8.09-1.4c-10.24,0-13.69,9.6-13.69,21.24,0,8.95,2.16,17.46,11.21,17.46,6.69,0,10.57-4.74,10.57-9.37Z" transform="translate(-27.82 -33.18)"/><path class="a" d="M342.18,106.56H329.36v74.73h12.82Z" transform="translate(-27.82 -33.18)"/><path class="a" d="M353.34,168.33c3.56,2.27,9.92,5.18,15.42,5.18,4.53,0,8.19-2,8.19-6.9s-4.09-6.36-9.16-7.87c-7.87-2.27-16.71-4.85-16.71-16.07s9.27-17.14,19.73-17.14a27.78,27.78,0,0,1,19.51,7.66l-6.14,7.54c-4.1-3.55-8.63-5.82-13.16-5.82-3.88,0-7.54,1.94-7.54,6.25,0,5,4.53,6.37,9.59,7.87,7.87,2.48,16.6,5.61,16.6,16.71S381.37,183,369.3,183c-9.27,0-16.93-3.34-19.73-5.5Z" transform="translate(-27.82 -33.18)"/><path class="b" d="M166.28,166.72c-.73-1.62-1.44-3.24-2.26-4.82a4.22,4.22,0,0,0-4.84-1.75c-1.89.64-3.82,1.2-5.76,1.7-3.76,1-19.55,4-23,6.11a4.53,4.53,0,0,1-1.36.35c-2.08.44-4.19.8-6.25,1.32a48.7,48.7,0,0,0-10.66,3.78c-3.24,1.68-6.62,3.14-10,4.52C97,180,91.78,182,86.83,184.5a9,9,0,0,1-4.52,1,28.25,28.25,0,0,1,2.22-3.4c.88-1,1.74-1.91,2.58-2.9,2.54-3,5-6,7.61-8.91q4.2-4.81,8.5-9.54,5.88-6.42,11.84-12.76c2.67-2.85,5.34-5.71,8.09-8.49a131.09,131.09,0,0,1,11.66-10.94c3.06-2.42,6.12-4.87,9.11-7.38a16.87,16.87,0,0,1,4.29-3c2.63-1.1,3.73-3.37,2.7-6.51-.74-2.31-1.65-5-4.55-5.8-.24-.81-1.88.24-2.31.34a185,185,0,0,0-23.16,6.8c-5.44,2-10.89,4-16.33,6-2,.74-11.34,3.57-13.4,4.4-1.27,1.57-2.16,3.29-.8,5.38a1.42,1.42,0,0,1,.1.69c0,2.61,1.26,4.21,4,4.89.84-.3,9.28-2.56,10.25-3,3.15-1.36,6.26-2.82,9.43-4.15,2.51-1,5.07-2,7.63-2.9a4.07,4.07,0,0,1,1.27,0,5.66,5.66,0,0,1-2.06,3.1A134.06,134.06,0,0,0,109,141c-.88,1.12-1.8,2.21-2.75,3.25-1.76,1.93-3.64,3.74-5.32,5.72-1.91,2.25-3.6,4.68-5.52,6.92-1.3,1.52-14.9,16.51-15.72,17.63-1.39,1.9-2.94,3.69-4.52,5.46-1.17,1.31-2.51,2.49-3.73,3.77s-2.54,2.8-3.82,4.2l-7.95,8.6c-1.11,1.21-2.24,2.42-3.29,3.68a4.67,4.67,0,0,0-1.33,3.57c.5,3.23.69,6.76,4.78,7.86l.08,0c3.21,0,5.13-1.5,7.13-3A168.73,168.73,0,0,1,86.93,196.3c6-3.23,12-6.67,18.35-9.34,5.13-2.16,10.31-4.16,15.5-6.17,6.66-2.58,25.24-7.52,32.12-9.28,1.59-.41,3.24.69,4.55,1.9a4.46,4.46,0,0,0,5,.67c1.61-.64,4.16-4.58,4.07-6.33A3,3,0,0,0,166.28,166.72Z" transform="translate(-27.82 -33.18)"/></svg>