<svg xmlns="http://www.w3.org/2000/svg" viewBox="0 0 136.47 101.09"><defs><style>.a{fill:#fff;}</style></defs><title>dbank2_w</title><path class="a" d="M303.07,307.81l.05-34.42h10.8l-.05,34.42Z" transform="translate(-238.6 -273.39)"/><path class="a" d="M366.57,284.6c1.3-1.57,2.89-2.1,6.79-2.1.42,0,1.29.09,1.71.14v8.44c-.66-.09-8.48-.27-8.48,4.61l0,12.12H356.08l0-24.61h9.94Z" transform="translate(-238.6 -273.39)"/><path class="a" d="M315.09,307.81l.05-34.42h10.8l-.05,34.42Z" transform="translate(-238.6 -273.39)"/><path class="a" d="M288.05,282c8.89,0,14.36,5.24,14.34,13.07,0,9.23-6.26,13.56-14.34,13.56s-14.31-4.43-14.3-13S279.54,282,288.05,282ZM284.54,295c0,4.25,1.46,6.09,3.56,6.09s3.56-1.84,3.57-6.09c0-3.29-1.34-5.78-3.48-5.65C285.38,289.39,284.55,292.52,284.54,295Z" transform="translate(-238.6 -273.39)"/><path class="a" d="M343.69,306.77c-2.59,1.64-4.8,1.76-8.32,1.76-4.73,0-8.93-2.34-8.92-7.55,0-11.37,17.12-6.39,17.13-11.07,0-1.81-1.49-1.88-2.54-1.88a3.34,3.34,0,0,0-3.14,3.24H327.73c0-5.31,4-9.21,13.94-9.21,11.85,0,12.56,4.4,12.55,10.37v6.66c0,1.44,0,7.19,1.32,8.24v.48H344.29Zm-.09-9.72c-2.61,1.27-6.06.65-6.07,3.26,0,1,1,1.69,2.54,1.69C342.87,302,343.79,299.81,343.6,297.05Z" transform="translate(-238.6 -273.39)"/><path class="a" d="M240.12,307.81l0-34.35h17.5c10.89,0,15.88,7.71,15.86,16.74,0,12.73-7.12,17.61-18,17.61Zm11.72-9.09h1.82c5.16,0,8-2.47,8-8.24,0-6.37-2.29-8.07-8.2-8.07h-1.59Z" transform="translate(-238.6 -273.39)"/><path class="a" d="M320.68,363c-.46,0-1.87.85-1.87,1.91,0,.91.68,1.53,2,1.53s2-.62,2-1.53S321.14,363,320.68,363Z" transform="translate(-238.6 -273.39)"/><path class="a" d="M299.3,361.34c-.88,0-1.43.61-1.46,1.66h2.91C300.72,362,300.17,361.34,299.3,361.34Z" transform="translate(-238.6 -273.39)"/><path class="a" d="M353.74,360.77c-3.48-5.79-24-10.23-48.8-10.23s-45.31,4.44-48.79,10.23H238.6v3h17.29c2.59,6,23.56,10.71,49.05,10.71s46.47-4.69,49.06-10.71h20.5v-3ZM270.82,368a4.15,4.15,0,0,1-3.92-2.48l1.65-.73a2.43,2.43,0,0,0,2.29,1.65c1,0,1.77-.38,1.77-1.4,0-2.07-5.4-1.65-5.4-4.88,0-1.87,1.56-2.93,3.38-2.93a3.81,3.81,0,0,1,3.7,2.36l-1.83.57a1.93,1.93,0,0,0-1.87-1.37c-.87,0-1.5.35-1.5,1.16,0,1.8,5.41,1.43,5.41,4.83C274.5,366.89,273.15,368,270.82,368Zm7.55-.26h-1.79v-7.55h1.79Zm0-8.94h-1.79v-1.69h1.79Zm8.35,8.94h-1.8v-4.91c0-1-.32-1.33-.93-1.33a2.31,2.31,0,0,0-1.68.79v5.45H280.5v-7.55h1.66V361a4.25,4.25,0,0,1,2.33-1c1.51,0,2.23,1,2.23,2.53Zm5,0c-2.05,0-3.29-1.52-3.29-3.92s1.24-3.92,3.29-3.92a3,3,0,0,1,3,2l-1.49.58c-.29-.64-.61-1.15-1.48-1.15s-1.48.78-1.48,2.47.47,2.47,1.54,2.47a1.84,1.84,0,0,0,1.59-1.21l1.37.77A3.08,3.08,0,0,1,291.68,367.74Zm10.73-3.53h-4.57c0,1.57.73,2.19,1.57,2.19a2,2,0,0,0,1.69-.9l1.31.81a3.43,3.43,0,0,1-3.17,1.54c-2,0-3.2-1.53-3.2-3.93s1.24-3.92,3.28-3.92a3.18,3.18,0,0,1,3.09,3.47Zm12.65,3.49h-5.13v-1.45h1.63V359H309.7v-1.22a3.56,3.56,0,0,0,2.28-.72h1.47v9.18h1.61Zm5.75.15c-2.22,0-3.89-1.13-3.89-2.85a3,3,0,0,1,2.1-2.87,2.66,2.66,0,0,1-1.71-2.45c0-1.59,1.36-2.61,3.5-2.61s3.5,1,3.5,2.61a2.64,2.64,0,0,1-1.71,2.45,3,3,0,0,1,2.11,2.87C324.71,366.72,323,367.85,320.81,367.85Zm9.05.06a3.59,3.59,0,0,1-3.4-2l1.57-.82a2.11,2.11,0,0,0,1.86,1.19c1.34.05,1.94-.85,1.94-2.16a1.8,1.8,0,0,0-3.36-1l-1.51-.29.39-5.57H333v1.63h-4.24l-.14,2.37a2.47,2.47,0,0,1,2-.61,3.35,3.35,0,0,1,3.14,3.49C333.73,366.45,332.39,367.91,329.86,367.91Zm8.81-.06a3.59,3.59,0,0,1-3.4-2l1.58-.81a2.09,2.09,0,0,0,1.85,1.18c1.34.05,1.95-.85,1.95-2.16a1.78,1.78,0,0,0-1.79-1.92,1.76,1.76,0,0,0-1.58.9l-1.52-.28.4-5.58h5.67v1.63h-4.25l-.14,2.38a2.43,2.43,0,0,1,2-.61,3.34,3.34,0,0,1,3.14,3.48C342.54,366.4,341.2,367.85,338.67,367.85Z" transform="translate(-238.6 -273.39)"/><path class="a" d="M320.81,361.31a2,2,0,0,0,1.62-1.6c0-.7-.44-1.19-1.63-1.19s-1.6.49-1.6,1.19A1.81,1.81,0,0,0,320.81,361.31Z" transform="translate(-238.6 -273.39)"/><polygon class="a" points="109.62 65.07 109.61 71.97 99.57 71.97 99.63 37.89 109.66 37.89 109.64 53.29 115.36 47.01 127.31 47.01 117.92 56.9 127.65 71.97 115.82 71.97 110.57 63.95 109.62 65.07"/><path class="a" d="M326.06,330.66a3,3,0,0,0-3-3.06,3,3,0,0,0-3,3l0,14.77H309.27l0-25.29h10.05v1.39c2.37-1.24,3.14-2.11,7.66-2.11,6.66,0,9.79,3.91,9.78,10.86l0,15.15H326Z" transform="translate(-238.6 -273.39)"/><path class="a" d="M266.73,345.37H246.59l.06-34.24h21c8.36,0,13.74,9.54,7.27,16C280.88,330.93,282.13,345.37,266.73,345.37Zm-8.54-13.52v5.53h4.28c2.41,0,4.24-.5,4.24-2.74,0-2.62-2.28-2.79-5.39-2.79Zm0-12.73v5h4.1c2,0,3.4-.88,3.4-2.64,0-2.34-1.92-2.38-4-2.38Z" transform="translate(-238.6 -273.39)"/><path class="a" d="M296.71,344.33c-2.59,1.64-4.8,1.75-8.32,1.75-4.72,0-8.92-2.34-8.92-7.54,0-11.37,17.12-6.39,17.13-11.07,0-1.82-1.49-1.88-2.54-1.88a3.33,3.33,0,0,0-3.14,3.23H280.75c0-5.3,4.06-9.2,13.94-9.2,11.85,0,12.56,4.4,12.55,10.37v6.66c0,1.43,0,7.19,1.32,8.24v.48H297.31Zm-.08-9.72c-2.62,1.26-6.07.65-6.07,3.26,0,1,.95,1.69,2.53,1.69C295.89,339.56,296.81,337.37,296.63,334.61Z" transform="translate(-238.6 -273.39)"/><path class="a" d="M370.42,338.56a4,4,0,0,1,1.89.49,3.55,3.55,0,0,1,1.43,1.42,3.88,3.88,0,0,1,0,3.83,3.53,3.53,0,0,1-1.42,1.42,3.83,3.83,0,0,1-3.82,0,3.53,3.53,0,0,1-1.42-1.42,3.82,3.82,0,0,1,0-3.83,3.55,3.55,0,0,1,1.43-1.42A4,4,0,0,1,370.42,338.56Zm0,.63a3.22,3.22,0,0,0-1.57.42,3,3,0,0,0-1.2,1.18,3.21,3.21,0,0,0-.43,1.61,3.26,3.26,0,0,0,.42,1.59,3,3,0,0,0,1.19,1.18,3.22,3.22,0,0,0,3.18,0A3,3,0,0,0,373.2,344a3.26,3.26,0,0,0,.42-1.59,3.21,3.21,0,0,0-.43-1.61,3,3,0,0,0-1.2-1.18A3.22,3.22,0,0,0,370.42,339.19Zm-1.68,5.33v-4.13h1.42a3.39,3.39,0,0,1,1,.11,1,1,0,0,1,.52.4,1,1,0,0,1,.19.61,1.1,1.1,0,0,1-.32.78,1.27,1.27,0,0,1-.86.38,1,1,0,0,1,.35.22,4.53,4.53,0,0,1,.61.82l.51.81h-.82l-.36-.65a3.46,3.46,0,0,0-.7-1,.89.89,0,0,0-.54-.14h-.39v1.76Zm.66-2.33h.81A1.26,1.26,0,0,0,371,342a.57.57,0,0,0,.21-.46.56.56,0,0,0-.1-.33.67.67,0,0,0-.28-.21,2,2,0,0,0-.67-.07h-.76Z" transform="translate(-238.6 -273.39)"/></svg>