<svg xmlns="http://www.w3.org/2000/svg" viewBox="0 0 160.51 60.57"><defs><style>.a{fill:#fff;}</style></defs><title>dbank_w</title><rect class="a" x="36.91" width="6.34" height="20.09"/><path class="a" d="M300.88,299.94c.75-.91,1.68-1.23,4-1.23.25,0,.75.06,1,.09v4.92c-.38-.05-4.94-.15-4.95,2.69v7.08h-6.11l0-14.36h5.8" transform="translate(-226.21 -293.4)"/><polyline class="a" points="145.02 16.06 145.01 20.09 139.16 20.09 139.19 0.2 145.04 0.2 145.03 9.18 148.37 5.52 155.34 5.52 149.86 11.29 155.54 20.09 148.64 20.09 145.57 15.4"/><rect class="a" x="44.62" width="6.34" height="20.09"/><path class="a" d="M358.3,304.9a1.75,1.75,0,1,0-3.49,0v8.62h-6.3l0-14.76h5.86v.81a7,7,0,0,1,4.47-1.23c3.89,0,5.72,2.28,5.71,6.34l0,8.84h-6.26" transform="translate(-226.21 -293.4)"/><path class="a" d="M323.68,313.49H311.92l0-20h12.23c4.88,0,8,5.58,4.25,9.34,3.5,2.22,4.23,10.65-4.75,10.65m-5-7.89v3.23h2.49c1.41,0,2.48-.29,2.48-1.6,0-1.53-1.33-1.63-3.15-1.63Zm0-7.43v2.93h2.39c1.15,0,2-.51,2-1.54,0-1.37-1.12-1.39-2.34-1.39Z" transform="translate(-226.21 -293.4)"/><path class="a" d="M254.36,298.4c5.19,0,8.38,3.06,8.37,7.63,0,5.39-3.66,7.91-8.37,7.91s-8.35-2.58-8.34-7.6,3.37-7.94,8.34-7.94M252.31,306c0,2.47.85,3.55,2.08,3.55s2.08-1.08,2.08-3.55c0-1.93-.78-3.38-2-3.3C252.8,302.74,252.32,304.56,252.31,306Z" transform="translate(-226.21 -293.4)"/><path class="a" d="M287.52,312.88c-1.51,1-2.8,1-4.85,1-2.76,0-5.21-1.37-5.21-4.41,0-6.63,10-3.73,10-6.46,0-1.06-.87-1.09-1.48-1.09a1.93,1.93,0,0,0-1.83,1.88h-5.94c0-3.09,2.36-5.37,8.14-5.37,6.91,0,7.32,2.57,7.32,6.05v3.89c0,.84,0,4.2.78,4.81v.28h-6.57m-.4-6.28c-1.52.74-3.54.38-3.54,1.9,0,.59.56,1,1.48,1C287,310.1,287.58,308.82,287.47,307.21Z" transform="translate(-226.21 -293.4)"/><path class="a" d="M226.39,313.49l0-20.05h10.21c6.36,0,9.27,4.5,9.26,9.77,0,7.43-4.16,10.28-10.49,10.28m-2.17-5.31h1.06c3,0,4.66-1.44,4.66-4.8,0-3.72-1.33-4.71-4.79-4.71h-.92Z" transform="translate(-226.21 -293.4)"/><path class="a" d="M341.18,312.88c-1.52,1-2.81,1-4.86,1-2.76,0-5.21-1.37-5.21-4.41,0-6.63,10-3.73,10-6.46,0-1.06-.87-1.09-1.48-1.09a1.93,1.93,0,0,0-1.83,1.88h-5.94c0-3.09,2.36-5.37,8.14-5.37,6.91,0,7.32,2.57,7.32,6.05v3.89c0,.84,0,4.2.78,4.81v.28h-6.57m-.39-6.28c-1.53.74-3.55.38-3.55,1.9,0,.59.56,1,1.48,1C340.69,310.1,341.23,308.82,341.13,307.21Z" transform="translate(-226.21 -293.4)"/><polygon class="a" points="0 31.22 0 29.84 54.78 29.84 54.78 31.22 0 31.22 0 31.22"/><line class="a" x1="104.69" y1="30.53" x2="155.43" y2="30.53"/><polygon class="a" points="104.69 31.22 104.69 29.84 155.44 29.84 155.44 31.22 104.69 31.22 104.69 31.22"/><path class="a" d="M302.17,324.36h-1.7c0-.61.34-1,.85-1S302.16,323.75,302.17,324.36Zm11.63,0c-.27,0-1.09.5-1.09,1.12s.4.88,1.17.88,1.17-.35,1.17-.88S314.07,324.34,313.8,324.34Zm.08-1a1.2,1.2,0,0,0,.94-.93c0-.41-.25-.7-.95-.7s-.93.29-.93.7A1.06,1.06,0,0,0,313.88,323.38Zm19.53.7c0,3.85-12.89,7-28.79,7s-28.79-3.13-28.79-7,12.89-7,28.79-7S333.41,320.22,333.41,324.08Zm-46.56,1.3c0-2-3.16-1.77-3.16-2.82,0-.47.37-.67.88-.67a1.12,1.12,0,0,1,1.09.79l1.07-.33a2.22,2.22,0,0,0-2.16-1.38,1.79,1.79,0,0,0-2,1.71c0,1.89,3.16,1.64,3.16,2.85,0,.59-.45.81-1,.81a1.41,1.41,0,0,1-1.33-.95l-1,.42a2.41,2.41,0,0,0,2.28,1.45C286.06,327.26,286.85,326.63,286.85,325.38Zm2.26-2.68h-1.05v4.41h1.05Zm0-1.8h-1.05v1h1.05Zm4.87,3.19c0-.9-.42-1.47-1.3-1.47a2.45,2.45,0,0,0-1.36.55v-.47h-1v4.41h1.06v-3.18a1.35,1.35,0,0,1,1-.47c.36,0,.54.19.54.78v2.87H294Zm4.66,1.94-.8-.45a1.06,1.06,0,0,1-.93.7c-.62,0-.9-.45-.9-1.44s.28-1.44.87-1.44.69.3.86.67l.87-.34a1.73,1.73,0,0,0-1.73-1.18c-1.2,0-1.92.89-1.92,2.29s.72,2.29,1.92,2.29A1.8,1.8,0,0,0,298.64,326Zm4.5-1.39a1.85,1.85,0,0,0-1.8-2c-1.2,0-1.92.88-1.92,2.28s.72,2.29,1.87,2.29a2,2,0,0,0,1.85-.9l-.77-.47a1.17,1.17,0,0,1-1,.52c-.49,0-.9-.35-.92-1.27h2.67Zm7.38,1.62h-.94V320.9h-.85a2.08,2.08,0,0,1-1.34.42V322h1.09v4.22h-1v.85h3Zm5.63-.73a1.75,1.75,0,0,0-1.23-1.68,1.52,1.52,0,0,0,1-1.42c0-.93-.79-1.53-2-1.53s-2.05.6-2.05,1.53a1.54,1.54,0,0,0,1,1.42,1.76,1.76,0,0,0-1.22,1.68c0,1,1,1.66,2.27,1.66S316.15,326.53,316.15,325.53Zm5.27-.49a2,2,0,0,0-1.84-2,1.44,1.44,0,0,0-1.14.35l.08-1.39H321v-1h-3.3l-.23,3.26.88.17a1,1,0,0,1,.92-.53,1,1,0,0,1,1,1.12c0,.76-.35,1.29-1.13,1.26a1.25,1.25,0,0,1-1.09-.69l-.92.47a2.11,2.11,0,0,0,2,1.15A2,2,0,0,0,321.42,325Zm5.14,0a2,2,0,0,0-1.83-2,1.42,1.42,0,0,0-1.14.36l.08-1.39h2.47V321h-3.3l-.23,3.25.88.17a1,1,0,0,1,.92-.52,1,1,0,0,1,1,1.12c0,.76-.36,1.28-1.14,1.26a1.23,1.23,0,0,1-1.08-.7l-.92.48a2.08,2.08,0,0,0,2,1.14A2,2,0,0,0,326.56,325Z" transform="translate(-226.21 -293.4)"/><path class="a" d="M384.4,309.34a2.31,2.31,0,1,1-2.34,2.3,2.31,2.31,0,0,1,2.34-2.3m0,.37a1.94,1.94,0,1,0,1.88,1.93A1.88,1.88,0,0,0,384.4,309.71Zm-.49,3.26h-.41v-2.65h1c.63,0,.94.23.94.75a.7.7,0,0,1-.7.74l.76,1.16h-.45l-.7-1.15h-.46Zm0-1.49h.48c.5,0,.66-.14.66-.43s-.13-.4-.59-.4h-.55Z" transform="translate(-226.21 -293.4)"/><path class="a" d="M360.7,339.12a2.06,2.06,0,1,1-2.09,2.05,2.05,2.05,0,0,1,2.09-2.05m0,.33a1.73,1.73,0,1,0,1.68,1.72A1.67,1.67,0,0,0,360.7,339.45Zm-.44,2.91h-.36V340h.91c.56,0,.84.21.84.67a.62.62,0,0,1-.62.66l.67,1h-.39l-.64-1h-.41Zm0-1.33h.44c.44,0,.58-.13.58-.39s-.11-.35-.53-.35h-.49Z" transform="translate(-226.21 -293.4)"/><path class="a" d="M251.64,349.86l-1.25-8.52h0l-1.49,5.47a8,8,0,0,0-.31,1.66c0,.77.74.82,1.33.86l-.16.53-1.71-.07-1.87.07v-.53c1.23,0,1.43-.87,1.73-1.87l1.53-5.25a7.37,7.37,0,0,0,.33-1.41c0-.62-.76-.56-1.17-.6l.15-.53,1.65.07,1.66-.07,1.1,7.39h0l4.42-7.39,1.65.07,1.54-.07v.53a2,2,0,0,0-.94.27c-.35.28-.48,1.17-.55,1.6l-.93,5.53a9,9,0,0,0-.13,1c0,.79.78.7,1.35.74l-.14.53-2.55-.07-2.32.07.15-.53c.37,0,1,0,1.2-.4a4.12,4.12,0,0,0,.37-1.33l1.17-6.23,0,0-5.05,8.52h-.75" transform="translate(-226.21 -293.4)"/><path class="a" d="M266.86,346.1a12.81,12.81,0,0,0-.49,2.45c0,.18,0,.47.28.47.43,0,.87-1.06,1-1.35l.29.11c-.37,1-1.09,2.25-2.28,2.25a1,1,0,0,1-1-1.13,5.23,5.23,0,0,1,.14-1.14l0,0c-.48,1-1.45,2.3-2.71,2.3a1.19,1.19,0,0,1-1.26-1.22,7.19,7.19,0,0,1,.43-1.85l.48-1.62a3.4,3.4,0,0,0,.23-.9c0-.17-.08-.32-.26-.32-.46,0-.92.94-1.15,1.28l-.28-.14c.51-1,1.2-2.06,2.41-2.06a1,1,0,0,1,1.05,1,6.68,6.68,0,0,1-.42,1.78l-.37,1.11a8.83,8.83,0,0,0-.43,1.56c0,.27.19.39.45.39,1.26,0,2.31-3.3,2.63-4.3l.46-1.4h1.66l-.86,2.78" transform="translate(-226.21 -293.4)"/><path class="a" d="M271.64,343.5h1.46l-.17.62h-1.46l-.71,2.66a9.43,9.43,0,0,0-.38,1.78c0,.23.06.54.35.54.53,0,1-.94,1.27-1.31l.12-.21.29.15c-.48,1-1.31,2.3-2.49,2.3a1.21,1.21,0,0,1-1.25-1.21,10.8,10.8,0,0,1,.47-2.3l.64-2.4h-1.21l.13-.62h1.23l.79-2.41h1.57l-.65,2.41" transform="translate(-226.21 -293.4)"/><path class="a" d="M279.16,346.1a12.81,12.81,0,0,0-.49,2.45c0,.18,0,.47.28.47.43,0,.87-1.06,1-1.35l.29.11c-.37,1-1.09,2.25-2.28,2.25a1,1,0,0,1-1-1.13,5.23,5.23,0,0,1,.14-1.14l0,0c-.47,1-1.45,2.3-2.71,2.3a1.19,1.19,0,0,1-1.26-1.22,7.63,7.63,0,0,1,.43-1.85l.48-1.62a3.4,3.4,0,0,0,.23-.9c0-.17-.08-.32-.26-.32-.46,0-.92.94-1.15,1.28l-.28-.14c.51-1,1.2-2.06,2.41-2.06a1,1,0,0,1,1.05,1,6.68,6.68,0,0,1-.42,1.78l-.37,1.11a8.83,8.83,0,0,0-.43,1.56c0,.27.19.39.45.39,1.26,0,2.31-3.3,2.63-4.3l.46-1.4H280l-.86,2.78" transform="translate(-226.21 -293.4)"/><path class="a" d="M286.4,343.21H288l-1.15,4.12a6.34,6.34,0,0,0-.25,1.14c0,.19.08.54.29.54.48,0,.93-1,1.14-1.38l.33.13c-.42,1-1.23,2.27-2.4,2.27a1,1,0,0,1-1-1l0-.55,0,0a2.74,2.74,0,0,1-2.31,1.62c-1.29,0-1.9-1-1.9-2.24,0-2,1.55-4.59,3.76-4.59a1.56,1.56,0,0,1,1.53,1l.33-1m-3.78,4.89c0,.45.22,1,.74,1,1.4,0,2.34-3.07,2.34-4.18a.8.8,0,0,0-.82-.88C283.53,344,282.62,347,282.62,348.1Z" transform="translate(-226.21 -293.4)"/><path class="a" d="M290.91,347.13a7,7,0,0,0-.28,1.33c0,.18,0,.55.28.55.44,0,.93-1.19,1.07-1.57l.36.11c-.37,1-1.11,2.48-2.37,2.48a1.06,1.06,0,0,1-1.11-1.19,7.2,7.2,0,0,1,.29-1.58l1.39-5.16a7.72,7.72,0,0,0,.29-1.38c0-.52-.8-.52-1.17-.52l.12-.46,3.26-.2-2.13,7.59" transform="translate(-226.21 -293.4)"/><path class="a" d="M294.91,347.13a6.31,6.31,0,0,0-.28,1.33c0,.18,0,.55.28.55.44,0,.93-1.19,1.07-1.57l.35.11c-.36,1-1.1,2.48-2.36,2.48a1.05,1.05,0,0,1-1.11-1.19,7.2,7.2,0,0,1,.29-1.58l1.39-5.16a7.72,7.72,0,0,0,.29-1.38c0-.52-.8-.52-1.17-.52l.12-.46,3.26-.2-2.13,7.59" transform="translate(-226.21 -293.4)"/><path class="a" d="M300.25,349.44h0a9.22,9.22,0,0,0,1.09-3.55c0-1.09-.65-1.54-.65-2.05a.66.66,0,0,1,.69-.64c.67,0,.88.72.88,1.26,0,2.67-1.87,6.13-3.67,8.06a3.73,3.73,0,0,1-2.56,1.46c-.47,0-.87-.17-.87-.69a.76.76,0,0,1,.75-.71c.35,0,.71.24,1.11.24a1.63,1.63,0,0,0,1.2-.63,2.29,2.29,0,0,0,.53-1.66,18.42,18.42,0,0,0-.53-3.75l-.66-1.89c-.08-.19-.23-.46-.48-.46-.42,0-.36,1.4-.37,1.63h-.34c0-1,0-2.86,1.37-2.86,1.14,0,1.65,1.55,1.89,2.44a16.41,16.41,0,0,1,.58,3.8" transform="translate(-226.21 -293.4)"/><path class="a" d="M309.17,342.4a8.31,8.31,0,0,0,.37-1.59c0-.74-.68-.58-1.3-.61l.13-.53,2.31.07,2.41-.07-.13.53c-1.08,0-1.19.55-1.43,1.49L310,347.16a9,9,0,0,0-.32,1.59c0,.69.71.58,1.32.58l-.14.53-2.39-.07-2.39.07.14-.53c1.08,0,1.19-.55,1.43-1.49l1.52-5.44" transform="translate(-226.21 -293.4)"/><path class="a" d="M312.8,347.38a13.64,13.64,0,0,0,.63-2.75c0-.17-.07-.42-.29-.42-.41,0-.86,1-1,1.29l-.31-.12c.42-1,1.11-2.18,2.31-2.18.68,0,1,.4,1,1.06l-.07.87,0,.3,0,0c.51-1.09,1.45-2.26,2.77-2.26a1.11,1.11,0,0,1,1.24,1.2,7,7,0,0,1-.36,1.73l-.3.9a10.86,10.86,0,0,0-.51,1.66c0,.13.11.33.27.33.43,0,.94-1,1.12-1.29l.31.17c-.45.91-1.22,2.13-2.36,2.13a1.06,1.06,0,0,1-1.1-1.1,7.43,7.43,0,0,1,.38-1.7l.31-.93a10.62,10.62,0,0,0,.51-1.8.37.37,0,0,0-.34-.38c-1.34,0-2.17,2.8-2.51,3.75l-.67,1.95h-1.62l.66-2.44" transform="translate(-226.21 -293.4)"/><path class="a" d="M320.54,345.18c0-1.34,1.27-2,2.46-2,.75,0,1.84.26,1.84,1.21a.63.63,0,0,1-.64.65c-.46,0-.65-.42-.66-.8s-.13-.54-.54-.54-.83.25-.83.72a2,2,0,0,0,.83,1.34,3,3,0,0,1,1.1,2.14,2.38,2.38,0,0,1-2.54,2.11c-.85,0-2.07-.42-2.07-1.48a.66.66,0,0,1,.68-.73.67.67,0,0,1,.7.68v.26l0,.25c0,.34.36.49.64.49a.94.94,0,0,0,.92-.95,1.74,1.74,0,0,0-.62-1.19,3.78,3.78,0,0,1-1.24-2.18" transform="translate(-226.21 -293.4)"/><path class="a" d="M328.49,344.18l0,0a2.42,2.42,0,0,1,1.94-1c1.32,0,1.9,1,1.9,2.21,0,1.95-1.29,4.62-3.52,4.62a1.57,1.57,0,0,1-1.51-1h0l-.81,3.1a3.39,3.39,0,0,0-.17.78c0,.57.6.57,1,.62l-.12.46-1.88-.07-1.88.07.11-.46c.29,0,.66,0,.85-.28a4.94,4.94,0,0,0,.49-1.43l2-7.31a2.75,2.75,0,0,0-1.74,1.82l-.4-.16a3,3,0,0,1,1.43-1.9,2.67,2.67,0,0,0,1.31-2l.38-1.43,1.46.27-.84,3.1m2.1.82a.85.85,0,0,0-.84-1c-1.37,0-2.09,3.2-2.09,4.14,0,.48.21,1,.76,1C329.81,349.18,330.59,346.1,330.59,345Z" transform="translate(-226.21 -293.4)"/><path class="a" d="M337.16,347.76c-.48,1-1.37,2.27-2.57,2.27a1.07,1.07,0,0,1-1.11-1.17,5.54,5.54,0,0,1,.42-1.74l.34-1a8.45,8.45,0,0,0,.47-1.62.34.34,0,0,0-.33-.38c-.45,0-1.05,1-1.27,1.35l-.29-.17c.54-.92,1.36-2.1,2.54-2.1a1,1,0,0,1,1.12,1.06,6.23,6.23,0,0,1-.38,1.63l-.62,1.86a3.39,3.39,0,0,0-.23.87.38.38,0,0,0,.36.39c.53,0,1-1,1.26-1.38l.29.13m-1.92-7.44a1,1,0,0,1,2,0,1,1,0,0,1-1,1A1,1,0,0,1,335.24,340.32Z" transform="translate(-226.21 -293.4)"/><path class="a" d="M339.31,349.82h-1.72l.6-1.92a14.27,14.27,0,0,0,.66-3.27c0-.17,0-.39-.23-.39-.43,0-.86,1-1,1.34l-.34-.15c.43-.94,1.16-2.23,2.34-2.23a1,1,0,0,1,.94,1.07,10,10,0,0,1-.14,1.28l0,0c.43-.92,1.06-2.38,2.28-2.38a1,1,0,0,1,1.09,1,.86.86,0,0,1-.92.9c-.66,0-.63-.63-1-.63-.83,0-1.79,3-2,3.68l-.55,1.64" transform="translate(-226.21 -293.4)"/><path class="a" d="M348.58,348a3.8,3.8,0,0,1-3,2,2.07,2.07,0,0,1-2.21-2.29,4.36,4.36,0,0,1,4.07-4.53c.8,0,1.88.32,1.88,1.29,0,1.73-2.72,2.32-4.06,2.66a5.14,5.14,0,0,0-.09.87,1,1,0,0,0,1,1.16c.86,0,1.55-.83,2.06-1.45l.38.29m-.73-3.73a.57.57,0,0,0-.57-.63c-1.11,0-1.68,2.15-1.89,3C346.42,346.35,347.85,345.5,347.85,344.29Z" transform="translate(-226.21 -293.4)"/><path class="a" d="M355.31,341.63a7.19,7.19,0,0,0,.15-.91c0-.52-.77-.52-1.15-.52l.1-.46,3.17-.2L355.84,346a16.38,16.38,0,0,0-.52,2.56c0,.17.08.4.27.4.45,0,.9-.94,1.11-1.29l.31.14c-.38.89-1.27,2.17-2.34,2.17-.8,0-1.06-.8-.95-1.46h0a3,3,0,0,1-2.25,1.51,1.94,1.94,0,0,1-1.93-2.24c-.05-1.81,1.43-4.59,3.55-4.59a1.55,1.55,0,0,1,1.57.93h0l.65-2.5m-4,6.37c0,.56.19,1.1.86,1.1,1.43,0,2.21-3.15,2.21-4.21a.77.77,0,0,0-.83-.85C352.09,344,351.28,346.87,351.28,348Z" transform="translate(-226.21 -293.4)"/></svg>