<svg xmlns="http://www.w3.org/2000/svg" viewBox="0 0 160.51 60.57"><defs><style>.a{fill:#00678f;}.b{fill:#ddd;}</style></defs><title>dbank_g</title><rect class="a" x="36.91" width="6.34" height="20.09"/><path class="a" d="M300.88,300.71c.75-.91,1.68-1.22,4-1.22.25,0,.75.05,1,.08v4.93c-.38-.06-4.94-.16-4.95,2.68v7.08h-6.11l0-14.36h5.8" transform="translate(-226.21 -294.17)"/><polyline class="a" points="145.02 16.06 145.01 20.09 139.16 20.09 139.19 0.2 145.04 0.2 145.03 9.18 148.37 5.52 155.34 5.52 149.86 11.29 155.54 20.09 148.64 20.09 145.57 15.4"/><rect class="a" x="44.62" width="6.34" height="20.09"/><path class="a" d="M358.3,305.68a1.77,1.77,0,0,0-1.74-1.79,1.75,1.75,0,0,0-1.75,1.75v8.62h-6.3l0-14.76h5.86v.81a7,7,0,0,1,4.47-1.23c3.89,0,5.72,2.28,5.71,6.34l0,8.84h-6.26" transform="translate(-226.21 -294.17)"/><path class="a" d="M323.68,314.26H311.92l0-20h12.23c4.88,0,8,5.57,4.25,9.33,3.5,2.22,4.23,10.65-4.75,10.65m-5-7.89v3.23h2.49c1.41,0,2.48-.29,2.48-1.6,0-1.53-1.33-1.63-3.15-1.63Zm0-7.43v2.93h2.39c1.15,0,2-.51,2-1.54,0-1.37-1.12-1.39-2.34-1.39Z" transform="translate(-226.21 -294.17)"/><path class="a" d="M254.36,299.17c5.19,0,8.38,3.06,8.37,7.63,0,5.39-3.66,7.91-8.37,7.91s-8.35-2.58-8.34-7.6,3.37-7.94,8.34-7.94m-2.05,7.64c0,2.48.85,3.55,2.08,3.55s2.08-1.07,2.08-3.55c0-1.92-.78-3.37-2-3.3C252.8,303.51,252.32,305.34,252.31,306.81Z" transform="translate(-226.21 -294.17)"/><path class="a" d="M287.52,313.66c-1.51.95-2.8,1-4.85,1-2.76,0-5.21-1.37-5.21-4.41,0-6.63,10-3.72,10-6.46,0-1.06-.87-1.09-1.48-1.09a1.93,1.93,0,0,0-1.83,1.88h-5.94c0-3.09,2.36-5.37,8.14-5.37,6.91,0,7.32,2.57,7.32,6v3.89c0,.84,0,4.2.78,4.81v.28h-6.57m-.4-6.28c-1.52.74-3.54.38-3.54,1.9,0,.59.56,1,1.48,1C287,310.87,287.58,309.59,287.47,308Z" transform="translate(-226.21 -294.17)"/><path class="a" d="M226.39,314.26l0-20.05h10.21c6.36,0,9.27,4.5,9.26,9.77,0,7.43-4.16,10.28-10.49,10.28M233.23,309h1.06c3,0,4.66-1.43,4.66-4.8,0-3.72-1.33-4.71-4.79-4.71h-.92Z" transform="translate(-226.21 -294.17)"/><path class="a" d="M341.18,313.66c-1.52.95-2.81,1-4.86,1-2.76,0-5.21-1.37-5.21-4.41,0-6.63,10-3.72,10-6.46,0-1.06-.87-1.09-1.48-1.09a1.93,1.93,0,0,0-1.83,1.88h-5.94c0-3.09,2.36-5.37,8.14-5.37,6.91,0,7.32,2.57,7.32,6v3.89c0,.84,0,4.2.78,4.81v.28h-6.57m-.39-6.28c-1.53.74-3.55.38-3.55,1.9,0,.59.56,1,1.48,1C340.69,310.87,341.23,309.59,341.13,308Z" transform="translate(-226.21 -294.17)"/><polygon class="a" points="0 31.22 0 29.84 54.78 29.84 54.78 31.22 0 31.22 0 31.22"/><line class="a" x1="104.69" y1="30.53" x2="155.43" y2="30.53"/><polygon class="a" points="104.69 31.22 104.69 29.84 155.44 29.84 155.44 31.22 104.69 31.22 104.69 31.22"/><path class="a" d="M302.17,325.13h-1.7c0-.61.34-1,.85-1S302.16,324.52,302.17,325.13Zm11.63,0c-.27,0-1.09.5-1.09,1.12s.4.89,1.17.89,1.17-.36,1.17-.89S314.07,325.11,313.8,325.11Zm.08-1a1.2,1.2,0,0,0,.94-.93c0-.41-.25-.7-.95-.7s-.93.29-.93.7A1.05,1.05,0,0,0,313.88,324.15Zm19.53.7c0,3.86-12.89,7-28.79,7s-28.79-3.12-28.79-7,12.89-7,28.79-7S333.41,321,333.41,324.85Zm-46.56,1.3c0-2-3.16-1.77-3.16-2.82,0-.47.37-.67.88-.67a1.12,1.12,0,0,1,1.09.79l1.07-.33a2.22,2.22,0,0,0-2.16-1.38,1.79,1.79,0,0,0-2,1.71c0,1.89,3.16,1.65,3.16,2.85,0,.59-.45.82-1,.82a1.42,1.42,0,0,1-1.33-1l-1,.42A2.41,2.41,0,0,0,284.7,328C286.06,328,286.85,327.4,286.85,326.15Zm2.26-2.68h-1.05v4.41h1.05Zm0-1.8h-1.05v1h1.05Zm4.87,3.19c0-.9-.42-1.47-1.3-1.47a2.45,2.45,0,0,0-1.36.55v-.47h-1v4.41h1.06V324.7a1.35,1.35,0,0,1,1-.47c.36,0,.54.19.54.78v2.87H294Zm4.66,1.94-.8-.45a1.06,1.06,0,0,1-.93.7c-.62,0-.9-.45-.9-1.44s.28-1.44.87-1.44.69.3.86.67l.87-.34a1.74,1.74,0,0,0-1.73-1.18c-1.2,0-1.92.89-1.92,2.29s.72,2.29,1.92,2.29A1.8,1.8,0,0,0,298.64,326.8Zm4.5-1.39a1.85,1.85,0,0,0-1.8-2c-1.2,0-1.92.89-1.92,2.28s.72,2.29,1.87,2.29a2,2,0,0,0,1.85-.89l-.77-.48a1.15,1.15,0,0,1-1,.53c-.49,0-.9-.36-.92-1.28h2.67Zm7.38,1.62h-.94v-5.36h-.85a2.14,2.14,0,0,1-1.34.43v.71h1.09V327h-1v.85h3Zm5.63-.73a1.75,1.75,0,0,0-1.23-1.68,1.52,1.52,0,0,0,1-1.42c0-.93-.79-1.53-2-1.53s-2.05.6-2.05,1.53a1.54,1.54,0,0,0,1,1.42,1.76,1.76,0,0,0-1.22,1.68c0,1,1,1.66,2.27,1.66S316.15,327.3,316.15,326.3Zm5.27-.49a2,2,0,0,0-1.84-2,1.44,1.44,0,0,0-1.14.35l.08-1.39H321v-.95h-3.3l-.23,3.26.88.17a1,1,0,0,1,.92-.53,1,1,0,0,1,1,1.12c0,.76-.35,1.29-1.13,1.26a1.23,1.23,0,0,1-1.09-.69l-.92.47a2.11,2.11,0,0,0,2,1.15A2,2,0,0,0,321.42,325.81Zm5.14,0a2,2,0,0,0-1.83-2,1.42,1.42,0,0,0-1.14.36l.08-1.39h2.47v-.95h-3.3l-.23,3.26.88.16a1,1,0,0,1,.92-.52,1,1,0,0,1,1,1.12c0,.76-.36,1.29-1.14,1.26a1.24,1.24,0,0,1-1.08-.69l-.92.47a2.09,2.09,0,0,0,2,1.15A2,2,0,0,0,326.56,325.78Z" transform="translate(-226.21 -294.17)"/><path class="a" d="M384.4,310.11a2.31,2.31,0,1,1-2.34,2.3,2.31,2.31,0,0,1,2.34-2.3m0,.38a1.93,1.93,0,1,0,1.88,1.92A1.87,1.87,0,0,0,384.4,310.49Zm-.49,3.26h-.41v-2.66h1c.63,0,.94.23.94.76a.7.7,0,0,1-.7.73l.76,1.17h-.45l-.7-1.16h-.46Zm0-1.5h.48c.5,0,.66-.14.66-.43s-.13-.4-.59-.4h-.55Z" transform="translate(-226.21 -294.17)"/><path class="b" d="M360.7,339.89a2.06,2.06,0,1,1-2.09,2.05,2.05,2.05,0,0,1,2.09-2.05m0,.33a1.73,1.73,0,1,0,1.68,1.72A1.67,1.67,0,0,0,360.7,340.22Zm-.44,2.91h-.36v-2.37h.91c.56,0,.84.21.84.68a.62.62,0,0,1-.62.65l.67,1h-.39l-.64-1h-.41Zm0-1.33h.44c.44,0,.58-.12.58-.39s-.11-.35-.53-.35h-.49Z" transform="translate(-226.21 -294.17)"/><path class="b" d="M251.64,350.63l-1.25-8.52h0l-1.49,5.47a8,8,0,0,0-.31,1.66c0,.77.74.82,1.33.86l-.16.53-1.71-.07-1.87.07v-.53c1.23,0,1.43-.87,1.73-1.87l1.53-5.24a7.64,7.64,0,0,0,.33-1.42c0-.62-.76-.56-1.17-.6l.15-.52c.56,0,1.09,0,1.65.06s1.1-.05,1.66-.06l1.1,7.38h0l4.42-7.38c.56,0,1.1,0,1.65.06l1.54-.06V341a1.91,1.91,0,0,0-.94.28c-.35.27-.48,1.17-.55,1.59l-.93,5.53a8.84,8.84,0,0,0-.13,1c0,.78.78.69,1.35.73l-.14.53-2.55-.07-2.32.07.15-.53c.37,0,1,0,1.2-.39a4.18,4.18,0,0,0,.37-1.34l1.17-6.23,0,0-5.05,8.52h-.75" transform="translate(-226.21 -294.17)"/><path class="b" d="M266.86,346.87a12.81,12.81,0,0,0-.49,2.45c0,.18,0,.47.28.47.43,0,.87-1.05,1-1.35l.29.11c-.37,1-1.09,2.25-2.28,2.25a1,1,0,0,1-1-1.13,5.06,5.06,0,0,1,.14-1.13l0,0c-.48,1-1.45,2.29-2.71,2.29a1.19,1.19,0,0,1-1.26-1.22,7,7,0,0,1,.43-1.84l.48-1.63a3.4,3.4,0,0,0,.23-.9c0-.17-.08-.32-.26-.32-.46,0-.92.94-1.15,1.28l-.28-.14c.51-1,1.2-2.06,2.41-2.06a1,1,0,0,1,1.05,1,6.84,6.84,0,0,1-.42,1.79l-.37,1.1a8.83,8.83,0,0,0-.43,1.56c0,.27.19.39.45.39,1.26,0,2.31-3.3,2.63-4.3l.46-1.4h1.66l-.86,2.78" transform="translate(-226.21 -294.17)"/><path class="b" d="M271.64,344.28h1.46l-.17.61h-1.46l-.71,2.66a9.6,9.6,0,0,0-.38,1.78c0,.24.06.54.35.54.53,0,1-.93,1.27-1.3l.12-.22.29.16c-.48.95-1.31,2.29-2.49,2.29a1.21,1.21,0,0,1-1.25-1.2,10.89,10.89,0,0,1,.47-2.31l.64-2.4h-1.21l.13-.61h1.23l.79-2.42h1.57l-.65,2.42" transform="translate(-226.21 -294.17)"/><path class="b" d="M279.16,346.87a12.81,12.81,0,0,0-.49,2.45c0,.18,0,.47.28.47.43,0,.87-1.05,1-1.35l.29.11c-.37,1-1.09,2.25-2.28,2.25a1,1,0,0,1-1-1.13,5.06,5.06,0,0,1,.14-1.13l0,0c-.47,1-1.45,2.29-2.71,2.29a1.19,1.19,0,0,1-1.26-1.22,7.45,7.45,0,0,1,.43-1.84l.48-1.63a3.4,3.4,0,0,0,.23-.9c0-.17-.08-.32-.26-.32-.46,0-.92.94-1.15,1.28l-.28-.14c.51-1,1.2-2.06,2.41-2.06a1,1,0,0,1,1.05,1,6.84,6.84,0,0,1-.42,1.79l-.37,1.1a8.83,8.83,0,0,0-.43,1.56c0,.27.19.39.45.39,1.26,0,2.31-3.3,2.63-4.3l.46-1.4H280l-.86,2.78" transform="translate(-226.21 -294.17)"/><path class="b" d="M286.4,344H288l-1.15,4.13a6.06,6.06,0,0,0-.25,1.13c0,.19.08.54.29.54.48,0,.93-1,1.14-1.38l.33.14c-.42,1-1.23,2.26-2.4,2.26a1,1,0,0,1-1-1l0-.55,0,0a2.74,2.74,0,0,1-2.31,1.62c-1.29,0-1.9-1-1.9-2.23,0-2,1.55-4.6,3.76-4.6a1.56,1.56,0,0,1,1.53,1l.33-1m-3.78,4.89c0,.45.22,1,.74,1,1.4,0,2.34-3.07,2.34-4.18a.8.8,0,0,0-.82-.88C283.53,344.81,282.62,347.78,282.62,348.87Z" transform="translate(-226.21 -294.17)"/><path class="b" d="M290.91,347.91a6.91,6.91,0,0,0-.28,1.32c0,.18,0,.55.28.55.44,0,.93-1.18,1.07-1.57l.36.11c-.37,1-1.11,2.48-2.37,2.48a1.06,1.06,0,0,1-1.11-1.19,7.42,7.42,0,0,1,.29-1.58l1.39-5.15a8,8,0,0,0,.29-1.39c0-.52-.8-.52-1.17-.52l.12-.46,3.26-.2-2.13,7.6" transform="translate(-226.21 -294.17)"/><path class="b" d="M294.91,347.91a6.22,6.22,0,0,0-.28,1.32c0,.18,0,.55.28.55.44,0,.93-1.18,1.07-1.57l.35.11c-.36,1-1.1,2.48-2.36,2.48a1.05,1.05,0,0,1-1.11-1.19,7.42,7.42,0,0,1,.29-1.58l1.39-5.15a8,8,0,0,0,.29-1.39c0-.52-.8-.52-1.17-.52l.12-.46,3.26-.2-2.13,7.6" transform="translate(-226.21 -294.17)"/><path class="b" d="M300.25,350.21h0a9.22,9.22,0,0,0,1.09-3.55c0-1.09-.65-1.54-.65-2.05a.66.66,0,0,1,.69-.64c.67,0,.88.72.88,1.26,0,2.68-1.87,6.13-3.67,8.06a3.73,3.73,0,0,1-2.56,1.46c-.47,0-.87-.17-.87-.69a.76.76,0,0,1,.75-.71c.35,0,.71.24,1.11.24a1.63,1.63,0,0,0,1.2-.63,2.29,2.29,0,0,0,.53-1.66,18.52,18.52,0,0,0-.53-3.75l-.66-1.89c-.08-.19-.23-.46-.48-.46-.42,0-.36,1.4-.37,1.63h-.34c0-.95,0-2.86,1.37-2.86,1.14,0,1.65,1.55,1.89,2.44a16.5,16.5,0,0,1,.58,3.8" transform="translate(-226.21 -294.17)"/><path class="b" d="M309.17,343.17a8.39,8.39,0,0,0,.37-1.58c0-.74-.68-.59-1.3-.62l.13-.52,2.31.06,2.41-.06L313,341c-1.08,0-1.19.55-1.43,1.49L310,347.93a9.14,9.14,0,0,0-.32,1.59c0,.69.71.58,1.32.58l-.14.53-2.39-.07-2.39.07.14-.53c1.08,0,1.19-.55,1.43-1.49l1.52-5.44" transform="translate(-226.21 -294.17)"/><path class="b" d="M312.8,348.15a13.64,13.64,0,0,0,.63-2.75c0-.17-.07-.42-.29-.42-.41,0-.86,1-1,1.29l-.31-.12c.42-1,1.11-2.18,2.31-2.18.68,0,1,.4,1,1.06l-.07.88,0,.29,0,0c.51-1.09,1.45-2.26,2.77-2.26a1.11,1.11,0,0,1,1.24,1.2,7.09,7.09,0,0,1-.36,1.74l-.3.89a10.86,10.86,0,0,0-.51,1.66c0,.14.11.33.27.33.43,0,.94-1,1.12-1.28l.31.17c-.45.9-1.22,2.12-2.36,2.12a1.05,1.05,0,0,1-1.1-1.09,7.39,7.39,0,0,1,.38-1.71l.31-.93a10.62,10.62,0,0,0,.51-1.8.37.37,0,0,0-.34-.38c-1.34,0-2.17,2.8-2.51,3.75l-.67,1.95h-1.62l.66-2.44" transform="translate(-226.21 -294.17)"/><path class="b" d="M320.54,346c0-1.34,1.27-2,2.46-2,.75,0,1.84.26,1.84,1.21a.63.63,0,0,1-.64.65c-.46,0-.65-.42-.66-.8s-.13-.54-.54-.54-.83.25-.83.72a2,2,0,0,0,.83,1.34,3,3,0,0,1,1.1,2.14,2.38,2.38,0,0,1-2.54,2.11c-.85,0-2.07-.42-2.07-1.48a.69.69,0,1,1,1.38-.05v.27l0,.24c0,.34.36.49.64.49a.94.94,0,0,0,.92-.95,1.74,1.74,0,0,0-.62-1.18,3.84,3.84,0,0,1-1.24-2.19" transform="translate(-226.21 -294.17)"/><path class="b" d="M328.49,345l0,0a2.42,2.42,0,0,1,1.94-1c1.32,0,1.9,1,1.9,2.21,0,2-1.29,4.62-3.52,4.62a1.57,1.57,0,0,1-1.51-1h0l-.81,3.1a3.51,3.51,0,0,0-.17.78c0,.57.6.57,1,.62l-.12.46c-.64,0-1.25-.05-1.88-.06s-1.25,0-1.88.06l.11-.46c.29-.05.66,0,.85-.28a4.94,4.94,0,0,0,.49-1.43l2-7.31a2.75,2.75,0,0,0-1.74,1.82l-.4-.15a3,3,0,0,1,1.43-1.91,2.67,2.67,0,0,0,1.31-2l.38-1.43,1.46.26-.84,3.1m2.1.82a.85.85,0,0,0-.84-1c-1.37,0-2.09,3.2-2.09,4.14,0,.48.21,1,.76,1C329.81,350,330.59,346.87,330.59,345.77Z" transform="translate(-226.21 -294.17)"/><path class="b" d="M337.16,348.54c-.48,1-1.37,2.26-2.57,2.26a1.07,1.07,0,0,1-1.11-1.17,5.54,5.54,0,0,1,.42-1.74l.34-1a8.45,8.45,0,0,0,.47-1.62.34.34,0,0,0-.33-.38c-.45,0-1.05,1-1.27,1.35l-.29-.17c.54-.92,1.36-2.1,2.54-2.1a1,1,0,0,1,1.12,1.06,6.23,6.23,0,0,1-.38,1.63l-.62,1.86a3.36,3.36,0,0,0-.23.88.38.38,0,0,0,.36.38c.53,0,1-1,1.26-1.38l.29.14m-1.92-7.45a1,1,0,0,1,2,0,1,1,0,0,1-1,1A1,1,0,0,1,335.24,341.09Z" transform="translate(-226.21 -294.17)"/><path class="b" d="M339.31,350.59h-1.72l.6-1.91a14.46,14.46,0,0,0,.66-3.28c0-.17,0-.39-.23-.39-.43,0-.86,1-1,1.34l-.34-.15c.43-.94,1.16-2.23,2.34-2.23a1,1,0,0,1,.94,1.07,10,10,0,0,1-.14,1.28l0,0c.43-.92,1.06-2.38,2.28-2.38a1,1,0,0,1,1.09,1,.87.87,0,0,1-.92.91c-.66,0-.63-.64-1-.64-.83,0-1.79,3-2,3.68l-.55,1.64" transform="translate(-226.21 -294.17)"/><path class="b" d="M348.58,348.8a3.81,3.81,0,0,1-3,2,2.06,2.06,0,0,1-2.21-2.28c0-2.3,1.69-4.54,4.07-4.54.8,0,1.88.32,1.88,1.29,0,1.74-2.72,2.32-4.06,2.66a5.25,5.25,0,0,0-.09.88,1,1,0,0,0,1,1.15c.86,0,1.55-.83,2.06-1.44l.38.29m-.73-3.74a.57.57,0,0,0-.57-.63c-1.11,0-1.68,2.15-1.89,3C346.42,347.12,347.85,346.27,347.85,345.06Z" transform="translate(-226.21 -294.17)"/><path class="b" d="M355.31,342.4a7.19,7.19,0,0,0,.15-.91c0-.52-.77-.52-1.15-.52l.1-.46,3.17-.2-1.74,6.46a16.38,16.38,0,0,0-.52,2.56c0,.17.08.41.27.41.45,0,.9-.94,1.11-1.3l.31.14c-.38.89-1.27,2.17-2.34,2.17-.8,0-1.06-.8-.95-1.46h0a3,3,0,0,1-2.25,1.51,1.93,1.93,0,0,1-1.93-2.23c-.05-1.82,1.43-4.6,3.55-4.6a1.56,1.56,0,0,1,1.57.94h0l.65-2.51m-4,6.37c0,.56.19,1.1.86,1.1,1.43,0,2.21-3.15,2.21-4.21a.77.77,0,0,0-.83-.85C352.09,344.81,351.28,347.64,351.28,348.77Z" transform="translate(-226.21 -294.17)"/></svg>