<svg xmlns="http://www.w3.org/2000/svg" viewBox="0 0 136.47 101.46"><defs><style>.a,.d{fill:#00678f;}.b{fill:#231f20;}.b,.c,.d{stroke:#00678f;}.b,.c{stroke-width:3px;}.c,.e{fill:#fff;}.d{stroke-width:0.75px;}</style></defs><title>dbank2</title><path class="a" d="M303.07,307.55l.05-34.42h10.8l-.05,34.42Z" transform="translate(-238.6 -273.13)"/><path class="a" d="M366.57,284.34c1.3-1.57,2.89-2.1,6.79-2.1.42,0,1.29.09,1.71.14v8.44c-.66-.09-8.48-.27-8.48,4.61l0,12.12H356.08l0-24.61h9.94Z" transform="translate(-238.6 -273.13)"/><path class="a" d="M315.09,307.55l.05-34.42h10.8l-.05,34.42Z" transform="translate(-238.6 -273.13)"/><path class="a" d="M288.05,281.7c8.89,0,14.36,5.24,14.34,13.08,0,9.22-6.26,13.55-14.34,13.55s-14.31-4.42-14.3-13S279.54,281.7,288.05,281.7Zm-3.51,13.09c0,4.24,1.46,6.08,3.56,6.08s3.56-1.84,3.57-6.08c0-3.3-1.34-5.79-3.48-5.66C285.38,289.13,284.55,292.26,284.54,294.79Z" transform="translate(-238.6 -273.13)"/><path class="a" d="M343.69,306.51c-2.59,1.64-4.8,1.76-8.32,1.76-4.73,0-8.93-2.34-8.92-7.55,0-11.37,17.12-6.39,17.13-11.07,0-1.81-1.49-1.87-2.54-1.87A3.33,3.33,0,0,0,337.9,291H327.73c0-5.31,4-9.21,13.94-9.21,11.85,0,12.56,4.4,12.55,10.37v6.66c0,1.44,0,7.19,1.32,8.24v.48H344.29Zm-.09-9.72c-2.61,1.27-6.06.65-6.07,3.26,0,1,1,1.69,2.54,1.69C342.87,301.74,343.79,299.55,343.6,296.79Z" transform="translate(-238.6 -273.13)"/><path class="a" d="M240.12,307.55l0-34.34h17.5c10.89,0,15.88,7.7,15.86,16.73,0,12.73-7.12,17.61-18,17.61Zm11.72-9.09h1.82c5.16,0,8-2.46,8-8.24,0-6.37-2.29-8.06-8.2-8.06h-1.59Z" transform="translate(-238.6 -273.13)"/><line class="b" y1="88.87" x2="32.39" y2="88.87"/><line class="c" x1="111.38" y1="88.87" x2="135.9" y2="88.87"/><path class="d" d="M304.94,374.22c27.24,0,49.33-5.36,49.33-12s-22.09-12-49.33-12-49.32,5.36-49.32,12S277.7,374.22,304.94,374.22Z" transform="translate(-238.6 -273.13)"/><path class="e" d="M278.37,367.44h-1.79v-7.55h1.79Zm-1.79-8.94v-1.69h1.79v1.69Z" transform="translate(-238.6 -273.13)"/><path class="e" d="M280.5,367.44v-7.55h1.66v.81a4.24,4.24,0,0,1,2.33-.95c1.51,0,2.23,1,2.23,2.52v5.17h-1.8v-4.9c0-1-.32-1.34-.93-1.34a2.28,2.28,0,0,0-1.68.8v5.44Z" transform="translate(-238.6 -273.13)"/><path class="e" d="M293.16,362.24c-.29-.64-.61-1.15-1.48-1.15s-1.48.79-1.48,2.47.47,2.47,1.54,2.47a1.83,1.83,0,0,0,1.59-1.2l1.37.76a3.08,3.08,0,0,1-3,1.89c-2.05,0-3.29-1.52-3.29-3.92s1.24-3.92,3.29-3.92a3,3,0,0,1,3,2Z" transform="translate(-238.6 -273.13)"/><path class="e" d="M297.84,364c0,1.56.73,2.18,1.57,2.18a2,2,0,0,0,1.69-.9l1.31.81a3.43,3.43,0,0,1-3.17,1.54c-2,0-3.2-1.53-3.2-3.93s1.24-3.91,3.28-3.91,3.09,1.65,3.09,3.46V364Zm2.91-1.22c0-1.05-.58-1.66-1.45-1.66s-1.43.61-1.46,1.66Z" transform="translate(-238.6 -273.13)"/><path class="e" d="M309.93,367.44V366h1.63v-7.24H309.7v-1.22a3.56,3.56,0,0,0,2.28-.72h1.47V366h1.61v1.45Z" transform="translate(-238.6 -273.13)"/><path class="e" d="M322.6,361.87a3,3,0,0,1,2.11,2.87c0,1.72-1.68,2.85-3.9,2.85s-3.89-1.13-3.89-2.85a3,3,0,0,1,2.1-2.87,2.66,2.66,0,0,1-1.71-2.45c0-1.59,1.36-2.61,3.5-2.61s3.5,1,3.5,2.61A2.64,2.64,0,0,1,322.6,361.87Zm.21,2.74c0-.95-1.67-1.91-2.13-1.91s-1.87.85-1.87,1.91c0,.91.68,1.53,2,1.53S322.81,365.52,322.81,364.61Zm-3.61-5.15a1.82,1.82,0,0,0,1.61,1.6,2.06,2.06,0,0,0,1.62-1.6c0-.71-.44-1.19-1.63-1.19S319.2,358.75,319.2,359.46Z" transform="translate(-238.6 -273.13)"/><path class="e" d="M327.35,357H333v1.63h-4.24l-.14,2.37a2.47,2.47,0,0,1,2-.6,3.34,3.34,0,0,1,3.14,3.48c0,2.3-1.34,3.75-3.87,3.75a3.59,3.59,0,0,1-3.4-2l1.57-.81a2.11,2.11,0,0,0,1.86,1.18c1.34.05,1.94-.85,1.94-2.16a1.78,1.78,0,0,0-1.78-1.92,1.76,1.76,0,0,0-1.58.9L327,362.6Z" transform="translate(-238.6 -273.13)"/><path class="e" d="M336.16,357h5.67v1.63h-4.25l-.14,2.38a2.43,2.43,0,0,1,2-.61,3.35,3.35,0,0,1,3.14,3.48c0,2.3-1.34,3.75-3.87,3.75a3.59,3.59,0,0,1-3.4-2l1.58-.81A2.07,2.07,0,0,0,338.7,366c1.34.05,1.95-.85,1.95-2.16a1.78,1.78,0,0,0-1.79-1.91,1.74,1.74,0,0,0-1.58.9l-1.52-.29Z" transform="translate(-238.6 -273.13)"/><path class="e" d="M272.46,359.86a1.93,1.93,0,0,0-1.87-1.37c-.87,0-1.5.35-1.5,1.17,0,1.79,5.41,1.42,5.41,4.82,0,2.15-1.35,3.23-3.68,3.23a4.16,4.16,0,0,1-3.92-2.49l1.65-.72a2.43,2.43,0,0,0,2.29,1.64c1,0,1.77-.38,1.77-1.4,0-2.06-5.4-1.65-5.4-4.88,0-1.87,1.56-2.93,3.38-2.93a3.81,3.81,0,0,1,3.7,2.36Z" transform="translate(-238.6 -273.13)"/><polygon class="a" points="109.62 65.07 109.61 71.97 99.57 71.97 99.63 37.89 109.66 37.89 109.64 53.29 115.36 47.01 127.31 47.01 117.92 56.9 127.65 71.97 115.82 71.97 110.57 63.95 109.62 65.07"/><path class="a" d="M326.06,330.4a3,3,0,0,0-3-3.06,3,3,0,0,0-3,3l0,14.77H309.27l0-25.28h10.05v1.38c2.37-1.24,3.14-2.11,7.66-2.11,6.66,0,9.79,3.91,9.78,10.86l0,15.15H326Z" transform="translate(-238.6 -273.13)"/><path class="a" d="M266.73,345.11H246.59l.06-34.24h21c8.36,0,13.74,9.55,7.27,16C280.88,330.67,282.13,345.11,266.73,345.11Zm-8.54-13.52v5.53h4.28c2.41,0,4.24-.5,4.24-2.74,0-2.62-2.28-2.79-5.39-2.79Zm0-12.73v5h4.1c2,0,3.4-.88,3.4-2.64,0-2.34-1.92-2.38-4-2.38Z" transform="translate(-238.6 -273.13)"/><path class="a" d="M296.71,344.07c-2.59,1.64-4.8,1.76-8.32,1.76-4.72,0-8.92-2.35-8.92-7.55,0-11.37,17.12-6.39,17.13-11.07,0-1.81-1.49-1.88-2.54-1.88a3.34,3.34,0,0,0-3.14,3.23H280.75c0-5.3,4.06-9.2,13.94-9.2,11.85,0,12.56,4.4,12.55,10.37v6.66c0,1.44,0,7.19,1.32,8.24v.48H297.31Zm-.08-9.72c-2.62,1.27-6.07.65-6.07,3.26,0,1,.95,1.69,2.53,1.69C295.89,339.3,296.81,337.11,296.63,334.35Z" transform="translate(-238.6 -273.13)"/><path class="a" d="M370.42,338.3a4,4,0,0,1,1.89.49,3.55,3.55,0,0,1,1.43,1.42,3.88,3.88,0,0,1,0,3.83,3.53,3.53,0,0,1-1.42,1.42,3.83,3.83,0,0,1-3.82,0,3.53,3.53,0,0,1-1.42-1.42,3.82,3.82,0,0,1,0-3.83,3.55,3.55,0,0,1,1.43-1.42A4,4,0,0,1,370.42,338.3Zm0,.63a3.22,3.22,0,0,0-1.57.42,3,3,0,0,0-1.2,1.18,3.22,3.22,0,0,0,0,3.2,3,3,0,0,0,1.19,1.18,3.22,3.22,0,0,0,3.18,0,3,3,0,0,0,1.19-1.18,3.22,3.22,0,0,0,0-3.2,3,3,0,0,0-1.2-1.18A3.22,3.22,0,0,0,370.42,338.93Zm-1.68,5.33v-4.13h1.42a3.74,3.74,0,0,1,1,.11,1,1,0,0,1,.52.4,1,1,0,0,1,.19.61,1.14,1.14,0,0,1-.32.79,1.31,1.31,0,0,1-.86.37,1,1,0,0,1,.35.22,4.53,4.53,0,0,1,.61.82l.51.81h-.82l-.36-.65a3.21,3.21,0,0,0-.7-1,.83.83,0,0,0-.54-.15h-.39v1.76Zm.66-2.33h.81a1.26,1.26,0,0,0,.79-.17.56.56,0,0,0,.21-.46.51.51,0,0,0-.1-.32.62.62,0,0,0-.28-.22,2,2,0,0,0-.67-.07h-.76Z" transform="translate(-238.6 -273.13)"/></svg>