<svg id="Layer_1" data-name="Layer 1" xmlns="http://www.w3.org/2000/svg" viewBox="0 0 296.7 93.12"><defs><style>.cls-1{fill:#fff;}</style></defs><title>levin</title><path class="cls-1" d="M45.27,106.09c1.6.75,1.41,2.09,1,3.43L31.83,160.39c-1.41,3.6.47,5.69,3.29,5.69H67.54a5.32,5.32,0,0,0,4.89-3.18L75.15,154c.19-.84-.75-.84-1.22-.42s-1.22,1.59-2.16,1.59H52.41c-2,0-1.79-.92-1.5-1.84L63.12,109.1c.75-2.59.38-4-2.25-4H46.3c-1.13,0-1.88.67-1,1Zm48.29.5c.85.92,1.41,1.92.94,3.1l-14.94,51c-1.5,3.43.85,5.44,2.73,5.44h36c2.82,0,4.6-1.42,5.17-3.18l2.35-8.7c.38-.92-1-1.26-1.41-.42-.38.59-.94,1.42-1.69,1.42H99.39c-1.79,0-2.44-.75-2.07-1.92l3.76-13.22c.38-1.34,2.16-2.26,3.85-2.26h17c2.44,0,4.23-.92,4.79-2.26l1.6-6.36c.47-1.17-.66-1.17-2-1.17H107.09c-2,0-2.16-.59-1.69-1.84l2.16-9c.28-1.09.85-1.76,2-1.76H132c1.5,0,2.54,0,2.63,1.59l-.19,44.68c0,2.43,3.29,4.35,5.45,4.35h10.9c2.63,0,3.85-1.59,4.89-3.1l35.23-53.46c1.41-2.34,1.13-4.43-1.6-4.43H176.43c-1.69,0-2.07.75-1.41,1.17a1.44,1.44,0,0,1,.56,2l-23.21,35.89c-1.22,1.76-2.26,1.42-2.26.25V108.1c.09-1.76-.85-3-3.48-3H95.54c-1.79,0-3,.59-2,1.51Zm100.63-.5c-.75-.42-.28-1.09,1-1.09h14c2.35,0,2.26,2.18,1.51,5.1l-14.28,51.37a3.57,3.57,0,0,0,.28,2.85c.56,1,.47,1.76-.94,1.76H182.26c-3.29,0-3.48-2.68-2.25-5.86l14.84-51.71c.19-1.17.09-2-.66-2.43Zm27.63.08c.84.5,1.31.92.94,2.09L208,161.73c-.75,2.43.28,4.35,3.66,4.35h11.27c2.07,0,.85-1.42.38-2.09a2,2,0,0,1-.38-1.59l7.89-30.12c.47-1.42,1.22-1.59,1.88.08L244.46,163a4.47,4.47,0,0,0,4.6,3.1h5.26c2.35,0,2.63-1.34,2.91-2.68l14.28-53.63c.66-2.26.94-4.69-2-4.77H258c-1.5,0-1.69.75-.94,1.09a1.93,1.93,0,0,1,1,2.68l-6.3,23.59c-.56,1.76-1.6,1.17-2.07-.17l-10.43-24.35c-.85-1.92-2.63-2.76-5.26-2.76H222.94C221.81,105.08,221.16,105.75,221.81,106.17Z" transform="translate(-3.3 -105)"/><path class="cls-1" d="M8.84,176.66H20.59v3.48H13.08v5h7.07v3.48H13.08v9.14H8.84Z" transform="translate(-3.3 -105)"/><path class="cls-1" d="M26.46,176.66v14.68c0,2.09.5,3.65,2.48,3.65s2.48-1.56,2.48-3.65V176.66h4.24v14.68c0,5.36-3.27,6.78-6.72,6.78s-6.72-1.15-6.72-6.78V176.66Z" transform="translate(-3.3 -105)"/><path class="cls-1" d="M38.33,176.66h7.84c3.48,0,5.6,1.83,5.6,5.42,0,2.8-1.12,4.69-3.51,5.19v.06c2.89.38,3.33,2,3.39,6.42,0,2.21.15,3.36.94,3.77v.18H48a4.1,4.1,0,0,1-.53-2.21l-.12-4c-.06-1.65-.8-2.65-2.5-2.65H42.58v8.9H38.33Zm4.24,9.19h1.77c2,0,3.18-.88,3.18-3.15a2.61,2.61,0,0,0-2.95-2.92h-2Z" transform="translate(-3.3 -105)"/><path class="cls-1" d="M59.61,176.66l5.13,14.41h.06V176.66h3.89v21H63.85L58.67,183h-.06V197.7H54.72v-21Z" transform="translate(-3.3 -105)"/><path class="cls-1" d="M71.84,197.7v-21h4.24v21Z" transform="translate(-3.3 -105)"/><path class="cls-1" d="M91.55,176.66v3.48H87V197.7H82.71V180.14h-4.6v-3.48Z" transform="translate(-3.3 -105)"/><path class="cls-1" d="M97.36,176.66v14.68c0,2.09.5,3.65,2.48,3.65s2.48-1.56,2.48-3.65V176.66h4.24v14.68c0,5.36-3.27,6.78-6.72,6.78s-6.72-1.15-6.72-6.78V176.66Z" transform="translate(-3.3 -105)"/><path class="cls-1" d="M109.23,176.66h7.84c3.48,0,5.6,1.83,5.6,5.42,0,2.8-1.12,4.69-3.51,5.19v.06c2.89.38,3.33,2,3.39,6.42,0,2.21.15,3.36.94,3.77v.18h-4.6a4.1,4.1,0,0,1-.53-2.21l-.12-4c-.06-1.65-.8-2.65-2.5-2.65h-2.27v8.9h-4.24Zm4.24,9.19h1.77c2,0,3.18-.88,3.18-3.15a2.61,2.61,0,0,0-2.95-2.92h-2Z" transform="translate(-3.3 -105)"/><path class="cls-1" d="M137.37,176.66v3.48h-7.51v5h7.07v3.48h-7.07v5.66h7.81v3.48H125.62v-21Z" transform="translate(-3.3 -105)"/><path class="cls-1" d="M157.94,190.78a8.59,8.59,0,0,0,.74-3.18h3.65a10.93,10.93,0,0,1-2.15,6.22L163,197.7h-4.51l-1.18-1.62a6.68,6.68,0,0,1-5.07,2c-5.33,0-6.45-3.71-6.45-6.07s1.62-4.45,4.24-6.07l-.74-1.09a6,6,0,0,1-1.41-3.8c0-2.74,2.21-4.42,5.36-4.42,3.6,0,5.25,1.94,5.25,4.39,0,2.09-1.18,3.71-3.65,5.45Zm-6-2.3c-1.59,1.24-2.15,2.27-2.15,3.57a2.81,2.81,0,0,0,2.95,2.77,3.31,3.31,0,0,0,2.74-1.33Zm.41-5.22.5.71.77-.65A3,3,0,0,0,155,181a1.68,1.68,0,0,0-1.86-1.77,1.66,1.66,0,0,0-1.8,1.71A4.37,4.37,0,0,0,152.37,183.26Z" transform="translate(-3.3 -105)"/><path class="cls-1" d="M171.5,176.66h6.31l3,14.85h.06l3-14.85h6.28v21h-3.89v-16.8h-.06l-3.74,16.8h-3.3l-3.74-16.8h-.06v16.8H171.5Z" transform="translate(-3.3 -105)"/><path class="cls-1" d="M197.31,176.66h5.25l5.57,21h-4.42l-1-4.45h-5.6l-1,4.45h-4.42Zm.56,13.11H202l-2-9.46h-.06Z" transform="translate(-3.3 -105)"/><path class="cls-1" d="M220.3,176.66v3.48h-4.6V197.7h-4.24V180.14h-4.6v-3.48Z" transform="translate(-3.3 -105)"/><path class="cls-1" d="M234.44,176.66v3.48h-4.6V197.7H225.6V180.14H221v-3.48Z" transform="translate(-3.3 -105)"/><path class="cls-1" d="M236.27,176.66h7.84c3.48,0,5.6,1.83,5.6,5.42,0,2.8-1.12,4.69-3.51,5.19v.06c2.89.38,3.33,2,3.39,6.42,0,2.21.15,3.36.94,3.77v.18h-4.6a4.1,4.1,0,0,1-.53-2.21l-.12-4c-.06-1.65-.8-2.65-2.5-2.65h-2.27v8.9h-4.24Zm4.24,9.19h1.77c2,0,3.18-.88,3.18-3.15a2.61,2.61,0,0,0-2.95-2.92h-2Z" transform="translate(-3.3 -105)"/><path class="cls-1" d="M264.41,176.66v3.48H256.9v5H264v3.48H256.9v5.66h7.81v3.48H252.65v-21Z" transform="translate(-3.3 -105)"/><path class="cls-1" d="M270.24,191.13v.62c0,2,.56,3.24,2.8,3.24a2.42,2.42,0,0,0,2.53-2.59c0-1.92-1-2.62-3.77-3.6-3.77-1.3-5.51-2.86-5.51-6.37,0-4.1,2.5-6.19,6.51-6.19,3.77,0,6.51,1.62,6.51,5.66v.59h-4.07c0-2-.68-3.12-2.3-3.12a2.17,2.17,0,0,0-2.42,2.45c0,1.3.38,2.09,2.18,2.86l3.27,1.41c3.18,1.39,4,3,4,5.57,0,4.45-2.71,6.45-7.31,6.45-4.8,0-6.69-2.24-6.69-6.13v-.85Z" transform="translate(-3.3 -105)"/><path class="cls-1" d="M285.54,191.13v.62c0,2,.56,3.24,2.8,3.24a2.42,2.42,0,0,0,2.53-2.59c0-1.92-1-2.62-3.77-3.6-3.77-1.3-5.51-2.86-5.51-6.37,0-4.1,2.5-6.19,6.51-6.19,3.77,0,6.51,1.62,6.51,5.66v.59h-4.07c0-2-.68-3.12-2.3-3.12a2.17,2.17,0,0,0-2.42,2.45c0,1.3.38,2.09,2.18,2.86l3.27,1.41c3.18,1.39,4,3,4,5.57,0,4.45-2.71,6.45-7.31,6.45-4.8,0-6.69-2.24-6.69-6.13v-.85Z" transform="translate(-3.3 -105)"/><rect class="cls-1" y="65.56" width="296.7" height="1.43"/></svg>