<svg xmlns="http://www.w3.org/2000/svg" viewBox="0 0 750 260.2"><defs><style>.a{fill:none;}.b{fill:#2f2f2f;}</style></defs><title>wegmans</title><path class="a" d="M422.41,413.76a2.09,2.09,0,0,1,.36.19,2.27,2.27,0,0,1,.37.29c.06-.42.12-.84.17-1.26Z" transform="translate(68 -265)"/><path class="a" d="M496.35,417.94l-.23-.14a3.22,3.22,0,0,1-.38-.35c-.12.38-.25.74-.37,1.12Z" transform="translate(68 -265)"/><path class="a" d="M376.1,379.9a.52.52,0,0,1-.11-.1,1.33,1.33,0,0,0-.05.19Z" transform="translate(68 -265)"/><path class="a" d="M-21.81,390a1.23,1.23,0,0,1,.23.28c0-.12.09-.22.13-.34Z" transform="translate(68 -265)"/><path class="a" d="M407.05,412.9l-.1-.11-.06.12Z" transform="translate(68 -265)"/><path class="a" d="M563.44,378a1.74,1.74,0,0,1-.47-.37.47.47,0,0,1-.06-.09c-.19.36-.37.72-.57,1.09Z" transform="translate(68 -265)"/><path class="b" d="M652.25,366.2c-11.25,7-15.87,19.5-12.82,34,1.44,6.86,4.88,13.06,6.06,20,.78,4.55.51,8.79-3.4,11.74s-8.42,2.78-12.78.8c-9.48-4.33-12-15.7-5.83-25.53,2.58-4.08,6.28-7.14,9.94-10.5-13.63-3.33-24.11.94-31.68,12.13-3.52,5.19-9,8.14-14.48,11.09a4.61,4.61,0,0,1,.67-2.45c5.67-11.08,11.92-21.87,16.36-33.54,1.43-3.73,2.75-7.5,2.7-11.56-.07-5.52-2.8-8.21-8.21-8.49-4.61-.23-8.86,1-13.07,2.67-7.47,2.89-14.38,7-22.27,11.5l-1.1.63c.2-.37.38-.73.57-1.09,2.41-4.65,4.37-8.42,6.59-12.68-5.89,0-11.1.57-16.12-.14-7.1-1-10.84,1.77-13.44,8.2-8.27,20.45-24.86,33-43.59,45l-1,.63c.12-.38.25-.74.37-1.12,6.24-19.13,16.58-35.16,25.71-52.57-8.22,0-15.81,0-23.39,0-1.05,0-2.09.09-2.51,1.17-1,2.56-2.38,1.21-3.87.53a25,25,0,0,0-15.55-1.89c-10.78,2.09-19.79,7.46-27.93,14.57-11.89,10.39-22.86,21.87-35.94,30.87-1.48,1-2.68,2.74-5.21,2.78h-.16l.06-.12c3.93-8.35,7.73-16.3,11.41-24.31A46.71,46.71,0,0,0,423,373.29c.57-6.19-2.49-9.29-8.68-9.43-6.91-.16-13,2.59-18.91,5.54-6.4,3.19-12.57,6.82-19.26,10.5l-.16.09a1.33,1.33,0,0,1,.05-.19c.37-1.41.7-2.46.89-3.52,1.66-9.48-1.67-13.14-11.25-12.34a24.9,24.9,0,0,0-3.89.81c-8.3,2.11-15.63,6.39-23.09,10.39-1.37.73-2.45,2.39-4.78,1.45l6-11.71c-7.23,0-13.88.21-20.51-.09-3.49-.16-5.24,1.07-6.85,4.12-11.6,22-23.42,43.93-35.12,65.9-.67,1.24-2,2.35-1.37,4.31,6.75,0,13.58-.15,20.39.07,2.91.1,4.4-.89,5.73-3.46,5.5-10.61,11.87-20.81,16.72-31.7,4.73-10.64,13.78-15.72,23-21,1.63-.94,3.69-2.23,5.46-.3,1.6,1.73.15,3.6-.6,5.08-4.64,9.19-9.45,18.28-14.21,27.4L320,439.12c8.51,0,16.17-.14,23.83.08,2.56.08,3.39-1.2,4.38-3.08,5.24-10,11.23-19.64,15.71-30,4.37-10.07,11.5-16.78,20.83-21.68,2.51-1.32,5.49-4.25,8-1.76,2.31,2.27-.45,5.26-1.64,7.68-5.54,11.32-12.17,22.11-16.8,33.86-1.93,4.88-4.49,10.49.38,14.87,4.67,4.22,10.14,1.77,15-.41,7.82-3.51,14.31-9,20.73-14.58,3.71-3.23,7.45-6.45,12-10.38l.9-.78c-.05.42-.11.84-.17,1.26-.93,6.8-1.86,12.47-.28,18.21,1.92,7,5.84,10.45,13,10.79s13.38-2.11,19.15-5.94c3.8-2.53,7.4-5.35,11.39-8.26.21,1.11.35,1.73.43,2.35,1.24,9.84,7.51,13.52,16.62,9.48a77.67,77.67,0,0,0,9.53-5.36c7.6-4.78,14.42-10.66,22-15.74l-10.22,19.35c7.73,0,14.56-.18,21.38.09,3,.12,4.4-1.09,5.69-3.56,5.35-10.32,11.52-20.25,16.17-30.87,4.73-10.79,13.68-16.27,23.1-21.59,1.68-.95,3.88-2.31,5.55-.74s.46,3.71-.46,5.5c-3.49,6.79-7,13.56-10.48,20.36-3.61,7.09-7.57,14.06-9.34,21.91-1.58,7,1.74,10.91,8.9,10.89,9.26,0,16.2-5.29,23.19-10.39,3.53-2.58,6.68-5.7,10.69-7.77,4,12,11.15,18.8,22.2,20.95a54.41,54.41,0,0,0,29.44-2.58C667,435.44,673.25,423.4,669,406.68c-1.93-7.66-5.66-14.5-9.83-21.12-1.87-3-3.65-6-3.19-9.75a7.48,7.48,0,0,1,8.17-6.37c4.72.63,4,4.31,3.67,7.32-.31,2.69-1.42,5.28-2.23,8.14,6.54-.08,12.22-1.64,16.37-6.9v-7C674.1,361.07,663.33,359.33,652.25,366.2ZM483.73,388.88c-4.06,6.83-7.12,14.24-12.14,20.53a47.51,47.51,0,0,1-13.65,11.48,7.31,7.31,0,0,1-4.22,1.26c-4.42,0-6.58-3.3-5.15-8.55A61.42,61.42,0,0,1,470.28,381a14.94,14.94,0,0,1,4.32-2.41c3.19-1.09,6.58-1.93,9.21,1.08S485.59,385.74,483.73,388.88Z" transform="translate(68 -265)"/><path class="b" d="M-21.81,390l.36-.06c0,.12-.08.22-.13.34-1,2.61-1.92,4.81-2.77,7-4.07,10.56-8.08,21.14-7.64,32.75.38,10.22,5.63,15.1,15.81,15.08,5.12,0,9.84-1.55,14.43-3.46a128.2,128.2,0,0,0,29-17c.24,1.51.4,2.43.52,3.36Q30,445.86,47.93,445.41c7.1-.18,13.76-2.27,20.21-4.94,30.44-12.6,53-34.46,70.92-61.46,14.47-21.84,24.25-45.39,23.34-72.28-.64-19.07-6.55-34.81-26.4-41.73H124c-6,2.48-12.29,4.44-16.92,9.83,12.45.57,18.76,5.2,22.86,16.71a47,47,0,0,1,2.93,16.61c-.53,32.67-12.19,61.24-32.19,86.64-7.57,9.62-16.32,18-27.51,23.4-3.19,1.53-6.67,2.76-9.86.11s-3.71-6.56-2.89-10.49a48,48,0,0,1,4.72-12.54q18.7-35.43,37.32-70.92c.87-1.67,2.18-3.23,2.2-5.47-7.89,0-15.55.19-23.2-.1-3.21-.12-4.63,1.17-6,3.78C63.06,345.86,50.74,369.19,38,392.3,31.38,404.36,20.29,412,8.58,418.42c-4.91,2.71-8,0-7.46-5.71A48.53,48.53,0,0,1,5.51,398c11.3-25.34,23.77-50.07,38.37-73.69,1-1.59,2.31-3.11,2.22-5.41-8.41,0-16.57.1-24.72-.07-2.21,0-3.31.94-4.34,2.57C13,327.69,8.92,333.93,5,340.27c-4.94,7.92-10.28,15.51-17.09,22C-27.82,377.2-47.12,381.8-68,382v1C-54,393.25-38.23,392.61-21.81,390Z" transform="translate(68 -265)"/><path class="b" d="M302,364.88c-5.8,0-11.8.23-17.78-.08-4.36-.23-8,.16-9.17,6.05-7.11-7.43-15-8.07-23.63-6a48.52,48.52,0,0,0-16.91,8.21c-9.15,6.55-16.42,15-23.88,23.32a95.18,95.18,0,0,1-33.94,23.92c-4.31,1.83-8.74,3.12-13.53,2.77a9.07,9.07,0,0,1-6.61-3c-.72-.83-1.82-1.69-1.27-3,.47-1.14,1.7-.81,2.63-1a84.45,84.45,0,0,0,28.79-10.53c9.57-5.56,17.26-13,20.77-23.9,3.63-11.32-1-17.76-12.88-18.07-12.25-.32-23.18,3.82-33.26,10.3-15.26,9.81-27.2,22.39-31.75,40.58-3.74,14.95,2.18,25.55,15.66,28.21a31.35,31.35,0,0,0,12.9-.22c13-2.83,24-9.55,34.38-17.39,3.46-2.61,6.79-5.39,10.72-8.52-.62,9.85-1.49,19.46,7.6,24.6,10.73,6.07,19.89-.38,29.64-6.56-9.79,18.47-18.3,36.5-32,51.31-7.28,7.89-15.33,14.82-26.14,17.49-11.82,2.92-19.85-4.06-18.5-16,.24-2.06.42-4.13.64-6.31-9.49,5.26-14.07,15.94-11.65,26.78,2.17,9.66,10.81,16.34,21.9,17.22,13.36,1.06,24.85-3.59,35.2-11.45,15.5-11.78,27.22-27,36.51-43.81,18.85-34.14,37.09-68.61,55.58-103C302.31,366.29,302.7,365.7,302,364.88Zm-128.12,13.6c3.1-1.41,6.59-2.08,9,1.22s.56,6.14-1.61,8.5A40.65,40.65,0,0,1,156,401.32C158.24,390.25,164.18,382.85,173.83,378.48Zm91.42,9.71c-3.66,6.86-6.91,14-11.63,20.22a46.1,46.1,0,0,1-13.72,12.1,9.35,9.35,0,0,1-4.73,1.62c-4.39.05-6.9-2.5-6.65-6.68a20,20,0,0,1,1.27-5.28,63.08,63.08,0,0,1,20.33-28.87,14,14,0,0,1,8.57-3.51C265.2,377.65,268.32,382.44,265.25,388.19Z" transform="translate(68 -265)"/></svg>