<svg xmlns="http://www.w3.org/2000/svg" viewBox="0 0 675.32 186.91"><defs><style>.a{fill:#ec1c24;}</style></defs><title>tov</title><polygon points="45.9 147.41 23.72 84.76 0 84.76 35.33 184.54 56.19 184.54 92.13 84.76 68.41 84.76 45.9 147.41"/><rect x="108.69" y="84.76" width="22.79" height="99.77"/><path d="M262.58,317.58c10,0,19.16,4.33,27.25,12.88l1.67,1.77,16.07-15.33-1.51-1.74a57.09,57.09,0,0,0-43.2-19.92,54.6,54.6,0,0,0-27,7,50.62,50.62,0,0,0-19.3,18.64,52,52,0,0,0-6.74,26.45c0,15.23,5,27.91,14.81,37.7s22.6,14.72,38,14.72a56.75,56.75,0,0,0,22.29-4.15c6.5-2.76,13.43-7.72,20.62-14.75l1.71-1.68-15.61-16.28-1.75,1.74c-5,4.93-9.54,8.36-13.61,10.19a32.06,32.06,0,0,1-13.37,2.74,31.71,31.71,0,0,1-15.59-3.91,27.25,27.25,0,0,1-10.72-10.6,31.78,31.78,0,0,1-3.81-15.69,29.36,29.36,0,0,1,29.8-29.81Z" transform="translate(-58.36 -212.87)"/><polygon points="259.14 107.43 275.98 107.43 275.98 184.54 299.16 184.54 299.16 107.43 316.45 107.43 316.45 84.76 259.14 84.76 259.14 107.43"/><path d="M438.84,295.24a52.19,52.19,0,0,0-45,26,53.19,53.19,0,0,0,7.89,63c9.87,10.29,22.41,15.51,37.28,15.51a49.72,49.72,0,0,0,36.43-15.1c10-10,15-22.43,15-36.86s-5.12-27.12-15.21-37.27S452.87,295.24,438.84,295.24Zm28.63,52.44c0,8.5-2.73,15.44-8.35,21.22A26.88,26.88,0,0,1,439,377.45a28.4,28.4,0,0,1-18.64-6.63c-7-5.66-10.39-13.18-10.39-23,0-8.73,2.78-16,8.28-21.61a28.66,28.66,0,0,1,40.83.23A29.05,29.05,0,0,1,467.47,347.68Z" transform="translate(-58.36 -212.87)"/><path d="M569.3,344.67c3.27-4.6,4.93-10.34,4.93-17.06a31.23,31.23,0,0,0-4.42-16.71,25.61,25.61,0,0,0-11.87-10.27c-4.79-2-12.42-3-23.32-3H513.05v99.78H536v-36l19.11,36h25.26L557.23,354A28.39,28.39,0,0,0,569.3,344.67Zm-17.42-17.29c0,2.69-.71,4.5-2.21,5.53-1.18.84-4,1.83-10.47,1.83H536V320.1h2.53c5.6,0,8,.46,9.06.86a6.48,6.48,0,0,1,3.16,2.42A6.72,6.72,0,0,1,551.88,327.38Z" transform="translate(-58.36 -212.87)"/><rect x="538.08" y="84.76" width="22.78" height="99.77"/><path d="M695.33,297.63H673.67l-38.48,99.78h24l7.72-19.56h35.4l7.42,19.56h24Zm-1.61,57.75h-18.3l9.17-23.48Z" transform="translate(-58.36 -212.87)"/><path class="a" d="M354.92,243.74a30.75,30.75,0,0,1,30.85-30.87c16.77,0,30.54,13.81,30.86,30.87a31.53,31.53,0,0,1-30.86,30.85c-17.17-.24-30.91-14-30.85-30.85Zm30.85,19.47c9.28-.12,17-8.83,17.05-19.47-.09-10.85-7.77-19.57-17.05-19.5-9.65-.07-17.35,8.65-17,19.5-.3,10.64,7.4,19.35,17,19.47" transform="translate(-58.36 -212.87)"/><polyline class="a" points="393.18 13 393.18 60.1 380.2 60.1 380.2 13 361.52 13 361.52 2.44 411.06 2.44 411.06 13 393.18 13"/><path class="a" d="M484.84,260h0L480,273H464.56l24.35-57.66h16.23L528.7,273H513.27l-4.86-13Zm12.2-9.74h8.1L497,229.12l-8.13,21.11H497" transform="translate(-58.36 -212.87)"/><polyline class="a" points="154.45 13 154.45 60.1 141.45 60.1 141.45 13 123.58 13 123.58 2.44 172.31 2.44 172.31 13 154.45 13"/><path class="a" d="M233.92,243.74a30.86,30.86,0,1,1,61.71,0,30.86,30.86,0,0,1-61.71,0Zm30.85,19.47c9.38-.12,17.05-8.83,17.06-19.47,0-10.85-7.68-19.57-17.06-19.5-9.58-.07-17.27,8.65-17,19.5-.22,10.64,7.47,19.35,17,19.47" transform="translate(-58.36 -212.87)"/><polyline class="a" points="266.5 60.1 273 60.1 273 38.17 295.74 2.44 281.13 2.44 266.5 26.79 252.7 2.44 237.26 2.44 260.01 38.17 260.01 60.1 266.5 60.1"/><path d="M571.3,246.94c7.87,0,14.16,5.25,14.16,13.39s-6.29,13.37-14.16,13.37-14.18-5.24-14.18-13.37S563.42,246.94,571.3,246.94Zm0,19.84c3.93,0,6.29-2.63,6.29-6.45s-2.36-6.46-6.29-6.46-6.3,2.62-6.3,6.46S567.36,266.78,571.3,266.78Z" transform="translate(-58.36 -212.87)"/><path d="M595.42,253.87h-5.2v-6.3h5.2v-4.51c0-5.57,1.42-10.28,10-10.28a18.94,18.94,0,0,1,4.61.47l-.36,6.66a7.16,7.16,0,0,0-2.57-.53c-2.52,0-3.78.79-3.78,4.15v4h5.82v6.3h-5.82v19.21h-7.87Z" transform="translate(-58.36 -212.87)"/></svg>