<svg xmlns="http://www.w3.org/2000/svg" viewBox="0 0 221.48 157.07"><defs><style>.a{fill:#fff;}</style></defs><title>epe_w</title><path class="a" d="M438.71,336.17a31.39,31.39,0,0,0-4-.08q-68.73,0-137.47,0c-1.87,0-3.81.61-5.42-1.46-2.61-3.37-6.53-3.67-10.45-3.32-8.79.8-15,5.05-17.79,13.67q-.09,3.07-.19,6.16h0c.2,1,.06,2.3.65,2.83,5.07,4.52,1.21,6.58-2.18,9.1a17.47,17.47,0,0,0-6.16,9.35c-.38,1.32-.53,2.6-2.37,2.53-6.46-.26-12,2.72-17.77,5a6.94,6.94,0,0,1-1.08,1.4c-10.86,8.73-14.81,20.22-12.88,33.69,3.41,23.81,28.51,33.77,48,25.08,1.74-.78,2.9-1.79,2.29-3.78-.68-2.2-2.35-2.6-4.38-1.91-1.42.48-2.79,1.07-4.22,1.51-17,5.11-33.74-5.43-36.35-22.81-2.28-15.17,9-30.81,23.06-32.24,3.26-.33,4.86.12,5.81,3.92,2.72,10.81,12.48,16.78,23.61,15.21,5.95-.84,11-3.67,15.63-7.3,2.7-2.12,5.18-4.54,7.82-6.88.85,1.57-.18,2.54-.37,3.64-.56,3.2-3,7-.26,9.42,3,2.62,6.17-.72,8.93-2.28,1.92-1.09,3-1.25,4.46.65,2.06,2.64,5,2.94,8.16,2.08a40.92,40.92,0,0,0,9.47-4.37c2.55-1.46,4.29-1.76,5.9,1.46,1.48,3,4.71,3.52,7.81,3.38a18,18,0,0,0,10.56-4c3.63-.24,1.29,2.7,2.11,3.95,3.13,2.31,5.28-.11,7.52-1.64,4.9-3.37,8.26-8.39,13.24-13.4-1,4.23-2,7.19-2.28,10.23-.58,5.21,2.18,7.26,6.94,5.17a87,87,0,0,0,8.16-4.66c1,4.83,2.64,5.74,7.1,3.73a17.8,17.8,0,0,0,4.2-2.64c1.2-1,1.79-1.17,3.21,0,7.13,5.73,18.55,3,22.79-5.35.67-1.33,1.54-2.89-.13-4-1.42-.95-2.82-.34-4,.79a29.53,29.53,0,0,1-7.8,5.34c-2,.89-4.18,1.85-6.11.18s-1.57-4.07-.77-6.06c2.76-6.82,6.82-12.22,15.1-12.41,1.84,0,3.46-.84,3.61-2.74s-1.63-2.81-3.31-3.08a11.39,11.39,0,0,0-3.94.19c-8.77,1.81-13.85,7.63-16.28,15.82-1,3.41-3.16,4.81-6.76,6.63,1.63-5.68,3-10.27,4.25-14.9.49-1.8,1.92-4.13-.92-5.09-3.31-1.1-3.95,1.59-4.33,3.93a21.8,21.8,0,0,1-9.18,14.87c-1.76,1.24-3.81,4.24-5.76,2.29s.64-4.61,1.57-6.82c.72-1.7,2.64-1,4-1.26,2.43-.51,3.83-1.87,4-4.41.11-2.26-.08-4.46-2.37-5.6-2-1-3.86-.28-5.48,1.17-.67.6-.86,1.84-2.16,1.73-.74-1.17.33-2.21.26-3.32a3.17,3.17,0,0,0-3.16-3.24,2.73,2.73,0,0,0-3,2.73c-.28,8.36-6.62,12.54-11.75,17.63,2.12-9.6,4.78-19,6.94-28.46.77-3.39,1.93-4.5,5.5-4.45,17.16.22,34.33.1,51.49.1h3.5c1.76,0,2.94-.7,2.84-2.62a2.32,2.32,0,0,0-2.63-2.36c-1.16,0-2.33,0-3.49,0-16.83,0-33.66,0-50.49,0-2.55,0-4.78.2-3.33-3.55a2.5,2.5,0,0,0-2.15-3.68c-1.94-.32-3.52.5-3.6,2.48-.19,4.7-3.05,4.87-6.72,4.79-8.83-.19-17.66-.11-26.49,0-2,0-5-.92-4.85,2.52.14,3.23,3.07,2.29,5.08,2.43,1.66.11,3.33,0,5,0h25.78c-1.14,5.19-2,9.93-3.23,14.58-2.1,8-6.28,14.66-13.6,19-2.33,1.37-5,2.68-7.38.47s-2-5.22-.64-7.87c2.79-5.57,7.2-8.95,13.59-9.62,1.95-.2,4.43-.71,4.24-3.29-.21-2.83-2.76-3-5-2.88-7.79.33-13.46,4.34-16.21,11.34-3,7.58-10.12,8.95-16,12.3-.95.54-2.83,1-3.47-.7-.56-1.44,1-1.86,1.93-2.45,4.09-2.56,8.4-4.81,12.22-7.72,3.35-2.55,5.53-6.5,3.37-10.53-2.27-4.24-6.58-2.74-10.3-1.78a12.77,12.77,0,0,0-2.3.94c-6.53,3.18-9.83,8.72-11.28,15.57-.55,2.63-2.32,4.77-4.68,4.11s-1.11-3.41-.57-5.19c2.89-9.36,6-18.66,8.78-28.05.9-3,3.85-7.52-1.34-8.74-4.5-1-4.53,3.82-5.06,7a53.9,53.9,0,0,1-16.78,31c-5.64,5.27-12.24,8.62-20.33,7.75-7.18-.78-12.35-5.49-12.88-11.84A45.25,45.25,0,0,1,273,387.05c1.94,1.08,4.29,2.14,5.68-.24s-.5-4.06-2.41-5.3A38,38,0,0,0,264,376.1c-2.57-.57-2.78-1.45-1.79-3.74,3.05-7,8-10.43,15.78-10.44,2,0,4,0,6,0s2.57-1.39,2.53-3-.73-2.86-2.72-2.79-4,0-6,0c-3.66.07-6.58-1.32-8.13-4.69-1.66-3.61-.37-6.8,2.17-9.56a14.8,14.8,0,0,1,9-4.89c2.23-.3,4.71-.23,5.77,1.95,1.48,3,3.93,2.56,6.37,2.56q71,0,142,0c1.16,0,2.33,0,3.5,0A2.32,2.32,0,0,0,441,339,2.51,2.51,0,0,0,438.71,336.17ZM329,375c1-.46,2.39-1.1,3.2,0s-.34,2.21-1.22,2.8c-2.81,1.89-5.73,3.63-8.6,5.43l-.92-1A15.6,15.6,0,0,1,329,375Z" transform="translate(-219.52 -327.75)"/><path class="a" d="M354.94,412.66a6.21,6.21,0,0,0-.13-.73c-2.14-7.11-5-8.63-11.79-6.31-1.46.5-2.74,2-4.13-.79-.94-1.93-3.3-1.19-4.14,1s-1.2,4.5-2.05,6.66a12.27,12.27,0,0,1-8,7.8c1.06-3.88,2.1-7,2.69-10.16.45-2.38.07-5.59-3-5-3.84.73-7.06,3.23-11.15-.25-1.54-1.3-4.15,2.1-6.59,2.88-.81-1.24,0-3.67-2.47-3.6-2.18.07-3.16,1.52-3.57,3.51a17.61,17.61,0,0,1-.81,2.86,5.45,5.45,0,0,1-5,3.56c-3,.31-2.41-2.19-3-3.65-2.2-5.54-6.4-7.28-12.06-4.87-7.68,3.27-12.74,12.71-11.21,20.91,1.39,7.51,9,10.65,15.27,6.26a17.5,17.5,0,0,0,6.46-8.09c1.19-3.12,3.17-4.33,6.47-4.2,0,3.18-1.09,6.12-1.83,9.14-.43,1.77-1.14,3.75,1.57,4.39,2.36.55,3.32-.89,3.81-2.87.92-3.71,2-7.4,2.71-11.14s2.85-5.53,6.72-6.51c-1.51,5.87-3,11.3-4.26,16.77-.37,1.57-.51,3.5,1.8,4s3.52-.54,4-2.66c.92-3.71,2.05-7.39,2.69-11.15s2.63-6.17,7-7.41c-1.54,5.89-3,11.3-4.35,16.75-.34,1.38-.83,3.08.75,4.1,1.76,1.15,3.16.07,4.43-1.09,2.06-1.88,4.09-3.79,6.81-6.31-.65,6.49-2.86,11.56-4,16.87-.75,3.65-2.63,4.86-6.23,4.83-14.49-.13-29-.05-43.47-.05h-9.5c-2.06,0-4.46,0-4.46,2.71,0,2.51,2.36,2.26,4.18,2.29.67,0,1.34,0,2,0,18.49,0,37-.17,55.47.12,4.43.07,6-1.49,6.94-5.51,2.31-9.87,5.09-19.62,7.55-29.46,1-4.09,4.12-5.82,7.56-7.19a2.49,2.49,0,0,1,3.36,1.39c1.42,3.56.45,6.84-1.5,9.94-1.77,2.79-4.67,4.2-7.24,6-1.83,1.27-3.17,2.91-1.58,5,1.4,1.82,3.32,1.57,5.32.3,4.15-2.61,7.12-6.42,10.49-9.82q1-2.47,2-4.95C353.87,417,355.13,414.73,354.94,412.66Zm-69.45,10.67a30.63,30.63,0,0,1-3.27,3.74c-1.71,1.66-3.65,3.18-6.17,1.82-2.36-1.26-2.63-3.65-2.61-7,0-1.65.95-3.94,2.44-6,1.85-2.5,4.06-5.48,7.37-4.67C286,411.9,287.28,420.9,285.49,423.33Z" transform="translate(-219.52 -327.75)"/><path class="a" d="M424.94,404.07c-2.22-.51-3.36.9-3.84,2.94-.84,3.56-1.92,7.08-2.48,10.68-.72,4.63-3.93,6.16-8.11,7.83,1.47-6,2.83-11.32,4-16.65.39-1.75.72-4-1.66-4.57s-3.11,1.29-3.52,3.25c-.24,1.13-.71,2.23-.88,3.37-.73,5-4.08,8.07-8.77,11.55,1.06-4,2.13-6.9,2.58-9.92.41-2.8,2.31-6.36-.61-8.35-2.63-1.79-5.25.85-7.74,2.1-.81.4-1.2,2.06-2.73.66-3.75-3.4-5-3.16-5.76,2a18.54,18.54,0,0,1-10.48,14.58c0-4,3-7.51,1.64-11.63-3.61-1.08-4.27,1.45-4.8,4-.81,4-2,7.7-5.13,10.57-1.69,1.57-3.61,2.77-5.8,1.42-2.47-1.51-1.52-3.85-.52-5.74,3-5.57,5.82-11.37,13.28-12,1.85-.36,4.34-.05,3.88-3.13-.43-2.9-2.64-3-4.89-2.68-7.7,1.18-12.28,6.47-16.25,12.52l-.79,2h0q-1,2.47-2,4.95c.43,10.28,2.58,11.84,12.13,8.7.74-.24,1.35-1,2,.06,1.94,3,3.62.9,5.28-.34s3.08-2.53,4.68-3.74a2.41,2.41,0,0,1,1.69-.63c1.17.29.66,1.21.48,2-.44,2-1,4.17,2.08,4.48,2.58.26,3.35-1.45,3.8-3.64.8-3.91,1.91-7.75,2.63-11.67a5.43,5.43,0,0,1,3.1-4.19c.86-.45,1.71-1.42,2.7-.88,1.35.75.57,2.1.37,3.14-.81,4.24-1.74,8.46-2.62,12.69-.28,1.32-.59,2.79.6,3.73,1.42,1.11,2.83.27,4.13-.53,2.34-1.45,3.84-4.09,6.71-5,.41,7.64.89,7.85,7.65,3.91,1.21-.7,2.23-2,4.27-1.68-1.1,4.4-2.48,8.65-3.18,13-.64,4-2.56,5-6.4,4.94-22.15-.17-44.3-.1-66.45-.06-2,0-4.92-.89-5,2.41s2.84,2.54,4.85,2.55c20.15,0,40.3.07,60.45,0,5,0,10.83,1.84,14.67-.75,4.16-2.8,3.52-9.33,4.92-14.21,2.82-9.9,5.75-19.79,7.52-30C427,406.42,427.1,404.56,424.94,404.07Z" transform="translate(-219.52 -327.75)"/><path class="a" d="M238.27,364.13c-.49-2.92-1.22-5.79-.41-8.85,2,3.38,2,7.27,2.78,10.94.27,1.22.19,3.07,2.09,2.67,1.56-.32.84-1.94.69-3-.5-3.44-1.07-6.88-1.77-10.29-.6-2.9.36-4.7,3.61-5.75.23,3,.29,5.78.7,8.47.31,2.08,2.33,4,3.69,2.19,3.25-4.32,9.09-5,12-9.5,1-2,.94-4.11,1-6.23-1.21-.41-1.21-.41-3.42,3,.55,2-.31,3.06-2.35,3.8.12-1.71.38-3.06,2-3.69h0a37.42,37.42,0,0,0,.61-4.91c0-2.07-.6-4.15-2.78-4.84s-3.75,1-4.81,2.7a10.81,10.81,0,0,0-.92,9.6c1,2.63.65,4.34-2.18,5.42-.23-2.72,0-5.33-.74-7.64-2.1-6.55-1.59-9,3.62-12.83,2-1.5,4-3,6-4.44.83-.61,1.77-1.48,1.16-2.44-.77-1.22-2-.76-3.06,0q-3.44,2.47-6.84,5c-1.47,1.1-2.39,2-4.46.11-3.72-3.44-9.23-1.08-8.47,3.86.9,5.83-2.74,7.45-6,9.94-2.66,2-5.34,4-8,5.94-1.71,1.27-3,2.84-2.24,5.07.9,2.55,3,2,5,1.61-1.51-6.12,4.21-6.88,7.44-10.33,2.63,7.23-3.73,8.16-6.69,11.17-3,4.22-5.14,8.64-2.28,13.77,2.73,4.89,7.15,6,12.34,5.24C239.86,375.21,239.2,369.67,238.27,364.13Zm17.91-22.44c.57,2.85-.44,4.12-1.72,5.91C253,344.85,254.23,343.58,256.18,341.69ZM241.66,348c-1.26.5-1.14-.66-1.39-1.33-1.32-3.57,1.9-3.74,3.72-5.7C244.64,344.32,244.74,346.76,241.66,348ZM239,338.26c.3-1.11.69-2.35,2.15-2.09.67.11,1.78,1,1.71,1.33-.28,1.38-1.63,1.85-2.72,2.47A1.22,1.22,0,0,1,239,338.26Zm-2.77,8.13c1.92,1.87,1.36,3.4,1.29,5.35C235.35,350.16,235.53,348.7,236.21,346.39Zm-4.56,30.37c-3.39.21-5.13-2.63-6.05-5.63a6.3,6.3,0,0,1,.55-5.28c1.76-2.87,4.17-6.35,7.08-6.36,2.32,0,1,4.55,1.9,6.93a13.13,13.13,0,0,1,.5,3.44C235.51,373.27,235.24,376.53,231.65,376.76Z" transform="translate(-219.52 -327.75)"/><path class="a" d="M263.74,481.3c-1.71-.45-4.76,1.33-4.92-1.51-.2-3.54,3.18-1.35,4.87-2a1.33,1.33,0,0,1,.49,0c1.2,0,1.91-.57,1.8-1.81s-1.18-.83-1.9-1.09c-1.78-.66-5.28,1.64-5.19-1.56.09-2.89,3.54-.74,5.38-1.36a4.14,4.14,0,0,1,1-.06c1.09-.06,1.32-.76,1.28-1.69a1.15,1.15,0,0,0-1.2-1.25c-3.16,0-6.59-.66-9.39.37-2.26.84-.58,4.2-1,6.39a5.56,5.56,0,0,0,0,1c.22,8.66-1.79,7.71,8,7.8a4.17,4.17,0,0,0,.5,0c1.2-.17,3,.51,3.11-1.49S264.92,481.6,263.74,481.3Z" transform="translate(-219.52 -327.75)"/><path class="a" d="M344.17,481.36c-.82,0-1.66.05-2.48,0-1.34-.16-3.32.61-3.41-1.73s2-1.52,3.26-1.82,3.88,1.06,3.87-1.57c0-2.26-2.3-.91-3.54-1.3s-3.45.92-3.53-1.42,2.17-1.15,3.4-1.55c1.47-.47,4.31,1.3,4.17-1.71-.11-2.39-2.66-1-4.09-1.3a12.31,12.31,0,0,0-2.24,0c-4.41-1.33-5.66,1.14-5.08,5.77a39.34,39.34,0,0,1,0,6.95c-.12,2.13.65,3,2.82,2.91,2.32-.12,4.65,0,7-.06,1,0,2.07-.25,2-1.61S345.19,481.41,344.17,481.36Z" transform="translate(-219.52 -327.75)"/><path class="a" d="M287.78,469c-6.66-1.06-7.39-.52-7.39,6.08v1.49h0c0,2,0,4,0,6,0,1.12.4,1.94,1.74,1.86a1.32,1.32,0,0,0,1.38-1.64c-.77-3.94,1.82-4,4.55-4.29s4.07-2.17,4-4.84S290.55,469.44,287.78,469Zm-1.52,6.83c-1.73.17-2.75,0-2.7-1.67,0-1.28.09-2.31,1.79-2.24,1.37.05,2.89,0,3.09,1.69S287.19,475.7,286.26,475.83Z" transform="translate(-219.52 -327.75)"/><path class="a" d="M359.57,480.93a1.73,1.73,0,0,1-2.76.69c-.46-.3-1.08-1-.43-1.48.94-.72,2.1-.47,3.19-.13l4.05-.38c0-.85,0-1.7-.05-2.55-1.85-2-3.14-4.78-6.66-4.15a4.74,4.74,0,0,0-4.14,3.76c-.57,2.66-.62,5.49,2.12,7.09,3,1.76,5.72,1,7.8-1.84C362,480.42,360.71,481,359.57,480.93Zm-1.36-4.71c.4.19.67.68,1.32,1.36-1.61.31-3.15.91-3.43-.51S357.23,475.76,358.21,476.22Z" transform="translate(-219.52 -327.75)"/><path class="a" d="M302.77,479.31a4.37,4.37,0,0,0,0-1.49c-.16-4.41-3.56-6.46-7.4-4.43-.85.45-2,1-1.7,2.16.4,1.58,1.66,1.26,2.82.84.56-1.14,1.47-1.1,2.43-.66.22.1.5.59.42.74-.59,1.19-1.72,1.25-2.86,1.21-1.95.43-3.45,1.35-3.49,3.58,0,1.44.59,2.82,2.11,3,2.39.24,5,.73,7.17,0C304.25,483.48,302.21,481,302.77,479.31ZM297.85,482c-.62,0-1.34-.08-1.32-1,0-1.1.92-1.19,1.67-1.37s1.26,0,1.26.89A1.54,1.54,0,0,1,297.85,482Z" transform="translate(-219.52 -327.75)"/><path class="a" d="M321,472.86c-3.8.4-5.65,2.41-5.57,6.24s2.45,5.56,5.72,5.49c3.6-.08,5.78-2.34,5.6-6.2C326.54,474.78,324.39,473.13,321,472.86Zm0,8.94c-1.73-.1-2.4-1.45-2.37-3.13s.79-2.78,2.58-3a2.7,2.7,0,0,1,2.37,3.16C323.43,480.48,322.75,481.9,320.94,481.8Z" transform="translate(-219.52 -327.75)"/><path class="a" d="M313.56,475.9l-.19.38C313.55,476.21,313.63,476.1,313.56,475.9Z" transform="translate(-219.52 -327.75)"/><path class="a" d="M312.59,477.88l-5.32-1.35c2.29-2.93,4.46,1.05,6.29-.63-1-3.87-4.09-3.34-6.69-2.7-3.77.92-2.15,4.15-2.23,6.59,2.24-.92,4,.16,6.4,1.27-2.77,2.23-4.5-1-6.54-.45-1.08,2.6,1.06,3.08,2.61,3.66a5.46,5.46,0,0,0,6.35-1.35C315.21,481,314.34,479.31,312.59,477.88Z" transform="translate(-219.52 -327.75)"/><path class="a" d="M401.81,480.3c-1.11,1-2.07,2.5-3.58.68a3.59,3.59,0,0,1-.28-4.2c1.06-1.78,2.43-1,3.8-.08.8.51,2.06.6,2.43-.53.17-.54-.49-1.52-1-2.09a4.55,4.55,0,0,0-3.7-1.21c-2.54.18-4.57,1.23-5,3.94s-.69,5.73,2.66,7.27a5.37,5.37,0,0,0,6.38-1.09c.7-.66,1.45-1.58.5-2.55A1.63,1.63,0,0,0,401.81,480.3Z" transform="translate(-219.52 -327.75)"/><path class="a" d="M371.27,480.44c-1.15,1.23-2.24,2.26-3.5.39a3.79,3.79,0,0,1-.07-4.24c1-1.54,2.19-.76,3.38,0,.85.56,2,.7,2.54-.35s-.76-1.76-1.38-2.32c-2.67-2.37-5.9-1.14-8.67,3.15,0,.85,0,1.7.05,2.55.23.78.46,1.55.68,2.33h0c2.49,3,5.36,3.68,8.61,1.28.76-.56,1.55-1.55.92-2.53A1.58,1.58,0,0,0,371.27,480.44Z" transform="translate(-219.52 -327.75)"/><path class="a" d="M351.49,477.29v-6.36c0-1.06-.2-2-1.54-2-1.51-.09-2.07.69-2.06,2.08a33.5,33.5,0,0,0,.06,5.93c.46,2.53-1.74,7.19,1.53,7.19C353.62,484.09,350.4,479.29,351.49,477.29Z" transform="translate(-219.52 -327.75)"/><path class="a" d="M380.61,482.77c-2.3-2.36-3.16-4.74-.4-7.45.42-.4.13-1.52.17-2.31h0c-2-3-4.47-4.29-5.31.31-.58,3.23.37,6.9,1.33,10.18.4,1.38,2.59,2,4.13.3,0-.34.06-.69.08-1Z" transform="translate(-219.52 -327.75)"/><path class="a" d="M384.33,473.22a8.46,8.46,0,0,0-2.43-.13c-.95,3.15,1.11,6.71-1.29,9.68,0,.34-.05.69-.08,1,3.65,1.49,5.23.38,4.72-3.63-.16-1.27-.28-2.74.79-3.72s3.46-.42,2.65-2.59S385.79,473.75,384.33,473.22Z" transform="translate(-219.52 -327.75)"/><path class="a" d="M271.74,477c0-1.83,0-3.66,0-5.49,0-1.08.33-2.45-1.48-2.57s-1.68,1.17-1.68,2.34c0,3.49,0,7,0,10.48,0,1.09-.33,2.56,1.44,2.6,2.1.06,1.67-1.63,1.72-2.87C271.79,480,271.74,478.51,271.74,477Z" transform="translate(-219.52 -327.75)"/><path class="a" d="M391,473.24c-3.43.09-1.3,3.72-1.41,5.65s-1.52,5.34,1.32,5.43c3.53.11,1.1-3.64,2.33-5.75C391.63,477.09,394.78,473.13,391,473.24Z" transform="translate(-219.52 -327.75)"/><path class="a" d="M249.66,453.73c1.59-2.73,3.26.22,4.88.06h0c-1.44-2,.45-3.93,0-5.89l-.07-1.62c-2-.13-4.32-1.63-5.34,1.53l.43,5.87Z" transform="translate(-219.52 -327.75)"/><path class="a" d="M402.12,364.94a2.31,2.31,0,0,0,1.92,2.94c1.56.33,2.51-.45,2.94-2.23a2.35,2.35,0,0,0-2-2.67A2.25,2.25,0,0,0,402.12,364.94Z" transform="translate(-219.52 -327.75)"/><path class="a" d="M391.49,471.87c1.09-.08,1.21-.83,1.18-1.69-.07-1.06-.77-1.25-1.66-1.23a1.28,1.28,0,0,0-1.42,1.47C389.58,471.77,390.42,472,391.49,471.87Z" transform="translate(-219.52 -327.75)"/><polygon class="a" points="30.07 127.24 30.07 127.24 30.07 127.24 30.07 127.24"/><path class="a" d="M256.11,454.93l-1.64-.18c-1.53,1.34-3.17.38-4.77.26,2.15,4.18,4.28,2,6.41-.08Z" transform="translate(-219.52 -327.75)"/><path class="a" d="M248.58,448.36c-2.79,2.32-2.82,3.44-.13,5.21h0C246.93,451.79,248.06,450.09,248.58,448.36Z" transform="translate(-219.52 -327.75)"/><path class="a" d="M261.67,351.05l1.72.06q.11-3.09.19-6.16a3.31,3.31,0,0,1-.93-.13C262.61,346.94,262.68,349.08,261.67,351.05Z" transform="translate(-219.52 -327.75)"/><path class="a" d="M357.54,395.85c1.72.77.29,3.23,2.11,3.95C358.83,398.55,361.17,395.61,357.54,395.85Z" transform="translate(-219.52 -327.75)"/><path class="a" d="M257.35,448.69c-.65-1.17-1.26-2.38-2.87-2.41l.07,1.62Z" transform="translate(-219.52 -327.75)"/></svg>