<svg xmlns="http://www.w3.org/2000/svg" viewBox="0 0 1180.5 481.43"><defs><style>.a{fill:#010101;}.b{fill:#020202;}.c{fill:#e4b96e;}.d{fill:#e3b96e;}</style></defs><title>ub_el_paso</title><path d="M-273.52,284.33q260.79.07,521.59,0a58.3,58.3,0,0,1,13.73,1.27,96.85,96.85,0,0,0,17.81,2.24c26.82,1.29,52.34-4.57,77-14.49,46.1-18.57,92.11-37.34,138.89-54.13,19.21-6.89,38.61-12.92,59.41-11.61,18.49,1.17,36.28,4.25,49.42,19.24a2.42,2.42,0,0,0,3.37.54,2.47,2.47,0,0,0,1-3.28,14.62,14.62,0,0,0-2.19-3.45,43.14,43.14,0,0,0-11-9c-25.08-15.1-52-18.28-80.43-12.65-35.37,7-69.17,18.83-102.23,33-26.9,11.5-53.36,24.09-81.24,33.16-22.12,7.2-44.48,13.13-68.08,12.49a62.58,62.58,0,0,1-39.69-15.29c-.38-.32-1.23-.54-.63-1.49,1.28-.16,2.63-.39,4-.5a287.21,287.21,0,0,0,65.12-13.24c35.25-11.62,70-24.7,104.79-37.59,30.84-11.43,61.4-23.66,93.67-30.72,30.41-6.65,61-10.36,92.15-6.32,13.81,1.79,26.76,6.12,37.63,15.22,12.15,10.16,20.37,22.73,21.34,38.89,1.1,18.3-7.2,32.25-21.7,42.73-28.82,20.83-72.65,16.82-99.66-8.94-1.44-1.37-2.89-3.93-5.18-1.7-2.52,2.46,0,4.19,1.55,5.89.17.18.35.36.54.53,19.68,17.75,42.86,24.61,69,22.44,7.83-.65,15.24-3.34,23.26-3.32q138.93.27,277.85.07c2.22,0,5.81,1.33,5.83-2.59s-3.52-2.7-5.79-2.7q-133.5-.07-267,0H616c2.49-1.57,4.07-2.53,5.62-3.55,29-19,34.81-54.45,13.51-81.72-11.37-14.55-26.58-23-44.06-28-31.42-9-63.17-8.26-95-3.37-32,4.92-63,14.08-93.43,25-36.93,13.23-73.13,28.36-109.74,42.4-24.57,9.43-49.27,18.34-75.4,22.58-2.11.34-3.37.14-4.63-1.78-10.08-15.32-12.45-31.57-4.68-48.33,9.37-20.24,26.08-31.38,47.74-35,19.3-3.19,35.86,1.92,48.13,18,1.24,1.62,2.48,3.72,4.73,2.07,2-1.47.58-3.39-.4-5a42.59,42.59,0,0,0-26-19.47c-24.79-6.51-46.63.14-65,17.18-15.61,14.47-21.76,32.79-17.68,54,1.32,6.87,4.37,13.12,8.16,19.11-10.46,1.59-22.75.51-32-2.73C143.28,239,133.33,202.14,156,177c7.64-8.49,17.34-13.72,28.06-17.21,1.91-.63,3.19-1.64,2.57-3.8-.69-2.4-2.51-1.47-4-1.06a63.07,63.07,0,0,0-21.22,9.92c-17,12.57-25.8,29.15-22.58,50.49,3,20.1,15.87,32.83,34.07,40.32,12.2,5,25.21,5.78,38.28,5.49,1.61,0,3.06-.06,4.4,1.35,6.52,6.89,14.39,11.89,22.94,16.53h-4q-254,0-508.09,0c-2.32,0-5.84-1-5.84,2.7S-275.78,284.33-273.52,284.33Z" transform="translate(281.39 -154.38)"/><path d="M419.14,435.71a8.24,8.24,0,0,0-1.11.16,4.33,4.33,0,0,0-3.37,4C414,445,415.72,447,421,447c16.59-.09,33.18-1.58,49.76.1,9.48,1,18.94,1.35,28.31-.89,9.09-2.17,17.56-5.53,24.29-12.41,11.39-11.65,7.32-37.81-5.11-46.9-4.46-3.26-9.42-5.46-15.21-8.18,7.58-2.41,13.45-5.86,15.71-12.8,3.9-12,2.42-27.83-13.24-35.92a49.31,49.31,0,0,0-9.36-3.71c-14.44-4.06-29.17-3.44-43.9-2.63-10.31.57-20.62,2.11-30.86-.94-3.1-.93-6.21,2-6.21,5.29,0,5.21,2.23,7,8,6.37,5.17-.53,6.67.64,7.37,5.83a31.76,31.76,0,0,1,.3,3.36c.35,13,1,25.94.93,38.92-.07,13.34-.86,26.69-1.28,40C430.17,433.17,429.75,433.7,419.14,435.71ZM493.8,410.5c-.72,8.2-3.93,15.66-8.37,22.53-2.06,3.2-10.37,4.53-15.68,2.78-4.32-1.41-6.11-4.15-6.12-9.5q0-16.65,0-33.31c0-7.57,1.15-8.72,8.61-8.62C486.09,384.57,495.13,395.33,493.8,410.5Zm16-19.15c1.19-.15,2.66-.57,3.3.86s-.22,2.62-1.12,3.72c-3.85,4.76-3.84,4.85,1.69,7.42,1.1.51,2.15,1.06,2,2.35s-.59,2.79-2.3,3c-1.56.19-3.14.44-3.37,2.3-.29,2.29,1.92,2.26,3.21,3s2.67,1.6,2.49,3.37c-.22,2.08-2,1.81-3.43,2-3.47.45-5,3.12-4.35,7.63.68,4.92.6,5.09-3.89,3.11-2.82-1.25-5.33.15-8.5.34,8.61-14.83,8.88-29.59.83-44.49,2.27-1,4-.39,4.95,1.4C503.26,390.83,506.15,391.83,509.84,391.35Zm-11-48.7c.49,2.93,1.92,3.83,4.73,2.76,1.51-.58,3.36-2.19,4.62,0s-.24,3.78-2.12,5.2c-3.28,2.48-3.11,5.52.22,7.86,1.23.87,3,1.68,2.07,3.42-.82,1.58-2.56.51-3.69.06-2.35-.93-3.75-.09-5,1.82a11.28,11.28,0,0,1-2.62,2.63,2.71,2.71,0,0,1-2.87.14c-1.27-.7-.28-1.75,0-2.63,3.62-12.59,3.34-15.39-2.92-27C496.85,336.39,497.93,337.19,498.85,342.65Zm-35.27-1c.19-4.91,2.05-6.68,6.86-7.06,12.55-1,19.46,5.84,18.41,18.36a34.91,34.91,0,0,1-4.24,15c-1.92,3.3-4.5,5.21-8.51,4.89-2.48-.2-5-.08-7.48-.16-4-.13-5.09-1.22-5.11-5.16,0-4.12,0-8.23,0-12.35h0C463.54,350.61,463.4,346.12,463.58,341.63ZM438.23,384.9h.12c0-14.36,0-28.71,0-43.07,0-1.84-.33-4.4,2.7-4.42,3.28,0,7-.85,9.16,2.6,1.16,1.81-.29,2.63-1.88,3.17-1.41.48-3.68,0-3.67,2.32,0,2,2.08,2.19,3.46,2.92,3.29,1.73,3.29,3.57,0,5.63-4,2.53-4,4.08.21,6.48.43.24.9.43,1.32.69,1,.59,1.93,1.28,1.73,2.62s-1.34,1.92-2.65,2.21c-1.5.33-3.67-.1-4.08,1.88-.46,2.2,1.82,2.66,3.19,3.61,3.1,2.14,3,3.87-.51,6.18-1.21.81-2.87,1.31-2.73,3.19s1.94,2,3.25,2.59c1.55.7,3.66,1.08,3.44,3.33-.19,2-2.13,2.13-3.65,2.69-1.33.49-3.41.47-3.43,2.35,0,2.05,2.09,2.16,3.59,2.63,1.8.56,3.3,1.54,3.37,3.53s-1.87,2.29-3.38,2.84c-1.32.47-3.24.38-3.21,2.48,0,1.74,1.6,2,2.85,2.51,1.56.63,3,1.39,3.1,3.34.1,2.17-1.56,2.92-3.14,3.72s-3.53,1.08-3.53,3.34c0,2.08,1.89,2.38,3.26,3.16,1.11.63,2.12,1.36,2.05,2.86-.08,1.69-1.33,2.27-2.64,2.78-1.1.42-2.71.39-2.61,2.11.09,1.49,1.6,1.75,2.64,2.37,1.2.71,3.41.7,3,2.67-.35,1.63-2.36,1.6-3.79,1.85a17.12,17.12,0,0,1-3.36.05c-3-.08-4.68-1.33-4.85-4.72-.49-10.11.68-20.18.63-30.28C438.21,394.37,438.23,389.63,438.23,384.9Z" transform="translate(281.39 -154.38)"/><path d="M-162.11,323.3a208.12,208.12,0,0,1-31.78,0c-4.16-.38-6.26,2-6,6.12.27,3.81,2.62,5.54,6.77,4.93a26.26,26.26,0,0,0,2.93-.61c3.65-1,6,.75,7.72,3.73a12.28,12.28,0,0,1,1.27,6.16c.51,23.1.66,46.2-1.18,69.25-.82,10.25-7.84,19.26-17.22,21.8-18.18,4.91-35.3-5.59-36-25.23-.59-16-.66-32-.6-47.95a160.61,160.61,0,0,1,1.33-22.77c.8-5.43,2.47-6.42,7.94-5.12,2,.48,4.31,1.32,5.88-.81a7,7,0,0,0,.66-7.13c-1-2.4-3.35-2.29-5.46-2.27-2.74,0-5.49.11-8.23.34-8.08.7-16.16,1.74-24.29.87a131.81,131.81,0,0,0-15.64-.92c-4.6.06-6.25,1.48-6.06,5.49s1.19,4.76,6.12,4.35c1.67-.14,3.69-.56,4,2a61.18,61.18,0,0,1,1.06,9.28c-.09,11,0,22,0,32.95h-.75c0,10-.06,20,0,30,.16,21.6,10.28,34.48,30.78,39.08,8.45,1.9,17.09,2.18,25.7,2a50.49,50.49,0,0,0,28.54-9.88,31.07,31.07,0,0,0,12.93-19.83,111.46,111.46,0,0,0,2-26.83c-.74-16.85-.69-33.7-.63-50.56,0-6.35,1.91-8,8.33-8.33,4.35-.19,6-1.71,6-5.41C-156,324.57-157.73,323-162.11,323.3Zm-68.37,113.84c-.32,1.42-1.63.81-2.51.84-15.95.58-28.29-11.22-28.74-27.53-.16-5.61-.12-11.23-.14-16.85s0-11.23,0-16.85h.12q0-17,0-34.07c0-1.88,0-4.08,2.43-4.42,3-.42,6.16-.25,8.47,1.93,1.2,1.12-.25,2.12-1.34,2.83-4.33,2.8-4.32,3.43,0,6.23,3.12,2,3.09,3.85-.14,5.83-1.35.83-3.26,1.25-3.33,3.17-.09,2.11,2,2.28,3.36,3,3,1.6,3.21,3.24.61,5.29-.59.46-1.29.77-1.9,1.2-2.48,1.79-2.44,3.15.11,4.81,4.11,2.69,4.08,3.28-.24,5.79-1,.55-2.13,1-2.09,2.36,0,1.55,1.32,2,2.48,2.44,1.55.59,3.3,1.11,3.36,3.05s-1.85,2.41-3.25,3.18c-1.15.64-2.7,1-2.6,2.78s1.54,2.1,2.73,2.75c3.41,1.86,3.53,3.28.47,5.74-4.07,3.3-4,4.08.52,6.07,2.65,1.16,2.83,2.38.68,4.35-1.13,1-3.26,1.51-2.78,3.55s2.51,1.83,4,2.22c5.26,1.4,5.39,1.7,1.85,6-.65.78-1.39,1.51-.82,2.63a2.43,2.43,0,0,0,2.53,1.26c3.77-.25,5.74,1.22,6.19,5.2.28,2.54,2.52,2.8,4.69,2.15,1.34-.4,2.61-.91,3.86.23C-231,435.05-230.22,435.94-230.48,437.14Z" transform="translate(281.39 -154.38)"/><path d="M895.16,447.79a9.32,9.32,0,0,0-2.17-.59c-10.08-.8-16.28-7.19-19.82-15.62-6.38-15.19-14.32-29.58-21.62-44.29-1.17-2.35-.66-3.86.9-5.59a177.28,177.28,0,0,1,13.62-13.93c5.54-4.91,11.75-8.4,19.44-8.42,1.81,0,3.17-.57,3.51-2.58s-.2-3.77-2.09-4.78-4.09-.93-6.23-.78a121.69,121.69,0,0,1-21.68,0,44.18,44.18,0,0,0-9-.05c-2.68.27-4.2,2.09-4,4.94s2.09,3.27,4.46,3.29c1.9,0,4.33-.79,5.32,1.57s-1.15,3.59-2.27,5.16a13.75,13.75,0,0,1-1.26,1.39c-8.41,8.44-18.35,15-27.58,22.43-2.37,1.91-2.82.46-3.05-1.67-.7-6.38.44-12.71.38-19.08-.07-8,0-8,7.92-8.91,3.78-.45,5.92-2.55,5.52-5.7-.46-3.73-3.4-3.83-6.21-3.83-3.5,0-7,.07-10.49.25-10.62.54-21.21-.49-31.82-.63-2.59,0-4.88.61-5,3.73s1.69,4.81,4.76,5.1c1.24.11,2.5.06,3.74.14,2.85.18,4.39,1.76,4.41,4.57,0,11.35,0,22.7,0,34.05h0V427.2c0,8.87,0,8.87-8.89,9.68-4.3.4-6.53,3.42-5.29,7.16,1,3.06,3.63,3.12,6.14,3.06,10.36-.26,20.7-1.15,31.07-.49q6,.39,12,.44c2.53,0,3.91-1.51,4.05-4s-.7-4.5-3.39-5.06a11.26,11.26,0,0,0-3.71-.11c-3.59.47-5-1-4.89-4.6.15-9.12,0-18.25,0-27.37a7.75,7.75,0,0,1,0-1.87,3.47,3.47,0,0,1,1-1.92c.76-.49,1.32.39,1.84.89a38.71,38.71,0,0,1,5.39,7.16c5.38,8.4,10.17,17.18,16.24,25.14,6.68,8.77,14.68,16,24.95,20.36a32.07,32.07,0,0,0,24.1.8c1.85-.68,3.75-1.74,3.57-4.25S897.33,448.51,895.16,447.79ZM808.57,365c3.06,1.71,3.07,3,0,5-1.13.74-2.74,1.23-2.7,2.82s1.73,1.83,3,2.28c1.11.38,2,.95,2,2.36s-1.09,1.79-2.13,2.28c-1.19.56-3,.82-2.86,2.52.09,1.54,1.63,2,2.9,2.61s2.43,1.1,2.23,2.64-1.6,1.66-2.83,2c-.95.23-2.2.51-2.3,1.63-.11,1.36,1.11,1.69,2.23,2.07s2.88.58,2.94,2.39-1.4,2.46-2.8,3.08c-1.15.51-2.44,1.07-2.35,2.57s1.34,2,2.5,2.5,2.61,1.18,2.57,2.86-1.61,2-2.86,2.46c-1,.41-2.31.73-2.25,2.14,0,1.15,1.13,1.57,2,2,1.15.51,2.54.93,2.61,2.36.09,1.72-1.55,2-2.75,2.61-2.64,1.38-2.63,2.5,0,4.15,1.24.78,3,1.18,2.78,3.07-.21,1.63-1.88,1.79-3.14,2.24-1,.35-1.94.79-1.93,2s1.12,1.45,2.05,1.84c1.19.49,3.11.39,3,2.24s-1.83,2.1-3.34,2.43c-4.77,1.07-6,.15-6-5,0-11.74,0-23.47,0-35.21.26-11.74.85-23.49,0-35.22-.11-1.55-.49-3.69,1.68-4,2.65-.39,5.77-1,7.81,1.18,1.38,1.45-.33,2.54-1.84,3.12-1,.4-2.33.65-2.46,2C806.19,364.33,807.64,364.45,808.57,365Zm67.25,82.54c-8.48-2.73-15.48-7-20.69-14A111.08,111.08,0,0,1,844,416.27,79.22,79.22,0,0,0,830.69,397c-2.39-2.56-2.14-3.37,1.17-4.66a11.62,11.62,0,0,1,4.75-.83c1.28.06,2.67.08,3.26,1.35.75,1.63-.84,2.05-1.8,2.76-2.1,1.56-1.11,2.86.59,3.63a48.09,48.09,0,0,0,5,1.42c1.07.35,2.13.92,2.25,2.23s-1,1.18-1.74,1.55c-2.26,1.09-1.13,2.11.25,2.81,1.55.78,3.31,1.15,4.82,2,1.85,1,3,2.35.77,4.33s-1,2.95,1.22,3.4a28.13,28.13,0,0,1,3,.39c2.18.69,3.25,1.77,1.35,4-2.11,2.49-1.63,3.64,1.61,4.45,5.07,1.26,5.12,1.27,4.27,6-.36,2,.69,2.64,2.26,2.35,4-.72,6.73-.29,5.77,4.95-.34,1.84,1.42,2.75,3,3.39C874.5,443.32,876.11,444.5,875.82,447.51Z" transform="translate(281.39 -154.38)"/><path d="M370.07,385.52c-8.6-21.68-26.15-31.33-48.17-33.67-17.25-1.84-34.65.63-52-.71a5.91,5.91,0,0,0-4.94,2.22,4.7,4.7,0,0,0-.9,5.23c.77,1.88,2.41,2.36,4.29,2.28.75,0,1.5-.1,2.25-.12,5.88-.16,6.68.55,6.72,6.52.06,11,0,22,0,33h.25c0,3.49,0,7,0,10.47q-.09,11.43-.25,22.85c-.08,5.33-1.26,6.44-6.44,6.36a10.89,10.89,0,0,0-3.32.42,3.75,3.75,0,0,0-2.87,4.24,3.24,3.24,0,0,0,3.37,3.29c2.1.14,4.22.16,6.34.16,16.08-.06,32.12-2.43,48.23-.66,14.36,1.58,26.79-2.93,37.55-12.36C373.7,423.18,377.6,404.5,370.07,385.52Zm-75.5,50.62c-.24,1.59-1.53,1.78-2.85,1.73-.63,0-1.25-.13-1.87-.13-6.35,0-6.35,0-6.35-6.24V397.81h-.6q0-18.33,0-36.66c0-1.51-.28-3.3,1.43-3.9s3.86-.91,5.49,0,1,2.55-.11,3.5c-2.71,2.24-1.91,3.61.84,4.84,1.32.58,3,.93,3,2.88,0,2.15-1.89,2-3.24,2.39-1.14.37-2.1.95-2.13,2.28s.91,1.93,2.1,2.22c1.67.4,3.11,1,3.07,3.14s-1.91,2-3.23,2.38c-1,.32-2,.59-2,1.82a2.78,2.78,0,0,0,1.62,2.73,8.58,8.58,0,0,0,1.77.6,2.34,2.34,0,0,1,1.89,2.77c-.11,1.47-1.18,1.78-2.34,1.93s-2.66.45-2.77,2,1.25,2,2.36,2.58c.56.28,1.12.56,1.66.86a2.13,2.13,0,0,1,1.26,2.11c-.1,1-.83,1.4-1.77,1.61-1.43.32-3.17.4-3.26,2.42-.08,1.65,1.25,2.28,2.44,3s3,1.28,3,3.05c0,2.13-2,1.75-3.37,2.17-1,.31-1.86.73-1.85,2a2.15,2.15,0,0,0,1.42,2c.79.37,1.63.63,2.45.94a1.84,1.84,0,0,1,1.38,1.58c.09,1.13-.75,1.46-1.59,1.77-1.45.55-3.45.48-3.54,2.68s1.9,2.63,3.46,3.34c.91.43,1.8.89,1.82,2.12,0,1.42-1.07,1.8-2,2.39s-3.14.52-2.94,2.31c.16,1.56,1.87,1.75,3.23,2S294.81,434.54,294.57,436.14Zm14.53.45c-2.17-.67-2.87-2.45-3.21-4.6-2.17-13.65-1.92-27.36-1.21-41.09.45-8.59.89-17.19,1.19-25.8.1-3,1.45-4.06,4.3-4.41,12.33-1.54,24.92,6.95,29.51,20.1a66.23,66.23,0,0,1,3.4,19.08,48.13,48.13,0,0,1-7.19,28.92C329.67,438.9,321.51,440.45,309.1,436.59ZM356,408.05c-1.69.41-3.59.69-3.61,3.07,0,2.22,1.73,2.46,3.31,2.83.9.21,1.74.5,1.83,1.55a2.12,2.12,0,0,1-1.34,2.09,38.25,38.25,0,0,1-4.19,1.56c-1,.33-2,.67-2,1.89,0,1,.88,1.47,1.71,1.75,1.19.42,2.5.62,2.33,2.36a3,3,0,0,1-3,2.81c-3.81.15-6.38,1.51-7.14,5.55a3.36,3.36,0,0,1-2.41,2.2c-1.27.42-2.82,1.3-3.88.11-1.18-1.35.68-2.1,1.29-2.91,13.55-17.9,13.34-50.2.48-67.87-.86-1.19-1.95-2.3-2.22-4.19,3.26,0,4.6,2.34,6.28,4.09,1.14,1.18,2.09,2.21,4.1,2,3.6-.46,4.42.47,3.36,3.9-.85,2.77-.75,4.38,2.64,4.35a1.81,1.81,0,0,1,1.86,1.54c.23,1.06-.48,1.58-1.26,2.05-1.22.76-2.93,1.12-2.61,3.16s2,2.32,3.6,2.71c1,.25,2.08.59,2.24,1.68.25,1.69-1.34,1.47-2.3,1.77a2.57,2.57,0,0,0-2.12,2.68,3.08,3.08,0,0,0,2.18,3.11c1.26.48,3.27.16,3.33,2.33.06,1.91-1.71,1.85-2.86,2.43a3,3,0,0,0-1.8,2.65c-.06,1.62,1.37,1.55,2.34,1.9,1.27.46,2.95.5,2.77,2.39C358.76,407.13,357.47,407.71,356,408.05Z" transform="translate(281.39 -154.38)"/><path d="M-110,446.31c3.19.28,4.83-1.65,4.86-4.82s-1.42-4.95-4.75-4.87c-1.13,0-2.25,0-3.38,0-4.56-.13-5.94-1.34-6-5.78-.06-15.87,0-31.74,0-47.61,0-.79-.42-1.86.65-2.3s1.66.36,2.33.86a26.19,26.19,0,0,1,2.19,2,371,371,0,0,1,24.92,27.95c9.4,11.51,19,22.9,30,32.9,3.4,3.07,7.32,5.21,12,5.42s6.73-2.29,5.36-6.84c-1.22-4.07-2.42-8.1-2.41-12.42,0-19.74-.2-39.48.12-59.21.12-7.8-2-11.21,10.29-10.75.25,0,.5,0,.75,0,2.76-.19,4-1.68,3.86-4.43-.17-3-2.2-4.86-5.95-4.75-8.6.24-17.17.77-25.78-.2A5.84,5.84,0,0,0-67.49,357c0,2.8,1.94,4.25,6.16,4.49H-61c5.23.28,6.44,1.23,7,6.31,1.28,12.45.57,24.93.36,37.41,0,.71.11,1.59-.79,1.88s-1.2-.65-1.64-1.18c-12.75-15.55-26.7-30-40.1-45a26,26,0,0,0-20.13-9.15h-23.6c-3.63,0-7.25-.09-10.87,0-2.81.1-4.94,1.55-5,4.49s2,4.38,4.87,4.56c1.24.08,2.5,0,3.74.05,9.79.38,17.75,7.58,18.26,17.34.46,8.7.1,17.44.1,26.17h.17c0,8.61.13,17.21,0,25.82-.09,4.86-2.27,6.65-7.1,6.53-.75,0-1.5-.09-2.24-.16-3.11-.29-5.12.75-5.28,4.2-.17,3.61,1.4,5.75,4.92,5.52A183.17,183.17,0,0,1-110,446.31Zm-20.77-85.61c-.93-.78-3-1-2.44-2.76s2.29-2.18,4-2.43c.62-.09,1.24-.1,2.23-.18,1.82.85,5.84-.5,4.34,4.47-.52,1.72,1.22,1.69,2.49,1.75,4.53.21,4.68.31,3.56,4.6-.39,1.47.32,1.86,1.3,2.09,1.45.34,3,.44,4.42.72,2,.39,3,1.33,2.5,3.67-.79,3.81-.26,4.19,3.44,3.32,1.46-.35,3-.83,4.23.43s-.14,2.3-.55,3.4c-1,2.75,0,4.34,3.1,4.05,2.36-.22,3.1.43,3.14,2.77.07,3,.33,5.83,5,4.36,2.37-.74,3.85,1.5,2.93,3.75-1.37,3.32-.08,4.29,2.92,4.64,2.84.35,5.78.49,3.55,4.94-.92,1.85,1.3,2.82,3,2.77,3.91-.1,6.5.48,4.83,5.45-.71,2.11,1.29,2.66,3,2.91,2.48.38,5.06.34,2.93,4.22-.94,1.72,1.07,2.5,2.54,2.64,3.6.32,6.5.86,3.95,5.59-.64,1.21.53,2.2,1.69,2.42,1.92.36,2.76,1.36,1.92,3.11-1,2-2.47,1.41-4,.44a44,44,0,0,1-10.43-9.56c-13.06-15.59-25.82-31.42-40-46A250,250,0,0,0-130.77,360.7Z" transform="translate(281.39 -154.38)"/><path d="M764.09,360.87c.62,0,1.25,0,1.87,0,3,.15,5.25-.74,5.37-4.19.09-2.83-2.12-5.07-5.38-5-9,.17-17.93.86-26.88-.22a5.92,5.92,0,0,0-1.86.19c-2.86.66-4.12,2.73-4.29,5.42-.18,2.85,1.89,3.83,4.26,4.28a18.49,18.49,0,0,0,3,.16c3.67.09,5.74,1.75,6.13,5.59,1.27,12.59.26,25.2.56,37.8,0,.83,0,1.92-1,2.2s-1.3-.91-1.82-1.52c-13.38-16-27.53-31.29-41.78-46.49-4.86-5.18-11.18-7.32-18.22-7.34-7.75,0-15.49,0-23.23,0-3.75,0-7.5-.09-11.24,0-2.81.1-5,1.56-5.06,4.46s2,4.4,4.86,4.59c1,.07,2,0,3,0,10.69.18,18.82,7.75,19.21,18.4.31,8.47.06,17,.06,25.44s.1,17,0,25.44c-.08,4.9-2.16,6.71-7,6.61-1,0-2-.2-3-.23-3.07-.06-4.61,1.4-4.61,4.53,0,3.72,1.55,5.28,5.55,5.31,5.87,0,11.67-1.32,17.57-.76,3.35.33,6.71.65,10.07.71,3.51.07,5.17-2,5-5.49-.28-4.35-3.35-4.23-6.48-4.22-6.6,0-7.64-1-7.65-7.55q0-22.29,0-44.6c0-1.16-.7-2.79.63-3.41s2.46.76,3.42,1.68A303.87,303.87,0,0,1,709,409.06c10,12.26,20.09,24.53,31.81,35.29,3.46,3.18,7.43,5.47,12.28,5.73s7.14-2.32,5.45-7c-2.08-5.76-2.31-11.67-2.4-17.66-.29-19-.25-38,.25-56.93C756.53,362.1,757.61,360.91,764.09,360.87Zm-18.76,72.62c-.71,1.46-2,1.58-3.46.7a39,39,0,0,1-9-7.78c-12.43-14-23.67-29-36.64-42.55a271.72,271.72,0,0,0-24.84-23.27c-.89-.72-2.71-.95-2.3-2.53s2-2.14,3.49-2.46a23.66,23.66,0,0,1,2.42-.26c2.45.52,6-.21,4.69,4.73-.44,1.62,1.54,1.48,2.77,1.45,3.07-.09,5.17.59,3.39,4.31-.67,1.4,0,2.16,1.26,2.46a24.34,24.34,0,0,0,3.7.58c2.55.19,3.59,1.43,3,4-.69,3,.07,4.44,3.43,3.19,1.42-.53,3-.89,4.25.26,1.5,1.37-.21,2.45-.59,3.64-.8,2.51.14,4.23,2.69,3.92,3.28-.41,3.79.93,3.79,3.73,0,2.55.59,4.76,4.31,3.43,2.56-.91,4.54,1.31,3.44,3.84-1.48,3.45.26,4.14,3,4.52s5.53.39,3.58,4.69c-1,2.26,1.22,2.85,3,3.05,5,.55,5,.53,4.51,5.26-.25,2.54,1.58,2.79,3.32,3.07,2.4.39,4.62.46,2.75,4.08-1.11,2.14,1.22,2.6,2.79,2.79,3.23.38,5.93.85,3.75,5.22-.78,1.57.47,2.57,2,2.87C745.83,430.78,746,432.15,745.33,433.49Z" transform="translate(281.39 -154.38)"/><path d="M615.55,447.11c6.23,0,12.47,0,18.7,0,2.49,0,5,.18,7.4-.75,2.21-.87,3.51-2.25,3.36-4.78a4.32,4.32,0,0,0-3.77-4.42,11.19,11.19,0,0,0-3.31-.48c-5.12.52-7.38-2.43-8.89-6.74-5.11-14.57-10.34-29.1-15.52-43.65-3.79-10.68-7.5-21.39-11.37-32-2-5.58-4.33-6.43-9.7-3.87a11.63,11.63,0,0,1-5,1.39,162.47,162.47,0,0,1-22.81-1c-4.32-.55-5.92.93-5.91,5.4s1.68,6,6,5c8.9-1.95,12.55,1.2,12.2,11.48-.12,3.28-1.42,6.32-2.72,9.28q-10.37,23.79-20.86,47.53c-2.51,5.67-4.74,6.91-11.45,6.65-3.76-.15-5.77,1.8-5.83,5.65,0,3.39,1.65,5.49,4.83,5.25a200.41,200.41,0,0,1,29.91.06c2.58.19,3.93-1.26,4.41-3.64.92-4.65-1-7.05-5.81-7.35-1.37-.09-2.74-.19-4.09-.4-1.63-.25-2.47-1.09-1.84-2.87,1.93-5.43,4-11.11,7.86-15.13,2.44-2.59,7.64-.57,11.59-.85h.37c11.93,0,12.69.59,15.87,12.11,1.89,6.85,1.61,7.26-5.21,7.65-3.64.21-5.46,2.21-5.27,5.82.17,3.15,2,4.64,5.47,4.62,7.11,0,14.22,0,21.33,0Zm-28-40.77c-4,.07-7.93,0-12.64,0l8.62-18.51c2.24,5.56,4.1,10.54,6.25,15.38C590.94,405.91,589.51,406.31,587.53,406.34Zm27.11,29.15c-2.5-.12-4.65-1-5.62-3.59q-2.65-7-5.24-14-9.6-26.1-19.16-52.23a30.22,30.22,0,0,1-1.37-4.65c-.6-3.21.35-4,3.65-3.43,1.78.32,3.05.57,1.2,2.66s-1.14,3.61,1.48,4.31a20.45,20.45,0,0,0,2.2.46c1.5.23,3.21.38,3.42,2.25.19,1.68-1.36,2.17-2.62,2.72-1.08.47-2.1,1.07-1.78,2.46s1.38,1.57,2.54,1.83c4.86,1.09,4.85,1.12,1.77,5-1.82,2.29-1,4.45,2,5.27,4.61,1.24,4.61,1.24,1.47,4.61-2.14,2.3-.53,3.16,1.5,3.87,4.19,1.47,4.21,1.49,1.52,5-1.33,1.74-.69,3.08.94,4a12.86,12.86,0,0,0,3.21.86c1,.23,2,.39,2.28,1.59.19,1-.49,1.61-1.27,2.08-1.3.8-2.64,1.52-2.11,3.46s1.93,2.31,3.63,2.67c2.67.57,3.68,1.81.93,3.84a3,3,0,0,0-1.37,3.54,3.1,3.1,0,0,0,3.06,2.28c3.16.18,4.67.89,2,4.15-1.94,2.35-.63,4.88,2.46,5.39,1.22.2,2.47.17,4,.27C618.59,435,616.76,435.6,614.64,435.49Z" transform="translate(281.39 -154.38)"/><path d="M240.9,454c3.27.53,4.78-1.18,5.18-4.35a31.56,31.56,0,0,1,1.41-5.42c1.77-5.69,5.5-10.29,8.61-15.24,1.07-1.7,2.13-3.67,0-5.36s-4.6-2.26-6.79-.23a32.86,32.86,0,0,0-4,4.89c-2.55,3.51-5.57,6.6-9.76,7.84-11.07,3.27-22.19,2.61-33.19-.47-2.23-.62-4-2.13-4-4.83-.1-9.87-.23-19.73-.32-29.6,0-1.38,0-3,1.38-3.67a12.86,12.86,0,0,1,10.87-.53c3.33,1.39,2,4.43,1.72,6.91-.28,2.64-.12,4.89,3.17,5.2s5.31-1.28,5.16-4.45c-.33-7.42,1.76-14.31,4-21.17.75-2.22.78-3.82-1.8-4.75s-5.15-.87-5.76,2.06c-1.2,5.75-4.83,6.89-9.87,6.39a16,16,0,0,0-4.47.33c-3.22.62-4.8-.73-4.86-3.9-.13-6.37-.24-12.73-.24-19.1,0-2.07,1.06-3.79,3.32-3.81,7.73-.07,15.48-1,23.19.08,6.34.86,7.88,3.62,5.37,9.55-1.11,2.64.31,4.07,2,5.39,1.94,1.55,3.8.75,5.31-.84a8.47,8.47,0,0,0,2.18-4.69A83,83,0,0,1,243.45,353c.94-2.57-.19-4.35-2.28-5.69-2.33-1.48-4-.31-5.51,1.45s-3.06,3.08-5.65,3.07c-11.48,0-22.95.91-34.45,0-11.36,0-22.72,0-34.08,0-2.68,0-4.67.33-4.77,3.69s1.6,4.78,4.71,4.95c1.62.1,3.25,0,4.86.2,2.76.28,4.15,1.66,4.15,4.66,0,5.49.23,11,.46,16.46.73,17.61-.62,35.21-.07,52.82.1,3.26-1.58,4.87-4.87,4.57a12.73,12.73,0,0,0-6.6.69c-1.58.72-2.68,1.89-2.45,3.8a3.75,3.75,0,0,0,3.11,3.31,12.62,12.62,0,0,0,2.61.25c14.47.44,28.94.26,43.41-.16,9.36-.27,18.72-.52,28.08-.66,1.28,0,3.81-.92,3.12,2C236.46,451.65,237.76,453.45,240.9,454ZM185.72,434.7c-.26,2.46-2.68,2.28-4.48,2.37-4.44.23-6.05-1.42-6.09-6.87-.07-8.37.17-16.74.26-25.1,0-3.12,0-6.25,0-9.37h-.78c0-11.11,0-22.21,0-33.32,0-5.78,1.3-7,6.83-6.16,1,.15,2,.36,2.23,1.58s-.42,1.78-1.37,2.38c-4.18,2.64-4.16,3.64.18,5.89,2.15,1.12,1.89,2.37.37,3.73A14.07,14.07,0,0,1,181,371c-.86.54-1.73,1.12-1.67,2.29s1.2,1.43,2.15,1.65c1.25.28,2.59.54,2.85,2s-.83,2.52-2.14,3.16-2.56,1.16-2.45,2.89,1.42,2.13,2.77,2.59c1.15.39,2.62.75,2.53,2.32s-1.45,1.86-2.58,2.43-3.13.46-3.05,2.22,1.92,1.66,3.17,2.12c1,.37,2.33.64,2.47,2,.15,1.51-1.05,2.07-2.2,2.66-3.55,1.84-3.56,2.26-.31,4.56,2.75,1.94,2.76,3.11,0,5-1.11.75-2.66,1.15-2.55,2.88s1.63,1.95,2.91,2.42c1,.38,2.27.61,2.33,2.07s-1.08,2.07-2.25,2.61-2.72.68-2.7,2.21c0,1.75,1.78,1.84,3,2.32,1.07.42,2.21.78,2.27,2.16a2.92,2.92,0,0,1-2.07,2.82,16.35,16.35,0,0,0-2,1c-.64.4-1.29.94-1.23,1.75.07,1.12,1.13,1.17,1.93,1.42C183.56,433,186,432.21,185.72,434.7Z" transform="translate(281.39 -154.38)"/><path d="M117.59,361.68a30.59,30.59,0,0,1,10.79-.69c2.08.19,3.26,1.45,3.77,3.57.8,3.34.21,6.73.66,10.07.28,2,.71,4,3.24,4.43s4-1.25,4.78-3.31a20.4,20.4,0,0,0,1.52-6.15,96.64,96.64,0,0,1,2.32-15.14,47.84,47.84,0,0,0,.8-5.17c.19-1.86-.93-3.06-2.44-3.86s-2.73-.14-3.68,1c-3.27,3.76-7.79,4.5-12.27,4.49-20.1,0-40.2.86-60.3.08-2.61-.1-5.35-.34-7-2.78-1.13-1.62-2.46-2.4-4.44-1.92-2.27.54-2.32,2.43-2.42,4.14A58.71,58.71,0,0,1,50,367.27a48.76,48.76,0,0,0-1.94,6c-.48,2.2-.19,4.38,2.28,5.32s4-.41,5.06-2.55c.49-1,1.08-2,1.5-3,4.1-10.27,9.8-13.21,22.76-12.45,3.52.21,5.21,2.09,5.22,5.53q0,16.65,0,33.31h0c0,11,0,22,0,32.92,0,3.8-1.62,5.43-5.53,5.55-2.22.07-4.46-.47-6.69-.53-4-.11-6.54,1.76-6.49,4.61.06,3.34,2.24,5.11,6.37,5.11,11.6,0,23.2-.86,34.81-.28,5.49.27,11,.3,16.48.22,3.75-.06,5.31-1.87,5.34-5.27,0-3.68-2.31-4.7-5.33-4.87a32,32,0,0,0-4.47.28c-5.19.44-6.51-.53-6.79-5.78a580,580,0,0,1-.08-63.24C112.67,364.7,114.37,362.54,117.59,361.68ZM98,411.66c1.37.49,3.21.62,3.09,2.64-.11,1.74-1.65,2.3-3.07,2.89-1,.41-2.28.74-2.09,2.25s1.39,1.62,2.43,2c1.37.52,3.17.73,3.1,2.68-.07,1.73-1.82,1.81-3,2.31-1,.41-2.44.38-2.44,1.87,0,1.73,1.64,1.65,2.72,2s2.66.61,2.38,2.28c-.21,1.32-1.53,1.47-2.65,1.65-.37.06-.74,0-1.12.1-7.08.94-7.25.76-7.23-6.17,0-10.73,0-21.46,0-32.19H90q0-18,0-36c0-1.62.23-3.27,2-3.6,2.53-.49,5.42-1.6,7.62,0,1.55,1.12.09,2.65-1.43,3.32-.89.4-2.08.47-2.12,1.76,0,1.48,1.31,1.7,2.29,2.09,1.49.57,2.85,1.25,2.85,3,0,2-1.7,2.13-3.16,2.49-1.06.26-2.45.47-2.42,1.87,0,1.13,1.16,1.47,2.16,1.75,1.35.37,2.69.87,2.83,2.56s-1.25,2.21-2.47,2.86c-1,.51-2.17,1-2.12,2.38s1.36,1.65,2.43,1.84c1.52.29,2.65,1,2.77,2.58.14,1.75-1.37,2.19-2.63,2.72s-2.54.82-2.54,2.36,1.46,1.82,2.59,2.3c1.45.6,2.71,1.43,2.62,3.24s-1.64,2-2.9,2.48c-1.09.38-2.3.66-2.35,2s1.25,1.66,2.27,2.12c1.42.64,3.43.84,3.29,3-.13,2-1.88,2.41-3.46,2.91-.86.26-1.78.82-1.76,1.73S97.17,411.35,98,411.66Z" transform="translate(281.39 -154.38)"/><path d="M31.15,360.62l1.87.06c4.26,0,6.52-1.94,6.35-5.53-.13-3-1.85-4-6.42-3.77-10.48.53-21,.52-31.46.42-5-.05-10-.85-14.95-.11a3.8,3.8,0,0,0-3.47,2.95c-.45,2,.66,3.37,2.16,4.4s3.52,1.11,5.42,1.09c6.37-.08,6.9.6,7.13,7,.76,21.47.48,42.94-.14,64.41C-2.52,437-3.43,438-8.95,438c-5.18,0-7.5,1.51-7.42,4.78.07,2.8,2.29,4.13,7.25,4.07,8.11-.09,16.21-.42,24.32-.44,6.37,0,12.73.35,19.1.43,2.19,0,4.34-.34,4.57-3.26s-1-4.58-3.77-5.12a24.62,24.62,0,0,0-4.45-.47c-3.59,0-5.08-1.79-5.17-5.34-.29-11.36-1.17-22.7-.83-33-.14-11.91.24-22.77.81-33.62C25.73,360.88,26,360.59,31.15,360.62ZM13.57,426.51c-.16,1-.89,1.42-1.77,1.68s-2.51-.12-2.65,1.43c-.1,1.18,1.2,1.45,2,2,1.07.71,2.11,1.47,1.84,2.95s-1.59,2.17-2.94,2.54c-4,1.09-7-1.31-7-5.69,0-11.73,0-23.46,0-35.18.06-11.48.56-23,.3-34.45-.14-6,2.74-6.08,7.92-5.35A2.12,2.12,0,0,1,13,358.16c.29,1.21-.56,1.75-1.41,2.35-3.53,2.52-3.51,2.54,0,5.17,2.66,2,2.54,3.81-.37,5.23-.87.42-2.12.46-2.22,1.7s1.09,1.44,2,1.76c1.24.41,2.34,1.06,2.41,2.52s-1.14,1.77-2.17,2.22S9,380.17,9,381.73s1.37,1.6,2.31,2.14c2.85,1.63,2.93,3.3.28,5.37-3.24,2.53-3.24,2.53.29,4.89,2.09,1.38,2.15,3.37.15,4.8-3.69,2.65-3.71,2.68-.18,5A3.1,3.1,0,0,1,13.59,407c-.13,1.49-1.36,1.52-2.38,1.95-2.93,1.24-3,2.42-.42,4.4,3.83,2.9,3.75,4.12-.57,5.86-2.35.94-2.29,2-.52,3.4A20,20,0,0,0,12.32,424,2.19,2.19,0,0,1,13.57,426.51Z" transform="translate(281.39 -154.38)"/><path d="M702.68,506.39c4.48.45,7.16,3.22,9,7A75.21,75.21,0,0,1,717,528.12c.55,2.07,1.32,3,3.73,3,5.74-.22,11.49,0,17.24-.11,1.12,0,2.9.9,3-1.59,0-1.83-.1-3-2.39-3.19-3.86-.31-6.3-2.42-7.5-6.23-.92-3-2.43-5.72-3.53-8.63a3.44,3.44,0,0,0-2.9-2.36c-3.06-.65-6.29-.88-9.43-2.79,1.72-1.17,3.34-1.15,4.87-1.34A29.42,29.42,0,0,0,730,502c3.75-2,6-4.92,6-9.18a10.46,10.46,0,0,0-5.71-9.82,24.14,24.14,0,0,0-10.72-3c-14.61-.74-29.23-.13-43.84-.36-1.77,0-2.26.48-2.38,2.29-.23,3.67,2.36,2.41,4,2.45,4.89.13,6.67,1.79,6.67,6.66q0,13.88,0,27.75c0,6.23-1.33,7.56-7.65,7.63-1.59,0-3.1-.42-3.09,2.29s1.33,2.36,3,2.35c9.62,0,19.25,0,28.87,0,1.55,0,3.19.53,3.19-2.23,0-2.55-1.32-2.4-3.05-2.42-3.79,0-5.95-2.12-6-5.88s.16-7.51-.08-11.24C699.14,506.43,700.52,506.17,702.68,506.39Zm-3.31-6.4c0-1.75,0-3.49,0-5.23s-.1-3.5,0-5.23A5.25,5.25,0,0,1,705,484.4c3.09,0,6.2-.36,9.24.72,3.59,1.28,5.5,3.74,5.66,7.48s-1.79,6.33-5.3,7.69c-4.4,1.7-9,1.53-13.62,1.6C699.5,501.91,699.35,501.1,699.37,500Z" transform="translate(281.39 -154.38)"/><path d="M-121.43,526.56c-1.67,0-5.19-2.42-5.29,2-.11,4.84,3.68,2.21,5.43,2.28,8.23.32,16.49.14,24.74.14,9.37,0,18.74-.06,28.11,0,2.08,0,2.8-.54,2.87-2.68.19-6.23.65-12.45.91-18.68,0-.93.93-2.37-.78-2.76a2.87,2.87,0,0,0-3.44,1.5c-1.24,2.16-2.69,4.2-4.1,6.26-2.53,3.69-4.35,8.85-7.86,10.63-3.7,1.88-9,.55-13.65.56-3.27,0-5.26-1.91-5.37-5.2-.09-2.62,0-5.24,0-7.87,0-4.88,0-4.78,4.79-4.73a3.66,3.66,0,0,1,3.53,2.14c1.47,2.61,3.14,5.1,4.54,7.74a2.79,2.79,0,0,0,3.34,1.64c1.71-.35,1-1.8,1-2.76q.09-11.06,0-22.12c0-.92.81-2.39-1-2.69A2.85,2.85,0,0,0-87,493.67c-1.55,2.84-3.28,5.59-5,8.32s-4.59,1.28-6.84,1.21c-1.86-.05-.9-2.2-1-3.37-.14-3.25-.1-6.5,0-9.75a5.43,5.43,0,0,1,5.77-5.7c4.13,0,8.26.15,12.37-.07,2.36-.12,3.58.78,4.63,2.78,1.9,3.65,4.1,7.14,6.11,10.72.71,1.28,1.42,2.33,3.13,2.07,2.08-.33,1.16-1.94,1.18-3,.1-4.87-.06-9.75.09-14.62.07-2.16-.64-2.82-2.75-2.71-3.12.16-6.25,0-9.37,0q-22.68,0-45.36,0c-2.32,0-3.83,2.35-2.54,4.08,1,1.39,2.77.61,4.17.63,5.81.08,7.3,1.49,7.3,7.21q0,14.06,0,28.12c0,1.23.19,2.47-.55,3.63A6.29,6.29,0,0,1-121.43,526.56Z" transform="translate(281.39 -154.38)"/><path d="M814.69,526.32c-1.91,0-2.91.26-2.9,2.59,0,2.5,1.49,2.09,2.94,2.09h27.73c9.24,0,18.49-.1,27.73.07,2.34,0,2.9-.67,3-2.87.2-6.23.67-12.45.92-18.68,0-.83.84-2.16-.63-2.54a2.68,2.68,0,0,0-3.29,1c-1.41,2.2-2.86,4.39-4.37,6.52-2.66,3.73-4.16,9.18-8,10.89s-9.07.4-13.69.49c-3.5.07-4.91-2-5.13-5.07-.19-2.61,0-5.24,0-7.87,0-5.17,0-5.06,5.09-4.88a3.43,3.43,0,0,1,3.15,2.11c1.57,2.69,3.27,5.31,4.78,8a2.52,2.52,0,0,0,3.12,1.34c1.41-.36.82-1.65.82-2.51.06-7.37.07-14.74,0-22.11,0-.95.82-2.39-.79-2.86s-2.54.18-3.33,1.62c-1.57,2.83-3.3,5.57-5,8.32s-4.32.94-6.5,1.32c-1.22.21-1.32-.77-1.31-1.72,0-4.12-.33-8.28.13-12.35.3-2.72,1.82-5.05,5.38-4.92,4.36.15,8.74.12,13.11,0a3.59,3.59,0,0,1,3.78,2.22c2.1,4,4.5,7.76,6.69,11.67a2.64,2.64,0,0,0,3,1.63c1.76-.29,1.14-1.69,1.15-2.67,0-4.63-.15-9.26.09-13.86.14-2.88-.62-3.8-3.65-3.77-17.73.15-35.47.07-53.2.07a12.5,12.5,0,0,1-1.5,0c-1.83-.2-2,.9-2,2.33s-.12,2.59,1.85,2.45c1.24-.09,2.49,0,3.74,0,4.1,0,6.15,2,6.16,6,0,10,0,20,0,30a7,7,0,0,1-1.24,3.78C820.47,527.44,817.39,526.25,814.69,526.32Z" transform="translate(281.39 -154.38)"/><path d="M308.89,526.32c-1.7.12-2.14.71-2,2.26.09,1.25-.22,2.5,1.79,2.44,14-.39,28,1,41.91-.91,12.93-1.77,22.89-12.3,23.07-23.71.23-14.57-6.91-22.82-22.13-25.79-7.69-1.49-15.44-.75-22-1H310c-1.59,0-3.18-.39-3.18,2.29,0,2.46,1.18,2.48,3,2.49,5,0,6.82,1.91,6.83,7q0,13.31,0,26.61C316.63,524.46,315.41,525.87,308.89,526.32Zm23-35.52c0-4.52,2-6.43,6.56-6.42,1.75,0,3.5,0,5.23.13,6.49.55,10.36,3.65,11.93,9.93a46.48,46.48,0,0,1-.29,22.9c-1.42,5.59-5.49,8.47-11.9,9-1.61.13-3.24,0-4.86,0-4.6,0-6.64-2-6.67-6.79s0-9.47,0-14.2S331.85,495.66,331.89,490.8Z" transform="translate(281.39 -154.38)"/><path d="M435.74,531c1.91,0,2.91-.22,2.95-2.57.1-6.24.55-12.46.77-18.69,0-.95,1-2.38-.74-2.83a2.82,2.82,0,0,0-3.42,1.53c-1.2,2-2.59,4-3.93,5.93-2.61,3.79-4.47,9-8.09,10.94s-9,.53-13.64.53a5.05,5.05,0,0,1-5.37-5.21c-.09-3.49,0-7,0-10.49,0-.68-.26-1.47.6-1.95,1.85-1,6.67.32,7.85,2.24,1.56,2.55,3.17,5.08,4.6,7.7a2.67,2.67,0,0,0,3.1,1.44c1.79-.25,1-1.72,1-2.63q.1-11.06,0-22.11c0-.94.8-2.4-.82-2.8a2.94,2.94,0,0,0-3.61,1.78c-1.46,2.74-3.18,5.35-4.79,8-1.73,2.87-4.53,1.41-6.78,1.39-2.49,0-1-2.36-1.13-3.55a95.86,95.86,0,0,1-.06-9.74,5.57,5.57,0,0,1,5.58-5.58c4.37,0,8.75.09,13.12-.05a3.63,3.63,0,0,1,3.79,2.21c2.13,3.94,4.5,7.76,6.67,11.68a2.65,2.65,0,0,0,3,1.63c1.76-.27,1.17-1.67,1.19-2.66.05-4.63-.15-9.26.08-13.87.14-2.87-.59-3.8-3.66-3.78-17.61.16-35.23.08-52.84.08-.63,0-1.26.06-1.87,0-1.82-.18-2,.89-2,2.33s-.11,2.57,1.84,2.44c1.24-.09,2.5,0,3.75,0,4,0,6.15,2.06,6.16,6.09,0,9.87,0,19.74,0,29.61a6.91,6.91,0,0,1-.83,3.54c-1.44,2.62-3.66,2.75-6.28,2.89-1.57.08-4.53-2-4.69,2.08s2.86,2.3,4.44,2.34c8.74.17,17.49.08,26.23.08C417.25,531,426.49,531,435.74,531Z" transform="translate(281.39 -154.38)"/><path d="M603.57,484.44c2-.07,1.77-1.21,1.82-2.48s0-2.38-1.92-2.37q-12.18.11-24.36,0c-1.42,0-1.87.49-2,1.93-.32,2.84,1.25,2.91,3.36,2.88,4.57-.07,9.06,4,9.17,8.47.13,5.34,0,10.69,0,17-9.86-9.87-19-19.05-28.18-28.22-.94-.94-1.64-2.1-3.32-2.08q-9.75.12-19.49,0c-1.77,0-2,.82-2,2.3s.16,2.7,2.19,2.51a23.33,23.33,0,0,1,4.5,0c2.44.24,4.32,1.33,4.33,4.1,0,9.75.11,19.49,0,29.23-.06,3.74-5,8.63-8.46,8.59-2,0-2.55.57-2.57,2.54s.91,2.18,2.51,2.16c7.62,0,15.24,0,22.86,0,1.44,0,3.23.76,3.3-2.09s-1.55-2.52-3.32-2.52c-4.51,0-9.59-4.48-9.72-9-.21-7.56,0-15.13,0-23.51,5.56,5.53,10.58,10.48,15.56,15.47,6.71,6.72,13.46,13.39,20,20.25a5.09,5.09,0,0,0,5.46,1.25c1.74-.49.77-2.57.78-3.89.09-10.5.31-21-.08-31.48-.16-4.28,2.12-7,4.15-10C599.41,483.34,601.71,484.5,603.57,484.44Z" transform="translate(281.39 -154.38)"/><path d="M638.13,532.53a34.8,34.8,0,0,0,14.33-3c9.66-4.56,15.59-11.92,16.12-22.84s-4.36-19.38-14.05-24.45c-11.43-6-23.13-5.75-34.23.85a25.77,25.77,0,0,0-4.55,41C622.07,530.07,629.81,532.34,638.13,532.53Zm-12-40.93c2.16-6,6-8.63,12.12-8.6s10.13,2.79,12,8.79a45.41,45.41,0,0,1,.14,26.55c-1.93,6.59-5.95,9.18-12.85,9-6.12-.13-9.9-3.17-11.8-9.52-1.09-3.63-1.17-7.38-1.39-10.6C624.41,501.63,624.38,496.51,626.16,491.6Z" transform="translate(281.39 -154.38)"/><path d="M-243,531.64c10.53-2.46,18.51-8.3,21.55-19,2.88-10.19.31-19.28-7.6-26.54-6.08-5.58-13.52-7.71-22.52-7.88a51,51,0,0,0-8.73,1.16c-11.43,3-19.94,12.24-21,22.77-1.14,11.88,4.53,22,15.25,27.11A34.45,34.45,0,0,0-243,531.64Zm-20.2-39.2c1.69-6.25,5.75-9.28,11.88-9.44s10.71,2.94,12.67,9A37.18,37.18,0,0,1-237,505.35a37.26,37.26,0,0,1-1.53,12.95c-2,6.4-6,9.17-12.88,9.08-6.22-.09-10.12-3-11.8-9.41A49,49,0,0,1-263.19,492.44Z" transform="translate(281.39 -154.38)"/><path d="M271.38,485.55c-6.61-5.61-14.45-7.54-23.6-7.4-1.95.32-4.57.56-7.1,1.18-11.17,2.73-19.89,12.07-21,22.32-1.26,12,4,22.11,14.82,27.28,11.09,5.3,22.32,5,33-1.13A25.85,25.85,0,0,0,271.38,485.55Zm-9.57,34.09c-2.13,5.27-5.79,7.7-11.57,7.74-6.21,0-10-2.07-11.9-7.68a44.51,44.51,0,0,1,0-29c1.85-5.38,5.8-7.69,11.58-7.69,5.55,0,9.59,2.4,11.72,7.63a23.56,23.56,0,0,1,1.41,4.63,47,47,0,0,1,.91,10.05C263.9,510.18,263.66,515,261.81,519.64Z" transform="translate(281.39 -154.38)"/><path d="M69.16,508.88c.5,0,1,0,1.5,0,6-.33,12-.65,17.46-3.45,5.21-2.66,7.66-6.83,7.28-12.76-.35-5.6-3.53-8.92-8.37-10.86a23.82,23.82,0,0,0-7.23-1.74c-15-.95-30-.21-44.95-.45-1.4,0-1.91.42-2,1.89-.19,2.32.59,2.95,2.91,2.94,6.64,0,7.9,1.3,7.9,7.65v25.48c0,7.64-.81,8.54-8.38,8.77-1.64,0-2.45.24-2.45,2.2s.5,2.56,2.5,2.51c5.25-.14,10.49,0,15.74,0s10.75-.13,16.12.06c2.4.08,2.61-1,2.48-2.91-.21-3.2-2.61-1.64-4-1.7-4.75-.21-7.13-2.29-7-7,.08-3.45-1.55-8,.72-10C61.33,507.78,65.8,509,69.16,508.88Zm-8.54-23c.37-.32.59-.84,1-1.11,2.24-1.52,12.53-.12,15,2,2.92,2.5,3.72,8,1.77,12.13a7.59,7.59,0,0,1-5,4.21,27.88,27.88,0,0,1-5.88.9c-8.93.47-8.93.44-8.93-8.65C59,492.41,57.43,488.68,60.62,485.91Z" transform="translate(281.39 -154.38)"/><path d="M-156.56,482.77c.15-2.81-1-3.24-3.42-3.2-8.87.13-17.74.05-26.61.05-9.12,0-18.24.09-27.36-.06-2.4,0-3,.7-2.84,3,.29,3.46,2.85,1.71,4.25,1.76,5.91.22,7.66,1.85,7.67,7.79q0,13.86,0,27.73a7.73,7.73,0,0,1-1,3.84c-2,3.67-5.21,2.66-8.18,2.71-1.55,0-2.82-.23-2.83,2.18s1,2.52,2.87,2.5c11.62-.07,23.24,0,34.86,0,1.57,0,3.16.45,3.08-2.27-.07-2.29-.64-3.14-3-2.89-1.86.19-3.75-.06-5.62.06-3.34.2-4.83-1.83-5.06-4.64-.3-3.72-.09-7.49,0-11.23,0-.67-.26-1.43.73-1.85,2.24-1,6.33.34,7.68,2.58,1.49,2.45,3,4.86,4.41,7.38a2.69,2.69,0,0,0,3.07,1.47c1.82-.23,1.18-1.66,1.19-2.62q.08-11.06,0-22.12c0-.95.69-2.4-1.07-2.71a2.82,2.82,0,0,0-3.34,1.66c-1.29,2.41-3.07,4.58-4.16,7.07-1.65,3.77-4.86,2.64-7.37,2.32-2.28-.3-1-2.84-1.09-4.35-.21-2.85-.1-5.74-.05-8.61.06-3.8,2.15-5.86,5.93-5.87,4.25,0,8.5.08,12.74-.05a3.43,3.43,0,0,1,3.55,2c2.16,3.93,4.53,7.75,6.69,11.67.77,1.39,1.68,2.19,3.25,1.79s.9-1.86.91-2.81C-156.58,492.26-156.8,487.5-156.56,482.77Z" transform="translate(281.39 -154.38)"/><path d="M793.37,531c1.61,0,2.5-.15,2.45-2.15s-.39-2.79-2.46-2.54a33.26,33.26,0,0,1-4.12,0c-4.77,0-6.86-2.12-6.86-7,0-10.37-.06-20.73.06-31.09,0-1.3-1.3-3.82,1.38-3.79,2.48,0,5.68-1.75,7.18,2.44,2.06,5.73,4.71,11.24,7,16.89a2.44,2.44,0,0,0,2.87,1.68c1.92-.16,1.22-1.6,1.23-2.54,0-6.87-.09-13.74.09-20.6.06-2.52-1-2.81-3.1-2.79-8.12.1-16.24,0-24.35,0s-16,.1-24-.06c-2.49-.05-3.13.69-3.07,3.13.17,6.49,0,13,.12,19.48,0,1.09-1.1,2.83,1.07,3.32s2.71-.91,3.37-2.51c2.32-5.63,4.74-11.23,7.14-16.83,1.42-3.32,4.31-1.33,6.52-1.73,1.83-.33,1.45,1.23,1.46,2.26,0,11.37,0,22.73,0,34.09,0,3.31-2.58,5.58-6,5.6-1.62,0-3.25.09-4.87,0s-2.44.32-2.47,2.24.73,2.46,2.61,2.45C768.9,531,781.13,531,793.37,531Z" transform="translate(281.39 -154.38)"/><path d="M199.48,500.11a45.7,45.7,0,0,0-7.54-2.06c-4.78-.9-9.62-1.47-14.4-2.37-3.19-.59-6.27-1.75-6.21-5.75,0-3.76,2.76-5.44,6-6.19,9-2.08,16.77.32,23,7.15a40.23,40.23,0,0,1,3.14,4.17c.72,1,1.73.89,2.7.75,1.32-.18.88-1.31.88-2.08,0-4.37-.08-8.75.07-13.12.07-2-.84-2.17-2.44-2.15a3.37,3.37,0,0,0-2.75,1.65c-1.5,2-3,2.22-5.33,1.08a32.86,32.86,0,0,0-19-2.68c-8.57,1.17-14.52,7.06-15.24,15-.73,8.19,3.2,13.59,12.11,16.46a48.09,48.09,0,0,0,6.15,1.54c5.52,1,11.07,1.82,16.57,2.86,2.45.47,4.48,1.67,4.8,4.51a6.48,6.48,0,0,1-3.12,6.38,15,15,0,0,1-10,2.28c-9.44-.78-16.95-4.84-21.3-13.59a2.59,2.59,0,0,0-3.22-1.67c-1.65.38-.79,1.84-.84,2.78-.14,2.24-.05,4.5-.05,6.75,0,2.62.14,5.25,0,7.87s1.52,2.47,3.06,1.94a6.82,6.82,0,0,0,2.56-2.1c1.59-1.81,3-2.08,5.4-1,7.12,3.31,14.59,5,22.52,3.18,7.25-1.7,12.51-7.32,13.07-14.08C210.82,508.53,207.67,503.19,199.48,500.11Z" transform="translate(281.39 -154.38)"/><path d="M3.06,531.06c2.36,0,2.92-.67,2.87-2.95-.15-7,0-14-.11-21,0-1.17,1-2.92-1.09-3.45s-2.79,1-3.62,2.43c-3.29,5.73-6.73,11.37-9.9,17.17a4.41,4.41,0,0,1-4.69,2.66c-3.86-.19-7.74,0-11.62-.06s-5.75-1.75-5.76-5.52c0-10,0-20-.05-30a6.75,6.75,0,0,1,1.48-4.05c2.33-3.44,5.71-1.53,8.59-1.85,1.81-.2,3-.14,2.93-2.55,0-2.24-1.06-2.31-2.75-2.3-11.25,0-22.5.15-33.75-.05-3.42-.06-3.06,2-2.58,3.82.53,2,2.55.91,3.86.95,5.42.14,7.25,1.91,7.25,7.41q0,12.94,0,25.87c0,7.26-1.32,8.64-8.52,8.76-1.57,0-2.8-.18-2.83,2.19s1.06,2.49,2.91,2.48c9.5-.07,19,0,28.5,0S-6.56,530.92,3.06,531.06Z" transform="translate(281.39 -154.38)"/><path d="M507.39,531.05c2.14,0,2.69-.6,2.66-2.7-.13-7.36,0-14.74-.09-22.11,0-.92.74-2.38-1.11-2.61a2.73,2.73,0,0,0-3.05,1.56c-1.49,2.74-3.09,5.41-4.68,8.09-2.48,4.15-4.07,9.9-7.73,12s-9.48.59-14.34.61c-3.93,0-5.78-1.86-5.79-5.89,0-9.74,0-19.48,0-29.23a7.15,7.15,0,0,1,1.5-4.41c2.36-3.39,5.7-1.63,8.59-1.89,1.88-.17,2.92-.26,2.9-2.6s-1.24-2.25-2.85-2.24c-11.24,0-22.49.11-33.73-.06-2.66,0-2.8,1.16-2.64,3.14.27,3.17,2.67,1.55,4,1.6,5.49.2,7.25,1.85,7.25,7.41v26.23c0,7-1.33,8.37-8.41,8.42-1.79,0-2.93,0-2.94,2.44,0,2.79,1.64,2.2,3.15,2.2q14,0,28.1,0C487.9,531,497.64,530.93,507.39,531.05Z" transform="translate(281.39 -154.38)"/><path d="M-54.08,621.73c-2-.53-1.87,1.52-2.37,2.65-2.54,5.71-6.93,8.48-12.62,8-1.9-.15-3.08-.8-3.06-2.91,0-3.24.1-6.5,0-9.74-.08-2,.94-1.94,2.33-1.74A5.62,5.62,0,0,1-65,622.15c.31.91.63,2,2,1.67s.73-1.41.75-2.17a62.38,62.38,0,0,0,0-7.49c-.15-1.58,1.21-4-.83-4.61s-1.83,2.16-2.76,3.31c-1.4,1.74-3.23,2.65-5.23,2.18s-.74-2.5-.94-3.81c-.23-1.46.08-3-.08-4.48-.42-3.65,1.49-4.62,4.68-4.38,5.35.39,8.66,3.36,10.47,8.23.39,1.07.67,2.32,2.19,2s.75-1.65.77-2.5c.06-2.62-.15-5.25-.05-7.87.07-1.82-.61-2.35-2.38-2.34-13,0-26,0-39,0-.77,0-1.91-.46-2.1.85-.24,1.58,1.07,1.33,2,1.51,2.4.47,3,2,2.29,4.13-1.74,5.21-3.5,10.41-5.61,16.66-1.78-6.29-3.15-11.57-4.79-16.76-.78-2.46-.55-3.92,2.29-4.1,1-.07,1.77-.22,1.59-1.46s-1-.84-1.73-.84c-4.37,0-8.75,0-13.12,0-.68,0-1.61-.31-1.86.72s.5,1.44,1.43,1.72c1.47.44,2.08,1.76,2.51,3.06,2.07,6.37-2.5,11.11-3.72,16.69-1.9-5.25-3.41-10.39-4.83-15.55-.51-1.87-1.54-4.11,1.86-4.4a1.11,1.11,0,0,0,1.08-1.25c0-1.08-.9-1-1.64-1q-6.36,0-12.74,0c-.57,0-1.32-.12-1.48.73a1.28,1.28,0,0,0,1,1.66c2.27.64,2.83,2.57,3.38,4.54,2.23,8.17,4.44,16.35,6.83,24.47.44,1.5,0,3.85,3,3.93,2.86.08,2.84-2,3.41-3.59,2-5.56,3.83-11.18,5.72-16.78l.77,0c1.66,5.91,3.31,11.84,5,17.74.36,1.23.41,2.65,2.46,2.63a2.85,2.85,0,0,0,3.17-2.34c1.24-3.91,2.64-7.77,4-11.65,1.89-5.4,3.75-10.81,5.71-16.2,1-2.75,3.24-3.15,5.82-2.77S-81,604.6-81,606.71c0,7.24,0,14.49,0,21.74,0,2-.23,3.69-2.65,4.21-.81.17-2.35-.19-2.15,1.39.22,1.75,1.75,1,2.72,1,8.12.06,16.24,0,24.36,0,5.14,0,5.14,0,5.33-5.31A39.47,39.47,0,0,0-53.3,625C-53.39,623.85-52.39,622.17-54.08,621.73Z" transform="translate(281.39 -154.38)"/><path d="M110.73,531c1.64,0,2.46-.24,2.47-2.2s-.69-2.49-2.59-2.5c-3.82,0-6.29-4.4-4.93-8s3.29-6.18,7.85-5.27a18.06,18.06,0,0,0,6.35,0c4.53-.74,6.83,1.07,8.64,5.28,3.23,7.54,3.36,7.81-4.69,8-2,0-2.52.56-2.53,2.52s.77,2.22,2.43,2.19c5-.09,10,0,15,0s10.25,0,15.37,0c1.41,0,2.48-.09,2.29-1.94-.13-1.31.31-2.45-1.88-2.82-3.55-.61-6.81-2.1-8.64-5.71-6.48-12.77-13.05-25.5-19.61-38.23-.8-1.56-1-3.45-3.67-3.55-2.86-.11-3.18,1.92-4,3.58C113.1,493.13,107.78,504,102.2,514.7c-2.68,5.17-5.33,10.55-12.07,11.75-1.79.32-.66,2.09-.84,3.17-.27,1.6,1,1.37,1.95,1.37C97.74,531,104.23,531,110.73,531Zm6.43-36c2.18,4.66,4.07,8.68,6.13,13.09H110.77Z" transform="translate(281.39 -154.38)"/><path d="M192.26,621.7c-1.87-.54-1.81,1.27-2.25,2.28-2.63,6.11-6.82,8.85-12.7,8.41-2.13-.16-3.23-1-3.19-3.22,0-2.62-.08-5.25,0-7.87.05-1.12-.85-2.73.76-3.27a4.68,4.68,0,0,1,3.92.77,6.29,6.29,0,0,1,2.46,3.22c.36,1,.56,2.1,1.91,1.78s.86-1.62.89-2.52a56.28,56.28,0,0,0,0-6.75c-.17-1.7,1.18-4.26-1-4.95s-1.63,2.3-2.73,3.33c-.36.34-.64.77-1,1.08a4.61,4.61,0,0,1-4.56,1c-1.4-.56-.52-2.2-.61-3.34-.13-1.74.07-3.5-.06-5.24-.21-3,1.23-4,4-4,5.74.07,9.26,3.09,11.25,8.24.39,1,.59,2.41,2.16,2,1.32-.38.84-1.66.83-2.58,0-2.61-.23-5.23-.2-7.85,0-1.76-.6-2.35-2.4-2.3-4.5.13-9,0-13.49,0-8.25,0-16.5,0-24.75,0-.77,0-1.85-.45-2.17.74a1.07,1.07,0,0,0,1.08,1.51c3.86.32,3.14,2.94,2.36,5.21-1.92,5.52-4.05,11-6.48,17.51-2.22-6.81-4.07-12.59-6-18.35-.84-2.53-.9-4.49,2.62-4.38.9,0,1.41-.41,1.36-1.34s-.7-.91-1.34-.91H128c-.69,0-1.24.18-1.2,1,0,.66.17,1.2,1,1.22,3,.06,3.47,2.46,4.15,4.57q4.22,13,8.32,26c.48,1.53,1,2.58,3,2.55s2.52-.9,3.06-2.47c1.68-4.82,3.49-9.6,5.26-14.39,1.64-4.43,3.26-8.87,5-13.28,1.13-2.91,3.6-3.18,6.23-2.81,2.79.39,2.6,2.58,2.6,4.59,0,7.25,0,14.5,0,21.75,0,2.1-.48,3.64-2.88,4.06-.8.14-2.28-.17-2.07,1.46s1.52,1,2.37,1c8,0,16,0,24,0,5.81,0,5.81,0,6.08-5.65.08-1.62.27-3.25.21-4.86C193.05,623.61,193.79,622.14,192.26,621.7Z" transform="translate(281.39 -154.38)"/><path class="a" d="M532.51,632.77c-2.82-.29-3.21-2.11-3.17-4.52q.15-10.87,0-21.75c0-2.41.36-4.27,3.28-4.33.84,0,1.49-.26,1.46-1.24,0-1.41-1.16-1-1.94-1-3.25,0-6.52.2-9.74-.08-2.66-.23-3.62.77-4.3,3.23-1.8,6.51-3.93,12.92-6.19,20.2-2.31-7.57-4.37-14.22-6.35-20.91-.41-1.4-.67-2.55-2.57-2.49-3.87.12-7.75,0-11.62,0-.72,0-1.57-.11-1.6,1s.55,1.28,1.42,1.27c3,0,3.24,1.94,3.21,4.3q-.11,10.31,0,20.62c0,2.58-.34,4.76-3.3,5.49-.9.22-1.68.61-1.4,1.77s1.14.77,1.83.77c3.12,0,6.25,0,9.37,0,.72,0,1.58.19,1.86-.78.36-1.24-.58-1.54-1.44-1.7-2.67-.51-3.84-2.32-3.87-4.79-.09-7.25,0-14.5,0-21.75,3.29,8.7,6,17.48,8.54,26.28.5,1.7.92,2.8,3.13,2.84s2.6-1.37,3.08-2.91l7.83-25.2h.86q0,11.22,0,22.44a2.92,2.92,0,0,1-2.6,3.12c-.76.18-1.93,0-1.83,1.37s1.13,1.08,2,1.08q6.93,0,13.87,0c.69,0,1.57.22,1.78-.83C534.32,633,533.41,632.86,532.51,632.77Z" transform="translate(281.39 -154.38)"/><path d="M578.78,632.8c-2.92-.32-3.48-2.18-3.44-4.76q.15-10.68,0-21.35c0-2.62.57-4.46,3.58-4.55.85,0,1.48-.34,1.41-1.3s-1-1-1.68-1c-3.62,0-7.25.09-10.86,0-1.95-.08-2.78.52-3.33,2.5-1.87,6.66-4,13.25-6.07,19.88-1.19-.41-1-1.42-1.29-2.21-1.83-6-3.64-11.9-5.5-17.83-.3-1-.17-2.33-1.86-2.31-4.12,0-8.24,0-12.36,0-.61,0-1.32,0-1.42.81a1.13,1.13,0,0,0,1.25,1.43c3.14,0,3.48,2,3.44,4.58q-.12,10.11,0,20.23c0,2.74-.52,5-3.59,5.72-.71.17-1.48.35-1.4,1.39.12,1.38,1.17,1.05,2,1.06,3.12,0,6.25,0,9.37,0,.75,0,1.83.46,2-1s-.87-1.31-1.66-1.52c-2.14-.57-3.57-1.71-3.57-4.13V606.54c3.18,8.52,5.74,17.16,8.3,25.8.46,1.54.75,2.94,3.08,2.88s2.62-1.16,3.13-2.85c2.68-8.76,5.46-17.5,8.21-26.24l.53.14c0,7.49-.06,15,0,22.47,0,2.23-.62,3.61-2.91,4-.84.14-1.81.17-1.6,1.49s1.32.88,2.06.89c4.62,0,9.24,0,13.86,0,.83,0,1.86.21,1.88-1.15C580.35,632.87,579.49,632.88,578.78,632.8Z" transform="translate(281.39 -154.38)"/><path class="a" d="M358,632.79c-2.7-.33-3.32-2-3.28-4.47.11-7.25.09-14.5,0-21.75,0-2.42.43-4.25,3.28-4.41.81,0,1.55-.19,1.56-1.18,0-1.42-1.11-1.08-1.9-1.09-2.37,0-4.75,0-7.12,0s-4.5-.06-6.75,0c-.86,0-2.21-.57-2.36,1-.11,1.24,1,1.2,1.84,1.29,2,.22,2.67,1.46,2.62,3.37-.07,2.62-.07,5.25,0,7.87,0,1.43-.46,1.85-1.91,2-9.12.86-9.16.86-9.12-8.36,0-2.3-.25-4.71,3.05-4.92a1.08,1.08,0,0,0,1.16-1.14c.05-1.11-.75-1.11-1.51-1.11-5,0-10,0-15,0-.59,0-1.3,0-1.39.85s.42,1.38,1.31,1.39c3.3.06,3.69,2.19,3.66,4.86-.08,6.87-.11,13.75,0,20.62,0,2.84-.4,5-3.77,5.24-.64,0-1.22.24-1.23,1.07,0,1,.67,1.2,1.47,1.2h15c.62,0,1.27,0,1.43-.82s-.23-1.41-1.14-1.52c-2.85-.33-3.15-2.29-3.06-4.62.09-2.5.13-5,0-7.5-.11-2,.29-2.81,2.58-2.85,8.46-.15,8.46-.25,8.46,8.15,0,.75-.06,1.51,0,2.25.22,2.37-.21,4.26-3.06,4.58-.76.08-1.5.26-1.42,1.31s.94,1,1.65,1c4.88,0,9.75,0,14.63,0,.89,0,1.85.11,1.88-1.19C359.59,632.86,358.7,632.88,358,632.79Z" transform="translate(281.39 -154.38)"/><path d="M-10.12,616.24c5.11-2.07,6.67-4.16,6.36-8.37-.27-3.64-2.74-6.13-7.33-7.37a9.4,9.4,0,0,0-2.19-.46q-9.92-.12-19.83-.15c-.71,0-1.61-.17-1.7.92-.07.93.49,1.31,1.38,1.34,3.11.09,3.47,2.15,3.45,4.65-.05,7-.08,14,0,21,0,2.65-.35,4.78-3.53,5.07-.85.08-1.48.38-1.31,1.36.13.72.68,1,1.38.93,8-.3,16,.91,23.89-.77,6-1.28,9.09-6.89,7.25-12.23C-3.56,618.46-6.93,617.52-10.12,616.24Zm-9.26-13.73a4.9,4.9,0,0,1,5.54,2.18,7.17,7.17,0,0,1,.31,7.77c-1.53,2.68-4.31,2.6-6.89,2.9-1.29.15-1.34-.74-1.33-1.67,0-1.37,0-2.74,0-4.11,0-.87,0-1.75,0-2.61C-21.85,605-21.69,603.07-19.38,602.51Zm1.4,29.9c-2.51,0-3.72-1.12-3.76-3.57,0-2.61.16-5.25-.06-7.85s.63-3.75,3-3.12c5.51.1,8.22,2.82,8.2,7.9C-10.65,630-13.48,632.42-18,632.41Z" transform="translate(281.39 -154.38)"/><path class="a" d="M123.24,621.71c-1.84-.33-1.64,1.55-2.09,2.56-2.61,5.82-6.79,8.5-12.53,8.13-2.16-.14-3.24-1-3.23-3.2,0-2.63-.09-5.25,0-7.87,0-1.12-.82-2.75.77-3.28a4.67,4.67,0,0,1,4.23,1,7,7,0,0,1,2.21,3.4c.31.85.75,1.64,1.87,1.4,1.29-.27.83-1.36.85-2.13a64.52,64.52,0,0,0,0-7.49c-.14-1.58,1.22-4-.91-4.62s-1.78,2.2-2.76,3.32c-1.44,1.66-3.22,2.66-5.25,2.12s-.78-2.53-1-3.85.06-3-.07-4.49c-.29-3.31,1.29-4.47,4.44-4.32,5.39.26,8.74,3.15,10.71,7.95.45,1.1.51,2.76,2.31,2.21,1.48-.46.75-1.93.76-2.92,0-2.62-.16-5.24-.19-7.85,0-1.18-.28-1.88-1.65-1.87-9.49,0-19,0-28.48,0-.7,0-1.59-.09-1.6,1s.68,1.2,1.5,1.23c3.06.11,3.52,2.05,3.49,4.61q-.12,10.88,0,21.73c0,2.35-.68,3.85-3.14,4.27-.77.13-2-.1-1.84,1.27.13,1.6,1.44,1.06,2.31,1.07,4.62,0,9.24,0,13.86,0h6.37c10.2,0,10.24,0,10.1-10.08C124.31,623.91,125.33,622.07,123.24,621.71Z" transform="translate(281.39 -154.38)"/><path class="a" d="M392.85,621.69c-1.78-.36-1.77,1.29-2.23,2.39-2,4.87-5.34,8.07-10.9,8.29-4.39.17-4.84-.28-4.85-4.81,0-2.62.07-5.25,0-7.87-.06-1.56.57-1.88,2-1.74,2.9.3,4.39,2.06,5.26,4.62.3.89.83,1.55,1.92,1.24s.69-1.19.7-1.85c0-3.62,0-7.25,0-10.87,0-.69.21-1.55-.9-1.7a1.54,1.54,0,0,0-1.72,1.12c-.3.68-.58,1.38-.94,2a4.64,4.64,0,0,1-5.37,2.47c-1.92-.47-.62-2.52-.9-3.84a12.71,12.71,0,0,1,0-2.62c0-6.16,2.06-7.57,8-5.53A11.29,11.29,0,0,1,389,608.3a24.91,24.91,0,0,1,1.28,3.1,1.61,1.61,0,0,0,2,1.17c1-.27.72-1.17.72-1.84,0-2.87-.08-5.74-.11-8.61,0-1.46-.47-2.28-2.18-2.27-9.37.06-18.74,0-28.11,0-.7,0-1.6-.12-1.66,1s.59,1.26,1.44,1.27c3.28,0,3.71,2.09,3.67,4.8-.1,7.12-.11,14.24,0,21.36,0,2.52-.64,4.09-3.3,4.47-.77.11-1.95-.08-1.82,1.29.15,1.6,1.47,1,2.33,1.05,4.63,0,9.25,0,13.87,0s9.25-.06,13.87,0c1.82,0,2.77-.3,2.67-2.43-.14-2.74.12-5.49,0-8.24C393.68,623.53,394.47,622,392.85,621.69Z" transform="translate(281.39 -154.38)"/><path class="a" d="M32.8,621.66c-1.66-.22-1.56,1.32-2,2.24-2.59,5.93-6.24,8.48-11.88,8.51-2.8,0-4.23-.94-4.1-3.89.09-2.37-.07-4.75.05-7.12.06-1.14-.79-2.8.64-3.34a4.87,4.87,0,0,1,4.57,1,7.09,7.09,0,0,1,2.15,3.44c.35,1,.78,1.57,1.86,1.26s.72-1.18.73-1.85c0-2.75.16-5.51,0-8.24-.11-1.43,1.19-3.65-1-4.18-2-.49-1.57,2.12-2.55,3.1A16.44,16.44,0,0,1,20.1,614a4.8,4.8,0,0,1-4.58,1c-1.39-.53-.53-2.2-.61-3.34-.13-1.74,0-3.5-.05-5.24-.17-3.17,1.51-4.16,4.39-4.06,5.76.2,9.1,3.42,11,8.55.34.9.58,2,2,1.67s.83-1.36.83-2.14c0-2.74-.16-5.48-.12-8.23,0-1.7-.5-2.39-2.35-2.37-9.11.08-18.22,0-27.33,0-.77,0-1.92-.43-2.08.9s.8,1.35,1.72,1.38c2.66.07,3.25,1.7,3.23,4-.06,7.49-.09,15,0,22.47,0,2.43-.83,3.76-3.25,4.1-.82.11-1.93,0-1.72,1.39s1.26,1,2.09,1H17.5c2,0,4,.08,6,0,3.33-.16,8,1.47,9.63-.65s.69-6.65.71-10.12C33.84,623.42,34.63,621.91,32.8,621.66Z" transform="translate(281.39 -154.38)"/><path d="M469.11,599.25a18.09,18.09,0,0,0-18,18.15c0,10,8.2,18.32,17.95,18.23a18.19,18.19,0,0,0,0-36.38Zm8,18.11c0,3.62-.12,7.21-1.5,10.65-1.22,3-3.14,5-6.64,5a6.4,6.4,0,0,1-6.45-4.75,33.24,33.24,0,0,1,.09-22,6.43,6.43,0,0,1,6.58-4.59c3,.07,5.07,1.86,6.25,4.62C477,609.88,477.17,613.6,477.12,617.36Z" transform="translate(281.39 -154.38)"/><path class="a" d="M269.09,599.89c-3.25,0-6.49,0-9.74,0-.77,0-1.91-.36-1.93,1.05,0,1.24,1,1.18,1.82,1.38,1.45.34,3.25.69,3.3,2.51.14,5.84,0,11.69,0,18.41-5.42-7.56-10.26-14.34-15.13-21.1-.77-1.06-1.31-2.37-3.08-2.31-3.12.11-6.24,0-9.36,0-.68,0-1.58-.25-1.72.85s.61,1.4,1.6,1.43c3,.06,3.53,2,3.5,4.58-.08,7.11-.11,14.23,0,21.35.05,2.64-.61,4.38-3.48,4.71-.72.08-1.57.09-1.53,1.18.05,1.36,1.09,1.12,1.91,1.12,3.12,0,6.25.07,9.36,0,.95,0,2.52.72,2.62-1.11.08-1.61-1.44-1.08-2.25-1.22-2.2-.39-3.71-1.14-3.68-3.78.09-6.58,0-13.17,0-20.8,1.15,1.52,1.67,2.19,2.17,2.87,5.4,7.49,10.85,14.93,16.14,22.49,1.4,2,3.22,1.76,5,1.5,2.08-.3,1.13-2.2,1.14-3.36q.14-12,0-24c0-2.73.23-5.06,3.59-5.47.94-.12,1.24-.74,1.11-1.59S269.66,599.9,269.09,599.89Z" transform="translate(281.39 -154.38)"/><path class="a" d="M653.8,599.89c-3,0-6,0-9,0-.76,0-1.88-.44-2,.94-.13,1.19.69,1.34,1.64,1.5,1.8.32,3.51,1,3.54,3.18.07,5.66,0,11.32,0,18.06-6-8.41-11.27-15.9-16.57-23.4-3.62-.06-7.24-.08-10.85-.2-1.71-.06-2.34.51-1.65,2.18,3.58-.32,4.85,1.35,4.76,4.87-.17,7-.1,14,0,21,0,2.52-.44,4.48-3.41,4.77-.9.09-1.81.24-1.54,1.51.21,1.05,1.09.83,1.78.83,3.37,0,6.74,0,10.12,0,.85,0,1.88.19,2-1.09s-1.09-1.19-1.85-1.22c-3.54-.12-4.21-2.22-4.12-5.29.15-5.24,0-10.49.07-15.73,0-.85-.56-2,.73-2.64.39.52.75,1,1.1,1.48,5.33,7.39,10.75,14.71,15.91,22.2a4.75,4.75,0,0,0,5.36,2.24c2.51-.52,1.14-2.68,1.17-4,.14-8,.11-16,0-24,0-2.39.49-4.25,3.13-4.74,1-.18,1.67-.48,1.46-1.63S654.49,599.89,653.8,599.89Z" transform="translate(281.39 -154.38)"/><path class="b" d="M-165.82,617.24q-26,0-52.08,0t-52.07,0c-1.95,0-4.09-.12-4.07,2.56s2.17,2.58,4.1,2.58q52.08,0,104.16,0c1.95,0,4.16,0,4.27-2.45C-161.38,617.09-163.76,617.24-165.82,617.24Z" transform="translate(281.39 -154.38)"/><path class="b" d="M878.54,617.25H777.83c-1.62,0-3.24,0-4.87,0a2.36,2.36,0,0,0-2.53,2.24,2.48,2.48,0,0,0,2.35,2.83,13.92,13.92,0,0,0,2.24,0H878.35c2,0,4.42.38,4.53-2.52S880.52,617.25,878.54,617.25Z" transform="translate(281.39 -154.38)"/><path class="a" d="M711.92,602c.08-2-.77-2.21-2.42-2.18-4.61.08-9.23,0-13.85,0-2.37,0-4.75-.07-7.12,0-3.09.12-7-1.29-9,.55s-.42,5.66-.64,8.62c-.08,1.07-.94,2.71.73,3.22,2,.61,2-1.21,2.49-2.46,1.05-2.89,2.59-5.4,5.53-6.73,2.23-1,3.67-1.13,3.58,2.17-.17,7.24-.15,14.49,0,21.72.07,3.24-.33,5.79-4.33,5.86-.8,0-1.49.17-1.42,1.22s.84,1.06,1.6,1.06h16.48c.74,0,1.59.12,1.8-.87.28-1.32-.73-1.37-1.6-1.44-3.19-.25-4.05-2.08-4-5.07.15-7.49.13-15,0-22.48-.05-2.5.42-3.44,3.08-2.39,3.66,1.43,5.19,4.44,6.36,7.81.34,1,.57,2,2,1.66,1.22-.27,1-1.24,1-2.08C712.06,607.51,711.81,604.77,711.92,602Z" transform="translate(281.39 -154.38)"/><path class="a" d="M319.67,602.12c.07-1.85-.58-2.32-2.34-2.28-4.74.11-9.49,0-14.23,0H296c-9.72,0-9.74,0-9.44,9.86,0,.91-.78,2.41,1.06,2.62,1.56.17,1.62-1.07,2-2.15,1.2-3.2,2.73-6.11,6.34-7.36,2.08-.72,3-.49,2.94,1.95-.08,7.86,0,15.73,0,23.59,0,2.45-.82,4.06-3.49,4.38-.81.1-2.28-.43-2.21,1.24s1.4,1.1,2.27,1.1c5.12,0,10.23,0,15.35,0,.91,0,2.19.42,2.26-1.16.05-1.39-1.2-1.11-1.93-1.18-2.8-.31-3.72-1.8-3.67-4.55.12-7.74.14-15.48,0-23.22-.05-2.61.78-3,3-2.14,3.62,1.4,5.28,4.33,6.38,7.78.29.92.54,2,2,1.72s1.09-1.48,1.08-2.4C319.83,607.35,319.58,604.73,319.67,602.12Z" transform="translate(281.39 -154.38)"/><path class="a" d="M606.75,599.9c-.83,0-2.18-.61-2.22,1.11,0,1.3,1,1.16,1.83,1.32,2.18.42,3.58,1.42,3.54,4-.1,6.37.08,12.75-.12,19.11-.16,5.08-3.18,7.68-8.25,7.6-4.71-.06-7.34-2.85-7.39-8-.06-6.12,0-12.24,0-18.37,0-2.62.67-4.43,3.65-4.51.77,0,1.53-.07,1.57-1.11.06-1.41-1-1.16-1.82-1.17H582.88c-.72,0-1.57-.12-1.61,1s.53,1.28,1.41,1.28c3.14,0,3.51,2,3.47,4.53-.09,5.87-.12,11.74,0,17.62.13,6.68,3.17,10,9.79,11a24.24,24.24,0,0,0,7.46-.05c5.91-.89,9.13-4.27,9.32-10.28s.26-11.75.1-17.61c-.09-3.23,1-5,4.29-5.23l.12-2.15C613.74,600,610.24,599.88,606.75,599.9Z" transform="translate(281.39 -154.38)"/><path class="a" d="M66.66,621.41a1.25,1.25,0,0,0-1.46.84A29,29,0,0,1,64,625.37c-1.73,3.45-4,6.38-8.13,7-2.7.39-4.27-.43-4.23-3.56.11-7.61,0-15.22,0-22.83,0-2.18.71-3.65,3.12-3.77.9,0,1.89-.07,1.82-1.3s-1.21-1-2-1q-7.31,0-14.6,0c-.78,0-1.93-.38-2,1s.9,1.28,1.8,1.32c2.4.11,3.15,1.56,3.14,3.75,0,7.61,0,15.22,0,22.83,0,2.2-.69,3.58-3,4-.87.15-2.28-.06-1.93,1.56.26,1.22,1.36.84,2.17.84,4.24,0,8.48,0,12.73,0s8.23,0,12.35,0c.9,0,2.2.43,2.24-1.16.09-3.74.11-7.49.15-11.23C67.63,622.05,67.46,621.47,66.66,621.41Z" transform="translate(281.39 -154.38)"/><path class="a" d="M744.24,599.89c-3,0-6,0-9,0-.69,0-1.59-.27-1.8.78s.49,1.42,1.49,1.54c2.76.34,3.23,1.84,2,4.18-1.55,3.05-3,6.13-4.77,9.69-2-3.86-3.74-7.29-5.57-10.65-1.08-2-.74-3.09,1.61-3.24,1-.06,1.75-.3,1.54-1.5s-1.09-.8-1.78-.8c-3.37,0-6.74-.13-10.1,0-1.64.08-4-1-4.79.67-1,2.24,2.53,1.34,3,2.94,0,.11.19.18.24.29,3.63,7.47,9.58,14,8.85,23.24-.25,3.26-.52,5.7-4.43,5.79-.72,0-1.53-.08-1.54,1.07,0,1.37,1,1.2,1.81,1.2h16.09c.87,0,1.88.14,1.9-1.16s-1.18-1-1.92-1.18c-1.42-.38-3.43-.37-3.52-2.18-.19-4-1.16-8.2.75-12.12s4-8,5.91-12.06c1-2,2.12-3.69,4.46-4.09,1-.16,1.77-.37,1.58-1.55S745,599.91,744.24,599.89Z" transform="translate(281.39 -154.38)"/><path class="a" d="M445.47,621.15c-1.28-.1-1.3.81-1.4,1.71a15,15,0,0,1-.37,2.21c-1.37,5.11-4.83,7.87-9.93,8s-8.26-2.3-9.67-7.6a31.43,31.43,0,0,1,.17-17c1-3.65,3.14-6.31,7.14-6.66a9,9,0,0,1,8.83,4.49,46.52,46.52,0,0,1,2.69,5.32c.35.77.72,1.22,1.63,1.16,1.19-.08.91-1,.93-1.64,0-1.5,0-3,0-4.49s0-3,0-4.5c.07-2.43-1.22-2.72-2.63-1.3s-2.61.68-3.93.1A17.08,17.08,0,0,0,428,599.58a18.54,18.54,0,0,0-13.65,23.63c2.87,9.67,13.91,15,23.85,11.52a12.36,12.36,0,0,0,8.4-11.64C446.59,622.26,446.8,621.24,445.47,621.15Z" transform="translate(281.39 -154.38)"/><path class="a" d="M674.87,632.76c-2.44-.3-3.29-1.74-3.27-4.13.08-7.5,0-15,0-22.5,0-2.32.69-3.92,3.32-4,.8,0,1.51-.13,1.53-1.16,0-1.45-1.05-1.12-1.85-1.12-4.87,0-9.74,0-14.62,0-.77,0-1.91-.4-2.07.92s.85,1.3,1.74,1.36c2.58.19,3.29,1.75,3.23,4.1-.09,3.75,0,7.5,0,11.25,0,3.5-.1,7,0,10.5.1,2.59-.5,4.43-3.41,4.78-.71.08-1.58.05-1.59,1.13,0,1.36,1,1.18,1.86,1.19h15c.7,0,1.55.18,1.71-.91C676.67,632.9,675.75,632.87,674.87,632.76Z" transform="translate(281.39 -154.38)"/><path class="a" d="M87.64,632.77c-2.72-.29-3.32-2-3.29-4.48.09-7.24.06-14.49,0-21.74,0-2.37.32-4.31,3.27-4.37,1,0,1.75-.25,1.57-1.47s-1.08-.82-1.76-.82q-7.5,0-15,0c-.69,0-1.6-.21-1.76.85s.4,1.38,1.29,1.39c3.31.06,3.7,2.18,3.67,4.86-.08,6.74-.1,13.5,0,20.24,0,2.88-.12,5.34-3.77,5.61-.88.07-1.39.48-1.2,1.45.16.81.82.82,1.43.82,2.63,0,5.25,0,7.88,0,2.37,0,4.75,0,7.12,0,.77,0,1.85.46,2.1-.87S88.54,632.86,87.64,632.77Z" transform="translate(281.39 -154.38)"/><path class="a" d="M229.61,632.8c-2.93-.23-3.55-2.07-3.51-4.67.09-7.13.07-14.25,0-21.38,0-2.5.3-4.57,3.46-4.59.87,0,1.44-.3,1.41-1.27s-.88-1-1.6-1h-7.5c-2.5,0-5,0-7.5,0-.77,0-1.91-.36-2,1,0,1,.69,1.19,1.5,1.22,3.07.11,3.51,2.07,3.48,4.63-.08,7-.1,14,0,21,.05,2.69-.39,4.73-3.55,5-.76.08-1.51.19-1.45,1.26s.88,1,1.62,1q7.68,0,15.37,0c.74,0,1.52.08,1.59-1S230.42,632.87,229.61,632.8Z" transform="translate(281.39 -154.38)"/><path class="c" d="M437.61,429.39c.17,3.39,1.8,4.64,4.85,4.72a17.12,17.12,0,0,0,3.36-.05c1.43-.25,3.44-.22,3.79-1.85.43-2-1.78-2-3-2.67-1-.62-2.55-.88-2.64-2.37-.1-1.72,1.51-1.69,2.61-2.11,1.31-.51,2.56-1.09,2.64-2.78.07-1.5-.94-2.23-2.05-2.86-1.37-.78-3.26-1.08-3.26-3.16,0-2.26,2-2.58,3.53-3.34s3.24-1.55,3.14-3.72c-.09-1.95-1.54-2.71-3.1-3.34-1.25-.5-2.83-.77-2.85-2.51,0-2.1,1.89-2,3.21-2.48,1.51-.55,3.45-.72,3.38-2.84s-1.57-3-3.37-3.53c-1.5-.47-3.61-.58-3.59-2.63,0-1.88,2.1-1.86,3.43-2.35,1.52-.56,3.46-.72,3.65-2.69.22-2.25-1.89-2.63-3.44-3.33-1.31-.6-3.1-.66-3.25-2.59s1.52-2.38,2.73-3.19c3.48-2.31,3.61-4,.51-6.18-1.37-1-3.65-1.41-3.19-3.61.41-2,2.58-1.55,4.08-1.88,1.31-.29,2.42-.74,2.65-2.21s-.74-2-1.73-2.62c-.42-.26-.89-.45-1.32-.69-4.19-2.4-4.24-3.95-.21-6.48,3.27-2.06,3.27-3.9,0-5.63-1.38-.73-3.46-.89-3.46-2.92,0-2.35,2.26-1.84,3.67-2.32,1.59-.54,3-1.36,1.88-3.17-2.2-3.45-5.88-2.63-9.16-2.6-3,0-2.69,2.58-2.7,4.42-.09,14.36,0,28.71,0,43.07h-.12c0,4.73,0,9.47,0,14.21C438.29,409.21,437.12,419.28,437.61,429.39Z" transform="translate(281.39 -154.38)"/><path class="c" d="M501.36,387.37c-1-1.79-2.68-2.37-4.95-1.4,8,14.9,7.78,29.66-.83,44.49,3.17-.19,5.68-1.59,8.5-.34,4.49,2,4.57,1.81,3.89-3.11-.62-4.51.88-7.18,4.35-7.63,1.46-.19,3.21.08,3.43-2,.18-1.77-1.14-2.59-2.49-3.37s-3.5-.72-3.21-3c.23-1.86,1.81-2.11,3.37-2.3,1.71-.21,2.15-1.65,2.3-3s-.91-1.84-2-2.35c-5.53-2.57-5.54-2.66-1.69-7.42.9-1.1,1.75-2.31,1.12-3.72s-2.11-1-3.3-.86C506.15,391.83,503.26,390.83,501.36,387.37Z" transform="translate(281.39 -154.38)"/><path class="d" d="M494.14,363.9c-.25.88-1.24,1.93,0,2.63a2.71,2.71,0,0,0,2.87-.14,11.28,11.28,0,0,0,2.62-2.63c1.27-1.91,2.67-2.75,5-1.82,1.13.45,2.87,1.52,3.69-.06.91-1.74-.84-2.55-2.07-3.42-3.33-2.34-3.5-5.38-.22-7.86,1.88-1.42,3.47-2.88,2.12-5.2s-3.11-.57-4.62,0c-2.81,1.07-4.24.17-4.73-2.76-.92-5.46-2-6.26-7.63-5.76C497.48,348.51,497.76,351.31,494.14,363.9Z" transform="translate(281.39 -154.38)"/><path class="c" d="M-231.9,434.27c-1.25-1.14-2.52-.63-3.86-.23-2.17.65-4.41.39-4.69-2.15-.45-4-2.42-5.45-6.19-5.2a2.43,2.43,0,0,1-2.53-1.26c-.57-1.12.17-1.85.82-2.63,3.54-4.26,3.41-4.56-1.85-6-1.49-.39-3.56-.3-4-2.22s1.65-2.52,2.78-3.55c2.15-2,2-3.19-.68-4.35-4.53-2-4.59-2.77-.52-6.07,3.06-2.46,2.94-3.88-.47-5.74-1.19-.65-2.64-1.05-2.73-2.75s1.45-2.14,2.6-2.78c1.4-.77,3.31-1.2,3.25-3.18s-1.81-2.46-3.36-3.05c-1.16-.44-2.44-.89-2.48-2.44,0-1.38,1.12-1.81,2.09-2.36,4.32-2.51,4.35-3.1.24-5.79-2.55-1.66-2.59-3-.11-4.81.61-.43,1.31-.74,1.9-1.2,2.6-2.05,2.39-3.69-.61-5.29-1.36-.73-3.45-.9-3.36-3,.07-1.92,2-2.34,3.33-3.17,3.23-2,3.26-3.81.14-5.83-4.31-2.8-4.32-3.43,0-6.23,1.09-.71,2.54-1.71,1.34-2.83-2.31-2.18-5.46-2.35-8.47-1.93-2.46.34-2.42,2.54-2.43,4.42q0,17,0,34.07h-.12c0,5.62,0,11.23,0,16.85s0,11.24.14,16.85c.45,16.31,12.79,28.11,28.74,27.53.88,0,2.19.58,2.51-.84C-230.22,435.94-231,435.05-231.9,434.27Z" transform="translate(281.39 -154.38)"/><path class="c" d="M808.8,360.84c1.51-.58,3.22-1.67,1.84-3.12-2-2.13-5.16-1.57-7.81-1.18-2.17.32-1.79,2.46-1.68,4,.82,11.73.23,23.48,0,35.22,0,11.74,0,23.47,0,35.21,0,5.2,1.22,6.12,6,5,1.51-.33,3.22-.62,3.34-2.43s-1.8-1.75-3-2.24c-.93-.39-2-.59-2.05-1.84s1-1.64,1.93-2c1.26-.45,2.93-.61,3.14-2.24.25-1.89-1.54-2.29-2.78-3.07-2.61-1.65-2.62-2.77,0-4.15,1.2-.63,2.84-.89,2.75-2.61-.07-1.43-1.46-1.85-2.61-2.36-.9-.4-2-.82-2-2-.06-1.41,1.24-1.73,2.25-2.14,1.25-.51,2.83-.65,2.86-2.46s-1.32-2.28-2.57-2.86-2.42-1.07-2.5-2.5,1.2-2.06,2.35-2.57c1.4-.62,2.86-1.23,2.8-3.08s-1.7-2-2.94-2.39-2.34-.71-2.23-2.07c.1-1.12,1.35-1.4,2.3-1.63,1.23-.3,2.63-.4,2.83-2s-1.11-2.13-2.23-2.64-2.81-1.07-2.9-2.61c-.09-1.7,1.67-2,2.86-2.52,1-.49,2.07-.87,2.13-2.28s-.87-2-2-2.36c-1.27-.45-3-.55-3-2.28s1.57-2.08,2.7-2.82c3.06-2,3-3.28,0-5-.93-.52-2.38-.64-2.23-2.14C806.47,361.49,807.77,361.24,808.8,360.84Z" transform="translate(281.39 -154.38)"/><path class="c" d="M872.43,442.45c-1.55-.64-3.31-1.55-3-3.39,1-5.24-1.72-5.67-5.77-4.95-1.57.29-2.62-.35-2.26-2.35.85-4.69.8-4.7-4.27-6-3.24-.81-3.72-2-1.61-4.45,1.9-2.24.83-3.32-1.35-4a28.13,28.13,0,0,0-3-.39c-2.23-.45-3.35-1.48-1.22-3.4s1.08-3.3-.77-4.33c-1.51-.84-3.27-1.21-4.82-2-1.38-.7-2.51-1.72-.25-2.81.76-.37,1.86-.34,1.74-1.55s-1.18-1.88-2.25-2.23a48.09,48.09,0,0,1-5-1.42c-1.7-.77-2.69-2.07-.59-3.63,1-.71,2.55-1.13,1.8-2.76-.59-1.27-2-1.29-3.26-1.35a11.62,11.62,0,0,0-4.75.83c-3.31,1.29-3.56,2.1-1.17,4.66A79.22,79.22,0,0,1,844,416.27a111.08,111.08,0,0,0,11.09,17.28c5.21,7,12.21,11.23,20.69,14C876.11,444.5,874.5,443.32,872.43,442.45Z" transform="translate(281.39 -154.38)"/><path class="c" d="M292.34,433.65c-1.36-.29-3.07-.48-3.23-2-.2-1.79,1.86-1.64,2.94-2.31s2.06-1,2-2.39c0-1.23-.91-1.69-1.82-2.12-1.56-.71-3.56-1-3.46-3.34s2.09-2.13,3.54-2.68c.84-.31,1.68-.64,1.59-1.77a1.84,1.84,0,0,0-1.38-1.58c-.82-.31-1.66-.57-2.45-.94a2.15,2.15,0,0,1-1.42-2c0-1.29.87-1.71,1.85-2,1.34-.42,3.34,0,3.37-2.17,0-1.77-1.71-2.3-3-3.05s-2.52-1.35-2.44-3c.09-2,1.83-2.1,3.26-2.42.94-.21,1.67-.57,1.77-1.61a2.13,2.13,0,0,0-1.26-2.11c-.54-.3-1.1-.58-1.66-.86-1.11-.57-2.47-1.12-2.36-2.58s1.47-1.8,2.77-2,2.23-.46,2.34-1.93a2.34,2.34,0,0,0-1.89-2.77,8.58,8.58,0,0,1-1.77-.6,2.78,2.78,0,0,1-1.62-2.73c.06-1.23,1-1.5,2-1.82,1.32-.41,3.18-.2,3.23-2.38s-1.4-2.74-3.07-3.14c-1.19-.29-2.12-.87-2.1-2.22s1-1.91,2.13-2.28c1.35-.43,3.21-.24,3.24-2.39,0-1.95-1.69-2.3-3-2.88-2.75-1.23-3.55-2.6-.84-4.84,1.14-.95,1.61-2.7.11-3.5s-3.75-.57-5.49,0-1.43,2.39-1.43,3.9q0,18.33,0,36.66h.6V431.5c0,6.22,0,6.21,6.35,6.24.62,0,1.24.11,1.87.13,1.32.05,2.61-.14,2.85-1.73S293.64,433.94,292.34,433.65Z" transform="translate(281.39 -154.38)"/><path class="c" d="M356.14,403.16c-1-.35-2.4-.28-2.34-1.9a3,3,0,0,1,1.8-2.65c1.15-.58,2.92-.52,2.86-2.43-.06-2.17-2.07-1.85-3.33-2.33a3.08,3.08,0,0,1-2.18-3.11,2.57,2.57,0,0,1,2.12-2.68c1-.3,2.55-.08,2.3-1.77-.16-1.09-1.21-1.43-2.24-1.68-1.56-.39-3.28-.65-3.6-2.71s1.39-2.4,2.61-3.16c.78-.47,1.49-1,1.26-2.05a1.81,1.81,0,0,0-1.86-1.54c-3.39,0-3.49-1.58-2.64-4.35,1.06-3.43.24-4.36-3.36-3.9-2,.25-3-.78-4.1-2-1.68-1.75-3-4-6.28-4.09.27,1.89,1.36,3,2.22,4.19,12.86,17.67,13.07,50-.48,67.87-.61.81-2.47,1.56-1.29,2.91,1.06,1.19,2.61.31,3.88-.11a3.36,3.36,0,0,0,2.41-2.2c.76-4,3.33-5.4,7.14-5.55a3,3,0,0,0,3-2.81c.17-1.74-1.14-1.94-2.33-2.36-.83-.28-1.71-.73-1.71-1.75,0-1.22,1-1.56,2-1.89a38.25,38.25,0,0,0,4.19-1.56,2.12,2.12,0,0,0,1.34-2.09c-.09-1.05-.93-1.34-1.83-1.55-1.58-.37-3.34-.61-3.31-2.83,0-2.38,1.92-2.66,3.61-3.07,1.44-.34,2.73-.92,2.88-2.5C359.09,403.66,357.41,403.62,356.14,403.16Z" transform="translate(281.39 -154.38)"/><path class="c" d="M-71.37,424.28a44,44,0,0,0,10.43,9.56c1.56,1,3,1.58,4-.44.84-1.75,0-2.75-1.92-3.11-1.16-.22-2.33-1.21-1.69-2.42,2.55-4.73-.35-5.27-3.95-5.59-1.47-.14-3.48-.92-2.54-2.64,2.13-3.88-.45-3.84-2.93-4.22-1.67-.25-3.67-.8-3-2.91,1.67-5-.92-5.55-4.83-5.45-1.65.05-3.87-.92-3-2.77,2.23-4.45-.71-4.59-3.55-4.94-3-.35-4.29-1.32-2.92-4.64.92-2.25-.56-4.49-2.93-3.75-4.65,1.47-4.91-1.34-5-4.36,0-2.34-.78-3-3.14-2.77-3.07.29-4.11-1.3-3.1-4.05.41-1.1,1.68-2.19.55-3.4s-2.77-.78-4.23-.43c-3.7.87-4.23.49-3.44-3.32.48-2.34-.49-3.28-2.5-3.67-1.46-.28-3-.38-4.42-.72-1-.23-1.69-.62-1.3-2.09,1.12-4.29,1-4.39-3.56-4.6-1.27-.06-3,0-2.49-1.75,1.5-5-2.52-3.62-4.34-4.47-1,.08-1.61.09-2.23.18-1.66.25-3.41.8-4,2.43s1.51,2,2.44,2.76a250,250,0,0,1,19.4,17.56C-97.19,392.86-84.43,408.69-71.37,424.28Z" transform="translate(281.39 -154.38)"/><path class="c" d="M743.87,430.4c-1.54-.3-2.79-1.3-2-2.87,2.18-4.37-.52-4.84-3.75-5.22-1.57-.19-3.9-.65-2.79-2.79,1.87-3.62-.35-3.69-2.75-4.08-1.74-.28-3.57-.53-3.32-3.07.46-4.73.44-4.71-4.51-5.26-1.82-.2-4.06-.79-3-3.05,1.95-4.3-.92-4.34-3.58-4.69s-4.52-1.07-3-4.52c1.1-2.53-.88-4.75-3.44-3.84-3.72,1.33-4.31-.88-4.31-3.43,0-2.8-.51-4.14-3.79-3.73-2.55.31-3.49-1.41-2.69-3.92.38-1.19,2.09-2.27.59-3.64-1.25-1.15-2.83-.79-4.25-.26-3.36,1.25-4.12-.16-3.43-3.19.59-2.54-.45-3.78-3-4a24.34,24.34,0,0,1-3.7-.58c-1.3-.3-1.93-1.06-1.26-2.46,1.78-3.72-.32-4.4-3.39-4.31-1.23,0-3.21.17-2.77-1.45,1.33-4.94-2.24-4.21-4.69-4.73a23.66,23.66,0,0,0-2.42.26c-1.51.32-3.09.88-3.49,2.46s1.41,1.81,2.3,2.53a271.72,271.72,0,0,1,24.84,23.27c13,13.54,24.21,28.56,36.64,42.55a39,39,0,0,0,9,7.78c1.47.88,2.75.76,3.46-.7S745.83,430.78,743.87,430.4Z" transform="translate(281.39 -154.38)"/><path class="d" d="M619.34,432.16c-1.5-.1-2.75-.07-4-.27-3.09-.51-4.4-3-2.46-5.39,2.67-3.26,1.16-4-2-4.15a3.1,3.1,0,0,1-3.06-2.28,3,3,0,0,1,1.37-3.54c2.75-2,1.74-3.27-.93-3.84-1.7-.36-3.11-.78-3.63-2.67s.81-2.66,2.11-3.46c.78-.47,1.46-1.07,1.27-2.08-.23-1.2-1.3-1.36-2.28-1.59a12.86,12.86,0,0,1-3.21-.86c-1.63-.91-2.27-2.25-.94-4,2.69-3.51,2.67-3.53-1.52-5-2-.71-3.64-1.57-1.5-3.87,3.14-3.37,3.14-3.37-1.47-4.61-3-.82-3.83-3-2-5.27,3.08-3.87,3.09-3.9-1.77-5-1.16-.26-2.25-.55-2.54-1.83s.7-2,1.78-2.46c1.26-.55,2.81-1,2.62-2.72-.21-1.87-1.92-2-3.42-2.25a20.45,20.45,0,0,1-2.2-.46c-2.62-.7-3.33-2.24-1.48-4.31s.58-2.34-1.2-2.66c-3.3-.59-4.25.22-3.65,3.43a30.22,30.22,0,0,0,1.37,4.65q9.55,26.13,19.16,52.23,2.58,7,5.24,14c1,2.57,3.12,3.47,5.62,3.59C616.76,435.6,618.59,435,619.34,432.16Z" transform="translate(281.39 -154.38)"/><path class="c" d="M182.17,432.54c-.8-.25-1.86-.3-1.93-1.42-.06-.81.59-1.35,1.23-1.75a16.35,16.35,0,0,1,2-1,2.92,2.92,0,0,0,2.07-2.82c-.06-1.38-1.2-1.74-2.27-2.16-1.22-.48-3-.57-3-2.32,0-1.53,1.61-1.7,2.7-2.21s2.33-1,2.25-2.61-1.31-1.69-2.33-2.07c-1.28-.47-2.8-.66-2.91-2.42s1.44-2.13,2.55-2.88c2.74-1.86,2.73-3,0-5-3.25-2.3-3.24-2.72.31-4.56,1.15-.59,2.35-1.15,2.2-2.66-.14-1.34-1.43-1.61-2.47-2-1.25-.46-3.09-.47-3.17-2.12s1.91-1.64,3.05-2.22,2.5-1,2.58-2.43-1.38-1.93-2.53-2.32c-1.35-.46-2.67-.87-2.77-2.59s1.19-2.28,2.45-2.89,2.42-1.56,2.14-3.16-1.6-1.73-2.85-2c-.95-.22-2.09-.33-2.15-1.65s.81-1.75,1.67-2.29a14.07,14.07,0,0,0,1.9-1.18c1.52-1.36,1.78-2.61-.37-3.73-4.34-2.25-4.36-3.25-.18-5.89,1-.6,1.58-1.23,1.37-2.38s-1.19-1.43-2.23-1.58c-5.53-.84-6.85.38-6.83,6.16,0,11.11,0,22.21,0,33.32h.78c0,3.12,0,6.25,0,9.37-.09,8.36-.33,16.73-.26,25.1,0,5.45,1.65,7.1,6.09,6.87,1.8-.09,4.22.09,4.48-2.37S183.56,433,182.17,432.54Z" transform="translate(281.39 -154.38)"/><path class="c" d="M98.06,408.16c1.58-.5,3.33-.93,3.46-2.91.14-2.16-1.87-2.36-3.29-3-1-.46-2.32-.7-2.27-2.12s1.26-1.66,2.35-2c1.26-.44,2.8-.7,2.9-2.48S100,393,98.59,392.37c-1.13-.48-2.58-.73-2.59-2.3s1.39-1.88,2.54-2.36,2.77-1,2.63-2.72c-.12-1.57-1.25-2.29-2.77-2.58-1.07-.19-2.38-.36-2.43-1.84s1.15-1.87,2.12-2.38c1.22-.65,2.62-1.11,2.47-2.86s-1.48-2.19-2.83-2.56c-1-.28-2.15-.62-2.16-1.75,0-1.4,1.36-1.61,2.42-1.87,1.46-.36,3.15-.47,3.16-2.49,0-1.79-1.36-2.47-2.85-3-1-.39-2.33-.61-2.29-2.09,0-1.29,1.23-1.36,2.12-1.76,1.52-.67,3-2.2,1.43-3.32-2.2-1.59-5.09-.48-7.62,0-1.73.33-2,2-2,3.6q0,18,0,36h.12c0,10.73,0,21.46,0,32.19,0,6.93.15,7.11,7.23,6.17.38-.05.75,0,1.12-.1,1.12-.18,2.44-.33,2.65-1.65.28-1.67-1.19-1.85-2.38-2.28s-2.73-.31-2.72-2c0-1.49,1.45-1.46,2.44-1.87,1.23-.5,3-.58,3-2.31.07-1.95-1.73-2.16-3.1-2.68-1-.4-2.26-.64-2.43-2s1.09-1.84,2.09-2.25c1.42-.59,3-1.15,3.07-2.89.12-2-1.72-2.15-3.09-2.64-.87-.31-1.72-.9-1.74-1.77S97.2,408.42,98.06,408.16Z" transform="translate(281.39 -154.38)"/><path class="d" d="M12.32,424a20,20,0,0,1-2.62-1.43c-1.77-1.37-1.83-2.46.52-3.4,4.32-1.74,4.4-3,.57-5.86-2.6-2-2.51-3.16.42-4.4,1-.43,2.25-.46,2.38-1.95A3.1,3.1,0,0,0,11.88,404c-3.53-2.34-3.51-2.37.18-5,2-1.43,1.94-3.42-.15-4.8-3.53-2.36-3.53-2.36-.29-4.89,2.65-2.07,2.57-3.74-.28-5.37-.94-.54-2.24-.69-2.31-2.14s1.08-2.11,2.25-2.62,2.25-.78,2.17-2.22-1.17-2.11-2.41-2.52c-.94-.32-2.13-.44-2-1.76s1.35-1.28,2.22-1.7c2.91-1.42,3-3.25.37-5.23-3.54-2.63-3.56-2.65,0-5.17.85-.6,1.7-1.14,1.41-2.35a2.12,2.12,0,0,0-1.76-1.74c-5.18-.73-8.06-.68-7.92,5.35.26,11.48-.24,23-.3,34.45,0,11.72,0,23.45,0,35.18,0,4.38,3,6.78,7,5.69,1.35-.37,2.65-.95,2.94-2.54s-.77-2.24-1.84-2.95c-.8-.53-2.1-.8-2-2,.14-1.55,1.66-1.13,2.65-1.43s1.61-.65,1.77-1.68A2.19,2.19,0,0,0,12.32,424Z" transform="translate(281.39 -154.38)"/></svg>