<svg xmlns="http://www.w3.org/2000/svg" viewBox="0 0 578.88 221.14"><defs><style>.a,.d{fill:#007ac2;}.a,.c{stroke:#fff;stroke-miterlimit:10;stroke-width:5px;}.b{fill:#fff;}.c{fill:#ed1b2e;}</style></defs><title>food_city</title><polygon class="a" points="240.57 2.5 375.21 2.5 375.21 164.11 240.57 164.11 240.57 2.5 240.57 2.5"/><path class="b" d="M341.85,108a12.66,12.66,0,0,1-9.27,4.44c-9.74,0-17.63-14-17.63-31.16s7.89-31.16,17.63-31.16c3.37,0,6.41,1.66,9.08,4.54V69.77c-1.51-2.79-3.58-4.51-5.86-4.51-4.65,0-8.43,7.21-8.43,16.1s3.78,16.1,8.43,16.1c2.33,0,4.44-1.8,6-4.71l.05,15.24Z" transform="translate(2.5 2.5)"/><path class="b" d="M350,69.71c-5.7-43.06-53.34-40.94-55.93,5.58C305,71.05,310.75,62.6,316.6,53.81H319c-12.6,13.81-9.72,44.8.57,55.12l-2.66-.16c-6.09-8.27-11.54-16.22-21.4-19.14l-1-.21c1.93,16.53,9.54,37.23,23.28,61.82-16.88-10.65-47.46-13.87-56.27-13.5,25-58.41,6.26-107-6.75-128.92,9.17,4,56.58,16.57,100.61,1.52-4.63,7.76-5.9,40.7-4,59.39Z" transform="translate(2.5 2.5)"/><path class="a" d="M548.28,113.93a5,5,0,1,1,5,5A5,5,0,0,1,548.28,113.93Zm9.22,0a4.22,4.22,0,1,0-4.21,4.36,4.17,4.17,0,0,0,4.21-4.15Zm-1.71,2.8H555l-1.59-2.58h-1.22v2.58h-.68v-5.58h2.44c1.47,0,2,.55,2,1.48,0,1.09-.77,1.5-1.76,1.52l1.69,2.58Zm-2.63-3.11c.8,0,2,.13,2-1,0-.87-.71-1-1.4-1h-1.6v2Z" transform="translate(2.5 2.5)"/><path class="c" d="M429.71,40c-.86,6-1.58,12.21-2.44,18.3-4-1.17-9.21-1.87-13,.67-10.14,8.3-11.8,28.88-8.55,35.37,2.77,5.69,9,4.89,14.94,4.42-1.85,7.9-2.19,18.57-2.47,18.44-5.72,3.61-19.5,3.25-25.52-2-11.74-10.88-11.24-26.88-8.86-41.64,2.75-11.84,7.29-24.42,18.44-31.42,7.72-4,18.46-6.39,27.46-2.1Z" transform="translate(2.5 2.5)"/><path class="c" d="M47.06,59.4c-.25,0-15.29-.27-15.76,0L29.61,70.61l14.14-.06c.12-.07-3.43,18.91-3.43,18.87H26.4c0-.07-4.78,28.38-4.84,28.48s-21.65,0-21.56-.1S12,40.39,12,40.13H49.8l-2.74,19.3Z" transform="translate(2.5 2.5)"/><path class="c" d="M459.16,40.39l-11.58,77.42H425.41c3.84-25.7,6.46-52.27,11.65-77.44.06-.13,22.12.21,22.14,0Z" transform="translate(2.5 2.5)"/><path class="c" d="M511.87,40.52c.24,0-2.7,19.8-2.66,19.57H497.63l-9.4,57.72H466.16l9.45-58.16H463c.93-5.76,1.79-11.83,3.19-19.13Z" transform="translate(2.5 2.5)"/><polygon class="c" points="518.59 43.11 541.76 43.07 543.92 63.69 552.26 43.33 574.68 43.31 551.27 86.62 545.62 120.41 523.39 120.41 528.26 85.95 518.59 43.11 518.59 43.11"/><path class="c" d="M224.71,53.81c5.68,14.73,3.73,35.68-4.36,49.87-9.76,16.43-27.43,14.72-51.12,14.76l12-78.18c16.8.14,35-3.11,43.49,13.55ZM199.39,62.1l-5.72,37.32c9.6.59,11.74-13.53,12.35-26.48.16-4.35-1.57-10.37-6.63-10.84Z" transform="translate(2.5 2.5)"/><path class="c" d="M103,49.83c7.1,19.44,2.29,44-8.06,59.2-9,12.85-21.74,14.29-34.13,8.57C52.22,112.45,47.24,100.53,47.92,87c.4-12.84,4.79-38,19.73-46.21,10.44-5.93,29.22-4.26,35.37,9.06ZM75.35,60.58c-5.78,10.6-6.55,25.33-5.44,34,.71,3.51,2.8,5.44,6.12,4.75,8.35-3,10-29.72,8.74-37.4-1.3-5.58-6.4-7-9.42-1.38Z" transform="translate(2.5 2.5)"/><path class="c" d="M165.41,49.83c7.1,19.44,2.28,44-8.06,59.2-9,12.85-21.75,14.29-34.13,8.57-8.62-5.15-13.59-17.07-12.91-30.62.4-12.84,4.78-38,19.73-46.21,10.44-5.93,29.22-4.26,35.37,9.06ZM137.73,60.58c-5.77,10.6-6.54,25.33-5.43,34,.71,3.51,2.79,5.44,6.11,4.75,8.36-3,10-29.72,8.74-37.4-1.3-5.58-6.39-7-9.42-1.38Z" transform="translate(2.5 2.5)"/><path class="d" d="M128.47,179.56l4,22.25,11.11-22.41c.58-1.17,1-2,1.27-2.45A4.23,4.23,0,0,1,146,175.7a3.23,3.23,0,0,1,1.95-.55,2.77,2.77,0,0,1,1.53.43,2.57,2.57,0,0,1,1,1.14,2.54,2.54,0,0,1,.19,1.44,5.7,5.7,0,0,1-.31,1.07,9.74,9.74,0,0,1-.52,1.14c-.19.37-.39.74-.59,1.14l-11.49,21.68c-.42.83-.83,1.62-1.24,2.37a12,12,0,0,1-1.3,2,5.86,5.86,0,0,1-1.73,1.4,5,5,0,0,1-2.39.54,4.16,4.16,0,0,1-2.21-.53,3.51,3.51,0,0,1-1.29-1.41,8.31,8.31,0,0,1-.69-2c-.17-.74-.33-1.52-.49-2.35L122,181.71c-.07-.39-.16-.78-.23-1.15a7.28,7.28,0,0,1-.17-1.23,5.15,5.15,0,0,1,0-1.11,3.54,3.54,0,0,1,1.26-2.1,3.61,3.61,0,0,1,2.48-1,2.31,2.31,0,0,1,2.27,1.05A11.71,11.71,0,0,1,128.47,179.56Z" transform="translate(2.5 2.5)"/><path class="d" d="M162,206a23.9,23.9,0,0,1-4.75,2.62,13.07,13.07,0,0,1-4.83.87,8.08,8.08,0,0,1-4-.94,5.36,5.36,0,0,1-2.36-2.55,6,6,0,0,1-.42-3.48,7.39,7.39,0,0,1,2.29-4.32,9.61,9.61,0,0,1,4.8-2.4c.41-.09,1.41-.3,3-.61s3-.61,4.13-.87,2.4-.59,3.76-1a5.87,5.87,0,0,0-.41-3.58c-.46-.77-1.6-1.15-3.43-1.15a8.13,8.13,0,0,0-3.64.66,7.22,7.22,0,0,0-2.36,2c-.7.87-1.19,1.45-1.47,1.73a2.74,2.74,0,0,1-3.26-.25,1.86,1.86,0,0,1-.49-1.71,6.13,6.13,0,0,1,1.66-3.17,10.33,10.33,0,0,1,4-2.53,17.47,17.47,0,0,1,6.25-1,15.87,15.87,0,0,1,6.25,1,4.81,4.81,0,0,1,2.81,3.05,12.69,12.69,0,0,1,.08,5.52q-.34,2.17-.6,3.69c-.17,1-.36,2.14-.57,3.37a11.69,11.69,0,0,0,0,3.64,9.84,9.84,0,0,1,.18,2.42,2.73,2.73,0,0,1-1.16,1.74,3.52,3.52,0,0,1-2.15.78,2.25,2.25,0,0,1-1.74-.9A10.48,10.48,0,0,1,162,206Zm1-8.94a36.61,36.61,0,0,1-4.12,1.06c-1.78.37-3,.64-3.71.81a5.64,5.64,0,0,0-2.06,1,3.13,3.13,0,0,0-1.25,2.12,2.7,2.7,0,0,0,.69,2.38,3.38,3.38,0,0,0,2.62,1,7.89,7.89,0,0,0,3.51-.81,6.65,6.65,0,0,0,2.6-2.07,10.53,10.53,0,0,0,1.58-4.61Z" transform="translate(2.5 2.5)"/><path class="d" d="M172.77,205.7l4.28-26.79a4.79,4.79,0,0,1,1.27-2.81,3.3,3.3,0,0,1,2.38-.95,2.46,2.46,0,0,1,2.11.94,3.62,3.62,0,0,1,.41,2.82L179,205.7a4.7,4.7,0,0,1-1.32,2.82,3.46,3.46,0,0,1-2.4.94,2.37,2.37,0,0,1-2-1A3.77,3.77,0,0,1,172.77,205.7Z" transform="translate(2.5 2.5)"/><path class="d" d="M199.49,206l.12-.79a17.38,17.38,0,0,1-2.71,2.36A10.34,10.34,0,0,1,194,209a11.4,11.4,0,0,1-3.38.46,7.79,7.79,0,0,1-3.87-.92,5.39,5.39,0,0,1-2.34-2.56,10.57,10.57,0,0,1-.25-5.66l2-12.24a4.66,4.66,0,0,1,1.28-2.78,3.33,3.33,0,0,1,2.36-.91,2.55,2.55,0,0,1,2.12.92,3.59,3.59,0,0,1,.42,2.77l-1.58,9.89a14.55,14.55,0,0,0-.21,3.61,3.55,3.55,0,0,0,.93,2.28,3.29,3.29,0,0,0,2.42.83,5.91,5.91,0,0,0,3.08-.93,6.73,6.73,0,0,0,2.41-2.42,21.56,21.56,0,0,0,1.44-5.75L202,188a4.69,4.69,0,0,1,1.3-2.77,3.48,3.48,0,0,1,2.39-.92,2.41,2.41,0,0,1,2.07.91,3.57,3.57,0,0,1,.4,2.78l-2.86,17.9a4.41,4.41,0,0,1-1.22,2.65,3.14,3.14,0,0,1-2.21.88,2.29,2.29,0,0,1-1.95-.92A3.33,3.33,0,0,1,199.49,206Z" transform="translate(2.5 2.5)"/><path class="d" d="M228.16,198.41H216.09a7.42,7.42,0,0,0,.26,3.71,4.57,4.57,0,0,0,1.8,2.43,5.19,5.19,0,0,0,2.89.82,7.7,7.7,0,0,0,4-1.08,18.87,18.87,0,0,0,1.77-1.19c.55-.42,1.27-1,2.15-1.72a2.35,2.35,0,0,1,1.43-.41,1.91,1.91,0,0,1,1.45.52,1.64,1.64,0,0,1,.36,1.47,4.73,4.73,0,0,1-1,2,9.54,9.54,0,0,1-2.33,2.15,12.89,12.89,0,0,1-3.59,1.71,15.41,15.41,0,0,1-4.72.68q-6,0-8.71-3.39T210,196.9a17.19,17.19,0,0,1,1.62-5.09,14,14,0,0,1,3-4,13,13,0,0,1,4.26-2.56,14.92,14.92,0,0,1,5.21-.9,10.73,10.73,0,0,1,6,1.53,7.93,7.93,0,0,1,3.25,4,9.53,9.53,0,0,1,.51,4.93,3.68,3.68,0,0,1-1.82,3A9,9,0,0,1,228.16,198.41Zm-11.53-3.5h11.21a6.67,6.67,0,0,0-1-4.75,4.39,4.39,0,0,0-3.66-1.57,5.8,5.8,0,0,0-4,1.6,9.58,9.58,0,0,0-2.54,4.72Z" transform="translate(2.5 2.5)"/><path class="d" d="M237.57,209.46a3,3,0,0,1-2.28-.91,2.83,2.83,0,0,1-.61-2.53,4,4,0,0,1,1.35-2.38,3.79,3.79,0,0,1,2.56-1,2.85,2.85,0,0,1,2.27,1,2.81,2.81,0,0,1,.63,2.39,3.88,3.88,0,0,1-1.41,2.52A4,4,0,0,1,237.57,209.46Z" transform="translate(2.5 2.5)"/><path class="d" d="M286,180.9H270.89l-1.3,8.14h13.94a2.87,2.87,0,0,1,2.19.7,2.08,2.08,0,0,1,.47,1.82,3,3,0,0,1-1,1.84,3.65,3.65,0,0,1-2.43.71h-14l-1.5,9.44h15.66a3,3,0,0,1,2.27.74,2.2,2.2,0,0,1,.49,2,2.9,2.9,0,0,1-1.11,1.92,3.93,3.93,0,0,1-2.5.73H263.83a3.77,3.77,0,0,1-3-1,3.92,3.92,0,0,1-.46-3.15l4-24.94a6.43,6.43,0,0,1,.81-2.36,3.45,3.45,0,0,1,1.56-1.34,6.22,6.22,0,0,1,2.41-.42h17.74a3,3,0,0,1,2.28.72,2,2,0,0,1,.48,1.86,2.84,2.84,0,0,1-1.08,1.89A3.85,3.85,0,0,1,286,180.9Z" transform="translate(2.5 2.5)"/><path class="d" d="M296,188.18l2.76,14,7.72-14.64a11,11,0,0,1,1.67-2.44,2.69,2.69,0,0,1,2-.73,2.37,2.37,0,0,1,1.87.79,2.12,2.12,0,0,1,.54,1.83,3.89,3.89,0,0,1-.3.95,9.33,9.33,0,0,1-.5,1l-.62,1.09-8.27,14.71-.9,1.61a10,10,0,0,1-1.15,1.66,4.21,4.21,0,0,1-1.37,1.07,4,4,0,0,1-1.79.39,3,3,0,0,1-2-.6,3.24,3.24,0,0,1-.94-1.31q-.27-.72-.81-2.82l-3.57-14.55-.29-1.09a8.59,8.59,0,0,1-.19-1.11,4.18,4.18,0,0,1,0-1,3,3,0,0,1,.58-1.26,4.1,4.1,0,0,1,1.23-1,3.28,3.28,0,0,1,1.53-.39,2.07,2.07,0,0,1,2,.88A12.12,12.12,0,0,1,296,188.18Z" transform="translate(2.5 2.5)"/><path class="d" d="M330.84,198.41H318.75a7.66,7.66,0,0,0,.26,3.71,4.59,4.59,0,0,0,1.81,2.43,5.19,5.19,0,0,0,2.89.82,7.69,7.69,0,0,0,4-1.08,17.79,17.79,0,0,0,1.78-1.19c.55-.42,1.27-1,2.15-1.72A2.32,2.32,0,0,1,333,201a2,2,0,0,1,1.46.52,1.63,1.63,0,0,1,.35,1.47,4.73,4.73,0,0,1-1,2,9.87,9.87,0,0,1-2.28,2.14,13.74,13.74,0,0,1-3.61,1.71,15.34,15.34,0,0,1-4.71.68q-6,0-8.72-3.39t-1.83-9.21a17.19,17.19,0,0,1,1.62-5.09,14,14,0,0,1,3-4,12.81,12.81,0,0,1,4.25-2.56,15,15,0,0,1,5.22-.9,10.73,10.73,0,0,1,6,1.53,8,8,0,0,1,3.26,3.95,9.52,9.52,0,0,1,.5,4.93,3.69,3.69,0,0,1-1.81,3A9.08,9.08,0,0,1,330.84,198.41Zm-11.53-3.5h11.2a6.64,6.64,0,0,0-1-4.75,4.39,4.39,0,0,0-3.66-1.57,5.79,5.79,0,0,0-4,1.6A9.58,9.58,0,0,0,319.31,194.91Z" transform="translate(2.5 2.5)"/><path class="d" d="M345.47,200.54l-.82,5.16a4.58,4.58,0,0,1-1.33,2.82,3.48,3.48,0,0,1-2.39.94,2.38,2.38,0,0,1-2-1,3.64,3.64,0,0,1-.41-2.81l2.74-17.2c.44-2.77,1.67-4.16,3.67-4.16a2.11,2.11,0,0,1,2.06,1,5,5,0,0,1,.29,2.87,14,14,0,0,1,2.73-2.87,5.38,5.38,0,0,1,3.27-1,4.5,4.5,0,0,1,2.23.86,2.46,2.46,0,0,1,1.42,2.58,3,3,0,0,1-1.07,1.87,2.89,2.89,0,0,1-1.81.73,7.23,7.23,0,0,1-1.58-.42,2.85,2.85,0,0,0-1.18-.29,2.68,2.68,0,0,0-2,.7,5.67,5.67,0,0,0-1.67,2.12,16.31,16.31,0,0,0-1.19,3.33A47.24,47.24,0,0,0,345.47,200.54Z" transform="translate(2.5 2.5)"/><path class="d" d="M360.36,210.23l.78-1.38L357.6,189.7a6.73,6.73,0,0,1-.32-2.4,3.34,3.34,0,0,1,.64-1.47,3.88,3.88,0,0,1,1.3-1.08,3.09,3.09,0,0,1,1.54-.41,2,2,0,0,1,1.88.85,6.79,6.79,0,0,1,.82,2.43l2,14.71,7-13.65c.58-1.14,1.07-2,1.49-2.69a4,4,0,0,1,1.22-1.31,3,3,0,0,1,1.56-.34,2.36,2.36,0,0,1,1.29.37,2.08,2.08,0,0,1,.83,1A2.42,2.42,0,0,1,379,187c-.11.29-.27.7-.49,1.23s-.47,1.06-.75,1.6L366.33,211a31.22,31.22,0,0,1-2.73,4.36,8.55,8.55,0,0,1-3,2.44,10.66,10.66,0,0,1-4.56.84,10.08,10.08,0,0,1-4-.58,1.8,1.8,0,0,1-1-2.15,2.48,2.48,0,0,1,.9-1.64,3.17,3.17,0,0,1,2-.58,3.35,3.35,0,0,1,1,.13,4.82,4.82,0,0,0,1,.14,4.12,4.12,0,0,0,1.73-.32,3.61,3.61,0,0,0,1.27-1.09A20.78,20.78,0,0,0,360.36,210.23Z" transform="translate(2.5 2.5)"/><path class="d" d="M395.46,205.93l.1-.61a19.62,19.62,0,0,1-2.83,2.32,11.6,11.6,0,0,1-2.84,1.36,10.56,10.56,0,0,1-3.16.46,8.3,8.3,0,0,1-4-.94,7.72,7.72,0,0,1-2.85-2.68,10.53,10.53,0,0,1-1.44-4.1,17,17,0,0,1,.1-5.09,15.56,15.56,0,0,1,4.27-9,11,11,0,0,1,8-3.24,9.11,9.11,0,0,1,4.36.92,10.06,10.06,0,0,1,3.13,2.82l1.45-9.12a5.31,5.31,0,0,1,1.22-2.88,3,3,0,0,1,2.32-1,2.29,2.29,0,0,1,2,.89,3.62,3.62,0,0,1,.35,2.64l-4.35,27.25a4.43,4.43,0,0,1-1.24,2.65,3.17,3.17,0,0,1-2.24.88,2.27,2.27,0,0,1-2-.92A3.41,3.41,0,0,1,395.46,205.93Zm-10.71-9.07a9.77,9.77,0,0,0,.11,4.27,4.49,4.49,0,0,0,4.53,3.55,6.18,6.18,0,0,0,3.11-.85,7.36,7.36,0,0,0,2.57-2.6,11.89,11.89,0,0,0,1.5-4.37,9.83,9.83,0,0,0-.13-4.25,5.12,5.12,0,0,0-1.74-2.72,4.57,4.57,0,0,0-2.85-.93,5.73,5.73,0,0,0-3.18,1,7.64,7.64,0,0,0-2.51,2.76,12,12,0,0,0-1.41,4.14Z" transform="translate(2.5 2.5)"/><path class="d" d="M422.16,206a23.9,23.9,0,0,1-4.75,2.62,13.28,13.28,0,0,1-4.83.87,8.08,8.08,0,0,1-4-.94,5.43,5.43,0,0,1-2.37-2.55,6.2,6.2,0,0,1-.42-3.48,7.46,7.46,0,0,1,2.3-4.32,9.62,9.62,0,0,1,4.79-2.4c.41-.09,1.42-.3,3-.61s3-.61,4.12-.87,2.41-.59,3.77-1a5.8,5.8,0,0,0-.41-3.58c-.46-.77-1.6-1.15-3.43-1.15a8.17,8.17,0,0,0-3.65.66,7.19,7.19,0,0,0-2.35,2,22.14,22.14,0,0,1-1.48,1.73,2.15,2.15,0,0,1-1.57.42,2.27,2.27,0,0,1-1.69-.67,1.86,1.86,0,0,1-.48-1.71,6.21,6.21,0,0,1,1.66-3.17,10.33,10.33,0,0,1,4-2.53,17.47,17.47,0,0,1,6.25-1,15.87,15.87,0,0,1,6.25,1,4.81,4.81,0,0,1,2.81,3.05,13,13,0,0,1,.08,5.52q-.35,2.17-.6,3.69c-.18,1-.36,2.14-.57,3.37a11.69,11.69,0,0,0,0,3.64,9.84,9.84,0,0,1,.18,2.42,2.8,2.8,0,0,1-1.16,1.74,3.52,3.52,0,0,1-2.15.78,2.25,2.25,0,0,1-1.74-.9A10.27,10.27,0,0,1,422.16,206Zm1-8.94a38.71,38.71,0,0,1-4.11,1.06q-2.69.56-3.72.81a5.77,5.77,0,0,0-2.07,1A3.15,3.15,0,0,0,412,202a2.7,2.7,0,0,0,.68,2.38,3.4,3.4,0,0,0,2.63,1,8,8,0,0,0,3.51-.81,6.68,6.68,0,0,0,2.61-2.07,10.69,10.69,0,0,0,1.57-4.61Z" transform="translate(2.5 2.5)"/><path class="d" d="M437.16,210.23l.78-1.38L433.4,189.7a6.31,6.31,0,0,1-.32-2.4,3.09,3.09,0,0,1,.64-1.47,3.68,3.68,0,0,1,1.3-1.08,3.09,3.09,0,0,1,1.54-.41,2.07,2.07,0,0,1,1.88.85,6.53,6.53,0,0,1,.81,2.43l2.8,15.21,7.22-14.15a30.63,30.63,0,0,1,1.49-2.69,4,4,0,0,1,1.21-1.31,3,3,0,0,1,1.56-.34,2.26,2.26,0,0,1,1.29.37,2,2,0,0,1,.83,1,2.42,2.42,0,0,1,.14,1.33c-.1.29-.27.7-.48,1.23s-.48,1.06-.76,1.6L443.16,211a29.78,29.78,0,0,1-2.73,4.36,8.55,8.55,0,0,1-3,2.44,10.66,10.66,0,0,1-4.56.84,10.08,10.08,0,0,1-4-.58,1.81,1.81,0,0,1-1-2.15,2.47,2.47,0,0,1,.91-1.64,3.11,3.11,0,0,1,2-.58,3.4,3.4,0,0,1,1,.13,4.82,4.82,0,0,0,1,.14,4,4,0,0,0,1.72-.32,3.73,3.73,0,0,0,1.28-1.09A22.64,22.64,0,0,0,437.16,210.23Z" transform="translate(2.5 2.5)"/><path class="d" d="M455.84,209.46a3,3,0,0,1-2.28-.91A2.78,2.78,0,0,1,453,206a3.94,3.94,0,0,1,1.35-2.38,3.79,3.79,0,0,1,2.56-1,2.85,2.85,0,0,1,2.27,1,2.81,2.81,0,0,1,.63,2.39,3.88,3.88,0,0,1-1.41,2.52A4,4,0,0,1,455.84,209.46Z" transform="translate(2.5 2.5)"/><path class="d" d="M462.85,177h-1.49v-.53H465V177h-1.5v4.36h-.64Z" transform="translate(2.5 2.5)"/><path class="d" d="M469.66,179.21c0-.68-.08-1.51-.08-2.11h0c-.17.56-.37,1.18-.61,1.86l-.87,2.37h-.47l-.8-2.33c-.24-.7-.42-1.32-.57-1.9h0c0,.61-.05,1.42-.09,2.16l-.13,2.1h-.6l.33-4.89h.81l.83,2.36c.21.61.37,1.15.5,1.65h0c.14-.49.31-1,.52-1.65l.88-2.36h.81l.3,4.89h-.63Z" transform="translate(2.5 2.5)"/></svg>