<svg id="Layer_1" data-name="Layer 1" xmlns="http://www.w3.org/2000/svg" viewBox="0 0 432 345.36"><defs><style>.cls-1{fill:#fff;}</style></defs><title>fs_walker</title><path d="M522.24,283.52c-.08,3.15-.18,6.31-.24,9.46-.43,24.63-.77,49.26-1.29,73.88q-.47,22.13-1.43,44.24c-.43,10.06-1.21,20.11-1.89,30.16-.75,11-5.33,20.4-12.5,28.7a167.72,167.72,0,0,1-26.45,24.12c-17.59,13.23-36.53,24.24-56.09,34.26A435.52,435.52,0,0,1,354,555.86c-14.85,4.67-29.84,8.88-44.76,13.3a11.29,11.29,0,0,0-1.08.44h-3.84c-2.78-.81-5.57-1.63-8.36-2.42-27.14-7.66-54.12-15.83-80.1-26.9-29.39-12.52-57.31-27.73-82.88-47-9.63-7.26-18.71-15.15-26.35-24.55-1.73-2.14-3.3-4.42-4.85-6.7-3.9-5.77-5.72-12.27-6.48-19.1-1.47-13.24-1.94-26.55-2.43-39.85-1.45-39.2-2-78.42-2.49-117.65,0-.63-.1-1.27-.15-1.9V273c1.46-.65,2.93-1.28,4.38-1.94a514.71,514.71,0,0,1,159.69-44q18.91-2,37.91-2.59c1.47,0,2.95-.16,4.42-.24h19.2c.51.05,1,.14,1.54.16q21.71.5,43.29,2.94T403.75,234A509.34,509.34,0,0,1,496.85,262c8.53,3.49,16.93,7.31,25.39,11Zm-4.74,65.92c.31-22.85.63-46.49.93-70.13,0-1.31.4-2.92-.2-3.85s-2.24-1.22-3.44-1.76C464.47,251.14,412,236.37,357.12,230.64c-12.65-1.32-25.34-2.2-38.05-2.51a439.76,439.76,0,0,0-53.81,1.63q-17.05,1.68-34,4.07a456.8,456.8,0,0,0-55.87,11.88A543,543,0,0,0,94.92,274.9c-.85.38-.92.91-.91,1.68.57,32.83,1,65.66,1.73,98.49.45,21.47,1,42.94,2.9,64.35a50.06,50.06,0,0,0,2.92,14.15c2.14,5.42,5.57,10,9.34,14.43a154.91,154.91,0,0,0,25.19,22.86c26.91,20.07,56.19,35.92,87.25,48.49,26.43,10.7,53.71,18.85,81.21,26.29a7.11,7.11,0,0,0,3.65-.08c13.69-4,27.42-7.82,41-12.06,19.11-6,38-12.65,56.15-21.08,23.25-10.78,45.61-23.13,66.43-38.14,10.14-7.31,19.81-15.18,28.22-24.49,4.09-4.52,7.84-9.31,10.36-14.91s3.27-11.6,3.66-17.63c.75-11.57,1.46-23.15,1.89-34.74C516.58,385.08,517,367.65,517.5,349.44Z" transform="translate(-90.24 -224.24)"/><path class="cls-1" d="M517.5,349.44c-.52,18.21-.92,35.65-1.57,53.07-.43,11.59-1.14,23.16-1.89,34.74-.39,6-1.14,12-3.66,17.63s-6.27,10.39-10.36,14.91c-8.42,9.3-18.08,17.17-28.22,24.49-20.82,15-43.18,27.36-66.43,38.14-18.19,8.43-37,15.12-56.15,21.08-13.6,4.24-27.33,8.1-41,12.06a7.11,7.11,0,0,1-3.65.08c-27.5-7.44-54.78-15.59-81.21-26.29-31.06-12.57-60.34-28.42-87.25-48.49A154.91,154.91,0,0,1,110.9,468c-3.77-4.38-7.2-9-9.34-14.43a50.06,50.06,0,0,1-2.92-14.15c-1.86-21.41-2.46-42.88-2.9-64.35C95,342.24,94.58,309.41,94,276.58c0-.77.06-1.3.91-1.68a543,543,0,0,1,80.43-29.19,456.8,456.8,0,0,1,55.87-11.88q17-2.42,34-4.07a439.76,439.76,0,0,1,53.81-1.63c12.71.31,25.4,1.19,38.05,2.51,54.91,5.74,107.36,20.5,157.67,43.06,1.2.54,2.83.82,3.44,1.76s.22,2.54.2,3.85C518.12,302.95,517.8,326.58,517.5,349.44Zm-4.23,1.87h.17c0-4,0-8.08,0-12.12q.41-30.05.88-60.11a1.38,1.38,0,0,0-1-1.5c-45.62-20.47-93.09-34.51-142.7-41.15q-22.66-3-45.5-3.95-20.09-.78-40.18.12-23.44,1.05-46.67,4.32A493.63,493.63,0,0,0,189,246.45a528.87,528.87,0,0,0-89.43,30.91,2.07,2.07,0,0,0-1.44,2.3c.5,39.31,1,78.62,2.39,117.92.51,14.51,1,29,2.44,43.47.71,7,2.69,13.63,7,19.35,1.35,1.78,2.69,3.59,4.15,5.28a149.53,149.53,0,0,0,25,22.5c26.3,19.37,54.85,34.77,85.05,47.06,26.33,10.72,53.54,18.84,81,26.29a4.51,4.51,0,0,0,2.34-.06c15.39-4.55,30.83-8.94,46.14-13.75a419.93,419.93,0,0,0,70.34-29c19.08-10.08,37.56-21.11,54.54-34.5,8-6.3,15.59-13,21.92-21.07,3.43-4.35,6.59-8.93,7.63-14.5a120.08,120.08,0,0,0,2-14.57q1.25-20.77,2-41.58C512.63,378.74,512.9,365,513.27,351.31Z" transform="translate(-90.24 -224.24)"/><path d="M513.27,351.31c-.37,13.71-.64,27.43-1.15,41.14q-.78,20.8-2,41.58a120.08,120.08,0,0,1-2,14.57c-1,5.57-4.19,10.15-7.63,14.5-6.33,8-13.93,14.76-21.92,21.07-17,13.39-35.46,24.42-54.54,34.5a419.93,419.93,0,0,1-70.34,29c-15.31,4.82-30.75,9.21-46.14,13.75a4.51,4.51,0,0,1-2.34.06c-27.41-7.44-54.62-15.57-81-26.29-30.2-12.29-58.75-27.68-85.05-47.06a149.53,149.53,0,0,1-25-22.5c-1.46-1.69-2.8-3.5-4.15-5.28-4.34-5.72-6.31-12.3-7-19.35-1.46-14.45-1.94-29-2.44-43.47-1.37-39.29-1.89-78.6-2.39-117.92a2.07,2.07,0,0,1,1.44-2.3A528.87,528.87,0,0,1,189,246.45a493.63,493.63,0,0,1,49.27-9.53q23.24-3.27,46.67-4.32,20.09-.9,40.18-.12,22.84.89,45.5,3.95c49.61,6.64,97.08,20.68,142.7,41.15a1.38,1.38,0,0,1,1,1.5q-.47,30.05-.88,60.11c-.05,4,0,8.08,0,12.12Zm-2.72,5.05c.39-26.85.75-51,1.1-75.08,0-.82.1-1.51-1-2a522.58,522.58,0,0,0-94.42-31.82,490.3,490.3,0,0,0-62.63-10.34q-20.37-2-40.83-2.31a481.77,481.77,0,0,0-72.36,4.49q-22.1,3-43.83,8.07a521.4,521.4,0,0,0-94.32,31.72,2.05,2.05,0,0,0-1.48,2.27c.81,38.19,1.52,76.38,2.39,114.56.34,14.83.94,29.66,2.39,44.43.62,6.38,2.18,12.44,6.11,17.67,1.63,2.17,3.25,4.37,5,6.41,8,9.07,17.2,16.71,26.95,23.74a387.46,387.46,0,0,0,81.86,44.7c26,10.53,52.87,18.59,79.93,25.95a3.57,3.57,0,0,0,1.85-.06c15.5-4.61,31-9.08,46.46-13.92a420.07,420.07,0,0,0,81.33-35.19C452.38,499.88,469,489.18,484,476.1c6.31-5.51,12.24-11.39,17-18.34,1.93-2.82,3.73-5.75,4.38-9.13a112.16,112.16,0,0,0,1.94-12.9q1-13.75,1.55-27.55C509.53,390,510.05,371.82,510.55,356.36Z" transform="translate(-90.24 -224.24)"/><path class="cls-1" d="M510.55,356.36c-.5,15.46-1,33.65-1.7,51.83q-.52,13.78-1.55,27.55a112.16,112.16,0,0,1-1.94,12.9c-.66,3.38-2.46,6.31-4.38,9.13-4.76,7-10.69,12.83-17,18.34-15,13.08-31.6,23.77-48.85,33.55a420.07,420.07,0,0,1-81.33,35.19c-15.42,4.85-31,9.31-46.46,13.92a3.57,3.57,0,0,1-1.85.06c-27.06-7.36-53.92-15.41-79.93-25.95a387.46,387.46,0,0,1-81.86-44.7c-9.75-7-19-14.67-26.95-23.74-1.79-2-3.41-4.23-5-6.41-3.92-5.23-5.48-11.29-6.11-17.67-1.45-14.78-2.05-29.6-2.39-44.43-.87-38.19-1.58-76.37-2.39-114.56a2.05,2.05,0,0,1,1.48-2.27,521.4,521.4,0,0,1,94.32-31.72q21.73-5,43.83-8.07a481.77,481.77,0,0,1,72.36-4.49q20.46.27,40.83,2.31a490.3,490.3,0,0,1,62.63,10.34,522.58,522.58,0,0,1,94.42,31.82c1.08.48,1,1.17,1,2C511.3,305.4,510.94,329.51,510.55,356.36ZM104,353.57c.51,16.53.92,34,1.64,51.38.49,12,1.32,24,2.18,36a30,30,0,0,0,5.75,16.16c1.1,1.47,2.17,3,3.35,4.38a139.18,139.18,0,0,0,23.52,21.65c26.59,20,55.68,35.51,86.43,48,25.61,10.37,52,18.27,78.68,25.53a3.11,3.11,0,0,0,1.62-.05c15-4.47,30.13-8.77,45.09-13.49a418.17,418.17,0,0,0,65.52-26.6c19.4-10,38.2-20.93,55.51-34.29,8.18-6.31,16-13.08,22.59-21.06,4.26-5.12,7.7-10.66,8.4-17.45.72-7,1.49-13.92,1.78-20.9.8-19.06,1.55-38.12,2-57.19.64-27.75,1-55.5,1.48-83.25a1.52,1.52,0,0,0-1-1.73q-21.72-9.57-44.17-17.25a496.53,496.53,0,0,0-101.44-23.14c-14.7-1.74-29.45-2.85-44.24-3.22a479.75,479.75,0,0,0-71.22,3.47q-21.84,2.72-43.35,7.34a517.75,517.75,0,0,0-100,32.74,1.6,1.6,0,0,0-1.14,1.77C103.31,305.8,103.65,329.24,104,353.57Z" transform="translate(-90.24 -224.24)"/><path d="M104,353.57c-.35-24.33-.68-47.77-1-71.2a1.6,1.6,0,0,1,1.14-1.77,517.75,517.75,0,0,1,100-32.74q21.5-4.66,43.35-7.34A479.75,479.75,0,0,1,318.66,237c14.8.37,29.54,1.47,44.24,3.22A496.53,496.53,0,0,1,464.34,263.4q22.47,7.63,44.17,17.25a1.52,1.52,0,0,1,1,1.73c-.49,27.75-.84,55.5-1.48,83.25-.44,19.07-1.18,38.13-2,57.19-.29,7-1.06,13.95-1.78,20.9-.7,6.79-4.14,12.33-8.4,17.45-6.64,8-14.41,14.75-22.59,21.06-17.31,13.36-36.1,24.31-55.51,34.29a418.17,418.17,0,0,1-65.52,26.6c-15,4.73-30.05,9-45.09,13.49a3.11,3.11,0,0,1-1.62.05c-26.63-7.26-53.07-15.16-78.68-25.53-30.75-12.45-59.84-28-86.43-48a139.18,139.18,0,0,1-23.52-21.65c-1.18-1.41-2.25-2.91-3.35-4.38A30,30,0,0,1,107.81,441c-.86-12-1.68-24-2.18-36C104.92,387.53,104.51,370.1,104,353.57Zm71.29,38.94c-3.55-1.2-7.16-2.45-10.8-3.64a7.92,7.92,0,0,0-5.76.2,106.32,106.32,0,0,0-9.75,4.81,53.61,53.61,0,0,0-16.67,14.23c-8,10.78-8.63,24.81,1.24,36.13a49.36,49.36,0,0,0,23.41,15.2c15.51,4.66,31.22,4.77,46.94,1.27,11.22-2.5,20.93-7.78,28.42-16.71,6.91-8.23,9.81-17.61,8-28.33-1.55-9.18-6.24-16.5-13.24-22.43a86.9,86.9,0,0,0-21.62-13c-7.46-3.26-15.09-6.12-22.65-9.15S168,364.65,161.65,359.5c-3.44-2.8-6.55-5.88-8.38-10a13.43,13.43,0,0,1,4.41-17,24.87,24.87,0,0,1,3.12-2,37.2,37.2,0,0,1,27.2-3.42c8.63,2.09,15,7.18,18.25,15.65,2.64,6.94,2.34,13.72-2.1,20a4.23,4.23,0,0,1-1.81,1.66c-4.11,1.31-5.79,5.16-8.86,8,3.44,1.25,6.64,2.38,9.81,3.57a9,9,0,0,0,8.85-1.29,62.7,62.7,0,0,0,11.54-9.89c8.63-10,9.05-21.84,1-32.32a40.46,40.46,0,0,0-20.13-13.88,71.09,71.09,0,0,0-35-2,48.32,48.32,0,0,0-23.16,10.62,29.52,29.52,0,0,0-7,37c3.28,5.84,8,10.33,13.41,14.18,8.44,6,17.91,9.79,27.78,12.67,7.15,2.09,14.14,4.54,20.56,8.43,9.36,5.67,15.59,13.45,16.88,24.66,1,8.63-1.45,15.89-8.34,21.41a29.41,29.41,0,0,1-19.08,6.38c-15.08-.1-26.81-7-35.89-18.65a20.47,20.47,0,0,1-4-16.45c1-5.71,4-10.27,8.21-14.15a6.33,6.33,0,0,1,3.94-1.82,12.85,12.85,0,0,0,8.77-4.41Zm194-6.2A91,91,0,0,0,366,362.62c-3.89-13.6-10.82-25.41-21.67-34.53-14.86-12.49-32.27-15.6-50.6-10.69-23.15,6.2-38.74,21.13-46,44.18-4.12,13-4.91,26.35-3.69,39.85a73.77,73.77,0,0,0,13.26,36.39c7,10,15.94,17.65,27.6,21.76,9.91,3.49,20.09,3.92,30.41,2.53,16.48-2.22,29.6-10.08,38.95-23.84C364.54,423.1,369.36,406.18,369.33,386.31Zm20.32-10.51c.42,0,.69.08,1,.1,4.54.32,9.1.5,13.63,1a94.62,94.62,0,0,1,28.4,7.45c8.93,4,17,9.16,23.62,16.48,5.08,5.66,8.06,12.21,7.38,20-.47,5.4-2.61,10.28-5.35,14.88-5.43,9.12-13.49,13.71-24.12,13.64a114.28,114.28,0,0,1-37.47-6.67A41.3,41.3,0,0,1,385.16,437a8.37,8.37,0,0,1-3.34-6.24,1.3,1.3,0,0,1,.85-1.48c2.37-1.15,4.73-2.34,7-3.58,1.69-.9,3.32-1.92,5-2.89.69-.4.84-.92.33-1.57a64.32,64.32,0,0,0-4.68-5.87,10.37,10.37,0,0,0-8.1-3,22.92,22.92,0,0,0-10,3.27,1.88,1.88,0,0,0-.67,1.05,100.49,100.49,0,0,1-9.31,21c-.14.24-.25.49-.4.79.29.24.56.48.84.7a115.24,115.24,0,0,0,30.56,17c8.23,3.17,16.65,5.78,25.5,6.32a73.33,73.33,0,0,0,36.83-6.93c12.56-6.06,22.29-15,27.71-28.11a36,36,0,0,0,2.85-17.69c-.8-7.67-4-14.45-8.4-20.64-5.26-7.38-12.35-12.68-20.18-17-11.26-6.27-23.4-10.19-35.86-13.21-4.18-1-8.4-1.87-12.44-2.76,1.54-5.95,3-11.91,4.66-17.82a18.64,18.64,0,0,1,2-4.31,3,3,0,0,1,3-1.52c1.55.15,3.12.11,4.66.35a237.7,237.7,0,0,0,33.06,2.94,66.91,66.91,0,0,0,7.66-.18c4.24-.43,7.4-2.38,8.53-6.83,1-4,2.08-8,3.11-11.93a9.9,9.9,0,0,0,.16-1c-2.13.24-4.11.54-6.1.66a13.61,13.61,0,0,0-9,4.3c-.92.91-1.81,1.85-2.7,2.77-1.24-1.89-2.37-3.63-3.53-5.34a3.78,3.78,0,0,0-3.34-1.69q-24.77-.54-49.54-1.23c-.86,0-1.08.27-1.15,1.07-.23,2.91-.53,5.81-.81,8.72-.77,8-1.59,15.91-2.3,23.87a46,46,0,0,1-2.83,13.55q-2.38,5.82-4.72,11.66C389.93,374.67,389.82,375.21,389.65,375.8Zm-28.49,82.42a5,5,0,0,0-.93-.21c-3.07-.17-6.14-.55-9.2-.43a25.12,25.12,0,0,0-14.68,5.17,49.9,49.9,0,0,0-9.21,9.39,37.57,37.57,0,0,1-12.84,10.42c-1.07.55-2.22.93-3.43,1.42.47.43.87.81,1.3,1.16,4.61,3.78,9.23,7.53,13.83,11.32a48.24,48.24,0,0,0,26,10.9,26.28,26.28,0,0,0,18-4c.34-.23.66-.49,1.16-.86-.88-.14-1.51-.24-2.13-.33-5-.69-9.54-2.26-13.29-5.78-1.28-1.2-2.72-2.23-4.08-3.35a36.69,36.69,0,0,0-12-6.79c-2.73-.88-5.41-1.91-8.25-2.92.5-.19.87-.33,1.24-.46,6.53-2.2,12.13-5.6,16.49-11.19C352.79,466.95,357.09,462.72,361.17,458.22Zm-109.61-.07-.12.42a2.9,2.9,0,0,1,.6.39c4.3,4.68,8.71,9.27,12.85,14.08a27.19,27.19,0,0,0,8.82,7.05c2.48,1.19,5,2.2,7.58,3.3-1.2.41-2.45.81-3.68,1.24-5.16,1.81-10.39,3.49-14.73,7-2.51,2-5.06,4-7.57,6.09a17,17,0,0,1-6.93,3.41c-2.15.5-4.33.91-6.51,1.36,2.32,2.28,8.53,4.76,12.51,4.92a45.25,45.25,0,0,0,29.6-8.91c6-4.42,11.58-9.33,17.35-14a4.9,4.9,0,0,0,.56-.64c-.91-.33-1.73-.56-2.48-.92a36.9,36.9,0,0,1-11.92-8.72c-1.82-2.07-3.47-4.3-5.34-6.32-4.13-4.46-8.78-8.16-14.89-9.59a37.52,37.52,0,0,0-11.44-.73C254.39,457.72,253,458,251.56,458.15ZM269.75,483c-1.64-1.09-3.1-1.93-4.4-3a40.64,40.64,0,0,1-10-11.49,66.41,66.41,0,0,0-6.55-9.42c-3.18-3.74-6.78-7.12-10.2-10.65-.29-.3-.61-.57-.73-.68l-8.23,8.71c1.56,2.93,3.46,6.44,5.31,10a19.73,19.73,0,0,0,5.74,6.83c2.47,1.82,5.12,3.39,7.69,5.07.32.21.66.38,1.17.66-1.24.21-2.25.38-3.27.57-5.53,1-11.14,1.77-16.13,4.65-2.52,1.46-5.1,2.84-7.58,4.37a19.72,19.72,0,0,1-10.08,3c-1.65,0-3.31,0-4.93,0,0,.33,0,.38,0,.4a3,3,0,0,0,.31.36,24.12,24.12,0,0,0,11.06,6.19,44.34,44.34,0,0,0,24.1-1.39,58.77,58.77,0,0,0,9.47-4.27C258.28,489.76,264,486.33,269.75,483Zm112.14-24.55c-3.54-1.91-7.18-3.89-10.85-5.82a1.09,1.09,0,0,0-1,.23c-4.92,4.88-9.71,9.84-12.9,16.12a29.58,29.58,0,0,1-7.44,9.16c-2,1.71-4.2,3.24-6.33,4.87.24.16.66.45,1.09.7l16,9.39a48.06,48.06,0,0,0,27.23,6.46,26.09,26.09,0,0,0,16.7-6.6,8.72,8.72,0,0,1,1.15-.75l-.34-.4h-2.13a23.7,23.7,0,0,1-14-3.82c-1.85-1.25-3.85-2.28-5.8-3.36a31.68,31.68,0,0,0-9.82-3.67c-3.32-.59-6.63-1.27-9.94-1.91l-.23-.25C372.85,475,378.37,467.55,381.88,458.42ZM304.58,484c0,1.28,0,2.43,0,3.58,0,2.35-.22,2.81-2.41,3.5-6.78,2.13-10.15,7.45-12.94,13.56h2.7l.8,8.78,2.91-.65,3.32,6.74,2.11-.69,5.23,5.57,5.19-5.58,2.12.7,3.31-6.74,2.91.64.82-8.82h3c-1.73-2.77-3.19-5.37-4.92-7.78a16.33,16.33,0,0,0-8.36-5.74c-2.09-.71-2.38-1.2-2.4-3.3,0-1.26,0-2.52,0-3.78ZM224.4,459.43l-12.34,5.84,8.12,5.68c-1,0-1.68,0-2.4,0a85.49,85.49,0,0,0-21.43,2.93,24.83,24.83,0,0,1-9.71.9c-1.18-.12-2.35-.28-3.67-.44a6.68,6.68,0,0,0,.39.61,23.62,23.62,0,0,0,9.93,7.29c1.87.7,3.75,1.36,5.62,2.07,6.8,2.57,13.66,3.31,20.56.5,6-2.44,11.92-5,17.88-7.52.39-.16.76-.37,1.08-.53C232.21,472.06,228.32,465.62,224.4,459.43Zm150,17.31c.33.17.59.34.88.46,6.07,2.56,12.12,5.15,18.21,7.65a21.63,21.63,0,0,0,9.6,1.72,47.72,47.72,0,0,0,21.59-7.14,19.5,19.5,0,0,0,5.18-5c-.2-.08-.27-.13-.33-.12s-.39.06-.59.09c-3.65.48-7.31.87-10.94-.17a80.91,80.91,0,0,0-19.58-3.15c-1.85-.06-3.69-.2-5.88-.32a37.55,37.55,0,0,0,7.65-5.37l-12.62-4.53C383.73,466.6,380.17,472.51,374.4,476.74ZM341.75,277.89l.33,0c.39,1.46.72,2.93,1.2,4.36a2,2,0,0,0,1.07,1.18c.27.09.79-.54,1.16-.89.13-.12.15-.37.24-.54,2-3.7,3.93-7.4,5.94-11.08a4.34,4.34,0,0,1,1.11-1c.32-.27.65-.52,1-.78-.4-.24-.78-.64-1.21-.69q-3.81-.43-7.64-.69a4.9,4.9,0,0,0-1.49.39l1,1.53-1.62,3.07-.34-.09-1-3.51a2.72,2.72,0,0,0,.47-.19c.36-.26.72-.54,1.08-.81a3.76,3.76,0,0,0-1.12-.64,26.73,26.73,0,0,0-3.32-.34,5.46,5.46,0,0,0-1.42.34c-.07-.09-.21-.46-.4-.48-1.62-.2-3.24-.36-4.86-.47-.19,0-.55.35-.57.56s.26.68.43.69c1.07.05,1.21.85,1.47,1.61q2.15,6.28,4.35,12.55c.14.39.6,1,.84,1a1.82,1.82,0,0,0,1.1-.85C340.27,280.71,341,279.29,341.75,277.89Zm46.7,2.72c.38-1.59.69-2.86,1-4.13.16-.69.41-1.17,1.3-1,.25,0,.86-.38.84-.54,0-.37-.31-.95-.58-1-1.62-.39-3.27-.69-4.92-.95-.25,0-.56.28-.84.43.19.3.38.85.58.85,1.38,0,1.18.88,1,1.74-.77,3.26-1.56,6.52-2.33,9.79-.19.79-.38,1.46-1.45,1.33-.22,0-.62.35-.71.62a.85.85,0,0,0,.38.75c1.62.41,3.25.79,4.9,1.07.29,0,.66-.42,1-.64-.24-.28-.44-.7-.74-.8a1,1,0,0,1-.69-1.3c.3-1.52.64-3,1-4.54l.28-.09,3.7,6.59L391,290.3c2,.45,3.63.87,5.31,1.18.33.06.73-.27,1.1-.42a5,5,0,0,0-.65-1c-.46-.43-1.15-.68-1.46-1.18-1.54-2.56-3-5.17-4.49-7.83,1-.61,1.75-1.15,2.57-1.62,1.8-1,3.47-2.32,5.71-2.25.25,0,.5-.46.76-.71-.24-.22-.44-.58-.71-.64-1.09-.24-2.2-.39-3.3-.56-.45-.07-.9-.11-1.35-.16v1.62Zm-110.4,2.24c5.11,0,8.6-3,8.46-7.58-.16-5.35-3.06-8.1-8.7-8.42-4.64-.26-7.65,4.84-7.67,8.74A7.39,7.39,0,0,0,278.05,282.85Zm11.21-.89.33.27c2-1,4.25.21,6.23-.94a3.93,3.93,0,0,0-1.53-.68c-.9-.16-1.59-.65-1.62-1.52-.09-2.55,0-5.11,0-7.67,1.72,1.63,3.39,3.18,5,4.77s3.09,3.2,4.7,4.73a10.88,10.88,0,0,0,2.12,1.19l-.27-3.85c-.19-2.75-.45-5.49-.55-8.24,0-1.19,0-2.56,1.75-2.75l-.32-1.26c-1.84,0-3.46,0-5.08,0-1.35,0-1.46.11-1,1.41,2.25.14,2.48.19,2.64,1.47.33,2.67.51,5.35.75,8-1-.87-1.74-1.86-2.6-2.72-2.48-2.49-5-4.93-7.54-7.38a.82.82,0,0,0-.49-.28c-1.14.06-2.28.17-3.84.29.61.63,1,1.3,1.48,1.45a1.85,1.85,0,0,1,1.39,1.72,27.41,27.41,0,0,1,.12,9.54c-.11.63-.22,1.1-.95,1.34C289.66,281,289.5,281.58,289.26,282Zm-71.51,9.44-.07-.37c-3-.91-4-2.44-3.83-6a2.67,2.67,0,0,0,.68-.14c1-.5,1.52-.09,2.05.82a12.87,12.87,0,0,0,2.22,2.8,6.69,6.69,0,0,0,6.51,1.61c.07-.9-.27-1.19-1.11-1.4a6.73,6.73,0,0,1-2.83-1.41,48.15,48.15,0,0,1-3.5-3.86c.2-.32.31-.48.4-.66a4.28,4.28,0,0,0,0-4.65c-1-1.46-2.46-1.63-4-1.45-.67.08-1.34.19-2,.33a37.56,37.56,0,0,1-4.32.91c-1.26.11-1.25.63-.91,1.59a4.82,4.82,0,0,1,1.19-.12c.33,0,.81.21.92.46a26.79,26.79,0,0,1,2.57,10c0,.93-.13,1.65-1.24,1.64v1.7c1.26-.35,2.47-.71,3.69-1S216.54,291.68,217.75,291.4Zm211,9.33c.53-.76.38-1.16-.26-1.76a8.31,8.31,0,0,1-1.92-2.81,31,31,0,0,1-.87-3.59,1.53,1.53,0,0,1,.75-1.95c2.8-2,2.43-5.43-.7-6.86a17.28,17.28,0,0,0-2.26-.78c-1.41-.42-2.86-.75-4.25-1.23s-1.28-.48-1.52,1a6.65,6.65,0,0,1,1.22.43,1,1,0,0,1,.46.69,27.65,27.65,0,0,1-2.44,9.93c-.46.9-.92,1.85-2.31,1.21l-.27,1.26,7.18,2,.09-.34c-2.18-2.36-2.34-4.44-.53-7.12l2,.55C423.13,295.56,424,299.3,428.71,300.73Zm-62.91-15c.33-.7.58-1.44-.79-1.61-.26,0-.54-.55-.66-.89a43.89,43.89,0,0,1-3-13.38,1.37,1.37,0,0,0-2.42-.74c-1.08,1-1.24,2.22-1.83,3.34-1.51,2.86-3,5.71-4.7,8.47-.41.67-1.47.92-2.2,1.41a8.37,8.37,0,0,0-1,.92c.3.24.58.63.92.69a34.91,34.91,0,0,0,3.77.45,10.29,10.29,0,0,0,1.88-.22l.06-.5-2.58-1c.81-1.48,1.55-2.86,2.35-4.21a1,1,0,0,1,.77-.39,22.51,22.51,0,0,1,2.86.21c.33,0,.84.34.88.58a36.85,36.85,0,0,1,.4,3.8c.05.89-.48,1.31-1.35,1.28-.35,0-.7-.07-1.08-.11-.39,1.38.69,1.26,1.37,1.34C361.54,285.39,363.59,285.53,365.8,285.72Zm48.35-6.13c-3.93-.27-7.46-1.91-11.39-1.68a1.86,1.86,0,0,0,.92,1.06c.66.22,1,.47.92,1.25a31.41,31.41,0,0,1-2.27,9.87c-.35.8-.61,1.62-1.78,1-.15-.07-.45.16-.68.25.14.21.23.52.42.61a12.84,12.84,0,0,0,2.23.84c2.67.63,5.35,1.21,8.07,1.81,1.8-2.23,2-3,.72-3.91a2.62,2.62,0,0,1-2.79,2.11c-.67,0-1.34-.18-2-.27a1.2,1.2,0,0,1-1.18-1.47c.23-1.65.53-3.28.82-5l3.72.85.39,2.12h.52c.27-1.38.57-2.75.8-4.13,0-.21-.21-.46-.33-.69-.2.15-.56.27-.59.44-.14.94-.79.88-1.44.8-.86-.1-1.71-.26-2.68-.41.4-1.53.74-2.92,1.15-4.29.1-.32.51-.83.7-.8a13.44,13.44,0,0,1,3.11.79c.38.16.49.91.76,1.36a5.72,5.72,0,0,0,.67.74Zm-169.71,6.36a5.27,5.27,0,0,0,5.72-1,4.12,4.12,0,0,0-.41-6.88c-1.28-.8-2.72-1.32-4.08-2a15.13,15.13,0,0,1-2.41-1.3,2.07,2.07,0,1,1,2.58-3.24c.48.36.87.84,1.37,1.16a21.36,21.36,0,0,0,2.07,1c-.37-1.66-.63-2.9-1-4.13-.07-.25-.38-.59-.59-.6s-.51.29-.69.52a1.82,1.82,0,0,0-.19.64l-.54-.14a5.07,5.07,0,0,0-6,3.06c-.73,1.9.31,3.91,2.71,5.07,1.22.59,2.53,1,3.76,1.55a13.12,13.12,0,0,1,2.44,1.47,1.66,1.66,0,0,1,.57,1.22,2.46,2.46,0,0,1-3.11,2.19,23,23,0,0,1-3.76-2.2,4.84,4.84,0,0,1-.71-.66l-.44.15c.22,1.63.42,3.26.7,4.88,0,.16.59.41.74.32A8.06,8.06,0,0,0,244.44,285.95Zm-20.35-11.46-.09.58c.33.19.71.58,1,.52,1.25-.26,1.59.47,1.84,1.44s.59,1.82.83,2.75a23.19,23.19,0,0,1,.81,7.81l-1.62.93.12.36a11.1,11.1,0,0,0,1.76,0c2.95-.48,5.89-1,8.83-1.53a.7.7,0,0,0,.48-.42,14.89,14.89,0,0,0,.3-2.37c0-.75-.35-1.27-1.07-1.29-.28.81-.33,1.8-.84,2.2a11.14,11.14,0,0,1-3,1.39,1.3,1.3,0,0,1-1.89-1c-.41-1.52-.75-3.07-1.14-4.7,1-.22,1.95-.36,2.82-.6.72-.19,1.2-.16,1.44.69.1.35.47.61.72.91l.29-.17c-.19-1.62-.12-3.3-1.42-4.78-.12,2.79-2.28,2.24-4,2.84-.25-1.64-.48-3.09-.66-4.55,0-.27.1-.78.25-.82a16.54,16.54,0,0,1,3.16-.58c.38,0,.77.55,1.18.83s.55.31,1,.58l-.21-3.43Zm84.69-8.08-.17.44c.35.28.72.8,1.06.78,1.11-.06,1.22.61,1.32,1.42a30.61,30.61,0,0,1-.18,9.55c-.17.88-.24,1.74-1.48,1.7-.22,0-.45.3-1,.68a26.16,26.16,0,0,0,2.7.42c2.71.11,5.43.18,8.14.23a1,1,0,0,0,.75-.34,10.93,10.93,0,0,0,.78-2.25,1.18,1.18,0,0,0-1-1.5,2.69,2.69,0,0,1-2.57,2.73c-.63.08-1.27.06-1.91.1a1,1,0,0,1-1.25-1c-.14-1.73-.21-3.46-.31-5.15h3.85l.86,1.9.42-.13c0-1.34,0-2.68,0-4,0-.24-.32-.47-.49-.71-.17.22-.33.46-.51.67s-.52.82-.83.87a28,28,0,0,1-3.06.19c.08-1.63.14-3.06.24-4.49,0-.28.24-.77.39-.78a15.25,15.25,0,0,1,3.22,0c.4.06.7.74,1.06,1.12.2.21.45.38.87.73l.49-3.22ZM183.29,285.17c2.56,4.23,3.78,8.7,4.84,13.28-.23.09-.43.11-.51.22-.23.32-.41.67-.61,1a3,3,0,0,0,1,.13,28.84,28.84,0,0,0,3.32-1,12.22,12.22,0,0,0,1.86-1.09c-.73-1.35-1.42-.21-2.14-.28-.64-1.79-1.81-3.43-1.74-5.53.84-.21,1.62-.38,2.38-.59s1.14-.06,1.4.66.75.85,1.46.45c-.68-1.65-.83-3.5-2.63-5,.58,3-1.86,2.57-3.31,3.63l-1.8-5.68a15.6,15.6,0,0,1,2.58-.91,4.34,4.34,0,0,1,2.43.14c.53.25.77,1.13,1.14,1.72,1-.71,1.12-3.16.09-3.92a1.15,1.15,0,0,0-.86,0c-1.44.46-2.87,1-4.32,1.42S184.94,284.74,183.29,285.17Zm70.47-11.65.37-.07c.78-2,2.42-2.48,4.4-2.65l1.28,11.13L258,283l.15.37c2,.83,4-.33,6.14-.34a4,4,0,0,0-.89-1.18c-.26-.27-.67-.53-.73-.84q-.55-3-1-6c-.2-1.52-.32-3-.47-4.63,2.24-.15,4.15-.29,5.56,1.65.11-.57.2-.92.25-1.27.32-2-.08-2.4-2.07-2.21-3,.3-6,.68-8.95.79s-3,.11-2.83,2.93A4.07,4.07,0,0,0,253.76,273.53Zm126.62,9.69c-.17.32-.36.63-.49,1-.73,1.82-2.1,2.21-3.87,1.75a5.51,5.51,0,0,0-.6-.05c-1.76-.26-2.16-.65-2-2.43.25-2.58.57-5.16,1-7.71a5,5,0,0,1,1.14-2.29c.22-.25,1.05,0,1.68.06-.22-.6.74-1.53-.46-1.77-1.92-.38-3.86-.62-5.8-.86-.28,0-.83.22-.84.37,0,.39.08,1.06.31,1.14,1.34.5,1.42,1.58,1.26,2.66-.41,2.92-.94,5.83-1.37,8.75-.11.73-.34,1.13-1.17,1.2-.43,0-.82.48-1.36.83l11.37,2a.82.82,0,0,0,.55-.1A4.09,4.09,0,0,0,380.38,283.21Zm-182.19-1.3c.16.28.28.48.39.7,1.73,3.38,2.42,7.08,3.28,10.72.19.81-.4,1-.88,1.35a4,4,0,0,0-.71,1,3.78,3.78,0,0,0,1.15.11c1.7-.38,3.39-.79,5.07-1.26.31-.09.53-.51.56-.55-.88-.62-1.91-1-2.12-1.57-1.12-3.23-2.08-6.52-3-9.82a1.85,1.85,0,0,1,.92-2.26c.3-.16.35-.78.58-1.37l-7.18,2C196.64,282.11,196.73,282.16,198.19,281.92ZM267.38,293c.6,2.26-.76,4-1.15,5.93-.53-.79-1.33-1.67-1.21-2.39a14.05,14.05,0,0,1,1.56-3.44l-2.53.27c1.3.81.58,1.51.34,2.21l-.33.06-.59-2.24-2.88.32c2.29,1.49,3.11,4,2,5.65-.79-1.37-1.6-2.7-2.33-4.07a6.14,6.14,0,0,1-.32-1.55l-2.8.29a23.94,23.94,0,0,1,1.61,2.08c1,1.7,2,3.45,3,5.16a3.09,3.09,0,0,0,.66.6,3,3,0,0,0,.57-.69c.33-.82.6-1.66,1-2.73.54.94.91,1.64,1.34,2.31a4.19,4.19,0,0,0,.73.69,3.36,3.36,0,0,0,.59-.81c.5-1.47.91-3,1.42-4.44.4-1.14.91-2.25,1.38-3.4Zm69.88,7.77.35.06,2.95-5.35a13,13,0,0,1,0,3c-.06.86.2,1.86-1,2.31l3.5.26c-1.49-1.34-.72-2.86-.6-4.15s-.69-3,1.32-3.82c-.5-.15-.93-.14-1.34-.23-1.06-.22-1.62.14-2,1.2a39.46,39.46,0,0,1-2.25,4.15L336,292.42l-2.57-.18-.31.27c1.6.38,1.2,1.41,1.09,2.34s-.24,2-.38,3-.11,1.88-1.14,2.46l3.09.22c-.55-.49-1.12-.76-1.11-1,0-1.46.18-2.92.3-4.38h.3Zm-109.43,5.93.1.35a44.2,44.2,0,0,0,5.22-1.38,2.06,2.06,0,0,0,.28-3.67,3.5,3.5,0,0,0-.8-.32,6,6,0,0,0,.35-2.27,1.92,1.92,0,0,0-1.45-1.13c-1.7.08-3.39.42-5.08.66C228,300.15,229,305.69,227.83,306.74Zm9.21-9.8,0,.4c1.46.77,2.29,6.32.91,7.72l3.92-.62c-1.3-.86-1.46-1.27-1.45-3.58a7.62,7.62,0,0,1,1.12.83c.45.5.79,1.11,1.26,1.59a2.33,2.33,0,0,0,2.95.42l-3.11-3.23c.93-.89,1.59-1.72,1-2.7a2.61,2.61,0,0,0-1.69-1.25A42.26,42.26,0,0,0,237,296.94Zm92.32-1.13a4,4,0,0,0-4.23-4.17,4.22,4.22,0,0,0-4.43,4.3,4.34,4.34,0,0,0,8.67-.14ZM281.79,294c1.7,1.91,3.21,3.64,4.77,5.34a3.51,3.51,0,0,0,.93.53,3.3,3.3,0,0,0,.27-.95c0-1.56-.15-3.11-.22-4.67,0-.93-.14-1.9.87-2.62l-3,.16c2.16,1.32,1,3.28,1.28,4.87a43.08,43.08,0,0,1-3.42-3.48c-1.18-1.33-1.77-1.5-3.84-.82,1.44.18,1.36,1.13,1.39,2s.14,1.75.15,2.63c0,1.09.36,2.28-.83,3.13l3-.17.29-.33c-1.81-.06-1.54-1.29-1.61-2.26S281.79,295.38,281.79,294Zm87,10.26c-.5-.58-1.06-.93-1-1.25.09-1.59.33-3.17.52-4.76l.35,0c1.15,2,2.29,4.1,3.47,6.14a3.15,3.15,0,0,0,.73.65,3.28,3.28,0,0,0,.46-.86c.3-1.57.55-3.15.81-4.72.15-.9.28-1.81,1.38-2.26l-2.92-.49c1,1.13,1.11,3,.11,5.17-.9-1.54-1.79-3-2.62-4.49-.71-1.28-1.55-1.68-3.46-1.39,1.34.52,1.15,1.43.93,2.39s-.33,1.89-.48,2.83-.21,2-1.39,2.58Zm-71.8-8.1a8.34,8.34,0,0,1,1,1.67,1.65,1.65,0,0,1-.3,1.13,12.19,12.19,0,0,1-2.17-.37c-.17,0-.32-.23-.45-.38a4.77,4.77,0,0,1-.25-5.28,2.5,2.5,0,0,1,4.14.08c.14.2.32.37.55.64.26-2.08.17-2.3-1.64-2.36a8.6,8.6,0,0,0-3.16.46,4,4,0,0,0-2.54,4.42,3.75,3.75,0,0,0,3.48,3.4,28.89,28.89,0,0,0,4.1-.16l.44-3.25Zm-41.82,4.19c-.61,1.46-1.78,2.3-3.09,1.69-.65-.3-.75-1.79-1.09-2.74l.39-.4,2.38.64-.3-2.22-2.38,1.39-.38-3.06c1.39-.5,2.54-.54,3.29,1l.23-.32-.35-1.9-5.72.78a9.43,9.43,0,0,1,.87,1.84c.22,1,.27,2.05.41,3.08s.69,2.3-.83,3.06c1.76-.12,3.4-.36,5.05-.55S255.5,302.37,255.14,300.38Zm95.23-2.14c1.5.47,2.65.09,3.18-1a2.14,2.14,0,0,0-.64-2.78c-1.68-1.12-3.58-.86-5.67-1,1.7,1.41.75,2.9.63,4.17s.47,2.92-1.24,3.82l3.83.37c-.44-.52-1-.86-1-1.18.13-2.09.38-4.18.59-6.27l.44-.23c.42.42,1.06.77,1.22,1.27A2.14,2.14,0,0,1,350.37,298.24Zm10-3.85a13.37,13.37,0,0,0-1.62,1.78c-.76,1.26-1.36,2.62-2.11,3.89a26.47,26.47,0,0,1-1.7,2.29l2.72.35c-.77-.86-.84-2-.06-2.4a2.72,2.72,0,0,1,2.08.09c.62.28.35,1.85-.4,2.54l3.44.44a16.66,16.66,0,0,1-1-2.38C361.24,298.93,360.86,296.86,360.35,294.39Zm-43.24-.62c-.12-.89.49-1.88-.6-2.22a6.09,6.09,0,0,0-4.56.26,4.13,4.13,0,0,0-2.34,4.11,3.67,3.67,0,0,0,2.82,3.47,10.9,10.9,0,0,0,3.41.18c1.3-.11,1.68-.93,1.24-2.24-1.9,2-3.17,2.29-4.44,1a4.53,4.53,0,0,1-.08-5.63C313.79,291.44,315,291.68,317.12,293.77Zm65.32,13,.16-.34c-1-.28-1.08-.91-.88-1.75.56-2.47,2.24-4,4.38-5.44l-2.7-.52-.25.42.93.32-2.21,2.73-.31-.14c.28-1.18-1.31-2.38.3-3.65l-3.74-.74a7.16,7.16,0,0,1,1,1.48c.38,1.13.66,2.3.92,3.46a3,3,0,0,1-1.62,3.36ZM482,324a4.17,4.17,0,1,0-4.13-4.27A4.24,4.24,0,0,0,482,324ZM273,300.71l3.44-.24a10.72,10.72,0,0,1-.83-2.08,32.85,32.85,0,0,1-.27-3.45c-.05-.9-.33-1.9.76-2.58l-3.89.33C273.94,293.79,274.33,299.54,273,300.71Z" transform="translate(-90.24 -224.24)"/><path class="cls-1" d="M175.29,392.51l-3.6,3.92a12.85,12.85,0,0,1-8.77,4.41,6.33,6.33,0,0,0-3.94,1.82c-4.19,3.88-7.24,8.44-8.21,14.15a20.47,20.47,0,0,0,4,16.45c9.07,11.62,20.81,18.55,35.89,18.65a29.41,29.41,0,0,0,19.08-6.38c6.89-5.52,9.34-12.78,8.34-21.41-1.29-11.21-7.52-19-16.88-24.66-6.41-3.88-13.4-6.34-20.56-8.43-9.87-2.88-19.34-6.65-27.78-12.67-5.4-3.85-10.13-8.34-13.41-14.18a29.52,29.52,0,0,1,7-37,48.32,48.32,0,0,1,23.16-10.62,71.09,71.09,0,0,1,35,2,40.46,40.46,0,0,1,20.13,13.88c8,10.48,7.63,22.36-1,32.32a62.7,62.7,0,0,1-11.54,9.89,9,9,0,0,1-8.85,1.29c-3.17-1.18-6.37-2.32-9.81-3.57,3.07-2.83,4.75-6.69,8.86-8a4.23,4.23,0,0,0,1.81-1.66c4.43-6.26,4.73-13,2.1-20-3.21-8.47-9.61-13.55-18.25-15.65a37.2,37.2,0,0,0-27.2,3.42,24.87,24.87,0,0,0-3.12,2,13.43,13.43,0,0,0-4.41,17c1.83,4.14,4.94,7.23,8.38,10,6.34,5.16,13.61,8.62,21.13,11.63s15.2,5.89,22.65,9.15a86.9,86.9,0,0,1,21.62,13c7,5.93,11.69,13.25,13.24,22.43,1.81,10.72-1.09,20.1-8,28.33-7.49,8.93-17.2,14.2-28.42,16.71-15.72,3.5-31.43,3.39-46.94-1.27a49.36,49.36,0,0,1-23.41-15.2c-9.86-11.31-9.24-25.35-1.24-36.13A53.61,53.61,0,0,1,149,393.88a106.32,106.32,0,0,1,9.75-4.81,7.92,7.92,0,0,1,5.76-.2C168.12,390.06,171.74,391.31,175.29,392.51Z" transform="translate(-90.24 -224.24)"/><path class="cls-1" d="M369.33,386.31c0,19.88-4.79,36.79-15.11,52-9.35,13.76-22.47,21.61-38.95,23.84-10.32,1.39-20.51,1-30.41-2.53-11.66-4.11-20.57-11.76-27.6-21.76A73.77,73.77,0,0,1,244,401.44c-1.22-13.5-.43-26.87,3.69-39.85,7.31-23,22.9-38,46-44.18,18.33-4.91,35.74-1.8,50.6,10.69,10.84,9.12,17.78,20.93,21.67,34.53A91,91,0,0,1,369.33,386.31Zm-100.37-4c.42,6,.72,12,1.3,17.93A91.34,91.34,0,0,0,276,424.94a59.18,59.18,0,0,0,9.14,15.81c6.32,7.78,14.59,11.17,24.45,10.92,10-.25,17.92-4.61,23.41-13a65.21,65.21,0,0,0,5.1-9.61c4-9.23,5.34-19,5.47-29a184.56,184.56,0,0,0-3.39-36,61,61,0,0,0-9.75-23.9c-6-8.66-14.11-13.36-24.71-13.53-10-.16-18.43,3.39-24.8,11.3a48.9,48.9,0,0,0-8.79,17.7C269.72,364.35,269.17,373.32,269,382.36Z" transform="translate(-90.24 -224.24)"/><path class="cls-1" d="M389.65,375.8c.17-.59.27-1.13.47-1.63q2.34-5.84,4.72-11.66A46,46,0,0,0,397.68,349c.71-8,1.53-15.92,2.3-23.87.28-2.9.58-5.81.81-8.72.06-.8.28-1.09,1.15-1.07q24.77.66,49.54,1.23a3.78,3.78,0,0,1,3.34,1.69c1.17,1.71,2.29,3.46,3.53,5.34.9-.92,1.78-1.86,2.7-2.77a13.61,13.61,0,0,1,9-4.3c2-.11,4-.42,6.1-.66a9.9,9.9,0,0,1-.16,1c-1,4-2.1,7.95-3.11,11.93-1.12,4.45-4.29,6.39-8.53,6.83a66.91,66.91,0,0,1-7.66.18,237.7,237.7,0,0,1-33.06-2.94c-1.53-.24-3.11-.2-4.66-.35a3,3,0,0,0-3,1.52,18.64,18.64,0,0,0-2,4.31c-1.64,5.92-3.12,11.88-4.66,17.82,4,.89,8.25,1.75,12.44,2.76,12.46,3,24.6,6.94,35.86,13.21,7.83,4.36,14.92,9.67,20.18,17,4.42,6.19,7.6,13,8.4,20.64a36,36,0,0,1-2.85,17.69c-5.42,13.14-15.15,22-27.71,28.11a73.33,73.33,0,0,1-36.83,6.93c-8.85-.53-17.26-3.15-25.5-6.32a115.24,115.24,0,0,1-30.56-17c-.28-.22-.55-.45-.84-.7.15-.29.26-.55.4-.79a100.49,100.49,0,0,0,9.31-21,1.88,1.88,0,0,1,.67-1.05,22.92,22.92,0,0,1,10-3.27,10.37,10.37,0,0,1,8.1,3,64.32,64.32,0,0,1,4.68,5.87c.51.65.36,1.17-.33,1.57-1.65,1-3.28,2-5,2.89-2.32,1.25-4.68,2.43-7,3.58a1.3,1.3,0,0,0-.85,1.48,8.37,8.37,0,0,0,3.34,6.24,41.3,41.3,0,0,0,11.55,5.72,114.28,114.28,0,0,0,37.47,6.67c10.63.07,18.69-4.52,24.12-13.64,2.74-4.6,4.87-9.48,5.35-14.88.68-7.78-2.3-14.34-7.38-20-6.58-7.32-14.7-12.51-23.62-16.48a94.62,94.62,0,0,0-28.4-7.45c-4.53-.49-9.09-.67-13.63-1C390.34,375.88,390.07,375.84,389.65,375.8Z" transform="translate(-90.24 -224.24)"/><path class="cls-1" d="M361.17,458.22c-4.08,4.51-8.38,8.73-12,13.45-4.35,5.59-10,9-16.49,11.19-.37.13-.74.27-1.24.46,2.84,1,5.52,2,8.25,2.92a36.69,36.69,0,0,1,12,6.79c1.36,1.12,2.8,2.15,4.08,3.35,3.75,3.52,8.32,5.09,13.29,5.78.63.09,1.25.19,2.13.33-.49.37-.81.63-1.16.86a26.28,26.28,0,0,1-18,4,48.24,48.24,0,0,1-26-10.9c-4.59-3.79-9.22-7.54-13.83-11.32-.43-.35-.83-.74-1.3-1.16,1.21-.49,2.36-.87,3.43-1.42a37.57,37.57,0,0,0,12.84-10.42,49.9,49.9,0,0,1,9.21-9.39A25.12,25.12,0,0,1,351,457.57c3.06-.11,6.14.26,9.2.43A5,5,0,0,1,361.17,458.22Z" transform="translate(-90.24 -224.24)"/><path class="cls-1" d="M251.56,458.15c1.42-.19,2.83-.44,4.25-.54a37.52,37.52,0,0,1,11.44.73c6.11,1.43,10.75,5.13,14.89,9.59,1.87,2,3.52,4.25,5.34,6.32A36.9,36.9,0,0,0,299.41,483c.75.36,1.57.59,2.48.92a4.9,4.9,0,0,1-.56.64c-5.77,4.7-11.38,9.6-17.35,14a45.25,45.25,0,0,1-29.6,8.91c-4-.17-10.19-2.65-12.51-4.92,2.18-.45,4.36-.86,6.51-1.36a17,17,0,0,0,6.93-3.41c2.51-2,5.06-4,7.57-6.09,4.34-3.55,9.57-5.22,14.73-7,1.23-.43,2.48-.84,3.68-1.24-2.54-1.1-5.1-2.11-7.58-3.3A27.19,27.19,0,0,1,264.9,473c-4.14-4.81-8.55-9.4-12.85-14.08a2.9,2.9,0,0,0-.6-.39Z" transform="translate(-90.24 -224.24)"/><path class="cls-1" d="M269.75,483c-5.79,3.36-11.47,6.79-17.28,10a58.77,58.77,0,0,1-9.47,4.27,44.34,44.34,0,0,1-24.1,1.39,24.12,24.12,0,0,1-11.06-6.19,3,3,0,0,1-.31-.36s0-.07,0-.4c1.62,0,3.28,0,4.93,0a19.72,19.72,0,0,0,10.08-3c2.48-1.53,5.05-2.91,7.58-4.37,5-2.88,10.61-3.62,16.13-4.65,1-.19,2-.35,3.27-.57-.5-.29-.85-.46-1.17-.66-2.57-1.68-5.22-3.25-7.69-5.07a19.73,19.73,0,0,1-5.74-6.83c-1.85-3.53-3.75-7-5.31-10l8.23-8.71c.12.11.44.38.73.68,3.42,3.53,7,6.91,10.2,10.65a66.41,66.41,0,0,1,6.55,9.42,40.64,40.64,0,0,0,10,11.49C266.65,481,268.1,481.88,269.75,483Z" transform="translate(-90.24 -224.24)"/><path class="cls-1" d="M381.88,458.42c-3.51,9.13-9,16.54-18.56,20.35l.23.25c3.31.64,6.62,1.31,9.94,1.91a31.68,31.68,0,0,1,9.82,3.67c2,1.09,4,2.11,5.8,3.36a23.7,23.7,0,0,0,14,3.82h2.13l.34.4a8.72,8.72,0,0,0-1.15.75,26.09,26.09,0,0,1-16.7,6.6,48.06,48.06,0,0,1-27.23-6.46l-16-9.39c-.44-.26-.85-.55-1.09-.7,2.13-1.63,4.31-3.16,6.33-4.87a29.58,29.58,0,0,0,7.44-9.16c3.18-6.28,8-11.24,12.9-16.12a1.09,1.09,0,0,1,1-.23C374.7,454.53,378.34,456.5,381.88,458.42Z" transform="translate(-90.24 -224.24)"/><path class="cls-1" d="M304.58,484H308c0,1.26,0,2.52,0,3.78,0,2.1.32,2.58,2.4,3.3a16.33,16.33,0,0,1,8.36,5.74c1.73,2.41,3.18,5,4.92,7.78h-3l-.82,8.82-2.91-.64-3.31,6.74-2.12-.7-5.19,5.58-5.23-5.57-2.11.69-3.32-6.74-2.91.65-.8-8.78h-2.7c2.79-6.11,6.16-11.43,12.94-13.56,2.19-.69,2.41-1.16,2.41-3.5C304.58,486.39,304.58,485.24,304.58,484Z" transform="translate(-90.24 -224.24)"/><path class="cls-1" d="M224.4,459.43c3.92,6.19,7.81,12.63,14,17.33-.32.16-.69.37-1.08.53-6,2.52-11.89,5.08-17.88,7.52-6.9,2.81-13.76,2.07-20.56-.5-1.87-.71-3.75-1.37-5.62-2.07a23.62,23.62,0,0,1-9.93-7.29,6.68,6.68,0,0,1-.39-.61c1.32.16,2.5.32,3.67.44a24.83,24.83,0,0,0,9.71-.9,85.49,85.49,0,0,1,21.43-2.93c.72,0,1.44,0,2.4,0l-8.12-5.68Z" transform="translate(-90.24 -224.24)"/><path class="cls-1" d="M374.4,476.74c5.77-4.23,9.33-10.14,13.17-15.84l12.62,4.53a37.55,37.55,0,0,1-7.65,5.37c2.19.12,4,.26,5.88.32A80.91,80.91,0,0,1,418,474.27c3.63,1,7.28.66,10.94.17.2,0,.39-.07.59-.09s.13,0,.33.12a19.5,19.5,0,0,1-5.18,5,47.72,47.72,0,0,1-21.59,7.14,21.63,21.63,0,0,1-9.6-1.72c-6.09-2.49-12.14-5.09-18.21-7.65C375,477.08,374.73,476.91,374.4,476.74Z" transform="translate(-90.24 -224.24)"/><path class="cls-1" d="M341.75,277.89c-.75,1.4-1.47,2.82-2.28,4.19a1.82,1.82,0,0,1-1.1.85c-.24,0-.7-.57-.84-1q-2.22-6.26-4.35-12.55c-.26-.77-.4-1.56-1.47-1.61-.17,0-.45-.46-.43-.69s.38-.57.57-.56c1.62.11,3.25.27,4.86.47.18,0,.32.39.4.48a5.46,5.46,0,0,1,1.42-.34,26.73,26.73,0,0,1,3.32.34,3.76,3.76,0,0,1,1.12.64c-.36.27-.71.55-1.08.81a2.72,2.72,0,0,1-.47.19l1,3.51.34.09,1.62-3.07-1-1.53a4.9,4.9,0,0,1,1.49-.39q3.82.27,7.64.69c.42,0,.81.45,1.21.69-.32.26-.65.51-1,.78a4.34,4.34,0,0,0-1.11,1c-2,3.68-4,7.38-5.94,11.08-.09.18-.11.42-.24.54-.37.34-.89,1-1.16.89a2,2,0,0,1-1.07-1.18c-.48-1.43-.81-2.9-1.2-4.36Zm3.37,1.11.32.06,4.65-9.18c-2.37-.94-3-.74-4.3,1.17-.61.93-1.25,1.85-1.78,2.83a2.15,2.15,0,0,0-.23,1.46C344.14,276.57,344.65,277.77,345.11,279Zm-6-.37c1.81-2,2.47-4,1.14-6.46a8.15,8.15,0,0,1-.51-1.47c-.65-2-1.91-2.71-4-2.06Z" transform="translate(-90.24 -224.24)"/><path class="cls-1" d="M388.45,280.6l6.05-3.83v-1.62c.45.05.9.09,1.35.16,1.1.17,2.21.32,3.3.56.27.06.48.42.71.64-.25.25-.51.72-.76.71-2.24-.07-3.92,1.24-5.71,2.25-.83.47-1.61,1-2.57,1.62,1.51,2.66,3,5.27,4.49,7.83.3.5,1,.75,1.46,1.18a5,5,0,0,1,.65,1c-.37.15-.77.48-1.1.42-1.68-.31-3.34-.73-5.31-1.18l1.08-1.54-3.7-6.59-.28.09c-.32,1.51-.66,3-1,4.54a1,1,0,0,0,.69,1.3c.3.1.49.52.74.8-.33.23-.71.69-1,.64-1.65-.28-3.28-.66-4.9-1.07a.85.85,0,0,1-.38-.75c.09-.27.49-.65.71-.62,1.07.13,1.27-.54,1.45-1.33.77-3.26,1.56-6.52,2.33-9.79.2-.85.4-1.71-1-1.74-.2,0-.39-.55-.58-.85.28-.15.59-.47.84-.43,1.65.26,3.3.55,4.92.95.28.07.54.65.58,1,0,.16-.59.59-.84.54-.89-.17-1.14.31-1.3,1C389.14,277.74,388.83,279,388.45,280.6Z" transform="translate(-90.24 -224.24)"/><path class="cls-1" d="M278.05,282.85a7.39,7.39,0,0,1-7.91-7.27c0-3.9,3-9,7.67-8.74,5.65.32,8.55,3.07,8.7,8.42C286.65,279.81,283.17,282.84,278.05,282.85Zm5.19-7a10.4,10.4,0,0,0-1.55-5.58c-1.16-1.87-3-1.82-4.78-1.65a3.45,3.45,0,0,0-2.83,2.46,9.67,9.67,0,0,0,2,9.48,3.06,3.06,0,0,0,2.95.87C282.07,280.81,283.27,279.26,283.24,275.88Z" transform="translate(-90.24 -224.24)"/><path class="cls-1" d="M289.26,282c.23-.37.4-1,.72-1.07.72-.24.84-.71.95-1.34a27.41,27.41,0,0,0-.12-9.54,1.85,1.85,0,0,0-1.39-1.72c-.51-.15-.87-.82-1.48-1.45,1.56-.12,2.7-.23,3.84-.29a.82.82,0,0,1,.49.28c2.52,2.45,5.06,4.89,7.54,7.38.86.86,1.59,1.85,2.6,2.72-.24-2.68-.43-5.36-.75-8-.16-1.28-.39-1.33-2.64-1.47-.5-1.31-.38-1.44,1-1.41,1.62,0,3.25,0,5.08,0l.32,1.26c-1.8.2-1.79,1.57-1.75,2.75.1,2.75.36,5.5.55,8.24l.27,3.85a10.88,10.88,0,0,1-2.12-1.19c-1.61-1.53-3.12-3.17-4.7-4.73s-3.29-3.14-5-4.77c0,2.55-.06,5.11,0,7.67,0,.87.72,1.35,1.62,1.52a3.93,3.93,0,0,1,1.53.68c-2,1.16-4.26,0-6.23.94Z" transform="translate(-90.24 -224.24)"/><path class="cls-1" d="M217.75,291.4c-1.21.27-2.43.53-3.64.83s-2.42.67-3.69,1v-1.7c1.11,0,1.27-.71,1.24-1.64a26.79,26.79,0,0,0-2.57-10c-.11-.25-.59-.41-.92-.46a4.82,4.82,0,0,0-1.19.12c-.34-1-.34-1.48.91-1.59a37.56,37.56,0,0,0,4.32-.91c.66-.14,1.33-.25,2-.33,1.58-.19,3.09,0,4,1.45a4.28,4.28,0,0,1,0,4.65c-.1.17-.21.34-.4.66a48.15,48.15,0,0,0,3.5,3.86,6.73,6.73,0,0,0,2.83,1.41c.84.21,1.18.5,1.11,1.4a6.69,6.69,0,0,1-6.51-1.61,12.87,12.87,0,0,1-2.22-2.8c-.53-.92-1-1.33-2.05-.82a2.67,2.67,0,0,1-.68.14c-.14,3.53.85,5.06,3.83,6Zm-4.46-7.13c1.44-.38,2.5-.92,2.76-2.35a3.28,3.28,0,0,0-1.32-3.37,2.14,2.14,0,0,0-2.72-.08Z" transform="translate(-90.24 -224.24)"/><path class="cls-1" d="M428.71,300.73c-4.74-1.43-5.57-5.18-5.65-9.4l-2-.55c-1.81,2.69-1.65,4.76.53,7.12l-.09.34-7.18-2,.27-1.26c1.39.64,1.85-.31,2.31-1.21a27.65,27.65,0,0,0,2.44-9.93,1,1,0,0,0-.46-.69,6.65,6.65,0,0,0-1.22-.43c.23-1.46.26-1.42,1.52-1s2.84.81,4.25,1.23a17.28,17.28,0,0,1,2.26.78c3.12,1.43,3.5,4.88.7,6.86a1.53,1.53,0,0,0-.75,1.95,31,31,0,0,0,.87,3.59,8.31,8.31,0,0,0,1.92,2.81C429.09,299.57,429.24,300,428.71,300.73ZM421,289.82c1.32.3,2.46.41,3.37-.54a3.28,3.28,0,0,0,.74-3.55,2.47,2.47,0,0,0-2.44-1.71c-.26,1-.5,1.86-.76,2.76S421.3,288.68,421,289.82Z" transform="translate(-90.24 -224.24)"/><path class="cls-1" d="M365.8,285.72c-2.21-.19-4.26-.33-6.3-.56-.68-.08-1.76,0-1.37-1.34.39,0,.74.1,1.08.11.87,0,1.4-.39,1.35-1.28a36.85,36.85,0,0,0-.4-3.8c0-.24-.56-.53-.88-.58a22.51,22.51,0,0,0-2.86-.21,1,1,0,0,0-.77.39c-.8,1.35-1.54,2.74-2.35,4.21l2.58,1-.06.5a10.29,10.29,0,0,1-1.88.22,34.91,34.91,0,0,1-3.77-.45c-.34-.06-.61-.45-.92-.69a8.37,8.37,0,0,1,1-.92c.73-.49,1.79-.74,2.2-1.41,1.68-2.76,3.19-5.61,4.7-8.47.59-1.12.75-2.38,1.83-3.34a1.37,1.37,0,0,1,2.42.74,43.89,43.89,0,0,0,3,13.38c.12.34.4.86.66.89C366.38,284.28,366.13,285,365.8,285.72Zm-6.41-8.7-.9-3.25-.28,0-1.51,3c.55,0,.91.06,1.26.09S358.74,276.92,359.39,277Z" transform="translate(-90.24 -224.24)"/><path class="cls-1" d="M414.15,279.59l-1.23,3.29a5.72,5.72,0,0,1-.67-.74c-.27-.46-.38-1.21-.76-1.36a13.44,13.44,0,0,0-3.11-.79c-.19,0-.6.48-.7.8-.41,1.37-.75,2.76-1.15,4.29,1,.15,1.82.3,2.68.41.65.08,1.3.14,1.44-.8,0-.17.38-.29.59-.44.12.23.36.49.33.69-.23,1.38-.53,2.76-.8,4.13h-.52l-.39-2.12-3.72-.85c-.29,1.76-.59,3.39-.82,5a1.2,1.2,0,0,0,1.18,1.47c.67.09,1.34.23,2,.27a2.62,2.62,0,0,0,2.79-2.11c1.24.94,1.08,1.68-.72,3.91-2.72-.61-5.4-1.18-8.07-1.81a12.84,12.84,0,0,1-2.23-.84c-.19-.09-.28-.4-.42-.61.23-.09.53-.33.68-.25,1.17.58,1.43-.24,1.78-1a31.41,31.41,0,0,0,2.27-9.87c.07-.78-.26-1-.92-1.25a1.86,1.86,0,0,1-.92-1.06C406.69,277.68,410.21,279.32,414.15,279.59Z" transform="translate(-90.24 -224.24)"/><path class="cls-1" d="M244.44,285.95a8.06,8.06,0,0,1-1.27,1.1c-.15.08-.72-.17-.74-.32-.27-1.62-.48-3.25-.7-4.88l.44-.15a4.84,4.84,0,0,0,.71.66,23,23,0,0,0,3.76,2.2,2.46,2.46,0,0,0,3.11-2.19,1.66,1.66,0,0,0-.57-1.22,13.12,13.12,0,0,0-2.44-1.47c-1.23-.57-2.54-1-3.76-1.55-2.4-1.16-3.44-3.17-2.71-5.07a5.07,5.07,0,0,1,6-3.06l.54.14a1.82,1.82,0,0,1,.19-.64c.18-.23.47-.53.69-.52s.52.35.59.6c.32,1.23.58,2.47,1,4.13a21.36,21.36,0,0,1-2.07-1c-.5-.32-.89-.8-1.37-1.16a2.07,2.07,0,1,0-2.58,3.24,15.13,15.13,0,0,0,2.41,1.3c1.36.67,2.8,1.19,4.08,2a4.12,4.12,0,0,1,.41,6.88A5.27,5.27,0,0,1,244.44,285.95Z" transform="translate(-90.24 -224.24)"/><path class="cls-1" d="M224.08,274.49l11-2.43.21,3.43c-.49-.27-.78-.4-1-.58s-.8-.85-1.18-.83a16.54,16.54,0,0,0-3.16.58c-.15,0-.28.55-.25.82.18,1.46.42,2.91.66,4.55,1.67-.6,3.83-.05,4-2.84,1.3,1.48,1.23,3.17,1.42,4.78l-.29.17c-.25-.3-.63-.57-.72-.91-.24-.85-.72-.88-1.44-.69-.88.24-1.78.38-2.82.6.39,1.63.72,3.18,1.14,4.7a1.3,1.3,0,0,0,1.89,1,11.14,11.14,0,0,0,3-1.39c.51-.41.55-1.39.84-2.2.71,0,1.09.54,1.07,1.29a14.89,14.89,0,0,1-.3,2.37.7.7,0,0,1-.48.42c-2.94.53-5.89,1-8.83,1.53a11.1,11.1,0,0,1-1.76,0l-.12-.36,1.62-.93a23.19,23.19,0,0,0-.81-7.81c-.24-.93-.59-1.82-.83-2.75s-.59-1.7-1.84-1.44c-.28.06-.66-.34-1-.52Z" transform="translate(-90.24 -224.24)"/><path class="cls-1" d="M308.77,266.4h11.34l-.49,3.22c-.42-.35-.66-.52-.87-.73-.36-.38-.66-1.06-1.06-1.12a15.25,15.25,0,0,0-3.22,0c-.15,0-.36.5-.39.78-.11,1.43-.16,2.85-.24,4.49a28,28,0,0,0,3.06-.19c.32-.05.57-.56.83-.87s.34-.45.51-.67c.17.24.48.47.49.71,0,1.34,0,2.68,0,4l-.42.13-.86-1.9h-3.85c.1,1.69.16,3.42.31,5.15a1,1,0,0,0,1.25,1c.64,0,1.28,0,1.91-.1a2.69,2.69,0,0,0,2.57-2.73,1.18,1.18,0,0,1,1,1.5,10.93,10.93,0,0,1-.78,2.25,1,1,0,0,1-.75.34c-2.71-.05-5.43-.12-8.14-.23a26.16,26.16,0,0,1-2.7-.42c.55-.38.78-.69,1-.68,1.24,0,1.31-.82,1.48-1.7A30.61,30.61,0,0,0,311,269c-.1-.8-.21-1.47-1.32-1.42-.34,0-.7-.5-1.06-.78Z" transform="translate(-90.24 -224.24)"/><path class="cls-1" d="M183.29,285.17c1.64-.44,3.15-.8,4.63-1.24s2.87-1,4.32-1.42a1.15,1.15,0,0,1,.86,0c1,.76.89,3.21-.09,3.92-.37-.6-.6-1.48-1.14-1.72a4.34,4.34,0,0,0-2.43-.14,15.6,15.6,0,0,0-2.58.91l1.8,5.68c1.45-1.05,3.89-.59,3.31-3.63,1.81,1.46,2,3.31,2.63,5-.72.39-1.21.24-1.46-.45s-.72-.86-1.4-.66-1.54.39-2.38.59c-.08,2.1,1.1,3.74,1.74,5.53.72.07,1.41-1.08,2.14.28a12.22,12.22,0,0,1-1.86,1.09,28.84,28.84,0,0,1-3.32,1,3,3,0,0,1-1-.13c.2-.34.38-.69.61-1,.08-.11.28-.13.51-.22C187.07,293.88,185.85,289.4,183.29,285.17Z" transform="translate(-90.24 -224.24)"/><path class="cls-1" d="M253.76,273.53a4.07,4.07,0,0,1-.57-1.27c-.18-2.83,0-2.83,2.83-2.93s6-.49,8.95-.79c2-.2,2.39.2,2.07,2.21-.06.35-.14.7-.25,1.27-1.41-1.93-3.33-1.8-5.56-1.65.16,1.58.27,3.11.47,4.63q.41,3,1,6c.06.31.47.57.73.84a4,4,0,0,1,.89,1.18c-2.13,0-4.11,1.17-6.14.34L258,283l1.83-1.07-1.28-11.13c-2,.18-3.62.65-4.4,2.65Z" transform="translate(-90.24 -224.24)"/><path class="cls-1" d="M380.38,283.21a4.09,4.09,0,0,1-.64,4.49.82.82,0,0,1-.55.1l-11.37-2c.55-.35.94-.79,1.36-.83.83-.07,1.06-.47,1.17-1.2.44-2.92,1-5.82,1.37-8.75.15-1.09.07-2.17-1.26-2.66-.23-.09-.34-.76-.31-1.14,0-.15.56-.41.84-.37,1.94.24,3.89.48,5.8.86,1.19.24.24,1.17.46,1.77-.62,0-1.46-.31-1.68-.06a5,5,0,0,0-1.14,2.29c-.43,2.56-.75,5.13-1,7.71-.17,1.78.23,2.17,2,2.43a5.51,5.51,0,0,1,.6.05c1.77.46,3.13.07,3.87-1.75C380,283.85,380.21,283.54,380.38,283.21Z" transform="translate(-90.24 -224.24)"/><path class="cls-1" d="M198.19,281.92c-1.46.24-1.55.2-1.93-1l7.18-2c-.23.58-.28,1.2-.58,1.37a1.85,1.85,0,0,0-.92,2.26c.9,3.3,1.86,6.59,3,9.82.21.61,1.24.95,2.12,1.57,0,0-.25.46-.56.55-1.67.47-3.37.88-5.07,1.26a3.78,3.78,0,0,1-1.15-.11,4,4,0,0,1,.71-1c.48-.36,1.07-.53.88-1.35-.86-3.65-1.55-7.34-3.28-10.72C198.47,282.4,198.34,282.2,198.19,281.92Z" transform="translate(-90.24 -224.24)"/><path class="cls-1" d="M267.38,293l2-.18c-.47,1.15-1,2.26-1.38,3.4-.51,1.47-.92,3-1.42,4.44a3.36,3.36,0,0,1-.59.81,4.19,4.19,0,0,1-.73-.69c-.43-.66-.8-1.37-1.34-2.31-.37,1.06-.64,1.91-1,2.73a3,3,0,0,1-.57.69,3.09,3.09,0,0,1-.66-.6c-1-1.71-2-3.46-3-5.16a23.94,23.94,0,0,0-1.61-2.08l2.8-.29a6.14,6.14,0,0,0,.32,1.55c.73,1.37,1.54,2.7,2.33,4.07,1.14-1.64.31-4.16-2-5.65l2.88-.32.59,2.24.33-.06c.23-.7,1-1.41-.34-2.21l2.53-.27a14.05,14.05,0,0,0-1.56,3.44c-.12.73.67,1.61,1.21,2.39C266.62,297,268,295.3,267.38,293Z" transform="translate(-90.24 -224.24)"/><path class="cls-1" d="M337.26,300.81l-2-5.7h-.3c-.11,1.46-.27,2.92-.3,4.38,0,.26.56.53,1.11,1l-3.09-.22c1-.58,1-1.56,1.14-2.46s.27-2,.38-3,.52-2-1.09-2.34l.31-.27,2.57.18,2.17,5.82a39.46,39.46,0,0,0,2.25-4.15c.42-1.06,1-1.42,2-1.2.41.08.84.08,1.34.23-2,.79-1.2,2.51-1.32,3.82s-.89,2.81.6,4.15l-3.5-.26c1.21-.45,1-1.45,1-2.31a13,13,0,0,0,0-3l-2.95,5.35Z" transform="translate(-90.24 -224.24)"/><path class="cls-1" d="M227.83,306.74c1.17-1,.19-6.59-1.37-7.76,1.69-.24,3.38-.59,5.08-.66a1.92,1.92,0,0,1,1.45,1.13,6,6,0,0,1-.35,2.27,3.5,3.5,0,0,1,.8.32,2.06,2.06,0,0,1-.28,3.67,44.2,44.2,0,0,1-5.22,1.38Zm2-4.06a10.73,10.73,0,0,0,.39,2.06c.15.4.75,1,1,.92a2,2,0,0,0,1.22-1C232.88,303.13,231.61,302.17,229.86,302.68Zm-.16-.77c1-.11,1.67-.32,1.68-1.33a1.4,1.4,0,0,0-1.16-1.57c-.62-.12-1.15,0-1,.86C229.38,300.52,229.53,301.17,229.7,301.91Z" transform="translate(-90.24 -224.24)"/><path class="cls-1" d="M237,296.94a42.26,42.26,0,0,1,4.92-.43,2.61,2.61,0,0,1,1.69,1.25c.61,1-.05,1.81-1,2.7l3.11,3.23a2.33,2.33,0,0,1-2.95-.42c-.47-.48-.81-1.09-1.26-1.59a7.62,7.62,0,0,0-1.12-.83c0,2.31.15,2.71,1.45,3.58l-3.92.62c1.38-1.4.55-6.94-.91-7.72Zm3.14,3.46.42.26c.44-.38,1.16-.7,1.24-1.15a2.9,2.9,0,0,0-.48-2c-.23-.34-1-.32-1.72-.52Z" transform="translate(-90.24 -224.24)"/><path class="cls-1" d="M329.36,295.81a4.34,4.34,0,0,1-8.67.14,4.22,4.22,0,0,1,4.43-4.3A4,4,0,0,1,329.36,295.81Zm-1.84-.09a12.79,12.79,0,0,0-.84-2.49,1.88,1.88,0,0,0-3.33,0,5.94,5.94,0,0,0,0,5.28,1.93,1.93,0,0,0,3.46-.24A16.31,16.31,0,0,0,327.52,295.72Z" transform="translate(-90.24 -224.24)"/><path class="cls-1" d="M281.79,294c0,1.35-.06,2.39,0,3.42s-.2,2.2,1.61,2.26l-.29.33-3,.17c1.19-.85.85-2,.83-3.13,0-.88-.12-1.75-.15-2.63s0-1.85-1.39-2c2.07-.69,2.66-.51,3.84.82a43.08,43.08,0,0,0,3.42,3.48c-.31-1.59.87-3.55-1.28-4.87l3-.16c-1,.72-.92,1.68-.87,2.62.07,1.56.17,3.11.22,4.67a3.3,3.3,0,0,1-.27.95,3.51,3.51,0,0,1-.93-.53C285,297.67,283.49,295.94,281.79,294Z" transform="translate(-90.24 -224.24)"/><path class="cls-1" d="M368.76,304.29l-3.16-.49c1.19-.54,1.24-1.58,1.39-2.58s.27-1.9.48-2.83.41-1.87-.93-2.39c1.91-.3,2.75.11,3.46,1.39.83,1.49,1.72,3,2.62,4.49,1-2.22.92-4-.11-5.17l2.92.49c-1.1.46-1.23,1.36-1.38,2.26-.26,1.58-.51,3.15-.81,4.72a3.28,3.28,0,0,1-.46.86,3.15,3.15,0,0,1-.73-.65c-1.18-2-2.32-4.09-3.47-6.14l-.35,0c-.19,1.58-.43,3.17-.52,4.76C367.7,303.36,368.26,303.71,368.76,304.29Z" transform="translate(-90.24 -224.24)"/><path class="cls-1" d="M297,296.19h3.14l-.44,3.25a28.89,28.89,0,0,1-4.1.16,3.75,3.75,0,0,1-3.48-3.4,4,4,0,0,1,2.54-4.42,8.6,8.6,0,0,1,3.16-.46c1.82.07,1.9.28,1.64,2.36-.23-.27-.41-.44-.55-.64a2.5,2.5,0,0,0-4.14-.08,4.77,4.77,0,0,0,.25,5.28c.13.15.28.34.45.38a12.19,12.19,0,0,0,2.17.37,1.65,1.65,0,0,0,.3-1.13A8.34,8.34,0,0,0,297,296.19Z" transform="translate(-90.24 -224.24)"/><path class="cls-1" d="M255.14,300.38c.36,2,.22,2.16-1.5,2.35s-3.29.42-5.05.55c1.51-.76,1-2,.83-3.06s-.19-2.07-.41-3.08a9.43,9.43,0,0,0-.87-1.84l5.72-.78.35,1.9-.23.32c-.75-1.57-1.9-1.54-3.29-1l.38,3.06,2.38-1.39.3,2.22-2.38-.64-.39.4c.35,1,.45,2.44,1.09,2.74C253.35,302.68,254.53,301.84,255.14,300.38Z" transform="translate(-90.24 -224.24)"/><path class="cls-1" d="M350.37,298.24a2.14,2.14,0,0,0,1.37-2.83c-.16-.5-.8-.85-1.22-1.27l-.44.23c-.21,2.09-.46,4.18-.59,6.27,0,.31.52.66,1,1.18l-3.83-.37c1.71-.89,1.13-2.55,1.24-3.82s1.07-2.76-.63-4.17c2.08.16,4-.1,5.67,1a2.14,2.14,0,0,1,.64,2.78C353,298.33,351.87,298.71,350.37,298.24Z" transform="translate(-90.24 -224.24)"/><path class="cls-1" d="M360.35,294.39c.51,2.48.89,4.54,1.37,6.59a16.66,16.66,0,0,0,1,2.38l-3.44-.44c.75-.69,1-2.26.4-2.54a2.72,2.72,0,0,0-2.08-.09c-.77.4-.71,1.55.06,2.4l-2.72-.35a26.47,26.47,0,0,0,1.7-2.29c.75-1.27,1.35-2.63,2.11-3.89A13.37,13.37,0,0,1,360.35,294.39Zm-.75,5-.39-2.2h-.27l-.93,2.05Z" transform="translate(-90.24 -224.24)"/><path class="cls-1" d="M317.12,293.77c-2.13-2.09-3.33-2.33-4.55-1a4.53,4.53,0,0,0,.08,5.63c1.27,1.26,2.54,1,4.44-1,.44,1.31.06,2.14-1.24,2.24a10.9,10.9,0,0,1-3.41-.18,3.67,3.67,0,0,1-2.82-3.47,4.13,4.13,0,0,1,2.34-4.11,6.09,6.09,0,0,1,4.56-.26C317.61,291.89,317,292.88,317.12,293.77Z" transform="translate(-90.24 -224.24)"/><path class="cls-1" d="M382.44,306.8l-4-.79a3,3,0,0,0,1.62-3.36c-.26-1.17-.54-2.33-.92-3.46a7.16,7.16,0,0,0-1-1.48l3.74.74c-1.61,1.27,0,2.47-.3,3.65l.31.14,2.21-2.73-.93-.32.25-.42,2.7.52c-2.14,1.45-3.82,3-4.38,5.44-.19.84-.14,1.48.88,1.75Z" transform="translate(-90.24 -224.24)"/><path class="cls-1" d="M482,324a4.17,4.17,0,1,1,4.21-4.08A4.23,4.23,0,0,1,482,324Zm-2.21-6.63c.9,0,1.66-.06,2.41,0a1.14,1.14,0,0,1,1.12,1.58c-.42,1.56,0,2.45,1.64,3.11a3.67,3.67,0,0,0-.65-5.21,3.74,3.74,0,0,0-4.92,5.61,3.52,3.52,0,0,0,4.89.27c-.66-.8-1.29-1.6-1.95-2.36a2.73,2.73,0,0,0-.63-.41c-.12.22-.34.45-.33.67a12,12,0,0,0,.27,1.51H480A4.39,4.39,0,0,0,479.79,317.39Zm1.56,2.31.38.19c.27-.42.73-.83.74-1.26s-.51-.74-.79-1.11l-.33.2Z" transform="translate(-90.24 -224.24)"/><path class="cls-1" d="M273,300.71c1.34-1.16,1-6.91-.79-8l3.89-.33c-1.09.68-.81,1.67-.76,2.58a32.85,32.85,0,0,0,.27,3.45,10.72,10.72,0,0,0,.83,2.08Z" transform="translate(-90.24 -224.24)"/><path d="M269,382.36c.21-9,.76-18,3.22-26.74a48.9,48.9,0,0,1,8.79-17.7c6.37-7.91,14.76-11.46,24.8-11.3,10.6.17,18.72,4.88,24.71,13.53a61,61,0,0,1,9.75,23.9,184.56,184.56,0,0,1,3.39,36c-.13,10-1.43,19.78-5.47,29a65.21,65.21,0,0,1-5.1,9.61c-5.49,8.38-13.37,12.74-23.41,13-9.86.25-18.13-3.14-24.45-10.92A59.18,59.18,0,0,1,276,424.94a91.34,91.34,0,0,1-5.78-24.65C269.68,394.32,269.39,388.33,269,382.36Zm37.56-42.16h-.2a1.37,1.37,0,0,0-.08.22Q302.62,361,299,381.61a1.58,1.58,0,0,1-1.3,1.44c-2.73.78-5.43,1.63-8.14,2.46L275.12,390c.74.26,1.21.44,1.69.59,7,2.22,14,4.45,21,6.64a1.44,1.44,0,0,1,1.18,1.27q2.89,16.65,5.81,33.28c.48,2.75,1,5.5,1.48,8.25a21.43,21.43,0,0,0,.91-3.75q3.29-18.7,6.55-37.41a1.94,1.94,0,0,1,1.55-1.77c7.09-2.2,14.17-4.46,21.24-6.7.3-.1.59-.23,1.06-.41-.48-.17-.74-.27-1-.35-7.06-2.17-14.12-4.35-21.19-6.47a2,2,0,0,1-1.67-1.79c-1.91-11.14-3.88-22.27-5.84-33.4C307.46,345.37,307,342.78,306.52,340.2Z" transform="translate(-90.24 -224.24)"/><path d="M345.11,279c-.46-1.22-1-2.42-1.34-3.66a2.15,2.15,0,0,1,.23-1.46c.52-1,1.16-1.9,1.78-2.83,1.26-1.91,1.93-2.11,4.3-1.17l-4.65,9.18Z" transform="translate(-90.24 -224.24)"/><path d="M339.13,278.62l-3.36-10c2.09-.65,3.35,0,4,2.06a8.15,8.15,0,0,0,.51,1.47C341.59,274.58,340.94,276.66,339.13,278.62Z" transform="translate(-90.24 -224.24)"/><path d="M283.24,275.88c0,3.38-1.17,4.92-4.19,5.59a3.06,3.06,0,0,1-2.95-.87,9.67,9.67,0,0,1-2-9.48,3.45,3.45,0,0,1,2.83-2.46c1.82-.17,3.63-.22,4.78,1.65A10.38,10.38,0,0,1,283.24,275.88Z" transform="translate(-90.24 -224.24)"/><path d="M213.3,284.27,212,278.46a2.14,2.14,0,0,1,2.72.08,3.28,3.28,0,0,1,1.32,3.37C215.8,283.35,214.73,283.89,213.3,284.27Z" transform="translate(-90.24 -224.24)"/><path d="M421,289.82c.34-1.14.63-2.09.91-3s.5-1.8.76-2.76a2.47,2.47,0,0,1,2.44,1.71,3.28,3.28,0,0,1-.74,3.55C423.41,290.23,422.28,290.12,421,289.82Z" transform="translate(-90.24 -224.24)"/><path d="M359.39,277c-.65-.09-1-.15-1.43-.2s-.71-.05-1.26-.09l1.51-3,.28,0Z" transform="translate(-90.24 -224.24)"/><path d="M229.86,302.68c1.76-.51,3,.45,2.59,1.93a2,2,0,0,1-1.22,1c-.22.07-.82-.53-1-.92A10.73,10.73,0,0,1,229.86,302.68Z" transform="translate(-90.24 -224.24)"/><path d="M229.7,301.91c-.16-.74-.32-1.39-.45-2-.18-.85.36-1,1-.86a1.4,1.4,0,0,1,1.16,1.57C231.37,301.58,230.66,301.79,229.7,301.91Z" transform="translate(-90.24 -224.24)"/><path d="M240.17,300.4l-.54-3.37c.74.2,1.49.18,1.72.52a2.9,2.9,0,0,1,.48,2c-.08.44-.8.77-1.24,1.15Z" transform="translate(-90.24 -224.24)"/><path d="M327.52,295.72a16.31,16.31,0,0,1-.66,2.55,1.93,1.93,0,0,1-3.46.24,5.94,5.94,0,0,1,0-5.28,1.88,1.88,0,0,1,3.33,0A12.79,12.79,0,0,1,327.52,295.72Z" transform="translate(-90.24 -224.24)"/><path d="M359.6,299.41l-1.59-.14.93-2.05h.27Z" transform="translate(-90.24 -224.24)"/><path d="M479.79,317.39a4.39,4.39,0,0,1,.21,4.77h1.65a12,12,0,0,1-.27-1.51c0-.21.21-.44.33-.67a2.73,2.73,0,0,1,.63.41c.66.77,1.29,1.56,1.95,2.36a3.52,3.52,0,0,1-4.89-.27,3.74,3.74,0,0,1,4.92-5.61,3.67,3.67,0,0,1,.65,5.21c-1.6-.66-2.06-1.55-1.64-3.11a1.14,1.14,0,0,0-1.12-1.58C481.46,317.33,480.69,317.39,479.79,317.39Z" transform="translate(-90.24 -224.24)"/><path d="M481.35,319.7v-2l.33-.2c.28.37.8.74.79,1.11s-.48.84-.74,1.26Z" transform="translate(-90.24 -224.24)"/><path class="cls-1" d="M306.52,340.2c.46,2.59.93,5.17,1.39,7.76,2,11.13,3.92,22.26,5.84,33.4a2,2,0,0,0,1.67,1.79c7.08,2.12,14.13,4.3,21.19,6.47.27.08.52.18,1,.35-.47.18-.76.31-1.06.41-7.08,2.24-14.15,4.5-21.24,6.7a1.94,1.94,0,0,0-1.55,1.77q-3.24,18.71-6.55,37.41a21.43,21.43,0,0,1-.91,3.75c-.49-2.75-1-5.5-1.48-8.25Q301.9,415.1,299,398.46a1.44,1.44,0,0,0-1.18-1.27c-7-2.19-14-4.42-21-6.64-.48-.15-1-.33-1.69-.59l14.46-4.45c2.71-.83,5.41-1.69,8.14-2.46a1.58,1.58,0,0,0,1.3-1.44q3.58-20.6,7.22-41.19a1.37,1.37,0,0,1,.08-.22Z" transform="translate(-90.24 -224.24)"/></svg>