<svg xmlns="http://www.w3.org/2000/svg" viewBox="0 0 1014.6 200.65"><defs><style>.a{fill:#ed1c24;}.b{fill:#fff;}</style></defs><title>gctda_w</title><path class="a" d="M962.24,215.91a151.77,151.77,0,0,0-53.09-10H909l-2.76,0h0c-21.25,0-42.51,4.23-56.08,10.32-29.11,11.57-46.92,31.73-46.92,55.25,0,38.11,43.43,67.88,103,67.88s103-29.77,103-67.88C1009.25,247.8,991.09,227.9,962.24,215.91Zm-47-1.57a131.37,131.37,0,0,1,30.46,5.19c11.85,3.79,20.62,9.65,20.62,16,0,10.75-16.33,16.52-35.7,19.56-3.19-24.2-13.44-39.91-23.55-39.91-10.74,0-20.61,13.76-24.23,40.07-19.38-3.92-36.14-10-35.91-19.8.14-6.26,7.6-11.73,19.42-16,10.53-3.52,21.69-4.77,33.52-5.29C903.29,214.12,911.07,214.34,915.2,214.34Zm7,57.81c0,25-8.67,38.53-15.9,38.53s-15.89-13.52-15.89-38.53v-.24c5,.42,10.32.65,15.76.65s10.9-.24,16-.67C922.24,272,922.25,272.06,922.25,272.15Zm-16-15.09c-4.8,0-9.77-.23-14.71-.7,2.65-18.37,9.87-25.58,15-25.58,5.86,0,12.07,7.2,14.72,25.55C916.17,256.82,911.11,257.06,906.22,257.06Zm-7.64,74.66c-38.64-2.94-81.05-25.75-81.05-63.79,0-10.62,4.58-21,12-28.78,1.91,19,23.21,29,52.32,32.19C881.83,283.78,881.28,316,898.58,331.72Zm33.47-60.42c30.34-4.22,51.15-16,51.27-32,6.45,6.67,11.63,18,11.63,28.62,0,37.89-41.31,60.67-79.82,63.75C923.1,323.91,932.44,304.54,932.05,271.3Z" transform="translate(-32.06 -205.82)"/><path class="a" d="M781.86,367H767.37v-8.77h39.46V367h-15v37.83h-9.93Z" transform="translate(-32.06 -205.82)"/><path class="a" d="M877.89,387.22l-18.22-29h12.05l11.71,19.42,12-19.42h11.92l-18.66,29,.07,17.57h-11Z" transform="translate(-32.06 -205.82)"/><path class="a" d="M1015,358.22h13.25l18.4,46.6h-11l-4.11-10.3h-20l-4.08,10.3h-11Zm-.12,28h13.41l-6.71-16.79Z" transform="translate(-32.06 -205.82)"/><path class="a" d="M974.39,367H959.9v-8.77h39.46V367h-15v37.83h-9.93Z" transform="translate(-32.06 -205.82)"/><path class="a" d="M816.72,364.25a24.21,24.21,0,0,1,17.64-7.53c14.27,0,24.9,11.48,24.9,25.31a24.15,24.15,0,0,1-6,15.65,24.55,24.55,0,0,1-18.95,8.79c-14.27,0-24.91-11-24.91-24.44A25.52,25.52,0,0,1,816.72,364.25Zm17.64,32.83c9.1,0,13.22-7.29,13.22-15.05,0-8.43-3.85-15.83-13.22-15.83-9.85,0-13.23,8.7-13.23,15.83C821.13,389.79,825.25,397.08,834.36,397.08Z" transform="translate(-32.06 -205.82)"/><path class="a" d="M914.91,364.25a24.2,24.2,0,0,1,17.63-7.53c14.27,0,24.91,11.48,24.91,25.31a24.16,24.16,0,0,1-6,15.65,24.52,24.52,0,0,1-19,8.79c-14.27,0-24.9-11-24.9-24.44A25.52,25.52,0,0,1,914.91,364.25Zm17.63,32.83c9.11,0,13.23-7.29,13.23-15.05,0-8.43-3.85-15.83-13.23-15.83-9.85,0-13.22,8.7-13.22,15.83C919.32,389.79,923.44,397.08,932.54,397.08Z" transform="translate(-32.06 -205.82)"/><rect class="a" y="102.62" width="695.6" height="97.18"/><path class="b" d="M125.05,241.52v37.75a34.62,34.62,0,0,1-6.38,3,66.38,66.38,0,0,1-7.41,2.22,61.72,61.72,0,0,1-7.78,1.35,68.16,68.16,0,0,1-7.41.44,43.84,43.84,0,0,1-17.36-3.25,37.26,37.26,0,0,1-20.88-21.58,43.17,43.17,0,0,1-2.76-15.41,41.85,41.85,0,0,1,3-15.9,39.11,39.11,0,0,1,8.22-12.76,37.25,37.25,0,0,1,12.6-8.49A41.19,41.19,0,0,1,95,205.82q10.6,0,17.31,2.65a31.89,31.89,0,0,1,11.25,7.3l-7.36,7.9a27.17,27.17,0,0,0-10.05-6.33A34.72,34.72,0,0,0,95,215.56a27.81,27.81,0,0,0-21,9,28.83,28.83,0,0,0-5.84,9.69,33.92,33.92,0,0,0-2.06,11.84,31.5,31.5,0,0,0,2.28,12.06,29.82,29.82,0,0,0,6.27,9.68,28.93,28.93,0,0,0,9.41,6.44,29.53,29.53,0,0,0,11.79,2.32,51.36,51.36,0,0,0,10.44-1,29.37,29.37,0,0,0,8.38-3V251.25h-17v-9.73Z" transform="translate(-32.06 -205.82)"/><path class="b" d="M173.73,286.3a41.2,41.2,0,0,1-16.12-3.09,37.45,37.45,0,0,1-12.6-8.49A39.11,39.11,0,0,1,136.79,262a44,44,0,0,1,0-31.8A39.11,39.11,0,0,1,145,217.4a37.45,37.45,0,0,1,12.6-8.49,43.57,43.57,0,0,1,32.23,0,37.35,37.35,0,0,1,12.6,8.49,39.11,39.11,0,0,1,8.22,12.76,43.91,43.91,0,0,1,0,31.8,39.11,39.11,0,0,1-8.22,12.76,37.35,37.35,0,0,1-12.6,8.49A41.15,41.15,0,0,1,173.73,286.3Zm0-9.74a27.77,27.77,0,0,0,21-9,28.85,28.85,0,0,0,5.84-9.68,35.06,35.06,0,0,0,0-23.68,29,29,0,0,0-5.84-9.69,28.7,28.7,0,0,0-42,0,29,29,0,0,0-5.84,9.69,35.22,35.22,0,0,0,0,23.68,28.85,28.85,0,0,0,5.84,9.68,27.81,27.81,0,0,0,21,9Z" transform="translate(-32.06 -205.82)"/><path class="b" d="M223.15,207.77h10.39v66.84h35.15v9.74H223.15Z" transform="translate(-32.06 -205.82)"/><path class="b" d="M272.15,207.77h26.72a49.32,49.32,0,0,1,14.22,1.84,38.15,38.15,0,0,1,10.6,4.92,31.25,31.25,0,0,1,7.47,7.08,37.79,37.79,0,0,1,4.7,8.23,42.07,42.07,0,0,1,2.49,8.43,44.79,44.79,0,0,1,.76,7.79,38.27,38.27,0,0,1-2.71,14.22,35.68,35.68,0,0,1-8,12.22,39.58,39.58,0,0,1-13.14,8.61,47.18,47.18,0,0,1-18.12,3.24h-25Zm10.39,66.84h13.09a42.9,42.9,0,0,0,12.49-1.78,30.29,30.29,0,0,0,10.33-5.35,25.72,25.72,0,0,0,7-8.93,28.32,28.32,0,0,0,2.6-12.49,37,37,0,0,0-1.2-8.6,25.71,25.71,0,0,0-4.48-9.36,26.7,26.7,0,0,0-9.15-7.51q-5.83-3.09-15.14-3.09H282.54Z" transform="translate(-32.06 -205.82)"/><path class="b" d="M426.61,224.32a21.5,21.5,0,0,0-8.22-6.49,24.44,24.44,0,0,0-10.28-2.27A27.61,27.61,0,0,0,396.37,218a27,27,0,0,0-9,6.65,30.37,30.37,0,0,0-5.79,9.9,35.5,35.5,0,0,0-2.05,12.17,33.48,33.48,0,0,0,1.94,11.46,28.7,28.7,0,0,0,5.62,9.52,26.25,26.25,0,0,0,9,6.49,28.92,28.92,0,0,0,12,2.38,23.86,23.86,0,0,0,11.57-2.7,24.86,24.86,0,0,0,8.44-7.57l8.76,6.59a33.84,33.84,0,0,1-3,3.41,30.35,30.35,0,0,1-5.73,4.44,40.8,40.8,0,0,1-8.6,3.89,36.69,36.69,0,0,1-11.63,1.68,37.79,37.79,0,0,1-16.39-3.47,40.15,40.15,0,0,1-23-36.12,45,45,0,0,1,2.92-16.39,38.78,38.78,0,0,1,8.17-13,36.59,36.59,0,0,1,12.6-8.49,42.19,42.19,0,0,1,16.23-3,39.89,39.89,0,0,1,14.87,2.92,27.81,27.81,0,0,1,11.95,9Z" transform="translate(-32.06 -205.82)"/><path class="b" d="M479.17,286.3a41.15,41.15,0,0,1-16.11-3.09,37.25,37.25,0,0,1-12.6-8.49A39.11,39.11,0,0,1,442.24,262a43.91,43.91,0,0,1,0-31.8,39.11,39.11,0,0,1,8.22-12.76,37.25,37.25,0,0,1,12.6-8.49,43.57,43.57,0,0,1,32.23,0,37.45,37.45,0,0,1,12.6,8.49,39.11,39.11,0,0,1,8.22,12.76,44,44,0,0,1,0,31.8,39.11,39.11,0,0,1-8.22,12.76,37.45,37.45,0,0,1-12.6,8.49A41.17,41.17,0,0,1,479.17,286.3Zm0-9.74a27.81,27.81,0,0,0,21-9A28.85,28.85,0,0,0,506,257.9a35.22,35.22,0,0,0,0-23.68,29,29,0,0,0-5.84-9.69,28.7,28.7,0,0,0-42,0,29,29,0,0,0-5.84,9.69,35.22,35.22,0,0,0,0,23.68,28.85,28.85,0,0,0,5.84,9.68,27.81,27.81,0,0,0,21,9Z" transform="translate(-32.06 -205.82)"/><path class="b" d="M552.61,207.77H562l32.78,76.58H582.68L575,265.42H538.55L531,284.35H518.87Zm18.61,48.57-14.28-35.16h-.22l-14.49,35.16Z" transform="translate(-32.06 -205.82)"/><path class="b" d="M601.61,268.34a17,17,0,0,0,7.19,6.22,21.42,21.42,0,0,0,9,2,18.4,18.4,0,0,0,5.3-.81,16.15,16.15,0,0,0,4.92-2.43,13.19,13.19,0,0,0,3.62-4,10.64,10.64,0,0,0,1.41-5.52,8.28,8.28,0,0,0-2.81-6.76,24.44,24.44,0,0,0-7-3.9q-4.15-1.56-9.08-3a37.34,37.34,0,0,1-9.09-4.06,22.35,22.35,0,0,1-7-7q-2.8-4.38-2.81-11.84a20.39,20.39,0,0,1,6.06-14.06,25.46,25.46,0,0,1,8.06-5.25,30.09,30.09,0,0,1,11.84-2.11,41.52,41.52,0,0,1,12,1.73,20.72,20.72,0,0,1,10.06,7l-8.44,7.68a14,14,0,0,0-5.51-4.86,17.47,17.47,0,0,0-8.12-1.84,19.83,19.83,0,0,0-7.19,1.13,13,13,0,0,0-4.6,2.92,10.37,10.37,0,0,0-2.43,3.84,11.77,11.77,0,0,0-.7,3.79c0,3.24.93,5.73,2.81,7.46a21.81,21.81,0,0,0,7,4.22,83.83,83.83,0,0,0,9.09,2.92,39.4,39.4,0,0,1,9.08,3.62,21.29,21.29,0,0,1,7,6.28q2.81,3.94,2.81,10.87a23,23,0,0,1-2.1,9.95,22,22,0,0,1-5.68,7.46,25.12,25.12,0,0,1-8.44,4.65,32.66,32.66,0,0,1-10.38,1.63,37.8,37.8,0,0,1-14-2.6,23,23,0,0,1-10.49-8Z" transform="translate(-32.06 -205.82)"/><path class="b" d="M670.07,217.5H645.41v-9.73h59.7v9.73H680.46v66.85H670.07Z" transform="translate(-32.06 -205.82)"/><path class="b" d="M70.5,339.14H54.33v-8.49H96.06v8.49H79.89v44.27H70.5Z" transform="translate(-32.06 -205.82)"/><path class="b" d="M99.63,357.25a30.56,30.56,0,0,1,2.09-11.51,25.78,25.78,0,0,1,5.77-8.83,25.36,25.36,0,0,1,8.8-5.63,34.46,34.46,0,0,1,22.54-.15,24.9,24.9,0,0,1,8.87,5.55,25.74,25.74,0,0,1,5.81,8.8A30.24,30.24,0,0,1,155.6,357a29.24,29.24,0,0,1-2.09,11.25,25.69,25.69,0,0,1-5.81,8.72,26.42,26.42,0,0,1-8.87,5.7,31.28,31.28,0,0,1-11.32,2.13,30.75,30.75,0,0,1-11.22-2,25,25,0,0,1-14.57-14.27A29.24,29.24,0,0,1,99.63,357.25Zm9.84-.6a22.89,22.89,0,0,0,1.3,7.83,18.32,18.32,0,0,0,3.69,6.18,17.11,17.11,0,0,0,5.7,4.1,19.3,19.3,0,0,0,14.87,0,17,17,0,0,0,5.74-4.1,18.49,18.49,0,0,0,3.69-6.18,22.89,22.89,0,0,0,1.3-7.83,20.77,20.77,0,0,0-1.3-7.37,18.37,18.37,0,0,0-3.69-6,16.63,16.63,0,0,0-5.74-4,19.66,19.66,0,0,0-14.87,0,16.76,16.76,0,0,0-5.7,4,18.2,18.2,0,0,0-3.69,6A20.77,20.77,0,0,0,109.47,356.65Z" transform="translate(-32.06 -205.82)"/><path class="b" d="M177.43,360.83l-19.82-30.18h11.77l13,21,13.11-21h11.18l-19.82,30.18v22.58h-9.39Z" transform="translate(-32.06 -205.82)"/><path class="b" d="M208.65,357.25a30.56,30.56,0,0,1,2.09-11.51,25.78,25.78,0,0,1,5.77-8.83,25.26,25.26,0,0,1,8.8-5.63,31,31,0,0,1,11.21-2,31.27,31.27,0,0,1,11.33,1.82,24.9,24.9,0,0,1,8.87,5.55,25.74,25.74,0,0,1,5.81,8.8A30.24,30.24,0,0,1,264.62,357a29.24,29.24,0,0,1-2.09,11.25,25.69,25.69,0,0,1-5.81,8.72,26.42,26.42,0,0,1-8.87,5.7,31.3,31.3,0,0,1-11.33,2.13,30.74,30.74,0,0,1-11.21-2,25,25,0,0,1-14.57-14.27A29.24,29.24,0,0,1,208.65,357.25Zm9.84-.6a22.89,22.89,0,0,0,1.3,7.83,18.32,18.32,0,0,0,3.69,6.18,17.11,17.11,0,0,0,5.7,4.1,17.82,17.82,0,0,0,7.42,1.49,18.06,18.06,0,0,0,7.45-1.49,16.93,16.93,0,0,0,5.73-4.1,18.34,18.34,0,0,0,3.7-6.18,22.89,22.89,0,0,0,1.3-7.83,20.77,20.77,0,0,0-1.3-7.37,18.23,18.23,0,0,0-3.7-6,16.59,16.59,0,0,0-5.73-4,18.55,18.55,0,0,0-7.45-1.46,18.3,18.3,0,0,0-7.42,1.46,16.76,16.76,0,0,0-5.7,4,18.2,18.2,0,0,0-3.69,6A20.77,20.77,0,0,0,218.49,356.65Z" transform="translate(-32.06 -205.82)"/><path class="b" d="M284.36,339.14H268.19v-8.49h41.73v8.49H293.75v44.27h-9.39Z" transform="translate(-32.06 -205.82)"/><path class="b" d="M326.53,330.65h8.13l22.72,52.76H346.65l-4.92-12.07H318.86l-4.77,12.07H303.58Zm11.92,32.64-8.12-21.46-8.27,21.46Z" transform="translate(-32.06 -205.82)"/><path class="b" d="M385.33,330.65h20.79a31.81,31.81,0,0,1,10.06,1.6,24.41,24.41,0,0,1,8.56,4.88,23.84,23.84,0,0,1,6,8.23A28.22,28.22,0,0,1,432.94,357a24.51,24.51,0,0,1-9.2,19.93,28.11,28.11,0,0,1-9,4.84,31.41,31.41,0,0,1-9.72,1.61H385.33Zm16.39,44.26a32.85,32.85,0,0,0,8.31-1,19.76,19.76,0,0,0,6.82-3.12,15,15,0,0,0,4.58-5.52,18.38,18.38,0,0,0,1.68-8.23,20.57,20.57,0,0,0-1.49-8.2,14.43,14.43,0,0,0-4.14-5.55,17.15,17.15,0,0,0-6.26-3.13,29.6,29.6,0,0,0-7.94-1h-8.57v35.77Z" transform="translate(-32.06 -205.82)"/><path class="b" d="M441.88,330.65h34.95v8.49H451.27v13h24.22v8.5H451.27v14.3h26.9v8.5H441.88Z" transform="translate(-32.06 -205.82)"/><path class="b" d="M504.48,330.65h8.12l22.72,52.76H524.59l-4.91-12.07H496.8L492,383.41H481.52Zm11.92,32.64-8.13-21.46L500,363.29Z" transform="translate(-32.06 -205.82)"/><path class="b" d="M541.21,330.65h9.39v44.26H573v8.5H541.21Z" transform="translate(-32.06 -205.82)"/><path class="b" d="M579.88,330.65h35v8.49H589.27v13h24.22v8.5H589.27v14.3h26.91v8.5h-36.3Z" transform="translate(-32.06 -205.82)"/><path class="b" d="M625.41,330.65h18.34a37.6,37.6,0,0,1,7.34.7,19.1,19.1,0,0,1,6.29,2.43,12.6,12.6,0,0,1,4.4,4.62,14.93,14.93,0,0,1,1.64,7.38,14.7,14.7,0,0,1-3.17,9.61,13.56,13.56,0,0,1-9,4.69l14,23.33H653.88l-12.22-22.36H634.8v22.36h-9.39ZM642.11,353q2,0,4-.18a12.63,12.63,0,0,0,3.69-.89,6.38,6.38,0,0,0,2.72-2.17,6.83,6.83,0,0,0,1-4.06,6.48,6.48,0,0,0-1-3.73,6,6,0,0,0-2.53-2.12,11.75,11.75,0,0,0-3.46-.93,31.5,31.5,0,0,0-3.69-.23H634.8V353Z" transform="translate(-32.06 -205.82)"/><path class="b" d="M698.22,342a8.78,8.78,0,0,0-4-3.16,13.94,13.94,0,0,0-5.25-1,13.75,13.75,0,0,0-3.17.37,8.57,8.57,0,0,0-2.76,1.2,6,6,0,0,0-2.72,5.21,4.82,4.82,0,0,0,1.87,4.1,18.3,18.3,0,0,0,4.61,2.46q2.76,1,6,2a24.2,24.2,0,0,1,6,2.69,14.74,14.74,0,0,1,4.63,4.54,13.54,13.54,0,0,1,1.86,7.53,16.44,16.44,0,0,1-1.57,7.41,15.11,15.11,0,0,1-4.2,5.26,18.22,18.22,0,0,1-6.15,3.12,25.62,25.62,0,0,1-7.38,1.05,27.78,27.78,0,0,1-9.47-1.64,18.24,18.24,0,0,1-7.82-5.51l7.08-6.86a11.77,11.77,0,0,0,4.51,4.06,12.64,12.64,0,0,0,5.92,1.45,12.33,12.33,0,0,0,3.28-.44,10.09,10.09,0,0,0,3-1.35,7,7,0,0,0,2.17-2.27,6.13,6.13,0,0,0,.81-3.17,5.5,5.5,0,0,0-1.86-4.46,16.24,16.24,0,0,0-4.62-2.65c-1.84-.72-3.85-1.41-6-2.05a25.81,25.81,0,0,1-6-2.64,14.83,14.83,0,0,1-4.62-4.48,13.25,13.25,0,0,1-1.86-7.49,14.2,14.2,0,0,1,1.67-7.08,15.38,15.38,0,0,1,4.4-4.95,19,19,0,0,1,6.22-2.94,26.54,26.54,0,0,1,7.16-1,26.2,26.2,0,0,1,8.08,1.26,18.72,18.72,0,0,1,7,4.18Z" transform="translate(-32.06 -205.82)"/></svg>