<svg id="Layer_1" data-name="Layer 1" xmlns="http://www.w3.org/2000/svg" viewBox="0 0 264.29 184.43"><defs><style>.cls-1,.cls-2,.cls-3{fill:#fff;}.cls-2{stroke:#fcfcfc;}.cls-2,.cls-3{stroke-linecap:round;stroke-linejoin:round;stroke-width:0;}.cls-3{stroke:#010101;}</style></defs><title>NAH_tw</title><path class="cls-1" d="M183.4,193.74h0c3.05-5.48,4-11.35,4.2-17.37-.74-.92-.31-2.35-.08-3.43,0-.16.06-.32.08-.48,0-.42,0-.83,0-1.25s0-.82,0-1.23a5.74,5.74,0,0,0-.85-1.93c-.83-2.09-1-4.35-1.64-6.48-2.3-7.18-7.23-11.08-14.74-11.55-8.42-.52-8.85-.13-8.85,8.16q0,20.92,0,41.84a1.84,1.84,0,0,0,.08,1.17l5.79.59,2-.16h0a7.62,7.62,0,0,1,3.55-.46c2-1,4.28-1.51,6.12-2.9.24-.69,1-.75,1.45-1.15l1.15-1.1Zm-1.86-16.12c-.21,4.07-.69,8.13-2.48,11.88-2,4.24-5.14,6.92-10.08,7.15-2,.09-2.75-.35-2.7-2.56.17-6.31.06-12.64.06-19s.08-12.45,0-18.68c0-2,.73-2.57,2.54-2.57,4.61,0,8.1,1.88,10.14,6C181.7,165.53,181.85,171.57,181.53,177.62Z" transform="translate(-20.53 -49.75)"/><path class="cls-1" d="M187.6,172.46c0,.16,0,.31-.08.48-.23,1.08-.66,2.51.08,3.43C187.63,175.07,187.63,173.77,187.6,172.46Z" transform="translate(-20.53 -49.75)"/><path class="cls-1" d="M161.48,200q0-20.91,0-41.84c0-8.29.43-8.68,8.85-8.16,7.51.47,12.44,4.36,14.74,11.55.68,2.13.81,4.39,1.64,6.48a5.74,5.74,0,0,1,.85,1.93c0-.6,0-1.2,0-1.81A21.93,21.93,0,0,1,187,166c-.68-4.28-2-8.32-4.91-11.63-4.22-4.79-14.28-7-20.44-4.63-1.26.48-1,1.37-1,2.26q0,24.53,0,49.06l.9.09A1.84,1.84,0,0,1,161.48,200Z" transform="translate(-20.53 -49.75)"/><path class="cls-1" d="M188,175.81q0-1.09-.1-2.17A3.6,3.6,0,0,0,188,175.81Z" transform="translate(-20.53 -49.75)"/><path class="cls-1" d="M46.52,201.25a1.77,1.77,0,0,0,1-.16,3.61,3.61,0,0,0,.54-.78,2.83,2.83,0,0,1-.42-.48c-.85-1.55-.67-3.25-.67-4.92q0-19.82,0-39.64a20.15,20.15,0,0,0-.13-3.06,1.53,1.53,0,0,0-1.72-1.44,1.6,1.6,0,0,0-1.8,1.38,15.28,15.28,0,0,0-.16,2.78c0,4.56.09,9.12-.05,13.68-.09,3-.77,3.63-3.67,3.75s-6,.12-8.93,0-3.54-.76-3.61-3.76c-.11-4.65,0-9.3,0-14a20.09,20.09,0,0,0-.15-3.61c-.26-1-1-1.1-1.9-1.17a6.93,6.93,0,0,1-1.75-.31c-1.13.44-1.14,1.8-1.14,5q0,21.46,0,42.91c0,3.72,0,3.73,3.6,3.7.74,0,1.48-.07,2.22-.11l.1-20.65q0-1.12,0-2.23v-.56c.68-1.16,1.78-.5,2.64-.52,3.74-.06,7.48,0,11.23.06h0c1.22.94.31,2.17.47,3.26q0,9.49,0,19c.56.58-.83,1.24.08,1.81C43.65,201.25,45.09,201.15,46.52,201.25Z" transform="translate(-20.53 -49.75)"/><path class="cls-1" d="M25.61,149.47h-.36c-.64,0-1.15,0-1.57,0a2.56,2.56,0,0,0-.66.15,6.93,6.93,0,0,0,1.75.31c.86.06,1.64.17,1.9,1.17a20.09,20.09,0,0,1,.15,3.61c0,4.65-.07,9.31,0,14,.07,3,.71,3.65,3.61,3.76s6,.12,8.93,0,3.58-.79,3.67-3.75c.14-4.56,0-9.12.05-13.68a15.28,15.28,0,0,1,.16-2.78,1.6,1.6,0,0,1,1.8-1.38,1.53,1.53,0,0,1,1.72,1.44,20.15,20.15,0,0,1,.13,3.06q0,19.82,0,39.64c0,1.66-.18,3.37.67,4.92a2.83,2.83,0,0,0,.42.48,5.21,5.21,0,0,0,.26-.56c-.08-1-.22-2-.22-3,0-15.05-.07-30.11,0-45.16,0-2.49-1.4-2.15-2.84-2.06s-3.21-.84-3.11,2c.19,5.94,0,11.89.09,17.84,0,1.62-.25,2.3-2.08,2.21a100.15,100.15,0,0,0-10.31,0c-2,.11-2.22-.69-2.2-2.36.09-6.5,0-13,0-19.51h0C26.91,149.6,26.21,149.52,25.61,149.47Z" transform="translate(-20.53 -49.75)"/><path class="cls-1" d="M228.59,109.63l1.09.08A2.82,2.82,0,0,0,228.59,109.63Z" transform="translate(-20.53 -49.75)"/><path class="cls-1" d="M256.41,140.62c0,2.28.86,2.42,2.71,2.48,2,.07,2.4-.7,2.37-2.53-.1-6.21,0-12.42,0-18.63,0-3.35-.28-6.65-1.92-9.68l-1.68-1.64h0l-2.25-1.16-4.46-.05c-.54.15-.8.9-1.5.73a16.76,16.76,0,0,0-3.89,4l-2.52-3.45-2.18-1.16-4.44-.12a.29.29,0,0,1-.41.12c-1.87,1-3.73,2-4.76,4-1.22-1,.28-3.12-1.78-3.54-2.69-.55-3.26,0-3.23,2.83,0,1.5,0,3,0,4.5.68,5.79,0,11.62.27,17.42a30.22,30.22,0,0,1-.14,5.66q0,.77,0,1.54a.89.89,0,0,0,.75.26c3.29-.3,3.39-.38,3.41-3.68,0-5.67,0-11.34,0-17a9.07,9.07,0,0,1,2.46-6.61c2.63-2.73,6.36-2.18,8.06,1.23a13.73,13.73,0,0,1,1.21,6.24c0,5.2,0,10.41,0,15.61,0,4.11.1,4.17,4.28,3.89V124h0c0-1.57-.14-3.14,0-4.7.21-3.09,2.61-5.6,5.12-5.5s4.12,2.08,4.22,5.73l.2,1.64h0C256.75,127.68,256.47,134.16,256.41,140.62Z" transform="translate(-20.53 -49.75)"/><path class="cls-1" d="M226.73,134.79c-.25-5.79.41-11.62-.27-17.42q.08,11.54.12,23.07A30.22,30.22,0,0,0,226.73,134.79Z" transform="translate(-20.53 -49.75)"/><path class="cls-1" d="M242.48,138c0-5.2,0-10.41,0-15.61a13.73,13.73,0,0,0-1.21-6.24c-1.7-3.4-5.43-4-8.06-1.23a9.07,9.07,0,0,0-2.46,6.61c0,5.67,0,11.34,0,17,0,3.3-.12,3.38-3.41,3.68a.89.89,0,0,1-.75-.26q0,.51,0,1a13.9,13.9,0,0,1,2.22,0c2.29.39,2.94-.43,2.87-2.79-.19-6.31,0-12.62-.08-18.93a9.05,9.05,0,0,1,1.42-5.26,4.36,4.36,0,0,1,4.45-2.15c2.14.27,3.05,1.68,3.5,3.44a19.85,19.85,0,0,1,.53,4.67c.06,6.22,0,12.44.05,18.65,0,.78-.65,2.32.68,2.22,1.48-.1,3.52,1.47,4.51-1C242.58,142.2,242.5,142.13,242.48,138Z" transform="translate(-20.53 -49.75)"/><path class="cls-1" d="M20.62,97.71a1.22,1.22,0,0,1,.1.19,2.76,2.76,0,0,1,.06.85,30.78,30.78,0,0,1,.45,6.37q0,17.11,0,34.23c0,1-.65,2.34,1,2.75,2.25-.35,1.74-2.16,1.75-3.52.06-8.37,0-16.75,0-25.12a10.39,10.39,0,0,1,.42-4.13,1.13,1.13,0,0,1,.53-.54v-2.72c.33.92,1.12,1.67,1,2.71a3.08,3.08,0,0,1,1.47,2.09c3.4,9.53,7.41,18.81,11,28.28,1.22,3.25,1.7,3.5,5.18,2.79a2.14,2.14,0,0,0,.26-.46v-1.87a6.29,6.29,0,0,1-.25-1.46c.11-12.84-.16-25.69.19-38.53A4.37,4.37,0,0,1,44,97.85c-.15-.69-.59-1-1.52-.87s-2,.15-3,.21v0l-.08.57.06,25.15,0,0c.8,2.57.43,5.21.45,7.83a.54.54,0,0,1,0,.53V133l.11.12s0,.14-.11.18v.37l-.32.08-.55-2-3.65-10a6.13,6.13,0,0,1-1-2.85h0a48,48,0,0,1-3-7.2c-.64-.35-.36-1-.48-1.52L30.36,109a5.53,5.53,0,0,1-1-2.84c-1-1.32-1.26-2.93-1.86-4.41-.52-.28-.33-.78-.36-1.21C25.18,96.64,23.68,96,20.62,97.71Z" transform="translate(-20.53 -49.75)"/><path class="cls-1" d="M43.65,141.92c-3.48.72-4,.46-5.18-2.79-3.55-9.47-7.56-18.75-11-28.28A3.08,3.08,0,0,0,26,108.76a1.83,1.83,0,0,1,0,.2l11.49,29.75C39.19,143,39.18,143,43.91,143q0-.78,0-1.57A2.14,2.14,0,0,1,43.65,141.92Z" transform="translate(-20.53 -49.75)"/><path class="cls-1" d="M44,97.85a4.37,4.37,0,0,0-.12,1.76c-.35,12.84-.08,25.68-.19,38.53a6.29,6.29,0,0,0,.25,1.46q0-20.52.12-41A3.25,3.25,0,0,0,44,97.85Z" transform="translate(-20.53 -49.75)"/><path class="cls-1" d="M24.48,109.31a10.39,10.39,0,0,0-.42,4.13c0,8.37,0,16.75,0,25.12,0,1.36.5,3.17-1.75,3.52-1.67-.4-1-1.77-1-2.75q-.06-17.11,0-34.23a30.78,30.78,0,0,0-.45-6.37,2.76,2.76,0,0,0-.06-.85,1.22,1.22,0,0,0-.1-.19l-.07,0h0a9.42,9.42,0,0,1,.19,1.52c.18,2,0,4.11,0,6.16,0,11.68,0,23.36,0,35,0,.91-.59,2.1.77,2.66,2.93.4,3.79-.68,3.7-3.77-.3-10.12-.2-20.25-.25-30.37v-.21A1.13,1.13,0,0,0,24.48,109.31Z" transform="translate(-20.53 -49.75)"/><path class="cls-1" d="M78.11,110.24l-.09-.11,0,.05.06.05Z" transform="translate(-20.53 -49.75)"/><path class="cls-1" d="M83.05,109.94c-1.79-1-3.34-.21-5,.32a18.23,18.23,0,0,0-3.82,4.62L74,110.12c-3.13-.14-4.08-.18-4.37,1.26.31,9,.06,18,.17,27.06,0,1.16-.4,2.45.75,3.36,2.76.43,3.15.17,3.19-2.52.07-4.27,0-8.54,0-12.82a26.19,26.19,0,0,1,.56-5.53c.87-4.11,3.44-6.44,7.46-7.33,3.13-.7,4.17,0,4.23,3.23.1,4.83,0,9.66,0,14.49a30.83,30.83,0,0,0,.59,6.09c.7,3.6,2,4.68,5.68,4.79a20.21,20.21,0,0,1,3.61.19,5.08,5.08,0,0,0,.48.37c.56-2.73-1-3.61-3.14-4.07a1.45,1.45,0,0,1-.73-.15c-2.12-1-2-3-2-4.78-.11-5.94,0-11.89-.09-17.83,0-1.63.51-2.11,2.06-2s3,.06,4.43.08c0-1.18,0-2.36-.07-3.53-.29-.38-.86-.49-1.66-.5-4.73-.07-4.64-.13-4.78-5.06,0-1.23,1.35-3.69-1.85-3.31-1.59.69-4.22.33-3.45,3.41v.57h0l0,3.91C84.63,110.58,83.52,110.18,83.05,109.94Z" transform="translate(-20.53 -49.75)"/><path class="cls-1" d="M95.94,142.39a20.21,20.21,0,0,0-3.61-.19c-3.7-.12-5-1.19-5.68-4.79a30.83,30.83,0,0,1-.59-6.09c0-4.83.07-9.66,0-14.49-.06-3.19-1.1-3.93-4.23-3.23-4,.89-6.58,3.23-7.46,7.33a26.19,26.19,0,0,0-.56,5.53c0,4.27.05,8.55,0,12.82,0,2.7-.43,3-3.19,2.52-1.16-.91-.74-2.21-.75-3.36-.1-9,.14-18-.17-27.06a17.81,17.81,0,0,0-.11,3c.06,9.54.06,19.09.08,28.63a10.91,10.91,0,0,1,1.67,0c2.65.44,3.69-.35,3.51-3.32-.3-5.09-.14-10.21-.06-15.32.09-6.3,2.48-9.18,8.44-10.39,1.42-.29,2.13,0,2.09,1.79-.12,5.66-.06,11.33,0,17,0,9.06,2.12,11,11.12,10.21,0-.09,0-.16,0-.25A5.08,5.08,0,0,1,95.94,142.39Z" transform="translate(-20.53 -49.75)"/><path class="cls-1" d="M131.77,118.8c-1.43,6.63-3,13.23-4.5,19.84-.26,1.12-1.35,2.82.45,3.36,2,.59,2.4-1.25,2.74-2.72.59-2.63,1.25-5.24,1.74-7.89.4-2.2,1.64-3.14,3.87-3.11,9.16.12,8-1.14,10,7.64.33,1.45.65,2.9,1,4.34s1.17,2.2,2.62,1.78.82-1.67.62-2.58c-2.32-10.14-4.39-20.34-6.73-30.48-.42-1.81-1.52-3.7-.2-5.61l-.17-.51-1.55-6.16-3.32-.13h-1.69c-1.5.75-.72,2.51-1.55,3.55h0a112.55,112.55,0,0,1-2.82,12.24h0c-.12.83,0,1.73-.56,2.46h0l0,.19-.16.1C132.67,116.28,132,117.57,131.77,118.8Zm3.78-.05c1-5.19,2-10.36,3.08-16.2,1.47,7.55,2.79,14.35,4.13,21.14.2,1,0,1.39-1.2,1.49C134.27,125.76,134.25,125.79,135.54,118.75Z" transform="translate(-20.53 -49.75)"/><path class="cls-1" d="M125.46,143a10.28,10.28,0,0,1,1.86,0c2.59.54,3.48-.67,3.84-3.12.46-3.1,1.34-6.14,2.06-9.2.16-.66,0-1.62,1.1-1.61,3.06,0,6.35-.57,9.08.4,1.44.51,1.25,4,1.7,6.1a31.31,31.31,0,0,1,1,4.32c.17,2.79,1.64,3.39,4.14,3.14,1.36-.13,1.75-.38,1.42-1.78-1.22-5.12-2.41-10.26-3.47-15.42-1.56-7.51-3.62-14.92-4.78-22.52-1.32,1.91-.22,3.8.2,5.61,2.34,10.14,4.41,20.34,6.73,30.48.21.91.88,2.14-.62,2.58s-2.28-.42-2.62-1.78-.68-2.89-1-4.34c-2-8.77-.81-7.51-10-7.64-2.23,0-3.46.9-3.87,3.11-.49,2.65-1.14,5.27-1.74,7.89-.33,1.47-.77,3.31-2.74,2.72-1.8-.54-.71-2.24-.45-3.36,1.53-6.61,3.07-13.21,4.5-19.84.27-1.23.9-2.52-.19-3.69-.09.73-.13,1.47-.29,2.19C129.37,125.82,127.43,134.34,125.46,143Z" transform="translate(-20.53 -49.75)"/><path class="cls-1" d="M233.25,201.1c.12-.2.24-.39.36-.6,0-.41-.05-.81-.08-1.22-.15-1.5-.22-3-.25-4.51-.2-4.16-.28-8.32-.2-12.49,0-1.67,0-3.33.17-5q0-2.1,0-4.2L233,173c-.87-.56-1-1.51-1.31-2.38-1.48-4.21-4.14-6.12-8.53-6.18a16.85,16.85,0,0,0-5.78.69c-1.19.41-2.48.9-1.92,2.48s1.72.54,2.6.31c6.14-1.62,10,1.37,10.09,7.75,0,1.53-.49,2.49-2.07,2.77-.91.16-1.82.36-2.73.52-10.59,1.81-14.53,12.14-7.83,20.52a3.62,3.62,0,0,1,.56,1,2.14,2.14,0,0,1,0,.36l1.61.79a13,13,0,0,0,6.1-.38l.17-.17.24,0,3.61-3.25C228.71,201.46,228.76,201.59,233.25,201.1Zm-5.59-16.36a12.47,12.47,0,0,0,0,2.22c0,2.31.13,4.62-.91,6.8s-2.76,3.72-5.43,3.43c-2.43-.26-3.31-2.06-3.85-4.13a8.37,8.37,0,0,1,7.5-10.9C227,181.92,228.07,182.44,227.65,184.73Z" transform="translate(-20.53 -49.75)"/><path class="cls-1" d="M233.31,184.09c-.05-2.26-.06-4.53-.07-6.79-.18,1.66-.14,3.32-.17,5-.09,4.17,0,8.33.2,12.49C233.21,191.22,233.39,187.65,233.31,184.09Z" transform="translate(-20.53 -49.75)"/><path class="cls-1" d="M216.1,200.43a3.62,3.62,0,0,0-.56-1c-6.69-8.38-2.75-18.71,7.83-20.52.92-.16,1.82-.36,2.73-.52,1.58-.29,2.09-1.25,2.07-2.77-.08-6.38-4-9.37-10.09-7.75-.88.23-2.06,1.21-2.6-.31s.73-2.07,1.92-2.48a16.85,16.85,0,0,1,5.78-.69c4.39.06,7,2,8.53,6.18.3.87.44,1.83,1.31,2.38l.21.11c0-.15,0-.3,0-.45-1.07-4.23-2.83-8-7.62-8.87a18.37,18.37,0,0,0-9.57,1c-2.44.87-1.79,2.23-1.28,3.89.76,2.46,1.87.38,2.68.17,2.09-.55,4.15-1,6.26-.24,2.58.94,4.35,4.51,3.68,7.94-.45,2.27-2.68,1.29-4.06,1.58-5.25,1.1-9.53,3.48-11.15,8.84s-.85,10.11,3.76,13.79l.14.07A2.14,2.14,0,0,0,216.1,200.43Z" transform="translate(-20.53 -49.75)"/><path class="cls-1" d="M233.52,199.29c0,.41.05.81.08,1.22-.11.2-.23.4-.36.6l.49-.05C233.65,200.46,233.58,199.87,233.52,199.29Z" transform="translate(-20.53 -49.75)"/><path class="cls-1" d="M132.16,165.52c-.83.45-1.37,1-1.08,2,.35,1.19,1.23.88,2,.61a11.56,11.56,0,0,1,3-.65,7.45,7.45,0,0,1,7.77,9.16c-.27,1.23-1.16,1.55-2.2,1.81-2.07.52-4.21.64-6.22,1.48-4.73,2-7.07,5.67-7.49,10.55-.4,4.67,1.42,8.35,5.79,10.49a12.57,12.57,0,0,0,1.22.74l2.58-.09a3.56,3.56,0,0,0,.49-.44,1.64,1.64,0,0,1,1.78-.35l.24.09a10.73,10.73,0,0,0,3.34-3.74c.77,3.86.85,4.2,4.84,4a1.34,1.34,0,0,0,.24-1c-.74-5-.24-10-.36-15-.07-3.14-.05-6.29,0-9.43.06-4.34-1.19-8-5-10.52a2.23,2.23,0,0,1-1.14-1.5l-.9-.21-6.13,0-.54.14C134.25,165.12,133,165.07,132.16,165.52Zm11.16,19.24a19.5,19.5,0,0,0,0,2.86,12.28,12.28,0,0,1-1.05,6.43c-1.1,2-2.64,3.37-5.1,3.13s-3.43-1.94-4-4c-1.51-5.48,1.65-10.26,7.17-11C142.37,181.91,143.8,182.12,143.32,184.77Z" transform="translate(-20.53 -49.75)"/><path class="cls-1" d="M130.29,168.28c1.28,3.43,2.78.44,3.79.21,3.6-.8,6.78-.12,8,2.49.92,1.94,1.57,4.26.89,6.16-.38,1.05-2.79.81-4.32,1-6.32,1-10.63,5.27-11.49,11.43-.74,5.28,1.68,9.68,6.67,12.12l1.14,0a12.57,12.57,0,0,1-1.22-.74c-4.37-2.15-6.2-5.82-5.79-10.49.42-4.88,2.76-8.58,7.49-10.55,2-.84,4.16-1,6.22-1.48,1-.26,1.92-.58,2.2-1.81a7.45,7.45,0,0,0-7.77-9.16,11.56,11.56,0,0,0-3,.65c-.81.27-1.69.58-2-.61-.29-1,.25-1.54,1.08-2s2.1-.41,2.27-1.74c-.42.16-.84.3-1.25.49C131.47,165,129.06,165,130.29,168.28Z" transform="translate(-20.53 -49.75)"/><path class="cls-1" d="M143.13,165.3c3.8,2.5,5,6.18,5,10.52,0,3.14-.07,6.29,0,9.43.12,5-.38,10,.36,15a1.34,1.34,0,0,1-.24,1l1.24-.06c-.15-1.47-.42-2.94-.43-4.41-.07-7.33,0-14.66-.12-22-.11-4.94-1.93-9-6.93-10.94A2.23,2.23,0,0,0,143.13,165.3Z" transform="translate(-20.53 -49.75)"/><path class="cls-1" d="M139.82,200.83a1.64,1.64,0,0,0-1.78.35,3.56,3.56,0,0,1-.49.44l.71,0c.36-.77,1.11-.39,1.67-.58l.11-.1Z" transform="translate(-20.53 -49.75)"/><path class="cls-1" d="M187.71,106.27c0-2.4-.1-4.81,0-7.2,0-.41,0-.82,0-1.22,0-.15,0-.3,0-.45-.15-1.17-.82-1.61-2.53-1.63a2.49,2.49,0,0,0-2,.61,2.57,2.57,0,0,0-.13.28c0,.79.18,1.59.18,2.37q0,18.48,0,37c0,1.29-.09,2.59,0,3.88,0,.91-.05,1.94,1.15,2.25s1.68-.5,2.19-1.31a2.55,2.55,0,0,1,.39-.42c-.12-.54-.25-1.1.41-1.3.49-.15.67.37.72.86a2.77,2.77,0,0,1,1.48.83c3.42,2.83,6.37,2.63,9.49-.48a15.63,15.63,0,0,0,3-5.2c-1,.3-1.61-1.86-2.75-1a3.24,3.24,0,0,1,.05-1.08,1.31,1.31,0,0,1,1.35-.78,2.88,2.88,0,0,1,2.3,1.34l.17-1.51h0a1.72,1.72,0,0,1,.4-2.38l.17-8.39a8.92,8.92,0,0,1-.58-3.34.26.26,0,0,1-.13-.39c-.56-.48-.47-1.17-.59-1.79l-.6-1.11c-.51-.2-.49-.63-.46-1.07l-3.31-3.46c-.42,0-.93.16-1.17-.4h0l-3.84-.22h0l-2.75,1.3-2.6,3.06Zm.94,11.47c.51-2.06,1.89-3.86,4.56-3.76,2.51.1,3.48,1.88,4.23,3.84a20.92,20.92,0,0,1,1.17,8.7,20.89,20.89,0,0,1-1.37,9.33c-.79,1.85-1.9,3.37-4.32,3.3a4.23,4.23,0,0,1-4-3.31A32.84,32.84,0,0,1,188.65,117.74Z" transform="translate(-20.53 -49.75)"/><path class="cls-1" d="M199,140.28c-3.12,3.11-6.07,3.31-9.49.48a2.77,2.77,0,0,0-1.48-.83c0,.09,0,.18,0,.26,3.12,3.71,6.42,4.44,9.87,2a10.78,10.78,0,0,0,4.68-7.57h0a1.32,1.32,0,0,1-.59.41A15.63,15.63,0,0,1,199,140.28Z" transform="translate(-20.53 -49.75)"/><path class="cls-1" d="M186.52,140.8c-.51.81-1.06,1.6-2.19,1.31s-1.1-1.34-1.15-2.25c-.06-1.29,0-2.59,0-3.88q0-18.47,0-37c0-.77-.14-1.58-.18-2.37a4.76,4.76,0,0,0-.3,1.82q0,1,0,2c.06,11,0,22.05,0,33.08a6.23,6.23,0,0,1-.25,3h0c0,1.37-.11,2.74-.06,4.11,0,1-.66,2.56,1.49,2.36,1.51-.14,3.51.56,3.08-2.22a3.54,3.54,0,0,0-.08-.46A2.55,2.55,0,0,0,186.52,140.8Z" transform="translate(-20.53 -49.75)"/><path class="cls-1" d="M102.63,98.57c0-1.82,0-2.9-2.44-2.78-2,.11-2.84.38-2.82,2.7q.05,6.06.06,12.11a4.23,4.23,0,0,1,0,2.51c0,9.17,0,18.35,0,27.52,0,.79-.45,1.78.46,2.39a2,2,0,0,0,.69-.56c2.51-.11,3.2-1.54,3.15-3.89-.11-5.68,0-11.35,0-17a9.13,9.13,0,0,1,2.27-6.42c2.7-3,6.3-2.56,8.25,1a11.53,11.53,0,0,1,1.21,5.67c0,5.58,0,11.17,0,16.75a8.51,8.51,0,0,0,.2,2.5,1.37,1.37,0,0,0,1.51,1,1.34,1.34,0,0,0,1.46-1,10.91,10.91,0,0,0,.18-2.78c.07-6.61-.14-13.22.11-19.81a3,3,0,0,1,.51-1.18,2.19,2.19,0,0,1-.25-1.21,2.55,2.55,0,0,0-.51-.25,1.91,1.91,0,0,1-.32-2.26c-.44-.19-.45-.58-.45-1-1.95-2.59-4.64-3.35-7.73-3.12l-2,.74-3.51,3.05C102.6,108.1,102.54,103.33,102.63,98.57Z" transform="translate(-20.53 -49.75)"/><path class="cls-1" d="M116.91,118.4c-.25,6.6,0,13.21-.11,19.81a10.91,10.91,0,0,1-.18,2.78,1.34,1.34,0,0,1-1.46,1,1.37,1.37,0,0,1-1.51-1,8.51,8.51,0,0,1-.2-2.5c0-5.58,0-11.17,0-16.75a11.53,11.53,0,0,0-1.21-5.67c-1.94-3.55-5.55-4-8.25-1a9.13,9.13,0,0,0-2.27,6.42c0,5.68-.07,11.36,0,17,0,2.35-.64,3.77-3.15,3.89a2,2,0,0,1-.69.56l.17.1a4.56,4.56,0,0,1,1.11-.08c2.7.47,3.62-.43,3.49-3.33-.27-6-.06-12.09-.09-18.14a9.84,9.84,0,0,1,1.5-5.56,4.39,4.39,0,0,1,4.45-2.13c2,.21,2.89,1.61,3.38,3.26a15,15,0,0,1,.62,4.38c-.06,6.51.1,13-.09,19.54-.07,2.37,1.24,2,2.6,2s2.74.64,2.69-1.83c-.18-7.91-.12-15.82-.15-23.73a1.7,1.7,0,0,1-.17-.25A3,3,0,0,0,116.91,118.4Z" transform="translate(-20.53 -49.75)"/><path class="cls-1" d="M116.65,115.76a2.55,2.55,0,0,1,.51.25c0-.11,0-.22,0-.34a3.8,3.8,0,0,1-.85-2.17A1.91,1.91,0,0,0,116.65,115.76Z" transform="translate(-20.53 -49.75)"/><path class="cls-1" d="M97.08,111.82a1.68,1.68,0,0,0-.19-1.31c0,1.17.08,2.35.07,3.53h0A20.19,20.19,0,0,1,97.08,111.82Z" transform="translate(-20.53 -49.75)"/><path class="cls-1" d="M97.43,110.61q0,1.25,0,2.51A4.23,4.23,0,0,0,97.43,110.61Z" transform="translate(-20.53 -49.75)"/><path class="cls-1" d="M257.58,164.46c-4.14.2-6.84,2.5-8.65,6a26,26,0,0,0-2.6,11.24,39.45,39.45,0,0,1-.21,6.36,2.46,2.46,0,0,1-.16.33,8.12,8.12,0,0,1,.11,2.13c1.49,4.6,3.69,8.63,8.42,10.67a2.43,2.43,0,0,1,1.68.36.6.6,0,0,1,.13.1.29.29,0,0,1,.44.08h5a23.63,23.63,0,0,1,3.34-1c1.76-.26,2-1.18,1.69-2.73s-.45-2.29-2.57-1.62c-8,2.53-14.3-3.43-13.07-12.05.2-1.38,1-1.07,1.75-1.08,4.56,0,9.12-.08,13.67,0,1.59,0,2-.46,2-2,0-4.11-.24-8.15-2-12a11.46,11.46,0,0,0-5.87-5.63l-.6-.11C259.46,164.48,258.48,164.42,257.58,164.46Zm2.7,4.94c.12.14.27.26.38.4,1.93,2.49,2.94,5.61,1.94,8.33-.62,1.7-3.68.25-5.27.65a4.13,4.13,0,0,1-1.16,0c-1.58-.66-4.4,1.47-4.78-1.17-.59-4.07,2.68-9.07,5.37-9.41A3.66,3.66,0,0,1,260.28,169.4Z" transform="translate(-20.53 -49.75)"/><path class="cls-1" d="M246.75,173.56c-1.41,4.59-1.34,9.3-1.15,14h0a2.56,2.56,0,0,1,.35.79,2.46,2.46,0,0,0,.16-.33,39.45,39.45,0,0,0,.21-6.36,26,26,0,0,1,2.6-11.24c1.81-3.5,4.51-5.79,8.65-6,.9,0,1.88,0,2.5-.88C252.57,163.65,249,166.35,246.75,173.56Z" transform="translate(-20.53 -49.75)"/><path class="cls-1" d="M195.23,200l1.18.66a24.45,24.45,0,0,0,8.36,1.07l.53-.08c1.65-.94,4-.33,5.19-2.24l-.11-.57a2,2,0,0,1-.5-1.76h-.31a12.2,12.2,0,0,0-3.85.5c-5.1,1-9-1.14-10.76-6a21.41,21.41,0,0,1-1.09-4.88c-.44-3.71-.06-4.17,3.77-4.21,3.34,0,6.69,0,10,0s3.65-.44,3.28-3.81a31.7,31.7,0,0,0-1.21-7.4c-1.23-3.45-3.25-6.11-7.09-6.72-4.25-.67-7.38,1.25-9.7,4.66a16.34,16.34,0,0,0-2.35,5.33c-.24,1-.33,2-1.32,2.66l-.24-.05c0,3.58-.36,7.16.06,10.74a20.41,20.41,0,0,0,4.17,10.36l.54.54C194.42,199,195,199.28,195.23,200Zm-.23-24.9c.53-2.17,1.19-4.28,2.92-5.86a3.68,3.68,0,0,1,5.27-.17c2.72,2.3,2.84,5.65,3.15,8.87.1,1.08-.79.8-1.36.82-1.48,0-3,0-4.44,0h-2.78C194.11,178.78,194.1,178.78,195,175.11Z" transform="translate(-20.53 -49.75)"/><path class="cls-1" d="M189.28,177.21c1-.61,1.08-1.68,1.32-2.66a16.34,16.34,0,0,1,2.35-5.33c2.32-3.41,5.45-5.34,9.7-4.66,3.84.61,5.85,3.27,7.09,6.72a31.7,31.7,0,0,1,1.21,7.4c.37,3.36,0,3.78-3.28,3.81s-6.69,0-10,0c-3.83,0-4.2.51-3.77,4.21a21.41,21.41,0,0,0,1.09,4.88c1.78,4.88,5.66,7.07,10.76,6a12.2,12.2,0,0,1,3.85-.5h.31c0-.15,0-.3,0-.45-.82-1.45-1.77-.32-2.63-.1-7,1.79-11.66-1.39-12.49-8.62-.09-.83-.16-1.66-.31-2.48-.31-1.65.17-2.3,2-2.25,4.46.13,8.93,0,13.39.07,1.4,0,2-.29,2-1.8a29.78,29.78,0,0,0-1.4-10.64c-1.31-3.72-3.49-6.61-7.69-7.18-4.63-.63-8,1.35-10.58,5.16-1.7,2.54-2.15,5.49-3.12,8.27v.06Z" transform="translate(-20.53 -49.75)"/><path class="cls-1" d="M55.47,109.85A7,7,0,0,1,52.65,111a1.57,1.57,0,0,0-1.6.9,1.21,1.21,0,0,1-.75.56l-.15,0h0a2.09,2.09,0,0,1-.49.92.43.43,0,0,1-.12.2,4.26,4.26,0,0,1-.35.62,7.18,7.18,0,0,0-1.06,2.17,5.57,5.57,0,0,1-.74,1.24c-.07.09-.13.19-.19.29l-.61,3.23c0,.73.13,1.47.12,2.19C47,128,47,132.61,48.87,137c1.48,3.37,3.94,5.39,7.56,5.73s5.93-1.68,7.79-4.44a14.7,14.7,0,0,0,2.38-7.88c.19-5.38.27-10.76-2-15.84a3,3,0,0,1,0-1.07l-2.84-2.85L59,109.46l-2.93,0A1.91,1.91,0,0,0,55.47,109.85Zm5.55,7a30.58,30.58,0,0,1,0,19.32,4.23,4.23,0,0,1-3.76,3.28c-2.08.1-3.42-1.24-4.25-3.05-1.46-3.19-1.5-6.65-1.81-9.94.3-3.34.36-6.61,1.71-9.63.78-1.76,1.89-3.27,4.05-3.27S60.42,115,61,116.86Z" transform="translate(-20.53 -49.75)"/><path class="cls-1" d="M51,111.9a1.57,1.57,0,0,1,1.6-.9,7,7,0,0,0,2.82-1.15,1.91,1.91,0,0,1,.59-.42h-1l-2.78,1.21h0L50.69,112l-.55.51.15,0A1.21,1.21,0,0,0,51,111.9Z" transform="translate(-20.53 -49.75)"/><path class="cls-1" d="M47.37,117.64a5.57,5.57,0,0,0,.74-1.24,7.18,7.18,0,0,1,1.06-2.17,4.26,4.26,0,0,0,.35-.62.43.43,0,0,0,.12-.2A5.2,5.2,0,0,1,49,114a3.63,3.63,0,0,1-1.17,2c-.57.27-.4.85-.53,1.3l-.11.59C47.24,117.83,47.3,117.74,47.37,117.64Z" transform="translate(-20.53 -49.75)"/><path class="cls-1" d="M64.61,114.56c2.26,5.08,2.17,10.46,2,15.84a14.7,14.7,0,0,1-2.38,7.88C62.36,141,60,143,56.43,142.72s-6.08-2.36-7.56-5.73c-1.92-4.37-1.89-9-2.18-13.63,0-.73-.07-1.46-.12-2.19l-.37,1.95h0c-1.12,1.44.09,2.89,0,4.36a21.49,21.49,0,0,0,1.64,9.22c1.63,3.94,4.3,6.81,8.87,6.86s7.32-2.67,9.1-6.58a13.57,13.57,0,0,0,1-2.88c1.38-6.86,1.31-13.61-1.7-20.1l-.51-.51A3,3,0,0,0,64.61,114.56Z" transform="translate(-20.53 -49.75)"/><path class="cls-1" d="M209,114.41c5.51-2.31,8.67-.22,9,5.61.09,1.57-.25,2.22-2.07,2.33-5,.29-9.06,2.4-11.24,7.24a16.07,16.07,0,0,0-.53,5.12c.36.7.3,1.61.76,2.26a11.31,11.31,0,0,0,2.76,4.14c2.42,2.11,5.35,2.08,8.39-.19,1.44-1.07,2.72-2.27,3.69.44.25.7,1,.81,1.66.64s.84-.68,1-1.24a4.66,4.66,0,0,0,.09-1.11c-.31-8.24.83-16.53-.95-24.72a3.54,3.54,0,0,1,0-.83,3.59,3.59,0,0,1,.13-.68,13.08,13.08,0,0,0-3.41-3.33l-1.19-.3c-2-.63-4-.1-6-.36-.91,1.29-2.74,0-3.64,1.29a1.85,1.85,0,0,0-.89,2.15.28.28,0,0,1,.12.42C207,114.44,207.32,115.1,209,114.41Zm9.12,16.67c.11,2.1.07,4.69-1.73,6.86-1.94,2.34-5.05,2.21-6.46-.41a8.33,8.33,0,0,1,.19-8.22c1.38-2.52,3.94-3.15,6.57-3.49,1.14-.15,1.48.38,1.44,1.42S218.09,129.45,218.09,131.08Z" transform="translate(-20.53 -49.75)"/><path class="cls-1" d="M221.45,114.09a3.54,3.54,0,0,0,0,.83c1.78,8.18.64,16.48.95,24.72a4.66,4.66,0,0,1-.09,1.11c-.12.56-.32,1.08-1,1.24s-1.41.06-1.66-.64c-1-2.71-2.25-1.51-3.69-.44-3,2.27-6,2.3-8.39.19a11.31,11.31,0,0,1-2.76-4.14c-.46-.65-.41-1.56-.76-2.26,0,.73,0,1.46,0,2.19,2.13,5.69,6,7.94,10.48,6.09,1.52-.63,2.46-2,3.92-3.19a7.82,7.82,0,0,1,.13,1.38c-.33,2.62,1.61,1.71,2.88,1.9,1.86.29,1.81-.78,1.75-2.13-.11-2.41,0-4.83-.08-7.24-.23-6.55.79-13.17-1.15-19.62-.15-.23-.31-.46-.47-.69A3.59,3.59,0,0,0,221.45,114.09Z" transform="translate(-20.53 -49.75)"/><path class="cls-1" d="M269.58,113.07c6-1.65,8.54,4,7.86,8.07a2.17,2.17,0,0,1-2.36,1.9,14.08,14.08,0,0,0-4.61,1,10.84,10.84,0,0,0-5.77,14.83,6.56,6.56,0,0,0,8.19,3.41,8.16,8.16,0,0,1,2.36-.82l.34.16c.83-1.23,1.68-2,2.11.37a1.56,1.56,0,0,0,.37.83,7.83,7.83,0,0,0,.75.26,1.62,1.62,0,0,0,.39-.08c.6-.2,1.4.17,2.07.17a2.38,2.38,0,0,0,1-.89,4.31,4.31,0,0,1-.24-.47,2.51,2.51,0,0,1-.18-1.18,1.45,1.45,0,0,1,.31-.71c0-.21,0-.42-.05-.64-.5-5.19,0-10.41-.19-15.61-.07-2.31-.05-4.61-.08-6.92-.68-.55-.61-1.33-.65-2.08a11.34,11.34,0,0,0-4-4.55c-.53-.1-1.16.14-1.55-.44h0l-6.08-.24h0a9.2,9.2,0,0,1-3.82,1.2C266.44,113.79,266.48,113.92,269.58,113.07Zm7.57,16.85a18.31,18.31,0,0,1-.44,5.25c-.38,2.46-2.72,4.59-4.7,4.4-2.74-.26-3.61-2.32-4-4.64-.73-4.61,1.66-7.9,6.26-8.95,2-.46,3.3-.26,2.87,2.27A11.49,11.49,0,0,0,277.15,129.91Z" transform="translate(-20.53 -49.75)"/><path class="cls-1" d="M266.21,114.53c.64,1,1.51-.15,2.25-.43,4.79-1.83,8.06.36,8.39,5.43.14,2.17-.47,2.72-2.65,2.85-7.7.46-12.67,7-11,14.15,1.5,6.58,6.56,8.75,12.32,5.29l.11-.17-.34-.16a8.16,8.16,0,0,0-2.36.82,6.56,6.56,0,0,1-8.19-3.41,10.84,10.84,0,0,1,5.77-14.83,14.08,14.08,0,0,1,4.61-1,2.17,2.17,0,0,0,2.36-1.9c.68-4-1.86-9.72-7.86-8.07-3.11.86-3.14.72-3.83-2.4C264.59,112.1,265.54,113.45,266.21,114.53Z" transform="translate(-20.53 -49.75)"/><path class="cls-1" d="M282.09,141.84a4.31,4.31,0,0,0,.24.47,1.77,1.77,0,0,0,.18-.39l-.14-.82c-.07-.38-.12-.76-.16-1.14a1.45,1.45,0,0,0-.31.71A2.51,2.51,0,0,0,282.09,141.84Z" transform="translate(-20.53 -49.75)"/><path class="cls-1" d="M278.08,142.85a.91.91,0,0,0,.75.26A7.83,7.83,0,0,1,278.08,142.85Z" transform="translate(-20.53 -49.75)"/><path class="cls-1" d="M153.68,124.88c.05,4.45,0,8.91,0,13.36a12.13,12.13,0,0,0,.16,2.49,1.38,1.38,0,0,0,1.59,1.21,1.33,1.33,0,0,0,1.35-1.16,13.61,13.61,0,0,0,.18-3c0-11.51-.1-23,.06-34.51,0-3.46,0-6.4-4.23-7.15l-.08,25.17C153.88,122.24,153.67,123.61,153.68,124.88Z" transform="translate(-20.53 -49.75)"/><path class="cls-1" d="M152.78,140.46c0,2,.28,2.79,2.5,2.64,1.87-.13,2.92-.13,2.89-2.59-.14-13.28-.07-26.56-.07-39.84,0-5.24,0-5.24-5.29-4.61,4.19.75,4.28,3.69,4.23,7.15-.16,11.5-.06,23-.06,34.51a13.61,13.61,0,0,1-.18,3,1.33,1.33,0,0,1-1.35,1.16,1.38,1.38,0,0,1-1.59-1.21,12.13,12.13,0,0,1-.16-2.49c0-4.45,0-8.91,0-13.36,0-1.27.2-2.64-.95-3.63C152.77,127.65,152.88,134.06,152.78,140.46Z" transform="translate(-20.53 -49.75)"/><path class="cls-1" d="M124.28,57.49a1,1,0,0,1,.7.34c3.24,6.43,5.93,13,5.2,20.45a15.23,15.23,0,0,0,.09,3.89c.07.44.18,1,.8,1s.71-.54.78-1a14.57,14.57,0,0,0,.08-3.89c-.9-7.81,2.4-14.48,5.56-21.21a3.11,3.11,0,0,1,1.11-.8l1.94-5.93-3.9,0a7.08,7.08,0,0,0-1.13,3.39,1.56,1.56,0,0,1-.55,1.67,15.57,15.57,0,0,0-1.76,5h0a31.84,31.84,0,0,1-1.88,6.54l-5.2-15.48-.67-1-3.32-.13c-1.09,2.55,1.32,4.19,1.65,6.37C124.28,56.73,124.3,57.1,124.28,57.49Z" transform="translate(-20.53 -49.75)"/><path class="cls-1" d="M130.21,61.33v0l-.09.08Z" transform="translate(-20.53 -49.75)"/><path class="cls-1" d="M129.29,79.37a36,36,0,0,0,0,3.89c0,.86.16,1.32,1.2,1.39,1.68.12,2.62-.18,2.38-2.18C131.77,73.37,134,65,138.33,57l.25-.77a3.11,3.11,0,0,0-1.11.8c-3.16,6.72-6.47,13.4-5.56,21.21a14.57,14.57,0,0,1-.08,3.89c-.07.44-.18,1-.78,1s-.72-.52-.8-1a15.23,15.23,0,0,1-.09-3.89c.74-7.45-2-14-5.2-20.45a1,1,0,0,0-.7-.34v.09C127.36,64.51,130.32,71.47,129.29,79.37Z" transform="translate(-20.53 -49.75)"/><path class="cls-1" d="M141.89,60.46a1.86,1.86,0,0,1,0,.31c-4,4.19-4.34,9.37-4,14.74a15.18,15.18,0,0,0,.31,2.19c.89,4.06,3.2,6.35,6.53,6.46,3.06.1,5.71-2.4,6.66-6.34a7.79,7.79,0,0,1,.95-2.87,3.84,3.84,0,0,1,.54-.45q0-1.95,0-3.9a4.63,4.63,0,0,1-.49-.56c-.84-1.46-.93-3.13-1.3-4.72a3,3,0,0,1-.17-1.58l-2.06-2.81c-.73-.39-1.68-.3-2.25-1l-3.33-.11h0l-.11.13A2.09,2.09,0,0,1,141.89,60.46Zm2.84,2.28A3.33,3.33,0,0,1,148,65.26a22.05,22.05,0,0,1,0,14.4,3.13,3.13,0,0,1-3,2.49c-1.81,0-2.73-1.09-3.33-2.47a16.08,16.08,0,0,1-1.15-7.35,16.93,16.93,0,0,1,1.12-7.08C142.25,63.92,143.13,62.78,144.73,62.74Z" transform="translate(-20.53 -49.75)"/><path class="cls-1" d="M139.33,82.14a6.73,6.73,0,0,0,11.23-.22c1.46-2.14,1.68-4.66,2.36-7V74.5a3.84,3.84,0,0,0-.54.45,7.79,7.79,0,0,0-.95,2.87c-1,3.94-3.6,6.44-6.66,6.34-3.33-.11-5.64-2.4-6.53-6.46a15.18,15.18,0,0,1-.31-2.19c-.38-5.37-.07-10.56,4-14.74a1.86,1.86,0,0,0,0-.31l-.18,0C136.44,65.05,135.19,76.43,139.33,82.14Z" transform="translate(-20.53 -49.75)"/><path class="cls-1" d="M151.73,64.78l-.76-1a3,3,0,0,0,.17,1.58c.37,1.59.45,3.26,1.3,4.72a4.63,4.63,0,0,0,.49.56v-.74Z" transform="translate(-20.53 -49.75)"/><path class="cls-1" d="M277.12,233.74c.78-.12,1.69-.15.76-1.62-.38-4.18-.06-8.37-.2-12.55,0-.86.41-1.83-.4-2.53-.52,2.58-.1,5.16-.24,7.72a10,10,0,0,1-.16,2.16v2.79l-.49.09-.57-1.9c-1.08-.13-1.22-1.27-1.56-2-1-2.44-2-4.9-2.94-7.4-.37-1-.67-2.13-1.89-2.51a.62.62,0,0,0-.42.25q0,.82,0,1.64c.27,4.56.13,9.12.06,13.68a3.9,3.9,0,0,1-.09.6c0,.19,0,.4-.06.61s.19.56.69.61c.74.08,1-.39,1.11-.95,0-.1,0-.2,0-.3a94.13,94.13,0,0,1,.54-11.9l4.32,11.49.36.23a1.39,1.39,0,0,1-.15,1.56.57.57,0,0,1,.49.21A3.31,3.31,0,0,1,277.12,233.74Z" transform="translate(-20.53 -49.75)"/><path class="cls-1" d="M269.81,233.73c1,0,1-.69.91-1.31-.13.55-.36,1-1.11.95-.5-.06-.66-.3-.69-.61C268.9,233.24,269,233.71,269.81,233.73Z" transform="translate(-20.53 -49.75)"/><path class="cls-1" d="M269.44,216c1.22.38,1.51,1.49,1.89,2.51.91,2.49,1.9,5,2.94,7.4.33.78.48,1.92,1.56,2h0c-1.48-3.74-3-7.46-4.4-11.23-.46-1.27-1.08-1.83-2.4-1.53q0,.53,0,1.07A.62.62,0,0,1,269.44,216Z" transform="translate(-20.53 -49.75)"/><path class="cls-1" d="M275.94,231.94l-.36-.23.06.15.15,1.64A1.39,1.39,0,0,0,275.94,231.94Z" transform="translate(-20.53 -49.75)"/><path class="cls-1" d="M269,232.14a3.9,3.9,0,0,0,.09-.6c.07-4.56.21-9.12-.06-13.68,0,4.74,0,9.48,0,14.22C269,232.09,269,232.11,269,232.14Z" transform="translate(-20.53 -49.75)"/><path class="cls-1" d="M277,224.76c.14-2.56-.28-5.14.24-7.72.82.71.37,1.68.4,2.53.14,4.18-.18,8.37.2,12.55.93,1.47,0,1.49-.76,1.62.6.07,1.18.1,1.48-.77,0-5.3-.07-10.59-.08-15.89,0-1.14.15-2.34-1.64-2v11.81A10,10,0,0,0,277,224.76Z" transform="translate(-20.53 -49.75)"/><path class="cls-1" d="M250.52,231.8c-.82-1-.39-2,0-3,.7-1.48.5-3.06.5-4.62,0-.8-.24-1.75.25-2.4,0-.43-.08-.85-.14-1.28a2.48,2.48,0,0,1-.5-.56,6.16,6.16,0,0,1-.71-1.17c-1.9-3.61-3.4-3.92-6.54-1.32-.35.29-.68.63-1.2.39v0c0,.44,0,.88-.45,1.16-.24,1.05.1,2.22-.65,3.17-1.28,1.13.07,2.33-.09,3.49a9.6,9.6,0,0,1,.59,3.3,1.39,1.39,0,0,1,0,.62c-.24,1.2,1,1.79,1.2,2.8.47.25.91.52,1,1.12,1.2,1.17,2.73.2,4.05.62C248.86,233.55,249.26,232.17,250.52,231.8Zm-4,.57a2.38,2.38,0,0,1-2.47-1.85,18.22,18.22,0,0,1-.06-11.92,2.37,2.37,0,0,1,2.46-1.84c1.38,0,1.9,1,2.33,2a14,14,0,0,1,.68,5.84,13.7,13.7,0,0,1-.68,5.62C248.36,231.3,247.83,232.28,246.5,232.37Z" transform="translate(-20.53 -49.75)"/><path class="cls-1" d="M251.28,221.78c-.49.65-.25,1.6-.25,2.4,0,1.57.2,3.14-.5,4.62-.39,1-.82,2,0,3h0c0-1-.17-2,.65-2.75A65.14,65.14,0,0,0,251.28,221.78Z" transform="translate(-20.53 -49.75)"/><path class="cls-1" d="M243.38,217.46c3.15-2.59,4.64-2.29,6.54,1.32a6.16,6.16,0,0,0,.71,1.17,2.48,2.48,0,0,0,.5.56c0-.3-.08-.6-.14-.9-.77-2-1.29-4.19-3.94-4.6-2.42-.38-3.65,1.21-4.88,2.84C242.71,218.09,243,217.75,243.38,217.46Z" transform="translate(-20.53 -49.75)"/><path class="cls-1" d="M109.92,224h0l0-1.13-.16-1.07a6.85,6.85,0,0,1-.49-2.82c-1.13-2.76-2.75-4.73-6.15-3.94h0l-2.75,2.77h0c-1,.56-.12,1.6-.62,2.28a66.47,66.47,0,0,0,.07,9.49l.61,1.53,2.72,2.94a7.51,7.51,0,0,0,3.8-.61l1.82-2.15v0l1.19-6.15Zm-3.17,6.8a2.19,2.19,0,0,1-2.14,1.52c-1.21,0-1.79-.78-2.28-1.74-1-1.91-.9-4-.87-6.19a12.86,12.86,0,0,1,.78-5.83c.42-.95.94-1.78,2.2-1.84a2.25,2.25,0,0,1,2.36,1.6A17.68,17.68,0,0,1,106.75,230.83Z" transform="translate(-20.53 -49.75)"/><path class="cls-1" d="M181.8,233.27h0a.28.28,0,0,1-.18-.21,2.87,2.87,0,0,1-.25-1.77l-.16-.51c-.58-.67-.41-1.49-.48-2.27a43.11,43.11,0,0,1-1.72-7.77,3.36,3.36,0,0,1-.45-2.3l-.19-.5c-.5-.5-.34-1.13-.35-1.73h0l-.12-.54h0c-1.6-1.06-2.67-1-2.82,1.26a6,6,0,0,1-.52,1.51,14.19,14.19,0,0,1-1,4.58h0c-.95.92-.28,2.21-.71,3.24a1.88,1.88,0,0,1-.43,1.71l-.09.52a12,12,0,0,1-1,4.48,1.8,1.8,0,0,0,.73.84c.5.17,1-.4,1.45-.9a.38.38,0,0,1,.11-.5c0-.79-.17-1.6.51-2.23,0-.59-.25-1.23.24-1.76a4.34,4.34,0,0,1,4.07.07c.83.84-.54,2.19.68,2.94.76.55.5,1.34.48,2.08.74.86,1.49.28,2.23,0l-.08-.13Zm-3.94-6.63a5.3,5.3,0,0,1-2.73,0c-.81-.24-.45-1.08-.25-1.67.74-2.25.56-4.72,1.75-7.26.52,2.69,1,5,1.39,7.34C178.11,225.55,178.84,226.38,177.86,226.64Z" transform="translate(-20.53 -49.75)"/><path class="cls-1" d="M181.8,233.27a.66.66,0,0,1-.14-.39.34.34,0,0,0,0,.18A1.45,1.45,0,0,0,181.8,233.27Z" transform="translate(-20.53 -49.75)"/><polygon class="cls-1" points="5 173.19 5 173.19 5 173.19 5 173.19"/><path class="cls-1" d="M33.19,230.78a3.51,3.51,0,0,1-.48-2.28c-.71-.79-.34-1.86-.71-2.73a15.73,15.73,0,0,1-1-5,25.48,25.48,0,0,1-1-3.88c-.16-1.58-1-2-2.34-1.84l-2.17,7.88h0c-.09.77.08,1.59-.48,2.25l-.25,1.08a11,11,0,0,1-.9,3.95l-.17.53a2.77,2.77,0,0,1-.48,2.23,1,1,0,0,0,.93,1c1.8-.69.86-2.72,1.86-3.8v0c-.36-2.25,1.09-2.09,2.64-2.18,2.17-.12,2.38,1.1,2.28,2.72a.42.42,0,0,1,.1.51c.65.66.46,1.5.52,2.29v0C35,234.26,32.72,231.73,33.19,230.78Zm-3.41-4.16a4.35,4.35,0,0,1-2.7,0c-.89-.36-.26-1.24-.11-1.93.46-2.22.88-4.44,1.31-6.66l.41.05c.43,2.24.89,4.47,1.27,6.72C30.06,225.38,30.88,226.29,29.78,226.63Z" transform="translate(-20.53 -49.75)"/><path class="cls-1" d="M55.82,215.07c-.8-.07-1.61,0-2.42-.06-1.24.68-2.55,1.29-2.88,2.88h0l0,3.89h0a.21.21,0,0,1,.16.31h0L52.16,224h0c.87,1.44,2.83,1.76,3.48,3.41a2.66,2.66,0,0,1-.46,3.95h0a3,3,0,0,1-3.55.67c-1-.4-1.33.13-1.59.9.81,2.14,2.69.56,4,1.13l2.69-1.36,1.06-1.49a9.47,9.47,0,0,0,0-4.9l-3.25-3.43a1.66,1.66,0,0,1-1.19-.92,2.82,2.82,0,0,1-.54-4.08c1-1.48,2.57-1.41,4.1-.63l.11-.09.12.08C57.76,215.9,57.24,215.19,55.82,215.07Z" transform="translate(-20.53 -49.75)"/><path class="cls-1" d="M82.14,231.56a3.74,3.74,0,0,1,.06-.46,7,7,0,0,0,.44-2.39,3.67,3.67,0,0,1,0-.73,1.66,1.66,0,0,0,0-.19l-.3-1a1.63,1.63,0,0,0-.43-.26,1.92,1.92,0,0,1-1-2l0,0c-.85-.68-1.68-1.38-2.57-2a3.21,3.21,0,0,1-1.27-4.34,2.47,2.47,0,0,1,3.11-1.4l.17-.12c.28-1.2-.68-.77-1.16-.83-1-.11-2,.62-2.89-.22l-1.17,1.65-.08,4.46.62,1.16a2.91,2.91,0,0,1,1.55,1.66l1.79,1.27c2,1.13,2.14,3,1.36,4.77s-2.52,2-4.28,1.4a1.68,1.68,0,0,0-1.55.23c-.33.43-.64.86,0,1.27a1.87,1.87,0,0,1,1.7.47l1.66.18A7.41,7.41,0,0,0,82.14,231.56Z" transform="translate(-20.53 -49.75)"/><path class="cls-1" d="M82.92,228.55a.8.8,0,0,1-.18-.6l-.05-.17a1.66,1.66,0,0,1,0,.19,3.67,3.67,0,0,0,0,.73,7,7,0,0,1-.44,2.39,3.74,3.74,0,0,0-.06.46c.08-.11.16-.21.23-.32Z" transform="translate(-20.53 -49.75)"/><path class="cls-1" d="M79.27,215.89c.49.05,1.44-.37,1.16.83l-.17.12a5,5,0,0,1,1.12.46c1.13-1.21.65-1.85-.76-2.2s-2.82.5-4.25.57h0C77.29,216.51,78.31,215.79,79.27,215.89Z" transform="translate(-20.53 -49.75)"/><path class="cls-1" d="M80.95,224.62a1.92,1.92,0,0,0,1,2,1.63,1.63,0,0,1,.43.26l-.16-.5c-.4-.47-1-.8-1-1.56l-.26-.21Z" transform="translate(-20.53 -49.75)"/><path class="cls-1" d="M134.9,232.94c-.08-.77-.64-.75-1.24-.71l-.33,0a2.8,2.8,0,0,1-1.16.08,2.73,2.73,0,0,1-.73-.26,4.5,4.5,0,0,1-.43-.35,2.55,2.55,0,0,1-1.56-1.67l-.16-.18a2.19,2.19,0,0,1-.34-.7c0-.17,0-.35,0-.52a11.54,11.54,0,0,1,.35-9.18c.06-.4.13-.79.22-1.19a1.91,1.91,0,0,1,1.34-1.34l.47.15c.82-.59,1.95-.11,2.86-.37a2.59,2.59,0,0,0,0-.39c-.06-.4-.16-.8-.19-1.2l-2.2-.11a.89.89,0,0,0-.08.26,10.2,10.2,0,0,1-3.32,2.2,1.66,1.66,0,0,1-.35,0l-1.31,2.68-.21.51,0,7.81a.4.4,0,0,1,.1.5,1,1,0,0,1,.2.47l.78,1.85,1.23,1.69,2.42,1h2.59C134.09,233.57,135,233.71,134.9,232.94Z" transform="translate(-20.53 -49.75)"/><path class="cls-1" d="M135,216.25l-.6-1.08-.37,0c0,.41.13.8.19,1.2a2.59,2.59,0,0,1,0,.39A1.5,1.5,0,0,0,135,216.25Z" transform="translate(-20.53 -49.75)"/><path class="cls-1" d="M128.13,217.3l-.09.18a1.66,1.66,0,0,0,.35,0,10.2,10.2,0,0,0,3.32-2.2.89.89,0,0,1,.08-.26h-.2A9.93,9.93,0,0,0,128.13,217.3Z" transform="translate(-20.53 -49.75)"/><path class="cls-1" d="M131.57,231.87a2.73,2.73,0,0,1-.56-.13,4.5,4.5,0,0,0,.43.35,2.73,2.73,0,0,0,.73.26,2.8,2.8,0,0,0,1.16-.08A1.83,1.83,0,0,1,131.57,231.87Z" transform="translate(-20.53 -49.75)"/><path class="cls-1" d="M129.32,229.64c-.13-.33-.24-.65-.35-1,0,.17,0,.35,0,.52a2.19,2.19,0,0,0,.34.7l.16.18q-.08-.21-.14-.42Z" transform="translate(-20.53 -49.75)"/><path class="cls-1" d="M130.87,217a1.91,1.91,0,0,0-1.34,1.34c-.09.4-.16.79-.22,1.19a11.83,11.83,0,0,1,.61-1.08,1.39,1.39,0,0,1,1.17-1.07,1.53,1.53,0,0,1,.26-.23Z" transform="translate(-20.53 -49.75)"/><path class="cls-1" d="M202.11,217.75l.06.06,0-.07Z" transform="translate(-20.53 -49.75)"/><path class="cls-1" d="M201.45,231.16c.05-4,.08-8,0-11.93,0-1.63.15-2.74,2.17-2.39.74.13,1.26-.12,1.2-1s-.68-.71-1.19-.72c-2.4,0-4.81,0-7.21,0-.35,1.29,0,2,1.47,1.76s1.81.58,1.79,1.93c-.07,4.14-.05,8.28,0,12.42,0,.94-.43,2.07.67,2.77l.24-.13.25.13C201.89,233.23,201.43,232.12,201.45,231.16Z" transform="translate(-20.53 -49.75)"/><path class="cls-1" d="M223.79,224.57c0-2.69,0-5.38,0-8.07,0-.58.26-1.36-.8-1.43s-1.19.57-1.19,1.39c0,5.27,0,10.55,0,15.82,0,.64-.37,1.58.92,1.57s1.05-1,1.06-1.77C223.81,229.58,223.79,227.07,223.79,224.57Z" transform="translate(-20.53 -49.75)"/><line class="cls-2" x1="120" y1="0.57" x2="120" y2="0.57"/><line class="cls-2" x1="220.49" y1="59.82" x2="220.49" y2="59.82"/><path class="cls-2" d="M141.66,50.87h0" transform="translate(-20.53 -49.75)"/><path class="cls-2" d="M136.64,49.75h0" transform="translate(-20.53 -49.75)"/><path class="cls-1" d="M103.28,193.56c.76.26,1,1,1.36,1.71a12,12,0,0,0,5.89,5.82c.75.19,1.5.47,2.25.64a11.19,11.19,0,0,0,3.49-.71l.15-.08c0-1.14.95-1.73,1.58-2.48,2.16-2.55,2.45-2.54,3.65.47a2,2,0,0,0,2.05,1.46,4.29,4.29,0,0,1,1.67.28,5.89,5.89,0,0,1-.24-.88,16.69,16.69,0,0,1-.56-5q0-21.27,0-42.54c0-1.43-.17-2.91.82-4.14l-.19.21c-4.54,1.22-4.53,1.22-4.54,6.16,0,3.62.07,7.24,0,10.86,0,.83,0,1.85-.91,2.19s-1.3-.5-1.87-1c-4-3.26-8.83-2.57-11.78,1.72a19.08,19.08,0,0,0-3.24,10.78,78.86,78.86,0,0,0,.42,12.51c0,.23-.05.49-.1.73C103.57,192.64,103.54,193.07,103.28,193.56Zm5.92-21.11c.94-2.27,2.45-3.95,4.87-4,2.62,0,4,2,5,4.26,1.32,3.23.59,6.62.83,10.07-.33,2.81.52,5.83-.58,8.71a16,16,0,0,1-1.37,3c-2.15,3.32-5.72,3.36-8,.09a12.41,12.41,0,0,1-2-5.73C107.39,183.35,107,177.82,109.2,172.45Z" transform="translate(-20.53 -49.75)"/><path class="cls-1" d="M103.23,191.62a78.86,78.86,0,0,1-.42-12.51,19.08,19.08,0,0,1,3.24-10.78c2.95-4.3,7.79-5,11.78-1.72.57.46,1.12,1.26,1.87,1s.88-1.36.91-2.19c.12-3.62,0-7.24,0-10.86,0-4.94,0-4.94,4.54-6.16l.19-.21.08-.1a18.45,18.45,0,0,1-2.51,0c-2.43-.36-3.32.39-3.2,3.05.24,5.34.07,10.71.07,16.27-5.75-5.4-11.39-4.79-15,1.44a18,18,0,0,0-1.67,3.8c-2,6.46-1.55,13-.53,19.55a1.74,1.74,0,0,1,.54.23C103.18,192.11,103.2,191.85,103.23,191.62Z" transform="translate(-20.53 -49.75)"/><path class="cls-1" d="M124.58,152.29q0,21.27,0,42.54a16.69,16.69,0,0,0,.56,5,5.89,5.89,0,0,0,.24.88,2.13,2.13,0,0,1,.64.44,129.2,129.2,0,0,1-.45-14.42q0-19.32-.09-38.63l-.08.08C124.41,149.38,124.58,150.86,124.58,152.29Z" transform="translate(-20.53 -49.75)"/><path class="cls-1" d="M125.47,148.07v0l-.08.1Z" transform="translate(-20.53 -49.75)"/><path class="cls-1" d="M112.77,201.74c-.75-.17-1.5-.45-2.25-.64a12,12,0,0,1-5.89-5.82c-.33-.68-.6-1.45-1.36-1.71-.05.1-.11.2-.18.31,1.65,3.34,3.45,6.54,7.29,7.86A22.87,22.87,0,0,0,112.77,201.74Z" transform="translate(-20.53 -49.75)"/><path class="cls-1" d="M116.42,201v0l-.15.08Z" transform="translate(-20.53 -49.75)"/><path class="cls-1" d="M103.13,192.35a1.81,1.81,0,0,1-.11.37,2.93,2.93,0,0,1,.07.79l.19,0C103.54,193.07,103.57,192.64,103.13,192.35Z" transform="translate(-20.53 -49.75)"/><path class="cls-1" d="M103,192.72a1.81,1.81,0,0,0,.11-.37,1.74,1.74,0,0,0-.54-.23A1.06,1.06,0,0,1,103,192.72Z" transform="translate(-20.53 -49.75)"/><path class="cls-1" d="M103.08,193.51c0,.12,0,.24,0,.36.07-.11.13-.21.18-.31Z" transform="translate(-20.53 -49.75)"/><path class="cls-1" d="M123.7,200.4a2,2,0,0,1-2.05-1.46c-1.2-3-1.49-3-3.65-.47-.63.75-1.55,1.34-1.58,2.48l.07,0a22.89,22.89,0,0,0,3.86-4c1,4.28,1,4.45,5.14,4.22a2.9,2.9,0,0,0-.11-.47A4.29,4.29,0,0,0,123.7,200.4Z" transform="translate(-20.53 -49.75)"/><path class="cls-1" d="M125.48,201.15l.53,0a2.13,2.13,0,0,0-.64-.44A2.9,2.9,0,0,1,125.48,201.15Z" transform="translate(-20.53 -49.75)"/><polygon class="cls-1" points="95.89 151.23 95.89 151.23 95.89 151.23 95.89 151.23"/><path class="cls-1" d="M116.42,201h0l.07,0-.07,0Z" transform="translate(-20.53 -49.75)"/><path class="cls-1" d="M77.13,165.81a5.48,5.48,0,0,0-.37.93,33.61,33.61,0,0,1,0,4.16c0,7.6.1,15.21,0,22.81a4,4,0,0,1,0,2c0,.08,0,.15-.05.23,0,1,0,1.92,0,2.87a5.49,5.49,0,0,0,.05.92c.58,1.13,1.68,1.36,4.18,1.17a10,10,0,0,0,1.15-.15,2.38,2.38,0,0,0,.49-1.64,3.34,3.34,0,0,1-.33-1.62q-.12-10,0-20.06a2.86,2.86,0,0,1,.31-1.16,8.09,8.09,0,0,1,.57-2.68l0-.11a2.05,2.05,0,0,1,.42-2l.34.1a.94.94,0,0,1,.19-.08,4.11,4.11,0,0,1,2.08-2.21,1.4,1.4,0,0,1,.38-.25h.1a3.11,3.11,0,0,1,4.07.24l.1-.14a2.1,2.1,0,0,1,1.39,1.37c0,.06,0,.12,0,.18a5.65,5.65,0,0,1,1.38,4.15,9.47,9.47,0,0,1,.69,1.31c.42,7.39.22,14.78.11,22.16a10.54,10.54,0,0,0,0,2.2c0,.05,0,.09,0,.14a3.64,3.64,0,0,1,.63-.23c3.3-.89,3.31-.89,3.32-4.41,0-6.85,0-13.71,0-20.56,0-1.16-.17-2.39.49-3.41,0-.09-.09-.19-.15-.28a13.87,13.87,0,0,1-.92-2c-2.32-5.77-8.65-7.22-13.34-3.07-1.25,1.1-1.75,1.55-2.19,1.28l-.16.19a3.74,3.74,0,0,1-.1-.43,12.14,12.14,0,0,1-.92-1.57C80,164.16,78.52,164.89,77.13,165.81Z" transform="translate(-20.53 -49.75)"/><path class="cls-1" d="M76.76,166.74a5.48,5.48,0,0,1,.37-.93c1.39-.92,2.87-1.64,3.92.31a12.14,12.14,0,0,0,.92,1.57c-.26-1.39.08-3.08-1.11-3.36-1.33-.32-3.31-1.08-4.5.79h0A7,7,0,0,1,76.76,166.74Z" transform="translate(-20.53 -49.75)"/><path class="cls-1" d="M84.43,166.65c4.7-4.15,11-2.7,13.34,3.07a13.87,13.87,0,0,0,.92,2c.05.09.1.19.15.28a2.84,2.84,0,0,1,.42-.51c-.19-.51-.4-1-.56-1.54-1.37-4.57-4.32-6.6-9.1-6.39-3.21.14-5.39,2-7.37,4.34C82.68,168.2,83.18,167.75,84.43,166.65Z" transform="translate(-20.53 -49.75)"/><path class="cls-1" d="M94.38,200.65s0-.09,0-.14a10.54,10.54,0,0,1,0-2.2c.11-7.39.31-14.78-.11-22.16a9.47,9.47,0,0,0-.69-1.31c0,.2,0,.39,0,.59,0,1,.09,2,.09,3q0,11.4,0,22.8A1.89,1.89,0,0,1,94.38,200.65Z" transform="translate(-20.53 -49.75)"/><path class="cls-1" d="M86.63,169h-.1a1.4,1.4,0,0,0-.38.25l.15-.06Z" transform="translate(-20.53 -49.75)"/><path class="cls-1" d="M83.13,173.47l0,.11a5.91,5.91,0,0,1,.31-.62h0c.15-.45-.14-1.09.41-1.38l-.34-.1A2.05,2.05,0,0,0,83.13,173.47Z" transform="translate(-20.53 -49.75)"/><path class="cls-1" d="M82.56,177.78c0-.51,0-1,0-1.52a2.86,2.86,0,0,0-.31,1.16q-.11,10,0,20.06a3.34,3.34,0,0,0,.33,1.62c0-.13,0-.26,0-.4C82.42,191.74,82.56,184.76,82.56,177.78Z" transform="translate(-20.53 -49.75)"/><path class="cls-1" d="M92.19,170.5a2.1,2.1,0,0,0-1.39-1.37l-.1.14,0,0,1.2,1.14c.08.08.15.16.22.24S92.18,170.56,92.19,170.5Z" transform="translate(-20.53 -49.75)"/><path class="cls-1" d="M76.84,195.7a4,4,0,0,0,0-2c0,.74,0,1.47,0,2.21C76.81,195.85,76.83,195.78,76.84,195.7Z" transform="translate(-20.53 -49.75)"/><path class="cls-1" d="M79.74,201.27c1.09,0,1.91,0,2.4-.52a10,10,0,0,1-1.15.15c-2.5.18-3.6,0-4.18-1.17C77,201.39,78.2,201.25,79.74,201.27Z" transform="translate(-20.53 -49.75)"/><path class="cls-1" d="M76.27,199.53a3.19,3.19,0,0,0,.13.68A1,1,0,0,0,76.27,199.53Z" transform="translate(-20.53 -49.75)"/><path class="cls-1" d="M99.17,177.14c0-.7.07-1.4.11-2.09q0-.69,0-1.39a4.61,4.61,0,0,0-.43-1.62c-.66,1-.49,2.26-.49,3.41,0,6.85,0,13.71,0,20.56,0,3.53,0,3.53-3.32,4.41a3.64,3.64,0,0,0-.63.23,2,2,0,0,0,.27.57,7,7,0,0,1,1.48,0c1.86.29,2.84,0,3.22-1.29a4.51,4.51,0,0,1,.13-4q-.1-4.07-.13-8.14C98.73,184.28,99.21,180.69,99.17,177.14Z" transform="translate(-20.53 -49.75)"/><path class="cls-1" d="M99.34,187.78c0-4.25,0-8.5-.06-12.74,0,.7-.11,1.4-.11,2.09C99.21,180.69,98.73,184.28,99.34,187.78Z" transform="translate(-20.53 -49.75)"/><path class="cls-1" d="M99.27,173.65q0-1.07,0-2.13a2.84,2.84,0,0,0-.42.51A4.61,4.61,0,0,1,99.27,173.65Z" transform="translate(-20.53 -49.75)"/><path class="cls-1" d="M93.62,201.27c.34,0,.69,0,1,0a2,2,0,0,1-.27-.57A1.89,1.89,0,0,0,93.62,201.27Z" transform="translate(-20.53 -49.75)"/><path class="cls-1" d="M99.34,200a6.15,6.15,0,0,0,.18-1.93c0-.7,0-1.4-.06-2.11A4.51,4.51,0,0,0,99.34,200Z" transform="translate(-20.53 -49.75)"/><path class="cls-1" d="M58.28,200.1a9.67,9.67,0,0,0,10.86-1.85c.47-.43.91-1,1.57-1.08l0-.19c1.22-2.09,1.4-4.67,3.11-6.52a1.53,1.53,0,0,1,.24,0,4.72,4.72,0,0,1,.49-2.81,67.51,67.51,0,0,0-.47-12.75,2.89,2.89,0,0,1-.52-1.18l-.23-.23a7.91,7.91,0,0,1-.55-.63c-.8-1.16-1.21-2.51-1.92-3.72a9.48,9.48,0,0,0-16.1-.57,16.42,16.42,0,0,0-2.92,6.89,43,43,0,0,0,.33,16.34c.69,2.93,2.5,5.14,4.07,7.54a.67.67,0,0,1-.12.64l0,0C56.92,199.39,57.61,199.83,58.28,200.1Zm-2.06-17.4a25.13,25.13,0,0,1,1.59-10.61c.91-2.18,2.22-3.91,4.87-3.86s3.86,1.82,4.56,3.87a32,32,0,0,1-.08,21.49c-.68,2-2,3.61-4.45,3.59s-3.89-1.53-4.8-3.61A24.61,24.61,0,0,1,56.22,182.7Z" transform="translate(-20.53 -49.75)"/><path class="cls-1" d="M56.28,199.31c-1.56-2.4-3.37-4.62-4.07-7.54a43,43,0,0,1-.33-16.34,16.42,16.42,0,0,1,2.92-6.89,9.48,9.48,0,0,1,16.1.57c.71,1.21,1.12,2.56,1.92,3.72a7.91,7.91,0,0,0,.55.63l.23.23a4.41,4.41,0,0,1-.08-1.06c-.24-.49-.49-1-.71-1.46-1.88-4.23-4.58-7.39-9.65-7.57-5.24-.18-8.46,2.66-10.58,7.09A26.26,26.26,0,0,0,50.39,182c-.05,6.6.74,12.95,5.77,17.91A.67.67,0,0,0,56.28,199.31Z" transform="translate(-20.53 -49.75)"/><path class="cls-1" d="M73.87,190.45c-1.71,1.85-1.89,4.43-3.11,6.52l0,.19a1.45,1.45,0,0,1,.56,0l2.83-6.67s0-.06,0-.09A1.53,1.53,0,0,0,73.87,190.45Z" transform="translate(-20.53 -49.75)"/><path class="cls-1" d="M65.25,201.43a14.49,14.49,0,0,0,5.28-3.52c.06-.23.12-.48.18-.74-.66.1-1.09.66-1.57,1.08a9.67,9.67,0,0,1-10.86,1.85c-.67-.27-1.36-.71-2.08-.1a17.14,17.14,0,0,0,6.29,1.81C63.42,201.72,64.33,201.54,65.25,201.43Z" transform="translate(-20.53 -49.75)"/><path class="cls-1" d="M65.25,201.43c-.92.11-1.83.29-2.76.39A7.87,7.87,0,0,0,65.25,201.43Z" transform="translate(-20.53 -49.75)"/><path class="cls-1" d="M70.71,197.16c-.06.26-.12.51-.18.74l.74-.72A1.45,1.45,0,0,0,70.71,197.16Z" transform="translate(-20.53 -49.75)"/><path class="cls-1" d="M179.18,119.84c-.22-10.83-8.55-11.92-15.51-9.1-2,.82-1,2-.71,3.12.4,1.82,1.38.76,2.23.43,5.22-2.07,8.49,0,8.87,5.35.15,2.06-.43,2.63-2.53,2.74-5.94.29-10,3.82-11.27,9.31-1,4.32.83,9.12,4.14,11s6.23,1.05,10-2.77a9.71,9.71,0,0,0,.52,2.37c.86,1.65,2.45.54,3.7.79,1,.2.88-.45.82-1.2C178.86,134.52,179.32,127.17,179.18,119.84Zm-5.1,8a21.2,21.2,0,0,0,0,2.79c0,2,.24,4.11-.74,6s-2.31,3-4.38,2.86-3-1.67-3.54-3.47c-1.5-5,1.07-9,6.3-10.13C173.48,125.57,174.35,125.85,174.08,127.88Z" transform="translate(-20.53 -49.75)"/><path class="cls-1" d="M238.06,152.61q0,21.5,0,43a17.56,17.56,0,0,0,.15,3.06,1.79,1.79,0,0,0,3.5,0,17.74,17.74,0,0,0,.14-3.06q0-21.5,0-43a12,12,0,0,1,.16-3.12l-.15-.16c-1.34-.79-2.9-.27-4.3-.64C238.24,149.89,238.06,151.28,238.06,152.61Z" transform="translate(-20.53 -49.75)"/><path class="cls-1" d="M241.89,149.31l.15.16a3.53,3.53,0,0,1,.75-1.42h-5.61a3.52,3.52,0,0,1,.41.61C239,149,240.55,148.52,241.89,149.31Z" transform="translate(-20.53 -49.75)"/><path class="cls-1" d="M242.73,199.26a35.19,35.19,0,0,1,.15-6.4q0-2.91,0-5.83a1.39,1.39,0,0,1,0-.69l0-.16q0-4.55,0-9.11c0-.6-.08-1.21-.09-1.81-.2-8.26,0-16.51-.22-24.76a1.55,1.55,0,0,0-.47-1,12,12,0,0,0-.16,3.12q0,21.5,0,43a17.74,17.74,0,0,1-.14,3.06,1.79,1.79,0,0,1-3.5,0,17.56,17.56,0,0,1-.15-3.06q0-21.5,0-43c0-1.33.18-2.72-.47-3.94a3.17,3.17,0,0,1-.41-.14q0,.57,0,1.13a8.35,8.35,0,0,1,.17,1.76c.06,7.79.44,15.61-.11,23.37,0,.44-.05.87-.08,1.3q0,10.78-.08,21.56a9.93,9.93,0,0,1,0,2.25,1.55,1.55,0,0,0,.54,1.16c.4,0,.85,0,1.23-.05a29.16,29.16,0,0,1,3.49.05,1.69,1.69,0,0,0,.52-1.25A1.55,1.55,0,0,1,242.73,199.26Z" transform="translate(-20.53 -49.75)"/><path class="cls-1" d="M237.09,197.66c0,.56,0,1.11,0,1.67a4.65,4.65,0,0,0,0,.58A9.93,9.93,0,0,0,237.09,197.66Z" transform="translate(-20.53 -49.75)"/><path class="cls-1" d="M237.59,148.67a3.52,3.52,0,0,0-.41-.61q0,.23,0,.47A3.17,3.17,0,0,0,237.59,148.67Z" transform="translate(-20.53 -49.75)"/><path class="cls-1" d="M242.51,150.5c.18,8.25,0,16.51.22,24.76,0,.6,0,1.21.09,1.81q0-14.51,0-29h0a3.53,3.53,0,0,0-.75,1.42A1.55,1.55,0,0,1,242.51,150.5Z" transform="translate(-20.53 -49.75)"/><path class="cls-1" d="M242.84,187q0-.43,0-.85l0,.16A1.39,1.39,0,0,0,242.84,187Z" transform="translate(-20.53 -49.75)"/><path class="cls-1" d="M237.35,151.42a8.35,8.35,0,0,0-.17-1.76q0,13.22,0,26.44c0-.43,0-.87.08-1.3C237.78,167,237.41,159.21,237.35,151.42Z" transform="translate(-20.53 -49.75)"/><path class="cls-1" d="M242.73,199.26a1.55,1.55,0,0,0,.16.56c0-.16,0-.32,0-.51,0-2.15,0-4.3,0-6.45A35.19,35.19,0,0,0,242.73,199.26Z" transform="translate(-20.53 -49.75)"/><path class="cls-1" d="M238.88,201c-.38.06-.83,0-1.23.05.51.36,1.3.19,2.05.12s2,.41,2.66-.12A29.16,29.16,0,0,0,238.88,201Z" transform="translate(-20.53 -49.75)"/><path class="cls-1" d="M203,133.61c-1.14.16-2-1.35-3.23-.67,1,.21,1.69,1.09,2.58,1.58A1.53,1.53,0,0,1,203,134a.38.38,0,0,1-.11-.26A.75.75,0,0,1,203,133.61Z" transform="translate(-20.53 -49.75)"/><path class="cls-1" d="M202.3,134.52a2.85,2.85,0,0,0,.33.16h0l.51-.58a.53.53,0,0,1-.1-.1A1.53,1.53,0,0,0,202.3,134.52Z" transform="translate(-20.53 -49.75)"/><path class="cls-1" d="M202.3,134.52c-.89-.48-1.54-1.37-2.58-1.58,1.22-.68,2.09.83,3.23.67,0-.05,0-.09,0-.09a2.88,2.88,0,0,0-2.3-1.34,1.31,1.31,0,0,0-1.35.78,3.24,3.24,0,0,0-.05,1.08c1.14-.83,1.71,1.34,2.75,1l.23-.53Z" transform="translate(-20.53 -49.75)"/><path class="cls-1" d="M202.27,134.56l-.23.53a1.32,1.32,0,0,0,.59-.41,2.85,2.85,0,0,1-.33-.16Z" transform="translate(-20.53 -49.75)"/><path class="cls-1" d="M203,133.61a.75.75,0,0,0,0,.13.38.38,0,0,0,.11.26h.07l-.09-.38Z" transform="translate(-20.53 -49.75)"/><path class="cls-1" d="M203,134a.53.53,0,0,0,.1.1l0-.11Z" transform="translate(-20.53 -49.75)"/><path class="cls-1" d="M203,133.61H203l0-.08S203,133.56,203,133.61Z" transform="translate(-20.53 -49.75)"/><path class="cls-1" d="M187,140.83h0l1.08-.64h0C187.28,139.68,187.24,140.43,187,140.83Z" transform="translate(-20.53 -49.75)"/><path class="cls-1" d="M188.05,139.93c-.06-.49-.23-1-.72-.86-.66.2-.53.76-.41,1.3a1.84,1.84,0,0,1,.94-.45Z" transform="translate(-20.53 -49.75)"/><path class="cls-1" d="M187.85,139.93a1.84,1.84,0,0,0-.94.45,3.54,3.54,0,0,1,.08.46h0c.25-.41.29-1.15,1.08-.64,0-.08,0-.17,0-.26Z" transform="translate(-20.53 -49.75)"/><path class="cls-1" d="M167.46,83.54c.29.34.87.21,1.3-.05.75-1.65,0-3.31.05-5,.08-5.39,0-10.78,0-16.16,0-.7.17-1.54-.41-1.94a2.74,2.74,0,0,0-1.21-.22H167c-1.24.17-1.16,1.2-1.16,2.23,0,4.55.1,9.1-.05,13.65a4,4,0,0,1-.17.81,3.08,3.08,0,0,1-.2.51l-.19.36a4.26,4.26,0,0,1-.65,2.27,3.42,3.42,0,0,1-3.41,2c-1.6-.19-2.32-1.34-2.74-2.77a12.58,12.58,0,0,1-.45-2.87,3.91,3.91,0,0,1,0-3.19v0c0-3.63,0-7.26,0-10.89,0-1.24,0-2.05-1.69-2.07a3.07,3.07,0,0,0-1.09.15,4.7,4.7,0,0,0-.54,2.43,53.36,53.36,0,0,1-.08,6.61,4.82,4.82,0,0,1-.14.75c0,3,0,6,0,9h.07c.77.36,1,1.1,1.26,1.77,1.51,3.28,4.21,4.34,7.22,2.48a5.52,5.52,0,0,1,2.4-1l.53-.58a6,6,0,0,0-.07.61A2.81,2.81,0,0,1,167.46,83.54Z" transform="translate(-20.53 -49.75)"/><path class="cls-1" d="M158,73.17a3.91,3.91,0,0,0,0,3.19C157.93,75.3,158,74.24,158,73.17Z" transform="translate(-20.53 -49.75)"/><path class="cls-1" d="M154.37,62.33c0,2.6.05,5.2.06,7.81a4.82,4.82,0,0,0,.14-.75,53.36,53.36,0,0,0,.08-6.61,4.7,4.7,0,0,1,.54-2.43C154.47,60.62,154.36,61.28,154.37,62.33Z" transform="translate(-20.53 -49.75)"/><path class="cls-1" d="M165.43,77.41a3.08,3.08,0,0,0,.2-.51,4,4,0,0,0,.17-.81c.15-4.55,0-9.1.05-13.65,0-1-.08-2.06,1.16-2.23-1.68.05-1.58,1-1.61,2.24,0,1,0,1.93,0,2.9,0,1.4.06,2.81.07,4.21a50,50,0,0,1-.32,7.32h0l.11.1-.07.13a4.22,4.22,0,0,1,.05.66Z" transform="translate(-20.53 -49.75)"/><path class="cls-1" d="M155.78,81c-.31-.67-.49-1.42-1.26-1.77h-.07v.17c1.7,4.86,3.56,6.32,7.08,5.59a7.4,7.4,0,0,0,3.87-2.52,5.52,5.52,0,0,0-2.4,1C160,85.31,157.29,84.25,155.78,81Z" transform="translate(-20.53 -49.75)"/><path class="cls-1" d="M169,76.28c.11-4.64,0-9.29.05-13.93,0-1,0-1.62-.67-1.94.58.4.41,1.24.41,1.94,0,5.39.05,10.78,0,16.16,0,1.65.69,3.31-.05,5-.43.26-1,.4-1.3.05a2.81,2.81,0,0,0-1.59-1.08c-.14,2.37,1.58,2.15,2.93,2.41C169.53,82,169,79.14,169,76.28Z" transform="translate(-20.53 -49.75)"/><path class="cls-1" d="M173.9,62.57c-.21-.48-.45-1.17-1.18-.81s-.47,1-.41,1.5c.62,5.75.15,11.52.29,17.28,0,.56,0,1.12,0,1.67s0,1,.59,1.09,1-.45,1.09-1a10.45,10.45,0,0,0,.12-2.22c0-3.35-.13-6.7.07-10,.25-4.19,1.82-6.12,5.46-7l.42,0c-.38-.89-.46-1.9-.93-2.75l-.33.28a20.77,20.77,0,0,0-2.45,2.27c-.61.63-1.23,1.09-1.8.89l-.07.08v-.11A2,2,0,0,1,173.9,62.57Z" transform="translate(-20.53 -49.75)"/><path class="cls-1" d="M176.63,62.79a20.77,20.77,0,0,1,2.45-2.27l.33-.28a3,3,0,0,0-.32-.48c-1.74.76-2.81,2.32-4.25,3.93C175.4,63.89,176,63.42,176.63,62.79Z" transform="translate(-20.53 -49.75)"/><path class="cls-1" d="M179.91,63c-3.64.88-5.21,2.81-5.46,7-.2,3.34,0,6.69-.07,10a10.45,10.45,0,0,1-.12,2.22c-.13.58-.42,1.11-1.09,1s-.59-.62-.59-1.09,0-1.12,0-1.67c-.14-5.76.33-11.53-.29-17.28-.06-.54-.17-1.21.41-1.5s1,.33,1.18.81a2,2,0,0,0,.86,1.09,13.1,13.1,0,0,1-.09-2c.21-1.71-1-1.33-2-1.43-1.36-.15-1.55.56-1.45,1.65.67,6.94.19,13.91.28,20.86,0,1.44.38,1.9,1.85,1.92s1.88-.44,1.85-1.89c-.09-4.27-.1-8.54,0-12.81.1-4,2-6.07,5.5-6.27a3.2,3.2,0,0,1-.41-.72Z" transform="translate(-20.53 -49.75)"/><path class="cls-1" d="M179.83,59.84a4.67,4.67,0,0,1-.43.4c.47.85.55,1.86.93,2.75l.36-.06C180.84,61.72,181.69,60.21,179.83,59.84Z" transform="translate(-20.53 -49.75)"/><path class="cls-1" d="M179.83,59.84a4.69,4.69,0,0,0-.75-.08,3,3,0,0,1,.32.48A4.67,4.67,0,0,0,179.83,59.84Z" transform="translate(-20.53 -49.75)"/><path class="cls-1" d="M180.69,62.93l-.36.06a3.2,3.2,0,0,0,.41.72A1.68,1.68,0,0,1,180.69,62.93Z" transform="translate(-20.53 -49.75)"/><path class="cls-1" d="M203.17,132c.26-.77,0-1.63.4-2.38A1.72,1.72,0,0,0,203.17,132Z" transform="translate(-20.53 -49.75)"/><path class="cls-1" d="M203.57,129.64c-.38.75-.14,1.61-.4,2.38C203.86,131.32,203.63,130.46,203.57,129.64Z" transform="translate(-20.53 -49.75)"/><path class="cls-1" d="M275.46,178.6c0-2.76.67-5.32,3.07-7.08a2.14,2.14,0,0,1,1-.29,3.53,3.53,0,0,1,2.84-1.41l0,0a.55.55,0,0,1,0-.48c2.3-3,2.14-3.85-1.15-5.64l0,0,.11.4c-1.25,1.73-3,3-4.36,4.64-1.11,1.4-2.07.83-2.49-.77-.12-.45-.15-.92-.23-1.37a1.47,1.47,0,0,0-1.74-1.38c-1,.08-1.42.73-1.53,1.66a10.93,10.93,0,0,0,0,2.5c1,8.71.36,17.44.52,26.16.08,4.38,0,4.38,4.15,5.07a1.51,1.51,0,0,1,.64.51h0a4.37,4.37,0,0,1-.83-3.13C275.42,191.52,275.37,185.06,275.46,178.6Z" transform="translate(-20.53 -49.75)"/><path class="cls-1" d="M275.63,200.61c-4.13-.7-4.07-.7-4.15-5.07-.16-8.72.5-17.46-.52-26.16a10.93,10.93,0,0,1,0-2.5c.11-.93.5-1.58,1.53-1.66a1.47,1.47,0,0,1,1.74,1.38c.08.46.12.92.23,1.37.42,1.6,1.38,2.17,2.49.77,1.33-1.68,3.11-2.91,4.36-4.64l-.11-.4a12.91,12.91,0,0,0-5.45,5.7,4,4,0,0,1-.51-2.92c.45-2.85-1.54-2.15-3.11-2.36-2.13-.28-2.19.87-2.11,2.44.54,9.75.32,19.52.35,29.28,0,5.64,0,5.64,5.84,5.29A1.51,1.51,0,0,0,275.63,200.61Z" transform="translate(-20.53 -49.75)"/><path class="cls-1" d="M282.39,169.8l0,0h0Z" transform="translate(-20.53 -49.75)"/><path class="cls-1" d="M276.29,178.83c0-2.88.77-5.48,3.09-7.41l.16-.19a2.14,2.14,0,0,0-1,.29c-2.4,1.76-3,4.32-3.07,7.08-.08,6.46,0,12.92,0,19.39a4.37,4.37,0,0,0,.83,3.13C276.27,193.69,276.26,186.26,276.29,178.83Z" transform="translate(-20.53 -49.75)"/><path class="cls-1" d="M282.44,169.32a.55.55,0,0,0,0,.48.76.76,0,0,1,.24-.23,1.23,1.23,0,0,1,1.19,0c.36,0,.66-.08.72-.5a10.82,10.82,0,0,0,0-4.93c-.4-1.18-2.12-.27-3.24-.45C284.58,165.47,284.74,166.28,282.44,169.32Z" transform="translate(-20.53 -49.75)"/><path class="cls-1" d="M282.63,169.57a.76.76,0,0,0-.24.23v0h0c.34-.38.93-.27,1.42-.27A1.23,1.23,0,0,0,282.63,169.57Z" transform="translate(-20.53 -49.75)"/><path class="cls-1" d="M153.09,220.55a50,50,0,0,1,.26-5.19l-.07,0a2,2,0,0,1-.66.19,5.77,5.77,0,0,1,.47,2.93Q153.09,219.53,153.09,220.55Z" transform="translate(-20.53 -49.75)"/><path class="cls-1" d="M153.1,230.07c.14-2.78,0-5.69,0-8.65C153.1,224.4,153.09,227.34,153.1,230.07Z" transform="translate(-20.53 -49.75)"/><path class="cls-1" d="M153.28,215.39l.07,0c0-.12,0-.25,0-.37l-1.11.1h0a2.84,2.84,0,0,1,.35.49A2,2,0,0,0,153.28,215.39Z" transform="translate(-20.53 -49.75)"/><path class="cls-1" d="M153.09,220.55q0,.44,0,.88c0,3,.14,5.87,0,8.65,0-2.73,0-5.67,0-8.65q0-.44,0-.88,0-1,0-2a5.77,5.77,0,0,0-.47-2.93,2,2,0,0,1-.35,0v.95a5.35,5.35,0,0,1,.16,1.81c.05,4.15,0,8.31,0,12.46a17.43,17.43,0,0,0,.11,2.83,1.29,1.29,0,0,0,.43.09c1.43.08,1-1.07,1-1.78s0-1.71,0-2.57c-.65-3.75-.24-7.53-.06-11.29a3,3,0,0,1,.06-.49c0-.31,0-.62,0-.93,0-.5.16-1.09-.26-1.47l-.36.17A50,50,0,0,0,153.09,220.55Z" transform="translate(-20.53 -49.75)"/><path class="cls-3" d="M153.09,220.55q0,.44,0,.88" transform="translate(-20.53 -49.75)"/><path class="cls-1" d="M152.62,215.58a2.84,2.84,0,0,0-.35-.49v.5A2,2,0,0,0,152.62,215.58Z" transform="translate(-20.53 -49.75)"/><path class="cls-1" d="M153.71,215.19a1.06,1.06,0,0,0-.32-.2c0,.12,0,.25,0,.37Z" transform="translate(-20.53 -49.75)"/><path class="cls-1" d="M152.45,230.81c0-4.15,0-8.31,0-12.46a5.35,5.35,0,0,0-.16-1.81c0,5.16-.06,10.33-.08,15.49,0,.56-.27,1.35.37,1.61A17.43,17.43,0,0,1,152.45,230.81Z" transform="translate(-20.53 -49.75)"/><path class="cls-1" d="M153.91,218.08c-.18,3.76-.59,7.54.06,11.29q0-5.89,0-11.78A3,3,0,0,0,153.91,218.08Z" transform="translate(-20.53 -49.75)"/></svg>