<svg xmlns="http://www.w3.org/2000/svg" viewBox="0 0 1524.1 574.15"><defs><style>.a{fill:#d6333a;}.b{fill:#030303;}.c{fill:#d1333b;}.d{fill:#d53334;}.e{fill:#c92634;}.f{fill:#0a0a0a;}.g{fill:#c23a3c;}.h{fill:#c43135;}.i{fill:#c53740;}.j{fill:#ce373d;}.k{fill:#a43e38;}.l{fill:#0d0d0d;}.m{fill:#c61d26;}.n{fill:#bf5859;}.o{fill:#b23337;}.p{fill:#d9313a;}.q{fill:#cd363f;}.r{fill:#cc373d;}.s{fill:#e62b3a;}.t{fill:#e62a42;}.u{fill:#c13e39;}.v{fill:#ae3840;}.w{fill:#a6343c;}.x{fill:#9a403a;}.y{fill:#a8414a;}.z{fill:#a83546;}.aa{fill:#9b464a;}.ab{fill:#ab3a48;}.ac{fill:#a43e46;}.ad{fill:#a7373b;}.ae{fill:#ae373d;}.af{fill:#c23c42;}.ag{fill:#ac443b;}.ah{fill:#ea1c25;}.ai{fill:#840203;}.aj{fill:#e21a22;}.ak{fill:#c0141c;}.al{fill:#7f0102;}.am{fill:#be141a;}.an{fill:#d61921;}.ao{fill:#d21820;}.ap{fill:#c5151d;}.aq{fill:#b91319;}.ar{fill:#c1141c;}.as{fill:#c2141c;}.at{fill:#dd1a22;}.au{fill:#d91921;}.av{fill:#ce171f;}.aw{fill:#c9171e;}.ax{fill:#e31b24;}.ay{fill:#bc131a;}.az{fill:#de1a22;}.ba{fill:#b11117;}.bb{fill:#e31b23;}.bc{fill:#e71b24;}.bd{fill:#8a0305;}.be{fill:#dd1b23;}.bf{fill:#a20c11;}.bg{fill:#aa0e15;}.bh{fill:#7c0102;}.bi{fill:#98060b;}.bj{fill:#b61218;}.bk{fill:#930508;}.bl{fill:#8f0406;}.bm{fill:#a70d12;}.bn{fill:#a60d12;}.bo{fill:#d51920;}.bp{fill:#d71921;}.bq{fill:#9d090e;}.br{fill:#a30c11;}.bs{fill:#eb1c25;}.bt{fill:#99060b;}.bu{fill:#b01116;}.bv{fill:#ab0f15;}.bw{fill:#9d0a0f;}.bx{fill:#e61b24;}.by{fill:#c9181f;}.bz{fill:#b21117;}.ca{fill:#900507;}</style></defs><title>comcast</title><path d="M258.56,185c0-9.16-.46-18.32-2.58-27.28-3.9-16.44-11.28-30.37-27.53-37.93-24-11.15-55.89-2.82-72.31,20-9.3-17-23.77-25-42.88-24.88-19.45.12-33,10-43.84,26.94,0-7.29-.13-13.38.06-19.45.08-2.71-.5-3.78-3.5-3.7q-12.73.31-25.48,0c-2.93-.06-3.51.93-3.5,3.65q.11,78.72,0,157.45c0,3.15,1.26,3.42,3.78,3.38,8.5-.11,17-.28,25.49.06,4,.16,4.88-1,4.85-4.86-.18-26-.31-52,0-78,.16-13.66,2-27.14,8.71-39.45,5.68-10.35,14.37-15.45,26.16-14.55,12.32.94,18.62,8.93,22.1,19.87,3.27,10.27,3.78,20.88,3.78,31.55,0,27,.07,54-.07,81,0,3.4.67,4.57,4.29,4.43q12-.45,24,0c3.82.13,4.95-.81,4.93-4.84-.16-29-.24-58,.12-87,.15-11.51,2.19-22.84,8.65-32.8,6.25-9.65,15.53-13.08,26.59-12.21,11.25.88,18,7.47,21.67,17.77,2.94,8.29,3.41,16.9,3.41,25.57,0,29.65.06,59.31-.08,89,0,3.37.68,4.63,4.31,4.51,8.16-.29,16.34-.36,24.49,0,4,.18,4.54-1.22,4.52-4.79C258.52,247.33,258.61,216.18,258.56,185Z" transform="translate(446.1 -24.02)"/><path class="a" d="M-275.72,44.05a4,4,0,0,1-.46.24A2.25,2.25,0,0,0-275.72,44.05Z" transform="translate(446.1 -24.02)"/><path class="a" d="M-139.73,311.08c1.4-.79.3-2-.54-2.87s-1.64-1.56-2.92-.43c-1.6,1.42-2.63,3.47-4.75,4.31h0c-12.69,13.16-28.07,22.29-44.59,29.69-1.79.8-3.68,1.35-5.52,2h0c-2,.75-4,1.53-6,2.26-11.36,4.16-23.29,5.74-35.11,7.78,1.28.55,2,1.13-.14,1.14-9.19,0-18.38,0-28.16,0,0,0,.33-1.13.76-.86s1.24-.19,1.88-.32h0l-12.19-2a17.88,17.88,0,0,1-7.34-1.62h0l-1.62-.3h0a62.56,62.56,0,0,1-18.24-5.5A1.52,1.52,0,0,1-305,344c-11.05-3.07-20.83-8.76-30.21-15.12-6.79-4.6-13.23-9.74-19.76-14.72-.56-.43-.69-1.43-1-2.16-2.66-1.35-4.09-3.92-6-6a30.39,30.39,0,0,1-7-7.95l-2.66-2.16c-3.24-.12-6.79-5-7.26-9.92-2.12-1.56-6-2-3.92-6.23q-2.44-4.9-4.88-9.79c-1.68-1.76-1.76-4.55-3.78-6.09h-.31c-.37,1.8.34,3.75-.7,5.5-3.39-3-3.39-3.77.34-6.1a.48.48,0,0,1,.33-.21c-3.22-10.26-7.63-20.16-9.55-30.82-.91-5.05-2.31-10-2.38-15.21h0a143.69,143.69,0,0,1,0-38,107.64,107.64,0,0,1,5.65-26.36h0a.45.45,0,0,1,.22-.61,81.39,81.39,0,0,1,9.82-24.07h0l2.21-5.67h0c-.61-6.31,2.7-10.88,6.74-15.13.46-.48,1.4-1,1.35-1.39-1-7.83,5.84-7.37,10.07-9.66l7.69-8.22h0c.65-1.29,0-3.86,2.89-3h0l2-1.19A64.64,64.64,0,0,1-341,72h0c.82-.89,1.49-2,2.86-2.09A102.79,102.79,0,0,1-314,56.11h0a13.5,13.5,0,0,1,5.66-2.3h0c8.31-4.51,17.64-5.89,26.56-8.55,1.61-2.45,4-.82,6-1.21l7.54-.21h0l.07,0h0c7.33-2,14.91-.59,22.32-1.56h0c3.79-.09,7.58-.19,11.38-.26.11,0,.32.18.31.25a4.69,4.69,0,0,1-.24.81h0c7.85,1.6,15.84,2.58,23.54,4.92,1.44.44,2.84,1,4.25,1.57a2.58,2.58,0,0,1,.75.29l2.77.14c-.17-3.52-4.22-.86-5.19-3.33.92-1.59,4.22.28,4.21-2.71h0c-2-.69-5,1.62-6-2-1.56-.19-2,1.66-3.36,1.82a2.77,2.77,0,0,1-2.8-1.69c-.68-1.25.35-2,1.34-2,3.78-.07,1.9-2.46,1.8-4.13h0l-5,0c-3.32,3.15-6.6,5.81-11.4,2.24-1.62-1.2-3.88-1.55-5.88-2.2-1.13-.37-2.88.6-3.25-1.28a2.86,2.86,0,0,1,1-2.12,3.24,3.24,0,0,1,3.7-.27A8.67,8.67,0,0,1-232,34c0-.67,0-1.33,0-2h0c.06-1.45,1-1.94,2.19-2.18v-.14a18.23,18.23,0,0,0-8.05-1.78,1.59,1.59,0,0,0-.07.2,3.31,3.31,0,0,1-4.37,3.73c-5.28-2.2-10.87-2.82-16.37-4-.95-.2-1.19-1-1.33-1.85h0c.08-.38.15-.77.23-1.15h0a5.77,5.77,0,0,0-.47-.74h0l-8.82.07a5,5,0,0,1-5.87,0h0c-3.83-.15-7.66-.49-11.4.7l2.21.32c0,.24,0,.48,0,.71h-10.25c-1.82.09-3.65.08-5.46.29-6.38.75-12.35,3.51-18.81,3.93L-345,39.89h0c-9.24,5-18.72,9.5-27,16.1-.55,5.17-1.83,6.12-5.27,3.9h0a3.55,3.55,0,0,1-.8-.06h0a.63.63,0,0,1-.62.35,19.48,19.48,0,0,1-6.09,5h0l-.05,0c-1.11,1.2-2.21,2.4-3.32,3.59.41,2.71-.95,3.43-3.35,3-8.68,7.27-15.61,16.11-22.41,25.06-.59.77-1.26,1.48-1.9,2.21h0l-2.07,3.9h0c1.05,4.37-1.9,6.23-5,8q-2.89,5.05-5.8,10.12h0q-4,9.51-8.06,19l-5.1,17.27h0c-.25,1.9-.49,3.8-.74,5.7.65,1.71,1.43,3.44-.69,4.73a58.59,58.59,0,0,0-1.94,16.14c4.13-.93,1.1-5,3.07-6.92.57-.54-.92-2.77,1.63-1.8,1.2.46,2.69.14,2.51,2.12a10.46,10.46,0,0,1-.27,2.94c-4.78,11.42-3.26,23.66-4.7,35.51l.19.2c2-.15,3.45.29,4.25,2.69,1.14,3.39-1,4.76-2.91,6.6-1.95-3-1.52-6.16-1.55-9.24a.62.62,0,0,1-.17-.22l-1.76-1.8h0c-.23,4.52.82,8.92,1.44,13.35,1.87,13.23,6.21,25.78,10.62,38.3A211.34,211.34,0,0,0-404,312v0l9.19,9.83h0l6.67,6.24h0l0,0A229.5,229.5,0,0,0-350,354h0l10,4c.28-2,1.94-2.58,3.07-1.56s4.29.95,2.85,3.9h0c4.66,2.88,10.26,3.27,15.1,5.68l2.88,0h0c1.25.61,3.18-1.41,3.94,1,1.48,1.17,3.28.91,5,1.1h0c1.73.05,3.45.09,5.18.16a.57.57,0,0,1,0,.4c0,.14-.21.24-.32.35,2.19,1.34,4.63.91,7,1a4.84,4.84,0,0,0,.6.22c-.2-.07-.4-.13-.6-.22h12.53c-1.19,1.33-2.43.74-3.45,1a.74.74,0,0,0,0,.17h0c.11.22.23.43.34.63h0l12.88.28h0l13.71-.32h0a6.33,6.33,0,0,1,.62-.75h0c2.7-2.4,5.91-.56,8.84-1.07,2-.06,4.19.45,6.07-.86h0c1.61-2.23,3.93-.8,5.91-1.13,6.53-.2,12.44-3.17,18.79-4.19h0l11-3.9a39.49,39.49,0,0,1,9.07-3.88h0l.91-.36a5,5,0,0,1,3.11-1.64.57.57,0,0,1,.69-.25L-180,346c.67-1.19,1.53-2.1,3.05-2a316.6,316.6,0,0,0,26.6-21.32C-146.43,319.12-144.56,313.81-139.73,311.08Zm-241.75-15.73c-1.68,1.56-2.62-.46-3.47-1.42-2.37-2.67,0-3.93,2.89-6.42C-382.84,291-378.61,292.69-381.48,295.35Zm90.14,67.7c2.81-1.3,5.63-1.15,9.36-.67C-285.68,364.77-288.51,364-291.34,363.05Z" transform="translate(446.1 -24.02)"/><polygon class="a" points="42.12 287.97 42.12 287.97 42.12 287.97 42.12 287.97"/><path class="a" d="M-242.42,42.57l-3.36-.24A15.75,15.75,0,0,0-242.42,42.57Z" transform="translate(446.1 -24.02)"/><path d="M607.7,283.27c3.25.1,4.16-.79,4.15-4.12q-.17-78.22,0-156.44c0-3-.57-4.08-3.79-4-7.66.24-15.33.21-23,0-3-.08-3.58,1-3.45,3.73.21,4.2.06,8.42.06,13.4-2.31-1.77-3.88-3-5.42-4.17-25.29-20-59.11-22.31-86.57-5.81-31.74,19.05-47.66,58.7-38.13,94.93,3.71,14.09,9.92,26.82,20.38,37.22,2.67-.7,4.72-.76,3.06,3,20.71,22.32,68.69,35.34,106,2.37,0,5.4.16,11-.07,16.54-.1,2.66.63,3.37,3.28,3.31C592,283.06,599.87,283,607.7,283.27Zm-57.11-34a44.81,44.81,0,0,1-19.29,4c-24.42-.09-45.7-19.23-49.28-44.19-2.83-19.79,1.6-37.47,16.19-51.54,20.74-20,52.71-17.61,70.86,4.82C591.92,190.6,582.62,234.33,550.59,249.26Z" transform="translate(446.1 -24.02)"/><path d="M-9.64,146.08c-1.21-1.25-.92-2.91.63-4.07h0l-.39-.14c-1.56-.29-3.72,2.38-4.53-.64-.43-1.62-4.26-2.65-1.12-5-18.79-16.72-41.11-22.82-65.55-19.92-47.42,5.63-79.55,47.44-73.61,94.35C-147,267.68-85.94,301.22-33,275.42c31.34-15.26,46.43-42.27,46.73-76.88A76.7,76.7,0,0,0-3.93,148C-6.57,149.64-8.19,147.58-9.64,146.08ZM-70.17,252.72c-28.91-.23-52.56-23.67-52.66-52.2A53,53,0,0,1-70,147C-41.17,147-18,170.55-17.94,200S-41.38,253-70.17,252.72Z" transform="translate(446.1 -24.02)"/><path d="M-250.67,147.21c22.16-3.63,40.14,4.68,53.39,22.64,2.52,3.4,3.82,3.51,7.13,1.3,7-4.68,14.38-8.87,21.69-13.11,2.28-1.33,3.07-2.33,1.31-4.89-21.58-31.28-51-46.6-89.07-41.92-43.58,5.34-76.66,44-77.11,90.11a92.34,92.34,0,0,0,.58,10.31c6.62,44.21,42.62,76.49,87.1,77.51,32.68.74,58.29-13.07,77.21-39.61,1.91-2.67,2.07-4.1-1.22-6-7.48-4.25-14.7-9-21.94-13.64-2.25-1.46-3.26-1.12-4.9,1.12-13.46,18.38-31.53,26.3-54.19,23-33.19-4.89-54.25-39.93-42.67-71.52C-286.09,162.64-271.37,150.6-250.67,147.21Z" transform="translate(446.1 -24.02)"/><path d="M654.32,269.18c22.94,17.79,66.52,19.6,92.39,5.27,30.57-16.92,30-60.42.93-76.52-10.38-5.74-21.4-9.47-32.59-13-10.54-3.34-21.56-5.85-30.25-13.27-9.79-8.36-7.66-22.38,4-27.75,7-3.23,14.48-3.57,22-2.41,10.33,1.59,16.85,7.34,18.23,18,.29,2.2,1.28,2.66,3.26,2.65,9.32-.07,18.65-.11,28,0,2.46,0,3.07-.62,2.88-3.09-.84-10.89-5.93-19.59-13.69-26.84-20.32-19-59-22.13-83.91-7.34-26.92,16-33.14,52.9-2.25,72.72,13.55,8.69,28.66,13.47,43.76,18.4,6.46,2.11,12.8,4.51,18.27,8.71s8.18,9.7,6.85,16.95c-1.29,7.06-5.64,11-12,13.2a49,49,0,0,1-16.22,2.17c-18.42-.11-27.53-8-29.79-26.26-.27-2.14-.82-2.8-2.94-2.75-5.33.14-10.66,0-16,0-5.17,0-10.34.12-15.49-.06-2.59-.09-3.51.68-3.44,3.35C636.73,246.7,642.08,259.7,654.32,269.18Z" transform="translate(446.1 -24.02)"/><path d="M438.53,245.35c1.38-2.14,1.09-2.9-.89-4-6.88-4-13.73-8.06-20.46-12.31-2.78-1.75-4.22-2-6.49,1.2-10.12,14.17-24.27,21.71-41.59,21.63-19.8-.11-35.24-9.09-44.7-26.65s-8.9-35.53,1.78-52.52c19.14-30.44,64.91-31,85.2-1.17,2.21,3.25,3.7,3.38,6.73,1.42,6.4-4.13,12.92-8.12,19.61-11.76,2.95-1.6,2.78-2.94,1.2-5.31-17.05-25.59-40.76-39.24-70.38-40.25-5.88.51-10.51.5-15.15,1.26-46.72,7.72-78.65,53.78-69.15,99.94,6.88,33.42,34,59.72,68,66C385.24,288.93,420.31,273.63,438.53,245.35Z" transform="translate(446.1 -24.02)"/><path d="M878.18,283.19c-2.71-2-4.4-3.2-6.1-4.41-14.65-10.4-23.12-24.21-24.26-42.45-1.48-23.63-.27-47.27-.79-70.91-.06-2.67.81-3.39,3.41-3.34,8.66.14,17.32-.05,26,.12,2.73.06,3.73-.55,3.66-3.49-.2-8.83-.18-17.66,0-26.48,0-2.8-.72-3.67-3.56-3.6-7.82.18-15.67-.24-23.47.17-4.64.23-6.36-.74-6.1-5.82.48-9.3,0-18.65.21-28,.06-3-.69-4-3.85-3.89q-13.47.34-27,0c-3.43-.09-4.57.73-4.47,4.33.26,9.82-.05,19.66.17,29.48.06,3.14-.89,3.92-3.93,3.84-8.48-.21-17,0-25.47-.14-2.73-.05-3.75.53-3.68,3.5.21,8.82.19,17.65,0,26.47-.05,2.74.58,3.69,3.5,3.62,8.66-.2,17.32,0,26-.14,2.89-.06,3.6.88,3.56,3.66-.15,10.65-.21,21.31,0,32,.3,17.63-1,35.3,1,52.9,1.45,12.66,6.65,23.16,17.5,30.43a10.91,10.91,0,0,0,6.4,2.21C850.19,283.13,863.51,283.19,878.18,283.19Z" transform="translate(446.1 -24.02)"/><path class="b" d="M908.18,229c-15.23,0-27.57,11.93-27.66,26.78-.09,14.39,12.3,26.59,27.22,26.82A27.06,27.06,0,0,0,935,256,26.77,26.77,0,0,0,908.18,229Zm-.37,49.49c-12.63-.21-21.86-9.92-21.76-22.92s9.57-22.64,22.12-22.55c12.33.08,21.89,10.13,21.84,22.94S920.12,278.7,907.81,278.5Z" transform="translate(446.1 -24.02)"/><path class="c" d="M-137.93,89.13c1-1.22-.39-2-1-2.86-1-1.44-2.18-2.79-3.27-4.18l-.91-.93c-9.16-8.24-17.29-17.67-28-24.17-2.81,1.68-6.39,1.11-9.11,3.08h0l4.12,3.16h0c4.9,2.14,9.57,4.61,13.19,8.7,2.16.62,3.6,2.19,5,3.82,4.17,2,6.63,6.1,10.57,8.37h0c2.27-.1,3.32,1,3.09,3.24,0,.24,0,.48,0,.73l.09.06a10.59,10.59,0,0,0,2.2,1.8A3.11,3.11,0,0,0-137.93,89.13Z" transform="translate(446.1 -24.02)"/><path class="d" d="M-443,216v0c0,3.08-.4,6.23,1.55,9.24,1.9-1.84,4.05-3.21,2.91-6.6-.8-2.4-2.22-2.84-4.25-2.69H-443a1.49,1.49,0,0,0,0-.21c1.44-11.85-.08-24.09,4.7-35.51a10.46,10.46,0,0,0,.27-2.94c.18-2-1.31-1.66-2.51-2.12-2.55-1-1.06,1.26-1.63,1.8-2,1.88,1.06,6-3.07,6.92-1.48,10-.88,20.06.29,30.08h0l1.76,1.8Z" transform="translate(446.1 -24.02)"/><path class="e" d="M-266.7,354.14c-.43-.27-.76.86-.76.86,9.78,0,19,0,28.16,0,2.1,0,1.42-.59.14-1.14l-25.66,0h0C-265.46,354-266.3,354.39-266.7,354.14Z" transform="translate(446.1 -24.02)"/><path class="f" d="M-13.93,141.23c.81,3,3,.35,4.53.64A1.07,1.07,0,0,1-9,142a20.65,20.65,0,0,0-6-5.81C-18.19,138.58-14.36,139.61-13.93,141.23Z" transform="translate(446.1 -24.02)"/><path class="f" d="M-9.64,146.08c1.45,1.5,3.07,3.56,5.71,1.89A20.48,20.48,0,0,0-9,142C-10.56,143.17-10.85,144.83-9.64,146.08Z" transform="translate(446.1 -24.02)"/><path class="g" d="M-336.95,356.43c-1.13-1-2.79-.48-3.07,1.56a10.9,10.9,0,0,0,5.92,2.34h0C-332.66,357.38-335.85,357.43-336.95,356.43Z" transform="translate(446.1 -24.02)"/><path class="h" d="M-422.89,111c3.12-1.75,6.07-3.61,5-8h0c-1.89,1.24-1.8,4-4,5Z" transform="translate(446.1 -24.02)"/><path class="i" d="M-377.26,59.89h0c3.44,2.22,4.72,1.27,5.27-3.9l-1,0Z" transform="translate(446.1 -24.02)"/><path class="j" d="M-382.89,279.74c-2.1,4.22,1.8,4.67,3.92,6.23.47,4.94,4,9.8,7.26,9.92-.16-.6-.32-1.2-.49-1.8a9.19,9.19,0,0,1-2.88-3.94L-377,288l-2-2-.24-1.63h0Z" transform="translate(446.1 -24.02)"/><path class="k" d="M-284.16,25.91c0-.23,0-.47,0-.71l-2.21-.32c-2.73,0-5.52-.35-8.07,1h10.24Z" transform="translate(446.1 -24.02)"/><path class="l" d="M471.93,258a7,7,0,0,0,3.06,3C476.65,257.27,474.6,257.33,471.93,258Z" transform="translate(446.1 -24.02)"/><path class="m" d="M-269.06,24.18h-5.87A5,5,0,0,0-269.06,24.18Z" transform="translate(446.1 -24.02)"/><path class="n" d="M-360,87.88h0c.31,0,.63-.07.94-.09l2-2.88h0C-360,84-359.39,86.59-360,87.88Z" transform="translate(446.1 -24.02)"/><path class="o" d="M-442.59,163.07l-.69,4.73h0C-441.16,166.51-441.94,164.78-442.59,163.07Z" transform="translate(446.1 -24.02)"/><polygon class="p" points="270.28 29.75 270.28 29.75 270.28 29.75 270.28 29.75"/><path class="p" d="M-180.16,60.07h0c2.72-2,6.3-1.4,9.11-3.08h0c0-.26-.09-.52-.13-.79l-1.56-.3c-1.58.11-3.24.31-3.08-2.1-1.94-.13-5.26,1.79-4.18-2.83h0a2.15,2.15,0,0,0-1.94-1.11c-.18,1.28-.73,2.58-2.15,1.75s.07-2,.34-3h0c-3.86-3-8.59-4.45-12.83-6.77-1.95.28-3.72.21-4.37-2.15h0a28.66,28.66,0,0,0-9.59-3.8h0L-213,36h0c.1,1.67,2,4.06-1.8,4.13-1,0-2,.74-1.34,2a2.77,2.77,0,0,0,2.8,1.69c1.34-.16,1.8-2,3.36-1.82,1.78,0,3.58-.07,5.35.09,1.29.12,1.65.86.63,1.91h0c0,3-3.29,1.12-4.21,2.71,1,2.47,5-.19,5.19,3.33Z" transform="translate(446.1 -24.02)"/><path class="q" d="M-367.74,96.1c-4.23,2.29-11.08,1.83-10.07,9.66.05.4-.89.91-1.35,1.39-4,4.25-7.35,8.82-6.74,15.13h0A287.26,287.26,0,0,1-367.74,96.1Z" transform="translate(446.1 -24.02)"/><path class="p" d="M-222,32c-.8.17-2.06.14-2.25.57-1.41,3.19-1.31,3.16-4.84,1.75A10.5,10.5,0,0,0-232,34h0a8.67,8.67,0,0,0-1.82-1.63,3.24,3.24,0,0,0-3.7.27,2.86,2.86,0,0,0-1,2.12c.37,1.88,2.12.91,3.25,1.28,2,.65,4.26,1,5.88,2.2,4.8,3.57,8.08.91,11.4-2.24C-218.14,33.5-222.41,35-222,32Z" transform="translate(446.1 -24.02)"/><path class="p" d="M-238,27.9a32.5,32.5,0,0,0-11.64-2L-260,26h0c.14.84.38,1.65,1.33,1.85,5.5,1.16,11.09,1.78,16.37,4a3.31,3.31,0,0,0,4.37-3.73c0-.06,0-.13,0-.2Z" transform="translate(446.1 -24.02)"/><path class="j" d="M-382.06,287.51c-2.86,2.49-5.26,3.75-2.89,6.42.85,1,1.79,3,3.47,1.42C-378.61,292.69-382.84,291-382.06,287.51Z" transform="translate(446.1 -24.02)"/><path class="r" d="M-210.54,35.88h0a29.46,29.46,0,0,0-11.42-4,11.87,11.87,0,0,0-6-1.88c.21,3.8-2.77,1.08-4,1.95h0c0,.67,0,1.33,0,2h0a10.5,10.5,0,0,1,2.94.28c3.53,1.41,3.43,1.44,4.84-1.75.19-.43,1.45-.4,2.25-.57-.45,3.07,3.82,1.54,4,4l5,0h0Z" transform="translate(446.1 -24.02)"/><path class="s" d="M-291.34,363.05c2.83.93,5.66,1.72,9.36-.67C-285.71,361.9-288.53,361.75-291.34,363.05Z" transform="translate(446.1 -24.02)"/><path class="t" d="M-391.83,263.64a.44.44,0,0,0-.06-.6l-.33.21c-3.73,2.33-3.73,3.15-.34,6.1,1-1.75.33-3.7.7-5.5l0-.21Z" transform="translate(446.1 -24.02)"/><path class="u" d="M-204.63,42.1c-1.77-.16-3.57-.07-5.35-.09,1,3.62,4,1.31,6,2h0C-203,43-203.34,42.22-204.63,42.1Z" transform="translate(446.1 -24.02)"/><path class="v" d="M-286.33,371.12l.11,0c1-.27,2.26.32,3.45-1H-295.3c.2.09.4.15.6.22A21.69,21.69,0,0,0-286.33,371.12Z" transform="translate(446.1 -24.02)"/><path class="w" d="M-245.78,42.33l3.36.24,8.09.56h0a4.69,4.69,0,0,0,.24-.81c0-.07-.2-.26-.31-.25-3.8.07-7.59.17-11.38.26Z" transform="translate(446.1 -24.02)"/><path class="x" d="M-249.62,25.92c-3.28-1.3-6.73-1.08-10.15-1.07h0c-.08.38-.15.77-.23,1.15h0Z" transform="translate(446.1 -24.02)"/><path class="y" d="M-249.85,370c-2.93.51-6.14-1.33-8.84,1.07h0C-255.72,371-252.66,371.55-249.85,370Z" transform="translate(446.1 -24.02)"/><path class="p" d="M-228,30.05l-1.58-.27h0l-.23,0c-1.18.24-2.13.73-2.19,2.18h0C-230.77,31.13-227.79,33.85-228,30.05Z" transform="translate(446.1 -24.02)"/><path class="z" d="M-237.87,368.05c-2,.33-4.3-1.1-5.91,1.13h0C-241.75,369.12-239.67,369.33-237.87,368.05Z" transform="translate(446.1 -24.02)"/><path class="aa" d="M-302.3,369.08c.11-.11.27-.21.32-.35a.57.57,0,0,0,0-.4c-1.73-.07-3.45-.11-5.18-.16h0C-305.73,369.35-304,369-302.3,369.08Z" transform="translate(446.1 -24.02)"/><path class="ab" d="M-391.49,71.82c2.4.44,3.76-.28,3.35-3h0Z" transform="translate(446.1 -24.02)"/><path class="ac" d="M-276.18,44.29a4,4,0,0,0,.46-.24c-2,.39-4.43-1.24-6,1.21h0C-279.87,45.1-277.93,45.15-276.18,44.29Z" transform="translate(446.1 -24.02)"/><path class="ad" d="M-312.18,367.07c-.76-2.45-2.69-.43-3.94-1h0C-315,367.08-313.58,367.06-312.18,367.07Z" transform="translate(446.1 -24.02)"/><path class="ae" d="M-147.28,84.12h0l3.09,3.24C-144,85.08-145,84-147.28,84.12Z" transform="translate(446.1 -24.02)"/><path class="af" d="M-175.82,53.8c-.16,2.41,1.5,2.21,3.08,2.1a5.34,5.34,0,0,0-3.08-2.14h0v0A8.82,8.82,0,0,0-180,51h0C-181.08,55.59-177.76,53.67-175.82,53.8Z" transform="translate(446.1 -24.02)"/><path class="af" d="M-184.09,51.61c1.42.83,2-.47,2.15-1.75l-1.81-1.25h0C-184,49.62-185.51,50.78-184.09,51.61Z" transform="translate(446.1 -24.02)"/><path class="ag" d="M-196.58,41.84a9.28,9.28,0,0,0-4.37-2.15h0C-200.3,42.05-198.53,42.12-196.58,41.84Z" transform="translate(446.1 -24.02)"/><path class="b" d="M921,247.91c-.32-4.92-3.36-7.71-9-8-3.82-.17-7.67.08-11.49-.18-3-.21-3.53,1.07-3.48,3.74.15,8.33.11,16.66,0,25,0,2.31.2,3.62,3.13,3.6s2.81-1.42,2.74-3.42a58.21,58.21,0,0,1,.06-7c.1-1.24-1.1-3.17,1.25-3.6a3.78,3.78,0,0,1,4.22,1.89c1.94,3.09,4.23,6,6,9.13,1.54,2.73,3.33,3.72,6.38,2.24L913,257.53C919.61,256.08,921.42,253.83,921,247.91Zm-14.22,6.2c-4.91.65-3.56-2.56-3.93-5.15-.63-4.37,1.5-5.12,3.63-4.65,4.8.45,9.28-.32,9,4.87C915.22,254.6,910.56,253.61,906.82,254.11Z" transform="translate(446.1 -24.02)"/><path class="ah" d="M447,373.44c.09-2.93-.8-3.68-3.67-3.63-10.29.17-20.6,0-30.9.1-2.29,0-3.3-.49-3.15-3.05.19-3.54-.05-7.1-.1-10.65h0c-3.84,1.94-5.11,6-7.39,9.17-9.15,12.65-18,25.5-26.94,38.3-.65.93-1.13,1.91-2.44,1.92-.06,1.34-.16,2.68-.16,4q0,48.13,0,96.27c0,3.42.1,6.85.15,10.27,3.84-1.93,5.12-6,7.4-9.17,9.14-12.65,18-25.5,26.93-38.3.65-.93,1.13-1.91,2.45-1.91.05-1.35.15-2.69.15-4,0-20.23.06-40.47,0-60.7,0-2.71.61-3.59,3.42-3.54,10.06.19,20.12-.07,30.17.21,3.53.1,4.24-1.08,4.13-4.31C446.78,387.42,446.79,380.42,447,373.44Z" transform="translate(446.1 -24.02)"/><path class="ai" d="M1056.18,370.22c-1.15,0-1.55.65-2.16,1.53q-31.69,45.6-63.6,91c-1.95,2.75-3,6.59-6.95,7.67a21.36,21.36,0,0,0-3.07,5.65c-4,7.11-9.07,13.51-13.65,20.24-3.54,5.21-7.12,10.4-10.68,15.6h0c2,3.66.65,6.7-1.21,10.09-12.7,23-25.2,46.13-37.7,69.25-1.08,2-3.69,4.49-2.6,6s4.5.54,6.9.4c-2.28-1.2-1.09-2.46-.13-3.82,7.15-10.22,14.25-20.46,21.39-30.68q12.62-18,25.26-36,22.93-32.73,45.88-65.47c9.32-13.32,18.56-26.69,27.87-40q14.8-21.19,29.71-42.31c.53-.76,1-2.53,2.64-1.29a28.65,28.65,0,0,0,3.82-6.83c-.49-.32-1-.92-1.48-.92C1069.68,370.24,1062.93,370.26,1056.18,370.22Z" transform="translate(446.1 -24.02)"/><path class="ai" d="M1075.72,369.89h0c-2.58,0-5.15,0-7.73,0q3.84,0,7.67,0Z" transform="translate(446.1 -24.02)"/><path class="ai" d="M1063.78,369.87c-2.42,0-4.84,0-7.25-.06a5.17,5.17,0,0,0-.82.06Z" transform="translate(446.1 -24.02)"/><path class="aj" d="M478.61,461.24c9.13-12.64,18-25.47,26.91-38.25.64-.93,1.12-1.91,2.44-1.91q.07-24.49.17-49c0-1.46-.29-2.28-2-2.24-5.27.15-10.54.17-15.81.25-.75,4.07-4,6.64-6.08,9.89-3.48,5.45-7.37,10.63-11.1,15.92-.48.69-.82,1.55-1.86,1.58v73C475,468.46,476.33,464.41,478.61,461.24Z" transform="translate(446.1 -24.02)"/><path class="ak" d="M759.79,408.29q-16.2,23.26-32.46,46.49a4.81,4.81,0,0,1-1.11.93v63.4c4.09-1.3,5.19-5.36,7.32-8.32,9.17-12.67,18.05-25.57,27-38.41.65-.92,1.13-1.92,2.45-1.92h0V405.6C761.26,405.7,760.64,407.08,759.79,408.29Z" transform="translate(446.1 -24.02)"/><path class="al" d="M1071.44,379.36q-14.91,21.11-29.71,42.31c-9.31,13.33-18.55,26.7-27.87,40Q990.94,494.45,968,527.16q-12.63,18-25.26,36c-7.14,10.22-14.24,20.46-21.39,30.68-1,1.36-2.15,2.62.13,3.82q15.12.07,30.25.13c.41,0,.82-.38,1.23-.58l-13.73-.08c3.38-6.52,8.11-12.14,12.2-18.17,8.15-12,16.67-23.77,25-35.66q11.24-16,22.37-32.14c.59-.85,1.09-1.62,2.22-1.66,4.5-6.07,7.44-13,11.22-19.53,6.14-10.52,11.81-21.3,17.68-32a4.78,4.78,0,0,0,.68-.82q21.76-39.56,43.5-79.13C1072.41,376.83,1072,378.6,1071.44,379.36Z" transform="translate(446.1 -24.02)"/><path class="am" d="M804.89,398.56c.79.38,2-.1,2.92,0a19.14,19.14,0,0,0,3.3,0C809,398.51,807,398.52,804.89,398.56Z" transform="translate(446.1 -24.02)"/><path class="am" d="M825.49,422.74c12-17,23.76-34.1,35.49-51.26.95-1.38,1.95-1.24,3.1-1.24,6.88,0,13.75,0,20.63,0h0c-9.13-.83-18.28-.26-27.42-.3-2.75,0-3.71-.57-3.67-3.56.14-12.95,0-25.91,0-38.86-5.39,7.52-10.83,15-16.15,22.57q-15.58,22.13-31.06,44.35a7,7,0,0,0-1.49,3.46c3.9,1.29,8.17-.87,12,1.23h0l.06,34.51C820.94,430.93,822.83,426.48,825.49,422.74Z" transform="translate(446.1 -24.02)"/><path class="an" d="M614.22,395.55q9.56-13.59,19.13-27.17c.91-1.28,2.34-1.11,3.68-1.13a58.34,58.34,0,0,0-28.13,1.95c-3,6.89-8.07,12.48-12.21,18.63-8.24,12.26-16.9,24.23-25.37,36.33-7,10-14,20-21,30a17.73,17.73,0,0,1-2.36,2.3h0v32.21l.24.13c2.77-1.11,3.6-4,5.12-6.12,9.28-12.91,18.31-26,27.37-39.06a9.7,9.7,0,0,1,3.15-3.21v61.76h0q0,18,.07,36h0c1.29-1.07.58-2.51.58-3.74q.07-45.64,0-91.29c0-7.8-.12-15.67,2.55-23.11,2-5.73,4.55-11.22,9.68-15.25,5.64-4.45,12-6.33,18.9-7.25C614.49,397.36,612.76,397.63,614.22,395.55Z" transform="translate(446.1 -24.02)"/><path class="ao" d="M580.85,504.57c.79-1.13,1.43-2.31,3-2.4V440.41a9.7,9.7,0,0,0-3.15,3.21c-9.06,13.06-18.09,26.15-27.37,39.06-1.52,2.11-2.35,5-5.12,6.12l-.24.1h0q-.08,24.55-.16,49.12c3.42.71,6.87.37,10.31.21,1.93-5.55,6.14-9.65,9.24-14.46C571.59,517.2,576.36,511,580.85,504.57Z" transform="translate(446.1 -24.02)"/><path class="ap" d="M244.8,474.25q25.57-36.48,51.12-73C303,391,310,380.73,317,370.46l-.07-.08H305.29q-15,21.51-30.05,43-25.67,36.66-51.33,73.32-18,25.71-35.8,51.51h12.53c5.51-9.84,12.64-18.59,18.92-27.92C227.75,498.14,236.38,486.27,244.8,474.25Z" transform="translate(446.1 -24.02)"/><path class="aq" d="M857,398.5c9.18.21,18.36.17,27.54.08,3.64,0,7.3.54,10.91-.35H874.79c3.91-5.55,7.33-10.5,10.84-15.37.81-1.11,1-3.37,3.36-2.34-1.27-3.5-2.1-7.19-4.28-10.32h0c-6.88,0-13.75,0-20.63,0-1.15,0-2.15-.14-3.1,1.24-11.73,17.16-23.49,34.3-35.49,51.26-2.66,3.74-4.55,8.19-8.61,10.86v33.91c4.91-5,8.28-11.09,12.3-16.71,7.66-10.69,15-21.58,22.57-32.37a12.66,12.66,0,0,1,1.82-1.76h0c0-4.89.26-9.79.06-14.68C853.52,399.29,854.19,398.44,857,398.5Z" transform="translate(446.1 -24.02)"/><path class="ar" d="M297.56,369.83h4.26A27.54,27.54,0,0,0,297.56,369.83Z" transform="translate(446.1 -24.02)"/><polygon class="ar" points="739.79 346.25 739.79 346.25 739.79 346.25 739.79 346.25"/><path class="ar" d="M275.24,413.4q15-21.5,30.05-43h0l-11.59-.12c-.69.83-1.45,1.62-2.06,2.51q-15.7,22.79-31.4,45.56c-.7,1-1,2.61-2.7,2.68-2.87,1.13-3.75,4-5.35,6.21-4.55,6.19-8.85,12.57-13.2,18.9-.79,1.16-1.58,2.19-3.11,2.27,1.66,2,1.19,3.6-.29,5.68q-23.69,33.15-47.15,66.46l-12.5,17.69h12.18q17.89-25.76,35.8-51.51Q249.53,450,275.24,413.4Z" transform="translate(446.1 -24.02)"/><path class="ap" d="M762.78,370.22c-5.48,0-11,0-16.46,0a4.22,4.22,0,0,0-4.26,2.4c-3.9,6.28-8.32,12.24-12.64,18.25-.74,1-1.65,2.18-3.2,2.21h0v62.64a4.81,4.81,0,0,0,1.11-.93q16.26-23.22,32.46-46.49c.85-1.21,1.47-2.59,3.2-2.69.06-5.24.22-10.48.14-15.71C763,383.33,763.61,376.77,762.78,370.22Z" transform="translate(446.1 -24.02)"/><path class="ap" d="M753.64,369.81c3.05.05,6.1.18,9.14.41A62.09,62.09,0,0,0,753.64,369.81Z" transform="translate(446.1 -24.02)"/><path class="as" d="M804.87,397.86a7,7,0,0,1,1.49-3.46q15.52-22.18,31.06-44.35c5.32-7.57,10.76-15.05,16.15-22.57V308.89c-12,6.05-23.56,11.93-35.18,17.67-1.78.88-1.67,2.16-1.67,3.63,0,11.67-.14,23.34.09,35,.06,3.56-.59,4.95-4.54,4.73-6.61-.37-13.26,0-19.89-.1-2.08,0-2.76.62-2.73,2.72.11,7,0,14,.06,21,0,5.67-.93,4.9,5.08,5.07,3.37.1,6.74,0,10.1-.07,2.08,0,4.15-.05,6.22,0a52.17,52.17,0,0,1,5.71.5h0C813,397,808.77,399.15,804.87,397.86Z" transform="translate(446.1 -24.02)"/><path class="at" d="M476.83,517.08c9.78-13.67,19.3-27.53,28.87-41.34a6.37,6.37,0,0,1,2.26-2.32V421.08c-1.32,0-1.8,1-2.44,1.91-8.93,12.78-17.78,25.61-26.91,38.25-2.28,3.17-3.57,7.22-7.34,9.22v53.07C474.37,522.48,475.21,519.33,476.83,517.08Z" transform="translate(446.1 -24.02)"/><path class="ap" d="M651.36,533.43v-7C651.32,528.79,651.28,531.11,651.36,533.43Z" transform="translate(446.1 -24.02)"/><path class="ap" d="M651.37,518.48v-7.22C651.35,513.67,651.33,516.08,651.37,518.48Z" transform="translate(446.1 -24.02)"/><path class="ap" d="M687.08,460.59c-1.31-.36-1.81,1.31-2.49,2.3q-15,21.66-30.12,43.29a20.9,20.9,0,0,1-2.59,2.56L651.74,538c12,.7,24.07.46,36.11.13q0-37.15,0-74.3C687.81,462.72,688.54,461,687.08,460.59Z" transform="translate(446.1 -24.02)"/><path class="au" d="M581.28,369.79a7.74,7.74,0,0,0-1.37,0h.41C580.64,369.84,581,369.82,581.28,369.79Z" transform="translate(446.1 -24.02)"/><path class="au" d="M574.66,375.12c-7.53,11.4-15.21,22.74-23.5,33.59a16.12,16.12,0,0,0-3.39,11c.16,12.25.15,24.5.2,36.76h0a17.73,17.73,0,0,0,2.36-2.3c7-10,14-20,21-30,8.47-12.1,17.13-24.07,25.37-36.33,4.14-6.15,9.18-11.74,12.21-18.63A48.6,48.6,0,0,0,585,383.94c-.75-1.62-.26-3.08-.42-4.48-.34-3.07.73-6.24-.63-9.24C579.46,369.31,577.05,371.49,574.66,375.12Z" transform="translate(446.1 -24.02)"/><path class="au" d="M547.41,455.49v-1.33A4.24,4.24,0,0,0,547.41,455.49Z" transform="translate(446.1 -24.02)"/><path class="av" d="M651.76,468.33c0-3.52,3.1-5.41,4.81-7.95,8.69-12.81,17.71-25.41,26.57-38.11a10.08,10.08,0,0,1,3.24-3.41c-2.19-14.69-7.21-28-18.55-38.28-3.92,3.87-6.54,8.7-9.7,13.13-4.23,5.93-8.27,12-12.39,18,4.63,10,5.67,20.67,5.65,31.53q0,34,0,68v7.22c0,2.66,0,5.32,0,8v7.63c0,1.31-.43,2.69.38,3.93h0l.14-29.28C651.83,495.27,651.75,481.8,651.76,468.33Z" transform="translate(446.1 -24.02)"/><path class="aw" d="M319.42,369.85h4.11A26.86,26.86,0,0,0,319.42,369.85Z" transform="translate(446.1 -24.02)"/><path class="aw" d="M248.58,483.65q22.95-32.75,45.9-65.47Q310.07,396,325.59,373.7c.61-.87,1.61-2,1.12-3s-2-.47-3-.49c-2.2,0-4.41.08-6.62.13h0l-.05.07c-7,10.27-14,20.58-21.11,30.78q-25.5,36.56-51.12,73c-8.42,12-17.05,23.89-25.24,36.06-6.28,9.33-13.41,18.08-18.92,27.92H211c3.43-6.65,8.27-12.35,12.43-18.5C231.61,507.58,240.16,495.66,248.58,483.65Z" transform="translate(446.1 -24.02)"/><path class="ax" d="M406.74,468.69c-8.93,12.8-17.79,25.65-26.93,38.3-2.28,3.16-3.56,7.24-7.4,9.17-.05,6.62-.06,13.25-.18,19.87,0,1.65.33,2.41,2.21,2.4,10.92-.08,21.85-.06,32.77,0,1.53,0,2.17-.4,2.17-2.06q-.15-34.79-.19-69.58C407.87,466.78,407.39,467.76,406.74,468.69Z" transform="translate(446.1 -24.02)"/><path class="aw" d="M686.38,418.86a10.08,10.08,0,0,0-3.24,3.41c-8.86,12.7-17.88,25.3-26.57,38.11-1.71,2.54-4.81,4.43-4.81,7.95,0,13.47.07,26.94.12,40.41a20.9,20.9,0,0,0,2.59-2.56q15.1-21.62,30.12-43.29c.68-1,1.18-2.66,2.49-2.3s.73,2.13.73,3.26q.08,37.14,0,74.3h0c1.16-.66.61-1.77.59-2.64C687.38,496.64,690.83,457.68,686.38,418.86Z" transform="translate(446.1 -24.02)"/><path class="ay" d="M760.54,472.38c-8.95,12.84-17.83,25.74-27,38.41-2.13,3-3.23,7-7.32,8.32-.05,5.64-.06,11.29-.18,16.93,0,1.65.32,2.4,2.2,2.39,10.92-.08,21.85-.06,32.78,0,1.52,0,2.17-.37,2.16-2q-.13-33-.19-65.92h0C761.67,470.46,761.19,471.46,760.54,472.38Z" transform="translate(446.1 -24.02)"/><path class="ah" d="M337.66,536.06c-1.71-3.95-4.58-7.15-7-10.61-6.72-9.44-12.95-19.23-20.2-28.29-6.33,7.73-11.51,16.3-17.34,24.4-1,1.4-1.93,2.81-3.55,3.57h0c8.94,13.17,18,26.22,27.53,39q9.09-13.07,18.16-26.14C335.87,537.07,336.34,536.07,337.66,536.06Z" transform="translate(446.1 -24.02)"/><path class="av" d="M268.59,474.5c4.55-6,8.39-12.48,13.23-18.27h0c-3.5-3.7-2.3-6.7.49-10.55,17.24-23.86,34.17-47.93,51.18-71.95.75-1.06,1.87-2,1.94-3.42-1-.76-2.16-.42-3.21-.42l-8.69,0h-4.11q-8.81,0-17.6,0h-5c-1.05,0-2.21-.41-3.17.44h0l11.59.12h11.8c2.21-.05,4.42-.17,6.62-.13,1,0,2.47-.59,3,.49s-.51,2.09-1.12,3Q310.08,396,294.48,418.18q-22.94,32.74-45.9,65.47c-8.42,12-17,23.93-25.2,36.08-4.16,6.15-9,11.85-12.43,18.5,5.07,1.09,8.33-.54,11.37-5.15,10.89-16.57,22.43-32.71,33.54-49.13,2-3,3.07-2.77,4.5.13.09.2.35.31.54.46C264.43,481.94,266,477.85,268.59,474.5Z" transform="translate(446.1 -24.02)"/><path class="au" d="M505.7,475.74c-9.57,13.81-19.09,27.67-28.87,41.34-1.62,2.25-2.46,5.4-5.56,6.45,0,4.17,0,8.34-.15,12.5,0,1.62.27,2.41,2.17,2.4,10.91-.08,21.83-.06,32.74,0,1.6,0,2.12-.5,2.12-2.11q-.15-31.44-.19-62.89A6.37,6.37,0,0,0,505.7,475.74Z" transform="translate(446.1 -24.02)"/><path class="az" d="M366.58,370.25c1.14,0,2.66-.64,3.3.78s-.77,2.24-1.41,3.17c-5.5,8-11.11,15.93-16.68,23.88,13.66.81,13.52.71,21.11-10.22q27.41-39.45,55.11-78.69c1.55-2.2.86-2.89-1.06-3.66-4.2-.18-8.39-1.11-12.6-.18,1.9-.14,2.17.65,1.15,2.1l-26.33,37.5c-4.78,6.8-9.57,13.59-14.31,20.41a6.9,6.9,0,0,1-2.45,2.66c-.17,2.19-1.81,1.76-3.21,1.83-4.78.24-9.59-.53-14.35.42C358.76,370.24,362.67,370.18,366.58,370.25Z" transform="translate(446.1 -24.02)"/><path class="az" d="M364.16,398.62H363A6.41,6.41,0,0,0,364.16,398.62Z" transform="translate(446.1 -24.02)"/><path class="ao" d="M667.83,380.58c-8.61-8.25-19-12.34-30.8-13.33-1.34,0-2.77-.15-3.68,1.13q-9.58,13.58-19.13,27.17c-1.46,2.08.27,1.81,1.44,1.95,12.25,0,23.3,2.6,30.08,14.21,4.12-6,8.16-12.07,12.39-18C661.29,389.28,663.91,384.45,667.83,380.58Z" transform="translate(446.1 -24.02)"/><path class="ba" d="M844.67,444.37c-9.37,13-18.54,26.22-27.78,39.35-.06,2.79-.13,5.59-.16,8.38-.1,7.2.37,14.32,3.11,21.11,4.15-3.73,6.64-8.7,9.83-13.14,7.35-10.21,14.5-20.56,21.69-30.89.59-.84,1.08-1.62,2.21-1.67V432.88C849.53,435.87,847.49,440.44,844.67,444.37Z" transform="translate(446.1 -24.02)"/><path class="bb" d="M374.86,403.68c8.93-12.8,17.79-25.65,26.94-38.3,2.28-3.16,3.55-7.23,7.39-9.17h0c.05-1.7.07-3.39.17-5.09.46-8.35,3.79-12.31,11.85-14.14a18.63,18.63,0,0,0,2-.71c2.76-5.91,7.16-10.74,10.69-16.14,1.94-3,4.18-5.73,6.11-8.7.66-1,1.81-2.15.92-3.67-4.64-.89-9.22-2.2-14-2.25,1.92.77,2.61,1.46,1.06,3.66q-27.69,39.24-55.11,78.69c-7.59,10.93-7.45,11-21.11,10.22-5.43-.12-10.9.93-16.28-.6h0a1,1,0,0,0-.28.23c-.07.08-.14.24-.1.3.76,1.19,2,.58,2.93.58,8.32.05,16.63,0,24.94,0h1.8c7.14,0,7.14,0,7.62,7C373.73,405.59,374.21,404.61,374.86,403.68Z" transform="translate(446.1 -24.02)"/><path class="bc" d="M356.29,562.26h0c-5.84-9-12.08-17.71-18.63-26.2-1.32,0-1.79,1-2.43,1.94q-9,13.1-18.16,26.14c6.09,9.29,12.53,18.34,19.17,27.24l19.08-27.59C355.66,563.29,356,562.77,356.29,562.26Z" transform="translate(446.1 -24.02)"/><path class="bd" d="M1075.72,369.89h-.1q-3.82,0-7.67,0h-12.24c-4.54,0-9.08,0-13.61-.08-2.62,0-3.86.91-5.07,3.12-10,18.28-20.09,36.47-30.13,54.72Q995.14,449,983.47,470.46c3.93-1.08,5-4.92,6.95-7.67q32-45.37,63.6-91c.61-.88,1-1.53,2.16-1.53,6.75,0,13.5,0,20.24.1.5,0,1,.6,1.48.92C1078.46,368.69,1076.51,369.8,1075.72,369.89Z" transform="translate(446.1 -24.02)"/><path class="aj" d="M356.29,562.26c-.32.51-.63,1-1,1.53l-19.08,27.59c2.09,4.86,5.29,7.1,11,6.63,7.55-.63,15.19-.15,22.8-.15h11.55c-8.75-12.31-17-24-25.33-35.6Z" transform="translate(446.1 -24.02)"/><path class="be" d="M548,488.9V456.46h0c-.05-12.26,0-24.51-.2-36.76a16.12,16.12,0,0,1,3.39-11c8.29-10.85,16-22.19,23.5-33.59,2.39-3.63,4.8-5.81,9.24-4.9a4,4,0,0,0-2.62-.43c-.32,0-.64,0-1,0h-.41c-9.43,0-18.87.12-28.3-.1-3.32-.07-4.29.77-4.28,4.21q.07,40.11.08,80.21v1.33q0,39.48,0,79c0,1.19-.41,2.45.39,3.56h0q.08-24.56.16-49.12Z" transform="translate(446.1 -24.02)"/><path class="bf" d="M932.69,426.57c6.28-8.31,11.69-17.25,18.23-25.38a186,186,0,0,0-6.66-17.72c-1.59-1.09-2.25-.1-3.12,1.16q-9.45,13.64-19.09,27.14c-.93,1.3-1.29,3.33-3.48,3.41a204.79,204.79,0,0,0,7.4,19.16C929.73,433.09,930.64,429.28,932.69,426.57Z" transform="translate(446.1 -24.02)"/><path class="bg" d="M851.36,469.18c-7.19,10.33-14.34,20.68-21.69,30.89-3.19,4.44-5.68,9.41-9.83,13.14a31.92,31.92,0,0,0,7.22,13.51c8.33-10.86,15.9-22.25,23.71-33.48a10.17,10.17,0,0,1,2.8-2.86V467.51C852.44,467.56,852,468.34,851.36,469.18Z" transform="translate(446.1 -24.02)"/><path class="bh" d="M998.78,511.19q-11.14,16.09-22.37,32.14c-8.33,11.89-16.85,23.65-25,35.66-4.09,6-8.82,11.65-12.2,18.17l13.73.08a10,10,0,0,0,.87-1.18q23.19-41.89,46.36-83.82c.46-.83,1.19-1.62.83-2.71C999.87,509.57,999.37,510.34,998.78,511.19Z" transform="translate(446.1 -24.02)"/><path class="bd" d="M966.75,496.35c4.58-6.73,9.64-13.13,13.65-20.24-1.83,0-1.56-1.7-2-2.65-1.67-3.9-3.14-7.9-4.68-11.85-1.59-1.09-2.24-.12-3.12,1.14q-9.43,13.59-19,27.08c-.8,1.13-1.28,2.73-3.08,2.82,2.29,6.53,4.65,13,7.55,19.3h0C959.63,506.75,963.21,501.56,966.75,496.35Z" transform="translate(446.1 -24.02)"/><path class="bf" d="M851.23,513.18c-4.66,6.35-9.05,12.9-13.6,19.34a4,4,0,0,0-.88,2.69,37.12,37.12,0,0,0,17,5.86c0-3.54,2.91-5.52,4.58-8.09,4.11-6.3,8.85-12.2,12.81-18.58,1.56-2.52,3.26-2.73,5.61-2.67,1.18,0,2.46.37,3.5-.58-1.21.06-2.43.17-3.65.18-7.08,0-14-.53-19.21-6.21C854.42,507.13,853.22,510.47,851.23,513.18Z" transform="translate(446.1 -24.02)"/><path class="bi" d="M939,461.25q10.47-14.94,20.87-29.93a2.62,2.62,0,0,1,2-1.4c-2-5.46-3.63-11.07-6.41-16.22-4.12,4.33-7,9.58-10.49,14.36-4,5.5-7.83,11.14-11.7,16.74a5.31,5.31,0,0,1-2.4,2.17,173.3,173.3,0,0,0,6.87,17.6C937.55,463.24,938.26,462.27,939,461.25Z" transform="translate(446.1 -24.02)"/><path class="bj" d="M851.75,418.43c-7.53,10.79-14.91,21.68-22.57,32.37-4,5.62-7.39,11.73-12.3,16.71q0,8.1,0,16.21c9.24-13.13,18.41-26.31,27.78-39.35,2.82-3.93,4.86-8.5,8.9-11.49V416.67h0A12.66,12.66,0,0,0,851.75,418.43Z" transform="translate(446.1 -24.02)"/><path class="bk" d="M949.64,469.37c5.25-7.16,10.26-14.49,15.34-21.77.72-1,1.36-2,2.74-2.2q-2.94-7.74-5.87-15.48a2.62,2.62,0,0,0-2,1.4q-10.41,15-20.87,29.93c-.72,1-1.43,2-1.26,3.32a87.12,87.12,0,0,0,5.14,13.27C946.1,475.8,947.51,472.28,949.64,469.37Z" transform="translate(446.1 -24.02)"/><path class="bl" d="M951.6,489.83q9.57-13.5,19-27.08c.88-1.26,1.53-2.23,3.12-1.14l-6-16.21c-1.38.16-2,1.18-2.74,2.2-5.08,7.28-10.09,14.61-15.34,21.77-2.13,2.91-3.54,6.43-6.78,8.47a129.8,129.8,0,0,0,5.66,14.81C950.32,492.56,950.8,491,951.6,489.83Z" transform="translate(446.1 -24.02)"/><path class="bm" d="M922.05,411.77q9.65-13.5,19.09-27.14c.87-1.26,1.53-2.25,3.12-1.16a69.93,69.93,0,0,0-5.32-13.24h0l-4.88.17c-1,3.72-3.76,6.42-5.81,9.5-4.83,7.29-10,14.38-15,21.54h0a97.66,97.66,0,0,0,5.29,13.74C920.76,415.1,921.12,413.07,922.05,411.77Z" transform="translate(446.1 -24.02)"/><path class="au" d="M374.86,365.34c4.74-6.82,9.53-13.61,14.31-20.41l26.33-37.5c1-1.45.75-2.24-1.15-2.1a24.41,24.41,0,0,0-9.63,1.26c-.14,4.86-4.05,7.68-6.39,11.25-6.43,9.81-13.39,19.26-20.09,28.89-1.69,2.42-3.3,4.87-5.82,6.53q0,7.37,0,14.74A6.9,6.9,0,0,0,374.86,365.34Z" transform="translate(446.1 -24.02)"/><path class="ay" d="M239,446.13c4.35-6.33,8.65-12.71,13.2-18.9,1.6-2.18,2.48-5.08,5.35-6.21A151.87,151.87,0,0,0,247.85,407c-3.17,6.09-7.47,11.42-11.46,16.93-3,4.11-4.85,9.16-9.43,12a124.65,124.65,0,0,0,8.91,12.49C237.4,448.32,238.19,447.29,239,446.13Z" transform="translate(446.1 -24.02)"/><path class="av" d="M583.85,502.17c-1.57.09-2.21,1.27-3,2.4-4.49,6.41-9.26,12.63-13.49,19.2-3.1,4.81-7.31,8.91-9.24,14.46,8.6.21,17.2.38,25.8-.09h0q0-18-.07-36Z" transform="translate(446.1 -24.02)"/><path class="bn" d="M850.77,493.24c-7.81,11.23-15.38,22.62-23.71,33.48a26.51,26.51,0,0,0,9.69,8.49,4,4,0,0,1,.88-2.69c4.55-6.44,8.94-13,13.6-19.34,2-2.71,3.19-6,6.11-8.06a25.57,25.57,0,0,1-3.77-14.74A10.17,10.17,0,0,0,850.77,493.24Z" transform="translate(446.1 -24.02)"/><path class="bo" d="M372.87,344.8a4,4,0,0,1,.21-.47A2.18,2.18,0,0,0,372.87,344.8Z" transform="translate(446.1 -24.02)"/><path class="bo" d="M378.24,346.73c6.7-9.63,13.66-19.08,20.09-28.89,2.34-3.57,6.25-6.39,6.39-11.25-18.57,3.29-30.66,20.63-31.64,37.74-.11,1.26.45,2.61-.55,3.74,0,1.73-.07,3.46-.11,5.19C374.94,351.6,376.55,349.15,378.24,346.73Z" transform="translate(446.1 -24.02)"/><path class="bp" d="M351.79,398.08c5.57-7.95,11.18-15.88,16.68-23.88.64-.93,2-1.84,1.41-3.17s-2.16-.76-3.3-.78c-3.91-.07-7.82,0-11.73,0h0c-6.91,8.74-13.12,18-19.34,27.23h0C340.89,399,346.36,398,351.79,398.08Z" transform="translate(446.1 -24.02)"/><path class="bq" d="M933.25,444.8c3.87-5.6,7.68-11.24,11.7-16.74,3.49-4.78,6.37-10,10.49-14.36-.83-4.42-2.76-8.43-4.52-12.51-6.54,8.13-11.95,17.07-18.23,25.38-2.05,2.71-3,6.52-6.72,7.77A98.06,98.06,0,0,0,930.85,447,5.31,5.31,0,0,0,933.25,444.8Z" transform="translate(446.1 -24.02)"/><path class="ao" d="M289.14,466.66c-2.39-3.51-4.42-7.28-7.32-10.43h0c-4.84,5.79-8.68,12.29-13.23,18.27-2.56,3.35-4.16,7.44-7.69,10l7.71,10.95,16.56-23.15C286.51,470.46,287.82,468.55,289.14,466.66Z" transform="translate(446.1 -24.02)"/><path class="au" d="M284.21,494.77c4.27-5.77,8.19-11.79,12.25-17.7a77.65,77.65,0,0,0-7.32-10.41c-1.32,1.89-2.63,3.8-4,5.68l-16.56,23.15,7.32,10.33C279.74,502.93,281.48,498.47,284.21,494.77Z" transform="translate(446.1 -24.02)"/><path class="br" d="M214.26,406.06c5.46-7.6,10.52-15.49,16.3-22.86.2-.26.17-.7.25-1.05a90.28,90.28,0,0,0-7.29-10.58c-2.26,5.45-6.36,9.71-9.52,14.58-2.9,4.48-6.08,8.78-9.13,13.16a3.52,3.52,0,0,1-2.56,1.86l7.32,10.32C212.08,410.46,212.9,408,214.26,406.06Z" transform="translate(446.1 -24.02)"/><path class="bs" d="M440,311.43c-1.93,3-4.17,5.74-6.11,8.7-3.53,5.4-7.93,10.23-10.69,16.14a77.76,77.76,0,0,1,21.06,2.28c2,.5,2.75.23,2.7-2.09-.14-7.22-.05-14.43-.05-21.65,0-5.58,0-5.58-5.26-7a4.3,4.3,0,0,0-.73-.07C441.84,309.28,440.69,310.41,440,311.43Z" transform="translate(446.1 -24.02)"/><path class="az" d="M286.33,512.14c5.74-8.27,11.25-16.71,17.46-24.66a82.67,82.67,0,0,0-7.33-10.41c-4.06,5.91-8,11.93-12.25,17.7-2.73,3.7-4.47,8.16-8.28,11.05l6.72,9.6C284.53,515.06,285.35,513.55,286.33,512.14Z" transform="translate(446.1 -24.02)"/><path class="bt" d="M868.48,541.24c-.8.14-1.6.24-2.4.32A3.11,3.11,0,0,0,868.48,541.24Z" transform="translate(446.1 -24.02)"/><path class="bt" d="M866.82,538.79c-1.79,2.52-.13,2.48,1.66,2.45,3.47.35,6.85-.38,10.24-.84,8.46-1.15,8.45-1.19,9.95-9.61,0-.12.06-.23.08-.36L892,509l-6.56,1.45c-1.24,5.47-5.55,9.08-8.36,13.59C873.88,529.1,870.3,533.92,866.82,538.79Z" transform="translate(446.1 -24.02)"/><path class="bb" d="M293.09,521.56c5.83-8.1,11-16.67,17.34-24.4-2.26-3.19-3.89-6.82-6.64-9.68-6.21,7.95-11.72,16.39-17.46,24.66-1,1.41-1.8,2.92-3.68,3.28q3.44,4.86,6.89,9.71h0C291.16,524.37,292.08,523,293.09,521.56Z" transform="translate(446.1 -24.02)"/><path class="bq" d="M876.7,511.73c-2.35-.06-4.05.15-5.61,2.67-4,6.38-8.7,12.28-12.81,18.58-1.67,2.57-4.57,4.55-4.58,8.09a53,53,0,0,0,12.38.49c.8-.08,1.6-.18,2.4-.32-1.79,0-3.45.07-1.66-2.45,3.48-4.87,7.06-9.69,10.22-14.76,2.81-4.51,7.12-8.12,8.36-13.59l-5.2.71C879.16,512.1,877.88,511.75,876.7,511.73Z" transform="translate(446.1 -24.02)"/><path class="bu" d="M225.2,424.36q8.72-12.44,17.52-24.82a60.84,60.84,0,0,0-6.62-9.62c-1.57,4.45-5,7.71-7.49,11.57-3.56,5.51-7.42,10.82-11.21,16.18a13.54,13.54,0,0,1-2.1,2q2.92,4.06,5.86,8.12C223.25,427.51,224.14,425.87,225.2,424.36Z" transform="translate(446.1 -24.02)"/><path class="bg" d="M217.4,417.67c3.79-5.36,7.65-10.67,11.21-16.18,2.49-3.86,5.92-7.12,7.49-11.57a45.12,45.12,0,0,0-5.29-7.77c-.08.35-.05.79-.25,1.05-5.78,7.37-10.84,15.26-16.3,22.86-1.36,1.89-2.18,4.4-4.63,5.43l5.67,8.14A13.54,13.54,0,0,0,217.4,417.67Z" transform="translate(446.1 -24.02)"/><path class="bj" d="M236.39,423.88c4-5.51,8.29-10.84,11.46-16.93a41,41,0,0,0-5.13-7.41q-8.78,12.4-17.52,24.82c-1.06,1.51-1.95,3.15-4,3.39l5.8,8.16C231.54,433,233.4,428,236.39,423.88Z" transform="translate(446.1 -24.02)"/><path class="bv" d="M923.88,369.82h.93A7.21,7.21,0,0,0,923.88,369.82Z" transform="translate(446.1 -24.02)"/><path class="bv" d="M929.43,369.83h2A18.12,18.12,0,0,0,929.43,369.83Z" transform="translate(446.1 -24.02)"/><path class="bv" d="M928.25,379.9c2-3.08,4.79-5.78,5.81-9.5-7.29-1.27-13.16-.19-16.67,7.61-2,4.44-5.59,8.18-8.46,12.24h0a61.32,61.32,0,0,0,4.35,11.19h0C918.29,394.28,923.42,387.19,928.25,379.9Z" transform="translate(446.1 -24.02)"/><path class="bi" d="M201.77,390.74c4.17-5.7,8.16-11.52,12.2-17.31.55-.78,1.42-1.62.95-2.6s-1.76-.57-2.67-.57c-3.66,0-7.33.09-11,.14-2.26,4.49-5.39,8.38-8.31,12.43a2.84,2.84,0,0,1-2.72,1.42l7.43,10.3C200.11,394.46,200.68,392.21,201.77,390.74Z" transform="translate(446.1 -24.02)"/><path class="bw" d="M204.87,399.31c3-4.38,6.23-8.68,9.13-13.16,3.16-4.87,7.26-9.13,9.52-14.58-.6-2.15-2.4-1.72-3.92-1.72-9.9,0-19.79-.09-29.69,0-3,0-6.07-.55-9,.38l20.4.18h0c3.66,0,7.33-.14,11-.14.91,0,2.15-.5,2.67.57s-.4,1.82-.95,2.6c-4,5.79-8,11.61-12.2,17.31-1.09,1.47-1.66,3.72-4.11,3.81l4.65,6.62A3.52,3.52,0,0,0,204.87,399.31Z" transform="translate(446.1 -24.02)"/><path class="bx" d="M473.13,395.91c3.73-5.29,7.62-10.47,11.1-15.92,2.08-3.25,5.33-5.82,6.08-9.89-5.63-.08-11.26-.1-16.88-.25-1.74-.05-2.35.48-2.32,2.29.12,8.45.12,16.9.16,25.35C472.31,397.46,472.65,396.6,473.13,395.91Z" transform="translate(446.1 -24.02)"/><path class="by" d="M729.42,390.86c4.32-6,8.74-12,12.64-18.25a4.22,4.22,0,0,1,4.26-2.4c5.49.05,11,0,16.46,0-3-.23-6.09-.36-9.14-.41-8.67-.17-17.36.2-26,0-1.69,0-1.56,1.18-1.55,2.29q.08,10.47.16,20.94h0C727.77,393,728.68,391.9,729.42,390.86Z" transform="translate(446.1 -24.02)"/><path class="bu" d="M917.39,378c3.51-7.8,9.38-8.88,16.67-7.61l4.88-.17h0c-.85-.73-1.88-.39-2.82-.39H900.68l8.25,20.43h0C911.8,386.19,915.38,382.45,917.39,378Z" transform="translate(446.1 -24.02)"/><path class="bz" d="M885.63,382.86c-3.51,4.87-6.93,9.82-10.84,15.37h20.68c-1.27-6.23-4.21-11.85-6.48-17.71C886.63,379.49,886.44,381.75,885.63,382.86Z" transform="translate(446.1 -24.02)"/><path class="ca" d="M193,382.83c2.92-4.05,6.05-7.94,8.31-12.43h0l-20.4-.18c2.24,5.26,6.21,9.37,9.37,14A2.84,2.84,0,0,0,193,382.83Z" transform="translate(446.1 -24.02)"/><path class="au" d="M373.08,344.33a4,4,0,0,0-.21.47,7.38,7.38,0,0,0-.34,3.27C373.53,346.94,373,345.59,373.08,344.33Z" transform="translate(446.1 -24.02)"/></svg>