<svg id="Layer_1" data-name="Layer 1" xmlns="http://www.w3.org/2000/svg" viewBox="0 0 272 215.5"><defs><style>.cls-1{fill:#fefefe;stroke:#000;stroke-width:3px;}.cls-1,.cls-2{stroke-miterlimit:10;}.cls-2{fill:#fff;stroke:#b18ab9;stroke-width:2px;}.cls-3{fill:#c0d78c;}.cls-4,.cls-5{fill:#b18ab9;}.cls-5{font-size:28.86px;font-family:MyriadPro-Regular, Myriad Pro;}.cls-6{letter-spacing:-0.01em;}.cls-7{letter-spacing:0.01em;}.cls-8{letter-spacing:-0.06em;}.cls-9{letter-spacing:-0.01em;}.cls-10{letter-spacing:0.01em;}</style></defs><title>ksbw_combo2</title><ellipse class="cls-1" cx="136" cy="157.16" rx="134.5" ry="56.84"/><path d="M196.74,153.63a2.52,2.52,0,0,0-2.76-2.74c-1.35,0-2.7,0-4,0a4.31,4.31,0,0,0-4.31,2.69c-.13.28-.27.55-.38.83l-3.1,7.46q-5.68,13.59-11.36,27.18c-.12.29-.15.64-.47.83a2.38,2.38,0,0,1-.42-.85q-4.88-12.18-9.75-24.36c-1.38-3.47-2.78-6.93-4.13-10.41a4.64,4.64,0,0,0-4.12-3.29,43.48,43.48,0,0,0-5.51,0,2.35,2.35,0,0,0-2.26,2.25c0,.43,0,.86,0,1.29q0,21.56,0,43.12c0,.18,0,.37,0,.55,0,.83.13,1,1,1.2a10.06,10.06,0,0,0,3.65.13c1.44-.16,1.64-.42,1.64-1.86q0-20,0-39.9v-1.1l.17,0c.13.33.27.66.4,1q7.88,20.22,15.74,40.45a2,2,0,0,0,1.62,1.41,12.14,12.14,0,0,0,3.57,0,1.68,1.68,0,0,0,1.47-1.21c.06-.2.15-.4.23-.6l16.52-40.54c.09-.22.11-.49.42-.68v1.19q0,18,0,35.95c0,1.5,0,3,0,4.5,0,.85.17,1.07,1,1.28a9.92,9.92,0,0,0,3.56.14c1.5-.16,1.69-.39,1.69-1.9q0-21.51,0-43C196.75,154.24,196.75,153.93,196.74,153.63Z" transform="translate(-13.5 -17)"/><path d="M135.89,196.91q-8-22.27-16.05-44.54a2.2,2.2,0,0,0-2.09-1.62c-.76-.06-1.53-.07-2.3-.11v.1c-.8,0-1.59,0-2.39,0a2,2,0,0,0-2.07,1.6,3.24,3.24,0,0,1-.13.34L95.24,195.93a17.06,17.06,0,0,0-.6,1.83c-.27,1.15.06,1.6,1.24,1.71a22,22,0,0,0,3.21,0,2.17,2.17,0,0,0,2.19-1.7c1.12-3.46,2.33-6.9,3.5-10.34.29-.86.29-.86,1.21-.86h18.3c.18,0,.37,0,.55,0a.45.45,0,0,1,.52.39,5.23,5.23,0,0,0,.18.52c1.23,3.49,2.48,7,3.67,10.48a2,2,0,0,0,2,1.51c1.07,0,2.14.09,3.22,0a6.15,6.15,0,0,0,.91-.09c.68-.15.9-.48.87-1.19A4.61,4.61,0,0,0,135.89,196.91ZM106.73,181.4,115,157.56l.19,0,8.36,23.86Z" transform="translate(-13.5 -17)"/><path d="M239.21,162.55a12.43,12.43,0,0,0-6.37-9.46,17.29,17.29,0,0,0-8-2.13c-4.25-.2-8.51-.06-12.77-.07l-.28,0a2.31,2.31,0,0,0-2.08,1.9,6.51,6.51,0,0,0-.1,1.46q0,10.75,0,21.5,0,11,0,22.06c0,1.11.16,1.34,1.25,1.55a11.43,11.43,0,0,0,3.57.07c1.42-.16,1.63-.42,1.63-1.87q0-7.81,0-15.62c0-1.17-.14-1,1-1.05,1.93,0,3.86,0,5.79,0a21.3,21.3,0,0,0,5.26-.73c4.38-1.2,7.8-3.63,9.77-7.82A16.85,16.85,0,0,0,239.21,162.55Zm-7,6.13a8.83,8.83,0,0,1-7.27,6.68,10.34,10.34,0,0,1-2.1.23l-6.15,0c-.63,0-.65,0-.65-.67q0-4.55,0-9.09t0-8.91c0-.7,0-.72.69-.72,2.2,0,4.41,0,6.61,0a12,12,0,0,1,3.17.46,8.2,8.2,0,0,1,6,7.42A12.9,12.9,0,0,1,232.24,168.68Z" transform="translate(-13.5 -17)"/><path d="M95.4,163.3A12.61,12.61,0,0,0,88.7,153,17.23,17.23,0,0,0,81,151c-4.29-.21-8.58-.06-12.87-.08H68a2.31,2.31,0,0,0-2.21,2.18c0,.4,0,.8,0,1.19q0,10.71,0,21.42,0,10.9,0,21.79c0,.25,0,.49,0,.74,0,.66.17.87.81,1.05a9.5,9.5,0,0,0,3.1.25,6.33,6.33,0,0,0,1.72-.25,1,1,0,0,0,.81-1.08c0-.21,0-.43,0-.64q0-7.91,0-15.82c0-.95,0-.83.85-.83,1.9,0,3.8,0,5.7,0a21.81,21.81,0,0,0,5.45-.73c4.63-1.26,8.15-3.88,10.06-8.39A17,17,0,0,0,95.4,163.3Zm-7.13,5.58a8.8,8.8,0,0,1-7.32,6.5,15.22,15.22,0,0,1-2.92.22c-1.74,0-3.49,0-5.23,0-.47,0-.62-.12-.62-.61,0-3,0-6.06,0-9.09s0-6,0-9c0-.77,0-.7.69-.7,2.2,0,4.41,0,6.61,0a11.69,11.69,0,0,1,3.34.52,8,8,0,0,1,5.71,6.65A11.71,11.71,0,0,1,88.26,168.88Z" transform="translate(-13.5 -17)"/><rect class="cls-2" x="1.5" y="1" width="269" height="89" rx="4" ry="4"/><path class="cls-3" d="M111.82,50s27.17,5.74,35.3,9.94c0,0,18.07,4.06,28-2.66,0,0,10.65-5.6,12-10.22,0,0-2,5-18.21,4.62a207,207,0,0,1-23.25-1.4A129.16,129.16,0,0,0,111.82,50Z" transform="translate(-13.5 -17)"/><path class="cls-4" d="M174.15,46.48s-23-10.22-25.91-10.93H133s-2.1-.7-2.94,2.38c0,0-2.1.56-2.52-.28a7.18,7.18,0,0,0-7.56-4.9s-5.6.14-5.32,5.74c0,0-1,6.16,3.64,6.86,0,0,1-.28,1.12.28l-.28.7-5.46,1.82-.7,1.4a7.78,7.78,0,0,1,3.64-1.4l16.11-.84,17.41,1.51a.66.66,0,0,0,.45-1.15l-9-8.06s-.28-3.78,5.18-.7,21,9.24,21,9.24,2.38,1.59,10.65,1.4c0,0,5.88-.28,8.82-2.52C187.18,47,178.49,47.88,174.15,46.48Zm-32.64-1.12H129.89V39.9h3.5Z" transform="translate(-13.5 -17)"/><text class="cls-5" transform="translate(10.5 74.93) scale(0.85 1)">BE S<tspan class="cls-6" x="50.19" y="0">M</tspan><tspan x="73.11" y="0">A</tspan><tspan class="cls-7" x="90.78" y="0">R</tspan><tspan class="cls-8" x="106.56" y="0">T</tspan><tspan x="119.18" y="0">, SLEEP S</tspan><tspan class="cls-9" x="223.23" y="0">M</tspan><tspan x="246.15" y="0">A</tspan><tspan class="cls-10" x="263.81" y="0">R</tspan><tspan x="279.6" y="0">T</tspan></text></svg>