<svg id="Layer_1" data-name="Layer 1" xmlns="http://www.w3.org/2000/svg" viewBox="0 0 272 219.5"><defs><style>.cls-1{fill:#fefefe;stroke:#000;stroke-width:3px;}.cls-1,.cls-2{stroke-miterlimit:10;}.cls-2{fill:#fff;stroke:#b18ab9;stroke-width:2px;}.cls-3,.cls-5{fill:#c0d78c;}.cls-4{fill:#b18ab9;}.cls-5{font-size:28.86px;font-family:MyriadPro-Regular, Myriad Pro;}.cls-6{letter-spacing:-0.01em;}.cls-7{letter-spacing:0em;}.cls-8{letter-spacing:0.01em;}.cls-9{letter-spacing:-0.06em;}.cls-10{letter-spacing:0.01em;}.cls-11{letter-spacing:0em;}.cls-12{font-size:24.2px;font-family:HelveticaNeueLTStd-Th, Helvetica Neue LT Std;letter-spacing:0.03em;}</style></defs><title>ksbw_combo3</title><ellipse class="cls-1" cx="136" cy="173.16" rx="134.5" ry="44.84"/><path d="M188.14,172a2.18,2.18,0,0,0-2.38-2.36c-1.16,0-2.33,0-3.49,0a3.72,3.72,0,0,0-3.72,2.32c-.11.24-.23.48-.33.72l-2.68,6.44q-4.9,11.74-9.81,23.47c-.1.25-.13.55-.4.71a2.06,2.06,0,0,1-.36-.73q-4.22-10.52-8.42-21c-1.2-3-2.4-6-3.57-9a4,4,0,0,0-3.56-2.84,37.55,37.55,0,0,0-4.76,0,2,2,0,0,0-2,1.95c0,.37,0,.74,0,1.11q0,18.62,0,37.24c0,.16,0,.32,0,.48,0,.72.11.86.83,1a8.69,8.69,0,0,0,3.16.11c1.24-.14,1.42-.36,1.42-1.61q0-17.23,0-34.46v-.95l.15,0,.35.86q6.8,17.46,13.59,34.93a1.68,1.68,0,0,0,1.4,1.22,10.48,10.48,0,0,0,3.09,0,1.45,1.45,0,0,0,1.27-1c.05-.18.13-.35.2-.52l14.27-35c.08-.19.09-.43.37-.59v1q0,15.52,0,31c0,1.3,0,2.59,0,3.89,0,.74.15.92.87,1.11a8.57,8.57,0,0,0,3.08.12c1.29-.14,1.46-.34,1.46-1.64q0-18.58,0-37.16C188.15,172.57,188.15,172.3,188.14,172Z" transform="translate(-13.5 -17)"/><path d="M135.59,209.42q-6.94-19.23-13.86-38.47a1.9,1.9,0,0,0-1.8-1.4c-.66,0-1.32-.06-2-.09v.08c-.69,0-1.38,0-2.06,0a1.72,1.72,0,0,0-1.79,1.38,2.8,2.8,0,0,1-.11.3l-13.48,37.34a14.73,14.73,0,0,0-.52,1.58c-.24,1,.05,1.38,1.07,1.48a19,19,0,0,0,2.78,0,1.87,1.87,0,0,0,1.89-1.47c1-3,2-6,3-8.93.25-.74.25-.74,1-.74h15.8c.16,0,.32,0,.48,0a.39.39,0,0,1,.45.34,4.52,4.52,0,0,0,.16.45c1.06,3,2.14,6,3.17,9a1.7,1.7,0,0,0,1.74,1.3c.93,0,1.85.08,2.78,0a5.31,5.31,0,0,0,.79-.08c.59-.13.78-.41.75-1A4,4,0,0,0,135.59,209.42ZM110.4,196l7.12-20.59.16,0L124.91,196Z" transform="translate(-13.5 -17)"/><path d="M224.82,179.75a10.74,10.74,0,0,0-5.5-8.17,14.93,14.93,0,0,0-6.91-1.84c-3.67-.17-7.35,0-11-.06h-.24a2,2,0,0,0-1.79,1.64,5.62,5.62,0,0,0-.09,1.26q0,9.29,0,18.57,0,9.52,0,19c0,1,.14,1.15,1.08,1.34a9.87,9.87,0,0,0,3.08.06c1.22-.14,1.4-.36,1.4-1.62q0-6.75,0-13.49c0-1-.12-.91.87-.91,1.67,0,3.33,0,5,0a18.4,18.4,0,0,0,4.54-.63,12.38,12.38,0,0,0,8.44-6.75A14.55,14.55,0,0,0,224.82,179.75Zm-6,5.3a7.62,7.62,0,0,1-6.28,5.77,8.93,8.93,0,0,1-1.81.19l-5.31,0c-.55,0-.56,0-.56-.58q0-3.93,0-7.85t0-7.69c0-.61,0-.62.6-.62,1.9,0,3.81,0,5.71,0a10.32,10.32,0,0,1,2.74.4,7.08,7.08,0,0,1,5.19,6.41A11.14,11.14,0,0,1,218.8,185Z" transform="translate(-13.5 -17)"/><path d="M100.62,180.39a10.89,10.89,0,0,0-5.79-8.93,14.88,14.88,0,0,0-6.62-1.72c-3.7-.18-7.41,0-11.12-.07h-.16A2,2,0,0,0,75,171.57c0,.34,0,.69,0,1q0,9.25,0,18.5,0,9.41,0,18.82c0,.21,0,.42,0,.64,0,.57.15.75.7.91a8.21,8.21,0,0,0,2.68.21,5.47,5.47,0,0,0,1.49-.22.88.88,0,0,0,.7-.93c0-.19,0-.37,0-.56q0-6.83,0-13.66c0-.82,0-.72.73-.72,1.64,0,3.28,0,4.92,0a18.84,18.84,0,0,0,4.71-.63,12.35,12.35,0,0,0,8.69-7.25A14.64,14.64,0,0,0,100.62,180.39Zm-6.16,4.82a7.6,7.6,0,0,1-6.32,5.62,13.15,13.15,0,0,1-2.53.19c-1.51,0-3,0-4.52,0-.41,0-.54-.11-.53-.53,0-2.62,0-5.23,0-7.85s0-5.18,0-7.77c0-.66,0-.61.6-.6,1.9,0,3.81,0,5.71,0a10.09,10.09,0,0,1,2.89.45,6.9,6.9,0,0,1,4.94,5.74A10.11,10.11,0,0,1,94.46,185.21Z" transform="translate(-13.5 -17)"/><rect class="cls-2" x="1.5" y="1" width="269" height="113" rx="4" ry="4"/><path class="cls-3" d="M111.82,50s27.17,5.74,35.3,9.94c0,0,18.07,4.06,28-2.66,0,0,10.65-5.6,12-10.22,0,0-2,5-18.21,4.62a207,207,0,0,1-23.25-1.4A129.16,129.16,0,0,0,111.82,50Z" transform="translate(-13.5 -17)"/><path class="cls-4" d="M174.15,46.48s-23-10.22-25.91-10.93H133s-2.1-.7-2.94,2.38c0,0-2.1.56-2.52-.28a7.18,7.18,0,0,0-7.56-4.9s-5.6.14-5.32,5.74c0,0-1,6.16,3.64,6.86,0,0,1-.28,1.12.28l-.28.7-5.46,1.82-.7,1.4a7.78,7.78,0,0,1,3.64-1.4l16.11-.84,17.41,1.51a.66.66,0,0,0,.45-1.15l-9-8.06s-.28-3.78,5.18-.7,21,9.24,21,9.24,2.38,1.59,10.65,1.4c0,0,5.88-.28,8.82-2.52C187.18,47,178.49,47.88,174.15,46.48Zm-32.64-1.12H129.89V39.9h3.5Z" transform="translate(-13.5 -17)"/><text class="cls-5" transform="translate(10.5 74.93) scale(0.85 1)">BE S<tspan class="cls-6" x="50.19" y="0">M</tspan><tspan class="cls-7" x="73.11" y="0">A</tspan><tspan class="cls-8" x="90.78" y="0">R</tspan><tspan class="cls-9" x="106.56" y="0">T</tspan><tspan x="119.18" y="0">, SLEEP S</tspan><tspan class="cls-6" x="223.23" y="0">M</tspan><tspan x="246.15" y="0">A</tspan><tspan class="cls-10" x="263.81" y="0">R</tspan><tspan class="cls-11" x="279.6" y="0">T</tspan></text><text class="cls-12" transform="translate(10.5 102.93) scale(0.85 1)">Monterey Bay Sleep Center</text></svg>