<svg id="Layer_1" data-name="Layer 1" xmlns="http://www.w3.org/2000/svg" viewBox="0 0 299.1 136.94"><defs><style>.cls-1{fill:#171717;}.cls-2{fill:#fefefe;}.cls-3{font-size:10.66px;font-family:MyriadPro-Regular, Myriad Pro;}.cls-4{letter-spacing:-0.01em;}.cls-5{letter-spacing:0.03em;}.cls-6{letter-spacing:0em;}.cls-7{letter-spacing:-0.01em;}.cls-8{letter-spacing:0em;}.cls-9{letter-spacing:0.01em;}.cls-10{letter-spacing:0em;}.cls-11{letter-spacing:-0.01em;}.cls-12{letter-spacing:-0.01em;}.cls-13{letter-spacing:-0.03em;}</style></defs><title>PAMP</title><path class="cls-1" d="M146.32,227.34c-29.3-.51-58.1-4.2-86-13.72C47.1,209.09,34.45,203.31,23.12,195c-6.76-5-12.81-10.7-17-18.06C-1.78,163.09-.53,149.76,8.64,137c6.43-8.94,15.1-15.31,24.51-20.75,14.25-8.24,29.63-13.6,45.52-17.55a292,292,0,0,1,59-8.06,317.65,317.65,0,0,1,44,1.21c26.21,2.59,51.76,7.92,75.84,19,10.83,5,20.94,11.14,29.4,19.69,5.51,5.57,9.88,11.89,11.94,19.54,2.62,9.74.85,18.86-4.35,27.37-5,8.14-11.94,14.32-19.75,19.61-14.69,9.95-31,16.13-48,20.74a266.59,266.59,0,0,1-42.15,7.68A332.35,332.35,0,0,1,146.32,227.34Z" transform="translate(-0.9 -90.42)"/><path class="cls-2" d="M145.42,223.69c-27.22-.44-55.19-4-82.31-13-13.92-4.63-27.21-10.58-39-19.54a55.93,55.93,0,0,1-14.81-16C3,164.31,3,153.44,9.35,142.65c5.08-8.63,12.55-14.88,20.84-20.23C44,113.5,59.19,107.77,75,103.51a280.45,280.45,0,0,1,61.67-9.12,317.86,317.86,0,0,1,41.31.84c25.09,2.21,49.6,7,72.93,16.82,11.09,4.66,21.57,10.39,30.57,18.51,5.17,4.66,9.59,9.91,12.32,16.39,4.87,11.56,2.55,22.15-4.68,31.93-6.62,9-15.51,15.26-25.13,20.56-14.62,8.05-30.31,13.23-46.5,17a290.58,290.58,0,0,1-53.88,7C157.94,223.68,152.3,223.59,145.42,223.69Z" transform="translate(-0.9 -90.42)"/><path d="M172.38,168.41c1.89-4.53,3.69-8.81,5.47-13.1,3.83-9.21,7.7-18.4,11.45-27.65,1.17-2.87,3-4.32,6.16-4.14,1.14.07,2.28,0,3.42,0,2.57,0,3.52,1,3.56,3.63,0,.42,0,.84,0,1.26,0,16.14,0,32.27,0,48.41,0,1.76-.74,2.34-2.22,2.51-.24,0-.48,0-.72,0-3.95.09-4.12-.07-4.12-4q0-22.58,0-45.18c-.68-.1-.57.48-.7.8q-9.31,22.9-18.6,45.82c-1,2.37-1.24,2.56-4.26,2.54-2.7,0-3.16-.31-4.05-2.61l-17.46-45.11a3,3,0,0,0-.89-1.31v1.79c0,14.94,0,29.87,0,44.81,0,1.56-.55,2.18-1.94,2.35-.3,0-.59.07-.89.08-4,.17-4.29-.07-4.29-4q0-23.66,0-47.33c0-3.67.78-4.46,4.4-4.46l3.42,0a5.78,5.78,0,0,1,5.88,4.06c2.75,7.14,5.64,14.22,8.47,21.33q3.64,9.14,7.26,18.29C171.95,167.56,172.11,167.85,172.38,168.41Z" transform="translate(-0.9 -90.42)"/><path d="M129.59,179.37c-3.56,0-3.56,0-4.74-3.3s-2.44-6.85-3.62-10.29a1.45,1.45,0,0,0-1.61-1.2c-6.9.05-13.79,0-20.69,0a1.31,1.31,0,0,0-1.49,1.1c-1.2,3.69-2.5,7.34-3.76,11-.81,2.37-1.22,2.66-3.77,2.67-4.58,0-4.72-.2-3.19-4.45Q95.4,150.73,104,126.54c1.12-3.13,1.38-3.31,4.64-3.33,5.2,0,5.21,0,7,4.85q8.46,23.59,16.91,47.18C133.94,179.1,133.73,179.38,129.59,179.37Z" transform="translate(-0.9 -90.42)"/><path d="M217.27,151.91q0-12.15,0-24.29c0-3.25.8-4.12,4-4.06,5,.09,10.06-.26,15.09.29,8.11.9,13.9,6,14.65,13.14,1,9.8-3,17-11.13,19.79-4.29,1.5-8.72,1.47-13.14,1.3-1.8-.07-2.12.48-2.09,2.15.12,5.52,0,11,.07,16.55a2.15,2.15,0,0,1-2.09,2.53c-4.24.7-5.34-.16-5.34-4.38Q217.27,163.42,217.27,151.91Z" transform="translate(-0.9 -90.42)"/><path d="M60.15,168.35c0,2.88,0,5.76,0,8.64a1.91,1.91,0,0,1-1.93,2.27c-.3,0-.59.1-.89.11-4.31.24-4.61,0-4.61-4.27q0-23.66,0-47.32c0-3.48.74-4.28,4.18-4.22,5,.09,9.94-.24,14.91.29,9.88,1.06,15.7,8.11,14.75,18-.88,9.13-6.76,15-16,16a64.37,64.37,0,0,1-8.62.22c-1.42,0-2,.22-1.89,1.8C60.26,162.71,60.15,165.53,60.15,168.35Z" transform="translate(-0.9 -90.42)"/><path class="cls-2" d="M99.7,158.73l9.5-28,9.63,28Z" transform="translate(-0.9 -90.42)"/><path class="cls-2" d="M224.68,140.81c0-3.23.06-6.47,0-9.7,0-1.22.36-1.5,1.5-1.44,3,.17,6.1-.2,9.14.36,4.92.9,8.07,4.48,8.11,9.43a15.69,15.69,0,0,1-.23,4.11c-1.27,5-4.79,8-9.91,8.36-2.51.16-5,0-7.54.1-1,0-1.13-.38-1-1.16a1.38,1.38,0,0,0,0-.18Q224.68,145.75,224.68,140.81Z" transform="translate(-0.9 -90.42)"/><path class="cls-2" d="M60.15,140.69c0-3.23,0-6.47,0-9.7,0-1,.17-1.37,1.25-1.32,3.16.17,6.34-.2,9.49.37a9.35,9.35,0,0,1,8,9.37,15.72,15.72,0,0,1-.26,4.28A10.53,10.53,0,0,1,68.24,152c-2.27.06-4.55,0-6.83.06-1,0-1.3-.27-1.28-1.29C60.2,147.4,60.16,144,60.15,140.69Z" transform="translate(-0.9 -90.42)"/><text class="cls-3" transform="translate(45.23 101.76)"><tspan class="cls-4">P</tspan><tspan x="5.51" y="0">ulmona</tspan><tspan class="cls-5" x="39.69" y="0">r</tspan><tspan class="cls-6" x="43.44" y="0">y </tspan><tspan class="cls-7" x="50.72" y="0">A</tspan><tspan x="57.17" y="0">ssoci</tspan><tspan class="cls-8" x="78.73" y="0">a</tspan><tspan class="cls-7" x="83.83" y="0">t</tspan><tspan class="cls-6" x="87.29" y="0">es of the </tspan><tspan class="cls-9" x="127.37" y="0">M</tspan><tspan class="cls-10" x="136" y="0">o</tspan><tspan class="cls-8" x="141.85" y="0">n</tspan><tspan class="cls-11" x="147.73" y="0">t</tspan><tspan x="151.19" y="0">e</tspan><tspan class="cls-12" x="156.53" y="0">r</tspan><tspan x="159.91" y="0">ey </tspan><tspan class="cls-13" x="172.52" y="0">P</tspan><tspan x="177.93" y="0">eninsula</tspan></text></svg>