<svg id="balllogowograd_Image" data-name="balllogowograd Image" xmlns="http://www.w3.org/2000/svg" viewBox="0 0 376.59 389.58"><defs><style>.cls-1{fill:#ee3d42;}.cls-2{fill:#fefefe;}.cls-3{fill:#f8b1a1;}.cls-4{fill:#ee3e42;}</style></defs><title>wvlotto</title><path class="cls-1" d="M403.95,208.74a198.77,198.77,0,0,1-20.22,87.83,193.61,193.61,0,0,1-34.45,49.34,188.15,188.15,0,0,1-52.15,38.44,183,183,0,0,1-160,1.46,188,188,0,0,1-57.4-42.24A193.8,193.8,0,0,1,48.23,298a198.52,198.52,0,0,1-20.74-81.56c-1.2-33.57,5.3-65.55,20.12-95.73a191.12,191.12,0,0,1,66.42-76,181.63,181.63,0,0,1,68.68-27.81,178.1,178.1,0,0,1,25.35-2.8,181.61,181.61,0,0,1,87.53,18.23,187.2,187.2,0,0,1,53.66,39.16,193.65,193.65,0,0,1,33.88,48.15,196.66,196.66,0,0,1,18.17,56.56A202.69,202.69,0,0,1,403.95,208.74Z" transform="translate(-27.35 -13.91)"/><path class="cls-2" d="M326.79,205.65c.07-26.84-7.94-51-24.87-71.88-16.08-19.87-36.59-33-61.76-37.86-31.35-6.11-60,.6-85.29,20.16C133,133,119.52,155.46,114,182.61A112.81,112.81,0,0,0,112,212.67c.24,3.65-2.42,6.21-5.73,5.51a4.63,4.63,0,0,1-3.64-4.24,113.59,113.59,0,0,1-.13-16.17,122.26,122.26,0,0,1,4.72-27.7,120.26,120.26,0,0,1,28.36-49.56A114.73,114.73,0,0,1,189.39,88,107.56,107.56,0,0,1,214,84.16c32.34-1.22,60.41,9.23,84,31.29,19.55,18.27,31.54,40.78,36.4,67.08a127.48,127.48,0,0,1,2,19.65c.09,3.16-.06,6.31-.13,9.46a9.61,9.61,0,0,1-.23,2,4.66,4.66,0,0,1-9.19-.94C326.75,210.37,326.79,208,326.79,205.65Z" transform="translate(-27.35 -13.91)"/><path class="cls-2" d="M183,285.57H283.4a5.44,5.44,0,0,1,5.58,4.73,5.71,5.71,0,0,1-4.09,6.47,7.69,7.69,0,0,1-2,.15H218.8q-64.48,0-129,.06a72.63,72.63,0,0,1-8.26,0,5.71,5.71,0,0,1,.64-11.34H183Z" transform="translate(-27.35 -13.91)"/><path class="cls-2" d="M181.5,122c-.78,3.28-1.49,6.26-2.19,9.25q-3.42,14.64-6.83,29.28a15.31,15.31,0,0,1-1.11,3.65,3.12,3.12,0,0,1-5.41.71,10.23,10.23,0,0,1-2-4.15q-3.9-12.83-7.81-25.66c-.06-.18-.13-.36-.15-.43-1.56,1.48-3.18,3-4.72,4.49s-3.14,3.3-4.72,4.94a4,4,0,0,1-5.77.28,4.19,4.19,0,0,1-.07-5.93c2.69-2.84,5.42-5.66,8.13-8.49,1.85-1.93,3.82-3.77,5.53-5.82,2.27-2.71,6.37-1.69,7.42,1.81,1.42,4.78,2.89,9.55,4.34,14.32l1.6,5.25c.39-1.6.72-2.91,1-4.22q3.81-16.15,7.62-32.29a4.55,4.55,0,0,1,4.62-3.58,4.9,4.9,0,0,1,4.82,3.25c1.77,5.63,3.52,11.28,5.27,16.92l6.44,20.7a.94.94,0,0,0,.41.56c.42-1.7.85-3.4,1.26-5.11q4.51-18.87,9-37.75a4.52,4.52,0,0,1,3.52-3.65,41.33,41.33,0,0,1,14.41-.85c12,1.14,23.27,4.75,34.34,9.25a22.78,22.78,0,0,1,4.72,2.58c1.93,1.39,2.34,3.14,1.27,5.12a3.73,3.73,0,0,1-5,1.8c-2.32-.88-4.43-2.21-6.67-3.25a81,81,0,0,0-31.47-7.55c-2.24-.08-4.47.08-6.7.09a1.14,1.14,0,0,0-1.29,1.05Q210.18,130,205,151.45c-.88,3.65-1.74,7.3-2.64,10.95-.59,2.4-1.84,3.59-3.69,3.64-2.35.06-3.83-1.13-4.58-3.58q-6.15-19.85-12.33-39.68C181.73,122.62,181.67,122.48,181.5,122Z" transform="translate(-27.35 -13.91)"/><path class="cls-2" d="M198.84,222.92h29.75a5.26,5.26,0,0,1,5.34,4.54,5.53,5.53,0,0,1-3.47,6.05,4.88,4.88,0,0,1-1.76.28c-2.12,0-4.24,0-6.36,0-.85,0-1.15.26-1.34,1.07q-4.25,17.51-8.57,35c-.46,1.86-1,3.71-1.35,5.59-.55,3-3.47,4.47-6.82,3.82a5.33,5.33,0,0,1-4.21-6.39c1.29-5.56,2.68-11.1,4-16.64,1.74-7.14,3.47-14.28,5.25-21.4.23-.91,0-1.06-.84-1.06q-8,0-16.08,0c-.84,0-1.17.24-1.37,1.05-3.26,13.46-6.61,26.9-9.81,40.38-.8,3.36-3.59,4.5-6.54,4.14a5.35,5.35,0,0,1-4.63-5.64,25.22,25.22,0,0,1,1.12-5.26q4.07-16.76,8.22-33.5c.21-.85.09-1.13-.84-1.11-3.2,0-6.4,0-9.6,0a5.07,5.07,0,0,1-5-3.24,5.36,5.36,0,0,1,.95-5.93,5.29,5.29,0,0,1,4.28-1.75Q184,222.95,198.84,222.92Z" transform="translate(-27.35 -13.91)"/><path class="cls-2" d="M137.79,281.52a29.37,29.37,0,0,1-28.58-23.78c-2-10.66.56-20.07,8.06-28A28.52,28.52,0,0,1,157,228.57a30.75,30.75,0,0,1-9,51.06,26,26,0,0,1-4.83,1.39A25.62,25.62,0,0,1,137.79,281.52Z" transform="translate(-27.35 -13.91)"/><path class="cls-2" d="M294.91,223.16c2.6,0,5.2.09,7.79,0,4-.17,7,1.56,9.52,4.43a16.52,16.52,0,0,1,4.31,10.92c0,6.88-5.63,13.53-12.37,14.71-2.33.4-2.32.4-1.77,2.76q2,8.28,3.9,16.55c.86,3.66-.53,5.93-4.12,6.79a5.64,5.64,0,0,1-6.93-4.31c-1.47-6.13-2.91-12.27-4.36-18.41-.53-2.25-1.11-4.5-1.6-6.76a5.54,5.54,0,0,1,2-6,4.24,4.24,0,0,1,2.77-.94c2.24,0,4.48.09,6.71,0a4.41,4.41,0,0,0,4.65-4.81,6.18,6.18,0,0,0-1-3.52,3.12,3.12,0,0,0-2.8-1.54c-3.48,0-7,.06-10.43,0A1,1,0,0,0,290,234q-4,16.54-7.94,33.07c-.64,2.68-1.3,5.35-1.92,8s-2.92,4.24-6,4A5.37,5.37,0,0,1,269,274c-.06-2.4.82-4.63,1.36-6.91,3.13-13.2,6.34-26.39,9.48-39.59a5.65,5.65,0,0,1,6.07-4.43c3,.21,6,0,9,0Z" transform="translate(-27.35 -13.91)"/><path class="cls-2" d="M330.56,248.53l5.27-8.69,8.88-14.66a5.71,5.71,0,1,1,9.8,5.83c-1.88,3.2-3.83,6.37-5.75,9.55q-13.16,21.8-26.33,43.59a24.66,24.66,0,0,1-15,11.54,11.93,11.93,0,0,1-3.31.47c-2.48,0-5,0-7.43-.05a5.5,5.5,0,1,1-.09-11c2,0,4-.09,6,0a8,8,0,0,0,5.84-2.33,33.62,33.62,0,0,0,6.23-8c1.92-3.27,3.91-6.5,5.89-9.74a2.4,2.4,0,0,0,.38-1.68q-2.19-17.36-4.33-34.72a5.86,5.86,0,0,1,4.92-6.35,5.62,5.62,0,0,1,6.31,5c.82,6.5,1.62,13,2.43,19.5C330.34,247.29,330.44,247.78,330.56,248.53Z" transform="translate(-27.35 -13.91)"/><path class="cls-2" d="M252.49,253.77H242c-1.49,0-1.56.06-1.27,1.57a13.19,13.19,0,0,0,8.11,10.12,25.26,25.26,0,0,0,11.29,1.65,8.51,8.51,0,0,1,3,.23c2.39.76,3.49,2,3.74,4.28a5.4,5.4,0,0,1-2.73,5.79,11.46,11.46,0,0,1-5.81,1.18c-5.68,0-11.27-.59-16.34-3.43-4.61-2.58-7.66-6.6-9.85-11.29s-3.92-9.5-3.72-14.84c.46-12.54,7.62-21.82,19.82-25.61a37.69,37.69,0,0,1,13.64-1.25c2.39.15,4.78.31,7.17.52a5.37,5.37,0,0,1,5.11,5.81c-.12,3-2.41,5-5.6,5-4.24,0-8.48,0-12.72,0A17.61,17.61,0,0,0,245.68,237a8.92,8.92,0,0,0-3.11,4c-.34.85-.19,1.11.75,1.1,5.88,0,11.76,0,17.64,0a12.89,12.89,0,0,1,3.33.31,5.75,5.75,0,0,1,4.06,5.72,5.48,5.48,0,0,1-4,5.47,21.34,21.34,0,0,1-4.42.19C257.45,253.81,255,253.77,252.49,253.77Z" transform="translate(-27.35 -13.91)"/><path class="cls-2" d="M264.19,119.81h14.75c.84,0,1.68,0,2.51.11a3.81,3.81,0,0,1,0,7.57,28.49,28.49,0,0,1-3.71,0c-1-.07-1.46.13-1.7,1.23-2.21,10.22-4.49,20.43-6.75,30.64-.24,1.09-.47,2.18-.73,3.27a3.93,3.93,0,0,1-4.66,3.11,4,4,0,0,1-3.14-4.78c1-4.69,2-9.36,3.08-14,1.36-6.16,2.72-12.32,4.11-18.47.17-.75.05-1-.75-1-5,0-10.08,0-15.11,0a7.71,7.71,0,0,0-2,.31,3.57,3.57,0,0,0-2.83,2.79,4.6,4.6,0,0,0,1.63,4.52,20.68,20.68,0,0,0,2.61,1.69c3.14,2,5.89,4.3,7.26,7.88,2.9,7.62-.25,18.85-11.11,20.8a44.54,44.54,0,0,1-7.3.2c-1.16,0-2.32,0-3.47-.09-2.47-.17-3.89-1.71-3.79-4a3.72,3.72,0,0,1,4.07-3.63c2.48,0,5,0,7.44,0,3,0,5.06-1.54,6.41-4.07a6.43,6.43,0,0,0-.67-7.31,12.27,12.27,0,0,0-3.66-3.05,22.68,22.68,0,0,1-5.54-4.15c-2.68-3-3.12-6.62-2.43-10.35a11.27,11.27,0,0,1,7.9-9,5.94,5.94,0,0,1,2-.28h15.59Z" transform="translate(-27.35 -13.91)"/><path class="cls-2" d="M290.71,201.12c-2.24,0-4.48,0-6.72,0-.92,0-1.3.22-1.52,1.15-1,4-2,8-3.07,12.07-.63,2.42-2.64,3.79-4.78,3.27a4.08,4.08,0,0,1-3-5.09q4.25-18.43,8.56-36.85c1.22-5.25,2.44-10.5,3.62-15.75a5.71,5.71,0,0,1,3.95-4.57,6,6,0,0,1,6.16,1.69,17,17,0,0,1,3.51,5.67,115.52,115.52,0,0,1,7.84,26,63.16,63.16,0,0,1,1.45,15.82c-.18,2.95-.39,5.9-.65,8.84a3.87,3.87,0,0,1-4.29,3.7,4,4,0,0,1-3.66-4.37c.19-3.07.44-6.13.65-9.2,0-.44,0-.88,0-1.32.06-.76-.21-1-1-1C295.43,201.16,293.07,201.12,290.71,201.12Z" transform="translate(-27.35 -13.91)"/><path class="cls-2" d="M154.94,199l6.11-26.41c.6-2.61,2.62-4,5-3.38,2.14.52,3.35,2.77,2.78,5.24q-2.21,9.57-4.44,19.13c-1.61,6.92-3.2,13.85-4.82,20.77-.72,3.07-2.75,4.33-5.66,3.6a4,4,0,0,1-3-3.07q-5.1-17.91-10.27-35.8l-8.26-28.78a4.31,4.31,0,0,1,.68-4.19,4,4,0,0,1,6.89,1.55l4.77,16.57,9.78,33.94C154.59,198.44,154.57,198.74,154.94,199Z" transform="translate(-27.35 -13.91)"/><path class="cls-2" d="M255.1,189.34l3.41-14.94c.61-2.66,2.61-4.15,4.87-3.62s3.58,2.8,2.95,5.56q-1.64,7.12-3.27,14.24-2.64,11.43-5.28,22.86a19.07,19.07,0,0,1-.53,1.84,3.4,3.4,0,0,1-3,2.39,3.58,3.58,0,0,1-3.45-1.48c-1.18-1.47-1.2-3.27-1.42-5-.63-4.83-1.22-9.67-1.83-14.5,0-.24-.09-.47-.2-1l-3.22,14c-.33,1.44-.67,2.88-1,4.32-.59,2.65-2.59,4.13-4.89,3.6s-3.54-2.76-2.95-5.35q1.75-7.65,3.51-15.29,2.64-11.49,5.29-23a4.09,4.09,0,0,1,3.72-3.37,4.41,4.41,0,0,1,4.66,2.44,14.13,14.13,0,0,1,.62,3.65c.55,4.28,1.07,8.56,1.6,12.84C255.12,190.07,254.91,189.31,255.1,189.34Z" transform="translate(-27.35 -13.91)"/><path class="cls-2" d="M98.62,279.4H88.78c-4.9,0-7.82-3.34-7.32-8.25.34-3.32,1.38-6.48,2.08-9.71,2.43-11.24,4.78-22.49,7.65-33.63a5.83,5.83,0,0,1,5.46-4.59,5.69,5.69,0,0,1,6.15,7.3q-4.28,18.07-8.59,36.12c-.45,1.9-.47,1.9,1.43,1.9H109a5.43,5.43,0,1,1,0,10.87Z" transform="translate(-27.35 -13.91)"/><path class="cls-2" d="M321.39,205.35a55.32,55.32,0,0,1-.19,6.17,4.21,4.21,0,0,1-4.32,3.94,4.26,4.26,0,0,1-3.88-4.75,93.91,93.91,0,0,0,0-12.46,98.3,98.3,0,0,0-9.54-36.39,99.38,99.38,0,0,0-17.63-25.55,10.77,10.77,0,0,1-1.6-2.09A4,4,0,0,1,285,129c1.33-1.29,3-1.38,4.83-.27a12.34,12.34,0,0,1,2.57,2.33A107.25,107.25,0,0,1,320,187,102.78,102.78,0,0,1,321.39,205.35Z" transform="translate(-27.35 -13.91)"/><path class="cls-2" d="M185.13,196.88q-2,8.63-3.95,17.27c-.49,2.14-1.84,3.42-3.68,3.53-2.91.18-4.85-2.34-4.15-5.42q.94-4.15,1.9-8.29,3.43-14.88,6.87-29.75a4.37,4.37,0,0,1,4.51-3.67,19.93,19.93,0,0,1,7.15,1.27C200,174,203.16,183,199.1,189.15A16.27,16.27,0,0,1,194,194a1.18,1.18,0,0,0-.64,1.61c1.53,5.25,3,10.52,4.46,15.79a5.19,5.19,0,0,1,.27,2.47,4,4,0,0,1-3.65,3.4,3.88,3.88,0,0,1-4.13-2.94c-1.24-4.3-2.43-8.6-3.64-12.91-.43-1.52-.87-3-1.3-4.55Z" transform="translate(-27.35 -13.91)"/><path class="cls-2" d="M218.55,187.92h4.2a4,4,0,0,1,4.18,4.85c-.69,4.55-1.82,9-2.89,13.46-.49,2.06-1,4.11-1.57,6.15-1,3.71-3.72,5.32-7.49,4.48-4.68-1-8-4.07-10.72-7.78-4.63-6.35-5.21-13.43-3.58-20.91,1.73-8,9.58-16.09,18.86-16.93a46.32,46.32,0,0,1,6.83,0,3.83,3.83,0,0,1-.45,7.62c-2.19.06-4.39-.19-6.57.32-6.47,1.49-10.7,6.24-11.76,13.26-1,6.45,1.49,11.91,6.78,15.07.73.44,1,.47,1.22-.5.76-3.51,1.6-7,2.46-10.49.19-.78,0-1-.77-.95-1,.05-2.08,0-3.12,0a3.74,3.74,0,0,1-4-3.88,3.69,3.69,0,0,1,3.91-3.79h4.44Z" transform="translate(-27.35 -13.91)"/><path class="cls-2" d="M218.62,138.21h2.5c3.32,0,6.64,0,10,0a3.84,3.84,0,1,1,0,7.66c-4.08,0-8.15.06-12.23,0-.88,0-1,.24-.72,1a15.4,15.4,0,0,0,7.41,9c1.09.59,2.21,1.11,3.29,1.71a4.22,4.22,0,0,1,2.2,4.3c-.46,2.84-2.59,4.16-5.38,3.22a22.42,22.42,0,0,1-13.43-11.74c-5.2-10.61-2.63-20.85,6.23-28.72a18.3,18.3,0,0,1,12.26-4.4c1.32,0,2.64,0,4,0a3.7,3.7,0,0,1,3.73,4,3.63,3.63,0,0,1-3.85,3.69c-1,0-2,0-3,0a11.45,11.45,0,0,0-7.81,2.84A17.87,17.87,0,0,0,218.62,138.21Z" transform="translate(-27.35 -13.91)"/><path class="cls-2" d="M129.55,158.64c3.77,0,5.83,3.44,4.23,6.52a60.15,60.15,0,0,0-4.68,11.76,91.65,91.65,0,0,0-2.91,35.93,4.34,4.34,0,0,1-3.58,4.89,4.13,4.13,0,0,1-4.82-3.58,78.49,78.49,0,0,1-.61-16.49,101.06,101.06,0,0,1,4.22-24.84,65.89,65.89,0,0,1,4.81-11.72A4.17,4.17,0,0,1,129.55,158.64Z" transform="translate(-27.35 -13.91)"/><path class="cls-2" d="M237.21,170.37c2.72,0,4.53,2.48,3.87,5.36q-2.36,10.32-4.74,20.64-2,8.8-4.05,17.61a4.14,4.14,0,0,1-3.81,3.41,4,4,0,0,1-3.92-2.78,4.6,4.6,0,0,1-.07-2.6q4.4-19.19,8.82-38.37A4,4,0,0,1,237.21,170.37Z" transform="translate(-27.35 -13.91)"/><path class="cls-2" d="M260.33,212.59c.43-1.89,1-4.26,1.5-6.63q3.63-15.86,7.27-31.73c.56-2.45,1.85-3.75,3.78-3.86a4,4,0,0,1,4.18,5.08c-1.22,5.45-2.48,10.89-3.73,16.33q-2.52,11-5,21.92c-.61,2.67-2.57,4.09-4.9,3.55C261.47,216.79,260.26,215.16,260.33,212.59Z" transform="translate(-27.35 -13.91)"/><path class="cls-2" d="M162.69,212.73c.46-2,1-4.5,1.59-7q3.65-15.92,7.31-31.84c.57-2.49,2.55-3.91,4.78-3.4a4.07,4.07,0,0,1,3.06,5.15Q175,194.84,170.61,214a4,4,0,0,1-4.41,3.37C164.11,217.12,162.67,215.41,162.69,212.73Z" transform="translate(-27.35 -13.91)"/><path class="cls-3" d="M255.1,189.34c0,.31.08.72-.29.75s-.14-.34-.12-.55Z" transform="translate(-27.35 -13.91)"/><path class="cls-1" d="M156,251.23a18.32,18.32,0,0,1-15.61,18.4c-7.52,1.21-15.38-3.35-18.62-10.81-4.65-10.72,1.4-23,12.58-25.64,9.27-2.15,18.88,4,21.11,13.54A18.55,18.55,0,0,1,156,251.23Z" transform="translate(-27.35 -13.91)"/><path class="cls-4" d="M292,193c-2,0-4-.05-6,0-1,0-1.25-.42-1.14-1.29a71,71,0,0,1,1.5-7c1.05-4.63,2-9.28,3.33-13.86.22-.78.29-2,1.13-2.07,1-.06,1.11,1.22,1.4,2a126.25,126.25,0,0,1,5.69,20.52c.34,1.69.18,1.82-1.47,1.82H292Z" transform="translate(-27.35 -13.91)"/><path class="cls-4" d="M192.85,182.76c-.13,2.89-1.68,4.67-4.13,4.78-.91,0-1.25-.28-1-1.18.53-2.16,1.07-4.32,1.57-6.49.16-.71.51-.78,1.11-.57A3.73,3.73,0,0,1,192.85,182.76Z" transform="translate(-27.35 -13.91)"/></svg>