<svg xmlns="http://www.w3.org/2000/svg" viewBox="0 0 404.95 310.19"><defs><style>.a,.f{fill:#231f20;}.a,.c,.d{fill-rule:evenodd;}.b,.e{fill:none;}.b{stroke:#231f20;stroke-width:0px;}.b,.c,.e{stroke-miterlimit:2.61;}.c{fill:#e31837;stroke-width:4.65px;}.c,.e{stroke:#fff;}.d{fill:#fff;}.e{stroke-width:1.96px;}</style></defs><title>vsu</title><polygon class="a" points="11 0 188.79 0 188.79 54.6 155.38 54.6 208.7 197.78 264.09 54.6 223.99 54.6 223.99 0 396.87 0 396.87 54.6 359.1 54.6 247.46 309.73 161.42 309.73 50.09 54.6 11 54.6 11 0 11 0"/><polygon class="b" points="11 0 188.79 0 188.79 54.6 155.38 54.6 208.7 197.78 264.09 54.6 223.99 54.6 223.99 0 396.87 0 396.87 54.6 359.1 54.6 247.46 309.73 161.42 309.73 50.09 54.6 11 54.6 11 0 11 0"/><polygon class="c" points="18.4 7.55 181.31 7.55 181.31 47.11 144.4 47.11 208.7 219.4 275.16 47.11 231.38 47.11 231.38 7.55 389.32 7.55 389.32 47.11 353.97 47.11 242.32 302.4 166.37 302.4 55.23 47.11 18.4 47.11 18.4 7.55 18.4 7.55"/><path class="d" d="M15.3,186.18c-.48-4.47,2.23-4.73,5.1-4.47,5.77.39,10.52.1,16.38.15C46.29,181.93,58,175,67,176.48c3.17.63,4.85,6.25,1.36,13.93,74.09-60.3,211-65.77,296.44-.61-3.38-10.63-1.56-16.29,9-13.47,9,2.4,8.06,2.83,19.46,4.73a108.61,108.61,0,0,0,21.4-.06c3.3-.19,4.32,1.9,2.92,5.83l-23.39,65.43c-1.24,3.87-1.41,4.38-4.87,5-11.13,2.52-15.91,10.87-19.48,25.06a4.77,4.77,0,0,1-3.95,3.09c-5.54-.17-9.79.1-17.75.1-1.92.11-3.19-.55-3.79-2-81.06-72.76-196.34-59.72-256.2,1.57a2.35,2.35,0,0,1-2.15.87c-6.56-.47-5-.75-17-.41-3.06-.4-4.88-1.79-6.22-5-1.7-4.45-3.11-9-5.07-13-2.28-3.94-8.06-9-13.2-9.69-4.66-.65-4.39-2.73-5-4.42L15.3,186.18Z" transform="translate(-14.27 -61.36)"/><path class="e" d="M15.3,186.18c-.48-4.47,2.23-4.73,5.1-4.47,5.77.39,10.52.1,16.38.15C46.29,181.93,58,175,67,176.48c3.17.63,4.85,6.25,1.36,13.93,74.09-60.3,211-65.77,296.44-.61-3.38-10.63-1.56-16.29,9-13.47,9,2.4,8.06,2.83,19.46,4.73a108.61,108.61,0,0,0,21.4-.06c3.3-.19,4.32,1.9,2.92,5.83l-23.39,65.43c-1.24,3.87-1.41,4.38-4.87,5-11.13,2.52-15.91,10.87-19.48,25.06a4.77,4.77,0,0,1-3.95,3.09c-5.54-.17-9.79.1-17.75.1-1.92.11-3.19-.55-3.79-2-81.06-72.76-196.34-59.72-256.2,1.57a2.35,2.35,0,0,1-2.15.87c-6.56-.47-5-.75-17-.41-3.06-.4-4.88-1.79-6.22-5-1.7-4.45-3.11-9-5.07-13-2.28-3.94-8.06-9-13.2-9.69-4.66-.65-4.39-2.73-5-4.42L15.3,186.18Z" transform="translate(-14.27 -61.36)"/><path class="a" d="M15.3,186.18c-.48-4.47,2.23-4.73,5.1-4.47,5.77.39,10.52.1,16.38.15C46.29,181.93,58,175,67,176.48c3.17.63,4.85,6.25,1.36,13.93,74.09-60.3,211-65.77,296.44-.61-3.38-10.63-1.56-16.29,9-13.47,9,2.4,8.06,2.83,19.46,4.73a108.61,108.61,0,0,0,21.4-.06c3.3-.19,4.32,1.9,2.92,5.83l-23.39,65.43c-1.24,3.87-1.41,4.38-4.87,5-11.13,2.52-15.53,9.53-19.09,23.73-.56,2.16-3.88,4.49-5.29,4.42-5.54-.17-8.84.1-16.8.1-1.92.11-3.19-.55-3.79-2-81.06-72.76-196.34-59.72-256.2,1.57a2.35,2.35,0,0,1-2.15.87c-6.56-.47-5-.75-17-.41-3.06-.4-4.88-1.79-6.22-5-1.7-4.45-3.11-9-5.07-13-2.28-3.94-8.06-9-13.2-9.69-4.66-.65-4.39-2.73-5-4.42L15.3,186.18Zm43.27,21.37c70.89-72.87,228-82.45,315.93-.91l-28.1,70c-87.07-72.6-189.83-58.75-259.42.46L58.57,207.55Zm-6.3-1.23c5.22-8.26,9.75-14.15,12-24.19-9.58,1.91-14.38,3.61-21.43,7.75-6.68,4.72-7.77,8.6-4.72,16.36,10.12,21.26,19.66,44,28.64,67.24,2.35,6.24,4.68,5.64,14.35,5.79L52.63,209.53a4.43,4.43,0,0,1-.36-3.21Zm328.58-.87c-5.75-7.91-12.31-20-11.8-23.9,5.23.56,13.29,2.9,22.05,8.23,6.68,4.72,7.07,8.54,4.91,14.49l-28.18,64.16c-3,12.61-9.26,9.94-15.71,10.56l28.73-71.13a2.47,2.47,0,0,0,0-2.41Zm17.53-17.8,12.32,0-22.58,63.66a33.75,33.75,0,0,0-7.09,2.83c6.72-15.3,14.28-33,21-48.25,3.21-10.12-.46-14-3.65-18.22ZM35,188.11l-12.4.15,22.64,63.25a20,20,0,0,1,7.06,3c-6.72-15.3-13.4-31.78-20.12-47.07C27.86,196,31.59,192.26,35,188.11Z" transform="translate(-14.27 -61.36)"/><path class="b" d="M15.3,186.18c-.48-4.47,2.23-4.73,5.1-4.47,5.77.39,10.52.1,16.38.15C46.29,181.93,58,175,67,176.48c3.17.63,4.85,6.25,1.36,13.93,74.09-60.3,211-65.77,296.44-.61-3.38-10.63-1.56-16.29,9-13.47,9,2.4,8.06,2.83,19.46,4.73a108.61,108.61,0,0,0,21.4-.06c3.3-.19,4.32,1.9,2.92,5.83l-23.39,65.43c-1.24,3.87-1.41,4.38-4.87,5-11.13,2.52-15.53,9.53-19.09,23.73-.56,2.16-3.88,4.49-5.29,4.42-5.54-.17-8.84.1-16.8.1-1.92.11-3.19-.55-3.79-2-81.06-72.76-196.34-59.72-256.2,1.57a2.35,2.35,0,0,1-2.15.87c-6.56-.47-5-.75-17-.41-3.06-.4-4.88-1.79-6.22-5-1.7-4.45-3.11-9-5.07-13-2.28-3.94-8.06-9-13.2-9.69-4.66-.65-4.39-2.73-5-4.42L15.3,186.18Zm43.27,21.37c70.89-72.87,228-82.45,315.93-.91l-28.1,70c-87.07-72.6-189.83-58.75-259.42.46L58.57,207.55Zm-6.3-1.23c5.22-8.26,9.75-14.15,12-24.19-9.58,1.91-14.38,3.61-21.43,7.75-6.68,4.72-7.77,8.6-4.72,16.36,10.12,21.26,19.66,44,28.64,67.24,2.35,6.24,4.68,5.64,14.35,5.79L52.63,209.53a4.43,4.43,0,0,1-.36-3.21Zm328.58-.87c-5.75-7.91-12.31-20-11.8-23.9,5.23.56,13.29,2.9,22.05,8.23,6.68,4.72,7.07,8.54,4.91,14.49l-28.18,64.16c-3,12.61-9.26,9.94-15.71,10.56l28.73-71.13a2.47,2.47,0,0,0,0-2.41Zm17.53-17.8,12.32,0-22.58,63.66a33.75,33.75,0,0,0-7.09,2.83c6.72-15.3,14.28-33,21-48.25,3.21-10.12-.46-14-3.65-18.22ZM35,188.11l-12.4.15,22.64,63.25a20,20,0,0,1,7.06,3c-6.72-15.3-13.4-31.78-20.12-47.07C27.86,196,31.59,192.26,35,188.11Z" transform="translate(-14.27 -61.36)"/><path class="a" d="M123.76,214.69,135,210.17l3.78,9.33-7.21,2.91-1.86-4.6-12.21,4.93,5.81,14.33,23.13-9.36c5.39-2.17,7.42-7.16,5.09-12.9l-3.84-9.54c-2.33-5.72-7.24-7.92-12.64-5.74l-10.94,4.41-3.39-8.39,7.2-2.91,1.64,4.06,11.08-4.46L135,178.51l-22.29,9c-5.39,2.18-7.43,7.11-5.09,12.91L111.1,209c2.35,5.79,7.25,7.92,12.66,5.74Z" transform="translate(-14.27 -61.36)"/><polygon class="a" points="174.38 145.1 170.57 145.89 164.71 117.52 169.35 116.56 171.03 124.66 181.03 122.58 177.24 104.28 134.07 113.21 137.86 131.51 147.86 129.44 146.19 121.35 150.84 120.38 156.71 148.75 152.91 149.54 155.03 159.82 176.51 155.38 174.38 145.1 174.38 145.1"/><polygon class="a" points="260.23 149.75 256.43 148.98 262.16 120.59 266.82 121.52 265.18 129.63 275.18 131.64 278.88 113.33 235.68 104.6 231.99 122.93 241.99 124.94 243.63 116.85 248.28 117.78 242.54 146.18 238.74 145.41 236.67 155.71 258.15 160.05 260.23 149.75 260.23 149.75"/><polygon class="a" points="270.31 162.12 305.6 176.86 312.19 161.06 300.85 156.32 298.31 162.44 290.94 159.35 294.99 149.67 304.79 153.77 308.31 145.34 298.5 141.24 302.1 132.62 309.46 135.69 307.33 140.8 318 145.27 324.17 130.54 289.54 116.07 285.53 125.69 289.23 127.25 278.06 153.98 274.36 152.43 270.31 162.12 270.31 162.12"/><path class="a" d="M199.53,214.62l16.61.07,1.56-12.16,8.4,0,1.54,12.17,16.9.07,0-10.51-3.53,0-7.33-39.42-22.64-.08-7.69,39.37-3.8,0-.05,10.51Zm19.2-21.22,3.38-20.12,3.16,20.14-6.54,0Z" transform="translate(-14.27 -61.36)"/><path class="f" d="M298.86,348.91a13.27,13.27,0,0,1,3.85,9.34,12.77,12.77,0,0,1-3.89,9.36,13.56,13.56,0,0,1-9.45,3.94,13.44,13.44,0,0,1-13.26-13.3,13.57,13.57,0,0,1,4-9.53,12.68,12.68,0,0,1,9.23-3.77A13.1,13.1,0,0,1,298.86,348.91Zm-1.21,1.21a11.37,11.37,0,0,0-8.24-3.43,11.17,11.17,0,0,0-8.06,3.29,11.84,11.84,0,0,0-3.51,8.27,11.46,11.46,0,0,0,3.41,8.1,11.33,11.33,0,0,0,8,3.43,11.76,11.76,0,0,0,8.28-3.39,11.07,11.07,0,0,0,3.37-8A11.47,11.47,0,0,0,297.65,350.12ZM296,354.6a3.93,3.93,0,0,1-3.44,4.06l3.37,6.87h-3.18l-3.07-6.43h-2.8v6.43h-2.85V350.46h5.69C294,350.46,296,351.86,296,354.6Zm-9.12-2.29v5h2.39c2.59,0,3.81-.62,3.81-2.4s-1.22-2.58-3.88-2.58Z" transform="translate(-14.27 -61.36)"/></svg>