<svg xmlns="http://www.w3.org/2000/svg" viewBox="0 0 292.36 86.98"><defs><style>.a{fill:#fff;}</style></defs><title>cahs_w</title><path class="a" d="M398.34,404.65a19.91,19.91,0,0,0-1.45-6,18,18,0,0,0-6.85-8A36.83,36.83,0,0,0,380,386.12c-3.57-1.08-7.23-1.83-10.85-2.72a34.26,34.26,0,0,1-6.28-2,8.11,8.11,0,0,1-3.49-2.8,2.65,2.65,0,0,1,.18-3.32,5.61,5.61,0,0,1,2.72-1.8,9.1,9.1,0,0,1,7.05.47,9.76,9.76,0,0,1,4.74,5.46c.3.73.18.64,1,.65,4.56.07,9.12-.15,13.67-.1,1.51,0,3,0,4.54,0l2.23-.05c.29,0,.41-.1.45-.41a15.72,15.72,0,0,0,0-3.36,24.36,24.36,0,0,0-14.79-20,36.3,36.3,0,0,0-13.4-2.82,46.83,46.83,0,0,0-8,.42,35.41,35.41,0,0,0-10.33,2.84,22.91,22.91,0,0,0-8.17,6.33,36.34,36.34,0,0,0-3.84,6c-.07.13-.08.35-.36.32V355.72c0-.92.08-.81-.81-.81H313.06c-1,0-.89-.14-.89.87v23.76c0,.89.08.81-.81.81H294.88c-.15,0-.29,0-.44,0s-.38-.11-.37-.38,0-.39,0-.58V355.78c0-1,.1-.87-.9-.87H258.69a3.08,3.08,0,0,1-.43,0c-.31,0-.46.09-.59.38-.58,1.31-1.19,2.61-1.8,3.92q-2.2,4.79-4.42,9.58c-.67,1.46-1.36,2.91-2,4.38a.46.46,0,0,1-.55.31c-.31,0-.29-.29-.34-.47a31.36,31.36,0,0,0-1.64-4.59,25.35,25.35,0,0,0-6.13-8.43,28.32,28.32,0,0,0-9.9-5.69,45.47,45.47,0,0,0-14-2.26,39.78,39.78,0,0,0-4.36.22,35.53,35.53,0,0,0-6.56,1.18,34.13,34.13,0,0,0-17.33,11,37.52,37.52,0,0,0-6.86,12.28,50,50,0,0,0-2.56,13.7,55.43,55.43,0,0,0,.2,8.83,49.19,49.19,0,0,0,1.89,9.47,34.82,34.82,0,0,0,8.94,15.11,30.68,30.68,0,0,0,7.25,5.24,36.36,36.36,0,0,0,9.1,3.26,28.52,28.52,0,0,0,6.32.76c9.89,0,19.78,0,29.67,0a4.17,4.17,0,0,1,.5,0,.54.54,0,0,0,.6-.38q1.22-2.54,2.45-5c1.73-3.53,3.48-7.05,5.2-10.58a1,1,0,0,1,1.08-.68c5.71,0,11.42.18,17.12.12.92,0,.81-.11.81.8q0,7.56,0,15.11c0,.73-.07.69.63.69,6.83,0,13.67,0,20.5.1h1.8c1,0,.87.14.87-.89V404.73c0-.74-.05-.72.69-.72h16.78c.62,0,.62,0,.63.62v27.79c0,.88-.05.77.78.77h23.4c.21,0,.3-.11.3-.31s0-.29,0-.43c0-1.61,0-3.21-.08-4.82s0-3.5,0-5.25c0-.07,0-.15.16-.22.42.47.86.95,1.28,1.43a57.92,57.92,0,0,0,4.95,5.2,25.81,25.81,0,0,0,9.8,5.41,43.21,43.21,0,0,0,10.95,1.73,54.09,54.09,0,0,0,9.17-.37,34.7,34.7,0,0,0,11.92-3.7A25,25,0,0,0,392,426a26.64,26.64,0,0,0,5.39-10.44,30.45,30.45,0,0,0,1-6A31.47,31.47,0,0,0,398.34,404.65ZM242.8,386.28q-5.51,11-11,22a2.39,2.39,0,0,1-.66.82,14.81,14.81,0,0,1-6.38,3.31,26.41,26.41,0,0,1-4.26.55c-.93.05-1.86.1-2.79.08a18.18,18.18,0,0,1-8.1-1.89,17.58,17.58,0,0,1-6.49-5.86,23.75,23.75,0,0,1-3.87-10.69,28,28,0,0,1,.24-7.08,32.64,32.64,0,0,1,1.35-5.93,17.56,17.56,0,0,1,3.92-6.71,14.45,14.45,0,0,1,5.08-3.43,21.93,21.93,0,0,1,6.69-1.48,24,24,0,0,1,8.09.78,12.28,12.28,0,0,1,5.47,3,12,12,0,0,1,3.32,6.49,19.68,19.68,0,0,1,.42,4.05c0,.63,0,.63.65.64,1.75,0,3.5,0,5.25.07,1.17.05,2.33.05,3.54.09A5.86,5.86,0,0,1,242.8,386.28Zm27.6-8.11c-.17,6.38,0,12.76-.09,19.14,0,.91,0,1.82,0,2.73,0,.32-.07.48-.44.48-3.81,0-7.63,0-11.44,0l-.16-.06q6-12.66,12-25.3l.14,0C270.41,376.18,270.43,377.17,270.4,378.17Zm103,36.1a8,8,0,0,1-3.67,2,9.56,9.56,0,0,1-9-1.8,12.21,12.21,0,0,1-3.41-4.83,9.25,9.25,0,0,1-.32-.88.62.62,0,0,0-.72-.5c-1.66,0-3.32.06-5,0-4.72-.19-9.45,0-14.17-.09-.61,0-.61,0-.61-.56q0-9.21,0-18.43a.39.39,0,0,1,.11-.37c.59,1,1.19,2,1.77,2.93a22.28,22.28,0,0,0,7.08,7.53,28.77,28.77,0,0,0,7.31,3.28,53,53,0,0,0,8.56,1.75,29,29,0,0,1,7.83,2,9.92,9.92,0,0,1,4.06,2.88,4.64,4.64,0,0,1,1,3.41A2.78,2.78,0,0,1,373.37,414.27Z" transform="translate(-160.14 -352.03)"/><path class="a" d="M444.41,377.4c-2.87-.06-5.74-.15-8.6-.31-1.08-.06-2.15-.08-3.23-.13l-6.09-.29c-1.86-.1-3.72-.21-5.58-.29-2.08-.09-4.16-.22-6.25-.21-3.59,0-7.19,0-10.79,0-1.3,0-2.59,0-3.89.05-.52,0-.52,0-.45.52a10.33,10.33,0,0,1,0,2.08,33.31,33.31,0,0,1-.71,4.09c-.12.59-.12.6-.74.6l-9.65.05h-4.31l0,.08a4.28,4.28,0,0,0,.44.2,38.42,38.42,0,0,1,5.22,2.39.81.81,0,0,0,.47.13c2.65-.12,5.3-.25,7.95-.35,2.13-.07,4.26-.1,6.39-.12,3.95,0,7.91-.13,11.87.06l6.08.28c2.11.11,4.21.2,6.31.29,2.34.11,4.68.18,7,.29,1.36.07,2.73.07,4.09.14,1.6.08,3.21.06,4.82.06a5.22,5.22,0,0,0,4-1.78,4.59,4.59,0,0,0-2.3-7.62A9,9,0,0,0,444.41,377.4Z" transform="translate(-160.14 -352.03)"/><path class="a" d="M449,392.76a10.89,10.89,0,0,0-2.27-.25c-1.58-.05-3.16-.05-4.74-.14-1.21-.07-2.43-.1-3.65-.14-2.15-.09-4.3-.18-6.45-.3s-4.39-.2-6.59-.3c-.46,0-.91,0-1.37-.05-1.85-.17-3.72-.27-5.58-.27-6.86,0-13.71-.05-20.57.18a8.62,8.62,0,0,0-1,.13c0,.18.09.25.16.33a20,20,0,0,1,3.12,5,19.73,19.73,0,0,1,1.23,3.74c.07.34.21.5.57.47s.48,0,.72,0c2.25,0,4.5-.14,6.75-.13,3.22,0,6.43-.1,9.64.08,2,.11,4,.18,6,.28s4.16.2,6.24.29c2.36.11,4.73.18,7.09.29,1.34.07,2.68.07,4,.14,1.72.08,3.45.1,5.17.05a5.06,5.06,0,0,0,5-5A4.49,4.49,0,0,0,449,392.76Z" transform="translate(-160.14 -352.03)"/><path class="a" d="M395.59,364.17a27.7,27.7,0,0,1,2.53,5.54c.1.32.22.47.59.46,2.25-.08,4.5-.07,6.76-.12,2,0,4,0,6,.05,2.59.08,5.17.17,7.75.3,2.12.11,4.25.2,6.38.29s4.54.17,6.81.29c1.33.08,2.67.06,4,.14s2.5.05,3.74.06a5.52,5.52,0,0,1,.58,0,6.58,6.58,0,0,0,3.51-.44,4.91,4.91,0,0,0,3-5,4.48,4.48,0,0,0-3.68-4c-1-.21-2.1-.09-3.14-.22-.64-.08-1.3,0-1.94-.05-2.08-.07-4.16-.13-6.24-.25l-3-.13-6.09-.3c-1.82-.09-3.63-.2-5.44-.27s-3.73-.19-5.6-.2c-4.1,0-8.21,0-12.31,0-1.48,0-3,.06-4.45.09h-2.22l-.06.17.65.84C394.42,362.36,395,363.24,395.59,364.17Z" transform="translate(-160.14 -352.03)"/><path class="a" d="M241.78,436.66H211.19a5.72,5.72,0,0,1-.72,0,52.83,52.83,0,0,1-8.26-1.78,36.41,36.41,0,0,1-11.11-5.59,2.33,2.33,0,0,0-1.45-.49,20.78,20.78,0,0,1-2.37-.06c-1.43-.16-2.86-.1-4.29-.21-1.58-.11-3.16-.09-4.74-.17-.65,0-1.29,0-1.94,0a50.67,50.67,0,0,0-6.16-.12,4.91,4.91,0,0,0-3.78,1.94,4.75,4.75,0,0,0-.08,5.86,5.11,5.11,0,0,0,3.72,1.74c1.05.1,2.1.06,3.15.1,2.23.08,4.45.19,6.67.27l3,.13c2,.09,4.11.19,6.16.3,1.81.1,3.63.21,5.44.28s3.87.24,5.81.21c5.42-.06,10.84.1,16.25-.14,1.49-.06,3-.06,4.45-.13s2.82-.13,4.23-.17c.53,0,1.06,0,1.58-.05,2.21-.21,4.42-.46,6.63-.66,3.09-.28,6.17-.65,9.25-1.05v-.13Z" transform="translate(-160.14 -352.03)"/><path class="a" d="M266.65,422.89a.75.75,0,0,0-.42,0c-2.66.57-5.33,1.12-8,1.7-2.13.46-4.27.85-6.42,1.13a1.39,1.39,0,0,0-1.24.86c-1.5,3.16-3.07,6.29-4.61,9.42-.05.1-.13.2-.07.34h.28l6.38-.9c2.55-.36,5.08-.86,7.61-1.38,2.06-.43,4.11-.88,6.17-1.3.26-.06.39-.15.37-.41s0-.24,0-.36v-8.5A1.23,1.23,0,0,0,266.65,422.89Z" transform="translate(-160.14 -352.03)"/><path class="a" d="M419,417.55h-2.45c-.58,0-.59,0-.59.6v11.17c-.19-.26-.29-.36-.37-.49l-2.94-4.76c-1.24-2-2.48-4-3.69-6a.94.94,0,0,0-1-.53c-.72,0-1.44,0-2.16,0-.88,0-.8-.11-.8.82v16.85c0,.21.12.28.32.28h2.81c.25,0,.33-.12.32-.35v-.51c0-3.26,0-6.53,0-9.79a1.3,1.3,0,0,1,.08-.68l.85,1.34,5.94,9.51a.84.84,0,0,0,.84.5c.88,0,1.77,0,2.66,0,.56,0,.56,0,.57-.55V418.39c0-.14,0-.29,0-.43C419.48,417.65,419.33,417.54,419,417.55Z" transform="translate(-160.14 -352.03)"/><path class="a" d="M168.66,422.67c1.72.07,3.45.07,5.17.16,1.5.08,3,.1,4.51.15.53,0,1.06,0,1.58.06,1.59.14,3.19.16,4.8.25a.47.47,0,0,0-.17-.4,38.6,38.6,0,0,1-4.16-6.7c-.4-.82-.77-1.65-1.13-2.48-.08-.19-.15-.41-.44-.38a16.66,16.66,0,0,1-1.72-.09c-1.31-.05-2.62-.07-3.94-.13-1.76-.09-3.53-.1-5.3-.06a5,5,0,0,0-5.05,5.13,4.53,4.53,0,0,0,3,4.09A9.52,9.52,0,0,0,168.66,422.67Z" transform="translate(-160.14 -352.03)"/><path class="a" d="M165.27,406.83c1.65.05,3.3.08,4.95.16,2.12.09,4.25.13,6.38.2a4.32,4.32,0,0,1,.45.06.55.55,0,0,0,0-.4,49.27,49.27,0,0,1-1.11-6.27c-.09-.88-.18-1.76-.25-2.64,0-.3-.11-.47-.47-.46-.91,0-1.81-.13-2.72-.1a17.63,17.63,0,0,1-2.3-.05,48.12,48.12,0,0,0-4.95-.12,5.12,5.12,0,0,0-4.88,3.57,4.44,4.44,0,0,0,2.52,5.58A6.51,6.51,0,0,0,165.27,406.83Z" transform="translate(-160.14 -352.03)"/><path class="a" d="M437.93,429.8l-1.78-.53c-.41-.12-.85-.47-1.22-.33s-.33.73-.5,1.11a4.15,4.15,0,0,1-2.22,2.34,4.06,4.06,0,0,1-5.37-2.67,10.16,10.16,0,0,1-.4-2.32A9.88,9.88,0,0,1,427,423a4.16,4.16,0,0,1,6.81-1.38,3.67,3.67,0,0,1,.79,1.43c.08.32.21.35.51.27.95-.25,1.91-.45,2.86-.68.26-.06.39-.15.29-.49a6.47,6.47,0,0,0-3.11-4,8.72,8.72,0,0,0-6-.78,7.48,7.48,0,0,0-5.47,4.13,10.18,10.18,0,0,0-1,5.08,10.71,10.71,0,0,0,.16,2.43,8.11,8.11,0,0,0,3.55,5.51,8.43,8.43,0,0,0,6,1.12c3.17-.43,5-2.34,6-5.28C438.4,430.05,438.27,429.9,437.93,429.8Z" transform="translate(-160.14 -352.03)"/><path class="a" d="M308.56,410.13a.53.53,0,0,0-.35.07c-3.35,1.21-6.7,2.43-10.06,3.62a.69.69,0,0,0-.54.77c0,3,0,6,0,9a.8.8,0,0,0,.07.5l.2,0c3.4-1.05,6.66-2.53,10.14-3.35.58-.14.57-.19.57-.79,0-3.09,0-6.19,0-9.28A.9.9,0,0,0,308.56,410.13Z" transform="translate(-160.14 -352.03)"/><path class="a" d="M401.59,418.34v-.43c0-.22-.06-.36-.32-.36h-3.1c-.25,0-.33.13-.32.36v16.77c0,.16,0,.33,0,.5s.12.33.35.33h3c.28,0,.38-.13.36-.4s0-.28,0-.43Z" transform="translate(-160.14 -352.03)"/><path class="a" d="M444.48,432.05h-2.8c-.24,0-.35.08-.35.33,0,.93,0,1.87,0,2.8,0,.26.12.33.36.33h2.8c.25,0,.34-.11.34-.35,0-.45,0-.91,0-1.36s0-.91,0-1.37C444.85,432.17,444.77,432,444.48,432.05Z" transform="translate(-160.14 -352.03)"/><path class="a" d="M367.17,379.15c1.07.34,2.05.59,3.12.82a2.47,2.47,0,0,0-.48-1,.45.45,0,0,0-.48-.23A14.18,14.18,0,0,0,367.17,379.15Z" transform="translate(-160.14 -352.03)"/><path class="a" d="M297.92,408l.87-.32a.34.34,0,0,1,0-.1h-.93c-.2,0-.23.13-.22.29S297.78,408.09,297.92,408Z" transform="translate(-160.14 -352.03)"/><path class="a" d="M242.64,436.68v.13c.18,0,.37.06.54-.07A.61.61,0,0,0,242.64,436.68Z" transform="translate(-160.14 -352.03)"/><path class="a" d="M299,407.69c0-.14-.12-.08-.2-.07a.34.34,0,0,0,0,.1Z" transform="translate(-160.14 -352.03)"/><path class="a" d="M233.16,396.64l-4.06.44c-3.06.33-6.12.66-9.19.83-2.36.13-4.73.23-7.09.29-2.9.08-5.8.1-8.69.15h-.45a4.13,4.13,0,0,0,.12.5,18.92,18.92,0,0,0,2.46,4.69,14.67,14.67,0,0,0,4.54,4.12,1.34,1.34,0,0,0,.78.31c1.6-.17,3.2-.09,4.8-.18,1.38-.09,2.77-.16,4.16-.18.5,0,1,0,1.5-.05,1.78-.16,3.56-.37,5.34-.51A1.79,1.79,0,0,0,229,406q2.19-4.41,4.4-8.81c.08-.16.23-.31.15-.55Z" transform="translate(-160.14 -352.03)"/><path class="a" d="M342.73,401.76a19.89,19.89,0,0,1-1.86-1.46.55.55,0,0,0-.58-.17c-.26.08-.18.3-.18.48,0,1.17,0,2.34,0,3.52,0,.31,0,.47.43.47,2.32,0,4.64,0,7,0l0-.13-.75-.37A27.39,27.39,0,0,1,342.73,401.76Z" transform="translate(-160.14 -352.03)"/><path class="a" d="M266.56,391.24l-2.69,5.67h2.33c.5,0,.51,0,.51-.52,0-1.63,0-3.25,0-4.88C266.71,391.43,266.75,391.32,266.56,391.24Z" transform="translate(-160.14 -352.03)"/></svg>