<svg id="Layer_1" data-name="Layer 1" xmlns="http://www.w3.org/2000/svg" viewBox="0 0 183 157.64"><defs><style>.cls-1,.cls-10,.cls-11,.cls-2,.cls-7,.cls-8,.cls-9{stroke:#616263;}.cls-1{stroke-width:3px;}.cls-10,.cls-11,.cls-2,.cls-6,.cls-9{fill:#fff;}.cls-3,.cls-5{fill:none;}.cls-3,.cls-4,.cls-5{stroke:#000;}.cls-3,.cls-4{stroke-width:1.12px;}.cls-5{stroke-miterlimit:10;}.cls-7{fill:#616263;}.cls-8{fill:#636465;}.cls-9{stroke-width:0.25px;}.cls-10{stroke-width:0.25px;}.cls-11{stroke-width:0.25px;}</style></defs><title>ENT_ET</title><text x="-214.47" y="-319.18"></text><rect class="cls-1" x="1.5" y="9.6" width="180" height="146.54"/><rect class="cls-2" x="12.17" y="18.05" width="44.49" height="45"/><rect class="cls-2" x="67.83" y="17.99" width="44.49" height="45"/><rect class="cls-2" x="124.59" y="18.27" width="44.49" height="45"/><path class="cls-3" d="M357.3,353.77c2.23,1.69,5.93,3,7.76,0" transform="translate(-214.47 -319.18)"/><path class="cls-3" d="M346.67,353c1,8.9,1.15,14.18-1.72,22" transform="translate(-214.47 -319.18)"/><path class="cls-3" d="M376.84,354.17c-.41,7.35-1,18.08,2.87,23.23" transform="translate(-214.47 -319.18)"/><path class="cls-3" d="M358.73,369.92c-.43,2.54.86,6,2.87,3.94" transform="translate(-214.47 -319.18)"/><path class="cls-3" d="M354.71,351c4.88,1.18,4.82-2.74,6.9-.39,3.16-3.54,3.74,2.76,6.9,1.18" transform="translate(-214.47 -319.18)"/><path class="cls-3" d="M343.51,342.75c.62,10,6.3,15.39,12.35,18.6,4.63,2.46,11.21,2.27,18.4-3.25" transform="translate(-214.47 -319.18)"/><path class="cls-3" d="M301.81,341.59s8.68,21.09,12,25.28a7.07,7.07,0,0,1,1.72,5.29c-.24,1.38-3.68,6.2-8.35,5.05" transform="translate(-214.47 -319.18)"/><path class="cls-3" d="M298.12,369.63c-1.87,1-3.83,2.55-3.44,4.37.22,1.06,1.72,3.16,2.95,3.22,1.51.08,4.07-2,5.65-2.53,1.81-.6,3.27-.3,5.16,0" transform="translate(-214.47 -319.18)"/><path class="cls-4" d="M300.72,376c3.19-1.84,6.52.59,7.75-1-1.56-1.87-6.09-.54-7.41,1" transform="translate(-214.47 -319.18)"/><path class="cls-5" d="M259.85,347.54c-2.33-6.57-10.29-6.36-16-4.72-8,2.28-9.16,9.57-7.34,15.8,2.07,7.09,5.45,11.11,11.89,17.16,3.38,3.18,9.16,3.58,12.84-2.26" transform="translate(-214.47 -319.18)"/><path class="cls-5" d="M244.91,367.77c-2.85-2.45-5.17-8.14-5.37-11.5a11.72,11.72,0,0,1,2.33-8.32c2-2.58,7.4-3.13,10.54-2,1.59.57,4.13,1.59,4.29,3.35" transform="translate(-214.47 -319.18)"/><path class="cls-5" d="M256.58,348.87c1.63,4.31-.37,4.7-4.44,6.57-1,.48-4.06.67-4.32,1.75-.33,1.37,1.17,2.64,2.13,3.62a8.67,8.67,0,0,1,2.31,3.05c.57,1.22.43,2.93,1.29,4,1.63,2.05,2.07-.89,1.87-2.26s1.13-2.3,1.4-3.49c.36-1.59-.47-2.26-2.1-2.46-.77-.1-.91-.57-.82-1.44.06-.52,1.48-1.83,1.75-2.26a8.45,8.45,0,0,0,1.4-2.67,8.18,8.18,0,0,0-.47-4.52" transform="translate(-214.47 -319.18)"/><path class="cls-6" d="M229.21,466.32c-.3,0-.37,0-.25-.34l.3-.85a13.24,13.24,0,0,1,.49-1.24c.11.24.26.7.43,1.19l.31.91c.11.29,0,.33-.24.33Zm1.1.6c.42,0,.51,0,.57.2l.32,1a4.54,4.54,0,0,1,.23.77c0,.07,0,.15-.32.19l-.38.06a.25.25,0,0,0,0,.39c.55,0,1,0,1.61,0s1.26,0,1.84,0c.11-.07.08-.34,0-.39l-.45-.07c-.44-.08-.55-.33-.8-1l-1.62-4.43c-.3-.8-.44-1.22-.54-1.55,0-.17-.12-.22-.27-.22a2.4,2.4,0,0,1-1,.68A3.85,3.85,0,0,1,229,464l-1.07,2.76c-.32.81-.52,1.36-.74,1.81a.8.8,0,0,1-.73.56l-.32,0c-.08.09-.1.33,0,.39.55,0,.82,0,1.23,0s1,0,1.4,0c.12-.06.1-.32,0-.39l-.36-.06c-.33-.06-.43-.12-.43-.19a1.27,1.27,0,0,1,.08-.41l.44-1.31c.07-.21.11-.23.39-.23Z" transform="translate(-214.47 -319.18)"/><path class="cls-6" d="M236.57,469.66a4.33,4.33,0,0,1-2-.43,3.5,3.5,0,0,1-.38-1.83.3.3,0,0,1,.45,0,2.5,2.5,0,0,0,2.05,1.77A1.16,1.16,0,0,0,238,468c0-.91-.91-1.46-1.62-1.8a2.65,2.65,0,0,1-1.8-2.2c0-1.28,1-2.16,2.77-2.16a5.12,5.12,0,0,1,1.36.18,3,3,0,0,0,.41.09,5.22,5.22,0,0,1,.21,1.62c-.06.14-.36.15-.47,0-.2-.58-.72-1.4-1.57-1.4a1.08,1.08,0,0,0-1.22,1.05c0,.52.49,1,1.09,1.29l.79.4a2.59,2.59,0,0,1,1.68,2.27C239.57,468.75,238.37,469.66,236.57,469.66Z" transform="translate(-214.47 -319.18)"/><path class="cls-6" d="M242.6,469.66a4.33,4.33,0,0,1-2-.43,3.5,3.5,0,0,1-.38-1.83.3.3,0,0,1,.45,0,2.5,2.5,0,0,0,2.05,1.77A1.16,1.16,0,0,0,244,468c0-.91-.91-1.46-1.62-1.8a2.65,2.65,0,0,1-1.8-2.2c0-1.28,1-2.16,2.77-2.16a5.12,5.12,0,0,1,1.36.18,3,3,0,0,0,.41.09,5.22,5.22,0,0,1,.21,1.62c-.06.14-.36.15-.47,0-.2-.58-.72-1.4-1.57-1.4a1.08,1.08,0,0,0-1.22,1.05c0,.52.49,1,1.09,1.29l.79.4a2.59,2.59,0,0,1,1.68,2.27C245.61,468.75,244.4,469.66,242.6,469.66Z" transform="translate(-214.47 -319.18)"/><path class="cls-6" d="M253,465.86c0,1.83-.61,3.28-2.17,3.28-1.94,0-2.46-2.21-2.46-3.59,0-1.89.79-3.19,2.25-3.19S253,463.93,253,465.86Zm-2.28-4a4,4,0,0,0-4.26,4c0,2.36,1.74,3.85,4.14,3.85,2.56,0,4.31-1.48,4.31-3.94A3.85,3.85,0,0,0,250.69,461.84Z" transform="translate(-214.47 -319.18)"/><path class="cls-6" d="M263,462.13a14.3,14.3,0,0,0,.14,1.76.34.34,0,0,1-.45.08,2.15,2.15,0,0,0-2.24-1.62c-1.32,0-2.74,1.07-2.74,3.32s1.37,3.46,2.8,3.46a2.56,2.56,0,0,0,2.43-1.75.35.35,0,0,1,.45.08,4.8,4.8,0,0,1-.45,1.77,9.29,9.29,0,0,1-2.42.42,5.68,5.68,0,0,1-3.21-.86,3.49,3.49,0,0,1-1.51-3,3.66,3.66,0,0,1,1.44-3,5.41,5.41,0,0,1,3.3-1A15.39,15.39,0,0,1,263,462.13Z" transform="translate(-214.47 -319.18)"/><path class="cls-6" d="M266.64,467.83c0,1.06.07,1.14.62,1.23l.33.06a.31.31,0,0,1,0,.39c-.64,0-1.23,0-1.79,0s-1.17,0-1.81,0a.31.31,0,0,1,0-.39l.33-.06c.55-.09.62-.17.62-1.23v-4.16c0-1.06-.07-1.14-.62-1.23l-.33-.06a.31.31,0,0,1,0-.39c.64,0,1.24,0,1.81,0s1.16,0,1.8,0a.31.31,0,0,1,0,.39l-.33.06c-.55.09-.62.17-.62,1.23Z" transform="translate(-214.47 -319.18)"/><path class="cls-6" d="M270.76,466.32c-.3,0-.37,0-.25-.34l.3-.85a13.28,13.28,0,0,1,.49-1.24c.11.24.26.7.43,1.19l.31.91c.11.29,0,.33-.24.33Zm1.1.6c.42,0,.51,0,.57.2l.32,1a4.52,4.52,0,0,1,.23.77c0,.07,0,.15-.32.19l-.38.06a.25.25,0,0,0,0,.39c.55,0,1,0,1.61,0s1.26,0,1.84,0c.11-.07.08-.34,0-.39l-.45-.07c-.44-.08-.55-.33-.8-1l-1.62-4.43c-.3-.8-.44-1.22-.54-1.55,0-.17-.12-.22-.27-.22a2.4,2.4,0,0,1-1,.68,3.86,3.86,0,0,1-.46,1.43l-1.07,2.76c-.32.81-.52,1.36-.74,1.81a.8.8,0,0,1-.73.56l-.32,0c-.08.09-.1.33,0,.39.55,0,.82,0,1.23,0s1,0,1.4,0c.12-.06.1-.32,0-.39l-.36-.06c-.33-.06-.43-.12-.43-.19a1.27,1.27,0,0,1,.08-.41l.44-1.31c.07-.21.11-.23.39-.23Z" transform="translate(-214.47 -319.18)"/><path class="cls-6" d="M277.65,462.87c0-.27,0-.33-.29-.33h-.74c-.87,0-1.12.45-1.48,1.28a.35.35,0,0,1-.44-.1,13.16,13.16,0,0,0,.39-1.92.29.29,0,0,1,.17-.06.28.28,0,0,1,.17,0c.06.19.1.24,1,.24h4.44c.79,0,1,0,1.07-.25a.3.3,0,0,1,.15,0,.26.26,0,0,1,.18.08,7.57,7.57,0,0,0-.18,1.94c-.06.1-.38.12-.44,0-.2-.72-.37-1.25-1.26-1.25h-.72c-.29,0-.32,0-.32.33v5c0,1.05.07,1.13.61,1.21l.48.06a.34.34,0,0,1,0,.39l-1.91,0-2,0a.31.31,0,0,1,0-.39l.54-.06c.54-.08.61-.16.61-1.21Z" transform="translate(-214.47 -319.18)"/><path class="cls-6" d="M285.36,465c0,.32,0,.34.33.34h.82c.62,0,.75-.08.88-.62l.06-.28c.08-.09.38-.09.44,0,0,.36,0,.77,0,1.2s0,.84,0,1.2a.36.36,0,0,1-.44,0l-.06-.28c-.13-.54-.26-.63-.88-.63h-.82c-.32,0-.33,0-.33.35v1.34a2,2,0,0,0,.19,1.07c.16.2.38.29,1.25.29,1,0,1.44,0,2.1-1.31a.3.3,0,0,1,.44.06,6.13,6.13,0,0,1-.5,1.81c-.63,0-1.78,0-2.76,0h-1.55l-2.05,0a.31.31,0,0,1,0-.39L283,469c.54-.07.61-.15.61-1.19v-4.21c0-1-.07-1.11-.61-1.2l-.3-.06a.27.27,0,0,1,0-.39c.56,0,1.15,0,1.72,0H287c.76,0,1.44,0,1.6,0,0,.18.1,1,.15,1.75,0,.12-.32.15-.44,0a2.55,2.55,0,0,0-.45-.89,1.63,1.63,0,0,0-1.17-.35h-1c-.39,0-.39,0-.39.44Z" transform="translate(-214.47 -319.18)"/><path class="cls-6" d="M292.05,469.66a4.33,4.33,0,0,1-2-.43,3.5,3.5,0,0,1-.38-1.83.3.3,0,0,1,.45,0,2.5,2.5,0,0,0,2.05,1.77,1.16,1.16,0,0,0,1.29-1.14c0-.91-.91-1.46-1.62-1.8A2.65,2.65,0,0,1,290,464c0-1.28,1-2.16,2.77-2.16a5.12,5.12,0,0,1,1.36.18,3,3,0,0,0,.41.09,5.22,5.22,0,0,1,.21,1.62c-.06.14-.36.15-.46,0-.2-.58-.72-1.4-1.57-1.4a1.08,1.08,0,0,0-1.22,1.05c0,.52.49,1,1.09,1.29l.79.4a2.59,2.59,0,0,1,1.68,2.27C295.06,468.75,293.85,469.66,292.05,469.66Z" transform="translate(-214.47 -319.18)"/><path class="cls-6" d="M305.52,465.86c0,1.83-.61,3.28-2.17,3.28-1.94,0-2.46-2.21-2.46-3.59,0-1.89.79-3.19,2.25-3.19S305.52,463.93,305.52,465.86Zm-2.28-4a4,4,0,0,0-4.26,4c0,2.36,1.74,3.85,4.14,3.85,2.56,0,4.3-1.48,4.3-3.94A3.85,3.85,0,0,0,303.24,461.84Z" transform="translate(-214.47 -319.18)"/><path class="cls-6" d="M311,465c0,.31,0,.34.33.34h.92c.63,0,.75-.08.88-.63l.06-.27a.38.38,0,0,1,.45,0c0,.36,0,.78,0,1.21s0,.84,0,1.17a.38.38,0,0,1-.45,0l-.06-.27c-.13-.54-.25-.63-.88-.63h-.92c-.32,0-.33,0-.33.34v1.53c0,1.05.07,1.13.61,1.21l.44.06a.34.34,0,0,1,0,.39c-.74,0-1.32,0-1.9,0l-1.86,0a.31.31,0,0,1,0-.39l.39-.06c.54-.08.61-.16.61-1.21v-4.2c0-1.05-.07-1.13-.61-1.23l-.24,0c-.11-.07-.11-.35,0-.39.51,0,1.11,0,1.68,0h2.5c.76,0,1.44,0,1.61,0,0,.19,0,1,0,1.76,0,.13-.31.14-.45,0a2.72,2.72,0,0,0-.35-.88,1.46,1.46,0,0,0-1.17-.37h-.93c-.39,0-.39,0-.39.46Z" transform="translate(-214.47 -319.18)"/><path class="cls-6" d="M320.6,465c0,.32,0,.34.33.34h.82c.62,0,.75-.08.88-.62l.06-.28c.08-.09.38-.09.44,0,0,.36,0,.77,0,1.2s0,.84,0,1.2a.36.36,0,0,1-.44,0l-.06-.28c-.13-.54-.26-.63-.88-.63h-.82c-.32,0-.33,0-.33.35v1.34a2,2,0,0,0,.19,1.07c.16.2.38.29,1.25.29,1,0,1.44,0,2.1-1.31a.3.3,0,0,1,.44.06,6.11,6.11,0,0,1-.5,1.81c-.63,0-1.78,0-2.75,0h-1.55l-2.05,0a.31.31,0,0,1,0-.39l.56-.08c.54-.07.61-.15.61-1.19v-4.21c0-1-.07-1.11-.61-1.2l-.3-.06a.27.27,0,0,1,0-.39c.56,0,1.15,0,1.72,0h2.53c.76,0,1.44,0,1.6,0,0,.18.1,1,.16,1.75,0,.12-.32.15-.44,0a2.55,2.55,0,0,0-.45-.89,1.63,1.63,0,0,0-1.17-.35h-1c-.39,0-.39,0-.39.44Z" transform="translate(-214.47 -319.18)"/><path class="cls-6" d="M327.38,466.32c-.3,0-.37,0-.25-.34l.3-.85a13.19,13.19,0,0,1,.49-1.24c.11.24.26.7.43,1.19l.31.91c.11.29,0,.33-.24.33Zm1.1.6c.42,0,.51,0,.57.2l.32,1a4.62,4.62,0,0,1,.23.77c0,.07,0,.15-.32.19l-.38.06a.25.25,0,0,0,0,.39c.55,0,1,0,1.61,0s1.26,0,1.84,0c.11-.07.08-.34,0-.39l-.45-.07c-.44-.08-.55-.33-.8-1l-1.62-4.43c-.3-.8-.44-1.22-.54-1.55,0-.17-.12-.22-.27-.22a2.4,2.4,0,0,1-1,.68,3.81,3.81,0,0,1-.46,1.43l-1.07,2.76c-.32.81-.53,1.36-.74,1.81a.8.8,0,0,1-.73.56l-.32,0c-.08.09-.1.33,0,.39.55,0,.82,0,1.23,0s1,0,1.4,0c.12-.06.09-.32,0-.39l-.36-.06c-.33-.06-.43-.12-.43-.19a1.29,1.29,0,0,1,.08-.41l.44-1.31c.07-.21.11-.23.39-.23Z" transform="translate(-214.47 -319.18)"/><path class="cls-6" d="M334.74,469.66a4.33,4.33,0,0,1-2-.43,3.5,3.5,0,0,1-.38-1.83.3.3,0,0,1,.45,0,2.5,2.5,0,0,0,2.05,1.77,1.16,1.16,0,0,0,1.29-1.14c0-.91-.91-1.46-1.62-1.8a2.65,2.65,0,0,1-1.8-2.2c0-1.28,1-2.16,2.77-2.16a5.12,5.12,0,0,1,1.36.18,3,3,0,0,0,.41.09,5.22,5.22,0,0,1,.21,1.62c-.06.14-.36.15-.46,0-.2-.58-.72-1.4-1.58-1.4a1.08,1.08,0,0,0-1.22,1.05c0,.52.49,1,1.08,1.29l.79.4a2.59,2.59,0,0,1,1.68,2.27C337.74,468.75,336.54,469.66,334.74,469.66Z" transform="translate(-214.47 -319.18)"/><path class="cls-6" d="M341.13,462.87c0-.27,0-.33-.29-.33h-.74c-.87,0-1.12.45-1.48,1.28a.35.35,0,0,1-.44-.1,13.16,13.16,0,0,0,.39-1.92.29.29,0,0,1,.17-.06.28.28,0,0,1,.17,0c.06.19.1.24,1,.24h4.44c.79,0,1,0,1.07-.25a.3.3,0,0,1,.16,0,.26.26,0,0,1,.18.08,7.62,7.62,0,0,0-.18,1.94c-.06.1-.38.12-.44,0-.2-.72-.37-1.25-1.26-1.25h-.72c-.29,0-.32,0-.32.33v5c0,1.05.07,1.13.61,1.21l.48.06a.34.34,0,0,1,0,.39l-1.91,0-2,0a.31.31,0,0,1,0-.39l.54-.06c.54-.08.61-.16.61-1.21Z" transform="translate(-214.47 -319.18)"/><path class="cls-6" d="M351.49,462.87c0-.27,0-.33-.29-.33h-.74c-.87,0-1.12.45-1.48,1.28a.35.35,0,0,1-.44-.1,13.16,13.16,0,0,0,.39-1.92.29.29,0,0,1,.17-.06.28.28,0,0,1,.17,0c.06.19.09.24,1,.24h4.44c.79,0,1,0,1.07-.25a.3.3,0,0,1,.16,0,.26.26,0,0,1,.18.08,7.63,7.63,0,0,0-.18,1.94c-.06.1-.38.12-.44,0-.2-.72-.37-1.25-1.26-1.25h-.72c-.29,0-.32,0-.32.33v5c0,1.05.07,1.13.61,1.21l.48.06a.34.34,0,0,1,0,.39l-1.91,0-2,0a.31.31,0,0,1,0-.39l.54-.06c.54-.08.61-.16.61-1.21Z" transform="translate(-214.47 -319.18)"/><path class="cls-6" d="M359.21,465c0,.32,0,.34.33.34h.82c.62,0,.75-.08.88-.62l.06-.28c.08-.09.38-.09.44,0,0,.36,0,.77,0,1.2s0,.84,0,1.2a.36.36,0,0,1-.44,0l-.06-.28c-.13-.54-.26-.63-.88-.63h-.82c-.32,0-.33,0-.33.35v1.34a1.94,1.94,0,0,0,.19,1.07c.15.2.38.29,1.25.29,1,0,1.44,0,2.1-1.31a.3.3,0,0,1,.44.06,6.14,6.14,0,0,1-.5,1.81c-.63,0-1.78,0-2.75,0h-1.55l-2.05,0a.31.31,0,0,1,0-.39l.56-.08c.54-.07.61-.15.61-1.19v-4.21c0-1-.07-1.11-.61-1.2l-.3-.06a.27.27,0,0,1,0-.39c.56,0,1.14,0,1.72,0h2.53c.76,0,1.44,0,1.6,0,0,.18.1,1,.15,1.75,0,.12-.32.15-.44,0a2.55,2.55,0,0,0-.45-.89,1.62,1.62,0,0,0-1.17-.35h-1c-.39,0-.39,0-.39.44Z" transform="translate(-214.47 -319.18)"/><path class="cls-6" d="M363.35,469.1a1.94,1.94,0,0,0,1.38-.95c.35-.43,1-1.27,1.48-2a.78.78,0,0,0,.17-.35.77.77,0,0,0-.19-.36c-.39-.55-1.16-1.67-1.7-2.43a1.38,1.38,0,0,0-1.06-.61l-.2,0a.27.27,0,0,1,0-.39c.38,0,1.13,0,1.86,0,1,0,1.44,0,1.81,0,.13.06.13.3,0,.39l-.26,0c-.19,0-.41.09-.41.17a1.09,1.09,0,0,0,.19.44c.33.53.68,1.05,1,1.56.44-.63.8-1.12,1.18-1.71a.7.7,0,0,0,.13-.34s-.08-.08-.24-.11l-.38-.06c-.1-.08-.1-.34,0-.39.37,0,.81,0,1.37,0s1,0,1.38,0c.12.06.13.29,0,.39l-.38,0a1.1,1.1,0,0,0-.68.28,20.44,20.44,0,0,0-1.78,2,1.35,1.35,0,0,0-.24.38.8.8,0,0,0,.17.35c.89,1.31,1.48,2.16,1.91,2.77a1.54,1.54,0,0,0,1.17.81l.37,0a.3.3,0,0,1,0,.39c-.53,0-.89,0-1.86,0s-1.36,0-2,0c-.11,0-.16-.34,0-.39l.32,0c.3,0,.44-.09.44-.16s0-.19-.35-.67c-.18-.3-1-1.57-1.22-1.79a22.86,22.86,0,0,0-1.4,2.16.68.68,0,0,0-.11.3c0,.07.13.1.38.15l.31,0c.11.08.09.35,0,.39-.52,0-1.13,0-1.63,0s-.89,0-1.25,0c-.12-.06-.16-.3,0-.37Z" transform="translate(-214.47 -319.18)"/><path class="cls-6" d="M373.91,466.32c-.3,0-.37,0-.25-.34l.3-.85a13.22,13.22,0,0,1,.49-1.24c.11.24.26.7.43,1.19l.31.91c.11.29,0,.33-.24.33Zm1.1.6c.42,0,.51,0,.57.2l.32,1a4.52,4.52,0,0,1,.23.77c0,.07,0,.15-.32.19l-.38.06a.25.25,0,0,0,0,.39c.55,0,1,0,1.61,0s1.26,0,1.84,0c.11-.07.08-.34,0-.39l-.45-.07c-.44-.08-.55-.33-.8-1L376,463.61c-.3-.8-.44-1.22-.54-1.55,0-.17-.12-.22-.27-.22a2.4,2.4,0,0,1-1,.68,3.83,3.83,0,0,1-.46,1.43l-1.07,2.76c-.32.81-.52,1.36-.74,1.81a.8.8,0,0,1-.73.56l-.32,0c-.08.09-.1.33,0,.39.55,0,.82,0,1.23,0s1,0,1.39,0c.12-.06.1-.32,0-.39l-.36-.06c-.33-.06-.43-.12-.43-.19a1.29,1.29,0,0,1,.08-.41l.44-1.31c.07-.21.11-.23.39-.23Z" transform="translate(-214.47 -319.18)"/><path class="cls-6" d="M381.27,469.66a4.33,4.33,0,0,1-2-.43,3.5,3.5,0,0,1-.38-1.83.3.3,0,0,1,.45,0,2.5,2.5,0,0,0,2.05,1.77,1.16,1.16,0,0,0,1.29-1.14c0-.91-.91-1.46-1.62-1.8a2.65,2.65,0,0,1-1.8-2.2c0-1.28,1-2.16,2.77-2.16a5.12,5.12,0,0,1,1.36.18,2.94,2.94,0,0,0,.41.09,5.22,5.22,0,0,1,.21,1.62c-.06.14-.36.15-.47,0-.2-.58-.71-1.4-1.57-1.4a1.08,1.08,0,0,0-1.22,1.05c0,.52.49,1,1.09,1.29l.79.4a2.59,2.59,0,0,1,1.68,2.27C384.28,468.75,383.07,469.66,381.27,469.66Z" transform="translate(-214.47 -319.18)"/><line class="cls-7" x1="2.32" y1="136.73" x2="181.29" y2="136.73"/><line class="cls-7" x1="0.94" y1="72.67" x2="179.9" y2="72.67"/><path class="cls-8" d="M245.11,403.1v20.43c7.1,0,10.88-1.07,11.24-8.68h2.07V434.7h-2.07c-.67-7.9-3.25-9.61-11.24-9.39v21.78h10.5c9.62,0,11.69-5.48,13.24-13.52H271l-.67,15.3H228.24v-1.78h7.4v-44h-7.4v-1.78h40.91l.44,12.81h-2.07c-1.55-6.83-4.36-9.46-8.14-10.46a25.34,25.34,0,0,0-6.44-.57Z" transform="translate(-214.47 -319.18)"/><path class="cls-8" d="M322.37,449.79h-1.6l-29.83-42.35V444c0,1.78,1,2.49,2.72,2.63h4v2.14H282.3v-2.14h3.35c2.37-.14,2.51-1.64,2.51-3.7V407.73c0-3.49.63-4.41-3.55-4.41h-2.3v-2.13h18.4l19.58,28.19v-24c0-1.42-2.86-2.06-4.6-2.06h-2v-2.13h14.7v2.13h-2.93c-2,0-3.14.64-3.14,2.06Z" transform="translate(-214.47 -319.18)"/><path class="cls-8" d="M349.37,448.73v-1.78h7.77V403c-10.43-.5-13.61,4.34-14.94,13.45h-2.37l.81-15.23H383l.81,15.23h-2.29c-1.33-9.11-4.51-13.95-14.94-13.45v44h7.77v1.78Z" transform="translate(-214.47 -319.18)"/><path class="cls-9" d="M246.38,403.32v20.43c7.1,0,10.88-1.07,11.24-8.68h2.07V435h-2.07c-.67-7.9-3.25-9.65-11.24-9.43V447.3h10.5c9.62,0,11.69-5.48,13.24-13.52h2.15l-.67,15.3H229.51V447.3h7.4v-44h-7.4v-1.78h40.91l.44,12.81h-2.07c-1.55-6.83-4.36-9.47-8.14-10.46a25.39,25.39,0,0,0-6.44-.57Z" transform="translate(-214.47 -319.18)"/><path class="cls-10" d="M323.64,450H322l-29.83-42.29v36.46c0,1.78,1,2.49,2.72,2.63h4v2.13H283.57v-2.13h3.35c2.37-.14,2.51-1.63,2.51-3.7V408c0-3.48.63-4.41-3.55-4.41h-2.3v-2.13H302l19.58,28.15v-24c0-1.42-2.86-2.06-4.6-2.06h-2v-2.13h14.71v2.13h-2.93c-2,0-3.14.64-3.14,2.06Z" transform="translate(-214.47 -319.18)"/><path class="cls-11" d="M350.64,448.93v-1.77h7.77V403.43c-10.43-.5-13.61,4.32-14.94,13.37H341.1l.81-15.14H384.3l.81,15.14h-2.29c-1.33-9.06-4.51-13.87-14.94-13.37v43.73h7.77v1.77Z" transform="translate(-214.47 -319.18)"/></svg>