<svg xmlns="http://www.w3.org/2000/svg" viewBox="0 0 281.4 69.64"><defs><style>.a{fill:#cea154;}.b{fill:#1b3664;}</style></defs><title>sona</title><path class="a" d="M98.75,65.26l.11-12.08,7.25,9.57a15.58,15.58,0,0,1-7.36,2.51Zm-9.86-2.19L96,53.26l0,12a16.16,16.16,0,0,1-7.1-2.22Zm-6.62-7.58,11.46-3.83-7.08,9.81a16.15,16.15,0,0,1-4.38-6Zm-.89-10.05,11.5,3.61L81.41,52.88a16.4,16.4,0,0,1,0-7.44Zm2.69-5.92a16.88,16.88,0,0,1,2.55-2.77l7.11,9.67L82.24,42.81a16.94,16.94,0,0,1,1.83-3.29ZM96,32.75v12L88.85,35.1A16.46,16.46,0,0,1,96,32.75Zm9.86,2.19-7.08,9.81,0-12a16.29,16.29,0,0,1,7.1,2.22Zm6.63,7.58L101,46.35l7.08-9.81a16.08,16.08,0,0,1,4.39,6Zm1.1,3.77a16.35,16.35,0,0,1-.21,6.28L101.82,49l11.47-3.83c.09.39.19.77.25,1.16Zm-2.91,12.2a16.88,16.88,0,0,1-2.55,2.77L101,51.59l11.49,3.61a17.42,17.42,0,0,1-1.83,3.29Zm2.65,9.84-2.76-3.74a20.22,20.22,0,0,0,5.89-8.14l4.44,1.39a1.39,1.39,0,0,0,1.74-.9,1.36,1.36,0,0,0-.89-1.73l-4.42-1.39a20.46,20.46,0,0,0,.35-8.22c-.09-.6-.22-1.2-.37-1.79l4.42-1.48a1.39,1.39,0,0,0,.89-1.75,1.37,1.37,0,0,0-1.75-.86l-4.43,1.48a19.94,19.94,0,0,0-5.91-8l2.74-3.8a1.37,1.37,0,0,0-.31-1.92,1.39,1.39,0,0,0-1.93.32l-2.74,3.8a20.15,20.15,0,0,0-9.54-3V23.91a1.36,1.36,0,0,0-1.39-1.36,1.4,1.4,0,0,0-1.38,1.39v4.65a20.92,20.92,0,0,0-9.54,3.18L83.66,28a1.39,1.39,0,0,0-2.24,1.64l2.75,3.74a20,20,0,0,0-5.88,8.15l-4.44-1.4a1.39,1.39,0,0,0-1.74.91A1.35,1.35,0,0,0,73,42.8l4.44,1.4a20.51,20.51,0,0,0,0,10L73,55.68a1.39,1.39,0,0,0-.89,1.75,1.36,1.36,0,0,0,1.74.86l4.45-1.48a20.08,20.08,0,0,0,5.9,8l-2.74,3.8a1.37,1.37,0,0,0,.31,1.92,1.39,1.39,0,0,0,1.93-.32l2.74-3.8a20.15,20.15,0,0,0,9.54,3V74.1a1.36,1.36,0,0,0,1.39,1.36,1.4,1.4,0,0,0,1.38-1.39V69.42A22.49,22.49,0,0,0,108.58,66l2.75,3.74a1.28,1.28,0,0,0,1.82.41,1.2,1.2,0,0,0,.13-1.79Z" transform="translate(-45.27 -22.55)"/><path class="b" d="M45.27,68.6V55.79h1.47Q49.23,68.3,58.58,68.31a8.61,8.61,0,0,0,6.51-2.4,7.53,7.53,0,0,0,2.31-5.36,6.82,6.82,0,0,0-2-5q-2-2-7.41-4.3a55.09,55.09,0,0,1-7.22-3.59,11,11,0,0,1-3.81-4,10.67,10.67,0,0,1-1.37-5.26,9.42,9.42,0,0,1,3-7.09A10.37,10.37,0,0,1,56,28.43a13.65,13.65,0,0,1,4.76.83,12.18,12.18,0,0,1,4.58,3.4,6.3,6.3,0,0,0,1.53-3.49h1.29V39.6H66.87a14,14,0,0,0-4-7.17,9.41,9.41,0,0,0-6.57-2.62c-2.37,0-4.11.65-5.22,1.93A6.35,6.35,0,0,0,49.47,36a6.11,6.11,0,0,0,2.09,4.68A28.61,28.61,0,0,0,59,45a75.91,75.91,0,0,1,7.48,3.68,10.41,10.41,0,0,1,3.75,3.87,11.26,11.26,0,0,1,1.41,5.7,10.88,10.88,0,0,1-3.41,8.31,12.74,12.74,0,0,1-9.11,3.21,13.91,13.91,0,0,1-10.93-5,9.91,9.91,0,0,0-1.44,3.88Z" transform="translate(-45.27 -22.55)"/><path class="b" d="M158.22,77.5H143.08l-1,2.53q-2.3,5.49-2.3,7.17A3.19,3.19,0,0,0,141,89.91a5,5,0,0,0,3.13.93v1.35H132.27V90.84A6.4,6.4,0,0,0,136.21,89a22.81,22.81,0,0,0,3.11-6.12c.1-.3.57-1.43,1.41-3.41l11.58-27.65h1.15l13.31,31.64,1.82,4.18a5.51,5.51,0,0,0,1.66,2.22,6.11,6.11,0,0,0,3.13,1v1.35H157.72V90.84a11.44,11.44,0,0,0,3.89-.43,1.64,1.64,0,0,0,1-1.69,17.22,17.22,0,0,0-1.35-3.85Zm-.5-1.32-7.06-17-7,17Z" transform="translate(-45.27 -22.55)"/><path class="b" d="M184.09,48.08q6.78.49,10.08,3.38a9.16,9.16,0,0,1,3.29,7.19,9.88,9.88,0,0,1-2.24,6.48,10.25,10.25,0,0,1-5.71,3.56,41.34,41.34,0,0,1-9.33.84H164.55V68.18h1.52a6.94,6.94,0,0,0,3.55-.65,2.93,2.93,0,0,0,1.24-2,44.2,44.2,0,0,0,.27-6.37V39.76a41.53,41.53,0,0,0-.28-6.26,2.72,2.72,0,0,0-1.18-1.94,9.15,9.15,0,0,0-3.92-.53H165V29.68l6.55-.18,7.46-.23q16.35,0,16.34,9.4a7.7,7.7,0,0,1-2.8,6.23Q189.74,47.26,184.09,48.08Zm-7.2-.56,1.23,0q6.34,0,8.67-2t2.32-6.47a10.38,10.38,0,0,0-.91-4.82,6.26,6.26,0,0,0-2.73-2.63c-1.22-.61-3.29-.92-6.23-.92-.76,0-1.55,0-2.35.09Zm0,1.44v8.87q0,5.67.2,7.2a3.62,3.62,0,0,0,1.11,2.32c.59.53,1.77.8,3.54.8,3.13,0,5.48-.81,7-2.41s2.35-4,2.35-7.23-.89-5.72-2.66-7.28-4.89-2.33-9.36-2.33C178.42,48.9,177.67,48.92,176.89,49Z" transform="translate(-45.27 -22.55)"/><path class="b" d="M222.93,54.83H207.8l-1,2.53q-2.29,5.49-2.29,7.17a3.2,3.2,0,0,0,1.21,2.72,5,5,0,0,0,3.13.93v1.35H197V68.18a6.4,6.4,0,0,0,3.94-1.87A22.75,22.75,0,0,0,204,60.18c.1-.29.57-1.43,1.42-3.41L217,29.12h1.15l13.31,31.65,1.82,4.17A5.6,5.6,0,0,0,235,67.16a6.11,6.11,0,0,0,3.13,1v1.35H222.43V68.18a11.71,11.71,0,0,0,3.89-.43,1.65,1.65,0,0,0,1-1.69A17.22,17.22,0,0,0,226,62.21Zm-.5-1.32-7.05-17-7,17Z" transform="translate(-45.27 -22.55)"/><path class="b" d="M273.26,70.44,245.08,33.09V60.74a18.67,18.67,0,0,0,.34,4.53,3.77,3.77,0,0,0,1.92,2,9.77,9.77,0,0,0,4.76.92v1.35H237.23V68.18a10.71,10.71,0,0,0,4.35-1.05,3.4,3.4,0,0,0,1.78-1.81,21.7,21.7,0,0,0,.28-4.58V39.61a27.76,27.76,0,0,0-.43-6.14,2.88,2.88,0,0,0-1.35-2,11.94,11.94,0,0,0-4.13-.44V29.68h11.76l23.59,31.18V37a8.94,8.94,0,0,0-.54-3.71,3.82,3.82,0,0,0-2.22-1.67,11.67,11.67,0,0,0-4-.62V29.68h14.45V31a10.57,10.57,0,0,0-4,1,3.62,3.62,0,0,0-1.85,1.84,11.68,11.68,0,0,0-.4,3.63v33Z" transform="translate(-45.27 -22.55)"/><path class="b" d="M293.41,50l12.16-11q4.24-3.8,4.24-5.41,0-2.45-4.24-2.56V29.68h15V31a10.25,10.25,0,0,0-3.72.8,14.23,14.23,0,0,0-3.42,2c-1,.83-3,2.56-5.79,5.21l-7.26,6.7L315.33,60.8a53.53,53.53,0,0,0,6.85,6.29,8.36,8.36,0,0,0,4.49,1.09v1.35H306V68.18h.79c2.23,0,3.62-.19,4.17-.56a1.63,1.63,0,0,0,.82-1.38q0-1.24-4.26-5.5L296.26,49.4l-2.85,2.5v7.25a51.11,51.11,0,0,0,.23,6.16,3.22,3.22,0,0,0,1.19,2.16,6.63,6.63,0,0,0,3.66.71h.77v1.35h-17.9V68.18h1.24a6.92,6.92,0,0,0,3.54-.65,3,3,0,0,0,1.26-2,42.16,42.16,0,0,0,.28-6.37V39.61a37.3,37.3,0,0,0-.31-6.29,2.52,2.52,0,0,0-1.22-1.82,11.75,11.75,0,0,0-4.26-.47V29.68h17.63V31h-.73a9.52,9.52,0,0,0-3.85.49,2.52,2.52,0,0,0-1.22,1.8,37,37,0,0,0-.31,6.29Z" transform="translate(-45.27 -22.55)"/><path class="b" d="M100.47,87a19.1,19.1,0,0,1-.34-4.53l0-13.24c-.62.08-.77.1-1.42.16V82.49a22.94,22.94,0,0,1-.27,4.59,3.44,3.44,0,0,1-1.78,1.81,10.9,10.9,0,0,1-4.35,1v1.35h14.87V89.93A9.74,9.74,0,0,1,102.4,89,3.88,3.88,0,0,1,100.47,87Z" transform="translate(-45.27 -22.55)"/><path class="b" d="M121.35,51.43v1.36a11.75,11.75,0,0,1,4,.61,3.79,3.79,0,0,1,2.21,1.68,8.69,8.69,0,0,1,.55,3.7V82.61l-23.6-31.18H92.79v1.36a11.76,11.76,0,0,1,4.13.44,2.91,2.91,0,0,1,1.35,2,28.67,28.67,0,0,1,.42,6.15v3.94c.37,0,.84-.11,1.44-.22V54.84l28.18,37.35h1.27v-33a11.84,11.84,0,0,1,.39-3.63,3.67,3.67,0,0,1,1.86-1.83,10.34,10.34,0,0,1,4-1V51.43Z" transform="translate(-45.27 -22.55)"/><polygon class="a" points="271.04 55.68 97.51 55.71 98.63 53.04 269.39 53.16 271.04 55.68"/></svg>