<svg xmlns="http://www.w3.org/2000/svg" viewBox="0 0 1165.63 682.15"><defs><style>.a{fill:#6a6d6b;}.b{fill:#6a6e6c;}</style></defs><title>yankee</title><path class="a" d="M335.26,295.18c.5.95,1,1.85,1.46,2.77,5.37,10.86,10.86,21.65,17.18,32,10.63,17.42,22.75,33.68,37.38,48a218.47,218.47,0,0,0,18.23,16.19,188.53,188.53,0,0,0,41.34,24.59,194.85,194.85,0,0,0,70.4,15.6c14.79.58,29.48,0,44-2.84a145.74,145.74,0,0,0,37.82-12.61A126.7,126.7,0,0,0,629.93,401a100.12,100.12,0,0,0,15.31-16.69A10.3,10.3,0,0,0,647.3,380c.4-2.29-.81-3.47-3.1-3a8.87,8.87,0,0,0-3.75,1.94c-1,.77-1.86,1.6-2.77,2.42a133.59,133.59,0,0,1-44.77,26.25c-16.32,5.86-33.24,8.66-50.47,9.63a182.69,182.69,0,0,1-35.36-1.45,165.53,165.53,0,0,1-45.36-12.9,178.27,178.27,0,0,1-37.7-23,212.65,212.65,0,0,1-23.77-22.33,243.36,243.36,0,0,1-24.35-31.31,318.25,318.25,0,0,1-23.13-42c-1-2.2-1-2.31,1.07-4l66.1-53.15,34.95-28.07c.41-.33,1.1-.48.73-1.38-4.88,0-9.81.11-14.73,0a25.22,25.22,0,0,0-17.25,6.05c-6.58,5.39-13.27,10.65-19.94,15.94Q381.8,237,359.88,254.36,333.69,275,307.66,295.81c-.68.55-1.26,1.41-2.65,1.42v-27q0-31.84,0-63.7c0-6.07-2.77-8.81-8.87-8.89-2.09,0-4.17,0-6.26,0-4.39.05-3.81-.59-3.81,3.7q0,87.15,0,174.31a16.05,16.05,0,0,1,0,1.7c-.18,1.5.48,1.95,1.94,1.93q7.25-.1,14.5,0c1.42,0,2.15-.36,2-1.9a16.52,16.52,0,0,1,0-2c0-18.2,0-36.4-.05-54.6a4.48,4.48,0,0,1,2-4c8.39-6.31,16.71-12.71,25.06-19.08A16.31,16.31,0,0,1,335.26,295.18Z" transform="translate(307.63 -172.81)"/><path class="a" d="M442.4,296.83a119.15,119.15,0,0,0,3,22.42c4.07,17.76,12,33.36,25.25,46.14a82.11,82.11,0,0,0,28.09,17.8,101.58,101.58,0,0,0,41.09,6.41,127.78,127.78,0,0,0,13-1.14,101.24,101.24,0,0,0,38.32-14.14,100,100,0,0,0,16-12.18,46.84,46.84,0,0,0,8.46-9.53,9.12,9.12,0,0,0,1.54-5.36c-.1-2.18-.76-2.78-3-2.82a5,5,0,0,0-3.37,1.27c-.73.6-1.44,1.23-2.14,1.86-16,14.58-35,22.21-56.31,24.11a88.86,88.86,0,0,1-23.19-.89c-22.73-3.94-40.72-15.27-53.36-34.62a74.3,74.3,0,0,1-12-40.21c0-2.48,0-2.48,2.48-2.51H616.62c.76,0,1.52,0,2.28,0a5.21,5.21,0,0,0,5.12-4.74,11.44,11.44,0,0,0,0-2.55c-.32-3.28-.71-6.56-1-9.84a112.93,112.93,0,0,0-8.52-33.66,77,77,0,0,0-19.64-27.51c-11.08-9.76-24.16-15.34-38.6-18a120.68,120.68,0,0,0-24.75-1.75,94.94,94.94,0,0,0-14.09,1.24c-20,3.48-37,12.61-50.52,27.74-16.44,18.4-24,40.35-24.77,64.83C442,291.74,442.31,294.29,442.4,296.83Zm33.27-51.7c10-15.12,24-24.69,41.57-28.91a84.18,84.18,0,0,1,50.49,4.67,57.63,57.63,0,0,1,27.18,25.23,76.48,76.48,0,0,1,8.43,25.71c.53,3.33-.81,5.18-4.51,5.14-13.36-.13-26.73-.05-40.09-.05h-91a8,8,0,0,1-3.45-.31A72.31,72.31,0,0,1,475.67,245.13Z" transform="translate(307.63 -172.81)"/><path class="a" d="M832.85,273.44a100.29,100.29,0,0,0-7-28.83c-9.29-23.06-25.8-38.27-49.75-45.25-11.14-3.24-22.53-4.21-34.12-4a101.31,101.31,0,0,0-23.54,3.08,85.46,85.46,0,0,0-39.1,22,87.63,87.63,0,0,0-18.92,27.73A97,97,0,0,0,652.59,280a117,117,0,0,0,.27,20.41,103.11,103.11,0,0,0,5.6,25.1,82,82,0,0,0,48,49.55c12.93,5.08,26.45,6.89,40.25,7,2.27,0,4.52-.23,6.78-.33a100.3,100.3,0,0,0,26.12-4.77,95.23,95.23,0,0,0,35-19.85c3.44-3.09,6.76-6.36,9.11-10.45a11,11,0,0,0,1.65-5.65c0-1.66-.73-2.38-2.37-2.65s-3.08.56-4.34,1.66c-16.73,14.58-36.48,21.86-58.33,23.75a103.66,103.66,0,0,1-21-.28,79.21,79.21,0,0,1-26.54-7.71,67.77,67.77,0,0,1-33.26-35.42A73.22,73.22,0,0,1,674,296.67c-.25-3.77-.3-3.22,3.09-3.22q37.53,0,75.07,0H827a21.66,21.66,0,0,0,2.55-.05,4.78,4.78,0,0,0,4.43-4.71,14.46,14.46,0,0,0,0-2.28Q833.43,279.92,832.85,273.44Zm-19.42.28c-.17,2-1.22,3-3.28,3.19-.57,0-1.14,0-1.71,0H677.12a5.76,5.76,0,0,1-2.68-.26,73.47,73.47,0,0,1,4-17.51,66.35,66.35,0,0,1,15.39-24.88,65.47,65.47,0,0,1,26.32-16.16,69.85,69.85,0,0,1,17.7-3.63c16.53-1,32.46,1.24,46.89,10.13A57.07,57.07,0,0,1,804.92,246a79.22,79.22,0,0,1,8.38,25.14A9.83,9.83,0,0,1,813.43,273.72Z" transform="translate(307.63 -172.81)"/><path class="a" d="M83.73,375.79c0,.48,0,.95,0,1.43.05,2,.06,2.07,2,2.09q6.41,0,12.8,0c4.36,0,3.77.51,3.77-3.77q0-65.25,0-130.52v-3.19a4.47,4.47,0,0,1,2,1.24q4,4,8.16,7.89c7.71,7.28,15.29,14.7,22.92,22s15.32,14.66,22.92,22.06q7.53,7.33,15.13,14.58,15.65,14.87,31.1,29.94Q212,346.82,219.47,354c6.8,6.45,13.46,13,20.19,19.59,2.58,2.5,5.16,5,7.76,7.49.71.67,1.59,1.28,2.55.76.76-.41.34-1.37.42-2.09a10.84,10.84,0,0,0,0-1.14V201.15a16.24,16.24,0,0,1,0-1.71c.16-1.39-.48-1.8-1.8-1.77-2.94.07-5.88,0-8.82,0-4.6.05-7.64,2.79-8.14,7.38a37.56,37.56,0,0,0-.19,4.25q0,61.42,0,122.84v3.12a2.24,2.24,0,0,1-1.66-.9C224.2,329,218.58,323.65,213,318.2s-11.25-11-16.93-16.39S184.56,290.6,178.76,285s-11.41-11.08-17.15-16.58-11.69-11.34-17.56-17c-5.59-5.38-11.14-10.81-16.75-16.18-9.85-9.43-19.58-19-29.35-28.5L86.34,195.49A5.1,5.1,0,0,0,84,194a7.66,7.66,0,0,0-.27,3.24Q83.72,286.5,83.73,375.79Z" transform="translate(307.63 -172.81)"/><path class="a" d="M-96.48,307.85-116.65,346q-7.89,14.92-15.77,29.85c-.54,1-1.35,2-1.32,3.5,4.27,0,8.43-.12,12.59,0,4.39.15,7.42-1.8,9.5-5.49,1.29-2.31,2.56-4.63,3.77-7,6.89-13.37,13.8-26.74,20.59-40.16a3.48,3.48,0,0,1,3.69-2.21q49.47.08,98.94,0A3.53,3.53,0,0,1,19,326.74c6.27,12.2,12.66,24.33,19,36.48,1.8,3.44,3.54,6.91,5.46,10.28,1.8,3.16,4.26,5.7,8.19,5.78,6.15.12,12.31,0,18.9,0-.61-1.3-1-2.16-1.4-3l-14-26.93q-4.8-9.18-9.61-18.36-10.21-19.47-20.46-38.94c-5.4-10.3-10.76-20.63-16.16-30.94q-10.62-20.23-21.25-40.44c-3.34-6.37-6.63-12.77-10-19.14a15.75,15.75,0,0,0-3.29-4.25,7.11,7.11,0,0,0-4-1.89c-5-.64-7.91.78-10.61,5.73-5.71,10.47-11.16,21.07-16.7,31.62-3.22,6.12-6.39,12.25-9.61,18.36q-9.14,17.33-18.3,34.62Q-90.66,296.8-96.48,307.85Zm62.34-83c14.74,28.25,29.23,56,43.74,83.86-2.29.65-79.07.93-87.63.33C-63.37,280.91-48.89,253.13-34.14,224.83Z" transform="translate(307.63 -172.81)"/><path class="a" d="M760.07,492a61.93,61.93,0,0,0-27.13-27c-11-5.66-22.82-7.77-35-8.33a91.43,91.43,0,0,0-20.87,1.46c-19.29,3.54-35,13-46.64,28.74-9.6,13-14.46,27.72-15.44,43.77-.92,15,1.09,29.61,7.35,43.45a68.53,68.53,0,0,0,28.27,31.65c13.95,8.2,29.3,10.88,45.17,11a88.5,88.5,0,0,0,11.56-.78,85.83,85.83,0,0,0,39.59-15.15,62.93,62.93,0,0,0,13.75-12.62,15.08,15.08,0,0,0,2.57-4.7,3.12,3.12,0,0,0-.57-3.45c-1.12-1.08-2.45-.88-3.73-.44a7.26,7.26,0,0,0-1.92,1.18c-1,.8-2.07,1.65-3.09,2.49a77,77,0,0,1-17.83,11A90.84,90.84,0,0,1,695,601.75a68.4,68.4,0,0,1-30.37-8.22,58.4,58.4,0,0,1-25.94-28.39,73.42,73.42,0,0,1-5.47-21.59c-.13-1.18.23-1.82,1.52-1.73.66,0,1.33,0,2,0h98.39c9.57,0,19.15,0,28.72,0,4.76,0,6-2,6.31-5.81.33-4.77-.42-9.42-1-14.1A87,87,0,0,0,760.07,492Zm-10.36,32.93c-6.17,0-12.33,0-18.49,0H636.8c-2.83,0-2.95-.13-2.45-2.84,2.22-12.08,7-23,15.53-32A55.47,55.47,0,0,1,675,474.8a68,68,0,0,1,22.12-2.73c12.09.56,23.58,3.18,33.68,10.29a50,50,0,0,1,16.69,20,70.67,70.67,0,0,1,5.4,19C753.3,523.67,752.13,524.89,749.71,524.91Z" transform="translate(307.63 -172.81)"/><path class="a" d="M469.24,506A60,60,0,0,0,454,483a68.46,68.46,0,0,0-20-12.79c-14.23-6.21-29.31-8.47-44.64-9.59-5.19-.38-10.4-.33-15.58-.44-15.07-.32-30.14-.1-45.21-.14-1.4,0-2.18.33-2,1.89a18.87,18.87,0,0,1,0,2v73.93q0,37.38,0,74.77c0,3.61-.41,3.3,3.4,3.3,15.54,0,31.09-.08,46.63,0A179.49,179.49,0,0,0,408,613.63c10.78-1.83,21.21-4.75,30.95-9.82,16.5-8.6,27.34-21.81,32.24-39.79A101,101,0,0,0,474,527.21,84.17,84.17,0,0,0,469.24,506Zm-12,36.4c-.54,10.21-2.82,20-8.42,28.76-5.48,8.57-13.19,14.44-22.37,18.53a95,95,0,0,1-25.35,6.89c-6,.87-12,1.36-18,1.77-12.68.86-25.36.35-38,.51-2.44,0-2.46,0-2.46-2.52q0-29.13,0-58.26,0-28.71,0-57.41c0-3.24-.39-3.1,3-3.1,8.52,0,17.05-.14,25.58,0,14.17.25,28.29,1.16,42.12,4.6,9.45,2.35,18.33,6,26,12.19a46.26,46.26,0,0,1,15.22,23.08A72.38,72.38,0,0,1,457.2,542.39Z" transform="translate(307.63 -172.81)"/><path class="a" d="M291.19,463.64c0-.66,0-1.33,0-2,.05-1-.3-1.61-1.44-1.58-2.92.08-5.86-.18-8.77.39a6,6,0,0,0-5.09,5.31,22.45,22.45,0,0,0-.08,2.84V577.79c-1.41-1.17-2.41-1.87-3.27-2.72-5.71-5.68-11.55-11.22-17.34-16.8-5.46-5.26-10.88-10.55-16.36-15.78-11.56-11.06-23-22.22-34.52-33.36-4.49-4.35-8.85-8.84-13.42-13.1-3.19-3-6.24-6.08-9.37-9.11q-14.92-14.39-29.89-28.73c-.78-.74-1.44-2.31-2.58-1.8s-.46,2.05-.46,3.12q0,76.08,0,152.15c0,.19,0,.38,0,.57,0,3.28-.41,3.13,3,3.13,3.23,0,6.45,0,9.67,0,3.69,0,3.27.41,3.27-3.4q0-55.87,0-111.76v-2.93c1-.2,1.3.4,1.67.77,7.71,7.69,15.56,15.25,23.37,22.83,7.61,7.39,15.16,14.84,22.78,22.22,8,7.71,15.84,15.51,23.79,23.22s15.54,15.26,23.39,22.81c9.49,9.13,18.82,18.42,28.25,27.61.81.8,1.52,2.43,2.93,1.65,1.05-.59.46-2.08.47-3.16Q291.2,539.43,291.19,463.64Z" transform="translate(307.63 -172.81)"/><path class="a" d="M-200,294.25q-.06,40.67,0,81.32a18.84,18.84,0,0,1,0,2c-.15,1.42.54,1.78,1.83,1.77q9.39-.06,18.77,0c1.4,0,2.18-.34,2-1.91a16.34,16.34,0,0,1,0-2q0-40.53,0-81c0-2.2.22-4.05,2.09-5.51a21.28,21.28,0,0,0,2.69-2.91q14.1-15.93,28.17-31.88,13.14-14.88,26.24-29.79,14.14-16.06,28.3-32.13c5.48-6.25,10.93-12.52,16.87-19.33-6.63,0-12.57-.16-18.51.07a9.24,9.24,0,0,0-6.46,3.23q-11.86,13.36-23.67,26.77-12.92,14.7-25.77,29.45Q-164,251-180.36,269.65c-1.9,2.15-3.6,4.51-5.87,6.36-6.33-7.16-12.5-14.19-18.73-21.18-8.11-9.11-16.26-18.17-24.38-27.28-7.42-8.32-14.79-16.69-22.22-25s-14.91-16.36-22.1-24.77a13.3,13.3,0,0,0-10.89-4.94c-5.4,0-10.8,0-16.2,0a5.09,5.09,0,0,0-2.4.18c-.2.68.29.93.59,1.26q11.58,13.2,23.19,26.41,17.44,19.95,34.87,39.92Q-223.3,264.84-202,289A7.17,7.17,0,0,1-200,294.25Z" transform="translate(307.63 -172.81)"/><path class="a" d="M128.58,599.74Q116.64,577,104.69,554.25q-11.81-22.5-23.63-45c-7-13.41-14-26.83-21.12-40.21a68.72,68.72,0,0,0-4.31-7.67,7.77,7.77,0,0,0-12.07-1.29A13.53,13.53,0,0,0,40.75,464q-7,13.33-14,26.63Q17.67,507.81,8.56,525q-5.9,11.18-11.78,22.35Q-13.1,566-23,584.71l-15.39,29.12a1.65,1.65,0,0,0-.22,1.53c3.61,0,7.29-.09,11,0a7.1,7.1,0,0,0,7.09-4.21c7-13.52,14.12-27,21.07-40.56a3.9,3.9,0,0,1,4.08-2.52q41.52.12,83,0a4,4,0,0,1,4.1,2.52q7.5,14.65,15.18,29.23c2,3.76,4.09,7.46,6.16,11.18a7.92,7.92,0,0,0,6,4.24c5.27.74,10.58.5,15.87.47,1.59,0,1.78-.5,1-1.94Q132.29,606.77,128.58,599.74ZM9.77,555.38C22.14,531.27,34.53,507.49,47,483.25l37.26,72.13Z" transform="translate(307.63 -172.81)"/><path class="a" d="M-48.93,581.11a3.09,3.09,0,0,0-3.72,0c-1.1.74-2.17,1.53-3.2,2.35a75,75,0,0,1-6.78,5.14,153.68,153.68,0,0,1-24.28,12.3,64.66,64.66,0,0,1-21.8,4.62,89.36,89.36,0,0,1-30.21-3.81,70.87,70.87,0,0,1-24.75-12.93c-8.73-7.19-14.82-16.34-18.94-26.84a78.33,78.33,0,0,1-5.12-37.53,68.71,68.71,0,0,1,5.26-20.51c7.53-17.12,19.82-29.6,37-37.07a76.32,76.32,0,0,1,45.81-5,72.88,72.88,0,0,1,37,18.57c1.59,1.49,2.95,3.18,4.55,4.65.49.46,1,1.06,1.68.47,2.83-2.34,5.89-4.48,7.42-8a6.6,6.6,0,0,0-.64-6.71,26.7,26.7,0,0,0-4.58-4.62A82.21,82.21,0,0,0-68.89,455c-19.86-11.36-41.17-14.54-63.55-10.77A89.22,89.22,0,0,0-168.67,459a85,85,0,0,0-27.55,30.82A92.06,92.06,0,0,0-206.53,533c.16,2.54.24,5.65.54,8.76a84.22,84.22,0,0,0,6.87,26.5C-194,579.77-187,590-177.42,598.42a78.91,78.91,0,0,0,25.67,15.29c13.85,4.92,28.12,6.22,42.72,5.12a93.9,93.9,0,0,0,24.88-5.22A70.77,70.77,0,0,0-57.38,597c2.61-2.63,4.7-5.68,7.3-8.32a8,8,0,0,0,2.15-3.95C-47.66,583.37-47.61,582-48.93,581.11Z" transform="translate(307.63 -172.81)"/><path class="a" d="M616.12,606.8c-.11-3.22-1.66-5-4.87-5.18-2.54-.14-5.06-.52-7.62-.51q-42.79.06-85.58,0c-3,0-2.75.22-2.76-2.76,0-.48,0-1,0-1.42q0-62,0-124a48.48,48.48,0,0,0-.46-6.49,6.59,6.59,0,0,0-5.67-5.89,68.11,68.11,0,0,0-11.6-.54c-1.12,0-1.52.5-1.47,1.55,0,.75,0,1.51,0,2.27V613.15c0,2.76,0,2.76,2.78,2.78h114a13.45,13.45,0,0,1,1.42,0c1.32.14,1.88-.35,1.83-1.75C616.07,611.73,616.19,609.26,616.12,606.8Z" transform="translate(307.63 -172.81)"/><path class="a" d="M802.32,459.67c-12.15.14-18.65,8.62-18.58,18.64a18.38,18.38,0,0,0,18.75,19.16c10.77-.05,19-8.09,19-18.79S813.57,459.55,802.32,459.67Zm14.58,18.09c0,7.94-5.3,14.69-12.34,15.64-8.39,1.14-15.22-4.42-16.18-13.23-.46-4.21.09-8.31,2.71-11.87,3.32-4.5,7.84-6.53,13.31-5.79,6,.82,9.83,4.48,11.75,10.14A14.67,14.67,0,0,1,816.9,477.76Z" transform="translate(307.63 -172.81)"/><path class="b" d="M807.17,479.46c3.18-1.49,4.31-3.43,3.91-6.72-.34-2.82-1.69-4.09-5-4.9-3-.73-6-.16-9-.39-1.52-.12-2,.5-1.94,1.95,0,5.67,0,11.34,0,17,0,2.61,0,2.56,2.75,2.54,1.31,0,1.9-.38,1.84-1.78-.08-2,0-4,0-5.95,0-1.17.53-1.42,1.55-1.41a2.12,2.12,0,0,1,1.95,1.36,54,54,0,0,1,3,5.12c1.06,2.41,2.69,3.15,5.29,2.41-1.41-3.09-3.75-5.59-5.34-8.65C806.53,479.82,806.84,479.61,807.17,479.46Zm-5.24-2.32c-3.77-.08-3.36.61-3.37-3.56,0-2,0-2.07,2-2.1a22.55,22.55,0,0,1,3.68.08c2,.29,3.14,1.58,3,3.16s-1.15,2.3-3.28,2.41C803.26,477.16,802.59,477.13,801.93,477.14Z" transform="translate(307.63 -172.81)"/><path class="a" d="M347.43,837.35c1.55,3.56,2.55,7.5,4.75,10.59,5.73,8,14.44,3.71,21.81,4.12,3.82.22,4.25-3.16,1.25-5.92-2.78,3.25-4.76,1.94-6.33-1.16-1.49-2.93-.23-4.36,2.77-4.72,1.7-3.58-2.07-5.85-2.16-9l-3.68-5.71c-4.14-2.24-2.1-6-2.24-9.21l-23-47.83c-9-5.79-17.4-6.77-24.4,2.6a2.46,2.46,0,0,1-.55.73c-.91,3-1.82,5.95-2.72,8.92A10.42,10.42,0,0,1,314.16,794c-3.15,4.79-3.93.16-4.88-2.24l-5.61,6.68c-.21,3.1.25,6.44-3,8.43l-3.21,6.42c-1.65,7.32-2.63,14.93-8.84,20.26q-1.59,3.27-3.16,6.55-1.29,5.89-2.56,11.8c9.31-1.72,21.92,6.7,26.76-8.73l2.26-3.3C323,829.08,335.27,833.81,347.43,837.35Zm-18.2-45.77,10,23.6c-6.35,1.76-11.59,1.9-17.72-.32C323.69,808.25,325.84,801.78,329.23,791.58Z" transform="translate(307.63 -172.81)"/><path class="a" d="M316.32,770.78c-.22.35-.44.68-.65,1.05.18-.26.37-.48.55-.73A1.7,1.7,0,0,0,316.32,770.78Z" transform="translate(307.63 -172.81)"/><path class="a" d="M836.43,691.08q-561.06.1-1122.12,0c-5.31,0-11,1.51-15.8-2.37l-1.32-.39-1.37,0c0,10.09,7.76,5.53,11.86,5.55,49.15.34,98.3.22,147.45.22q490.79,0,981.56,0c6.93,0,13.87-.42,20.81-.64h0l.17-4.32h0l-5.48-.48C847.44,692.68,841.73,691.08,836.43,691.08Z" transform="translate(307.63 -172.81)"/><path class="a" d="M-144.87,694.14c-49.15,0-98.3.12-147.45-.22-4.1,0-11.88,4.54-11.86-5.55l-3.14,0h0c-1.13,5.15.82,8.29,6.06,9.27q159.42-.24,318.84-.46,409.76-.1,819.5,0c6,0,11.91.3,17.86.47h0l3.06-.91c-.17-1.07-.34-2.15-.5-3.23h0c-6.94.22-13.88.64-20.81.64Q345.91,694.16-144.87,694.14Z" transform="translate(307.63 -172.81)"/><path class="a" d="M70.74,817c-3.1-5.08-3.81-11.49-8.53-15.72-.41,2.15.88,4.88-2.06,6.19-2.64-6.81-9.88-13.31-1.42-20.88.16-1,.33-2,.49-3L56.07,775c-1.14-2.08-3-4.07-3.31-6.26-1.1-9-4.55-15.1-10.47-18.24-3.38-1-7.86-1.58-14.17-2.42l-.63.7-.84-.4c-5.49,11.32,5.93,18.89,6.38,28.9l26.51,68c10,10.68,17.9,10,24.49-2.18,1.65-3,3.51-5.94,5.28-8.91q.22-2.85.47-5.68L76.6,815.46C74.77,816.54,73.82,822,70.74,817Z" transform="translate(307.63 -172.81)"/><path class="a" d="M372.47,827.72c7.53,2.39,6.58,13.17,14.77,14.92,10.27-5.66,17.8,8.13,30,1.44-5.24,7.25-11.43,3.19-14.92,6.92,4.38,3.28,10.87-1.32,14.71,4l32.66-6.06a9.24,9.24,0,0,1,.45-2.56l-4.77-2.6c8.49-10.19,2.67-22.25,4.35-33.33h0c-11.31-4.55-21.26,5.66-32.4,3,1.11,4.12,4.52,2.87,7.21,3,4.89.14,9.62-1,10.07,6.92s-4.72,9-9.72,10.29c-6.58,1.71-12.24-1.48-17.63-4.92-6.29-1.15-8-5.83-8.62-11.28l-2.58-.84c-.63,1.21-1.42,3.52-1.86,3.45-3.69-.56-3.61-3.78-4.07-6.56-2.2.64-4.5,7.23-6.59-.4-.85-3.09-3.43-5.71-5.23-8.54h0v11.37H375.4c0-5.13,0-10.26,0-15.39,0-.43.16-1.13.43-1.24,1.53-.63,1.88,0,2.07.89L378,800c1.25-1.36,1.17-.75,0,.67a3.48,3.48,0,0,0,.22.83c10-5.06-2-10-.09-15-3.16.85-5.49,2.51-5.85,6.06h0Z" transform="translate(307.63 -172.81)"/><path class="a" d="M110.46,775.93h0l-9.52-13.25-5.61-2.94h0c-.25,1.63-.49,3.26-.74,4.89,2.43,6.79,3.1,13-5.5,16a1.27,1.27,0,0,0-.47,1.86c.67,5.52.25,10.55-5.92,12.95a31.58,31.58,0,0,0-6.1,20.07l13.18,13.13c5.69-2.14,0-11.62,8-12.31-.76-15,7.72-27.13,12.71-40.35Z" transform="translate(307.63 -172.81)"/><path class="a" d="M503.37,834.42c-14.49,2.09-20.12-3.2-17.39-17.5,10.32-.2,20.65-.72,31-.51,7,.15,8.7-2.88,7-9h-2.71c-1.94,8.58-8.91,5.48-14.11,5.78-7.19.41-14.41.11-21.61.12.13,1.19.25,2.38.38,3.56l-3.4-.52v14.09l-3,.09v-14.2c-10.56-3.67-.13-16.28-8.79-20.77l-.08.07c1.29,17.78-3.16,35.86,2.77,53.4l3.23,0c9.26-7.48,19.72-2.77,29.69-2.92-2.25-10.31-11.79-3.32-16.81-7.07,19.32-4.1,23.17-2.91,22.8,7.07h0c3.33,3.16,13.72-10,11.86,5.13a12.41,12.41,0,0,0,2.79.2q0-8.44.1-16.88C519.19,834.47,511.11,833.3,503.37,834.42ZM486,816.92Z" transform="translate(307.63 -172.81)"/><path class="a" d="M527,851.49a7.86,7.86,0,0,1-.88,1.06A2.72,2.72,0,0,0,527,851.49Z" transform="translate(307.63 -172.81)"/><path class="a" d="M449.76,801.57c0,2.94,0,5.89-.07,8.83h0c-1.68,11.08,4.14,23.14-4.35,33.33l4.77,2.6,5.3-.89.06-43.16Z" transform="translate(307.63 -172.81)"/><path class="a" d="M454,800.56l1.45,1.72A4.65,4.65,0,0,0,454,800.56Z" transform="translate(307.63 -172.81)"/><path class="a" d="M100.94,762.68c-.73-4.62,6.28,3.43,6.93-4.93.45-5.63,3.41,3.74,7.12,4.82a6.93,6.93,0,0,1,.78.1c5.61-8,6.57-13.77-6.22-13.27-3.92.15-7.91-.72-11.55,1.48-.76,3-4.32,5.14-2.67,8.86h0Z" transform="translate(307.63 -172.81)"/><path class="a" d="M417.21,844.08c-12.17,6.69-19.7-7.1-30-1.44,2.63,7.08,9.48,6.57,15.05,8.36C405.78,847.27,412,851.33,417.21,844.08Z" transform="translate(307.63 -172.81)"/><path class="a" d="M94.59,764.63a26.78,26.78,0,0,0-2.71,1l-2.79,14.94C97.69,777.6,97,771.42,94.59,764.63Z" transform="translate(307.63 -172.81)"/><path class="a" d="M368.91,845c1.57,3.1,3.55,4.41,6.33,1.16q-1.78-2.94-3.56-5.88C368.68,840.62,367.42,842.05,368.91,845Z" transform="translate(307.63 -172.81)"/><path class="a" d="M214.88,832.7a2.18,2.18,0,0,0-1.25-1.21A12,12,0,0,1,214.88,832.7Z" transform="translate(307.63 -172.81)"/><path class="a" d="M181.49,803c-.83-12.24-.31-24.57-.38-36.87l-1.36-.06-1.35.26v57.85c.84-.36.53.26,0,.56v2.72l-2.93,0V774.73l-.2,0c-7.94,2.62-8.54,8.78-9,16.17-.86,15.44,3.72,31.23-2.72,46.32-.42,4,1.16,8.45-2.64,11.68-.07,1-.13,1.89-.18,2.84l53.29.34L214,837.21H200.88c5-4.18,9.08-2.25,12.76-2.91a5,5,0,0,0,0-2.81l-29.13-.65C178,822.21,182.13,812.31,181.49,803ZM170,848.37v-1.46h25.78v1.46Zm23.21-11.81h-9C187.61,832.76,190.45,835.23,193.24,836.56Z" transform="translate(307.63 -172.81)"/><path class="a" d="M378.25,801.45c0,1,0,2,0,3h0c1.8,2.83,4.38,5.45,5.23,8.54,2.09,7.63,4.39,1,6.59.4.62-5-1.68-10.59,2.89-14.84h0c.87,0,1.75-.07,2.62-.07l3.38-3.2,3.74-5.69h0c.28-3.31,2.7-4.74,5.29-6a4.79,4.79,0,0,1,2.52-1.17c6.81-3.1,13.43-5,18.24,4.48,11.92,8.89,16.8-2,21.76-8.79,4.44-6.12-3.95-6.47-6.54-9.47-9.77-4.31-19.28-10.5-30.46-4,0,12.92,12.75,2.22,17.85,11.33-17.19-.83-32.5,4.24-48.47,1.15-3.54,2.13-5.44,5.1-4.75,9.38C376.24,791.45,388.26,796.39,378.25,801.45Z" transform="translate(307.63 -172.81)"/><path class="a" d="M465,777.55c.13,24.62.08,49.24.09,73.86l56.26.22c-2.41-2.82-5.78-2.38-8.95-2.63l-3,0h0l-32.65,0h0l-3.23,0h0c-8.31-1.68-5.4-8.41-5.47-13.22-.32-23.28-.22-46.57-.27-69.86l-3.1-.94-2.35,3.47h0C466.43,770.52,465,774.41,465,777.55Z" transform="translate(307.63 -172.81)"/><path class="a" d="M431.38,775.91c-5.1-9.11-17.82,1.59-17.85-11.33-12.29-1-22.21,3.91-30.62,12.48C398.88,780.15,414.19,775.08,431.38,775.91Z" transform="translate(307.63 -172.81)"/><path class="a" d="M314.16,794A10.42,10.42,0,0,0,313,780.75l-1-.39-2.17,3.24-.48,8.19C310.23,794.19,311,798.82,314.16,794Z" transform="translate(307.63 -172.81)"/><path class="a" d="M-285.69,691.09q561.06.09,1122.12,0c5.3,0,11,1.6,15.76-2.41-4-.17-7.91-.49-11.87-.49q-565,0-1129.94,0c-4,0-7.92.35-11.87.53C-296.7,692.6-291,691.08-285.69,691.09Z" transform="translate(307.63 -172.81)"/><path class="a" d="M58.73,786.57c-8.46,7.57-1.22,14.07,1.42,20.88,2.94-1.31,1.65-4,2.06-6.19C63.05,795.89,61.09,791.18,58.73,786.57Z" transform="translate(307.63 -172.81)"/><path class="a" d="M449.76,801.57c-7.32-.21-14.69,0-21.94-.74-10.28-1.11-13.49,2.93-10.53,12.54,11.14,2.69,21.09-7.52,32.4-3h0C449.72,807.46,449.74,804.51,449.76,801.57Z" transform="translate(307.63 -172.81)"/><path class="a" d="M393,798.55h0c-4.57,4.25-2.27,9.83-2.89,14.84.46,2.78.38,6,4.07,6.56.44.07,1.23-2.24,1.86-3.45l0-.09C390.8,811.15,393.87,804.52,393,798.55Z" transform="translate(307.63 -172.81)"/><path class="a" d="M378.25,801.45a3.48,3.48,0,0,1-.22-.83c0-.19-.07-.37-.11-.55-.19-.85-.54-1.52-2.07-.89-.27.11-.43.81-.43,1.24,0,5.13,0,10.26,0,15.39h2.87V804.44h0C378.26,803.44,378.26,802.44,378.25,801.45Z" transform="translate(307.63 -172.81)"/><path class="a" d="M414,783.85c5.75-3,9.79,2.34,14.79,3-4.81-9.47-11.43-7.58-18.24-4.48L408,783.55Z" transform="translate(307.63 -172.81)"/><path class="a" d="M88.62,782.44q-3,6.48-5.92,12.95C88.87,793,89.29,788,88.62,782.44Z" transform="translate(307.63 -172.81)"/><path class="a" d="M107.87,757.75c-.65,8.36-7.66.31-6.93,4.93l9.52,13.25h0l5.71-10.24c-.13-1-.27-2-.4-3a2.61,2.61,0,0,1-.78-.1C111.28,761.49,108.32,752.12,107.87,757.75Z" transform="translate(307.63 -172.81)"/><polygon class="a" points="793.58 644.12 793.58 644.12 793.58 644.12 793.58 644.12"/><path class="a" d="M470.67,795.51h0l.08.05c8.66,4.49-1.77,17.1,8.79,20.77l3,0,3.4.52c-.13-1.18-.25-2.37-.38-3.56h0c11-7.19,24.65,1.11,35.72-5.9H524c1.35-5.59.76-9.62-6.55-9.25-5.8.29-11.71-.49-17.43.27-11.41,1.51-16.21-2.72-14-14.23l-.45-3.1h0c11.8-5.37,23.69-5.76,35.7-.72a21.93,21.93,0,0,0,2.81.1c2.51-11.4-1.47-16.5-13.68-15.66-13.21.91-26.49.66-39.74.92h0Z" transform="translate(307.63 -172.81)"/><path class="a" d="M470.68,795.64a.49.49,0,0,0,0-.12h0l-.06-29.77h0l-2.9.23c.05,23.29,0,46.58.27,69.86.07,4.81-2.84,11.54,5.47,13.22h0C467.52,831.5,472,813.42,470.68,795.64Z" transform="translate(307.63 -172.81)"/><path class="a" d="M512.36,846.16h0c.37-10-3.48-11.17-22.8-7.07,5,3.75,14.56-3.24,16.81,7.07,1,1,2,1.92,3,2.89h0l3,0Z" transform="translate(307.63 -172.81)"/><path class="a" d="M506.37,846.16c-10,.15-20.43-4.56-29.69,2.92h0l32.65,0h0C508.35,848.08,507.36,847.12,506.37,846.16Z" transform="translate(307.63 -172.81)"/><path class="a" d="M524.22,851.29c1.86-15.14-8.53-2-11.86-5.13h0V849c3.17.25,6.54-.19,8.95,2.63h0Z" transform="translate(307.63 -172.81)"/><path class="a" d="M479.55,816.34v14.2l3-.09V816.36Z" transform="translate(307.63 -172.81)"/><path class="a" d="M260.16,834.15c-4.68.69-9.53.27-14.33.16,0,.43,0,.83.06,1.2,5.91,3.57,12.73.77,19,1.75h0c3.12.39,7.42-.68,7.88,4,.47,4.82-3.68,4.72-7,4.86-4.27.17-8.55.06-12.83.07h-9c-5.33-1-12.79,3.23-14.89-5.93V783.56l-2.88-5.74-.12,0c-1.46,22.73,3.11,45.69-2.65,68.24.1,1,.19,2,.28,3,16.64,1.38,33.57-2.93,50,2.57l3-.36C278.89,838.22,274.08,832.1,260.16,834.15Z" transform="translate(307.63 -172.81)"/><path class="a" d="M244.76,831h0l-.31.12-.67.26c.07.93.16,1.86.23,2.79l.08.1c.58,0,1.16,0,1.74,0,4.8.11,9.65.53,14.33-.16,13.92-2,18.73,4.07,16.65,17.19,6.16-17.24,4.7-19.55-12-19.72-5.87-.06-11.73-.67-17.59-1A7.89,7.89,0,0,1,244.76,831Z" transform="translate(307.63 -172.81)"/><path class="a" d="M223.78,849.13a5.59,5.59,0,0,0-.18,2.81l50.17-.24C257.35,846.2,240.42,850.51,223.78,849.13Z" transform="translate(307.63 -172.81)"/><polygon class="a" points="793.19 640.51 793.19 640.51 793.19 640.51 793.19 640.51"/><path class="a" d="M521.22,780.38q-17.84.36-35.68.72h0l.45,3.1,26.14-.21h.27l8.6,2.43,3-3h0l0-3A21.93,21.93,0,0,1,521.22,780.38Z" transform="translate(307.63 -172.81)"/><path class="a" d="M157.61,844.4c0,2.77-.76,6.13,3.16,7.31,0-1,.11-1.89.18-2.84l-.09-82.82a11.16,11.16,0,0,0-2.64-.26c0,.29,0,.58,0,.86C158,792.57,157.75,818.49,157.61,844.4Z" transform="translate(307.63 -172.81)"/><path class="a" d="M145.58,829.75q0-31.72,0-63.44l-17.71-.25c0,21.54,0,43.08-.2,64.62,0,5.22,1.56,10.86-2.57,15.47l.17,2.94C145.58,849.31,145.59,849.31,145.58,829.75Z" transform="translate(307.63 -172.81)"/><path class="a" d="M146.82,766.27l-1.26,0q0,31.71,0,63.44c0,19.56,0,19.56-20.33,19.34a4,4,0,0,0-.4,2.9l23.33-.31.75-14.47h0V783.58q-.42-8.64-.86-17.27Z" transform="translate(307.63 -172.81)"/><path class="a" d="M127.65,830.68c.21-21.54.16-43.08.2-64.62l-1.44-.22-1.45,0,.12,80.27C129.21,841.54,127.61,835.9,127.65,830.68Z" transform="translate(307.63 -172.81)"/><path class="a" d="M163.59,837.19q0-34.23,0-68.47h0c0-.87-.09-1.74-.13-2.61a2.86,2.86,0,0,0-2.64-.06l.09,82.82C164.75,845.64,163.17,841.19,163.59,837.19Z" transform="translate(307.63 -172.81)"/><path class="a" d="M175.43,771.67h0c-4.42,1-8.78,1.67-11.8-2.95q0,34.23,0,68.47c6.44-15.09,1.86-30.88,2.72-46.32.42-7.39,1-13.55,9-16.17l.2-.09C175.46,773.63,175.45,772.65,175.43,771.67Z" transform="translate(307.63 -172.81)"/><path class="a" d="M175.43,771.67h0c0,1,0,2,0,2.94v52.87l2.93,0V766.37l-2.87-.19C175.49,768,175.46,769.84,175.43,771.67Z" transform="translate(307.63 -172.81)"/><path class="a" d="M195.81,846.91H170v1.46h25.78Z" transform="translate(307.63 -172.81)"/><path class="a" d="M184.25,836.56h9C190.45,835.23,187.61,832.76,184.25,836.56Z" transform="translate(307.63 -172.81)"/><path class="a" d="M213.64,834.3c-3.68.66-7.76-1.27-12.76,2.91H214Z" transform="translate(307.63 -172.81)"/><path class="a" d="M396,816.4q-.18-9-.37-17.93c-.87,0-1.75,0-2.62.07h0C393.87,804.52,390.8,811.15,396,816.4Z" transform="translate(307.63 -172.81)"/><path class="a" d="M238.07,771.63h0c-.72,5.67-5.66,8.18-8.93,11.93V825.3h5.94v-32c5.58,10.56-.11,22.41,4.77,32.85.35,0,.73.08,1.17.11q0-30.08.1-60.15l-6,.1,2.93,5.46Z" transform="translate(307.63 -172.81)"/><path class="a" d="M226.15,777.86a2.09,2.09,0,0,0,0-.25v-3l0-8.42a5.19,5.19,0,0,0-2.67-.35q0,40.14,0,80.26C229.26,823.55,224.69,800.59,226.15,777.86Z" transform="translate(307.63 -172.81)"/><path class="a" d="M241,826.22c0,.68,0,1.35,0,2h0l2.73,2.92h0l.54-.09.46-.08h0c0-17.36.32-34.73,0-52.09-.09-4.31,3.15-10.16-3.58-12.84Q241.08,796.15,241,826.22Z" transform="translate(307.63 -172.81)"/><path class="a" d="M226.17,774.61l11.9-3h0l-2.93-5.46-9,0h0Z" transform="translate(307.63 -172.81)"/><path class="a" d="M163.63,768.72c3,4.62,7.38,3.91,11.8,2.95h0c0-1.83.06-3.66.1-5.49l-12-.07c0,.87.09,1.74.13,2.61Z" transform="translate(307.63 -172.81)"/><path class="a" d="M485.52,781.1h0q17.83-.37,35.68-.72C509.21,775.34,497.32,775.73,485.52,781.1Z" transform="translate(307.63 -172.81)"/><path class="a" d="M485.56,813.32h0c7.2,0,14.42.29,21.61-.12,5.2-.3,12.17,2.8,14.11-5.78C510.21,814.43,496.6,806.13,485.56,813.32Z" transform="translate(307.63 -172.81)"/><path class="a" d="M244,834.22c-9.23,3.28-9.34-2.56-8.93-8.92h-5.94v14.91c5.32,1.08,12.77-3.19,14.89,5.93h9c.26-7.94,9.19-4.25,11.91-8.89h0c-6.29-1-13.11,1.82-19-1.75a12.06,12.06,0,0,1-1.8-1.24Z" transform="translate(307.63 -172.81)"/><path class="a" d="M253,846.15c4.28,0,8.56.1,12.83-.07,3.28-.14,7.43,0,7-4.86-.46-4.64-4.76-3.57-7.88-4h0C262.19,841.9,253.26,838.21,253,846.15Z" transform="translate(307.63 -172.81)"/><path class="a" d="M229.15,840.21c2.1,9.16,9.56,4.88,14.89,5.93h0C241.92,837,234.47,841.29,229.15,840.21Z" transform="translate(307.63 -172.81)"/><path class="a" d="M238.08,771.63h0l-11.9,3v3l.11.21,2.88,5.74C232.42,779.81,237.36,777.3,238.08,771.63Z" transform="translate(307.63 -172.81)"/><path class="a" d="M243.76,831.17,241,828.25h0a20.15,20.15,0,0,1-1.16-2.13c-4.88-10.44.81-22.29-4.77-32.85v32h0c-.41,6.36-.3,12.2,8.93,8.92v-.05c-.07-.93-.16-1.86-.23-2.79l0-.21Z" transform="translate(307.63 -172.81)"/></svg>