<svg id="Layer_1" data-name="Layer 1" xmlns="http://www.w3.org/2000/svg" viewBox="0 0 177.65 79.11"><defs><style>.cls-1{fill:#fff;}</style></defs><title>chukchansi_w</title><path class="cls-1" d="M63.44,171.94a6.58,6.58,0,0,1-.12-9.45,7.25,7.25,0,0,1,5.25-1.76,16.45,16.45,0,0,1,2.41.17c.63.08,1.16.23,1.66.28.18,0,.25.1.25.2s0,.33-.08.91,0,1.46,0,1.79,0,.38-.2.38-.17-.13-.17-.37a2.37,2.37,0,0,0-.65-1.53,5,5,0,0,0-3.37-1,4.33,4.33,0,0,0-3.12,1A6.21,6.21,0,0,0,69,172.79c1.48,0,2.38-.17,3-.93a2.78,2.78,0,0,0,.56-1.1c0-.27.08-.33.22-.33s.15.12.15.25a15.8,15.8,0,0,1-.37,2.21.59.59,0,0,1-.43.48,9.63,9.63,0,0,1-3,.38A8.3,8.3,0,0,1,63.44,171.94Z" transform="translate(-61.38 -110.4)"/><path class="cls-1" d="M84.19,166.24s.1,0,.1-.12v-.35c0-2.53,0-3,0-3.52s-.17-.83-.71-.95a3.42,3.42,0,0,0-.65,0c-.18,0-.28,0-.28-.15s.12-.15.35-.15c.9,0,1.94.05,2.39.05s1.45-.05,2.09-.05c.23,0,.35,0,.35.15s-.1.15-.3.15a3,3,0,0,0-.48,0c-.45.08-.58.37-.61.95s0,1,0,3.52v2.92c0,1.53,0,2.84.08,3.56,0,.47.15.83.65.9a7,7,0,0,0,.85.07c.18,0,.27,0,.27.13s-.13.17-.33.17c-1.08,0-2.13,0-2.59,0s-1.43,0-2.08,0c-.23,0-.35,0-.35-.17s.07-.13.27-.13a2.71,2.71,0,0,0,.6-.07c.33-.07.42-.43.48-.91.08-.7.08-2,.08-3.54v-1.46a.1.1,0,0,0-.1-.1H77.84a.09.09,0,0,0-.1.1v1.46c0,1.53,0,2.84.08,3.56,0,.47.15.83.65.9a7,7,0,0,0,.85.07c.18,0,.27,0,.27.13s-.13.17-.33.17c-1.08,0-2.13,0-2.59,0s-1.43,0-2.09,0c-.22,0-.33,0-.33-.17s.07-.13.27-.13a2.71,2.71,0,0,0,.6-.07c.33-.07.42-.43.48-.91.08-.7.08-2,.08-3.54v-2.92c0-2.53,0-3,0-3.52s-.17-.83-.71-.95a3.42,3.42,0,0,0-.65,0c-.18,0-.28,0-.28-.15s.12-.15.35-.15c.9,0,1.94.05,2.39.05s1.45-.05,2.09-.05c.23,0,.35,0,.35.15s-.1.15-.3.15a3,3,0,0,0-.48,0c-.45.08-.58.37-.61.95s0,1,0,3.52v.35c0,.08,0,.12.1.12Z" transform="translate(-61.38 -110.4)"/><path class="cls-1" d="M90.27,165.78c0-2.53,0-3,0-3.52s-.17-.83-.71-.95a3.42,3.42,0,0,0-.65,0c-.18,0-.28,0-.28-.15s.12-.15.37-.15c.88,0,1.93.05,2.43.05s1.45-.05,2-.05c.25,0,.37,0,.37.15s-.1.15-.27.15a2.5,2.5,0,0,0-.48,0c-.45.08-.58.37-.61.95s0,1,0,3.52v2.33c0,2.41.48,3.42,1.3,4.09a3.08,3.08,0,0,0,2.08.68,3.25,3.25,0,0,0,2.29-.9c.91-.91,1-2.41,1-4.12v-2.08c0-2.53,0-3,0-3.52s-.17-.83-.71-.95a3.22,3.22,0,0,0-.6,0c-.18,0-.28,0-.28-.15s.12-.15.35-.15c.85,0,1.89.05,1.91.05.2,0,1.25-.05,1.89-.05.23,0,.35,0,.35.15s-.1.15-.3.15a2.51,2.51,0,0,0-.48,0c-.45.08-.58.37-.61.95s0,1,0,3.52v1.78c0,1.84-.18,3.81-1.58,5a5,5,0,0,1-3.46,1.2,5.35,5.35,0,0,1-3.69-1.15c-.85-.76-1.48-2-1.48-4.4Z" transform="translate(-61.38 -110.4)"/><path class="cls-1" d="M106.35,166.51h.08c.56-.61,3-3.09,3.47-3.66s.83-1,.83-1.25-.07-.3-.23-.33-.22-.07-.22-.17.08-.15.27-.15c.35,0,1.26.05,1.71.05s1.43-.05,1.94-.05c.17,0,.28,0,.28.15s-.08.15-.25.15a3.25,3.25,0,0,0-1,.18,5.31,5.31,0,0,0-1.79,1.25c-.52.5-3,3-3.59,3.59.6.78,3.85,4.29,4.5,4.9a7.88,7.88,0,0,0,2.38,1.79,2.89,2.89,0,0,0,1,.25c.12,0,.22,0,.22.13s-.08.17-.4.17h-1.45c-.5,0-.8,0-1.15,0a3.27,3.27,0,0,1-2.06-1.08c-.73-.65-4-4.49-4.35-5l-.18-.25h-.08v1.51c0,1.53,0,2.84,0,3.56,0,.47.18.83.6.9a7,7,0,0,0,.81.07c.13,0,.22,0,.22.13s-.13.17-.32.17c-.93,0-2,0-2.39,0s-1.43,0-2.09,0c-.22,0-.33,0-.33-.17s.07-.13.27-.13a2.71,2.71,0,0,0,.6-.07c.33-.07.42-.43.48-.91.08-.7.08-2,.08-3.54v-2.92c0-2.53,0-3,0-3.52s-.17-.83-.71-.95a3.43,3.43,0,0,0-.65,0c-.18,0-.28,0-.28-.15s.12-.15.37-.15c.88,0,1.93.05,2.33.05s1.45-.05,2-.05c.23,0,.35,0,.35.15s-.1.15-.23.15a2.48,2.48,0,0,0-.47,0c-.45.08-.58.37-.61.95s0,1,0,3.52Z" transform="translate(-61.38 -110.4)"/><path class="cls-1" d="M116.64,171.94a6.58,6.58,0,0,1-.12-9.45,7.25,7.25,0,0,1,5.25-1.76,16.45,16.45,0,0,1,2.41.17c.63.08,1.16.23,1.66.28.18,0,.25.1.25.2s0,.33-.08.91,0,1.46,0,1.79,0,.38-.2.38-.17-.13-.17-.37a2.37,2.37,0,0,0-.65-1.53,5,5,0,0,0-3.37-1,4.33,4.33,0,0,0-3.12,1,6.21,6.21,0,0,0,3.71,10.22c1.48,0,2.38-.17,3-.93a2.78,2.78,0,0,0,.56-1.1c0-.27.08-.33.22-.33s.15.12.15.25a15.8,15.8,0,0,1-.37,2.21.59.59,0,0,1-.43.48,9.63,9.63,0,0,1-3,.38A8.3,8.3,0,0,1,116.64,171.94Z" transform="translate(-61.38 -110.4)"/><path class="cls-1" d="M137.38,166.24s.1,0,.1-.12v-.35c0-2.53,0-3,0-3.52s-.17-.83-.71-.95a3.42,3.42,0,0,0-.65,0c-.18,0-.28,0-.28-.15s.12-.15.35-.15c.9,0,1.94.05,2.39.05s1.45-.05,2.09-.05c.23,0,.35,0,.35.15s-.1.15-.3.15a3,3,0,0,0-.48,0c-.45.08-.58.37-.61.95s0,1,0,3.52v2.92c0,1.53,0,2.84.08,3.56,0,.47.15.83.65.9a7,7,0,0,0,.85.07c.18,0,.27,0,.27.13s-.13.17-.33.17c-1.08,0-2.13,0-2.59,0s-1.43,0-2.08,0c-.23,0-.35,0-.35-.17s.07-.13.27-.13a2.71,2.71,0,0,0,.6-.07c.33-.07.42-.43.48-.91.08-.7.08-2,.08-3.54v-1.46a.1.1,0,0,0-.1-.1H131a.09.09,0,0,0-.1.1v1.46c0,1.53,0,2.84.08,3.56,0,.47.15.83.65.9a7,7,0,0,0,.85.07c.18,0,.27,0,.27.13s-.13.17-.33.17c-1.08,0-2.13,0-2.59,0s-1.43,0-2.09,0c-.22,0-.33,0-.33-.17s.07-.13.27-.13a2.71,2.71,0,0,0,.6-.07c.33-.07.42-.43.48-.91.08-.7.08-2,.08-3.54v-2.92c0-2.53,0-3,0-3.52s-.17-.83-.71-.95a3.42,3.42,0,0,0-.65,0c-.18,0-.28,0-.28-.15s.12-.15.35-.15c.9,0,1.94.05,2.39.05s1.45-.05,2.09-.05c.23,0,.35,0,.35.15s-.1.15-.3.15a3,3,0,0,0-.48,0c-.45.08-.58.37-.61.95s0,1,0,3.52v.35c0,.08,0,.12.1.12Z" transform="translate(-61.38 -110.4)"/><path class="cls-1" d="M144.85,169.19c-.08,0-.12,0-.15.13l-.9,2.38a3.22,3.22,0,0,0-.25,1c0,.3.15.52.66.52h.25c.2,0,.25,0,.25.13s-.1.17-.28.17c-.53,0-1.25,0-1.76,0-.18,0-1.1,0-2,0-.22,0-.32,0-.32-.17s.07-.13.2-.13l.52,0c.76-.1,1.08-.66,1.41-1.5l4.17-10.44c.2-.48.3-.66.47-.66s.25.15.42.53c.4.91,3.06,7.69,4.12,10.22.63,1.5,1.11,1.73,1.46,1.81a3.65,3.65,0,0,0,.7.07c.13,0,.22,0,.22.13s-.15.17-.76.17-1.81,0-3.14,0c-.3,0-.5,0-.5-.13s.07-.13.23-.15a.27.27,0,0,0,.15-.38l-1.33-3.52a.16.16,0,0,0-.17-.12Zm3.39-.83c.08,0,.1,0,.08-.1l-1.5-4.1c0-.07,0-.15-.08-.15s-.08.08-.1.15l-1.53,4.09c0,.07,0,.12.07.12Z" transform="translate(-61.38 -110.4)"/><path class="cls-1" d="M155.92,171.26c0,1.3.25,1.73.58,1.84a2.64,2.64,0,0,0,.86.12c.18,0,.28,0,.28.13s-.15.17-.38.17c-1.08,0-1.74,0-2.06,0-.15,0-.93,0-1.79,0-.22,0-.37,0-.37-.17s.1-.13.27-.13a3,3,0,0,0,.75-.08c.43-.13.5-.61.52-2.06l.15-9.84c0-.33,0-.56.22-.56s.33.22.61.52,2.73,2.92,5.15,5.33c1.13,1.13,3.37,3.52,3.66,3.79h.08l-.17-7.46c0-1-.17-1.33-.56-1.5a2.72,2.72,0,0,0-.88-.1c-.2,0-.27,0-.27-.15s.18-.15.43-.15c.86,0,1.66.05,2,.05.18,0,.81-.05,1.63-.05.22,0,.38,0,.38.15s-.1.15-.3.15a1.81,1.81,0,0,0-.5,0c-.47.13-.6.48-.61,1.41l-.18,10.48c0,.37-.07.52-.22.52s-.38-.18-.56-.37c-1-1-3.17-3.17-4.9-4.89s-3.66-3.87-4-4.19h0Z" transform="translate(-61.38 -110.4)"/><path class="cls-1" d="M169,173.32c-.27-.12-.32-.2-.32-.56,0-.91.07-1.91.08-2.18s.07-.43.2-.43.17.15.17.28a3.51,3.51,0,0,0,.15.85,2.29,2.29,0,0,0,2.38,1.68,2,2,0,0,0,2.23-1.89c0-.81-.25-1.58-1.63-2.66l-.76-.6c-1.83-1.43-2.46-2.59-2.46-3.94,0-1.83,1.53-3.14,3.84-3.14a8,8,0,0,1,2.21.28c.15,0,.23.08.23.2s-.07.7-.07,2c0,.37,0,.5-.18.5s-.17-.1-.17-.3a2,2,0,0,0-.43-1.1,2.11,2.11,0,0,0-1.81-.81,1.75,1.75,0,0,0-2,1.71c0,.76.38,1.35,1.76,2.39l.47.35c2,1.51,2.73,2.66,2.73,4.24a3.35,3.35,0,0,1-1.56,2.89,4.8,4.8,0,0,1-2.64.68A5.76,5.76,0,0,1,169,173.32Z" transform="translate(-61.38 -110.4)"/><path class="cls-1" d="M178.75,165.78c0-2.53,0-3,0-3.52s-.2-.85-.56-.93a2.36,2.36,0,0,0-.6-.07c-.17,0-.27,0-.27-.17s.13-.13.4-.13c.63,0,1.68.05,2.16.05s1.4-.05,2-.05c.22,0,.35,0,.35.13s-.1.17-.27.17a2.82,2.82,0,0,0-.5,0c-.45.08-.58.37-.61.95s0,1,0,3.52v2.92c0,1.61,0,2.92.07,3.64,0,.45.17.75.66.81a7,7,0,0,0,.85.07c.18,0,.27,0,.27.13s-.13.17-.32.17c-1.1,0-2.14,0-2.59,0s-1.43,0-2.09,0c-.22,0-.33,0-.33-.17s.07-.13.27-.13a2.71,2.71,0,0,0,.6-.07c.33-.07.43-.35.48-.83.08-.7.08-2,.08-3.62Z" transform="translate(-61.38 -110.4)"/><path class="cls-1" d="M199.67,172.41c0,.45,0,.48-.22.6a9.41,9.41,0,0,1-4,.75c-4.07,0-7.68-1.93-7.68-6.51a6.21,6.21,0,0,1,2.89-5.43,8.05,8.05,0,0,1,4.47-1.08,19.92,19.92,0,0,1,2.94.27,10.88,10.88,0,0,0,1.31.18c.2,0,.23.08.23.2a22.44,22.44,0,0,0-.12,2.73c0,.27,0,.35-.18.35s-.15-.08-.17-.22a2.33,2.33,0,0,0-.56-1.38,5.31,5.31,0,0,0-3.71-1.3,4.79,4.79,0,0,0-3.29,1,4.94,4.94,0,0,0-1.53,4.07c0,3.57,2.28,6.25,5.78,6.25a3.68,3.68,0,0,0,1.41-.18.59.59,0,0,0,.32-.62v-1.56c0-.83,0-1.46,0-2s-.17-.83-.71-.95a3.42,3.42,0,0,0-.65,0c-.15,0-.25,0-.25-.13s.12-.17.35-.17c.86,0,1.91,0,2.41,0s1.4,0,1.94,0c.22,0,.33,0,.33.17s-.1.13-.22.13a2.62,2.62,0,0,0-.45,0c-.45.08-.61.37-.63.95s0,1.16,0,2Z" transform="translate(-61.38 -110.4)"/><path class="cls-1" d="M201.67,167.24c0-2.84,1.88-6.51,6.86-6.51,4.14,0,6.71,2.41,6.71,6.21a6.57,6.57,0,0,1-6.88,6.81A6.33,6.33,0,0,1,201.67,167.24Zm11.25.32c0-3.72-2.14-6-4.87-6-1.91,0-4.09,1.06-4.09,5.2,0,3.46,1.91,6.2,5.1,6.2C210.23,172.92,212.92,172.36,212.92,167.56Z" transform="translate(-61.38 -110.4)"/><path class="cls-1" d="M220,168.7c0,2.13,0,3.27.35,3.57s.71.37,2,.37c.88,0,1.53,0,1.94-.46a2.08,2.08,0,0,0,.43-1c0-.15,0-.25.18-.25s.13.08.13.28a13.12,13.12,0,0,1-.25,1.91c-.1.37-.18.45-1,.45-1.2,0-2.06,0-2.81,0s-1.35,0-2,0l-.95,0c-.38,0-.81,0-1.15,0s-.33,0-.33-.17.07-.13.27-.13a2.71,2.71,0,0,0,.6-.07c.33-.07.42-.43.48-.91.08-.7.08-2,.08-3.54v-2.92c0-2.53,0-3,0-3.52s-.17-.83-.71-.95a2.47,2.47,0,0,0-.55,0c-.18,0-.28,0-.28-.15s.12-.15.37-.15c.78,0,1.83.05,2.28.05s1.61-.05,2.26-.05c.23,0,.35,0,.35.15s-.1.15-.3.15a4.43,4.43,0,0,0-.65,0c-.45.08-.58.37-.61.95s0,1,0,3.52Z" transform="translate(-61.38 -110.4)"/><path class="cls-1" d="M227.12,165.78c0-2.53,0-3,0-3.52s-.17-.83-.71-.95a3.42,3.42,0,0,0-.65,0c-.18,0-.28,0-.28-.15s.12-.15.37-.15c.88,0,1.93.05,2.39.05s1.56-.05,2.56-.05c2.08,0,4.85,0,6.66,1.89a5.94,5.94,0,0,1,1.61,4.22,6.6,6.6,0,0,1-1.81,4.64,7.58,7.58,0,0,1-5.57,2c-.6,0-1.28,0-1.91-.1s-1.21-.1-1.63-.1l-.95,0c-.38,0-.81,0-1.15,0s-.33,0-.33-.17.07-.13.27-.13a2.71,2.71,0,0,0,.6-.07c.33-.07.42-.43.48-.91.08-.7.08-2,.08-3.54Zm2.08,1.83c0,1.76,0,3,0,3.36a3.63,3.63,0,0,0,.18,1.26c.22.32.86.66,2.18.66a5.34,5.34,0,0,0,3.82-1.2c1.06-.91,1.4-2.43,1.4-4.14a5.65,5.65,0,0,0-1.6-4.15,6.59,6.59,0,0,0-4.72-1.66,4.45,4.45,0,0,0-1.08.12.3.3,0,0,0-.2.33c0,.56,0,2,0,3.32Z" transform="translate(-61.38 -110.4)"/><path class="cls-1" d="M78.68,180.65H82.5c2,0,3.63.83,3.63,3A2.06,2.06,0,0,1,84.45,186V186a2.21,2.21,0,0,1,.53.52l1.9,2.83H83.22l-1.39-2.8h-.06v2.8h-3.1Zm3.1,3.86H82c.52,0,1-.08,1-.73s-.47-.75-1-.75h-.24Z" transform="translate(-61.38 -110.4)"/><path class="cls-1" d="M89.12,180.65H95V183H92.31v.83h2.44v2.27H92.31V187h2.76v2.38h-6Z" transform="translate(-61.38 -110.4)"/><path class="cls-1" d="M98.64,186.25l.16.13a3.33,3.33,0,0,0,2,.8c.31,0,.81-.13.81-.52s-.42-.43-.71-.49l-.64-.12A2.4,2.4,0,0,1,98,183.74c0-2.07,1.89-3.23,3.78-3.23a5.19,5.19,0,0,1,2.76.76l-.86,2.23a3.29,3.29,0,0,0-1.84-.66c-.28,0-.68.1-.68.46s.39.37.64.43l.72.16c1.34.3,2.31,1,2.31,2.5,0,2.08-1.9,3.11-3.78,3.11a7.86,7.86,0,0,1-3.35-.8Z" transform="translate(-61.38 -110.4)"/><path class="cls-1" d="M116.85,185c0,2.8-2.16,4.48-4.82,4.48s-4.82-1.68-4.82-4.48a4.83,4.83,0,0,1,9.65,0Zm-6.45,0a1.63,1.63,0,1,0,3.26,0,1.63,1.63,0,1,0-3.26,0Z" transform="translate(-61.38 -110.4)"/><path class="cls-1" d="M119.71,180.65h3.83c2,0,3.63.83,3.63,3a2.06,2.06,0,0,1-1.69,2.27V186a2.21,2.21,0,0,1,.53.52l1.9,2.83h-3.65l-1.39-2.8h-.06v2.8h-3.1Zm3.1,3.86H123c.52,0,1-.08,1-.73s-.47-.75-1-.75h-.24Z" transform="translate(-61.38 -110.4)"/><path class="cls-1" d="M129.36,180.65H136v2.83l-1.75-.08v6h-3.17v-6l-1.75.08Z" transform="translate(-61.38 -110.4)"/><path class="cls-1" d="M151.13,188.71a4.65,4.65,0,0,1-2.75.8c-1.72,0-3.49-.77-3.49-2.75,0-1.28,1-2,2.19-2.17a2.15,2.15,0,0,1-.86-1.63c0-1.72,1.73-2.44,3.22-2.44s3.19.79,3.19,2.42a2.33,2.33,0,0,1-1.7,2.17l.79.8a6.58,6.58,0,0,0,1.34-1.32l1.65,1.87-1.36,1,2,1.89H151.7ZM148.36,186c-.24.16-.52.35-.52.67s.37.66.79.66a2,2,0,0,0,.83-.23Zm.71-3a.93.93,0,0,0,.43.68c.27-.15.6-.42.6-.74a.52.52,0,0,0-.47-.51A.55.55,0,0,0,149.07,183Z" transform="translate(-61.38 -110.4)"/><path class="cls-1" d="M171,184.19a2.83,2.83,0,0,0-1.86-.88,1.71,1.71,0,0,0-1.72,1.7,1.74,1.74,0,0,0,1.77,1.7,2.53,2.53,0,0,0,1.82-.81l-.09,3.26a7,7,0,0,1-2.26.35,4.37,4.37,0,0,1-4.43-4.42,4.53,4.53,0,0,1,4.56-4.58,6.62,6.62,0,0,1,2.13.36Z" transform="translate(-61.38 -110.4)"/><path class="cls-1" d="M176.43,189.37h-3.35l3-8.72h3.5l3.11,8.72h-3.35l-.29-1.09h-2.39Zm2.09-3.16-.37-1.54c-.09-.37-.15-.75-.21-1.12h-.12l-.58,2.66Z" transform="translate(-61.38 -110.4)"/><path class="cls-1" d="M185.63,186.25l.16.13a3.33,3.33,0,0,0,2,.8c.31,0,.81-.13.81-.52s-.42-.43-.71-.49l-.64-.12a2.4,2.4,0,0,1-2.28-2.31c0-2.07,1.89-3.23,3.78-3.23a5.19,5.19,0,0,1,2.76.76l-.86,2.23a3.29,3.29,0,0,0-1.84-.66c-.28,0-.68.1-.68.46s.39.37.64.43l.72.16c1.34.3,2.31,1,2.31,2.5,0,2.08-1.9,3.11-3.78,3.11a7.86,7.86,0,0,1-3.35-.8Z" transform="translate(-61.38 -110.4)"/><path class="cls-1" d="M194.54,180.65h3.17v8.72h-3.17Z" transform="translate(-61.38 -110.4)"/><path class="cls-1" d="M200.86,180.65h3l2.85,4.83h.09a13.1,13.1,0,0,1-.27-2.22v-2.61h3v8.72h-3l-2.79-4.58h-.09a10.24,10.24,0,0,1,.2,1.75v2.83h-3Z" transform="translate(-61.38 -110.4)"/><path class="cls-1" d="M222.06,185c0,2.8-2.16,4.48-4.82,4.48s-4.82-1.68-4.82-4.48a4.83,4.83,0,0,1,9.65,0Zm-6.45,0a1.63,1.63,0,1,0,3.26,0,1.63,1.63,0,1,0-3.26,0Z" transform="translate(-61.38 -110.4)"/><path class="cls-1" d="M151,110.4a22.09,22.09,0,0,0-21.85,21l.05.79,10.8-6.32,16.58,7.91,5.6-3.43,1.19-.45s9.75,3.91,9.76,3.8c0-.41,0-.81,0-1.22a22.1,22.1,0,0,0-22.16-22" transform="translate(-61.38 -110.4)"/><path class="cls-1" d="M139.55,127.81s-4.94,2.94-9.32,5.24-9.23,5-9.23,5l-6.52,3.52s6.08-2.83,6.19-2.69-8.92,4.81-8.92,4.81l1.68-.59s0,.18-1,.71-2.94,1.79-2.94,1.79,1.8-.84,3.68-1.76a8.39,8.39,0,0,1,2.16-.85c.16.13-2,1.37-2.78,1.76-1.35.71-3.51,2-5.1,2.88,0,0,11.88-5.84,12-5.66.33.41-10.71,6.91-12.72,8.21,0,0,10.16-5.6,13.5-7.24s19.62-10.91,19.62-10.91,3.49,2,7.81,4.43c1,.56,2.22,1.19,3.5,1.85l4.65-2.75c-1.85-.84-4-1.85-6.2-3-6.7-3.43-8.2-4.27-8.2-4.27a12.51,12.51,0,0,0-1.32-.68.81.81,0,0,0-.56.13" transform="translate(-61.38 -110.4)"/><path class="cls-1" d="M156.46,141c2.32,1.11,4.08,1.93,4.15,1.91s.3-.61.45-.91a4.2,4.2,0,0,0,.34-.89c.15-.49.52-.56.82-1.24s.85-.84.81-1c-.08-.33-1.16-.66-1.16-.66l-.7-.28Z" transform="translate(-61.38 -110.4)"/><path class="cls-1" d="M162.4,132.06s-4.26,3.1-8.49,5.66l-3.8,2.32,3.72,1.61c3.19-1.92,9.47-6,9.47-6s4.41,1.92,9,3.83,10.17,3.82,10.17,3.82,7.28,2.37,7.42,2.33.5-.63.64-.94a7.25,7.25,0,0,0,.51-1.2,12.81,12.81,0,0,1,.52-1.63c.27-.69-.08-.65-.19-.76a.93.93,0,0,1-.18-.23,117.7,117.7,0,0,1-12.4-3.43c-7.14-2.37-14.07-5.08-14.07-5.08a10.86,10.86,0,0,0-1.24-.61s-1.09.35-1.09.35" transform="translate(-61.38 -110.4)"/><path class="cls-1" d="M147.88,145.08c-5.23,2.92-10.1,5.45-10.1,5.45s6.13-3.53,6-3.72-5.45,2.1-5.45,2.1,3.43-1.74,5.76-3.06c.72-.41,1-.65,1-.77s-2,.74-2.56,1c-1.24.57-5.6,2.47-5.6,2.47s1.79-1.06,2.81-1.63,1-.66,1-.66l-1.64.62a29.46,29.46,0,0,0,3.41-1.85,31.64,31.64,0,0,0-3.68,1.53l5.8-3.15Z" transform="translate(-61.38 -110.4)"/><path class="cls-1" d="M143.57,138.53a2.91,2.91,0,0,1,.75,0,11.93,11.93,0,0,1,1.13.52s6.82,3,13.86,5.63,15.88,5.46,15.88,5.46.3-.26.41-.15.08.23-.22.91-.63,1.21-.78,1.71-.07,1-.22,1.32a2.76,2.76,0,0,1-.67.91c-.15,0-11-4.17-11-4.17s-5.5-2.12-10-4.21-8.85-4.18-8.85-4.18-10.42,5.77-13.75,7.41-12.58,6-12.58,6,9.58-4.84,9.43-5-10.48,4.73-10.48,4.73,8.74-4.35,11.1-5.61,6.05-3.33,5.89-3.45-2.11.86-6.52,2.89-10.26,4.47-10.26,4.47,1.83-1,2.88-1.53,1.61-.85,1.61-.85l-2.24.79s6-2.87,5.92-3-6.19,2.69-6.19,2.69l6.51-3.52,8.39-4.4c4.38-2.3,10-5.32,10-5.32" transform="translate(-61.38 -110.4)"/></svg>