<svg xmlns="http://www.w3.org/2000/svg" viewBox="0 0 402.88 142.23"><defs><style>.a{fill:#fff;}.b{fill:#c6c5c4;}</style></defs><title>granville_w</title><path class="a" d="M95.29,63.84C96.11,62,110.2,38.17,110.2,38.17l-1.82-.58-4.64,5.57c-3,2.74-5.65-.94-5.65-.94-3.21-5.7-5.84-9.36-11.32-12.38C66,18.59,39.11,37,28.45,56.07c-11.09,19.83-11.24,53,11.47,59.79,6.55,2,15.31,2.55,27.7-7.07,3.08-1.71,3.27.18,3.27.18.27,1,.53,8.39.53,8.39-.09,1.8,1,.58,1,.58L94.21,78H100l.54-2L76.69,76l-.63,1.41h8.49a2.11,2.11,0,0,1,1.63,2.75C70,109.36,53,116.91,42.55,113.21,25.5,107.06,33,75.05,40,62.31c9.28-16.62,29.88-39.08,44.82-30.49,12.13,7,13.33,24.75,8.6,30.51C93.46,62.33,93.1,65.45,95.29,63.84Z" transform="translate(-21.15 -12.5)"/><path class="a" d="M368.75,16.93a4.8,4.8,0,0,0-3.56-4.43c-28.14,1.36-55.4,25.54-75.62,49.36h0v0a337.25,337.25,0,0,0-33.32,47.16l-.06-51.84h5.49V54.67h-25l-.09,2.54h7.58l0,60,10.58,0c12.29-22.13,24.64-39.28,36.41-52.6h2.46l-25.19,48.92h-4.12l-.91,2.92H285l1.29-2.92h-3.2l24.29-48.91h2.75l.81-2.75H293.67C334.51,17.18,368,18.31,368.75,16.93Z" transform="translate(-21.15 -12.5)"/><path class="a" d="M420.83,60.49c-.54,1.23-3.82,1.41-3.82,1.41H392.49l-1.19,2.73h4.56l-24.48,48.91h-2.74l3.46-6.62h-3c-2.36,6.62-7.75,6.52-7.75,6.52H346l25.11-48.92h3.38l1.09-2.73H353.56l-.92,2.74h4.47l-25,48.91h-2.71l3.34-6.42h-3c-2.38,6.71-7.76,6.51-7.76,6.51H306.67l25.1-48.91h3.37l1.11-2.73-22.17,0-1,2.72,4.67,0-25,48.91h-3.83l-1.09,2.92h37.1l-1.11,2.27h2.84l1.23-2.36h36.4l-1.08,2.18H366l1.1-2.08h35.72L407.67,106h-3c-2.92,7.74-8.39,7.54-8.39,7.54H385.06l12.65-24.73c7.29-.67,8.94,9.06,8.94,9.06l2.55-.75-3.66-14.07-2.55.66.36,2.92H398.8l10.73-22h6.66c3.37.2,5.39,10,5.39,10L424,73.9Z" transform="translate(-21.15 -12.5)"/><path class="a" d="M229.76,61.84l-1.09,2.73h7L215.86,104c7.81-27.57-1.6-42.12-1.6-42.12H195.58l-1.27,2.73h5.85l-23.4,46.75-4.52-49.49c-7.19,1.68-14.78,7.47-14.78,7.47-12.7,9.32-23,24.5-28.9,34.59-4.75-10.32-9.7-12.89-9.7-12.89,23-5.75,22.77-17.94,22.77-17.94C141.81,62,126.12,61.8,126.12,61.8h-19.6l-.45,2.74h5.65l-25.48,49.1H81.49l-.9,2.73h23l.73-2.92H99.83L111.2,92.21c7.31-1.06,12.59,8.61,15.31,15.26-1.56,2.81-2.65,4.93-3.17,6h-5.2l-.63,2.94h18l.63-2.94h-4c-.71-2.4-1.47-4.56-2.22-6.49C141.66,87,162.8,89.86,162.8,89.86l1.83,23.62h-5l-.46,2.92h34.92l.45-2.92h-5.47l24.48-46.83c8,23.42-5.23,49.77-5.23,49.77,4.63.19,11,0,11,0l.82-2.92h-5.48L239,64.77l2.73-.19.82-2.73Zm-104.83,2.7h3.65s7.12.95,5.94,8.51c-.2,1.79-5.91,15-21.86,16.24Zm3.7,48.92h-1.89c.34-.88.7-1.72,1.08-2.54C128.35,112.47,128.63,113.46,128.63,113.46ZM139,93.35s11.73-17,22.21-22.28l1.47,15.85S148.75,85.24,139,93.35Z" transform="translate(-21.15 -12.5)"/><path class="b" d="M285.88,139.09c.1,0,.2-.07.2-.24v-.73c0-5.26,0-6.23-.06-7.34s-.35-1.73-1.49-2a7.15,7.15,0,0,0-1.35-.1c-.38,0-.59-.07-.59-.31s.24-.31.73-.31c1.87,0,4.05.1,5,.1s3-.1,4.36-.1c.48,0,.73.06.73.31s-.21.31-.63.31a5.89,5.89,0,0,0-1,.1c-.94.18-1.21.76-1.28,2s-.07,2.08-.07,7.34v6.09c0,3.18,0,5.91.17,7.4.11,1,.32,1.73,1.35,1.87a14.58,14.58,0,0,0,1.77.14c.38,0,.55.1.55.27s-.28.35-.69.35c-2.25,0-4.43-.1-5.4-.1-.79,0-3,.1-4.32.1-.49,0-.73-.1-.73-.35s.14-.27.55-.27a5.61,5.61,0,0,0,1.25-.14c.69-.14.86-.9,1-1.9.17-1.46.17-4.19.17-7.37v-3.05a.19.19,0,0,0-.2-.2H272.66c-.1,0-.21,0-.21.2v3.05c0,3.18,0,5.91.18,7.4.1,1,.31,1.73,1.35,1.87a14.25,14.25,0,0,0,1.76.14c.38,0,.55.1.55.27s-.27.35-.69.35c-2.25,0-4.42-.1-5.39-.1-.8,0-3,.1-4.36.1-.45,0-.7-.1-.7-.35s.14-.27.56-.27a5.51,5.51,0,0,0,1.24-.14c.69-.14.87-.9,1-1.9.17-1.46.17-4.19.17-7.37v-6.09c0-5.26,0-6.23-.07-7.34s-.35-1.73-1.49-2a7,7,0,0,0-1.35-.1c-.38,0-.58-.07-.58-.31s.24-.31.72-.31c1.87,0,4.05.1,5,.1s3-.1,4.36-.1c.49,0,.73.06.73.31s-.21.31-.62.31a6.09,6.09,0,0,0-1,.1c-.93.18-1.21.76-1.28,2s-.07,2.08-.07,7.34v.73a.21.21,0,0,0,.21.24Z" transform="translate(-21.15 -12.5)"/><path class="b" d="M297.62,141.16c0-5.91,3.91-13.56,14.29-13.56,8.61,0,14,5,14,12.94s-5.53,14.18-14.32,14.18C301.63,154.72,297.62,147.29,297.62,141.16Zm23.42.66c0-7.75-4.46-12.56-10.14-12.56-4,0-8.51,2.22-8.51,10.83,0,7.2,4,12.91,10.62,12.91C315.44,153,321,151.82,321,141.82Z" transform="translate(-21.15 -12.5)"/><path class="b" d="M334.55,128.5c.1-.59.31-.9.59-.9s.48.17.93,1.08l9.45,19.23,9.41-19.48c.27-.55.45-.83.76-.83s.52.35.62,1.08l3.15,21.17c.31,2.18.66,3.18,1.7,3.49a7,7,0,0,0,2.14.35c.31,0,.55,0,.55.24s-.41.38-.9.38c-.86,0-5.64-.07-7-.17-.79-.07-1-.17-1-.38s.14-.28.38-.38.31-.52.17-1.49l-2.08-15h-.13l-7.55,15.43c-.79,1.62-1,1.94-1.28,1.94s-.65-.7-1.21-1.73c-.83-1.59-3.56-6.89-4-7.86-.31-.72-2.39-4.81-3.6-7.4h-.14l-1.8,13.49a13.55,13.55,0,0,0-.1,1.63c0,.66.45,1,1,1.11a7.3,7.3,0,0,0,1.46.17c.27,0,.52.07.52.24s-.31.38-.84.38c-1.45,0-3-.1-3.63-.1s-2.31.1-3.42.1c-.35,0-.63-.07-.63-.38s.21-.24.56-.24a4.25,4.25,0,0,0,1-.11c1-.2,1.24-1.55,1.42-2.73Z" transform="translate(-21.15 -12.5)"/><path class="b" d="M369.33,138.12c0-5.26,0-6.23-.07-7.34s-.34-1.73-1.49-2a7,7,0,0,0-1.34-.1c-.38,0-.59-.07-.59-.31s.24-.31.76-.31l2.8,0c.9,0,1.7.07,2.18.07,1.11,0,8,0,8.65,0a12,12,0,0,0,1.49-.2,2.78,2.78,0,0,1,.55-.14c.17,0,.21.14.21.31a20.33,20.33,0,0,0-.28,2.25c0,.34-.1,1.87-.17,2.28,0,.17-.1.38-.35.38s-.31-.17-.31-.48a3.6,3.6,0,0,0-.21-1.25c-.24-.62-.58-1-2.31-1.24-.59-.07-4.23-.14-4.92-.14-.17,0-.24.1-.24.34V139c0,.24,0,.38.24.38.77,0,4.74,0,5.54-.07s1.35-.17,1.66-.52.38-.45.55-.45.25.07.25.28-.14.76-.28,2.52c0,.69-.14,2.08-.14,2.32s0,.66-.31.66a.27.27,0,0,1-.31-.31,10.84,10.84,0,0,0-.14-1.25c-.17-.69-.66-1.21-1.94-1.35-.65-.07-4.08-.1-4.91-.1-.17,0-.21.14-.21.34v2.74c0,1.17,0,4.36,0,5.36.07,2.39.62,2.91,4.15,2.91a8.75,8.75,0,0,0,3.26-.42c.89-.41,1.31-1.14,1.55-2.56.07-.38.14-.52.38-.52s.28.28.28.63a27.82,27.82,0,0,1-.45,3.84c-.24.89-.56.89-1.87.89-2.59,0-4.49-.06-6-.1s-2.56-.1-3.6-.1c-.38,0-1.14,0-2,0s-1.69.07-2.38.07c-.45,0-.69-.1-.69-.35s.13-.27.55-.27a5.61,5.61,0,0,0,1.25-.14c.69-.14.86-.9,1-1.9.17-1.46.17-4.19.17-7.37Z" transform="translate(-21.15 -12.5)"/><path class="b" d="M389.28,153.83c-.55-.25-.66-.42-.66-1.18,0-1.9.14-4,.18-4.53s.14-.9.41-.9.35.31.35.59a7.43,7.43,0,0,0,.31,1.76,4.76,4.76,0,0,0,4.95,3.49c3.11,0,4.63-2.11,4.63-3.94s-.52-3.29-3.39-5.54l-1.59-1.24c-3.81-3-5.12-5.4-5.12-8.2,0-3.8,3.18-6.54,8-6.54a16.8,16.8,0,0,1,4.6.59c.31.07.49.17.49.41,0,.45-.14,1.46-.14,4.16,0,.76-.1,1-.38,1s-.35-.2-.35-.62a4.16,4.16,0,0,0-.9-2.28,4.37,4.37,0,0,0-3.77-1.7c-2.56,0-4.12,1.49-4.12,3.57,0,1.59.8,2.8,3.67,5l1,.73c4.19,3.14,5.68,5.53,5.68,8.82a7,7,0,0,1-3.26,6,10,10,0,0,1-5.5,1.41A12.13,12.13,0,0,1,389.28,153.83Z" transform="translate(-21.15 -12.5)"/><rect class="b" x="1.46" y="126.91" width="236.66" height="1.69"/></svg>