<svg id="Layer_1" data-name="Layer 1" xmlns="http://www.w3.org/2000/svg" xmlns:xlink="http://www.w3.org/1999/xlink" viewBox="0 0 450.38 119.41"><defs><style>.cls-1{fill:none;}.cls-2{fill:#0055a3;}.cls-3{fill:url(#New_Gradient_Swatch_2);}.cls-4{fill:url(#New_Gradient_Swatch_2-2);}.cls-5{fill:url(#New_Gradient_Swatch_2-3);}.cls-6{fill:url(#New_Gradient_Swatch_2-4);}.cls-7{fill:url(#New_Gradient_Swatch_2-5);}.cls-8{fill:url(#New_Gradient_Swatch_2-6);}</style><radialGradient id="New_Gradient_Swatch_2" cx="374.76" cy="190.18" r="106.57" gradientTransform="translate(-94.44 -43.52) scale(1.25)" gradientUnits="userSpaceOnUse"><stop offset="0" stop-color="#ed3431"/><stop offset="1" stop-color="#c31f25"/></radialGradient><radialGradient id="New_Gradient_Swatch_2-2" cx="374.76" cy="190.17" r="106.58" xlink:href="#New_Gradient_Swatch_2"/><radialGradient id="New_Gradient_Swatch_2-3" cx="374.76" cy="190.18" r="106.55" xlink:href="#New_Gradient_Swatch_2"/><radialGradient id="New_Gradient_Swatch_2-4" cx="374.76" cy="190.18" r="106.57" xlink:href="#New_Gradient_Swatch_2"/><radialGradient id="New_Gradient_Swatch_2-5" cx="374.76" cy="190.18" r="106.55" xlink:href="#New_Gradient_Swatch_2"/><radialGradient id="New_Gradient_Swatch_2-6" cx="374.76" cy="190.18" r="106.56" xlink:href="#New_Gradient_Swatch_2"/></defs><title>hixson</title><path class="cls-1" d="M160,122.83a32.53,32.53,0,0,0-4.06-4.7,15.23,15.23,0,0,0-5.08-3.36,18,18,0,0,0-3-.95c-.49-.12-1-.21-1.63-.3l-1.66.2a21.26,21.26,0,0,0-3.87.79,4.18,4.18,0,0,0-2.65,2.07,7.33,7.33,0,0,0-.66,3.18V171a6.57,6.57,0,0,0,.69,3.13,5,5,0,0,0,2.62,2.12,17.77,17.77,0,0,0,3.54.89c.65.11,1.26.21,1.83.29.42-.06.81-.13,1.14-.21a15.2,15.2,0,0,0,2.58-.87,20.4,20.4,0,0,0,5.25-3.49,64.89,64.89,0,0,0,4.75-4.92q3.57-4,8-9.13T177.33,148q-4.68-7.09-9.37-13.76T160,122.83Z" transform="translate(-21.66 -107.33)"/><path class="cls-1" d="M116.08,115.08a23.11,23.11,0,0,0-3.62-1c-1.3-.29-2.45-.51-3.47-.65-.84.08-1.73.18-2.71.34a27.49,27.49,0,0,0-3.67.84,4.11,4.11,0,0,0-2.6,2.09,7.28,7.28,0,0,0-.66,3.11V171a6.66,6.66,0,0,0,.66,3.11,5.13,5.13,0,0,0,2.6,2.14,18.11,18.11,0,0,0,3.54.92c1.18.21,2.2.36,3.05.44l3.17-.24a14.3,14.3,0,0,0,3.7-.61,4.81,4.81,0,0,0,2.57-2,6.56,6.56,0,0,0,.69-3.19V120.28a6.76,6.76,0,0,0-.66-3.06A4.82,4.82,0,0,0,116.08,115.08Z" transform="translate(-21.66 -107.33)"/><path class="cls-2" d="M283.59,148.09a25.09,25.09,0,0,0-11.24-7.88q-3.05-1.18-7-2.45c-2.62-.85-5.18-1.7-7.69-2.55q-6.43-2.1-9.46-4.85a9.17,9.17,0,0,1-3-7.1,9.9,9.9,0,0,1,3.49-7.71,13,13,0,0,1,9-3.12,15.88,15.88,0,0,1,7.64,1.76,19.87,19.87,0,0,1,5.77,4.73,35.82,35.82,0,0,1,4.36,6.93c1.37,2.77,2.57,5.49,3.59,8.15h4.39L283,109.32h-4.43l-3.11,3.06A45.81,45.81,0,0,0,267.2,109a36.72,36.72,0,0,0-11.26-1.68,34.45,34.45,0,0,0-11.43,1.84,26.33,26.33,0,0,0-8.62,4.75,21.81,21.81,0,0,0-5.35,7,19,19,0,0,0-1.83,8.14,21.62,21.62,0,0,0,3.54,12.1,22.42,22.42,0,0,0,10.83,8.32c2.11.82,4.35,1.62,6.76,2.41s5,1.64,7.88,2.56q6.57,2.11,9.71,5a9.29,9.29,0,0,1,3.13,7.12,11.12,11.12,0,0,1-3.69,8.55q-3.7,3.39-10.63,3.39a18.19,18.19,0,0,1-9-2.15,27.2,27.2,0,0,1-7-5.56,38.24,38.24,0,0,1-5.31-7.41,69.07,69.07,0,0,1-3.77-7.86h-4.38l.56,22.14a21.33,21.33,0,0,1-3.68-.52c-1.05-.27-2-.56-2.8-.87a15.31,15.31,0,0,1-5-3.39,28.38,28.38,0,0,1-3.95-4.72q-3.93-5.5-8.32-11.76t-10.55-15.53q5-5.72,8.44-9.68t7.22-8.14q2.54-2.8,4.69-4.9a18.36,18.36,0,0,1,5.3-3.52,21.08,21.08,0,0,1,2.88-1,15.34,15.34,0,0,1,3.18-.36v-4H196.59v4q5.23.51,6.66,1.25a2.38,2.38,0,0,1,1.42,2.22q0,1.27-2.47,4.76t-12.08,14.95l-5.84-8.91q-2.58-3.93-3.8-6a33.82,33.82,0,0,1-1.91-3.44,4.72,4.72,0,0,1-.48-1.81c0-1,.83-1.67,2.47-2.14a34.65,34.65,0,0,1,7.63-.92v-4H70.86v4a30.86,30.86,0,0,1,3.55.69,19.55,19.55,0,0,1,3.54,1.15,5.51,5.51,0,0,1,2.65,2.14,6.28,6.28,0,0,1,.66,3v21.1H50.36V119.77a7.56,7.56,0,0,1,.64-3.08,4,4,0,0,1,2.62-2.12A34,34,0,0,1,57,113.8a33.63,33.63,0,0,1,3.77-.51v-4H21.66v4a32.65,32.65,0,0,1,3.47.64A20.57,20.57,0,0,1,29,115.13a5.37,5.37,0,0,1,2.63,2.14,6.51,6.51,0,0,1,.63,3v51.18a6.68,6.68,0,0,1-.72,3.19,4.39,4.39,0,0,1-2.55,2,17.17,17.17,0,0,1-3.59.69c-1.65.18-2.9.3-3.75.33v4h39.1v-4a31.85,31.85,0,0,1-3.82-.56,19.93,19.93,0,0,1-3.32-.87,4.93,4.93,0,0,1-2.52-2.14,6.46,6.46,0,0,1-.74-3.11V146.63h30.9v24.93a6.42,6.42,0,0,1-.71,3.19,5,5,0,0,1-2.6,2,11.87,11.87,0,0,1-3.36.61l-3.72.3v4h101v-4a36.16,36.16,0,0,1-4.11-.56,9.15,9.15,0,0,1-2.45-.77,2.41,2.41,0,0,1-1.19-.94,2.78,2.78,0,0,1-.23-1.2c0-.89,1-2.68,2.88-5.4s6.44-8.21,13.58-16.46q3.22,4.79,6.2,9.3t4.77,7.52a30,30,0,0,1,1.83,3.34,6,6,0,0,1,.67,2.12c0,.82-.62,1.47-1.84,2s-3.95.86-8.17,1.09v4h48l3.52-3.57a45.53,45.53,0,0,0,9.71,3.9,44.33,44.33,0,0,0,12.36,1.66,40.46,40.46,0,0,0,12.49-1.74,30,30,0,0,0,9.43-4.95,21.18,21.18,0,0,0,5.92-7.3,20.14,20.14,0,0,0,2.19-9.09A19.93,19.93,0,0,0,283.59,148.09ZM119.35,171.56a6.56,6.56,0,0,1-.69,3.19,4.81,4.81,0,0,1-2.57,2,14.3,14.3,0,0,1-3.7.61l-3.17.24c-.86-.09-1.87-.24-3.05-.44a18.11,18.11,0,0,1-3.54-.92,5.13,5.13,0,0,1-2.6-2.14,6.66,6.66,0,0,1-.66-3.11V119.77a7.28,7.28,0,0,1,.66-3.11,4.11,4.11,0,0,1,2.6-2.09,27.49,27.49,0,0,1,3.67-.84c1-.16,1.87-.26,2.71-.34,1,.14,2.16.36,3.47.65a23.11,23.11,0,0,1,3.62,1,4.82,4.82,0,0,1,2.6,2.14,6.76,6.76,0,0,1,.66,3.06Zm48.55-12.75q-4.48,5.1-8,9.13a64.89,64.89,0,0,1-4.75,4.92,20.4,20.4,0,0,1-5.25,3.49,15.2,15.2,0,0,1-2.58.87c-.33.08-.72.15-1.14.21-.57-.08-1.17-.17-1.83-.29a17.77,17.77,0,0,1-3.54-.89,5,5,0,0,1-2.62-2.12,6.57,6.57,0,0,1-.69-3.13V119.77a7.33,7.33,0,0,1,.66-3.18,4.18,4.18,0,0,1,2.65-2.07,21.26,21.26,0,0,1,3.87-.79l1.66-.2c.59.08,1.13.18,1.63.3a18,18,0,0,1,3,.95,15.23,15.23,0,0,1,5.08,3.36,32.53,32.53,0,0,1,4.06,4.7q3.25,4.69,7.94,11.37T177.33,148Q172.39,153.72,167.9,158.82Z" transform="translate(-21.66 -107.33)"/><path class="cls-2" d="M360.14,149.93a5.18,5.18,0,0,1,3.57,1.4,5.9,5.9,0,0,1,1.83,3.73,7,7,0,0,1,0,1.39A43.53,43.53,0,0,0,367,145a38,38,0,0,0-3.13-15.8,35.7,35.7,0,0,0-8.49-11.83A37.46,37.46,0,0,0,343.1,110a44.87,44.87,0,0,0-30.59.08A36.36,36.36,0,0,0,300,117.83a37.1,37.1,0,0,0-8.33,12.36,41.13,41.13,0,0,0-3,16.09,37.29,37.29,0,0,0,3.11,15.44,35.12,35.12,0,0,0,8.41,11.77A36.82,36.82,0,0,0,312.59,181a41.1,41.1,0,0,0,6.83,1.87c.19-.44.43-1,.73-1.62a26.33,26.33,0,0,1,1.17-2.51l.53-1.17a12.55,12.55,0,0,1-2.63-1.44,19,19,0,0,1-5.82-7.07,38.1,38.1,0,0,1-3.28-10.52,75,75,0,0,1-1-12.82q0-16,4.78-24.74t14-8.75a14.29,14.29,0,0,1,9,2.81,20.09,20.09,0,0,1,5.81,7.45,39.07,39.07,0,0,1,3,10.6,82.2,82.2,0,0,1,.89,12.23,78.93,78.93,0,0,1-1,13.27,38.68,38.68,0,0,1-3.31,10.52,17.86,17.86,0,0,1-5.76,7,13.26,13.26,0,0,1-2.32,1.3c-.85,1.89-1.79,3.92-2.8,6.07,1.13-.08,2.24-.18,3.31-.32.8-.33,1.65-.66,2.55-1,1.2-.45,2.38-.91,3.61-1.4H341l1.95-.72.25-.61c1.56-3.63,3.28-7.48,5.12-11.45,2-4.32,3.72-8,5.31-11.12.21-.41.66-1.32,1.3-2.75,1.28-3.14,3.21-4,4.61-4.14A5.7,5.7,0,0,1,360.14,149.93Z" transform="translate(-21.66 -107.33)"/><path class="cls-2" d="M358,109.32v4.08a25.23,25.23,0,0,1,5.28,1.56,13.49,13.49,0,0,1,4.1,2.73,9.88,9.88,0,0,1,2.47,3.9,14.78,14.78,0,0,1,.79,4.82v34.26a47,47,0,0,1-.74,10,7.59,7.59,0,0,1-2.73,4.46,12.06,12.06,0,0,1-4.31,1.81,32.13,32.13,0,0,1-4.56.74v.3a4.43,4.43,0,0,1,2.29,3.41c0,.08,0,.18,0,.27h20.7c.42-.3.86-.59,1.31-.87a21.52,21.52,0,0,1,6.78-2.7v-.41a46.69,46.69,0,0,1-4.8-1.17,12.66,12.66,0,0,1-4.39-2,8.87,8.87,0,0,1-2.73-4.82,41.41,41.41,0,0,1-.84-9.61V126.14l38.07,47.24q2-4.5,4.44-9.42,2-4,4-7.7l-38-46.95Z" transform="translate(-21.66 -107.33)"/><path class="cls-2" d="M412.12,109.32v4a46.63,46.63,0,0,1,4.68,1.15,13,13,0,0,1,4.39,2,8.92,8.92,0,0,1,2.76,4.72,40.52,40.52,0,0,1,.86,9.71v22.56l.47-.82a65.56,65.56,0,0,1,4-6.45,9.7,9.7,0,0,1,1.53-1.63V130.37a45.55,45.55,0,0,1,.79-9.82,7.74,7.74,0,0,1,2.68-4.71,10.67,10.67,0,0,1,4.79-2q2.65-.41,4.08-.56v-4Z" transform="translate(-21.66 -107.33)"/><path class="cls-2" d="M429,171.69q.76-1.64,1.83-3.66v-1.87q-1.65,3.08-3.11,6C428,172.08,428.41,171.94,429,171.69Z" transform="translate(-21.66 -107.33)"/><path class="cls-3" d="M342.62,188.48q-5.18,1.63-9.59,3.48t-10.32,5l-.59,1.72q-2.43,6.81-3.06,8.9t-1.89,7.54a59.35,59.35,0,0,0-1.44,8.74,4.16,4.16,0,0,1-.47,2.1,1.71,1.71,0,0,1-1.31.78,2.81,2.81,0,0,1-2.23-.81,3.49,3.49,0,0,1-1.17-2.24,15,15,0,0,1,.24-3.64c.38-2,.65-3.48.83-4.46s.28-1.48.28-1.51c.47-2.17,1-4.3,1.69-6.38l1.88-6a6.39,6.39,0,0,0,.22-.66c.08-.24.19-.64.37-1.21l-.7.29a2.24,2.24,0,0,0-.52.27l-1.46.84a3.14,3.14,0,0,1-1.32.48,1.35,1.35,0,0,1-1.2-.5,2.48,2.48,0,0,1-.62-1.4,2.71,2.71,0,0,1,.71-2.32,13.17,13.17,0,0,1,3.59-2.15c1.71-.8,3-1.46,3.94-2l.89-2.15,2-5.19c.19-.38.38-.8.57-1.28s.53-1.23,1-2.26a23.19,23.19,0,0,1,1.1-2.37c2.29-5,4.05-9.06,5.3-12.09s2.22-5.64,2.89-7.82a43.34,43.34,0,0,1,2.08-6,2.71,2.71,0,0,1,2.13-1.5,2,2,0,0,1,2.5,2,12.84,12.84,0,0,1-.65,4.27q-.81,2.91-2.33,6.84-2.51,6.52-7.78,17.68a45.22,45.22,0,0,0-2.64,6.72l2.35-.93,7.28-3c.94-.4,2-.82,3.23-1.27s2.43-.94,3.66-1.42l3.18-1.18.73-1.78q2.22-5.18,5.09-11.38t5.26-11c.32-.62.79-1.6,1.39-2.93s1.32-2.24,2.18-2.34a2.22,2.22,0,0,1,1.83.59,2.89,2.89,0,0,1,.88,1.85c.15,1.35-.56,3.57-2.11,6.67l-2.48,5L355,173a67.11,67.11,0,0,0-3.41,7.68q1.39-.3,2.06-.37,3.81-.41,4,1.42a3.11,3.11,0,0,1-.78,2.33,3,3,0,0,1-2.05,1.25l-1.93.21a22.12,22.12,0,0,0-3.38.81q-3.42,8-5.89,15.57a83.77,83.77,0,0,0-3.27,12.85l-.72,5q-.5,3.13-2.08,3.3a2.82,2.82,0,0,1-2.23-1.05,4.25,4.25,0,0,1-1.33-2.61,12.75,12.75,0,0,1,.27-3.52q.42-2.22,1.69-6.7c.28-1,.65-2.27,1.11-3.8s.85-2.8,1.17-3.81l1-3.19q.56-1.67,2.51-7.44Z" transform="translate(-21.66 -107.33)"/><path class="cls-4" d="M359.16,210q-3.78,5.63-7.34,6a4,4,0,0,1-3.35-1.1,5.73,5.73,0,0,1-1.61-3.64,17.49,17.49,0,0,1,1.06-7,35.64,35.64,0,0,1,3.88-8.15q5.17-8,10.05-8.51a4.59,4.59,0,0,1,3.43.82,4.28,4.28,0,0,1,1.58,3.08,11.3,11.3,0,0,1-.94,5.22,3,3,0,0,1,1,1.45,2.11,2.11,0,0,1-.44,1.31l-.79,1.26a26,26,0,0,0-1.65,3.69,7.48,7.48,0,0,0-.69,3,1.89,1.89,0,0,0,.54,1.21A1.31,1.31,0,0,0,365,209q1.36-.14,3.74-3.33a37.78,37.78,0,0,0,4.27-7.44q.95-2.1,2-2.21a1.25,1.25,0,0,1,1,.3,1.46,1.46,0,0,1,.48.95,7.64,7.64,0,0,1-.82,3.24,34.92,34.92,0,0,1-2.42,4.68q-5.27,8.57-9.61,9a3.57,3.57,0,0,1-3-.77A6.29,6.29,0,0,1,359.16,210Zm-.59-5c-.08-.18-.15-.31-.18-.39l-.13-.25a2.14,2.14,0,0,1-.2-.47,2,2,0,0,1,.44-.9c.26-.34.61-.77,1.08-1.31,2.47-3,3.6-5.43,3.39-7.3a1.85,1.85,0,0,0-.62-1.24,1.6,1.6,0,0,0-1.32-.4,5.66,5.66,0,0,0-3,1.87A21.49,21.49,0,0,0,354.7,199a28.61,28.61,0,0,0-2.63,5.62,11.2,11.2,0,0,0-.74,4.6,1.79,1.79,0,0,0,.51,1.11,1.24,1.24,0,0,0,1.07.37C354.66,210.49,356.56,208.6,358.57,205Z" transform="translate(-21.66 -107.33)"/><path class="cls-5" d="M377.06,194.69a9.22,9.22,0,0,1,1.63-6.1,16.64,16.64,0,0,1,5.53-5.24,18.2,18.2,0,0,1,7.52-2.6,7.89,7.89,0,0,1,4.58.6,3.67,3.67,0,0,1,1.91,3,8.33,8.33,0,0,1-.82,4.5,10.65,10.65,0,0,1-3.1,3.88,19,19,0,0,1-3.63,2.22,11,11,0,0,1-3.22,1.05c-1.38.15-2.15-.37-2.27-1.56a2,2,0,0,1,1.6-2.27l2.6-.87a7.48,7.48,0,0,0,3-2,3.35,3.35,0,0,0,1.1-2.56,1.84,1.84,0,0,0-.79-1.41,2.53,2.53,0,0,0-1.79-.37A11.94,11.94,0,0,0,385,188q-3.61,3-3.25,6.45a6.76,6.76,0,0,0,.83,2.68,23.26,23.26,0,0,0,2.45,3.34q3.25,3.85,3.56,6.64a7.49,7.49,0,0,1-.74,4.2,8.79,8.79,0,0,1-2.88,3.31,9.5,9.5,0,0,1-4.46,1.61,8.5,8.5,0,0,1-6.57-1.8,8.89,8.89,0,0,1-3.13-6.17,11.55,11.55,0,0,1,.24-3.9,9.09,9.09,0,0,1,1.34-3.19,2.85,2.85,0,0,1,2-1.39,1.44,1.44,0,0,1,.94.16.83.83,0,0,1,.41.67,2.92,2.92,0,0,1-.26,1.2,10,10,0,0,0-.58,5,5.47,5.47,0,0,0,1.93,3.7,4.85,4.85,0,0,0,3.77,1.2,3.67,3.67,0,0,0,2.64-1.41,3.9,3.9,0,0,0,.76-2.86,6.31,6.31,0,0,0-.74-2.36,14.66,14.66,0,0,0-2.16-2.74,20.24,20.24,0,0,1-2.85-3.91A9.91,9.91,0,0,1,377.06,194.69Z" transform="translate(-21.66 -107.33)"/><path class="cls-6" d="M409.52,213.22a2.43,2.43,0,0,1-1.93-.74,3.15,3.15,0,0,1-1-2,25.94,25.94,0,0,1,.79-6.62A81.94,81.94,0,0,1,410.21,193q2-6,4.85-12.84t6.82-14.89q3-6,6-11.19a64.37,64.37,0,0,1,3.8-6.12q1.18-1.54,2.09-1.64a2,2,0,0,1,1.58.61,2.49,2.49,0,0,1,.85,1.57,5,5,0,0,1-.61,2.65q-.73,1.54-4.33,8-10.34,18.35-14.93,32.21-2,5.87-3.21,10.88a45.94,45.94,0,0,0-1.41,7.28Q411.51,213,409.52,213.22Z" transform="translate(-21.66 -107.33)"/><path class="cls-7" d="M434.72,177.07A80.25,80.25,0,0,0,431,186a71.2,71.2,0,0,0-2.68,9.27,22.52,22.52,0,0,0-.64,6.46c.19,1.71.93,2.48,2.25,2.34a4.45,4.45,0,0,0,2.6-1.35,19.35,19.35,0,0,0,2.84-3.83c1.31-2.25,2.39-4.26,3.2-6,.5-1.13,1.1-1.73,1.81-1.81a1.51,1.51,0,0,1,1.07.25,1.28,1.28,0,0,1,.52.95q.09.86-1.38,3.86-5.93,12.44-11.75,13.08a4.68,4.68,0,0,1-3.94-1.36,7.1,7.1,0,0,1-2-4.49,25,25,0,0,1-.06-4.82,36.66,36.66,0,0,1,1-5.52q.75-3,1.79-5.95,0-.15,1.19-3.35l.27-.72.26-.71c.13-.34.23-.61.3-.81l.68-1.88a7.63,7.63,0,0,1-1.93.6,3.21,3.21,0,0,1-2.08-.44,1.79,1.79,0,0,1-.46-2.92,2.34,2.34,0,0,1,1.44-.91l2.75-.74a20.42,20.42,0,0,0,3.23-1.23,98,98,0,0,1,4.6-8.84,41.22,41.22,0,0,1,2.68-4.3,2.77,2.77,0,0,1,1.75-1.21,1.72,1.72,0,0,1,1.34.47,2,2,0,0,1,.7,1.26q.13,1.21-2.17,5.21-1.51,2.7-2.22,4.24a35.45,35.45,0,0,1,7.51-2.33,3,3,0,0,1,2,.36,2,2,0,0,1,.85,1.56,1.64,1.64,0,0,1-.55,1.62,7.09,7.09,0,0,1-2.63.92,38,38,0,0,0-3.89,1.35Q438.07,175.53,434.72,177.07Z" transform="translate(-21.66 -107.33)"/><path class="cls-8" d="M440.72,205.83a9.54,9.54,0,0,1,1-5.13c.81-1.74,1.75-2.68,2.82-2.8a2.08,2.08,0,0,1,1.69.57,2.73,2.73,0,0,1,.85,1.74,10,10,0,0,1-.26,3.61,8.06,8.06,0,0,1-1.42,3,3.17,3.17,0,0,1-2.14,1.33,2,2,0,0,1-1.69-.54A2.77,2.77,0,0,1,440.72,205.83Zm5.3-15.89q-.19-1.83,1.63-5.25t5.21-10.9L456,167c.06-.1.72-1.67,2-4.7.47-1.09.9-2.15,1.32-3.17l2.69-6.64c.29-.65.71-1.65,1.28-3s1.09-2.6,1.55-3.73c.9-2.15,1.42-3.39,1.54-3.73l.83-2.28c.52-1.52,1.31-2.34,2.37-2.45a1.93,1.93,0,0,1,1.64.55,2.67,2.67,0,0,1,.8,1.72,7.3,7.3,0,0,1-.29,2.71,48.91,48.91,0,0,1-1.79,5q-1,2.45-3.7,9.09-2.68,6.34-4.33,10.2T459,173.16q-2.31,5.17-6.43,13.53c-.88,1.79-1.42,3-1.62,3.49q-1,2.51-2.25,2.64a2.11,2.11,0,0,1-1.72-.77A3.48,3.48,0,0,1,446,189.94Z" transform="translate(-21.66 -107.33)"/></svg>