<svg xmlns="http://www.w3.org/2000/svg" xmlns:xlink="http://www.w3.org/1999/xlink" viewBox="0 0 264.35 89.74"><defs><style>.a{fill:#231f20;}.b{fill:url(#a);}.c{fill:url(#b);}.d{fill:#004990;}.e{fill:#fff;}</style><linearGradient id="a" x1="186.61" y1="418.71" x2="186.61" y2="479.2" gradientUnits="userSpaceOnUse"><stop offset="0" stop-color="#fff200"/><stop offset="0.29" stop-color="#ffe500"/><stop offset="1" stop-color="#ffcb05"/></linearGradient><linearGradient id="b" x1="186.61" y1="442.99" x2="186.61" y2="443.42" xlink:href="#a"/></defs><title>aaron_sachs</title><path class="a" d="M222.59,438.63H211.65l-1.92,4.26a6.57,6.57,0,0,0-.71,2.35,1.35,1.35,0,0,0,.62,1.08,5.55,5.55,0,0,0,2.65.6v.74H203.4v-.74a4.83,4.83,0,0,0,2.29-.77,12.09,12.09,0,0,0,2.35-3.88L218,420.09h.73l9.84,22.42a10.12,10.12,0,0,0,2.16,3.51,4.44,4.44,0,0,0,2.7.9v.74H222.26v-.74a4.38,4.38,0,0,0,2.28-.53,1.36,1.36,0,0,0,.59-1.12,8.06,8.06,0,0,0-.83-2.76Zm-.58-1.47-4.8-10.89-4.92,10.89Z" transform="translate(-152 -418.71)"/><path class="a" d="M245.82,445a30.56,30.56,0,0,1-3.68,2.5,5.9,5.9,0,0,1-2.4.5,4.39,4.39,0,0,1-3.26-1.29,4.62,4.62,0,0,1-1.29-3.4,4.16,4.16,0,0,1,.63-2.31,8.11,8.11,0,0,1,3-2.54,46.58,46.58,0,0,1,7-2.91v-.71c0-1.82-.3-3.06-.9-3.74a3.36,3.36,0,0,0-2.64-1,3,3,0,0,0-2.08.67,2,2,0,0,0-.79,1.55l0,1.16a2,2,0,0,1-.49,1.41,1.73,1.73,0,0,1-1.28.49,1.69,1.69,0,0,1-1.27-.51,2,2,0,0,1-.49-1.41,4.06,4.06,0,0,1,1.84-3.15,8.22,8.22,0,0,1,5.15-1.43,9.38,9.38,0,0,1,4.17.82,3.83,3.83,0,0,1,1.81,1.93,10.42,10.42,0,0,1,.37,3.5v6.18a26.38,26.38,0,0,0,.11,3.19,1.29,1.29,0,0,0,.34.78.81.81,0,0,0,.55.2,1.12,1.12,0,0,0,.59-.14,12.73,12.73,0,0,0,1.69-1.45V445c-1.56,2-3,3-4.46,3a2.07,2.07,0,0,1-1.63-.68A3.57,3.57,0,0,1,245.82,445Zm0-1.3v-6.93a41.68,41.68,0,0,0-4.06,1.69,6.91,6.91,0,0,0-2.35,1.82,3.41,3.41,0,0,0-.71,2.09,3.34,3.34,0,0,0,.89,2.38,2.78,2.78,0,0,0,2.07.94Q243.24,445.73,245.82,443.74Z" transform="translate(-152 -418.71)"/><path class="a" d="M259.33,428.91V433q2.39-4.1,4.91-4.1a2.77,2.77,0,0,1,1.9.67,2,2,0,0,1,.75,1.54,1.84,1.84,0,0,1-1.83,1.85,2.8,2.8,0,0,1-1.64-.69,2.77,2.77,0,0,0-1.34-.68,1.31,1.31,0,0,0-.82.39,9.63,9.63,0,0,0-1.93,2.69v8.73a5.22,5.22,0,0,0,.39,2.28,2.11,2.11,0,0,0,1,.9,4.39,4.39,0,0,0,2,.35v.72h-9.78v-.72a4.23,4.23,0,0,0,2.17-.43,1.71,1.71,0,0,0,.73-1,9.43,9.43,0,0,0,.11-1.93v-7.05a27.8,27.8,0,0,0-.14-3.79,1.46,1.46,0,0,0-.5-.88,1.41,1.41,0,0,0-.91-.28,4.32,4.32,0,0,0-1.46.3l-.2-.72,5.77-2.23Z" transform="translate(-152 -418.71)"/><path class="a" d="M277.08,428.91a8.63,8.63,0,0,1,7,3.14,9.37,9.37,0,0,1,2.23,6.17,11.17,11.17,0,0,1-1.23,4.95,8.62,8.62,0,0,1-3.39,3.77,9.27,9.27,0,0,1-4.8,1.28,8.25,8.25,0,0,1-6.86-3.28,9.89,9.89,0,0,1-2.15-6.21,10.59,10.59,0,0,1,1.31-5,8.57,8.57,0,0,1,3.43-3.65A9.07,9.07,0,0,1,277.08,428.91Zm-.65,1.3a4.58,4.58,0,0,0-2.22.62,4.46,4.46,0,0,0-1.8,2.2,10.1,10.1,0,0,0-.69,4,13.48,13.48,0,0,0,1.66,6.86c1.1,1.92,2.56,2.89,4.36,2.89a4.13,4.13,0,0,0,3.34-1.6c.87-1,1.31-2.88,1.31-5.46a12.05,12.05,0,0,0-2.19-7.64A4.56,4.56,0,0,0,276.43,430.21Z" transform="translate(-152 -418.71)"/><path class="a" d="M294.43,432.77q3.36-3.86,6.4-3.86a4.72,4.72,0,0,1,2.69.75,5,5,0,0,1,1.79,2.45,10.79,10.79,0,0,1,.46,3.66v7.77a6.38,6.38,0,0,0,.29,2.35,1.74,1.74,0,0,0,.74.78,4.51,4.51,0,0,0,1.89.27v.72h-9.44v-.72h.39a3.3,3.3,0,0,0,1.87-.38,2.05,2.05,0,0,0,.74-1.15,10.76,10.76,0,0,0,.08-1.87v-7.45a7.3,7.3,0,0,0-.67-3.61,2.47,2.47,0,0,0-2.29-1.12q-2.47,0-4.94,2.58v9.6a6.62,6.62,0,0,0,.23,2.29,1.91,1.91,0,0,0,.81.85,5.2,5.2,0,0,0,2.07.26v.72H288.1v-.72h.42a2.28,2.28,0,0,0,2-.7,5,5,0,0,0,.52-2.7v-6.75a28.55,28.55,0,0,0-.16-4,1.72,1.72,0,0,0-.48-1,1.31,1.31,0,0,0-.87-.26,4.15,4.15,0,0,0-1.39.3l-.31-.72,5.75-2.23h.89Z" transform="translate(-152 -418.71)"/><path class="a" d="M338.69,420.09v9.32h-.77a11.31,11.31,0,0,0-1.34-4.27,6.91,6.91,0,0,0-2.76-2.53,8,8,0,0,0-3.71-.93,5.21,5.21,0,0,0-3.59,1.26,3.79,3.79,0,0,0-1.42,2.87,3.33,3.33,0,0,0,.9,2.25q1.29,1.49,6.15,4a42.13,42.13,0,0,1,5.41,3.11,7.71,7.71,0,0,1,2.23,2.55,6.49,6.49,0,0,1,.78,3.08,6.85,6.85,0,0,1-2.49,5.28,9.28,9.28,0,0,1-6.41,2.22,14.06,14.06,0,0,1-2.31-.18,24.33,24.33,0,0,1-2.68-.73,13,13,0,0,0-2.58-.62,1.16,1.16,0,0,0-.82.29,2.35,2.35,0,0,0-.45,1.24h-.77V439h.77a12.65,12.65,0,0,0,1.46,4.35,6.88,6.88,0,0,0,2.8,2.39,9,9,0,0,0,4.14,1,6.05,6.05,0,0,0,4.12-1.32,4,4,0,0,0,1.51-3.1,4.1,4.1,0,0,0-.57-2,6.18,6.18,0,0,0-1.79-1.88,49.2,49.2,0,0,0-4.44-2.54,43.23,43.23,0,0,1-5.15-3.09,8.5,8.5,0,0,1-2.33-2.54,6.08,6.08,0,0,1-.79-3.07,6.53,6.53,0,0,1,2.33-5,8.6,8.6,0,0,1,5.94-2.09,12.47,12.47,0,0,1,4.78,1.05,5.14,5.14,0,0,0,1.64.5,1.27,1.27,0,0,0,.89-.31,2.43,2.43,0,0,0,.55-1.24Z" transform="translate(-152 -418.71)"/><path class="a" d="M354.8,445a31.18,31.18,0,0,1-3.69,2.5,5.9,5.9,0,0,1-2.4.5,4.41,4.41,0,0,1-3.26-1.29,4.66,4.66,0,0,1-1.28-3.4,4.24,4.24,0,0,1,.62-2.31,8.11,8.11,0,0,1,3-2.54,46.8,46.8,0,0,1,7-2.91v-.71c0-1.82-.3-3.06-.91-3.74a3.32,3.32,0,0,0-2.63-1,3.07,3.07,0,0,0-2.09.67,2,2,0,0,0-.79,1.55l0,1.16a1.91,1.91,0,0,1-.49,1.41,1.72,1.72,0,0,1-1.28.49,1.67,1.67,0,0,1-1.26-.51,2,2,0,0,1-.49-1.41,4,4,0,0,1,1.83-3.15,8.24,8.24,0,0,1,5.15-1.43,9.35,9.35,0,0,1,4.17.82,3.79,3.79,0,0,1,1.81,1.93,10.33,10.33,0,0,1,.38,3.5v6.18a27.36,27.36,0,0,0,.1,3.19,1.29,1.29,0,0,0,.35.78.78.78,0,0,0,.55.2,1.11,1.11,0,0,0,.58-.14,12.1,12.1,0,0,0,1.69-1.45V445c-1.56,2-3,3-4.46,3a2.1,2.1,0,0,1-1.63-.68A3.52,3.52,0,0,1,354.8,445Zm0-1.3v-6.93a42.26,42.26,0,0,0-4.07,1.69,7,7,0,0,0-2.35,1.82,3.47,3.47,0,0,0-.71,2.09,3.31,3.31,0,0,0,.9,2.38,2.74,2.74,0,0,0,2.06.94Q352.22,445.73,354.8,443.74Z" transform="translate(-152 -418.71)"/><path class="a" d="M378.93,440.74a9.71,9.71,0,0,1-3,5.54,7.42,7.42,0,0,1-10.65-.67,9.88,9.88,0,0,1-2.42-7,9.43,9.43,0,0,1,2.68-7,8.76,8.76,0,0,1,6.43-2.69,7.31,7.31,0,0,1,4.62,1.42,3.92,3.92,0,0,1,1.82,3,1.58,1.58,0,0,1-.51,1.22,2.05,2.05,0,0,1-1.43.47,2.3,2.3,0,0,1-1.86-.76,3.06,3.06,0,0,1-.46-1.59,2.56,2.56,0,0,0-.85-1.79,3.1,3.1,0,0,0-2-.59,4.23,4.23,0,0,0-3.36,1.47,7.61,7.61,0,0,0-1.69,5.15,10,10,0,0,0,1.68,5.75,5.22,5.22,0,0,0,4.54,2.5,5.61,5.61,0,0,0,3.66-1.34,8.82,8.82,0,0,0,2.23-3.32Z" transform="translate(-152 -418.71)"/><path class="a" d="M387.05,419.39v13.32a15.85,15.85,0,0,1,3.67-3.11,5.93,5.93,0,0,1,2.71-.69,4.6,4.6,0,0,1,2.79.86,5,5,0,0,1,1.73,2.68,17.84,17.84,0,0,1,.4,4.65v6.44a6.54,6.54,0,0,0,.29,2.37,1.63,1.63,0,0,0,.71.76,4.24,4.24,0,0,0,1.83.27v.72H391.8v-.72h.44a3.27,3.27,0,0,0,1.86-.38,2.09,2.09,0,0,0,.73-1.15,15.6,15.6,0,0,0,.06-1.87V437.1a15,15,0,0,0-.32-3.91,2.61,2.61,0,0,0-1-1.4,3,3,0,0,0-1.7-.47,4.94,4.94,0,0,0-2.13.52,10,10,0,0,0-2.65,2.08v9.62a7.32,7.32,0,0,0,.22,2.33,1.79,1.79,0,0,0,.81.77,5,5,0,0,0,2.06.3v.72h-9.47v-.72a4.48,4.48,0,0,0,2-.37,1.48,1.48,0,0,0,.66-.76,6.47,6.47,0,0,0,.25-2.27V427.06a27.23,27.23,0,0,0-.15-3.83,1.79,1.79,0,0,0-.48-1,1.38,1.38,0,0,0-.87-.25,5.36,5.36,0,0,0-1.42.31l-.29-.69,5.71-2.23Z" transform="translate(-152 -418.71)"/><path class="a" d="M414.91,428.91v6.21h-.68a7.92,7.92,0,0,0-2-4,4.7,4.7,0,0,0-3.15-1.05,3.6,3.6,0,0,0-2.36.73,2.11,2.11,0,0,0-.9,1.63,2.91,2.91,0,0,0,.67,1.91,7.49,7.49,0,0,0,2.63,1.73l3,1.41q4.23,2,4.23,5.19a4.84,4.84,0,0,1-2,4,7,7,0,0,1-4.41,1.52,15.78,15.78,0,0,1-4-.6,4.35,4.35,0,0,0-1.12-.2.82.82,0,0,0-.75.52h-.69v-6.5h.69a7.28,7.28,0,0,0,2.23,4.19A5.49,5.49,0,0,0,410,447a3.38,3.38,0,0,0,2.35-.8,2.52,2.52,0,0,0,.91-1.94,3.05,3.05,0,0,0-1-2.31,17.9,17.9,0,0,0-4-2.36,12.14,12.14,0,0,1-4-2.59,4.35,4.35,0,0,1-.93-2.86,4.93,4.93,0,0,1,1.61-3.76,5.91,5.91,0,0,1,4.18-1.51,10.47,10.47,0,0,1,2.73.46,6.67,6.67,0,0,0,1.42.3.89.89,0,0,0,.52-.14,2,2,0,0,0,.44-.62Z" transform="translate(-152 -418.71)"/><path class="b" d="M201.11,420.76c2.38.94,5.63,2.81,6,5.72a9.6,9.6,0,0,1-1.61,5.31,7.88,7.88,0,0,1-1.64,1.62c-.17.13-.55-.11-.55-.11-3.09-3.69-5.95-7.57-11.6-8.51-2.67-.44-11.74-.28-15.05,5-2.23,3.57-1.81,8.3.67,10.76a12.09,12.09,0,0,0,1.56,1.18s2.13-.21,3.61-.24a28.84,28.84,0,0,1,8.37.78c1.7.38,3.25,1.33,3.41,2.73.13,1.16-1,2-2.22,2.13-6,.44-13.69-2.41-13.69-2.41s-6.35,1.6-9,4c-3,2.84-4.95,5.52-5.37,9a11.82,11.82,0,0,0,1,6.13c2.22,5.75,6.76,7.62,13,9.28a30.51,30.51,0,0,0,16.53-1c14.37-5.13,13.18-11.16,12.17-12.34a4.93,4.93,0,0,0-2.9-1.58,16.6,16.6,0,0,0-13.44,2.5c-1.3.92-3.15,3.56-4,3.57a1.29,1.29,0,0,1-1.07-.82c-.4-1.59,1.26-3.37,2.23-4.32a21,21,0,0,1,16-6.3c5.1,0,10.79,1.2,14.54-2.2.77-.77,1.18-1.81,2.13-2.31.36-.19,1,0,1.07.91a9.31,9.31,0,0,1-.63,4.29c-.74,2.23-3.64,4.26-6.87,4.89a16.23,16.23,0,0,1-4.08,0,15.86,15.86,0,0,1,.76,1.87c1.47,5.12-2.63,8.71-6.68,11.9-6.74,5.31-19.77,7.43-27.24,6.94-18.26-1.21-23.43-10.38-24.27-15.86-1-6.25,2.59-12.14,8.13-15.7,5-3.23,10.69-4.31,15.44-5.13-4.64-4.88-6.16-9.33-3.84-14.84,2.49-5.9,8.48-8.37,15.5-8.82A32.58,32.58,0,0,1,201.11,420.76Z" transform="translate(-152 -418.71)"/><path class="c" d="M201.11,420.76c2.38.94,5.63,2.81,6,5.72a9.6,9.6,0,0,1-1.61,5.31,7.88,7.88,0,0,1-1.64,1.62c-.17.13-.55-.11-.55-.11-3.09-3.69-5.95-7.57-11.6-8.51-2.67-.44-11.74-.28-15.05,5-2.23,3.57-1.81,8.3.67,10.76a12.09,12.09,0,0,0,1.56,1.18s2.13-.21,3.61-.24a28.84,28.84,0,0,1,8.37.78c1.7.38,3.25,1.33,3.41,2.73.13,1.16-1,2-2.22,2.13-6,.44-13.69-2.41-13.69-2.41s-6.35,1.6-9,4c-3,2.84-4.95,5.52-5.37,9a11.82,11.82,0,0,0,1,6.13c2.22,5.75,6.76,7.62,13,9.28a30.51,30.51,0,0,0,16.53-1c14.37-5.13,13.18-11.16,12.17-12.34a4.93,4.93,0,0,0-2.9-1.58,16.6,16.6,0,0,0-13.44,2.5c-1.3.92-3.15,3.56-4,3.57a1.29,1.29,0,0,1-1.07-.82c-.4-1.59,1.26-3.37,2.23-4.32a21,21,0,0,1,16-6.3c5.1,0,10.79,1.2,14.54-2.2.77-.77,1.18-1.81,2.13-2.31.36-.19,1,0,1.07.91a9.31,9.31,0,0,1-.63,4.29c-.74,2.23-3.64,4.26-6.87,4.89a16.23,16.23,0,0,1-4.08,0,15.86,15.86,0,0,1,.76,1.87c1.47,5.12-2.63,8.71-6.68,11.9-6.74,5.31-19.77,7.43-27.24,6.94-18.26-1.21-23.43-10.38-24.27-15.86-1-6.25,2.59-12.14,8.13-15.7,5-3.23,10.69-4.31,15.44-5.13-4.64-4.88-6.16-9.33-3.84-14.84,2.49-5.9,8.48-8.37,15.5-8.82A32.58,32.58,0,0,1,201.11,420.76Z" transform="translate(-152 -418.71)"/><path class="b" d="M201.11,420.76c2.38.94,5.63,2.81,6,5.72a9.6,9.6,0,0,1-1.61,5.31,7.88,7.88,0,0,1-1.64,1.62c-.17.13-.55-.11-.55-.11-3.09-3.69-5.95-7.57-11.6-8.51-2.67-.44-11.74-.28-15.05,5-2.23,3.57-1.81,8.3.67,10.76a12.09,12.09,0,0,0,1.56,1.18s2.13-.21,3.61-.24a28.84,28.84,0,0,1,8.37.78c1.7.38,3.25,1.33,3.41,2.73.13,1.16-1,2-2.22,2.13-6,.44-13.69-2.41-13.69-2.41s-6.35,1.6-9,4c-3,2.84-4.95,5.52-5.37,9a11.82,11.82,0,0,0,1,6.13c2.22,5.75,6.76,7.62,13,9.28a30.51,30.51,0,0,0,16.53-1c14.37-5.13,13.18-11.16,12.17-12.34a4.93,4.93,0,0,0-2.9-1.58,16.6,16.6,0,0,0-13.44,2.5c-1.3.92-3.15,3.56-4,3.57a1.29,1.29,0,0,1-1.07-.82c-.4-1.59,1.26-3.37,2.23-4.32a21,21,0,0,1,16-6.3c5.1,0,10.79,1.2,14.54-2.2.77-.77,1.18-1.81,2.13-2.31.36-.19,1,0,1.07.91a9.31,9.31,0,0,1-.63,4.29c-.74,2.23-3.64,4.26-6.87,4.89a16.23,16.23,0,0,1-4.08,0,15.86,15.86,0,0,1,.76,1.87c1.47,5.12-2.63,8.71-6.68,11.9-6.74,5.31-19.77,7.43-27.24,6.94-18.26-1.21-23.43-10.38-24.27-15.86-1-6.25,2.59-12.14,8.13-15.7,5-3.23,10.69-4.31,15.44-5.13-4.64-4.88-6.16-9.33-3.84-14.84,2.49-5.9,8.48-8.37,15.5-8.82A32.58,32.58,0,0,1,201.11,420.76Z" transform="translate(-152 -418.71)"/><path class="a" d="M230.94,469h-9.57l-1.68,4.25a7.14,7.14,0,0,0-.63,2.35,1.39,1.39,0,0,0,.54,1.08,4.28,4.28,0,0,0,2.32.61V478h-7.78v-.74a4,4,0,0,0,2-.78,12.22,12.22,0,0,0,2.06-3.87l8.72-22.19h.64l8.58,22.43a10.57,10.57,0,0,0,1.88,3.51,3.69,3.69,0,0,0,2.36.9V478h-9.75v-.74a3.34,3.34,0,0,0,2-.54,1.4,1.4,0,0,0,.52-1.11,8.93,8.93,0,0,0-.72-2.76Zm-.51-1.47-4.18-10.89-4.32,10.89Z" transform="translate(-152 -418.71)"/><path class="a" d="M252.78,459.28v6.2h-.6a8.22,8.22,0,0,0-1.78-4,3.76,3.76,0,0,0-2.76-1.06,2.89,2.89,0,0,0-2.06.74,2.2,2.2,0,0,0-.78,1.63,3.14,3.14,0,0,0,.58,1.91,6.51,6.51,0,0,0,2.29,1.73l2.66,1.41q3.71,2,3.7,5.19a5.08,5.08,0,0,1-1.73,4,5.65,5.65,0,0,1-3.86,1.52A12.42,12.42,0,0,1,245,478a3.13,3.13,0,0,0-1-.2.74.74,0,0,0-.66.51h-.6v-6.5h.6a7.64,7.64,0,0,0,1.95,4.2,4.49,4.49,0,0,0,3.22,1.41,2.74,2.74,0,0,0,2.05-.81,2.64,2.64,0,0,0,.8-1.93,3.22,3.22,0,0,0-.88-2.31,15.68,15.68,0,0,0-3.53-2.37,10.46,10.46,0,0,1-3.46-2.58,4.81,4.81,0,0,1-.82-2.86,5.35,5.35,0,0,1,1.42-3.76,4.77,4.77,0,0,1,3.66-1.51,7.76,7.76,0,0,1,2.38.46,5.29,5.29,0,0,0,1.24.3.7.7,0,0,0,.46-.14,1.9,1.9,0,0,0,.38-.62Z" transform="translate(-152 -418.71)"/><path class="a" d="M267.31,459.28v6.2h-.61a8.32,8.32,0,0,0-1.77-4,3.76,3.76,0,0,0-2.76-1.06,2.89,2.89,0,0,0-2.06.74,2.25,2.25,0,0,0-.79,1.63,3.14,3.14,0,0,0,.59,1.91,6.51,6.51,0,0,0,2.29,1.73l2.66,1.41q3.7,2,3.7,5.19a5.11,5.11,0,0,1-1.73,4,5.67,5.67,0,0,1-3.86,1.52,12.54,12.54,0,0,1-3.5-.59,3.08,3.08,0,0,0-1-.2.74.74,0,0,0-.66.51h-.6v-6.5h.6a7.64,7.64,0,0,0,2,4.2,4.48,4.48,0,0,0,3.22,1.41,2.74,2.74,0,0,0,2.05-.81,2.64,2.64,0,0,0,.8-1.93,3.22,3.22,0,0,0-.89-2.31,15.32,15.32,0,0,0-3.52-2.37,10.46,10.46,0,0,1-3.46-2.58,4.74,4.74,0,0,1-.82-2.86,5.31,5.31,0,0,1,1.42-3.76,4.76,4.76,0,0,1,3.65-1.51,7.76,7.76,0,0,1,2.39.46,5.18,5.18,0,0,0,1.24.3.7.7,0,0,0,.46-.14,2.1,2.1,0,0,0,.38-.62Z" transform="translate(-152 -418.71)"/><path class="a" d="M279.21,459.28a7.19,7.19,0,0,1,6.09,3.14,10.13,10.13,0,0,1,1.94,6.16,12.43,12.43,0,0,1-1.08,4.95,8.41,8.41,0,0,1-3,3.78,7.35,7.35,0,0,1-4.21,1.27,6.89,6.89,0,0,1-6-3.28,10.78,10.78,0,0,1-1.87-6.2,11.81,11.81,0,0,1,1.14-5,8.38,8.38,0,0,1,3-3.66A7.19,7.19,0,0,1,279.21,459.28Zm-.56,1.29a3.54,3.54,0,0,0-1.94.63,4.36,4.36,0,0,0-1.58,2.19,11.49,11.49,0,0,0-.61,4,15.19,15.19,0,0,0,1.44,6.86q1.46,2.88,3.82,2.88a3.48,3.48,0,0,0,2.92-1.59c.76-1.06,1.15-2.88,1.15-5.47a13.33,13.33,0,0,0-1.9-7.63A3.89,3.89,0,0,0,278.65,460.57Z" transform="translate(-152 -418.71)"/><path class="a" d="M303.88,471.11a10.1,10.1,0,0,1-2.65,5.53,6,6,0,0,1-4.35,1.94,6.26,6.26,0,0,1-5-2.6,10.84,10.84,0,0,1-2.11-7,10.3,10.3,0,0,1,2.35-7,7.23,7.23,0,0,1,5.63-2.68,5.79,5.79,0,0,1,4,1.42,4,4,0,0,1,1.59,2.95,1.71,1.71,0,0,1-.45,1.23,1.66,1.66,0,0,1-1.25.46,1.87,1.87,0,0,1-1.62-.75,3.36,3.36,0,0,1-.41-1.59,2.69,2.69,0,0,0-.74-1.79,2.45,2.45,0,0,0-1.76-.6,3.51,3.51,0,0,0-2.94,1.47,8.29,8.29,0,0,0-1.48,5.15,11.14,11.14,0,0,0,1.46,5.76,4.45,4.45,0,0,0,4,2.49,4.57,4.57,0,0,0,3.21-1.33,9.08,9.08,0,0,0,2-3.32Z" transform="translate(-152 -418.71)"/><path class="a" d="M312,459.28v14.63a7.45,7.45,0,0,0,.22,2.28,1.74,1.74,0,0,0,.68.84,3.26,3.26,0,0,0,1.63.28V478h-8.11v-.72a3.53,3.53,0,0,0,1.64-.26,1.72,1.72,0,0,0,.66-.85,6.8,6.8,0,0,0,.25-2.29v-7a27.07,27.07,0,0,0-.16-3.83,1.68,1.68,0,0,0-.4-.89,1.09,1.09,0,0,0-.75-.25,3.4,3.4,0,0,0-1.24.3l-.25-.71,5-2.23Zm-1.5-9.52a1.7,1.7,0,0,1,1.3.58,2,2,0,0,1,.54,1.42,2.08,2.08,0,0,1-.54,1.44,1.71,1.71,0,0,1-1.3.59,1.76,1.76,0,0,1-1.32-.59,2.08,2.08,0,0,1-.54-1.44,2,2,0,0,1,.54-1.42A1.72,1.72,0,0,1,310.54,449.76Z" transform="translate(-152 -418.71)"/><path class="a" d="M326.1,475.4a28.13,28.13,0,0,1-3.23,2.51,4.63,4.63,0,0,1-2.1.49,3.62,3.62,0,0,1-2.85-1.29,5,5,0,0,1-1.12-3.4,4.77,4.77,0,0,1,.55-2.3,7.55,7.55,0,0,1,2.6-2.55,39.69,39.69,0,0,1,6.16-2.9v-.72a6.32,6.32,0,0,0-.79-3.73,2.75,2.75,0,0,0-2.31-1,2.47,2.47,0,0,0-1.82.68,2.12,2.12,0,0,0-.69,1.55l0,1.15a2.07,2.07,0,0,1-.43,1.41,1.41,1.41,0,0,1-1.12.5,1.34,1.34,0,0,1-1.1-.52,2.1,2.1,0,0,1-.43-1.41,4.19,4.19,0,0,1,1.61-3.14,6.55,6.55,0,0,1,4.5-1.43,7.33,7.33,0,0,1,3.65.81,3.73,3.73,0,0,1,1.58,1.93,11.76,11.76,0,0,1,.33,3.5v6.18a31.17,31.17,0,0,0,.09,3.19,1.37,1.37,0,0,0,.3.79.69.69,0,0,0,.48.2,1,1,0,0,0,.51-.14,11.61,11.61,0,0,0,1.48-1.45v1.11c-1.36,2-2.67,3-3.91,3a1.72,1.72,0,0,1-1.42-.67A3.91,3.91,0,0,1,326.1,475.4Zm0-1.29v-6.94a36.3,36.3,0,0,0-3.56,1.69,6.19,6.19,0,0,0-2.06,1.83,3.79,3.79,0,0,0-.62,2.09,3.6,3.6,0,0,0,.78,2.37,2.3,2.3,0,0,0,1.8,1C323.38,476.1,324.59,475.43,326.1,474.11Z" transform="translate(-152 -418.71)"/><path class="a" d="M338.08,453.83v6H342v1.39h-3.9V473a4.24,4.24,0,0,0,.46,2.38,1.44,1.44,0,0,0,1.19.62,2,2,0,0,0,1.17-.41,2.59,2.59,0,0,0,.88-1.2h.71a6.32,6.32,0,0,1-1.81,2.93,3.69,3.69,0,0,1-2.41,1,3.07,3.07,0,0,1-2.82-1.95,8.45,8.45,0,0,1-.38-2.92V461.21h-2.64v-.66a6.79,6.79,0,0,0,2.05-1.48,11.29,11.29,0,0,0,1.87-2.47,24,24,0,0,0,1.17-2.77Z" transform="translate(-152 -418.71)"/><path class="a" d="M346.39,466.67a10,10,0,0,0,1.8,6.37,5.36,5.36,0,0,0,4.28,2.3,4.43,4.43,0,0,0,2.86-1,7.28,7.28,0,0,0,2-3.37l.57.4a9.93,9.93,0,0,1-2.23,5,5.74,5.74,0,0,1-4.61,2.23,6.51,6.51,0,0,1-5.15-2.55,10.35,10.35,0,0,1-2.14-6.87c0-3.12.74-5.54,2.21-7.29a6.9,6.9,0,0,1,5.52-2.61,5.87,5.87,0,0,1,4.6,2,7.69,7.69,0,0,1,1.8,5.39Zm0-1.15h7.73a8.11,8.11,0,0,0-.39-2.46,3.79,3.79,0,0,0-1.35-1.75,3.19,3.19,0,0,0-1.89-.64,3.64,3.64,0,0,0-2.71,1.28A5.86,5.86,0,0,0,346.4,465.52Z" transform="translate(-152 -418.71)"/><path class="a" d="M371,459.28v6.2h-.6a8.22,8.22,0,0,0-1.78-4,3.76,3.76,0,0,0-2.76-1.06,2.91,2.91,0,0,0-2.06.74,2.2,2.2,0,0,0-.78,1.63,3.14,3.14,0,0,0,.58,1.91,6.61,6.61,0,0,0,2.29,1.73l2.66,1.41q3.71,2,3.7,5.19a5.08,5.08,0,0,1-1.73,4,5.64,5.64,0,0,1-3.85,1.52,12.42,12.42,0,0,1-3.5-.59,3.08,3.08,0,0,0-1-.2.71.71,0,0,0-.65.51h-.61v-6.5h.6a7.64,7.64,0,0,0,1.95,4.2,4.49,4.49,0,0,0,3.22,1.41,2.76,2.76,0,0,0,2.06-.81,2.67,2.67,0,0,0,.79-1.93,3.22,3.22,0,0,0-.88-2.31,15.68,15.68,0,0,0-3.53-2.37,10.46,10.46,0,0,1-3.46-2.58,4.74,4.74,0,0,1-.81-2.86,5.3,5.3,0,0,1,1.41-3.76,4.77,4.77,0,0,1,3.66-1.51,7.87,7.87,0,0,1,2.39.46,5.25,5.25,0,0,0,1.23.3.7.7,0,0,0,.46-.14,1.9,1.9,0,0,0,.38-.62Z" transform="translate(-152 -418.71)"/><path class="a" d="M374.9,482.7v-.6a4.06,4.06,0,0,0,2-1.45,3.45,3.45,0,0,0,.72-2.08.87.87,0,0,0-.11-.44.24.24,0,0,0-.18-.12,1.88,1.88,0,0,0-.61.27.9.9,0,0,1-.47.13,1.27,1.27,0,0,1-1-.4,1.66,1.66,0,0,1,1.27-2.73,1.86,1.86,0,0,1,1.47.79,3.13,3.13,0,0,1,.65,2.09,4.34,4.34,0,0,1-.9,2.63A5.85,5.85,0,0,1,374.9,482.7Z" transform="translate(-152 -418.71)"/><path class="a" d="M387.11,469.31v5.42a4,4,0,0,0,.35,2.18,1.75,1.75,0,0,0,1.45.61h.65v.5h-7.31v-.5h.64a1.68,1.68,0,0,0,1.55-.77,4.91,4.91,0,0,0,.25-2l0-12a4.32,4.32,0,0,0-.34-2.19,1.79,1.79,0,0,0-1.46-.6h-.64v-.51h6.25a10,10,0,0,1,3.61.52,5,5,0,0,1,2.23,1.73,4.76,4.76,0,0,1,.9,2.9,5.09,5.09,0,0,1-1.38,3.7,5.14,5.14,0,0,1-3.9,1.43,10.73,10.73,0,0,1-1.33-.09C388.17,469.53,387.66,469.44,387.11,469.31Zm0-.78c.44.09.83.16,1.18.2a6.16,6.16,0,0,0,.88.07,2.9,2.9,0,0,0,2.26-1.11,4.24,4.24,0,0,0,.95-2.86,5.57,5.57,0,0,0-.45-2.24,3.31,3.31,0,0,0-1.28-1.55,3.44,3.44,0,0,0-1.89-.52,7,7,0,0,0-1.65.26Z" transform="translate(-152 -418.71)"/><path class="a" d="M394.74,475.36a1.29,1.29,0,0,1,1,.45,1.51,1.51,0,0,1,.4,1.07,1.56,1.56,0,0,1-.41,1.08,1.28,1.28,0,0,1-1,.45,1.3,1.3,0,0,1-1-.45,1.56,1.56,0,0,1-.41-1.08,1.54,1.54,0,0,1,.42-1.08A1.3,1.3,0,0,1,394.74,475.36Z" transform="translate(-152 -418.71)"/><path class="a" d="M411.44,459l.38,6.32h-.39a8.2,8.2,0,0,0-2.22-4.09,5.15,5.15,0,0,0-3.47-1.25,5.33,5.33,0,0,0-3.07.94,6.2,6.2,0,0,0-2.17,3,14.57,14.57,0,0,0-.79,5.12,11.81,11.81,0,0,0,.74,4.38,5.92,5.92,0,0,0,2.23,2.84,6,6,0,0,0,3.4,1,5.52,5.52,0,0,0,2.94-.78,10,10,0,0,0,2.79-3.08l.39.28a9.43,9.43,0,0,1-3,3.63,7.13,7.13,0,0,1-4.07,1.16,7.5,7.5,0,0,1-6.57-3.43,10.52,10.52,0,0,1-1.73-6,11.48,11.48,0,0,1,1.15-5.11,8.75,8.75,0,0,1,3.16-3.62,8,8,0,0,1,4.39-1.28,7.49,7.49,0,0,1,3.65,1,1.93,1.93,0,0,0,.75.31.78.78,0,0,0,.59-.27,2.15,2.15,0,0,0,.47-1Z" transform="translate(-152 -418.71)"/><path class="a" d="M414.26,475.36a1.28,1.28,0,0,1,1,.45,1.51,1.51,0,0,1,.4,1.07,1.56,1.56,0,0,1-.41,1.08,1.28,1.28,0,0,1-1,.45,1.31,1.31,0,0,1-1-.45,1.55,1.55,0,0,1-.4-1.08,1.49,1.49,0,0,1,.41-1.08A1.31,1.31,0,0,1,414.26,475.36Z" transform="translate(-152 -418.71)"/><path class="d" d="M399.9,487.83s11.1.59,11.1,10.07c0,9.13-10.51,10.54-10.51,10.54H229.17S219,507.08,219,497.62c0-9.08,11.58-9.88,11.58-9.88Z" transform="translate(-152 -418.71)"/><path class="e" d="M243.27,503.56h-3.86l-1.54-2.77h-7l-1.45,2.77h-3.77l6.85-12.21h3.76Zm-6.54-4.83-2.42-4.53-2.38,4.53Z" transform="translate(-152 -418.71)"/><path class="e" d="M253.52,503.56v-1.32a4.88,4.88,0,0,1-1.83,1.11,6.88,6.88,0,0,1-2.4.41,6.41,6.41,0,0,1-2.3-.39,3,3,0,0,1-1.48-1.1,3.62,3.62,0,0,1-.45-2v-5.6h3.37v4.07a8.21,8.21,0,0,0,.18,2.29,1.37,1.37,0,0,0,.68.66,2.73,2.73,0,0,0,1.25.25,3.53,3.53,0,0,0,1.55-.33,1.91,1.91,0,0,0,.93-.82,6.53,6.53,0,0,0,.26-2.38v-3.74h3.37v8.85Z" transform="translate(-152 -418.71)"/><path class="e" d="M266,494.71v1.87h-2.3v3.57a6.78,6.78,0,0,0,.06,1.26.62.62,0,0,0,.3.3,1.41,1.41,0,0,0,.57.11,5.9,5.9,0,0,0,1.36-.22l.29,1.81a9.14,9.14,0,0,1-2.67.35,6,6,0,0,1-1.64-.21,2.37,2.37,0,0,1-1.07-.55,1.81,1.81,0,0,1-.48-.91,8,8,0,0,1-.11-1.65v-3.86h-1.54v-1.87h1.54V493l3.39-1.36v3.12Z" transform="translate(-152 -418.71)"/><path class="e" d="M267.54,499a3.74,3.74,0,0,1,.83-2.26,5.12,5.12,0,0,1,2.35-1.66,9.33,9.33,0,0,1,3.38-.58,8,8,0,0,1,4.74,1.31,3.89,3.89,0,0,1,1.85,3.29,4,4,0,0,1-1.86,3.33,8,8,0,0,1-4.7,1.32,10,10,0,0,1-3.34-.55,5,5,0,0,1-2.42-1.61A4.1,4.1,0,0,1,267.54,499Zm3.46.13a2.38,2.38,0,0,0,.9,2,3.85,3.85,0,0,0,4.43,0,2.73,2.73,0,0,0,0-4,3.85,3.85,0,0,0-4.43,0A2.41,2.41,0,0,0,271,499.14Z" transform="translate(-152 -418.71)"/><path class="e" d="M283.25,503.56V491.35h3.55v12.21Z" transform="translate(-152 -418.71)"/><path class="e" d="M301.75,503.56h-3.37v-4.51a4.8,4.8,0,0,0-.22-1.86,1.44,1.44,0,0,0-.7-.65,2.6,2.6,0,0,0-1.17-.24,3.62,3.62,0,0,0-1.57.34,1.89,1.89,0,0,0-1,.88,5.52,5.52,0,0,0-.25,2v4h-3.38v-8.85h3.14V496a6,6,0,0,1,4.2-1.5,7.17,7.17,0,0,1,2,.28,3.58,3.58,0,0,1,1.4.71,2.28,2.28,0,0,1,.66,1,4.91,4.91,0,0,1,.19,1.57Z" transform="translate(-152 -418.71)"/><path class="e" d="M308.47,494.71v8.58a6.36,6.36,0,0,1-.32,2.39,2.23,2.23,0,0,1-1.22,1.08,5.91,5.91,0,0,1-2.31.4,10.82,10.82,0,0,1-1.09-.07c-.39,0-.81-.1-1.25-.18l.58-2,.45,0,.39,0a2.06,2.06,0,0,0,.85-.15.93.93,0,0,0,.44-.37,4.34,4.34,0,0,0,.11-1.3v-8.45Zm-3.37-1.2v-2.16h3.37v2.16Z" transform="translate(-152 -418.71)"/><path class="e" d="M320.38,503.56v-1.32a4.72,4.72,0,0,1-1.83,1.11,6.78,6.78,0,0,1-2.39.41,6.43,6.43,0,0,1-2.31-.39,2.9,2.9,0,0,1-1.47-1.1,3.53,3.53,0,0,1-.46-2v-5.6h3.37v4.07a8,8,0,0,0,.19,2.29,1.33,1.33,0,0,0,.68.66,2.7,2.7,0,0,0,1.25.25,3.48,3.48,0,0,0,1.54-.33,1.93,1.93,0,0,0,.94-.82,6.61,6.61,0,0,0,.25-2.38v-3.74h3.37v8.85Z" transform="translate(-152 -418.71)"/><path class="e" d="M330.29,503.56h-3.37v-8.85h3.13V496a4.74,4.74,0,0,1,1.45-1.17,3.51,3.51,0,0,1,1.45-.29,5.82,5.82,0,0,1,2.22.44l-1,2.05a3.85,3.85,0,0,0-1.58-.39,2.42,2.42,0,0,0-1.2.27,1.84,1.84,0,0,0-.78,1,9.73,9.73,0,0,0-.28,3Z" transform="translate(-152 -418.71)"/><path class="e" d="M336.26,494.71h3.58l3.05,6.29,3-6.29h3.49l-4.5,8.52-.8,1.54a6.14,6.14,0,0,1-.85,1.19,3.52,3.52,0,0,1-.92.66A4.92,4.92,0,0,1,341,507a8.88,8.88,0,0,1-1.72.15,12.1,12.1,0,0,1-1.91-.15l-.3-1.83a11.15,11.15,0,0,0,1.43.11,2.62,2.62,0,0,0,1.74-.48,3.1,3.1,0,0,0,.87-1.22Z" transform="translate(-152 -418.71)"/><path class="e" d="M351.13,503.56v-2.34h3.37v2.34Z" transform="translate(-152 -418.71)"/><path class="e" d="M369.06,497.33l-3.32.42a1.64,1.64,0,0,0-.76-1.05,3.05,3.05,0,0,0-1.54-.35,3.13,3.13,0,0,0-2,.61,2.45,2.45,0,0,0-.75,2,2.81,2.81,0,0,0,.76,2.23,3.07,3.07,0,0,0,2.05.64,3,3,0,0,0,1.57-.37,2.16,2.16,0,0,0,.86-1.31l3.31.39a4.07,4.07,0,0,1-2,2.4,8.21,8.21,0,0,1-3.92.8,7.39,7.39,0,0,1-4.46-1.22,4.31,4.31,0,0,1,0-6.81,7.49,7.49,0,0,1,4.51-1.22,8.18,8.18,0,0,1,3.7.7A4,4,0,0,1,369.06,497.33Z" transform="translate(-152 -418.71)"/><path class="e" d="M370.84,499a3.74,3.74,0,0,1,.83-2.26,5.14,5.14,0,0,1,2.34-1.66,9.38,9.38,0,0,1,3.39-.58,8,8,0,0,1,4.74,1.31,3.88,3.88,0,0,1,0,6.62,7.92,7.92,0,0,1-4.69,1.32,10.1,10.1,0,0,1-3.35-.55,5,5,0,0,1-2.41-1.61A4.1,4.1,0,0,1,370.84,499Zm3.45.13a2.36,2.36,0,0,0,.91,2,3.85,3.85,0,0,0,4.43,0,2.73,2.73,0,0,0,0-4,3.85,3.85,0,0,0-4.43,0A2.39,2.39,0,0,0,374.29,499.14Z" transform="translate(-152 -418.71)"/><path class="e" d="M386.38,494.71h3.11v1.21a6.39,6.39,0,0,1,6.09-1.06,3.63,3.63,0,0,1,1.48,1.06,6.06,6.06,0,0,1,1.81-1.06,6.12,6.12,0,0,1,2.07-.35,6.2,6.2,0,0,1,2.38.4,2.93,2.93,0,0,1,1.45,1.16,3.67,3.67,0,0,1,.35,1.83v5.66h-3.37V498.5a2.79,2.79,0,0,0-.35-1.7,1.89,1.89,0,0,0-1.44-.5,3,3,0,0,0-1.33.3,1.84,1.84,0,0,0-.9.88,4.42,4.42,0,0,0-.28,1.83v4.25h-3.37v-4.85a4.7,4.7,0,0,0-.18-1.66,1.17,1.17,0,0,0-.56-.56,2.38,2.38,0,0,0-1-.19,3.24,3.24,0,0,0-1.41.3,1.78,1.78,0,0,0-.89.84,4.41,4.41,0,0,0-.27,1.82v4.3h-3.37Z" transform="translate(-152 -418.71)"/></svg>