<svg xmlns="http://www.w3.org/2000/svg" xmlns:xlink="http://www.w3.org/1999/xlink" viewBox="0 0 593.53 232.09"><defs><style>.a{fill:#fff;}.b{fill:url(#a);}</style><radialGradient id="a" cx="139.42" cy="394.35" r="85.43" gradientTransform="matrix(0.99, 0.16, -0.15, 0.94, 61.49, 0.11)" gradientUnits="userSpaceOnUse"><stop offset="0" stop-color="#fff"/><stop offset="0.34" stop-color="#fff" stop-opacity="0.96"/><stop offset="1" stop-color="#fff" stop-opacity="0.3"/></radialGradient></defs><title>cspire_w</title><path class="a" d="M602.43,364.13a4,4,0,0,0-5.31-1.47,4.08,4.08,0,0,0-1.78,5.24,4,4,0,0,0,5,2.13,5.25,5.25,0,0,0,2.55-2.35V364.8C602.58,364.68,602.57,364.36,602.43,364.13Zm0,2.08a3.36,3.36,0,0,1-3.47,3.48,3.47,3.47,0,0,1-3.47-3.41,3.64,3.64,0,0,1,3.47-3.59A3.46,3.46,0,0,1,602.43,366.21Z" transform="translate(-9.35 -280.31)"/><path class="a" d="M403.43,367.2c-1.15.83-2.22,1.78-3.42,2.77-1.3-4.9-5.24-7.73-9.67-7.21a9.06,9.06,0,0,0-7.86,9.3c.11,17.52,0,35,0,52.55q0,9.78,0,19.56a8.23,8.23,0,0,0,2.87,6.48,8.45,8.45,0,0,0,9.6,1.44,8.31,8.31,0,0,0,5.12-8c0-6.87,0-13.75,0-20.63v-1.37c.73.63,1.25,1.1,1.79,1.56a25,25,0,0,0,15.89,6.14c9.16.16,16.35-3.82,21.84-11,5.05-6.58,7.2-14.18,7.26-22.39.07-9.09-2.37-17.36-8.22-24.47C429.71,361.07,414.74,359,403.43,367.2Zm22.12,42.05a14.2,14.2,0,0,1-22.31-1.88c-4.28-6.22-4.44-15.95-.29-22.27,3.17-4.83,7.66-7.35,13.49-6.8s9.73,3.9,12.18,9.06a19.71,19.71,0,0,1,1.8,8.73C430.37,401.06,429,405.56,425.55,409.25Z" transform="translate(-9.35 -280.31)"/><path class="a" d="M569.68,362.35c-13.11-.87-23.29,4.17-30.14,15.45-4.46,7.35-5.63,15.48-4.49,23.91A31.41,31.41,0,0,0,547,423a33.19,33.19,0,0,0,18.94,6.94c9.27.55,17.78-1.47,25-7.64a7.24,7.24,0,0,0,1.23-10.08,7.06,7.06,0,0,0-9.88-1,22.54,22.54,0,0,1-15.52,4.49,15.6,15.6,0,0,1-14.45-13.5h37.43a8,8,0,0,0,8.16-7,18.35,18.35,0,0,0-.14-5.49C595.77,375.19,585.41,363.39,569.68,362.35Zm10.4,28.24c-4.51,0-9,0-13.54,0s-8.86,0-13.3,0c-1.13,0-1.22-.35-1-1.28,1.17-4.74,3.29-8.85,7.77-11.27,8.11-4.39,17.55-.25,20.29,8.85.26.88.41,1.78.66,2.67S580.88,390.6,580.08,390.59Z" transform="translate(-9.35 -280.31)"/><path class="a" d="M360.62,392.8a93.25,93.25,0,0,0-13.38-5.19,30,30,0,0,1-7.52-3.35c-1.42-1-2.33-2.19-2-4s1.55-2.53,3.05-3a16.07,16.07,0,0,1,8.06-.31,40.88,40.88,0,0,1,10.33,3.71,7.37,7.37,0,0,0,10.39-4.91c.86-3.71-.88-7.07-4.61-8.91a42.37,42.37,0,0,0-20.24-4.58c-6.2.19-12,1.74-16.92,5.76-7.38,6-8.93,17.67-3.31,25.07a22.71,22.71,0,0,0,8.75,6.54c4.82,2.27,10,3.59,15,5.3a17.51,17.51,0,0,1,6,2.91,3.71,3.71,0,0,1-.36,6.19,7.35,7.35,0,0,1-2.17,1,19.24,19.24,0,0,1-7.85.34,35.84,35.84,0,0,1-14-5.36,7.34,7.34,0,0,0-10.13,2.16,7.45,7.45,0,0,0,2.2,10.26,46.14,46.14,0,0,0,24.75,7.68c5.27-.12,10.35-.79,15.11-3.06,9.83-4.68,13.78-17.08,8.29-26.11C367.8,397.17,364.39,394.78,360.62,392.8Z" transform="translate(-9.35 -280.31)"/><path class="a" d="M284,410a26.93,26.93,0,0,1-5,3.1,17.11,17.11,0,0,1-20.65-4.44c-4.16-5.2-5-11.21-3.65-17.57,2.09-9.91,11.28-15.64,20.75-13a21.75,21.75,0,0,1,7.35,3.92,8.24,8.24,0,0,0,11.48-1.42,7.93,7.93,0,0,0-1.54-11.19c-6.28-5.16-13.63-7.11-21.61-7.18-.64,0-1.28,0-1.92,0s-1.27.11-1.91.17a33.22,33.22,0,0,0-30.44,30.56c-.87,10.07,1.86,19,8.74,26.48A32.49,32.49,0,0,0,268.73,430c9.4.46,17.87-1.94,24.92-8.48A7.51,7.51,0,0,0,284,410Z" transform="translate(-9.35 -280.31)"/><path class="a" d="M528,363.15c-4.43-1.22-8.55-.12-12.38,2.19a25.84,25.84,0,0,0-7.49,7.46c0-.55,0-1.09,0-1.64a8.83,8.83,0,0,0-9.83-8.38c-4.81.64-7.82,4.25-7.83,9.45q0,23.76,0,47.52a11.88,11.88,0,0,0,.28,2.73,8.8,8.8,0,0,0,17.37-2q0-12,0-24a30.53,30.53,0,0,1,.26-4.06,10.72,10.72,0,0,1,5.95-8.6,29,29,0,0,1,5-2,66.68,66.68,0,0,0,9.56-3.11,10.39,10.39,0,0,0,3.52-2.45C536,372.12,533.56,364.69,528,363.15Z" transform="translate(-9.35 -280.31)"/><path class="a" d="M475.38,370.19a8.85,8.85,0,0,0-9.16-7.47,8.65,8.65,0,0,0-8.34,8.92v48.84a8.78,8.78,0,1,0,17.56,0v-49A8.16,8.16,0,0,0,475.38,370.19Z" transform="translate(-9.35 -280.31)"/><path class="a" d="M597.32,366v1.44c0,.36,0,.78.47.83s.55-.33.57-.72c0-.22-.07-.5.26-.58s.51.14.69.36a8.3,8.3,0,0,0,.54.64c.22.21.47.47.83.23a.51.51,0,0,0,0-.83c-.42-.44-.28-.72,0-1.18a1.33,1.33,0,0,0-.7-2Q597.32,363.18,597.32,366Zm2.49-.58c.06.46-.28.6-.67.59s-.74.12-.78-.43.19-.64.52-.6S599.75,365,599.81,365.44Z" transform="translate(-9.35 -280.31)"/><path class="b" d="M216.57,317.19c-2.88-6.34-10.83-7.65-15.88-2.59-2.06,2-3.88,4.34-5.81,6.52-1,1.19-2.09,2.38-3.13,3.58l-3.6,4.08a50,50,0,0,0-3.6,4.08,38.08,38.08,0,0,0-3.37,3.81,33.92,33.92,0,0,0-3,3.37h0a18.06,18.06,0,0,0-2.31,2.63,22.26,22.26,0,0,0-2.39,2.66,25.9,25.9,0,0,0-2.71,3.12,18.19,18.19,0,0,0-2.34,2.62,7.85,7.85,0,0,0-1.45,1.65,7.93,7.93,0,0,0-1.5,1.72h0c-.41.17-.5.75-1,.79.2-.91.39-1.79.59-2.68l1-4.06,1-4.33,1.17-4.8,1-4.08,1-4.08a35.15,35.15,0,0,0,1-4.32,23.1,23.1,0,0,0,1.16-5.76A9.55,9.55,0,0,0,158.4,312a8.21,8.21,0,0,0-4.1,4.05,9.93,9.93,0,0,0-1.47,4.08,20,20,0,0,0-1,3.58,18.48,18.48,0,0,0-.89,3.36,24.33,24.33,0,0,0-1.18,4.35,17,17,0,0,0-1,3.57,27.22,27.22,0,0,0-1.23,4.52,18.66,18.66,0,0,0-1.15,4.15,12.2,12.2,0,0,0-.74,2.85,16.55,16.55,0,0,0-.94,3.39c-.44.13-.32-.33-.5-.48a5.29,5.29,0,0,0-.45-2h0a5.86,5.86,0,0,0-.48-2.15,21.67,21.67,0,0,0-1-4.29,27.81,27.81,0,0,0-1-4.32c-.24-1.12-.49-2.24-.74-3.36a37,37,0,0,0-1.16-5.08,23.74,23.74,0,0,0-.74-3.32,28.79,28.79,0,0,0-.94-4.11,23.39,23.39,0,0,0-.93-4.14h0a25.13,25.13,0,0,0-1-4.29,30.21,30.21,0,0,0-1-4.31,13.91,13.91,0,0,0-.7-3.13,16.55,16.55,0,0,0-.75-3.33,14.63,14.63,0,0,0-.71-3.13,13.59,13.59,0,0,0-.72-3.15h0a16.13,16.13,0,0,0-.73-3.29h0a24.25,24.25,0,0,0-1.23-5A9.39,9.39,0,0,0,120,280.36a8.84,8.84,0,0,0-7.67,5.46,8.4,8.4,0,0,0-.92,4.82,11,11,0,0,0,.52,3.6l.48,2.41c.25,1.19.49,2.39.74,3.59l.48,2.41.72,3.59c.27,1.29.53,2.59.79,3.88h0a27.35,27.35,0,0,0,.82,3.8,20.88,20.88,0,0,0,.76,3.84,18.22,18.22,0,0,0,.69,3.36l.54,2.89a29.84,29.84,0,0,0,.89,4.07h0a13.62,13.62,0,0,0,.53,2.89h0l.72,3.59c.32,1.6.65,3.2,1,4.8s.63,3,.94,4.56l.71,3.36a5.31,5.31,0,0,0,.42,1.93,10.51,10.51,0,0,0,.43,2.42h0c0,.25,0,.5,0,.88l0,0-1.08-1.2a29,29,0,0,0-2.64-3.41,48.42,48.42,0,0,0-3.65-4.67c-1.32-1.44-2.17-3.24-3.58-4.6a33.64,33.64,0,0,0-3.13-4.1,11.6,11.6,0,0,0-3.6-3.81,18.94,18.94,0,0,0-1.75-1.1,9.52,9.52,0,0,0-12.51,4.63h0a7.69,7.69,0,0,0-.84,4.59,8.24,8.24,0,0,0,1.15,4.33,19,19,0,0,0,2.61,3.85,56,56,0,0,0,3.4,4.79l6,8.41,2.26,3.1.49.7.57.78h0c0,.06.09.13.14.2l.17.24a.45.45,0,0,0,0,.2l-.91-.29h0l-.95-.49h0l-.77-.37h0a7.59,7.59,0,0,0-2.64-1.19,10.09,10.09,0,0,0-2.36-1.31h0c-3.89-2-7.82-4-11.8-5.86l-5.28-2.64-4.33-2.14a24.24,24.24,0,0,0-3.6-1.72A40.42,40.42,0,0,0,71,347.53c-1.36-.64-2.57-1.6-4.08-1.91a12.33,12.33,0,0,0-3.84-1.91c-1.52-.43-3-1-4.64-.55a3.4,3.4,0,0,0-1.52.2c-4.77,1.26-8.06,6.53-6.82,10.88a6.86,6.86,0,0,0,1.42,3.62h0a7.93,7.93,0,0,0,2.87,2.88h0a19.24,19.24,0,0,0,3.87,2.14,17.91,17.91,0,0,0,3.27,1.72,15.85,15.85,0,0,0,3.15,1.67,28.45,28.45,0,0,0,4.08,2.17,33.51,33.51,0,0,0,4.55,2.41c3.55,2.06,7.19,3.94,10.86,5.78a55.91,55.91,0,0,0,5.3,2.81,7.2,7.2,0,0,0,1.9,1l.45.23.46.26h0l.8.42.93.54h0c.11.21.3.21.49.21a1.78,1.78,0,0,0,1,.51h0l.74.42a.25.25,0,0,0,.17.06l.78.44.47.24h0c-.07.24-.28.22-.45.27h-.5l-1.19,0h-1l-1.44,0-2.64-.18H90l-3.11-.06a44.51,44.51,0,0,0-6-.2c-4.07-.3-8.16-.38-12.24-.47l-5-.21L61,382.81l-4.07-.19-3.37-.06a27.81,27.81,0,0,0-4.08-.2l-3.84-.07a12.63,12.63,0,0,0-3.36-.17l-2.64-.07-3.36-.17-4.32-.08a13.58,13.58,0,0,0-3.6-.16l-3.42-.15a1.7,1.7,0,0,0-.61,0l-1.24-.05-1.45,0a13.08,13.08,0,0,0-4,.1,1.47,1.47,0,0,0-.4.09,7.34,7.34,0,0,0-3.88,1.65c-4.9,2.81-5.43,10.8-1,14.71A8.31,8.31,0,0,0,17,400.33a2.3,2.3,0,0,0,1.41.24,1.11,1.11,0,0,0,.69.11,28.57,28.57,0,0,0,3.58.14,25.93,25.93,0,0,0,4.4.25,18.26,18.26,0,0,0,3.84.2,20.62,20.62,0,0,0,4.08.24,2.93,2.93,0,0,0,1.35,0,3,3,0,0,0,1.52.17h.49l2.39.08a15.05,15.05,0,0,0,3.61.22,17.62,17.62,0,0,0,3.84.21,2.76,2.76,0,0,0,1.34,0c.4.31.86.14,1.29.17l1.45,0a4.42,4.42,0,0,0,1.58,0c.4.31.86.14,1.29.17h1l2.07.06a21.46,21.46,0,0,0,4.39.27,21.87,21.87,0,0,0,4.28.22c4.25.38,8.51.65,12.78.7a19.35,19.35,0,0,0,4.5.24,18.36,18.36,0,0,0,4.32.25.27.27,0,0,0,.2.06,5.55,5.55,0,0,0,1.77.11l.73,0,1,0h.65a3.71,3.71,0,0,0,1.75.17l1,0,.68,0h0c.58.43,1.36-.07,1.93.4h0l-1,.47-.15.07-.25.2c-.26,0-.54,0-.71.27-.19,0-.39,0-.49.21h0a1.69,1.69,0,0,0-1,.5,1.58,1.58,0,0,0-1,.46h0l-.44.23h0a2,2,0,0,0-1,.48.82.82,0,0,0-.64.29l-.48.24-.48.23a11.94,11.94,0,0,0-2.43,1.13h0c-2,.83-3.87,1.7-5.73,2.72a19.84,19.84,0,0,0-3.42,1.62,9.77,9.77,0,0,0-5,6.78c-1.32,5.93,3.82,11.9,9.81,11.26a3.81,3.81,0,0,0,1.54-.09,60,60,0,0,0,10.46-4.24,22.86,22.86,0,0,0,4.31-1.7l2.45-1.07h0l.91-.36.78-.34h0l.66-.3.25-.1h0l.69-.16h0l-.64.75h0a.64.64,0,0,0,0,.2h0l-.36.42-.44.5a1.64,1.64,0,0,0-.62.76l-2.25,2.61-7,8.17a13.15,13.15,0,0,0-1.92,2.35,33.93,33.93,0,0,0-3.13,3.64l-3.06,3.62-2.22,2.62h0l-2.64,3.12-2.87,3.37-3,3.62a31.81,31.81,0,0,0-3,3.55A24,24,0,0,0,70,466.53a19.45,19.45,0,0,0-2.28,2.68,26.55,26.55,0,0,0-2.77,3.31h0a9,9,0,0,0-2.09,4.59,7.75,7.75,0,0,0,.47,5.36,1.65,1.65,0,0,0,.23.78,9.58,9.58,0,0,0,11.32,4.86,9,9,0,0,0,4.33-2.58h0a33.56,33.56,0,0,0,3.39-3.76,34,34,0,0,0,3.08-3.49,24.83,24.83,0,0,0,2.68-3,27.77,27.77,0,0,0,2.84-3.2,45.17,45.17,0,0,0,3.38-3.8l3.61-4.05a43.76,43.76,0,0,0,3.36-3.84,27.57,27.57,0,0,0,3.08-3.49,17.18,17.18,0,0,0,2.66-3.05,37.2,37.2,0,0,0,3.86-4.27,34.31,34.31,0,0,0,3.58-4.13,14.62,14.62,0,0,0,2.41-2.62l2.5-2.85c.72-.52,1.12-1.4,2-2l0,0c-.18.89-.33,1.63-.49,2.37a12,12,0,0,0-.7,2.64,3.58,3.58,0,0,0-.36,1.4h0a28.4,28.4,0,0,0-1.1,4.36,53.33,53.33,0,0,0-1.41,5.28c-.55,2-1.14,4-1.49,6A29.26,29.26,0,0,0,115,464.4a8.34,8.34,0,0,0-.07,4.18h0a5.58,5.58,0,0,0,1,3.05,7.59,7.59,0,0,0,3.08,3.43c2.82,2.27,9.23,2.65,12.52-1.81a7.48,7.48,0,0,0,2.19-4,22.55,22.55,0,0,0,1.2-4.09L135,465l1.14-3.87a45.41,45.41,0,0,0,1.65-5.56,62.06,62.06,0,0,0,1.95-6.67,20.92,20.92,0,0,0,1.19-4.1h0c.45-.43.11-1.23.75-1.62.14.41.27.77.39,1.13a7,7,0,0,0,.5,2.43,13.22,13.22,0,0,0,.72,3.4h0a17.83,17.83,0,0,0,.76,3.75,25.92,25.92,0,0,0,.93,4.35,24.46,24.46,0,0,0,1,4.54,31.58,31.58,0,0,0,1,4.79,25.19,25.19,0,0,0,.93,4.37,15,15,0,0,0,.71,3.37h0a21.12,21.12,0,0,0,.77,3.78,44.26,44.26,0,0,0,1.14,5.35h0a43.7,43.7,0,0,0,1.22,5.76h0a42.87,42.87,0,0,0,1.2,5.73,19.82,19.82,0,0,0,.78,3.81,36.5,36.5,0,0,0,1.18,5.47c1.17,3.68,3.51,6.18,7.4,7a.24.24,0,0,1,0,.22h3.6c0-.19.19-.21.35-.25,4.88-1.28,7.67-4.78,7.54-9.82-.1-3.75-1.16-7.38-1.88-11.05h0c-.36-1.75-.47-3.55-1-5.28-.34-1.84-.67-3.69-1-5.53l-1.17-6.23-1-5.29c-.29-1.52-.59-3-.88-4.55a26.9,26.9,0,0,0-.76-4.08c-.25-1.36-.49-2.72-.74-4.09l-1.08-5.54a46.55,46.55,0,0,0-1-5.49l-.72-3.84h0c-.19-1-.37-2.08-.55-3.12.23-.49.34.1.53.06l1.65,2.12a14.24,14.24,0,0,0,1.89,2.41l3,3.79,2.31,2.93A29.57,29.57,0,0,0,174,453a22.16,22.16,0,0,0,2.19,2.82l2.65,3.35a36.46,36.46,0,0,0,3.09,3.92,33.81,33.81,0,0,0,3.38,4.26,8.93,8.93,0,0,0,4.81,3.06c.49.46,1.14.31,1.71.36a9.21,9.21,0,0,0,9-4.36,9.08,9.08,0,0,0,.35-9.65,23.21,23.21,0,0,0-3.41-5,47.47,47.47,0,0,0-3.32-4.57,44.34,44.34,0,0,0-3.14-4.31,31,31,0,0,0-2.62-3.61l-2.44-3.35-2.43-3.36a21,21,0,0,0-2.36-3.13A19.79,19.79,0,0,0,179,426a18.85,18.85,0,0,0-1.79-2.46c-.19-.6-.77-.89-1.09-1.39a3.76,3.76,0,0,0-1-1.44h0a8.22,8.22,0,0,0-1.4-1.92l-.52-.71-.49-.71h0l-.72-1a1.41,1.41,0,0,0-.63-.75,2.81,2.81,0,0,0-1.46-1c-.42-.42-1-.15-1.44-.23,0-.13-.12-.21-.26-.15h0a4.92,4.92,0,0,0-3.6,2.06h0a46.81,46.81,0,0,1-8.15,6.5h0L151.92,425l-4.33,1.25a5.37,5.37,0,0,0-1.68.41l-5.28.29a42.15,42.15,0,0,1-5.27-.5l-3.1-.74h0l-3.36-1.22h0a15.72,15.72,0,0,0-2.88-1.42h0a7.73,7.73,0,0,0-1.94-1.19l-1.71-1.2-3.55-3.13h0l-1.26-1.41h0c-.52.34-.89,0-1.28-.27a14.07,14.07,0,0,0-1.37-1,24.22,24.22,0,0,1-8.38-7.07,19.34,19.34,0,0,1-3.85-8.05,19.89,19.89,0,0,1-.24-6.26,20.24,20.24,0,0,1,3.2-8.35c.75-1.16,2-2,2.36-3.38a1.57,1.57,0,0,1,.72-.72,26.48,26.48,0,0,0,4.32-3.36h0a8,8,0,0,0,2.86-1.55c.38-.3.71-.65,1.25-.36a5.77,5.77,0,0,0,1.38-1.45h0a22.3,22.3,0,0,1,3.64-3.36h0a2.81,2.81,0,0,0,1.23-1l1.9-1.2h0l2.64-1.4a6.63,6.63,0,0,0,1.89-.78h0l3.38-1.15h0c2.21-.45,4.46-.74,6.7-1a46,46,0,0,1,6.94.54h0l4.57,1.17h0a48.44,48.44,0,0,1,7.19,3.63h0a36.27,36.27,0,0,1,6.72,6.26,7.69,7.69,0,0,0,1.92,2.1h0a3.78,3.78,0,0,0,2.41,1.08,2.29,2.29,0,0,0,1.76-.36h0a1.44,1.44,0,0,0,1.07-.78c.33-.31.79-.47.95-1h0l.56-.71a1.12,1.12,0,0,0,.5-.61c.26-.2.52-.39.47-.78a6.1,6.1,0,0,0,1.94-2.1,13.22,13.22,0,0,0,2.08-2.52,10,10,0,0,0,1.77-2.06c.59-.91,1.6-1.48,2.06-2.5a18.13,18.13,0,0,0,2.45-2.87c.81-1,1.61-1.92,2.42-2.87a24,24,0,0,0,2.57-3.13c.9-1.18,2.07-2.12,2.87-3.38a47.16,47.16,0,0,0,3.39-4.07,55,55,0,0,0,3.81-4.55c1.2-1.45,2.56-2.77,3.62-4.33a29.24,29.24,0,0,0,3.16-3.86,93.49,93.49,0,0,0,8.79-10.69A9,9,0,0,0,216.57,317.19Z" transform="translate(-9.35 -280.31)"/></svg>