<svg xmlns="http://www.w3.org/2000/svg" viewBox="0 0 593.53 232.09"><defs><style>.a{fill:none;}.b{fill:#0750a3;}.c{fill:#09b9f1;}.d{fill:#6998cd;}.e{fill:#00b6f0;}.f{fill:#00b0ee;}.g{fill:#009bde;}.h{fill:#00a9e9;}.i{fill:#00b4ef;}.j{fill:#01b9f0;}.k{fill:#00b5ef;}.l{fill:#005ead;}.m{fill:#0065b2;}.n{fill:#005dac;}.o{fill:#7bd2f5;}.p{fill:#00a8e9;}.q{fill:#006eb8;}.r{fill:#009cdf;}.s{fill:#0085cc;}.t{fill:#008cd2;}.u{fill:#00a3e4;}.v{fill:#008dd3;}.w{fill:#0055a6;}.x{fill:#0056a7;}.y{fill:#0094d8;}.z{fill:#00a9ea;}.aa{fill:#0093d8;}.ab{fill:#0092d7;}.ac{fill:#0098da;}.ad{fill:#00a3e5;}.ae{fill:#009ddd;}.af{fill:#0084cc;}.ag{fill:#008bd1;}.ah{fill:#009ddf;}.ai{fill:#0057a8;}.aj{fill:#0074bd;}.ak{fill:#0091d6;}.al{fill:#008ed4;}.am{fill:#007ec6;}.an{fill:#0079c2;}.ao{fill:#007fc7;}.ap{fill:#09d;}.aq{fill:#007fc6;}.ar{fill:#94d8f7;}.as{fill:#0098db;}.at{fill:#0073bc;}.au{fill:#00adec;}.av{fill:#007ac2;}.aw{fill:#0096da;}.ax{fill:#73cff5;}.ay{fill:#009de0;}.az{fill:#009add;}.ba{fill:#0088cf;}.bb{fill:#0099db;}.bc{fill:#0084cb;}.bd{fill:#0078c1;}.be{fill:#0097db;}.bf{fill:#008ad0;}.bg{fill:#008fd4;}.bh{fill:#00a2e4;}.bi{fill:#00a5e1;}.bj{fill:#00b9f0;}.bk{fill:#006ab6;}.bl{fill:#006fb9;}.bm{fill:#0066b3;}.bn{fill:#006eb9;}.bo{fill:#0092d5;}.bp{fill:#00a7e2;}.bq{fill:#0074be;}.br{fill:#0066b2;}.bs{fill:#00a6e7;}.bt{fill:#9fdcf7;}.bu{fill:#45c6f3;}.bv{fill:#00aee9;}.bw{fill:#53c9f3;}.bx{fill:#0062b0;}.by{fill:#00b2ec;}.bz{fill:#81d2f5;}.ca{fill:#0099d9;}.cb{fill:#a8dff8;}.cc{fill:#00a9e8;}.cd{fill:#0091d3;}.ce{fill:#6bcdf4;}.cf{fill:#0088ce;}.cg{fill:#9ddbf7;}.ch{fill:#00aeea;}.ci{fill:#6bccf4;}.cj{fill:#75cff4;}.ck{fill:#3bc5f2;}.cl{fill:#00baf0;}.cm{fill:#009fdd;}.cn{fill:#00b3ec;}.co{fill:#00abe5;}.cp{fill:#009edf;}.cq{fill:#01baf0;}.cr{fill:#2dc3f2;}.cs{fill:#21c0f1;}.ct{fill:#2ec2f2;}.cu{fill:#14bef1;}.cv{fill:#00abeb;}.cw{fill:#50c9f3;}.cx{fill:#56c9f3;}.cy{fill:#16bff1;}.cz{fill:#0095d6;}.da{fill:#85d4f6;}.db{fill:#0bbcf0;}.dc{fill:#41c6f3;}.dd{fill:#07a0db;}.de{fill:#0162b0;}.df{fill:#0080c7;}.dg{fill:#32c4f2;}.dh{fill:#0e9fda;}.di{fill:#abdff8;}.dj{fill:#0698d7;}.dk{fill:#5fbeeb;}.dl{fill:#70c4ee;}.dm{fill:#4fb1e4;}.dn{fill:#64bae8;}.do{fill:#58b6e6;}.dp{fill:#40b0e4;}.dq{fill:#66ccf4;}.dr{fill:#4ec9f3;}.ds{fill:#28ace2;}.dt{fill:#5fcbf4;}.du{fill:#1ba9e1;}.dv{fill:#5acaf4;}.dw{fill:#18c0f1;}.dx{fill:#7fd2f5;}.dy{fill:#6ec1ec;}.dz{fill:#19c0f1;}.ea{fill:#33abe1;}.eb{fill:#57b6e6;}.ec{fill:#42b1e5;}.ed{fill:#26a8df;}.ee{fill:#22c1f2;}.ef{fill:#18a6de;}.eg{fill:#31c4f2;}.eh{fill:#63ccf4;}.ei{fill:#0dbdf1;}.ej{fill:#68bce9;}.ek{fill:#25c2f2;}.el{fill:#4fb2e5;}.em{fill:#0cbdf1;}.en{fill:#0abdf1;}.eo{fill:#73c9f0;}.ep{fill:#44c7f3;}.eq{fill:#0fa2dc;}.er{fill:#35ace1;}.es{fill:#3cc6f3;}.et{fill:#8ad5f6;}.eu{fill:#8dd6f6;}.ev{fill:#0bbdf0;}.ew{fill:#22c0f0;}.ex{fill:#0bb9ed;}.ey{fill:#08a1dc;}.ez{fill:#10a8e1;}.fa{fill:#89d5f6;}.fb{fill:#0daae2;}.fc{fill:#3bc4f2;}.fd{fill:#55c1ee;}.fe{fill:#43bcec;}.ff{fill:#0db3e8;}.fg{fill:#60caf4;}.fh{fill:#0fb3e9;}.fi{fill:#60caf3;}.fj{fill:#65c5ef;}.fk{fill:#70cef5;}.fl{fill:#46c7f3;}.fm{fill:#35baeb;}.fn{fill:#2bc1f1;}.fo{fill:#42bfee;}.fp{fill:#47c6f2;}.fq{fill:#20b5e9;}.fr{fill:#28bbed;}.fs{fill:#33bbec;}.ft{fill:#0bbdf1;}.fu{fill:#59bfec;}.fv{fill:#4cbfed;}.fw{fill:#16b7eb;}.fx{fill:#4eb8e8;}.fy{fill:#42b9ea;}.fz{fill:#35b3e6;}.ga{fill:#2cafe4;}.gb{fill:#4cb8e9;}.gc{fill:#1bade3;}.gd{fill:#03b7f0;}.ge{fill:#22b2e6;}.gf{fill:#2ab7ea;}</style></defs><title>cspire</title><polygon class="a" points="128.88 158.66 128.89 158.65 128.88 158.65 128.88 158.66"/><path class="a" d="M160.09,366.74v0h0Z" transform="translate(-9.35 -280.31)"/><path class="a" d="M153.13,365.29h0Z" transform="translate(-9.35 -280.31)"/><polygon class="a" points="152.9 85.94 152.89 85.93 152.89 85.94 152.9 85.94"/><path class="a" d="M143.21,359.53h.07l0-.06Z" transform="translate(-9.35 -280.31)"/><path class="a" d="M148.06,437.53h0l0,0Z" transform="translate(-9.35 -280.31)"/><path class="a" d="M169,366.26h0Z" transform="translate(-9.35 -280.31)"/><path class="a" d="M148.3,363.34v0h0Z" transform="translate(-9.35 -280.31)"/><polygon class="a" points="128.88 74.41 128.88 74.41 128.89 74.41 128.88 74.41"/><polygon class="a" points="141.84 80.17 141.85 80.17 141.84 80.17 141.84 80.17"/><path class="a" d="M123.56,352.51l0,0,0,.06Z" transform="translate(-9.35 -280.31)"/><path class="a" d="M121.67,438l0,0,0-.07Z" transform="translate(-9.35 -280.31)"/><polygon class="a" points="130.08 73.69 130.08 73.69 130.09 73.69 130.08 73.69"/><path class="a" d="M144.68,435.6v0l0,0Z" transform="translate(-9.35 -280.31)"/><path class="a" d="M151.46,429.11v0a.05.05,0,0,1,0,0Z" transform="translate(-9.35 -280.31)"/><path class="b" d="M166.19,512.15c4.88-1.28,7.67-4.78,7.54-9.82-.1-3.75-1.16-7.38-1.88-11.05h0c-.79,0-1.32.52-1.91.87a108.85,108.85,0,0,1-15.07,7.47c-.37.15-.8.42-1.23.07a36.5,36.5,0,0,0,1.18,5.47c1.17,3.68,3.51,6.18,7.4,7,.42,0,.86-.12,1.22.22h2.4C165.88,512.21,166,512.19,166.19,512.15Z" transform="translate(-9.35 -280.31)"/><path class="c" d="M602.43,364.13a4,4,0,0,0-5.31-1.47,4.08,4.08,0,0,0-1.78,5.24,4,4,0,0,0,5,2.13,5.25,5.25,0,0,0,2.55-2.35V364.8C602.58,364.68,602.57,364.36,602.43,364.13Zm0,2.08a3.36,3.36,0,0,1-3.47,3.48,3.47,3.47,0,0,1-3.47-3.41,3.64,3.64,0,0,1,3.47-3.59A3.46,3.46,0,0,1,602.43,366.21Z" transform="translate(-9.35 -280.31)"/><path class="d" d="M162.22,512.18a.24.24,0,0,1,0,.22h1.2C163.08,512.06,162.64,512.16,162.22,512.18Z" transform="translate(-9.35 -280.31)"/><path class="e" d="M403.43,367.2c-1.15.83-2.22,1.78-3.42,2.77-1.3-4.9-5.24-7.73-9.67-7.21a9.06,9.06,0,0,0-7.86,9.3c.11,17.52,0,35,0,52.55q0,9.78,0,19.56a8.23,8.23,0,0,0,2.87,6.48,8.45,8.45,0,0,0,9.6,1.44,8.31,8.31,0,0,0,5.12-8c0-6.87,0-13.75,0-20.63v-1.37c.73.63,1.25,1.1,1.79,1.56a25,25,0,0,0,15.89,6.14c9.16.16,16.35-3.82,21.84-11,5.05-6.58,7.2-14.18,7.26-22.39.07-9.09-2.37-17.36-8.22-24.47C429.71,361.07,414.74,359,403.43,367.2Zm22.12,42.05a14.2,14.2,0,0,1-22.31-1.88c-4.28-6.22-4.44-15.95-.29-22.27,3.17-4.83,7.66-7.35,13.49-6.8s9.73,3.9,12.18,9.06a19.71,19.71,0,0,1,1.8,8.73C430.37,401.06,429,405.56,425.55,409.25Z" transform="translate(-9.35 -280.31)"/><path class="e" d="M569.68,362.35c-13.11-.87-23.29,4.17-30.14,15.45-4.46,7.35-5.63,15.48-4.49,23.91A31.41,31.41,0,0,0,547,423a33.19,33.19,0,0,0,18.94,6.94c9.27.55,17.78-1.47,25-7.64a7.24,7.24,0,0,0,1.23-10.08,7.06,7.06,0,0,0-9.88-1,22.54,22.54,0,0,1-15.52,4.49,15.6,15.6,0,0,1-14.45-13.5h37.43a8,8,0,0,0,8.16-7,18.35,18.35,0,0,0-.14-5.49C595.77,375.19,585.41,363.39,569.68,362.35Zm10.4,28.24c-4.51,0-9,0-13.54,0s-8.86,0-13.3,0c-1.13,0-1.22-.35-1-1.28,1.17-4.74,3.29-8.85,7.77-11.27,8.11-4.39,17.55-.25,20.29,8.85.26.88.41,1.78.66,2.67S580.88,390.6,580.08,390.59Z" transform="translate(-9.35 -280.31)"/><path class="e" d="M360.62,392.8a93.25,93.25,0,0,0-13.38-5.19,30,30,0,0,1-7.52-3.35c-1.42-1-2.33-2.19-2-4s1.55-2.53,3.05-3a16.07,16.07,0,0,1,8.06-.31,40.88,40.88,0,0,1,10.33,3.71,7.37,7.37,0,0,0,10.39-4.91c.86-3.71-.88-7.07-4.61-8.91a42.37,42.37,0,0,0-20.24-4.58c-6.2.19-12,1.74-16.92,5.76-7.38,6-8.93,17.67-3.31,25.07a22.71,22.71,0,0,0,8.75,6.54c4.82,2.27,10,3.59,15,5.3a17.51,17.51,0,0,1,6,2.91,3.71,3.71,0,0,1-.36,6.19,7.35,7.35,0,0,1-2.17,1,19.24,19.24,0,0,1-7.85.34,35.84,35.84,0,0,1-14-5.36,7.34,7.34,0,0,0-10.13,2.16,7.45,7.45,0,0,0,2.2,10.26,46.14,46.14,0,0,0,24.75,7.68c5.27-.12,10.35-.79,15.11-3.06,9.83-4.68,13.78-17.08,8.29-26.11C367.8,397.17,364.39,394.78,360.62,392.8Z" transform="translate(-9.35 -280.31)"/><path class="e" d="M284,410a26.93,26.93,0,0,1-5,3.1,17.11,17.11,0,0,1-20.65-4.44c-4.16-5.2-5-11.21-3.65-17.57,2.09-9.91,11.28-15.64,20.75-13a21.75,21.75,0,0,1,7.35,3.92,8.24,8.24,0,0,0,11.48-1.42,7.93,7.93,0,0,0-1.54-11.19c-6.28-5.16-13.63-7.11-21.61-7.18-.64,0-1.28,0-1.92,0s-1.27.11-1.91.17a33.22,33.22,0,0,0-30.44,30.56c-.87,10.07,1.86,19,8.74,26.48A32.49,32.49,0,0,0,268.73,430c9.4.46,17.87-1.94,24.92-8.48A7.51,7.51,0,0,0,284,410Z" transform="translate(-9.35 -280.31)"/><path class="e" d="M528,363.15c-4.43-1.22-8.55-.12-12.38,2.19a25.84,25.84,0,0,0-7.49,7.46c0-.55,0-1.09,0-1.64a8.83,8.83,0,0,0-9.83-8.38c-4.81.64-7.82,4.25-7.83,9.45q0,23.76,0,47.52a11.88,11.88,0,0,0,.28,2.73,8.8,8.8,0,0,0,17.37-2q0-12,0-24a30.53,30.53,0,0,1,.26-4.06,10.72,10.72,0,0,1,5.95-8.6,29,29,0,0,1,5-2,66.68,66.68,0,0,0,9.56-3.11,10.39,10.39,0,0,0,3.52-2.45C536,372.12,533.56,364.69,528,363.15Z" transform="translate(-9.35 -280.31)"/><path class="e" d="M475.38,370.19a8.85,8.85,0,0,0-9.16-7.47,8.65,8.65,0,0,0-8.34,8.92v48.84a8.78,8.78,0,1,0,17.56,0v-49A8.16,8.16,0,0,0,475.38,370.19Z" transform="translate(-9.35 -280.31)"/><path class="b" d="M196.64,322.8a107.35,107.35,0,0,1,10.19,13.36,3.72,3.72,0,0,1,.29.77,93.49,93.49,0,0,0,8.79-10.69,9,9,0,0,0,.66-9.05c-2.88-6.34-10.83-7.65-15.88-2.59-2.06,2-3.88,4.34-5.81,6.52C195.79,321.34,196.1,322.21,196.64,322.8Z" transform="translate(-9.35 -280.31)"/><path class="f" d="M87.81,371.47a39.31,39.31,0,0,1,10.34-8.23,3.52,3.52,0,0,0,1.73-1.41h0c-3.89-2-7.82-4-11.8-5.86a8.88,8.88,0,0,1-2.74,2.22,44.17,44.17,0,0,0-11.23,11.74c-.22.33-.5.61-.75.92,3.55,2.06,7.19,3.94,10.86,5.78A19.66,19.66,0,0,1,87.81,371.47Z" transform="translate(-9.35 -280.31)"/><path class="f" d="M78.77,395.92a35.79,35.79,0,0,1,1.72-10.65,4,4,0,0,0,.39-1.73c-4.07-.3-8.16-.38-12.24-.47-.34,1.7-.71,3.4-1,5.11a46.87,46.87,0,0,0-.46,13c.07.67.31,1.43-.26,2.05,4.25.38,8.51.65,12.78.7A36.94,36.94,0,0,1,78.77,395.92Z" transform="translate(-9.35 -280.31)"/><path class="f" d="M93.18,426.06A38.14,38.14,0,0,1,82.7,414a2,2,0,0,1-.38-1.24,19.84,19.84,0,0,0-3.42,1.62,9.77,9.77,0,0,0-5,6.78c1.15.55,1.48,1.79,2.22,2.68,2.17,2.63,4.14,5.42,6.87,7.54a1.39,1.39,0,0,1,.72,1,3.81,3.81,0,0,0,1.54-.09,60,60,0,0,0,10.46-4.24A8.48,8.48,0,0,0,93.18,426.06Z" transform="translate(-9.35 -280.31)"/><path class="f" d="M103,430.43c-.5-.36-.78-1-1.51-1.09l-7,8.17a14.12,14.12,0,0,1,3.34,1.24,42.25,42.25,0,0,0,13.1,2.64,12.68,12.68,0,0,1,6.17,1.42l2.5-2.85C113.47,437.84,108.18,434.23,103,430.43Z" transform="translate(-9.35 -280.31)"/><path class="f" d="M107.61,358a53.91,53.91,0,0,1,11-5.89,19.92,19.92,0,0,1,3.82-.79,29,29,0,0,0-2.64-3.41.84.84,0,0,1-.85.54c-1.48-.06-2.93.26-4.41.27a54.09,54.09,0,0,0-15.14,2.39,4.7,4.7,0,0,0-1.5.71l6,8.41C105.41,360,106.45,358.86,107.61,358Z" transform="translate(-9.35 -280.31)"/><path class="g" d="M138.84,448.62c-2.69,1-5.35,2-8.06,2.93a46.94,46.94,0,0,1-11.5,2.3c-.55,0-1.1.15-1.64.23-.55,2-1.14,4-1.49,6a68.17,68.17,0,0,0,15.39-2.6,42.52,42.52,0,0,0,5.16-1.79,2.39,2.39,0,0,1,1.05-.17,62.06,62.06,0,0,0,1.95-6.67C139.59,448.1,139.17,448.49,138.84,448.62Z" transform="translate(-9.35 -280.31)"/><path class="h" d="M99.39,351.14a54.09,54.09,0,0,1,15.14-2.39c1.48,0,2.93-.33,4.41-.27a.84.84,0,0,0,.85-.54,48.42,48.42,0,0,0-3.65-4.67,1.64,1.64,0,0,1-.55.16,57.82,57.82,0,0,0-11.6,1,47,47,0,0,0-7.92,2.13c-.52.19-1,.36-1.58.53a56,56,0,0,0,3.4,4.79A4.7,4.7,0,0,1,99.39,351.14Z" transform="translate(-9.35 -280.31)"/><path class="i" d="M88.5,410.92c-.17-.27-.3-.56-.45-.84h0c-2,.83-3.87,1.7-5.73,2.72A2,2,0,0,0,82.7,414a38.14,38.14,0,0,0,10.48,12,8.48,8.48,0,0,1,2.58,2.07,22.86,22.86,0,0,0,4.31-1.7C95.57,421.74,92,416.34,88.5,410.92Z" transform="translate(-9.35 -280.31)"/><polygon class="j" points="103.93 152.17 103.93 152.17 103.93 152.17 103.93 152.17"/><path class="j" d="M125.57,440.84c3.93-.17,7.93,0,11.68-1.59.31-.14.73.06,1-.29h0c-1.34-.41-2.72,0-4.07-.24a12.79,12.79,0,0,1-4.08-.48,3.79,3.79,0,0,1-2.76-.15c-2.24-.79-4.59-1.18-6.81-2a25.68,25.68,0,0,1-5.07-2.63,2.83,2.83,0,0,1-2.16-1c-1.8-.36-3.17-1.58-4.7-2.45a22.67,22.67,0,0,1-3.9-2.92,1.15,1.15,0,0,0-1-.38l-2.25,2.61c.73.05,1,.73,1.51,1.09,5.2,3.8,10.49,7.41,16.65,9.53.72-.52,1.12-1.4,2-2l0,0,0,.07c-.18.89-.33,1.63-.49,2.37A28,28,0,0,0,125.57,440.84Z" transform="translate(-9.35 -280.31)"/><path class="k" d="M85.25,402.84a30.31,30.31,0,0,1,1.29-18,10.72,10.72,0,0,0,.34-1.14,44.51,44.51,0,0,0-6-.2,4,4,0,0,1-.39,1.73,35.79,35.79,0,0,0-1.72,10.65,36.94,36.94,0,0,0,.91,8,19.35,19.35,0,0,0,4.5.24C85.21,404.28,85.51,404,85.25,402.84Z" transform="translate(-9.35 -280.31)"/><path class="l" d="M154.11,494.52a84.89,84.89,0,0,0,8.66-4c2.37-1.28,4.68-2.68,7-4a2.66,2.66,0,0,1,1.07-.48c-.34-1.84-.67-3.69-1-5.53-.43-.33-.76-.14-1.17.12a99.72,99.72,0,0,1-15.9,8.47c-.49.21-1.1.36-1.12,1.09h0a42.87,42.87,0,0,0,1.2,5.73C152.77,495,153.5,494.76,154.11,494.52Z" transform="translate(-9.35 -280.31)"/><path class="m" d="M152.78,489.06a99.72,99.72,0,0,0,15.9-8.47c.41-.26.74-.45,1.17-.12l-1.17-6.23a20.87,20.87,0,0,0-3.93,2.42,93.49,93.49,0,0,1-13.22,7,2,2,0,0,0-1.09.7h0a43.7,43.7,0,0,0,1.22,5.76h0C151.68,489.42,152.29,489.27,152.78,489.06Z" transform="translate(-9.35 -280.31)"/><path class="n" d="M191.44,332.83a110.7,110.7,0,0,1,8,11.27c.25.38.4.88.93,1,1.2-1.45,2.56-2.77,3.62-4.33a130.7,130.7,0,0,0-12.21-16.09l-3.6,4.08A27.22,27.22,0,0,0,191.44,332.83Z" transform="translate(-9.35 -280.31)"/><path class="m" d="M186.58,335.44a101.59,101.59,0,0,1,9.15,13.05c.24.41.53.79.8,1.18a55,55,0,0,0,3.81-4.55c-.53-.14-.68-.64-.93-1a110.7,110.7,0,0,0-8-11.27,27.22,27.22,0,0,1-3.29-4.05,50,50,0,0,0-3.6,4.08C184.88,334,185.89,334.61,186.58,335.44Z" transform="translate(-9.35 -280.31)"/><path class="o" d="M101.38,411.73a27.89,27.89,0,0,0,4.24,5.1c.73.66,1.44,1.38,2.1,2.1a20.24,20.24,0,0,0,7.1,4.55,83.32,83.32,0,0,0,12.91,4.07,27.11,27.11,0,0,0,6.48.86c1.22,0,2.43.21,3.65.22a29.27,29.27,0,0,0,7.2-.79,22.74,22.74,0,0,0,4.3-1.4c.9-.41,2-.41,2.56-1.4l-4.33,1.25c-.46.56-1,.86-1.68.42a6.71,6.71,0,0,1-4.39,1.17,66.69,66.69,0,0,1-9.79-.21,36.29,36.29,0,0,1-3.86-.69c-2.47-.6-4.94-1.21-7.38-1.92a31.47,31.47,0,0,1-16.2-10.79A31.93,31.93,0,0,1,98,402.5a20.21,20.21,0,0,1-1-7.58A31.34,31.34,0,0,1,101,382.31a46.57,46.57,0,0,1,9.67-10.94,6.19,6.19,0,0,1,2.39-1.29,5.18,5.18,0,0,1,1.92-1,11.16,11.16,0,0,1,3.7-1.72,78,78,0,0,1,12.19-3.18,41,41,0,0,1,7.1-.43,21.33,21.33,0,0,1,6.13.52c.92.28,2.09-.23,2.78.8h0l4.57,1.17h0c-.36-1-1.44-.82-2.15-1.24a9,9,0,0,1-2.38-.9c-1.12-.66-2.45-.48-3.68-.73a26,26,0,0,0-7-.24c-2.29.17-4.57.33-6.86.64a21.21,21.21,0,0,0-5.62,1.37c-1.59.67-3.26.91-4.87,1.46a46.13,46.13,0,0,0-8.44,3.74c-3.24,1.9-5.55,4.78-7.78,7.66a27.8,27.8,0,0,0-5.31,10.44A28.57,28.57,0,0,0,96.25,397a26.55,26.55,0,0,0,1.07,6.3c.5,1.59.45,1.6-.85,1.61h0l-.27,0h0c.58.43,1.36-.07,1.93.4h0A29.2,29.2,0,0,0,101.38,411.73Z" transform="translate(-9.35 -280.31)"/><path class="m" d="M193,448.82a86.2,86.2,0,0,1-10.48,13.23,1.5,1.5,0,0,0-.58,1,33.81,33.81,0,0,0,3.38,4.26,1.29,1.29,0,0,1,.53-.91,95.28,95.28,0,0,0,11.51-14.29,4.07,4.07,0,0,1,.41-.42,47.47,47.47,0,0,0-3.32-4.57A4.33,4.33,0,0,0,193,448.82Z" transform="translate(-9.35 -280.31)"/><path class="p" d="M74.11,369.93a44.17,44.17,0,0,1,11.23-11.74A8.88,8.88,0,0,0,88.08,356l-5.28-2.64c-.48,1.21-1.7,1.63-2.6,2.36A52.35,52.35,0,0,0,70.54,366l-1.73,2.41a33.51,33.51,0,0,0,4.55,2.41C73.61,370.54,73.89,370.26,74.11,369.93Z" transform="translate(-9.35 -280.31)"/><path class="q" d="M151.53,483.69a93.49,93.49,0,0,0,13.22-7,20.87,20.87,0,0,1,3.93-2.42l-1-5.29c-.79-.22-1.23.46-1.71.82A88.28,88.28,0,0,1,154,477a20.42,20.42,0,0,1-4.67,2,44.26,44.26,0,0,0,1.14,5.35h0A2,2,0,0,1,151.53,483.69Z" transform="translate(-9.35 -280.31)"/><path class="r" d="M130,341.23c3.35,1,6.6,2.3,10,3a16.42,16.42,0,0,1,2.31,1c.3.12.63.4,1,.11a21.67,21.67,0,0,0-1-4.29c-2.26-1-4.5-2-6.8-2.89a57.84,57.84,0,0,0-13-3.37,14.87,14.87,0,0,0-2.49-.22c.32,1.6.65,3.2,1,4.8A47.88,47.88,0,0,1,130,341.23Z" transform="translate(-9.35 -280.31)"/><path class="q" d="M189.05,347.31c1.11,1.85,2.23,3.68,3.33,5.53a2.22,2.22,0,0,0,.76.9,47.16,47.16,0,0,0,3.39-4.07c-.27-.39-.56-.77-.8-1.18a101.59,101.59,0,0,0-9.15-13.05c-.69-.83-1.7-1.45-2-2.58a38.08,38.08,0,0,0-3.37,3.81C183.8,340.22,186.77,343.51,189.05,347.31Z" transform="translate(-9.35 -280.31)"/><path class="l" d="M197.31,452.11A95.28,95.28,0,0,1,185.8,466.4a1.29,1.29,0,0,0-.53.91,8.93,8.93,0,0,0,4.81,3.06c-.1-1.14.93-1.61,1.5-2.22a111,111,0,0,0,8.8-10.93c.2-.28.39-.5.75-.5a23.21,23.21,0,0,0-3.41-5A4.07,4.07,0,0,0,197.31,452.11Z" transform="translate(-9.35 -280.31)"/><path class="s" d="M156.51,462.29a60.3,60.3,0,0,0,7.74-5.77c.3-.26.61-.55,1.06-.29l-1.08-5.54c-1.53.44-2.39,1.8-3.56,2.72a72.21,72.21,0,0,1-14.21,9.15,4.58,4.58,0,0,1-.56.17,31.58,31.58,0,0,0,1,4.79A53.3,53.3,0,0,0,156.51,462.29Z" transform="translate(-9.35 -280.31)"/><path class="q" d="M189.68,444.63a96.24,96.24,0,0,1-8.05,10.89c-1,1.18-2.44,2-2.83,3.61a36.46,36.46,0,0,0,3.09,3.92,1.5,1.5,0,0,1,.58-1A86.2,86.2,0,0,0,193,448.82a4.33,4.33,0,0,1,1.45-1.7,44.34,44.34,0,0,0-3.14-4.31C190.32,443.05,190.09,444,189.68,444.63Z" transform="translate(-9.35 -280.31)"/><path class="t" d="M146.46,462.56a72.21,72.21,0,0,0,14.21-9.15c1.17-.92,2-2.28,3.56-2.72a46.55,46.55,0,0,0-1-5.49,5.23,5.23,0,0,0-1.76,1.4,64.81,64.81,0,0,1-15.14,10.89l-1.36.7a24.46,24.46,0,0,0,1,4.54A4.58,4.58,0,0,0,146.46,462.56Z" transform="translate(-9.35 -280.31)"/><path class="u" d="M109.61,449a44.79,44.79,0,0,1-11.18-2,56.41,56.41,0,0,1-9-3.5l-3.06,3.62c1.23.54,2.46,1.06,3.68,1.61a54.46,54.46,0,0,0,15.62,4.4,1.86,1.86,0,0,1,1.57.7,37.2,37.2,0,0,0,3.86-4.27A2.12,2.12,0,0,0,109.61,449Z" transform="translate(-9.35 -280.31)"/><path class="v" d="M97.13,463.43a67.63,67.63,0,0,1-17.65-7,1.63,1.63,0,0,0-.8-.19l-3,3.62c2.47,1.11,4.75,2.58,7.23,3.68a96.38,96.38,0,0,0,10.76,4c.41.12.88.19.94.76l3.61-4.05C98.09,463.59,97.6,463.54,97.13,463.43Z" transform="translate(-9.35 -280.31)"/><path class="w" d="M154.87,499.62a108.85,108.85,0,0,0,15.07-7.47c.59-.35,1.12-.92,1.91-.87h0c-.36-1.75-.47-3.55-1-5.28a2.66,2.66,0,0,0-1.07.48c-2.34,1.36-4.65,2.76-7,4a84.89,84.89,0,0,1-8.66,4c-.61.24-1.34.45-1.25,1.36a19.82,19.82,0,0,0,.78,3.81C154.07,500,154.5,499.77,154.87,499.62Z" transform="translate(-9.35 -280.31)"/><path class="x" d="M204,340.79a29.24,29.24,0,0,0,3.16-3.86,3.72,3.72,0,0,0-.29-.77,107.35,107.35,0,0,0-10.19-13.36c-.54-.59-.85-1.46-1.76-1.68-1,1.19-2.09,2.38-3.13,3.58A130.7,130.7,0,0,1,204,340.79Z" transform="translate(-9.35 -280.31)"/><path class="j" d="M107.32,362.6a57.91,57.91,0,0,1,9.15-5,37.38,37.38,0,0,1,6.74-2.75c2.55-.68,5.15-1.08,7.73-1.62,1.63-.33,3.32.21,4.9-.44h0a32.09,32.09,0,0,0-6.72-1.18c-1.87-.08-3.74,0-5.61,0h0c0,.25,0,.5,0,.88v.1l0-.06-1.08-1.2a19.92,19.92,0,0,0-3.82.79,53.91,53.91,0,0,0-11,5.89c-1.16.83-2.2,2-3.73,2.23l2.26,3.1C106.68,363.34,107,362.87,107.32,362.6Z" transform="translate(-9.35 -280.31)"/><path class="h" d="M113.23,445c-6.86.25-13.24-1.64-19.44-4.36a2.43,2.43,0,0,1-1.19-.75,33.93,33.93,0,0,0-3.13,3.64,56.41,56.41,0,0,0,9,3.5,44.79,44.79,0,0,0,11.18,2,2.12,2.12,0,0,1,1.53.52,34.31,34.31,0,0,0,3.58-4.13C114.38,444.77,113.76,445,113.23,445Z" transform="translate(-9.35 -280.31)"/><path class="u" d="M140.64,444.48a51.71,51.71,0,0,1-7.72,2.16c-3.84.65-7.67,1.35-11.5,2.06a18.79,18.79,0,0,1-2.37.1,53.33,53.33,0,0,0-1.41,5.28c.54-.08,1.09-.19,1.64-.23a46.94,46.94,0,0,0,11.5-2.3c2.71-.9,5.37-1.95,8.06-2.93.33-.13.75-.52.86.23a20.92,20.92,0,0,0,1.19-4.1h0Z" transform="translate(-9.35 -280.31)"/><path class="k" d="M92.88,374.41a51.77,51.77,0,0,1,7.59-9.44c.61-.59,1.61-.82,1.77-1.83a10.09,10.09,0,0,0-2.36-1.31h0a3.52,3.52,0,0,1-1.73,1.41,39.31,39.31,0,0,0-10.34,8.23,19.66,19.66,0,0,0-3.59,5.16,55.91,55.91,0,0,0,5.3,2.81C90.35,377.57,91.81,376.12,92.88,374.41Z" transform="translate(-9.35 -280.31)"/><path class="y" d="M136.7,455.69a42.52,42.52,0,0,1-5.16,1.79,68.17,68.17,0,0,1-15.39,2.6A29.26,29.26,0,0,0,115,464.4a63,63,0,0,0,19.92-3.24c.36-.11.76-.56,1.18-.08a45.41,45.41,0,0,0,1.65-5.56A2.39,2.39,0,0,0,136.7,455.69Z" transform="translate(-9.35 -280.31)"/><path class="s" d="M93.63,467.5a96.38,96.38,0,0,1-10.76-4c-2.48-1.1-4.76-2.57-7.23-3.68a31.81,31.81,0,0,0-3,3.55,76.49,76.49,0,0,0,17.43,8c.41.13,1,.06,1.12.7a45.17,45.17,0,0,0,3.38-3.8C94.51,467.69,94,467.62,93.63,467.5Z" transform="translate(-9.35 -280.31)"/><path class="u" d="M96.07,346.53A47,47,0,0,1,104,344.4a57.82,57.82,0,0,1,11.6-1,1.64,1.64,0,0,0,.55-.16c-1.32-1.44-2.17-3.24-3.58-4.6-.08.51-.48.45-.83.45A52.43,52.43,0,0,0,98.44,341c-2.24.58-4.39,1.39-6.56,2.17a19,19,0,0,0,2.61,3.85C95,346.89,95.55,346.72,96.07,346.53Z" transform="translate(-9.35 -280.31)"/><path class="q" d="M82,481a97.06,97.06,0,0,1-17.06-8.45h0a9,9,0,0,0-2.09,4.59,41.18,41.18,0,0,1,5.4,3c3,1.66,6.2,3.07,9.37,4.45.57.25,1.23.37,1.58,1h0a33.56,33.56,0,0,0,3.39-3.76A.84.84,0,0,0,82,481Z" transform="translate(-9.35 -280.31)"/><path class="q" d="M170.12,326.24a11.35,11.35,0,0,0,1,.64,23.1,23.1,0,0,0,1.16-5.76c-.67.25-1-.31-1.41-.62a83.54,83.54,0,0,0-11-7.2c-.56-.3-1.3-.47-1.44-1.28a8.21,8.21,0,0,0-4.1,4.05A97,97,0,0,1,170.12,326.24Z" transform="translate(-9.35 -280.31)"/><path class="z" d="M67.16,401.19a46.87,46.87,0,0,1,.46-13c.31-1.71.68-3.41,1-5.11l-5-.21a1.14,1.14,0,0,1,.08,1,76.07,76.07,0,0,0-1.36,9.64,73.28,73.28,0,0,0,.29,9.5,21.87,21.87,0,0,0,4.28.22C67.47,402.62,67.23,401.86,67.16,401.19Z" transform="translate(-9.35 -280.31)"/><path class="aa" d="M100.2,459.64A64.47,64.47,0,0,1,83,453.35a2.68,2.68,0,0,0-1.45-.49l-2.87,3.37a1.63,1.63,0,0,1,.8.19,67.63,67.63,0,0,0,17.65,7c.47.11,1,.16,1.05.78a43.76,43.76,0,0,0,3.36-3.84C101.41,459.57,100.66,459.74,100.2,459.64Z" transform="translate(-9.35 -280.31)"/><path class="ab" d="M146.3,457.49a64.81,64.81,0,0,0,15.14-10.89,5.23,5.23,0,0,1,1.76-1.4l-.72-3.84c-1.21.47-2,1.54-3,2.25-5.13,3.44-9.86,7.47-15.45,10.23a25.92,25.92,0,0,0,.93,4.35Z" transform="translate(-9.35 -280.31)"/><path class="ac" d="M153.25,347.25a76.22,76.22,0,0,1,7.45,5.51,41.53,41.53,0,0,1,6.77,6.68,27.26,27.26,0,0,1,2.63,3.23,2.79,2.79,0,0,1,.54,1.17c1.34.12,2.14,1.32,3.36,1.68a58.2,58.2,0,0,0-8.49-11.08h0c-.41.17-.5.75-1,.79.2-.91.39-1.79.59-2.68-2.33-1.72-4.24-3.93-6.68-5.53-3.25-2.12-6.46-4.32-9.67-6.51-.42-.28-.95-.45-1.17-1a18.66,18.66,0,0,0-1.15,4.15A34,34,0,0,1,153.25,347.25Z" transform="translate(-9.35 -280.31)"/><polygon class="ac" points="161.29 83.53 161.29 83.53 161.29 83.53 161.29 83.53"/><path class="ad" d="M70.54,366a52.35,52.35,0,0,1,9.66-10.34c.9-.73,2.12-1.15,2.6-2.36l-4.33-2.14c-1.24,1.3-2.69,2.37-4,3.6a55.78,55.78,0,0,0-8.71,10.43c-.27.42-.44,1-1,1a28.45,28.45,0,0,0,4.08,2.17Z" transform="translate(-9.35 -280.31)"/><path class="ae" d="M146.48,347.69c2,1,4,2,5.91,3.07a45.21,45.21,0,0,1,7.7,5.55c1.48,1.27,2.88,2.62,4.31,3.93.92,1.12,2.42,1.16,3.56,1.94a10.11,10.11,0,0,0,2.68,1.66h0a2.79,2.79,0,0,0-.54-1.17,27.26,27.26,0,0,0-2.63-3.23,41.53,41.53,0,0,0-6.77-6.68,76.22,76.22,0,0,0-7.45-5.51,34,34,0,0,0-6.84-3.57,12.2,12.2,0,0,0-.74,2.85C145.6,347.16,146,347.44,146.48,347.69Z" transform="translate(-9.35 -280.31)"/><path class="af" d="M151.34,332.24a72.93,72.93,0,0,1,11.58,8.36c1.09,1,2.16,2,3.22,3,.25.25.48.55.89.54l1.17-4.8a2.06,2.06,0,0,1-1.15-.59,78.12,78.12,0,0,0-14.17-10.55,7.69,7.69,0,0,1-1.94-1.13,24.33,24.33,0,0,0-1.18,4.35C150.4,331.47,150.83,331.94,151.34,332.24Z" transform="translate(-9.35 -280.31)"/><path class="ag" d="M149.54,336a63.13,63.13,0,0,1,15.15,11.91c.34.35.62,1.05,1.35.57l1-4.33c-.41,0-.64-.29-.89-.54-1.06-1-2.13-2-3.22-3a72.93,72.93,0,0,0-11.58-8.36c-.51-.3-.94-.77-1.58-.8a17,17,0,0,0-1,3.57A1.21,1.21,0,0,0,149.54,336Z" transform="translate(-9.35 -280.31)"/><path class="ah" d="M98.44,341a52.43,52.43,0,0,1,13.29-1.92c.35,0,.75.06.83-.45a33.64,33.64,0,0,0-3.13-4.1c-1.21.77-2.63.47-3.94.66a64.41,64.41,0,0,0-13.6,3.43,2.72,2.72,0,0,1-1.16.22,8.24,8.24,0,0,0,1.15,4.33C94.05,342.43,96.2,341.62,98.44,341Z" transform="translate(-9.35 -280.31)"/><path class="aa" d="M60.22,360.33a70.4,70.4,0,0,1,9.83-11.21,2.64,2.64,0,0,0,1-1.59c-1.36-.64-2.57-1.6-4.08-1.91-1.38,1.71-3,3.15-4.51,4.78a75.9,75.9,0,0,0-6.79,8.91c-.35.52-.58,1.16-1.22,1.43a19.24,19.24,0,0,0,3.87,2.14C59.31,362.3,59.63,361.2,60.22,360.33Z" transform="translate(-9.35 -280.31)"/><path class="ai" d="M131.29,292.08h0a24.25,24.25,0,0,0-1.23-5c-2.26-.08-4.49-.5-6.73-.65a64.87,64.87,0,0,0-7.38-.32,11.61,11.61,0,0,1-3.67-.25,8.4,8.4,0,0,0-.92,4.82A97.15,97.15,0,0,1,131.29,292.08Z" transform="translate(-9.35 -280.31)"/><path class="aj" d="M182.72,345.51a95.43,95.43,0,0,1,6.92,11c.15.27.23.62.63.64.9-1.18,2.07-2.12,2.87-3.38a2.22,2.22,0,0,1-.76-.9c-1.1-1.85-2.22-3.68-3.33-5.53-2.28-3.8-5.25-7.09-7.87-10.64a33.92,33.92,0,0,0-3,3.37h0A43,43,0,0,1,182.72,345.51Z" transform="translate(-9.35 -280.31)"/><path class="ak" d="M148.73,340.51c3.21,2.19,6.42,4.39,9.67,6.51,2.44,1.6,4.35,3.81,6.68,5.53l1-4.06c-.73.48-1-.22-1.35-.57A63.13,63.13,0,0,0,149.54,336a1.21,1.21,0,0,1-.75-1,27.22,27.22,0,0,0-1.23,4.52C147.78,340.06,148.31,340.23,148.73,340.51Z" transform="translate(-9.35 -280.31)"/><path class="s" d="M180.14,430.52c-3.19,5.42-6.47,10.77-10.8,15.38a1,1,0,0,0-.37.72l2.31,2.93c1.59-.87,2.48-2.42,3.57-3.75a76.48,76.48,0,0,0,8.22-12.51,2.24,2.24,0,0,1,.7-.8,21,21,0,0,0-2.36-3.13C180.74,429.47,180.45,430,180.14,430.52Z" transform="translate(-9.35 -280.31)"/><path class="aj" d="M159.08,323.59a69.65,69.65,0,0,1,10,7.34c.3.26.62.53,1.06.27a35.15,35.15,0,0,0,1-4.32,11.35,11.35,0,0,1-1-.64,97,97,0,0,0-15.82-10.17,9.93,9.93,0,0,0-1.47,4.08A36.18,36.18,0,0,1,159.08,323.59Z" transform="translate(-9.35 -280.31)"/><path class="aj" d="M187.66,440a87.18,87.18,0,0,1-11.15,15.09,1.09,1.09,0,0,0-.36.73l2.65,3.35c.39-1.63,1.86-2.43,2.83-3.61a96.24,96.24,0,0,0,8.05-10.89c.41-.67.64-1.58,1.58-1.82a31,31,0,0,0-2.62-3.61C188.14,439.22,187.89,439.57,187.66,440Z" transform="translate(-9.35 -280.31)"/><path class="aj" d="M154,477a88.28,88.28,0,0,0,12-7.25c.48-.36.92-1,1.71-.82-.29-1.52-.59-3-.88-4.55a6.54,6.54,0,0,0-2.48,1.58,83.8,83.8,0,0,1-15.55,9c-.1.05-.17.17-.25.25h0a21.12,21.12,0,0,0,.77,3.78A20.42,20.42,0,0,0,154,477Z" transform="translate(-9.35 -280.31)"/><path class="aj" d="M84.42,477.39a81.39,81.39,0,0,1-16.71-8.18,26.55,26.55,0,0,0-2.77,3.31h0A97.06,97.06,0,0,0,82,481a.84.84,0,0,1,.59.8,34,34,0,0,0,3.08-3.49C85.62,477.49,84.9,477.56,84.42,477.39Z" transform="translate(-9.35 -280.31)"/><path class="al" d="M126.75,329.26a69.47,69.47,0,0,1,12.17,3.61,4.88,4.88,0,0,0,1.7.49,37,37,0,0,0-1.16-5.08c-.22.87-.79.47-1.22.3a71.06,71.06,0,0,0-12.05-3.26,36.21,36.21,0,0,0-6.72-.83,3,3,0,0,1-1.57-.48,29.84,29.84,0,0,0,.89,4.07h0C121.44,328.47,124.11,328.75,126.75,329.26Z" transform="translate(-9.35 -280.31)"/><path class="am" d="M148.61,471.1a80,80,0,0,0,14.09-8.37,21.38,21.38,0,0,1,3.35-2.41c-.25-1.36-.49-2.72-.74-4.09-.45-.26-.76,0-1.06.29a60.3,60.3,0,0,1-7.74,5.77,53.3,53.3,0,0,1-9.62,5.23,25.19,25.19,0,0,0,.93,4.37C147.85,471.39,148.26,471.26,148.61,471.1Z" transform="translate(-9.35 -280.31)"/><path class="an" d="M135.68,316.87c.43.11.84.35,1.17-.16h0a25.13,25.13,0,0,0-1-4.29c-.26.38-.6.3-1,.2a76.62,76.62,0,0,0-10.14-2,39.45,39.45,0,0,0-7.6-.54c-.7,0-1.4-.41-2.09,0h0a27.35,27.35,0,0,0,.82,3.8A84.68,84.68,0,0,1,135.68,316.87Z" transform="translate(-9.35 -280.31)"/><path class="ao" d="M35,393.68a60.14,60.14,0,0,1,1.18-11.2c0-.2,0-.4,0-.6l-4.32-.08c-.09,2.11-.56,4.17-.76,6.26a78.06,78.06,0,0,0-.43,9.42c0,1.26-.26,2.55.23,3.79a20.62,20.62,0,0,0,4.08.24C35,398.9,35.05,396.29,35,393.68Z" transform="translate(-9.35 -280.31)"/><path class="ap" d="M102.06,456.16a62.67,62.67,0,0,1-17.64-6.38.79.79,0,0,0-.23,0h0l-2.64,3.12a2.68,2.68,0,0,1,1.45.49,64.47,64.47,0,0,0,17.2,6.29c.46.1,1.21-.07,1.34.73a27.57,27.57,0,0,0,3.08-3.49C103.89,456.2,102.92,456.34,102.06,456.16Z" transform="translate(-9.35 -280.31)"/><path class="aq" d="M90.07,471.36a76.49,76.49,0,0,1-17.43-8A24,24,0,0,0,70,466.53c2,1.05,3.92,2.12,5.88,3.16a75.28,75.28,0,0,0,11.54,4.93c.37.13.79.18.94.64a27.77,27.77,0,0,0,2.84-3.2C91.07,471.42,90.48,471.49,90.07,471.36Z" transform="translate(-9.35 -280.31)"/><path class="ar" d="M122.41,368.47a41.19,41.19,0,0,0-6.35,2.23,21.42,21.42,0,0,0-3.83,2.73,37.74,37.74,0,0,0-9.75,10.48,21.17,21.17,0,0,0-3,7.5,25.89,25.89,0,0,0-.63,4.18A24.86,24.86,0,0,0,100,402.3a27.52,27.52,0,0,0,7.62,12.11,52,52,0,0,0,7.21,5.77c3.38,2.27,7.16,3.05,11,3.92a11.14,11.14,0,0,0,3.09.43h0a15.72,15.72,0,0,0-2.88-1.42h0c-3-.71-6.21-1-9-2.74a55.3,55.3,0,0,1-6.84-4.93,41.53,41.53,0,0,1-6-6.41c-.93-1.25-1.57-2.64-2.42-3.92a12.4,12.4,0,0,1-1.41-4.33,26.44,26.44,0,0,1-.39-6.89,20.88,20.88,0,0,1,2.58-8.36,30.06,30.06,0,0,1,3.57-5.08c2.65-3.42,6.19-5.8,9.69-8.21a17.36,17.36,0,0,1,6.38-2.7c1-.21,2-.88,3.1-.65h0l2.64-1.4A15.81,15.81,0,0,0,122.41,368.47Z" transform="translate(-9.35 -280.31)"/><path class="as" d="M52.1,394.11a47.7,47.7,0,0,1,1.26-10.5c.08-.34.11-.7.16-1.05a27.81,27.81,0,0,0-4.08-.2c-.28,1.84-.64,3.66-.83,5.51-.43,4.09-1,8.19-.4,12.33a17.13,17.13,0,0,1,0,2,2.76,2.76,0,0,0,1.34,0c.44,0,.9-.18,1.29.17l1.45,0A53.05,53.05,0,0,1,52.1,394.11Z" transform="translate(-9.35 -280.31)"/><path class="ag" d="M172.82,435.56a47.42,47.42,0,0,1-6.82,7.27l3,3.79a1,1,0,0,1,.37-.72c4.33-4.61,7.61-10,10.8-15.38.31-.53.6-1,1.27-1.16A19.79,19.79,0,0,0,179,426,71.25,71.25,0,0,1,172.82,435.56Z" transform="translate(-9.35 -280.31)"/><path class="am" d="M136.11,320.85c.54.16,1.11.58,1.67,0a23.39,23.39,0,0,0-.93-4.14h0c-.33.51-.74.27-1.17.16a84.68,84.68,0,0,0-19.77-2.95,20.88,20.88,0,0,0,.76,3.84A68.91,68.91,0,0,1,136.11,320.85Z" transform="translate(-9.35 -280.31)"/><path class="af" d="M174.27,352.65a111.78,111.78,0,0,1,8.16,12.91,2.32,2.32,0,0,0,.4.43,18.13,18.13,0,0,0,2.45-2.87c-.51,0-.59-.47-.76-.82a83.42,83.42,0,0,0-7.66-12.64c-1.08-1.47-2.23-2.88-3.35-4.33a25.9,25.9,0,0,0-2.71,3.12A19.71,19.71,0,0,1,174.27,352.65Z" transform="translate(-9.35 -280.31)"/><path class="at" d="M117.18,310.1a39.45,39.45,0,0,1,7.6.54,76.62,76.62,0,0,1,10.14,2c.36.1.7.18,1-.2a30.21,30.21,0,0,0-1-4.31c-.08.56-.44.57-.88.45a78,78,0,0,0-12.32-2,46.8,46.8,0,0,0-7.4-.29c.27,1.29.53,2.59.79,3.88h0C115.78,309.69,116.48,310.14,117.18,310.1Z" transform="translate(-9.35 -280.31)"/><path class="aq" d="M183.07,433.29a76.48,76.48,0,0,1-8.22,12.51c-1.09,1.33-2,2.88-3.57,3.75A29.57,29.57,0,0,0,174,453c.49-1.51,1.79-2.42,2.74-3.56a89.9,89.9,0,0,0,8.67-12.56,2.29,2.29,0,0,1,.83-1l-2.43-3.36A2.24,2.24,0,0,0,183.07,433.29Z" transform="translate(-9.35 -280.31)"/><path class="au" d="M111,441.39a42.25,42.25,0,0,1-13.1-2.64,14.12,14.12,0,0,0-3.34-1.24,13.15,13.15,0,0,0-1.92,2.35,2.43,2.43,0,0,0,1.19.75c6.2,2.72,12.58,4.61,19.44,4.36.53,0,1.15-.2,1.49.46a14.62,14.62,0,0,0,2.41-2.62A12.68,12.68,0,0,0,111,441.39Z" transform="translate(-9.35 -280.31)"/><path class="b" d="M116,286.07a64.87,64.87,0,0,1,7.38.32c2.24.15,4.47.57,6.73.65A9.39,9.39,0,0,0,120,280.36a8.84,8.84,0,0,0-7.67,5.46A11.61,11.61,0,0,0,116,286.07Z" transform="translate(-9.35 -280.31)"/><path class="v" d="M55.66,359.31a75.9,75.9,0,0,1,6.79-8.91c1.46-1.63,3.13-3.07,4.51-4.78a12.33,12.33,0,0,0-3.84-1.91c-1.71,1.88-3.46,3.72-5.12,5.64a76.25,76.25,0,0,0-5.47,7.33c-.28.42-.45.95-1,1.18h0a7.93,7.93,0,0,0,2.87,2.88h0C55.08,360.47,55.31,359.83,55.66,359.31Z" transform="translate(-9.35 -280.31)"/><path class="am" d="M176.86,349.66a83.42,83.42,0,0,1,7.66,12.64c.17.35.25.79.76.82.81-1,1.61-1.92,2.42-2.87-1.6-2.34-2.72-4.94-4.24-7.33a67.72,67.72,0,0,0-7.38-9.94,1.92,1.92,0,0,1-.18-.31,22.26,22.26,0,0,0-2.39,2.66C174.63,346.78,175.78,348.19,176.86,349.66Z" transform="translate(-9.35 -280.31)"/><path class="x" d="M200.38,457.22a111,111,0,0,1-8.8,10.93c-.57.61-1.6,1.08-1.5,2.22.49.46,1.14.31,1.71.36a9.21,9.21,0,0,0,9-4.36,9.08,9.08,0,0,0,.35-9.65C200.77,456.72,200.58,456.94,200.38,457.22Z" transform="translate(-9.35 -280.31)"/><path class="av" d="M148.78,475a83.8,83.8,0,0,0,15.55-9,6.54,6.54,0,0,1,2.48-1.58,26.9,26.9,0,0,0-.76-4.08,21.38,21.38,0,0,0-3.35,2.41,80,80,0,0,1-14.09,8.37c-.35.16-.76.29-.79.79a15,15,0,0,0,.71,3.37h0C148.61,475.18,148.68,475.06,148.78,475Z" transform="translate(-9.35 -280.31)"/><path class="aw" d="M122.53,334.78a57.84,57.84,0,0,1,13,3.37c2.3.87,4.54,1.92,6.8,2.89a27.81,27.81,0,0,0-1-4.32c-1.23.08-2.17-.74-3.22-1.17a72.47,72.47,0,0,0-14.94-4.07c-1.28-.22-2.61-.19-3.88-.51h0l.72,3.59A14.87,14.87,0,0,1,122.53,334.78Z" transform="translate(-9.35 -280.31)"/><path class="ax" d="M97.32,385.19a28.49,28.49,0,0,0-2.24,11.48,31.59,31.59,0,0,0,1.28,7.49c0,.22.07.46.11.7,1.3,0,1.35,0,.85-1.61a26.55,26.55,0,0,1-1.07-6.3,28.57,28.57,0,0,1,1.09-8.47A27.8,27.8,0,0,1,102.65,378c2.23-2.88,4.54-5.76,7.78-7.66a46.13,46.13,0,0,1,8.44-3.74c1.61-.55,3.28-.79,4.87-1.46a21.21,21.21,0,0,1,5.62-1.37c2.29-.31,4.57-.47,6.86-.64a26,26,0,0,1,7,.24c1.23.25,2.56.07,3.68.73a9,9,0,0,0,2.38.9c-.58-1.06-1.9-1.09-2.64-1.92-3.36-1.35-6.89-1.39-10.4-1.16a45.17,45.17,0,0,0-14.1,2.69c-2.1.84-4.33,1.34-6.43,2.24-1.55.67-2.95,1.57-4.41,2.38a25.41,25.41,0,0,0-5.53,3.75,17.69,17.69,0,0,0-2.39,2.8c-.37.55-.89.89-1.28,1.39-1.39,1.79-2.27,3.88-3.47,5.79-.25.4-.48.73-1,.77h0c-.07.24-.28.22-.45.27C97.71,384.38,97.48,384.8,97.32,385.19Z" transform="translate(-9.35 -280.31)"/><path class="ay" d="M105.71,453.13a54.46,54.46,0,0,1-15.62-4.4c-1.22-.55-2.45-1.07-3.68-1.61l-2.22,2.62h0a.79.79,0,0,1,.23,0,62.67,62.67,0,0,0,17.64,6.38c.86.18,1.83,0,2.56.72a17.18,17.18,0,0,0,2.66-3.05A1.86,1.86,0,0,0,105.71,453.13Z" transform="translate(-9.35 -280.31)"/><path class="aq" d="M152.88,328.22a78.12,78.12,0,0,1,14.17,10.55,2.06,2.06,0,0,0,1.15.59l1-4.08c-1.15-.1-1.72-1.09-2.48-1.73a80.84,80.84,0,0,0-14-9.5,5.22,5.22,0,0,0-.89-.32,18.48,18.48,0,0,0-.89,3.36A7.69,7.69,0,0,0,152.88,328.22Z" transform="translate(-9.35 -280.31)"/><path class="n" d="M131,295.87c.44.09.91.15,1-.5h0a16.13,16.13,0,0,0-.73-3.29h0a97.15,97.15,0,0,0-19.93-1.44,11,11,0,0,0,.52,3.6A113.82,113.82,0,0,1,131,295.87Z" transform="translate(-9.35 -280.31)"/><path class="u" d="M131.61,345.25c1.11.13,2.18.39,3.27.59,2.66.52,5.29,1.15,7.9,1.87.31.08.85.61,1-.23h0a5.86,5.86,0,0,0-.48-2.15c-.36.29-.69,0-1-.11a16.42,16.42,0,0,0-2.31-1c-3.43-.72-6.68-2-10-3a47.88,47.88,0,0,0-9-1.87c.32,1.52.63,3,.94,4.56C125.14,344.57,128.38,344.88,131.61,345.25Z" transform="translate(-9.35 -280.31)"/><path class="av" d="M176.08,343a67.72,67.72,0,0,1,7.38,9.94c1.52,2.39,2.64,5,4.24,7.33a24,24,0,0,0,2.57-3.13c-.4,0-.48-.37-.63-.64a95.43,95.43,0,0,0-6.92-11,43,43,0,0,0-4.51-5.47h0a18.06,18.06,0,0,0-2.31,2.63A1.92,1.92,0,0,0,176.08,343Z" transform="translate(-9.35 -280.31)"/><path class="av" d="M152.72,324.05a80.84,80.84,0,0,1,14,9.5c.76.64,1.33,1.63,2.48,1.73l1-4.08c-.44.26-.76,0-1.06-.27a69.65,69.65,0,0,0-10-7.34,36.18,36.18,0,0,0-6.25-3.44,20,20,0,0,0-1,3.58A5.22,5.22,0,0,1,152.72,324.05Z" transform="translate(-9.35 -280.31)"/><path class="av" d="M185.37,436.84a89.9,89.9,0,0,1-8.67,12.56c-.95,1.14-2.25,2.05-2.74,3.56a22.16,22.16,0,0,0,2.19,2.82,1.09,1.09,0,0,1,.36-.73A87.18,87.18,0,0,0,187.66,440c.23-.39.48-.74,1-.76l-2.44-3.35A2.29,2.29,0,0,0,185.37,436.84Z" transform="translate(-9.35 -280.31)"/><path class="ah" d="M56.11,390.34c.27-2.3.66-4.56,1.07-6.82.08-.43,0-.67-.29-.9l-3.37-.06c-.05.35-.08.71-.16,1.05a47.7,47.7,0,0,0-1.26,10.5,53.05,53.05,0,0,0,.22,8.36,4.42,4.42,0,0,0,1.58,0c.44,0,.9-.18,1.29.17h1A49.55,49.55,0,0,1,56.11,390.34Z" transform="translate(-9.35 -280.31)"/><path class="az" d="M64.15,361.23a58.73,58.73,0,0,1,8.57-9.53,28.36,28.36,0,0,0,2.15-2.23A40.42,40.42,0,0,0,71,347.53a2.64,2.64,0,0,1-1,1.59,70.4,70.4,0,0,0-9.83,11.21c-.59.87-.91,2-1.91,2.55a17.91,17.91,0,0,0,3.27,1.72C62.82,363.76,63.3,362.35,64.15,361.23Z" transform="translate(-9.35 -280.31)"/><path class="ba" d="M119.47,324.49a36.21,36.21,0,0,1,6.72.83,71.06,71.06,0,0,1,12.05,3.26c.43.17,1,.57,1.22-.3a23.74,23.74,0,0,0-.74-3.32c-1.91-.2-3.65-1-5.49-1.5a83.1,83.1,0,0,0-13.66-2.39,10.2,10.2,0,0,0-2.21.05l.54,2.89A3,3,0,0,0,119.47,324.49Z" transform="translate(-9.35 -280.31)"/><path class="av" d="M87.41,474.62a75.28,75.28,0,0,1-11.54-4.93c-2-1-3.92-2.11-5.88-3.16a19.45,19.45,0,0,0-2.28,2.68,81.39,81.39,0,0,0,16.71,8.18c.48.17,1.2.1,1.25.89a24.83,24.83,0,0,0,2.68-3C88.2,474.8,87.78,474.75,87.41,474.62Z" transform="translate(-9.35 -280.31)"/><path class="ab" d="M48.21,400.2c-.57-4.14,0-8.24.4-12.33.19-1.85.55-3.67.83-5.51l-3.84-.07a48.86,48.86,0,0,1-.77,5.65,52.79,52.79,0,0,0-.44,6.53c0,2.52,0,5,0,7.55a17.62,17.62,0,0,0,3.84.21A17.13,17.13,0,0,0,48.21,400.2Z" transform="translate(-9.35 -280.31)"/><path class="bb" d="M159.46,443.61c1-.71,1.81-1.78,3-2.25h0c-.19-1-.37-2.08-.55-3.12-1.56.57-2.59,1.9-3.94,2.77-.75.49-1.5,1-2.23,1.55a23.31,23.31,0,0,1-4.67,3.05,68.85,68.85,0,0,1-6.7,3.38c-.48.22-1,.44-1.14,1.1h0a17.83,17.83,0,0,0,.76,3.75C149.6,451.08,154.33,447.05,159.46,443.61Z" transform="translate(-9.35 -280.31)"/><path class="ay" d="M65.78,365.22a55.78,55.78,0,0,1,8.71-10.43c1.29-1.23,2.74-2.3,4-3.6a24.24,24.24,0,0,0-3.6-1.72,28.36,28.36,0,0,1-2.15,2.23,58.73,58.73,0,0,0-8.57,9.53c-.85,1.12-1.33,2.53-2.57,3.37a15.85,15.85,0,0,0,3.15,1.67C65.34,366.19,65.51,365.64,65.78,365.22Z" transform="translate(-9.35 -280.31)"/><path class="bc" d="M119.57,321.07a83.1,83.1,0,0,1,13.66,2.39c1.84.46,3.58,1.3,5.49,1.5a28.79,28.79,0,0,0-.94-4.11c-.56.58-1.13.16-1.67,0a68.91,68.91,0,0,0-19.44-3.09,18.22,18.22,0,0,0,.69,3.36A10.2,10.2,0,0,1,119.57,321.07Z" transform="translate(-9.35 -280.31)"/><path class="bd" d="M30.73,397.48a78.06,78.06,0,0,1,.43-9.42c.2-2.09.67-4.15.76-6.26a13.58,13.58,0,0,0-3.6-.16,96.45,96.45,0,0,0-1.2,19.43,18.26,18.26,0,0,0,3.84.2C30.47,400,30.77,398.74,30.73,397.48Z" transform="translate(-9.35 -280.31)"/><path class="be" d="M91.89,338.66a64.41,64.41,0,0,1,13.6-3.43c1.31-.19,2.73.11,3.94-.66a11.6,11.6,0,0,0-3.6-3.81c-.72.81-1.74.65-2.64.78a71.56,71.56,0,0,0-10.91,2.7,4.09,4.09,0,0,1-.71.05h0a7.69,7.69,0,0,0-.84,4.59A2.72,2.72,0,0,0,91.89,338.66Z" transform="translate(-9.35 -280.31)"/><path class="v" d="M44.39,394.47a52.79,52.79,0,0,1,.44-6.53,48.86,48.86,0,0,0,.77-5.65,12.63,12.63,0,0,0-3.36-.17A70.85,70.85,0,0,0,41,390.45c-.4,3.78-.09,7.57-.23,11.35a15.05,15.05,0,0,0,3.61.22C44.4,399.5,44.42,397,44.39,394.47Z" transform="translate(-9.35 -280.31)"/><path class="bf" d="M133.78,464.93a57.08,57.08,0,0,1-7.28,1.74c-2.26.38-4.53.72-6.82.88a37.06,37.06,0,0,1-3.8.21.81.81,0,0,0-.95.82h0a5.58,5.58,0,0,0,1,3.05c1.13-.62,2.41-.33,3.59-.43a76.41,76.41,0,0,0,13.44-2.36c.44-.12.7-.08.76.41a22.55,22.55,0,0,0,1.2-4.09C134.71,464.25,134.06,464.84,133.78,464.93Z" transform="translate(-9.35 -280.31)"/><path class="bf" d="M135,465l-.06.21A1.15,1.15,0,0,0,135,465Z" transform="translate(-9.35 -280.31)"/><path class="bg" d="M134.92,461.16A63,63,0,0,1,115,464.4h0a8.34,8.34,0,0,0-.07,4.18h0a.81.81,0,0,1,.95-.82,37.06,37.06,0,0,0,3.8-.21c2.29-.16,4.56-.5,6.82-.88a57.08,57.08,0,0,0,7.28-1.74c.28-.09.93-.68,1.12.23L135,465l1.14-3.87C135.68,460.6,135.28,461.05,134.92,461.16Z" transform="translate(-9.35 -280.31)"/><path class="m" d="M17.09,389.77a62,62,0,0,1,.84-7.28c.08-.63,0-.92-.68-.9.13,0,.27,0,.4-.09a1.47,1.47,0,0,0-.4.09,7.34,7.34,0,0,0-3.88,1.65c.51.39.35,1,.29,1.44a79.92,79.92,0,0,0-.7,12.17c0,.45.14,1-.57,1.1A8.31,8.31,0,0,0,17,400.33C16.39,396.81,17,393.29,17.09,389.77Z" transform="translate(-9.35 -280.31)"/><path class="bh" d="M59.48,401.19a53.93,53.93,0,0,1,0-9.51,56.23,56.23,0,0,1,1.27-8.07c.06-.27.16-.53.24-.8l-4.07-.19c.34.23.37.47.29.9-.41,2.26-.8,4.52-1.07,6.82a49.55,49.55,0,0,0,0,12.35l2.07.06C59.49,402.63,59.6,402.38,59.48,401.19Z" transform="translate(-9.35 -280.31)"/><path class="bi" d="M148.29,443.93a96,96,0,0,0,8.61-5,2.87,2.87,0,0,1,.54-.2c2.37-2.18,4.8-4.31,7-6.65a13.74,13.74,0,0,0,2.34-2.71h0a.83.83,0,0,0-1.2-.48h0c-.8.07-1.08.87-1.7,1.23-1.45.83-2.87,1.73-4.3,2.61a14,14,0,0,1-3.74,3.78,49.28,49.28,0,0,1-11.79,6.8c-.7.28-1.36.64-2,1a7,7,0,0,0,.5,2.43C144.35,445.58,146.42,445,148.29,443.93Z" transform="translate(-9.35 -280.31)"/><path class="bj" d="M88.77,404.36h0c-.43-1.7-.39-3.46-.69-5.17-.63-3.67.08-7.29.53-10.9A25.77,25.77,0,0,1,90,383.8h0l-3.11-.06a10.72,10.72,0,0,1-.34,1.14,30.31,30.31,0,0,0-1.29,18c.26,1.17,0,1.44-1.07,1.34a18.36,18.36,0,0,0,4.32.25.27.27,0,0,0,.2.06l-.2-.06Z" transform="translate(-9.35 -280.31)"/><path class="bk" d="M20.4,398.57a98.56,98.56,0,0,1,1.18-16.46,4.18,4.18,0,0,0,0-.71,13.08,13.08,0,0,0-4,.1c-.13,0-.27.05-.4.09.66,0,.76.27.68.9a62,62,0,0,0-.84,7.28c-.08,3.52-.7,7-.05,10.56a2.3,2.3,0,0,0,1.41.24C20.57,400.48,20.41,401,20.4,398.57Z" transform="translate(-9.35 -280.31)"/><path class="bk" d="M19.14,400.68c-.23,0-.46-.06-.69-.11A1.11,1.11,0,0,0,19.14,400.68Z" transform="translate(-9.35 -280.31)"/><path class="bl" d="M24,399.46c-.08-1.87,0-3.74,0-5.61a78.08,78.08,0,0,1,1-11.22c.13-.91-.07-1.13-.91-1a1.19,1.19,0,0,1-1-.17l-1.45,0a4.18,4.18,0,0,1,0,.71,98.56,98.56,0,0,0-1.18,16.46c0,2.42.17,1.91-1.95,2,.23.05.46.08.69.11a28.57,28.57,0,0,0,3.58.14C23.79,401,24.07,400.49,24,399.46Z" transform="translate(-9.35 -280.31)"/><path class="bl" d="M24.29,381.47l.61,0A1.7,1.7,0,0,0,24.29,381.47Z" transform="translate(-9.35 -280.31)"/><path class="bf" d="M174.3,358.1c2.42,3.31,4.31,6.93,6.47,10.39.59-.91,1.6-1.48,2.06-2.5a2.32,2.32,0,0,1-.4-.43,111.78,111.78,0,0,0-8.16-12.91,19.71,19.71,0,0,0-3.47-4.2,18.19,18.19,0,0,0-2.34,2.62C170.38,353.43,172.49,355.63,174.3,358.1Z" transform="translate(-9.35 -280.31)"/><path class="bm" d="M77.62,484.55c-3.17-1.38-6.32-2.79-9.37-4.45a41.18,41.18,0,0,0-5.4-3,7.75,7.75,0,0,0,.47,5.36c.25-.44.56-.18.81,0A82.1,82.1,0,0,0,74,487.35a1.81,1.81,0,0,1,.9.76,9,9,0,0,0,4.33-2.58h0C78.85,484.92,78.19,484.8,77.62,484.55Z" transform="translate(-9.35 -280.31)"/><path class="bn" d="M121.7,306.53a78,78,0,0,1,12.32,2c.44.12.8.11.88-.45a13.91,13.91,0,0,0-.7-3.13h0c-.15.26-.36.2-.61.15a94.57,94.57,0,0,0-16.26-2.08,10,10,0,0,1-3.75-.4l.72,3.59A46.8,46.8,0,0,1,121.7,306.53Z" transform="translate(-9.35 -280.31)"/><path class="bo" d="M174.55,427.58a70.16,70.16,0,0,1-6.32,8.6,33.68,33.68,0,0,1-4.12,4.24,14.24,14.24,0,0,0,1.89,2.41,47.42,47.42,0,0,0,6.82-7.27A71.25,71.25,0,0,0,179,426a18.85,18.85,0,0,0-1.79-2.46A18.72,18.72,0,0,0,174.55,427.58Z" transform="translate(-9.35 -280.31)"/><path class="aa" d="M123.2,331.48a72.47,72.47,0,0,1,14.94,4.07c1.05.43,2,1.25,3.22,1.17-.24-1.12-.49-2.24-.74-3.36a4.88,4.88,0,0,1-1.7-.49,69.47,69.47,0,0,0-12.17-3.61c-2.64-.51-5.31-.79-8-1.18h0a13.62,13.62,0,0,0,.53,2.89h0C120.59,331.29,121.92,331.26,123.2,331.48Z" transform="translate(-9.35 -280.31)"/><path class="bp" d="M151.44,354.24c1,1.45,2.92,1.63,4.08,2.88h0c2.65.7,4.82,2.37,7.2,3.6.63.1,1.08-.45,1.68-.48-1.43-1.31-2.83-2.66-4.31-3.93a45.21,45.21,0,0,0-7.7-5.55c-1.95-1.06-3.93-2.06-5.91-3.07-.5-.25-.88-.53-.81-1.16a16.55,16.55,0,0,0-.94,3.39A55.54,55.54,0,0,1,151.44,354.24Z" transform="translate(-9.35 -280.31)"/><path class="s" d="M38.17,394.56a89.06,89.06,0,0,1,1.43-12.51l-3.36-.17c0,.2,0,.4,0,.6A60.14,60.14,0,0,0,35,393.68c0,2.61,0,5.22,0,7.83a2.93,2.93,0,0,0,1.35,0c.51,0,1-.2,1.52.17h.49A59,59,0,0,1,38.17,394.56Z" transform="translate(-9.35 -280.31)"/><path class="bq" d="M28.32,381.64l-3.42-.15-.61,0-1.24-.05a1.19,1.19,0,0,0,1,.17c.84-.09,1,.13.91,1a78.08,78.08,0,0,0-1,11.22c0,1.87-.06,3.74,0,5.61.05,1-.23,1.51-1.3,1.36a25.93,25.93,0,0,0,4.4.25A96.45,96.45,0,0,1,28.32,381.64Z" transform="translate(-9.35 -280.31)"/><path class="br" d="M116,300.15a2.47,2.47,0,0,0,.71.09A83.22,83.22,0,0,1,132.56,302c.41.08.8.31.89-.34a14.63,14.63,0,0,0-.71-3.13c-.07.5-.34.48-.77.4a94,94,0,0,0-13.7-1.62c-1.59-.06-3.18-.15-4.77-.17a1.21,1.21,0,0,1-1.14-.48c.25,1.19.49,2.39.74,3.59A5.13,5.13,0,0,1,116,300.15Z" transform="translate(-9.35 -280.31)"/><path class="bs" d="M62.33,393.52a76.07,76.07,0,0,1,1.36-9.64,1.14,1.14,0,0,0-.08-1L61,382.81c-.08.27-.18.53-.24.8a56.23,56.23,0,0,0-1.27,8.07,53.93,53.93,0,0,0,0,9.51c.12,1.19,0,1.44-1.25,1.56a21.46,21.46,0,0,0,4.39.27A73.28,73.28,0,0,1,62.33,393.52Z" transform="translate(-9.35 -280.31)"/><path class="bt" d="M117.26,372.43a45.4,45.4,0,0,0-10.11,7.87,19.88,19.88,0,0,0-5.29,8.1,40.25,40.25,0,0,0-1.62,6.05,14.37,14.37,0,0,0,.65,6.45,24.76,24.76,0,0,0,3,6.71,28.29,28.29,0,0,0,4.76,5.41,59.39,59.39,0,0,0,5.18,4.2A39,39,0,0,0,120,421a11.5,11.5,0,0,0,4.07,1l-1.71-1.2c-1.35-.08-2.33-1-3.45-1.57a42.93,42.93,0,0,1-11.61-8.39,22.2,22.2,0,0,1-6-12.43c-.62-4.06.45-7.76,2-11.42,1.7-3.89,4.69-6.61,7.88-9.2a52.46,52.46,0,0,1,10.41-6.5,3.74,3.74,0,0,1,.57-.17h0a2.81,2.81,0,0,0,1.23-1C121.08,370.16,119.22,371.37,117.26,372.43Z" transform="translate(-9.35 -280.31)"/><path class="bu" d="M138.72,434.16c-.12,0-.24.07-.35.11A.49.49,0,0,0,138.72,434.16Z" transform="translate(-9.35 -280.31)"/><path class="bu" d="M95.91,412.21a45.39,45.39,0,0,0,3.66,5.08c1.23,1.45,2.79,2.58,3.87,4.15l.24.24a7,7,0,0,1,3.36,2.64h0a2.2,2.2,0,0,1,1.92,1.2l.72.24a41.32,41.32,0,0,1,7,3.6c1.22.08,2.21.81,3.33,1.19a98.7,98.7,0,0,0,10,2.7c1.53.33,3.11.21,4.63.77a6.68,6.68,0,0,0,2.1-.11,5.85,5.85,0,0,1,2,.25,38.73,38.73,0,0,0,6.24-1c1.27-.51,2.73-.49,3.84-1.44-.86-.52-1.61.05-2.4.24-2,.26-3.94.62-5.94.82a34.39,34.39,0,0,1-8.67-.37,52,52,0,0,1-9.94-2.33A69,69,0,0,1,107,423a28.17,28.17,0,0,1-11.46-13.7c-.31-.76-.68-1.49-1-2.24a1.58,1.58,0,0,0-1,.46h0C94.56,408.94,94.94,410.71,95.91,412.21Z" transform="translate(-9.35 -280.31)"/><path class="m" d="M159.84,313.3a83.54,83.54,0,0,1,11,7.2c.41.31.74.87,1.41.62A9.55,9.55,0,0,0,158.4,312C158.54,312.83,159.28,313,159.84,313.3Z" transform="translate(-9.35 -280.31)"/><path class="bk" d="M117.33,303.05a94.57,94.57,0,0,1,16.26,2.08c.25.05.46.11.61-.15h0a16.55,16.55,0,0,0-.75-3.33c-.09.65-.48.42-.89.34a83.22,83.22,0,0,0-15.82-1.75,2.47,2.47,0,0,1-.71-.09,5.13,5.13,0,0,0-2.93.09l.48,2.41A10,10,0,0,0,117.33,303.05Z" transform="translate(-9.35 -280.31)"/><path class="bv" d="M132.73,349.73a35.89,35.89,0,0,1,10.45,3.17c1,.48,2.14.31,3,1.1h0a28.13,28.13,0,0,1,7,2.4c1-.48,1.52.75,2.4.72h0c-1.16-1.25-3.07-1.43-4.08-2.88l-4.7-2.24a40.24,40.24,0,0,0-11-3.53c-1.92-.3-3.84-.57-5.73-1-2.45-.52-4.9-.12-7.34-.22a5.31,5.31,0,0,0,.42,1.93A48.55,48.55,0,0,1,132.73,349.73Z" transform="translate(-9.35 -280.31)"/><path class="bw" d="M95.56,409.26A28.17,28.17,0,0,0,107,423a69,69,0,0,0,14.83,7.16,52,52,0,0,0,9.94,2.33,34.39,34.39,0,0,0,8.67.37c2-.2,4-.56,5.94-.82.58-.69.51-1.05-.48-1-2.37.88-4.92.37-7.35.91a6.34,6.34,0,0,1-1.64-.18,65.53,65.53,0,0,1-8.86-1.06c-5.71-1.09-11-3.51-16.23-5.91-1.17.13-1.91-.76-2.74-1.3a36.71,36.71,0,0,1-7.95-6.52c-1.44-1.65-2.26-3.59-3.42-5.37a18.35,18.35,0,0,1-2.22-5.09h0a1.69,1.69,0,0,0-1,.5C94.88,407.77,95.25,408.5,95.56,409.26Z" transform="translate(-9.35 -280.31)"/><path class="bx" d="M113.5,297.13c1.59,0,3.18.11,4.77.17a94,94,0,0,1,13.7,1.62c.43.08.7.1.77-.4a13.59,13.59,0,0,0-.72-3.15h0c-.08.65-.55.59-1,.5a113.82,113.82,0,0,0-19.15-1.63l.48,2.41A1.21,1.21,0,0,0,113.5,297.13Z" transform="translate(-9.35 -280.31)"/><path class="bc" d="M132.94,468.84a76.41,76.41,0,0,1-13.44,2.36c-1.18.1-2.46-.19-3.59.43a7.59,7.59,0,0,0,3.08,3.43c.72-.66,1.68-.44,2.48-.52a83.85,83.85,0,0,0,8.79-1.44,1.28,1.28,0,0,1,1.25.15,7.48,7.48,0,0,0,2.19-4C133.64,468.76,133.38,468.72,132.94,468.84Z" transform="translate(-9.35 -280.31)"/><path class="by" d="M148.06,437.53l0,0c-.54-.42-1.09.08-1.64,0-.57.52-1.3.15-2,.35a29.71,29.71,0,0,1-6.21,1.09h0c-.25.35-.67.15-1,.29-3.75,1.6-7.75,1.42-11.68,1.59a28,28,0,0,1-4.36-.44,12,12,0,0,0-.7,2.64A48.9,48.9,0,0,0,148.06,437.53Z" transform="translate(-9.35 -280.31)"/><path class="bz" d="M139.8,427.41c-4.21-.12-8.42,0-12.53-1.24-2.13-.63-4.34-.91-6.47-1.57a30.94,30.94,0,0,1-14.15-8.66,36.66,36.66,0,0,1-6.59-9.42,1.86,1.86,0,0,1-.22-.92,16,16,0,0,1-1.92-6.48v-.24a9.75,9.75,0,0,1,0-5.76v-.24a11.79,11.79,0,0,1,1.44-5.28v-.24c0-.41,0-.78.48-1,.5-2.53,2-4.56,3.47-6.55a39.1,39.1,0,0,1,9.33-9.09.81.81,0,0,0,.4-.68,6.19,6.19,0,0,0-2.39,1.29A46.57,46.57,0,0,0,101,382.31a31.34,31.34,0,0,0-3.91,12.61,20.21,20.21,0,0,0,1,7.58,31.93,31.93,0,0,0,6.27,11.77,31.47,31.47,0,0,0,16.2,10.79c2.44.71,4.91,1.32,7.38,1.92a36.29,36.29,0,0,0,3.86.69,66.69,66.69,0,0,0,9.79.21,6.71,6.71,0,0,0,4.39-1.17c.7.44,1.22.14,1.68-.42a5.37,5.37,0,0,0-1.68.41l-5.28.29A1.11,1.11,0,0,1,139.8,427.41Z" transform="translate(-9.35 -280.31)"/><path class="ca" d="M175.73,422.36a33.86,33.86,0,0,1-4.61,5.32c-.37,1.42-1.51,2.31-2.33,3.41a51,51,0,0,1-5.91,6.39,1.18,1.18,0,0,0-.42.82l1.65,2.12a33.68,33.68,0,0,0,4.12-4.24,70.16,70.16,0,0,0,6.32-8.6,18.72,18.72,0,0,1,2.68-4c-.19-.6-.77-.89-1.09-1.39h0C176,422.23,175.8,422.25,175.73,422.36Z" transform="translate(-9.35 -280.31)"/><path class="cb" d="M121.6,371.21a52.46,52.46,0,0,0-10.41,6.5c-3.19,2.59-6.18,5.31-7.88,9.2-1.6,3.66-2.67,7.36-2,11.42a22.2,22.2,0,0,0,6,12.43,42.93,42.93,0,0,0,11.61,8.39c1.12.57,2.1,1.49,3.45,1.57l-3.55-3.13h0c-1.79-.29-3.18-1.45-4.59-2.39a37.26,37.26,0,0,1-5.37-3.95,26.59,26.59,0,0,1-3.54-4.11,19.75,19.75,0,0,1-2.75-5.79,17.55,17.55,0,0,1-.67-7.26c.16-1.07.32-2.18.5-3.25a9.58,9.58,0,0,1,1.51-3.58,36.84,36.84,0,0,1,2.63-4.23,4.08,4.08,0,0,1,1.46-1.19,1.57,1.57,0,0,1,.72-.72,8.87,8.87,0,0,1,4.32-3.36h0a13,13,0,0,1,5.49-3.36h0a22.3,22.3,0,0,1,3.64-3.36h0A3.74,3.74,0,0,0,121.6,371.21Z" transform="translate(-9.35 -280.31)"/><path class="cc" d="M130,347.5c1.89.4,3.81.67,5.73,1a40.24,40.24,0,0,1,11,3.53l4.7,2.24a55.54,55.54,0,0,0-6.71-4.32c-.44.13-.32-.33-.5-.48a8.8,8.8,0,0,1-3.34-1.25,18.79,18.79,0,0,0-4.67-1.64,2.69,2.69,0,0,1-1.34-.71c-1.09-.2-2.16-.46-3.27-.59-3.23-.37-6.47-.68-9.66-1.33l.71,3.36C125.1,347.38,127.55,347,130,347.5Z" transform="translate(-9.35 -280.31)"/><path class="cd" d="M169.09,355.59c3.63,3.93,6.11,8.63,8.89,13.12a1.78,1.78,0,0,1,.34,1.13,1.61,1.61,0,0,0,.68.71,10,10,0,0,0,1.77-2.06c-2.16-3.46-4.05-7.08-6.47-10.39-1.81-2.47-3.92-4.67-5.84-7a7.85,7.85,0,0,0-1.45,1.65A8.32,8.32,0,0,0,169.09,355.59Z" transform="translate(-9.35 -280.31)"/><path class="h" d="M121.42,448.7c3.83-.71,7.66-1.41,11.5-2.06a51.71,51.71,0,0,0,7.72-2.16c-.47-.67-1.49-.46-1.92-1.2A53.68,53.68,0,0,1,122.46,445a6.62,6.62,0,0,1-2.31-.51h0a28.4,28.4,0,0,0-1.1,4.36A18.79,18.79,0,0,0,121.42,448.7Z" transform="translate(-9.35 -280.31)"/><path class="ce" d="M98.63,383c1.2-1.91,2.08-4,3.47-5.79.39-.5.91-.84,1.28-1.39a17.69,17.69,0,0,1,2.39-2.8,25.41,25.41,0,0,1,5.53-3.75c1.46-.81,2.86-1.71,4.41-2.38,2.1-.9,4.33-1.4,6.43-2.24a45.17,45.17,0,0,1,14.1-2.69c3.51-.23,7-.19,10.4,1.16l1.66.24v0a2.81,2.81,0,0,0-2.13-1.16c-.4-.07-.78-.07-1-.5-1.44.12-2.79-.45-4.21-.58-1.68-.16-3.36-.16-5-.22a28.65,28.65,0,0,0-4.51.64,43.62,43.62,0,0,0-9.27,2.15,87.54,87.54,0,0,0-11.77,5c-1.78,1.26-3.55,2.54-5.34,3.79a10.43,10.43,0,0,0-2.31,2.38,59.33,59.33,0,0,0-5.56,8.72l.47.24h0C98.15,383.73,98.38,383.4,98.63,383Z" transform="translate(-9.35 -280.31)"/><path class="cf" d="M52.53,356.68A76.25,76.25,0,0,1,58,349.35c1.66-1.92,3.41-3.76,5.12-5.64-1.52-.43-3-1-4.64-.55.87.19.38.55.09.86-2.38,2.65-4.66,5.38-6.78,8.24-.51.69-.82,1.55-1.65,2a6.86,6.86,0,0,0,1.42,3.62h0C52.08,357.63,52.25,357.1,52.53,356.68Z" transform="translate(-9.35 -280.31)"/><path class="cg" d="M122.21,369.54a17.36,17.36,0,0,0-6.38,2.7c-3.5,2.41-7,4.79-9.69,8.21a30.06,30.06,0,0,0-3.57,5.08,20.88,20.88,0,0,0-2.58,8.36,26.44,26.44,0,0,0,.39,6.89,12.4,12.4,0,0,0,1.41,4.33c.85,1.28,1.49,2.67,2.42,3.92a41.53,41.53,0,0,0,6,6.41,55.3,55.3,0,0,0,6.84,4.93c2.76,1.76,5.92,2,9,2.74h0a7.73,7.73,0,0,0-1.94-1.19,11.5,11.5,0,0,1-4.07-1,39,39,0,0,1-6.22-3.74,59.39,59.39,0,0,1-5.18-4.2,28.29,28.29,0,0,1-4.76-5.41,24.76,24.76,0,0,1-3-6.71,14.37,14.37,0,0,1-.65-6.45,40.25,40.25,0,0,1,1.62-6.05,19.88,19.88,0,0,1,5.29-8.1,45.4,45.4,0,0,1,10.11-7.87c2-1.06,3.82-2.27,6.14-2.34l1.9-1.2h0C124.18,368.66,123.24,369.33,122.21,369.54Z" transform="translate(-9.35 -280.31)"/><path class="ch" d="M122.46,445a53.68,53.68,0,0,0,16.26-1.67,49.76,49.76,0,0,0,8.13-3.63c1.94-1.11,4-2.1,5.55-3.81l-3.12,1.2c-.24.56-.74.48-1.2.48h0A48.9,48.9,0,0,1,120.51,443a3.58,3.58,0,0,0-.36,1.4h0A6.62,6.62,0,0,0,122.46,445Z" transform="translate(-9.35 -280.31)"/><path class="ci" d="M97.85,409a35.19,35.19,0,0,0,5.34,8.28,27.94,27.94,0,0,0,6.73,5.63.49.49,0,0,0,.48.24,5.53,5.53,0,0,1,2.4,1.44,105.5,105.5,0,0,0,10,3.77,33.89,33.89,0,0,0,9.31,2c1.83.05,3.61.63,5.49.58.62,0,1.23-.17,1.86-.14a25.08,25.08,0,0,0,9.05-1.54,9.64,9.64,0,0,0,3.66-1.8c.08-.56-.86-.1-.72-.72-1.64,1.2-3.67,1.32-5.52,1.92a1.26,1.26,0,0,1-1,.73,47.22,47.22,0,0,1-10.43.29,45.13,45.13,0,0,1-8.66-1.35c-2.84-.86-5.68-1.74-8.48-2.72a5.57,5.57,0,0,1-2.38-1,23.91,23.91,0,0,1-11.25-7.65,39.21,39.21,0,0,1-6.07-9.58,10.93,10.93,0,0,1-.44-1.48H97l-.25.2C96.63,407.19,97.45,408,97.85,409Z" transform="translate(-9.35 -280.31)"/><path class="ci" d="M97,405.84l.15-.07A.21.21,0,0,0,97,405.84Z" transform="translate(-9.35 -280.31)"/><path class="ba" d="M41,390.45a70.85,70.85,0,0,1,1.22-8.33l-2.64-.07a89.06,89.06,0,0,0-1.43,12.51,59,59,0,0,0,.23,7.16l2.39.08C40.93,398,40.62,394.23,41,390.45Z" transform="translate(-9.35 -280.31)"/><path class="cj" d="M98.84,408.77a37.8,37.8,0,0,0,3.49,5.47c1.21,1.47,2.51,2.86,3.71,4.32s2.93,2.24,4.37,3.38a10.41,10.41,0,0,0,3.79,1.9,1.23,1.23,0,0,1,.76.72,5.19,5.19,0,0,1,2,.35c4.67,1.6,9.34,3.28,14.29,3.83a46.59,46.59,0,0,0,11.26.24,11,11,0,0,1,3.44-.34c1.85-.6,3.88-.72,5.52-1.92A17,17,0,0,0,156,423.5c.2-.19.47-.3.46-.63h0L151.92,425c-.58,1-1.66,1-2.56,1.4a22.74,22.74,0,0,1-4.3,1.4,29.27,29.27,0,0,1-7.2.79c-1.22,0-2.43-.2-3.65-.22a27.11,27.11,0,0,1-6.48-.86,83.32,83.32,0,0,1-12.91-4.07,20.24,20.24,0,0,1-7.1-4.55c-.66-.72-1.37-1.44-2.1-2.1a27.89,27.89,0,0,1-4.24-5.1,29.2,29.2,0,0,1-3.25-6.43h0l-1,.47-.15.07h.24C98.4,406.45,98.29,407.8,98.84,408.77Z" transform="translate(-9.35 -280.31)"/><path class="ck" d="M100,374c1-1,2-2.16,3-3.17a33.4,33.4,0,0,1,7-4.78,1.54,1.54,0,0,1,.58-.08,41.56,41.56,0,0,1,7.33-4,60.6,60.6,0,0,1,10.68-3.22,57.88,57.88,0,0,1,8.18-1.13,1.16,1.16,0,0,1,.45.16c1.36-.32,2.72.16,4.08,0a3.82,3.82,0,0,0,1.92-.24c-.21-.48-.54-.41-1-.29a.89.89,0,0,1-1.2-.43h-.48a24.44,24.44,0,0,0-4.91-.06c-2.12.4-4.34,0-6.42.93-.69.32-1.65.14-2.45.4-2.91,1-6,1.43-8.76,2.82-2.43,1.22-5,2-7.28,3.69-1.85,1.37-4,2.26-5.81,3.74a46.19,46.19,0,0,0-6.44,6.3,42.82,42.82,0,0,0-4,6,10.56,10.56,0,0,0-.49,1.21h0c.11.21.3.21.49.21A33.14,33.14,0,0,1,100,374Z" transform="translate(-9.35 -280.31)"/><path class="cl" d="M94.29,375.66a34.48,34.48,0,0,1,5.55-6.46c1.77-1.52,3.36-3.24,5-4.87a7.59,7.59,0,0,0-2.64-1.19c-.16,1-1.16,1.24-1.77,1.83a51.77,51.77,0,0,0-7.59,9.44c-1.07,1.71-2.53,3.16-3.36,5a7.2,7.2,0,0,0,1.9,1A52.58,52.58,0,0,1,94.29,375.66Z" transform="translate(-9.35 -280.31)"/><path class="cm" d="M162.88,437.48a51,51,0,0,0,5.91-6.39c.82-1.1,2-2,2.33-3.41-1.49.43-2.76,1.43-4.32,1.68h0a13.74,13.74,0,0,1-2.34,2.71c-2.22,2.34-4.65,4.47-7,6.65a11.5,11.5,0,0,1-1.22,2.67c-.22.36-.54.68-.46,1.17.73-.53,1.48-1.06,2.23-1.55,1.35-.87,2.38-2.2,3.94-2.77.23-.49.34.1.53.06A1.18,1.18,0,0,1,162.88,437.48Z" transform="translate(-9.35 -280.31)"/><path class="cn" d="M129.12,351.62a32.09,32.09,0,0,1,6.72,1.18h0A8.4,8.4,0,0,0,139,353c2.35.72,4.81.55,7.2,1h0c-.84-.79-2-.62-3-1.1a35.89,35.89,0,0,0-10.45-3.17,48.55,48.55,0,0,0-9.65-.52,10.51,10.51,0,0,0,.43,2.42h0C125.38,351.62,127.25,351.54,129.12,351.62Z" transform="translate(-9.35 -280.31)"/><path class="co" d="M144.07,443.3a49.28,49.28,0,0,0,11.79-6.8,14,14,0,0,0,3.74-3.78l-2.88,1.2a26.07,26.07,0,0,1-4.32,1.92c-1.54,1.71-3.61,2.7-5.55,3.81a49.76,49.76,0,0,1-8.13,3.63c.43.74,1.45.53,1.92,1.2l.25.27h0c.45-.43.11-1.23.75-1.62.14.41.27.77.39,1.13C142.71,443.94,143.37,443.58,144.07,443.3Z" transform="translate(-9.35 -280.31)"/><path class="cp" d="M144.39,449a68.85,68.85,0,0,0,6.7-3.38,23.31,23.31,0,0,0,4.67-3.05c-.08-.49.24-.81.46-1.17a11.5,11.5,0,0,0,1.22-2.67,2.87,2.87,0,0,0-.54.2,96,96,0,0,1-8.61,5c-1.87,1.05-3.94,1.65-5.76,2.76a13.22,13.22,0,0,0,.72,3.4h0C143.34,449.43,143.91,449.21,144.39,449Z" transform="translate(-9.35 -280.31)"/><path class="cq" d="M97.77,420.71a39.68,39.68,0,0,1-7.18-11.29,3.57,3.57,0,0,1-.11-.47,11.94,11.94,0,0,0-2.43,1.13h0c.15.28.28.57.45.84,3.52,5.42,7.07,10.82,11.57,15.51l2.45-1.07h0C101.12,423.63,99.25,422.37,97.77,420.71Z" transform="translate(-9.35 -280.31)"/><path class="cr" d="M94.55,380.68a42.82,42.82,0,0,1,4-6,46.19,46.19,0,0,1,6.44-6.3c1.79-1.48,4-2.37,5.81-3.74,2.23-1.64,4.85-2.47,7.28-3.69,2.75-1.39,5.85-1.83,8.76-2.82.8-.26,1.76-.08,2.45-.4,2.08-.95,4.3-.53,6.42-.93a24.44,24.44,0,0,1,4.91.06,5.08,5.08,0,0,0-3.6-.66,19.9,19.9,0,0,1-2.44,0,18.54,18.54,0,0,0-5.54.77,1.26,1.26,0,0,1-.9-.15h-.24a6.68,6.68,0,0,1-2.79,1.09,36.3,36.3,0,0,0-3.77,1.27,20.48,20.48,0,0,1-3,.76c-3.59,1.11-6.69,3.14-9.82,5.13-.32.2-.62.36-1,.15a.45.45,0,0,0,0,.2,84.16,84.16,0,0,0-6.84,5.66,30.4,30.4,0,0,0-4.44,5.4c-1.08,1.57-2.07,3.21-3.1,4.81l.93.54h0A10.56,10.56,0,0,1,94.55,380.68Z" transform="translate(-9.35 -280.31)"/><path class="cs" d="M107.68,427.51a45.33,45.33,0,0,0,8.4,4.68c2.32,1,4.66,1.89,7,2.69,2.05.68,4.22,1,6.3,1.63a27,27,0,0,0,6.86.64,23.19,23.19,0,0,0,7.47-.83c.12-.48.68-.39.93-.69v0a11.57,11.57,0,0,0-3.93.3,2.62,2.62,0,0,1-2.27-.06,3.43,3.43,0,0,0-1.52.22c-.26.11-.6.29-.79.2-1.62-.75-3.4,0-5-.48-2.78-.81-5.82-.64-8.36-2.34-.5-.34-1.31-.18-1.92-.4a39.17,39.17,0,0,1-5.84-2.25,61.58,61.58,0,0,1-8.72-5.38,1.62,1.62,0,0,0-1.21-.36l-.36.42A17.21,17.21,0,0,1,107.68,427.51Z" transform="translate(-9.35 -280.31)"/><path class="l" d="M13,396.85a79.92,79.92,0,0,1,.7-12.17c.06-.47.22-1.05-.29-1.44-4.9,2.81-5.43,10.8-1,14.71C13.1,397.86,13,397.3,13,396.85Z" transform="translate(-9.35 -280.31)"/><path class="ct" d="M106.35,425.41a61.58,61.58,0,0,0,8.72,5.38,39.17,39.17,0,0,0,5.84,2.25c.61.22,1.42.06,1.92.4,2.54,1.7,5.58,1.53,8.36,2.34,1.58.46,3.36-.27,5,.48.19.09.53-.09.79-.2a3.43,3.43,0,0,1,1.52-.22c1.51-.45,3.09-.42,4.62-.72.3-.06.6-.16.9-.24l-.24-.24c-1.36,0-2.69.37-4,.38-1.61,0-3.27.32-4.85-.26-.78-.29-1.53,0-2.33,0a60.84,60.84,0,0,1-10.51-2.48,53.13,53.13,0,0,1-13.3-6.29c-1-.61-2-1.22-2.9-1.87l0,0-.64.75h0a.64.64,0,0,0,0,.2h0A1.62,1.62,0,0,1,106.35,425.41Z" transform="translate(-9.35 -280.31)"/><path class="cu" d="M112.32,431.52c1.71.73,3.56,1.19,5,2.4,1.69.33,3.16,1.27,4.82,1.69,2.79.71,5.45,1.77,8.39,2,2.08.16,4.15.32,6.23.39,1.1-.41,2.21.17,3.36-.15,1.35-.37,2.73-.64,4.08-1.05.54-.28,1.32,0,1.68-.72-.77-.35-1.41.46-2.16.24a23.19,23.19,0,0,1-7.47.83,27,27,0,0,1-6.86-.64c-2.08-.6-4.25-.95-6.3-1.63-2.39-.8-4.73-1.71-7-2.69a45.33,45.33,0,0,1-8.4-4.68,17.21,17.21,0,0,0-2.9-2l-.44.5A75.76,75.76,0,0,0,112.32,431.52Z" transform="translate(-9.35 -280.31)"/><path class="cv" d="M83,431.42c-2.73-2.12-4.7-4.91-6.87-7.54-.74-.89-1.07-2.13-2.22-2.68-1.32,5.93,3.82,11.9,9.81,11.26A1.39,1.39,0,0,0,83,431.42Z" transform="translate(-9.35 -280.31)"/><path class="ab" d="M92.28,334.24a71.56,71.56,0,0,1,10.91-2.7c.9-.13,1.92,0,2.64-.78a18.94,18.94,0,0,0-1.75-1.1,9.52,9.52,0,0,0-12.51,4.63h0A4.09,4.09,0,0,0,92.28,334.24Z" transform="translate(-9.35 -280.31)"/><path class="cw" d="M97.25,380.41a22.59,22.59,0,0,1,4.14-6.19,37.91,37.91,0,0,1,8-6.31,86.16,86.16,0,0,1,13.31-6.05,25.35,25.35,0,0,1,5.47-1.28c1.8-.21,3.59-.6,5.38-.9a26.49,26.49,0,0,1,4.71-.19c.88,0,1.78-.51,2.59-.16a4.41,4.41,0,0,0,2.32.2l0-.07a1.3,1.3,0,0,0-1.24-.64c-1.59.12-3.14-.32-4.72-.26-2.08.47-4.24.2-6.33.7-1.45.35-2.91.68-4.35,1.1-.85.25-1.74.35-2.61.55-3.46.8-6.51,2.54-9.7,4A36.63,36.63,0,0,0,105,370.5a1.54,1.54,0,0,1-1,.54,28.28,28.28,0,0,0-6.57,7.44,8.83,8.83,0,0,0-1.85,4.13h0l.74.42C96.09,382,96.85,381.24,97.25,380.41Z" transform="translate(-9.35 -280.31)"/><path class="cx" d="M100.79,375.59a36.13,36.13,0,0,1,3.88-3.95,24.65,24.65,0,0,1,4.17-2.86,10.64,10.64,0,0,1,2.52-1.34l1.44-.72a2.64,2.64,0,0,1,1.44-.72l1.2-.48a3.25,3.25,0,0,1,1.68-.72h.48c.18-.44.55-.5,1-.48h0c.24-.56.74-.48,1.2-.48h0c.54-1,1.52-.83,2.4-1a5.57,5.57,0,0,1,3.21-1.11c3.19-.53,6.33-1.33,9.58-1.59a27.44,27.44,0,0,1,4.5-.21,25.6,25.6,0,0,1,4.66.64,28.56,28.56,0,0,0,3.49.59l.24-.48a6.61,6.61,0,0,0-3.22-1c-.31,0-.62.13-.86-.18h-.55a4.41,4.41,0,0,1-2.32-.2c-.81-.35-1.71.18-2.59.16a26.49,26.49,0,0,0-4.71.19c-1.79.3-3.58.69-5.38.9a25.35,25.35,0,0,0-5.47,1.28,86.16,86.16,0,0,0-13.31,6.05,37.91,37.91,0,0,0-8,6.31,22.59,22.59,0,0,0-4.14,6.19c-.4.83-1.16,1.56-1,2.62a.25.25,0,0,0,.17.06A51,51,0,0,1,100.79,375.59Z" transform="translate(-9.35 -280.31)"/><path class="bc" d="M51.79,352.26c2.12-2.86,4.4-5.59,6.78-8.24.29-.31.78-.67-.09-.86a3.4,3.4,0,0,0-1.52.2c-4.77,1.26-8.06,6.53-6.82,10.88C51,353.81,51.28,353,51.79,352.26Z" transform="translate(-9.35 -280.31)"/><path class="cy" d="M114.59,360.31a4.76,4.76,0,0,1,1.81-.55c1.24-1.16,2.93-1.3,4.38-2a5.92,5.92,0,0,1,3.06-.68h0c.92-.95,2.19-1,3.36-1.23a41.16,41.16,0,0,1,7.81-1.1c1.07,0,2.15-.05,3.22-.07h0l-.95-.72a18.65,18.65,0,0,0-6.57.32,13.11,13.11,0,0,1-2.76.31,24.54,24.54,0,0,0-7.07,2,58.5,58.5,0,0,0-14.25,7.4l.57.78h0A49.94,49.94,0,0,1,114.59,360.31Z" transform="translate(-9.35 -280.31)"/><path class="cz" d="M174,365.52c1.12,1.33,2.62,2.3,3.62,3.74.18.25.3.59.7.58a1.78,1.78,0,0,0-.34-1.13c-2.78-4.49-5.26-9.19-8.89-13.12a8.32,8.32,0,0,1-2.08-2.87,7.93,7.93,0,0,0-1.5,1.72h0A58.2,58.2,0,0,1,174,365.52Z" transform="translate(-9.35 -280.31)"/><path class="da" d="M137.31,364.42a39.23,39.23,0,0,0-12,1.7c-2,.59-4.08.9-6.06,1.56a18.61,18.61,0,0,0-2.75,1.06,2.91,2.91,0,0,1-1.58.38,5.18,5.18,0,0,0-1.92,1,.81.81,0,0,1-.4.68,39.1,39.1,0,0,0-9.33,9.09c-1.47,2-3,4-3.47,6.55.48-.41.53-1.19,1.2-1.44a1.59,1.59,0,0,1,.26-.89c.76-1.35,1.67-2.6,2.56-3.87a36.84,36.84,0,0,1,8.13-8.12c1.11-.83,2.14-1.93,3.69-2,1.81-1.27,4-1.74,6-2.49a48.39,48.39,0,0,1,7.89-1.77c1.14-.22,2.39-1.06,3.66-.26h0c2.21-.45,4.46-.74,6.7-1C139.1,363.9,138.16,364.44,137.31,364.42Z" transform="translate(-9.35 -280.31)"/><path class="db" d="M120.88,356.66a24.54,24.54,0,0,1,7.07-2,13.11,13.11,0,0,0,2.76-.31,18.65,18.65,0,0,1,6.57-.32c.72-.35,1.43.17,2.15,0h0c-.25-.26-.57-.5-.47-.95a8.4,8.4,0,0,1-3.12-.24h0c-1.58.65-3.27.11-4.9.44-2.58.54-5.18.94-7.73,1.62a37.38,37.38,0,0,0-6.74,2.75,57.91,57.91,0,0,0-9.15,5c-.37.27-.64.74-1.18.76l.49.7A58.5,58.5,0,0,1,120.88,356.66Z" transform="translate(-9.35 -280.31)"/><path class="dc" d="M93.39,404.08c-.16-.73-.09-1.53-.32-2.24-1-3-.49-6.1-.38-9.11.09-2.62.26-5.39,1.73-7.79a2.49,2.49,0,0,0,.14-.93l-1.44,0a40.72,40.72,0,0,0-1.89,13.68c.16,2.35.61,4.67.93,7h.65C93.16,404.63,93.53,404.69,93.39,404.08Z" transform="translate(-9.35 -280.31)"/><path class="dd" d="M173.66,421.81a10.81,10.81,0,0,1-2.67,2.51,12.38,12.38,0,0,0-2.66,2.18c-.28.31-.54.7-1.05.7a6.71,6.71,0,0,0-1.68,1.68h0a.83.83,0,0,1,1.2.48h0c1.56-.25,2.83-1.25,4.32-1.68a33.86,33.86,0,0,0,4.61-5.32c.07-.11.27-.13.41-.2h0a3.76,3.76,0,0,0-1-1.44A3.2,3.2,0,0,0,173.66,421.81Z" transform="translate(-9.35 -280.31)"/><path class="de" d="M74,487.35a82.1,82.1,0,0,1-9.84-4.92c-.25-.14-.56-.4-.81,0a1.65,1.65,0,0,0,.23.78,9.58,9.58,0,0,0,11.32,4.86A1.81,1.81,0,0,0,74,487.35Z" transform="translate(-9.35 -280.31)"/><path class="da" d="M131.07,426.38a82,82,0,0,1-12.72-3.14,7.36,7.36,0,0,1-.75-.36l-.24-.24a8.7,8.7,0,0,1-4.13-1.93,32.71,32.71,0,0,1-6.67-5.75l-.24-.24c-.65-.56-1.43-1-1.68-1.92a20.55,20.55,0,0,1-3.83-5.66c-.17-.34-.52-.62-.49-1.06l-.48-.48c.27-.89-.64-1.54-.48-2.4h0c-.35-.93-1-1.79-.72-2.88v-.24c-.4-.2,0-1-.72-1a16,16,0,0,0,1.92,6.48,1.86,1.86,0,0,0,.22.92,36.66,36.66,0,0,0,6.59,9.42,30.94,30.94,0,0,0,14.15,8.66c2.13.66,4.34.94,6.47,1.57,4.11,1.21,8.32,1.12,12.53,1.24a1.11,1.11,0,0,0,.83-.42,42.15,42.15,0,0,1-5.27-.5A8.41,8.41,0,0,1,131.07,426.38Z" transform="translate(-9.35 -280.31)"/><path class="df" d="M130.26,473.1a83.85,83.85,0,0,1-8.79,1.44c-.8.08-1.76-.14-2.48.52,2.82,2.27,9.23,2.65,12.52-1.81A1.28,1.28,0,0,0,130.26,473.1Z" transform="translate(-9.35 -280.31)"/><path class="dg" d="M91.23,397.66A40.72,40.72,0,0,1,93.12,384l-2.64-.18.23.22h.72c1.09-.12.58.66.46,1a31.51,31.51,0,0,0-1.49,6.46,25.15,25.15,0,0,0,.44,10.81,18.09,18.09,0,0,1,.36,2.34l1,0h0C91.84,402.33,91.39,400,91.23,397.66Z" transform="translate(-9.35 -280.31)"/><path class="dh" d="M173.28,367.92a11.1,11.1,0,0,1-4.3-1.67h0c1.48,2.44,3.64,4.38,5.06,6.86a6.83,6.83,0,0,1,.95,2.05,6.1,6.1,0,0,0,1.94-2.1A19,19,0,0,0,173.28,367.92Z" transform="translate(-9.35 -280.31)"/><path class="di" d="M116.28,415.91a14.07,14.07,0,0,0-1.37-1,24.22,24.22,0,0,1-8.38-7.07,19.34,19.34,0,0,1-3.85-8.05,19.89,19.89,0,0,1-.24-6.26,20.24,20.24,0,0,1,3.2-8.35c.75-1.16,2-2,2.36-3.38a4.08,4.08,0,0,0-1.46,1.19,36.84,36.84,0,0,0-2.63,4.23,9.58,9.58,0,0,0-1.51,3.58c-.18,1.07-.34,2.18-.5,3.25a17.55,17.55,0,0,0,.67,7.26,19.75,19.75,0,0,0,2.75,5.79,26.59,26.59,0,0,0,3.54,4.11,37.26,37.26,0,0,0,5.37,3.95c1.41.94,2.8,2.1,4.59,2.39h0l-1.26-1.41h0C117,416.52,116.67,416.19,116.28,415.91Z" transform="translate(-9.35 -280.31)"/><path class="dj" d="M178.32,369.84c-.4,0-.52-.33-.7-.58-1-1.44-2.5-2.41-3.62-3.74-1.22-.36-2-1.56-3.36-1.68h0l2.64,4.08a19,19,0,0,1,3.64,5.15,13.22,13.22,0,0,0,2.08-2.52A1.61,1.61,0,0,1,178.32,369.84Z" transform="translate(-9.35 -280.31)"/><path class="dk" d="M164.35,419.32c-2.31,2.2-4.47,4.64-7.63,5.72-1.24.53-2.05,1.73-3.36,2.16-.67.59-1.53,1-1.9,1.88v0c2.24-1,4.48-2,6.73-3a3.13,3.13,0,0,1,.69-.14c1.34-1.32,2.79-2.55,4-4s2.55-2.43,3.42-4a38.53,38.53,0,0,0,2.19-3.53c0-.13-.12-.21-.26-.15h0A32.69,32.69,0,0,1,164.35,419.32Z" transform="translate(-9.35 -280.31)"/><path class="dl" d="M156,423.5a17,17,0,0,1-4.58,3.22c-.14.62.8.16.72.72.46.21.75-.43,1.2-.24,1.31-.43,2.12-1.63,3.36-2.16a4.14,4.14,0,0,1,.65-.67,27.54,27.54,0,0,0,6.57-6.4,3.57,3.57,0,0,0,.69-1.6h0a46.81,46.81,0,0,1-8.15,6.5h0C156.49,423.2,156.22,423.31,156,423.5Z" transform="translate(-9.35 -280.31)"/><path class="dm" d="M168.71,372.77a38.71,38.71,0,0,0-6.46-6.52h0c0,.59.58,1,.48,1.67.84,1.31,2.38,2,3.13,3.28,1.19,2,3,3.52,3.86,5.77.28.78,1.13,1.36,1.72,2h0a1.44,1.44,0,0,0,1.07-.78C171.27,376.38,170,374.58,168.71,372.77Z" transform="translate(-9.35 -280.31)"/><path class="dn" d="M167.76,376c-.17-.61-.71-.95-1-1.43a18.57,18.57,0,0,0-4.32-4.86,7.72,7.72,0,0,1-1.59-1.74c-1.1-.11-1.7-1.17-2.73-1.43-.14,0-.25-.18-.39,0,.22.55.95.76,1,1.44a14.63,14.63,0,0,1,3.91,3.51,25.4,25.4,0,0,1,4.71,6.85h0a3.78,3.78,0,0,0,2.41,1.08A13.15,13.15,0,0,1,167.76,376Z" transform="translate(-9.35 -280.31)"/><path class="do" d="M169.71,377c-.82-2.25-2.67-3.78-3.86-5.77-.75-1.26-2.29-2-3.13-3.28-1-.09-1.49-1.38-2.62-1.2v0l.71,1.18a7.72,7.72,0,0,0,1.59,1.74,18.57,18.57,0,0,1,4.32,4.86c.34.48.88.82,1,1.43a13.15,13.15,0,0,0,1.91,3.41,2.29,2.29,0,0,0,1.76-.36h0C170.84,378.33,170,377.75,169.71,377Z" transform="translate(-9.35 -280.31)"/><polygon class="dp" points="150.01 82.57 150.01 82.57 150.01 82.57 150.01 82.57"/><path class="dp" d="M171.91,375.39c-.89-1.7-2.35-2.94-3.36-4.55-.59-.93-1.7-1.53-2.39-2.43-1.42-1.83-3.48-2.89-5.13-4.43a11.21,11.21,0,0,0-1.67-1.1c-.56.09-.81-.78-1.44-.48a15,15,0,0,0,2.64,2.4l1.68,1.44h0a38.71,38.71,0,0,1,6.46,6.52c1.26,1.81,2.56,3.61,3.79,5.45.33-.31.79-.47.95-1h0A4.64,4.64,0,0,1,171.91,375.39Z" transform="translate(-9.35 -280.31)"/><path class="dq" d="M96.47,404.86h0c0-.24-.06-.48-.11-.7a31.59,31.59,0,0,1-1.28-7.49,28.49,28.49,0,0,1,2.24-11.48c.16-.39.39-.81-.11-1.15h-.5a30.63,30.63,0,0,0-1.19,20.84l.68,0h0Z" transform="translate(-9.35 -280.31)"/><path class="dr" d="M93.7,400.46a36.15,36.15,0,0,1-.2-6.58c.09-1,.22-1.93.29-2.89a31.13,31.13,0,0,1,1.52-5.82,3.89,3.89,0,0,0,.21-1.16h-1a2.49,2.49,0,0,1-.14.93c-1.47,2.4-1.64,5.17-1.73,7.79-.11,3-.58,6.11.38,9.11.23.71.16,1.51.32,2.24s-.23.55-.58.59a3.71,3.71,0,0,0,1.75.17C94.64,403.31,93.84,402,93.7,400.46Z" transform="translate(-9.35 -280.31)"/><path class="ds" d="M168.3,422.45c-1.22.95-2.05,2.3-3.42,3.07a24.56,24.56,0,0,1-6.06,4.55c-.56.28-1.08.64-1.62,1,.3.73.71.2,1,0a2.41,2.41,0,0,1,1.4-.52h0c1.27,0,2.05-1.08,2.85-1.72,1.38-1.1,2.85-2.09,4.17-3.26a27.09,27.09,0,0,0,5.9-6.94c.17-.3.34-.54.71-.55l-.49-.71C171.17,419,170.1,421.05,168.3,422.45Z" transform="translate(-9.35 -280.31)"/><path class="dt" d="M102.75,374.81a10.43,10.43,0,0,1,2.31-2.38c1.79-1.25,3.56-2.53,5.34-3.79.14-.54.91-.59,1-1.2a10.64,10.64,0,0,0-2.52,1.34,24.65,24.65,0,0,0-4.17,2.86,36.13,36.13,0,0,0-3.88,3.95,51,51,0,0,0-4.38,7.5l.78.44A59.33,59.33,0,0,1,102.75,374.81Z" transform="translate(-9.35 -280.31)"/><path class="du" d="M172.52,418.64a27.09,27.09,0,0,1-5.9,6.94c-1.32,1.17-2.79,2.16-4.17,3.26-.8.64-1.58,1.7-2.85,1.72h0c-.89,1.12-2.25,1.58-3.36,2.4l1.2-.24a48.29,48.29,0,0,0,8.19-5.09,23.25,23.25,0,0,1,3.57-2.83,1.12,1.12,0,0,1,.72-1c1-1.89,2.67-3.27,3.83-5l-.52-.71C172.86,418.1,172.69,418.34,172.52,418.64Z" transform="translate(-9.35 -280.31)"/><path class="dv" d="M96.71,384h0l-1.19,0a3.89,3.89,0,0,1-.21,1.16A31.13,31.13,0,0,0,93.79,391c-.07,1-.2,1.93-.29,2.89a36.15,36.15,0,0,0,.2,6.58c.14,1.51.94,2.85.86,4.38l1,0A30.63,30.63,0,0,1,96.71,384Z" transform="translate(-9.35 -280.31)"/><path class="dw" d="M89.54,398.76a44.37,44.37,0,0,1,.71-10.91c.27-1.31,1-2.48,1.18-3.82h-.72a31.6,31.6,0,0,0-2,8.34,35.38,35.38,0,0,0,0,6.26,20.15,20.15,0,0,0,.8,4.94c.25.64,0,1-.72.8h0l-.27.07.2.06a5.55,5.55,0,0,0,1.77.11A33.19,33.19,0,0,1,89.54,398.76Z" transform="translate(-9.35 -280.31)"/><path class="dx" d="M144.08,364.31a21.33,21.33,0,0,0-6.13-.52,41,41,0,0,0-7.1.43,78,78,0,0,0-12.19,3.18,11.16,11.16,0,0,0-3.7,1.72,2.91,2.91,0,0,0,1.58-.38,18.61,18.61,0,0,1,2.75-1.06c2-.66,4.07-1,6.06-1.56a39.23,39.23,0,0,1,12-1.7c.85,0,1.79-.52,2.61.15a46,46,0,0,1,6.94.54h0C146.17,364.08,145,364.59,144.08,364.31Z" transform="translate(-9.35 -280.31)"/><path class="dy" d="M162.55,371.43a14.63,14.63,0,0,0-3.91-3.51,50.54,50.54,0,0,1-4.63-2.38,1.87,1.87,0,0,0-.88-.26h0c.27.53.81.67,1.27,1a18,18,0,0,1,4.22,3.66h0a36.27,36.27,0,0,1,6.72,6.26,7.69,7.69,0,0,0,1.92,2.1h0A25.4,25.4,0,0,0,162.55,371.43Z" transform="translate(-9.35 -280.31)"/><path class="dz" d="M100.43,421.08a33.47,33.47,0,0,1-4.79-5.57,35.32,35.32,0,0,1-3.8-6.82c0-.11-.27-.14-.4-.21l-.48.24a40.4,40.4,0,0,0,9.92,14.11c.82.76,1.7,1.45,2.55,2.17l.78-.34h0C103.05,423.36,101.7,422.26,100.43,421.08Z" transform="translate(-9.35 -280.31)"/><path class="ea" d="M168.63,369.39c-.75-.75-1.54-1.46-2.31-2.19a26.35,26.35,0,0,1-3.14-2.3,7.68,7.68,0,0,0-3.82-2h0A11.21,11.21,0,0,1,161,364c1.65,1.54,3.71,2.6,5.13,4.43.69.9,1.8,1.5,2.39,2.43,1,1.61,2.47,2.85,3.36,4.55a4.64,4.64,0,0,0,1.54,1.88h0l.56-.71C172.14,374.23,170.76,371.53,168.63,369.39Z" transform="translate(-9.35 -280.31)"/><path class="eb" d="M166.3,418c-.87,1.61-2.29,2.69-3.42,4s-2.66,2.65-4,4v.24a20.09,20.09,0,0,0,3.84-2.4,28.66,28.66,0,0,0,3.87-4.3c1.19-1.55,2.64-3,3.34-4.85-.42-.42-1-.15-1.44-.23A38.53,38.53,0,0,1,166.3,418Z" transform="translate(-9.35 -280.31)"/><path class="ec" d="M168.9,418.65c-1.35,1.6-2.36,3.54-4.28,4.62-.42.24-.45.85-.94,1.05a20,20,0,0,1-4.58,3.49c-.27.15-.57.26-.7.59v.48c2.07-.66,3.56-2.32,5.47-3.26.58-.28.75-1.14,1.49-1.3,1.88-2.23,3.87-4.35,5.64-6.68.32-.42.36-1.1,1-1.23a1.41,1.41,0,0,0-.63-.75C170.5,416.61,169.74,417.67,168.9,418.65Z" transform="translate(-9.35 -280.31)"/><path class="ed" d="M172.36,372.33A57.65,57.65,0,0,0,168,367.2a4.62,4.62,0,0,0-1.7-1.44A18,18,0,0,0,163,363.6l3.36,3.6c.77.73,1.56,1.44,2.31,2.19,2.13,2.14,3.51,4.84,5.38,7.17a1.12,1.12,0,0,0,.5-.61A13.54,13.54,0,0,0,172.36,372.33Z" transform="translate(-9.35 -280.31)"/><path class="ee" d="M96.23,376.54a30.4,30.4,0,0,1,4.44-5.4,84.16,84.16,0,0,1,6.84-5.66l-.91-.29h0c-.44.93-1.41,1.26-2.17,1.79a38.26,38.26,0,0,0-10,10.72c-.7,1.09-1.09,2.37-2.14,3.23h0l.8.42C94.16,379.75,95.15,378.11,96.23,376.54Z" transform="translate(-9.35 -280.31)"/><path class="ef" d="M174,373.12c-1.42-2.48-3.58-4.42-5.06-6.86v0c-1-.12-1.05-1.38-1.92-1.68a10.56,10.56,0,0,1-3.1-1.84,7.6,7.6,0,0,0-1.7-1c.45,1.11,1.66,1.37,2.41,2.15.6.62,1.42,1,1.67,1.93a4.62,4.62,0,0,1,1.7,1.44,57.65,57.65,0,0,1,4.34,5.13,13.54,13.54,0,0,1,2.15,3.62c.26-.2.52-.39.47-.78A6.83,6.83,0,0,0,174,373.12Z" transform="translate(-9.35 -280.31)"/><path class="eg" d="M92.94,409.26a31,31,0,0,0,5.29,8.52,35.59,35.59,0,0,0,6.89,6.48h0l.69-.16h0l0,0c-.26-.55-1-.6-1.21-1.2-.82-.18-1.21-.86-1.68-1.44a30.46,30.46,0,0,1-8.9-11.69c-.28-.7-.86-1.26-1-2h0a2,2,0,0,0-1,.48A1.69,1.69,0,0,1,92.94,409.26Z" transform="translate(-9.35 -280.31)"/><path class="eh" d="M97.54,410a29.72,29.72,0,0,0,5.55,8.24,20.52,20.52,0,0,0,6.11,4.61h.72a27.94,27.94,0,0,1-6.73-5.63A35.19,35.19,0,0,1,97.85,409c-.4-1-1.22-1.78-1.14-2.93-.26,0-.54,0-.71.27A12.41,12.41,0,0,0,97.54,410Z" transform="translate(-9.35 -280.31)"/><path class="ei" d="M93.57,378a39,39,0,0,1,5.51-7.11c2.12-2.14,4.52-4,6.57-6.2h0l-.77-.37h0c-1.68,1.63-3.27,3.35-5,4.87a34.48,34.48,0,0,0-5.55,6.46,52.58,52.58,0,0,0-2.87,4.78l.45.23A9.65,9.65,0,0,0,93.57,378Z" transform="translate(-9.35 -280.31)"/><path class="ej" d="M163.94,418a27.54,27.54,0,0,1-6.57,6.4,4.14,4.14,0,0,0-.65.67c3.16-1.08,5.32-3.52,7.63-5.72a32.69,32.69,0,0,0,3.88-5h0a4.92,4.92,0,0,0-3.6,2.06h0A3.57,3.57,0,0,1,163.94,418Z" transform="translate(-9.35 -280.31)"/><path class="ek" d="M105.12,424.26h0a35.59,35.59,0,0,1-6.89-6.48,31,31,0,0,1-5.29-8.52,1.69,1.69,0,0,0-.86-1.07.82.82,0,0,0-.64.29c.13.07.35.1.4.21a35.32,35.32,0,0,0,3.8,6.82,33.47,33.47,0,0,0,4.79,5.57c1.27,1.18,2.62,2.28,3.78,3.58h0l.66-.3Z" transform="translate(-9.35 -280.31)"/><path class="ek" d="M90.84,402.29a25.15,25.15,0,0,1-.44-10.81A31.51,31.51,0,0,1,91.89,385c.12-.33.63-1.11-.46-1h0c-.18,1.34-.91,2.51-1.18,3.82a44.37,44.37,0,0,0-.71,10.91,33.19,33.19,0,0,0,.93,5.84l.73,0A18.09,18.09,0,0,0,90.84,402.29Z" transform="translate(-9.35 -280.31)"/><path class="el" d="M166.59,419.54a28.66,28.66,0,0,1-3.87,4.3l1,.48c.49-.2.52-.81.94-1.05,1.92-1.08,2.93-3,4.28-4.62.84-1,1.6-2,2.49-3a2.81,2.81,0,0,0-1.46-1C169.23,416.59,167.78,418,166.59,419.54Z" transform="translate(-9.35 -280.31)"/><path class="em" d="M100.88,422.83A40.4,40.4,0,0,1,91,408.72l-.48.23a3.57,3.57,0,0,0,.11.47,39.68,39.68,0,0,0,7.18,11.29c1.48,1.66,3.35,2.92,4.75,4.65h0l.91-.36C102.58,424.28,101.7,423.59,100.88,422.83Z" transform="translate(-9.35 -280.31)"/><path class="ee" d="M108.5,365.13c3.13-2,6.23-4,9.82-5.13.44-.74,1.26-.77,2-1,2.1-.65,4.1-1.59,6.26-2.05a2.74,2.74,0,0,1,1.39-.08h.24c1.11-1.11,2.6-.69,3.92-1,.37-.07.81.13,1.12-.24a17.1,17.1,0,0,0-6.59.79,10.16,10.16,0,0,1-2.77.65h0a16.44,16.44,0,0,1-4.41,1.65c-1.08.17-1.9,1-3,1a7,7,0,0,1-2.65,1.51c-2.3,1-4.15,2.73-6.41,3.77l.17.24C107.88,365.49,108.18,365.33,108.5,365.13Z" transform="translate(-9.35 -280.31)"/><path class="en" d="M88.61,388.29c-.45,3.61-1.16,7.23-.53,10.9.3,1.71.26,3.47.69,5.17h0c.74.19,1-.16.72-.8a20.15,20.15,0,0,1-.8-4.94,35.38,35.38,0,0,1,0-6.26,31.6,31.6,0,0,1,2-8.34h0l-.23-.22H90A25.77,25.77,0,0,0,88.61,388.29Z" transform="translate(-9.35 -280.31)"/><path class="cy" d="M94.47,377.7a38.26,38.26,0,0,1,10-10.72c.76-.53,1.73-.86,2.17-1.79h0l-.95-.49h0c-2.05,2.22-4.45,4.06-6.57,6.2A39,39,0,0,0,93.57,378a9.65,9.65,0,0,1-1.7,2.66l.46.26h0C93.38,380.07,93.77,378.79,94.47,377.7Z" transform="translate(-9.35 -280.31)"/><path class="eo" d="M154.4,366.25c-.46-.29-1-.43-1.27-1h0c-1.59-.66-3-1.83-4.8-1.92h0l-1.66-.24c.74.83,2.06.86,2.64,1.92.71.42,1.79.21,2.15,1.24h0a48.44,48.44,0,0,1,7.19,3.63h0A18,18,0,0,0,154.4,366.25Z" transform="translate(-9.35 -280.31)"/><path class="ep" d="M97.35,378.48a28.28,28.28,0,0,1,6.57-7.44c.61-1.24,1.89-1.74,2.9-2.51,1.22-.91,2.54-1.69,3.82-2.53a1.54,1.54,0,0,0-.58.08,33.4,33.4,0,0,0-7,4.78c-1.07,1-2,2.13-3,3.17a33.14,33.14,0,0,0-5.48,8.07,1.78,1.78,0,0,0,1,.51h0A8.83,8.83,0,0,1,97.35,378.48Z" transform="translate(-9.35 -280.31)"/><path class="dv" d="M97.73,411.61c1.16,1.78,2,3.72,3.42,5.37a36.71,36.71,0,0,0,7.95,6.52c.83.54,1.57,1.43,2.74,1.3-.83-.71-1.92-1.06-2.64-1.92a20.52,20.52,0,0,1-6.11-4.61A29.72,29.72,0,0,1,97.54,410,12.41,12.41,0,0,1,96,406.31c-.19,0-.39,0-.49.21h0A18.35,18.35,0,0,0,97.73,411.61Z" transform="translate(-9.35 -280.31)"/><path class="eq" d="M169.92,423.84a1.12,1.12,0,0,1-.72,1c-.27,1.09-1.44,1.47-1.92,2.4.51,0,.77-.39,1.05-.7a12.38,12.38,0,0,1,2.66-2.18,10.81,10.81,0,0,0,2.67-2.51,3.2,3.2,0,0,1,1.49-1.09h0a8.22,8.22,0,0,0-1.4-1.92C172.59,420.57,170.92,422,169.92,423.84Z" transform="translate(-9.35 -280.31)"/><path class="er" d="M171,417.64c-1.77,2.33-3.76,4.45-5.64,6.68l-.48,1.2c1.37-.77,2.2-2.12,3.42-3.07,1.8-1.4,2.87-3.46,4.44-5.07h0l-.72-1C171.36,416.54,171.32,417.22,171,417.64Z" transform="translate(-9.35 -280.31)"/><path class="es" d="M94.06,409.75a30.46,30.46,0,0,0,8.9,11.69h.48c-1.08-1.57-2.64-2.7-3.87-4.15a45.39,45.39,0,0,1-3.66-5.08c-1-1.5-1.35-3.27-2.36-4.73h0l-.44.23h0C93.2,408.49,93.78,409.05,94.06,409.75Z" transform="translate(-9.35 -280.31)"/><path class="et" d="M131,425.69c-3.94-.75-7.92-1.31-11.67-2.83a1.48,1.48,0,0,0-1.68,0,7.36,7.36,0,0,0,.75.36,82,82,0,0,0,12.72,3.14,8.41,8.41,0,0,0,4.29.11l-3.1-.74h0A8.1,8.1,0,0,1,131,425.69Z" transform="translate(-9.35 -280.31)"/><path class="eu" d="M129.56,365.82a48.39,48.39,0,0,0-7.89,1.77c-2,.75-4.18,1.22-6,2.49-1.55.07-2.58,1.17-3.69,2a36.84,36.84,0,0,0-8.13,8.12c-.89,1.27-1.8,2.52-2.56,3.87a1.59,1.59,0,0,0-.26.89,17.28,17.28,0,0,1-1.68,3.84c0,.52.19,1.13-.48,1.44v.48c.09,1.82-.57,3.56-.52,5.39,0,1.33.51,2.63.28,4v.24c.24,1,1.07,1.77.72,2.88h0a3.27,3.27,0,0,1,1,2.4c.8.28.82,1.14,1.18,1.71,1.37,2.21,2.85,4.33,4.34,6.45.14.33.51.54.48,1l.24.24c1.33.05,2,1.16,2.73,1.94,1.69,1.72,3.84,2.8,5.68,4.32.68.57,1.76.65,2.39,1.42l.24.24a1.48,1.48,0,0,1,1.68,0c3.75,1.52,7.73,2.08,11.67,2.83a8.1,8.1,0,0,0,1.31.06h0l-3.36-1.22h0a11.14,11.14,0,0,1-3.09-.43c-3.81-.87-7.59-1.65-11-3.92a52,52,0,0,1-7.21-5.77A27.52,27.52,0,0,1,100,402.3a24.86,24.86,0,0,1-1.11-6.71,25.89,25.89,0,0,1,.63-4.18,21.17,21.17,0,0,1,3-7.5,37.74,37.74,0,0,1,9.75-10.48,21.42,21.42,0,0,1,3.83-2.73,41.19,41.19,0,0,1,6.35-2.23,15.81,15.81,0,0,1,5.54-1,6.63,6.63,0,0,0,1.89-.78h0l3.38-1.15h0C132,364.76,130.7,365.6,129.56,365.82Z" transform="translate(-9.35 -280.31)"/><path class="ev" d="M104.68,427.11a22.67,22.67,0,0,0,3.9,2.92c1.53.87,2.9,2.09,4.7,2.45h0c-.29-.35-.79-.49-1-1a75.76,75.76,0,0,1-8-5.55,1.64,1.64,0,0,0-.62.76A1.15,1.15,0,0,1,104.68,427.11Z" transform="translate(-9.35 -280.31)"/><path class="bp" d="M142.78,347.71c-2.61-.72-5.24-1.35-7.9-1.87a2.69,2.69,0,0,0,1.34.71,18.79,18.79,0,0,1,4.67,1.64,8.8,8.8,0,0,0,3.34,1.25,5.29,5.29,0,0,0-.45-2h0C143.63,348.32,143.09,347.79,142.78,347.71Z" transform="translate(-9.35 -280.31)"/><path class="ew" d="M113.75,361.27a7,7,0,0,0,2.65-1.51,4.76,4.76,0,0,0-1.81.55,49.94,49.94,0,0,0-7.39,4.53h0c0,.06.09.13.14.2C109.6,364,111.45,362.26,113.75,361.27Z" transform="translate(-9.35 -280.31)"/><path class="di" d="M113,377.76a8,8,0,0,0,2.86-1.55c.38-.3.71-.65,1.25-.36a5.77,5.77,0,0,0,1.38-1.45h0A13,13,0,0,0,113,377.76Z" transform="translate(-9.35 -280.31)"/><path class="ba" d="M36.39,401.55a3,3,0,0,0,1.52.17C37.44,401.35,36.9,401.58,36.39,401.55Z" transform="translate(-9.35 -280.31)"/><path class="ah" d="M49.58,402.27c.4.31.86.14,1.29.17C50.48,402.09,50,402.28,49.58,402.27Z" transform="translate(-9.35 -280.31)"/><path class="bh" d="M53.9,402.51c.4.31.86.14,1.29.17h0C54.8,402.33,54.34,402.52,53.9,402.51Z" transform="translate(-9.35 -280.31)"/><path class="ex" d="M144.24,436.8c-1.35.41-2.73.68-4.08,1.05-1.15.32-2.26-.26-3.36.15-.83.44-1.79.18-2.64.48v.24c1.35.28,2.73-.17,4.07.24h0a29.71,29.71,0,0,0,6.21-1.09c.65-.2,1.38.17,2-.35C145.6,437.51,144.79,437.54,144.24,436.8Z" transform="translate(-9.35 -280.31)"/><path class="ev" d="M126.81,437.46a54.44,54.44,0,0,1-9.15-3.18c-.13,0-.2-.24-.3-.36-.7.1-1.22-.58-1.92-.48a4.65,4.65,0,0,0-2.16-1h0a2.83,2.83,0,0,0,2.16,1,25.68,25.68,0,0,0,5.07,2.63c2.22.84,4.57,1.23,6.81,2a3.79,3.79,0,0,0,2.76.15C129.15,437.36,127.89,437.67,126.81,437.46Z" transform="translate(-9.35 -280.31)"/><path class="ev" d="M130.08,438.24a12.79,12.79,0,0,0,4.08.48v-.24A15.51,15.51,0,0,0,130.08,438.24Z" transform="translate(-9.35 -280.31)"/><path class="ey" d="M165.84,363.35c.39.41,1,.58,1.2,1.21.87.3.9,1.56,1.92,1.68h0a11.1,11.1,0,0,0,4.3,1.67l-2.64-4.08h0a10.11,10.11,0,0,1-2.68-1.66c-1.14-.78-2.64-.82-3.56-1.94-.6,0-1.05.58-1.68.48C163.55,361.85,164.89,362.36,165.84,363.35Z" transform="translate(-9.35 -280.31)"/><path class="ez" d="M167.28,427.2c.48-.93,1.65-1.31,1.92-2.4a23.25,23.25,0,0,0-3.57,2.83,48.29,48.29,0,0,1-8.19,5.09c.1.6-.95.52-.72,1.2l2.88-1.2c1.43-.88,2.85-1.78,4.3-2.61.62-.36.9-1.16,1.7-1.23h0A6.71,6.71,0,0,1,167.28,427.2Z" transform="translate(-9.35 -280.31)"/><path class="et" d="M113.23,420.71a8.7,8.7,0,0,0,4.13,1.93c-.63-.77-1.71-.85-2.39-1.42-1.84-1.52-4-2.6-5.68-4.32-.77-.78-1.4-1.89-2.73-1.94A32.71,32.71,0,0,0,113.23,420.71Z" transform="translate(-9.35 -280.31)"/><path class="et" d="M100.32,406.08c0,.44.32.72.49,1.06a20.55,20.55,0,0,0,3.83,5.66l1.2,1c-1.49-2.12-3-4.24-4.34-6.45-.36-.57-.38-1.43-1.18-1.71Z" transform="translate(-9.35 -280.31)"/><path class="fa" d="M98.4,391.8c0,.44,0,.87-.48,1.08v.24c.35.29.18.63.12,1a11.54,11.54,0,0,0,0,3.8c.06.35.23.69-.12,1v.24c.68,0,.32.76.72,1,.23-1.34-.24-2.64-.28-4,0-1.83.61-3.57.52-5.39C98.39,390.93,98.39,391.36,98.4,391.8Z" transform="translate(-9.35 -280.31)"/><path class="da" d="M99.36,387.6a11.79,11.79,0,0,0-1.44,5.28c.49-.21.49-.64.48-1.08s0-.87.48-1.08v-.48a1.59,1.59,0,0,1,.48-1.44Z" transform="translate(-9.35 -280.31)"/><path class="fa" d="M99.36,387.36v1.44A17.28,17.28,0,0,0,101,385c-.67.25-.72,1-1.2,1.44C99.86,386.81,99.8,387.18,99.36,387.36Z" transform="translate(-9.35 -280.31)"/><path class="fa" d="M99.36,403.2c.35-1.11-.48-1.92-.72-2.88C98.35,401.41,99,402.27,99.36,403.2Z" transform="translate(-9.35 -280.31)"/><path class="fa" d="M99.84,405.6l.48.48v-.48a3.27,3.27,0,0,0-1-2.4C99.2,404.06,100.11,404.71,99.84,405.6Z" transform="translate(-9.35 -280.31)"/><path class="fa" d="M104.64,412.8c.25.91,1,1.36,1.68,1.92,0-.42-.34-.63-.48-1Z" transform="translate(-9.35 -280.31)"/><path class="fa" d="M98.88,390.24c.67-.31.43-.92.48-1.44A1.59,1.59,0,0,0,98.88,390.24Z" transform="translate(-9.35 -280.31)"/><path class="fb" d="M154.56,357.6a65.6,65.6,0,0,1,7.68,4.08,7.6,7.6,0,0,1,1.7,1,10.56,10.56,0,0,0,3.1,1.84c-.17-.63-.81-.8-1.2-1.21-1-1-2.29-1.5-3.12-2.63-2.38-1.23-4.55-2.9-7.2-3.6h0c-.88,0-1.39-1.2-2.4-.72C153.66,356.73,154.35,356.87,154.56,357.6Z" transform="translate(-9.35 -280.31)"/><path class="fc" d="M146.64,433.44c-.3-.41-.63-.16-.93,0s-.59.15-.75-.23a38.73,38.73,0,0,1-6.24,1,.49.49,0,0,1-.35.11,8.34,8.34,0,0,1-3.12.26,38.76,38.76,0,0,1-6.28-.88,72.46,72.46,0,0,1-11.68-3.55c-.38-.15-.63-.32-.65-.74-1.23.06-2.17-.7-3.18-1.21a11.19,11.19,0,0,1-3.78-2.39l-.72-.24c-.83-.09-1.32-.74-1.92-1.2h0c-.89-.23-1.35-1.1-2.16-1.44h-.24c.2.6,1,.65,1.21,1.2,1,.65,1.92,1.26,2.9,1.87a53.13,53.13,0,0,0,13.3,6.29,60.84,60.84,0,0,0,10.51,2.48c.8.08,1.55-.25,2.33,0,1.58.58,3.24.27,4.85.26,1.33,0,2.66-.39,4-.38A18.62,18.62,0,0,0,146.64,433.44Z" transform="translate(-9.35 -280.31)"/><path class="fd" d="M152.64,430.08a2.92,2.92,0,0,1,1.66-1c1.73-.64,3-1.9,4.58-2.82V426a3.13,3.13,0,0,0-.69.14c-2.25,1-4.49,2-6.73,3h0c-1.8.76-3.79,1-5.52,1.92,1-.09,1.06.27.48,1,.79-.19,1.54-.76,2.4-.24C149.84,430.65,151.37,430.66,152.64,430.08Z" transform="translate(-9.35 -280.31)"/><path class="fe" d="M145.71,433.43c.3-.15.63-.4.93,0h.48c.25-.35.63-.21,1-.24,1.84-.63,3.68-1.31,5.54-1.88.6-.18.92-.93,1.66-.76,1.34,0,2-1.34,3.12-1.68v-.48a44.63,44.63,0,0,1-5.76,1.68c-1.27.58-2.8.57-3.84,1.68-1.11.95-2.57.93-3.84,1.44C145.12,433.58,145.36,433.61,145.71,433.43Z" transform="translate(-9.35 -280.31)"/><path class="ck" d="M117.29,430.1A72.46,72.46,0,0,0,129,433.65a38.76,38.76,0,0,0,6.28.88,8.34,8.34,0,0,0,3.12-.26c.11,0,.23-.06.35-.11a5.85,5.85,0,0,0-2-.25,6.68,6.68,0,0,1-2.1.11c-1.52-.56-3.1-.44-4.63-.77a98.7,98.7,0,0,1-10-2.7c-1.12-.38-2.11-1.11-3.33-1.19C116.66,429.78,116.91,430,117.29,430.1Z" transform="translate(-9.35 -280.31)"/><path class="ck" d="M113.46,428.15c1,.51,2,1.27,3.18,1.21a41.32,41.32,0,0,0-7-3.6A11.19,11.19,0,0,0,113.46,428.15Z" transform="translate(-9.35 -280.31)"/><path class="es" d="M104.88,422.88c.81.34,1.27,1.21,2.16,1.44a7,7,0,0,0-3.36-2.64C103.93,422.23,104.49,422.47,104.88,422.88Z" transform="translate(-9.35 -280.31)"/><path class="ck" d="M109,425.52a2.2,2.2,0,0,0-1.92-1.2C107.64,424.78,108.13,425.43,109,425.52Z" transform="translate(-9.35 -280.31)"/><path class="ck" d="M104.88,422.88c-.39-.41-.95-.65-1.2-1.2l-.24-.24H103c.47.58.86,1.26,1.68,1.44Z" transform="translate(-9.35 -280.31)"/><path class="ff" d="M143.85,354.74a39,39,0,0,1,6.91,1.64c.45.16.92.26,1.16.74l.48.24a9.23,9.23,0,0,0,2.16.24c-.21-.73-.9-.87-1.44-1.2a28.13,28.13,0,0,0-7-2.4h0c-2.39-.41-4.85-.24-7.2-1-.1.45.22.69.47.95h0A23.49,23.49,0,0,1,143.85,354.74Z" transform="translate(-9.35 -280.31)"/><path class="fg" d="M151.44,429.12a.05.05,0,0,0,0,0c.37-.89,1.23-1.29,1.9-1.88-.45-.19-.74.45-1.2.24a9.64,9.64,0,0,1-3.66,1.8,25.08,25.08,0,0,1-9.05,1.54c-.63,0-1.24.12-1.86.14-1.88.05-3.66-.53-5.49-.58a33.89,33.89,0,0,1-9.31-2,105.5,105.5,0,0,1-10-3.77,4.65,4.65,0,0,1-2.4-1.44.49.49,0,0,1-.48-.24h-.72c.72.86,1.81,1.21,2.64,1.92,5.25,2.4,10.52,4.82,16.23,5.91a65.53,65.53,0,0,0,8.86,1.06,6.34,6.34,0,0,0,1.64.18c2.43-.54,5,0,7.35-.91C147.65,430.09,149.64,429.88,151.44,429.12Z" transform="translate(-9.35 -280.31)"/><path class="fh" d="M157.44,432.72l-1.2.24a49.52,49.52,0,0,1-9.49,3.05,7.53,7.53,0,0,1-.83.07c-.36.71-1.14.44-1.68.72.55.74,1.36.71,2.16.72.55.06,1.1-.44,1.64,0l0,0a2.3,2.3,0,0,1,1.2-.48l3.12-1.2a26.07,26.07,0,0,0,4.32-1.92C156.49,433.24,157.54,433.32,157.44,432.72Z" transform="translate(-9.35 -280.31)"/><path class="da" d="M98,397.9a11.54,11.54,0,0,1,0-3.8c.06-.35.23-.69-.12-1a9.75,9.75,0,0,0,0,5.76C98.27,398.59,98.1,398.25,98,397.9Z" transform="translate(-9.35 -280.31)"/><path class="da" d="M99.36,387.36c.44-.18.5-.55.48-1C99.4,386.58,99.34,387,99.36,387.36Z" transform="translate(-9.35 -280.31)"/><path class="di" d="M113,377.76a8.87,8.87,0,0,0-4.32,3.36A26.48,26.48,0,0,0,113,377.76Z" transform="translate(-9.35 -280.31)"/><path class="fi" d="M147.48,361.88a.89.89,0,0,0,1.08-.2c-.33-.13-.54-.52-1-.48a28.56,28.56,0,0,1-3.49-.59,25.6,25.6,0,0,0-4.66-.64,27.44,27.44,0,0,0-4.5.21c-3.25.26-6.39,1.06-9.58,1.59a5.57,5.57,0,0,0-3.21,1.11,6.19,6.19,0,0,1-2.4,1h0a1.4,1.4,0,0,1-1.2.48h0a1.32,1.32,0,0,1-1,.48h-.48c-.39.64-1.06.62-1.68.72l-1.2.48a1.52,1.52,0,0,1-1.44.72l-1.44.72c0,.61-.82.66-1,1.2a87.54,87.54,0,0,1,11.77-5,43.62,43.62,0,0,1,9.27-2.15,28.65,28.65,0,0,1,4.51-.64c1.68.06,3.36.06,5,.22,1.42.13,2.77.7,4.21.58A4.94,4.94,0,0,1,147.48,361.88Z" transform="translate(-9.35 -280.31)"/><path class="fj" d="M153.12,365.28h0a1.87,1.87,0,0,1,.88.26,50.54,50.54,0,0,0,4.63,2.38c0-.68-.74-.89-1-1.44-1.4-.34-2.36-1.44-3.51-2.19a41.31,41.31,0,0,0-5.61-2.61.89.89,0,0,1-1.08.2,4.94,4.94,0,0,0-2.28-.2c.19.43.57.43,1,.5a2.81,2.81,0,0,1,2.13,1.16l0,0C150.14,363.45,151.53,364.62,153.12,365.28Z" transform="translate(-9.35 -280.31)"/><path class="by" d="M148.08,437.52c.46,0,1,.08,1.2-.48A2.3,2.3,0,0,0,148.08,437.52Z" transform="translate(-9.35 -280.31)"/><path class="fk" d="M142.48,429a46.59,46.59,0,0,1-11.26-.24c-5-.55-9.62-2.23-14.29-3.83a5.19,5.19,0,0,0-2-.35,5.57,5.57,0,0,0,2.38,1c2.8,1,5.64,1.86,8.48,2.72a45.13,45.13,0,0,0,8.66,1.35,47.22,47.22,0,0,0,10.43-.29,1.26,1.26,0,0,0,1-.73A11,11,0,0,0,142.48,429Z" transform="translate(-9.35 -280.31)"/><path class="fk" d="M114.2,423.84a10.41,10.41,0,0,1-3.79-1.9c-1.44-1.14-3.15-1.9-4.37-3.38s-2.5-2.85-3.71-4.32a37.8,37.8,0,0,1-3.49-5.47c-.55-1-.44-2.32-1.64-2.92a10.93,10.93,0,0,0,.44,1.48,39.21,39.21,0,0,0,6.07,9.58A23.91,23.91,0,0,0,115,424.56,1.23,1.23,0,0,0,114.2,423.84Z" transform="translate(-9.35 -280.31)"/><path class="eh" d="M112.8,424.56a5.53,5.53,0,0,0-2.4-1.44A4.65,4.65,0,0,0,112.8,424.56Z" transform="translate(-9.35 -280.31)"/><path class="fl" d="M137.28,357.84a1.16,1.16,0,0,0-.45-.16,57.88,57.88,0,0,0-8.18,1.13A60.6,60.6,0,0,0,118,362a41.56,41.56,0,0,0-7.33,4c-1.28.84-2.6,1.62-3.82,2.53-1,.77-2.29,1.27-2.9,2.51a1.54,1.54,0,0,0,1-.54,36.63,36.63,0,0,1,9.33-5.62c3.19-1.43,6.24-3.17,9.7-4,.87-.2,1.76-.3,2.61-.55,1.44-.42,2.9-.75,4.35-1.1,2.09-.5,4.25-.23,6.33-.7Z" transform="translate(-9.35 -280.31)"/><path class="fm" d="M149.76,359.28a51.07,51.07,0,0,1,5.4,1.81,21.06,21.06,0,0,0,2.76,1.31c.63-.3.88.57,1.44.48h0c-.16-.31-.28-.68-.66-.79a10,10,0,0,1-2.94-1.61c-1.6-.48-3-1.34-4.7-1.71-2.38-.53-4.63-1.55-7.06-1.89-1,.34-1.92-.2-2.88,0a.89.89,0,0,0,1.2.43c.42-.12.75-.19,1,.29A24.65,24.65,0,0,1,149.76,359.28Z" transform="translate(-9.35 -280.31)"/><path class="fn" d="M144,356.88h0v-.24a19,19,0,0,0-4.9-.87c-2-.07-3.93-.06-5.9-.09-.31.37-.75.17-1.12.24-1.32.27-2.81-.15-3.92,1a1.26,1.26,0,0,0,.9.15,18.54,18.54,0,0,1,5.54-.77,19.9,19.9,0,0,0,2.44,0,5.08,5.08,0,0,1,3.6.66h.48C142.08,356.68,143,357.22,144,356.88Z" transform="translate(-9.35 -280.31)"/><path class="fo" d="M143.76,358.54a3.61,3.61,0,0,1,1.92.74,6.31,6.31,0,0,1,3.17.65,20.57,20.57,0,0,1,2.35.55h0c-.27-.65-1.17-.54-1.44-1.19a24.65,24.65,0,0,0-6.48-1.68,3.82,3.82,0,0,1-1.92.24C142,358.51,143,358.37,143.76,358.54Z" transform="translate(-9.35 -280.31)"/><path class="fp" d="M145.68,359.28a3.61,3.61,0,0,0-1.92-.74c-.81-.17-1.73,0-2.4-.7-1.36.16-2.72-.32-4.08,0v.72c1.58-.06,3.13.38,4.72.26a1.3,1.3,0,0,1,1.24.64l0,.06h.48C144.35,359,145,359.39,145.68,359.28Z" transform="translate(-9.35 -280.31)"/><path class="fn" d="M126.53,357c-2.16.46-4.16,1.4-6.26,2.05-.69.22-1.51.25-2,1a20.48,20.48,0,0,0,3-.76,36.3,36.3,0,0,1,3.77-1.27,6.68,6.68,0,0,0,2.79-1.09A2.74,2.74,0,0,0,126.53,357Z" transform="translate(-9.35 -280.31)"/><path class="fq" d="M146.75,436a49.52,49.52,0,0,0,9.49-3.05c1.11-.82,2.47-1.28,3.36-2.4h0a2.41,2.41,0,0,0-1.4.52c-.29.16-.7.69-1,0a11.55,11.55,0,0,1-2.88,1.2h-.24c-.49,1-1.7,1.23-2.48,1.44-2.3.6-4.55,1.43-6.88,1.92l0,0c-.25.3-.81.21-.93.69.75.22,1.39-.59,2.16-.24A7.53,7.53,0,0,0,146.75,436Z" transform="translate(-9.35 -280.31)"/><path class="fr" d="M151.6,433.68c.78-.21,2-.4,2.48-1.44-2.45.59-4.84,1.4-7.23,2.17a16.79,16.79,0,0,1-2.85.47c-.3.08-.6.18-.9.24-1.53.3-3.11.27-4.62.72a2.62,2.62,0,0,0,2.27.06,11.57,11.57,0,0,1,3.93-.3h0C147.05,435.11,149.3,434.28,151.6,433.68Z" transform="translate(-9.35 -280.31)"/><path class="fs" d="M146.85,434.41c2.39-.77,4.78-1.58,7.23-2.17h.24a2.37,2.37,0,0,0,1-1.68c-.74-.17-1.06.58-1.66.76-1.86.57-3.7,1.25-5.54,1.88-.28.24-.52.65-1,.24h-.48a18.62,18.62,0,0,1-2.88,1.2l.24.24A16.79,16.79,0,0,0,146.85,434.41Z" transform="translate(-9.35 -280.31)"/><path class="ft" d="M134.16,438.48c.85-.3,1.81,0,2.64-.48-2.08-.07-4.15-.23-6.23-.39-2.94-.23-5.6-1.29-8.39-2-1.66-.42-3.13-1.36-4.82-1.69.1.12.17.31.3.36a54.44,54.44,0,0,0,9.15,3.18c1.08.21,2.34-.1,3.27.78A15.51,15.51,0,0,1,134.16,438.48Z" transform="translate(-9.35 -280.31)"/><path class="ft" d="M115.44,433.44c.7-.1,1.22.58,1.92.48-1.48-1.21-3.33-1.67-5-2.4.17.47.67.61,1,1h0A4.65,4.65,0,0,1,115.44,433.44Z" transform="translate(-9.35 -280.31)"/><path class="fu" d="M148.56,361.68a41.31,41.31,0,0,1,5.61,2.61c1.15.75,2.11,1.85,3.51,2.19.14-.17.25,0,.39,0,1,.26,1.63,1.32,2.73,1.43l-.71-1.18v0c-1.25-1.62-3.18-2.27-4.8-3.36-.31,0-.71,0-.92-.15-1.55-1.25-3.55-1.4-5.27-2.23-.4-.2-.93.27-1.25-.26l-.24.48C148,361.16,148.23,361.55,148.56,361.68Z" transform="translate(-9.35 -280.31)"/><path class="fv" d="M149.09,361c1.72.83,3.72,1,5.27,2.23.21.17.61.11.92.15.07-.74-.64-1-1-1.44a14.46,14.46,0,0,1-3.12-1.44h0a20.57,20.57,0,0,0-2.35-.55,6.31,6.31,0,0,0-3.17-.65c-.64.11-1.33-.24-1.92.24.24.31.55.17.86.18a6.61,6.61,0,0,1,3.22,1C148.16,361.25,148.69,360.78,149.09,361Z" transform="translate(-9.35 -280.31)"/><path class="dt" d="M122.16,362.88c-.88.13-1.86,0-2.4,1A6.19,6.19,0,0,0,122.16,362.88Z" transform="translate(-9.35 -280.31)"/><path class="dt" d="M117.12,364.8a3.25,3.25,0,0,0-1.68.72C116.06,365.42,116.73,365.44,117.12,364.8Z" transform="translate(-9.35 -280.31)"/><path class="dt" d="M114.24,366a2.64,2.64,0,0,0-1.44.72A1.52,1.52,0,0,0,114.24,366Z" transform="translate(-9.35 -280.31)"/><path class="dt" d="M119.76,363.84c-.46,0-1-.08-1.2.48A1.4,1.4,0,0,0,119.76,363.84Z" transform="translate(-9.35 -280.31)"/><path class="dt" d="M118.56,364.32c-.41,0-.78,0-1,.48A1.32,1.32,0,0,0,118.56,364.32Z" transform="translate(-9.35 -280.31)"/><path class="fw" d="M146.4,356.4c1,.87,2.46.42,3.6,1,.56-.74,1.29,0,1.92-.24-.24-.48-.71-.58-1.16-.74a39,39,0,0,0-6.91-1.64,23.49,23.49,0,0,0-4.41-.74h0c-.72.17-1.43-.35-2.15,0l.95.72h0C140.94,355.36,143.72,355.63,146.4,356.4Z" transform="translate(-9.35 -280.31)"/><path class="ew" d="M139.1,355.77a19,19,0,0,1,4.9.87c.51-.43,1-.2,1.57-.08.25.05.68.52.83-.16-2.68-.77-5.46-1-8.16-1.68h0c-1.07,0-2.15.06-3.22.07a41.16,41.16,0,0,0-7.81,1.1c-1.17.25-2.44.28-3.36,1.23a10.16,10.16,0,0,0,2.77-.65,17.1,17.1,0,0,1,6.59-.79C135.17,355.71,137.14,355.7,139.1,355.77Z" transform="translate(-9.35 -280.31)"/><path class="ew" d="M120.78,357.8c-1.45.66-3.14.8-4.38,2,1.13,0,1.95-.82,3-1a16.44,16.44,0,0,0,4.41-1.65A5.92,5.92,0,0,0,120.78,357.8Z" transform="translate(-9.35 -280.31)"/><path class="fx" d="M157.5,363.35c-1.2-.25-1.89-1.49-3.18-1.43.32.48,1,.7,1,1.44,1.62,1.09,3.55,1.74,4.8,3.36h0c1.13-.18,1.61,1.11,2.62,1.2.1-.63-.44-1.08-.48-1.67h0l-1.68-1.44C159.39,364.6,158.6,363.57,157.5,363.35Z" transform="translate(-9.35 -280.31)"/><path class="fy" d="M155.16,361.09a51.07,51.07,0,0,0-5.4-1.81c.27.65,1.17.54,1.44,1.19h0a14.46,14.46,0,0,0,3.12,1.44c1.29-.06,2,1.18,3.18,1.43s1.89,1.25,3.06,1.45a15,15,0,0,1-2.64-2.4A21.06,21.06,0,0,1,155.16,361.09Z" transform="translate(-9.35 -280.31)"/><path class="fz" d="M155.28,430.56a2.37,2.37,0,0,1-1,1.68,11.55,11.55,0,0,0,2.88-1.2c.54-.33,1.06-.69,1.62-1a24.56,24.56,0,0,0,6.06-4.55l.48-1.2c-.74.16-.91,1-1.49,1.3-1.91.94-3.4,2.6-5.47,3.26C157.24,429.22,156.62,430.55,155.28,430.56Z" transform="translate(-9.35 -280.31)"/><path class="ez" d="M169.92,423.84a1.12,1.12,0,0,0-.72,1A1.12,1.12,0,0,0,169.92,423.84Z" transform="translate(-9.35 -280.31)"/><path class="ga" d="M161.52,362.64a8.14,8.14,0,0,1-2.06-1.14,13.83,13.83,0,0,0-3.7-1.5h0v.48a10,10,0,0,0,2.94,1.61c.38.11.5.48.66.79h0a7.68,7.68,0,0,1,3.82,2,26.35,26.35,0,0,0,3.14,2.3L163,363.6Z" transform="translate(-9.35 -280.31)"/><path class="gb" d="M154.3,429.06a2.92,2.92,0,0,0-1.66,1,44.63,44.63,0,0,0,5.76-1.68c.13-.33.43-.44.7-.59a20,20,0,0,0,4.58-3.49l-1-.48a20.09,20.09,0,0,1-3.84,2.4C157.34,427.16,156,428.42,154.3,429.06Z" transform="translate(-9.35 -280.31)"/><path class="gc" d="M154.56,357.6a9.23,9.23,0,0,1-2.16-.24c.81.92,2.09.85,3.06,1.45,2,1.25,4.4,2,6.06,3.83l1.44,1a18,18,0,0,1,3.36,2.16c-.25-.91-1.07-1.31-1.67-1.93-.75-.78-2-1-2.41-2.15A65.6,65.6,0,0,0,154.56,357.6Z" transform="translate(-9.35 -280.31)"/><path class="gd" d="M597.32,366v1.44c0,.36,0,.78.47.83s.55-.33.57-.72c0-.22-.07-.5.26-.58s.51.14.69.36a8.3,8.3,0,0,0,.54.64c.22.21.47.47.83.23a.51.51,0,0,0,0-.83c-.42-.44-.28-.72,0-1.18a1.33,1.33,0,0,0-.7-2Q597.32,363.18,597.32,366Zm2.49-.58c.06.46-.28.6-.67.59s-.74.12-.78-.43.19-.64.52-.6S599.75,365,599.81,365.44Z" transform="translate(-9.35 -280.31)"/><path class="fc" d="M147.12,433.44c.44.41.68,0,1-.24C147.75,433.23,147.37,433.09,147.12,433.44Z" transform="translate(-9.35 -280.31)"/><path class="ge" d="M151.59,358.18a28.74,28.74,0,0,1,4.17,1.82h0a13.83,13.83,0,0,1,3.7,1.5,8.14,8.14,0,0,0,2.06,1.14c-1.66-1.85-4-2.58-6.06-3.83-1-.6-2.25-.53-3.06-1.45l-.48-.24c-.63.2-1.36-.5-1.92.24C150.31,358.05,151.09,358.05,151.59,358.18Z" transform="translate(-9.35 -280.31)"/><path class="gf" d="M155.76,360h0a28.74,28.74,0,0,0-4.17-1.82c-.5-.13-1.28-.13-1.59-.82-1.14-.54-2.55-.09-3.6-1-.15.68-.58.21-.83.16-.54-.12-1.06-.35-1.57.08v.24h0c2.43.34,4.68,1.36,7.06,1.89,1.65.37,3.1,1.23,4.7,1.71Z" transform="translate(-9.35 -280.31)"/></svg>