<svg xmlns="http://www.w3.org/2000/svg" viewBox="0 0 362.23 279.9"><defs><style>.a{fill:#fff;}.b,.d{fill:#231f20;}.c{fill:#cc2027;}.d{font-size:19px;font-family:MyriadPro-Regular, Myriad Pro;}</style></defs><title>ramjack_bg</title><rect class="a" width="362.23" height="279.9"/><path class="b" d="M392.44,233.5c-18.43,0-24.56,17.12-24.56,17.12,2.87,1.06,9.27,4.52,9.27,4.52s3.1-16,19.53-16.55c7.42-.24,11.35,6.22,11.35,6.22l1.82-.88S406.88,233.5,392.44,233.5Z" transform="translate(-219.47 -169.73)"/><path class="b" d="M450.69,248.54c.59,5.11-.45,12.79-.45,12.79a33.72,33.72,0,0,1,.49,5.95c0,22.81-21.8,26.28-21.8,38.27a7.56,7.56,0,0,0,1.39,4.14c2.23-8.35,27.84-10.06,27.84-36.22C458.16,263.15,453.18,253,450.69,248.54Z" transform="translate(-219.47 -169.73)"/><path class="b" d="M446.17,253c0-27.84-20.9-49.45-49.13-49.45C370.78,203.52,346,224,346,253.63c0,23.41,16,38.71,32.69,38.71,13,0,15.86-9.14,16.26-10,.18-.4,0-.63-.46-.31a16.86,16.86,0,0,1-10.76,3.72c-10.56,0-20.89-7.51-22.84-22,23.8,5.67,27.16,14.93,27.16,14.93l4.15-3a18,18,0,0,1,6-14.85c8.32,5.32,8,17.58,8,17.58-1.44.47-5.39-1.91-5.39-1.91-4.55,12.82,12.17,23.24,12.17,23.24a18.78,18.78,0,0,0-1.61,8.81,16.76,16.76,0,0,0-4.34,6.92l-2-.6a23.69,23.69,0,0,1,.55-12.22l-3.09-1.15S399.26,306,399.26,314c0,8.44,3,12.71,3,19.34a32.83,32.83,0,0,1-2.82,12.54,21.2,21.2,0,0,1,4.54,3.9c-3.72.91-6.7,5.94-6.7,5.94-3.15-2.87-9.2-5-9.2-5a23.77,23.77,0,0,0-1.79-20c-11.92-6.06-14.64-22.89-14.64-22.89C354,307.05,336.77,322.79,336,323.4s-.19,1.27.54.89c1.42-.75,18.36-11.22,33.19-6.37,0,0,3.26,11.92,13.37,18.39,0,0,2.24,4.84-1.7,11.62l2.91,7.44s6.11-.18,14.28,5c0,0,7-5.5,13.37-7.14l6.84-26.07s2.72-11,8.83-13.44a23.64,23.64,0,0,1-2-8.47C425.59,287.91,446.17,281.64,446.17,253ZM411,270.54a21.92,21.92,0,0,0-13.15-16.4c-8.54,4.52-10.76,15.52-10.76,15.52s-6.37-8.31-26.28-15c1.74-13.75,12.32-27.15,29.7-27.15,15.5,0,25.67,11.34,25.67,25.55C416.13,264,411,270.54,411,270.54Zm9,21.37a8.1,8.1,0,0,1-4.21-7c0-5.82,9-15.44,9-30.92,0-19.91-15-32.59-32.95-32.59S363.62,234.12,360,241.93c-.25.55-1,.37-.81-.29.23-.95,6.55-25.59,35.43-25.59,19.71,0,36.45,16.26,36.45,36.15C431.05,274.05,419,279.8,419.91,291.91Z" transform="translate(-219.47 -169.73)"/><path class="c" d="M290.62,373.15c7.48,0,11.13,2.78,11.13,9.5,0,4.32-2.59,7.06-6.81,7.49v.1c2.68.29,6.67,2,6.67,6.24v7.73c0,1.87.91,2.83,1.77,3.12l0,.09H290.52c-1.15,0-1.87-1-1.87-2.49v-7.54c0-2.93-.92-4.08-3.32-4.08h-1.82v14.11h-13V376.36c0-1.87-.92-2.83-1.78-3.12l.05-.09Zm-7.11,13.54h2.06c2.36,0,3.22-1.73,3.22-3.7,0-2.45-1.54-3.22-3.5-3.22h-1.78Z" transform="translate(-219.47 -169.73)"/><path class="c" d="M312,373.15h17.76l8.84,34.27H325.37l-1-5.37H317.3l-1,5.37H303Zm6.34,22.27h5.13l-2.4-16H321Z" transform="translate(-219.47 -169.73)"/><path class="c" d="M359,373.15l2.88,20.5H362l3.32-20.5h18.24v31.07c0,1.87.91,2.83,1.78,3.12l0,.09H372.72V381.31h-.1l-5.09,26.11H356.4l-5.09-26.11h-.1v26.11H340.37V376.36c0-1.87-.91-2.83-1.78-3.12l.05-.09Z" transform="translate(-219.47 -169.73)"/><path class="b" d="M385,391.35h12.86v7c0,1.73.87,2.88,2.55,2.88a2.55,2.55,0,0,0,2.78-2.88v-22c0-1.87-.91-2.83-1.77-3.12l0-.1h14.7v23.57c0,7.73-5.9,11.76-15.6,11.76-8.25,0-15.55-2.69-15.55-12.1Z" transform="translate(-219.47 -169.73)"/><path class="b" d="M425.86,373.15h17.76l8.83,34.28H439.2l-1-5.38h-7.1l-1,5.38H416.83Zm6.33,22.28h5.14l-2.4-16h-.1Z" transform="translate(-219.47 -169.73)"/><path class="b" d="M471.22,385.2v-3.12a2.79,2.79,0,1,0-5.57,0V398.5a2.79,2.79,0,1,0,5.57,0v-3.75H484c0,3.79-.62,7.2-2.88,9.7s-6.1,4-12.68,4c-13.34,0-15.93-5.18-16-18.19,0-14.07,3.41-18.19,15.94-18.19,12.86,0,15.6,5.18,15.6,13.1Z" transform="translate(-219.47 -169.73)"/><path class="b" d="M487.16,376.37c0-1.88-.91-2.83-1.78-3.12l.05-.1h14.69v15.56h.09l7.73-15.56h14.31l-8.79,16.42L521.82,406a2.46,2.46,0,0,0,1.41,1.31l-.05.1H507.94l-7.73-17.67h-.09v17.67h-13Z" transform="translate(-219.47 -169.73)"/><text class="d" transform="translate(303 215.77)">®</text></svg>