<svg xmlns="http://www.w3.org/2000/svg" viewBox="0 0 685.32 429.95"><defs><style>.a{fill:#fff;}.b{fill:#9fdbf8;}</style></defs><title>NBC_PYE_2018_TI_255</title><polygon class="a" points="154.74 0 154.74 38.51 118.2 38.51 118.2 0 89.81 0 89.81 0 1.99 0 1.99 23.61 31.64 23.61 31.64 101.31 60.02 101.31 60.02 23.61 89.54 23.61 89.54 101.32 118.2 101.32 118.2 62.95 154.74 62.95 154.74 101.32 183.12 101.32 183.12 0 154.74 0"/><path class="a" d="M165.51,193.69H134.32l-12.23,34.84c-2.24,8.29-4.21,16.44-5.62,24.17l-19.25-59H77.41l-18.69,59c-1.54-7.44-2.95-15.73-5.34-23.46L40.31,193.69H9.12l37.8,101.17H70l17.43-48.48,18,48.48H128.7l35-96.17V295h28.53V193.69Z" transform="translate(-9.12 -85.02)"/><path class="a" d="M408.5,270.83V255.51h47.91V232.19H408.5V217.72h50.86v-24H263.75v34.7c0,3.94.14,8.72.85,20.66l-42.86-55.36H197.43V295h28.95V262.54L226,240.48,268.25,295h24.31V217.29h29.59V295h28.38V217.29h29.72V295h79.12V270.83Z" transform="translate(-9.12 -85.02)"/><path class="a" d="M526.77,295l-23.61-32.88h-10V295H464.52V193.69H514c26,0,39.49,16.72,39.49,34.84,0,12.51-4.36,23.19-21.5,30.64l26.41,34.14V295Zm-33.59-54.1h21.08c7.59,0,11-5.48,11-11.8s-3.65-12.51-11.24-12.51h-20.8Z" transform="translate(-9.12 -85.02)"/><path class="a" d="M154.28,379.36v-77H125.61v34.77c-6.23-23.84-26.84-37.3-54.24-37.3C38.21,299.83,15,319.92,15,353.08,15,387,38.21,406.2,71.37,406.2c27.4,0,48-13.27,54.24-37.13v34.6h77.14V379.36Zm-82.91,2.25c-16.3,0-27.68-11.67-27.68-28.53s11.24-28.66,27.68-28.66c16.86,0,27.54,11.1,27.54,28.66C98.91,369.8,88.09,381.61,71.37,381.61Z" transform="translate(-9.12 -85.02)"/><polygon class="a" points="354.67 217.34 328.11 251.63 301.41 217.34 274.43 217.34 271.48 217.34 242.11 217.34 220.33 252.05 199.4 217.34 167.08 217.34 167.08 218.47 205.58 278.32 205.58 318.65 234.24 318.65 234.24 278.32 271.48 222.99 271.48 318.65 299.87 318.65 299.87 258.51 325.16 289 330.22 289 356.21 258.23 356.21 318.65 384.6 318.65 384.6 217.34 354.67 217.34"/><path class="a" d="M653.41,340c-10-1.12-16.86-2-16.86-9,0-5.34,6.88-7.59,13.77-7.59,8.85,0,16.86,1.83,23.75,7l14.19-18.13c-11-8.71-22.77-11.94-37.94-11.94-21.36,0-42.44,9.27-42.44,30.63,0,25.15,19.11,30.91,41.32,32.88,11.24,1,16.86,4.22,16.86,9.28,0,5.62-6.47,9-15.88,9-8.57,0-19.67-1.83-29.65-11.52l-13.81,15.9-13.36-14.92A34.67,34.67,0,0,1,569.47,382c-20,0-27-15-27-28.1s7.31-29.09,27-29.09c6.89,0,14.19,1.82,21.64,8.71l17.7-17.28c-11.66-11.1-24.58-16.16-39.34-16.16-31,0-48.19,18.23-53.54,39.1V302.36H487.41v26.28c-4.09-14.92-17.15-26.28-39.35-26.28H398.88V403.67h28.67v-27.4h20.51c22.11-.35,35.25-11,39.35-26.07v53.47h28.52V369.24c5.15,20.72,21.57,37.1,53.54,37.1,14.76,0,27.75-3.91,38.87-14.09,12.81,11.86,24.84,14.37,41.7,14.37,22.76,0,44.4-10,44.4-33C694.44,350.13,673.5,342.26,653.41,340ZM448.06,352.1H427.55V327h20.51c8,0,12.09,5.9,12.09,12.78S456.21,352.1,448.06,352.1Z" transform="translate(-9.12 -85.02)"/><path class="a" d="M197.43,186.33V85h79.11v24H225.67v14.48h47.92v23.32H225.67v15.32h50.87v24.17Z" transform="translate(-9.12 -85.02)"/><path class="b" d="M316.07,460.16A24.67,24.67,0,0,1,305.61,440c0-20.43,18.23-30.86,42.1-30.86,24,0,44.79,10.28,44.79,30.58.14,8-3.68,14.93-10.74,19.44a25,25,0,0,1,13.28,22c.42,24.94-19.92,33.82-46.2,33.82-26.13,0-47-8.74-46.33-33.82C302.51,475.8,306.46,465.09,316.07,460.16Zm16.25,21c0,7.05,7.62,10.85,16.52,10.85,8.06,0,16.53-3.38,16.11-10.71,0-6.34-5.65-10.85-16-10.85C339.1,470.44,332.32,474.39,332.32,481.15Zm30.09-40c0-5.21-4.67-10.28-14-10.28s-14.13,5.21-14.13,10.42,4.67,10.29,14,10.29S362.41,446.35,362.41,441.13Z" transform="translate(-9.12 -85.02)"/><path class="b" d="M20.75,411.19H98.52V435.3H49.16v19H95.57v23.55H49.16v35H20.75Z" transform="translate(-9.12 -85.02)"/><path class="b" d="M276.71,439.67c0,7.33-2.11,15.79-11.11,19.74a26.55,26.55,0,0,1,14.07,23.68c0,22.7-20.68,29.75-39.24,29.75H188.11V411.19H240C260.26,411.19,276.71,420.36,276.71,439.67ZM239.3,450c5.91,0,9.14-3.1,9.14-7.61s-3.23-7.9-8.86-7.9h-23.2V450Zm1.27,40.46c7.45,0,10.69-3.8,10.69-9.58s-3.66-9.73-10.69-9.73H216.38v19.31Z" transform="translate(-9.12 -85.02)"/><path class="b" d="M103.72,512.84V411.19H182.9V435.3H132v14.52h48v23.4H132v15.37h50.92v24.25Z" transform="translate(-9.12 -85.02)"/><rect class="a" x="412.96" y="341.66" width="211.07" height="72.54"/><path class="b" d="M415.72,502.38H638V423.51H415.72Zm58.61-7.95H426.67V431.84h17.71v47.57h29.95Zm7.81-62.59h17.62v62.59H482.14Zm66.07,62.85H530.93l-26-62.85H524.5l7.21,18.75,7.81,23.18,8-23.18,7.12-18.75h19.62Zm81.25-.26H579.37V431.84h48.88v14.84H596.82v8.94h29.6V470h-29.6v9.46h32.64Z" transform="translate(-9.12 -85.02)"/></svg>