<svg id="FULL_COLOR_REVERSE" data-name="FULL COLOR REVERSE" xmlns="http://www.w3.org/2000/svg" viewBox="0 0 472.48 382.46"><defs><style>.cls-1{fill:#2d86d1;}.cls-2{fill:#44b3e8;}.cls-3{fill:#33619f;}.cls-4{fill:#fff;}.cls-5{fill:#5a5a96;}.cls-6{fill:#b42846;}.cls-7{fill:#008cc3;}.cls-8{fill:#e16428;}.cls-9{fill:#00a846;}.cls-10{fill:#f0b428;}</style></defs><title>NBC_PYE_2018_RGB_REV</title><path class="cls-1" d="M176.36,345.14a827.17,827.17,0,0,1,103.55-81.09c43.25-28.68,103-62.15,169.66-81.78-40.2-39.61-75.65-62.52-83.68-67.5C297.06,164.41,248.9,225,220.17,268A589.57,589.57,0,0,0,176.36,345.14Z" transform="translate(-159.76 -114.77)"/><path class="cls-2" d="M518.25,174.17c-92,11.08-177.87,57.2-234.82,94.95A833.36,833.36,0,0,0,185.57,345l.51-.16c104.06-41.13,205.61-39,275-35,68.48,4,160.92,35.47,160.92,35.47C592.19,272.32,529.87,189.34,518.25,174.17Z" transform="translate(-159.76 -114.77)"/><path class="cls-3" d="M215,264.6a648.31,648.31,0,0,1,49.1-64.41c-24.89-7.65-60.57-13.26-60.57-13.26C181,250.88,170.15,341.32,169.74,344.76,175.92,331.21,190.71,301.06,215,264.6Z" transform="translate(-159.76 -114.77)"/><path class="cls-4" d="M449.16,425.66a24.52,24.52,0,0,0-24.44,22.59l-.13,0v0c-.66-.05-1.33-.1-2-.1s-1.43,0-2.14.11a24.52,24.52,0,0,0-48.88,0h-.1l-.32,0c-.57,0-1.14-.07-1.72-.07s-1.43,0-2.14.11a24.53,24.53,0,1,0-24.44,26.48c.72,0,1.43,0,2.13-.11,0,.09,0,.18,0,.27h0a24.52,24.52,0,0,0,48.86-.26c.71.06,1.42.11,2.14.11s1.42,0,2.12-.11c0,0,0,.07,0,.11h0a24.51,24.51,0,0,0,48.87-.11c.71.06,1.42.11,2.14.11a24.54,24.54,0,0,0,0-49.07Zm-6.39,43.95A20.44,20.44,0,0,1,429,453.28,20.44,20.44,0,0,1,442.77,469.61Zm-53.16,0a20.44,20.44,0,0,1-13.8-16.33A20.44,20.44,0,0,1,389.61,469.61ZM363,453.28a20.44,20.44,0,0,1-13.8,16.33A20.44,20.44,0,0,1,363,453.28ZM322.4,450.2A20.43,20.43,0,0,1,363.22,449,24.54,24.54,0,0,0,345,470.25h0c0,.1,0,.19,0,.28A20.43,20.43,0,0,1,322.4,450.2Zm47,42.94A20.43,20.43,0,0,1,349,473.92a24.52,24.52,0,0,0,18.23-21.55,20.44,20.44,0,0,1,2.15-.11c.69,0,1.36,0,2,.1h.13a24.52,24.52,0,0,0,18.23,21.55A20.43,20.43,0,0,1,369.42,493.14Zm24.43-22.61a24.53,24.53,0,0,0-18-21.49v0l-.26-.06a20.42,20.42,0,0,1,40.77,0,24.53,24.53,0,0,0-18.22,21.41h0s0,.1,0,.15a20.7,20.7,0,0,1-2.14.11A20.47,20.47,0,0,1,393.85,470.53Zm22.34-17.25a20.44,20.44,0,0,1-13.8,16.33A20.44,20.44,0,0,1,416.19,453.28Zm6.39,39.86a20.43,20.43,0,0,1-20.39-19.22,24.52,24.52,0,0,0,18.24-21.56,20.76,20.76,0,0,1,2.15-.11c.69,0,1.38,0,2.06.1h.1A24.53,24.53,0,0,0,443,473.92,20.43,20.43,0,0,1,422.58,493.14Zm26.58-22.49a20.85,20.85,0,0,1-2.15-.11A24.53,24.53,0,0,0,428.88,449v0l-.1,0a20.44,20.44,0,1,1,20.38,21.7Z" transform="translate(-159.76 -114.77)"/><path class="cls-4" d="M175.59,367.9s-9.56-.19-15.83,1V408h7.15V394.41s5.36-.16,6.15-.17c11.82-.07,15.79-6.55,15.79-14.44C188.86,372.43,183.53,368.21,175.59,367.9Zm-2.87,19.74c-.14,0-2.72.1-5.81.1V375.14a26.22,26.22,0,0,1,9.17-.62c3.07.25,5.3,2.25,5.3,5.51C181.38,383.94,180.23,387.18,172.73,387.65Z" transform="translate(-159.76 -114.77)"/><path class="cls-4" d="M191.13,379.17h7.58l7.15,20.73,7-20.73h7.45l-11.77,29.64a20,20,0,0,1-10,11.16l-3.46-5a13.28,13.28,0,0,0,6.91-6.88Z" transform="translate(-159.76 -114.77)"/><path class="cls-4" d="M234,379.17q12.9,0,12.9,13.38a26.22,26.22,0,0,1-.24,3.56H227.82q0,6.09,8.8,6.09a45.5,45.5,0,0,0,8.58-.82v5.76a43.06,43.06,0,0,1-9.12.83q-15.41,0-15.41-14.73Q220.67,379.17,234,379.17Zm-6.15,11.9h12.09v-.22q0-6-5.94-6Q228.31,384.87,227.82,391.07Z" transform="translate(-159.76 -114.77)"/><path class="cls-4" d="M250.63,393.56q0-14.47,14-14.47t14,14.47q0,14.45-14,14.45T250.63,393.56Zm14,8.91q6.88,0,6.89-9,0-8.8-6.89-8.8t-6.88,8.8Q257.78,402.48,264.66,402.48Z" transform="translate(-159.76 -114.77)"/><path class="cls-4" d="M339.87,405.77q0,12.62-14.93,12.61a28.89,28.89,0,0,1-9.29-1.37v-5.76a29.59,29.59,0,0,0,9.34,1.37q7.72,0,7.72-6.58a17.09,17.09,0,0,1-6.86,1.37q-12.63,0-12.63-14,0-14.23,14.71-14.23a73.45,73.45,0,0,1,11.93,1.18Zm-7.15-20.07a14.79,14.79,0,0,0-5-.66q-7.42,0-7.42,8.31,0,8,6.4,8a13.21,13.21,0,0,0,6-1.48Z" transform="translate(-159.76 -114.77)"/><path class="cls-4" d="M377.77,406.32a31.4,31.4,0,0,1-11.34,1.92q-20.79,0-20.78-20.43,0-19.33,20.78-19.33a31.43,31.43,0,0,1,11.34,1.92V377a26.57,26.57,0,0,0-10.8-2.19q-13.9,0-13.9,13,0,14.12,13.9,14.12a26.59,26.59,0,0,0,10.8-2.19Z" transform="translate(-159.76 -114.77)"/><path class="cls-4" d="M383.37,408V368.75h7.15v14.09a11.05,11.05,0,0,1,8.56-3.67q10.07,0,10.07,10.64V408H402V389.81q0-4.77-4.67-4.77a10.46,10.46,0,0,0-6.8,2.83V408Z" transform="translate(-159.76 -114.77)"/><path class="cls-4" d="M414.73,399q0-8.58,12.31-8.58a30.94,30.94,0,0,1,5.77.55v-2.17q0-3.86-5.48-3.87A44.37,44.37,0,0,0,417,386.3v-5.76a44.3,44.3,0,0,1,10.31-1.37q12.64,0,12.64,9.49V408h-4.16l-2.54-2.58a13.94,13.94,0,0,1-8.15,2.58Q414.73,408,414.73,399ZM427,395.35q-5.15,0-5.16,3.56,0,3.84,4.32,3.84a10.93,10.93,0,0,0,6.61-2.25V395.9A28.92,28.92,0,0,0,427,395.35Z" transform="translate(-159.76 -114.77)"/><path class="cls-4" d="M502,405.77q0,12.62-14.93,12.61a28.89,28.89,0,0,1-9.29-1.37v-5.76a29.59,29.59,0,0,0,9.34,1.37q7.72,0,7.72-6.58a17.09,17.09,0,0,1-6.86,1.37q-12.63,0-12.63-14,0-14.23,14.71-14.23A73.45,73.45,0,0,1,502,380.35Zm-7.15-20.07a14.78,14.78,0,0,0-5-.66q-7.43,0-7.42,8.31,0,8,6.4,8a13.21,13.21,0,0,0,6-1.48Z" transform="translate(-159.76 -114.77)"/><path class="cls-4" d="M515.84,408v-5.49q19.3-13.63,19.3-21.94,0-5.75-7-5.76a22.19,22.19,0,0,0-11.2,3v-6.58a23.93,23.93,0,0,1,11.2-2.74q14.17,0,14.17,11.52,0,10.15-15.47,21.66H542.3V408Z" transform="translate(-159.76 -114.77)"/><path class="cls-4" d="M546.6,388.41q0-19.93,17.22-19.93,16.92,0,16.92,19.93t-16.92,19.83Q546.6,408.24,546.6,388.41Zm17.22,13.52q9.5,0,9.5-13.68,0-13.46-9.5-13.46-9.8,0-9.8,13.46Q554,401.93,563.82,401.93Z" transform="translate(-159.76 -114.77)"/><path class="cls-4" d="M588.43,408V375.41h-4.51v-5.24l11.67-1.85V408Z" transform="translate(-159.76 -114.77)"/><path class="cls-4" d="M602,396.34q0-6.11,5.72-9.08-4.64-2.6-4.64-8.85,0-10,14-10t14,10q0,6.25-4.78,8.85,5.86,3,5.86,9.08,0,11.9-14.85,11.9Q602,408.24,602,396.34Zm23.08.17q0-5.82-7.91-5.82t-8,5.82q0,5.43,8.37,5.43Q625.09,401.93,625.09,396.5ZM624,379.23q0-4.44-6.83-4.44t-6.94,4.44q0,5.15,7,5.16Q624,384.38,624,379.23Z" transform="translate(-159.76 -114.77)"/><path class="cls-4" d="M298.92,379.31s-2.45-.27-3.78-.27-3.06.08-4.78.24c-2.17.19-4.55.5-7.15.94v13.49h0v14.37h7.15V393.71h0v-8.14a14.86,14.86,0,0,1,5-.66,9.8,9.8,0,0,1,2.73.36l.8.24c2,.8,2.95,3,2.95,5.16v17.42H309V390.66C309,384.18,305.84,380.2,298.92,379.31Z" transform="translate(-159.76 -114.77)"/><path class="cls-4" d="M460.31,379.26s-2.45-.27-3.78-.27-3.06.08-4.78.23c-2.17.2-4.55.51-7.15.95v13.49h0V408h7.15V393.67h0v-8.15a14.74,14.74,0,0,1,5-.66,9.84,9.84,0,0,1,2.73.36l.8.24c2,.8,2.95,3,2.95,5.16V408h7.15V390.61C470.38,384.13,467.23,380.15,460.31,379.26Z" transform="translate(-159.76 -114.77)"/><path class="cls-4" d="M395.84,279c1.91-3.16,5.11-6.45,8.55-7.83a18.2,18.2,0,0,1,18.71,2.71A17.73,17.73,0,0,1,429,290.47a31,31,0,0,0,3.53-1.36,17.93,17.93,0,0,1,19.57,6.4,17.73,17.73,0,0,1,2.32,16.7,19,19,0,0,1-5.13,7.21l.24.23c6.76.33,13.39,5.57,15.45,12a17.62,17.62,0,0,1-4.49,18.17c-3.88,3.83-8.84,5.16-14.4,5H345.53c-8.27.18-14.64-3.49-18.09-10.82-2.68-6.32-1.36-14.38,3.68-19.17,3.15-3.34,7.13-4.7,11.44-5.39a18.08,18.08,0,0,1-5.83-17.28,17.79,17.79,0,0,1,10.79-12.66,18.46,18.46,0,0,1,15.12,1l.16-.17c-1.29-7.3,2-13.87,8-17.9,5.37-3.63,14-3.55,19.31.32a19.58,19.58,0,0,1,5.75,6.24" transform="translate(-159.76 -114.77)"/><path class="cls-5" d="M424.33,281.76c2.13,4.35.9,10.08-1.38,14L405.5,335l-.15.16L399,295.35c-.51-3.81,3.6-5.45,6-7.29-.11-.56-.74-.54-1.13-.79L398,287.2l-.17-.19A13.5,13.5,0,0,1,405,275.1a14,14,0,0,1,15.44,1.5,14.83,14.83,0,0,1,3.88,5.15" transform="translate(-159.76 -114.77)"/><path class="cls-6" d="M392.16,280.37a14.21,14.21,0,0,1,1.75,9l-7.12,45.61c0,.08,0,.12-.1.15l-1.82-3.66L367,291.59a13.82,13.82,0,0,1,18.49-16.95,14.86,14.86,0,0,1,6.65,5.73" transform="translate(-159.76 -114.77)"/><path class="cls-7" d="M450.14,299.59c2.4,4.09,1.85,10.29-.81,14.08-1.66,2.68-4.4,4-6.68,5.76l-37,25.37h-.1l.41-1.21,19.6-44.22a14.11,14.11,0,0,1,14.46-7.07,14.29,14.29,0,0,1,10.09,7.3" transform="translate(-159.76 -114.77)"/><path class="cls-8" d="M366.17,299.36l20.38,45.43h-.33l-41.1-28.34a13.56,13.56,0,0,1-4.47-14.14,13.87,13.87,0,0,1,25.53-3" transform="translate(-159.76 -114.77)"/><path class="cls-9" d="M460.86,331.66a14.11,14.11,0,0,1-1.7,13.95,13.83,13.83,0,0,1-11.35,5.31L404,351l36.72-25.54a14.17,14.17,0,0,1,13-.86,14.34,14.34,0,0,1,7.21,7.11" transform="translate(-159.76 -114.77)"/><path class="cls-10" d="M331.07,331.66a14,14,0,0,0,1.67,13.95,13.87,13.87,0,0,0,11.35,5.31l43.85,0-36.73-25.54a14.08,14.08,0,0,0-20.15,6.24" transform="translate(-159.76 -114.77)"/></svg>