<svg xmlns="http://www.w3.org/2000/svg" viewBox="0 0 228.5 69.74"><defs><style>.a{fill:#00aeef;}.b{fill:#fff;}</style></defs><title>bcbsnc</title><polygon class="a" points="49.19 69 49.19 50.03 68.16 50.03 68.16 19.71 49.19 19.71 49.19 0.74 18.97 0.74 18.97 19.71 0 19.71 0 50.03 18.97 50.03 18.97 69 49.19 69"/><path class="b" d="M45.58,65l12.57,1.22c2.36.32,2.63,2.61,2,4L51.54,86.41l0,0a18.74,18.74,0,0,1-6-21.35Z" transform="translate(-28.98 -36.72)"/><path class="a" d="M47.44,67.81l9.52.88c.69,0,.74.34.58.74L50.88,82.15a16.13,16.13,0,0,1-3.44-14.34" transform="translate(-28.98 -36.72)"/><path class="b" d="M80.66,65,68.08,66.26c-2.36.32-2.63,2.61-2,4l8.62,16.16v0a18.75,18.75,0,0,0,6-21.35Z" transform="translate(-28.98 -36.72)"/><path class="b" d="M63.12,52.91a18.76,18.76,0,0,0-17,10.81H59.47c1.9,0,2.74-1.15,2.78-2.06,0-1.07-.12-1.41-1-2.56a2.36,2.36,0,1,1,3.75,0c-.88,1.15-1,1.49-1,2.56,0,.91.88,2,2.78,2.06H80.1a18.76,18.76,0,0,0-17-10.81" transform="translate(-28.98 -36.72)"/><path class="a" d="M78.79,67.81l-9.52.88c-.69,0-.74.34-.58.74l6.67,12.72a16.15,16.15,0,0,0,3.43-14.34" transform="translate(-28.98 -36.72)"/><path class="a" d="M67.6,56.14a4.16,4.16,0,0,1-.72,4.63.22.22,0,0,0,.07.39h8.43a16.22,16.22,0,0,0-7.78-5" transform="translate(-28.98 -36.72)"/><path class="b" d="M63.12,90.38a18.66,18.66,0,0,0,10.3-3.08h0L64.29,73.66a1.34,1.34,0,0,0-2.34,0L52.81,87.31h0a18.67,18.67,0,0,0,10.31,3.08" transform="translate(-28.98 -36.72)"/><path class="a" d="M134.58,106.46c13.1-7.24,21-18.76,25.13-31.41,4.24-13.13,3.54-28.65-1.38-38.33a51.31,51.31,0,0,1-23.75,5.69,50.71,50.71,0,0,1-23.76-5.69c-4.92,9.68-5.62,25.2-1.38,38.33,4.1,12.65,12,24.17,25.14,31.41" transform="translate(-28.98 -36.72)"/><path class="b" d="M134.56,100.6c10.79-6.68,16.53-16.25,20.21-27C158,64,158.83,52.73,155.24,44a60.22,60.22,0,0,1-11.48,2.88,58.16,58.16,0,0,1-9.17.74h0a58.16,58.16,0,0,1-9.17-.74A60.58,60.58,0,0,1,113.91,44c-3.59,8.76-2.79,20,.47,29.58,3.68,10.8,9.43,20.37,20.21,27.05Z" transform="translate(-28.98 -36.72)"/><path class="a" d="M134.57,97.94c7.29-4.58,15.56-15,18.86-28.69,1.76-7.26,2.25-15.43,0-21.9a74.77,74.77,0,0,1-9.46,2,74.7,74.7,0,0,1-9.34.76h0a74.7,74.7,0,0,1-9.33-.76,74.91,74.91,0,0,1-9.47-2c-2.28,6.47-1.79,14.64,0,21.9C119,83,127.29,93.36,134.58,97.94Z" transform="translate(-28.98 -36.72)"/><path class="b" d="M127.13,55a5.15,5.15,0,0,0-2.21,6.72A7.8,7.8,0,0,0,130,65.86a13.62,13.62,0,0,0,3.36.47,20,20,0,0,1,4,.45,1.15,1.15,0,0,1,.74.52,1.1,1.1,0,0,1-.67,1.62c0,1.17-.12,3.53-.12,3.53s5.72-.54,4.75-5.69a4.66,4.66,0,0,0-2.31-3.06c-2.87-1.47-6-.83-9-1.78-1-.32-2.36-.82-2.63-1.93-.11-.44,0-1.33.44-1.48.75-.23,1.57.39,2.64.64a3.88,3.88,0,0,0,1.89,0c.24-.07.59-.17.62-.3s-.3-.23-.44-.3a10.46,10.46,0,0,0-1-.39,11.92,11.92,0,0,1-1.78-.84,8,8,0,0,1,2.07-.08,10.53,10.53,0,0,0,2.25-.07c.09,0,.29-.1.2-.26s-.43-.37-.61-.62A3.44,3.44,0,0,0,133,54.91a7.05,7.05,0,0,0-5.86.07" transform="translate(-28.98 -36.72)"/><path class="b" d="M136.68,73.34l0-6a13.56,13.56,0,0,0-1.85-.24c-1.4-.09-2-.07-2-.07v.51A2.74,2.74,0,0,0,132,68c0,.09-.22.32-.14.54a21.25,21.25,0,0,1,1.54,4.51c1,.14,2,.11,3.25.29" transform="translate(-28.98 -36.72)"/><path class="b" d="M129.5,72.43a3.56,3.56,0,0,0,3,4,35.88,35.88,0,0,0,4.05.56,2.66,2.66,0,0,1,.84.15.66.66,0,0,1,.41.41.52.52,0,0,1-.1.56,1.24,1.24,0,0,1-.55.29l-.08,2.83a4.82,4.82,0,0,0,2.06-.6,3.19,3.19,0,0,0,1.61-2,3.36,3.36,0,0,0-.62-2.88A4.31,4.31,0,0,0,138,74.37a27.6,27.6,0,0,0-5.21-.74.61.61,0,0,1-.53-.48.68.68,0,0,1,.37-.64s-.21-.67-.43-1.33c-.2-.5-.47-1.19-.67-1.56a3.44,3.44,0,0,0-2.07,2.81" transform="translate(-28.98 -36.72)"/><path class="b" d="M136.53,77.66l0,5.09-1.28-.59L134,81.64l0-4.24c1.13.13,1.64.15,2.6.26" transform="translate(-28.98 -36.72)"/><path class="b" d="M130.84,80.46a3.05,3.05,0,0,0,1.56,3.94c.73.35,1.68.68,2.46,1s2.11,1.12,2.21,1.53c.07.25-.22.48-.22.48l0,2a3.71,3.71,0,0,0,1.44-.68,2.47,2.47,0,0,0,1-2.08c0-1.09-.51-1.93-2.05-2.84A36,36,0,0,0,133.41,82a.57.57,0,0,1-.25-.59.45.45,0,0,1,.2-.29l0-2.3a5.65,5.65,0,0,0-1.28.42,2.78,2.78,0,0,0-1.21,1.2" transform="translate(-28.98 -36.72)"/><path class="b" d="M136.32,87.22c0-.16,0-.19-.12-.3a4.48,4.48,0,0,0-.94-.67,10.16,10.16,0,0,0-1.14-.5s0,5.2.15,7.89c0,.61.36.77.95.8s.92-.41.93-.67c0-.86.14-4.59.17-6.55" transform="translate(-28.98 -36.72)"/><path class="b" d="M136.87,53.77c.26.19.26.21.34.59.18.83,0,2.13.15,2.7a.28.28,0,0,0,.42.1c1.15-.62,1.93-1.69,3.1-2.19.54-.23,2.06.53,1.71,1.68-.17.53-.41.61-.74,1-.68.7-1.64,1.37-2.48,2.28a14.08,14.08,0,0,0-1.69,1.77c-.14.22-.37.53-.37.53-1.61-.33-3.24-.27-4.5-.53V59.79s1.28-.22,1.52-.86a.45.45,0,0,0-.2-.4,3.78,3.78,0,0,0-.71-.37,11.5,11.5,0,0,1,3.33,1,.56.56,0,0,0-.06-.55c-.17-.2-.26-.26-.7-.36-.76-.2-2.83-.46-2.83-.46a13,13,0,0,0,1.76-.13c.39-.07.71-.14.8-.27s-.08-.5-.35-.8a5.89,5.89,0,0,1-.54-.59,6.49,6.49,0,0,0-.84-1,6.58,6.58,0,0,0-1-.63,3.55,3.55,0,0,1,.07-1.41.68.68,0,0,1,.75-.37,9.19,9.19,0,0,0,3.08,1.26" transform="translate(-28.98 -36.72)"/><path class="a" d="M132.8,55.71a1.6,1.6,0,0,1-.68.38c-.53.09-.45-.37-.81-.63s-.44,0-.64-.33c.77,0,1.78,0,2.36.55a.25.25,0,0,0-.23,0" transform="translate(-28.98 -36.72)"/><path class="a" d="M62.85,76.74a.31.31,0,0,1,.53,0l6.3,9.65a16.2,16.2,0,0,1-13.13,0l6.3-9.65a.31.31,0,0,1,.53,0" transform="translate(-28.98 -36.72)"/><path class="b" d="M132.86,89.14a3.34,3.34,0,0,0-.92,2,2.55,2.55,0,0,0,.37,1.73.43.43,0,0,0,.82,0c.13-.32-.06-.61.06-1.31a1.32,1.32,0,0,1,.49-.79l0-2.31a3.43,3.43,0,0,0-.78.63" transform="translate(-28.98 -36.72)"/><path class="a" d="M58.63,56.14a4.16,4.16,0,0,0,.72,4.63.22.22,0,0,1-.06.39H50.85a16.27,16.27,0,0,1,7.78-5" transform="translate(-28.98 -36.72)"/><path class="a" d="M152,100.38a3.27,3.27,0,0,1,.94,2.3A3.17,3.17,0,0,1,152,105a3.35,3.35,0,0,1-2.33,1,3.3,3.3,0,0,1-3.26-3.27,3.35,3.35,0,0,1,1-2.35,3.15,3.15,0,0,1,2.27-.92,3.23,3.23,0,0,1,2.34,1m-.3.3a2.82,2.82,0,0,0-2-.85,2.77,2.77,0,0,0-2,.81,2.93,2.93,0,0,0-.87,2,2.79,2.79,0,0,0,.84,2,2.76,2.76,0,0,0,2,.85,2.88,2.88,0,0,0,2-.84,2.74,2.74,0,0,0,.82-2,2.85,2.85,0,0,0-.8-2m-.4,1.1a1,1,0,0,1-.85,1l.83,1.69h-.78l-.76-1.58H149v1.58h-.7v-3.71h1.4c1,0,1.55.35,1.55,1m-2.25-.56v1.22h.59c.64,0,.94-.15.94-.59s-.3-.63-1-.63Z" transform="translate(-28.98 -36.72)"/><path class="a" d="M86.27,100.38a3.27,3.27,0,0,1,.94,2.3,3.13,3.13,0,0,1-.95,2.3,3.33,3.33,0,0,1-2.33,1,3.3,3.3,0,0,1-3.26-3.27,3.35,3.35,0,0,1,1-2.35,3.15,3.15,0,0,1,2.27-.92,3.23,3.23,0,0,1,2.34,1m-.3.3a2.82,2.82,0,0,0-2-.85,2.77,2.77,0,0,0-2,.81,2.91,2.91,0,0,0-.86,2,2.83,2.83,0,0,0,.83,2,2.79,2.79,0,0,0,2,.85,2.85,2.85,0,0,0,2-.84,2.71,2.71,0,0,0,.83-2,2.86,2.86,0,0,0-.81-2m-.4,1.1a1,1,0,0,1-.85,1l.83,1.69h-.78L84,102.89h-.69v1.58h-.7v-3.71H84c1,0,1.55.35,1.55,1m-2.25-.56v1.22h.59c.64,0,.94-.15.94-.59s-.3-.63-.95-.63Z" transform="translate(-28.98 -36.72)"/><path class="b" d="M210.59,92.82,189.83,62.47V92.82H182V48.74h8l19.8,28.88V48.74h7.86V92.82Z" transform="translate(-28.98 -36.72)"/><path class="b" d="M244.51,93.59c-12.84,0-20.89-9.07-20.89-22.75S232,48,244.45,48a23,23,0,0,1,12.33,3.2l-1.21,8a17.74,17.74,0,0,0-10.74-3.9c-7.79,0-12.58,6-12.58,15.53s5.11,15.46,12.9,15.46a20.19,20.19,0,0,0,11.18-3.7l1.15,7.28A24.24,24.24,0,0,1,244.51,93.59Z" transform="translate(-28.98 -36.72)"/></svg>