<svg xmlns="http://www.w3.org/2000/svg" xmlns:xlink="http://www.w3.org/1999/xlink" viewBox="0 0 312.66 85.49"><defs><style>.a{fill:none;clip-rule:evenodd;}.b,.bd{fill:#c6c6c5;}.c{fill:#c7d1ea;}.d{clip-path:url(#a);}.e{fill:#c8d1eb;}.f{fill:#c9d2eb;}.g{fill:#cad3ec;}.h{fill:#cbd4ec;}.i{fill:#ccd4ec;}.j{fill:#cdd5ed;}.k{fill:#ced6ed;}.l{fill:#cfd7ed;}.m{fill:#d0d8ee;}.n{fill:#d1d9ee;}.o{fill:#d2d9ee;}.p{fill:#d3daef;}.q{fill:#d4dbef;}.r{fill:#d5dcf0;}.s{fill:#d6ddf0;}.t{fill:#d7def0;}.u{fill:#d8def1;}.v{fill:#d9dff1;}.w{fill:#dae0f2;}.x{fill:#dbe1f2;}.y{fill:#dce2f2;}.z{fill:#dee3f3;}.aa{fill:#dfe3f3;}.ab{fill:#e0e4f3;}.ac{fill:#e1e5f4;}.ad{fill:#e2e6f4;}.ae{fill:#e3e7f4;}.af{fill:#e4e8f5;}.ag{fill:#e5e9f5;}.ah{fill:#e6e9f6;}.ai{fill:#e7eaf6;}.aj{fill:#e8ebf6;}.ak{fill:#e9ecf7;}.al{fill:#eaedf7;}.am{fill:#ebeef8;}.an{fill:#eceff8;}.ao{fill:#eef0f8;}.ap{fill:#eff0f9;}.aq{fill:#f0f1f9;}.ar{fill:#f1f2fa;}.as{fill:#f2f3fa;}.at{fill:#f3f4fa;}.au{fill:#f4f5fb;}.av{fill:#f5f6fb;}.aw{fill:#f7f8fc;}.ax{fill:#f8f9fc;}.ay{fill:#fafafd;}.az{fill:#fbfcfe;}.ba{fill:#fdfdfe;}.bb,.bc{fill:#fff;}.bc,.bd{fill-rule:evenodd;}</style><clipPath id="a" transform="translate(-23.67 -29.26)"><path class="a" d="M56.61,73.48c0-3.52-2.51-5.16-5.84-5.16S44.92,70,44.92,73.48c0,4.14,3.11,5.27,5.85,5.27S56.61,77.62,56.61,73.48Z"/></clipPath></defs><title>cyberknife_w</title><rect class="b" x="14.09" y="22.01" width="285.14" height="0.94"/><rect class="c" y="42.44" width="14.56" height="2.54"/><rect class="c" x="31.79" y="42.44" width="175.36" height="2.54"/><rect class="c" x="220.39" y="42.44" width="92.27" height="2.54"/><g class="d"><rect class="c" x="21.25" y="39.06" width="11.69" height="10.43"/><circle class="c" cx="27.1" cy="44.28" r="7.83"/><circle class="e" cx="27.1" cy="44.28" r="7.68"/><circle class="f" cx="27.1" cy="44.28" r="7.53"/><circle class="g" cx="27.1" cy="44.28" r="7.37"/><circle class="h" cx="27.1" cy="44.28" r="7.22"/><circle class="i" cx="27.1" cy="44.28" r="7.07"/><circle class="j" cx="27.1" cy="44.28" r="6.91"/><circle class="k" cx="27.1" cy="44.28" r="6.76"/><circle class="l" cx="27.1" cy="44.28" r="6.61"/><circle class="m" cx="27.1" cy="44.28" r="6.45"/><circle class="n" cx="27.1" cy="44.28" r="6.3"/><circle class="o" cx="27.1" cy="44.28" r="6.14"/><circle class="p" cx="27.1" cy="44.28" r="5.99"/><circle class="q" cx="27.1" cy="44.28" r="5.84"/><circle class="r" cx="27.1" cy="44.28" r="5.68"/><circle class="s" cx="27.1" cy="44.28" r="5.53"/><circle class="t" cx="27.1" cy="44.28" r="5.38"/><circle class="u" cx="27.1" cy="44.28" r="5.22"/><circle class="v" cx="27.1" cy="44.28" r="5.07"/><circle class="w" cx="27.1" cy="44.28" r="4.92"/><circle class="x" cx="27.1" cy="44.28" r="4.76"/><circle class="y" cx="27.1" cy="44.28" r="4.61"/><circle class="z" cx="27.1" cy="44.28" r="4.45"/><circle class="aa" cx="27.1" cy="44.28" r="4.3"/><circle class="ab" cx="27.1" cy="44.28" r="4.15"/><circle class="ac" cx="27.1" cy="44.28" r="3.99"/><circle class="ad" cx="27.1" cy="44.28" r="3.84"/><circle class="ae" cx="27.1" cy="44.28" r="3.69"/><circle class="af" cx="27.1" cy="44.28" r="3.53"/><circle class="ag" cx="27.1" cy="44.28" r="3.38"/><circle class="ah" cx="27.1" cy="44.28" r="3.23"/><circle class="ai" cx="27.1" cy="44.28" r="3.07"/><circle class="aj" cx="27.1" cy="44.28" r="2.92"/><circle class="ak" cx="27.1" cy="44.28" r="2.77"/><circle class="al" cx="27.1" cy="44.28" r="2.61"/><circle class="am" cx="27.1" cy="44.28" r="2.46"/><circle class="an" cx="27.1" cy="44.28" r="2.3"/><circle class="ao" cx="27.1" cy="44.28" r="2.15"/><circle class="ap" cx="27.1" cy="44.28" r="2"/><circle class="aq" cx="27.1" cy="44.28" r="1.84"/><circle class="ar" cx="27.1" cy="44.28" r="1.69"/><circle class="as" cx="27.1" cy="44.28" r="1.54"/><circle class="at" cx="27.1" cy="44.28" r="1.38"/><circle class="au" cx="27.1" cy="44.28" r="1.23"/><circle class="av" cx="27.1" cy="44.28" r="1.08"/><circle class="aw" cx="27.1" cy="44.28" r="0.92"/><circle class="ax" cx="27.1" cy="44.28" r="0.77"/><circle class="ay" cx="27.1" cy="44.28" r="0.61"/><circle class="az" cx="27.1" cy="44.28" r="0.46"/><circle class="ba" cx="27.1" cy="44.28" r="0.31"/><circle class="bb" cx="27.1" cy="44.28" r="0.15"/></g><polygon class="bb" points="58.7 42.32 52.81 35.96 49.17 35.96 57.31 44.73 57.31 51.23 60.06 51.23 60.06 44.73 68.06 35.96 64.5 35.96 58.7 42.32"/><path class="bb" d="M117.32,72.45a4,4,0,0,0,1.21-2.85c0-2.5-2.22-4.38-5.17-4.38H103.24V80.48h10.12a6.27,6.27,0,0,0,3.92-1,4.36,4.36,0,0,0,2-3.57A4.13,4.13,0,0,0,117.32,72.45Zm-1.54,5a3.68,3.68,0,0,1-2.42.52H106v-3.7h7.39c2.56,0,3.11.71,3.16,1.76A1.71,1.71,0,0,1,115.78,77.41Zm-2.42-5.73H106V67.77h7.39c1.18,0,2.45.48,2.45,1.81A2.25,2.25,0,0,1,113.36,71.68Z" transform="translate(-23.67 -29.26)"/><polygon class="bb" points="112.6 44.95 124.03 44.95 124.03 42.41 112.6 42.41 112.6 38.53 124.45 38.53 124.45 35.96 109.89 35.96 109.89 51.23 124.97 51.23 124.97 48.69 112.6 48.69 112.6 44.95"/><path class="bb" d="M176.07,73.42h0a4.2,4.2,0,0,0,2.09-3.54,4.73,4.73,0,0,0-2.47-4.05,6.37,6.37,0,0,0-3.32-.62H162.24V80.48H165v-6.2h6.07l4.06,6.2h3.22l-4.19-6.35A6.62,6.62,0,0,0,176.07,73.42Zm-.63-3.61a1.69,1.69,0,0,1-.95,1.52c-.49.32-1.12.41-2.77.41H165v-4h6.71c1.89,0,2.31.15,2.71.36h0A1.83,1.83,0,0,1,175.44,69.81Z" transform="translate(-23.67 -29.26)"/><polygon class="bb" points="219.28 46.98 208.81 35.96 206.44 35.96 206.44 51.23 209.16 51.23 209.16 40.18 219.62 51.23 222.01 51.23 222.01 35.96 219.28 35.96 219.28 46.98"/><rect class="bb" x="238.01" y="35.96" width="2.68" height="15.27"/><polygon class="bb" points="256.05 51.23 258.76 51.23 258.76 44.98 269.36 44.98 269.36 42.43 258.76 42.43 258.76 38.49 270.48 38.49 270.48 35.96 256.05 35.96 256.05 51.23"/><polygon class="bb" points="286.1 44.98 297 44.98 297 42.44 286.1 42.44 286.1 38.53 297.95 38.53 297.95 35.96 283.39 35.96 283.39 51.23 298.47 51.23 298.47 48.69 286.1 48.69 286.1 44.98"/><polygon class="bb" points="192.76 33.12 187 33.12 174.41 43.99 174.41 33.12 170.44 33.12 170.44 54.67 174.41 54.67 174.41 49.01 180.25 43.95 188.49 54.67 193.35 54.67 183.23 41.37 192.76 33.12"/><path class="bb" d="M58.43,77c-.47,2.66-3.9,4.75-7.83,4.75-6.37,0-8.63-4.5-8.63-8.36a8.5,8.5,0,0,1,8.63-8.35c3.71,0,6.54,1.5,7.58,4l.19.44h4.29l-.26-.92c-1.28-4.35-5.69-7-11.8-7-7.12,0-13.14,5.38-13.14,11.76,0,6.82,5.53,11.77,13.14,11.77,6.23,0,10.78-2.93,12.19-7.84l.26-.91H58.53Z" transform="translate(-23.67 -29.26)"/><path class="bb" d="M326.78,66.7c0-.45-.27-.65-.82-.65h-.88v2.3h.36v-1h.39l.62,1h.39l-.66-1A.6.6,0,0,0,326.78,66.7Zm-1.34.36v-.72h.48c.4,0,.51.12.51.34s-.14.38-.57.38Z" transform="translate(-23.67 -29.26)"/><path class="bb" d="M325.86,65.2a2,2,0,1,0,2,2A2,2,0,0,0,325.86,65.2Zm0,3.67a1.68,1.68,0,1,1,1.63-1.68A1.62,1.62,0,0,1,325.86,68.87Z" transform="translate(-23.67 -29.26)"/><path class="bc" d="M91,35.93l2.23-3.49,2.1,3.49ZM96.65,38l2.62,4.29H102L94.3,29.58H92.24L84.39,42.33h2.8L89.8,38Z" transform="translate(-23.67 -29.26)"/><path class="bc" d="M135,29.58v7.69c0,2.62-2.18,3.15-4.62,3.15-3.34,0-4.58-1.13-4.58-3.15V29.58h-2.39v8c0,3.84,3.87,5.1,7,5.11s7-1.24,7-5.07v-8Z" transform="translate(-23.67 -29.26)"/><path class="bc" d="M174.49,31.43c-1.14-1.18-4.11-2.17-7-2.17-2.09,0-6.75.78-6.72,4.1,0,2.52,3.19,3.32,7.06,3.2,1.94-.07,4.84.24,4.8,1.85-.05,1.76-3.59,1.89-5.06,1.94a7.69,7.69,0,0,1-6.22-2.24l-1.78,1.38c1.79,2.21,5,3,7.94,3,2.23,0,7.43-.61,7.44-3.88,0-3.59-3.82-4.13-6.71-4-1.55.08-5,0-5-1.54s3-1.85,4.21-1.85A10.75,10.75,0,0,1,172.92,33Z" transform="translate(-23.67 -29.26)"/><polygon class="bc" points="185.63 0.33 171.96 0.33 171.96 2.31 177.59 2.31 177.59 13.07 180.08 13.07 180.08 2.31 185.63 2.31 185.63 0.33"/><rect class="bb" x="208.23" y="0.33" width="2.44" height="12.75"/><polygon class="bc" points="249.31 0.33 246.93 0.33 246.93 9.53 237.34 0.33 235.29 0.33 235.29 13.07 237.52 13.07 237.52 3.63 247.13 13.07 249.31 13.07 249.31 0.33"/><path class="bd" d="M52.08,110.57h1.67l-.62-1.37-.11-.3-.11-.38a3.25,3.25,0,0,1-.11.37,2.24,2.24,0,0,1-.11.31l-.61,1.37Zm2.69,2.35-.68-1.54H51.72l-.7,1.54H50l2.9-6.22,2.9,6.22Z" transform="translate(-23.67 -29.26)"/><path class="bd" d="M61.25,111A1.43,1.43,0,0,0,61,110a1,1,0,0,0-.78-.33,1,1,0,0,0-.79.34,1.47,1.47,0,0,0-.29,1,1.42,1.42,0,0,0,.28,1,1.06,1.06,0,0,0,1.57,0,1.51,1.51,0,0,0,.3-1Zm0-4.39h.89v6.34h-.89v-.5a1.49,1.49,0,0,1-.55.49,1.73,1.73,0,0,1-2-.39,2.31,2.31,0,0,1-.48-1.54,2.2,2.2,0,0,1,.49-1.5,1.57,1.57,0,0,1,1.26-.57,1.52,1.52,0,0,1,.81.2,1.14,1.14,0,0,1,.49.57Z" transform="translate(-23.67 -29.26)"/><path class="bd" d="M67.06,111.11H64a1.31,1.31,0,0,0,.32.85,1,1,0,0,0,.77.31,1.33,1.33,0,0,0,.72-.18,1.58,1.58,0,0,0,.5-.59l.74.42a2.21,2.21,0,0,1-.81.87,2.18,2.18,0,0,1-1.13.29,2,2,0,0,1-1.48-.57,2.07,2.07,0,0,1-.55-1.52,2.05,2.05,0,0,1,.57-1.5,1.94,1.94,0,0,1,1.46-.58,2,2,0,0,1,1.46.53,2.06,2.06,0,0,1,.52,1.5v.17Zm-.92-.59a.92.92,0,0,0-.32-.64,1.07,1.07,0,0,0-.72-.22,1.13,1.13,0,0,0-.71.21,1.22,1.22,0,0,0-.37.65Z" transform="translate(-23.67 -29.26)"/><path class="bd" d="M68.84,111a1.4,1.4,0,0,0,.31,1,1,1,0,0,0,.79.36,1,1,0,0,0,.78-.34,1.47,1.47,0,0,0,.27-1,1.41,1.41,0,0,0-.29-1,1,1,0,0,0-.79-.34,1,1,0,0,0-.78.33,1.43,1.43,0,0,0-.29.94ZM68,114.74V109h.88v.64a1.16,1.16,0,0,1,.5-.57,1.63,1.63,0,0,1,.82-.2,1.56,1.56,0,0,1,1.25.57,2.25,2.25,0,0,1,.48,1.5,2.36,2.36,0,0,1-.47,1.54,1.63,1.63,0,0,1-1.3.56,1.54,1.54,0,0,1-1.28-.66v2.32Z" transform="translate(-23.67 -29.26)"/><path class="bd" d="M76.51,112.92h-.89v-.5a1.49,1.49,0,0,1-.55.49,1.57,1.57,0,0,1-.73.17,1.6,1.6,0,0,1-1.29-.56,2.31,2.31,0,0,1-.48-1.54,2.2,2.2,0,0,1,.49-1.5,1.57,1.57,0,0,1,1.26-.57,1.52,1.52,0,0,1,.81.2,1.14,1.14,0,0,1,.49.57V109h.89v3.88Zm-.86-2a1.48,1.48,0,0,0-.28-.94,1,1,0,0,0-.79-.33,1,1,0,0,0-.79.34,1.74,1.74,0,0,0,0,1.91,1.06,1.06,0,0,0,1.57,0A1.49,1.49,0,0,0,75.65,111Z" transform="translate(-23.67 -29.26)"/><path class="bd" d="M78.62,109.66a1.27,1.27,0,0,1,.38-.57.91.91,0,0,1,.58-.18,1.5,1.5,0,0,1,.37,0,2.6,2.6,0,0,1,.36.13l-.32.76a.64.64,0,0,0-.25-.12.92.92,0,0,0-.29,0,.68.68,0,0,0-.64.35,2.65,2.65,0,0,0-.19,1.19v1.7h-.89V109h.89Z" transform="translate(-23.67 -29.26)"/><polygon class="bd" points="57.35 83.66 57.35 80.56 56.68 80.56 56.68 79.79 57.35 79.79 57.35 78.32 58.24 78.32 58.24 79.79 58.92 79.79 58.92 80.56 58.24 80.56 58.24 83.66 57.35 83.66"/><path class="bd" d="M84.24,112.92h-.89V109h.84v.64a1.61,1.61,0,0,1,.6-.59,1.54,1.54,0,0,1,.79-.19,1.36,1.36,0,0,1,.76.19,1.16,1.16,0,0,1,.45.58,2.09,2.09,0,0,1,.65-.59,1.7,1.7,0,0,1,.79-.18,1.57,1.57,0,0,1,.67.14,1,1,0,0,1,.44.41,1,1,0,0,1,.11.31,2.12,2.12,0,0,1,0,.5v2.66H88.6v-2a2.11,2.11,0,0,0-.17-1,.66.66,0,0,0-.59-.25.84.84,0,0,0-.74.34,2.19,2.19,0,0,0-.22,1.16v1.77H86v-2a2.13,2.13,0,0,0-.17-1,.67.67,0,0,0-.6-.28,1,1,0,0,0-.48.12.83.83,0,0,0-.34.33.81.81,0,0,0-.12.33,5.64,5.64,0,0,0,0,.72Z" transform="translate(-23.67 -29.26)"/><path class="bd" d="M94.41,111.11h-3.1a1.32,1.32,0,0,0,.33.85,1,1,0,0,0,.77.31,1.29,1.29,0,0,0,.71-.18,1.42,1.42,0,0,0,.5-.59l.75.42a2.28,2.28,0,0,1-.81.87,2.18,2.18,0,0,1-1.13.29,2,2,0,0,1-1.49-.57,2.11,2.11,0,0,1-.55-1.52,2.09,2.09,0,0,1,.57-1.5,2,2,0,0,1,1.47-.58,2,2,0,0,1,1.46.53,2.06,2.06,0,0,1,.52,1.5v.17Zm-.92-.59a1,1,0,0,0-.32-.64,1.3,1.3,0,0,0-1.43,0,1.22,1.22,0,0,0-.37.65Z" transform="translate(-23.67 -29.26)"/><path class="bd" d="M95.33,112.92V109h.84v.64a1.66,1.66,0,0,1,.62-.59,1.94,1.94,0,0,1,.88-.18,1.69,1.69,0,0,1,.74.14,1,1,0,0,1,.47.4,1.08,1.08,0,0,1,.15.38,4,4,0,0,1,0,.74v2.35h-.9v-2a1.83,1.83,0,0,0-.19-1,.78.78,0,0,0-.66-.25,1.23,1.23,0,0,0-.55.12.85.85,0,0,0-.38.32.74.74,0,0,0-.14.36,3.81,3.81,0,0,0,0,.69v1.77Z" transform="translate(-23.67 -29.26)"/><polygon class="bd" points="76.8 83.66 76.8 80.56 76.12 80.56 76.12 79.79 76.8 79.79 76.8 78.32 77.68 78.32 77.68 79.79 78.36 79.79 78.36 80.56 77.68 80.56 77.68 83.66 76.8 83.66"/><path class="bd" d="M108,111a1.29,1.29,0,0,0-.34-.91,1.12,1.12,0,0,0-.85-.38,1.11,1.11,0,0,0-.85.38,1.29,1.29,0,0,0-.35.91,1.32,1.32,0,0,0,.35.92,1.1,1.1,0,0,0,.85.37,1.13,1.13,0,0,0,.85-.37A1.31,1.31,0,0,0,108,111Zm-3.33,0a2.17,2.17,0,0,1,.16-.81,2.2,2.2,0,0,1,.47-.67,2.29,2.29,0,0,1,.69-.45,2.2,2.2,0,0,1,.81-.15,2.25,2.25,0,0,1,.82.15,2.3,2.3,0,0,1,.7.46,2,2,0,0,1,.46.68,1.92,1.92,0,0,1,.16.79,2,2,0,0,1-.16.8,1.87,1.87,0,0,1-.46.67,2.13,2.13,0,0,1-.7.46,2.3,2.3,0,0,1-.82.16,2.25,2.25,0,0,1-.81-.16,2.11,2.11,0,0,1-.69-.45,2.19,2.19,0,0,1-.47-.68A2.15,2.15,0,0,1,104.68,111Z" transform="translate(-23.67 -29.26)"/><path class="bd" d="M110,112.92v-3.1h-.68V109H110v-1a1.74,1.74,0,0,1,.32-1.14,1.29,1.29,0,0,1,1-.36,1.42,1.42,0,0,1,.29,0,1.55,1.55,0,0,1,.31.06v.8a1,1,0,0,0-.21-.09l-.22,0a.52.52,0,0,0-.46.2,1.2,1.2,0,0,0-.14.66V109h.93v.78h-.93v3.1Z" transform="translate(-23.67 -29.26)"/><path class="bd" d="M115.67,112h.82a4.17,4.17,0,0,0,1-.09,1.5,1.5,0,0,0,.59-.3,1.83,1.83,0,0,0,.51-.72,2.85,2.85,0,0,0,.17-1,2.79,2.79,0,0,0-.17-1,1.7,1.7,0,0,0-.51-.72,1.53,1.53,0,0,0-.61-.31,4.82,4.82,0,0,0-1.1-.09h-.71V112Zm-1,.88v-6H116a9,9,0,0,1,1.8.13,2.42,2.42,0,0,1,1.7,1.45,3.56,3.56,0,0,1,.27,1.42,3.48,3.48,0,0,1-.27,1.41,2.54,2.54,0,0,1-.78,1,2.5,2.5,0,0,1-.9.43,6.55,6.55,0,0,1-1.56.13H114.7Z" transform="translate(-23.67 -29.26)"/><path class="bd" d="M124.56,111.11h-3.1a1.31,1.31,0,0,0,.32.85,1,1,0,0,0,.78.31,1.31,1.31,0,0,0,.71-.18,1.49,1.49,0,0,0,.5-.59l.74.42a2.09,2.09,0,0,1-1.94,1.16,2,2,0,0,1-1.48-.57,2.32,2.32,0,0,1,0-3,2.2,2.2,0,0,1,2.92,0,2.06,2.06,0,0,1,.53,1.5v.17Zm-.93-.59a1,1,0,0,0-.31-.64,1.1,1.1,0,0,0-.73-.22,1.08,1.08,0,0,0-.7.21,1.16,1.16,0,0,0-.37.65Z" transform="translate(-23.67 -29.26)"/><rect class="b" x="101.85" y="77.33" width="0.89" height="6.34"/><rect class="b" x="104.05" y="77.33" width="0.89" height="6.34"/><path class="bd" d="M131.77,111.72l.78-.36a1,1,0,0,0,.41.61,1.23,1.23,0,0,0,.75.21,1,1,0,0,0,.69-.24.83.83,0,0,0,.25-.64c0-.36-.29-.67-.87-.94l-.19-.09a4.39,4.39,0,0,1-1.32-.88,1.43,1.43,0,0,1-.33-1,1.55,1.55,0,0,1,.5-1.19,1.85,1.85,0,0,1,1.3-.45,2.22,2.22,0,0,1,1.11.25,1.37,1.37,0,0,1,.62.74l-.76.39a1.12,1.12,0,0,0-.4-.41.9.9,0,0,0-.49-.13.92.92,0,0,0-.63.2.72.72,0,0,0-.23.55c0,.36.34.69,1,1l.12.06a3.74,3.74,0,0,1,1.22.8,1.47,1.47,0,0,1,.33,1,1.77,1.77,0,0,1-.54,1.35,2,2,0,0,1-1.44.5,2.16,2.16,0,0,1-1.26-.35A1.68,1.68,0,0,1,131.77,111.72Z" transform="translate(-23.67 -29.26)"/><path class="bd" d="M140.37,111.11h-3.1a1.32,1.32,0,0,0,.33.85,1,1,0,0,0,.77.31,1.29,1.29,0,0,0,.71-.18,1.42,1.42,0,0,0,.5-.59l.75.42a2.28,2.28,0,0,1-.81.87,2.18,2.18,0,0,1-1.13.29,2,2,0,0,1-1.49-.57,2.11,2.11,0,0,1-.55-1.52,2.09,2.09,0,0,1,.57-1.5,2,2,0,0,1,1.47-.58,2,2,0,0,1,1.46.53,2.06,2.06,0,0,1,.52,1.5v.17Zm-.92-.59a1,1,0,0,0-.32-.64,1.3,1.3,0,0,0-1.43,0,1.22,1.22,0,0,0-.37.65Z" transform="translate(-23.67 -29.26)"/><polygon class="bd" points="117.83 83.66 117.83 80.56 117.16 80.56 117.16 79.79 117.83 79.79 117.83 78.32 118.72 78.32 118.72 79.79 119.4 79.79 119.4 80.56 118.72 80.56 118.72 83.66 117.83 83.66"/><path class="bd" d="M146.88,111a1.29,1.29,0,0,0-.35-.91,1.11,1.11,0,0,0-.85-.38,1.14,1.14,0,0,0-.85.38,1.29,1.29,0,0,0-.35.91,1.32,1.32,0,0,0,.35.92,1.13,1.13,0,0,0,.85.37,1.11,1.11,0,0,0,.85-.37,1.32,1.32,0,0,0,.35-.92Zm-3.33,0a2,2,0,0,1,.16-.81,2.17,2.17,0,0,1,.46-.67,2.29,2.29,0,0,1,.69-.45,2.24,2.24,0,0,1,.81-.15,2.31,2.31,0,0,1,.83.15,2.25,2.25,0,0,1,.69.46,2.08,2.08,0,0,1,.47.68,2.1,2.1,0,0,1,.16.79,2.09,2.09,0,0,1-1.33,1.93,2.16,2.16,0,0,1-1.63,0,2.11,2.11,0,0,1-.69-.45,2.15,2.15,0,0,1-.46-.68A2,2,0,0,1,143.55,111Z" transform="translate(-23.67 -29.26)"/><path class="bd" d="M148.75,112.92V109h.84v.64a1.66,1.66,0,0,1,.62-.59,1.94,1.94,0,0,1,.88-.18,1.69,1.69,0,0,1,.74.14,1,1,0,0,1,.47.4,1.08,1.08,0,0,1,.15.38,4.25,4.25,0,0,1,0,.74v2.35h-.89v-2a1.83,1.83,0,0,0-.19-1,.78.78,0,0,0-.66-.25,1.23,1.23,0,0,0-.55.12.85.85,0,0,0-.38.32.74.74,0,0,0-.14.36,3.81,3.81,0,0,0,0,.69v1.77Z" transform="translate(-23.67 -29.26)"/><path class="bd" d="M160.8,110s0-.17-.05-.38,0-.32-.06-.43a2.92,2.92,0,0,1-.1.4,3.69,3.69,0,0,1-.17.42l-1.57,3.19-1.56-3.25c-.07-.14-.12-.27-.17-.39s-.09-.25-.13-.37a2.77,2.77,0,0,1,0,.39,3.58,3.58,0,0,1-.08.43l-.64,3h-.89l1.41-6.24,1.77,3.78c0,.06.07.16.12.3s.12.31.2.51c.06-.17.15-.39.27-.65,0-.07.06-.13.08-.17l1.72-3.77,1.45,6.24h-.9Z" transform="translate(-23.67 -29.26)"/><path class="bd" d="M166.81,111.11h-3.1a1.31,1.31,0,0,0,.32.85,1,1,0,0,0,.77.31,1.33,1.33,0,0,0,.72-.18,1.49,1.49,0,0,0,.5-.59l.74.42a2.09,2.09,0,0,1-1.94,1.16,2,2,0,0,1-1.48-.57,2.32,2.32,0,0,1,0-3,2.2,2.2,0,0,1,2.92,0,2.06,2.06,0,0,1,.53,1.5v.17Zm-.93-.59a1,1,0,0,0-.31-.64,1.1,1.1,0,0,0-.73-.22,1.08,1.08,0,0,0-.7.21,1.16,1.16,0,0,0-.37.65Z" transform="translate(-23.67 -29.26)"/><path class="bd" d="M170.52,111a1.48,1.48,0,0,0-.28-.94,1,1,0,0,0-.79-.33,1,1,0,0,0-.79.34,1.47,1.47,0,0,0-.29,1,1.42,1.42,0,0,0,.28,1,1.06,1.06,0,0,0,1.57,0,1.45,1.45,0,0,0,.3-1Zm0-4.39h.89v6.34h-.89v-.5a1.49,1.49,0,0,1-.55.49,1.73,1.73,0,0,1-2-.39,2.31,2.31,0,0,1-.48-1.54,2.2,2.2,0,0,1,.49-1.5,1.57,1.57,0,0,1,1.26-.57,1.52,1.52,0,0,1,.81.2,1.14,1.14,0,0,1,.49.57Z" transform="translate(-23.67 -29.26)"/><path class="bd" d="M172.52,107.37a.56.56,0,1,1,1,.4.53.53,0,0,1-.39.16.54.54,0,0,1-.4-.17.54.54,0,0,1-.17-.39Zm.12,5.55V109h.89v3.88Z" transform="translate(-23.67 -29.26)"/><path class="bd" d="M177.69,110.15a1.21,1.21,0,0,0-.47-.34,1.48,1.48,0,0,0-.59-.12,1.12,1.12,0,0,0-.87.35,1.29,1.29,0,0,0-.33.93,1.32,1.32,0,0,0,.33,1,1.2,1.2,0,0,0,.91.35,1.34,1.34,0,0,0,.58-.12,1.28,1.28,0,0,0,.44-.37v1a2.36,2.36,0,0,1-.52.21,2.9,2.9,0,0,1-.6.07,2,2,0,0,1-1.48-.58,2,2,0,0,1-.58-1.51,2,2,0,0,1,.6-1.51,2.13,2.13,0,0,1,1.55-.57,2.47,2.47,0,0,1,.56.06,1.76,1.76,0,0,1,.47.18Z" transform="translate(-23.67 -29.26)"/><path class="bd" d="M182.25,112.92h-.89v-.5a1.49,1.49,0,0,1-.55.49,1.73,1.73,0,0,1-2-.39,2.31,2.31,0,0,1-.48-1.54,2.2,2.2,0,0,1,.49-1.5,1.57,1.57,0,0,1,1.26-.57,1.52,1.52,0,0,1,.81.2,1.14,1.14,0,0,1,.49.57V109h.89v3.88Zm-.86-2a1.43,1.43,0,0,0-.29-.94,1,1,0,0,0-.78-.33,1,1,0,0,0-.79.34,1.47,1.47,0,0,0-.29,1,1.42,1.42,0,0,0,.28,1,1,1,0,0,0,1.56,0A1.49,1.49,0,0,0,181.39,111Z" transform="translate(-23.67 -29.26)"/><rect class="b" x="159.84" y="77.33" width="0.89" height="6.34"/><path class="bd" d="M192.72,108.39a3.33,3.33,0,0,0-.87-.53,2.87,2.87,0,0,0-1-.17,2.15,2.15,0,0,0-1.6.63,2.44,2.44,0,0,0,0,3.22,2,2,0,0,0,1.51.63,2.87,2.87,0,0,0,1-.18,3.49,3.49,0,0,0,.92-.57v1.1a2.75,2.75,0,0,1-.86.42,3.5,3.5,0,0,1-1,.14,3.44,3.44,0,0,1-1.26-.23,3,3,0,0,1-1.7-1.67,3.32,3.32,0,0,1,0-2.48,3,3,0,0,1,.68-1,3,3,0,0,1,1-.67,3.43,3.43,0,0,1,1.25-.23,3.32,3.32,0,0,1,1,.15,3.7,3.7,0,0,1,.93.47Z" transform="translate(-23.67 -29.26)"/><path class="bd" d="M197.58,111.11h-3.1a1.32,1.32,0,0,0,.33.85,1,1,0,0,0,.77.31,1.33,1.33,0,0,0,.72-.18,1.58,1.58,0,0,0,.5-.59l.74.42a2.28,2.28,0,0,1-.81.87,2.18,2.18,0,0,1-1.13.29,2,2,0,0,1-1.48-.57,2.3,2.3,0,0,1,0-3,2,2,0,0,1,1.47-.58,2,2,0,0,1,1.46.53,2.06,2.06,0,0,1,.52,1.5v.17Zm-.92-.59a.92.92,0,0,0-.32-.64,1.07,1.07,0,0,0-.72-.22,1.11,1.11,0,0,0-.71.21,1.22,1.22,0,0,0-.37.65Z" transform="translate(-23.67 -29.26)"/><path class="bd" d="M198.5,112.92V109h.84v.64a1.73,1.73,0,0,1,.62-.59,2,2,0,0,1,.88-.18,1.69,1.69,0,0,1,.74.14,1,1,0,0,1,.47.4,1.08,1.08,0,0,1,.15.38,4,4,0,0,1,.05.74v2.35h-.9v-2a2,2,0,0,0-.18-1,.82.82,0,0,0-.67-.25,1.23,1.23,0,0,0-.55.12.89.89,0,0,0-.52.68,3.81,3.81,0,0,0,0,.69v1.77Z" transform="translate(-23.67 -29.26)"/><polygon class="bd" points="179.97 83.66 179.97 80.56 179.29 80.56 179.29 79.79 179.97 79.79 179.97 78.32 180.85 78.32 180.85 79.79 181.53 79.79 181.53 80.56 180.85 80.56 180.85 83.66 179.97 83.66"/><path class="bd" d="M209.7,111.11h-3.1a1.31,1.31,0,0,0,.32.85,1,1,0,0,0,.78.31,1.31,1.31,0,0,0,.71-.18,1.49,1.49,0,0,0,.5-.59l.75.42a2.28,2.28,0,0,1-.81.87,2.18,2.18,0,0,1-1.13.29,2,2,0,0,1-1.49-.57,2.32,2.32,0,0,1,0-3,2.2,2.2,0,0,1,2.92,0,2.06,2.06,0,0,1,.53,1.5v.17Zm-.92-.59a1,1,0,0,0-.32-.64,1.3,1.3,0,0,0-1.43,0,1.16,1.16,0,0,0-.37.65Z" transform="translate(-23.67 -29.26)"/><path class="bd" d="M211.51,109.66a1.27,1.27,0,0,1,.38-.57.91.91,0,0,1,.58-.18,1.5,1.5,0,0,1,.37,0,2.6,2.6,0,0,1,.36.13l-.32.76a.64.64,0,0,0-.25-.12.92.92,0,0,0-.29,0,.68.68,0,0,0-.64.35,2.65,2.65,0,0,0-.19,1.19v1.7h-.89V109h.89Z" transform="translate(-23.67 -29.26)"/><path class="bd" d="M219.53,112.92h-.89v-.5a1.49,1.49,0,0,1-.55.49,1.73,1.73,0,0,1-2-.39,2.31,2.31,0,0,1-.48-1.54,2.2,2.2,0,0,1,.49-1.5,1.57,1.57,0,0,1,1.26-.57,1.52,1.52,0,0,1,.81.2,1.14,1.14,0,0,1,.49.57V109h.89v3.88Zm-.87-2a1.42,1.42,0,0,0-.28-.94,1,1,0,0,0-.78-.33,1,1,0,0,0-.79.34,1.47,1.47,0,0,0-.29,1,1.42,1.42,0,0,0,.28,1,.94.94,0,0,0,.78.34,1,1,0,0,0,.78-.36A1.49,1.49,0,0,0,218.66,111Z" transform="translate(-23.67 -29.26)"/><polygon class="bd" points="197.29 83.66 197.29 80.56 196.61 80.56 196.61 79.79 197.29 79.79 197.29 78.32 198.18 78.32 198.18 79.79 198.86 79.79 198.86 80.56 198.18 80.56 198.18 83.66 197.29 83.66"/><polygon class="bd" points="203.8 78.51 203.8 83.66 202.83 83.66 202.83 78.51 201.24 78.51 201.24 77.68 205.38 77.68 205.38 78.51 203.8 78.51"/><path class="bd" d="M229.72,112.92v-6.34h.84v3.1a1.66,1.66,0,0,1,.62-.59,1.94,1.94,0,0,1,.88-.18,1.69,1.69,0,0,1,.74.14,1,1,0,0,1,.47.4,1.08,1.08,0,0,1,.15.38,4.25,4.25,0,0,1,0,.74v2.35h-.89v-2a1.83,1.83,0,0,0-.19-1,.78.78,0,0,0-.66-.25,1.2,1.2,0,0,0-.55.12.85.85,0,0,0-.38.32.74.74,0,0,0-.14.36,3.81,3.81,0,0,0,0,.69v1.77Z" transform="translate(-23.67 -29.26)"/><path class="bd" d="M238.38,111.11h-3.1a1.31,1.31,0,0,0,.32.85,1,1,0,0,0,.78.31,1.31,1.31,0,0,0,.71-.18,1.49,1.49,0,0,0,.5-.59l.74.42a2.19,2.19,0,0,1-.8.87,2.22,2.22,0,0,1-1.14.29,2,2,0,0,1-1.48-.57,2.32,2.32,0,0,1,0-3,2.2,2.2,0,0,1,2.92,0,2.06,2.06,0,0,1,.53,1.5v.17Zm-.92-.59a1,1,0,0,0-.32-.64,1.1,1.1,0,0,0-.73-.22,1.08,1.08,0,0,0-.7.21,1.16,1.16,0,0,0-.37.65Z" transform="translate(-23.67 -29.26)"/><path class="bd" d="M241.52,106.93h1v3.64a1.72,1.72,0,0,0,.37,1.21,1.72,1.72,0,0,0,2.23,0,1.72,1.72,0,0,0,.38-1.21v-3.64h1v3.73a2.5,2.5,0,0,1-.61,1.82,3.15,3.15,0,0,1-3.7,0,2.48,2.48,0,0,1-.61-1.82Z" transform="translate(-23.67 -29.26)"/><path class="bd" d="M247.7,112.92V109h.84v.64a1.73,1.73,0,0,1,.62-.59,1.94,1.94,0,0,1,.88-.18,1.69,1.69,0,0,1,.74.14,1,1,0,0,1,.47.4,1.08,1.08,0,0,1,.15.38,4,4,0,0,1,0,.74v2.35h-.9v-2a1.83,1.83,0,0,0-.19-1,.78.78,0,0,0-.66-.25,1.23,1.23,0,0,0-.55.12.89.89,0,0,0-.52.68,3.81,3.81,0,0,0,0,.69v1.77Z" transform="translate(-23.67 -29.26)"/><path class="bd" d="M252.55,107.37a.54.54,0,0,1,.17-.39.53.53,0,0,1,.39-.16.52.52,0,0,1,.55.55.54.54,0,0,1-.16.4.5.5,0,0,1-.39.16.58.58,0,0,1-.56-.56Zm.12,5.55V109h.88v3.88Z" transform="translate(-23.67 -29.26)"/><path class="bd" d="M256.18,113.15l-2-4.11h1L256,111a2.78,2.78,0,0,1,.09.27c0,.12.08.27.12.43,0-.11.06-.23.1-.35s.08-.23.13-.35l.84-1.95h1Z" transform="translate(-23.67 -29.26)"/><path class="bd" d="M262.51,111.11h-3.1a1.31,1.31,0,0,0,.32.85,1,1,0,0,0,.78.31,1.31,1.31,0,0,0,.71-.18,1.49,1.49,0,0,0,.5-.59l.74.42a2.19,2.19,0,0,1-.8.87,2.22,2.22,0,0,1-1.14.29,2,2,0,0,1-1.48-.57,2.32,2.32,0,0,1,0-3,2.2,2.2,0,0,1,2.92,0,2.06,2.06,0,0,1,.53,1.5v.17Zm-.92-.59a1,1,0,0,0-.32-.64,1.1,1.1,0,0,0-.73-.22,1.08,1.08,0,0,0-.7.21,1.16,1.16,0,0,0-.37.65Z" transform="translate(-23.67 -29.26)"/><path class="bd" d="M264.32,109.66a1.35,1.35,0,0,1,.37-.57,1,1,0,0,1,.59-.18,1.55,1.55,0,0,1,.37,0,2.6,2.6,0,0,1,.36.13l-.32.76a.64.64,0,0,0-.25-.12,1,1,0,0,0-.3,0,.67.67,0,0,0-.63.35,2.65,2.65,0,0,0-.19,1.19v1.7h-.89V109h.89Z" transform="translate(-23.67 -29.26)"/><path class="bd" d="M266.07,112.22l.73-.41a.78.78,0,0,0,.31.45,1,1,0,0,0,.56.15.73.73,0,0,0,.47-.14.43.43,0,0,0,.17-.37q0-.32-.6-.54l-.32-.13a2.57,2.57,0,0,1-.87-.52.93.93,0,0,1-.24-.64,1,1,0,0,1,.4-.85,1.71,1.71,0,0,1,1.08-.32,1.65,1.65,0,0,1,.77.17,1,1,0,0,1,.47.47l-.63.43a.62.62,0,0,0-.24-.29.78.78,0,0,0-.41-.11.62.62,0,0,0-.4.12.4.4,0,0,0-.16.32c0,.2.23.39.69.55l.33.13a1.89,1.89,0,0,1,.77.48,1,1,0,0,1,.23.67,1.09,1.09,0,0,1-.42.91,1.84,1.84,0,0,1-1.16.33,1.9,1.9,0,0,1-.94-.21A1.5,1.5,0,0,1,266.07,112.22Z" transform="translate(-23.67 -29.26)"/><path class="bd" d="M270,107.37a.54.54,0,0,1,.17-.39.53.53,0,0,1,.39-.16.57.57,0,0,1,.4,1,.57.57,0,0,1-1-.4Zm.12,5.55V109H271v3.88Z" transform="translate(-23.67 -29.26)"/><polygon class="bd" points="248.81 83.66 248.81 80.56 248.13 80.56 248.13 79.79 248.81 79.79 248.81 78.32 249.7 78.32 249.7 79.79 250.38 79.79 250.38 80.56 249.7 80.56 249.7 83.66 248.81 83.66"/><path class="bd" d="M275.48,114.74h-.91l1.06-2.16L274.21,109h1l.71,2c0,.12.08.25.11.37s.05.26.07.39a4.7,4.7,0,0,1,.26-.65l0,0,.95-2.07h1Z" transform="translate(-23.67 -29.26)"/><path class="bd" d="M284,111a1.29,1.29,0,0,0-.35-.91,1.14,1.14,0,0,0-1.7,0,1.29,1.29,0,0,0-.35.91,1.32,1.32,0,0,0,.35.92,1.11,1.11,0,0,0,.85.37,1.13,1.13,0,0,0,.85-.37A1.32,1.32,0,0,0,284,111Zm-3.34,0a2.09,2.09,0,0,1,.63-1.48,2.29,2.29,0,0,1,.69-.45,2.24,2.24,0,0,1,.81-.15,2.21,2.21,0,0,1,.82.15,2.3,2.3,0,0,1,.7.46,2,2,0,0,1,.46.68,1.92,1.92,0,0,1,.16.79,2,2,0,0,1-.61,1.47,2.21,2.21,0,0,1-1.53.62,2.25,2.25,0,0,1-.81-.16,2.11,2.11,0,0,1-.69-.45,2.19,2.19,0,0,1-.47-.68A2.15,2.15,0,0,1,280.64,111Z" transform="translate(-23.67 -29.26)"/><path class="bd" d="M286,112.92v-3.1h-.67V109H286v-1a1.69,1.69,0,0,1,.33-1.14,1.25,1.25,0,0,1,1-.36,1.42,1.42,0,0,1,.29,0,1.55,1.55,0,0,1,.31.06v.8a1,1,0,0,0-.21-.09.83.83,0,0,0-.22,0,.53.53,0,0,0-.46.2,1.2,1.2,0,0,0-.14.66V109h.93v.78h-.93v3.1Z" transform="translate(-23.67 -29.26)"/><polygon class="bd" points="268.93 78.51 268.93 83.66 267.96 83.66 267.96 78.51 266.37 78.51 266.37 77.68 270.51 77.68 270.51 78.51 268.93 78.51"/><path class="bd" d="M297.74,111.11h-3.1a1.31,1.31,0,0,0,.32.85,1,1,0,0,0,.78.31,1.31,1.31,0,0,0,.71-.18,1.49,1.49,0,0,0,.5-.59l.75.42a2.28,2.28,0,0,1-.81.87,2.18,2.18,0,0,1-1.13.29,2,2,0,0,1-1.49-.57,2.32,2.32,0,0,1,0-3,2.2,2.2,0,0,1,2.92,0,2.06,2.06,0,0,1,.53,1.5v.17Zm-.92-.59a1,1,0,0,0-.32-.64,1.3,1.3,0,0,0-1.43,0,1.16,1.16,0,0,0-.37.65Z" transform="translate(-23.67 -29.26)"/><path class="bd" d="M298.93,112.92h-1l1.46-2.09L298.16,109h1l.54.8.15.24.12.23.11-.2.16-.27.54-.8h1l-1.25,1.8,1.45,2.08h-1l-.72-1,0-.05a2.57,2.57,0,0,1-.27-.48l-.16.29a2.52,2.52,0,0,1-.15.24Z" transform="translate(-23.67 -29.26)"/><path class="bd" d="M306.1,112.92h-.88v-.5a1.54,1.54,0,0,1-1.28.66,1.63,1.63,0,0,1-1.3-.56,2.36,2.36,0,0,1-.47-1.54,2.25,2.25,0,0,1,.48-1.5,1.57,1.57,0,0,1,1.26-.57,1.48,1.48,0,0,1,.81.2,1.16,1.16,0,0,1,.5.57V109h.88v3.88Zm-.86-2A1.42,1.42,0,0,0,305,110a1,1,0,0,0-.78-.33,1,1,0,0,0-.79.34,1.47,1.47,0,0,0-.29,1,1.42,1.42,0,0,0,.28,1,.93.93,0,0,0,.78.34,1,1,0,0,0,.78-.36A1.49,1.49,0,0,0,305.24,111Z" transform="translate(-23.67 -29.26)"/><path class="bd" d="M306.88,112.22l.74-.41a.73.73,0,0,0,.3.45,1,1,0,0,0,.57.15.75.75,0,0,0,.47-.14.45.45,0,0,0,.17-.37c0-.21-.2-.39-.61-.54a2.65,2.65,0,0,1-.31-.13,2.38,2.38,0,0,1-.87-.52.89.89,0,0,1-.25-.64,1,1,0,0,1,.41-.85,1.71,1.71,0,0,1,1.08-.32,1.68,1.68,0,0,1,.77.17,1,1,0,0,1,.46.47l-.63.43a.52.52,0,0,0-.24-.29.75.75,0,0,0-.4-.11.65.65,0,0,0-.41.12.39.39,0,0,0-.15.32c0,.2.23.39.68.55l.34.13a2,2,0,0,1,.77.48,1,1,0,0,1,.23.67,1.09,1.09,0,0,1-.42.91,1.85,1.85,0,0,1-1.17.33,1.92,1.92,0,0,1-.94-.21A1.56,1.56,0,0,1,306.88,112.22Z" transform="translate(-23.67 -29.26)"/></svg>