<svg xmlns="http://www.w3.org/2000/svg" xmlns:xlink="http://www.w3.org/1999/xlink" viewBox="0 0 312.66 85.49"><defs><style>.a,.j{fill:#231f20;}.b{fill:#c7d1ea;}.c,.d,.f,.g,.h,.j{fill-rule:evenodd;}.c{fill:url(#a);}.d,.e,.f,.g,.h,.i{fill:#005daa;}.d,.e,.f,.g{stroke:#005daa;}.d,.e{stroke-width:1.26px;}.f{stroke-width:1.88px;}.g{stroke-width:1.43px;}</style><radialGradient id="a" cx="50.76" cy="73.53" r="7.83" gradientUnits="userSpaceOnUse"><stop offset="0" stop-color="#fff"/><stop offset="1" stop-color="#c7d1ea"/></radialGradient></defs><title>cyberknife</title><rect class="a" x="14.09" y="22.01" width="285.14" height="0.94"/><rect class="b" y="42.44" width="14.56" height="2.54"/><rect class="b" x="31.79" y="42.44" width="175.36" height="2.54"/><rect class="b" x="220.39" y="42.44" width="92.27" height="2.54"/><path class="c" d="M56.61,73.48c0-3.52-2.51-5.16-5.84-5.16S44.92,70,44.92,73.48c0,4.14,3.11,5.27,5.85,5.27S56.61,77.62,56.61,73.48Z" transform="translate(-23.67 -29.26)"/><polygon class="d" points="59.44 44.49 59.44 50.6 57.94 50.6 57.94 44.49 50.61 36.59 52.53 36.59 58.7 43.24 64.78 36.59 66.64 36.59 59.44 44.49"/><path class="d" d="M113.36,73.61h-8v5h8a4.19,4.19,0,0,0,2.81-.66,2.33,2.33,0,0,0,1-1.94c-.09-2-1.82-2.35-3.79-2.35Zm0-6.47h-8v5.17h8a2.87,2.87,0,0,0,3.07-2.73c0-1.58-1.34-2.44-3.07-2.44ZM116.93,79a5.68,5.68,0,0,1-3.57.84h-9.49v-14h9.49c2.51,0,4.54,1.53,4.54,3.76a3.72,3.72,0,0,1-1.62,3,3.77,3.77,0,0,1,2.36,3.4A3.72,3.72,0,0,1,116.93,79Z" transform="translate(-23.67 -29.26)"/><polygon class="d" points="110.52 50.6 110.52 36.59 123.83 36.59 123.83 37.9 111.97 37.9 111.97 43.04 123.41 43.04 123.41 44.32 111.97 44.32 111.97 49.32 124.34 49.32 124.34 50.6 110.52 50.6"/><path class="d" d="M174.72,67.55c-.56-.3-1.14-.43-3-.43h-7.34v5.25h7.34c1.71,0,2.46-.09,3.11-.51a2.32,2.32,0,0,0,1.23-2,2.45,2.45,0,0,0-1.34-2.26Zm1,5.33a6.39,6.39,0,0,1-2.64.77l4.09,6.2h-1.71l-4.07-6.2h-7v6.2h-1.51v-14h9.5a5.7,5.7,0,0,1,3,.57,4.09,4.09,0,0,1,2.12,3.48A3.61,3.61,0,0,1,175.74,72.88Z" transform="translate(-23.67 -29.26)"/><polygon class="d" points="219.89 50.6 208.53 38.6 208.53 50.6 207.06 50.6 207.06 36.59 208.53 36.59 219.91 48.55 219.91 36.59 221.38 36.59 221.38 50.6 219.89 50.6"/><rect class="e" x="238.64" y="36.59" width="1.43" height="14.01"/><polygon class="d" points="258.13 37.87 258.13 43.05 268.74 43.05 268.74 44.35 258.13 44.35 258.13 50.6 256.68 50.6 256.68 36.59 269.85 36.59 269.85 37.87 258.13 37.87"/><polygon class="d" points="284.02 50.6 284.02 36.59 297.32 36.59 297.32 37.9 285.47 37.9 285.47 43.07 296.37 43.07 296.37 44.35 285.47 44.35 285.47 49.32 297.84 49.32 297.84 50.6 284.02 50.6"/><polygon class="f" points="188.96 53.73 180.39 42.59 173.47 48.58 173.47 53.73 171.38 53.73 171.38 34.06 173.47 34.06 173.47 46.05 187.35 34.06 190.23 34.06 181.94 41.24 191.44 53.73 188.96 53.73"/><path class="g" d="M58.84,68.81c-1.22-2.94-4.44-4.46-8.24-4.46a9.18,9.18,0,0,0-9.35,9.07c0,4.64,2.9,9.07,9.35,9.07,4.12,0,8-2.24,8.53-5.33h3c-1.36,4.75-5.87,7.32-11.5,7.32-7.45,0-12.43-4.79-12.43-11.06s6-11.05,12.43-11.05c5.84,0,9.93,2.39,11.11,6.44Z" transform="translate(-23.67 -29.26)"/><path class="h" d="M325.44,67.06h.42c.43,0,.57-.13.57-.38s-.11-.34-.51-.34h-.48v.72Zm0,1.29h-.36v-2.3H326c.55,0,.82.2.82.65a.6.6,0,0,1-.6.64l.66,1h-.39l-.62-1h-.39v1Zm.42-2.83a1.68,1.68,0,1,1-1.64,1.67,1.62,1.62,0,0,1,1.64-1.67Zm0-.32a2,2,0,1,1-2,2A2,2,0,0,1,325.86,65.2Z" transform="translate(-23.67 -29.26)"/><path class="h" d="M91,35.93l2.23-3.49,2.1,3.49ZM96.65,38l2.62,4.29H102L94.3,29.58H92.24L84.39,42.33h2.8L89.8,38Z" transform="translate(-23.67 -29.26)"/><path class="h" d="M135,29.58v7.69c0,2.62-2.18,3.15-4.62,3.15-3.34,0-4.58-1.13-4.58-3.15V29.58h-2.39v8c0,3.84,3.87,5.1,7,5.11s7-1.24,7-5.07v-8Z" transform="translate(-23.67 -29.26)"/><path class="h" d="M174.49,31.43c-1.14-1.18-4.11-2.17-7-2.17-2.09,0-6.75.78-6.72,4.1,0,2.52,3.19,3.32,7.06,3.2,1.94-.07,4.84.24,4.8,1.85-.05,1.76-3.59,1.89-5.06,1.94a7.69,7.69,0,0,1-6.22-2.24l-1.78,1.38c1.79,2.21,5,3,7.94,3,2.23,0,7.43-.61,7.44-3.88,0-3.59-3.82-4.13-6.71-4-1.55.08-5,0-5-1.54s3-1.85,4.21-1.85A10.75,10.75,0,0,1,172.92,33Z" transform="translate(-23.67 -29.26)"/><polygon class="h" points="185.63 0.33 171.96 0.33 171.96 2.31 177.59 2.31 177.59 13.07 180.08 13.07 180.08 2.31 185.63 2.31 185.63 0.33"/><rect class="i" x="208.23" y="0.33" width="2.44" height="12.75"/><polygon class="h" points="249.31 0.33 246.93 0.33 246.93 9.53 237.34 0.33 235.29 0.33 235.29 13.07 237.52 13.07 237.52 3.63 247.13 13.07 249.31 13.07 249.31 0.33"/><path class="j" d="M52.08,110.57h1.67l-.62-1.37-.11-.3-.11-.38a3.25,3.25,0,0,1-.11.37,2.24,2.24,0,0,1-.11.31l-.61,1.37Zm2.69,2.35-.68-1.54H51.72l-.7,1.54H50l2.9-6.22,2.9,6.22Z" transform="translate(-23.67 -29.26)"/><path class="j" d="M61.25,111A1.43,1.43,0,0,0,61,110a1,1,0,0,0-.78-.33,1,1,0,0,0-.79.34,1.47,1.47,0,0,0-.29,1,1.42,1.42,0,0,0,.28,1,1.06,1.06,0,0,0,1.57,0,1.51,1.51,0,0,0,.3-1Zm0-4.39h.89v6.34h-.89v-.5a1.49,1.49,0,0,1-.55.49,1.73,1.73,0,0,1-2-.39,2.31,2.31,0,0,1-.48-1.54,2.2,2.2,0,0,1,.49-1.5,1.57,1.57,0,0,1,1.26-.57,1.52,1.52,0,0,1,.81.2,1.14,1.14,0,0,1,.49.57Z" transform="translate(-23.67 -29.26)"/><path class="j" d="M67.06,111.11H64a1.31,1.31,0,0,0,.32.85,1,1,0,0,0,.77.31,1.33,1.33,0,0,0,.72-.18,1.58,1.58,0,0,0,.5-.59l.74.42a2.21,2.21,0,0,1-.81.87,2.18,2.18,0,0,1-1.13.29,2,2,0,0,1-1.48-.57,2.07,2.07,0,0,1-.55-1.52,2.05,2.05,0,0,1,.57-1.5,1.94,1.94,0,0,1,1.46-.58,2,2,0,0,1,1.46.53,2.06,2.06,0,0,1,.52,1.5v.17Zm-.92-.59a.92.92,0,0,0-.32-.64,1.07,1.07,0,0,0-.72-.22,1.13,1.13,0,0,0-.71.21,1.22,1.22,0,0,0-.37.65Z" transform="translate(-23.67 -29.26)"/><path class="j" d="M68.84,111a1.4,1.4,0,0,0,.31,1,1,1,0,0,0,.79.36,1,1,0,0,0,.78-.34,1.47,1.47,0,0,0,.27-1,1.41,1.41,0,0,0-.29-1,1,1,0,0,0-.79-.34,1,1,0,0,0-.78.33,1.43,1.43,0,0,0-.29.94ZM68,114.74V109h.88v.64a1.16,1.16,0,0,1,.5-.57,1.63,1.63,0,0,1,.82-.2,1.56,1.56,0,0,1,1.25.57,2.25,2.25,0,0,1,.48,1.5,2.36,2.36,0,0,1-.47,1.54,1.63,1.63,0,0,1-1.3.56,1.54,1.54,0,0,1-1.28-.66v2.32Z" transform="translate(-23.67 -29.26)"/><path class="j" d="M76.51,112.92h-.89v-.5a1.49,1.49,0,0,1-.55.49,1.57,1.57,0,0,1-.73.17,1.6,1.6,0,0,1-1.29-.56,2.31,2.31,0,0,1-.48-1.54,2.2,2.2,0,0,1,.49-1.5,1.57,1.57,0,0,1,1.26-.57,1.52,1.52,0,0,1,.81.2,1.14,1.14,0,0,1,.49.57V109h.89v3.88Zm-.86-2a1.48,1.48,0,0,0-.28-.94,1,1,0,0,0-.79-.33,1,1,0,0,0-.79.34,1.74,1.74,0,0,0,0,1.91,1.06,1.06,0,0,0,1.57,0A1.49,1.49,0,0,0,75.65,111Z" transform="translate(-23.67 -29.26)"/><path class="j" d="M78.62,109.66a1.27,1.27,0,0,1,.38-.57.91.91,0,0,1,.58-.18,1.5,1.5,0,0,1,.37,0,2.6,2.6,0,0,1,.36.13l-.32.76a.64.64,0,0,0-.25-.12.92.92,0,0,0-.29,0,.68.68,0,0,0-.64.35,2.65,2.65,0,0,0-.19,1.19v1.7h-.89V109h.89Z" transform="translate(-23.67 -29.26)"/><polygon class="j" points="57.35 83.66 57.35 80.56 56.68 80.56 56.68 79.79 57.35 79.79 57.35 78.32 58.24 78.32 58.24 79.79 58.92 79.79 58.92 80.56 58.24 80.56 58.24 83.66 57.35 83.66"/><path class="j" d="M84.24,112.92h-.89V109h.84v.64a1.61,1.61,0,0,1,.6-.59,1.54,1.54,0,0,1,.79-.19,1.36,1.36,0,0,1,.76.19,1.16,1.16,0,0,1,.45.58,2.09,2.09,0,0,1,.65-.59,1.7,1.7,0,0,1,.79-.18,1.57,1.57,0,0,1,.67.14,1,1,0,0,1,.44.41,1,1,0,0,1,.11.31,2.12,2.12,0,0,1,0,.5v2.66H88.6v-2a2.11,2.11,0,0,0-.17-1,.66.66,0,0,0-.59-.25.84.84,0,0,0-.74.34,2.19,2.19,0,0,0-.22,1.16v1.77H86v-2a2.13,2.13,0,0,0-.17-1,.67.67,0,0,0-.6-.28,1,1,0,0,0-.48.12.83.83,0,0,0-.34.33.81.81,0,0,0-.12.33,5.64,5.64,0,0,0,0,.72Z" transform="translate(-23.67 -29.26)"/><path class="j" d="M94.41,111.11h-3.1a1.32,1.32,0,0,0,.33.85,1,1,0,0,0,.77.31,1.29,1.29,0,0,0,.71-.18,1.42,1.42,0,0,0,.5-.59l.75.42a2.28,2.28,0,0,1-.81.87,2.18,2.18,0,0,1-1.13.29,2,2,0,0,1-1.49-.57,2.11,2.11,0,0,1-.55-1.52,2.09,2.09,0,0,1,.57-1.5,2,2,0,0,1,1.47-.58,2,2,0,0,1,1.46.53,2.06,2.06,0,0,1,.52,1.5v.17Zm-.92-.59a1,1,0,0,0-.32-.64,1.3,1.3,0,0,0-1.43,0,1.22,1.22,0,0,0-.37.65Z" transform="translate(-23.67 -29.26)"/><path class="j" d="M95.33,112.92V109h.84v.64a1.66,1.66,0,0,1,.62-.59,1.94,1.94,0,0,1,.88-.18,1.69,1.69,0,0,1,.74.14,1,1,0,0,1,.47.4,1.08,1.08,0,0,1,.15.38,4,4,0,0,1,0,.74v2.35h-.9v-2a1.83,1.83,0,0,0-.19-1,.78.78,0,0,0-.66-.25,1.23,1.23,0,0,0-.55.12.85.85,0,0,0-.38.32.74.74,0,0,0-.14.36,3.81,3.81,0,0,0,0,.69v1.77Z" transform="translate(-23.67 -29.26)"/><polygon class="j" points="76.8 83.66 76.8 80.56 76.12 80.56 76.12 79.79 76.8 79.79 76.8 78.32 77.68 78.32 77.68 79.79 78.36 79.79 78.36 80.56 77.68 80.56 77.68 83.66 76.8 83.66"/><path class="j" d="M108,111a1.29,1.29,0,0,0-.34-.91,1.12,1.12,0,0,0-.85-.38,1.11,1.11,0,0,0-.85.38,1.29,1.29,0,0,0-.35.91,1.32,1.32,0,0,0,.35.92,1.1,1.1,0,0,0,.85.37,1.13,1.13,0,0,0,.85-.37A1.31,1.31,0,0,0,108,111Zm-3.33,0a2.17,2.17,0,0,1,.16-.81,2.2,2.2,0,0,1,.47-.67,2.29,2.29,0,0,1,.69-.45,2.2,2.2,0,0,1,.81-.15,2.25,2.25,0,0,1,.82.15,2.3,2.3,0,0,1,.7.46,2,2,0,0,1,.46.68,1.92,1.92,0,0,1,.16.79,2,2,0,0,1-.16.8,1.87,1.87,0,0,1-.46.67,2.13,2.13,0,0,1-.7.46,2.3,2.3,0,0,1-.82.16,2.25,2.25,0,0,1-.81-.16,2.11,2.11,0,0,1-.69-.45,2.19,2.19,0,0,1-.47-.68A2.15,2.15,0,0,1,104.68,111Z" transform="translate(-23.67 -29.26)"/><path class="j" d="M110,112.92v-3.1h-.68V109H110v-1a1.74,1.74,0,0,1,.32-1.14,1.29,1.29,0,0,1,1-.36,1.42,1.42,0,0,1,.29,0,1.55,1.55,0,0,1,.31.06v.8a1,1,0,0,0-.21-.09l-.22,0a.52.52,0,0,0-.46.2,1.2,1.2,0,0,0-.14.66V109h.93v.78h-.93v3.1Z" transform="translate(-23.67 -29.26)"/><path class="j" d="M115.67,112h.82a4.17,4.17,0,0,0,1-.09,1.5,1.5,0,0,0,.59-.3,1.83,1.83,0,0,0,.51-.72,2.85,2.85,0,0,0,.17-1,2.79,2.79,0,0,0-.17-1,1.7,1.7,0,0,0-.51-.72,1.53,1.53,0,0,0-.61-.31,4.82,4.82,0,0,0-1.1-.09h-.71V112Zm-1,.88v-6H116a9,9,0,0,1,1.8.13,2.42,2.42,0,0,1,1.7,1.45,3.56,3.56,0,0,1,.27,1.42,3.48,3.48,0,0,1-.27,1.41,2.54,2.54,0,0,1-.78,1,2.5,2.5,0,0,1-.9.43,6.55,6.55,0,0,1-1.56.13H114.7Z" transform="translate(-23.67 -29.26)"/><path class="j" d="M124.56,111.11h-3.1a1.31,1.31,0,0,0,.32.85,1,1,0,0,0,.78.31,1.31,1.31,0,0,0,.71-.18,1.49,1.49,0,0,0,.5-.59l.74.42a2.09,2.09,0,0,1-1.94,1.16,2,2,0,0,1-1.48-.57,2.32,2.32,0,0,1,0-3,2.2,2.2,0,0,1,2.92,0,2.06,2.06,0,0,1,.53,1.5v.17Zm-.93-.59a1,1,0,0,0-.31-.64,1.1,1.1,0,0,0-.73-.22,1.08,1.08,0,0,0-.7.21,1.16,1.16,0,0,0-.37.65Z" transform="translate(-23.67 -29.26)"/><rect class="a" x="101.85" y="77.33" width="0.89" height="6.34"/><rect class="a" x="104.05" y="77.33" width="0.89" height="6.34"/><path class="j" d="M131.77,111.72l.78-.36a1,1,0,0,0,.41.61,1.23,1.23,0,0,0,.75.21,1,1,0,0,0,.69-.24.83.83,0,0,0,.25-.64c0-.36-.29-.67-.87-.94l-.19-.09a4.39,4.39,0,0,1-1.32-.88,1.43,1.43,0,0,1-.33-1,1.55,1.55,0,0,1,.5-1.19,1.85,1.85,0,0,1,1.3-.45,2.22,2.22,0,0,1,1.11.25,1.37,1.37,0,0,1,.62.74l-.76.39a1.12,1.12,0,0,0-.4-.41.9.9,0,0,0-.49-.13.92.92,0,0,0-.63.2.72.72,0,0,0-.23.55c0,.36.34.69,1,1l.12.06a3.74,3.74,0,0,1,1.22.8,1.47,1.47,0,0,1,.33,1,1.77,1.77,0,0,1-.54,1.35,2,2,0,0,1-1.44.5,2.16,2.16,0,0,1-1.26-.35A1.68,1.68,0,0,1,131.77,111.72Z" transform="translate(-23.67 -29.26)"/><path class="j" d="M140.37,111.11h-3.1a1.32,1.32,0,0,0,.33.85,1,1,0,0,0,.77.31,1.29,1.29,0,0,0,.71-.18,1.42,1.42,0,0,0,.5-.59l.75.42a2.28,2.28,0,0,1-.81.87,2.18,2.18,0,0,1-1.13.29,2,2,0,0,1-1.49-.57,2.11,2.11,0,0,1-.55-1.52,2.09,2.09,0,0,1,.57-1.5,2,2,0,0,1,1.47-.58,2,2,0,0,1,1.46.53,2.06,2.06,0,0,1,.52,1.5v.17Zm-.92-.59a1,1,0,0,0-.32-.64,1.3,1.3,0,0,0-1.43,0,1.22,1.22,0,0,0-.37.65Z" transform="translate(-23.67 -29.26)"/><polygon class="j" points="117.83 83.66 117.83 80.56 117.16 80.56 117.16 79.79 117.83 79.79 117.83 78.32 118.72 78.32 118.72 79.79 119.4 79.79 119.4 80.56 118.72 80.56 118.72 83.66 117.83 83.66"/><path class="j" d="M146.88,111a1.29,1.29,0,0,0-.35-.91,1.11,1.11,0,0,0-.85-.38,1.14,1.14,0,0,0-.85.38,1.29,1.29,0,0,0-.35.91,1.32,1.32,0,0,0,.35.92,1.13,1.13,0,0,0,.85.37,1.11,1.11,0,0,0,.85-.37,1.32,1.32,0,0,0,.35-.92Zm-3.33,0a2,2,0,0,1,.16-.81,2.17,2.17,0,0,1,.46-.67,2.29,2.29,0,0,1,.69-.45,2.24,2.24,0,0,1,.81-.15,2.31,2.31,0,0,1,.83.15,2.25,2.25,0,0,1,.69.46,2.08,2.08,0,0,1,.47.68,2.1,2.1,0,0,1,.16.79,2.09,2.09,0,0,1-1.33,1.93,2.16,2.16,0,0,1-1.63,0,2.11,2.11,0,0,1-.69-.45,2.15,2.15,0,0,1-.46-.68A2,2,0,0,1,143.55,111Z" transform="translate(-23.67 -29.26)"/><path class="j" d="M148.75,112.92V109h.84v.64a1.66,1.66,0,0,1,.62-.59,1.94,1.94,0,0,1,.88-.18,1.69,1.69,0,0,1,.74.14,1,1,0,0,1,.47.4,1.08,1.08,0,0,1,.15.38,4.25,4.25,0,0,1,0,.74v2.35h-.89v-2a1.83,1.83,0,0,0-.19-1,.78.78,0,0,0-.66-.25,1.23,1.23,0,0,0-.55.12.85.85,0,0,0-.38.32.74.74,0,0,0-.14.36,3.81,3.81,0,0,0,0,.69v1.77Z" transform="translate(-23.67 -29.26)"/><path class="j" d="M160.8,110s0-.17-.05-.38,0-.32-.06-.43a2.92,2.92,0,0,1-.1.4,3.69,3.69,0,0,1-.17.42l-1.57,3.19-1.56-3.25c-.07-.14-.12-.27-.17-.39s-.09-.25-.13-.37a2.77,2.77,0,0,1,0,.39,3.58,3.58,0,0,1-.08.43l-.64,3h-.89l1.41-6.24,1.77,3.78c0,.06.07.16.12.3s.12.31.2.51c.06-.17.15-.39.27-.65,0-.07.06-.13.08-.17l1.72-3.77,1.45,6.24h-.9Z" transform="translate(-23.67 -29.26)"/><path class="j" d="M166.81,111.11h-3.1a1.31,1.31,0,0,0,.32.85,1,1,0,0,0,.77.31,1.33,1.33,0,0,0,.72-.18,1.49,1.49,0,0,0,.5-.59l.74.42a2.09,2.09,0,0,1-1.94,1.16,2,2,0,0,1-1.48-.57,2.32,2.32,0,0,1,0-3,2.2,2.2,0,0,1,2.92,0,2.06,2.06,0,0,1,.53,1.5v.17Zm-.93-.59a1,1,0,0,0-.31-.64,1.1,1.1,0,0,0-.73-.22,1.08,1.08,0,0,0-.7.21,1.16,1.16,0,0,0-.37.65Z" transform="translate(-23.67 -29.26)"/><path class="j" d="M170.52,111a1.48,1.48,0,0,0-.28-.94,1,1,0,0,0-.79-.33,1,1,0,0,0-.79.34,1.47,1.47,0,0,0-.29,1,1.42,1.42,0,0,0,.28,1,1.06,1.06,0,0,0,1.57,0,1.45,1.45,0,0,0,.3-1Zm0-4.39h.89v6.34h-.89v-.5a1.49,1.49,0,0,1-.55.49,1.73,1.73,0,0,1-2-.39,2.31,2.31,0,0,1-.48-1.54,2.2,2.2,0,0,1,.49-1.5,1.57,1.57,0,0,1,1.26-.57,1.52,1.52,0,0,1,.81.2,1.14,1.14,0,0,1,.49.57Z" transform="translate(-23.67 -29.26)"/><path class="j" d="M172.52,107.37a.56.56,0,1,1,1,.4.53.53,0,0,1-.39.16.54.54,0,0,1-.4-.17.54.54,0,0,1-.17-.39Zm.12,5.55V109h.89v3.88Z" transform="translate(-23.67 -29.26)"/><path class="j" d="M177.69,110.15a1.21,1.21,0,0,0-.47-.34,1.48,1.48,0,0,0-.59-.12,1.12,1.12,0,0,0-.87.35,1.29,1.29,0,0,0-.33.93,1.32,1.32,0,0,0,.33,1,1.2,1.2,0,0,0,.91.35,1.34,1.34,0,0,0,.58-.12,1.28,1.28,0,0,0,.44-.37v1a2.36,2.36,0,0,1-.52.21,2.9,2.9,0,0,1-.6.07,2,2,0,0,1-1.48-.58,2,2,0,0,1-.58-1.51,2,2,0,0,1,.6-1.51,2.13,2.13,0,0,1,1.55-.57,2.47,2.47,0,0,1,.56.06,1.76,1.76,0,0,1,.47.18Z" transform="translate(-23.67 -29.26)"/><path class="j" d="M182.25,112.92h-.89v-.5a1.49,1.49,0,0,1-.55.49,1.73,1.73,0,0,1-2-.39,2.31,2.31,0,0,1-.48-1.54,2.2,2.2,0,0,1,.49-1.5,1.57,1.57,0,0,1,1.26-.57,1.52,1.52,0,0,1,.81.2,1.14,1.14,0,0,1,.49.57V109h.89v3.88Zm-.86-2a1.43,1.43,0,0,0-.29-.94,1,1,0,0,0-.78-.33,1,1,0,0,0-.79.34,1.47,1.47,0,0,0-.29,1,1.42,1.42,0,0,0,.28,1,1,1,0,0,0,1.56,0A1.49,1.49,0,0,0,181.39,111Z" transform="translate(-23.67 -29.26)"/><rect class="a" x="159.84" y="77.33" width="0.89" height="6.34"/><path class="j" d="M192.72,108.39a3.33,3.33,0,0,0-.87-.53,2.87,2.87,0,0,0-1-.17,2.15,2.15,0,0,0-1.6.63,2.44,2.44,0,0,0,0,3.22,2,2,0,0,0,1.51.63,2.87,2.87,0,0,0,1-.18,3.49,3.49,0,0,0,.92-.57v1.1a2.75,2.75,0,0,1-.86.42,3.5,3.5,0,0,1-1,.14,3.44,3.44,0,0,1-1.26-.23,3,3,0,0,1-1.7-1.67,3.32,3.32,0,0,1,0-2.48,3,3,0,0,1,.68-1,3,3,0,0,1,1-.67,3.43,3.43,0,0,1,1.25-.23,3.32,3.32,0,0,1,1,.15,3.7,3.7,0,0,1,.93.47Z" transform="translate(-23.67 -29.26)"/><path class="j" d="M197.58,111.11h-3.1a1.32,1.32,0,0,0,.33.85,1,1,0,0,0,.77.31,1.33,1.33,0,0,0,.72-.18,1.58,1.58,0,0,0,.5-.59l.74.42a2.28,2.28,0,0,1-.81.87,2.18,2.18,0,0,1-1.13.29,2,2,0,0,1-1.48-.57,2.3,2.3,0,0,1,0-3,2,2,0,0,1,1.47-.58,2,2,0,0,1,1.46.53,2.06,2.06,0,0,1,.52,1.5v.17Zm-.92-.59a.92.92,0,0,0-.32-.64,1.07,1.07,0,0,0-.72-.22,1.11,1.11,0,0,0-.71.21,1.22,1.22,0,0,0-.37.65Z" transform="translate(-23.67 -29.26)"/><path class="j" d="M198.5,112.92V109h.84v.64a1.73,1.73,0,0,1,.62-.59,2,2,0,0,1,.88-.18,1.69,1.69,0,0,1,.74.14,1,1,0,0,1,.47.4,1.08,1.08,0,0,1,.15.38,4,4,0,0,1,.05.74v2.35h-.9v-2a2,2,0,0,0-.18-1,.82.82,0,0,0-.67-.25,1.23,1.23,0,0,0-.55.12.89.89,0,0,0-.52.68,3.81,3.81,0,0,0,0,.69v1.77Z" transform="translate(-23.67 -29.26)"/><polygon class="j" points="179.97 83.66 179.97 80.56 179.29 80.56 179.29 79.79 179.97 79.79 179.97 78.32 180.85 78.32 180.85 79.79 181.53 79.79 181.53 80.56 180.85 80.56 180.85 83.66 179.97 83.66"/><path class="j" d="M209.7,111.11h-3.1a1.31,1.31,0,0,0,.32.85,1,1,0,0,0,.78.31,1.31,1.31,0,0,0,.71-.18,1.49,1.49,0,0,0,.5-.59l.75.42a2.28,2.28,0,0,1-.81.87,2.18,2.18,0,0,1-1.13.29,2,2,0,0,1-1.49-.57,2.32,2.32,0,0,1,0-3,2.2,2.2,0,0,1,2.92,0,2.06,2.06,0,0,1,.53,1.5v.17Zm-.92-.59a1,1,0,0,0-.32-.64,1.3,1.3,0,0,0-1.43,0,1.16,1.16,0,0,0-.37.65Z" transform="translate(-23.67 -29.26)"/><path class="j" d="M211.51,109.66a1.27,1.27,0,0,1,.38-.57.91.91,0,0,1,.58-.18,1.5,1.5,0,0,1,.37,0,2.6,2.6,0,0,1,.36.13l-.32.76a.64.64,0,0,0-.25-.12.92.92,0,0,0-.29,0,.68.68,0,0,0-.64.35,2.65,2.65,0,0,0-.19,1.19v1.7h-.89V109h.89Z" transform="translate(-23.67 -29.26)"/><path class="j" d="M219.53,112.92h-.89v-.5a1.49,1.49,0,0,1-.55.49,1.73,1.73,0,0,1-2-.39,2.31,2.31,0,0,1-.48-1.54,2.2,2.2,0,0,1,.49-1.5,1.57,1.57,0,0,1,1.26-.57,1.52,1.52,0,0,1,.81.2,1.14,1.14,0,0,1,.49.57V109h.89v3.88Zm-.87-2a1.42,1.42,0,0,0-.28-.94,1,1,0,0,0-.78-.33,1,1,0,0,0-.79.34,1.47,1.47,0,0,0-.29,1,1.42,1.42,0,0,0,.28,1,.94.94,0,0,0,.78.34,1,1,0,0,0,.78-.36A1.49,1.49,0,0,0,218.66,111Z" transform="translate(-23.67 -29.26)"/><polygon class="j" points="197.29 83.66 197.29 80.56 196.61 80.56 196.61 79.79 197.29 79.79 197.29 78.32 198.18 78.32 198.18 79.79 198.86 79.79 198.86 80.56 198.18 80.56 198.18 83.66 197.29 83.66"/><polygon class="j" points="203.8 78.51 203.8 83.66 202.83 83.66 202.83 78.51 201.24 78.51 201.24 77.68 205.38 77.68 205.38 78.51 203.8 78.51"/><path class="j" d="M229.72,112.92v-6.34h.84v3.1a1.66,1.66,0,0,1,.62-.59,1.94,1.94,0,0,1,.88-.18,1.69,1.69,0,0,1,.74.14,1,1,0,0,1,.47.4,1.08,1.08,0,0,1,.15.38,4.25,4.25,0,0,1,0,.74v2.35h-.89v-2a1.83,1.83,0,0,0-.19-1,.78.78,0,0,0-.66-.25,1.2,1.2,0,0,0-.55.12.85.85,0,0,0-.38.32.74.74,0,0,0-.14.36,3.81,3.81,0,0,0,0,.69v1.77Z" transform="translate(-23.67 -29.26)"/><path class="j" d="M238.38,111.11h-3.1a1.31,1.31,0,0,0,.32.85,1,1,0,0,0,.78.31,1.31,1.31,0,0,0,.71-.18,1.49,1.49,0,0,0,.5-.59l.74.42a2.19,2.19,0,0,1-.8.87,2.22,2.22,0,0,1-1.14.29,2,2,0,0,1-1.48-.57,2.32,2.32,0,0,1,0-3,2.2,2.2,0,0,1,2.92,0,2.06,2.06,0,0,1,.53,1.5v.17Zm-.92-.59a1,1,0,0,0-.32-.64,1.1,1.1,0,0,0-.73-.22,1.08,1.08,0,0,0-.7.21,1.16,1.16,0,0,0-.37.65Z" transform="translate(-23.67 -29.26)"/><path class="j" d="M241.52,106.93h1v3.64a1.72,1.72,0,0,0,.37,1.21,1.72,1.72,0,0,0,2.23,0,1.72,1.72,0,0,0,.38-1.21v-3.64h1v3.73a2.5,2.5,0,0,1-.61,1.82,3.15,3.15,0,0,1-3.7,0,2.48,2.48,0,0,1-.61-1.82Z" transform="translate(-23.67 -29.26)"/><path class="j" d="M247.7,112.92V109h.84v.64a1.73,1.73,0,0,1,.62-.59,1.94,1.94,0,0,1,.88-.18,1.69,1.69,0,0,1,.74.14,1,1,0,0,1,.47.4,1.08,1.08,0,0,1,.15.38,4,4,0,0,1,0,.74v2.35h-.9v-2a1.83,1.83,0,0,0-.19-1,.78.78,0,0,0-.66-.25,1.23,1.23,0,0,0-.55.12.89.89,0,0,0-.52.68,3.81,3.81,0,0,0,0,.69v1.77Z" transform="translate(-23.67 -29.26)"/><path class="j" d="M252.55,107.37a.54.54,0,0,1,.17-.39.53.53,0,0,1,.39-.16.52.52,0,0,1,.55.55.54.54,0,0,1-.16.4.5.5,0,0,1-.39.16.58.58,0,0,1-.56-.56Zm.12,5.55V109h.88v3.88Z" transform="translate(-23.67 -29.26)"/><path class="j" d="M256.18,113.15l-2-4.11h1L256,111a2.78,2.78,0,0,1,.09.27c0,.12.08.27.12.43,0-.11.06-.23.1-.35s.08-.23.13-.35l.84-1.95h1Z" transform="translate(-23.67 -29.26)"/><path class="j" d="M262.51,111.11h-3.1a1.31,1.31,0,0,0,.32.85,1,1,0,0,0,.78.31,1.31,1.31,0,0,0,.71-.18,1.49,1.49,0,0,0,.5-.59l.74.42a2.19,2.19,0,0,1-.8.87,2.22,2.22,0,0,1-1.14.29,2,2,0,0,1-1.48-.57,2.32,2.32,0,0,1,0-3,2.2,2.2,0,0,1,2.92,0,2.06,2.06,0,0,1,.53,1.5v.17Zm-.92-.59a1,1,0,0,0-.32-.64,1.1,1.1,0,0,0-.73-.22,1.08,1.08,0,0,0-.7.21,1.16,1.16,0,0,0-.37.65Z" transform="translate(-23.67 -29.26)"/><path class="j" d="M264.32,109.66a1.35,1.35,0,0,1,.37-.57,1,1,0,0,1,.59-.18,1.55,1.55,0,0,1,.37,0,2.6,2.6,0,0,1,.36.13l-.32.76a.64.64,0,0,0-.25-.12,1,1,0,0,0-.3,0,.67.67,0,0,0-.63.35,2.65,2.65,0,0,0-.19,1.19v1.7h-.89V109h.89Z" transform="translate(-23.67 -29.26)"/><path class="j" d="M266.07,112.22l.73-.41a.78.78,0,0,0,.31.45,1,1,0,0,0,.56.15.73.73,0,0,0,.47-.14.43.43,0,0,0,.17-.37q0-.32-.6-.54l-.32-.13a2.57,2.57,0,0,1-.87-.52.93.93,0,0,1-.24-.64,1,1,0,0,1,.4-.85,1.71,1.71,0,0,1,1.08-.32,1.65,1.65,0,0,1,.77.17,1,1,0,0,1,.47.47l-.63.43a.62.62,0,0,0-.24-.29.78.78,0,0,0-.41-.11.62.62,0,0,0-.4.12.4.4,0,0,0-.16.32c0,.2.23.39.69.55l.33.13a1.89,1.89,0,0,1,.77.48,1,1,0,0,1,.23.67,1.09,1.09,0,0,1-.42.91,1.84,1.84,0,0,1-1.16.33,1.9,1.9,0,0,1-.94-.21A1.5,1.5,0,0,1,266.07,112.22Z" transform="translate(-23.67 -29.26)"/><path class="j" d="M270,107.37a.54.54,0,0,1,.17-.39.53.53,0,0,1,.39-.16.57.57,0,0,1,.4,1,.57.57,0,0,1-1-.4Zm.12,5.55V109H271v3.88Z" transform="translate(-23.67 -29.26)"/><polygon class="j" points="248.81 83.66 248.81 80.56 248.13 80.56 248.13 79.79 248.81 79.79 248.81 78.32 249.7 78.32 249.7 79.79 250.38 79.79 250.38 80.56 249.7 80.56 249.7 83.66 248.81 83.66"/><path class="j" d="M275.48,114.74h-.91l1.06-2.16L274.21,109h1l.71,2c0,.12.08.25.11.37s.05.26.07.39a4.7,4.7,0,0,1,.26-.65l0,0,.95-2.07h1Z" transform="translate(-23.67 -29.26)"/><path class="j" d="M284,111a1.29,1.29,0,0,0-.35-.91,1.14,1.14,0,0,0-1.7,0,1.29,1.29,0,0,0-.35.91,1.32,1.32,0,0,0,.35.92,1.11,1.11,0,0,0,.85.37,1.13,1.13,0,0,0,.85-.37A1.32,1.32,0,0,0,284,111Zm-3.34,0a2.09,2.09,0,0,1,.63-1.48,2.29,2.29,0,0,1,.69-.45,2.24,2.24,0,0,1,.81-.15,2.21,2.21,0,0,1,.82.15,2.3,2.3,0,0,1,.7.46,2,2,0,0,1,.46.68,1.92,1.92,0,0,1,.16.79,2,2,0,0,1-.61,1.47,2.21,2.21,0,0,1-1.53.62,2.25,2.25,0,0,1-.81-.16,2.11,2.11,0,0,1-.69-.45,2.19,2.19,0,0,1-.47-.68A2.15,2.15,0,0,1,280.64,111Z" transform="translate(-23.67 -29.26)"/><path class="j" d="M286,112.92v-3.1h-.67V109H286v-1a1.69,1.69,0,0,1,.33-1.14,1.25,1.25,0,0,1,1-.36,1.42,1.42,0,0,1,.29,0,1.55,1.55,0,0,1,.31.06v.8a1,1,0,0,0-.21-.09.83.83,0,0,0-.22,0,.53.53,0,0,0-.46.2,1.2,1.2,0,0,0-.14.66V109h.93v.78h-.93v3.1Z" transform="translate(-23.67 -29.26)"/><polygon class="j" points="268.93 78.51 268.93 83.66 267.96 83.66 267.96 78.51 266.37 78.51 266.37 77.68 270.51 77.68 270.51 78.51 268.93 78.51"/><path class="j" d="M297.74,111.11h-3.1a1.31,1.31,0,0,0,.32.85,1,1,0,0,0,.78.31,1.31,1.31,0,0,0,.71-.18,1.49,1.49,0,0,0,.5-.59l.75.42a2.28,2.28,0,0,1-.81.87,2.18,2.18,0,0,1-1.13.29,2,2,0,0,1-1.49-.57,2.32,2.32,0,0,1,0-3,2.2,2.2,0,0,1,2.92,0,2.06,2.06,0,0,1,.53,1.5v.17Zm-.92-.59a1,1,0,0,0-.32-.64,1.3,1.3,0,0,0-1.43,0,1.16,1.16,0,0,0-.37.65Z" transform="translate(-23.67 -29.26)"/><path class="j" d="M298.93,112.92h-1l1.46-2.09L298.16,109h1l.54.8.15.24.12.23.11-.2.16-.27.54-.8h1l-1.25,1.8,1.45,2.08h-1l-.72-1,0-.05a2.57,2.57,0,0,1-.27-.48l-.16.29a2.52,2.52,0,0,1-.15.24Z" transform="translate(-23.67 -29.26)"/><path class="j" d="M306.1,112.92h-.88v-.5a1.54,1.54,0,0,1-1.28.66,1.63,1.63,0,0,1-1.3-.56,2.36,2.36,0,0,1-.47-1.54,2.25,2.25,0,0,1,.48-1.5,1.57,1.57,0,0,1,1.26-.57,1.48,1.48,0,0,1,.81.2,1.16,1.16,0,0,1,.5.57V109h.88v3.88Zm-.86-2A1.42,1.42,0,0,0,305,110a1,1,0,0,0-.78-.33,1,1,0,0,0-.79.34,1.47,1.47,0,0,0-.29,1,1.42,1.42,0,0,0,.28,1,.93.93,0,0,0,.78.34,1,1,0,0,0,.78-.36A1.49,1.49,0,0,0,305.24,111Z" transform="translate(-23.67 -29.26)"/><path class="j" d="M306.88,112.22l.74-.41a.73.73,0,0,0,.3.45,1,1,0,0,0,.57.15.75.75,0,0,0,.47-.14.45.45,0,0,0,.17-.37c0-.21-.2-.39-.61-.54a2.65,2.65,0,0,1-.31-.13,2.38,2.38,0,0,1-.87-.52.89.89,0,0,1-.25-.64,1,1,0,0,1,.41-.85,1.71,1.71,0,0,1,1.08-.32,1.68,1.68,0,0,1,.77.17,1,1,0,0,1,.46.47l-.63.43a.52.52,0,0,0-.24-.29.75.75,0,0,0-.4-.11.65.65,0,0,0-.41.12.39.39,0,0,0-.15.32c0,.2.23.39.68.55l.34.13a2,2,0,0,1,.77.48,1,1,0,0,1,.23.67,1.09,1.09,0,0,1-.42.91,1.85,1.85,0,0,1-1.17.33,1.92,1.92,0,0,1-.94-.21A1.56,1.56,0,0,1,306.88,112.22Z" transform="translate(-23.67 -29.26)"/></svg>