<svg xmlns="http://www.w3.org/2000/svg" viewBox="0 0 297 123.88"><defs><style>.a{fill:#fff;}</style></defs><title>bath_fitter_w</title><path class="a" d="M248.37,239.55a1,1,0,1,0,0,2h295a1,1,0,1,0,0-2Z" transform="translate(-247.38 -239.55)"/><path class="a" d="M248.37,299.46a1,1,0,1,0,0,2h295a1,1,0,1,0,0-2Z" transform="translate(-247.38 -239.55)"/><path class="a" d="M248.37,361.46a1,1,0,1,0,0,2h295a1,1,0,1,0,0-2Z" transform="translate(-247.38 -239.55)"/><path class="a" d="M323.66,289c8.78,0,17.88-3.18,17.88-11,0-6.91-7.79-8.89-13.27-9.21v-.55c6.25-.66,12.07-3.74,12.07-8.89,0-6.59-7.24-8.56-14.71-8.56h-19V289Zm-.1-3.49a12.69,12.69,0,0,1-2.4.31h-3.53V270.6a32.87,32.87,0,0,1,5.92.22c4,.54,6.58,3.18,6.58,7.68,0,3.84-3.17,6.38-6.57,7m0-31.51c3.62.58,5.82,2.63,5.82,6.15a6.67,6.67,0,0,1-3.19,5.81,7.62,7.62,0,0,1-2.63,1.1,33.13,33.13,0,0,1-5.92.22V254.14c1.53-.11,2.63-.22,3.84-.22a13.61,13.61,0,0,1,2.08.11" transform="translate(-247.38 -239.55)"/><path class="a" d="M367.88,261.16l6.58,13.06H360.85Zm-21.07,28.09c1.1-.11,2.3-.22,3.51-.22a32.93,32.93,0,0,1,3.4.22c1.43-3.95,3.29-7.35,5.16-11.63h17.23c2,3.73,3.5,7.57,5.26,11.74,2.09-.11,4.17-.33,6.25-.33s4.29.22,6.37.33l-20.52-39a24.69,24.69,0,0,1-2.85.11,21.85,21.85,0,0,1-2.74-.11Z" transform="translate(-247.38 -239.55)"/><path class="a" d="M417,289.36c-1.87-.11-3.73-.33-5.6-.33s-3.62.22-5.49.33V254.91a120.52,120.52,0,0,0-13.71.77,15.87,15.87,0,0,0,.44-2.41,16.79,16.79,0,0,0-.44-2.31h38a8.48,8.48,0,0,0-.43,2.31,8.57,8.57,0,0,0,.43,2.41c-4.39-.44-8.78-.77-13.16-.77Z" transform="translate(-247.38 -239.55)"/><path class="a" d="M440.34,250.85a47.8,47.8,0,0,0,5.6.33,47.2,47.2,0,0,0,5.48-.33V266.1c3.74.11,7.57.22,11.3.22s7.58-.11,11.3-.22V250.85a46.75,46.75,0,0,0,11.09,0v38.51c-1.87-.11-3.73-.33-5.6-.33s-3.62.22-5.49.33V270.6c-3.72-.11-7.57-.22-11.3-.22s-7.56.11-11.3.22v18.76c-1.86-.11-3.73-.33-5.48-.33s-3.73.22-5.6.33Z" transform="translate(-247.38 -239.55)"/><path class="a" d="M290.67,351.24c-1.76-.11-3.62-.22-5.49-.22s-3.73.11-5.48.22v-38.4h28a20.47,20.47,0,0,0-.43,2.42,20.68,20.68,0,0,0,.43,2.41,160.62,160.62,0,0,0-17-.77V329h7.79a86,86,0,0,0,9-.55,6.85,6.85,0,0,0,0,4.83c-3.19-.22-6-.55-9-.55h-7.79Z" transform="translate(-247.38 -239.55)"/><path class="a" d="M319.87,312.84c1.86.11,3.73.22,5.59.22s3.62-.11,5.49-.22v38.4c-1.87-.11-3.62-.22-5.49-.22s-3.73.11-5.59.22Z" transform="translate(-247.38 -239.55)"/><path class="a" d="M366.13,351.24c-1.87-.11-3.73-.22-5.49-.22s-3.73.11-5.6.22V316.9a122.07,122.07,0,0,0-13.71.77,8.58,8.58,0,0,0,.44-2.41,9.36,9.36,0,0,0-.44-2.42h38a18.26,18.26,0,0,0-.33,2.42,16.11,16.11,0,0,0,.33,2.41,129.88,129.88,0,0,0-13.16-.77Z" transform="translate(-247.38 -239.55)"/><path class="a" d="M411.4,351.24c-1.87-.11-3.73-.22-5.59-.22s-3.63.11-5.49.22V316.9a120.7,120.7,0,0,0-13.72.77,15.87,15.87,0,0,0,.44-2.41,18.65,18.65,0,0,0-.44-2.42h38a9.78,9.78,0,0,0-.43,2.42,9,9,0,0,0,.43,2.41c-4.39-.44-8.77-.77-13.16-.77Z" transform="translate(-247.38 -239.55)"/><path class="a" d="M461.32,312.84a18.65,18.65,0,0,0-.44,2.42,18.82,18.82,0,0,0,.44,2.41,138,138,0,0,0-17-.77V329H452a76.46,76.46,0,0,0,9.1-.55,6.85,6.85,0,0,0,0,4.83,76.46,76.46,0,0,0-9.1-.55h-7.68v14.37c7.56-.11,12.5-.33,17-.77a17.08,17.08,0,0,0-.44,2.31,18.51,18.51,0,0,0,.44,2.41h-28V312.84Z" transform="translate(-247.38 -239.55)"/><path class="a" d="M490.47,330.5h0a16.77,16.77,0,0,1-5.82.33V315.91a51.39,51.39,0,0,1,5.82.11c2.53.3,4.71,1.32,5.38,4.06a10.27,10.27,0,0,1,.43,2.74c0,4.16-2,6.69-5.79,7.68m8.2,20.74c2.2-.11,4.51-.22,6.7-.22s4.5.11,6.69.22l-2.85-3.4c-4.5-5.27-9-10.42-13.06-15.8,6.81-1.1,11.52-4.6,11.52-10.09,0-3.73-2.3-6.26-6.47-8-2.74-1.1-7.35-1.1-10.75-1.1h-16.9v38.4c1.87-.11,3.73-.22,5.6-.22s3.62.11,5.48.22v-18h.55c1.65,2.19,13.49,18,13.49,18" transform="translate(-247.38 -239.55)"/><path class="a" d="M520,318.35h-.27v2.77c-.21,0-.43-.06-.59-.06s-.43.06-.6.06v-5.95h2.28c1,0,1.67.51,1.67,1.42a1.56,1.56,0,0,1-1.41,1.58c.49.86,1,1.59,1.52,2.44l.38.51c-.27,0-.49-.06-.7-.06s-.49.06-.71.06Zm.45-.35c.49-.17.69-.56.69-1.19,0-.85-.32-1-.68-1.07h-.73v2.32a1.34,1.34,0,0,0,.7-.06Zm0,4.65a4.51,4.51,0,0,1,0-9,4.51,4.51,0,0,1,0,9m0,.8a5.31,5.31,0,1,0,0-10.61h0a5.31,5.31,0,0,0,0,10.61" transform="translate(-247.38 -239.55)"/></svg>