<svg xmlns="http://www.w3.org/2000/svg" viewBox="0 0 476.81 332.03"><defs><style>.a{fill:#00a94f;}.b{fill:#c2c1c0;}.c{fill:#00a952;}.d{fill:#6a4d94;}.e{fill:#8c76b0;}.f{fill:#c6bbd6;}.g{fill:#72559e;}.h{fill:#6f549e;}.i{fill:#7b61a7;}.j{fill:#937cb4;}.k{fill:#fff200;}.l{fill:#98817c;}.m{fill:#fff100;}.n{fill:#d4bc5a;}.o{fill:#755ba2;}.p{fill:#ffef00;}.q{fill:#fe0;}.r{fill:#ffeb00;}.s{fill:#fde710;}.t{fill:#fee80e;}.u{fill:#ffea02;}.v{fill:#ffec00;}.w{fill:#fbe41b;}.x{fill:#fae41d;}.y{fill:#fbe51c;}.z{fill:#fae41f;}.aa{fill:#f5de2e;}.ab{fill:#f4dd2e;}.ac{fill:#f9e222;}.ad{fill:#69599b;}.ae{fill:#867baa;}.af{fill:#00a953;}</style></defs><title>lottery_tn_g</title><path class="a" d="M258.48,443.77H215.54c-2.64,0-5.28,0-7.91,0-.86,0-1.59.06-1.95,1a2.06,2.06,0,0,1-.41,1.66h0l.06.15-.12.11a2.87,2.87,0,0,1-.33,1.73.85.85,0,0,1-.14.21c-.82,5-2.28,9.88-3.56,15.4a54.94,54.94,0,0,0-7.24-10.07h0a51.14,51.14,0,0,0-6.84-5.23c-11.22-6.56-23.35-8.07-35.89-5.79a38.37,38.37,0,0,0-21.43,11.52c-11.27,12-14.79,26.33-11.1,42.39.33,1.47.75,2.91,1.13,4.35a4.2,4.2,0,0,1-2.23.25q-7.32,0-14.63,0c-2.65,0-2.55.46-2.55-2.58V443.65c0-.56,0-1.12,0-1.68,0-.83-.37-1.14-1.18-1.06-1.67.16-3.34.29-5,.42-6.29.49-12.58,1-18.88,1.44-1.08.08-1.68.37-1.54,1.55,0,.31,0,.64,0,1v78.2c0,2.62-.32,2.56,2.63,2.55H121a11.53,11.53,0,0,1,1.44,0c.93.12,1.22-.54,1.57-1.16a115.07,115.07,0,0,1,2.47-11.62c1.2,1.25,2.16,2.32,3.18,3.31,9.11,8.82,20,12.84,32.65,12.41,7.51-.25,14.77-1.45,21.53-5,2.07-1.06,3.9-2.48,5.92-3.61.54-.47,1.06-1,1.6-1.42a39.09,39.09,0,0,0,8.76-9.78c7.21-12,8.26-24.78,4.24-38.09-.24-.81-.84-1.55-.64-2.53a2.39,2.39,0,0,1,.66-.21c4.24,0,8.47,0,12.71,0,1,0,1.52.3,1.44,1.37-.05.56,0,1.12,0,1.68v54.45c0,.64,0,1.28,0,1.92s.2,1.23,1.09,1.1c.39,0,.79,0,1.19-.08l21.77-1.5c2.53-.17,2.33,0,2.33-2.44v-1.68q0-26.26,0-52.53c0-2.68,0-2.32,2.34-2.33,3.84,0,7.68,0,11.52,0,1.65,0,1.67,0,1.68-1.73,0-2.24,0-4.47,0-6.71,0-4.72,0-9.44,0-14.16C260.47,443.8,260.45,443.8,258.48,443.77Zm-82,53.54a11.42,11.42,0,0,1-5.33,4.61,17.94,17.94,0,0,1-26.3-9.41,19.48,19.48,0,0,1,1.24-16.61c2.4-5.36,6.82-8,12.36-9a19.74,19.74,0,0,1,8.31.15,16.32,16.32,0,0,1,11.42,9.39C181.56,483.63,180.7,490.66,176.48,497.31Z" transform="translate(-68.32 -230.96)"/><path class="a" d="M340.1,525.87v-1.44q0-52.77,0-105.55c0-3.48-.52-3.19,3-2.92A117.62,117.62,0,0,1,376,423.51c.62.24,1.21.84,2,.44.45-4.93.25-29.84-.27-31.54-2.69.29-5.38.64-8.09.86a345.15,345.15,0,0,1-42.91.39c-4.46-.19-8.92-.69-13.38-1.07-7.49-.63-14.93-1.68-22.38-2.63-7.76-1-15.52-2-23.2-3.6-11.89-2.44-23.59-5.69-35.4-8.5-2.43-.58-2.45-.59-2.45,2q0,18.46,0,36.94a3.09,3.09,0,0,0,.24,1.9,2.5,2.5,0,0,0,.67,0c7.16-1.67,14.4-2.94,21.67-4a75.67,75.67,0,0,1,13.1-1.24,58.39,58.39,0,0,1,14.65,0h0l.18-.08.18.11c2.21,0,2.22,0,2.22,2.16v57.78q0,29.85,0,59.69a5.67,5.67,0,0,1-.06.7v.2a3,3,0,0,1-.06.5,1.49,1.49,0,0,0,.75,1.44c.62-.14,1.23-.32,1.86-.41L338,528.17C340.08,527.88,340.08,527.88,340.1,525.87Z" transform="translate(-68.32 -230.96)"/><path class="a" d="M461.34,446.7a3.81,3.81,0,0,1-.52-.47h0c-6.65-3.36-13.79-4.33-21.14-4.31-9,0-18.06,0-27.1,0-2.08,0-2.08,0-2.11,2.09v81c0,.48,0,1,0,1.44-.05.91.32,1.32,1.27,1.2,1.27-.15,2.54-.26,3.82-.37,6.13-.49,12.26-1,18.39-1.43,1.28-.09,1.6-.59,1.58-1.76,0-2.48.06-4.95.1-7.43h0V493.55c.68.36.76,1,1,1.5Q442.3,510,448,525a8.5,8.5,0,0,1,.42,1.12c.3,1.49,1.22,1.75,2.61,1.63,5.4-.46,10.82-.83,16.23-1.24a29.36,29.36,0,0,1,4.78-.17l4.24-.6a4.59,4.59,0,0,0-.72-2.3q-6.77-15.85-13.55-31.71c-.78-1.83-.78-1.87.95-2.92a20.65,20.65,0,0,0,9.14-11.87,36,36,0,0,0,1.33-9h0c-.56-1.43-.41-3-.72-4.44C471.25,456.33,467.63,450.62,461.34,446.7Zm-14.21,33.35A8.08,8.08,0,0,1,440,486c-4.53.45-4.53.45-4.53-4v-6c0-2.56,0-5.11,0-7.67s0-2.45,2.54-2.28c.56,0,1.11.1,1.67.15,3.94.38,6.11,2.11,7.21,5.9A14.07,14.07,0,0,1,447.13,480.05Z" transform="translate(-68.32 -230.96)"/><path class="a" d="M396.24,442H353.76c-2.13,0-2.16,0-2.16,2q0,39.94,0,79.91c0,1.9,0,1.93,2,1.93h44.63c1.9,0,1.91,0,2.35-1.87q2-8.26,3.93-16.55a17.66,17.66,0,0,0,.87-4.43,6,6,0,0,0-2.64-.21c-7.52,0-15,0-22.56,0-1.81,0-1.82,0-1.84-1.85s0-3.67,0-5.51c0-1.66.06-1.69,1.77-1.7,4.32,0,8.64,0,13,0,1.69,0,1.72,0,1.73-1.71q0-8.52,0-17c0-2.07,0-2.08-2.09-2.09-4.24,0-8.48,0-12.72,0-1.23,0-1.74-.34-1.68-1.63.08-1.76.06-3.52,0-5.28,0-1,.35-1.44,1.39-1.42,1.84.05,3.68,0,5.52,0h18.26c-.09-.75-.09-1.16-.18-1.54q-2.21-9.45-4.44-18.89C398.36,442,398.34,442,396.24,442Z" transform="translate(-68.32 -230.96)"/><path class="a" d="M543.7,442.45c-1.59-.17-3.19-.27-4.78-.41-6.37-.55-12.74-1.07-19.11-1.69-1.4-.14-1.93.29-2.33,1.63-2.3,7.64-4.71,15.26-7.11,22.87a7,7,0,0,1-1.22,2.91c-1.34-3.68-2.62-7.2-3.89-10.72-1.87-5.19-3.76-10.36-5.58-15.56-.38-1.08-.83-1.52-2.07-1.32a57.53,57.53,0,0,1-5.73.52c-5.42.33-10.8,1.16-16.24,1.21-1.66.72-3.49.18-5.23.71-.21.95.43,1.66.78,2.41q11.88,25.8,23.84,51.55a4.45,4.45,0,0,1,0,4.25c-3.45,7.11-6.79,14.28-10.15,21.44a5.31,5.31,0,0,0-.91,2.6c3.09.32,6.17.66,9.26,1,5.4.54,10.82,1.05,16.22,1.58a7.82,7.82,0,0,1,1.15.31h0c2.24,0,2.24,0,3-2.05l.26-.68,26.82-70c1.37-3.57,2.76-7.15,4.11-10.74C545.37,442.73,545.29,442.61,543.7,442.45Z" transform="translate(-68.32 -230.96)"/><path class="b" d="M266.7,531.2c4,1.44,8.07,2.52,11.95,4.21.36-.07.87.07.93-.48a17.33,17.33,0,0,0,.06-1.91V418.83a12,12,0,0,1,0-1.2c0-.08,0-.13,0-.19a1.49,1.49,0,0,0-1.16-1.13h-.05a8,8,0,0,1-2.83-.33h0c-3.91.19-7.83.24-11.72.58a237.14,237.14,0,0,0-34,5.75c-3.05.72-3.05.73-3.05-2.43V378.64a3.55,3.55,0,0,0-1.64,1.44c-3.45,4.2-6.87,8.43-10.37,12.59a5.25,5.25,0,0,0-1.32,3.69c0,12.47,0,24.95,0,37.42a4.56,4.56,0,0,0,.19,2.11,1.42,1.42,0,0,0,1.17.1c3.69-.69,7.37-1.4,11.07-2.07a178,178,0,0,1,34.33-3.12c3.59.05,3.59,0,3.6,3.53q.24,46.79.48,93.56C264.37,530.69,264,530.21,266.7,531.2Z" transform="translate(-68.32 -230.96)"/><path class="b" d="M275.32,259.36q10.41,10.31,20.76,20.64c1.77,1.77,1.61,1.41.35,3.3q-9,13.59-18,27.17c-.46.69-1.22,1.26-1.17,2.23.95.22,1.62-.45,2.37-.8q15.41-7.23,30.78-14.51c2.11-1,1.74-1.14,3.44.54l20.86,20.53a4.89,4.89,0,0,0,1.92,1.53c.28-2.15-.2-4.17-.34-6.2-.54-8.45-1.16-16.9-1.79-25.35-.18-2.52-.23-2.53,2-3.61q15.43-7.43,30.87-14.87a6.8,6.8,0,0,0,2.26-1.26c-.34-.65-1-.5-1.48-.56-11.19-1.31-22.38-2.64-33.57-3.89-1.34-.15-1.69-.65-1.76-1.92-.57-10-1.2-19.95-1.83-29.92,0-.47.3-1.13-.51-1.45-.46.66-.92,1.3-1.36,2q-8.82,13.43-17.64,26.85c-.58.89-1,1.67-2.4,1.5q-14.74-1.84-29.51-3.54a19.22,19.22,0,0,0-6.14-.23A12.43,12.43,0,0,0,275.32,259.36Zm19.62,7.47c5.4.59,10.81,1.13,16.2,1.8a2.76,2.76,0,0,0,3.08-1.52c2.92-4.68,5.95-9.28,8.94-13.91.29-.44.45-1,1.06-1.22.53.42.36,1,.4,1.55q.54,7.41,1,14.83c.13,1.88.13,1.87,2.08,2.08l18.4,2c-.15,1-1,1-1.57,1.31-5.29,2.63-10.61,5.2-15.91,7.82-2.15,1.06-2,.65-1.74,3.24.49,5.48.88,11,1.32,16.49-.92.14-1.21-.54-1.62-.93-3.71-3.53-7.41-7.07-11.05-10.66a2,2,0,0,0-2.69-.42c-5.29,2.61-10.63,5.15-15.95,7.71-.65.31-1.31.57-2,.85h0c-.08.25-.26.41-.42.13s0-.56.35-.64c3.4-5.22,6.76-10.47,10.21-15.65.71-1.06.7-1.67-.25-2.57-3.61-3.4-7.12-6.9-10.67-10.36l-1.94-1.87A6,6,0,0,1,294.94,266.83Z" transform="translate(-68.32 -230.96)"/><path class="b" d="M200.1,328.56l19.85,13c1.8,1.18,1.82,1.19,1,3.19-2.94,7.33-5.91,14.66-8.84,22a5,5,0,0,0-.73,2.64c.78-.5,1.44-.91,2.08-1.35,7.05-4.83,14.13-9.64,21.14-14.55a2.5,2.5,0,0,1,3.34,0c6.54,4.33,13.13,8.56,19.71,12.8a4.39,4.39,0,0,0,2.23,1.1c-.23-.82-.41-1.58-.65-2.32q-3.42-10.72-6.87-21.44c-.65-2-.65-2,1.08-3.25q10.62-7.42,21.23-14.85a5.16,5.16,0,0,0,1.91-1.65c-1.16,0-2.08,0-3,0l-25.17,1c-1.88.07-1.9.06-2.46-1.76q-3.31-10.64-6.6-21.28a4.49,4.49,0,0,0-.9-2c-.37.88-.73,1.67-1,2.48-2.79,7.06-5.62,14.1-8.31,21.19a3,3,0,0,1-3.24,2.33c-8.64.21-17.27.61-25.9,1-.52,0-1.11-.16-1.65.37A5,5,0,0,0,200.1,328.56Zm18.75,2.51c4.07-.09,8.14-.17,12.22-.15a2.12,2.12,0,0,0,2.29-1.56c1.5-3.76,3.11-7.47,4.68-11.23.86.5.75,1.32.94,2,.83,2.83,1.6,5.68,2.41,8.51.59,2.11.6,2.1,2.68,2l12.69-.44c.2,0,.47-.11.59.26-.18.66-.86.82-1.36,1.15-3.26,2.16-6.5,4.35-9.83,6.4a2,2,0,0,0-1,2.73c1,3.19,1.93,6.41,2.9,9.62a2.16,2.16,0,0,1,.11,1.82l-5.75-3.81c-1.6-1.06-3.24-2.05-4.78-3.18a1.8,1.8,0,0,0-2.51,0c-3,2.22-6.12,4.33-9.19,6.49-.45.31-.92.6-1.4.91-.47-.78.11-1.3.33-1.84,1.31-3.25,2.68-6.48,4-9.73.65-1.6.64-1.62-.86-2.59-3.55-2.28-7.11-4.54-10.66-6.81C217.73,330.73,218.39,331.08,218.85,331.07Z" transform="translate(-68.32 -230.96)"/><path class="b" d="M368.89,309.55c-.14.63-.31,1.24-.4,1.87q-1.07,7.33-2.09,14.68c-.38,2.74-.38,2.75-3,3.31l-18.95,4h0l-.46.85c6.22,2,12.43,4.1,18.67,6.08,1.15.36,1.51.83,1.32,2-.62,3.79-1.2,7.58-1.65,11.39-.23,1.94-.81,3.87-.6,6.19.78-.67,1.38-1.14,1.93-1.67,4.12-3.91,8.27-7.79,12.31-11.77a3,3,0,0,1,3.58-.85c5.83,1.94,11.72,3.73,17.59,5.56.59.19,1.15.6,1.93.21-.45-.67-.88-1.33-1.34-2-2.91-4.11-5.84-8.2-8.74-12.32-1.22-1.72-1.62-1.39.34-3.24l12.72-12c-.34-.65-1-.38-1.54-.56h0a9.62,9.62,0,0,0-1.19.13L382.94,325c-2.27.49-2.27.5-3.68-1.48-3-4.22-6-8.46-9-12.67C369.89,310.36,369.72,309.65,368.89,309.55Zm1.78,20.52c.23-2.29.62-4.56,1-7.44,1.6,2.35,2.95,4.17,4.12,6.1.8,1.33,1.58,1.87,3.26,1.41,2.73-.75,5.56-1.14,8.25-1.67-1.72,1.89-3.38,3.8-5.14,5.61s-1.76,1.28-.29,3.45a44.26,44.26,0,0,1,3.63,6c-2.46-.84-5-1.53-7.37-2.58-1.78-.78-2.89-.38-4.14.94-1.66,1.78-3.52,3.37-5.6,5.32a33.38,33.38,0,0,1,.77-6.29c.46-3,.5-3-2.39-4-1.87-.67-3.73-1.37-5.6-2.06a4.27,4.27,0,0,1-.88-.16c-.23-.1-.62-.28-.43-.61s.55-.19.85-.13c2.58-.53,5.15-1.11,7.74-1.58A2.25,2.25,0,0,0,370.67,330.07Z" transform="translate(-68.32 -230.96)"/><path class="b" d="M360.67,439.74c5.22-3.69,10.53-7.26,15.8-10.88.44-.31,1-.49,1.28-1.28a101.71,101.71,0,0,0-15.35-5A151.62,151.62,0,0,0,345,419.33c-2.15-.29-2.18-.23-2.18,1.82,0,4.4,0,8.79,0,13.19a2,2,0,0,0,1.72,2.32c4.25,1.09,8.47,2.34,12.67,3.61A3.6,3.6,0,0,0,360.67,439.74Z" transform="translate(-68.32 -230.96)"/><path class="b" d="M393.74,531.53c2,0,3-.61,3.53-2.34.07-.22.16-.44.38-1.05H351.88c-2.11,0-2.11,0-2.14-2.07V443.87c-2.58,1.85-3.72,3.72-3.7,6.76.14,25.82.08,51.65.08,77.47,0,.56,0,1.12,0,1.68.06,1.65.06,1.65,1.81,1.69h.72C363.68,531.48,378.71,531.43,393.74,531.53Z" transform="translate(-68.32 -230.96)"/><path class="b" d="M74.6,528.19c-.56,0-1.12,0-1.67,0-1,.07-1.29-.4-1.23-1.29,0-.56,0-1.12,0-1.68V448.46c-3.29.72-3.38.82-3.38,3.82v77.26c0,2,0,2,1.9,2h45.83c1.87,0,1.87,0,2.34-1.88.1-.38.19-.77.37-1.5H74.6Z" transform="translate(-68.32 -230.96)"/><path class="b" d="M433.83,529a.45.45,0,0,0-.26-.66c-7.21.49-14.55.92-21.88,1.52-4,.32-3.25.3-3.26-2.88q-.06-40.54-.11-81.09c0-.8.27-1.69-.28-2.38-2.9,1.58-3.58,3.89-3.54,7,.17,15.68.07,31.35.07,47,0,3.09,0,3.09,3,3.49-.54,2.35-1.07,4.52-1.52,6.71-.54,2.65-1.55,5.24-1.58,8-.06,5.28,0,10.55.05,15.83q0,.48,0,1c0,.7.43,1,1.1.93s1.28,0,1.92-.06c7.26-.32,14.54-.59,21.8-1C433.14,532.22,432.42,532.87,433.83,529Z" transform="translate(-68.32 -230.96)"/><path class="b" d="M243.06,529.64l-26.44,1.81V473.24c0-.64,0-1.28,0-1.92,0-.81-.35-1.14-1.15-1.13h-9.78c.29,3.73.29,3.73,3.67,3.77l1,0c2.76.07,2.55-.32,2.55,2.62v55.15c0,.64,0,1.28,0,1.92s.34,1,1,.94c.48,0,1,0,1.44-.08,7.65-.5,15.3-1.12,23-1.43C240.82,533,242,531.82,243.06,529.64Z" transform="translate(-68.32 -230.96)"/><path class="b" d="M449.58,529.73c-2.16.09-2.17.07-2.89-1.89q-4.38-11.79-8.76-23.57a2.64,2.64,0,0,0-1-1.66c0,2.18.09,4.12,0,6.06a23.17,23.17,0,0,0,1.84,11.21A5.43,5.43,0,0,1,439,521c1.54,3.41,2.54,7,3.83,10.52.73,2,.71,2,2.87,1.84,8.42-.56,16.85-1.2,25.28-1.65,1.71-.09,2.86-.47,3.46-2.09.13-.81-.2-1.11-1-1.08-1.88.08-3.75.08-5.63.11a2.44,2.44,0,0,1-1.44,0c-.79.11-1.58.28-2.37.32Q456.77,529.42,449.58,529.73Z" transform="translate(-68.32 -230.96)"/><path class="b" d="M175.79,529.6A74.18,74.18,0,0,1,158,531.19c-11.35-.26-21.24-3.91-29.3-12.1a.88.88,0,0,0-1-.36l-.65,4.54c-.1.66.33,1,.76,1.39.6.52,1.18,1.06,1.76,1.6h0c.8.51,1.61,1,2.4,1.53a37.59,37.59,0,0,0,13.93,6,53.91,53.91,0,0,0,16.67.5,41.1,41.1,0,0,0,14.36-4.14C176.67,529.72,176.19,529.73,175.79,529.6Z" transform="translate(-68.32 -230.96)"/><path class="b" d="M490.8,504.72c.63-1.29,1.2-2.61,1.91-3.85a3.7,3.7,0,0,0,0-3.8c-2.56-5.33-5-10.72-7.47-16.09q-4.63-10-9.32-20c-.64.34-.39,1-.54,1.51l0,.9a7,7,0,0,1,.58,2.8c.07,4.31,1.5,8.21,3.23,12.11,3.8,8.52,7.38,17.15,11,25.73h0Z" transform="translate(-68.32 -230.96)"/><path class="b" d="M280.27,547.11c-1,0-1.68.07-1.65,1.38.08,2.71,0,5.43,0,8.15,0,.49.33,1.12-.46,1.51-2.78-3.07-5.66-6.06-8.31-9.25a5,5,0,0,0-4.6-1.81c-1.08.07-1.34.54-1.34,1.5,0,4.15,0,8.3,0,12.46,0,.38,0,1,.24,1.11a3.83,3.83,0,0,0,2.77.21c.78-.11.58-.84.58-1.36,0-3.11,0-6.21,0-9.32l.46-.19c2.78,3.06,5.67,6,8.31,9.21a5,5,0,0,0,4.6,1.78c.94-.06,1.24-.4,1.23-1.3,0-4.23,0-8.47,0-12.7C282.19,547,281.25,547.14,280.27,547.11Z" transform="translate(-68.32 -230.96)"/><path class="b" d="M247.47,547.14c-1.86-.56-2.85.13-2.86,2,0,2.94,0,5.87,0,8.81l-.47.14c-2.78-3.07-5.67-6-8.3-9.24a4.93,4.93,0,0,0-4.6-1.8c-1,.06-1.25.44-1.25,1.32,0,4.23.06,8.47,0,12.7,0,1.33.66,1.4,1.63,1.36s2,.25,1.92-1.33c-.07-2.72,0-5.43,0-8.15,0-.47-.35-1.12.5-1.46,2.78,3.05,5.69,6,8.31,9.23,1.4,1.71,3,1.81,4.87,1.7a.91.91,0,0,0,1-1.06V548.23A1,1,0,0,0,247.47,547.14Z" transform="translate(-68.32 -230.96)"/><path class="b" d="M371.34,554.12a26.91,26.91,0,0,0-5.42-.9,9.17,9.17,0,0,1-3.25-.73c-1.25-.61-1.27-1.84-.13-2.64,1.5-1.06,5.72-1,6.76.45,1.35,1.89,2.94,1.28,4.69,1.23a3.76,3.76,0,0,0-2.09-3.39,13.88,13.88,0,0,0-11.8-.29,2.92,2.92,0,0,0-.79.52,3.7,3.7,0,0,0,.66,6.33,12,12,0,0,0,3.44,1,41.79,41.79,0,0,1,5.66,1c.79.26,1.55.65,1.6,1.57s-.67,1.54-1.55,1.89a8.84,8.84,0,0,1-4,.32c-1.48-.12-2.87-.52-3.49-2.08-.3-.76-.87-.82-1.54-.81s-1.58,0-2.57,0c.39,2.65,1,3.66,3.05,4.42a15.44,15.44,0,0,0,11.23,0,4,4,0,0,0,2.88-4.22C374.55,555.89,373.58,554.83,371.34,554.12Z" transform="translate(-68.32 -230.96)"/><path class="b" d="M342,554.5a13.21,13.21,0,0,0-3.45-.91c-2-.35-4-.27-5.9-.94a1.56,1.56,0,0,1-1.23-1.31,1.66,1.66,0,0,1,1.09-1.69,6.59,6.59,0,0,1,7,1.28,4.79,4.79,0,0,0,3.72.61c.43-.27.33-.69.21-1.06a4.68,4.68,0,0,0-3.21-3,15.93,15.93,0,0,0-9.2-.2,6.94,6.94,0,0,0-1.73.79,3.78,3.78,0,0,0-1.79,3.67,3.4,3.4,0,0,0,2.32,3.06,11.76,11.76,0,0,0,3,.82c1.89.28,3.79.58,5.66.93.91.17,1.73.62,1.76,1.68s-.84,1.64-1.79,2a9.74,9.74,0,0,1-3.57.22c-1.58-.11-3-.56-3.7-2.16a1.14,1.14,0,0,0-1.32-.74,8.08,8.08,0,0,0-2.66.2,3.63,3.63,0,0,0,2.24,3.85,14.83,14.83,0,0,0,12.72,0,3.4,3.4,0,0,0,.59-.4A3.83,3.83,0,0,0,342,554.5Z" transform="translate(-68.32 -230.96)"/><path class="b" d="M311.92,560c-2.72,0-5.43,0-8.15,0-2.09,0-2.09,0-2.08-2.07s0-2.08,2.1-2.1c2.55,0,5.11,0,7.66,0,1.14,0,1.49-.61,1.25-1.7-.2-.94-.92-.73-1.51-.73-2.64,0-5.27,0-7.91,0-.53,0-1.34.18-1.47-.45a6.59,6.59,0,0,1,0-2.83c.22-.94,1.21-.53,1.86-.54,2.71-.05,5.43,0,8.14,0,.78,0,1.39,0,1.4-1.12s-.51-1.33-1.46-1.32c-4.07,0-8.15,0-12.22,0-1,0-1.62.21-1.61,1.44q.09,6.23,0,12.45c0,1.21.49,1.5,1.57,1.48,2-.05,4,0,6,0h6.47c.77,0,1.41,0,1.42-1.09S312.9,560,311.92,560Z" transform="translate(-68.32 -230.96)"/><path class="b" d="M213.45,560c-2.87,0-5.75,0-8.63,0-.46,0-1.1.19-1.32-.3a5.45,5.45,0,0,1-.13-3.27c.18-1,1.18-.57,1.83-.58,2.64,0,5.28,0,7.92,0a1.3,1.3,0,0,0,1.1-2c-.34-.6-1-.44-1.49-.45-2.72,0-5.44,0-8.15,0-.87,0-1.27-.24-1.33-1.21-.14-2.55-.1-2.64,2.54-2.64h7.67c.64,0,1.3,0,1.34-.92s-.13-1.52-1.27-1.51q-6.34,0-12.7,0c-1.1,0-1.32.54-1.31,1.49,0,4.15,0,8.31,0,12.47,0,1,.35,1.43,1.38,1.41,2.08-.05,4.16,0,6.23,0,2.24,0,4.48,0,6.72,0,.82,0,1.08-.36,1.11-1.15C215,560.19,214.39,560,213.45,560Z" transform="translate(-68.32 -230.96)"/><path class="b" d="M403.12,560c-2.88,0-5.75,0-8.63,0-.53,0-1.32.22-1.5-.4a5.67,5.67,0,0,1,0-3.29c.28-.83,1.26-.46,1.94-.47,2.55,0,5.11,0,7.66,0,1.08,0,1.36-.48,1.31-1.47s-.61-1-1.29-1h-8.15c-.46,0-1.09.18-1.34-.26a4.33,4.33,0,0,1-.16-3c.17-.88,1-.56,1.61-.56,2.88,0,5.76,0,8.63,0,.75,0,1.19-.21,1.19-1.09s-.26-1.34-1.22-1.33c-4.31,0-8.62,0-12.94,0-.8,0-1.13.37-1.13,1.17,0,4.31,0,8.62,0,12.94,0,1,.41,1.25,1.29,1.24,2.16,0,4.32,0,6.47,0s4.32,0,6.47,0c1,0,1.19-.47,1.19-1.32C404.52,560.14,403.93,560,403.12,560Z" transform="translate(-68.32 -230.96)"/><path class="b" d="M433.57,560c-2.95,0-5.91,0-8.87,0-1.11,0-1.52-.32-1.54-1.5,0-2.68-.1-2.68,2.52-2.69,2.47,0,4.95,0,7.43,0,.8,0,1.11-.29,1.15-1.12.06-1.09-.43-1.37-1.42-1.35-2.71,0-5.43,0-8.14,0-.54,0-1.29.14-1.42-.55a4.78,4.78,0,0,1,.06-2.83c.35-.79,1.28-.44,2-.45,2.71,0,5.43,0,8.14,0,.9,0,1.32-.27,1.28-1.23,0-.76-.21-1.2-1.08-1.2H420.7c-.8,0-1.15.37-1.15,1.16,0,4.32,0,8.63,0,12.94,0,.93.37,1.27,1.27,1.25,2.08,0,4.16,0,6.23,0,2.24,0,4.48,0,6.71,0,1.07,0,1.49-.75,1.17-1.76C434.7,560,434.11,560,433.57,560Z" transform="translate(-68.32 -230.96)"/><path class="b" d="M508.37,529.66c-4.37-.42-8.81-.89-13.25-1.28-4.61-.41-9.23-.75-13.84-1.12-.81-.13-.41-1.15-1-1.41a17.54,17.54,0,0,0-2,4.48,1.6,1.6,0,0,0,1.19.38c8.91.87,17.83,1.7,26.73,2.66,1.25.13,1.48-.58,1.93-1.29C508,531.29,508.84,530.63,508.37,529.66Z" transform="translate(-68.32 -230.96)"/><path class="b" d="M116,500a2.38,2.38,0,0,0,.71-.24c-.33-1.67-.7-3.3-1-4.94-.93-5.28-1.61-10.56-.72-15.92a83.84,83.84,0,0,1,2.92-11.07c-.1-.36-.08-.79-.48-1-6.05,9.21-7.57,19.32-5.61,30C112.49,500.61,112,500,116,500Z" transform="translate(-68.32 -230.96)"/><path class="c" d="M530,513.85a9.77,9.77,0,1,0,9.39,9.77A9.45,9.45,0,0,0,530,513.85Zm.09,17.82a8,8,0,0,1-8-8.08,8.09,8.09,0,0,1,7.79-8.12,8,8,0,0,1,8,8.14A7.86,7.86,0,0,1,530.11,531.67Z" transform="translate(-68.32 -230.96)"/><path class="b" d="M184.11,547.11c-2.31,0-4.62,0-6.93,0s-4.63,0-6.94,0c-.9,0-1.53.11-1.52,1.27s.79,1.16,1.59,1.17c1,0,2.08,0,3.11,0,1.91,0,1.92,0,1.93,2,0,3.11.07,6.23,0,9.33,0,1.32.47,1.71,1.66,1.57a5,5,0,0,1,.95,0c.69,0,1-.29,1-1s0-1.12,0-1.67c0-2.95,0-5.9,0-8.85,0-1,.37-1.45,1.4-1.41,1.28.05,2.55,0,3.83,0,.78,0,1.38-.06,1.39-1.12S185.07,547.09,184.11,547.11Z" transform="translate(-68.32 -230.96)"/><path class="b" d="M380.45,470.17c5.81-.05,11.61,0,17.55,0a6.12,6.12,0,0,0-.46-2.57c-.17-.83-.72-1.11-1.57-1.1-5.17,0-10.35,0-15.52,0-1.56,0-1.27,1-1.3,2S379.1,470.18,380.45,470.17Z" transform="translate(-68.32 -230.96)"/><path class="b" d="M388.25,495.64c-1.27,0-2.55,0-3.82,0s-2.39.08-3.57,0c-1.34-.12-1.69.5-1.56,1.67a7.69,7.69,0,0,1,0,1c0,.77.29,1.15,1.11,1.15,2.62,0,5.24,0,7.86,0,1,0,1.25-.45,1.21-1.31a7.88,7.88,0,0,1,0-1.19C389.56,496,389.17,495.61,388.25,495.64Z" transform="translate(-68.32 -230.96)"/><path class="b" d="M315.57,313.41a5.93,5.93,0,1,0-6,5.85A6,6,0,0,0,315.57,313.41Zm-6,4.71a4.69,4.69,0,0,1-4.66-4.95,4.85,4.85,0,0,1,4.79-4.66,5,5,0,0,1,4.85,4.9A4.84,4.84,0,0,1,309.53,318.12Z" transform="translate(-68.32 -230.96)"/><path class="b" d="M200.3,458.73,203.5,447c-1.36.13-2,1.1-3.06,1.23a4.39,4.39,0,0,0-2.22,3.17,3.81,3.81,0,0,1-.7,2C197.19,455.69,199.31,456.65,200.3,458.73Z" transform="translate(-68.32 -230.96)"/><path class="b" d="M261.21,346.69a5,5,0,1,0,9.9-.13,5,5,0,1,0-9.9.13Zm8.84-.14a3.89,3.89,0,1,1-7.78.16,3.89,3.89,0,0,1,7.78-.16Z" transform="translate(-68.32 -230.96)"/><path class="b" d="M481.28,527.26c-.53-1,.19-1.7.53-2.46,2-4.44,4.07-8.84,6.05-13.29a55.88,55.88,0,0,0,2.94-6.79l-.57-.65h0c-1.75,3-3,6.27-4.46,9.43-1.87,4.1-3.94,8.11-5.52,12.35C480.87,526.11,480.47,527.13,481.28,527.26Z" transform="translate(-68.32 -230.96)"/><path class="b" d="M306.67,332.66a4.43,4.43,0,0,0-.13-8.85,4.43,4.43,0,1,0,.13,8.85Zm0-7.8a3.39,3.39,0,0,1,3.25,3.43,3.2,3.2,0,0,1-3.36,3.25,3.38,3.38,0,0,1-3.32-3.36A3.55,3.55,0,0,1,306.66,324.86Z" transform="translate(-68.32 -230.96)"/><path class="b" d="M305.19,346.87A3.78,3.78,0,0,0,308.9,343a3.91,3.91,0,0,0-3.85-3.8,4,4,0,0,0-3.84,4.06A3.83,3.83,0,0,0,305.19,346.87Zm-.1-6.57a2.76,2.76,0,1,1-2.82,2.92A2.89,2.89,0,0,1,305.09,340.3Z" transform="translate(-68.32 -230.96)"/><path class="b" d="M277.58,350.78a3.73,3.73,0,1,0,3.69-3.9A3.73,3.73,0,0,0,277.58,350.78Zm6.39,0a2.67,2.67,0,1,1-2.68-2.76A2.72,2.72,0,0,1,284,350.73Z" transform="translate(-68.32 -230.96)"/><path class="b" d="M334.71,356a3.73,3.73,0,1,0,3.92-3.59A3.63,3.63,0,0,0,334.71,356Zm6.4.16a2.61,2.61,0,0,1-2.76,2.63,2.67,2.67,0,0,1,.07-5.34A2.63,2.63,0,0,1,341.11,356.19Z" transform="translate(-68.32 -230.96)"/><path class="b" d="M346.91,350.94c-.2-1-.67-1.91-.33-3a3.93,3.93,0,0,1,7.64,1.87c-.08.39-.21.76-.32,1.14h0l.59.66a4.16,4.16,0,0,0,.73-4,4.8,4.8,0,0,0-4-3.62,4.66,4.66,0,0,0-4.81,1.93,4.48,4.48,0,0,0-.11,5.71l.6-.67Z" transform="translate(-68.32 -230.96)"/><path class="b" d="M291.34,356.85a3.33,3.33,0,0,0-3.55,3.09,3.32,3.32,0,1,0,3.55-3.09Zm-.22,5.43a2.24,2.24,0,0,1-2.26-2,2.34,2.34,0,0,1,2.21-2.36,2.31,2.31,0,0,1,2.25,2.31A2.17,2.17,0,0,1,291.12,362.28Z" transform="translate(-68.32 -230.96)"/><path class="b" d="M305.74,359.33a3.25,3.25,0,0,0,3.33-3.31,3.3,3.3,0,1,0-6.6,0A3.25,3.25,0,0,0,305.74,359.33Zm-.07-5.63a2.27,2.27,0,0,1,2.32,2.21,2.23,2.23,0,1,1-4.45.18A2.29,2.29,0,0,1,305.67,353.7Z" transform="translate(-68.32 -230.96)"/><path class="b" d="M327,363.81a3.24,3.24,0,1,0,6.48.31,3.24,3.24,0,1,0-6.48-.31Zm5.43.27a2.19,2.19,0,1,1-4.37-.24,2.19,2.19,0,1,1,4.37.24Z" transform="translate(-68.32 -230.96)"/><path class="b" d="M307.2,372.16a3,3,0,0,0,2.93-3.13,2.93,2.93,0,0,0-5.86.22A3.05,3.05,0,0,0,307.2,372.16Zm.1-4.76a1.73,1.73,0,0,1,1.69,1.89,1.79,1.79,0,1,1-3.58-.19A1.74,1.74,0,0,1,307.3,367.4Z" transform="translate(-68.32 -230.96)"/><path class="b" d="M326.08,372.41a2.91,2.91,0,0,0-3-2.72,2.76,2.76,0,0,0-2.73,3,2.82,2.82,0,0,0,3,2.76A3,3,0,0,0,326.08,372.41Zm-4.71.21a1.76,1.76,0,0,1,1.74-1.86,1.75,1.75,0,0,1,.2,3.5A1.73,1.73,0,0,1,321.37,372.62Z" transform="translate(-68.32 -230.96)"/><path class="b" d="M296.14,372.91a2.83,2.83,0,0,0,2.93-2.84,2.86,2.86,0,0,0-2.93-2.86,2.77,2.77,0,0,0-2.77,3A2.73,2.73,0,0,0,296.14,372.91Zm-1.7-3a1.63,1.63,0,0,1,1.75-1.57,1.68,1.68,0,0,1,1.77,1.81,1.76,1.76,0,1,1-3.52-.24Z" transform="translate(-68.32 -230.96)"/><path class="b" d="M298.84,383.84a2.71,2.71,0,1,0-.17-5.41,2.71,2.71,0,1,0,.17,5.41Zm0-4.35a1.62,1.62,0,0,1,1.56,1.76,1.59,1.59,0,0,1-1.77,1.52,1.62,1.62,0,0,1-1.48-1.62A1.66,1.66,0,0,1,298.8,379.49Z" transform="translate(-68.32 -230.96)"/><path class="b" d="M316.66,382.6a2.77,2.77,0,0,0,5.54-.18,2.77,2.77,0,0,0-5.54.18Zm4.4-.07a1.71,1.71,0,0,1-1.71,1.63,1.66,1.66,0,0,1-1.52-1.79,1.54,1.54,0,0,1,1.57-1.48A1.61,1.61,0,0,1,321.06,382.53Z" transform="translate(-68.32 -230.96)"/><path class="b" d="M309.15,384.32a2.63,2.63,0,0,0,2.66-2.73,2.7,2.7,0,1,0-5.4.08A2.61,2.61,0,0,0,309.15,384.32Zm-.08-4.34a1.73,1.73,0,0,1,1.69,1.61,1.69,1.69,0,0,1-1.61,1.69,1.66,1.66,0,0,1-1.69-1.6A1.72,1.72,0,0,1,309.07,380Z" transform="translate(-68.32 -230.96)"/><path class="b" d="M475.41,462.53c.15-.52-.1-1.17.54-1.51a25.6,25.6,0,0,0-2.07-4.74l-.43.56h0c.39,1.75,1.44,3.31,1.5,5.16a.22.22,0,0,1,.08.3A3,3,0,0,1,475.41,462.53Z" transform="translate(-68.32 -230.96)"/><path class="d" d="M350.25,353h0a6.72,6.72,0,0,1-3.34-2l-.6.67a3.08,3.08,0,0,0,2.41,1.88h0C349.1,352.91,349.76,353.2,350.25,353Z" transform="translate(-68.32 -230.96)"/><path class="b" d="M353.9,351a7.18,7.18,0,0,1-2.88,2s0,0,0,0c.37.12.8.13,1,.53a3.11,3.11,0,0,0,2.42-1.88l-.59-.66Z" transform="translate(-68.32 -230.96)"/><path class="b" d="M178.69,528.6h0a9.92,9.92,0,0,0-2.89,1c.4.13.88.12,1.1.59a6.34,6.34,0,0,0,2.36-1Z" transform="translate(-68.32 -230.96)"/><path class="b" d="M352.07,353.49c-.23-.4-.66-.41-1-.53l-.06,0-.73,0h0c-.49.22-1.15-.07-1.53.51h0A3.5,3.5,0,0,0,352.07,353.49Z" transform="translate(-68.32 -230.96)"/><path class="e" d="M180.69,527.67h0a6.41,6.41,0,0,0-2,.93h0l.56.55,1.9-.94Z" transform="translate(-68.32 -230.96)"/><path class="f" d="M181.91,526.94c-.42.21-.81.48-1.22.73h0l.46.54,1.06-.44h0c.17-.25.54-.56.48-.75C182.58,526.65,182.17,526.81,181.91,526.94Z" transform="translate(-68.32 -230.96)"/><path class="g" d="M117.88,467.83a6.46,6.46,0,0,0,1.08-2.46h-.64c-.34.47-.83.84-.92,1.47C117.8,467,117.78,467.47,117.88,467.83Z" transform="translate(-68.32 -230.96)"/><path class="h" d="M402,321.87c.38-.14.82-.35.75-.77s-.63-.27-1-.25a2,2,0,0,0-1.32.46h0C401,321.49,401.68,321.22,402,321.87Z" transform="translate(-68.32 -230.96)"/><path class="i" d="M344.42,333.41c-.46-.07-1.06-.19-1.22.33s.37.53.76.52l.46-.85Z" transform="translate(-68.32 -230.96)"/><path class="j" d="M119.17,464.67c-.57-.25-.66.34-.85.69H119C119.26,465.19,119.4,464.77,119.17,464.67Z" transform="translate(-68.32 -230.96)"/><path class="b" d="M277.08,313c.08.06.17-.11.11-.26C277,312.76,276.72,312.75,277.08,313Z" transform="translate(-68.32 -230.96)"/><path class="b" d="M277.19,312.74h0l0,0,0,0v0h-.05S277.18,312.73,277.19,312.74Z" transform="translate(-68.32 -230.96)"/><path class="k" d="M304.85,279.09c.95.9,1,1.51.25,2.57-3.45,5.18-6.81,10.43-10.21,15.65,0,.17.05.34.07.51h0c.66-.28,1.32-.54,2-.85,5.32-2.56,10.66-5.1,15.95-7.71a2,2,0,0,1,2.69.42c3.64,3.59,7.34,7.13,11.05,10.66.41.39.7,1.07,1.62.93-.44-5.51-.83-11-1.32-16.49-.24-2.59-.41-2.18,1.74-3.24,5.3-2.62,10.62-5.19,15.91-7.82.56-.29,1.42-.34,1.57-1.31l-18.4-2c-1.95-.21-1.95-.2-2.08-2.08q-.51-7.42-1-14.83c0-.53.13-1.13-.4-1.55-.61.2-.77.78-1.06,1.22-3,4.63-6,9.23-8.94,13.91a2.76,2.76,0,0,1-3.08,1.52c-5.39-.67-10.8-1.21-16.2-1.8a6,6,0,0,0-2.7,0l1.94,1.87C297.73,272.19,301.24,275.69,304.85,279.09Z" transform="translate(-68.32 -230.96)"/><path class="l" d="M294.54,298c.16.28.34.12.42-.13h0c0-.17,0-.34-.07-.51C294.52,297.39,294.37,297.65,294.54,298Z" transform="translate(-68.32 -230.96)"/><path class="m" d="M228.93,341c-1.34,3.25-2.71,6.48-4,9.73-.22.54-.8,1.06-.33,1.84.48-.31.95-.6,1.4-.91,3.07-2.16,6.17-4.27,9.19-6.49a1.8,1.8,0,0,1,2.51,0c1.54,1.13,3.18,2.12,4.78,3.18l5.75,3.81a2.16,2.16,0,0,0-.11-1.82c-1-3.21-1.87-6.43-2.9-9.62a2,2,0,0,1,1-2.73c3.33-2.05,6.57-4.24,9.83-6.4.5-.33,1.18-.49,1.36-1.15-.12-.37-.39-.26-.59-.26l-12.69.44c-2.08.08-2.09.09-2.68-2-.81-2.83-1.58-5.68-2.41-8.51-.19-.66-.08-1.48-.94-2-1.57,3.76-3.18,7.47-4.68,11.23a2.12,2.12,0,0,1-2.29,1.56c-4.08,0-8.15.06-12.22.15-.46,0-1.12-.34-1.44.55,3.55,2.27,7.11,4.53,10.66,6.81C229.57,339.4,229.58,339.42,228.93,341Z" transform="translate(-68.32 -230.96)"/><path class="m" d="M360.74,333.9c.16.3.31.6.46.9,1.87.69,3.73,1.39,5.6,2.06,2.89,1,2.85,1,2.39,4a33.38,33.38,0,0,0-.77,6.29c2.08-2,3.94-3.54,5.6-5.32,1.25-1.32,2.36-1.72,4.14-.94,2.37,1.05,4.91,1.74,7.37,2.58a44.26,44.26,0,0,0-3.63-6c-1.47-2.17-1.47-1.63.29-3.45s3.42-3.72,5.14-5.61c-2.69.53-5.52.92-8.25,1.67-1.68.46-2.46-.08-3.26-1.41-1.17-1.93-2.52-3.75-4.12-6.1-.41,2.88-.8,5.15-1,7.44a2.25,2.25,0,0,1-2.19,2.25C365.89,332.79,363.32,333.37,360.74,333.9Z" transform="translate(-68.32 -230.96)"/><path class="n" d="M359.89,334c-.19.33.2.51.43.61a4.27,4.27,0,0,0,.88.16c-.15-.3-.3-.6-.46-.9C360.44,333.84,360.05,333.75,359.89,334Z" transform="translate(-68.32 -230.96)"/><path class="b" d="M466.83,446.94c-.39.57.14,1,.56,1.38a29.86,29.86,0,0,1,4.22,5c.19-.19.38-.39.56-.59l-3.45-8h0C467.16,444.66,467.38,446.15,466.83,446.94Z" transform="translate(-68.32 -230.96)"/><path class="o" d="M471.61,453.35a19.06,19.06,0,0,0,1.84,3.49h0l.43-.56a12.48,12.48,0,0,0-1.71-3.52C472,453,471.8,453.16,471.61,453.35Z" transform="translate(-68.32 -230.96)"/><path class="p" d="M309.66,308.51a4.85,4.85,0,0,0-4.79,4.66,4.69,4.69,0,0,0,4.66,4.95,4.84,4.84,0,0,0,5-4.71A5,5,0,0,0,309.66,308.51Z" transform="translate(-68.32 -230.96)"/><path class="q" d="M262.27,346.71a3.89,3.89,0,1,0,7.78-.16,3.89,3.89,0,0,0-7.78.16Z" transform="translate(-68.32 -230.96)"/><path class="r" d="M306.55,331.54a3.2,3.2,0,0,0,3.36-3.25,3.39,3.39,0,0,0-3.25-3.43,3.55,3.55,0,0,0-3.43,3.32A3.38,3.38,0,0,0,306.55,331.54Z" transform="translate(-68.32 -230.96)"/><path class="s" d="M305.15,345.82a2.76,2.76,0,0,0-.06-5.52,2.89,2.89,0,0,0-2.82,2.92A2.86,2.86,0,0,0,305.15,345.82Z" transform="translate(-68.32 -230.96)"/><path class="t" d="M278.63,350.53a2.67,2.67,0,1,0,5.34.2,2.7,2.7,0,0,0-2.68-2.76A2.73,2.73,0,0,0,278.63,350.53Z" transform="translate(-68.32 -230.96)"/><path class="u" d="M335.76,356.24a2.66,2.66,0,0,0,2.59,2.58,2.67,2.67,0,1,0,.07-5.34A2.66,2.66,0,0,0,335.76,356.24Z" transform="translate(-68.32 -230.96)"/><path class="v" d="M353.9,351h0c.11-.38.24-.75.32-1.14a3.93,3.93,0,0,0-7.64-1.87c-.34,1.09.13,2,.33,3h0a6.72,6.72,0,0,0,3.34,2h0l.73,0,0,0A7.18,7.18,0,0,0,353.9,351Z" transform="translate(-68.32 -230.96)"/><path class="w" d="M291.07,357.9a2.34,2.34,0,0,0-2.21,2.36,2.24,2.24,0,0,0,2.26,2,2.17,2.17,0,0,0,2.2-2.07A2.31,2.31,0,0,0,291.07,357.9Z" transform="translate(-68.32 -230.96)"/><path class="x" d="M305.86,358.27a2.22,2.22,0,0,0,2.13-2.36,2.23,2.23,0,1,0-4.45.18A2.22,2.22,0,0,0,305.86,358.27Z" transform="translate(-68.32 -230.96)"/><path class="y" d="M328.05,363.84a2.19,2.19,0,1,0,4.37.24,2.19,2.19,0,1,0-4.37-.24Z" transform="translate(-68.32 -230.96)"/><path class="y" d="M307.11,371a1.8,1.8,0,0,0,1.88-1.73,1.79,1.79,0,1,0-3.58-.19A1.81,1.81,0,0,0,307.11,371Z" transform="translate(-68.32 -230.96)"/><path class="z" d="M325,372.53a1.79,1.79,0,0,0-1.84-1.77,1.76,1.76,0,0,0-1.74,1.86,1.73,1.73,0,0,0,1.94,1.64A1.78,1.78,0,0,0,325,372.53Z" transform="translate(-68.32 -230.96)"/><path class="w" d="M296.07,371.82a1.7,1.7,0,0,0,1.89-1.69,1.68,1.68,0,0,0-1.77-1.81,1.63,1.63,0,0,0-1.75,1.57A1.7,1.7,0,0,0,296.07,371.82Z" transform="translate(-68.32 -230.96)"/><path class="aa" d="M298.59,382.77a1.59,1.59,0,0,0,1.77-1.52,1.62,1.62,0,0,0-1.56-1.76,1.66,1.66,0,0,0-1.69,1.66A1.62,1.62,0,0,0,298.59,382.77Z" transform="translate(-68.32 -230.96)"/><path class="ab" d="M317.83,382.37a1.66,1.66,0,0,0,1.52,1.79,1.71,1.71,0,0,0,1.71-1.63,1.61,1.61,0,0,0-1.66-1.64A1.54,1.54,0,0,0,317.83,382.37Z" transform="translate(-68.32 -230.96)"/><path class="ac" d="M309.15,383.28a1.69,1.69,0,0,0,1.61-1.69,1.65,1.65,0,1,0-3.3.09A1.66,1.66,0,0,0,309.15,383.28Z" transform="translate(-68.32 -230.96)"/><path class="b" d="M153,472.17h0c.56,0,1.12-.06,1.67-.12,10.7-1.17,17.38,6.73,19.14,14a24.68,24.68,0,0,1,.08,10.41l.59.57h0c4-4.62,4.66-10.13,3.51-15.75A16.59,16.59,0,0,0,152,471.64C152.19,472.07,152.66,472,153,472.17Z" transform="translate(-68.32 -230.96)"/><path class="ad" d="M153,472.17c-.37-.15-.84-.1-1.07-.53-.39.07-.83.26-.84.62,0,.61.53.29.85.31s.6,0,.9,0a1.34,1.34,0,0,0,.16-.37Z" transform="translate(-68.32 -230.96)"/><path class="ae" d="M173.92,496.48l-.36.09h0c.08.4-.32,1,.22,1.18.37.13.62-.31.73-.7h0Z" transform="translate(-68.32 -230.96)"/><path class="b" d="M438.94,468.15c-2-.36-2-.36-2.05,1.58-.05,1.4,0,2.53,1.63,3.25s2.28,2.36,2.82,4c.67,2,.54,4.09.59,6.71,3.52-2.82,3.81-6.18,3.21-9.75C444.61,470.76,442.36,468.76,438.94,468.15Z" transform="translate(-68.32 -230.96)"/><path class="af" d="M532.35,523.82a2.93,2.93,0,0,0,1.23-3.33,2.7,2.7,0,0,0-2.74-1.92c-1.36,0-2.72,0-4.07-.05-.54,0-.93.2-.93.82,0,2.95,0,5.91,0,8.86a.73.73,0,0,0,.7.8c.61.07.89-.28.91-.83,0-.8,0-1.6,0-2.4.07-1.2.6-1.52,1.71-1.09a3.13,3.13,0,0,1,1.55,1.43c.41.68.85,1.35,1.22,2,.51,1,1.21,1,2.22.6a22.58,22.58,0,0,0-2.77-4.34C531.83,524.15,532.11,524,532.35,523.82Zm-1.8-.86c-.48.06-1,.06-1.22.08-1.71,0-2.39-1.09-1.83-2.52a.75.75,0,0,1,.71-.54,21.19,21.19,0,0,1,2.39.06A1.39,1.39,0,0,1,532,521.4C532.05,522.35,531.45,522.84,530.55,523Z" transform="translate(-68.32 -230.96)"/></svg>