<svg xmlns="http://www.w3.org/2000/svg" viewBox="0 0 267.21 106.65"><defs><style>.a{fill:#be1c2d;}</style></defs><title>randy_boyd_r</title><path class="a" d="M236.35,392.38c-2.58.05-3.54,1.18-3.52,3.92,0,.48,0,1,0,1.44.09,2,.12,3.93.11,5.9A92.92,92.92,0,0,1,232.6,415c.49,4.11,3.2,5.74,7.18,4.43a2.3,2.3,0,0,0,.35-.15l.09-.09a6.89,6.89,0,0,0,.67-.75,6.25,6.25,0,0,0,.07-1.73c.06-3.47,0-6.93,0-10.4,0-2.44.44-4.66,2.69-6.1h0c2.7-1.9,4.82-.85,6.72,1.32h0l.88-1h0c-.08-.83.06-2.33-.61-2.28-3.44.23-2.74-2.87-3.89-4.45l-4.49.7h0c-1.81,0-2.27-2.87-4.45-2.12h0Z" transform="translate(-173.12 -341.18)"/><path class="a" d="M332.65,439.47l.33-.62A.79.79,0,0,0,332.65,439.47Z" transform="translate(-173.12 -341.18)"/><path class="a" d="M333,438.85q0,3.63,0,7.25c.88.79,1.54,2.57,3,.67h0l.06-2h0c0-1.36-.51-2.79.6-4,1.85-1,2.09.32,2.2,1.57.12,1.46.05,2.94.06,4.41.05.25.1.51.14.76,1.92.07,2.43-1.32,2.86-2.78,0-.25,0-.51,0-.76C341.25,437.55,339.25,436.41,333,438.85Z" transform="translate(-173.12 -341.18)"/><path class="a" d="M282.85,438.77l-1,1.39h0a1.62,1.62,0,0,1-1,2.07c-.63.18-.91-.63-1-1.28l-.91-2.21c-5.82-1.71-1.07,2.66-2.12,3.69,1.35.6,1.28,2.21,2.2,3.12,1.21.89,2.4.29,3.59,0h0l.77-.79h0a6,6,0,0,1,.22-.72l.62-3C284.18,440,284.05,439.06,282.85,438.77Z" transform="translate(-173.12 -341.18)"/><path class="a" d="M284.56,440.37l-.3.65A1.44,1.44,0,0,0,284.56,440.37Z" transform="translate(-173.12 -341.18)"/><path class="a" d="M434.37,383.26H435c2.74-1.57,3.63-1.15,3.68,2.06.09,5.05,0,10.11,0,15.17h0c0,2,0,4,0,6,.44,4-.71,8,.62,11.94h0l.1.14.18-.06h0v-.74h0l0-35.89c-1.61-1.29-3.47-.54-5.22-.62a.43.43,0,0,1-.17.5c.05.49.11,1,.17,1.49Z" transform="translate(-173.12 -341.18)"/><path class="a" d="M246.76,393.76h0a6.21,6.21,0,0,1,7.48,1.5h0l1.52,1.47.74.76h0l1.73,1.46h0c0-.48-.08-.95-.11-1.43-3.3-6.21-8.7-6-14.44-4.68l-1.41,1.62h0Z" transform="translate(-173.12 -341.18)"/><path class="a" d="M293.22,348.2h0c1.72-.08,2.82-1.56,4.4-2,.67-.66,1.56-.5,2.38-.62h0l.84-1.11h0l-.15-1h0c-2.31-.25-3.81,1.82-5.94,2.07h0l-.7.16C293.77,346.58,293,347.22,293.22,348.2Z" transform="translate(-173.12 -341.18)"/><path class="a" d="M333,358.29c-.77.3-.68,1-.68,1.6a1,1,0,0,1,.18.28c.82,1.35.76,3,1.29,4.4,1.1,1,.58,2.44.88,3.66.34-.81.67-1.63,1-2.44a.92.92,0,0,1,.21-.53l.29-.74h0C334.65,362.67,334.94,359.9,333,358.29Z" transform="translate(-173.12 -341.18)"/><polygon class="a" points="159.86 17.11 159.86 17.11 159.86 17.11 159.86 17.11"/><path class="a" d="M281.14,390.73h0c.42,2.08-1.25,1.35-2.17,1.62l.81,1.37h0l1.47.21h0c.29-.54.57-1.09.86-1.64h0l-.18-10.62h0a.94.94,0,0,0-.7,0h0l-.1,6.06c0,.49,0,1,0,1.48Z" transform="translate(-173.12 -341.18)"/><path class="a" d="M334.64,368.23c-.09,1.47-.18,2.94-.28,4.41.59.62,1.13.32,1.66-.08l.1-5.8-.26-1.5-.21.53c-.34.81-.67,1.63-1,2.44Z" transform="translate(-173.12 -341.18)"/><path class="a" d="M377.91,437.88h0l-.63.3h0c0,.21,0,.42,0,.62,0,.7-.05,1.4-.07,2.09h0l1.45.27.95-.89h0C379.78,439,380,437.61,377.91,437.88Z" transform="translate(-173.12 -341.18)"/><path class="a" d="M203.86,396l.86.94h0a1.6,1.6,0,0,1,.65-.08h0l1.63-3.09-2.25.62h0a4.18,4.18,0,0,1-.71.22l-.18,1.39Z" transform="translate(-173.12 -341.18)"/><path class="a" d="M376.63,441.1l-.09,5h0l.71-.62h0c.14-1.4-.49-3.09,1.44-3.82a2.9,2.9,0,0,0,0-.51h0l-1.45-.27A1.27,1.27,0,0,1,376.63,441.1Z" transform="translate(-173.12 -341.18)"/><path class="a" d="M336,372.56a3.82,3.82,0,0,0,.66.12h0c0-2,0-3.94,0-5.92h-.58Z" transform="translate(-173.12 -341.18)"/><path class="a" d="M355.53,393.6h0a2.07,2.07,0,0,0,.7.13h0c0-1.5.06-3,.08-4.51,0-.47-.07-1-.11-1.42h0l-.81.13C355.44,389.83,355.48,391.71,355.53,393.6Z" transform="translate(-173.12 -341.18)"/><path class="a" d="M431.08,392.4h0l3.11,1.22-.05-1.4h0l-1.44-.08-1.33,0h0Z" transform="translate(-173.12 -341.18)"/><path class="a" d="M396.66,400h0c0-.57.07-1.14.11-1.71s-.07-.91-.1-1.36h0l-1.39-.09C395.14,398.11,395.93,399,396.66,400Z" transform="translate(-173.12 -341.18)"/><path class="a" d="M378.53,420c1.91-1.13,4.2-1.7,5.54-3.69a4.84,4.84,0,0,0-1.82.24c-5.72,3.27-11.37,2.79-17-.08a1.7,1.7,0,0,0,0,.22c.78,1.17,2.23,1.57,3.15,2.57h0a1.72,1.72,0,0,1,1.59.63A40.82,40.82,0,0,0,378.53,420Z" transform="translate(-173.12 -341.18)"/><path class="a" d="M378.7,420.73h0c-.06-.26-.11-.51-.17-.76a40.82,40.82,0,0,1-8.56-.11h0l-.21.89h0Z" transform="translate(-173.12 -341.18)"/><path class="a" d="M372.79,441h.59c-.27-3.12,1.53-3.36,3.9-2.82h0l.63-.3h0c-1.6-1.07-3.4-.48-5.12-.58h0c-.05.48-.09,1-.14,1.44h0C372.7,439.49,372.74,440.25,372.79,441Z" transform="translate(-173.12 -341.18)"/><path class="a" d="M250.58,411.56c0,8.21,0,8.21,8.18,7.73v-.05l.13-18-.66-2.32h0l-1.73-1.46h0a37.08,37.08,0,0,1,.91,18.09c-.23,1.29-.21,3.09-2.22,2.67-1.59-.33-3.29-.62-3.14-3.24.26-4.57,0-9.16-.05-13.75-.24-.26-.49-.51-.74-.77l-.88,1h0C250.45,404.84,250.57,408.2,250.58,411.56Z" transform="translate(-173.12 -341.18)"/><path class="a" d="M252,401.26c.94-.87.58-2.7,2.25-3,0-1-.89-2,0-3a6.21,6.21,0,0,0-7.48-1.5h0c1.15,1.58.45,4.68,3.89,4.45.67,0,.53,1.45.61,2.28h0C251.51,400.75,251.76,401,252,401.26Z" transform="translate(-173.12 -341.18)"/><path class="a" d="M305.36,358.36h0c-3,.69-2.09-3.66-4.61-3.6h0a4.2,4.2,0,0,1-1,3c-.69,2.68-3.54.63-5,2.36,3.68,1.36,5.38,3.57,3.07,7.28h0c5.4-1.7,6.16-1.78,8.67-.89.81-1.86-3.06-4,.29-5.67l0,0,1.4-1.56C307.49,358.2,306.27,358.8,305.36,358.36Z" transform="translate(-173.12 -341.18)"/><path class="a" d="M316,369h0l2.15,1.8.76-.82c.24-.49.54-.58.86-.5,1.2-1.05.74-2.83,1.23-4.19a.75.75,0,0,0,.18-.57h0l-1.8-1.8h0l-1.37-.07h0c-.93.13-1.19-.58-1.53-1.21-.69-.36-1.26-1.05-2.17-.82.86,3.5-1.15,5.55-3.71,7.31h0a3,3,0,0,0,.73.12A5.75,5.75,0,0,1,316,369Z" transform="translate(-173.12 -341.18)"/><path class="a" d="M303.06,374.25c.89.24,1.43-.5,2.15-.74a.87.87,0,0,0,0-.72h0l-4.4.24C301.38,373.72,302.61,373.26,303.06,374.25Z" transform="translate(-173.12 -341.18)"/><path class="a" d="M305.36,358.36h0c.91.44,2.13-.16,2.86.87a2,2,0,0,0,1.32-1.4h0C308.12,357.77,306.68,357.54,305.36,358.36Z" transform="translate(-173.12 -341.18)"/><path class="a" d="M300.76,375h0l2.3-.77h0c-.45-1-1.68-.53-2.29-1.22l-1.38-.17h0Z" transform="translate(-173.12 -341.18)"/><path class="a" d="M305.21,373.51h0c1.49.93,1.36-.51,1.75-1.19l1.15,1.94h0c.09-1.1.61-2.28-.61-3.12h0l-.87.72h0c-.59.15-1.19.28-1.46.93h0A.87.87,0,0,1,305.21,373.51Z" transform="translate(-173.12 -341.18)"/><path class="a" d="M332.29,415.49q0-6.37,0-12.73V402h0V390.76l0-1.52h0c.16-2-.58-4.12.72-6,4.53-1.14,9.14-.38,13.71-.54,3.71-.14,6.7,3.76,7.92,9.49h0l-1.41,3h0c0,.25,0,.51-.05.77h0l.09.75h0c1.31-.65,1.4-2.17,2.26-3.15h0c0-1.89-.09-3.77-.13-5.66-.75-1.25-1.49-2.51-2.23-3.77h0c-2.06-1.12-3.94-2.73-6.52-2.51-5,.72-10.17-.63-15.16.84h0c-.31,11.5-.37,23,0,34.5l.78-1.51Z" transform="translate(-173.12 -341.18)"/><path class="a" d="M356.86,413.75c.25-.68.49-1.37.74-2.05h0c.07-.48.14-1,.2-1.45l-.72-5.26h0l-2.44-3.69c-1.48-.49-2.6-2-4.41-1.56h0c-1.56,2.76,1.68,2.85,2.52,3.53,4.28,3.45,4.7,8.09.53,12.22h0a3.11,3.11,0,0,1-2.27.76c-4.42,3.74-9.37,2.37-14.26,1.5H336c-1.63.1-2.42-.93-3-2.24h-.71l-.78,1.51c-.62,2.25.7,2.45,2.43,2.42,5.89-.12,11.78-.18,17.68-.27h0C352.8,416.8,355.64,416.06,356.86,413.75Z" transform="translate(-173.12 -341.18)"/><path class="a" d="M346.65,381.66c-4.71-1-9.47-.38-14.2-.42-.74,0-1,.56-1,1.26h0C336.48,381,341.62,382.38,346.65,381.66Z" transform="translate(-173.12 -341.18)"/><path class="a" d="M439.59,381.89l0,35.89h0c1-1.32.63-2.86.64-4.32q.06-12.84.07-25.69h0C440,385.82,440.78,383.73,439.59,381.89Z" transform="translate(-173.12 -341.18)"/><path class="a" d="M305.13,343.9l1.58-.5h0c-1.16-.84-2.52-.55-3.8-.69l-2.05.18c-.05.22-.11.43-.17.64h0l.15,1h0l3.43-.33A1.15,1.15,0,0,1,305.13,343.9Z" transform="translate(-173.12 -341.18)"/><path class="a" d="M313.5,344.22h0c-.51-.87-1.44-.64-2.2-.84l-4.59,0h0l-1.58.5-.86.27,5.47.13h0Z" transform="translate(-173.12 -341.18)"/><path class="a" d="M297,431.11l-.79-1.33h0c-.78-.23-1.91-.13-1.5-1.53-.06-.55-.13-1.09-.19-1.63h0l-1.07.93h0c-.39.68-1.23,1.19-.84,2.17h0l.66.71,2.94.86.79-.18Z" transform="translate(-173.12 -341.18)"/><path class="a" d="M336.7,440.78c-1.11,1.19-.59,2.62-.6,4h0C337,443.53,336.67,442.13,336.7,440.78Z" transform="translate(-173.12 -341.18)"/><polygon class="a" points="145.48 105.03 145.48 105.03 145.48 105.03 145.48 105.03"/><path class="a" d="M322.45,438.8c-1.8-1.24-3.8-.36-5.7-.57l-.19.14c0,1.82,0,3.63-.07,5.45,0,1.47.46,2.43,2.11,2.39,0-3,0-6.1,4-6.71A1.89,1.89,0,0,1,322.45,438.8Z" transform="translate(-173.12 -341.18)"/><path class="a" d="M315.81,438.16a5,5,0,0,1,.46-.37C316.13,437.73,316,437.84,315.81,438.16Z" transform="translate(-173.12 -341.18)"/><path class="a" d="M316.49,443.82c0-1.82.05-3.63.07-5.45v-.16l-.75,0c0,2.86.05,5.72.07,8.57h0c1,.1,2,.86,2.72-.52h0C317,446.25,316.45,445.29,316.49,443.82Z" transform="translate(-173.12 -341.18)"/><path class="a" d="M189,408h0l.78-.78C190,406,191,405.49,192,405c1.13-2.13-.06-4.61,1.38-7,.64-1.05-1.33.2-2.13.21h0c-3.26,1-6.53,3.17-9.8,0h0c-1.4-2.64-.37-5.51-.74-8.25h0l-1.45-.76h0v24.6h-1.5V390.75h0c-1.23,0-2.54.1-3-1.49h0l-.71,0h0c0,8.19.16,16.38,0,24.56,0,3.79,1.56,5.22,5.18,4.68h0c1.85-.71,1.34-2.34,1.5-3.74.33-3-.81-6.07.77-8.93h0c1.83-.51,3.62-.65,5.26.56C188.53,405.56,188.12,407.65,189,408Zm-4.72-4.84c.13,0,.31.25.47.39-.16.16-.31.4-.49.43s-.31-.24-.48-.39C183.91,403.46,184.06,403.21,184.25,403.18Z" transform="translate(-173.12 -341.18)"/><path class="a" d="M173.13,414.76h0a1.64,1.64,0,0,0,0,.22v-.22Z" transform="translate(-173.12 -341.18)"/><path class="a" d="M179.25,418.51c-3.62.54-5.23-.89-5.18-4.68.12-8.18,0-16.37,0-24.56h0l.71,0h0c0-.5,0-1,0-1.5a4.06,4.06,0,0,1,.74-3h0V384c.93-1.52,2.45-1.49,4-1.49,5.06,0,10.11,0,15.05,1.37-.93-2.87-3.91-1.6-5.67-2.8l0,0h0l-14.58,0h0l-1,.7-.08,3h0v30h0V415l.15,4.26h0l6,0Z" transform="translate(-173.12 -341.18)"/><path class="a" d="M181.52,405.84h0c-1.58,2.86-.44,6-.77,8.93-.16,1.4.35,3-1.5,3.74h0v.71c2,.57,2.3-.65,2.29-2.22,0-3.72,0-7.44,0-11.16Z" transform="translate(-173.12 -341.18)"/><path class="a" d="M189,408.75h0l0-.73h0c-.85-.37-.44-2.46-2.19-1.62,0,.31,0,.61,0,.92h0l1.16,2.09Z" transform="translate(-173.12 -341.18)"/><path class="a" d="M372.74,393.75h0v1.5c1.05,0,2.4-1.2,3,.7l.74.68.73.14h0c4.28-.15,6,1.76,5.94,6.78v0h0c1.16,1.75,1.34,3.47-.13,5.15-.32,1.83-.6,3.69-2.77,4.35-.83.57-.89,2.18-2.43,1.78a6.38,6.38,0,0,1-6.62.05,1.58,1.58,0,0,1-1.54-.78c-1.3-.35-1.7-1.73-2.71-2.41h0l-1.7.08h0a1.74,1.74,0,0,1-1.49,1.5l-.09,1.71a2.12,2.12,0,0,0,1.36,1.39l.21.1c5.64,2.87,11.29,3.35,17,.08a4.84,4.84,0,0,1,1.82-.24c.46-.07.68-.31.56-.79-.78-1.31.08-2.14.87-3a4,4,0,0,1,2.27-3,.56.56,0,0,0,.17-.66c-1.67-2.09-.66-4.55-.94-6.84h0a17.45,17.45,0,0,1-2.26-5.22h0l0,0c-2.23,0-3.86-.78-4.33-3.16h0l0,0c-1.73,1-2.86.08-3.85-1.24h0l-.77,0a1.32,1.32,0,0,1-.49.24Z" transform="translate(-173.12 -341.18)"/><path class="a" d="M364.32,396.66l1,.11,4.34-2.21a.17.17,0,0,1,.12-.06,4.11,4.11,0,0,1,3-.75l2.51-1.21.49-.24c-4.42-.89-8,1-11.28,3.58l-.16.55A.9.9,0,0,0,364.32,396.66Z" transform="translate(-173.12 -341.18)"/><path class="a" d="M380.36,393.57l-.86-.68h0c-1-.16-1.89-.94-3-.56h0C377.5,393.65,378.63,394.54,380.36,393.57Z" transform="translate(-173.12 -341.18)"/><path class="a" d="M439.33,418.43c-1.33-3.92-.18-8-.62-11.94-2.08-2-1.84-4,0-6h0c0-5.06.11-10.12,0-15.17,0-3.21-.94-3.63-3.68-2.06-.36,3,.59,6.07-.65,9h0l-.24,0h0l.05,1.4c.18.67.18,2.1-.34,1.67-4.27-3.55-8.8-.8-13.18-.87-.23.77-.45,1.55-.67,2.33h2.26l2.87-.15h0c2.09-1.49,4.17-.69,6.25,0h0c.93.62,3.28-.95,2.8,1.83v7.3c1,4.37-1.05,7.34-4.51,9.65l-.68.91h0l-2.23,1.45,1.33,1.35.22.21,1.44-.07h0c1.93-1.11,3.73-3,5.91-.06a2.51,2.51,0,0,0,3.67-.74Z" transform="translate(-173.12 -341.18)"/><polygon class="a" points="247.56 53.19 247.56 53.19 247.56 53.19 247.56 53.19"/><path class="a" d="M428.3,419.31c-2.33,2-5,.1-7.46.65h0c0,.24,0,.48,0,.73l8.92.05h0v-1.5h0Z" transform="translate(-173.12 -341.18)"/><path class="a" d="M283.47,392.23c-1.24-2.65-.55-5.48-.71-8.23h0c2-2.22,4-2.27,5.95,0,0,1.24,0,2.48,0,3.72h0A2.92,2.92,0,0,1,288,390l.72,2.23h0c0,1,0,2,0,3,0,2,0,4,0,6h0v3h0v4.48h0v7.51h0a3.64,3.64,0,0,1-1.48,3h2.26c0-11.19.06-22.37,0-33.56,0-1.55.49-3.28-.93-4.57-2.21.44-4.53-.42-6.69.56h0l.18,10.62Z" transform="translate(-173.12 -341.18)"/><path class="a" d="M208.75,420h0l-.24.78,3.61.15h0l3.13-.16h0c0-.22-.05-.43-.08-.64Z" transform="translate(-173.12 -341.18)"/><path class="a" d="M256.5,445.56h0l2.26,1.48,3-.13h0l3-2.1-.09-.18.15-4.51c-2.76-2.92-4.53-3.05-8.43-.65C255.33,441.52,255.79,443.54,256.5,445.56Zm5.28-4.61c1.24.77.87,2,.38,2.79a1.44,1.44,0,0,1-2.4.29h0l-.82-1.49C259,440.41,259.74,439.52,261.78,441Z" transform="translate(-173.12 -341.18)"/><path class="a" d="M264.84,440.12l-.15,4.51C266,443.17,265.8,441.66,264.84,440.12Z" transform="translate(-173.12 -341.18)"/><path class="a" d="M400.78,425.33c-1.11,2.13-2.41,2.95-4.11.51-1.15.82-2.22,1.94-3.82,1h0l-1.29-.1h0c.77,1.59,2.23,1.57,3.69,1.56h0c1.44-.47,1.27.68,1.45,1.47-1.86,1.35-4,.52-6,.8,4.42,2,8,.76,10.51-3.95,1.15-2.12,2-4.39,3-6.59l0-.09h0c-.05-.22-.09-.44-.15-.66C401.92,420.69,401.84,423.28,400.78,425.33Z" transform="translate(-173.12 -341.18)"/><path class="a" d="M396.7,429.73a1.74,1.74,0,0,1-1.45-1.47h0c-1.46,0-2.92,0-3.69-1.56h0l-.73-.67a10.79,10.79,0,0,0-2.31,3.77h0l2.15.73h0C392.68,430.25,394.84,431.08,396.7,429.73Z" transform="translate(-173.12 -341.18)"/><path class="a" d="M279.76,447.72H282l.69-2.22h0c-1.19.33-2.38.93-3.59,0h0C279.29,446.27,279.53,447,279.76,447.72Z" transform="translate(-173.12 -341.18)"/><path class="a" d="M282.81,438.13a2.72,2.72,0,0,0,0,.64c1.2.29,1.33,1.25,1.41,2.25l.3-.65c.36-.74.71-1.48,1.06-2.22Z" transform="translate(-173.12 -341.18)"/><polygon class="a" points="112.53 96.97 112.53 96.97 112.53 96.97 112.53 96.97"/><path class="a" d="M206.27,399a3.81,3.81,0,0,0,.59.08h0c.69-2.07,1.82-2.09,3.24-.68l0,.06h0a2.74,2.74,0,0,1,1.53-.64c1.95-.78,3.9-1.26,5.92.42a2.28,2.28,0,0,0,2.15.82c1.41-.87,3.33-1.08,3.86-3h0V396c-2.27-2.36-5.33-2.86-8.31-3.52h0c-1.2,2-2.81,1.4-4.43.69h0a5,5,0,0,0-3.78.65l-1.63,3.09h0Z" transform="translate(-173.12 -341.18)"/><path class="a" d="M215.21,392.43h0c3,.66,6,1.16,8.31,3.52l.72-1.44c-3.29-3.21-7.24-3.25-11.39-2.35Z" transform="translate(-173.12 -341.18)"/><path class="a" d="M215.21,392.43h0l-2.36-.27c-1-.3-1.38.63-2.07,1h0C212.4,393.83,214,394.47,215.21,392.43Z" transform="translate(-173.12 -341.18)"/><path class="a" d="M223.52,396V396h0l2.92,2.24c.6-1.22-.48-2-.8-3h0l-1.39-.76Z" transform="translate(-173.12 -341.18)"/><path class="a" d="M438.71,406.49c0-2,0-4,0-6h0C436.87,402.5,436.63,404.5,438.71,406.49Z" transform="translate(-173.12 -341.18)"/><path class="a" d="M435,383.27h-.66c0,3,0,6,0,9h0C435.62,389.34,434.67,386.26,435,383.27Z" transform="translate(-173.12 -341.18)"/><path class="a" d="M322.5,347.24h0l2.26,2.27h0l1.5,1.49,1.5,1.39h0c.88.66,1.83,1.26,2.08,2.46h0c.35.66,1,.7,1.59.64.43-1.59-.84-2.51-1.45-3.7h0c-1.23-1.07-2.62-2-3-3.8h0l-.73-.2a4.13,4.13,0,0,1-3-2l-.84.08Z" transform="translate(-173.12 -341.18)"/><path class="a" d="M332.45,357.77l-.92-.94h0A1.07,1.07,0,0,0,332.45,357.77Z" transform="translate(-173.12 -341.18)"/><path class="a" d="M414.88,402h0c2.4-1.09,1.93-4.95,5.12-5.26h0c.22-.78.44-1.56.67-2.33h0l0,0v0h0l-1.35.36-3.21,3.53h0C415.9,399.56,414.66,400.54,414.88,402Z" transform="translate(-173.12 -341.18)"/><path class="a" d="M392.19,402.8h0l.27-.17h0c1.35-1.76-.78-2.25-1.24-3.34s-.93-2.49,0-3.08c1.27-.77,1.79.75,2.33,1.66.83,1.36,1.61,2.76,2.41,4.14h0l.88-.16h0c-.07-.64-.14-1.27-.22-1.9h0c-.73-.93-1.52-1.84-1.38-3.16-.47-.86-.89-1.75-1.41-2.58-1.22-1.94-4.54-1.76-6.14.29h0c1.62,2,1.75,4.65,3,6.78C390.93,402.09,391.26,402.72,392.19,402.8Z" transform="translate(-173.12 -341.18)"/><path class="a" d="M387,402h0c.28,2.29-.73,4.75.94,6.84a1.55,1.55,0,0,0,.57-.2c0-1.87-.07-3.74-.11-5.61l-.77-1Z" transform="translate(-173.12 -341.18)"/><path class="a" d="M384.72,396.76a6.68,6.68,0,0,0-4.33-3.16h0C380.86,396,382.49,396.79,384.72,396.76Z" transform="translate(-173.12 -341.18)"/><path class="a" d="M388.51,408.64l.71,1.55c0-1,0-1.95.08-2.92h0c0-1.74-.06-3.47-.08-5.21h0c-.28.32-.55.65-.82,1h0C388.44,404.9,388.47,406.77,388.51,408.64Z" transform="translate(-173.12 -341.18)"/><path class="a" d="M387,402h.63a9.26,9.26,0,0,0-2.89-5.22h0A17.45,17.45,0,0,0,387,402Z" transform="translate(-173.12 -341.18)"/><path class="a" d="M311.3,343.37h0c.76.2,1.69,0,2.2.84h0a7.93,7.93,0,0,1,5.26,1.53l3.74,1.49h0l0-1.36-3.76-2.28h0c-1.56.23-2.89-.65-4.35-.9C313.35,342.94,312.21,342.64,311.3,343.37Z" transform="translate(-173.12 -341.18)"/><path class="a" d="M306.71,343.4h0l4.59,0h0c.91-.73,2.05-.43,3.06-.67l-1.67-.8-8.81.14h0l-1,.67C304.19,342.85,305.55,342.56,306.71,343.4Z" transform="translate(-173.12 -341.18)"/><path class="a" d="M312.69,341.9c-2.87-1.3-5.89-.42-8.84-.55a2.66,2.66,0,0,0,0,.69h0Z" transform="translate(-173.12 -341.18)"/><path class="a" d="M405.69,416.22a6.82,6.82,0,0,1,1.51-3.83q1.57-4.44,3.13-8.88c-.32-1.56-.27-3,1.5-3.67v0c-.15-1.52-.12-3,1.54-3.75-.92-3.64-2.79-2.3-4.67-.87a3.51,3.51,0,0,1-1.66,4.46l-1.17,1.92h0c-.11.38-.21.77-.32,1.16a5.89,5.89,0,0,1-1.27,3.08h0a24,24,0,0,1-2.36,6.42c.15.65.78,1.27.14,1.95a.67.67,0,0,1-.64-.05c-.66-.61-.24-1.3-.07-2h0a2.33,2.33,0,0,0-.9-1.91c-2.76-2.13-3.07-5.3-3.55-8.41h0L396,402c-.36,1.45-1.44.72-2.27.74,1.74,4.25,3.42,8.52,5.24,12.73,1.67,3.86.86,8-2.06,9.77h0a.68.68,0,0,0-.24.59c1.7,2.44,3,1.62,4.11-.51s1.14-4.64,3.3-6.09l.78-1A2.67,2.67,0,0,1,405.69,416.22Z" transform="translate(-173.12 -341.18)"/><polygon class="a" points="235.58 54.02 235.58 54.02 235.58 54.02 235.58 54.02"/><path class="a" d="M413.39,396.06v0h0v0Z" transform="translate(-173.12 -341.18)"/><path class="a" d="M198.73,388.52h0l.06-.87-.17-2.13a3.44,3.44,0,0,1-2.24-1.47h0l-1.39,0C194.26,387.21,196.88,387.54,198.73,388.52Z" transform="translate(-173.12 -341.18)"/><path class="a" d="M303.76,445.51,303,444c-1.41,0-2.9,1.5-4.21-.22a2.41,2.41,0,0,1-1.63,1.73h0l-.36,0h0l1,.9C300,447.57,301.92,447,303.76,445.51Z" transform="translate(-173.12 -341.18)"/><path class="a" d="M400.45,410.26c-.46-1.52-.93-3-1.4-4.55h0a.7.7,0,0,1-.23-.65l-1.92-3.21h0C397.38,405,397.69,408.13,400.45,410.26Z" transform="translate(-173.12 -341.18)"/><path class="a" d="M401.42,414.14a.67.67,0,0,0,.64.05c.64-.68,0-1.3-.14-1.95l-.57-.07h0C401.18,412.84,400.76,413.53,401.42,414.14Z" transform="translate(-173.12 -341.18)"/><path class="a" d="M420.64,394.42h0c4.38.07,8.91-2.68,13.18.87.52.43.52-1,.34-1.67l-3.11-1.22h0c-3.64-.23-7.31-.59-10.41,2Z" transform="translate(-173.12 -341.18)"/><path class="a" d="M254.25,398.25h0c-1.67.31-1.31,2.14-2.25,3,.05,4.59.31,9.18.05,13.75-.15,2.62,1.55,2.91,3.14,3.24,2,.42,2-1.38,2.22-2.67a37.08,37.08,0,0,0-.91-18.09h0l-.74-.76A1.77,1.77,0,0,1,254.25,398.25Z" transform="translate(-173.12 -341.18)"/><path class="a" d="M254.25,398.25h0a1.77,1.77,0,0,0,1.51-1.52l-1.52-1.47h0C253.36,396.26,254.22,397.25,254.25,398.25Z" transform="translate(-173.12 -341.18)"/><path class="a" d="M179.45,382.51c-1.51,0-3,0-4,1.49v.75h0c.64,1.21,2.2,2.66-.74,3,0,.5,0,1,0,1.5h4.51c.21-.84.51-1.48,1.5-.76l.66-.1h0L183,387a1,1,0,0,1,.35-.28c.89-.57,1.77-.13,2.65.28a30.52,30.52,0,0,0,3.25.74c1.63.2,1.82,1,1.22,2.32,1.08,1.6,2.53,3.14.79,5.18h0c0,.48,0,.95,0,1.43h0c0,.53,0,1.05,0,1.58h0c.8,0,2.77-1.26,2.13-.21-1.44,2.36-.25,4.84-1.38,7a2.38,2.38,0,0,1-2.25,2.23h0L189,408h0l0,.73h0l1.5,1.5h0c1.44-.44,1.25.75,1.5,1.5l2.25.75,1.5-2.25c0-1.68-2-2.2-2.25-3.75.66-1.73-.46-4.23,2.63-4.91,1.18-.26.75-2.2,1.11-3.35-2.6-1.68-1.34-3.89-1.08-6.27a6,6,0,0,1,2.59,3.28c1.2-2.25-.53-4.48,0-6.73h0c-1.85-1-4.47-1.31-3.74-4.45a.37.37,0,0,0-.49-.19C189.56,382.53,184.51,382.5,179.45,382.51Zm.07,1.55c2-1.11,3.4-.93,5.44-.25C183,385.08,181.58,384.89,179.52,384.06Z" transform="translate(-173.12 -341.18)"/><path class="a" d="M198.73,388.52c-.51,2.25,1.22,4.48,0,6.73l-1.51,3h0c-.36,1.15.07,3.09-1.11,3.35-3.09.68-2,3.18-2.63,4.91l2.34.72h0c-2.23-4.11,1.36-5.07,3.64-6.73h0l.55-.87h0c-1-1.07-.44-2,.3-2.86,0-2.24.41-4.49-.2-6.71-1.14-.42,0-2.09-1.34-2.4l-.06.87Z" transform="translate(-173.12 -341.18)"/><path class="a" d="M264,404.25h0c0,1.52,1.89,3.32-.65,4.47a10.65,10.65,0,0,1,1.41,6h0c.21.33.43.65.64,1,4.46-3.24,4.88-3.2,5.36.54,0,.5,0,1,0,1.51h0a5.91,5.91,0,0,0,6,0c-.67-.1-1.74.31-1.89-.44s.94-1.14,1.56-1.1c1.38.11.4,1,.33,1.54h0l3-.75h0c.43-2.4-3-1.65-3-3.67l-2.23-.15c-1,.75-1.64-.1-2.31-.66h0c-3.53-2.63-1.76-6.45-2.21-9.77-.39-.57-1.83.1-1.54-.93s1.46-.46,2.26-.55c1-2.28,3.25-2.88,5.28-3.76h0c.13-1,.91-1.57,1.5-2.26-1.78-.37-4,1-5.23-1.45h0c-2.66,1.18-4.11,4.34-7.39,4.5h0l-.26-.1h0c-.24,1.35-1.5,2.33-1.31,3.82A3,3,0,0,1,264,404.25Z" transform="translate(-173.12 -341.18)"/><path class="a" d="M270,402.75a1.08,1.08,0,0,0,.25-.5Z" transform="translate(-173.12 -341.18)"/><path class="a" d="M263.41,413.72h0l.7.79a3.07,3.07,0,0,1,.64.23h0a10.65,10.65,0,0,0-1.41-6c0-1.52-.38-3.1.65-4.47h0a3,3,0,0,0-.71-2.24c-1.84,2.6-1.79,5.37-.72,8.22A5,5,0,0,1,263.41,413.72Z" transform="translate(-173.12 -341.18)"/><path class="a" d="M303.72,439.22h0l.06.42,0,3.49.93.09c.06-.74.13-1.47.19-2.2h0Z" transform="translate(-173.12 -341.18)"/><path class="a" d="M241.58,447h0c1.24-.78,3.28-.75,3-3h0c0-1.25,0-2.49,0-3.74h0l-.22.1-.61-.1h0v4.54c-1.58-.79-1.45-3.36-3.55-2.26h0a.78.78,0,0,1-1,.61h0c-1.09-.32-2.25,2-3.17.1-.54-1.09-1.66-2.26-.89-3.7s1.67-3,3.86-3c1.58.05,3.34.87,4.7-.71h0c0-1.39-1.62-.79-2.06-1.65l-5.49.08c-.89.42-1.91.63-2.49,1.55h0c-1.92,2.23-1.16,4.92-1.26,7.46h0a8.29,8.29,0,0,0,4.39,3.73Z" transform="translate(-173.12 -341.18)"/><path class="a" d="M241.58,447h-4.73c-.19.25-.38.51-.58.76l4.5.1h0l1.47-.09h0l-.66-.77Z" transform="translate(-173.12 -341.18)"/><path class="a" d="M375.67,443.26h0c0,.81.35,1.77-.52,2.27-.54.31-.72-.37-.92-.78h-.6l-.55,1.57h0l-.09.05a.3.3,0,0,1,0,.23.34.34,0,0,1-.09.13,2.49,2.49,0,0,0,2.89.26h0c.26-.3.52-.59.77-.89h0l.09-5C375.81,441.6,375.78,442.45,375.67,443.26Z" transform="translate(-173.12 -341.18)"/><path class="a" d="M360.74,438.75l-.5-.18-5.49.18-1.48.83h0c-1.32,2.36-.46,4.48.76,6.55h0c2.22,1.49,4.46.61,6.7.06l.68-.73h0a6.67,6.67,0,0,0,.81-4.5h0Zm-3.37,1.53c1.62-.07,1.84.83,1.88,1.91s-.12,1.92-1.56,1.82c-1.13-.08-2-.47-2.08-1.6A1.89,1.89,0,0,1,357.37,440.28Z" transform="translate(-173.12 -341.18)"/><path class="a" d="M272.27,393.8h0l6,0,1.53,0h0l-.81-1.37-.72-.27a19.07,19.07,0,0,0-9.77,2.19c-1.27-.08-1.31,1.4-2.24,1.76h0l-1.3,2.18-.06.09C268.16,398.14,269.61,395,272.27,393.8Z" transform="translate(-173.12 -341.18)"/><path class="a" d="M228,402.93c0-1.2.57-2.87-1.39-3.37.2,1.07.4,2.14.59,3.21h0l0,4.48c-.28,3,.71,6.11-.71,9h0c-.73,4.15-3.26,1.9-5.28,1.49h0l-1,.17h0c2.11,3.1,5.14.93,7.72,1.33C228,413.82,228.08,408.38,228,402.93Z" transform="translate(-173.12 -341.18)"/><path class="a" d="M218.21,417.71c-4.2,1.68-8.41,1-12.62,0,.68,1.28,2.25,1.3,3.16,2.24h0l6.42.13,1.55-.56h0c.8-.57,1.6-1.14,2.39-1.72h0l-.9-.1Z" transform="translate(-173.12 -341.18)"/><path class="a" d="M221.24,417.76l-1.45-5.17h0l-.65-.08-.87,1h0c0,.39,0,.79,0,1.18-.09,1-.49,2,0,3l.9.1h0l1.18.12h0l1-.17Z" transform="translate(-173.12 -341.18)"/><path class="a" d="M407,399.66a3.51,3.51,0,0,0,1.66-4.46c1.88-1.43,3.75-2.77,4.67.87-1.66.78-1.69,2.23-1.54,3.75.52-1.24,1-2.48,1.55-3.73h0v0h0v0l1.28-1.77c-1.38-2.83-3.75-.87-5.65-1.18h0c-.11.69-.21,1.37-.32,2.05-.45.76-.9,1.53-1.36,2.29h0C407.23,398.21,407.14,398.94,407,399.66Zm1.66-4.46Z" transform="translate(-173.12 -341.18)"/><path class="a" d="M333.84,372.64l.26,0,.26,0h0c.1-1.47.19-2.94.28-4.41h0c-.3-1.22.22-2.63-.88-3.66h0Q333.79,368.61,333.84,372.64Z" transform="translate(-173.12 -341.18)"/><path class="a" d="M326.3,347.79l-.12-1.88h0L324,345.7h0a5.36,5.36,0,0,1-.7.1h0A4.13,4.13,0,0,0,326.3,347.79Z" transform="translate(-173.12 -341.18)"/><path class="a" d="M278.25,393.76v1.49c.33,1.08.43,2.28,1.51,3h0c2.24.33,3.12,1.67,3,3.86-.16,3,.49,6.2-1.49,8.93h0c1.21,2.12,3.56,4,1.37,6.82h0a4.48,4.48,0,0,1,.11.72c.22,0,.45.07.67.12h0l.81-.93h0c1-2,2-2,3,0,.49-.5,1-1,1.48-1.49h0v-1.5c-.57-.8-1.1-1.64-1.72-2.41-1.94-2.42-1.24-3.54,1.72-3.6h0v-4.48h0c-1.92-.61-.72-1.95-.71-3a3.35,3.35,0,0,0-1.33-3.17c-1.14-.79-1-1.83-.18-2.83h0c-.72-2.1-.18-3.25,2.24-3h0L288,390l-3.28-1.39c1.35-1.33,2.75-.67,4-.89h0c0-1.24,0-2.48,0-3.72a6.36,6.36,0,0,0-5.95,0h0c.16,2.75-.53,5.58.71,8.23.67.84,1.06,1.81.07,2.55s-1.81.22-2.29-.85h0l-1.47-.21h0Z" transform="translate(-173.12 -341.18)"/><path class="a" d="M283.54,394.78c1-.74.6-1.71-.07-2.55l-1.36.06h0c-.29.55-.57,1.1-.86,1.64h0C281.73,395,282.55,395.52,283.54,394.78Z" transform="translate(-173.12 -341.18)"/><path class="a" d="M428.3,419.31l-.22-.21c-4.26.49-7.49-1.47-10.31-4.36h0c0,.58-.07,1.16-.1,1.74h0l2.59,2.65c.19.28.38.56.58.83h0C423.3,419.41,426,421.3,428.3,419.31Z" transform="translate(-173.12 -341.18)"/><path class="a" d="M297.3,439.71l1.23.59h0c1-.45,2-1.08,3-.09h0c.46,2.45-1.54,1.11-2.39,1.54h0c0,.47.07.94.1,1.41l3.77.24.71-.27,0-3.49,0,0-.88-.83c-1.45-.1-3,.26-4.33-.57h0l-.75-.11h0l-.71.69a2.13,2.13,0,0,0-.09.71.87.87,0,0,1,.32.22Z" transform="translate(-173.12 -341.18)"/><path class="a" d="M297.71,441.71h0c-.13-.67-.27-1.34-.41-2a.87.87,0,0,0-.32-.22,4.36,4.36,0,0,0-.08,5.45C297,443.83,296.88,442.64,297.71,441.71Z" transform="translate(-173.12 -341.18)"/><path class="a" d="M297.12,445.53a2.41,2.41,0,0,0,1.63-1.73l0-.35h0c-.33-.58-.66-1.16-1-1.74h0c-.83.93-.68,2.12-.81,3.23a.77.77,0,0,0,.13.45.67.67,0,0,0,.09.14Z" transform="translate(-173.12 -341.18)"/><path class="a" d="M258.76,447c0,.23,0,.45,0,.68l3,.11h0l0-.92h0Z" transform="translate(-173.12 -341.18)"/><path class="a" d="M374.35,443.26h1.32c.11-.81.14-1.66,1-2.16a1.27,1.27,0,0,0,.59-.21h0c0-.69,0-1.39.07-2.09C373.55,438.47,374.35,441.13,374.35,443.26Z" transform="translate(-173.12 -341.18)"/><path class="a" d="M373.38,441c.09,1.25.17,2.5.25,3.75h.6l.12-1.49h0c0-2.13-.8-4.79,2.94-4.46,0-.2,0-.41,0-.62h0C374.91,437.64,373.11,437.88,373.38,441Z" transform="translate(-173.12 -341.18)"/><path class="a" d="M392.46,402.63l-.27.17h0q2.25,5.59,4.51,11.2c1,2.2,3.37,4.07,1.61,6.91h0a5.89,5.89,0,0,1-1.48,3.62,5.87,5.87,0,0,1,.08.72h0c2.92-1.72,3.73-5.91,2.06-9.77-1.82-4.21-3.5-8.48-5.24-12.73Z" transform="translate(-173.12 -341.18)"/><path class="a" d="M385.5,412.5l.72.58h0l.86-.59h0c.09-1,1-1.86.69-3A4,4,0,0,0,385.5,412.5Z" transform="translate(-173.12 -341.18)"/><path class="a" d="M385.5,412.5c-.79.85-1.65,1.68-.87,3l1.59-2.41h0Z" transform="translate(-173.12 -341.18)"/><path class="a" d="M363.76,413.24h0L360.83,408l-.21.74.15,1.44c.47,1,.93,2.08,1.39,3.12h0a.33.33,0,0,1,.21.43h0l1.3,1.21Z" transform="translate(-173.12 -341.18)"/><path class="a" d="M354.75,438.75l5.49-.18A4.65,4.65,0,0,0,354.75,438.75Z" transform="translate(-173.12 -341.18)"/><path class="a" d="M373.08,446.33h0l.55-1.57c-.08-1.25-.16-2.5-.25-3.75h-.59c0,1.77-.26,3.56.28,5.3v0Z" transform="translate(-173.12 -341.18)"/><path class="a" d="M236.21,434.23l5.49-.08A5.42,5.42,0,0,0,236.21,434.23Z" transform="translate(-173.12 -341.18)"/><path class="a" d="M243.75,438.78c-1.24.42-2.67-.24-3.82.68,1.25.38,2.68-.13,3.84.74h0l.61.1A1.33,1.33,0,0,0,243.75,438.78Z" transform="translate(-173.12 -341.18)"/><path class="a" d="M245.24,440.26a3.39,3.39,0,0,0-.64-.06h0c0,1.25,0,2.49,0,3.74h0l.75-.71h0v-1.46h0C245.31,441.26,245.28,440.76,245.24,440.26Z" transform="translate(-173.12 -341.18)"/><path class="a" d="M311.28,376.31a.24.24,0,0,0,0,.37h0c-.26.64-.53,1.28-.79,1.91h0l.82.17h0l2.12-1.49h0Z" transform="translate(-173.12 -341.18)"/><path class="a" d="M279.11,418.77h0l.69-.9c0-.29,0-.58-.05-.86h0l-3,.75h0a5.91,5.91,0,0,1-6,0h0c-.85,0-1.94-.68-2.25.8h0c.48,1.07,2.35.56,2.42,2.11l1.32,0h0c1.59-1,3.41-.49,5.11-.78C278,419.6,278.07,418.48,279.11,418.77Z" transform="translate(-173.12 -341.18)"/><path class="a" d="M320.33,369.74h0l3.68.15.69-.84c-1-.95-2-1.91-3-2.87h0l-.76-.92c-.49,1.36,0,3.14-1.23,4.19a3,3,0,0,1-.86.5Z" transform="translate(-173.12 -341.18)"/><path class="a" d="M315.6,369.77h0c.6,1.19.46,2.69,1.58,3.65l.93-2.65L316,369h0l-.36.1A.78.78,0,0,1,315.6,369.77Z" transform="translate(-173.12 -341.18)"/><path class="a" d="M322.49,361.53H321c-.54.45-1.08.9-1.61,1.36l1.8,1.8h0A4.79,4.79,0,0,0,322.49,361.53Z" transform="translate(-173.12 -341.18)"/><path class="a" d="M315.6,369.07l.36-.1h0a5.75,5.75,0,0,0-4.67-.75,4.48,4.48,0,0,0,.2.62Z" transform="translate(-173.12 -341.18)"/><path class="a" d="M303,381h0c.85.08,1.87-.4,2.41.73,1.81.4,1.59-1.76,2.75-2.17h0c.44-1.13,1.61-.5,2.32-1h0c.26-.63.53-1.27.79-1.91h0c-.79-.49-2.28.07-2.31-1.55h0l-.84-.87h0L307,372.32c-.39.68-.26,2.12-1.75,1.19h0c-.72.24-1.26,1-2.15.74h0l-2.3.77h0c.79,1.39,1.65,2.77.53,4.39Z" transform="translate(-173.12 -341.18)"/><path class="a" d="M302.27,381.79h0L303,381h0l-1.7-1.59-1.14.88h0c.09.54-1.27,1-.12,1.6Z" transform="translate(-173.12 -341.18)"/><path class="a" d="M223.51,396h0c-.53,2-2.45,2.17-3.86,3l.32.73h0a1.53,1.53,0,0,1,.6.05h0c.43.89.9,1.77,1.28,2.68.15.37.63,1-.16,1.13-.33.05-.76-.54-1.15-.84-1.28.15-2.65-.2-3.8.68h0l-.75.79h0l.77,1.48h0c1.62-.91,2.77-.79,3,1.36h0l.89,1.6h0l.6,2.3c3.45.06,4.45,2.57,5.26,5.27h0c1.42-2.91.43-6,.71-9a3.8,3.8,0,0,1,0-4.48h0c-.19-1.07-.39-2.14-.59-3.21l-.18-1.32Z" transform="translate(-173.12 -341.18)"/><path class="a" d="M350,399.49a2,2,0,0,1,.24-.49c-.5-2.45,2-2,2.93-3h0c0-.26,0-.52.05-.77l-1.48-.74h0c-.66.61-1.31,1.28-2.33.72l-1.44.53h0l-.76.93a10.91,10.91,0,0,1-9.79.94,5.38,5.38,0,0,1-1-.48v-.06a5.37,5.37,0,0,1-.45-.35h0l-.06-8.21h0l-.7,0c0,7.63-.05,15.25,0,22.87,0,1.1-.8,2.52.73,3.33.41-4.2-.93-8.51.79-12.63h0a10.1,10.1,0,0,1,8.2-.16c1.73.91,4,.5,5.37,2.34h0c3.75.69,2.87,3.67,3.05,6.14.13,1.72-.39,2.67-2.31,2.22h0c.21.7.41,1.41.62,2.12l1.54.77h0c4.17-4.13,3.75-8.77-.53-12.22-.84-.68-4.08-.77-2.52-3.53h0C350.15,399.65,350,399.55,350,399.49Z" transform="translate(-173.12 -341.18)"/><path class="a" d="M336.75,416.25l.06-1.53h0l0-.07-.81,0h0c-1.53-.81-.72-2.23-.73-3.33-.08-7.62,0-15.24,0-22.87h0c0-.75,0-1.5,0-2.25h-1.51a3.09,3.09,0,0,1-1.47,3h0l0,1.52c1.06,3.74,1.72,7.49,0,11.23h0v.77c1.44,4.18.48,8.49.73,12.74.58,1.31,1.37,2.34,3,2.24h0Z" transform="translate(-173.12 -341.18)"/><path class="a" d="M333.76,386.24h1.51a14.18,14.18,0,0,1,13.5,0h0c4-.46,2.61,2.62,3,4.53h0l2.87,1.45h0c-1.22-5.73-4.21-9.63-7.92-9.49-4.57.16-9.18-.6-13.71.54Z" transform="translate(-173.12 -341.18)"/><path class="a" d="M332.27,402.76q0,6.36,0,12.73H333C332.75,411.25,333.71,406.94,332.27,402.76Z" transform="translate(-173.12 -341.18)"/><path class="a" d="M332.27,390.76V402h0C334,398.25,333.33,394.5,332.27,390.76Z" transform="translate(-173.12 -341.18)"/><path class="a" d="M351.77,390.75h0c0,1.25,0,2.5,0,3.74l1.48.74h0l1.41-3h0Z" transform="translate(-173.12 -341.18)"/><path class="a" d="M333.76,386.24h0l-.75-3c-1.3,1.87-.56,4-.72,6h0A3.09,3.09,0,0,0,333.76,386.24Z" transform="translate(-173.12 -341.18)"/><path class="a" d="M350.25,399a4.4,4.4,0,0,0,3-2.25h0l-.09-.75h0C352.21,397,349.75,396.55,350.25,399Z" transform="translate(-173.12 -341.18)"/><path class="a" d="M350.25,415.49l-1.5-1.4c-2-.3-3.91,1.31-6,.52l-5.95.11h0l-.06,1.53c3.49.23,7.05-.5,10.49,1l-10.49.5h0c4.89.87,9.84,2.24,14.26-1.5l-.76-.76Z" transform="translate(-173.12 -341.18)"/><path class="a" d="M347.24,417.25c-3.44-1.5-7-.77-10.49-1l-.75,1.49h.75Z" transform="translate(-173.12 -341.18)"/><path class="a" d="M351.74,414.72l-1.49.77.76.76a3.11,3.11,0,0,0,2.27-.76h0Z" transform="translate(-173.12 -341.18)"/><path class="a" d="M311.08,421.35h0v0h0c.08-.67.17-1.34.26-2h0l-1.6,0c-1,6.76-4.15,11.45-12.75,10.47h0l-.79,0h0l.79,1.33h0c2,.68,4,.09,6,.2l2.17-1C308.42,428.15,309.08,424.31,311.08,421.35Z" transform="translate(-173.12 -341.18)"/><path class="a" d="M297,429.73c8.6,1,11.72-3.71,12.75-10.47l.75-3h0L308.25,414a4.88,4.88,0,0,1-1.5-3.76h0a20.77,20.77,0,0,1-3.73-12h0a2.42,2.42,0,0,1,0-.71h0l-.73-.75c-1.09-.79-2.16-1.59-3.26-2.36-1.26-.89-2.28-.4-3.24.56-1.3,1.29-1,2.35.42,3.28,1.48-.48,1.46.54,1.5,1.5l1.5-.75h0c2.9-.14.6,1.46.75,2.25l-1.5,2.24h0c.48,2.67,2.26,5,2.13,7.82h0a.3.3,0,0,0,.17.43c3.59-.79,2.17,2.35,2.95,3.76,2.32,3.24,1.65,6.49,0,9.73h0c-.5.26-.72,1.07-1.5.76-2.51.78-5.25-1.12-7.68.67h0l-.05,0c.06.54.13,1.08.19,1.63C295.62,428.51,297.34,427.53,297,429.73Z" transform="translate(-173.12 -341.18)"/><path class="a" d="M297,429.73h0c.34-2.2-1.38-1.22-2.29-1.48-.41,1.4.72,1.3,1.5,1.53h0Z" transform="translate(-173.12 -341.18)"/><path class="a" d="M298.53,438.2h0c1.36.83,2.88.47,4.33.57C301.6,437.25,300,438,298.53,438.2Z" transform="translate(-173.12 -341.18)"/><path class="a" d="M177.75,390.75h0v23.11h1.5V390.75Z" transform="translate(-173.12 -341.18)"/><path class="a" d="M191.21,396.67h0a7.33,7.33,0,0,1-6.72,1.56h0l-2.11,0h-.81l.06-9.56-.22-.24h0l-.66.1c0,.51,0,1-.05,1.52h0c.37,2.74-.66,5.61.74,8.25h0c3.27,3.16,6.54,1,9.8,0h0C191.24,397.72,191.22,397.2,191.21,396.67Z" transform="translate(-173.12 -341.18)"/><path class="a" d="M174.76,389.26h0c.45,1.59,1.76,1.46,3,1.49h1.5v-1.49h-4.49Z" transform="translate(-173.12 -341.18)"/><path class="a" d="M192,405c-1,.48-2,1-2.25,2.23h0A2.38,2.38,0,0,0,192,405Z" transform="translate(-173.12 -341.18)"/><path class="a" d="M184.23,404c.18,0,.33-.27.49-.43-.16-.14-.34-.41-.47-.39s-.34.28-.5.43C183.92,403.76,184.09,404,184.23,404Z" transform="translate(-173.12 -341.18)"/><path class="a" d="M180.75,388.49c-1-.72-1.29-.08-1.5.76h0l1.45.76h0C180.72,389.51,180.73,389,180.75,388.49Z" transform="translate(-173.12 -341.18)"/><path class="a" d="M369.7,396.71h0l-4.44,3h0l0,1.51h0a4.06,4.06,0,0,1-.72,3,4.45,4.45,0,0,0,.67,4.59h0c0,1,.06,1.92.08,2.88h0l1.7-.08h0c-.08-.5-.15-1-.23-1.49-1.39-3.72-1.68-7.29,1.39-10.41h0c1.93-3.35,5.2-3.11,8.38-3.13l-.74-.68C373.71,396,371.63,395.77,369.7,396.71Z" transform="translate(-173.12 -341.18)"/><path class="a" d="M382.4,402.78l.75.8v0c0-5-1.66-6.93-5.94-6.78h0A12.22,12.22,0,0,1,382.4,402.78Z" transform="translate(-173.12 -341.18)"/><path class="a" d="M369.75,395.24h0c0,.49,0,1-.05,1.47,1.93-.94,4-.67,6.05-.76-.61-1.9-2-.68-3-.7Z" transform="translate(-173.12 -341.18)"/><path class="a" d="M365.17,408.86h0c-1.31,1.19-1.44,2.76-1.41,4.38h0a1.74,1.74,0,0,0,1.49-1.5h0C365.23,410.78,365.2,409.82,365.17,408.86Z" transform="translate(-173.12 -341.18)"/><path class="a" d="M375,414.74h0l-2.24-.06h0l-1.56.17a6.38,6.38,0,0,0,6.62-.05h0Z" transform="translate(-173.12 -341.18)"/><path class="a" d="M369.62,394.56l.12-.06A.17.17,0,0,0,369.62,394.56Z" transform="translate(-173.12 -341.18)"/><path class="a" d="M369.75,395.24h3v-1.5h0a4.11,4.11,0,0,0-3,.75C369.75,394.74,369.75,395,369.75,395.24Z" transform="translate(-173.12 -341.18)"/><path class="a" d="M383,408.67c1.47-1.68,1.29-3.4.13-5.15h0v.05C383.11,405.28,383.06,407,383,408.67Z" transform="translate(-173.12 -341.18)"/><path class="a" d="M365.26,399.76h0l4.44-3h0c0-.49,0-1,.05-1.47h0c0-.25,0-.5,0-.74l-.12.06-4.34,2.21C364,399.38,364,399.38,365.26,399.76Z" transform="translate(-173.12 -341.18)"/><path class="a" d="M363.76,401.26h1.47l0-1.51h0c-1.31-.38-1.31-.38,0-3l-1-.11h-.08l-1.74,1.72-.05.05c-.38,1.17-.77,2.34-1.15,3.5Z" transform="translate(-173.12 -341.18)"/><path class="a" d="M414.88,402h0a.46.46,0,0,0-.19.57h0l.21,7.49c1.86,1,1.21,3.54,2.87,4.67h0c2.82,2.89,6.05,4.85,10.31,4.36l-1.33-1.35a2.87,2.87,0,0,1-2.26-1.45l-1.51-.73-.81-.79h0c-3.05-.15-2.73-2.5-2.94-4.51-3.12-4.34-2.06-8.74,2.91-12.13h0l.12-1.38H420C416.81,397.06,417.28,400.92,414.88,402Z" transform="translate(-173.12 -341.18)"/><polygon class="a" points="255.86 75.12 255.86 75.12 255.86 75.12 255.86 75.12"/><path class="a" d="M423.78,415.25l-.8.32,1.51.73H429l.68-.91h0A17.08,17.08,0,0,1,423.78,415.25Z" transform="translate(-173.12 -341.18)"/><path class="a" d="M424.49,416.3a2.87,2.87,0,0,0,2.26,1.45L429,416.3h-4.49Z" transform="translate(-173.12 -341.18)"/><path class="a" d="M422.14,398.14h0c-5,3.39-6,7.79-2.91,12.13h.62l-.66-1.52c-1.11-2.67-1.18-5.22.88-7.52l2.37-2.76,2.77-1a3.08,3.08,0,0,0,.16-.54l5.74.05,1.73,1.2v0h0l1.33.29c.48-2.78-1.87-1.21-2.8-1.83h0c-2.08-.7-4.16-1.5-6.25,0h0l-2.87.15h0Z" transform="translate(-173.12 -341.18)"/><path class="a" d="M288.73,408.74c-3,.06-3.66,1.18-1.72,3.6.62.77,1.15,1.61,1.72,2.41v-6Z" transform="translate(-173.12 -341.18)"/><path class="a" d="M288.72,401.23h0c0-2,0-4,0-6l-2.2,0c-.78,1-1,2,.18,2.83a3.35,3.35,0,0,1,1.33,3.17Z" transform="translate(-173.12 -341.18)"/><path class="a" d="M288.7,395.27c0-1,0-2,0-3h0c-2.42-.24-3,.91-2.24,3h0Z" transform="translate(-173.12 -341.18)"/><path class="a" d="M288.72,387.73c-1.23.22-2.63-.44-4,.89L288,390a2.92,2.92,0,0,0,.7-2.28Z" transform="translate(-173.12 -341.18)"/><path class="a" d="M287.25,419.23a3.64,3.64,0,0,0,1.48-3h0c-.5.49-1,1-1.48,1.49h-3l-.81.93h0C284.55,420,286,419.25,287.25,419.23Z" transform="translate(-173.12 -341.18)"/><path class="a" d="M282.76,384h0a6.36,6.36,0,0,1,5.95,0C286.73,381.73,284.74,381.78,282.76,384Z" transform="translate(-173.12 -341.18)"/><path class="a" d="M288.72,401.23h0l-.71,0c0,1.06-1.21,2.4.71,3h0Z" transform="translate(-173.12 -341.18)"/><path class="a" d="M202.55,418.49h0q-2.55-4.19-5.12-8.36A20.48,20.48,0,0,1,198,413c.07,1.61,2.42,3.9,1.61,3.92-2.22.05-4.29,2.13-6.57.66l-.24-2.84h0c-.25-.5-.5-1-.76-1.5a1.22,1.22,0,0,1-.29-.58l-1.2-2.42h0l-1.5-1.5-1.05.66h0l.39,1.39h0l.16.29c1.2,2.15,3.12,3.9,3.65,6.44h0a1.51,1.51,0,0,1,.62.2C194.38,419.77,199,420.13,202.55,418.49Z" transform="translate(-173.12 -341.18)"/><path class="a" d="M208.59,402.85a1.24,1.24,0,0,1,0,.18l.18-.16A1.36,1.36,0,0,0,208.59,402.85Z" transform="translate(-173.12 -341.18)"/><path class="a" d="M212.28,414h0c-.23-.5-.46-1-.7-1.5-.88-1.45-.47-2.68.66-3.79-.25-.47-.49-.94-.73-1.41h0l.74-1.51h0a2.77,2.77,0,0,1,1.5-2.24c0-.17,0-.35,0-.52l-1-.35-.28,0-.24.15h0a1.19,1.19,0,0,1-.63.34c-1.17.75-2.21,2-3.86.71h0c-1.12,0-1,1.25-1.61,1.72h0c-1.71,3.67-2.6,7.44-1.41,11.46h0a4.21,4.21,0,0,1,.11.6l.74.15c4.21,1,8.42,1.67,12.62,0h0c-.47-1-.07-2,0-3C216.23,414.62,214.1,415.53,212.28,414Zm-6.74-1.77a4.2,4.2,0,0,1,2.46-2.62c1.09-.49,1.08.57,1.19,1.16.07,1.6-.56,2.5-2.13,2.46C206.36,413.17,205.28,413.23,205.54,412.18Z" transform="translate(-173.12 -341.18)"/><path class="a" d="M261.7,441.77c0,1.33-1.17,1.61-1.94,2.26h0a1.44,1.44,0,0,0,2.4-.29c.49-.82.86-2-.38-2.79l-.08.82Z" transform="translate(-173.12 -341.18)"/><path class="a" d="M195.75,410.25l-1.5,2.25c0,1.08-.3,2-1.5,2.25h0l.24,2.84c2.28,1.47,4.35-.61,6.57-.66.81,0-1.54-2.31-1.61-3.92a20.48,20.48,0,0,0-.52-2.88l0,0Z" transform="translate(-173.12 -341.18)"/><path class="a" d="M194.25,412.5l-2.25-.75c0,.5,0,1,0,1.5-.09-.19-.19-.39-.29-.58a1.22,1.22,0,0,0,.29.58c.26.5.51,1,.76,1.5h0C194,414.47,194.24,413.58,194.25,412.5Z" transform="translate(-173.12 -341.18)"/><path class="a" d="M192,411.75c-.25-.75-.06-1.94-1.5-1.5h0l1.2,2.42c.1.19.2.39.29.58C192,412.75,192,412.25,192,411.75Z" transform="translate(-173.12 -341.18)"/><path class="a" d="M396.7,429.73c-.18-.79,0-1.94-1.45-1.47h0A1.74,1.74,0,0,0,396.7,429.73Z" transform="translate(-173.12 -341.18)"/><path class="a" d="M213.75,398.34l3.75-.12c-2-1.68-4-1.2-5.92-.42l-1.53.64h0Z" transform="translate(-173.12 -341.18)"/><path class="a" d="M210.1,398.38c-1.42-1.41-2.55-1.39-3.24.68h0C208.36,400.81,209.19,399.39,210.1,398.38Z" transform="translate(-173.12 -341.18)"/><path class="a" d="M414,410c0-2.34,0-4.69.05-7h0c-.28-.58-.56-1.16-.85-1.74h0c0,1.51,0,3,0,4.53l.09,5.18h0L414,410Z" transform="translate(-173.12 -341.18)"/><path class="a" d="M414,410h0a2.19,2.19,0,0,0,.59.35l.29-.29-.21-7.49h0l-.62.4h0C414.06,405.32,414,407.67,414,410Z" transform="translate(-173.12 -341.18)"/><path class="a" d="M411.75,401.25c0-.47.05-.94.08-1.41h0c-1.77.7-1.82,2.11-1.5,3.67h0C410.81,402.76,411.28,402,411.75,401.25Z" transform="translate(-173.12 -341.18)"/><path class="a" d="M393.59,397.87c-.54-.91-1.06-2.43-2.33-1.66-1,.59-.48,2,0,3.08s2.59,1.58,1.24,3.34h0l1.27.12c.83,0,1.91.71,2.27-.74h0C395.2,400.63,394.42,399.23,393.59,397.87Z" transform="translate(-173.12 -341.18)"/><path class="a" d="M414.9,410.07l-.29.29.24,2.95h0l.12.16-.13.16a4.09,4.09,0,0,1,2,3l.85-.17h0c0-.58.06-1.16.1-1.74h0C416.11,413.61,416.76,411.07,414.9,410.07Z" transform="translate(-173.12 -341.18)"/><path class="a" d="M299.26,443.16a.71.71,0,0,1-.55.29h0l0,.35c1.31,1.72,2.8.23,4.21.22h0a1.62,1.62,0,0,0,.07-.62h0Z" transform="translate(-173.12 -341.18)"/><path class="a" d="M198.75,395.25a6,6,0,0,0-2.59-3.28c-.26,2.38-1.52,4.59,1.08,6.27h0Z" transform="translate(-173.12 -341.18)"/><path class="a" d="M183,387a2,2,0,0,1,.35-.28A1,1,0,0,0,183,387Z" transform="translate(-173.12 -341.18)"/><path class="a" d="M181.63,388.63c2.52-.06,5.09-.81,7.5.52l.67.79h0l.67.12c.6-1.3.41-2.12-1.22-2.32A30.52,30.52,0,0,1,186,387c-1,.88-2,0-3,0l-1.59,1.39h0Z" transform="translate(-173.12 -341.18)"/><path class="a" d="M185,383.81c-2-.68-3.48-.86-5.44.25C181.58,384.89,183,385.08,185,383.81Z" transform="translate(-173.12 -341.18)"/><path class="a" d="M197.4,410.1c-.06-.45-.11-.89-.17-1.34l-1.39-1.54h0l-2.34-.72c.25,1.55,2.22,2.07,2.25,3.75Z" transform="translate(-173.12 -341.18)"/><path class="a" d="M175.49,384.75h0a4.06,4.06,0,0,0-.74,3C177.69,387.41,176.13,386,175.49,384.75Z" transform="translate(-173.12 -341.18)"/><path class="a" d="M186,387c-.88-.41-1.76-.85-2.65-.28a2,2,0,0,0-.35.28C184,387,185,387.88,186,387Z" transform="translate(-173.12 -341.18)"/><path class="a" d="M272.29,411.7h0c-.47-1-.93-2-1.4-3-.48-3.86-.14-7.34,4.14-9h0c1.56-.89,3.1-1.24,4.6.11a.43.43,0,0,1,.21.5c3,2.39,1.17,5.55,1.35,8.39h0c.12.67.09,1.27-.66,1.58h0a1.32,1.32,0,0,0,.11.73h.64c2-2.73,1.33-5.89,1.49-8.93.11-2.19-.77-3.53-3-3.86h0l-3.76-.72h0c-2,.88-4.25,1.48-5.28,3.76l-.47,1a1.08,1.08,0,0,1-.25.5c.45,3.32-1.32,7.14,2.21,9.77h0c0-.28.05-.55.08-.82Z" transform="translate(-173.12 -341.18)"/><path class="a" d="M279.8,417.86l2.85,0h0c2.19-2.8-.16-4.7-1.37-6.82h-.64c-.76,1.68-2.25,2.12-3.89,2.32,0,2,3.43,1.27,3,3.67h0C279.77,417.28,279.79,417.57,279.8,417.86Z" transform="translate(-173.12 -341.18)"/><path class="a" d="M267.71,417.89c.41-1.67,1.74-1.62,3-1.64-.48-3.74-.9-3.78-5.36-.54h0A3.79,3.79,0,0,0,267.71,417.89Z" transform="translate(-173.12 -341.18)"/><path class="a" d="M278.25,395.25v-1.49l-6,0h0c1.21,2.42,3.45,1.08,5.23,1.45Z" transform="translate(-173.12 -341.18)"/><path class="a" d="M279.76,398.23h0c-1.08-.7-1.18-1.9-1.51-3h-.75c-.59.69-1.37,1.26-1.5,2.26h0Z" transform="translate(-173.12 -341.18)"/><path class="a" d="M264,404.25h0c-1,1.37-.65,2.95-.65,4.47C265.88,407.57,264,405.77,264,404.25Z" transform="translate(-173.12 -341.18)"/><path class="a" d="M267.71,417.89l.78.67h0c.31-1.48,1.4-.82,2.25-.8h0c0-.51,0-1,0-1.51C269.45,416.27,268.12,416.22,267.71,417.89Z" transform="translate(-173.12 -341.18)"/><path class="a" d="M276.42,416.21c-.62,0-1.72.34-1.56,1.1s1.22.34,1.89.44h0C276.82,417.18,277.8,416.32,276.42,416.21Z" transform="translate(-173.12 -341.18)"/><path class="a" d="M270.72,401.27c-.8.09-2-.34-2.26.55s1.15.36,1.54.93l.25-.5Z" transform="translate(-173.12 -341.18)"/><path class="a" d="M274.45,412.61h0l-.79-.24-1.37-.67h0c0,.27-.06.54-.08.82h0c.67.56,1.26,1.41,2.31.66h0A3.7,3.7,0,0,0,274.45,412.61Z" transform="translate(-173.12 -341.18)"/><path class="a" d="M239.93,439.46c-1,.48-.54,1.41-.63,2.16l.92.86h0c2.1-1.1,2,1.47,3.55,2.26V440.2h0C242.61,439.33,241.18,439.84,239.93,439.46Z" transform="translate(-173.12 -341.18)"/><path class="a" d="M375.15,445.53c.87-.5.52-1.46.52-2.27h-1.32l-.12,1.49C374.43,445.16,374.61,445.84,375.15,445.53Z" transform="translate(-173.12 -341.18)"/><path class="a" d="M221.26,411l-1.47,1.59h0l1.45,5.17h0c2,.41,4.55,2.66,5.28-1.49h0C225.71,413.57,224.71,411.06,221.26,411Z" transform="translate(-173.12 -341.18)"/><path class="a" d="M227.23,407.25l0-4.48h0A3.8,3.8,0,0,0,227.23,407.25Z" transform="translate(-173.12 -341.18)"/><path class="a" d="M217.84,413.36c-1.72,1.46-3.67.75-5.56.59h0c1.82,1.58,3.95.67,5.95.74,0-.39,0-.79,0-1.18h0a3.12,3.12,0,0,0-.43-.15Z" transform="translate(-173.12 -341.18)"/><path class="a" d="M221.26,411l-.6-2.3h0c-.22,1-.12,2.28-1.7,2.28h0a2.94,2.94,0,0,1-.64.14h0a1.22,1.22,0,0,0,.05.57h0l.77.82h0l.65.08h0Z" transform="translate(-173.12 -341.18)"/><path class="a" d="M287.25,417.74c-1-2-2-2-3,0h3Z" transform="translate(-173.12 -341.18)"/><path class="a" d="M299.26,443.16c0-.47-.06-.94-.1-1.41h0l-.56-.79a.77.77,0,0,1-.06-.66h0l-1.23-.59h0c.14.66.28,1.33.41,2h0c.34.58.67,1.16,1,1.74h0A.71.71,0,0,0,299.26,443.16Z" transform="translate(-173.12 -341.18)"/><path class="a" d="M298.6,441c1-.07,2.23.52,2.95-.75h0c-1-1-2-.36-3,.09h0A.77.77,0,0,0,298.6,441Z" transform="translate(-173.12 -341.18)"/><path class="a" d="M298.6,441l.56.79h0c.85-.43,2.85.91,2.39-1.54h0C300.83,441.48,299.63,440.89,298.6,441Z" transform="translate(-173.12 -341.18)"/><path class="a" d="M360.83,408l2.93,5.23h0c0-1.62.1-3.19,1.41-4.38h0a4.45,4.45,0,0,1-.67-4.59,4,4,0,0,1-.75-3l-2.46.66h0c-.2.28-.41.55-.62.83h0Z" transform="translate(-173.12 -341.18)"/><path class="a" d="M306.75,410.24c.24-.49.49-1,.74-1.47h0q-1.47-3.75-2.92-7.5h0l-1-2.91a2.15,2.15,0,0,1-.57-.13h0A20.77,20.77,0,0,0,306.75,410.24Z" transform="translate(-173.12 -341.18)"/><path class="a" d="M305.4,381.73c0,.47.09.95.14,1.42h0a2,2,0,0,1,1.3,1.44h1.33c0-1.67,0-3.35,0-5h0C307,380,307.21,382.13,305.4,381.73Z" transform="translate(-173.12 -341.18)"/><path class="a" d="M312.59,396.7h0l.89,0h0c1.91-3.59,4.23-4,7.55-1.43a5.67,5.67,0,0,1,.57-.1h0c-.24-.83,1.19-1.84-.27-2.54-2.42-1.15-7.34.32-8.7,2.59h0l0,1.45Z" transform="translate(-173.12 -341.18)"/><path class="a" d="M313.48,396.73h0a4,4,0,0,1,.77,3,1.76,1.76,0,0,0,1.5,1.51h0l.69-1c.27.59.55,1.18.83,1.78h0l1.57-1.55c.09-1.41,1.1-2.19,2.07-3h0l.12-2.16C317.71,392.7,315.39,393.14,313.48,396.73Z" transform="translate(-173.12 -341.18)"/><path class="a" d="M315.88,408h0a1.09,1.09,0,0,1-.1-.73h0l-.09-.82h-1.44c0,1.24,0,2.49,0,3.73-1.4,1.91-1.9,4.37-3.73,6h0l-.75,3,1.6,0h0l3.8-8.28C315.39,410,315.64,409,315.88,408Z" transform="translate(-173.12 -341.18)"/><path class="a" d="M319.63,401.29h0l-.79-.83L317.27,402h0c0,1.06-.31,2-1.5,2.25,0,.75-.06,1.49-.08,2.23h0l.09.82h0c1.72-1,1.49-3.26,3-4.37l.82-.95h0A.73.73,0,0,1,319.63,401.29Z" transform="translate(-173.12 -341.18)"/><path class="a" d="M302.37,421l-.08,1.12-.12,1.51h0l.19.24h0l1.39,1.33h0c1.65-3.24,2.32-6.49,0-9.73,0,.81-.05,1.62-.07,2.43C303.69,419.15,304.27,420.61,302.37,421Z" transform="translate(-173.12 -341.18)"/><path class="a" d="M215.26,404.25a1,1,0,0,0-.68-.34l.68.34-3,1.49-.74,1.51,3.64-.12h0a2,2,0,0,1,1.61-1.39h0l-.77-1.48h-.73Z" transform="translate(-173.12 -341.18)"/><polygon class="a" points="47.46 58.64 47.46 58.64 47.46 58.64 47.46 58.64"/><path class="a" d="M213.15,402.08h0a2.57,2.57,0,0,0-.38.55l1,.35a5,5,0,0,1,3,.49h0c1.15-.88,2.52-.53,3.8-.68l0-3a1.53,1.53,0,0,0-.6-.05h0C218.8,403.81,215.5,401.54,213.15,402.08Z" transform="translate(-173.12 -341.18)"/><path class="a" d="M215.15,407.13h0l-3.64.12h0c.24.47.48.94.73,1.41l1.54-.62h0l1.47-.78,1.53.1h0l3-.26h0c-.24-2.15-1.39-2.27-3-1.36h0A2,2,0,0,0,215.15,407.13Z" transform="translate(-173.12 -341.18)"/><path class="a" d="M216.78,407.36h0c.57.92,3.45-.46,2.22,2.24,0,.46,0,.92,0,1.38h0c1.58,0,1.48-1.26,1.7-2.28h0l-.89-1.6h0Z" transform="translate(-173.12 -341.18)"/><path class="a" d="M220.54,402.79c.39.3.82.89,1.15.84.79-.12.31-.76.16-1.13-.38-.91-.85-1.79-1.28-2.68h0Z" transform="translate(-173.12 -341.18)"/><path class="a" d="M213.74,403c0,.17,0,.35,0,.52l.83.41a1,1,0,0,1,.68.34H216l.75-.79h0A5,5,0,0,0,213.74,403Z" transform="translate(-173.12 -341.18)"/><path class="a" d="M336.63,387c4-1.5,8-1.09,12,.29l.15-1h0a14.18,14.18,0,0,0-13.5,0c0,.75,0,1.5,0,2.25h0l.7,0h0C336.18,388,336.4,387.49,336.63,387Z" transform="translate(-173.12 -341.18)"/><path class="a" d="M350.3,404.88c2.35,1,1.88,2.82,1.49,4.66h0l-.9,1.44h0l-.06.84a.79.79,0,0,1,.09.6l-2.17,1.67,1.5,1.4h0l1.49-.77c-.21-.71-.41-1.42-.62-2.12h0c1.92.45,2.44-.5,2.31-2.22-.18-2.47.7-5.45-3.05-6.14h0A1.18,1.18,0,0,0,350.3,404.88Z" transform="translate(-173.12 -341.18)"/><path class="a" d="M348.8,388.39h.05Z" transform="translate(-173.12 -341.18)"/><path class="a" d="M351.77,390.75h0c-.39-1.91,1-5-3-4.53h0l-.15,1a.41.41,0,0,0,.2.48c2.68.33,2.42,1.91,1.57,3.73h0c-.29.76.08,1.77-.86,2.28l-.11,1.45h0c1,.56,1.67-.11,2.33-.72h0C351.76,393.25,351.76,392,351.77,390.75Z" transform="translate(-173.12 -341.18)"/><path class="a" d="M344.25,396.83h0a16,16,0,0,1-7.53-.07l-.7,0a5.37,5.37,0,0,0,.45.35,6,6,0,0,0,1,.54,10.91,10.91,0,0,0,9.79-.94Z" transform="translate(-173.12 -341.18)"/><path class="a" d="M336.83,414.65h0q0-6.28,0-12.59l8.2-.16a10.1,10.1,0,0,0-8.2.16h0c-1.72,4.12-.38,8.43-.79,12.63h0Z" transform="translate(-173.12 -341.18)"/><path class="a" d="M336.72,396.76c0-1,.11-2,.17-3h0v-1.45h0c-.09-1.77-.18-3.54-.26-5.3-.23.51-.45,1-.67,1.53h0l.06,8.21h0Z" transform="translate(-173.12 -341.18)"/><path class="a" d="M314.23,410.23c-2-2-2-2.85,0-3.73h1.44c0-.74.05-1.48.08-2.23.48-1,.12-2,0-3h0a1.76,1.76,0,0,1-1.5-1.51c-.69.1-1.93.12-1.72.85.61,2.09-1.21,2.55-2,3.67s2,2.49,0,3.74c.72,2.55-2.27,3.71-2.25,6l2.25,2.25h0C312.33,414.6,312.83,412.14,314.23,410.23Z" transform="translate(-173.12 -341.18)"/><path class="a" d="M301.41,393.16h0c-2.06-.65-4.18-.35-6.28-.37-1.24,0-2.6-.16-2.62,1.72a16.44,16.44,0,0,1,2.18,5.22h0l.84,1.57h0l1.44,2.26c.49-.5,1-.26,1.54-.06h0l1.5-2.24a3,3,0,0,1-.75-2.25h0l-1.5.75a1.76,1.76,0,0,1-1.5-1.5c-1.42-.93-1.72-2-.42-3.28,1-1,2-1.45,3.24-.56,1.1.77,2.17,1.57,3.26,2.36C302.66,395.4,301.6,394.39,301.41,393.16Z" transform="translate(-173.12 -341.18)"/><path class="a" d="M310.5,408l-1.61-.82h0c-.78.26-.37,1.56-1.4,1.59h0c-.25.49-.5,1-.74,1.47h0a4.88,4.88,0,0,0,1.5,3.76C308.23,411.71,311.22,410.55,310.5,408Z" transform="translate(-173.12 -341.18)"/><path class="a" d="M302.36,423.9l-.19-.24h0c-1.75,1.38-3.53,2-5.39.2-1.55.29-1.84,1.57-2.21,2.8h0c2.43-1.79,5.17.11,7.68-.67C302.28,425.3,302.32,424.6,302.36,423.9Z" transform="translate(-173.12 -341.18)"/><path class="a" d="M301.62,414.73h0l2.06,3.2c0-.81.05-1.62.07-2.43-.78-1.41.64-4.55-2.95-3.76C301.07,412.74,301.35,413.73,301.62,414.73Z" transform="translate(-173.12 -341.18)"/><path class="a" d="M297,403.55a34.88,34.88,0,0,0,3.67,7.76h0c.13-2.83-1.65-5.15-2.13-7.82h0C298,403.29,297.45,403.05,297,403.55Z" transform="translate(-173.12 -341.18)"/><path class="a" d="M299.25,399h0a3,3,0,0,0,.75,2.25C299.85,400.46,302.15,398.86,299.25,399Z" transform="translate(-173.12 -341.18)"/><path class="a" d="M302.36,423.9h0c0,.7-.08,1.4-.11,2.09.78.31,1-.5,1.5-.76h0Z" transform="translate(-173.12 -341.18)"/><path class="a" d="M297.75,399.75c0-1,0-2-1.5-1.5A1.76,1.76,0,0,0,297.75,399.75Z" transform="translate(-173.12 -341.18)"/><path class="a" d="M182.3,397.08c-.22-7.32-.22-7.32,6.83-7.93-2.41-1.33-5-.58-7.5-.52l-.06,9.56h.81C182.35,397.82,182.32,397.45,182.3,397.08Z" transform="translate(-173.12 -341.18)"/><path class="a" d="M365.23,401.27h-1.47a4,4,0,0,0,.75,3A4.06,4.06,0,0,0,365.23,401.27Z" transform="translate(-173.12 -341.18)"/><path class="a" d="M420.1,411h0c-.08-.25-.17-.49-.25-.74h-.62c.21,2-.11,4.36,2.94,4.51h0C422.13,413.16,419.57,412.93,420.1,411Z" transform="translate(-173.12 -341.18)"/><path class="a" d="M203.12,413.26c.39,1.3-.29,3.08,1.62,3.71h0c-1.19-4-.3-7.79,1.41-11.46h0C203.27,407.36,203.24,410.33,203.12,413.26Z" transform="translate(-173.12 -341.18)"/><path class="a" d="M207.06,413.18c1.57,0,2.2-.86,2.13-2.46-.11-.59-.1-1.65-1.19-1.16a4.2,4.2,0,0,0-2.46,2.62C205.28,413.23,206.36,413.17,207.06,413.18Z" transform="translate(-173.12 -341.18)"/><path class="a" d="M210,402.74l-1.16.13-.18.16-.85.76h0c1.65,1.33,2.69,0,3.86-.71a3.2,3.2,0,0,1,.63-.34H210Z" transform="translate(-173.12 -341.18)"/><path class="a" d="M215.26,404.25l-.68-.34-.83-.41a2.77,2.77,0,0,0-1.5,2.24h0Z" transform="translate(-173.12 -341.18)"/><path class="a" d="M310.49,404.26h0c.83-1.12,2.65-1.58,2-3.67-.21-.73,1-.75,1.72-.85a4,4,0,0,0-.77-3h0l-.89,0h0a31.29,31.29,0,0,0-2.73,7.55Z" transform="translate(-173.12 -341.18)"/><path class="a" d="M310.5,408c2-1.25-.81-2.49,0-3.74h-.63a5,5,0,0,0-1,2.93h0Z" transform="translate(-173.12 -341.18)"/><path class="a" d="M315.77,404.26c1.19-.29,1.46-1.19,1.5-2.25h0c-.28-.6-.56-1.19-.83-1.78l-.69,1h0C315.89,402.25,316.25,403.26,315.77,404.26Z" transform="translate(-173.12 -341.18)"/><path class="a" d="M314.23,410.23c0-1.24,0-2.49,0-3.73h0C312.23,407.38,312.23,408.27,314.23,410.23Z" transform="translate(-173.12 -341.18)"/><path class="a" d="M348.85,388.41c1.54.49,1.33,1.89,1.54,3.07h0c.85-1.82,1.11-3.4-1.57-3.73a2,2,0,0,0,0,.64Z" transform="translate(-173.12 -341.18)"/><path class="a" d="M420.69,401.91l-.62-.69c-2.06,2.3-2,4.85-.88,7.52C419.58,406.44,418.61,403.84,420.69,401.91Z" transform="translate(-173.12 -341.18)"/></svg>