<svg id="Layer_1" data-name="Layer 1" xmlns="http://www.w3.org/2000/svg" xmlns:xlink="http://www.w3.org/1999/xlink" viewBox="0 0 570.38 215.3"><defs><style>.cls-1{fill:none;}.cls-2{clip-path:url(#clip-path);}.cls-3{fill:url(#radial-gradient);}.cls-4{clip-path:url(#clip-path-2);}.cls-5{fill:url(#linear-gradient);}.cls-6{clip-path:url(#clip-path-3);}.cls-7{fill:url(#linear-gradient-2);}.cls-8{clip-path:url(#clip-path-4);}.cls-9{fill:url(#linear-gradient-3);}.cls-10{clip-path:url(#clip-path-5);}.cls-11{fill:url(#linear-gradient-4);}.cls-12{clip-path:url(#clip-path-6);}.cls-13{fill:url(#linear-gradient-5);}.cls-14{clip-path:url(#clip-path-7);}.cls-15{fill:url(#linear-gradient-6);}.cls-16{clip-path:url(#clip-path-8);}.cls-17{fill:url(#linear-gradient-7);}.cls-18{clip-path:url(#clip-path-9);}.cls-19{fill:url(#radial-gradient-2);}.cls-20{fill:#fff;}.cls-21{fill:#d3d3d3;}</style><clipPath id="clip-path" transform="translate(-323.55 -693.75)"><path class="cls-1" d="M844.41,819a13.49,13.49,0,0,0-5.79,5.36,13.2,13.2,0,0,0-3.88-4.27,12,12,0,0,0-18.46,12l-.1.13a12.32,12.32,0,0,0-10.22-.68,12.12,12.12,0,0,0-7.29,8.67,12.51,12.51,0,0,0,3.95,11.85,12.85,12.85,0,0,0-7.73,3.67,12.18,12.18,0,0,0-2.49,13.14c2.32,5,6.63,7.55,12.22,7.42h68c3.75.08,7.12-.84,9.74-3.45a12.08,12.08,0,0,0-7.41-20.68l-.16-.16a13,13,0,0,0,3.46-4.93,12.31,12.31,0,0,0-1.56-11.46,12,12,0,0,0-13.25-4.39,16.71,16.71,0,0,1-2.38.93,12.23,12.23,0,0,0-4-11.33,12,12,0,0,0-7.91-2.86,11.3,11.3,0,0,0-4.73,1"/></clipPath><radialGradient id="radial-gradient" cx="2.47" cy="607.17" r="0.32" gradientTransform="matrix(121.34, 0, 0, -126.99, 213.41, 77258.38)" gradientUnits="userSpaceOnUse"><stop offset="0" stop-color="#fff"/><stop offset="0.35" stop-color="#fdfdfd"/><stop offset="0.54" stop-color="#f5f5f5"/><stop offset="0.69" stop-color="#e7e7e8"/><stop offset="0.82" stop-color="#d4d4d5"/><stop offset="0.93" stop-color="#bcbbbd"/><stop offset="1" stop-color="#aaa9ab"/></radialGradient><clipPath id="clip-path-2" transform="translate(-323.55 -693.75)"><path class="cls-1" d="M844.83,821.67a9.27,9.27,0,0,0-4.87,8.17l.12.12,4,0c.27.18.69.16.76.55-1.62,1.26-4.39,2.38-4,5l4.27,27.3.1-.13L857,835.8c1.52-2.68,2.38-6.6.92-9.58a10,10,0,0,0-2.6-3.52,9.38,9.38,0,0,0-6.07-2.17,8.64,8.64,0,0,0-4.37,1.14"/></clipPath><linearGradient id="linear-gradient" x1="-3.95" y1="610.01" x2="-3.64" y2="610.01" gradientTransform="matrix(0, -145.88, -137.36, 0, 84315.74, -407.56)" gradientUnits="userSpaceOnUse"><stop offset="0" stop-color="#8e5ca4"/><stop offset="0.3" stop-color="#8b59a1"/><stop offset="0.53" stop-color="#825197"/><stop offset="0.75" stop-color="#724386"/><stop offset="0.95" stop-color="#5b2f6f"/><stop offset="1" stop-color="#552968"/></linearGradient><clipPath id="clip-path-3" transform="translate(-323.55 -693.75)"><path class="cls-1" d="M821.59,823.25a9.54,9.54,0,0,0-2.44,9.71l12.06,27.3,1.25,2.52a.1.1,0,0,0,.06-.11l4.8-31.25a9.79,9.79,0,0,0-1.18-6.13,10.09,10.09,0,0,0-4.5-3.94,9.15,9.15,0,0,0-3.59-.72,9,9,0,0,0-6.47,2.63"/></clipPath><linearGradient id="linear-gradient-2" x1="-3.97" y1="609.68" x2="-3.65" y2="609.68" gradientTransform="matrix(0, -145.3, -136.81, 0, 83915.75, -407.57)" gradientUnits="userSpaceOnUse"><stop offset="0" stop-color="#ee4430"/><stop offset="0.21" stop-color="#ea422f"/><stop offset="0.42" stop-color="#de3d2d"/><stop offset="0.63" stop-color="#ca3429"/><stop offset="0.84" stop-color="#af2724"/><stop offset="1" stop-color="#941b1f"/></linearGradient><clipPath id="clip-path-4" transform="translate(-323.55 -693.75)"><path class="cls-1" d="M858.74,838.28l-13.24,30.3-.29.83h.06l25-17.38c1.56-1.2,3.41-2.12,4.53-3.94a9.51,9.51,0,0,0-6.27-14.65,10.44,10.44,0,0,0-1.39-.09,9.44,9.44,0,0,0-8.38,4.94"/></clipPath><linearGradient id="linear-gradient-3" x1="-1.19" y1="607.99" x2="-0.87" y2="607.99" gradientTransform="matrix(102.15, -108.48, -102.15, -108.48, 62744.67, 66004.59)" gradientUnits="userSpaceOnUse"><stop offset="0" stop-color="#406db4"/><stop offset="0.34" stop-color="#3f6ab2"/><stop offset="0.58" stop-color="#3e61ac"/><stop offset="0.8" stop-color="#3b51a2"/><stop offset="0.99" stop-color="#363c94"/><stop offset="1" stop-color="#363a93"/></linearGradient><clipPath id="clip-path-5" transform="translate(-323.55 -693.75)"><path class="cls-1" d="M806.94,834a9.65,9.65,0,0,0-5.63,6.32,9.35,9.35,0,0,0,3,9.69l27.79,19.41h.22l-13.79-31.13a9.42,9.42,0,0,0-8.27-4.89,9.57,9.57,0,0,0-3.34.61"/></clipPath><linearGradient id="linear-gradient-4" x1="4.8" y1="610.87" x2="5.12" y2="610.87" gradientTransform="matrix(102.14, 108.48, 102.14, -108.48, -62411.99, 65888.05)" gradientUnits="userSpaceOnUse"><stop offset="0" stop-color="#d86627"/><stop offset="0.01" stop-color="#d86627"/><stop offset="0.38" stop-color="#e7891f"/><stop offset="0.78" stop-color="#f5a819"/><stop offset="1" stop-color="#fab416"/></linearGradient><clipPath id="clip-path-6" transform="translate(-323.55 -693.75)"><path class="cls-1" d="M868.95,856.13l-24.82,17.51,29.63,0a9.28,9.28,0,0,0,7.67-3.65,9.71,9.71,0,0,0,1.15-9.55,9.82,9.82,0,0,0-4.86-4.88,8.72,8.72,0,0,0-3.76-.8,9.36,9.36,0,0,0-5,1.39"/></clipPath><linearGradient id="linear-gradient-5" x1="2.34" y1="607.6" x2="2.66" y2="607.6" gradientTransform="matrix(122.98, 0, 0, -130.61, 230.02, 79531.28)" gradientUnits="userSpaceOnUse"><stop offset="0" stop-color="#5db747"/><stop offset="0.3" stop-color="#5ab547"/><stop offset="0.51" stop-color="#51af47"/><stop offset="0.69" stop-color="#41a546"/><stop offset="0.86" stop-color="#2b9745"/><stop offset="1" stop-color="#138844"/></linearGradient><clipPath id="clip-path-7" transform="translate(-323.55 -693.75)"><path class="cls-1" d="M799.71,855.54A9.49,9.49,0,0,0,796,870a9.31,9.31,0,0,0,7.68,3.65l29.63,0-24.83-17.51a9.33,9.33,0,0,0-5-1.39,8.69,8.69,0,0,0-3.75.8"/></clipPath><linearGradient id="linear-gradient-6" x1="3.21" y1="607.61" x2="3.53" y2="607.61" gradientTransform="matrix(122.98, 0, 0, -130.61, 73.06, 79527.03)" gradientUnits="userSpaceOnUse"><stop offset="0" stop-color="#f9a11e"/><stop offset="0.28" stop-color="#fab814"/><stop offset="0.75" stop-color="#fbd905"/><stop offset="1" stop-color="#fbe500"/></linearGradient><clipPath id="clip-path-8" transform="translate(-323.55 -693.75)"><path class="cls-1" d="M768.35,818.87l-17.48,0,17.89-29.45Zm57-.89-26.79.36V745.78l-24-18.07-70.56,96.87,20.67,25.67h44l-.39,23.49,1.18,1.37h30l-.06-25.71h22.28l3.8-30.1Z"/></clipPath><linearGradient id="linear-gradient-7" x1="1.96" y1="613.12" x2="2.36" y2="613.12" gradientTransform="matrix(96.29, 359.35, 338.41, -102.25, -207252.09, 62027.12)" gradientUnits="userSpaceOnUse"><stop offset="0" stop-color="#9a6829"/><stop offset="0.01" stop-color="#9a6829"/><stop offset="0.02" stop-color="#fada72"/><stop offset="0.04" stop-color="#f5d56f"/><stop offset="0.07" stop-color="#e8c564"/><stop offset="0.1" stop-color="#d2ab54"/><stop offset="0.13" stop-color="#b4873d"/><stop offset="0.16" stop-color="#9a6829"/><stop offset="0.19" stop-color="#ac7e37"/><stop offset="0.26" stop-color="#dcb65b"/><stop offset="0.29" stop-color="#fada72"/><stop offset="0.43" stop-color="#8a5b25"/><stop offset="0.56" stop-color="#fada72"/><stop offset="0.69" stop-color="#805522"/><stop offset="0.78" stop-color="#fada72"/><stop offset="0.89" stop-color="#7c6228"/><stop offset="1" stop-color="#fada72"/></linearGradient><clipPath id="clip-path-9" transform="translate(-323.55 -693.75)"><path class="cls-1" d="M768.78,819.06l-18.48.08L769,788.33ZM796.56,818v-69.6l-22.12-18.07-67.74,93.9,20.68,24.47h41v25h29V847.87h21.91L823.07,818Z"/></clipPath><radialGradient id="radial-gradient-2" cx="3.38" cy="609.03" r="0.4" gradientTransform="matrix(157.76, 0, 0, -167.55, -95.05, 102146.57)" gradientUnits="userSpaceOnUse"><stop offset="0" stop-color="#fae458"/><stop offset="0.24" stop-color="#f8df53"/><stop offset="0.53" stop-color="#f2cf47"/><stop offset="0.86" stop-color="#e7b631"/><stop offset="1" stop-color="#e2a826"/></radialGradient></defs><title>WSMV4w</title><g class="cls-2"><rect class="cls-3" x="467.02" y="123.6" width="96.32" height="59.09"/></g><g class="cls-4"><rect class="cls-5" x="516.41" y="126.78" width="19.38" height="42.31"/></g><g class="cls-6"><rect class="cls-7" x="494.47" y="126.87" width="19.64" height="42.16"/></g><g class="cls-8"><polygon class="cls-9" points="504.68 157.63 537.53 122.74 570.38 157.63 537.53 192.51 504.68 157.63"/></g><g class="cls-10"><polygon class="cls-11" points="492.79 122.64 525.75 157.65 492.79 192.66 459.83 157.65 492.79 122.64"/></g><g class="cls-12"><rect class="cls-13" x="520.58" y="160.99" width="39.82" height="18.96"/></g><g class="cls-14"><rect class="cls-15" x="469.91" y="160.99" width="39.83" height="18.96"/></g><g class="cls-16"><polygon class="cls-17" points="492.87 0 538.5 170.31 389.6 215.3 343.97 44.99 492.87 0"/></g><g class="cls-18"><rect class="cls-19" x="383.15" y="36.56" width="116.37" height="143.42"/></g><g id="WSMV-TV_NAHSVILLE" data-name="WSMV-TV NAHSVILLE"><path class="cls-20" d="M323.55,757.08h12.34l10.84,35.45,11.74-35.6h9.87l11.74,35.6,10.84-35.45h12L385.1,809.81h-10l-11.82-34.25-11.82,34.25h-10Z" transform="translate(-323.55 -693.75)"/><path class="cls-20" d="M406.41,801.81l6.81-8.15c4.71,3.89,9.65,6.36,15.63,6.36,4.71,0,7.55-1.87,7.55-4.94v-.15c0-2.92-1.79-4.41-10.54-6.66-10.54-2.69-17.35-5.61-17.35-16v-.15c0-9.5,7.63-15.78,18.32-15.78A30.3,30.3,0,0,1,446.27,763l-6,8.68c-4.64-3.22-9.2-5.16-13.61-5.16s-6.73,2-6.73,4.56v.15c0,3.44,2.24,4.56,11.29,6.88,10.62,2.77,16.6,6.58,16.6,15.71V794c0,10.4-7.93,16.23-19.22,16.23A33.31,33.31,0,0,1,406.41,801.81Z" transform="translate(-323.55 -693.75)"/><path class="cls-20" d="M457.86,757.08h12.41L484,779.22l13.76-22.14h12.41v52.35H498.77V775.26L484,797.62h-.3l-14.58-22.14v34H457.86Z" transform="translate(-323.55 -693.75)"/><path class="cls-20" d="M518.28,757.08H531L544.68,794l13.69-36.87h12.42l-21.16,52.73H539.45Z" transform="translate(-323.55 -693.75)"/><path class="cls-20" d="M573.32,780.79h23v10.92h-23Z" transform="translate(-323.55 -693.75)"/><path class="cls-20" d="M611.84,767.7H595.91V757.08h43.38V767.7H623.35v41.73H611.84Z" transform="translate(-323.55 -693.75)"/><path class="cls-20" d="M643.62,757.08h12.71L670,794l13.69-36.87h12.41L675,809.81H664.78Z" transform="translate(-323.55 -693.75)"/><path class="cls-21" d="M326.59,829.07h9l20.8,27.33V829.07H366v44.39h-8.31l-21.5-28.22v28.22h-9.64Z" transform="translate(-323.55 -693.75)"/><path class="cls-21" d="M391.91,828.76h9l19,44.71H409.73l-4.06-10H386.9l-4.06,10h-10Zm10.27,26.13-5.9-14.4-5.9,14.4Z" transform="translate(-323.55 -693.75)"/><path class="cls-21" d="M423.11,867l5.77-6.91c4,3.3,8.18,5.39,13.26,5.39,4,0,6.41-1.59,6.41-4.19v-.13c0-2.47-1.52-3.74-8.94-5.64-8.94-2.28-14.71-4.76-14.71-13.57v-.13c0-8.05,6.47-13.38,15.54-13.38a25.7,25.7,0,0,1,16.49,5.64l-5.07,7.36c-3.93-2.73-7.8-4.38-11.54-4.38s-5.71,1.71-5.71,3.87v.13c0,2.92,1.9,3.87,9.58,5.83,9,2.35,14.08,5.58,14.08,13.32v.13c0,8.82-6.72,13.76-16.3,13.76A28.25,28.25,0,0,1,423.11,867Z" transform="translate(-323.55 -693.75)"/><path class="cls-21" d="M466.74,829.07h9.77v17.57h18V829.07h9.77v44.39h-9.77V855.65h-18v17.82h-9.77Z" transform="translate(-323.55 -693.75)"/><path class="cls-21" d="M511.13,829.07h10.78l11.61,31.27,11.61-31.27h10.53l-17.95,44.71h-8.62Z" transform="translate(-323.55 -693.75)"/><path class="cls-21" d="M562.94,829.07h9.77v44.39h-9.77Z" transform="translate(-323.55 -693.75)"/><path class="cls-21" d="M583.81,829.07h9.77v35.51h22.13v8.88h-31.9Z" transform="translate(-323.55 -693.75)"/><path class="cls-21" d="M623.06,829.07h9.77v35.51H655v8.88h-31.9Z" transform="translate(-323.55 -693.75)"/><path class="cls-21" d="M662.32,829.07H695.8v8.69H672v9h20.93v8.69H672v9.32h24.1v8.69h-33.8Z" transform="translate(-323.55 -693.75)"/></g></svg>