<svg id="Layer_1" data-name="Layer 1" xmlns="http://www.w3.org/2000/svg" xmlns:xlink="http://www.w3.org/1999/xlink" viewBox="0 0 571.38 539.83"><defs><style>.cls-1{fill:none;}.cls-2{clip-path:url(#clip-path);}.cls-3{fill:url(#linear-gradient);}.cls-4{clip-path:url(#clip-path-2);}.cls-5{fill:url(#radial-gradient);}.cls-6{clip-path:url(#clip-path-3);}.cls-7{fill:url(#radial-gradient-2);}.cls-8{clip-path:url(#clip-path-4);}.cls-9{fill:url(#linear-gradient-2);}.cls-10{clip-path:url(#clip-path-5);}.cls-11{fill:url(#linear-gradient-3);}.cls-12{clip-path:url(#clip-path-6);}.cls-13{fill:url(#linear-gradient-4);}.cls-14{clip-path:url(#clip-path-7);}.cls-15{fill:url(#linear-gradient-5);}.cls-16{clip-path:url(#clip-path-8);}.cls-17{fill:url(#linear-gradient-6);}.cls-18{clip-path:url(#clip-path-9);}.cls-19{fill:url(#linear-gradient-7);}.cls-20{fill:#fff;}</style><clipPath id="clip-path" transform="translate(-70.42 -19)"><path class="cls-1" d="M323.24,332.7l-43.84.12L324.27,259Zm143-2.23-67.18.91V149.43l-60.13-45.31L162,347l51.84,64.36H324.2l-1,58.89,3,3.44h75.17l-.14-64.46H457l9.52-75.47Z"/></clipPath><linearGradient id="linear-gradient" x1="0.02" y1="612.27" x2="1.02" y2="612.27" gradientTransform="matrix(96.29, 359.35, 338.41, -102.25, -206998.96, 62701.88)" gradientUnits="userSpaceOnUse"><stop offset="0" stop-color="#9a6829"/><stop offset="0.01" stop-color="#9a6829"/><stop offset="0.02" stop-color="#fada72"/><stop offset="0.04" stop-color="#f5d56f"/><stop offset="0.07" stop-color="#e8c564"/><stop offset="0.1" stop-color="#d2ab54"/><stop offset="0.13" stop-color="#b4873d"/><stop offset="0.16" stop-color="#9a6829"/><stop offset="0.19" stop-color="#ac7e37"/><stop offset="0.26" stop-color="#dcb65b"/><stop offset="0.29" stop-color="#fada72"/><stop offset="0.43" stop-color="#8a5b25"/><stop offset="0.56" stop-color="#fada72"/><stop offset="0.69" stop-color="#805522"/><stop offset="0.78" stop-color="#fada72"/><stop offset="0.89" stop-color="#7c6228"/><stop offset="1" stop-color="#fada72"/></linearGradient><clipPath id="clip-path-2" transform="translate(-70.42 -19)"><path class="cls-1" d="M324.31,333.17l-46.35.2,46.9-77.23Zm69.66-2.7V156l-55.45-45.31L168.67,346.1l51.85,61.36h102.7v62.8h72.66V405.42H450.8l9.63-74.95Z"/></clipPath><radialGradient id="radial-gradient" cx="0.5" cy="612.1" r="1" gradientTransform="matrix(157.76, 0, 0, -167.55, 158.09, 102821.32)" gradientUnits="userSpaceOnUse"><stop offset="0" stop-color="#fae458"/><stop offset="0.24" stop-color="#f8df53"/><stop offset="0.53" stop-color="#f2cf47"/><stop offset="0.86" stop-color="#e7b631"/><stop offset="1" stop-color="#e2a826"/></radialGradient><clipPath id="clip-path-3" transform="translate(-70.42 -19)"><path class="cls-1" d="M513.95,333c-5.84,2.39-11.25,8-14.53,13.44-2.4-3.92-5.73-8.19-9.73-10.7-9-6.67-23.58-6.82-32.71-.55-10.26,6.94-15.73,18.23-13.56,30.75l-.26.32c-7.18-4.29-17.78-4.84-25.62-1.7-8.9,3.22-16.62,12.54-18.28,21.74-2.32,11.37,1.65,22,9.89,29.7-7.28,1.16-14,3.52-19.38,9.21-8.55,8.26-10.81,22.11-6.23,33,5.81,12.62,16.63,18.92,30.64,18.59H584.67c9.4.19,17.85-2.1,24.42-8.64,8-8.17,11.36-20.09,7.58-31.23-3.46-11.06-14.72-20.06-26.17-20.62l-.4-.4a32.55,32.55,0,0,0,8.69-12.37c3.59-9.23,2-21.1-3.92-28.73C587,364,574,360.23,561.66,363.74c-2,.73-4,2-6,2.34,1.89-11.15-2.12-21.13-10-28.41a30.14,30.14,0,0,0-19.84-7.18,28.33,28.33,0,0,0-11.86,2.5"/></clipPath><radialGradient id="radial-gradient-2" cx="-0.36" cy="610.68" r="0.8" gradientTransform="matrix(121.34, 0, 0, -126.99, 466.54, 77933.14)" gradientUnits="userSpaceOnUse"><stop offset="0" stop-color="#fff"/><stop offset="0.35" stop-color="#fdfdfd"/><stop offset="0.54" stop-color="#f5f5f5"/><stop offset="0.69" stop-color="#e7e7e8"/><stop offset="0.82" stop-color="#d4d4d5"/><stop offset="0.93" stop-color="#bcbbbd"/><stop offset="1" stop-color="#aaa9ab"/></radialGradient><clipPath id="clip-path-4" transform="translate(-70.42 -19)"><path class="cls-1" d="M515,339.71a23.24,23.24,0,0,0-12.21,20.47l.29.3,10,.11c.67.45,1.72.4,1.92,1.37-4.06,3.15-11,6-10.14,12.53l10.7,68.45.25-.32,29.6-67.48c3.82-6.71,6-16.55,2.31-24a25,25,0,0,0-6.52-8.82A23.52,23.52,0,0,0,526,336.87a21.66,21.66,0,0,0-11,2.85"/></clipPath><linearGradient id="linear-gradient-2" x1="-1.08" y1="612.36" x2="-0.28" y2="612.36" gradientTransform="matrix(0, -145.88, -137.36, 0, 84568.88, 267.2)" gradientUnits="userSpaceOnUse"><stop offset="0" stop-color="#8e5ca4"/><stop offset="0.3" stop-color="#8b59a1"/><stop offset="0.53" stop-color="#825197"/><stop offset="0.75" stop-color="#724386"/><stop offset="0.95" stop-color="#5b2f6f"/><stop offset="1" stop-color="#552968"/></linearGradient><clipPath id="clip-path-5" transform="translate(-70.42 -19)"><path class="cls-1" d="M456.72,343.69A23.92,23.92,0,0,0,450.6,368l30.23,68.44,3.13,6.32a.25.25,0,0,0,.15-.27l12-78.36a24.54,24.54,0,0,0-2.95-15.37,25.29,25.29,0,0,0-11.27-9.89,22.94,22.94,0,0,0-9-1.8,22.62,22.62,0,0,0-16.22,6.6"/></clipPath><linearGradient id="linear-gradient-3" x1="-1.08" y1="612.28" x2="-0.28" y2="612.28" gradientTransform="matrix(0, -145.3, -136.81, 0, 84168.89, 267.18)" gradientUnits="userSpaceOnUse"><stop offset="0" stop-color="#ee4430"/><stop offset="0.21" stop-color="#ea422f"/><stop offset="0.42" stop-color="#de3d2d"/><stop offset="0.63" stop-color="#ca3429"/><stop offset="0.84" stop-color="#af2724"/><stop offset="1" stop-color="#941b1f"/></linearGradient><clipPath id="clip-path-6" transform="translate(-70.42 -19)"><path class="cls-1" d="M549.87,381.38l-33.2,76-.72,2.09h.15l62.64-43.58c3.92-3,8.54-5.3,11.36-9.88,4.52-6.53,5.42-17.18,1.36-24.2-3.33-6.72-10.2-11.25-17.09-12.54a26.18,26.18,0,0,0-3.49-.24,23.68,23.68,0,0,0-21,12.38"/></clipPath><linearGradient id="linear-gradient-4" x1="-0.93" y1="611.49" x2="-0.14" y2="611.49" gradientTransform="matrix(102.15, -108.48, -102.15, -108.48, 62997.81, 66679.35)" gradientUnits="userSpaceOnUse"><stop offset="0" stop-color="#406db4"/><stop offset="0.34" stop-color="#3f6ab2"/><stop offset="0.58" stop-color="#3e61ac"/><stop offset="0.8" stop-color="#3b51a2"/><stop offset="0.99" stop-color="#363c94"/><stop offset="1" stop-color="#363a93"/></linearGradient><clipPath id="clip-path-7" transform="translate(-70.42 -19)"><path class="cls-1" d="M420,370.63a24.19,24.19,0,0,0-14.12,15.83,23.44,23.44,0,0,0,7.57,24.29l69.68,48.68h.55l-34.57-78.06a23.62,23.62,0,0,0-20.73-12.27,24,24,0,0,0-8.39,1.52"/></clipPath><linearGradient id="linear-gradient-5" x1="0.72" y1="611.06" x2="1.51" y2="611.06" gradientTransform="matrix(102.14, 108.48, 102.14, -108.48, -62158.86, 66562.81)" gradientUnits="userSpaceOnUse"><stop offset="0" stop-color="#d86627"/><stop offset="0.01" stop-color="#d86627"/><stop offset="0.38" stop-color="#e7891f"/><stop offset="0.78" stop-color="#f5a819"/><stop offset="1" stop-color="#fab416"/></linearGradient><clipPath id="clip-path-8" transform="translate(-70.42 -19)"><path class="cls-1" d="M575.47,426.13,513.25,470l74.3-.05c7.73.22,14.31-3.1,19.22-9.15,5-6.31,6.33-16.51,2.88-23.94-2.26-5.09-7.08-10.18-12.18-12.22a21.86,21.86,0,0,0-9.42-2,23.48,23.48,0,0,0-12.57,3.48"/></clipPath><linearGradient id="linear-gradient-6" x1="-0.37" y1="610.8" x2="0.42" y2="610.8" gradientTransform="matrix(122.98, 0, 0, -130.61, 483.16, 80206.03)" gradientUnits="userSpaceOnUse"><stop offset="0" stop-color="#5db747"/><stop offset="0.3" stop-color="#5ab547"/><stop offset="0.51" stop-color="#51af47"/><stop offset="0.69" stop-color="#41a546"/><stop offset="0.86" stop-color="#2b9745"/><stop offset="1" stop-color="#138844"/></linearGradient><clipPath id="clip-path-9" transform="translate(-70.42 -19)"><path class="cls-1" d="M401.87,424.65c-5.11,2-10,7.13-12.2,12.22-3.47,7.43-2.12,17.62,2.85,23.94,4.93,6.05,11.52,9.37,19.25,9.15l74.3.05-62.26-43.9a23.38,23.38,0,0,0-12.54-3.48,21.79,21.79,0,0,0-9.4,2"/></clipPath><linearGradient id="linear-gradient-7" x1="-0.12" y1="610.8" x2="0.68" y2="610.8" gradientTransform="matrix(122.98, 0, 0, -130.61, 326.19, 80201.79)" gradientUnits="userSpaceOnUse"><stop offset="0" stop-color="#f9a11e"/><stop offset="0.28" stop-color="#fab814"/><stop offset="0.75" stop-color="#fbd905"/><stop offset="1" stop-color="#fbe500"/></linearGradient></defs><title>WSMV4</title><g class="cls-2"><polygon class="cls-3" points="373.34 0 487.76 427.03 114.42 539.83 0 112.8 373.34 0"/></g><g class="cls-4"><rect class="cls-5" x="98.25" y="91.66" width="291.77" height="359.61"/></g><g id="Peacock"><g class="cls-6"><rect class="cls-7" x="308.53" y="309.92" width="241.5" height="148.17"/></g><g class="cls-8"><rect class="cls-9" x="432.37" y="317.87" width="48.58" height="106.08"/></g><g class="cls-10"><rect class="cls-11" x="377.36" y="318.09" width="49.25" height="105.7"/></g><g class="cls-12"><polygon class="cls-13" points="402.96 395.22 485.32 307.75 567.69 395.22 485.32 482.69 402.96 395.22"/></g><g class="cls-14"><polygon class="cls-15" points="373.16 307.5 455.81 395.27 373.16 483.05 290.51 395.27 373.16 307.5"/></g><g class="cls-16"><rect class="cls-17" x="442.83" y="403.65" width="99.85" height="47.55"/></g><g class="cls-18"><rect class="cls-19" x="315.77" y="403.65" width="99.87" height="47.55"/></g></g><g id="WSMV-TV_NAHSVILLE" data-name="WSMV-TV NAHSVILLE"><path class="cls-20" d="M135.71,490.28h7l6.17,20.16,6.68-20.24h5.61l6.68,20.24L174,490.28h6.85l-10.16,30H165l-6.72-19.48-6.72,19.48h-5.7Z" transform="translate(-70.42 -19)"/><path class="cls-20" d="M182.82,515.71l3.87-4.63c2.68,2.21,5.49,3.61,8.89,3.61,2.68,0,4.3-1.06,4.3-2.81v-.08c0-1.66-1-2.51-6-3.79-6-1.53-9.87-3.19-9.87-9.1v-.08c0-5.4,4.34-9,10.42-9a17.23,17.23,0,0,1,11.06,3.78l-3.4,4.93c-2.64-1.83-5.23-2.93-7.74-2.93s-3.83,1.15-3.83,2.59v.09c0,2,1.28,2.59,6.42,3.91,6,1.57,9.44,3.74,9.44,8.93v.08c0,5.91-4.51,9.23-10.93,9.23A18.94,18.94,0,0,1,182.82,515.71Z" transform="translate(-70.42 -19)"/><path class="cls-20" d="M212.08,490.28h7.06L227,502.87l7.82-12.59h7.06V520h-6.51V500.61L227,513.33h-.17l-8.29-12.59V520h-6.42Z" transform="translate(-70.42 -19)"/><path class="cls-20" d="M246.44,490.28h7.23l7.78,21,7.78-21h7.06l-12,30h-5.78Z" transform="translate(-70.42 -19)"/><path class="cls-20" d="M277.74,503.76h13.1V510h-13.1Z" transform="translate(-70.42 -19)"/><path class="cls-20" d="M299.64,496.32h-9.06v-6h24.67v6h-9.06V520h-6.55Z" transform="translate(-70.42 -19)"/><path class="cls-20" d="M317.71,490.28h7.23l7.78,21,7.78-21h7.06l-12,30h-5.78Z" transform="translate(-70.42 -19)"/><path class="cls-20" d="M364.64,508.58v-.06a4.87,4.87,0,0,1,9.74,0v.06a4.87,4.87,0,0,1-9.74,0Z" transform="translate(-70.42 -19)"/><path class="cls-20" d="M394,490.28h6L414,508.61V490.28h6.46V520h-5.57l-14.42-18.92V520H394Z" transform="translate(-70.42 -19)"/><path class="cls-20" d="M437.81,490.07h6l12.76,30h-6.85L447,513.37H434.45L431.73,520h-6.68Zm6.89,17.52-4-9.65-4,9.65Z" transform="translate(-70.42 -19)"/><path class="cls-20" d="M458.73,515.71l3.87-4.63c2.68,2.21,5.49,3.61,8.89,3.61,2.68,0,4.29-1.06,4.29-2.81v-.08c0-1.66-1-2.51-6-3.79-6-1.53-9.87-3.19-9.87-9.1v-.08c0-5.4,4.34-9,10.42-9a17.23,17.23,0,0,1,11.06,3.78l-3.4,4.93c-2.64-1.83-5.23-2.93-7.74-2.93s-3.83,1.15-3.83,2.59v.09c0,2,1.28,2.59,6.42,3.91,6,1.57,9.44,3.74,9.44,8.93v.08c0,5.91-4.51,9.23-10.93,9.23A18.94,18.94,0,0,1,458.73,515.71Z" transform="translate(-70.42 -19)"/><path class="cls-20" d="M488,490.28h6.55v11.78h12.08V490.28h6.55V520h-6.55v-12H494.54v12H488Z" transform="translate(-70.42 -19)"/><path class="cls-20" d="M517.75,490.28H525l7.78,21,7.78-21h7.06l-12,30h-5.78Z" transform="translate(-70.42 -19)"/><path class="cls-20" d="M552.49,490.28H559V520h-6.55Z" transform="translate(-70.42 -19)"/><path class="cls-20" d="M566.48,490.28H573v23.81h14.84v6H566.48Z" transform="translate(-70.42 -19)"/><path class="cls-20" d="M592.8,490.28h6.55v23.81H614.2v6H592.8Z" transform="translate(-70.42 -19)"/><path class="cls-20" d="M619.13,490.28h22.45v5.83H625.63v6h14V508h-14v6.25h16.16V520H619.13Z" transform="translate(-70.42 -19)"/></g></svg>