<svg xmlns="http://www.w3.org/2000/svg" xmlns:xlink="http://www.w3.org/1999/xlink" viewBox="0 0 206.6 93.97"><defs><style>.cls-1{isolation:isolate;}.cls-2{fill:#acbd96;}.cls-3{fill:#007d3a;}.cls-4{opacity:0.59;}.cls-4,.cls-7{mix-blend-mode:multiply;}.cls-5{fill:none;}.cls-6{fill:url(#linear-gradient);}.cls-10,.cls-8{fill:#231f20;}.cls-9{fill:url(#linear-gradient-2);}.cls-10{font-size:8px;font-family:TimesNewRomanPSMT, Times New Roman;}</style><linearGradient id="linear-gradient" x1="67.29" y1="77.13" x2="155.76" y2="8.41" gradientUnits="userSpaceOnUse"><stop offset="0.01" stop-color="#7b9ba8"/><stop offset="0.98" stop-color="#c6d8ab"/><stop offset="1" stop-color="#c6d8ab"/></linearGradient><linearGradient id="linear-gradient-2" x1="95.27" y1="58.94" x2="167.95" y2="-15.32" gradientUnits="userSpaceOnUse"><stop offset="0.01" stop-color="#c3cf2d"/><stop offset="1" stop-color="#00a651"/></linearGradient></defs><title>aaog</title><g class="cls-1"><g id="Layer_1" data-name="Layer 1"><path class="cls-2" d="M24,21.81h-.82v4.14a1.25,1.25,0,0,0,.12.66.53.53,0,0,0,.46.17v.16H21.87v-.16a.53.53,0,0,0,.48-.2,1.26,1.26,0,0,0,.13-.66V21.81H21.7a1.44,1.44,0,0,0-.82.18.75.75,0,0,0-.29.59h-.16V21.34h.16a1.2,1.2,0,0,0,.81.2h2.82a1.36,1.36,0,0,0,.85-.2h.17v1.24h-.11a.92.92,0,0,0-.36-.61A1.49,1.49,0,0,0,24,21.81Z" transform="translate(-7.62 -5.93)"/><path class="cls-2" d="M30.56,25.92V24.36H27.63v1.56a1.2,1.2,0,0,0,.14.67.56.56,0,0,0,.49.19v.16H26.31v-.16a.54.54,0,0,0,.48-.19,1.25,1.25,0,0,0,.13-.66V22.56a1.24,1.24,0,0,0-.13-.68.55.55,0,0,0-.48-.18v-.16h1.95v.16a.56.56,0,0,0-.49.19,1.21,1.21,0,0,0-.14.66v1.53h2.94V22.56a1.28,1.28,0,0,0-.13-.68A.54.54,0,0,0,30,21.7v-.16h1.93v.16a.55.55,0,0,0-.48.19,1.23,1.23,0,0,0-.13.67v3.36a1.22,1.22,0,0,0,.13.67.55.55,0,0,0,.48.19v.16H30v-.16a.53.53,0,0,0,.48-.19A1.31,1.31,0,0,0,30.56,25.92Z" transform="translate(-7.62 -5.93)"/><path class="cls-2" d="M36.45,23.58h.16v1.31h-.16a.77.77,0,0,0-.21-.43,1.08,1.08,0,0,0-.54-.09H34.36V26.3a.38.38,0,0,0,.09.28.45.45,0,0,0,.31.08h.94a3,3,0,0,0,.7-.06.68.68,0,0,0,.33-.2,2,2,0,0,0,.28-.48h.16l-.25,1H33v-.16a.55.55,0,0,0,.49-.19,1.26,1.26,0,0,0,.12-.66V22.56a1.26,1.26,0,0,0-.13-.68A.55.55,0,0,0,33,21.7v-.16h3.88v.9h-.1a.91.91,0,0,0-.24-.51,1.16,1.16,0,0,0-.67-.13H34.36v2.31h1.51a.6.6,0,0,0,.42-.11A.77.77,0,0,0,36.45,23.58Z" transform="translate(-7.62 -5.93)"/><path class="cls-3" d="M139.53,86.28c-3.49,0-6.88-.7-9.14-7.61l-3.68-10.18a25.57,25.57,0,0,1-3.1-.09l3.29,10.27c1.75,5.21.52,7.61-3.59,7.61-2.46,0-2.46,3.06,0,3.06h16.23c2.47,0,2.47-3.06,0-3.06" transform="translate(-7.62 -5.93)"/><path class="cls-3" d="M108.57,20.37l7.87,26c1.42-.39,2-.86,3.22-1.16l-2.19-8c-.12-.3-2.7-8.26-2.33-7.15l-7-20.73c-1.44-4.51-3.49-4.28-4.73-.11l-20,65.45c-2.77,8.9-7.22,22.2-11.64,22.2-2.57,0-2.57,3,0,3h16c2.67,0,2.67-3,0-3-4.72,0,0-17.13,2-22.2l4.52-14.42S103.48,28.54,104.37,25c2.53-10.16,2.78-8.2,4.2-4.61" transform="translate(-7.62 -5.93)"/><path class="cls-2" d="M124.48,64.82v-.31q.93,0,.92-.64a1.25,1.25,0,0,0-.08-.41l-1-3h-3.45l-.73,2.16a4.27,4.27,0,0,0-.27,1.18q0,.68.85.7v.31h-2.78v-.31a1.64,1.64,0,0,0,.93-.39,3.46,3.46,0,0,0,.67-1.3l3-8.87h1.11l3.12,9.26a2.36,2.36,0,0,0,.57,1.06,1.53,1.53,0,0,0,1,.24v.31Zm-3.41-5h3l-1.52-4.55Z" transform="translate(-7.62 -5.93)"/><path class="cls-2" d="M135.5,53.92h.3v2.52h-.32a2.46,2.46,0,0,0-.76-1.63,2.33,2.33,0,0,0-1.63-.59,2.13,2.13,0,0,0-1.4.44,1.44,1.44,0,0,0-.53,1.17,2,2,0,0,0,.44,1.24,7.54,7.54,0,0,0,1.91,1.44,8.51,8.51,0,0,1,2.29,1.78,2.78,2.78,0,0,1,.59,1.74,3.06,3.06,0,0,1-3.06,3.06,5.85,5.85,0,0,1-1.87-.4,2.59,2.59,0,0,0-.59-.16q-.27,0-.41.41h-.32V62h.32a2.57,2.57,0,0,0,2.59,2.65,2.28,2.28,0,0,0,1.57-.52,1.77,1.77,0,0,0,.59-1.39,2,2,0,0,0-.49-1.25,8.54,8.54,0,0,0-2-1.54A9,9,0,0,1,131,58.75a3,3,0,0,1-.62-1,3.34,3.34,0,0,1-.2-1.18,2.65,2.65,0,0,1,.81-2,2.94,2.94,0,0,1,2.11-.77,4.91,4.91,0,0,1,1.56.28,2.13,2.13,0,0,0,.55.13.22.22,0,0,0,.17-.06A.77.77,0,0,0,135.5,53.92Z" transform="translate(-7.62 -5.93)"/><path class="cls-2" d="M145,54.6h-1.63v8.26a2.48,2.48,0,0,0,.24,1.31,1.06,1.06,0,0,0,.93.34v.31h-3.8v-.31a1.07,1.07,0,0,0,1-.39,2.53,2.53,0,0,0,.25-1.32V54.6h-1.56a2.88,2.88,0,0,0-1.63.36,1.49,1.49,0,0,0-.57,1.18h-.32V53.67h.32a2.4,2.4,0,0,0,1.61.4h5.64a2.72,2.72,0,0,0,1.7-.4h.34v2.47h-.21a1.83,1.83,0,0,0-.72-1.21A3,3,0,0,0,145,54.6Z" transform="translate(-7.62 -5.93)"/><path class="cls-2" d="M157.63,62.8V59.68h-5.86V62.8a2.38,2.38,0,0,0,.27,1.33,1.12,1.12,0,0,0,1,.38v.31h-3.89v-.31a1.08,1.08,0,0,0,1-.38,2.5,2.5,0,0,0,.26-1.33V56.1a2.47,2.47,0,0,0-.26-1.35,1.11,1.11,0,0,0-1-.36v-.31H153v.31a1.11,1.11,0,0,0-1,.39,2.41,2.41,0,0,0-.27,1.32v3.06h5.86V56.1a2.55,2.55,0,0,0-.25-1.35,1.08,1.08,0,0,0-.95-.36v-.31h3.85v.31a1.09,1.09,0,0,0-1,.38,2.45,2.45,0,0,0-.27,1.34v6.7a2.43,2.43,0,0,0,.27,1.33,1.1,1.1,0,0,0,1,.37v.31h-3.85v-.31a1.07,1.07,0,0,0,1-.37A2.62,2.62,0,0,0,157.63,62.8Z" transform="translate(-7.62 -5.93)"/><path class="cls-2" d="M172.18,54.07h2.54v.31q-1.21,0-1.21,1.43c0,.08,0,.16,0,.25l.54,6.63a2.93,2.93,0,0,0,.36,1.41,1.33,1.33,0,0,0,1,.41v.31h-3.87v-.31a1.38,1.38,0,0,0,.87-.41,1.44,1.44,0,0,0,.25-.93c0-.09,0-.18,0-.29l-.58-7-3.68,8.89h-.28L164.47,56l-.6,6.61c0,.1,0,.2,0,.29a1.52,1.52,0,0,0,1.4,1.65v.31h-3.34v-.31a1.42,1.42,0,0,0,1-.47,3.14,3.14,0,0,0,.41-1.51l.65-7.4a2.38,2.38,0,0,0-1.4-.75v-.31h2.72l3.44,8.46Z" transform="translate(-7.62 -5.93)"/><path class="cls-2" d="M183.32,64.82v-.31q.93,0,.92-.64a1.25,1.25,0,0,0-.08-.41l-1-3h-3.45L179,62.63a4.27,4.27,0,0,0-.27,1.18q0,.68.85.7v.31h-2.78v-.31a1.64,1.64,0,0,0,.93-.39,3.46,3.46,0,0,0,.67-1.3l3-8.87h1.11l3.12,9.26a2.36,2.36,0,0,0,.57,1.06,1.53,1.53,0,0,0,1,.24v.31Zm-3.41-5h3l-1.52-4.55Z" transform="translate(-7.62 -5.93)"/><path class="cls-2" d="M22.44,40.65v-.3q.9,0,.89-.62a1.2,1.2,0,0,0-.08-.4l-1-2.89H18.95l-.71,2.09A4.16,4.16,0,0,0,18,39.67q0,.66.82.68v.3H16.11v-.3A1.58,1.58,0,0,0,17,40a3.31,3.31,0,0,0,.65-1.25l2.88-8.58H21.6l3,9a2.3,2.3,0,0,0,.55,1,1.49,1.49,0,0,0,.93.23v.3Zm-3.3-4.85h2.93L20.6,31.38Z" transform="translate(-7.62 -5.93)"/><path class="cls-2" d="M35.59,38.37h.31l-.64,2.27H27.72v-.3a1,1,0,0,0,.91-.4,2.48,2.48,0,0,0,.27-1.34V32a2,2,0,0,0-.25-1.18,1.1,1.1,0,0,0-.93-.33v-.3h3.73v.3a1,1,0,0,0-.89.38,2.24,2.24,0,0,0-.27,1.26v7a1,1,0,0,0,.24.79,1.48,1.48,0,0,0,.94.21h2.07a2.06,2.06,0,0,0,1.34-.33A3.25,3.25,0,0,0,35.59,38.37Z" transform="translate(-7.62 -5.93)"/><path class="cls-2" d="M45.13,38.37h.31l-.64,2.27H37.26v-.3a1,1,0,0,0,.91-.4,2.48,2.48,0,0,0,.27-1.34V32a2,2,0,0,0-.25-1.18,1.1,1.1,0,0,0-.93-.33v-.3H41v.3a1,1,0,0,0-.89.38,2.24,2.24,0,0,0-.27,1.26v7a1,1,0,0,0,.24.79,1.48,1.48,0,0,0,.94.21h2.07a2.06,2.06,0,0,0,1.34-.33A3.25,3.25,0,0,0,45.13,38.37Z" transform="translate(-7.62 -5.93)"/><path class="cls-2" d="M53.21,34.18h.31v2.53h-.31a1.49,1.49,0,0,0-.41-.83,2.09,2.09,0,0,0-1-.17H49.18v3.73a.73.73,0,0,0,.17.55.86.86,0,0,0,.59.16h1.82A5.68,5.68,0,0,0,53.11,40a1.31,1.31,0,0,0,.63-.39,3.84,3.84,0,0,0,.55-.94h.31l-.48,1.94h-7.5v-.3a1.05,1.05,0,0,0,.94-.36,2.44,2.44,0,0,0,.24-1.27V32.2a2.43,2.43,0,0,0-.25-1.31,1.07,1.07,0,0,0-.93-.36v-.3h7.5V32h-.2a1.76,1.76,0,0,0-.46-1,2.25,2.25,0,0,0-1.29-.24h-3V35.2h2.91A1.17,1.17,0,0,0,52.9,35,1.49,1.49,0,0,0,53.21,34.18Z" transform="translate(-7.62 -5.93)"/><path class="cls-2" d="M59.74,35.83h-.84v2.86A2.31,2.31,0,0,0,59.16,40a1.07,1.07,0,0,0,.93.36v.3H56.34v-.3a1.05,1.05,0,0,0,.94-.36,2.45,2.45,0,0,0,.24-1.29V32.17a2.41,2.41,0,0,0-.24-1.27,1.07,1.07,0,0,0-.94-.35v-.3h4.27a3.88,3.88,0,0,1,2.52.77,2.41,2.41,0,0,1,.94,2,2.56,2.56,0,0,1-2.15,2.56,4.21,4.21,0,0,1,.92.83A13.77,13.77,0,0,1,64,38.1a9,9,0,0,0,1.28,1.78,1.58,1.58,0,0,0,1,.46v.3H64.13a20.44,20.44,0,0,1-1.59-2.32A8.76,8.76,0,0,0,61,36.27,2,2,0,0,0,59.74,35.83ZM60,30.64H58.89v4.76h1.28a2.42,2.42,0,0,0,1.8-.66A2.36,2.36,0,0,0,62.62,33a2.19,2.19,0,0,0-.72-1.71A2.75,2.75,0,0,0,60,30.64Z" transform="translate(-7.62 -5.93)"/><path class="cls-2" d="M78.32,36.14v.3a1.31,1.31,0,0,0-1,.32,1.58,1.58,0,0,0-.3,1.09v2.8a9,9,0,0,1-1.36.18q-1,.08-1.55.08a6.57,6.57,0,0,1-4.49-1.42A4.75,4.75,0,0,1,68,35.74a6.06,6.06,0,0,1,.71-2.93,5.34,5.34,0,0,1,2-2.07A5.11,5.11,0,0,1,73.38,30a6.46,6.46,0,0,1,1.85.3,3.82,3.82,0,0,0,1,.19.57.57,0,0,0,.59-.35h.33v3.07h-.29a3,3,0,0,0-1.16-2,3.61,3.61,0,0,0-2.29-.77,3.31,3.31,0,0,0-2.71,1.32,5.27,5.27,0,0,0-1.06,3.4,5.85,5.85,0,0,0,1.22,3.8,3.78,3.78,0,0,0,3.07,1.51q1.75,0,1.75-1.11V38.16a2.58,2.58,0,0,0-.25-1.34,1,1,0,0,0-.89-.38h-.4v-.3Z" transform="translate(-7.62 -5.93)"/><path class="cls-2" d="M87.44,31.72l-2.34,3.69v3.28a2.45,2.45,0,0,0,.24,1.3,1,1,0,0,0,.9.35v.3h-3.8v-.3a1.16,1.16,0,0,0,1-.37,2.39,2.39,0,0,0,.25-1.28V35.41L81.5,32a4.76,4.76,0,0,0-.9-1.13,1.66,1.66,0,0,0-1-.29v-.3h4.07v.3q-1.07,0-1.07.49a1.08,1.08,0,0,0,.21.55l2.06,3.15,1.65-2.61a2,2,0,0,0,.36-1q0-.58-.69-.58v-.3H89.1v.3a1.75,1.75,0,0,0-.89.25A3.38,3.38,0,0,0,87.44,31.72Z" transform="translate(-7.62 -5.93)"/><g class="cls-4"><rect class="cls-5" x="61.99" width="49.8" height="93.89"/></g><path class="cls-6" d="M109.05,52.35C78.12,70.2,52.24,65.44,52.24,65.44,32.6,65.14,7.62,45.8,7.62,45.8c48.79,42.54,100,12.2,100,12.2,27.07-11,19.58-9.27,39.56-15.47,34.51-10.71,64.71,0,64.71,0s-11.2-6-15.17-7.14a77.18,77.18,0,0,0-21.74-3c-34.43,0-65.87,19.94-65.87,19.94" transform="translate(-7.62 -5.93)"/><g class="cls-7"><path class="cls-8" d="M160.7,71.32v.16a.71.71,0,0,0-.54.17.86.86,0,0,0-.16.59v1.53a5,5,0,0,1-.74.1q-.54,0-.84,0a3.58,3.58,0,0,1-2.45-.77,2.59,2.59,0,0,1-.88-2,3.29,3.29,0,0,1,.38-1.59,2.9,2.9,0,0,1,1.07-1.13A2.79,2.79,0,0,1,158,68a3.53,3.53,0,0,1,1,.16,2.09,2.09,0,0,0,.53.1.31.31,0,0,0,.32-.19H160v1.67h-.16a1.65,1.65,0,0,0-.63-1.11,2,2,0,0,0-1.25-.42,1.81,1.81,0,0,0-1.47.72,2.87,2.87,0,0,0-.58,1.85,3.18,3.18,0,0,0,.67,2.07,2.06,2.06,0,0,0,1.67.82q1,0,1-.61v-.62a1.4,1.4,0,0,0-.14-.73.54.54,0,0,0-.49-.21h-.22v-.16Z" transform="translate(-7.62 -5.93)"/><path class="cls-8" d="M163.67,71.15h-.46v1.56a1.26,1.26,0,0,0,.14.7.58.58,0,0,0,.51.2v.16h-2v-.16a.57.57,0,0,0,.51-.2,1.34,1.34,0,0,0,.13-.7V69.16a1.32,1.32,0,0,0-.13-.69.58.58,0,0,0-.51-.19v-.16h2.33a2.12,2.12,0,0,1,1.38.42,1.31,1.31,0,0,1,.51,1.07A1.4,1.4,0,0,1,164.86,71a2.28,2.28,0,0,1,.5.45,7.58,7.58,0,0,1,.64,1,4.9,4.9,0,0,0,.7,1,.86.86,0,0,0,.52.25v.16h-1.16a11.05,11.05,0,0,1-.87-1.26,4.76,4.76,0,0,0-.85-1.12A1.07,1.07,0,0,0,163.67,71.15Zm.13-2.83h-.59v2.59h.7a1.32,1.32,0,0,0,1-.36,1.29,1.29,0,0,0,.35-.95,1.19,1.19,0,0,0-.39-.93A1.5,1.5,0,0,0,163.8,68.32Z" transform="translate(-7.62 -5.93)"/><path class="cls-8" d="M168.43,70.92a2.81,2.81,0,0,1,.87-2.11,3,3,0,0,1,2.17-.84,2.93,2.93,0,0,1,2.13.86,2.82,2.82,0,0,1,.87,2.09A2.88,2.88,0,0,1,173.6,73a3.08,3.08,0,0,1-4.29,0A2.89,2.89,0,0,1,168.43,70.92Zm.87,0a3.2,3.2,0,0,0,.59,2,1.86,1.86,0,0,0,1.55.77,1.89,1.89,0,0,0,1.57-.78,3.12,3.12,0,0,0,.6-2,3.21,3.21,0,0,0-.59-2,1.85,1.85,0,0,0-1.53-.76,1.93,1.93,0,0,0-1.59.75A3.1,3.1,0,0,0,169.3,70.92Z" transform="translate(-7.62 -5.93)"/><path class="cls-8" d="M180.38,72.59V69.17a1.3,1.3,0,0,0-.13-.69.56.56,0,0,0-.47-.21v-.16h2v.16a.57.57,0,0,0-.5.2,1.29,1.29,0,0,0-.14.71v3.54a1.3,1.3,0,0,0,.14.7.57.57,0,0,0,.5.2v.16h-1.4V73a2.41,2.41,0,0,1-1.89.93,1.87,1.87,0,0,1-1.41-.54,2,2,0,0,1-.51-1.42V69.17a1.35,1.35,0,0,0-.13-.71.57.57,0,0,0-.51-.2v-.16h2v.16a.59.59,0,0,0-.52.19,1.29,1.29,0,0,0-.14.7V72a1.52,1.52,0,0,0,.38,1.09,1.4,1.4,0,0,0,1.06.4A1.85,1.85,0,0,0,180.38,72.59Z" transform="translate(-7.62 -5.93)"/><path class="cls-8" d="M183,68.11h2.07a2.6,2.6,0,0,1,1.61.45,1.39,1.39,0,0,1,.59,1.16,1.26,1.26,0,0,1-.52,1.08,2.48,2.48,0,0,1-1.48.38,7.56,7.56,0,0,1-.87-.06v1.59a1.29,1.29,0,0,0,.14.71.58.58,0,0,0,.5.19v.16h-2v-.16a.57.57,0,0,0,.5-.2,1.24,1.24,0,0,0,.14-.68V69.18a1.3,1.3,0,0,0-.14-.71.57.57,0,0,0-.5-.2Zm2.1.22h-.7v2.54a2.2,2.2,0,0,0,.7.1,1.46,1.46,0,0,0,1-.33,1.14,1.14,0,0,0,.37-.9,1.44,1.44,0,0,0-.37-1A1.31,1.31,0,0,0,185.11,68.32Z" transform="translate(-7.62 -5.93)"/></g><g class="cls-7"><path class="cls-8" d="M24,21.81h-.82V26a1.25,1.25,0,0,0,.12.66.53.53,0,0,0,.46.17v.16H21.87v-.16a.53.53,0,0,0,.48-.2,1.26,1.26,0,0,0,.13-.66V21.81H21.7a1.44,1.44,0,0,0-.82.18.75.75,0,0,0-.29.59h-.16V21.34h.16a1.2,1.2,0,0,0,.81.2h2.82a1.37,1.37,0,0,0,.85-.2h.17v1.24h-.11a.92.92,0,0,0-.36-.61A1.49,1.49,0,0,0,24,21.81Z" transform="translate(-7.62 -5.93)"/><path class="cls-8" d="M30.56,25.92V24.36H27.63v1.56a1.2,1.2,0,0,0,.14.67.56.56,0,0,0,.49.19v.16H26.31v-.16a.54.54,0,0,0,.48-.19,1.25,1.25,0,0,0,.13-.66V22.56a1.24,1.24,0,0,0-.13-.68.55.55,0,0,0-.48-.18v-.16h1.95v.16a.56.56,0,0,0-.49.19,1.21,1.21,0,0,0-.14.66V24.1h2.94V22.56a1.28,1.28,0,0,0-.13-.68A.54.54,0,0,0,30,21.7v-.16h1.93v.16a.54.54,0,0,0-.48.19,1.22,1.22,0,0,0-.13.67v3.36a1.21,1.21,0,0,0,.13.67.55.55,0,0,0,.48.19v.16H30v-.16a.53.53,0,0,0,.48-.19A1.31,1.31,0,0,0,30.56,25.92Z" transform="translate(-7.62 -5.93)"/><path class="cls-8" d="M36.45,23.59h.16v1.31h-.16a.77.77,0,0,0-.21-.43,1.08,1.08,0,0,0-.54-.09H34.36V26.3a.38.38,0,0,0,.09.28.45.45,0,0,0,.31.08h.94a3,3,0,0,0,.7-.06.68.68,0,0,0,.33-.2,2,2,0,0,0,.28-.48h.16l-.25,1H33v-.16a.55.55,0,0,0,.49-.19,1.26,1.26,0,0,0,.12-.66V22.56a1.26,1.26,0,0,0-.13-.68A.55.55,0,0,0,33,21.7v-.16h3.88v.9h-.1a.91.91,0,0,0-.24-.51,1.16,1.16,0,0,0-.67-.13H34.36v2.31h1.51a.6.6,0,0,0,.42-.11A.77.77,0,0,0,36.45,23.59Z" transform="translate(-7.62 -5.93)"/></g><g class="cls-7"><path class="cls-8" d="M124.48,64.83v-.31q.93,0,.92-.64a1.25,1.25,0,0,0-.08-.41l-1-3h-3.45l-.73,2.16a4.27,4.27,0,0,0-.27,1.18q0,.68.85.7v.31h-2.78v-.31a1.64,1.64,0,0,0,.93-.39,3.46,3.46,0,0,0,.67-1.3l3-8.87h1.11l3.12,9.26a2.36,2.36,0,0,0,.57,1.06,1.53,1.53,0,0,0,1,.24v.31Zm-3.41-5h3l-1.52-4.55Z" transform="translate(-7.62 -5.93)"/><path class="cls-8" d="M135.5,53.92h.3v2.52h-.32a2.47,2.47,0,0,0-.76-1.63,2.33,2.33,0,0,0-1.63-.59,2.13,2.13,0,0,0-1.4.44,1.44,1.44,0,0,0-.53,1.17,2,2,0,0,0,.44,1.24,7.54,7.54,0,0,0,1.91,1.44,8.5,8.5,0,0,1,2.29,1.78,2.78,2.78,0,0,1,.59,1.74,3.07,3.07,0,0,1-3.06,3.06,5.85,5.85,0,0,1-1.87-.4,2.58,2.58,0,0,0-.59-.17q-.27,0-.41.41h-.32V62h.32a2.57,2.57,0,0,0,2.59,2.65,2.28,2.28,0,0,0,1.57-.52,1.77,1.77,0,0,0,.59-1.39,2,2,0,0,0-.48-1.25,8.58,8.58,0,0,0-2-1.54A9,9,0,0,1,131,58.75a3,3,0,0,1-.62-1,3.34,3.34,0,0,1-.2-1.18,2.64,2.64,0,0,1,.81-2,2.94,2.94,0,0,1,2.11-.77,4.91,4.91,0,0,1,1.56.28,2.12,2.12,0,0,0,.55.13.22.22,0,0,0,.17-.06A.77.77,0,0,0,135.5,53.92Z" transform="translate(-7.62 -5.93)"/><path class="cls-8" d="M145,54.6h-1.63v8.26a2.48,2.48,0,0,0,.24,1.31,1.06,1.06,0,0,0,.93.34v.31h-3.8v-.31a1.07,1.07,0,0,0,1-.39,2.52,2.52,0,0,0,.25-1.32V54.6h-1.56a2.88,2.88,0,0,0-1.63.36,1.49,1.49,0,0,0-.57,1.18h-.32V53.67h.32a2.4,2.4,0,0,0,1.61.4h5.64a2.72,2.72,0,0,0,1.7-.4h.34v2.47h-.21a1.83,1.83,0,0,0-.72-1.21A3,3,0,0,0,145,54.6Z" transform="translate(-7.62 -5.93)"/><path class="cls-8" d="M157.63,62.81V59.68h-5.86v3.12a2.38,2.38,0,0,0,.27,1.33,1.12,1.12,0,0,0,1,.38v.31h-3.89v-.31a1.08,1.08,0,0,0,1-.38,2.5,2.5,0,0,0,.26-1.33V56.1a2.47,2.47,0,0,0-.26-1.35,1.11,1.11,0,0,0-1-.36v-.31H153v.31a1.11,1.11,0,0,0-1,.39,2.41,2.41,0,0,0-.27,1.32v3.06h5.86V56.1a2.54,2.54,0,0,0-.25-1.35,1.08,1.08,0,0,0-.95-.36v-.31h3.85v.31a1.09,1.09,0,0,0-1,.38,2.45,2.45,0,0,0-.27,1.34v6.71a2.43,2.43,0,0,0,.27,1.33,1.1,1.1,0,0,0,1,.37v.31h-3.85v-.31a1.07,1.07,0,0,0,1-.37A2.62,2.62,0,0,0,157.63,62.81Z" transform="translate(-7.62 -5.93)"/><path class="cls-8" d="M172.18,54.08h2.54v.31q-1.21,0-1.21,1.43c0,.08,0,.16,0,.25l.54,6.63a2.92,2.92,0,0,0,.36,1.41,1.33,1.33,0,0,0,1,.41v.31h-3.87v-.31a1.39,1.39,0,0,0,.87-.41,1.44,1.44,0,0,0,.25-.93c0-.09,0-.18,0-.29l-.58-7-3.68,8.89h-.28L164.47,56l-.6,6.61c0,.1,0,.2,0,.29a1.52,1.52,0,0,0,1.4,1.65v.31h-3.34v-.31a1.42,1.42,0,0,0,1-.47,3.14,3.14,0,0,0,.41-1.51l.65-7.4a2.38,2.38,0,0,0-1.4-.75v-.31h2.72l3.44,8.46Z" transform="translate(-7.62 -5.93)"/><path class="cls-8" d="M183.32,64.83v-.31q.93,0,.92-.64a1.25,1.25,0,0,0-.08-.41l-1-3h-3.45L179,62.63a4.27,4.27,0,0,0-.27,1.18q0,.68.85.7v.31h-2.78v-.31a1.64,1.64,0,0,0,.93-.39,3.46,3.46,0,0,0,.67-1.3l3-8.87h1.11l3.12,9.26a2.36,2.36,0,0,0,.57,1.06,1.53,1.53,0,0,0,1,.24v.31Zm-3.41-5h3l-1.52-4.55Z" transform="translate(-7.62 -5.93)"/></g><g class="cls-7"><path class="cls-8" d="M22.44,40.65v-.3q.9,0,.89-.62a1.2,1.2,0,0,0-.08-.4l-1-2.89H18.95l-.71,2.09A4.16,4.16,0,0,0,18,39.67q0,.66.82.68v.3H16.11v-.3A1.58,1.58,0,0,0,17,40a3.31,3.31,0,0,0,.65-1.25l2.88-8.58H21.6l3,9a2.3,2.3,0,0,0,.55,1,1.49,1.49,0,0,0,.93.23v.3Zm-3.3-4.85h2.93L20.6,31.38Z" transform="translate(-7.62 -5.93)"/><path class="cls-8" d="M35.59,38.38h.31l-.64,2.27H27.72v-.3a1,1,0,0,0,.91-.4,2.48,2.48,0,0,0,.27-1.34V32.05a2,2,0,0,0-.25-1.18,1.1,1.1,0,0,0-.93-.33v-.3h3.73v.3a1,1,0,0,0-.89.38,2.24,2.24,0,0,0-.27,1.26v7a1,1,0,0,0,.24.79,1.48,1.48,0,0,0,.94.21h2.07a2.06,2.06,0,0,0,1.34-.33A3.26,3.26,0,0,0,35.59,38.38Z" transform="translate(-7.62 -5.93)"/><path class="cls-8" d="M45.13,38.38h.31l-.64,2.27H37.26v-.3a1,1,0,0,0,.91-.4,2.48,2.48,0,0,0,.27-1.34V32.05a2,2,0,0,0-.25-1.18,1.1,1.1,0,0,0-.93-.33v-.3H41v.3a1,1,0,0,0-.89.38,2.23,2.23,0,0,0-.27,1.26v7a1,1,0,0,0,.24.79,1.48,1.48,0,0,0,.94.21h2.07a2.06,2.06,0,0,0,1.34-.33A3.26,3.26,0,0,0,45.13,38.38Z" transform="translate(-7.62 -5.93)"/><path class="cls-8" d="M53.21,34.18h.31v2.53h-.31a1.49,1.49,0,0,0-.41-.83,2.09,2.09,0,0,0-1-.17H49.18v3.73a.73.73,0,0,0,.17.55.86.86,0,0,0,.59.16h1.82A5.68,5.68,0,0,0,53.11,40a1.31,1.31,0,0,0,.63-.39,3.82,3.82,0,0,0,.55-.94h.31l-.48,1.94h-7.5v-.3a1.05,1.05,0,0,0,.94-.36,2.44,2.44,0,0,0,.24-1.27V32.2a2.43,2.43,0,0,0-.25-1.31,1.07,1.07,0,0,0-.93-.36v-.3h7.5V32h-.2a1.76,1.76,0,0,0-.46-1,2.25,2.25,0,0,0-1.29-.24h-3V35.2h2.91A1.17,1.17,0,0,0,52.9,35,1.49,1.49,0,0,0,53.21,34.18Z" transform="translate(-7.62 -5.93)"/><path class="cls-8" d="M59.74,35.83h-.84v2.86A2.31,2.31,0,0,0,59.16,40a1.07,1.07,0,0,0,.93.36v.3H56.34v-.3a1.05,1.05,0,0,0,.94-.36,2.45,2.45,0,0,0,.24-1.29V32.17a2.41,2.41,0,0,0-.24-1.27,1.07,1.07,0,0,0-.94-.35v-.3h4.27a3.88,3.88,0,0,1,2.52.77,2.41,2.41,0,0,1,.94,2,2.56,2.56,0,0,1-2.15,2.56,4.21,4.21,0,0,1,.92.83A13.78,13.78,0,0,1,64,38.1a9,9,0,0,0,1.28,1.78,1.58,1.58,0,0,0,1,.46v.3H64.13a20.38,20.38,0,0,1-1.59-2.32A8.76,8.76,0,0,0,61,36.27,2,2,0,0,0,59.74,35.83ZM60,30.64H58.89v4.76h1.28a2.42,2.42,0,0,0,1.8-.66A2.36,2.36,0,0,0,62.62,33a2.19,2.19,0,0,0-.72-1.71A2.75,2.75,0,0,0,60,30.64Z" transform="translate(-7.62 -5.93)"/><path class="cls-8" d="M78.32,36.14v.3a1.31,1.31,0,0,0-1,.32,1.58,1.58,0,0,0-.3,1.09v2.8a9,9,0,0,1-1.36.18q-1,.08-1.55.08a6.57,6.57,0,0,1-4.49-1.42A4.75,4.75,0,0,1,68,35.74a6.06,6.06,0,0,1,.71-2.93,5.34,5.34,0,0,1,2-2.07A5.11,5.11,0,0,1,73.38,30a6.46,6.46,0,0,1,1.85.3,3.82,3.82,0,0,0,1,.19.57.57,0,0,0,.59-.35h.33v3.07h-.29a3,3,0,0,0-1.16-2,3.61,3.61,0,0,0-2.29-.77,3.32,3.32,0,0,0-2.71,1.32,5.27,5.27,0,0,0-1.06,3.4,5.85,5.85,0,0,0,1.22,3.8,3.78,3.78,0,0,0,3.07,1.51q1.75,0,1.75-1.11V38.17a2.57,2.57,0,0,0-.25-1.34,1,1,0,0,0-.89-.38h-.4v-.3Z" transform="translate(-7.62 -5.93)"/><path class="cls-8" d="M87.44,31.72,85.1,35.41v3.28a2.45,2.45,0,0,0,.24,1.3,1,1,0,0,0,.9.35v.3h-3.8v-.3a1.16,1.16,0,0,0,1-.37,2.39,2.39,0,0,0,.25-1.28V35.41L81.5,32a4.75,4.75,0,0,0-.9-1.13,1.66,1.66,0,0,0-1-.29v-.3h4.07v.3q-1.07,0-1.07.49a1.08,1.08,0,0,0,.21.55l2.06,3.15,1.65-2.61a2,2,0,0,0,.36-1q0-.58-.69-.58v-.3H89.1v.3a1.75,1.75,0,0,0-.89.25A3.38,3.38,0,0,0,87.44,31.72Z" transform="translate(-7.62 -5.93)"/></g><path class="cls-9" d="M110.08,51.64c-32,18-57.85,13.79-57.85,13.79C32.6,65.14,7.62,45.8,7.62,45.8,56.4,88.34,108.54,58.33,110.56,57.32a236.47,236.47,0,0,1,36.57-14.79c34.51-10.71,64.71,0,64.71,0s-11.2-6-15.17-7.14a77.18,77.18,0,0,0-21.74-3c-34.43,0-65.87,19.94-65.87,19.94" transform="translate(-7.62 -5.93)"/><text class="cls-10" transform="translate(165.04 76.85)">OF GALEN</text></g></g></svg>