<svg xmlns="http://www.w3.org/2000/svg" xmlns:xlink="http://www.w3.org/1999/xlink" viewBox="0 0 223 113"><defs><style>.a{fill:#fff;stroke:#000;stroke-miterlimit:10;}.b{fill:#acbd96;}.c{fill:#007d3a;}.d{opacity:0.59;}.e{fill:none;}.f{fill:url(#a);}.g,.i{fill:#231f20;}.h{fill:url(#b);}.i{isolation:isolate;font-size:8px;font-family:TimesNewRomanPSMT, Times New Roman;}</style><linearGradient id="a" x1="67.3" y1="18.86" x2="155.77" y2="87.58" gradientTransform="matrix(1, 0, 0, -1, -7.62, 90.07)" gradientUnits="userSpaceOnUse"><stop offset="0.01" stop-color="#7b9ba8"/><stop offset="0.98" stop-color="#c6d8ab"/><stop offset="1" stop-color="#c6d8ab"/></linearGradient><linearGradient id="b" x1="95.27" y1="37.06" x2="167.95" y2="111.32" gradientTransform="matrix(1, 0, 0, -1, -7.62, 90.07)" gradientUnits="userSpaceOnUse"><stop offset="0.01" stop-color="#c3cf2d"/><stop offset="1" stop-color="#00a651"/></linearGradient></defs><title>aaog_w</title><rect class="a" x="0.5" y="0.5" width="222" height="112" rx="4" ry="4"/><path class="b" d="M16.38,15.88h-.82V20a1.24,1.24,0,0,0,.12.66.54.54,0,0,0,.46.17V21H14.25v-.16a.52.52,0,0,0,.48-.2,1.24,1.24,0,0,0,.13-.66V15.88h-.78a1.46,1.46,0,0,0-.82.18.75.75,0,0,0-.29.59h-.16V15.41H13a1.22,1.22,0,0,0,.81.2H16.6a1.33,1.33,0,0,0,.85-.2h.17v1.24h-.11a.91.91,0,0,0-.36-.61A1.47,1.47,0,0,0,16.38,15.88Z" transform="translate(8.5 8.5)"/><path class="b" d="M22.94,20V18.43H20V20a1.21,1.21,0,0,0,.14.67.57.57,0,0,0,.49.19V21H18.69v-.16a.55.55,0,0,0,.48-.19A1.24,1.24,0,0,0,19.3,20V16.63a1.24,1.24,0,0,0-.13-.68.54.54,0,0,0-.48-.18v-.16h1.95v.16a.57.57,0,0,0-.49.19,1.16,1.16,0,0,0-.14.66v1.53H23V16.63a1.34,1.34,0,0,0-.13-.68.55.55,0,0,0-.44-.18v-.16h1.93v.16a.55.55,0,0,0-.48.19,1.21,1.21,0,0,0-.13.67V20a1.21,1.21,0,0,0,.13.67.55.55,0,0,0,.48.19V21H22.38v-.16a.55.55,0,0,0,.48-.19A1.38,1.38,0,0,0,22.94,20Z" transform="translate(8.5 8.5)"/><path class="b" d="M28.83,17.65H29V19h-.16a.79.79,0,0,0-.21-.43,1,1,0,0,0-.54-.09H26.74v1.93a.37.37,0,0,0,.09.28.48.48,0,0,0,.31.08h.94a2.76,2.76,0,0,0,.7-.06.63.63,0,0,0,.33-.2,1.94,1.94,0,0,0,.28-.48h.16l-.25,1H25.38v-.16a.57.57,0,0,0,.49-.19A1.26,1.26,0,0,0,26,20V16.63a1.24,1.24,0,0,0-.13-.68.54.54,0,0,0-.48-.18v-.16h3.88v.9h-.1a.9.9,0,0,0-.24-.51,1.21,1.21,0,0,0-.67-.13H26.74v2.31h1.51a.57.57,0,0,0,.42-.11A.8.8,0,0,0,28.83,17.65Z" transform="translate(8.5 8.5)"/><path class="c" d="M131.91,80.35c-3.49,0-6.88-.7-9.14-7.61l-3.68-10.18a26.75,26.75,0,0,1-3.1-.09l3.29,10.27c1.75,5.21.52,7.61-3.59,7.61-2.46,0-2.46,3.06,0,3.06h16.23c2.47,0,2.47-3.06,0-3.06" transform="translate(8.5 8.5)"/><path class="c" d="M101,14.44l7.87,26c1.42-.39,2-.86,3.22-1.16l-2.19-8c-.12-.3-2.7-8.26-2.33-7.15l-7-20.73C99.08-1.11,97-.88,95.79,3.29l-20,65.45c-2.77,8.9-7.22,22.2-11.64,22.2-2.57,0-2.57,3,0,3h16c2.67,0,2.67-3,0-3-4.72,0,0-17.13,2-22.2l4.52-14.42s9.19-31.71,10.08-35.25c2.53-10.16,2.78-8.2,4.2-4.61" transform="translate(8.5 8.5)"/><path class="b" d="M116.86,58.89v-.31c.62,0,.93-.21.92-.64a1.15,1.15,0,0,0-.08-.41l-1-3h-3.45l-.73,2.16a4,4,0,0,0-.27,1.18c0,.45.28.69.85.7v.31h-2.78v-.31a1.68,1.68,0,0,0,.93-.39,3.5,3.5,0,0,0,.67-1.3l3-8.87H116l3.12,9.26a2.38,2.38,0,0,0,.57,1.06,1.54,1.54,0,0,0,1,.24v.31Zm-3.41-5h3l-1.52-4.55Z" transform="translate(8.5 8.5)"/><path class="b" d="M127.88,48h.3v2.52h-.32a2.47,2.47,0,0,0-.76-1.63,2.33,2.33,0,0,0-1.63-.59,2.15,2.15,0,0,0-1.4.44,1.44,1.44,0,0,0-.53,1.17,2,2,0,0,0,.44,1.24,7.68,7.68,0,0,0,1.91,1.44,8.61,8.61,0,0,1,2.29,1.78,2.75,2.75,0,0,1,.59,1.74,3.06,3.06,0,0,1-3.06,3.06,6,6,0,0,1-1.87-.4,2.46,2.46,0,0,0-.59-.16c-.18,0-.32.14-.41.41h-.32V56.07h.32a2.58,2.58,0,0,0,2.49,2.65h.1A2.29,2.29,0,0,0,127,58.2a1.78,1.78,0,0,0,.59-1.39,2,2,0,0,0-.49-1.25,8.54,8.54,0,0,0-2-1.54,8.55,8.55,0,0,1-1.72-1.2,3.05,3.05,0,0,1-.62-1,3.4,3.4,0,0,1-.2-1.18,2.64,2.64,0,0,1,.81-2,2.92,2.92,0,0,1,2.11-.77,4.88,4.88,0,0,1,1.56.28,2.1,2.1,0,0,0,.55.13.22.22,0,0,0,.17-.06A1,1,0,0,0,127.88,48Z" transform="translate(8.5 8.5)"/><path class="b" d="M137.38,48.67h-1.63v8.26a2.48,2.48,0,0,0,.24,1.31,1,1,0,0,0,.93.34v.31h-3.8v-.31a1.07,1.07,0,0,0,1-.39,2.52,2.52,0,0,0,.25-1.32v-8.2h-1.56a2.9,2.9,0,0,0-1.63.36,1.5,1.5,0,0,0-.57,1.18h-.32V47.74h.32a2.41,2.41,0,0,0,1.61.4h5.64a2.68,2.68,0,0,0,1.7-.4h.34v2.47h-.21A1.85,1.85,0,0,0,139,49,3,3,0,0,0,137.38,48.67Z" transform="translate(8.5 8.5)"/><path class="b" d="M150,56.87V53.75h-5.86v3.12a2.37,2.37,0,0,0,.27,1.33,1.12,1.12,0,0,0,1,.38v.31h-3.89v-.31a1.08,1.08,0,0,0,1-.38,2.45,2.45,0,0,0,.26-1.33v-6.7a2.52,2.52,0,0,0-.26-1.35,1.11,1.11,0,0,0-1-.36v-.31h3.85v.31a1.11,1.11,0,0,0-1,.39,2.42,2.42,0,0,0-.27,1.32v3.06H150V50.17a2.53,2.53,0,0,0-.25-1.35,1.07,1.07,0,0,0-.95-.36v-.31h3.85v.31a1.08,1.08,0,0,0-1,.38,2.4,2.4,0,0,0-.27,1.34v6.7a2.46,2.46,0,0,0,.27,1.33,1.09,1.09,0,0,0,1,.37v.31h-3.85v-.31a1.08,1.08,0,0,0,1-.37A2.58,2.58,0,0,0,150,56.87Z" transform="translate(8.5 8.5)"/><path class="b" d="M164.56,48.14h2.54v.31c-.81,0-1.21.48-1.21,1.43v.25l.54,6.63a2.9,2.9,0,0,0,.36,1.41,1.34,1.34,0,0,0,1,.41v.31h-3.87v-.31a1.37,1.37,0,0,0,.87-.41,1.4,1.4,0,0,0,.25-.93V57l-.58-7-3.68,8.89h-.28l-3.65-8.77-.6,6.61V57a1.52,1.52,0,0,0,1.38,1.65h0v.31h-3.34v-.31a1.43,1.43,0,0,0,1-.47,3.19,3.19,0,0,0,.41-1.51l.65-7.4a2.39,2.39,0,0,0-1.4-.75v-.31h2.72l3.44,8.46Z" transform="translate(8.5 8.5)"/><path class="b" d="M175.7,58.89v-.31c.62,0,.93-.21.92-.64a1.15,1.15,0,0,0-.08-.41l-1-3h-3.45l-.71,2.17a4,4,0,0,0-.27,1.18c0,.45.28.69.85.7v.31h-2.78v-.31a1.68,1.68,0,0,0,.93-.39,3.5,3.5,0,0,0,.67-1.3l3-8.87h1.11L178,57.28a2.38,2.38,0,0,0,.57,1.06,1.54,1.54,0,0,0,1,.24v.31Zm-3.41-5h3l-1.52-4.55Z" transform="translate(8.5 8.5)"/><path class="b" d="M14.82,34.72v-.3c.6,0,.9-.21.89-.62a1.1,1.1,0,0,0-.08-.4l-1-2.89h-3.3l-.71,2.09a4.46,4.46,0,0,0-.24,1.14c0,.44.27.67.82.68v.3H8.49v-.3a1.52,1.52,0,0,0,.89-.35A3.33,3.33,0,0,0,10,32.82l2.88-8.58H14l3,9a2.4,2.4,0,0,0,.55,1,1.46,1.46,0,0,0,.93.23v.3Zm-3.3-4.85h2.93L13,25.45Z" transform="translate(8.5 8.5)"/><path class="b" d="M28,32.44h.31l-.64,2.27H20.1v-.3A1,1,0,0,0,21,34a2.49,2.49,0,0,0,.27-1.34v-6.6A2,2,0,0,0,21,24.89a1.12,1.12,0,0,0-.93-.33v-.3h3.73v.3a1,1,0,0,0-.89.38,2.2,2.2,0,0,0-.27,1.26v7a1,1,0,0,0,.24.79,1.47,1.47,0,0,0,.94.21h2.07a2.06,2.06,0,0,0,1.34-.33A3.22,3.22,0,0,0,28,32.44Z" transform="translate(8.5 8.5)"/><path class="b" d="M37.51,32.44h.31l-.64,2.27H29.64v-.3a1,1,0,0,0,.91-.4,2.49,2.49,0,0,0,.27-1.34v-6.6a2,2,0,0,0-.25-1.18,1.12,1.12,0,0,0-.93-.33v-.3h3.74v.3a1,1,0,0,0-.89.38,2.2,2.2,0,0,0-.27,1.26v7a1,1,0,0,0,.24.79,1.47,1.47,0,0,0,.94.21h2.07a2.06,2.06,0,0,0,1.34-.33A3.2,3.2,0,0,0,37.51,32.44Z" transform="translate(8.5 8.5)"/><path class="b" d="M45.59,28.25h.31v2.53h-.31a1.56,1.56,0,0,0-.41-.83,2,2,0,0,0-1-.17H41.56v3.73a.73.73,0,0,0,.17.55.88.88,0,0,0,.59.16h1.82a6.14,6.14,0,0,0,1.35-.15,1.34,1.34,0,0,0,.63-.39,3.86,3.86,0,0,0,.55-.94H47l-.48,1.94H39v-.3a1.05,1.05,0,0,0,.94-.36,2.41,2.41,0,0,0,.24-1.27V26.27A2.46,2.46,0,0,0,39.93,25,1.06,1.06,0,0,0,39,24.6v-.3h7.5v1.77h-.2a1.75,1.75,0,0,0-.46-1,2.23,2.23,0,0,0-1.29-.24h-3v4.44h2.91a1.14,1.14,0,0,0,.82-.2A1.53,1.53,0,0,0,45.59,28.25Z" transform="translate(8.5 8.5)"/><path class="b" d="M52.12,29.9h-.84v2.86a2.38,2.38,0,0,0,.26,1.31,1.06,1.06,0,0,0,.93.36v.3H48.72v-.3a1.05,1.05,0,0,0,.94-.36,2.4,2.4,0,0,0,.24-1.29V26.24A2.41,2.41,0,0,0,49.66,25a1.05,1.05,0,0,0-.94-.35v-.3H53a3.87,3.87,0,0,1,2.52.77,2.41,2.41,0,0,1,.94,2,2.55,2.55,0,0,1-2.15,2.56,4,4,0,0,1,.92.83,13,13,0,0,1,1.16,1.69A8.93,8.93,0,0,0,57.66,34a1.58,1.58,0,0,0,1,.46v.3H56.51a21.63,21.63,0,0,1-1.59-2.32,8.61,8.61,0,0,0-1.54-2.05A2,2,0,0,0,52.12,29.9Zm.26-5.19H51.27v4.76h1.28a2.39,2.39,0,0,0,1.8-.66A2.35,2.35,0,0,0,55,27.07a2.18,2.18,0,0,0-.72-1.71A2.75,2.75,0,0,0,52.38,24.71Z" transform="translate(8.5 8.5)"/><path class="b" d="M70.7,30.21v.3a1.3,1.3,0,0,0-1,.32,1.57,1.57,0,0,0-.3,1.09v2.8A10.33,10.33,0,0,1,68,34.9c-.67.05-1.18.08-1.55.08A6.57,6.57,0,0,1,62,33.56a4.75,4.75,0,0,1-1.62-3.75,6.1,6.1,0,0,1,.71-2.93,5.31,5.31,0,0,1,2-2.07,5.12,5.12,0,0,1,2.67-.74,6.45,6.45,0,0,1,1.85.3,3.77,3.77,0,0,0,1,.19.57.57,0,0,0,.59-.35h.33v3.07h-.29a3,3,0,0,0-1.16-2,3.64,3.64,0,0,0-2.29-.77,3.32,3.32,0,0,0-2.71,1.32A5.28,5.28,0,0,0,62,29.23,5.85,5.85,0,0,0,63.24,33a3.77,3.77,0,0,0,3.07,1.51c1.17,0,1.75-.37,1.75-1.11v-1.2a2.59,2.59,0,0,0-.25-1.34,1,1,0,0,0-.89-.38h-.4v-.3Z" transform="translate(8.5 8.5)"/><path class="b" d="M79.82,25.79l-2.34,3.69v3.28a2.42,2.42,0,0,0,.24,1.3,1,1,0,0,0,.9.35v.3h-3.8v-.3a1.15,1.15,0,0,0,1-.37,2.38,2.38,0,0,0,.25-1.28V29.48l-2.19-3.41a4.67,4.67,0,0,0-.9-1.13,1.68,1.68,0,0,0-1-.29v-.3h4.07v.3c-.71,0-1.07.16-1.07.49a1.09,1.09,0,0,0,.21.55l2.06,3.15,1.65-2.61a2,2,0,0,0,.36-1c0-.39-.23-.58-.69-.58v-.3h2.91v.3a1.76,1.76,0,0,0-.89.25A3.28,3.28,0,0,0,79.82,25.79Z" transform="translate(8.5 8.5)"/><g class="d"><rect class="e" x="70.49" y="8.5" width="49.8" height="93.89"/></g><path class="f" d="M101.43,46.42C70.5,64.27,44.62,59.51,44.62,59.51,25,59.21,0,39.87,0,39.87c48.79,42.54,100,12.2,100,12.2,27.07-11,19.58-9.27,39.56-15.47,34.51-10.71,64.71,0,64.71,0s-11.2-6-15.17-7.14a77.25,77.25,0,0,0-21.74-3c-34.43,0-65.87,19.94-65.87,19.94" transform="translate(8.5 8.5)"/><path class="g" d="M153.08,65.39v.16a.71.71,0,0,0-.54.17.88.88,0,0,0-.16.59v1.53a4.54,4.54,0,0,1-.74.1h-.84a3.56,3.56,0,0,1-2.45-.77,2.59,2.59,0,0,1-.88-2,3.27,3.27,0,0,1,.38-1.59,2.91,2.91,0,0,1,1.07-1.13,2.77,2.77,0,0,1,1.46-.38,3.37,3.37,0,0,1,1,.16,1.91,1.91,0,0,0,.53.1.31.31,0,0,0,.32-.19h.15v1.67h-.16a1.64,1.64,0,0,0-.63-1.11,2,2,0,0,0-1.25-.42,1.8,1.8,0,0,0-1.47.72,2.86,2.86,0,0,0-.58,1.85,3.16,3.16,0,0,0,.67,2.07,2.05,2.05,0,0,0,1.67.82c.67,0,1-.2,1-.61v-.62a1.43,1.43,0,0,0-.14-.73.55.55,0,0,0-.49-.21h-.22v-.16Z" transform="translate(8.5 8.5)"/><path class="g" d="M156.05,65.22h-.46v1.56a1.3,1.3,0,0,0,.14.7.59.59,0,0,0,.51.2v.16h-2v-.16a.58.58,0,0,0,.51-.2,1.31,1.31,0,0,0,.13-.7V63.23a1.35,1.35,0,0,0-.13-.69.58.58,0,0,0-.51-.19v-.16h2.33a2.09,2.09,0,0,1,1.38.42,1.3,1.3,0,0,1,.51,1.07,1.4,1.4,0,0,1-1.22,1.39,2.15,2.15,0,0,1,.5.45,8.07,8.07,0,0,1,.64,1,5,5,0,0,0,.7,1,.85.85,0,0,0,.52.25v.16h-1.16a10.85,10.85,0,0,1-.87-1.26,4.87,4.87,0,0,0-.85-1.12A1.07,1.07,0,0,0,156.05,65.22Zm.13-2.83h-.59V65h.7a1.32,1.32,0,0,0,1-.36,1.29,1.29,0,0,0,.35-1,1.22,1.22,0,0,0-.39-.93A1.49,1.49,0,0,0,156.18,62.39Z" transform="translate(8.5 8.5)"/><path class="g" d="M160.81,65a2.81,2.81,0,0,1,.87-2.11,3,3,0,0,1,2.17-.84,2.92,2.92,0,0,1,2.13.86,2.82,2.82,0,0,1,.87,2.09,2.91,2.91,0,0,1-.87,2.08,3.08,3.08,0,0,1-4.29,0A2.92,2.92,0,0,1,160.81,65Zm.87,0a3.25,3.25,0,0,0,.59,2,1.86,1.86,0,0,0,1.55.77,1.9,1.9,0,0,0,1.57-.78,3.11,3.11,0,0,0,.6-2,3.25,3.25,0,0,0-.59-2,1.86,1.86,0,0,0-1.53-.76,1.93,1.93,0,0,0-1.59.75,3.11,3.11,0,0,0-.6,2Z" transform="translate(8.5 8.5)"/><path class="g" d="M172.76,66.66V63.24a1.26,1.26,0,0,0-.13-.69.56.56,0,0,0-.47-.21v-.16h2v.16a.56.56,0,0,0-.5.2,1.33,1.33,0,0,0-.14.71v3.54a1.32,1.32,0,0,0,.14.7.56.56,0,0,0,.5.2v.16h-1.4v-.78a2.4,2.4,0,0,1-1.89.93,1.84,1.84,0,0,1-1.41-.54A2,2,0,0,1,169,66v-2.8a1.35,1.35,0,0,0-.13-.71.58.58,0,0,0-.51-.2v-.16h2v.16a.57.57,0,0,0-.52.19,1.32,1.32,0,0,0-.14.7v2.85a1.51,1.51,0,0,0,.38,1.09,1.4,1.4,0,0,0,1.06.4A1.86,1.86,0,0,0,172.76,66.66Z" transform="translate(8.5 8.5)"/><path class="g" d="M175.38,62.18h2.07a2.63,2.63,0,0,1,1.61.45,1.38,1.38,0,0,1,.59,1.16,1.28,1.28,0,0,1-.52,1.08,2.49,2.49,0,0,1-1.48.38,6.36,6.36,0,0,1-.87-.06v1.59a1.33,1.33,0,0,0,.14.71.59.59,0,0,0,.5.19v.16h-2v-.16a.56.56,0,0,0,.5-.2,1.23,1.23,0,0,0,.14-.68V63.25a1.33,1.33,0,0,0-.14-.71.56.56,0,0,0-.5-.2Zm2.1.22h-.7v2.54a2.37,2.37,0,0,0,.7.1,1.46,1.46,0,0,0,1-.33,1.14,1.14,0,0,0,.37-.9,1.41,1.41,0,0,0-.37-1,1.29,1.29,0,0,0-1-.42Z" transform="translate(8.5 8.5)"/><path class="g" d="M16.38,15.88h-.82v4.19a1.24,1.24,0,0,0,.12.66.54.54,0,0,0,.46.17v.16H14.25V20.9a.52.52,0,0,0,.48-.2,1.24,1.24,0,0,0,.13-.66V15.88h-.78a1.46,1.46,0,0,0-.82.18.75.75,0,0,0-.29.59h-.16V15.41H13a1.22,1.22,0,0,0,.81.2H16.6a1.33,1.33,0,0,0,.85-.2h.17v1.24h-.11a.91.91,0,0,0-.36-.61A1.47,1.47,0,0,0,16.38,15.88Z" transform="translate(8.5 8.5)"/><path class="g" d="M22.94,20V18.43H20V20a1.21,1.21,0,0,0,.14.67.57.57,0,0,0,.49.19V21H18.69v-.16a.55.55,0,0,0,.48-.19A1.24,1.24,0,0,0,19.3,20V16.63a1.24,1.24,0,0,0-.13-.68.54.54,0,0,0-.48-.18v-.16h1.95v.16a.57.57,0,0,0-.49.19,1.16,1.16,0,0,0-.14.66v1.55H23V16.63a1.34,1.34,0,0,0-.13-.68.55.55,0,0,0-.44-.18v-.16h1.93v.16a.55.55,0,0,0-.48.19,1.21,1.21,0,0,0-.13.67V20a1.21,1.21,0,0,0,.13.67.55.55,0,0,0,.48.19V21H22.38v-.16a.55.55,0,0,0,.48-.19A1.38,1.38,0,0,0,22.94,20Z" transform="translate(8.5 8.5)"/><path class="g" d="M28.83,17.66H29V19h-.16a.79.79,0,0,0-.21-.43,1,1,0,0,0-.54-.09H26.74v1.92a.37.37,0,0,0,.09.28.48.48,0,0,0,.31.08h.94a2.76,2.76,0,0,0,.7-.06.63.63,0,0,0,.33-.2,1.94,1.94,0,0,0,.28-.48h.16l-.25,1H25.38v-.16a.57.57,0,0,0,.49-.19A1.26,1.26,0,0,0,26,20V16.63a1.24,1.24,0,0,0-.13-.68.54.54,0,0,0-.48-.18v-.16h3.88v.9h-.1a.9.9,0,0,0-.24-.51,1.21,1.21,0,0,0-.67-.13H26.74v2.31h1.51a.57.57,0,0,0,.42-.11A.77.77,0,0,0,28.83,17.66Z" transform="translate(8.5 8.5)"/><path class="g" d="M116.86,58.9v-.31c.62,0,.93-.21.92-.64a1.15,1.15,0,0,0-.08-.41l-1-3h-3.45l-.73,2.16a4,4,0,0,0-.27,1.18c0,.45.28.69.85.7v.31h-2.78v-.31a1.68,1.68,0,0,0,.93-.39,3.5,3.5,0,0,0,.67-1.3l3-8.87H116l3.12,9.26a2.38,2.38,0,0,0,.57,1.06,1.54,1.54,0,0,0,1,.24v.31Zm-3.41-5h3l-1.52-4.55Z" transform="translate(8.5 8.5)"/><path class="g" d="M127.88,48h.3v2.52h-.32a2.47,2.47,0,0,0-.76-1.63,2.33,2.33,0,0,0-1.63-.59,2.15,2.15,0,0,0-1.4.44,1.44,1.44,0,0,0-.53,1.17,2,2,0,0,0,.44,1.24,7.68,7.68,0,0,0,1.91,1.44,8.61,8.61,0,0,1,2.29,1.78,2.75,2.75,0,0,1,.59,1.74,3.07,3.07,0,0,1-3.06,3.06,6,6,0,0,1-1.87-.4,2.48,2.48,0,0,0-.59-.17c-.18,0-.32.14-.41.41h-.32V56.07h.32a2.58,2.58,0,0,0,2.49,2.65h.1A2.29,2.29,0,0,0,127,58.2a1.78,1.78,0,0,0,.59-1.39,2,2,0,0,0-.48-1.25,8.54,8.54,0,0,0-2-1.54,8.91,8.91,0,0,1-1.73-1.2,3.05,3.05,0,0,1-.62-1,3.4,3.4,0,0,1-.2-1.18,2.64,2.64,0,0,1,.81-2,2.92,2.92,0,0,1,2.11-.77,4.88,4.88,0,0,1,1.56.28,2.1,2.1,0,0,0,.55.13.22.22,0,0,0,.17-.06A1,1,0,0,0,127.88,48Z" transform="translate(8.5 8.5)"/><path class="g" d="M137.38,48.67h-1.63v8.26a2.48,2.48,0,0,0,.24,1.31,1,1,0,0,0,.93.34v.31h-3.8v-.31a1.07,1.07,0,0,0,1-.39,2.52,2.52,0,0,0,.25-1.32v-8.2h-1.56a2.9,2.9,0,0,0-1.63.36,1.5,1.5,0,0,0-.57,1.18h-.32V47.74h.32a2.41,2.41,0,0,0,1.61.4h5.64a2.68,2.68,0,0,0,1.7-.4h.34v2.47h-.21A1.85,1.85,0,0,0,139,49,3,3,0,0,0,137.38,48.67Z" transform="translate(8.5 8.5)"/><path class="g" d="M150,56.88V53.75h-5.86v3.12a2.37,2.37,0,0,0,.27,1.33,1.12,1.12,0,0,0,1,.38v.31h-3.89v-.31a1.08,1.08,0,0,0,1-.38,2.45,2.45,0,0,0,.26-1.33v-6.7a2.52,2.52,0,0,0-.26-1.35,1.11,1.11,0,0,0-1-.36v-.31h3.85v.31a1.11,1.11,0,0,0-1,.39,2.42,2.42,0,0,0-.27,1.32v3.06H150V50.17a2.53,2.53,0,0,0-.25-1.35,1.07,1.07,0,0,0-.95-.36v-.31h3.85v.31a1.08,1.08,0,0,0-1,.38,2.4,2.4,0,0,0-.27,1.34v6.71a2.46,2.46,0,0,0,.27,1.33,1.09,1.09,0,0,0,1,.37v.31h-3.85v-.31a1.08,1.08,0,0,0,1-.37A2.58,2.58,0,0,0,150,56.88Z" transform="translate(8.5 8.5)"/><path class="g" d="M164.56,48.15h2.54v.31c-.81,0-1.21.48-1.21,1.43v.25l.54,6.63a2.9,2.9,0,0,0,.36,1.41,1.34,1.34,0,0,0,1,.41v.31h-3.87v-.31a1.37,1.37,0,0,0,.87-.41,1.4,1.4,0,0,0,.25-.93V57l-.58-7-3.68,8.89h-.28l-3.65-8.78-.6,6.61V57a1.52,1.52,0,0,0,1.38,1.65h0v.31h-3.34v-.31a1.43,1.43,0,0,0,1-.47,3.19,3.19,0,0,0,.41-1.51l.65-7.4a2.39,2.39,0,0,0-1.4-.75v-.31h2.72l3.44,8.46Z" transform="translate(8.5 8.5)"/><path class="g" d="M175.7,58.9v-.31c.62,0,.93-.21.92-.64a1.15,1.15,0,0,0-.08-.41l-1-3h-3.45l-.71,2.16a4,4,0,0,0-.27,1.18c0,.45.28.69.85.7v.31h-2.78v-.31a1.68,1.68,0,0,0,.93-.39,3.5,3.5,0,0,0,.67-1.3l3-8.87h1.11L178,57.28a2.38,2.38,0,0,0,.57,1.06,1.54,1.54,0,0,0,1,.24v.31Zm-3.41-5h3l-1.52-4.55Z" transform="translate(8.5 8.5)"/><path class="g" d="M14.82,34.72v-.3c.6,0,.9-.21.89-.62a1.1,1.1,0,0,0-.08-.4l-1-2.89h-3.3l-.71,2.09a4.46,4.46,0,0,0-.24,1.14c0,.44.27.67.82.68v.3H8.49v-.3a1.52,1.52,0,0,0,.89-.35A3.33,3.33,0,0,0,10,32.82l2.88-8.58H14l3,9a2.4,2.4,0,0,0,.55,1,1.46,1.46,0,0,0,.93.23v.3Zm-3.3-4.85h2.93L13,25.45Z" transform="translate(8.5 8.5)"/><path class="g" d="M28,32.45h.31l-.64,2.27H20.1v-.3A1,1,0,0,0,21,34a2.49,2.49,0,0,0,.27-1.34V26.12A2,2,0,0,0,21,24.94a1.12,1.12,0,0,0-.93-.33v-.3h3.73v.3a1,1,0,0,0-.89.38,2.2,2.2,0,0,0-.27,1.26v7a1,1,0,0,0,.24.79,1.47,1.47,0,0,0,.94.21h2.07a2.06,2.06,0,0,0,1.34-.33A3.26,3.26,0,0,0,28,32.45Z" transform="translate(8.5 8.5)"/><path class="g" d="M37.51,32.45h.31l-.64,2.27H29.64v-.3a1,1,0,0,0,.91-.4,2.49,2.49,0,0,0,.27-1.34V26.12a2,2,0,0,0-.25-1.18,1.12,1.12,0,0,0-.93-.33v-.3h3.74v.3a1,1,0,0,0-.89.38,2.2,2.2,0,0,0-.27,1.26v7a1,1,0,0,0,.24.79,1.47,1.47,0,0,0,.94.21h2.07a2.06,2.06,0,0,0,1.34-.33A3.34,3.34,0,0,0,37.51,32.45Z" transform="translate(8.5 8.5)"/><path class="g" d="M45.59,28.25h.31v2.53h-.31a1.56,1.56,0,0,0-.41-.83,2,2,0,0,0-1-.17H41.56v3.73a.73.73,0,0,0,.17.55.88.88,0,0,0,.59.16h1.82a6.14,6.14,0,0,0,1.35-.15,1.34,1.34,0,0,0,.63-.39,3.86,3.86,0,0,0,.55-.94H47l-.48,1.94H39v-.3a1.05,1.05,0,0,0,.94-.36,2.41,2.41,0,0,0,.24-1.27V26.27A2.46,2.46,0,0,0,39.93,25,1.06,1.06,0,0,0,39,24.6v-.3h7.5v1.77h-.2a1.75,1.75,0,0,0-.46-1,2.23,2.23,0,0,0-1.29-.24h-3v4.44h2.91a1.14,1.14,0,0,0,.82-.2A1.53,1.53,0,0,0,45.59,28.25Z" transform="translate(8.5 8.5)"/><path class="g" d="M52.12,29.9h-.84v2.86a2.38,2.38,0,0,0,.26,1.31,1.06,1.06,0,0,0,.93.36v.3H48.72v-.3a1.05,1.05,0,0,0,.94-.36,2.4,2.4,0,0,0,.24-1.29V26.24A2.41,2.41,0,0,0,49.66,25a1.05,1.05,0,0,0-.94-.35v-.3H53a3.87,3.87,0,0,1,2.52.77,2.41,2.41,0,0,1,.94,2,2.55,2.55,0,0,1-2.15,2.56,4,4,0,0,1,.92.83,13,13,0,0,1,1.16,1.69A8.93,8.93,0,0,0,57.66,34a1.58,1.58,0,0,0,1,.46v.3H56.51a21.63,21.63,0,0,1-1.59-2.32,8.61,8.61,0,0,0-1.54-2.05A2,2,0,0,0,52.12,29.9Zm.26-5.19H51.27v4.76h1.28a2.39,2.39,0,0,0,1.8-.66A2.35,2.35,0,0,0,55,27.07a2.18,2.18,0,0,0-.72-1.71A2.75,2.75,0,0,0,52.38,24.71Z" transform="translate(8.5 8.5)"/><path class="g" d="M70.7,30.21v.3a1.3,1.3,0,0,0-1,.32,1.57,1.57,0,0,0-.3,1.09v2.8A10.33,10.33,0,0,1,68,34.9c-.67.05-1.18.08-1.55.08A6.57,6.57,0,0,1,62,33.56a4.75,4.75,0,0,1-1.62-3.75,6.1,6.1,0,0,1,.71-2.93,5.31,5.31,0,0,1,2-2.07,5.12,5.12,0,0,1,2.67-.74,6.45,6.45,0,0,1,1.85.3,3.77,3.77,0,0,0,1,.19.57.57,0,0,0,.59-.35h.33v3.07h-.29a3,3,0,0,0-1.16-2,3.64,3.64,0,0,0-2.29-.77,3.32,3.32,0,0,0-2.71,1.32A5.28,5.28,0,0,0,62,29.23,5.85,5.85,0,0,0,63.24,33a3.77,3.77,0,0,0,3.07,1.51c1.17,0,1.75-.37,1.75-1.11V32.24a2.59,2.59,0,0,0-.25-1.34,1,1,0,0,0-.89-.38h-.4v-.3Z" transform="translate(8.5 8.5)"/><path class="g" d="M79.82,25.79l-2.34,3.69v3.28a2.42,2.42,0,0,0,.24,1.3,1,1,0,0,0,.9.35v.3h-3.8v-.3a1.15,1.15,0,0,0,1-.37,2.38,2.38,0,0,0,.25-1.28V29.48l-2.19-3.41a4.67,4.67,0,0,0-.9-1.13,1.68,1.68,0,0,0-1-.29v-.3h4.07v.3c-.71,0-1.07.16-1.07.49a1.09,1.09,0,0,0,.21.55l2.06,3.15,1.65-2.61a2,2,0,0,0,.36-1c0-.39-.23-.58-.69-.58v-.3h2.91v.3a1.76,1.76,0,0,0-.89.25A3.28,3.28,0,0,0,79.82,25.79Z" transform="translate(8.5 8.5)"/><path class="h" d="M102.46,45.71c-32,18-57.85,13.79-57.85,13.79C25,59.21,0,39.87,0,39.87,48.78,82.41,100.92,52.4,102.94,51.39A236.33,236.33,0,0,1,139.51,36.6c34.51-10.71,64.71,0,64.71,0s-11.2-6-15.17-7.14a77.25,77.25,0,0,0-21.74-3c-34.43,0-65.87,19.94-65.87,19.94" transform="translate(8.5 8.5)"/><text class="i" transform="translate(173.54 85.35)">OF GALEN</text></svg>