<svg xmlns="http://www.w3.org/2000/svg" viewBox="0 0 243 234"><defs><style>.a{fill:#d8d8d8;}.b{fill:none;}.c{fill:#b688b9;}.d{fill:#e67e3c;}.e{fill:#f7a71a;}.f{fill:#a9ae37;}.g{fill:#7cadd5;}.h{fill:#b08eb3;}.i{fill:#b08eb2;}.j{fill:#b08fb3;}.k{fill:#a892a9;}.l{fill:#f5a82b;}.m{fill:#ae94b0;}.n{fill:#f1b135;}.o{fill:#de844c;}.p{fill:#acae52;}.q{fill:#afb152;}.r{fill:#8caec7;}.s{fill:#db895b;}.t{fill:#abaf47;}.u{fill:#d2895a;}.v{fill:#eead30;}.w{fill:#f3ab2f;}.x{fill:#df844c;}.y{fill:#87adca;}.z{fill:#8eb1cb;}.aa{fill:#8aa8c0;}</style></defs><title>dayton_childrens_w</title><path class="a" d="M299.28,507.44a.21.21,0,0,1,.13.05v-.21A1,1,0,0,0,299.28,507.44Z" transform="translate(-184.18 -279.18)"/><path class="a" d="M299.4,485.15l0,.05-.11,0c.06.06.1.12.16.19Z" transform="translate(-184.18 -279.18)"/><polygon class="b" points="111.2 14.43 111.2 14.43 111.2 14.43 111.2 14.43"/><path class="b" d="M337.3,334.63h.08l0,0s0,0-.05.05Z" transform="translate(-184.18 -279.18)"/><path class="b" d="M295.4,293.6h0Z" transform="translate(-184.18 -279.18)"/><path class="b" d="M272,355.87v0l0,0Z" transform="translate(-184.18 -279.18)"/><polygon class="b" points="88 55.47 88 55.47 88 55.47 88 55.47 88 55.47"/><path class="b" d="M283.92,375.3h0l0,0v0Z" transform="translate(-184.18 -279.18)"/><path class="b" d="M304.71,379.45a0,0,0,0,0,0,0h0v0Z" transform="translate(-184.18 -279.18)"/><path class="b" d="M284.27,317.41h0v0l0,0,0,0Z" transform="translate(-184.18 -279.18)"/><path class="b" d="M337.29,355.85l0,0,0,0Z" transform="translate(-184.18 -279.18)"/><path class="c" d="M303.47,282c-2.12.34-2.12.39-1.09,2.29.56-.26.65.06.77.53.37,1.41.82,2.81,1.22,4.21a4.22,4.22,0,0,1,.28,2.6h0a46.7,46.7,0,0,1,1,9.35,59.88,59.88,0,0,1-.89,10.09c0,.23-.05.47-.07.7h0a17.54,17.54,0,0,1,1.54,3.88c1.58,4.52,2.93,9.1,4.26,13.81a119.21,119.21,0,0,0,14.05-11.33h0c.11-.18.22-.37.34-.55h0c-.12-.47.15-.87.26-1.29a76.59,76.59,0,0,0,2.26-14,28.84,28.84,0,0,0-.1-6.16c-.05.1-.1.27-.16.28s-.21-.15-.22-.3c0-.5-.08-1-.07-1.51a29.67,29.67,0,0,0-.46-3.5,1.29,1.29,0,0,1,.13-1h0a36.39,36.39,0,0,0-2.16-7.15c-.51-1.23-1.05-2.45-1.58-3.67h-.9c-2.24.53-4.52.74-6.79,1.08C311.22,280.83,307.34,281.35,303.47,282Z" transform="translate(-184.18 -279.18)"/><path class="a" d="M289.5,513h.89c3.74-.45,6.52-2.48,8.89-5.58a1,1,0,0,1,.13-.16v.21c0,1.55,0,2.87,0,4.17,0,.62.16.83.8.81,1.92,0,3.84,0,5.76,0,.71,0,.83-.23.82-.87,0-3.63,0-7.26,0-10.89q0-15.71,0-31.41c0-.81-.22-1-1-1-1.82.06-3.65.05-5.48,0-.69,0-.92.14-.91.88,0,5,0,10,0,15v1.16c-.06-.07-.1-.13-.16-.19-.28-.34-.47-.55-.65-.76a12.86,12.86,0,0,0-9.16-4.56,14.47,14.47,0,0,0-14.19,8.95,19.66,19.66,0,0,0-1,12c1.32,6,4.85,10.18,10.95,11.89.53.15,1.13.07,1.6.44h.54C288,512.81,288.77,513.07,289.5,513Zm-7.73-12.69a10.66,10.66,0,0,1-.59-3.89c.08-3.39,1.05-6.41,3.92-8.47A9,9,0,0,1,299,492.91a11.05,11.05,0,0,1-1.58,10.26,8.41,8.41,0,0,1-8.55,3.44C285.24,506,283,503.74,281.77,500.33Z" transform="translate(-184.18 -279.18)"/><path class="a" d="M348.8,513a16.1,16.1,0,0,0,9.44-5c.5-.54.68-.93,0-1.47a23.83,23.83,0,0,1-2.76-2.44c-.67-.7-1.07-.58-1.72,0a11.16,11.16,0,0,1-6.67,3,9,9,0,0,1-10-6.94c-.27-1.05-.27-1.05.83-1.05,7.17,0,14.34,0,21.51,0,.63,0,.85-.12.92-.81a19.45,19.45,0,0,0-.26-5c-1.16-7.22-5.77-12.72-13.35-13.35a14.74,14.74,0,0,0-13.28,5.33,17,17,0,0,0-3.79,13.44c.82,6.68,4.3,11.28,10.71,13.59a27.36,27.36,0,0,1,3,.83h5C348.43,513,348.64,513,348.8,513Zm3.26-22.47a14.15,14.15,0,0,1,.91,3c.14.61-.06.78-.67.77-2.45,0-4.91,0-7.37,0h-7.46c-.37,0-.76,0-.64-.54.65-3.17,2-5.87,5.16-7.2A7.58,7.58,0,0,1,352.06,490.53Z" transform="translate(-184.18 -279.18)"/><path class="a" d="M416,513h.9a13.31,13.31,0,0,0,6.18-2,8.64,8.64,0,0,0,3.74-5.18c.07-.27,0-.61.33-.8v-3.6c-.92-3.71-3.65-5.58-7-6.85-.87-.33-1.75-.61-2.63-.92-2-.73-4.15-1.19-6-2.36a2.57,2.57,0,0,1-1.47-2.48,2.94,2.94,0,0,1,2-2.55,7.82,7.82,0,0,1,4.59-.23,20.36,20.36,0,0,1,6.24,2.45c.32.19.61.47.91-.11q1.13-2.16,2.36-4.24c.29-.48.1-.67-.29-.9a21.8,21.8,0,0,0-11-3.25,12.36,12.36,0,0,0-8.77,3c-3.5,3.13-4.35,10.57,1.15,13.79a25.67,25.67,0,0,0,5.55,2.26,32.35,32.35,0,0,1,5.67,2,2.94,2.94,0,0,1,1.92,2.87,3.15,3.15,0,0,1-2.45,2.88,8.92,8.92,0,0,1-3.91.28,18.3,18.3,0,0,1-8.47-3.47c-.48-.35-.65-.28-.93.18-.8,1.27-1.61,2.53-2.48,3.75-.39.55-.31.83.22,1.2a24.38,24.38,0,0,0,7.95,3.66,33.83,33.83,0,0,1,3.47.7h.54C414.92,512.82,415.49,513.06,416,513Z" transform="translate(-184.18 -279.18)"/><path class="a" d="M203.28,513h0a15.78,15.78,0,0,0,10.14-5.43c.33-.36.16-.55-.1-.8l-2.62-2.59c-1.35-1.34-1.35-1.34-2.75-.13-4.42,3.85-10.54,3.69-14-.47a10.86,10.86,0,0,1-1.74-11.1,8.89,8.89,0,0,1,9.34-6.11,10.46,10.46,0,0,1,6.81,3.45c.41.41.62.47,1,0,1.16-1.33,2.37-2.62,3.6-3.9.4-.42.37-.65,0-1.07a17,17,0,0,0-27.59,5.24c-.55,1.36-.74,2.81-1.23,4.18V499c.47,1.4.65,2.89,1.26,4.25A15.86,15.86,0,0,0,198.37,513h0c.32,0,.66-.13.93.15h2.88C202.51,512.87,202.9,513,203.28,513Z" transform="translate(-184.18 -279.18)"/><path class="a" d="M289.5,513c-.73.05-1.48-.21-2.18.16h2.16S289.49,513.08,289.5,513Z" transform="translate(-184.18 -279.18)"/><path class="a" d="M314.16,434.45c0,5.12,0,10.25,0,15.38a17.29,17.29,0,0,0,.18,3.05c.49,2.88,1.81,5.19,4.71,6.16a13.46,13.46,0,0,0,10.39-.65.82.82,0,0,0,.55-.83c0-1.62,0-3.24,0-4.86,0-.46-.12-.59-.56-.38a9.46,9.46,0,0,1-3.38.85c-2.83.2-4.54-1-4.53-3.95q0-7.38,0-14.76c0-.67.17-.87.85-.86,2.34,0,4.68,0,7,0,.58,0,.78-.15.77-.75,0-1.59-.05-3.18,0-4.77,0-.72-.26-.84-.89-.83-2.31,0-4.62,0-6.93,0-.62,0-.83-.16-.82-.8,0-2.4,0-4.8,0-7.2,0-.64-.2-.81-.82-.8q-2.88.06-5.76,0c-.63,0-.81.17-.8.8,0,2.4,0,4.8,0,7.2,0,.65-.19.81-.81.8-3.15,0-6.3,0-9.45,0a1.12,1.12,0,0,0-1.26.92c-1.69,4.93-3.42,9.84-5.13,14.76l-2.76,7.88c-.22-.54-.38-.89-.51-1.24q-4.11-10.74-8.19-21.49a1.1,1.1,0,0,0-1.25-.82c-2,.05-3.9,0-5.85,0-1.1,0-1.09,0-.68,1l12.65,30.36a1,1,0,0,1,.15.68,4.72,4.72,0,0,1-4.29,3.5,8,8,0,0,1-3.81-.9c-.5-.25-.7-.16-.92.35-.57,1.35-1.14,2.71-1.83,4-.42.78-.11,1,.53,1.31a15.71,15.71,0,0,0,6,1.47c3.77.19,6.86-1.05,9-4.36a28.75,28.75,0,0,0,2.46-5.09q4.88-12.6,9.74-25.22a1,1,0,0,1,1.1-.77c1.44.06,2.88,0,4.32,0C314,433.58,314.16,433.76,314.16,434.45Z" transform="translate(-184.18 -279.18)"/><path class="d" d="M272.75,355.67h0a25.77,25.77,0,0,1,4-3.27c3.32-2.5,6.75-4.85,10.2-7.16.84-.57.83-.56,0-1.17s-1.33-1-2-1.52a.68.68,0,0,1-.55-.36c-1.71-1.15-3.41-2.32-5.14-3.43a64.43,64.43,0,0,0-6.58-3.83h0c-.17-.1-.28-.32-.53-.28h0a10.14,10.14,0,0,1-2.39.28,63.55,63.55,0,0,0-18,3.66,39.66,39.66,0,0,0-12,6.84c0,.49-.16.87-.78.68h0a22.79,22.79,0,0,0-2.26,2,.86.86,0,0,0-.21,1.24c.81,1.57,1.59,3.15,2.37,4.73,2.16,4.36,4.33,8.72,6.47,13.09.28.56.45.63.93.17a17.29,17.29,0,0,1,3-2.51,2.68,2.68,0,0,1,.91-.69,20.6,20.6,0,0,1,3-2l.91-.51a11.25,11.25,0,0,1,1.14-.7,52.43,52.43,0,0,1,10.45-3.86,54.31,54.31,0,0,1,6.2-1.21h0Z" transform="translate(-184.18 -279.18)"/><path class="e" d="M325.27,374.05c-.31.13-.69.43-.58-.31a3.46,3.46,0,0,0-.12-.94h0l-.17-.35h0a52.46,52.46,0,0,1-5.6-3.74c-3-2.14-5.92-4.44-8.85-6.7-.24-.18-.56-.75-.87,0a1.19,1.19,0,0,1-.32.93.14.14,0,0,1,0,.15h0a8.41,8.41,0,0,1-.7,2.18c-.57,2.26-1.3,4.47-1.87,6.72s-1,4.44-1.47,6.65c0,.28,0,.56,0,.84v0c1,2.55,2.07,5,3.27,7.5a54.72,54.72,0,0,0,9.35,13.77,48,48,0,0,0,7.43,6.21.56.56,0,0,1,.55.37c1,.55,2,1.09,3,1.66a.91.91,0,0,0,1.2-.12c.56-.5.95-1.19,1.64-1.55a6.09,6.09,0,0,1,1.47-1.44.86.86,0,0,1,.15-.22q5.32-5.28,10.66-10.53c.85-.83.88-.8-.11-1.36a40.39,40.39,0,0,1-10.17-8.18,2.85,2.85,0,0,1-.74-.91,10,10,0,0,1-1.55-1.82,34.51,34.51,0,0,1-3.82-5.74A22.54,22.54,0,0,1,325.27,374.05Z" transform="translate(-184.18 -279.18)"/><path class="f" d="M284.46,373.08l.36-.84h0c1.44-5,3.08-9.92,4.84-14.81.25-.7.48-1.41.76-2.1.18-.45.07-.58-.4-.57-2.84,0-5.69,0-8.53.1-2.62.12-5.24.43-7.86.66-.29,0-.59.1-.88.15h0l-.72.2,0,0a1.91,1.91,0,0,1-.31.38,95.38,95.38,0,0,0-7.77,7.14,1.78,1.78,0,0,1-.72.72l-.37.36a2.21,2.21,0,0,1-.89,1.09,5.88,5.88,0,0,1-.36.51,44.3,44.3,0,0,0-9.15,16.77c-.43,1.54-.73,3.12-1.09,4.68v.68h0a.9.9,0,0,1,.53.38c.57.26,1.14.51,1.69.8l13.57,7.14c.68,0,1.34-.05,1.48.85l0,.06a.31.31,0,0,1,.37.16c1.18.74,1.27.7,1.57-.65.22-1,.46-2,.71-3,.46-1.85,1.27-3.59,1.89-5.38-.65-.58.2-.5.32-.74,1-1.68,1.8-3.44,2.92-5a1.84,1.84,0,0,1,.5-.76h0a46.17,46.17,0,0,1,5.76-7.17A11.5,11.5,0,0,1,284.46,373.08Z" transform="translate(-184.18 -279.18)"/><path class="f" d="M324.54,318.08h0c-1.21,4.73-2.82,9.33-4.45,13.93-.35,1-.68,2-1.09,2.94-.29.7-.05.91.62.9l6.92-.14a77.43,77.43,0,0,0,8.6-.67c.5-.07,1-.05,1.52-.07h0c.19-.16.33-.42.64-.34,0,0,0,0,.05-.05.5-.47,1-1,1.51-1.39a64.12,64.12,0,0,0,5.27-4.76c1.93-1.91,3.64-4,5.41-6.07a6.16,6.16,0,0,1,1.32-1.76h0c.12-.19,0-.48.31-.58.09-.21.13-.45.39-.53a.89.89,0,0,1,.35-.59h0A47.54,47.54,0,0,0,357,307.62a16,16,0,0,1,.65-2.54h0c.12-.73.22-1.45.36-2.18a.65.65,0,0,0-.42-.83c-.58-.27-1.13-.62-1.69-.94a8,8,0,0,1-2-1.06h0c-2.32-1.12-4.58-2.34-6.82-3.61a19.67,19.67,0,0,1-3.29-1.77h0a37.48,37.48,0,0,1-4.27-2.21l-.51.06h0A38.62,38.62,0,0,1,332.74,308a1.42,1.42,0,0,1-.6.85h0l-.38.57A9.13,9.13,0,0,1,330,311.8h0a55.71,55.71,0,0,1-3.8,4.47c0,.69-.28,1.17-1.09,1.07h0l-.23.19h0C324.76,317.71,324.65,317.9,324.54,318.08Z" transform="translate(-184.18 -279.18)"/><path class="g" d="M272.18,334.65c.25,0,.36.18.53.28h0a16.3,16.3,0,0,1,4.35-.3c3.17,0,6.34,0,9.51,0,1.26,0,2.51.1,3.76.14,1.06,0,1.05,0,.71-1-1-2.95-1.94-5.9-3.1-8.78a2.05,2.05,0,0,1-.09-.43h0a8.72,8.72,0,0,1-.9-2.19h0l-2-4.32h0l-.35-.38h0l-.35-.27h0l0,0c-1.69-.95-3.25-2.09-5-2.93-.55,0-1.17.15-1.26-.69q-2.59-1.42-5.33-2.6a44.45,44.45,0,0,0-24.29-3.56,1.14,1.14,0,0,0-1.16,1.07q-1.63,9.74-3.34,19.45c-.13.68.08.79.66.71a36.62,36.62,0,0,1,8-.19,46.89,46.89,0,0,1,10.87,2.24,71.5,71.5,0,0,1,8.84,3.76Z" transform="translate(-184.18 -279.18)"/><path class="d" d="M337.3,334.63c-.31-.08-.45.18-.64.34h0l-1.48,1.22h0a2.33,2.33,0,0,1-2.13,1.67L331.44,339a2.43,2.43,0,0,1-1.08.76c-2.67,2-5.42,4-8.28,5.72-.49.31-.5.46-.05.79.75.53,1.48,1.11,2.21,1.67h0a6.2,6.2,0,0,1,1.61,1.12,15.45,15.45,0,0,1,2.54,1.78h0a1.07,1.07,0,0,1,.67.4c2,1.23,4,2.44,5.95,3.68.54.33,1.27.34,1.65,1h0l.62,0h.09c.41,0,.83-.12,1.24-.14a66.63,66.63,0,0,0,18.08-3.43,32.55,32.55,0,0,0,7.66-3.62c0-.38.3-.36.57-.32h0c0-.84.6-.84,1.22-.75h0a37.39,37.39,0,0,0,6.57-5.25c.39-.37.31-.71.11-1.12q-2.62-5.26-5.24-10.53-1.73-3.51-3.43-7a3,3,0,0,1-.29-.43c-.18-.48-.38-.47-.73-.13s-.49.67-.95.72l-.39.35a.39.39,0,0,1-.34.35h0c-.12.2-.24.39-.52.37l-.17.21c0,.61-.27,1-.94.86h0a54.14,54.14,0,0,1-5.62,3.48,38.59,38.59,0,0,1-7.45,3,1.07,1.07,0,0,1-.76.3c-.72.2-1.43.42-2.15.59a37.51,37.51,0,0,1-6.47,1.24Z" transform="translate(-184.18 -279.18)"/><path class="e" d="M284.62,317.34c.46.26,1,.41,1.08,1.07,1.33.94,2.67,1.87,4,2.82.74.53,1.43,1.11,2.15,1.67a31.44,31.44,0,0,1,3.9,2.79c.95.66,1.83,1.42,2.74,2.13a3.07,3.07,0,0,1,1.27,1c.5.07.49-.36.58-.64a117.24,117.24,0,0,0,3.76-13.43c.21-1,.4-2,.61-3.07h0c0-.23.05-.47.07-.7-.22-.14-.26-.38-.35-.6a79.78,79.78,0,0,0-4.7-10c-.57-.32-1.26-.57-.87-1.46l-1.45-2.5a1.48,1.48,0,0,1-.51-.74h0a1.12,1.12,0,0,1-.44-.67h0a2.89,2.89,0,0,1-.68-.88c-.16-.16-.36-.3-.37-.56h0a5.6,5.6,0,0,1-1.22-1.47h0c-1.54-1.75-3.18-3.42-4.87-5A4,4,0,0,1,288,286a62.46,62.46,0,0,0-7.36-4.71l-.54,0c-1.44,1.44-2.87,2.89-4.31,4.34,0,.3.07.61.11.93-.33.09-.42-.31-.7-.28l0,0,0,0c.13.43.11.72-.42.9s-.72.47-1.16.58l-3.05,2.89a1.22,1.22,0,0,1-.72.72c-1.44,1.5-2.89,3-4.46,4.34-.23.35-.23.54.24.79a41.71,41.71,0,0,1,4.9,3.21c.23.17.54.29.63.61h0a.1.1,0,0,1,.12.06,8.8,8.8,0,0,1,2,1.76h0a17.56,17.56,0,0,1,2.91,2.87,50.17,50.17,0,0,1,8,11.91Z" transform="translate(-184.18 -279.18)"/><polygon class="e" points="91.04 7.16 91.04 7.16 91.04 7.16 91.04 7.16"/><path class="g" d="M337.29,355.85l-.62,0h0l-4.76.06c-.29,0-.6-.08-.86.12h0a4.17,4.17,0,0,1-2.87,0,43.1,43.1,0,0,0-6-.16,36.12,36.12,0,0,0-4.2-.13c.55,1.64,1.09,3.23,1.63,4.81h0c.72.06.73.66.82,1.15a4.61,4.61,0,0,1,0,1.05,60.43,60.43,0,0,0,2.64,6.77c.42,1,.89,2,1.34,2.94h0l.17.35h0c.22,0,.14.25.26.32l.46,0h0c.7.09,1.37.24,1.62,1,.33.36.94.38,1.12.92h0l.51.2a.75.75,0,0,1,.67.36h0l.59.37a2.42,2.42,0,0,1,1.3.68h0c.45,0,.64.49,1,.58a1.84,1.84,0,0,1,1.08.52h0a1.18,1.18,0,0,1,.73.36h0a6,6,0,0,1,.59.22c8.11,3.84,16.56,5.79,25.59,4.66,1.78-.22,1.82-.16,2.13-1.93,1.12-6.3,2.2-12.6,3.31-18.89.09-.53-.09-.62-.57-.55a39.88,39.88,0,0,1-13.82-.61,51.06,51.06,0,0,1-13.84-5.19l0,0Z" transform="translate(-184.18 -279.18)"/><path class="c" d="M304.71,379.45c0-.28,0-.56,0-.84-.47,0-.4-.43-.49-.69-1.92-5.16-3.52-10.42-5-15.71-.32-1.13-.34-1.11-1.29-.42A126.11,126.11,0,0,0,285.35,372c-.15.14-.29.3-.53.27h0l-.36.84a7.08,7.08,0,0,1-.54,2.22h0v0l-1.05,5.39a3.9,3.9,0,0,1-.12,2.31,10.36,10.36,0,0,0-.3,2.46s0,.06,0,.06l-.15,0h0A16.84,16.84,0,0,0,282,389a14.82,14.82,0,0,1,0,4.46h0a40,40,0,0,0,4.59,17.5h2.76c.69-.08,1.37-.13,2.05-.23,5.2-.76,10.39-1.54,15.59-2.29.73-.1,1-.24.6-1a41.1,41.1,0,0,1-3.63-13.53,44.93,44.93,0,0,1,0-9.13,27.58,27.58,0,0,1,.77-5.27,0,0,0,0,1,0,0Z" transform="translate(-184.18 -279.18)"/><path class="a" d="M246.09,416c0-.71-.18-.92-.89-.9-1.83.05-3.66.07-5.49,0-.87,0-1,.27-1,1.05,0,5.25,0,10.5,0,16a21.75,21.75,0,0,0-3.1-3c-6.57-4.77-16.29-2.44-20.3,4.87a19.22,19.22,0,0,0-2.13,11.66,15.66,15.66,0,0,0,6.42,11.58c5.34,3.81,13.24,3.83,18-1.9.31-.38.63-.75,1.09-1.3,0,1.64,0,3,0,4.44,0,.51.09.74.68.73,2,0,4,0,6,0,.51,0,.68-.16.66-.67,0-1.32,0-2.64,0-4Q246.07,435.27,246.09,416Zm-12.9,36.75a9,9,0,0,1-12.45-6.84,11.58,11.58,0,0,1,1.52-9A8.9,8.9,0,0,1,237.61,438a10.87,10.87,0,0,1,1.19,4.75C239.07,447.06,236.75,451.16,233.19,452.71Z" transform="translate(-184.18 -279.18)"/><path class="a" d="M244.65,490.2c-.35-4-2-7.42-5.86-9.15a11.73,11.73,0,0,0-11.9.84,22.91,22.91,0,0,0-3.45,3.25v-.6c0-5.1,0-10.2,0-15.3,0-.71-.18-.92-.9-.9-1.88.05-3.77,0-5.66,0-.56,0-.76.09-.76.74,0,4.49,0,9,0,13.49q0,14.44,0,28.88c0,.76.13,1.05,1,1,1.79-.07,3.6-.06,5.39,0,.75,0,1-.19,1-.94,0-5.46,0-10.92,0-16.38a12.65,12.65,0,0,1,.36-3.3,6.47,6.47,0,0,1,4.79-5c2.6-.66,5-.35,7,1.67a7.29,7.29,0,0,1,1.85,5.21c.06,5.94,0,11.88,0,17.82,0,.7.17.92.89.9,1.86-.06,3.72-.05,5.58,0,.67,0,.94-.11.93-.87-.06-2.4,0-4.8,0-7.2C244.75,499.67,245.06,494.92,244.65,490.2Z" transform="translate(-184.18 -279.18)"/><path class="a" d="M277.42,437a10.87,10.87,0,0,0-8.46-9.52A26,26,0,0,0,252,429.22c-.49.21-.5.45-.35.88.55,1.52,1.09,3,1.57,4.59.18.59.38.64.93.41a21.69,21.69,0,0,1,9.82-1.67c3.92.26,6.39,2.77,6.44,6.56,0,.77-.17.88-.91.66a25.9,25.9,0,0,0-11.64-.72c-4.79.82-9,3.72-9.16,9.63-.09,3.54,1.17,6.44,4.2,8.33,3.87,2.41,8,2.53,12.28,1.09a12.18,12.18,0,0,0,5.19-3.66c0,1.21,0,2.17,0,3.13,0,.61.19.75.76.74,1.83,0,3.67-.06,5.49,0,.85,0,1.11-.18,1.11-1.07-.05-5.58,0-11.16,0-16.74A32.38,32.38,0,0,0,277.42,437ZM263,454.3c-2.14.11-4.21-.12-5.83-1.74a4.5,4.5,0,0,1,.6-6.71c1.72-1.22,3.7-1.44,6-1.44a21.84,21.84,0,0,1,6.12,1,.83.83,0,0,1,.7.94C270.66,451.12,267.91,454,263,454.3Z" transform="translate(-184.18 -279.18)"/><path class="a" d="M361.67,434c-4.21-6.2-10.37-8.23-17.61-7a16.6,16.6,0,0,0-13.26,19.66c1.67,7.95,8.3,13.28,16.71,13.27a14.49,14.49,0,0,0,3.54-.35A16.57,16.57,0,0,0,361.67,434Zm-8.74,17.94a9.58,9.58,0,0,1-14.82-6.23c-.84-4.3.14-8.11,3.77-10.9a8.93,8.93,0,0,1,5.57-1.71,9.63,9.63,0,0,1,9.51,8.29C357.62,445.61,356.59,449.37,352.93,451.91Z" transform="translate(-184.18 -279.18)"/><path class="a" d="M396.36,458.35c0-6.23,0-12.47,0-18.71a16.76,16.76,0,0,0-1.42-7.34c-3.16-6.55-12.38-7.15-17-3.35a22.09,22.09,0,0,0-2.94,3.16c0-1.51,0-2.79,0-4.06,0-.58-.14-.78-.75-.77-1.94,0-3.89,0-5.84,0-.56,0-.79.11-.79.73q0,15.21,0,30.41c0,.57.15.77.75.76,1.92,0,3.84-.05,5.76,0,.75,0,.88-.24.87-.91q0-7,0-14a40.61,40.61,0,0,1,.16-4.93,6.85,6.85,0,0,1,5.27-5.91c3.29-.78,6.29.49,7.66,3.21a10.75,10.75,0,0,1,.91,4.9c0,5.58,0,11.15,0,16.73,0,.66.16.87.85.86,1.88-.05,3.77-.05,5.66,0C396.15,459.21,396.36,459,396.36,458.35Z" transform="translate(-184.18 -279.18)"/><path class="a" d="M390.33,484.91c-2.8-4.85-9.07-6-13.78-4.28a12.26,12.26,0,0,0-5.73,4.75c0-1.53,0-2.79,0-4,0-.56-.13-.79-.75-.78-2,0-4,0-5.93,0-.55,0-.72.16-.72.72q0,15.24,0,30.49c0,.57.19.71.73.7,1.86,0,3.72-.07,5.57,0,1,0,1.12-.28,1.12-1.15q-.06-8.59,0-17.18a7.32,7.32,0,0,1,2.9-6.28c3-2.16,8.24-1.75,10.08,2a10.09,10.09,0,0,1,.93,4.53c0,5.7,0,11.4,0,17.09,0,.82.24,1,1,1,1.83-.06,3.66-.05,5.49,0,.7,0,.9-.17.9-.89,0-6.63,0-13.25,0-19.88A13.54,13.54,0,0,0,390.33,484.91Z" transform="translate(-184.18 -279.18)"/><path class="a" d="M329.27,479.94a10.63,10.63,0,0,0-7.13,2.95,21.14,21.14,0,0,0-3.16,4.22c0-1.93,0-3.87,0-5.8,0-.52-.1-.75-.68-.75-2,0-4,0-6,0-.51,0-.67.16-.66.66,0,1.68,0,3.36,0,5,0,8.42,0,16.85,0,25.27,0,.75.19,1,.94.94,1.83-.06,3.66-.05,5.49,0,.72,0,1-.15,1-.93-.06-1.16,0-2.34,0-3.5.08-3.6-.27-7.2.21-10.78.74-5.44,4.23-9.47,10.29-9.48.62,0,.8-.24.8-.77,0-2,0-4.08,0-6.11C330.3,480.16,330,479.89,329.27,479.94Z" transform="translate(-184.18 -279.18)"/><path class="a" d="M269.36,468.35c-1.86,0-3.72.06-5.58,0-.81,0-1,.22-1,1,0,7,0,14,0,21.05s0,14.1,0,21.15c0,.74.19,1,.94.94,1.74-.06,3.48,0,5.22,0,1.14,0,1.14,0,1.14-1.17q0-21.1,0-42.2C270.14,468.47,269.92,468.34,269.36,468.35Z" transform="translate(-184.18 -279.18)"/><path class="a" d="M257.08,496.55c0-5,0-10.08,0-15.12,0-.63-.11-.89-.82-.87-1.92.05-3.84,0-5.76,0-.64,0-.8.2-.8.82q0,15.12,0,30.23c0,.65.14.89.84.87,1.88-.05,3.78-.06,5.66,0,.74,0,.89-.22.89-.91C257.07,506.56,257.08,501.56,257.08,496.55Z" transform="translate(-184.18 -279.18)"/><path class="a" d="M404.5,475c0-1.5,0-2.79,0-4.08,0-.56-.12-.79-.73-.78q-3.33,0-6.65,0c-.55,0-.73.17-.72.72,0,1.8,0,3.6,0,5.39,0,2.16,0,2.2,2.2,2.16.86,0,1,.34.93,1.07-.2,2.41-1.71,3.64-3.84,4.31-1.3.41-1.3.41-1,1.72.47,1.88.47,1.88,2.4,1.53,4.09-.74,6.46-3,7.16-6.88A32.75,32.75,0,0,0,404.5,475Z" transform="translate(-184.18 -279.18)"/><path class="a" d="M256.71,468.74h-6.64c-.51,0-.65.15-.64.68,0,1.88,0,3.77,0,5.65,0,.52.12.69.64.68,1.1,0,2.21,0,3.32,0s2.1,0,3.14,0c.61,0,.86-.14.86-.76,0-1.89,0-3.77,0-5.66C257.39,468.84,257.14,468.74,256.71,468.74Z" transform="translate(-184.18 -279.18)"/><path class="h" d="M304.37,289c-.4-1.4-.85-2.8-1.22-4.21-.12-.47-.21-.79-.77-.53a51,51,0,0,1,2.27,7.34h0A4.22,4.22,0,0,0,304.37,289Z" transform="translate(-184.18 -279.18)"/><path class="i" d="M326.39,291a29.67,29.67,0,0,1,.46,3.5c0,.5,0,1,.07,1.51,0,.15,0,.33.22.3s.11-.18.16-.28a28.74,28.74,0,0,0-.78-6.06h0A1.29,1.29,0,0,0,326.39,291Z" transform="translate(-184.18 -279.18)"/><path class="j" d="M282.41,385.55s0,0,0-.06a10.36,10.36,0,0,1,.3-2.46,3.9,3.9,0,0,0,.12-2.31,32.44,32.44,0,0,0-.61,4.81h0Z" transform="translate(-184.18 -279.18)"/><path class="k" d="M282,389a41.47,41.47,0,0,0,0,4.46h0A14.82,14.82,0,0,0,282,389Z" transform="translate(-184.18 -279.18)"/><path class="l" d="M274.8,287.24c.53-.18.55-.47.42-.9a5.86,5.86,0,0,0-1.58,1.48C274.08,287.71,274.4,287.37,274.8,287.24Z" transform="translate(-184.18 -279.18)"/><path class="m" d="M286.55,411a.43.43,0,0,0,.52.36,12,12,0,0,0,2.24-.37h-2.76Z" transform="translate(-184.18 -279.18)"/><path class="n" d="M299.71,300.43a4,4,0,0,0-.87-1.46C298.45,299.86,299.14,300.11,299.71,300.43Z" transform="translate(-184.18 -279.18)"/><path class="o" d="M364.94,348.33a2.2,2.2,0,0,0,1.22-.75h0C365.54,347.49,365,347.49,364.94,348.33Z" transform="translate(-184.18 -279.18)"/><path class="p" d="M267.14,396.55l1.48.85C268.48,396.5,267.82,396.51,267.14,396.55Z" transform="translate(-184.18 -279.18)"/><path class="q" d="M326.2,316.27a5.26,5.26,0,0,0-1.09,1.07h0C325.92,317.44,326.17,317,326.2,316.27Z" transform="translate(-184.18 -279.18)"/><path class="r" d="M279.22,314.46a4.3,4.3,0,0,0-1.26-.69h0C278.05,314.61,278.67,314.46,279.22,314.46Z" transform="translate(-184.18 -279.18)"/><path class="l" d="M275.92,286.62c0-.32-.08-.63-.11-.93a1.14,1.14,0,0,0-.59.65h0C275.5,286.31,275.59,286.71,275.92,286.62Z" transform="translate(-184.18 -279.18)"/><path class="s" d="M360.77,325.11l-.25.15c-.14.28-.42.38-.66.54a1,1,0,0,1,0,.17h0C360.5,326.08,360.75,325.72,360.77,325.11Z" transform="translate(-184.18 -279.18)"/><path class="t" d="M273.13,388.64a.71.71,0,0,0,.32-.74C273.33,388.14,272.48,388.06,273.13,388.64Z" transform="translate(-184.18 -279.18)"/><path class="u" d="M239.8,345.43a1.9,1.9,0,0,0-.78.68h0C239.64,346.3,239.76,345.92,239.8,345.43Z" transform="translate(-184.18 -279.18)"/><path class="o" d="M364.36,348.65a.52.52,0,0,0,.57-.32h0C364.66,348.29,364.4,348.27,364.36,348.65Z" transform="translate(-184.18 -279.18)"/><path class="v" d="M324.69,373.74c-.11.74.27.44.58.31-.14-.31-.29-.62-.44-.93-.12-.07,0-.32-.26-.32h0A3.46,3.46,0,0,1,324.69,373.74Z" transform="translate(-184.18 -279.18)"/><path class="w" d="M285.7,318.41c-.05-.66-.62-.81-1.08-1.07v.34h0l.35.38h0Z" transform="translate(-184.18 -279.18)"/><path class="x" d="M333.05,337.86a2.33,2.33,0,0,0,2.13-1.67h0A17.21,17.21,0,0,0,333.05,337.86Z" transform="translate(-184.18 -279.18)"/><path class="y" d="M320.42,362.74a4.61,4.61,0,0,0,0-1.05c-.09-.49-.1-1.09-.82-1.15h0A10.23,10.23,0,0,0,320.42,362.74Z" transform="translate(-184.18 -279.18)"/><path class="z" d="M326.2,373.86h0l.55.35.19.07h0l0-.09h0c-.25-.8-.92-.95-1.62-1h0Z" transform="translate(-184.18 -279.18)"/><path class="aa" d="M331.05,356h0l-2.86,0A4.17,4.17,0,0,0,331.05,356Z" transform="translate(-184.18 -279.18)"/></svg>