<svg xmlns="http://www.w3.org/2000/svg" viewBox="0 0 213.78 80.42"><defs><style>.a{fill:#005a9b;}.b{fill:#035c9d;}.c{fill:#045c9d;}.d{fill:#085f9f;}.e{fill:#052f5f;}.f{fill:#065e9e;}.g{fill:#073160;}.h{fill:#093261;}.i{fill:#0e3664;}.j{fill:#1266a3;}.k{fill:#1065a3;}.l{fill:#083261;}.m{fill:#1a416d;}.n{fill:#09609f;}.o{fill:#264d7a;}.p{fill:#0b609f;}.q{fill:#2e78ad;}.r{fill:#6782a1;}.s{fill:#6c86a4;}</style></defs><title>stahl_vision</title><path class="a" d="M327.2,376.91c-11.4-3.42-23-5.7-34.91-5.26-12.21.45-23.72,3.09-33.3,11.35l1,1c5.15-2.08,10-4.94,15.9-5.65-7.76,9.66-7.77,19-.22,25.35a16.27,16.27,0,0,0,22.51-1.74c6.17-7.06,5.06-16.84-3.27-24.2,11.72,1.49,21,6.83,30,13.72,1.44-3.61,2.65-7,4.15-10.31C330.16,378.79,329.9,377.72,327.2,376.91Z" transform="translate(-184.95 -371.59)"/><path class="b" d="M310.45,420.21c-2.7,6.6-5.76,13.05-9,20.2-3.19-7.11-6.24-13.55-9-20.12-1.3-3.12-2.9-4.53-6.46-2.8,5.06,11.24,10.05,22.34,15.52,34.52,5.42-12.23,10.31-23.28,15.35-34.67C313.33,415.93,311.7,417.18,310.45,420.21Z" transform="translate(-184.95 -371.59)"/><path class="c" d="M364.13,428.23c-7.14,0-12.48,4.76-12.57,11.31S356.65,451,363.86,451s12.57-4.68,12.58-11.2S371.23,428.28,364.13,428.23ZM363.84,447c-4.43-.08-7.77-3.33-7.68-7.48a7.49,7.49,0,0,1,7.9-7.26c4.3.12,7.81,3.54,7.76,7.54A7.55,7.55,0,0,1,363.84,447Z" transform="translate(-184.95 -371.59)"/><path class="d" d="M398.24,434.45c-.91-4.79-4.25-7.25-9-6.45-2.62.44-4.92,2.28-7.9.39-1.55-1-2.51.68-2.45,2.52.08,2.83,0,5.66,0,8.49s0,5.67,0,8.5c0,1.7.24,2.88,2.4,2.82s2.36-1.34,2.34-3c0-3.33.14-6.67,0-10-.22-4,1.77-6,5.53-6.08,4.12-.11,4.74,2.85,4.74,6.13,0,3.5,0,7,0,10.49,0,1.59.46,2.47,2.27,2.43s2.53-.63,2.48-2.31C398.5,443.74,399.13,439.06,398.24,434.45Z" transform="translate(-184.95 -371.59)"/><path class="e" d="M205.47,417.9c-.67,0-1.33,0-2-.06-7.45-.18-12,2-13.37,6.33-1.46,4.69.18,7.25,7.52,11.8,2.72,1.68,5.63,3.31,5.33,7.13-.29,3.54-3,4.9-5.92,6,.84,1.17,2.19.72,3.3,1h0c4.26-.63,6.94-3,7.74-7.26s-1.23-7.37-4.78-9.58c-2.11-1.31-4.31-2.5-6.36-3.91a4.83,4.83,0,0,1-2.34-5.12,5.16,5.16,0,0,1,4.42-4.21c4.56-.82,8.93-.82,10.65,5.26C211.85,418.64,211.62,418.29,205.47,417.9Z" transform="translate(-184.95 -371.59)"/><path class="f" d="M337.81,439.26c-1.75-1.23-3.7-2.19-5.51-3.35-1-.64-1.87-1.52-1.38-2.87s1.83-1.42,2.93-1.22c1.94.35,3.83,1,6,1.55,0-4.41-2.71-6.1-8.16-5.42-2.65.32-4.88,1.4-5.66,4.12a5.66,5.66,0,0,0,2.39,6.55c1.62,1.15,3.35,2.13,5.05,3.17,1.4.86,3.34,1.6,2.59,3.65s-3,1.76-4.74,1.49c-1-.14-1.85-.74-2.81-.95s-2-2-2.87-.26a2.75,2.75,0,0,0,1.14,3.88,13.75,13.75,0,0,0,7.73,1.37c3-.3,5.53-1.43,6.49-4.53S340.25,441,337.81,439.26Z" transform="translate(-184.95 -371.59)"/><path class="g" d="M255.07,417.14,254,419c1.64,1.37.8,3,.46,4.56-1.72,7.9-3.5,15.78-5.18,23.69-.23,1.12-1.25,2.76.63,3.38s2.85-.48,3.54-2.35c1.24-3.39,2.85-6.65,4.31-10a3.66,3.66,0,0,1-1.17,0,4.92,4.92,0,0,1-1.52.63c.63-2.12.48-4.31,1.73-6.15.74-3.68,1.19-7.46,2.29-11C260.39,417.57,259.41,416.05,255.07,417.14Z" transform="translate(-184.95 -371.59)"/><path class="g" d="M280.07,417.14c-.35.6-.69,1.21-1,1.82,1.77,1.3.92,3,.6,4.54-1.06,5-2.25,10-3.34,15-.71,3.23-1.38,6.47-2,9.73a2.27,2.27,0,0,0,1.13,2.54c1.36.73,2.56.06,3.69-.69,1-.66,1.14-1.18.22-2.27-1.21-1.42-.23-3.17.11-4.74,1.51-7.12,2.77-14.32,4.75-21.31C285.5,417.25,284.25,416.19,280.07,417.14Z" transform="translate(-184.95 -371.59)"/><path class="h" d="M221.58,420.89c-1.34,2-2.44,3.72-3.68,5.37-1.4,1.86-4.28,1.15-6,3,4.15,1,4.15,1,3.31,4.94-1,4.52-1.95,9.05-2.91,13.57a2.49,2.49,0,0,0,1.19,3c1.32.69,2.54.13,3.73-.56,1.65-.94.72-1.58,0-2.6-1-1.33-.07-2.87.21-4.28.86-4.37,1.83-8.73,2.76-13.09L221,428C220.57,425.68,222.56,423.62,221.58,420.89Z" transform="translate(-184.95 -371.59)"/><path class="i" d="M239.88,428.61a3.06,3.06,0,0,1-.89-.37l-.12,1.13c3,3.78.71,7.34-.34,11-.64,2.28-3.34,3.77-2.47,6.59,1.84.38.84,2.26,1.7,3.22,1.14,1.27,2.33,1,3.55.41.82-.42,2.25-.94,1.65-2.06-2.54-4.7.69-8.8,1.31-13.11C245.19,429,245.53,429,239.88,428.61Z" transform="translate(-184.95 -371.59)"/><path class="j" d="M348.91,439.67c0-3,0-6,0-8.95,0-1.57-.43-2.45-2.22-2.5-2-.06-2.64.74-2.63,2.62.06,5.8,0,11.6,0,17.39,0,1.56.43,2.47,2.23,2.52s2.67-.75,2.62-2.64C348.85,445.3,348.91,442.48,348.91,439.67Z" transform="translate(-184.95 -371.59)"/><path class="k" d="M320.3,428.22c-2.1-.09-2.48,1-2.45,2.75.06,2.81,0,5.62,0,8.44,0,3,0,6,0,8.93,0,1.61.53,2.44,2.3,2.4,1.59,0,2.53-.53,2.53-2.24q0-8.94,0-17.88C322.7,429,322,428.3,320.3,428.22Z" transform="translate(-184.95 -371.59)"/><path class="l" d="M229.05,446.61c-2-5.69,3.91-16.05,9.82-17.24l.12-1.13a13.6,13.6,0,0,0-3.4-.26c-6.25,1.07-13.43,14.07-11.12,20a4.3,4.3,0,0,0,4.05,3.12c2.39.07,4.68-.19,5.44-3.07C232.11,448.31,230.06,449.55,229.05,446.61Z" transform="translate(-184.95 -371.59)"/><path class="h" d="M269.44,434.2c.49-2.07,1.61-4.51-.82-5.85s-4.77-.21-6.87,2.38c4.64-.46,4.07,2,3.27,4.76-1,3.67-1.93,7.39-2.77,11.12-.32,1.42-.78,3.09.76,4.11s2.89,0,4.11-.81c1-.7,2.29-1.25,2.92-3.28-3.07,2.07-4.18,1.61-3.2-1.77S268.59,437.76,269.44,434.2Z" transform="translate(-184.95 -371.59)"/><path class="m" d="M197,449.11c-4.64.23-9.2.3-10.92-6.08-2.05,7.28-1.88,7.63,4.51,8,3.25.18,6.6.78,9.71-.87h0C199.22,449.83,197.87,450.28,197,449.11Z" transform="translate(-184.95 -371.59)"/><path class="n" d="M347,419a2.37,2.37,0,0,0-3,2.39,2.55,2.55,0,0,0,5.09.38A2.26,2.26,0,0,0,347,419Z" transform="translate(-184.95 -371.59)"/><path class="o" d="M221,428l-.89,2.3c2.25-.85,5,.71,7.92-1.91Z" transform="translate(-184.95 -371.59)"/><path class="p" d="M322.07,419.9c-2.64-1.81-4.26-1-5,2l1.94-.06C319.74,420.71,321.53,421.31,322.07,419.9Z" transform="translate(-184.95 -371.59)"/><path class="q" d="M256.16,386a4.61,4.61,0,0,0,3.83-2l-1-1A4,4,0,0,0,256.16,386Z" transform="translate(-184.95 -371.59)"/><path class="r" d="M251.62,417.66c-.46,1.59,1.35,1.23,2.39,1.33l1.06-1.85C253.82,416.93,252,416.42,251.62,417.66Z" transform="translate(-184.95 -371.59)"/><path class="s" d="M276.66,417.66c-.44,1.56,1.33,1.24,2.37,1.3.35-.61.69-1.22,1-1.82C278.84,416.93,277,416.41,276.66,417.66Z" transform="translate(-184.95 -371.59)"/><path class="q" d="M322.07,419.9c-.54,1.41-2.33.81-3.07,1.9l4,.1C323,421.1,323.08,420.25,322.07,419.9Z" transform="translate(-184.95 -371.59)"/></svg>