<svg xmlns="http://www.w3.org/2000/svg" viewBox="0 0 199.73 96"><defs><style>.a{fill:#fcb839;}.b{fill:#ea9e24;}.c{fill:#fff;}</style></defs><title>golden_oak_g</title><path class="a" d="M205.89,366.6s3.7-1,1.44-5.14a11.75,11.75,0,0,1,3.51-.13l2.95.44.5-2.13a20.09,20.09,0,0,0,6.89,2.25c3.45.32,5,.94,6-.18s1.44-2.64.75-5.27a3.11,3.11,0,0,0,1.38-1.44,4.74,4.74,0,0,0,.32-2.13L234,355l1.19-1.07a38,38,0,0,1,4.33,5.27,17.62,17.62,0,0,0,5.32,5.77c1.88,1.06,5.58,2.57,8.15,2.19s3.45-.75,3.2-3-3.2-4.38-4.32-5.83a10.53,10.53,0,0,1-1.57-2.69l2.63-.06.44-7.15,8,4.14,1.76-1.76a13.92,13.92,0,0,1,4.39,4,26.77,26.77,0,0,1,2.13,2.95c.44.88,1.69,4.51,4.07,4.7s3.7.32,4-2.51a5.85,5.85,0,0,0-1.06-4.38s2.07.69,2.19-3.14a16.41,16.41,0,0,1,2.88,2.63l.69-.06A10.85,10.85,0,0,1,283.8,358c.19,1.13.19,6.08.38,8.21s2.69,5.2,5.33,5.08,4-3.26,4-4.2a13.37,13.37,0,0,0-.25-2.51l1.5.12,1.63-5,4.14,4.76,1.63-.75s2.44,5,4.51,6.33,2.82,1.57,4.07,1.07a2.65,2.65,0,0,0,1.45-2.82,13.8,13.8,0,0,1,3.07,2.38,21.87,21.87,0,0,0,2.88,3.57,7.33,7.33,0,0,0,3,.88c1.06.19,1,.5.94.69s-16.8,3.32-23.26,3.45c-.45,0-34.22,3.13-65.06-6.46-12.37-3.85-16.05-5.45-16.05-5.45l-.06.31s11.71,5.12,17.11,6.58a185.34,185.34,0,0,0,70.39,5.64c1.13-.13,38.11-7,38.11-7a2,2,0,0,1,1.63-.87c1.2-.07,2,.5,2.14,1.25a3.47,3.47,0,0,1-.07,1.88,5.21,5.21,0,0,1-2.38-.38c-.69-.25-.56-.37-.88-.37s-6.39.88-9.52,1.5c0,0-10,1.44-12,2.2,0,0-2.38.87-3,2.25s-1.69,5.77-4.88,6.77c0,0-.88-3.13-3.33-2.94a6.28,6.28,0,0,0-4.95,3.69,24.86,24.86,0,0,0-1.13,3.26h-.13a6.16,6.16,0,0,0-3.63.94,13.67,13.67,0,0,0-2.38,3s-1.88-2.25-3-2.13a2.44,2.44,0,0,0-1.5.63s-1-.25-.82-2.63.75-2.57.75-2.57a2.1,2.1,0,0,0-1.75-1.07c-1.19,0-3.32,1.38-4.08,3.57a36.49,36.49,0,0,0-1.19,4.71s.07,4.26-2.19,4.32-2.82-4.58-5.83-4.64-4.64,3.51-6.64,5.46a13,13,0,0,1-6.15,3.57,4.48,4.48,0,0,0-4.13-2.89s-3.89.19-5.27.95-3.76,1.69-3.76,1.69a11.63,11.63,0,0,0,1.06-4.83c0-2.76-1.75-3.26-2.38-3.13s7.65-4.83,5.21-7.46-12.54,2.13-13.92,3.07-8.46,4.95-9.28,5.83c0,0-.19-3.7-2.82-4.7s-6.58-.19-10.47,2c0,0-3.32-3.51-6.45-2.25,0,0,5.26-2.82,2.69-4.83,0,0,11.22-1.13,10.28-6.21-.73-4-6.7-3.44-7.83-3.44s-8.48.23-9.22-1.19c-1-1.95,6-3.83,5.33-6.15-.89-3-4.89-.25-7.83-2.13s-1.82-2.07-1.82-2.07" transform="translate(-205.55 -348.48)"/><rect class="a" x="0.63" y="79.67" width="199.1" height="16.34"/><path class="a" d="M230.08,419.24v-4.68a2.21,2.21,0,0,0-.54-1.73,4.12,4.12,0,0,0-2.18-.58c-.53-.06-.81-.23-.82-.54s.22-.38.7-.38l.82,0,1.53,0c2.11,0,3.33,0,3.67,0,.94-.08,1.49-.11,1.64-.11.32,0,.47.13.47.39s-.2.4-.61.51a2,2,0,0,0-1.56,2.3l0,.66v6.67l0,.67-.12.31a1.29,1.29,0,0,1-.59.17,5.41,5.41,0,0,0-1.7.75l-1.34.81a16.64,16.64,0,0,1-8.56,2.35,13.48,13.48,0,0,1-10-4A14,14,0,0,1,207,412.55a15.22,15.22,0,0,1,4.16-10.92,13.74,13.74,0,0,1,10.4-4.37,20.31,20.31,0,0,1,5.11.71,14.93,14.93,0,0,1,4.32,1.76.79.79,0,0,0,.34.17.78.78,0,0,0,.39-.17l.49-.37a.44.44,0,0,1,.29-.12c.24,0,.36.32.36,1a10.77,10.77,0,0,0,.13,1.41l.2,2a15,15,0,0,0,.29,1.58,2.84,2.84,0,0,1,.1.6c0,.33-.14.51-.41.52s-.33-.1-.45-.35a13.6,13.6,0,0,0-11.91-7.47,9.28,9.28,0,0,0-7.54,3.58,14.12,14.12,0,0,0-2.92,9.22,15.48,15.48,0,0,0,3.36,10.16A10.39,10.39,0,0,0,222,425.5a8.91,8.91,0,0,0,7.41-3.41A4.78,4.78,0,0,0,230.08,419.24Z" transform="translate(-205.55 -348.48)"/><path class="a" d="M246.77,404.37a10.67,10.67,0,0,1,7.77,3,10.25,10.25,0,0,1,3,7.63,11.16,11.16,0,0,1-3,8.08,10.41,10.41,0,0,1-7.83,3.16,10.37,10.37,0,0,1-10.93-10.93,11.73,11.73,0,0,1,.8-4.21,9.56,9.56,0,0,1,5.74-5.84A11.93,11.93,0,0,1,246.77,404.37Zm-1,1a7,7,0,0,0-5.58,2.4,9.63,9.63,0,0,0-2.06,6.49,12,12,0,0,0,2.64,7.86,8.12,8.12,0,0,0,6.49,3.2,7.39,7.39,0,0,0,5.8-2.61,9.68,9.68,0,0,0,2.28-6.61,11.1,11.1,0,0,0-2.74-7.67A8.78,8.78,0,0,0,245.78,405.38Z" transform="translate(-205.55 -348.48)"/><path class="a" d="M262.06,421.66v.54a3.91,3.91,0,0,0,.35,2.19,4.33,4.33,0,0,0,2.27.33,15.72,15.72,0,0,0,4.92-.68,4.32,4.32,0,0,0,2.66-1.81c.15-.27.29-.41.43-.41s.24.1.23.3a4.14,4.14,0,0,1-1,2.22,5,5,0,0,1-4.23,1.67c-.32,0-.69,0-1.12,0l-1.64-.12c-1-.07-2-.11-3-.11a22.67,22.67,0,0,0-3.13.18c-.35.05-.63.08-.85.09s-.37-.08-.37-.27.13-.28.41-.36a2.37,2.37,0,0,0,1.41-.95,4.49,4.49,0,0,0,.36-2.1l0-.71V407.85c0-1.36-.55-2.16-1.63-2.38l-.68-.14q-.36-.07-.36-.3c0-.24.17-.35.51-.35s.55,0,.95.06q1,.09,2.31.09c.92,0,1.76,0,2.51-.08l.65,0c.24,0,.36.08.36.23s-.14.37-.43.44l-.53.12c-.91.23-1.36,1.15-1.36,2.76Z" transform="translate(-205.55 -348.48)"/><path class="a" d="M276.64,408.47a4,4,0,0,0-.52-2.28,2.28,2.28,0,0,0-1.7-.85c-.34,0-.5-.13-.5-.31s.13-.31.39-.31l1.2.07h1.05c1,0,1.82,0,2.38-.07l1.41-.14c.6,0,1.27-.07,2-.07q6.21,0,9.31,3.17a10.12,10.12,0,0,1,2.83,7.4,11.53,11.53,0,0,1-1.24,5.34,9.69,9.69,0,0,1-3.45,3.83,11.09,11.09,0,0,1-6.08,1.77c-.26,0-.73,0-1.39-.08-1.35-.1-2.53-.15-3.53-.15A20.76,20.76,0,0,0,276,426c-.36,0-.65.08-.86.09s-.53-.1-.53-.35.14-.29.42-.35a1.86,1.86,0,0,0,1.33-.77,5.51,5.51,0,0,0,.3-2.26Zm2.31-1.22v15.84a1.28,1.28,0,0,0,.92,1.29,14.25,14.25,0,0,0,4.16.77,8.5,8.5,0,0,0,4.66-1.32q3.51-2.2,3.51-7.53a12.74,12.74,0,0,0-1.1-5.31,9.25,9.25,0,0,0-3-3.81,9.4,9.4,0,0,0-5.7-1.71,5.6,5.6,0,0,0-3,.52A1.58,1.58,0,0,0,279,407.25Z" transform="translate(-205.55 -348.48)"/><path class="a" d="M298.94,407.2v6.19a1.59,1.59,0,0,0,.13.86c.09.1.34.15.78.15h2.33a12.72,12.72,0,0,0,2.51-.19,2,2,0,0,0,1.06-.44,3.21,3.21,0,0,0,.44-1.29c.05-.26.18-.38.38-.37s.29.15.29.42a2.33,2.33,0,0,1,0,.33c-.09,1-.13,1.9-.13,2.72q0,.94.09,1.86,0,.31,0,.45c0,.26-.1.38-.29.38a.36.36,0,0,1-.38-.33l-.09-.44a2,2,0,0,0-.73-1.4,3.45,3.45,0,0,0-1.84-.37h-3.34a2,2,0,0,0-1,.16.67.67,0,0,0-.25.61l0,.51v5.68c0,.87.15,1.41.46,1.63a5,5,0,0,0,2.33.32c4,0,6.5-.9,7.63-2.72.12-.17.23-.27.35-.28s.28.12.28.4a4.8,4.8,0,0,1-4.46,4c-.3,0-.69,0-1.18-.06-1.93-.18-3.52-.27-4.78-.27a26.2,26.2,0,0,0-3.73.18,5.74,5.74,0,0,1-.79.11c-.32,0-.48-.11-.48-.34s.13-.29.39-.36l.57-.17q1.08-.32,1.08-2.16l0-1V409a6.13,6.13,0,0,0-.48-3,2,2,0,0,0-1.85-.77c-.29,0-.44-.09-.44-.28s.23-.43.68-.43a9.12,9.12,0,0,1,1,.07,45.31,45.31,0,0,0,5.2.25c1.23,0,2.32,0,3.26-.06l2.15-.11c.59,0,1,0,1.09-.06a4.54,4.54,0,0,1,.6-.06c.34,0,.5.15.5.45a1.77,1.77,0,0,1,0,.35,9.74,9.74,0,0,0-.13,1.22l-.06.91a5.3,5.3,0,0,1-.16,1.11.34.34,0,0,1-.33.23c-.2,0-.29-.14-.29-.46V408a2.5,2.5,0,0,0-.18-.94,1.61,1.61,0,0,0-1.17-.92,15,15,0,0,0-3.21-.23h-2.37a2,2,0,0,0-1.21.24A1.45,1.45,0,0,0,298.94,407.2Z" transform="translate(-205.55 -348.48)"/><path class="a" d="M328.45,410.69v12.89a16,16,0,0,1-.08,2.12.38.38,0,0,1-.42.36.53.53,0,0,1-.35-.14l-.33-.4-12.76-14.83-.15-.17a.31.31,0,0,0-.22-.09c-.19,0-.28.23-.28.69v10.45l0,.64.05,1.1a2.24,2.24,0,0,0,.51,1.4,3.12,3.12,0,0,0,1.61.57c.34,0,.5.17.5.39a.27.27,0,0,1-.31.31l-.46,0c-.11,0-.55-.06-1.31-.1l-1.54-.08-.73,0a9.9,9.9,0,0,0-1.12.07,4.26,4.26,0,0,1-.56.06c-.26,0-.4-.1-.42-.29s.13-.28.42-.38a3,3,0,0,0,1.71-1.19,4.87,4.87,0,0,0,.45-2.41V411.19a8.9,8.9,0,0,0-.83-4.19,3.12,3.12,0,0,0-2.4-1.75c-.28,0-.41-.16-.41-.35s.11-.29.33-.29l.24,0h.62l1,0,.24,0,.56,0a1,1,0,0,1,.76.45l13.91,16c.23.26.37.38.43.37s.15-.11.16-.29v-7.61l0-2.08L327.1,408a2.87,2.87,0,0,0-.75-1.85,4.45,4.45,0,0,0-2.16-.81c-.3-.05-.44-.18-.44-.38s.14-.29.44-.29c.13,0,.34,0,.63.05a26.29,26.29,0,0,0,2.81.11,10,10,0,0,0,1.5-.09,3.69,3.69,0,0,1,.74-.1q.39,0,.42.33c0,.13-.09.23-.3.29a1.79,1.79,0,0,0-1.21.77,4.62,4.62,0,0,0-.3,2v1.66Z" transform="translate(-205.55 -348.48)"/><path class="a" d="M351.17,397.54a14.11,14.11,0,0,1,10.36,4,13.84,13.84,0,0,1,4,10.26,15.1,15.1,0,0,1-4.07,10.88,13.81,13.81,0,0,1-10.43,4.25,14.15,14.15,0,0,1-10.53-4.06,14.46,14.46,0,0,1-4-10.65,16.08,16.08,0,0,1,1.06-5.67,13.93,13.93,0,0,1,2.85-4.69,13.53,13.53,0,0,1,4.8-3.16A15.81,15.81,0,0,1,351.17,397.54Zm-1.31,1.35a9.25,9.25,0,0,0-7.43,3.24c-1.84,2.16-2.75,5.07-2.75,8.73a16.16,16.16,0,0,0,3.52,10.58,10.74,10.74,0,0,0,8.64,4.3,9.79,9.79,0,0,0,7.73-3.51,13.05,13.05,0,0,0,3-8.89A15,15,0,0,0,359,403,11.63,11.63,0,0,0,349.86,398.89Z" transform="translate(-205.55 -348.48)"/><path class="a" d="M374.88,417.77H369.4A3.15,3.15,0,0,0,368,418a3.45,3.45,0,0,0-.73,1.24l-1,2.27a6.72,6.72,0,0,0-.66,2.31,1.36,1.36,0,0,0,.35,1.05,3.26,3.26,0,0,0,1.4.56c.3.06.45.18.46.36s-.13.25-.42.25h-.51l-1.45-.09c-.49,0-1,0-1.68,0l-.68,0-.85.09c-.27,0-.41-.09-.41-.28a.34.34,0,0,1,.26-.34l.56-.17a2.16,2.16,0,0,0,.82-.74,7.06,7.06,0,0,0,.85-1.37l.44-1,7.78-17.58c.13-.31.27-.46.44-.46s.29.15.4.45l6.51,17,.34.83a7.14,7.14,0,0,0,1.18,2.32,3.86,3.86,0,0,0,1.91.72c.31.06.46.19.45.38s-.15.26-.42.26c-.09,0-.29,0-.58,0-.53-.05-1.46-.08-2.81-.08a19.46,19.46,0,0,0-2.64.1,2.7,2.7,0,0,1-.47.06c-.26,0-.39-.1-.39-.32s.13-.26.38-.31l.47-.11a.92.92,0,0,0,.76-1.05,12.12,12.12,0,0,0-.92-3.25l-.75-2a2.72,2.72,0,0,0-.5-1A2.29,2.29,0,0,0,374.88,417.77Zm.18-2.48-2.38-6.1-.12-.32q-.18-.5-.39-.51c-.07,0-.15.09-.24.29L369,415.32a1.7,1.7,0,0,0-.2.57c0,.27.23.4.69.4h5c.51,0,.76-.12.76-.38a1.08,1.08,0,0,0-.08-.35Z" transform="translate(-205.55 -348.48)"/><path class="a" d="M388.38,416.59v5.63a4,4,0,0,0,.47,2.34,3.67,3.67,0,0,0,2.15.85c.3,0,.45.16.46.32s-.11.31-.37.3l-.81-.07c-.33,0-.93,0-1.8,0l-1.21,0-1.07,0c-.43,0-.7,0-.84,0l-.9.08c-.34,0-.5-.12-.5-.37s.14-.25.44-.28a1.51,1.51,0,0,0,1.3-.92,7.32,7.32,0,0,0,.37-2.74V408.61a5.34,5.34,0,0,0-.35-2.3,1.87,1.87,0,0,0-1.33-.88l-.74-.15c-.26-.06-.4-.17-.4-.32s.14-.32.41-.32a3.05,3.05,0,0,1,.55.06,20.07,20.07,0,0,0,2.42.1h.55l1.14,0h.78l.73-.06c.24,0,.36.08.36.28s-.12.27-.36.37a2.26,2.26,0,0,0-1.2.94,5.71,5.71,0,0,0-.25,2.1v6c0,.21,0,.32.14.32l.24-.17.23-.18,6.5-5.91c1-.9,1.5-1.62,1.5-2.17s-.37-.77-1.09-.9c-.46-.07-.69-.2-.69-.4s.15-.32.47-.32l.41,0c.42,0,.9.05,1.42.05l1.4,0H400a11.24,11.24,0,0,0,1.26,0,3.41,3.41,0,0,1,.47-.06c.27,0,.42.11.44.31s-.23.3-.73.43c-.91.23-2.65,1.53-5.23,3.88L391.07,414a.94.94,0,0,0-.35.49c0,.15.11.37.37.65l7.9,8.38a5.28,5.28,0,0,0,2.74,1.65l.66.14c.23.05.35.15.35.3s-.16.37-.47.35l-.36,0a10.77,10.77,0,0,0-1.3-.05c-.61,0-1,0-1.32,0l-.69,0a1.16,1.16,0,0,1-.89-.42l-.26-.29-8.13-8.51-.3-.34a.55.55,0,0,0-.37-.17Q388.38,416.23,388.38,416.59Z" transform="translate(-205.55 -348.48)"/><polygon class="b" points="199.73 95.89 197.77 94.44 197.74 81.56 2.97 81.56 0.63 79.67 199.73 79.67 199.73 95.89"/><path class="c" d="M215.06,438.64c0,.61.08,1,.24,1a1.47,1.47,0,0,0,.52.06,3,3,0,0,0,2.54-1c.16-.2.25-.3.29-.3s.1.07.1.2a1.67,1.67,0,0,1-.44,1.13,1.34,1.34,0,0,1-1.05.43c-.1,0-.26,0-.51,0l-.63,0-.58,0-.66,0a12.93,12.93,0,0,0-1.33.08,1.94,1.94,0,0,1-.29,0c-.1,0-.15,0-.15-.13s0-.1.14-.12a.72.72,0,0,0,.47-.35,2,2,0,0,0,.13-.83v-4.12a.79.79,0,0,0-.71-.9l-.31-.05c-.14,0-.2-.07-.2-.15a.13.13,0,0,1,.15-.15l.16,0,.2,0h.23l.48,0q.26,0,.81-.06a7.94,7.94,0,0,1,.85,0c.21,0,.32.05.32.14s-.08.13-.23.13q-.54,0-.54.69Z" transform="translate(-205.55 -348.48)"/><path class="c" d="M243.93,434.56v1.08a1.4,1.4,0,0,0,.07.58c.05.08.16.12.35.12h.84a.87.87,0,0,0,.8-.54l.13-.24a.16.16,0,0,1,.15-.09c.08,0,.12,0,.12.13s0,.1,0,.22a1.77,1.77,0,0,0,0,.22c0,.1,0,.35,0,.74s0,.48,0,.66v.26a.2.2,0,0,1,0,.09.19.19,0,0,1-.09,0c-.08,0-.14-.06-.16-.19a1,1,0,0,0-.32-.64.63.63,0,0,0-.33-.15,4.16,4.16,0,0,0-.75,0h-.36a.64.64,0,0,0-.34.07.46.46,0,0,0-.13.29,7.42,7.42,0,0,0,0,.79v.44a3,3,0,0,0,.12,1,.51.51,0,0,0,.58.39c1.43,0,2.37-.41,2.81-1.23q0-.06.06-.06a.1.1,0,0,1,.1,0,.14.14,0,0,1,.05.11,1.86,1.86,0,0,1-.28.94,1.38,1.38,0,0,1-.58.55,2.24,2.24,0,0,1-.93.17c-.22,0-.48,0-.75,0l-.61-.06c-.23,0-.53,0-.92,0s-.65,0-1.17,0h-.31c-.09,0-.13,0-.14-.11s0-.1.12-.13a1.23,1.23,0,0,0,.41-.23,1.11,1.11,0,0,0,.17-.44,3.39,3.39,0,0,0,.05-.71v-3.92a1.08,1.08,0,0,0-.19-.75,1.33,1.33,0,0,0-.8-.28.13.13,0,0,1-.14-.15c0-.07,0-.11.17-.11h.42l.53,0,2,0c1.16,0,1.87,0,2.13-.05h.08c.1,0,.15.05.15.16s0,.21,0,.41,0,.49,0,.62-.07.38-.21.38-.1-.07-.1-.22a.77.77,0,0,0-.38-.71,2.71,2.71,0,0,0-1.24-.22h-.65l-.35,0c-.18.05-.27.22-.27.5Z" transform="translate(-205.55 -348.48)"/><path class="c" d="M273.89,434.53l2.79,2.93.18.19c.24.25.4.38.48.38s.12-.1.12-.3c0-.73.05-1.43.05-2.09a3.3,3.3,0,0,0-.25-1.57,1.15,1.15,0,0,0-1-.46c-.12,0-.17-.05-.17-.12s0-.13.15-.13.33,0,.62.05l.45,0a11.58,11.58,0,0,0,1.17-.09h.15c.11,0,.17.05.17.14s-.06.13-.17.15c-.46.08-.68.46-.68,1.13V435l-.08,3.09,0,.42v.93l0,.62c0,.09,0,.14-.11.13a.29.29,0,0,1-.19-.11l-4.81-5c-.08-.09-.14-.13-.17-.13s-.13.07-.13.22v2.06a8.13,8.13,0,0,0,.17,2.06c.11.37.46.58,1,.63.11,0,.16.05.16.13s-.06.15-.17.15l-.2,0a6.07,6.07,0,0,0-1-.07,5.42,5.42,0,0,0-.95.07l-.27,0q-.15,0-.15-.12c0-.07.06-.12.16-.14a.88.88,0,0,0,.56-.43,1.94,1.94,0,0,0,.18-.93l0-1.18v-2.14c0-1-.4-1.55-1.2-1.6-.11,0-.17-.05-.17-.13s.06-.13.18-.13h.59c.28,0,.57,0,.89,0l.29,0a.44.44,0,0,1,.25.07,3.63,3.63,0,0,1,.41.41l.36.4Z" transform="translate(-205.55 -348.48)"/><path class="c" d="M303.33,434.72a.94.94,0,0,0-.28-.73,1.14,1.14,0,0,0-.79-.25c-.11,0-.17-.05-.17-.13a.11.11,0,0,1,.07-.12,1,1,0,0,1,.3,0h1.3c.22,0,.52,0,.91-.07s.94-.06,1.24-.06a4.51,4.51,0,0,1,2.88.85,2.79,2.79,0,0,1,1.08,2.29,3.51,3.51,0,0,1-1.45,2.93,4,4,0,0,1-2.41.79c-.15,0-.45,0-.89,0l-.79,0a10.59,10.59,0,0,0-1.25.05,2,2,0,0,1-.33,0q-.12,0-.12-.15c0-.06,0-.11.13-.12a.66.66,0,0,0,.45-.25,1.35,1.35,0,0,0,.12-.67Zm1.22-.26v4.34l.06.45c.12.38.55.58,1.3.58a2.5,2.5,0,0,0,1.95-.8,3.06,3.06,0,0,0,.72-2.14,3.19,3.19,0,0,0-.87-2.31,3,3,0,0,0-2.23-.89,1.54,1.54,0,0,0-.77.14C304.6,433.9,304.55,434.11,304.55,434.46Z" transform="translate(-205.55 -348.48)"/><path class="c" d="M335.68,438.65l0,.5a.92.92,0,0,0,.31.58.94.94,0,0,0,.64.2c.18,0,.26.05.26.15s-.11.15-.34.15l-.42,0a10.55,10.55,0,0,0-1.12-.07,5.82,5.82,0,0,0-.83.05l-.38.05a.14.14,0,0,1-.15-.11v0l.15-.11a1,1,0,0,0,.5-.31,1.1,1.1,0,0,0,.13-.62v-4.38a.76.76,0,0,0-.78-.91,1.39,1.39,0,0,1-.35-.08.12.12,0,0,1-.08-.12c0-.1.05-.14.13-.14l.29,0a3.19,3.19,0,0,0,.64,0l.73,0,.38,0c.37,0,.65,0,.84,0s.17,0,.17.12a.29.29,0,0,1,0,.12.27.27,0,0,1-.14.05.72.72,0,0,0-.48.2.92.92,0,0,0-.11.56Z" transform="translate(-205.55 -348.48)"/><path class="c" d="M363,434.54l2.79,2.94.18.19c.24.25.4.38.48.38s.12-.1.12-.31c0-.72,0-1.42,0-2.08a3.3,3.3,0,0,0-.25-1.57,1.15,1.15,0,0,0-1-.46c-.12,0-.17-.05-.17-.12s.05-.13.15-.13.33,0,.62.05l.45,0c.25,0,.63,0,1.17-.09h.15c.11,0,.17.05.17.14s-.06.13-.17.15c-.45.08-.68.46-.68,1.13V435l-.08,3.09,0,.42v.93l0,.62c0,.09,0,.13-.1.13a.29.29,0,0,1-.2-.11l-4.81-5c-.08-.09-.14-.13-.17-.13s-.13.07-.13.22v2.06a8.13,8.13,0,0,0,.17,2.06c.12.37.46.58,1,.63.11,0,.16.05.16.12s-.06.16-.17.16l-.2,0a6,6,0,0,0-1-.08,5.44,5.44,0,0,0-1,.08l-.27,0c-.1,0-.14,0-.14-.12s.05-.12.15-.14a.85.85,0,0,0,.56-.43,2,2,0,0,0,.18-.93l0-1.18V435.3c0-1-.4-1.55-1.2-1.6-.11,0-.17-.05-.17-.13s.06-.14.18-.14l.37,0h.22c.28,0,.57,0,.89,0l.29,0a.44.44,0,0,1,.25.07,2.89,2.89,0,0,1,.41.41l.36.4Z" transform="translate(-205.55 -348.48)"/><path class="c" d="M395.27,433.3a5.6,5.6,0,0,1,2.06.48,1.7,1.7,0,0,0,.39.12.19.19,0,0,0,.13,0l.06-.05a.22.22,0,0,1,.13-.06c.11,0,.16.06.16.18v.35l0,.67,0,.36a1.59,1.59,0,0,0,0,.29v.08c0,.11-.05.16-.16.15s-.13-.07-.15-.2a2.29,2.29,0,0,0-.67-1.16,2.62,2.62,0,0,0-1.93-.8,2.11,2.11,0,0,0-1.73.79,3.24,3.24,0,0,0-.64,2.11,4.15,4.15,0,0,0,.66,2.39,2,2,0,0,0,1.65,1,3,3,0,0,0,.74-.12,2.94,2.94,0,0,0,.68-.26.66.66,0,0,0,.29-.38,2.42,2.42,0,0,0,.08-.76,1.2,1.2,0,0,0-.22-.83,1.33,1.33,0,0,0-.86-.25c-.11,0-.16-.06-.16-.15s.06-.13.19-.13h.18c.35,0,.74,0,1.18,0s.79,0,1,0l.4,0c.12,0,.19,0,.19.13s-.07.13-.19.16a.56.56,0,0,0-.43.3,2.11,2.11,0,0,0-.11.83c0,.13,0,.23,0,.33a2.66,2.66,0,0,1,0,.35.34.34,0,0,1-.06.22.82.82,0,0,1-.27.14l-.84.33a6,6,0,0,1-2.21.51,3.1,3.1,0,0,1-3.24-3.25,3.73,3.73,0,0,1,1.05-2.69A3.47,3.47,0,0,1,395.27,433.3Z" transform="translate(-205.55 -348.48)"/></svg>