<?xml version="1.0" encoding="UTF-8"?>
<svg width="235px" height="200px" viewBox="0 0 235 200" version="1.1" xmlns="http://www.w3.org/2000/svg" xmlns:xlink="http://www.w3.org/1999/xlink">
    <!-- Generator: sketchtool 52.6 (67491) - http://www.bohemiancoding.com/sketch -->
    <title>B0DD59F0-59AB-40AA-A373-2FC32F741F75</title>
    <desc>Created with sketchtool.</desc>
    <g id="Desktop" stroke="none" stroke-width="1" fill="none" fill-rule="evenodd" opacity="0.066007">
        <g id="3.0.Directory-V.2.1." transform="translate(-957.000000, -67.000000)" fill="#5E83A3" fill-rule="nonzero">
            <g id="HEADER" transform="translate(0.000000, 67.000000)">
                <g id="research">
                    <g transform="translate(957.000000, -18.000000)" id="Shape">
                        <path d="M192.949655,164.827586 L199.75069,158.026552 L194.387241,152.663103 L187.586207,159.464138 L180.428621,152.306552 C186.178966,141.955172 189.482759,130.067586 189.482759,117.413793 C189.482759,116.332759 189.368966,115.282069 189.319655,114.212414 C207.143448,110.021034 219.827586,94.2417241 219.827586,75.6896552 L212.241379,75.6896552 C212.241379,90.3386207 202.462759,102.867241 188.58,106.599655 C183.334138,71.9837931 153.467241,45.3448276 117.413793,45.3448276 C116.332759,45.3448276 115.282069,45.4586207 114.212414,45.507931 C110.021034,27.6841379 94.2417241,15 75.6896552,15 L75.6896552,22.5862069 C90.3386207,22.5862069 102.867241,32.3648276 106.599655,46.2475862 C71.9837931,51.4934483 45.3448276,81.3603448 45.3448276,117.413793 C45.3448276,118.494828 45.4586207,119.545517 45.507931,120.615172 C27.6841379,124.806552 15,140.585862 15,159.137931 L22.5862069,159.137931 C22.5862069,144.488966 32.3648276,131.960345 46.2475862,128.227931 C51.4934483,162.843793 81.3603448,189.482759 117.413793,189.482759 C130.067586,189.482759 141.955172,186.178966 152.302759,180.428621 L159.460345,187.586207 L152.65931,194.387241 L158.022759,199.75069 L164.823793,192.949655 L201.051724,229.177586 C204.806897,232.932759 209.802414,235 215.112759,235 C226.078621,235 235,226.078621 235,215.116552 C235,209.806207 232.932759,204.81069 229.177586,201.055517 L192.949655,164.827586 Z M117.413793,52.9310345 C149.768966,52.9310345 176.552069,76.9034483 181.130345,108.006897 L173.654138,109.251034 C169.678966,81.7396552 146.01,60.5172414 117.413793,60.5172414 C117.220345,60.5172414 117.03069,60.5437931 116.837241,60.5475862 L115.585517,53.0258621 C116.2,53.0068966 116.795517,52.9310345 117.413793,52.9310345 Z M117.413793,68.1034483 C144.602759,68.1034483 166.724138,90.2248276 166.724138,117.413793 C166.724138,144.602759 144.602759,166.724138 117.413793,166.724138 C90.2248276,166.724138 68.1034483,144.602759 68.1034483,117.413793 C68.1034483,90.2248276 90.2248276,68.1034483 117.413793,68.1034483 Z M52.9310345,117.413793 C52.9310345,85.0586207 76.9034483,58.2755172 108.006897,53.6972414 L109.251034,61.1734483 C81.7396552,65.1486207 60.5172414,88.8175862 60.5172414,117.413793 C60.5172414,117.607241 60.5437931,117.796897 60.5475862,117.990345 L53.0258621,119.242069 C53.0068966,118.627586 52.9310345,118.032069 52.9310345,117.413793 Z M117.413793,181.896552 C85.0586207,181.896552 58.2755172,157.924138 53.6972414,126.82069 L61.1734483,125.576552 C65.1486207,153.087931 88.8175862,174.310345 117.413793,174.310345 C148.786552,174.310345 174.310345,148.786552 174.310345,117.413793 C174.310345,117.220345 174.283793,117.03069 174.28,116.837241 L181.801724,115.585517 C181.82069,116.2 181.896552,116.795517 181.896552,117.413793 C181.896552,152.970345 152.970345,181.896552 117.413793,181.896552 Z M158.872414,176.267586 C165.616552,171.503448 171.503448,165.616552 176.267586,158.872414 L182.222759,164.827586 L164.827586,182.222759 L158.872414,176.267586 Z M215.116552,227.413793 C211.831724,227.413793 208.740345,226.135517 206.418966,223.814138 L170.191034,187.586207 L187.586207,170.191034 L223.814138,206.418966 C226.135517,208.740345 227.413793,211.831724 227.413793,215.116552 C227.413793,221.898621 221.898621,227.413793 215.116552,227.413793 Z"></path>
                        <path d="M201,68 C219.749111,68 235,52.7491111 235,34 C235,15.2508889 219.749111,0 201,0 C182.250889,0 167,15.2508889 167,34 C167,52.7491111 182.250889,68 201,68 Z M212.333333,57.8566667 C208.891778,59.4962222 205.057333,60.4444444 201,60.4444444 C196.942667,60.4444444 193.108222,59.4962222 189.666667,57.8566667 L189.666667,52.8888889 C189.666667,46.6404444 194.751556,41.5555556 201,41.5555556 C207.248444,41.5555556 212.333333,46.6404444 212.333333,52.8888889 L212.333333,57.8566667 Z M193.444444,26.4444444 C193.444444,22.2775556 196.833111,18.8888889 201,18.8888889 C205.166889,18.8888889 208.555556,22.2775556 208.555556,26.4444444 C208.555556,30.6113333 205.166889,34 201,34 C196.833111,34 193.444444,30.6113333 193.444444,26.4444444 Z M201,7.55555556 C215.578444,7.55555556 227.444444,19.4215556 227.444444,34 C227.444444,41.2042222 224.539333,47.736 219.851111,52.5111111 C219.722667,46.1606667 216.477556,40.5582222 211.555111,37.23 C214.358222,34.4873333 216.111111,30.6717778 216.111111,26.4444444 C216.111111,18.1106667 209.333778,11.3333333 201,11.3333333 C192.666222,11.3333333 185.888889,18.1106667 185.888889,26.4444444 C185.888889,30.6717778 187.641778,34.4873333 190.444889,37.23 C185.518667,40.562 182.273556,46.1606667 182.148889,52.5111111 C177.460667,47.736 174.555556,41.2042222 174.555556,34 C174.555556,19.4215556 186.421556,7.55555556 201,7.55555556 Z"></path>
                        <path d="M34,68 C52.7491111,68 68,52.7491111 68,34 C68,15.2508889 52.7491111,0 34,0 C15.2508889,0 0,15.2508889 0,34 C0,52.7491111 15.2508889,68 34,68 Z M45.3333333,57.8566667 C41.8917778,59.4962222 38.0573333,60.4444444 34,60.4444444 C29.9426667,60.4444444 26.1082222,59.4962222 22.6666667,57.8566667 L22.6666667,52.8888889 C22.6666667,46.6404444 27.7515556,41.5555556 34,41.5555556 C40.2484444,41.5555556 45.3333333,46.6404444 45.3333333,52.8888889 L45.3333333,57.8566667 Z M26.4444444,26.4444444 C26.4444444,22.2775556 29.8331111,18.8888889 34,18.8888889 C38.1668889,18.8888889 41.5555556,22.2775556 41.5555556,26.4444444 C41.5555556,30.6113333 38.1668889,34 34,34 C29.8331111,34 26.4444444,30.6113333 26.4444444,26.4444444 Z M34,7.55555556 C48.5784444,7.55555556 60.4444444,19.4215556 60.4444444,34 C60.4444444,41.2042222 57.5393333,47.736 52.8511111,52.5111111 C52.7226667,46.1606667 49.4775556,40.5582222 44.5551111,37.23 C47.3582222,34.4873333 49.1111111,30.6717778 49.1111111,26.4444444 C49.1111111,18.1106667 42.3337778,11.3333333 34,11.3333333 C25.6662222,11.3333333 18.8888889,18.1106667 18.8888889,26.4444444 C18.8888889,30.6717778 20.6417778,34.4873333 23.4448889,37.23 C18.5224444,40.562 15.2773333,46.1606667 15.1488889,52.5111111 C10.4606667,47.736 7.55555556,41.2042222 7.55555556,34 C7.55555556,19.4215556 19.4215556,7.55555556 34,7.55555556 Z"></path>
                        <path d="M34,167 C15.2508889,167 0,182.250889 0,201 C0,219.749111 15.2508889,235 34,235 C52.7491111,235 68,219.749111 68,201 C68,182.250889 52.7491111,167 34,167 Z M45.3333333,224.856667 C41.8917778,226.496222 38.0573333,227.444444 34,227.444444 C29.9426667,227.444444 26.1082222,226.496222 22.6666667,224.856667 L22.6666667,219.888889 C22.6666667,213.640444 27.7515556,208.555556 34,208.555556 C40.2484444,208.555556 45.3333333,213.640444 45.3333333,219.888889 L45.3333333,224.856667 Z M26.4444444,193.444444 C26.4444444,189.277556 29.8331111,185.888889 34,185.888889 C38.1668889,185.888889 41.5555556,189.277556 41.5555556,193.444444 C41.5555556,197.611333 38.1668889,201 34,201 C29.8331111,201 26.4444444,197.611333 26.4444444,193.444444 Z M52.8511111,219.511111 C52.7226667,213.160667 49.4775556,207.558222 44.5551111,204.23 C47.3582222,201.487333 49.1111111,197.671778 49.1111111,193.444444 C49.1111111,185.110667 42.3337778,178.333333 34,178.333333 C25.6662222,178.333333 18.8888889,185.110667 18.8888889,193.444444 C18.8888889,197.671778 20.6417778,201.487333 23.4448889,204.23 C18.5224444,207.562 15.2773333,213.160667 15.1488889,219.511111 C10.4606667,214.736 7.55555556,208.204222 7.55555556,201 C7.55555556,186.421556 19.4215556,174.555556 34,174.555556 C48.5784444,174.555556 60.4444444,186.421556 60.4444444,201 C60.4444444,208.204222 57.5393333,214.736 52.8511111,219.511111 Z"></path>
                        <path d="M78,109.4 L78,128.4 L78,132.2 L78,136 L160,136 L160,132.2 L160,128.4 L160,94.2 L137.636364,94.2 L137.636364,128.4 L130.181818,128.4 L130.181818,79 L107.818182,79 L107.818182,128.4 L100.363636,128.4 L100.363636,109.4 L78,109.4 Z M145.090909,101.8 L152.545455,101.8 L152.545455,128.4 L145.090909,128.4 L145.090909,101.8 Z M115.272727,86.6 L122.727273,86.6 L122.727273,128.4 L115.272727,128.4 L115.272727,86.6 Z M92.9090909,128.4 L85.4545455,128.4 L85.4545455,117 L92.9090909,117 L92.9090909,128.4 Z"></path>
                    </g>
                </g>
            </g>
        </g>
    </g>
</svg>