<svg xmlns="http://www.w3.org/2000/svg" viewBox="0 0 242.68 97.31"><defs><style>.a,.b,.e,.g{fill:#fff;}.b{font-size:17.36px;letter-spacing:-0.01em;}.b,.g{font-family:Arial-BoldMT, Arial;font-weight:700;}.c{letter-spacing:-0.05em;}.d{letter-spacing:-0.01em;}.e{font-size:13.25px;font-family:ArialMT, Arial;letter-spacing:-0.01em;}.f{letter-spacing:-0.01em;}.g{font-size:16.94px;letter-spacing:-0.01em;}</style></defs><title>rochester_honda_w</title><path class="a" d="M252.25,389.09a14.41,14.41,0,0,0-2,.12c-2.65.35-3.64,1-4.56,2.79a43.45,43.45,0,0,0-2.78,8.93c-2-.07-4-.17-5.69-.28-.65-6.13-2.18-31.67-2.21-40.43,1.06-.07,2.2-.16,3.45-.22.76,4.05,3.29,18.16,5.35,22.6a4.83,4.83,0,0,0,4.47,2.8c2,.13,5.9.13,7.86,0a4.82,4.82,0,0,0,4.47-2.8c2.06-4.44,4.59-18.55,5.35-22.6,1.25.06,2.39.15,3.46.22,0,8.76-1.56,34.3-2.23,40.43-1.69.11-3.64.21-5.67.28a44.79,44.79,0,0,0-2.78-8.93c-.93-1.75-1.92-2.44-4.57-2.79a14.52,14.52,0,0,0-2-.12" transform="translate(-188.45 -353.58)"/><path class="a" d="M252.25,407.56c-5.27,0-17.31-.33-21.27-1.07a10.41,10.41,0,0,1-8.45-7.18c-1.2-3.38-2.07-9.68-2.61-18.7a109.39,109.39,0,0,1,0-15.08c.6-7.4,4-10.35,11.16-11.16,4.78-.53,15.45-.79,21.16-.79s16.38.26,21.15.79c7.15.81,10.57,3.76,11.17,11.16a109.39,109.39,0,0,1,0,15.08c-.53,9-1.41,15.32-2.6,18.7a10.44,10.44,0,0,1-8.46,7.18C269.56,407.23,257.52,407.56,252.25,407.56Zm20.67-4.28a7.93,7.93,0,0,0,6-5c.75-2.14,1.78-7,2.43-17.82a105.85,105.85,0,0,0,0-14.62c-.41-5-2.94-7.56-8.27-8.16-4.65-.53-15.16-.78-20.79-.78s-16.14.25-20.79.78c-5.33.6-7.86,3.14-8.27,8.16a107.45,107.45,0,0,0,0,14.62c.65,10.87,1.68,15.68,2.43,17.82a7.93,7.93,0,0,0,6,5c3.33.62,14.28,1,20.67,1s17.34-.39,20.67-1" transform="translate(-188.45 -353.58)"/><text class="b" transform="translate(0 73.8)">Rochester<tspan class="c" x="83.36" y="0"> </tspan><tspan class="d" x="87.37" y="0">Area</tspan></text><text class="e" transform="translate(158.22 42.42)">Garber Honda<tspan x="0" y="15.9">Ide Honda</tspan><tspan class="f"><tspan x="0" y="31.8">Ralph Honda</tspan></tspan><tspan x="0" y="47.71">Ontario Honda</tspan></text><text class="g" transform="translate(4.67 90.94)">Honda Dealers</text></svg>