<svg xmlns="http://www.w3.org/2000/svg" viewBox="0 0 344.06 118.22"><defs><style>.a{fill:#fff;}</style></defs><title>upmc</title><path class="a" d="M35.61,128.26h4.46v12.19h7.8v3.91H35.61Z" transform="translate(-25.19 -26.46)"/><path class="a" d="M50.84,128.26H55.3v16.1H50.84Z" transform="translate(-25.19 -26.46)"/><path class="a" d="M59.16,128.26H72v3.91H63.62v2.74h7.62v3.7H63.62v5.75H59.16Z" transform="translate(-25.19 -26.46)"/><path class="a" d="M75,128.26H88V132H79.43v2.46h7.72V138H79.43v2.55h8.64v3.8H75Z" transform="translate(-25.19 -26.46)"/><path class="a" d="M98.06,136.36v-.05a8.25,8.25,0,0,1,8.46-8.37,7.93,7.93,0,0,1,6.83,3.33l-3.36,2.6a4.39,4.39,0,0,0-3.52-1.88,4,4,0,0,0-3.84,4.27v.05c0,2.41,1.59,4.3,3.84,4.3a4.41,4.41,0,0,0,3.64-2l3.35,2.39a8.46,8.46,0,0,1-15.4-4.69Z" transform="translate(-25.19 -26.46)"/><path class="a" d="M116.32,128.26h4.46v6h5.72v-6H131v16.1H126.5v-6.12h-5.72v6.12h-4.46Z" transform="translate(-25.19 -26.46)"/><path class="a" d="M140.31,128.15h4.29l6.86,16.21h-4.79l-1.15-2.9h-6.23l-1.15,2.9h-4.66Zm3.9,9.84-1.79-4.55L140.6,138Z" transform="translate(-25.19 -26.46)"/><path class="a" d="M154,128.26h4.16l6.62,8.51v-8.51h4.41v16.1h-3.88l-6.9-8.83v8.83H154Z" transform="translate(-25.19 -26.46)"/><path class="a" d="M172.39,136.36v-.05a8.35,8.35,0,0,1,8.65-8.37,9.38,9.38,0,0,1,6.53,2.32L185,133.44a5.63,5.63,0,0,0-3.89-1.52,4.21,4.21,0,0,0-4.12,4.39v.05a4.26,4.26,0,0,0,4.37,4.48,4.44,4.44,0,0,0,2.58-.67v-1.95h-3.15V135h7.38v7.22a10.7,10.7,0,0,1-7,2.51C176.12,144.68,172.39,141.23,172.39,136.36Z" transform="translate(-25.19 -26.46)"/><path class="a" d="M191.64,128.26h4.46v16.1h-4.46Z" transform="translate(-25.19 -26.46)"/><path class="a" d="M200,128.26h4.16l6.62,8.51v-8.51h4.42v16.1h-3.89l-6.9-8.83v8.83H200Z" transform="translate(-25.19 -26.46)"/><path class="a" d="M218.41,136.36v-.05a8.35,8.35,0,0,1,8.65-8.37,9.38,9.38,0,0,1,6.53,2.32L231,133.44a5.63,5.63,0,0,0-3.89-1.52,4.2,4.2,0,0,0-4.11,4.39v.05a4.25,4.25,0,0,0,4.37,4.48,4.4,4.4,0,0,0,2.57-.67v-1.95h-3.15V135h7.38v7.22a10.7,10.7,0,0,1-7,2.51C222.14,144.68,218.41,141.23,218.41,136.36Z" transform="translate(-25.19 -26.46)"/><path class="a" d="M244.84,128.26h4.71l3.84,6.23,3.84-6.23H262v16.1h-4.44v-9.25l-4.12,6.3h-.09l-4.09-6.27v9.22h-4.37Z" transform="translate(-25.19 -26.46)"/><path class="a" d="M265.72,128.26h12.95V132h-8.53v2.46h7.72V138h-7.72v2.55h8.64v3.8H265.72Z" transform="translate(-25.19 -26.46)"/><path class="a" d="M282,128.26h6.23c5.72,0,9.06,3.31,9.06,8v0c0,4.65-3.38,8.1-9.15,8.1H282Zm4.46,3.93v8.21h1.81c2.7,0,4.47-1.47,4.47-4.07v0c0-2.58-1.77-4.1-4.47-4.1Z" transform="translate(-25.19 -26.46)"/><path class="a" d="M300.66,128.26h4.46v16.1h-4.46Z" transform="translate(-25.19 -26.46)"/><path class="a" d="M308.46,136.36v-.05a8.25,8.25,0,0,1,8.46-8.37,7.93,7.93,0,0,1,6.83,3.33l-3.36,2.6a4.39,4.39,0,0,0-3.52-1.88,4,4,0,0,0-3.84,4.27v.05c0,2.41,1.59,4.3,3.84,4.3a4.41,4.41,0,0,0,3.64-2l3.35,2.39a8.09,8.09,0,0,1-7.1,3.63A8.17,8.17,0,0,1,308.46,136.36Z" transform="translate(-25.19 -26.46)"/><path class="a" d="M326.83,128.26h4.47v16.1h-4.47Z" transform="translate(-25.19 -26.46)"/><path class="a" d="M335.16,128.26h4.16l6.62,8.51v-8.51h4.42v16.1h-3.89l-6.9-8.83v8.83h-4.41Z" transform="translate(-25.19 -26.46)"/><path class="a" d="M354.13,128.26h12.95V132h-8.53v2.46h7.73V138h-7.73v2.55h8.65v3.8H354.13Z" transform="translate(-25.19 -26.46)"/><path class="a" d="M204.57,108.31v-3.42c-7.16-1-7.41-3.34-7-10L202.44,48l26.32,60.37h5.4l27.7-65.51c.45,15.57.75,29.46.75,49.7,0,9-1.31,12.15-8.81,12.38v3.42h32.89v-3.42c-5.51-.68-7.61-1.93-8.27-5.69-.11-.67-1.77-19.77-1.77-55.69,0-8.64,1.33-11.71,8.28-12V28.05H260.42L234.75,87.57,210.33,28.05H188.07v3.41c6.84.22,8.27,2.27,8.27,9.09L189.92,98.3c-.9,5.21-4.14,6-10,6.59v3.42Z" transform="translate(-25.19 -26.46)"/><path class="a" d="M86,28.06v3.4c4.55.22,7,1.13,8.41,3.75C96,38.39,96,47.68,96,66.09c0,14.21-.34,23.76-6.6,30.47-4.66,5-11.48,7.55-19.32,7.55-14.44,0-20.81-9.32-20.81-26.6V43.17c0-8.3,1-11.14,8.75-11.71V28.05H25.19v3.41c8,.79,8.41,3,8.41,11V76.36c0,22.17,12.85,33.76,35.35,33.76s33.08-10.34,34-33c.91-22.85-.34-36.24,1.48-40.9,1.14-3,3.64-4.1,8.42-4.44,2-.1,4.74,0,4.74,0,7.39.12,9.55,2.39,9.55,9.67V94.1c0,7.84-1.36,10.45-8.75,10.79v3.42h32.26l0-3.42c-7.27-.34-8.64-3-8.64-10.34V75.3h5c37.59,0,36.49-25.65,36.49-25.65,0-13.42-9.32-21.83-27.62-21.83,0,0-27,.23-30.39.23Zm56,11.72c0-5.45,2.62-7.62,9.32-7.62,10.8,0,16.83,5.66,16.83,15.44,0,12.39-8.3,22.22-23.76,22.22-.8,0-1.59-.12-2.39-.12Z" transform="translate(-25.19 -26.46)"/><path class="a" d="M336.88,102.32c-18.31,0-31.27-12.55-31.27-37.44,0-21.6,12.51-31.41,29.67-31.41,15,0,25.9,4.88,28.94,16.15h3.23v-17a86.1,86.1,0,0,0-31.83-6.14c-28.75,0-46.94,16.82-46.94,42.86,0,24.44,16.82,40.81,43.88,40.81a58.1,58.1,0,0,0,36.69-12.37l-5.11-8C355.87,99.15,347.43,102.32,336.88,102.32Z" transform="translate(-25.19 -26.46)"/></svg>