<svg xmlns="http://www.w3.org/2000/svg" viewBox="0 0 327.94 174.8"><defs><style>.a{fill:#fff;}.b{fill:#f99d25;}</style></defs><title>efcf</title><path class="a" d="M15.86,119.72H36v4.68H21.14v13.44H35v4.68H21.14v15.36H36.71v4.68H15.86Z" transform="translate(-15.86 -13.07)"/><path class="a" d="M62.13,162.56h-4.8v-4h-.12a7.29,7.29,0,0,1-7,4.8c-7.62,0-10.5-6.78-10.5-16.92,0-6.72,1.08-16.92,10.14-16.92a7.8,7.8,0,0,1,7.08,4.5h.12V119.72h5Zm-11.22-3.48c5.58,0,6.48-5.28,6.48-12.6,0-6.24-1.08-12.6-6.48-12.6-4.68,0-5.88,4.92-5.88,12.6S46.23,159.08,50.91,159.08Z" transform="translate(-15.86 -13.07)"/><path class="a" d="M91.41,162.56h-4.8v-3.78h-.12c-1.32,2.94-4.68,4.62-7.8,4.62-8.46,0-8.46-6.42-8.46-10.2V130.4h5v22.2c0,2.46.18,6.48,4.74,6.48a6.2,6.2,0,0,0,6.36-6.48V130.4h5Z" transform="translate(-15.86 -13.07)"/><path class="a" d="M113.81,140.18c0-3.12-1.26-6.66-5.1-6.66-3.12,0-6.3,1.56-6.3,13.32,0,4.2.06,12.6,6.12,12.6,4.32,0,5.28-4.56,5.28-8h5c0,5.1-2.52,12-10.56,12-7.86,0-11.16-5.46-11.16-16.5,0-8,1.56-17.34,11.46-17.34,8.76,0,10.26,6.9,10.26,10.62Z" transform="translate(-15.86 -13.07)"/><path class="a" d="M124.79,140.12c0-7.32,3.12-10.56,10.8-10.56,9.78,0,9.78,5.88,9.78,9.24v17.94c0,1.32,0,2.58,1.56,2.58a1.81,1.81,0,0,0,1.2-.3v3.6a18.32,18.32,0,0,1-2.94.3c-1.92,0-4.32,0-4.56-4.14h-.12a9.11,9.11,0,0,1-7.74,4.62c-6,0-8.76-3.6-8.76-9.36,0-4.5,1.92-7.62,6.06-8.88l6.78-2c3.66-1.14,3.66-2.16,3.66-4.86,0-3-1.8-4.74-5.16-4.74-5.52,0-5.52,5.16-5.52,6.3v.3ZM140.33,145c-1.86,2-6.3,2.4-8.58,3.78-1.62,1-2.46,2.28-2.46,5.1,0,3.24,1.14,5.52,4.56,5.52s6.48-2.82,6.48-6.12Z" transform="translate(-15.86 -13.07)"/><path class="a" d="M154.81,119.72h5V130.4h5.58v4h-5.58V155c0,2.58.66,3.6,3.3,3.6a15.49,15.49,0,0,0,2.22-.18v4.14a21.23,21.23,0,0,1-4.08.36c-5.22,0-6.48-2.16-6.48-6.36v-22.2h-4.68v-4h4.68Z" transform="translate(-15.86 -13.07)"/><path class="a" d="M170.65,119.72h5v5.76h-5Zm0,10.68h5v32.16h-5Z" transform="translate(-15.86 -13.07)"/><path class="a" d="M193.11,129.56c9.3,0,11.58,7.86,11.58,16.92s-2.34,16.92-11.58,16.92-11.58-7.86-11.58-16.92S183.87,129.56,193.11,129.56Zm6.3,16.92c0-7-1-13-6.42-13-5.1,0-6.18,6-6.18,13s1,13,6.18,13C198.33,159.44,199.41,153.44,199.41,146.48Z" transform="translate(-15.86 -13.07)"/><path class="a" d="M210.22,130.4H215v3.78h.12c1.32-2.94,4.68-4.62,7.8-4.62,8.46,0,8.46,6.42,8.46,10.2v22.8h-5v-22.2c0-2.46-.18-6.48-4.74-6.48a6.2,6.2,0,0,0-6.36,6.48v22.2h-5Z" transform="translate(-15.86 -13.07)"/><path class="a" d="M253.58,119.72H273v4.68H258.86v13.44h13.21v4.68H258.86v20h-5.28Z" transform="translate(-15.86 -13.07)"/><path class="a" d="M277.07,119.72h5v5.76h-5Zm0,10.68h5v32.16h-5Z" transform="translate(-15.86 -13.07)"/><path class="a" d="M289.5,130.4h5v4.8h.12c1.44-3.06,3.36-5.64,7-5.64a5.12,5.12,0,0,1,2.21.36v4.92a13.79,13.79,0,0,0-2.7-.24c-2.51,0-6.6,2.28-6.6,7.62v20.34h-5Z" transform="translate(-15.86 -13.07)"/><path class="a" d="M320.56,139.82c0-4.08-1.08-6.3-4.74-6.3-1.62,0-5.22.42-5.22,4.92,0,3.78,4,4.5,7.92,5.82s7.86,2.7,7.86,9.06c0,6.78-4.38,10.08-10.38,10.08-10.92,0-11-8.1-11-11.4h5c0,3.9,1.08,7.44,6,7.44a5,5,0,0,0,5.34-5.34c0-4.32-4-5.22-7.86-6.54s-7.92-2.46-7.92-9.12c0-6,4.68-8.88,10.26-8.88,9.36,0,9.72,6.48,9.78,10.26Z" transform="translate(-15.86 -13.07)"/><path class="a" d="M333.18,119.72h5V130.4h5.58v4h-5.58V155c0,2.58.66,3.6,3.3,3.6a15.49,15.49,0,0,0,2.22-.18v4.14a21.23,21.23,0,0,1-4.08.36c-5.22,0-6.48-2.16-6.48-6.36v-22.2H328.5v-4h4.68Z" transform="translate(-15.86 -13.07)"/><path class="a" d="M61.24,173.45h7.3V175H63v4.43h5.25V181H63v6.61H61.24Z" transform="translate(-15.86 -13.07)"/><path class="a" d="M74,173.45h7.3V175H75.73v4.43H81V181H75.73v5.07h5.8v1.54H74Z" transform="translate(-15.86 -13.07)"/><path class="a" d="M87.29,173.45h3.79c4.39,0,5,3.17,5,7.07,0,3.57-.9,7.07-4.78,7.07h-4ZM89,186.17h1.82c3,0,3.34-3.09,3.34-5.63,0-2.73-.17-5.66-3.34-5.66H89Z" transform="translate(-15.86 -13.07)"/><path class="a" d="M102.08,173.45h7.31V175h-5.56v4.43h5.24V181h-5.24v5.07h5.8v1.54h-7.55Z" transform="translate(-15.86 -13.07)"/><path class="a" d="M115.21,173.45h4.58a3.31,3.31,0,0,1,3.62,3.55c0,1.54-.54,3.17-2.18,3.56v0a2.33,2.33,0,0,1,2,2.36l.12,2.42c.08,1.56.34,2,.75,2.21H122a4.35,4.35,0,0,1-.47-2l-.12-2.19c-.14-1.94-1.21-2.06-2.1-2.06H117v6.29h-1.74Zm1.74,6.42h1.72c1,0,2.92,0,2.92-2.73,0-1.39-.93-2.26-2.56-2.26H117Z" transform="translate(-15.86 -13.07)"/><path class="a" d="M131.12,173.45h2.33l3.81,14.14h-1.82l-1-3.88h-4.51l-1,3.88H127Zm-.85,8.84h3.8l-1.8-6.84h0Z" transform="translate(-15.86 -13.07)"/><path class="a" d="M142.21,173.45H144v12.6h5.74v1.54h-7.48Z" transform="translate(-15.86 -13.07)"/><path class="a" d="M167.92,182.74c-.16,2.68-1.21,5.13-4.3,5.13-4,0-4.56-3.78-4.56-7.35s.66-7.34,4.56-7.34c2.89,0,4.1,1.62,4.18,4.39H166c0-1.6-.56-3-2.36-3-2.42,0-2.73,2.66-2.73,5.92s.31,5.93,2.73,5.93c2.12,0,2.42-2,2.48-3.71Z" transform="translate(-15.86 -13.07)"/><path class="a" d="M173.5,173.45h4.57A3.32,3.32,0,0,1,181.7,177c0,1.54-.54,3.17-2.18,3.56v0a2.33,2.33,0,0,1,2,2.36l.12,2.42c.08,1.56.34,2,.75,2.21h-2.1a4.35,4.35,0,0,1-.47-2l-.12-2.19c-.14-1.94-1.21-2.06-2.1-2.06h-2.36v6.29H173.5Zm1.74,6.42H177c1,0,2.91,0,2.91-2.73,0-1.39-.93-2.26-2.56-2.26h-2.08Z" transform="translate(-15.86 -13.07)"/><path class="a" d="M187.74,173.45H195V175h-5.56v4.43h5.25V181h-5.25v5.07h5.8v1.54h-7.54Z" transform="translate(-15.86 -13.07)"/><path class="a" d="M201,173.45h3.78c4.4,0,5,3.17,5,7.07,0,3.57-.9,7.07-4.78,7.07h-4Zm1.74,12.72h1.83c3,0,3.34-3.09,3.34-5.63,0-2.73-.18-5.66-3.34-5.66h-1.83Z" transform="translate(-15.86 -13.07)"/><path class="a" d="M214.73,173.45h1.74v14.14h-1.74Z" transform="translate(-15.86 -13.07)"/><path class="a" d="M225.93,187.59h-1.75V175h-3.54v-1.55h8.85V175h-3.56Z" transform="translate(-15.86 -13.07)"/><path class="a" d="M240,173.45h1.74v10c0,2.08.67,3,2.4,3s2.41-1.07,2.41-3v-10h1.74v10c0,2.71-1.38,4.47-4.15,4.47S240,186.31,240,183.4Z" transform="translate(-15.86 -13.07)"/><path class="a" d="M254.4,173.45h2.26l4.67,11.81h0V173.45h1.74v14.14h-2.39l-4.54-11.44h0v11.44H254.4Z" transform="translate(-15.86 -13.07)"/><path class="a" d="M269.37,173.45h1.74v14.14h-1.74Z" transform="translate(-15.86 -13.07)"/><path class="a" d="M285.18,180.52c0,3.57-.65,7.35-4.56,7.35s-4.55-3.78-4.55-7.35.65-7.34,4.55-7.34S285.18,177,285.18,180.52Zm-7.29,0c0,3.27.32,5.93,2.73,5.93s2.74-2.66,2.74-5.93-.32-5.92-2.74-5.92S277.89,177.26,277.89,180.52Z" transform="translate(-15.86 -13.07)"/><path class="a" d="M290.13,173.45h2.26l4.68,11.81h0V173.45h1.74v14.14h-2.4l-4.53-11.44h0v11.44h-1.75Z" transform="translate(-15.86 -13.07)"/><path class="b" d="M157.36,67.76a31.74,31.74,0,0,0,59.22-15.88H206.31A21.53,21.53,0,0,1,169.2,66.74l45.29-26.16a31.73,31.73,0,1,0-57.13,27.18ZM174,33.24A21.53,21.53,0,0,1,200.35,37L164.12,57.93A21.55,21.55,0,0,1,174,33.24Z" transform="translate(-15.86 -13.07)"/><path class="b" d="M204.63,100.53l-5.23-3.79H188.14l-3.39-5a39.69,39.69,0,0,0,17.87-4.25l4.52,3.27-.58-5.55A39.81,39.81,0,0,0,212.85,80l-3.78-3.79a34.44,34.44,0,1,1-33.25-57.63l-1.39-5.18a39.28,39.28,0,0,0-7.62,2.9l-4.51-3.27.57,5.55A39.8,39.8,0,0,0,184.65,91.7l-3.39,5H170.33L165,100.53h-6.89l-3.45,3.18h60.22l-3.32-3.18Z" transform="translate(-15.86 -13.07)"/><polygon class="b" points="293.45 170.12 310.49 167.71 293.45 165.39 293.45 170.12"/><polygon class="b" points="35.27 165.38 18.23 167.79 35.28 170.12 35.27 165.38"/></svg>