<svg id="Layer_1" data-name="Layer 1" xmlns="http://www.w3.org/2000/svg" viewBox="0 0 600.09 293.89"><defs><style>.cls-1{fill:#bfbfbf;}.cls-2{fill:#fff;}</style></defs><title>parker_g</title><path class="cls-1" d="M357.65,556.79c2.83.32,4.65-1,5.06-4.1-8.43,1.48-8.41,1.48-8.55-4.54,0-1.27.65-3.07-.61-3.68-1.83-.88-2.49,1.22-3.27,2.29-4.17,5.69-9.17,8.52-16.68,7.24-5.81-1-11,1.1-13.21,7.89-4-6.73-9.58-9.15-16.74-8.17s-11.15,5.84-13.76,13.06c-2.23-5-6.58-5.53-10.44-7.13,7.7-4.14,9.66-9.85,5.68-15.94-2.65-4.05-6.92-5.28-11.25-5.45-8.31-.33-16.65-.09-25-.1-1,0-2.25.06-2.53,1.12s.72,1.67,1.79,1.89c3.69.77,4.39,3.25,4.32,6.68-.18,9.32-.1,18.66,0,28,0,2.93.07,5.73-3.26,7.1a1.76,1.76,0,0,0-1.21,2.36c.36,1,1.34.83,2.12.82,8-.1,16,.11,24-.45,7-.49,13.45-2.57,16.36-10.56,2.26,7.43,7.18,10.43,14,10.88,5.86.39,10.66-1.93,14.74-6,.11-.78,1.11-1.6.37-2.28-1.2-1.1-2.08.21-3,.76-6.54,3.92-13.37,1.94-16-4.64-1.74-4.31-.84-5.63,3.83-5.72,5.14-.09,10.29-.17,15.43-.39.74,0,1.19-.08,1.6.56,2.55,4,6.95,4.91,10.87,6.62,2.57,1.12,5.3,2.33,3.7,5.75-1.51,3.23-4.56,3-7.35,1.91-2.44-1-3.76-3.13-4.81-5.48-.44-1-.57-2.72-2-2.45-2,.38-.75,2.15-.88,3.33-.07.66,0,1.33,0,2,.9,1.62-1,4,1.62,5.24,4,1.85,13.36.8,16.73-2.09a10.22,10.22,0,0,0-1.78-16.79c-2.49-1.3-5.2-2.19-7.78-3.33-1.82-.8-3.23-2.11-2.59-4.24.71-2.38,2.8-2.61,4.9-2.29a7.83,7.83,0,0,1,5.52,3.87c.62,1,.52,2.8,2.73,2.55.14-.56.3-1.15.42-1.75.25-1.31-.77-3.41,1.63-3.46s2.08,2.13,2.22,3.7c.1,1.16,0,2.33,0,3.49.2,5-.51,10,.43,14.94.83,4.37,3.77,6,7.92,5.92,5.52-.17,9.24-2.76,9.7-6.65a8.57,8.57,0,0,0-1.43.28c-5.76,2.2-6.84,1.53-6.86-4.37,0-4.83.11-9.67-.06-14.49C354,557.89,354.57,556.45,357.65,556.79ZM265.57,542c3.58-1.08,7.16-.25,9.14,3.27,2.14,3.78,3,8.06.07,11.73-2.48,3.11-6.59,2.88-9.75,1.68-4-1.51-1-5.7-2.25-8.32C263.88,547.45,261.18,543.36,265.57,542Zm8.31,39.82c-9.51,2.11-11.72.85-10.88-10.15a3,3,0,0,1,0-1c1-2.76-2.64-7.54,3.41-8.14,7.09-.71,11.76,2.17,13,7.92C280.5,575.69,278.32,580.86,273.87,581.84Zm37.33-18.9c-.37,4.49-4,1-5.86,2.6-1.64-1.64-5.57,2-5.53-2.75,0-3.46,1.49-6.26,5.4-6.59C308.24,556,311.48,559.56,311.2,562.95Z" transform="translate(-6.17 -292.28)"/><path class="cls-1" d="M599.95,559.73a14.93,14.93,0,0,0-3.45-.34q-101.19,0-202.39,0c-2.19,0-5.48-.67-5.49,2.6s3.29,2.42,5.47,2.6c1,.09,2,0,3,0H495q50,0,99.94,0a32.52,32.52,0,0,0,4.95-.32,2.15,2.15,0,0,0,1.93-2A2.32,2.32,0,0,0,599.95,559.73Z" transform="translate(-6.17 -292.28)"/><path class="cls-1" d="M216.75,559.53a18.74,18.74,0,0,0-3.48-.15q-100.4,0-200.8.07c-2.35,0-6.37-1.32-6.31,2.6s4.05,2.49,6.41,2.49q49.7.13,99.4.07,49.95,0,99.9,0a43.51,43.51,0,0,0,5-.22,2.24,2.24,0,0,0,2.27-2.19C219.24,560.45,218.13,559.79,216.75,559.53Z" transform="translate(-6.17 -292.28)"/><path class="cls-1" d="M264.54,500.83c.78,2.53,2.48,2.15,4.25,2.16,2.13,0,1.78-1.61,1.78-2.84,0-9.16-.07-18.31,0-27.47,0-2.12-.52-2.93-2.77-2.92s-2.7,1.16-2.66,3.1c.08,4.32,0,8.64,0,13l-.91.07c-1.72-4.63-3.62-9.21-5.09-13.92-.81-2.59-2.59-2.08-4.34-2.14-2.56-.09-1.82,1.89-1.83,3.18-.05,9,0,18,0,27,0,1.86.06,3.13,2.56,3.1s2.71-1,2.67-3c-.1-4.91,0-9.83,0-14.75A85.23,85.23,0,0,1,264.54,500.83Z" transform="translate(-6.17 -292.28)"/><path class="cls-1" d="M11,494.47c0,8.66,0,8.57,8.48,8.57,3.79,0,7-.87,8.55-4.62s1.94-8-1.29-11.12c-1.74-1.71-.92-2.3.05-3.77,4.25-6.43.63-13.43-7-13.71-1.82-.07-3.67.17-5.48,0-2.57-.27-3.53.55-3.39,3.25.22,4.31.06,8.63.06,13Q11,490.23,11,494.47Zm8-19.78c2.74.12,3.42,2.11,3.45,4.47s-1,3.84-3.36,4c-3.59.21-1.77-2.65-2.36-4.27C17.47,477.48,15.41,474.53,19,474.68Zm0,13.54c3,0,4.23,2.08,4.2,4.93,0,2.69-.64,5-4,5-4.4,0-1.22-3.57-2.67-4.83C17.5,491.43,15.19,488.25,19,488.23Z" transform="translate(-6.17 -292.28)"/><path class="cls-1" d="M70.17,469.75c-2.52,0-3.12,1-3,3.27.13,3.49,0,7,0,10.49s0,7,0,10.49c0,2.05.1,4.28-2.86,4.2s-2.72-2.19-2.71-4.3c.05-7.16-.07-14.32,0-21.47,0-2.38-1.19-2.67-3.12-2.65s-3.12.17-3.07,2.64c.17,7.65-.13,15.32.26,23,.29,5.74,3.65,8.38,9.17,8.17,5.17-.2,8.05-3,8.23-8.66.23-7.32,0-14.65.17-22C73.28,470.59,72.61,469.74,70.17,469.75Z" transform="translate(-6.17 -292.28)"/><path class="cls-1" d="M181.93,503c4.23,0,8-1.07,8.9-5.5a56.85,56.85,0,0,0,0-22.28c-1-5-7.16-7.18-14.87-5.33-3.95.95-1.52,4.65-1.84,7.05-.41,3.11-.1,6.31-.1,9.47q0,4.49,0,9C174,503.12,174,503,181.93,503Zm-2.12-16.77c0-2.82,0-5.64,0-8.46,0-1.39-.52-3.23,1.88-3.23,1.8,0,3.53.61,3.74,2.56a75.49,75.49,0,0,1-.1,18.8c-.3,2.05-2.14,2.27-3.9,2.21-2.16-.07-1.58-1.74-1.61-2.92C179.75,492.24,179.8,489.26,179.8,486.27Z" transform="translate(-6.17 -292.28)"/><path class="cls-1" d="M297.42,494a14.75,14.75,0,0,0,.23,2c.77,5.25,3.56,7.66,8.68,7.52s7.83-2.87,8.2-8.12c.13-1.82,0-3.66,0-5.49,0-5.27-.71-5.86-6.1-5.11-.95.13-2.11-.1-2.25,1.31-.09,1-.44,2.3.62,2.71,4.06,1.57,1.7,4.76,1.84,7.21.08,1.34-1.15,2.32-2.77,2.25a2.26,2.26,0,0,1-2.39-2.09,120.79,120.79,0,0,1-.09-19.4,2.21,2.21,0,0,1,2.29-2.19,2.41,2.41,0,0,1,2.66,1.79,10.65,10.65,0,0,1,.56,2.91c0,2.6,1.9,1.68,3.19,1.84,1.62.19,2.36-.5,2.51-2.22a9,9,0,0,0-7.55-9.64c-4.67-.72-8.66,1.95-9.33,6.8-.45,3.26-.09,6.63-.09,9.95h-.27C297.41,488.72,297.4,491.38,297.42,494Z" transform="translate(-6.17 -292.28)"/><path class="cls-1" d="M413.08,475.15a80.6,80.6,0,0,0-.09,9c0,3.49-.05,7,0,10.48.1,5.55,3,8.74,7.92,8.92,5.35.19,8.75-2.91,8.86-8.5.15-7.32,0-14.64.06-22,0-2.22-.45-3.27-3-3.32s-2.92,1.17-2.89,3.3c.09,7,0,14,0,21,0,1.86.07,4-2.42,4.18-3,.16-2.71-2.34-2.73-4.29-.06-6.32.06-12.65-.09-19-.05-2.09,1.54-5.29-3-5.16S413.3,473.21,413.08,475.15Z" transform="translate(-6.17 -292.28)"/><path class="cls-1" d="M510.64,489.23c7.78-.81,11.34-8.77,7.33-15.6C516,470.37,507.19,468,502.35,470c-3.27,1.33-1.18,4.62-1.44,7a84.3,84.3,0,0,0-.09,9.47c0,4.49.1,9,0,13.47-.08,2.29.46,3.16,3,3.22,2.84.07,2.87-1.42,2.83-3.39s.17-3.68,0-5.48C506.17,491,507,489.61,510.64,489.23Zm-3.9-9.23c.09-1.9-2.07-5.47,2.53-5.37,3.2.07,4.19,2.07,4.09,5.13.31,3.08-1.32,4.8-4.5,4.9C504.88,484.78,506.67,481.56,506.74,480Z" transform="translate(-6.17 -292.28)"/><path class="cls-1" d="M467.13,489.21c4.34,0,7.18-2.14,8-6.63,1.51-8.54-1.83-12.65-10.47-12.78-1.66,0-3.33.13-5,0-2.15-.17-2.94.62-2.87,2.82.13,4.48,0,9,0,13.45h0c0,4.48.08,9,0,13.45-.06,2.29.19,3.62,3.12,3.61,3.12,0,3-1.73,2.94-3.81a40,40,0,0,0-.05-5C462.24,490.82,463.42,489.21,467.13,489.21Zm-4.56-9.69c1-1.69-1.47-4.87,2.44-4.93,3.31-.05,4.49,1.77,4.52,5s-1.42,5.1-4.57,5C460.79,484.54,463.94,481,462.57,479.52Z" transform="translate(-6.17 -292.28)"/><path class="cls-1" d="M376,480.83c-1.67-1.75-2.31-4-.27-5.66,1.84-1.52,3.22-.24,4.27,1.65,1.22,2.18,3.33,1.15,4.79.51,1.78-.78.45-2.42,0-3.44-1.63-3.62-4.62-5.08-8.51-4.53s-6.8,2.54-7.28,6.89c-.46,4.16,1.25,7.4,4.24,10.14a55.24,55.24,0,0,1,6,5.89c1.37,1.71,2.12,4.16-.41,5.58-2.2,1.23-4-.06-4.53-2.31-.82-3.44-3.22-1.69-4.68-1.34-2.3.56-.9,2.52-.49,3.71,1.27,3.69,4,5.53,8.43,5.64,2.75-.28,5.82-1,7.42-4.23a9.28,9.28,0,0,0-1.3-10.7C381.38,485.83,378.56,483.47,376,480.83Z" transform="translate(-6.17 -292.28)"/><path class="cls-1" d="M306.14,549.54h0c1.94-.82,2.79-2.8,4.3-4.09,2.68,5.37,6.88,7.21,11.52,5.06,3.36-1.55,4.87-6.38,3.14-9.84a6.45,6.45,0,0,0-4.12-3.4c-3.54-1-6.69.15-9.57,2.42-1.9-9.16-7.57-11.53-21.58-9,1.85.82,2.9,2.06,2.76,3.54-.36,4,2.18,4.17,4.7,3.45,3.87-1.11.88-3.52.58-5.66,4.74-.34,6.78,2.2,6.87,6.44a37.23,37.23,0,0,0,1.15,9.29l.24,1.78Zm9.13-6.13c.05-2,.19-5,3.16-4.62s2.57,3.31,2.77,5.51c-.36,2.27-.23,5.52-3.19,5.21S315.21,545.75,315.27,543.41Z" transform="translate(-6.17 -292.28)"/><path class="cls-1" d="M597.84,470c-2.18-.64-4.41-.63-5.25,2.73-.69,2.78-.92,5.91-2.88,8-3.49-3.25.09-12.48-9.74-10.59,3.54,10.23,8.34,19.91,6.9,30.95-.32,2.46,1.77,1.76,3.13,1.9,1.91.2,2.86-.63,2.6-2.56-1.29-9.47,2.31-17.91,5.35-26.51C598.33,472.82,600.74,470.83,597.84,470Z" transform="translate(-6.17 -292.28)"/><path class="cls-1" d="M547.58,469.76c-2.48-.09-2.64,1.18-2.61,3.07.07,4.49,0,9,0,13.47q0,2.74,0,5.49c0,11.92,0,11.92,11.8,11.22.5,0,1,0,1.49,0,1.76-.07,1.53-1.38,1.54-2.51s0-2.4-1.69-2.44a16.6,16.6,0,0,0-3,0c-3.48.56-4.56-.75-4.41-4.3.29-7,0-14,.11-20.95C550.91,470.16,549.75,469.84,547.58,469.76Z" transform="translate(-6.17 -292.28)"/><path class="cls-1" d="M134.17,492.5c0,10.63,0,10.68,10.62,10.45,1.61,0,4.16,1.35,4.29-2.27.14-3.94-2.69-2.84-4.41-2.6-4.25.59-4.86-1.4-4.73-5,.25-6.65,0-13.32.11-20,0-2.08-.14-3.41-2.86-3.34-2.47.07-3.13,1-3.05,3.28.14,4.49,0,9,0,13.49Q134.17,489.51,134.17,492.5Z" transform="translate(-6.17 -292.28)"/><path class="cls-1" d="M225.2,486.56c0-4.33,0-8.65,0-13,0-2,.37-3.83-2.86-3.86-3.4,0-3.22,1.78-3.2,4.09.06,8.32,0,16.64,0,25,0,2-.78,4.26,2.89,4.35,4.06.1,3.07-2.46,3.1-4.58C225.23,494.55,225.19,490.55,225.2,486.56Z" transform="translate(-6.17 -292.28)"/><path class="cls-1" d="M103.8,503.1c2.4-.07,3.11-.81,3.08-3.17-.11-9-.09-17.91,0-26.86,0-2.17-.38-3.32-3-3.33s-3,1-3,3.21c.13,4.47,0,9,0,13.43s.08,9,0,13.43C100.9,501.9,101.1,503.17,103.8,503.1Z" transform="translate(-6.17 -292.28)"/><path class="cls-1" d="M345.08,536.9c-4.26,1.24-4.13-1.89-5.08-5.34-2.74,6.35-7.59,4.89-11.74,5.51,2.41,4.67,2.1,9.24.38,13.95h7.42c-3.5-3.34-1.78-7.6-2-11.51a1,1,0,0,1,1.34-1c.92.23,1.11,1.07,1.18,1.94.26,3.56-.7,7.28,1.39,10.59,2.38.17,4.92.77,6.59-2.33-2.15.12-4.05,0-3.7-2.62C341.29,542.8,338.72,538.32,345.08,536.9Z" transform="translate(-6.17 -292.28)"/><path class="cls-1" d="M306.14,549.54a1.44,1.44,0,0,1-.24-1.78c-1.72.84-3.56.51-5.37.58s-3.05-.67-2.3-2.58,1.35-3.52-1.66-3.63c-2.2-.08-4.63-.37-4.2,3A6.61,6.61,0,0,1,290.1,551C295.57,550.47,301.07,552.66,306.14,549.54Z" transform="translate(-6.17 -292.28)"/><path class="cls-1" d="M306.14,549.54h0l-.24-1.78A1.44,1.44,0,0,0,306.14,549.54Z" transform="translate(-6.17 -292.28)"/><path class="cls-1" d="M334.77,533a2.58,2.58,0,0,0-2.61-2.51,2.35,2.35,0,0,0-2.7,2.32,2.51,2.51,0,0,0,2.77,2.81A2.71,2.71,0,0,0,334.77,533Z" transform="translate(-6.17 -292.28)"/><path class="cls-1" d="M366.28,582c-2.27.25-3.11,1.07-3,2.33.11,1,1.08,1.55,2.19,1.52,1.41,0,2.17-.85,2-2.17C367.32,582.69,366.56,582,366.28,582Z" transform="translate(-6.17 -292.28)"/><path class="cls-2" d="M243,413.68a3.64,3.64,0,0,0-.06,1.4A6.47,6.47,0,0,0,243,413.68Z" transform="translate(-6.17 -292.28)"/><path class="cls-2" d="M81.07,303c-3.17-4.26-7.4-6.75-12.71-6.79-18.3-.11-36.6,0-54.89-.12-2.79,0-3.71.91-3.7,3.74q.11,68.12,0,136.24c0,3.22,1.21,3.89,4.1,3.84,8-.14,16,0,24,0,.12-11.13.42-22.27.28-33.4-.05-4,1.16-5.15,5.07-5,7.14.3,14.29.1,21.44.1,11.43,0,18.45-6.77,18.5-18.12.09-23.45,0-46.9.08-70.35A26.21,26.21,0,0,0,81.07,303Zm-26,71a.7.7,0,0,0-.18.71h0c-4,.09-8-.08-11.92.34-4.11.44-4.9-1.24-4.87-5,.12-16-.06-32-.14-48.06l17,.2h0a1,1,0,0,0,.18.81Q55.1,348.5,55.08,374Z" transform="translate(-6.17 -292.28)"/><path class="cls-2" d="M606.25,370c0-3.87-.88-7.14-3.49-10-.6-1.83-2.17-2.33-3.79-2.77l-1.92-.37c-1.58-1.2-3.45-.93-5.23-.94-6.91,0-13.82,0-20.72,0-1.42-1.48-1.26-3.33-1.26-5.16,0-7.48,0-15,0-22.44,0-1.84-.06-3.67,1.2-5.2l34-.09h0V323h0q0-2,.07-4a1.05,1.05,0,0,1-.13-.93A31,31,0,0,1,603.11,308L601,299.87h0c.51-2.94-1-3.74-3.65-3.73-13.43.07-26.86,0-40.28.08-2.44,0-5,.32-7,2a7.64,7.64,0,0,0-5.34,4.71h0a.82.82,0,0,0-.66,1.12,3.58,3.58,0,0,0-1.08,3h0c-1.25,1.38-1,3.1-1,4.72q0,26.85,0,53.69c0,1.64-.18,3.34,1,4.76h0c.24,4.17,3.19,6.36,6.22,8.49,6.69,2.06,13.56,1.11,20.36,1.23,9.66.17,9-1.23,9.62,9.06,0,.53,0,1.06,0,1.6-.05,5.24-.08,10.49-.21,15.73-.05,2,.62,4.41-1.85,5.7-1.51,1.54-3.45.92-5.2.93-6.65,0-13.3-.1-19.95-.13-9.69,0-9.69,0-7.46,9.54a3.25,3.25,0,0,0,.51.85c0,1.74-.14,3.5.94,5l.32,2.76h0c.28,2,.67,3.92.82,5.9.18,2.38,1.48,3,3.65,3,13.16-.06,26.32.22,39.47-.14,10.82-.3,16.05-6.08,16.07-16.8C606.22,405.3,606.11,387.64,606.25,370ZM601,299.87a19.63,19.63,0,0,1,.07,2.46A20.56,20.56,0,0,1,601,299.87Zm-58,15.18v0h0Z" transform="translate(-6.17 -292.28)"/><path class="cls-2" d="M166.55,432.31,164.93,427c0-.22,0-.45-.07-.67a72.25,72.25,0,0,0-2.69-13.66h0l-.36-2.57h0a2.59,2.59,0,0,0-.65-2.4h0a302.12,302.12,0,0,0-6.1-32.68,31,31,0,0,0-1.72-9.54,1,1,0,0,0-.24-.73l-.35-5.52v0h0l-5.69-26.35h0l-.18-1.81.05-.69L147,329q-3.67-15.86-6.06-32h0c-9.51-1.92-19.12-.45-28.68-.74-1.61,0-1.47,1.46-1.42,2.63h.05c-2.64,9.21-3.91,18.68-5.63,28.07l-.6,3.9-1.4,4.17,0,.13h0L103.1,339h0c-1.66,7.83-3.6,15.61-4.3,23.62h0L94.94,379l-.1,1a24,24,0,0,1-1.69,8.25h0A.55.55,0,0,1,93,389l.18,2h0l0,.24-.27,2.37a29.1,29.1,0,0,0-2,10.13,4.74,4.74,0,0,0-.24.77L89.22,409l0,.11h0l-.1,3.86a1,1,0,0,0-.13.9c-1.33,1.77-.81,4-1.41,5.92h0L87,420h0l-.06,4.75h0c-.08.18-.15.37-.22.56A22.84,22.84,0,0,0,85.16,433l-.26,2c-1.13,1.49-1,3.2-.82,4.91h0c7.48,0,15-.27,22.44.14,5.15.28,8.17-.68,8-6.67-.08-3.26.76-6.53,1.25-9.8,0-.18.06-.35.08-.53,6-2.4,12.31-.76,18.47-.94,2.13-.06,1.5,2.21,1.77,3.54.35,1.77.48,3.58.71,5.38a14.4,14.4,0,0,1,.68,3.39c-.2,5,2.4,5.94,6.8,5.63,5.43-.38,10.9-.11,16.36-.1,6.59,0,6.59,0,6.18-6.55A3.42,3.42,0,0,1,166.55,432.31ZM91.16,408.77,91,409v-.27ZM119.75,397l.13-.06h0l.1-1c0-.55,0-1.1,0-1.65s0-1.09.05-1.63a7.18,7.18,0,0,1,.85-3v0a.46.46,0,0,1,.05-.67l0-1.38L121,383l1.91-9.19.21-2.81,0-4.61h0c1.62-3.25.58-7,2-10.29h0v0l-.28-1h0c.47-.25.15-2.7,1.33-.68.73,1.26.5,3.07.69,4.63h0l.34,3.87a2.44,2.44,0,0,1,.73.23c0,.74,0,1.48,0,2.21a19.06,19.06,0,0,0,.13,2.23,8.5,8.5,0,0,0,.85,2.87l0,3.6.23,2.81h0l1,2.26c-.08,1.82-.23,3.65.81,5.3l.27,3.62-.14.49-.15.53h0l.15,2h0a10.92,10.92,0,0,1,.68,2.09A23.81,23.81,0,0,1,132,399h0l-1,.19-3.63-.2-2.39-.13h-2l-.79.13-1.2.21c-1.06-.19-1.85-.64-1.86-1.88A3,3,0,0,1,119.75,397Z" transform="translate(-6.17 -292.28)"/><path class="cls-2" d="M526.79,316.92a2.69,2.69,0,0,0,.65-.94Z" transform="translate(-6.17 -292.28)"/><path class="cls-2" d="M248.89,432.21,247.09,429l0-2h0l-.4-.79-1.58-3.14,0-.1-2.11-7.9c-2.31-3-2-7-4-10.09l.14-.57,0-.2.06-.23-.81-1-.06-.07h0A10.87,10.87,0,0,0,238,401c-1.4-3.71-3.16-7.24,3.18-8.35,2.69-.47,4.37-3.3,5.94-5.65,1.15-4.56,1.09-9.2,1.09-13.85q0-28.69,0-57.38c0-3.66.05-7.33-1.54-10.76h0a5.64,5.64,0,0,0-.68-1.85c-.81-1.43-2.09-2.55-3-3.9l-.06-.08h0L242,299l-.95-.2-2.22-1.74c-10.57-1.76-21.22-.6-31.83-.83-8.81-.19-17.63.19-26.44-.14-4.44-.17-5.86.94-5.84,5.67.2,42.9.11,85.81.13,128.71,0,3.15.21,6.3.33,9.45,8,0,16-.15,24,0,3,.06,4.22-.82,4-3.94-.26-4.31-.19-8.65-.26-13h0q.1-12.56.21-25.12c0-1.93-.41-4.34,3-3.09,2.32.39,1.85,2.53,2.33,4,2,5.82,3.79,11.68,5.64,17.53L215,419h0l.12.55,2.11,9.35,1.89,4.07c-.08,5.5,2.57,7.36,8,7,6.28-.46,12.63-.1,18.94-.11,5.3,0,5.32,0,3-4.9Zm-45-110.06a2.77,2.77,0,0,1,1-.09l.07.12,0-.12h0l1,0h0c0,.05.07.09.11.14s0-.09,0-.13c4.68.09,9.47-1.57,14,1q-.07,23.47-.14,46.94l-1,.94h0a6,6,0,0,0-4,0h-1.88c-9.73-.79-9.73-.79-10.16-7.93V331h0c.07-2,.06-3.95.23-5.91.07-.8-.23-1.87.17-2.51A6.94,6.94,0,0,1,203.92,322.15Z" transform="translate(-6.17 -292.28)"/><path class="cls-2" d="M490.94,433a10.37,10.37,0,0,0-1.85-5.2h0a.7.7,0,0,0-.2-.79h0l-6-19.74-3.38-7.83-.38-.26,0-.51h0l-.94-4.36h0c3.29-.13,5.91-1.94,8.65-3.47l.11-.16c2.41-3,3-6.73,3.87-10.34l.08-.34q-.11-32.49-.24-65c0-4.67-.14-9.36-3.6-13.11A4.75,4.75,0,0,0,484,299a10.62,10.62,0,0,0-7.31-2.76c-19-.14-38-.09-56.94-.15-2.14,0-3.17.68-2.6,2.93h0c0,2-.14,4-.14,6q-.06,67-.1,134h0a.77.77,0,0,1,.1.16.72.72,0,0,1,.12.6h0c8,0,15.93-.2,23.87.17,4.18.19,5-1.42,4.92-5.14-.19-12.27-.11-24.54-.07-36.81,0-1.21-.67-2.86,1-3.5,1.41-.55,2.51.34,3.34,1.49h0c1.44,5.07,2.51,10.25,4.72,15.08,1.84,8.48,4.61,16.7,7.26,24.95.14,2.72,1.24,4.05,4.3,4,7.62-.2,15.25,0,22.87-.1,1.47,0,3.53.73,3.84-1.86l-2-4.21A.66.66,0,0,0,490.94,433ZM421,433a.27.27,0,0,1-.16,0l.16-.18Zm28.7-62.6c-1.74,0-2.89-.28-3.45-1.33a5.19,5.19,0,0,1-.4-2.26c.2-12.76.2-25.52.27-38.29l.21-.34a1,1,0,0,0-.21-.14c-.46-6.47-.29-6.61,5.75-6.14,2.35.18,4.71.18,7.06.22l1,0c3-.26,2.07,2,2.09,3.42.1,7,.18,14,0,20.94-.19,8.12.74,16.26-.55,24.35h0l-.25-.14-.25.14h0C457.29,369.74,453.47,370.44,449.69,370.39ZM471,431h0s0-.07,0-.1l0,.11H471Z" transform="translate(-6.17 -292.28)"/><path class="cls-2" d="M338,300.24c1.46-3.89.86-4.13-4-4.14h-1c-6.49,0-13,.23-19.46-.07-.44,0-.85,0-1.23,0-2.65.14-4,1.27-4.14,3.88a9.73,9.73,0,0,0,0,1.1l-.22.77a75.66,75.66,0,0,0-3,13.19c-3.83,13.08-7,26.31-9.76,39.65L295,355a.5.5,0,0,0-.14.72,14.45,14.45,0,0,1-1.7,1.47l-.29.08a2.88,2.88,0,0,1-1.87-.17,1.74,1.74,0,0,1-.78-.6,1.61,1.61,0,0,1-.26-.57,10.94,10.94,0,0,1,.05-2.35c0-17.48-.13-35,0-52.44,0-3.76-.73-5.27-4.87-5.09-8,.34-16,.08-24,.07,0,.39,0,.78-.06,1.17-.06,1.09-.12,2.18-.16,3.27,0,.68,0,1.36,0,2q0,59.46,0,118.93c0,1.78-.1,3.55-.16,5.33V427h0l0,.76.27,5,0,.29-.33,4c-.07.93-.87,1.93.28,2.74,8.32,0,16.65-.09,25,.2,3.56.13,4.05-1.38,4-4.4q-.17-24.46,0-48.92c0-2-1.58-5.17,1.66-5.86,3.95-.84,4.26,2.52,4.69,5.31.15,1,.26,2,.38,2.94h0l2,7.25h0l.24,4.72.79.26h0v.36a13.24,13.24,0,0,0,.11,2.37,4.82,4.82,0,0,0,.92,2.23l.17,1.84h0c0,.67.06,1.34.13,2a22.53,22.53,0,0,0,.64,3.41,21.56,21.56,0,0,0,1,2.95A55.74,55.74,0,0,0,305.12,428h0l-.07.26-.22.77h0l.23,2h0a3.22,3.22,0,0,0,.7.09l1.48,8.67h0l25.15.1c6.84,0,6.84,0,4.58-6.83h0a20.34,20.34,0,0,0-1.91-8.25h0l-.24-1.74h0a17.16,17.16,0,0,0-1.79-7.17h0c.54-1.45-1.72-2.3-.82-3.83a6.57,6.57,0,0,0-.32-1.46,1.23,1.23,0,0,0-.37-.45,1.46,1.46,0,0,0-.49-.25,1.51,1.51,0,0,0-.21-.85c0-.32,0-.63,0-.94.21-7.3-3.21-13.93-4.1-21h0l0-.35.1-1.65h0l-.65-1.81-.71-2a1.75,1.75,0,0,0-.49-1.37.74.74,0,0,0-.13-.84l0-.28a28,28,0,0,0-1.05-5.88,14.85,14.85,0,0,0-.79-2h0a26.82,26.82,0,0,1-1-7.33A34.66,34.66,0,0,1,325,350h0l2.27-10.72h0v0q.39-.81.71-1.64a17,17,0,0,0,1.13-5.28h0l0-.29.12.07c.12-.33.23-.67.35-1l.13-.37A77,77,0,0,0,333,318.46c.07-.41.16-.82.23-1.23l0-.1.56-1.15.82-1.69.18-.37h0l1.67-8L337,303a.37.37,0,0,0,.12-.56h0C337.48,301.59,337.77,300.87,338,300.24Z" transform="translate(-6.17 -292.28)"/><path class="cls-2" d="M532.13,292.93h0c-7.62-1.28-15.3-.23-22.94-.56L509,295h0a.81.81,0,0,0-.15.89h0A32.52,32.52,0,0,0,507.09,306a235.27,235.27,0,0,0-4,25.05h0l-.32-.12-1.84,13.92-.07.1a3.51,3.51,0,0,0-.58,1.15,9.35,9.35,0,0,0-.18,2.87l2.9-.09a70,70,0,0,1,8.86.23c5.44.8,7.44-1.71,7.31-6.74h0l5.06-16.29a2.09,2.09,0,0,1,.71-2.13,18.35,18.35,0,0,1,1.85-7l.3-3.64h0l.5-1.49,3.31-9.83v0C530.46,298.82,533.35,296.15,532.13,292.93Z" transform="translate(-6.17 -292.28)"/><path class="cls-2" d="M126.58,358.56a.86.86,0,0,0,.24.4Z" transform="translate(-6.17 -292.28)"/><path class="cls-2" d="M406.1,317.76a8.06,8.06,0,0,0-1-5.11h0l-.16-1.65a27.57,27.57,0,0,0-1.84-9.25h0l-.31-2.72h0l.15-2,0,0c-1.23-1.07-2.74-.94-4.21-.94q-24.31,0-48.62,0c-1.12,0-2.35-.28-3.2.83h0c-1.29,1.44-.64,3.19-.65,4.78-.08,7.33,0,14.66,0,22q0,55.47,0,110.95c0,3.07-.13,5.37,4.25,5.3,15.66-.24,31.32-.17,47,0,3,0,4.13-1.13,4.56-3.89.77-4.93,1.34-9.92,2.91-14.69,0-.13.08-.26.12-.39h0l.25-5.55h0c.95-1.19,1.28-2.35-.15-3.4l-.06-.05c-8.48.07-17,0-25.43.29-3,.09-3.61-1.05-3.58-3.75.09-8.48-.06-17-.11-25.44,1.27-1.6,3-.88,4.59-.92,6.41-.15,12.83-.18,19.24-.26h0c0-.28,0-.56,0-.83,0-1,0-2.06,0-3.1.07-5.68.57-11.37-.08-17a37.1,37.1,0,0,0-.6-3.68l0-.12h0l-2.06.34L378,357h-2v-2.55q.06-14.15.12-28.3,0-1.5,0-3a2.47,2.47,0,0,0,.86-.24h24c2.27-.45,6.11,2.38,6.09-2.84,0,0,0,0,0-.07h0ZM355,427h0v-.05l0,0Z" transform="translate(-6.17 -292.28)"/></svg>