<svg xmlns="http://www.w3.org/2000/svg" viewBox="0 0 266.27 104.95"><defs><style>.a{fill:#fff;}</style></defs><title>tbe</title><path class="a" d="M192.3,369.05a5.35,5.35,0,0,1-3.57-3.58c-.83-3.25-.73-10.17-.73-10.17V344.22c-2.85,4.25-5.42,8.77-8.21,13a72.88,72.88,0,0,0-4.36,6.77,13.84,13.84,0,0,0-1.63,6.21,12.39,12.39,0,0,0,4.37,9,19.71,19.71,0,0,0,9.24,4.31,65.27,65.27,0,0,0,11.51.8c2.61.06,5.24.23,7.85.18,2.08-.05,4,.49,5.23,2.36a.66.66,0,0,1,.15.4.64.64,0,0,1-.15.36,7.41,7.41,0,0,1-3.27,2.24,75.08,75.08,0,0,0-9.22,5,4.53,4.53,0,0,0-1.28,1.06,1.54,1.54,0,0,0-.19,1.58,2.3,2.3,0,0,0,.89.77c2.46,1.46,4.65,3.07,7,4.71a26.49,26.49,0,0,0,7.08,3.21,3.14,3.14,0,0,0,2.68,0c.53-.35,1-1,1.59-.94a1.37,1.37,0,0,1,.56.29c3.83,2.83,4.16,7.09,4.94,11.4a8.89,8.89,0,0,0,1.1,2.06c.68,1.27,1.38,2.49,2.09,3.75,1.67,3,3.27,6.55,3.22,10,0,1.37-.3,2.73-.38,4.1a14.15,14.15,0,0,0,2.14,8.33,6.35,6.35,0,0,0,.63.84,5.37,5.37,0,0,0,3.33,1.48c.59.07,2.74-.3,3.11,0,0,0,1.73,1.57,2.2,1.57h5.18V392.45q0-11.62,0-23.24c0,.17-25.14.23-27.09.25-6.79.06-13.57.19-20.35.31A15,15,0,0,1,192.3,369.05Zm33.4,39.06c-2.11,0-4.82-2.92-4.82-5.06a3.86,3.86,0,0,1,2.91-3.77c.35,1.45,4.36,6.33,6.14,7.53C229.26,407.89,227.06,408.11,225.7,408.11Zm15.9,33.77c-2.29-2.22-7.94-3-7.86-4,0-.45.69-.77,1.13-1.1.09-.06,1.07-.66,1.08-.65.27.51-.7,1.3.84,1.78.34.1.7.18,1,.28A14,14,0,0,1,242,440C243.36,441,244.72,444.91,241.6,441.88Z" transform="translate(-173.8 -344.22)"/><text x="-173.8" y="-344.22"></text><text x="-173.8" y="-344.22"></text><path class="a" d="M251.22,374.18h-.76l.12-5.44h21.64l.12,5.44h-.71a8.89,8.89,0,0,0-1-3.23,2.75,2.75,0,0,0-1.42-1.22,10.21,10.21,0,0,0-2.58-.22H263v16a28,28,0,0,0,.13,3.49,1.78,1.78,0,0,0,.66,1.24,3.63,3.63,0,0,0,2,.4h1.09v.77H255.81v-.77H257a3.76,3.76,0,0,0,2-.37,1.7,1.7,0,0,0,.71-1.14,25.74,25.74,0,0,0,.15-3.62v-16h-3.3a13.7,13.7,0,0,0-2.9.2,2.64,2.64,0,0,0-1.39,1.27A9.09,9.09,0,0,0,251.22,374.18Z" transform="translate(-173.8 -344.22)"/><path class="a" d="M292.34,384.34h.79l-.47,7.05H274.18v-.77h.46a3.42,3.42,0,0,0,2.15-.45,2.06,2.06,0,0,0,.62-1.15,28.53,28.53,0,0,0,.13-3.53V374.38a26,26,0,0,0-.14-3.4,1.65,1.65,0,0,0-.64-1.15,4.46,4.46,0,0,0-2.12-.32v-.77h15.94l.53,5.64h-.77A8.84,8.84,0,0,0,289,371a3.21,3.21,0,0,0-1.81-1.25,15.22,15.22,0,0,0-3.39-.26h-3.09V379h2.36a6.31,6.31,0,0,0,2.28-.28,1.49,1.49,0,0,0,.86-.86,8,8,0,0,0,.2-2.25h.78v7.75h-.78a6.68,6.68,0,0,0-.31-2.53,1.53,1.53,0,0,0-.91-.84,7.83,7.83,0,0,0-2-.19h-2.45v5.36q0,4,.51,4.74c.34.47,1.25.71,2.74.71h1.66a7.73,7.73,0,0,0,2.9-.46,5.2,5.2,0,0,0,2.16-1.89A10.92,10.92,0,0,0,292.34,384.34Z" transform="translate(-173.8 -344.22)"/><path class="a" d="M308.14,378.83l5.77,7.13q3.09,3.81,3.93,4.23a4.77,4.77,0,0,0,2.19.43v.77H309v-.77a6,6,0,0,0,2.33-.31,1.06,1.06,0,0,0,.67-1,1.8,1.8,0,0,0-.31-.94,23,23,0,0,0-1.57-2.08l-4-5-3.5,4.31a25.5,25.5,0,0,0-1.61,2.14,2.18,2.18,0,0,0-.38,1.17c0,1.14.85,1.71,2.56,1.72v.77h-8.63v-.77a6.59,6.59,0,0,0,2.52-.63,7.27,7.27,0,0,0,2.08-1.51,37.93,37.93,0,0,0,2.72-3.24l3.73-4.56-5.87-7.16-1.89-2.31a5.22,5.22,0,0,0-1.31-1.22,3.63,3.63,0,0,0-2-.48v-.77h9.51v.77h-.32c-1.25,0-1.87.34-1.87,1a1.64,1.64,0,0,0,.29.89,17.28,17.28,0,0,0,1.34,1.73l4.09,5,3.7-4.71c.79-1,1.27-1.62,1.44-1.9a1.55,1.55,0,0,0,.26-.82,1,1,0,0,0-.66-1,6.21,6.21,0,0,0-2.24-.28v-.77h8.38v.77a5.26,5.26,0,0,0-3.6,1.27,26.2,26.2,0,0,0-3.21,3.54Z" transform="translate(-173.8 -344.22)"/><path class="a" d="M334.69,383h-8.48l-.57,1.43a14.55,14.55,0,0,0-1.28,4.08,1.8,1.8,0,0,0,.68,1.54,2.78,2.78,0,0,0,1.75.53v.77h-6.63v-.77a3.55,3.55,0,0,0,2.2-1.06,12.76,12.76,0,0,0,1.75-3.48c.05-.17.32-.82.79-1.94l6.48-15.72H332l7.45,18,1,2.37a3.06,3.06,0,0,0,.93,1.26,3.37,3.37,0,0,0,1.75.58v.77h-8.76v-.77a6.53,6.53,0,0,0,2.18-.24.94.94,0,0,0,.56-1,9.74,9.74,0,0,0-.75-2.19Zm-.28-.76-4-9.65-3.93,9.65Z" transform="translate(-173.8 -344.22)"/><path class="a" d="M344.9,391.15v-7.28h.82q1.41,7.13,6.63,7.12a4.82,4.82,0,0,0,3.65-1.36,4.34,4.34,0,0,0,1.29-3.05,3.91,3.91,0,0,0-1.14-2.86,13.79,13.79,0,0,0-4.14-2.44,30.93,30.93,0,0,1-4.05-2,6.29,6.29,0,0,1-2.13-2.28,6.18,6.18,0,0,1-.76-3,5.42,5.42,0,0,1,1.65-4,5.77,5.77,0,0,1,4.19-1.61,7.56,7.56,0,0,1,2.66.47,6.87,6.87,0,0,1,2.57,1.94,3.63,3.63,0,0,0,.85-2h.73v5.93H357a7.92,7.92,0,0,0-2.21-4.08,5.21,5.21,0,0,0-3.68-1.48,3.48,3.48,0,0,0-3.85,3.49,3.48,3.48,0,0,0,1.17,2.65,15.78,15.78,0,0,0,4.16,2.47,42.67,42.67,0,0,1,4.19,2.1,5.93,5.93,0,0,1,2.1,2.2,6.43,6.43,0,0,1,.79,3.24,6.26,6.26,0,0,1-1.91,4.73,7.09,7.09,0,0,1-5.1,1.82,7.74,7.74,0,0,1-6.12-2.86,5.83,5.83,0,0,0-.81,2.2Z" transform="translate(-173.8 -344.22)"/><path class="a" d="M261.33,407.61a9.37,9.37,0,0,1,5.65,1.93,5.26,5.26,0,0,1,1.84,4.09,5.69,5.69,0,0,1-1.25,3.68,5.77,5.77,0,0,1-3.2,2,22.68,22.68,0,0,1-5.22.48h-8.76V419h.86a3.76,3.76,0,0,0,2-.37,1.65,1.65,0,0,0,.7-1.14,25.74,25.74,0,0,0,.15-3.62v-11a23.24,23.24,0,0,0-.16-3.56,1.52,1.52,0,0,0-.65-1.1,5.1,5.1,0,0,0-2.2-.3h-.43v-.77l3.67-.1,4.18-.14q9.15,0,9.14,5.35a4.41,4.41,0,0,1-1.57,3.54A9.3,9.3,0,0,1,261.33,407.61Zm-4-.31H258c2.37,0,4-.37,4.86-1.13a4.67,4.67,0,0,0,1.3-3.68,6,6,0,0,0-.51-2.74,3.5,3.5,0,0,0-1.53-1.49,8.27,8.27,0,0,0-3.49-.53c-.43,0-.87,0-1.32.05Zm0,.82v5a40.66,40.66,0,0,0,.12,4.09,2.06,2.06,0,0,0,.62,1.32,3.08,3.08,0,0,0,2,.45,5.22,5.22,0,0,0,4-1.37,5.75,5.75,0,0,0,1.31-4.11,5.24,5.24,0,0,0-1.49-4.13q-1.49-1.34-5.24-1.33C258.16,408.08,257.74,408.09,257.3,408.12Z" transform="translate(-173.8 -344.22)"/><path class="a" d="M287.18,397.16h7.45v.77a4,4,0,0,0-2.21.67,2.35,2.35,0,0,0-.9,1.3,15.24,15.24,0,0,0-.16,2.79v7.53a29.39,29.39,0,0,1-.23,4.29,5.86,5.86,0,0,1-1.28,2.76,7.21,7.21,0,0,1-3,2.15,11.43,11.43,0,0,1-4.45.81,11.32,11.32,0,0,1-5-1,6.47,6.47,0,0,1-2.94-2.66,9.16,9.16,0,0,1-.88-4.37V402.8a24.43,24.43,0,0,0-.15-3.49,1.56,1.56,0,0,0-.66-1.08,5.1,5.1,0,0,0-2.2-.3h-.51v-.77h10.19v.77h-.45a5.42,5.42,0,0,0-2.15.27,1.5,1.5,0,0,0-.69,1,22.28,22.28,0,0,0-.17,3.57v7.14a27.69,27.69,0,0,0,.34,5.26,4.59,4.59,0,0,0,1.9,2.71,6.77,6.77,0,0,0,4.16,1.16,8.8,8.8,0,0,0,3.71-.77,6.1,6.1,0,0,0,2.48-1.94,5.5,5.5,0,0,0,1-2.39,29.63,29.63,0,0,0,.18-3.87v-7.71a11.67,11.67,0,0,0-.21-2.69,2.08,2.08,0,0,0-.92-1.22,4.86,4.86,0,0,0-2.24-.55Z" transform="translate(-173.8 -344.22)"/><path class="a" d="M315.42,413.14l-.16,6.67H296.31V419H297a3.76,3.76,0,0,0,2-.37,1.7,1.7,0,0,0,.71-1.14,25.74,25.74,0,0,0,.15-3.62V402.8a24.43,24.43,0,0,0-.15-3.49,1.56,1.56,0,0,0-.66-1.08,5.1,5.1,0,0,0-2.2-.3h-.49v-.77H307v.77h-1a5.48,5.48,0,0,0-2.16.27,1.49,1.49,0,0,0-.68,1,22.28,22.28,0,0,0-.17,3.57v11.86a20.39,20.39,0,0,0,.13,3.08,1.44,1.44,0,0,0,.72,1,5.81,5.81,0,0,0,2.51.34h1.69a9.24,9.24,0,0,0,3.05-.37,4.24,4.24,0,0,0,1.89-1.6,12.53,12.53,0,0,0,1.64-3.93Z" transform="translate(-173.8 -344.22)"/><path class="a" d="M335.77,413.14l-.16,6.67H316.66V419h.65a3.78,3.78,0,0,0,2-.37,1.68,1.68,0,0,0,.7-1.14,23.68,23.68,0,0,0,.16-3.62V402.8a22.47,22.47,0,0,0-.16-3.49,1.52,1.52,0,0,0-.65-1.08,5.1,5.1,0,0,0-2.2-.3h-.49v-.77h10.71v.77h-1a5.48,5.48,0,0,0-2.16.27,1.49,1.49,0,0,0-.68,1,22.28,22.28,0,0,0-.17,3.57v11.86a20.39,20.39,0,0,0,.13,3.08,1.44,1.44,0,0,0,.72,1,5.75,5.75,0,0,0,2.5.34h1.7a9.24,9.24,0,0,0,3.05-.37,4.3,4.3,0,0,0,1.89-1.6,12.53,12.53,0,0,0,1.64-3.93Z" transform="translate(-173.8 -344.22)"/><path class="a" d="M336.92,397.93v-.77h10.2v.77h-.47a5.48,5.48,0,0,0-2.16.27,1.46,1.46,0,0,0-.68,1,21.09,21.09,0,0,0-.17,3.57v11.11a31.2,31.2,0,0,0,.12,3.5,1.78,1.78,0,0,0,.66,1.23,3.63,3.63,0,0,0,2.05.4h.65v.77h-10.2V419h.66a3.72,3.72,0,0,0,2-.37,1.65,1.65,0,0,0,.7-1.14,25.74,25.74,0,0,0,.15-3.62V402.8a24.43,24.43,0,0,0-.15-3.49,1.49,1.49,0,0,0-.65-1.08,5.16,5.16,0,0,0-2.21-.3Z" transform="translate(-173.8 -344.22)"/><path class="a" d="M349.71,408.33a10.91,10.91,0,0,1,3.45-8.42,12.28,12.28,0,0,1,8.62-3.17,12.56,12.56,0,0,1,8.71,3.14,10.94,10.94,0,0,1,3.5,8.57,11.36,11.36,0,0,1-3.35,8.52,13.41,13.41,0,0,1-17.53,0A11.39,11.39,0,0,1,349.71,408.33Zm3.76.12q0,5.46,2.15,8.2t6.44,2.74a7.22,7.22,0,0,0,6-2.74q2.18-2.75,2.18-8.17c0-3.52-.72-6.21-2.15-8.09a8.35,8.35,0,0,0-12.43-.07C354.19,402.16,353.47,404.86,353.47,408.45Z" transform="translate(-173.8 -344.22)"/><path class="a" d="M396.44,420.33,380.67,399.1v15.71a10.74,10.74,0,0,0,.19,2.58,2.11,2.11,0,0,0,1.07,1.13,5.39,5.39,0,0,0,2.67.52v.77h-8.33V419a6.08,6.08,0,0,0,2.44-.59,1.89,1.89,0,0,0,1-1,12.29,12.29,0,0,0,.16-2.61v-12a16.2,16.2,0,0,0-.24-3.49,1.6,1.6,0,0,0-.76-1.13,6.44,6.44,0,0,0-2.31-.25v-.77h6.58l13.21,17.72V401.33a5.15,5.15,0,0,0-.3-2.1,2.13,2.13,0,0,0-1.24-1,6.35,6.35,0,0,0-2.26-.35v-.77h8.1v.77a5.63,5.63,0,0,0-2.23.55,2,2,0,0,0-1,1,6.68,6.68,0,0,0-.22,2.06v18.75Z" transform="translate(-173.8 -344.22)"/><path class="a" d="M268.84,441.18h.79l-.48,7.05H250.67v-.77h.46a3.42,3.42,0,0,0,2.15-.45,2.06,2.06,0,0,0,.62-1.15,26.53,26.53,0,0,0,.13-3.53V431.22a26,26,0,0,0-.14-3.4,1.62,1.62,0,0,0-.64-1.15,4.46,4.46,0,0,0-2.12-.32v-.77h15.95l.52,5.64h-.77a8.86,8.86,0,0,0-1.29-3.36,3.27,3.27,0,0,0-1.82-1.25,15.22,15.22,0,0,0-3.39-.26h-3.09v9.5h2.37a6.39,6.39,0,0,0,2.28-.28,1.5,1.5,0,0,0,.85-.86,7.84,7.84,0,0,0,.21-2.25h.77v7.75H263a6.62,6.62,0,0,0-.32-2.53,1.5,1.5,0,0,0-.91-.84,7.83,7.83,0,0,0-2-.19h-2.45V442q0,4,.51,4.74c.34.47,1.25.71,2.75.71h1.66a7.67,7.67,0,0,0,2.89-.46,5.28,5.28,0,0,0,2.17-1.89A11.29,11.29,0,0,0,268.84,441.18Z" transform="translate(-173.8 -344.22)"/><path class="a" d="M284.63,435.67l5.77,7.13q3.09,3.81,3.93,4.23a4.77,4.77,0,0,0,2.19.43v.77h-11v-.77a6,6,0,0,0,2.32-.31,1.06,1.06,0,0,0,.67-1,1.87,1.87,0,0,0-.3-.94c-.21-.34-.73-1-1.57-2.08l-4-5-3.5,4.31a25.5,25.5,0,0,0-1.61,2.14,2.27,2.27,0,0,0-.38,1.17c0,1.14.86,1.71,2.57,1.72v.77H271v-.77a6.59,6.59,0,0,0,2.52-.63,7.31,7.31,0,0,0,2.09-1.51,38.28,38.28,0,0,0,2.71-3.24l3.73-4.56-5.87-7.16-1.89-2.31a5.05,5.05,0,0,0-1.31-1.22,3.63,3.63,0,0,0-2-.48v-.77h9.51v.77h-.31c-1.25,0-1.88.34-1.88,1a1.73,1.73,0,0,0,.29.89A19,19,0,0,0,280,430l4.09,5.05,3.71-4.71c.79-1,1.27-1.62,1.44-1.9a1.53,1.53,0,0,0,.25-.82,1,1,0,0,0-.66-1,6.18,6.18,0,0,0-2.23-.28v-.77H295v.77a5.26,5.26,0,0,0-3.6,1.27,26.2,26.2,0,0,0-3.21,3.54Z" transform="translate(-173.8 -344.22)"/><path class="a" d="M316,439.73h.71v7.93H316a6.12,6.12,0,0,0-1.07-2.39,9.53,9.53,0,0,1-7.52,3.38,10.64,10.64,0,0,1-7.9-3.11,11.17,11.17,0,0,1-3.07-8.22,14.37,14.37,0,0,1,1.42-6.32,9.58,9.58,0,0,1,3.95-4.4,11,11,0,0,1,5.56-1.44,9.87,9.87,0,0,1,4.53,1,9.15,9.15,0,0,1,3,2.32,8.48,8.48,0,0,0,.86-2.94h.72l.2,8.58H316q-.73-4.57-3-6.36a8.12,8.12,0,0,0-5.14-1.79,6.53,6.53,0,0,0-5.57,2.89c-1.37,1.93-2.06,4.68-2.06,8.27q0,5.1,2.25,7.81a7,7,0,0,0,5.61,2.71,8.54,8.54,0,0,0,3.67-.88,6.45,6.45,0,0,0,3-3A11.34,11.34,0,0,0,316,439.73Z" transform="translate(-173.8 -344.22)"/><path class="a" d="M338.29,436.87H326.64v5.46a30.34,30.34,0,0,0,.13,3.5,1.83,1.83,0,0,0,.67,1.23,3.59,3.59,0,0,0,2,.4h.58v.77H320v-.77h.58a3.76,3.76,0,0,0,2-.37,1.7,1.7,0,0,0,.71-1.14,25.74,25.74,0,0,0,.15-3.62V431.22a24.43,24.43,0,0,0-.15-3.49,1.56,1.56,0,0,0-.66-1.08,5.07,5.07,0,0,0-2.2-.3H320v-.77h10v.77h-.41a5.39,5.39,0,0,0-2.14.27,1.46,1.46,0,0,0-.68,1,20.67,20.67,0,0,0-.18,3.57v4.5h11.65v-4.5a24.43,24.43,0,0,0-.15-3.49,1.49,1.49,0,0,0-.65-1.08,5,5,0,0,0-2.19-.3h-.6v-.77h10.15v.77h-.33a5.45,5.45,0,0,0-2.15.27,1.46,1.46,0,0,0-.68,1,20.67,20.67,0,0,0-.18,3.57v11.11a28.11,28.11,0,0,0,.13,3.5,1.78,1.78,0,0,0,.66,1.23,3.68,3.68,0,0,0,2,.4h.51v.77H334.7v-.77h.78a3.7,3.7,0,0,0,2-.37,1.65,1.65,0,0,0,.7-1.14,25.74,25.74,0,0,0,.15-3.62Z" transform="translate(-173.8 -344.22)"/><path class="a" d="M360.53,439.88h-8.47l-.58,1.43a14.92,14.92,0,0,0-1.28,4.08,1.83,1.83,0,0,0,.68,1.54,2.8,2.8,0,0,0,1.75.53v.77H346v-.77a3.58,3.58,0,0,0,2.21-1.06,13.12,13.12,0,0,0,1.74-3.48c.06-.17.32-.82.79-1.94l6.48-15.72h.65l7.45,18,1,2.37a3.06,3.06,0,0,0,.93,1.26,3.34,3.34,0,0,0,1.75.58v.77h-8.77v-.77a6.49,6.49,0,0,0,2.18-.24.94.94,0,0,0,.57-1,9.47,9.47,0,0,0-.76-2.19Zm-.28-.76-3.95-9.65-3.93,9.65Z" transform="translate(-173.8 -344.22)"/><path class="a" d="M389.55,448.75l-15.78-21.23v15.71a11.31,11.31,0,0,0,.19,2.58,2.18,2.18,0,0,0,1.08,1.13,5.34,5.34,0,0,0,2.66.52v.77h-8.32v-.77a6.12,6.12,0,0,0,2.44-.59,1.89,1.89,0,0,0,1-1,12.29,12.29,0,0,0,.16-2.61v-12a16.2,16.2,0,0,0-.24-3.49,1.6,1.6,0,0,0-.76-1.13,6.44,6.44,0,0,0-2.31-.25v-.77h6.58l13.21,17.72V429.75a5.15,5.15,0,0,0-.3-2.1,2.16,2.16,0,0,0-1.25-.95,6.26,6.26,0,0,0-2.25-.35v-.77h8.09v.77a5.62,5.62,0,0,0-2.22.55,2,2,0,0,0-1,1,6.68,6.68,0,0,0-.22,2.06v18.75Z" transform="translate(-173.8 -344.22)"/><path class="a" d="M409.62,438.56h9.62v.8a5,5,0,0,0-2.16.32,1.61,1.61,0,0,0-.75,1.09,21.81,21.81,0,0,0-.18,3.68v2.41a3.78,3.78,0,0,0-.71-.07,9.76,9.76,0,0,0-3.32.79,14.63,14.63,0,0,1-5.18,1.07,10.76,10.76,0,0,1-8-3.2,11,11,0,0,1-3.18-8.11,13,13,0,0,1,3-8.52,10.11,10.11,0,0,1,8.22-3.66,9.43,9.43,0,0,1,7.41,3.34,8.11,8.11,0,0,0,.69-2.52h.79v7.57h-.79a9.09,9.09,0,0,0-2.61-5.53,7.21,7.21,0,0,0-5.17-2,7.43,7.43,0,0,0-5.48,2.37q-2.34,2.37-2.34,8.42t2.25,8.54a7.22,7.22,0,0,0,5.6,2.52,6.81,6.81,0,0,0,3.11-.71,4.14,4.14,0,0,0,1.91-1.73,5.74,5.74,0,0,0,.51-2.57,7.84,7.84,0,0,0-.24-2.43,1.38,1.38,0,0,0-.74-.82,5.18,5.18,0,0,0-1.8-.21h-.53Z" transform="translate(-173.8 -344.22)"/><path class="a" d="M439.28,441.18h.79l-.48,7.05H421.12v-.77h.46a3.44,3.44,0,0,0,2.15-.45,2,2,0,0,0,.61-1.15,26.53,26.53,0,0,0,.13-3.53V431.22a24.29,24.29,0,0,0-.14-3.4,1.58,1.58,0,0,0-.64-1.15,4.41,4.41,0,0,0-2.11-.32v-.77h15.94l.53,5.64h-.78a8.86,8.86,0,0,0-1.29-3.36,3.27,3.27,0,0,0-1.82-1.25,15.22,15.22,0,0,0-3.39-.26h-3.09v9.5h2.37a6.31,6.31,0,0,0,2.28-.28,1.47,1.47,0,0,0,.85-.86,7.84,7.84,0,0,0,.21-2.25h.77v7.75h-.77a6.68,6.68,0,0,0-.31-2.53,1.54,1.54,0,0,0-.92-.84,7.78,7.78,0,0,0-2-.19h-2.45V442q0,4,.51,4.74c.34.47,1.26.71,2.75.71h1.66a7.77,7.77,0,0,0,2.9-.46,5.32,5.32,0,0,0,2.16-1.89A11.29,11.29,0,0,0,439.28,441.18Z" transform="translate(-173.8 -344.22)"/></svg>