<svg xmlns="http://www.w3.org/2000/svg" viewBox="0 0 535.92 189.84"><defs><style>.a{fill:none;}.b{fill:#ad744d;}.c{fill:#c9c9c9;}.d{fill:#fff;}</style></defs><title>desert_diamond_w</title><path class="a" d="M325.42,326.24h0Z" transform="translate(-38.24 -302.24)"/><path class="a" d="M236.28,322.65l0,0,0,0Z" transform="translate(-38.24 -302.24)"/><path class="a" d="M248.91,329.79h0l0,0H249Z" transform="translate(-38.24 -302.24)"/><path class="a" d="M376.16,322.6l-.05,0h.11Z" transform="translate(-38.24 -302.24)"/><path class="b" d="M270.86,310.06c-.79-.81-1.18-.87-2,0-5.47,5.56-11,11.05-16.52,16.57-.32.32-.53.76-1.07.15-2.67-3-5.4-6-8.05-9.06-.89-1-1.87-1.95-2.74-3-1.18-1.42-1.12-1.45-2.26-.15q-4.59,5.2-9.2,10.4a3.65,3.65,0,0,0-.87,1.4h13.7c-1.9-1.53-2.55-4.2-5.55-3.71h-.05l0,0c.6-.74,1.07-1.36,1.58-1.93,1.5-1.65,1.5-1.65,2.92.11a3.07,3.07,0,0,0,.26.25c2,2.22,4.15,4.39,6.13,6.67a24.26,24.26,0,0,1,1.76,2.07l.05,0H225.89c-.39,0-.83-.16-1.16.13a21,21,0,0,0-3,3.38H390.84A16,16,0,0,1,389,331.3a3.59,3.59,0,0,0-3.25-1.5c-7,.1-14.08,0-21.12,0-.36,0-.78.19-1.09-.15,2.95-3.3,5.89-6.57,8.81-9.85.45-.51.79-.7,1.31-.06.74.92,1.56,1.78,2.49,2.83l.06.06h-.11c-3-.4-3.71,2.16-5.42,3.73h13.74a19.73,19.73,0,0,0-1.38-1.79c-1.73-1.91-3.39-3.86-5.1-5.79-1.44-1.63-2.91-3.23-4.36-4.86-.36-.4-.65-.54-1-.05-1.31,1.64-2.78,3.14-4.17,4.71-.81.93-1.68,1.8-2.49,2.72l-5.2,5.9c-5.78-5.79-11.53-11.52-17.24-17.29-.69-.7-1-.74-1.75,0-5.38,5.46-10.82,10.88-16.27,16.33v0h0c-1.2-1.28-2.38-2.51-3.52-3.78-3.25-3.62-6.46-7.28-9.72-10.9-1.83-2-3.79-3.95-5.52-6.08-.89-1.09-2.16-1.88-2.72-3.25h-.72l-18.82,21.38C279.83,319.07,275.31,314.6,270.86,310.06Zm33.19-1.82q3.81,4.32,7.65,8.6c1.64,1.83,3.3,3.64,4.95,5.45,1.82,2,3.66,4,5.47,6,.61.67.34,1.42-.57,1.58a6,6,0,0,1-.95,0c-9.52,0-19,0-28.54,0a2.89,2.89,0,0,1-2.49-1c-.65-.76-1.43-1.4-2.43-2.37h28.31l-11.92-12.9c-1.7,1.57-3,3.51-4.75,5.47,1.36,0,2.49,0,3.62,0a1.74,1.74,0,0,1,1.56.64,19,19,0,0,1,2.6,2.91H290.32a22.4,22.4,0,0,1,2.15-2.47c2.23-2.62,4.6-5.13,6.9-7.69q1.88-2.07,3.69-4.18C303.43,307.81,303.67,307.8,304.05,308.24Z" transform="translate(-38.24 -302.24)"/><path class="b" d="M568.08,330.05q-81.29.06-162.57.05a2.36,2.36,0,0,1-2.05-.91c-1.18-1.49-2.67-2.76-3.72-4.3-1.45-2.16-3.33-2.45-5.62-2.28-1.72.14-3.46,0-5.32,0a6.74,6.74,0,0,0,1.35,1.88c2.44,2.39,4.65,5,6.86,7.57a3.52,3.52,0,0,0,2.94,1.39q87.1-.08,174.21,0v-.24c-.81-.61-1.67-1.18-2.43-1.85A5.16,5.16,0,0,0,568.08,330.05Z" transform="translate(-38.24 -302.24)"/><path class="b" d="M216,331.35c1.74-2.38,4-4.37,6-6.62a6.15,6.15,0,0,0,1.57-2.09c-2.57,0-5,.08-7.44,0a2.65,2.65,0,0,0-2.5,1.25,15,15,0,0,1-1.49,1.68,39.26,39.26,0,0,0-2.93,3.28,2.66,2.66,0,0,1-2.43,1.29q-81.54,0-163.07,0h-1a1.12,1.12,0,0,0-.76.23c-1.23,1-2.48,1.93-3.72,2.89v.24q86.26,0,172.54,0C212.89,333.47,214.57,333.31,216,331.35Z" transform="translate(-38.24 -302.24)"/><path class="c" d="M267.54,491.69a7.2,7.2,0,0,0,4.07-9.74,7.28,7.28,0,1,0-12.8,6.87,8.39,8.39,0,0,0,4.55,3.26h3.36C266.87,491.71,267.26,491.79,267.54,491.69ZM265,488.56a3.34,3.34,0,0,1-3.37-3.58,3.45,3.45,0,0,1,3.28-3.7,3.57,3.57,0,0,1,3.46,3.69A3.4,3.4,0,0,1,265,488.56Z" transform="translate(-38.24 -302.24)"/><path class="c" d="M308.9,489.67c-1.18-.79-1.25-1.67-.31-2.7.19-.2.26-.5.43-.72.44-.56.26-.83-.34-1.15-1.66-.87-1.65-.9-2.67.73a3.8,3.8,0,0,1-.29.38c-1.41-1-1.41-1-.2-2.07a3.57,3.57,0,0,0,.49-5,4.64,4.64,0,0,0-5.73-.64,3.73,3.73,0,0,0-1.31,4.86c.31.7.21.95-.4,1.38a3.88,3.88,0,0,0,.6,6.94c.24.11.57.11.67.44h2.88c.82-.38,1.66-.7,2.49-1.08s1.08.66,1.59,1.08H307a21.52,21.52,0,0,1,1.82-1.36C309.47,490.34,309.39,490,308.9,489.67Zm-5.59-1c-.22.42-.77.48-1.14.5-1.08,0-1.75-.68-1.62-1.56a1.25,1.25,0,0,1,.69-1c.42-.17.6.27.85.49a3.53,3.53,0,0,1,.64.7C302.93,488.1,303.52,488.29,303.31,488.7Zm-.73-5.68c-.61.05-.68-.75-.82-1.26,0-.7.29-1.21,1-1.25s.93.35,1,1A1.35,1.35,0,0,1,302.58,483Z" transform="translate(-38.24 -302.24)"/><path class="c" d="M229.49,487.6c0-2-1.05-3.17-3.52-3.94-1-.33-2.07-.59-3.1-.91a.84.84,0,0,1-.7-.85.94.94,0,0,1,.91-.82,5.71,5.71,0,0,1,2.34.36c.68.17,1.22,1.09,1.9.67s.82-1.16,1.29-1.69.37-.9-.22-1.3a9,9,0,0,0-5.75-1.22,4.43,4.43,0,0,0-4.31,3.92c-.23,2.08.8,3.49,3.19,4.28,1,.34,2.07.58,3.1.9.5.15,1.08.35,1,1s-.72.76-1.3.79a7.05,7.05,0,0,1-2.79-.52c-.66-.24-1.14-1.17-1.84-.82s-.9,1.1-1.42,1.59-.37.93.21,1.38c1,.78,2.32,1,3.38,1.65h3.6a1,1,0,0,1,.27-.2C228.24,491.18,229.47,489.79,229.49,487.6Z" transform="translate(-38.24 -302.24)"/><path class="c" d="M285.73,490.33a4,4,0,0,0-1.38-6.24,39.91,39.91,0,0,0-4.12-1.26c-.46-.17-.92-.39-.8-1s.58-.72,1.08-.76a6.26,6.26,0,0,1,2.22.43c.63.18,1.17,1,1.77.69s.82-1.05,1.22-1.6a1.33,1.33,0,0,1,.14-.19c.43-.51.35-.87-.24-1.23a8.75,8.75,0,0,0-7.15-.95,3.92,3.92,0,0,0-2.55,2.22,3.78,3.78,0,0,0,2,5.37c1.25.52,2.59.8,3.88,1.21.5.15,1.06.35,1,1s-.72.74-1.29.78a5.93,5.93,0,0,1-3-.64c-1.62-.82-1.62-.82-2.82.63a.31.31,0,0,1-.07.09c-.83.71-.52,1.16.26,1.69,1,.71,2.29.88,3.34,1.51h3.36c.18-.29.5-.19.76-.27A4.79,4.79,0,0,0,285.73,490.33Z" transform="translate(-38.24 -302.24)"/><path class="c" d="M197,487.89a6.22,6.22,0,0,1-.58-.43c-.48-.46-.9-.54-1.38.06a2.81,2.81,0,0,1-1.86,1,2.87,2.87,0,0,1-3-1.16,3.94,3.94,0,0,1-.31-4.3,3,3,0,0,1,4.74-.93c.85.84,1.29.57,2,0,1.91-1.59,1.89-2-.29-3.34a7.23,7.23,0,1,0-6.53,12.86c.28.12.65.12.79.47h3.6a12.69,12.69,0,0,0,2.82-1.49C198.67,489.2,198.68,489.11,197,487.89Z" transform="translate(-38.24 -302.24)"/><path class="c" d="M305.21,491c-.83.38-1.67.7-2.49,1.08h4.08C306.29,491.66,306.06,490.61,305.21,491Z" transform="translate(-38.24 -302.24)"/><path class="d" d="M209.22,386.74q4.22-4.8,8.4-9.6c1.64-1.87,3.26-3.75,4.9-5.61.25-.28.36-.46,0-.78s-.78-1-1.22-1.43c-2.83-2.9-5.58-5.88-8.36-8.82s-5.65-5.92-8.43-8.92c-2.38-2.57-4.86-5.05-7.3-7.57a2.67,2.67,0,0,1-.56-.61,1.84,1.84,0,0,0-2-1.1q-45.72,0-91.43,0a1.75,1.75,0,0,0-1.67.91Q96.47,351.12,91.3,359c-2.89,4.4-5.89,8.74-8.71,13.19a1.54,1.54,0,0,0-.1,1.8q2.79,5.29,5.56,10.6c2.41,4.64,4.83,9.27,7.2,13.93s4.84,9.37,7.26,14.05,4.87,9.52,7.36,14.24,4.9,9.34,7.27,14,4.73,9.24,7.15,13.84c2.16,4.11,4.23,8.28,6.35,12.42a29.5,29.5,0,0,1,2,4,3.46,3.46,0,0,1-.51-.49c-2.92-4.65-5.82-9.32-8.76-14q-6.27-9.91-12.58-19.81-5.6-8.82-11.2-17.66-6.67-10.49-13.36-21-6-9.45-12-18.94c-1.31-2.06-2.62-4.11-3.91-6.18-.21-.35-.58-.64-.13-1.22,2.46-3.08,4.85-6.21,7.23-9.35,5-6.65,10-13.32,15.11-20.09a1.86,1.86,0,0,0-.43-.1c-7.64,0-15.28,0-22.92,0a1.4,1.4,0,0,0-1.11.53c-1,1-1.88,2-2.84,3-2.76,2.85-5.44,5.78-8.18,8.66s-5.76,6-8.59,9.09c-2.16,2.34-4.39,4.62-6.64,6.87-.65.65-.46,1,.07,1.55,1.69,1.78,3.33,3.6,5,5.42q5.4,6,10.78,12c1.54,1.7,3.08,3.39,4.61,5.1L72.62,406.1c1.59,1.77,3.2,3.51,4.79,5.27,3.34,3.73,6.67,7.48,10,11.21,1.69,1.89,3.43,3.73,5.12,5.61,3.32,3.7,6.61,7.43,9.94,11.13,1.77,2,3.59,3.9,5.37,5.87q5.24,5.81,10.44,11.63c1.56,1.73,3.15,3.45,4.7,5.19,3.09,3.47,6.19,6.95,9.24,10.46.75.86,1.13.12,1.5-.28,1.42-1.58,2.78-3.21,4.2-4.8,2.12-2.39,4.28-4.75,6.4-7.15q4.44-5,8.83-10c1.3-1.49,2.6-3,3.93-4.43,2.85-3.16,5.61-6.39,8.42-9.59,1.36-1.54,2.75-3.05,4.11-4.59,2.64-3,5.25-6.08,7.9-9.09,2.11-2.4,4.28-4.75,6.41-7.15q4.42-5,8.82-10,2-2.24,3.93-4.43c2.88-3.19,5.67-6.45,8.51-9.67C206.53,389.73,207.89,388.25,209.22,386.74Z" transform="translate(-38.24 -302.24)"/><path class="d" d="M408.56,457.66c0-1.75,0-1.77-1.67-1.81a11.33,11.33,0,0,1-1.85-.3c-1.41-.27-2.66-.89-3-2.53a14.76,14.76,0,0,1-.46-2.75c.12-10.14-.33-20.29.22-30.42a3.66,3.66,0,0,1,3.78-3.85c.87-.05,2,.38,2.53-.17s.12-1.75.17-2.66c0-.2,0-.4,0-.6.14-.76-.2-.91-.92-.91-5.88,0-11.76,0-17.64,0a1.27,1.27,0,0,0-1.34.87c-1.5,3.26-3,6.54-4.53,9.79q-4.84,10.28-9.76,20.54c-.61-.49-.64-1.25-.93-1.87-1.74-3.63-3.44-7.27-5.15-10.91q-4.11-8.77-8.21-17.55a1.35,1.35,0,0,0-1.47-.86c-5.28,0-10.56,0-15.84,0-2.61,0-2.61,0-2.61,2.56,0,1.76,0,1.71,1.73,1.77,3.12.1,4.47,1.43,4.49,4.44.06,9.92,0,19.84,0,29.76a5.49,5.49,0,0,1-4.74,5.38c-1,.13-1.78.38-1.52,1.68a5.56,5.56,0,0,1,0,1.68c-.09.78.18,1,1,1,4.76,0,9.52,0,14.28,0,2.28,0,2.28,0,2.28-2.29,0-1.75,0-1.69-1.74-2A5.63,5.63,0,0,1,351,451.4a13.36,13.36,0,0,1-.31-3.29c0-7.88,0-15.76,0-23.64v-1.14c1.48,2.7,2.77,5.45,4.07,8.19q3.91,8.22,7.85,16.45c1.61,3.39,3.34,6.73,4.81,10.17a2.46,2.46,0,0,0,2.84,1.82,1.56,1.56,0,0,0,1.58-1c.89-2.05,1.88-4.06,2.84-6.09,2.63-5.6,5.31-11.18,7.87-16.81.66-1.44,1.36-2.86,2-4.31,1.32-3,2.75-5.92,4.14-8.89.1.06.14.08.14.1,0,9.4.05,18.8,0,28.2,0,3-1.12,3.95-3.94,4.55-.92.19-2.2-.31-2.65.44s0,1.87-.13,2.82.28,1,1.07,1c7.68,0,15.36,0,23,0C408.56,459.92,408.56,459.92,408.56,457.66Z" transform="translate(-38.24 -302.24)"/><path class="d" d="M439.08,391.46c-.51,3.19-1.32,4.08-4.39,4.38-.7.07-1.65-.34-2,.21s-.09,1.39-.1,2.11a4,4,0,0,1,0,.6c-.14.89.15,1.19,1.13,1.19,7.35-.05,14.71,0,22.07,0,2.72,0,2.66,0,2.75-2.69,0-1.14-.25-1.38-1.4-1.44-3.65-.18-4.88-1.15-5.06-4.44-.22-4,0-7.92-.06-11.88,0-.51.12-.71.66-.68.87,0,1.74.2,2.58.2a4.88,4.88,0,0,1,4.22,2.54c2.19,3.15,3.87,6.61,5.82,9.9q2.25,3.81,4.63,7.52a2,2,0,0,0,1.89,1c3.72-.1,7.44,0,11.16,0,1,0,2.42.47,3-.21s.14-2,.17-3c0-.51,0-.79-.71-.88a6.49,6.49,0,0,1-4.18-2.1,63.64,63.64,0,0,1-5.44-7.57c-2.21-3.4-4.36-6.86-7.58-9.73a16.06,16.06,0,0,0,3.32-1.46,11.31,11.31,0,0,0,5.79-13c-1.17-4.66-4.18-7.48-8.58-9a29.33,29.33,0,0,0-9.76-1.19c-8.32,0-16.64,0-25-.05-1.25,0-1.58.35-1.44,1.51.11.9-.25,2.06.19,2.66s1.64.11,2.5.19c1.55.15,3.42,1.12,3.62,2.89a30.92,30.92,0,0,1,.44,3.48c0,8.59,0,17.19,0,25.79A20.37,20.37,0,0,1,439.08,391.46Zm14.29-35.19c2.39.19,4.84.11,7.09,1.17a5.84,5.84,0,0,1,3.42,4.3,14.22,14.22,0,0,1-.28,7.76A6.58,6.58,0,0,1,458,374a34.6,34.6,0,0,1-5.09.28c-.83,0-1-.28-1-1,0-2.63,0-5.27,0-7.9s.09-5,0-7.55C451.9,356.62,452.48,356.2,453.37,356.27Z" transform="translate(-38.24 -302.24)"/><path class="d" d="M570.56,430.83c-1.75-8.87-7-14.66-15.44-17.74-4-1.44-8.12-1.67-12.23-1.82a123,123,0,0,0-13,.11c-3,.22-6.12.17-9.18.28-2.21.09-2.21,0-2.21,2.26,0,2,0,2,2,2.1,2.6.18,4.15,1.1,4.19,4,.11,10.52.05,21,0,31.55a3.78,3.78,0,0,1-3.48,4c-.89.14-2.11-.08-2.58.42s-.07,1.83-.19,2.77.24,1.17,1.16,1.16c9.1-.16,18.2.22,27.3-.24a39.94,39.94,0,0,0,6.65-.75,21.89,21.89,0,0,0,12.53-7.73A22.47,22.47,0,0,0,571,435.94c0-.71.06-1.59,0-2.47A24.32,24.32,0,0,0,570.56,430.83Zm-14.19,8.84c-.31,3.92-.93,7.78-3.32,11.1a10.45,10.45,0,0,1-8.59,4.57,9.53,9.53,0,0,1-4.11-.31c-1.93-.83-2.61-1.32-2.64-3.75-.08-5.76,0-11.51,0-17.27s0-11.43,0-17.15c0-.86.15-1.18,1.09-1.12,3.87.23,7.7.58,11,2.86a14.83,14.83,0,0,1,5.39,7.74,22.33,22.33,0,0,1,1.23,7.71C556.38,435.92,556.52,437.81,556.37,439.67Z" transform="translate(-38.24 -302.24)"/><path class="d" d="M295.41,391.77a22,22,0,0,0,5.33-12.64,29,29,0,0,0-.39-8.4c-1.84-8.76-7-14.53-15.35-17.61-4.25-1.57-8.74-1.69-13.18-1.86-3.69-.15-7.4-.08-11.11.11-3.45.17-6.91.32-10.38.31-2.09,0-2.09,0-2.09,2.12s0,2.13,2.13,2.2a3.82,3.82,0,0,1,3.9,3,9.93,9.93,0,0,1,.41,3.23c-.08,9.9.33,19.8-.19,29.7a3.77,3.77,0,0,1-3.34,3.69c-.93.11-2.2-.12-2.71.4s-.09,1.9-.21,2.88c-.1.82.15,1.07,1,1.06,4.2-.05,8.4,0,13.63,0,4.47,0,10,.14,15.47-.25a28.7,28.7,0,0,0,4.55-.54A23,23,0,0,0,295.41,391.77Zm-9.29-11.49c-.33,4.13-1.19,8.18-3.95,11.47a10.32,10.32,0,0,1-7.12,3.58,11.45,11.45,0,0,1-4.36-.17c-2.45-.7-3.24-1.64-3.25-4.12,0-5.71,0-11.43,0-17.15s0-11.35,0-17c0-.87.15-1.2,1.09-1.12,3.84.34,7.72.53,11,2.87a14.81,14.81,0,0,1,5.4,7.71,33,33,0,0,1,1.29,7.47A36,36,0,0,1,286.12,380.28Z" transform="translate(-38.24 -302.24)"/><path class="d" d="M255.85,424.32a20.45,20.45,0,0,0-5.71-7.05,26.74,26.74,0,0,0-7.89-4.35,41.18,41.18,0,0,0-12-1.67c-4.3-.1-8.6-.19-12.9.14-3,.23-6.12.1-9.18.27-2.13.12-2.14,0-2.14,2.21s0,2,2.07,2.16,3.33.65,3.84,2.7a10.25,10.25,0,0,1,.35,2.43c0,4.88,0,9.76,0,14.63,0,5.08,0,10.16,0,15.23,0,2.6-1.33,4.34-3.55,4.56-.89.09-2.13-.06-2.54.48s-.06,1.76-.17,2.67.27,1.23,1.24,1.21c9.05-.15,18.11.21,27.17-.24a38,38,0,0,0,5.87-.56,22.25,22.25,0,0,0,13.31-8,23.56,23.56,0,0,0,5-14.14,28.57,28.57,0,0,0-.2-4A23.77,23.77,0,0,0,255.85,424.32Zm-12.13,16a23.14,23.14,0,0,1-2.25,8.85,10.69,10.69,0,0,1-10,6.16,12,12,0,0,1-3.53-.24,4,4,0,0,1-2.79-3.47c-.4-6.19,0-12.37-.19-17.38,0-6.61,0-12,0-17.49,0-.85.21-1.08,1.05-1a25.71,25.71,0,0,1,9.15,1.68c4.09,1.77,6.31,5.18,7.56,9.26A35.37,35.37,0,0,1,243.72,440.35Z" transform="translate(-38.24 -302.24)"/><path class="d" d="M443.41,460a24,24,0,0,0,13.42-8.6A23.42,23.42,0,0,0,462,437.49a25.67,25.67,0,0,0-1.85-11.13,23.72,23.72,0,0,0-11-12.31,34.64,34.64,0,0,0-23.17-1.92,22.93,22.93,0,0,0-13.2,9.08,24.91,24.91,0,0,0-4.76,15.33,28.87,28.87,0,0,0,.94,6.11c1.74,6.78,5.51,12,11.84,15.11a28.69,28.69,0,0,0,10.1,2.9A37.15,37.15,0,0,0,443.41,460Zm-16.06-7.14c-2-2.18-2.84-5-3.43-7.87a56.44,56.44,0,0,1-.67-13.61,23.62,23.62,0,0,1,2-9.3c1.91-4,4.72-6.16,9.42-6.32a10,10,0,0,1,8.38,3.4,16.45,16.45,0,0,1,3.2,7.36,33.06,33.06,0,0,1,.71,4.74c.12,1.63,0,3.28,0,5.25a32.36,32.36,0,0,1-1.68,12.41,10.1,10.1,0,0,1-8.44,6.95C433.11,456.45,429.91,455.6,427.35,452.87Z" transform="translate(-38.24 -302.24)"/><path class="d" d="M514.89,412.36c0-.5-.12-.69-.66-.69q-8.1,0-16.2,0c-.51,0-.7.13-.68.67a23.1,23.1,0,0,1,0,2.76c0,.75.19.94.93.92a5,5,0,0,1,4.11,2c1.41,1.65,1.6,3.67,1.65,5.6.15,5.66.05,11.33.05,17.25-1.6-1.56-2.83-3.1-4.13-4.58-3.45-3.91-6.94-7.78-10.43-11.65-2.47-2.73-5-5.38-7.4-8.18-.92-1.08-2-2-2.81-3.19a3.52,3.52,0,0,0-3.31-1.6c-3.67.15-7.36,0-11,.06-1.1,0-2.65-.5-3.18.22s-.13,2.22-.19,3.38c0,.59.18.72.74.72,3.88,0,5.93,2.69,6,6.1.09,9.2.11,18.4,0,27.6,0,2.93-1,4.48-4,5.66-.81.33-2,0-2.39.77s0,1.82-.11,2.72.3,1.08,1.14,1.08c4.64,0,9.28,0,13.92,0,3.41,0,3.41,0,3.2-3.41,0-.28.13-.65-.4-.68s-1.08-.17-1.62-.23a5.42,5.42,0,0,1-4.4-3.5,13.88,13.88,0,0,1-.54-3.46q0-10.74,0-21.48c0-.32-.16-.69.15-1,1.67,1.83,3.34,3.61,5,5.44,2.76,3.13,5.48,6.3,8.25,9.43,2.17,2.45,4.4,4.85,6.57,7.31q5,5.71,10,11.48a2.25,2.25,0,0,0,2.07.87,11.23,11.23,0,0,1,2.39,0c.91.09,1.11-.21,1.11-1.1.12-12.66-.32-25.33.22-38A5.53,5.53,0,0,1,514.2,416c.48,0,.71-.11.69-.66C514.85,414.36,514.86,413.36,514.89,412.36Z" transform="translate(-38.24 -302.24)"/><path class="d" d="M387.26,395.66c-.94.12-2.17-.26-2.73.31s-.08,1.9-.22,2.88.24,1.1,1.11,1.09c7,0,13.92,0,20.87,0h21.12c.42,0,1.13.35,1.07-.61-.13-1.95.19-3.88.23-5.82s0-4.16,0-6.24c0-1,.46-2.43-.2-3s-2-.13-3-.2a.92.92,0,0,0-1.12.86,16.56,16.56,0,0,1-2,4.8c-1.37,2.36-3,4.51-5.85,5.22a21.51,21.51,0,0,1-8.64.32,6.19,6.19,0,0,1-3-1.21c-1.43-1.16-1.06-2.86-1.13-4.28-.2-3.95-.06-7.91-.08-11.87,0-.63.16-.82.79-.81,1.64,0,3.28,0,4.92,0a3.74,3.74,0,0,1,3.9,3.37c.12.84-.06,2.09.41,2.44s1.75.16,2.66.19a2.16,2.16,0,0,1,.36,0c.77.15.91-.21.91-.92,0-4.2,0-8.4,0-12.6,0-1,.45-2.33-.19-2.86s-1.9-.08-2.88-.2-1.09.36-1.22,1a6.13,6.13,0,0,0,0,1c-.1,2.33-1.13,3.38-3.42,3.85-1.78.36-3.56.08-5.33.22-.68.05-.87-.17-.87-.85q0-7.32,0-14.64c0-.68.19-.86.87-.86,3.36,0,6.72,0,10.07,0a5.28,5.28,0,0,1,4.16,1.79,10.45,10.45,0,0,1,2.35,4.11c.49,2.21,1.76,2.42,3.61,2.28,1.09-.09,1.49,0,1.37-1.47-.26-3.34-.51-6.71-.54-10.07,0-1-.21-1.25-1.22-1.25q-18.72.06-37.44,0c-2.65,0-2.6,0-2.67,2.63,0,1.05.06,1.65,1.35,1.48a9.06,9.06,0,0,1,2,.24,3.16,3.16,0,0,1,2.84,1.94,7.66,7.66,0,0,1,.58,2.72c0,10.16.07,20.32-.05,30.47C391,393.6,390.2,395.28,387.26,395.66Z" transform="translate(-38.24 -302.24)"/><path class="d" d="M300.8,355.36c0,.31.16.45.44.39a7.8,7.8,0,0,1,1.87.25c3.23.16,4.07,1.61,4.11,4.41.15,10.27.11,20.55,0,30.83,0,2.28-.79,4-3.69,4.42-.91.14-2.2-.31-2.64.44s0,1.87-.13,2.82.28,1,1.07,1c7,0,13.92,0,20.88,0h5.64c5.11,0,10.23,0,15.35,0,.39,0,1.08.31,1-.56-.15-1.6.31-3.15.27-4.74-.07-2.48,0-5,0-7.44,0-1,0-2.05,0-3.07-1.11,0-2.24,0-3.35,0a.81.81,0,0,0-1,.75,16,16,0,0,1-2.49,5.82,9,9,0,0,1-5.44,4.37c-1.08.26-2.2.22-3.26.41a16.15,16.15,0,0,1-6.71-.53,3,3,0,0,1-2.49-2.76c-.12-1.09-.21-2.2-.24-3.29-.09-3.64,0-7.28,0-10.92,0-.62.15-.82.79-.81,1.64,0,3.28,0,4.92,0a3.73,3.73,0,0,1,3.9,3.24c.15.91,0,2.23.5,2.63s1.85.06,2.8.15,1.05-.22,1-1.05c0-4.36,0-8.72,0-13.08,0-2.45,0-2.45-2.48-2.45-1.76,0-1.76,0-1.84,1.81a1.92,1.92,0,0,1,0,.24,3.79,3.79,0,0,1-2.92,3.73,49.4,49.4,0,0,1-5.7.24c-.76,0-1-.16-1-1q.06-7.2,0-14.4c0-.76.17-1,1-1,3.32,0,6.64,0,10,0a5.52,5.52,0,0,1,3.18,1,9.33,9.33,0,0,1,3.18,4.48c1,2.68,1,2.7,3.85,2.7a4,4,0,0,1,.6,0c.86.17.92-.35.84-1-.44-3.53-.45-7.08-.68-10.63-.06-1-.31-1.14-1.2-1.14q-18.36,0-36.71,0c-1,0-2.47-.46-3,.19s-.17,2.05-.2,3.12C300.8,355.12,300.81,355.24,300.8,355.36Z" transform="translate(-38.24 -302.24)"/><path class="d" d="M349.75,400c.72.59,2.28.16,3.48.19.49,0,.78,0,.9-.69a18.2,18.2,0,0,1,1-4,8.93,8.93,0,0,0,2.6,2.3,18.59,18.59,0,0,0,11.16,3.16,15.89,15.89,0,0,0,10.76-4.4,13.62,13.62,0,0,0,4.45-10.44,14.13,14.13,0,0,0-4.44-10.59c-2.13-2-4.78-3.28-7.38-4.61-3.44-1.77-7.15-3-10.32-5.3s-3.64-6.49-.75-8.86c2.24-1.84,4.86-1.75,7.35-.65,3.27,1.44,5.23,4.17,6.55,7.4.36.87.21,2.19,1.11,2.54s2,0,3.09.09c.63,0,.7-.24.7-.77q0-6.42,0-12.84c0-.59-.11-.86-.78-.81a19.22,19.22,0,0,1-2.4,0c-.74,0-1.2,0-1.23,1a3.32,3.32,0,0,1-1,2.07c-.5-.19-.78-.64-1.19-.94a15.16,15.16,0,0,0-12.12-2.6,14.32,14.32,0,0,0-9.39,6,13.55,13.55,0,0,0-2.21,10.46,13,13,0,0,0,5.73,9.07,103,103,0,0,0,11.07,6.13c1.9,1,3.86,1.88,5.33,3.53a5.87,5.87,0,0,1,0,7.69,7.09,7.09,0,0,1-7.83,1.63,14.35,14.35,0,0,1-9.44-10.06c-.53-1.78-.44-1.81-2.27-1.81a11.59,11.59,0,0,1-1.56,0c-.95-.13-1.28.14-1.26,1.19.08,3.84,0,7.68,0,11.52C349.54,397.72,349,399.35,349.75,400Z" transform="translate(-38.24 -302.24)"/><path class="d" d="M480.76,365.41c.63.52,2,.13,3,.2.76.06,1.12-.28,1.1-1a8.5,8.5,0,0,1,.75-3.27c.86-2.28,2.08-4.24,4.77-4.76a39.74,39.74,0,0,1,7.23-.35c.7,0,.45.54.45.86,0,11.28.12,22.56-.05,33.84-.06,3.68-1.08,4.36-4.64,4.9-.73.11-1.75-.36-2.15.21s-.1,1.46-.11,2.22a2.16,2.16,0,0,1,0,.36c-.17,1,.13,1.33,1.24,1.32,7.48-.06,15,0,22.43,0,3.42,0,3.41,0,3.22-3.4,0-.51-.12-.71-.66-.69a18.29,18.29,0,0,1-3-.2,3.36,3.36,0,0,1-3.09-2.42,8.43,8.43,0,0,1-.49-2.62c0-11.19,0-22.39,0-33.59,0-.67.23-.79.83-.77a33.57,33.57,0,0,1,5.93.26,6.73,6.73,0,0,1,4.32,2.31,13.85,13.85,0,0,1,2.35,5.74c.16.74.34,1.14,1.17,1.07a15.14,15.14,0,0,1,2.52,0c.76.06.92-.21.92-.93,0-4-.05-8,0-12,0-.87-.24-1-1.06-1-7.68,0-15.36,0-23,0s-15.35,0-23,0c-1,0-1.17.28-1.15,1.18,0,3.2,0,6.4,0,9.6C480.58,363.47,480.11,364.87,480.76,365.41Z" transform="translate(-38.24 -302.24)"/><path class="d" d="M336.86,459.72c.5-.61.09-1.91.2-2.89.09-.83-.34-1.09-1-1.22A6.45,6.45,0,0,1,331.5,452c-2.46-4.65-4.1-9.66-6.13-14.49-3.47-8.29-6.7-16.68-10-25-.44-1.11-1-1.75-2.31-1.51a4.54,4.54,0,0,1-1.56,0c-1.06-.18-1.48.35-1.83,1.27-1.39,3.64-2.86,7.25-4.29,10.87-2.09,5.31-4.12,10.64-6.28,15.92-1.66,4-3.05,8.18-5,12.07a9,9,0,0,1-4,4.26c-.67.32-1.76.12-2.09.72a5.73,5.73,0,0,0-.1,2.36,3.84,3.84,0,0,1,0,.48c-.15.84.19,1.05,1,1,4.39,0,8.79,0,13.19,0,1.86,0,1.86,0,1.86-1.87,0-2.28,0-2.28-2.29-2.45a2.8,2.8,0,0,1-2.53-3.39c.32-1.65,1.11-3.13,1.55-4.73.13-.44.44-.53.89-.53,4.4,0,8.8,0,13.2,0,.53,0,.79.12,1,.73.51,1.57,1.16,3.11,1.82,4.63s.39,3.17-2.11,3.28-2.39.12-2.39,2.48a6.14,6.14,0,0,1,0,1c-.13.78.24.9.94.89,3.68,0,7.36,0,11,0,3,0,6,0,9,0C335,459.9,336.33,460.36,336.86,459.72Zm-34.31-17.1L308,428.9c2,4.76,3.84,9.22,5.72,13.72Z" transform="translate(-38.24 -302.24)"/><path class="d" d="M285.07,456c-.25-.5-1.17-.07-1.79-.19a4.45,4.45,0,0,0-.78-.24,3.71,3.71,0,0,1-3.77-4.08q0-15.7,0-31.42c0-2.07,1-3.17,3-3.9a8.24,8.24,0,0,1,2.7-.17c.61,0,.84-.16.8-.8a19.38,19.38,0,0,1,0-2.64c.06-.75-.19-.93-.93-.92-4,0-7.91,0-11.87,0H262.23c-2.71,0-2.71,0-2.71,2.7,0,1.62,0,1.59,1.63,1.62,3.17.06,4.59,1.45,4.6,4.59q0,15.18,0,30.34c0,3-1.18,4.56-4.24,4.69-2,.08-2,.15-2,2.13a9.61,9.61,0,0,1,0,1.2c-.1.77.17,1,1,1,5.19,0,10.39,0,15.59,0,2.76,0,5.52,0,8.27,0,.66,0,1-.15.87-.84a5.89,5.89,0,0,1,0-.84A5.43,5.43,0,0,0,285.07,456Z" transform="translate(-38.24 -302.24)"/><path class="c" d="M465.84,481.11c0-3,0-3-3-3a1.59,1.59,0,0,0-1.62.91c-.78,1.42-1.67,2.78-2.58,4.28l-1.58-2.59c-1.57-2.65-1.57-2.62-4.6-2.6-.81,0-1,.27-1,1,0,3.36,0,6.71,0,10.07,0,2.67,0,2.62,2.68,2.67,1,0,1.12-.35,1.1-1.18-.06-2,0-4,0-6.06a24.89,24.89,0,0,1,2.7,3.83c.54.93.84.79,1.33,0,.81-1.38,1.72-2.72,2.65-4.17a1.86,1.86,0,0,1,.12.38v4.56c0,2.68,0,2.63,2.67,2.67.95,0,1.12-.31,1.11-1.16C465.81,487.5,465.84,484.31,465.84,481.11Z" transform="translate(-38.24 -302.24)"/><path class="c" d="M447.36,480.82c0-2.76,0-2.73-2.79-2.71-.76,0-1.05.19-1,1,.05,1.91,0,3.83,0,6.11-1.45-1.91-2.82-3.44-3.87-5.16a3.9,3.9,0,0,0-4.16-2c-.83.08-1,.34-1,1.07,0,3.44,0,6.88,0,10.32,0,2.37,0,2.3,2.37,2.4,1.2.05,1.47-.33,1.42-1.46-.1-1.88,0-3.77,0-6,1.59,2.09,3.05,3.79,4.27,5.66a3.54,3.54,0,0,0,3.73,1.82c.84-.09,1.07-.29,1.06-1.11C447.33,487.45,447.36,484.14,447.36,480.82Z" transform="translate(-38.24 -302.24)"/><path class="b" d="M170.28,483.18c-9.72,0-19.44,0-29.16,0h-8.71c1.17,1.92,2.69,2.48,4.84,2.46,10-.13,19.92-.06,29.88-.06.5,0,1-.15,1.44.36,1.05,1.32,2.08,2.67,3.23,3.9.68.73,1.2,1.87,2.3,1.94,1.86.13,3.73,0,5.8,0-2.17-2.52-4.28-4.8-6.17-7.26A3.7,3.7,0,0,0,170.28,483.18Z" transform="translate(-38.24 -302.24)"/><path class="b" d="M521.84,483.62c-2.25,2.69-4.56,5.34-7,8.22h5.81a.93.93,0,0,0,.72-.35,29.8,29.8,0,0,0,3.38-3.81,4.49,4.49,0,0,1,4.07-2.15c9.88.15,19.75,0,29.63.12,2,0,2.55-1.58,3.83-2.34-13.17-.11-26.29-.11-39.4-.11A1.13,1.13,0,0,0,521.84,483.62Z" transform="translate(-38.24 -302.24)"/><path class="c" d="M252.62,478.1c-2.43.07-2.43,0-2.43,2.47v4.2a28.47,28.47,0,0,1-3.79-4.66,3.82,3.82,0,0,0-4.14-2c-.76.09-1,.25-1,1,0,3.36,0,6.72,0,10.08,0,2.68,0,2.64,2.69,2.66.82,0,1.11-.2,1.09-1.06-.06-2,0-4,0-5.95l.27,0c1.33,1.74,2.78,3.42,3.95,5.26a3.57,3.57,0,0,0,3.77,1.81c.78-.09,1-.27,1-1,0-3.8-.07-7.6,0-11.4C254.06,478.28,253.66,478.07,252.62,478.1Z" transform="translate(-38.24 -302.24)"/><path class="c" d="M347.36,480.77c0-2.69,0-2.66-2.69-2.67-.82,0-1.11.22-1.09,1.07.06,1.86,0,3.72,0,5.58l-.25.08a57.34,57.34,0,0,1-3.55-4.74,3.83,3.83,0,0,0-4.15-2c-.78.08-1,.28-1,1.05,0,3.79,0,7.59,0,11.39,0,1,.19,1.38,1.3,1.34,2.49-.09,2.5,0,2.5-2.51v-4.89c1.59,2.09,3.09,3.78,4.27,5.66a3.48,3.48,0,0,0,3.66,1.74c.78-.06,1-.25,1-1C347.34,487.49,347.36,484.13,347.36,480.77Z" transform="translate(-38.24 -302.24)"/><path class="c" d="M497.4,480.72c0-2.64,0-2.61-2.64-2.62-.86,0-1.08.28-1.05,1.1.05,1.9,0,3.8,0,6.06-1.46-1.92-2.83-3.48-3.92-5.21a3.79,3.79,0,0,0-4-2c-.91.09-1.12.33-1.11,1.19.05,3.24,0,6.48,0,9.71,0,3,0,3,3,2.88.71,0,.86-.27.85-.91,0-2,0-4.08,0-6.5,1.6,2.09,3.09,3.81,4.31,5.71a3.38,3.38,0,0,0,3.55,1.72c.82-.08,1.09-.24,1.08-1.09C497.37,487.44,497.4,484.08,497.4,480.72Z" transform="translate(-38.24 -302.24)"/><path class="c" d="M390.78,486.6a4.52,4.52,0,0,0,1.84-5.15,4.41,4.41,0,0,0-4-3.28,66.43,66.43,0,0,0-7.06-.17c-.56,0-.77.22-.77.78,0,4.11,0,8.23,0,12.34,0,.38,0,.65.55.73,2.84.47,3.24.14,3.25-2.69a3.84,3.84,0,0,1,0-.48c0-.33-.17-.82.32-.9s1.05-.26,1.44.25a3.13,3.13,0,0,1,.46.7c1.08,2.77,3.13,3.65,5.93,3.1l.45-.07c-.93-1.38-1.75-2.64-2.61-3.88C390.23,487.36,390.08,487.07,390.78,486.6Zm-3.1-2a8.45,8.45,0,0,1-1.43.09c-.53-.14-1.36.29-1.54-.25a6,6,0,0,1,0-2.73s0-.06.07-.09c.57-.59,3.73,0,4.07.74A1.57,1.57,0,0,1,387.68,484.57Z" transform="translate(-38.24 -302.24)"/><path class="c" d="M376,488.5c-1.76.05-3.53,0-5.28,0-.87,0-.84-.44-.86-1s.08-1.06.89-1c1.2.06,2.4,0,3.6,0,2.19,0,1.91.34,2-2,0-.81-.19-1.13-1.06-1.1-1.51.07-3,0-4.56,0-.88,0-.83-.48-.83-1.07s0-1.09.85-1.05c1.36.06,2.72,0,4.08,0,2.33,0,2.29,0,2.25-2.3,0-.78-.32-.92-1-.91q-4.49,0-9,0c-.73,0-1,.21-1,.95,0,2,0,3.92,0,5.88s.06,3.68,0,5.52c0,1,.18,1.46,1.35,1.41,2.47-.1,5,0,7.44,0,2.25,0,2.21,0,2.23-2.29C377.12,488.67,376.81,488.47,376,488.5Z" transform="translate(-38.24 -302.24)"/><path class="c" d="M480,488.5c-1.67.05-3.35,0-5,0-.79,0-1.25,0-1.22-1.06s.42-1,1.17-1c1.11,0,2.23,0,3.35,0,2.18,0,1.9.34,2-2,0-.82-.2-1.13-1.06-1.1-1.51.07-3,0-4.55,0-.87,0-.84-.46-.84-1.06s0-1.1.84-1.06c1.31.06,2.63,0,3.95,0,2.38,0,2.36,0,2.26-2.38,0-.63-.21-.83-.83-.83-3,0-6.07,0-9.11,0-.67,0-.9.21-.89.89,0,2,0,4,0,6s0,3.92,0,5.87c0,.81.25,1,1,1,2.55-.05,5.11,0,7.67,0,2.35,0,2.31,0,2.32-2.32C481,488.75,480.83,488.47,480,488.5Z" transform="translate(-38.24 -302.24)"/><path class="c" d="M329.91,488.5c-1.75,0-3.51,0-5.27,0-.82,0-.91-.36-.89-1s0-1.08.87-1c1.12,0,2.24,0,3.36,0,2.26,0,2.24,0,2.15-2.26,0-.62-.2-.84-.83-.83-1.51,0-3,0-4.55,0-.81,0-1-.27-1-1s.09-1.12,1-1.08c1.36.06,2.72,0,4.08,0,2.08,0,2,0,2.08-2.09,0-.91-.26-1.14-1.15-1.13-2.87.06-5.75.06-8.62,0-.94,0-1.14.3-1.11,1.16.06,1.91,0,3.83,0,5.75s.07,3.76,0,5.63c-.05,1.05.32,1.25,1.28,1.22,2.48-.07,5,0,7.43,0s2.33,0,2.3-2.35C331,488.68,330.67,488.48,329.91,488.5Z" transform="translate(-38.24 -302.24)"/><path class="c" d="M418.59,480.42c-1.13-2.74-1.13-2.72-4.07-2.48a.83.83,0,0,0-.81.54c-1.8,4.38-3.6,8.76-5.5,13.36a20,20,0,0,1,2.35,0c1.2.14,2-.18,2.21-1.48.14-.84.66-1,1.46-1,1.08.07,2.16,0,3.23,0,.55,0,1,.09,1.07.68.25,1.62,1.28,2,2.72,1.77a3.09,3.09,0,0,1,1,0c1,.13,1-.25.69-1.05C421.44,487.35,420,483.88,418.59,480.42Zm-2,5.93h-2.3l1.38-3.52a17.48,17.48,0,0,1,1.3,3C417.12,486.23,416.94,486.36,416.58,486.35Z" transform="translate(-38.24 -302.24)"/><path class="c" d="M211.06,480.41c-1.1-2.66-1.09-2.65-3.95-2.47-.45,0-.74.12-.92.58-1.8,4.39-3.62,8.77-5.5,13.32,1.25,0,2.29,0,3.32,0a.77.77,0,0,0,.93-.69c.25-1.65,1.3-2,2.73-1.76a4.49,4.49,0,0,0,1.32,0c1.31-.22,2.13.2,2.38,1.58.09.45.28.9.95.87,1.1-.05,2.2,0,3.41,0-.16-.44-.26-.73-.38-1Zm-3.41,3.67.55-1.46.71,1.87c.21.55.42,1.1.68,1.76C206.69,486.6,206.69,486.6,207.65,484.08Z" transform="translate(-38.24 -302.24)"/><path class="c" d="M406.61,478c-1.64,0-3.27,0-4.91,0h-5c-.42,0-.86-.11-1,.55-.47,2.39-.06,2.93,2.34,2.93a5.89,5.89,0,0,0,.84,0c.7-.08.87.24.86.9,0,2.24,0,4.47,0,6.71,0,2.81,0,2.77,2.83,2.77.79,0,1-.23,1-1-.05-2.59,0-5.19,0-7.79,0-1.8-.25-1.56,1.6-1.57,2.54,0,2.51,0,2.47-2.54C407.57,478.21,407.33,478,406.61,478Z" transform="translate(-38.24 -302.24)"/><path class="c" d="M361.64,478c-1.59,0-3.19,0-4.79,0h-4.31c-1.74,0-1.74,0-1.74,1.73,0,2-.13,1.74,1.71,1.76a11.63,11.63,0,0,0,1.32,0c.76-.08,1,.19,1,1-.05,2.19,0,4.39,0,6.59,0,2.82,0,2.78,2.8,2.8.88,0,1-.3,1-1.1-.05-2.55,0-5.11,0-7.67,0-1.83-.25-1.59,1.57-1.6,2.56,0,2.52,0,2.5-2.51C362.7,478.15,362.38,478,361.64,478Z" transform="translate(-38.24 -302.24)"/><path class="c" d="M511.81,478c-1.64,0-3.28,0-4.92,0s-3.43,0-5.15,0c-.62,0-.8.22-.83.83-.12,2.67-.14,2.66,2.46,2.67a2.57,2.57,0,0,0,.48,0c.87-.13,1.06.3,1,1.1,0,2.19,0,4.39,0,6.58,0,2.7,0,2.67,2.67,2.7.86,0,1.17-.18,1.15-1.11-.07-2.59.05-5.19-.05-7.79,0-1.22.29-1.55,1.51-1.5,2.69.09,2.66,0,2.58-2.63C512.72,478.11,512.43,478,511.81,478Z" transform="translate(-38.24 -302.24)"/><path class="c" d="M237,480.88c0-2.89,0-2.87-2.94-2.77-.69,0-.89.24-.88.9,0,2,0,3.92,0,5.88v4.2c0,2.81,0,2.78,2.84,2.77.81,0,1-.26,1-1C236.94,487.52,237,484.2,237,480.88Z" transform="translate(-38.24 -302.24)"/><path class="c" d="M430.32,480.9c0-2.91,0-2.89-2.94-2.79-.69,0-.88.25-.87.9,0,2,0,4,0,6v4.08c0,2.82,0,2.78,2.81,2.78.81,0,1-.25,1-1C430.3,487.53,430.32,484.21,430.32,480.9Z" transform="translate(-38.24 -302.24)"/><path class="d" d="M299.37,312.42c-2.3,2.56-4.67,5.07-6.9,7.69a22.4,22.4,0,0,0-2.15,2.47h16.24a19,19,0,0,0-2.6-2.91,1.74,1.74,0,0,0-1.56-.64c-1.13,0-2.26,0-3.62,0,1.72-2,3.05-3.9,4.75-5.47l11.92,12.9H287.14c1,1,1.78,1.61,2.43,2.37a2.89,2.89,0,0,0,2.49,1c9.51,0,19,0,28.54,0a6,6,0,0,0,.95,0c.91-.16,1.18-.91.57-1.58-1.81-2-3.65-4-5.47-6-1.65-1.81-3.31-3.62-4.95-5.45q-3.84-4.29-7.65-8.6c-.38-.44-.62-.43-1,0Q301.25,310.35,299.37,312.42Z" transform="translate(-38.24 -302.24)"/></svg>