<svg id="Layer_1" data-name="Layer 1" xmlns="http://www.w3.org/2000/svg" viewBox="0 0 260.63 121.13"><defs><style>.cls-1{fill:#fff;}.cls-2{fill:#ededee;}.cls-3{fill:#097a83;}.cls-4{font-size:12.29px;fill:#010101;font-family:Gotham-Medium, Gotham;letter-spacing:0.08em;}.cls-5{fill:#0a7a82;}.cls-6{fill:#097a84;}.cls-7{fill:#0c7981;}.cls-8{fill:#0b7a83;}.cls-9{fill:#0a7a84;}.cls-10{fill:#0b7a85;}.cls-11{fill:#097a7e;}.cls-12{fill:#0d7980;}.cls-13{fill:#0b7b86;}.cls-14{fill:#0e7a86;}.cls-15{fill:#0d7983;}.cls-16{fill:#067b7e;}.cls-17{fill:#0c7b85;}.cls-18{fill:#0e777d;}.cls-19{fill:#11797d;}.cls-20{fill:#127784;}.cls-21{fill:#137a7e;}.cls-22{fill:#107979;}.cls-23{fill:#0f7c80;}.cls-24{fill:#207975;}.cls-25{fill:#127d85;}.cls-26{fill:#34706c;}.cls-27{fill:#0a7a80;}.cls-28{fill:#0a797e;}.cls-29{fill:#0d7681;}.cls-30{fill:#167472;}.cls-31{fill:#0c7b7d;}.cls-32{fill:#1f7b7d;}.cls-33{fill:#257b7a;}.cls-34{fill:#26736b;}.cls-35{fill:#217b7b;}.cls-36{fill:#137a7a;}.cls-37{fill:#0a7a83;}.cls-38{fill:#1e5f5f;}.cls-39{fill:#0a776f;}.cls-40{fill:#136c70;}.cls-41{fill:#237175;}.cls-42{fill:#0f7a7c;}.cls-43{fill:#077b83;}.cls-44{fill:#0c7986;}.cls-45{fill:#077989;}.cls-46{fill:#027c7b;}.cls-47{fill:#226e6f;}.cls-48{fill:#0f4f52;}.cls-49{fill:#0d7488;}.cls-50{fill:#107b86;}.cls-51{fill:#167c7c;}.cls-52{fill:#117e78;}.cls-53{fill:#0a7779;}.cls-54{fill:#1f7c7f;}.cls-55{fill:#16696b;}.cls-56{fill:#267258;}.cls-57{fill:#0e7883;}.cls-58{fill:#077b7f;}.cls-59{fill:#11696b;}.cls-60{fill:#0d767f;}.cls-61{fill:#126460;}.cls-62{fill:#147372;}.cls-63{fill:#266771;}.cls-64{fill:#077875;}.cls-65{fill:#1f696e;}.cls-66{fill:#0f757c;}.cls-67{fill:#21656c;}.cls-68{fill:#17696b;}.cls-69{fill:#0f615b;}.cls-70{fill:#127879;}.cls-71{fill:#0f7a83;}.cls-72{fill:#0f7a7d;}.cls-73{fill:#127883;}.cls-74{fill:#057c88;}.cls-75{fill:#087a83;}.cls-76{fill:#0f7389;}.cls-77{fill:#0c737a;}.cls-78{fill:#147c86;}.cls-79{fill:#1b6a6c;}</style></defs><title>pyramid</title><polygon class="cls-1" points="120.74 0.35 0.6 120.5 238.07 120.5 120.74 0.35"/><path class="cls-2" d="M258.92,210.06H20.26L141,89.31l.18.18Zm-237.45-.5H257.73L141,90Z" transform="translate(-20.26 -89.31)"/><polygon class="cls-3" points="120.74 0.35 260.63 121.1 238.07 121.13 120.74 0.35"/><text class="cls-4" transform="translate(43.04 118.13) scale(0.89 1)">FEDERAL CREDIT UNION</text><path class="cls-5" d="M117.8,171.45c1,.18,1.47,1,2.19,1.52a.38.38,0,0,1,.12.5c-.64.78-.67,1.83-1.19,2.66-.16.26-.09.73-.49.76s-.39-.46-.59-.69c-.63-1.07-.86-2.42-2.09-3.08l-.45-.29a6.08,6.08,0,0,0-4.3-.63,4.77,4.77,0,0,1-1.22.14,6.17,6.17,0,0,0-.06,2.35c-.09,2.26.06,4.51-.1,6.77-.12,1.79.18,2.07,2,2.09.33,0,.66,0,1,0a1.22,1.22,0,0,1,.58.22c.48.64,0,.79-.47.87a12.43,12.43,0,0,1-2.1.05c-.64,0-1,.19-1,.92,0,2.59,0,5.19,0,7.78a1.17,1.17,0,0,0,.64,1.1c.39.22.69.51.21,1a19.11,19.11,0,0,1-5.34.14c-.36,0-1-.05-.69-.78h0c1.55-.7,1.74-2,1.86-3.54.46-5.94.05-11.88.27-17.81.83,0,.42.65.42,1,0,3.06,0,6.12,0,9.18,0,2.19,0,4.38,0,6.57,0,.17.26,0,.1,0s-.09,0-.09-.08c0-5.25,0-10.5,0-15.75,0-.39.29-.95-.37-1.16a4.29,4.29,0,0,1-.66-2c.23-.63.78-.48,1.25-.5,2.37-.11,4.74,0,7.11,0a10.65,10.65,0,0,0,1.1,0,1.17,1.17,0,0,1,.4.06C116.34,171.36,117.16,171.16,117.8,171.45Z" transform="translate(-20.26 -89.31)"/><path class="cls-6" d="M167,191.31c-.55,1.06-1.09,2.12-1.65,3.16s-.82,1.06-1.47,0c-.26-.41-.34-.94-.79-1.23a2.45,2.45,0,0,1-.92-1.66c.15-1-.55-1.76-1-2.58a12,12,0,0,0-2.08-3.45,3.51,3.51,0,0,1-.74-1c-.65-1.73-1.69-3.28-2.23-5.05a1.31,1.31,0,0,0-.67-1.49.58.58,0,0,1-.21-.45c.07-.37.14-.8.61-.79.66,0,1,.48,1.26,1a5.3,5.3,0,0,0-.92-1.46,1.09,1.09,0,0,1-.07-1.27c.29-.44.68-.38,1.08-.18.91.57,1,1.58,1.37,2.45h0a7.86,7.86,0,0,1,1,2v0a32.17,32.17,0,0,1,2.85,5.56c.24.85,0,1.89,1,2.4l.1,0a16.77,16.77,0,0,1,1.76,2.92c.94-1.7,1.61-3.4,2.64-4.9l3.27-6.44a1.89,1.89,0,0,0,.89-1.33c0-.34.17-.8.64-.74s.47.58.46,1a7.35,7.35,0,0,0,0,1,51,51,0,0,1-2.51,5.63c-.64,1.52-1.46,3-2.19,4.44A17.08,17.08,0,0,1,167,191.31Z" transform="translate(-20.26 -89.31)"/><path class="cls-7" d="M172.93,178.65c-.46-.49.33-1.09-.16-1.59-.44-.06-.46.42-.43.56.25.94-.68,1.06-1,1.59,0,0-.09,0-.1-.07a1.66,1.66,0,0,1,0-.24l.26-1a2.23,2.23,0,0,1,.51-1h0c.26-.49.18-1.15.72-1.51a6.67,6.67,0,0,0,1-2,6.83,6.83,0,0,1,1.31-2.89c.2-.28.4-.55.79-.46a.82.82,0,0,1,.63.82c.12,2.71.92,5.32.84,8.08-.06,1.89.62,3.79.64,5.72a4.22,4.22,0,0,0,.26,1.45c-.18,1.07.53,2.1.13,3.18-.07.8.06,1.6-.07,2.39-.76.08-.71-.5-.75-1-.1-1.19-.15-2.39-.24-3.59-.18-2.3-.69-4.55-.92-6.85-.17-1.67-.07-3.35-.27-4.87.12,2.76.4,5.66.26,8.57a1.21,1.21,0,0,0,.13.6c1.45,2.87,1.11,5.71-.11,8.54-.26.23-.43.13-.49-.17a14.52,14.52,0,0,1-.35-1.74l-.08,0c-.35-.44-.25-1-.43-1.49a3.42,3.42,0,0,1-.09-.58,7,7,0,0,0-.17-1.93c-.27-3-.6-6-.9-9.06C173.4,178.21,173.27,178.68,172.93,178.65Z" transform="translate(-20.26 -89.31)"/><path class="cls-8" d="M87,181.37a4.3,4.3,0,0,0-.94-1.5,41.48,41.48,0,0,1-4.16-6.37A21.79,21.79,0,0,0,80,171.86c-.33-.23-.72-.47-.38-1,1.53-.39,3.09-.08,4.64-.2a1,1,0,0,1,.5.29c.31.81.35,1.7.75,2.49h0a10.51,10.51,0,0,1,2,3.31l.52.89c1.16,1,1.61,2.56,2.49,3.79.74,1,.75,1.07,1.41,0,.29-.49.54-1,1.13-1.26,1.23-.09,1.23-.09,1,1.3a14.74,14.74,0,0,1-1.69,3.32,2.73,2.73,0,0,0-.27,1.56c0,1.81,0,3.63,0,5.44a2.48,2.48,0,0,1-.22,1.44c-.88.09-.68-.62-.69-1-.05-2.06,0-4.12,0-6.18a2,2,0,0,0-.1-1.09c-.14-.22-.2.1-.29.19-.75.36-1.29.08-1.66-.84-.24-.61-.27-1.39-1.13-1.54A2,2,0,0,1,87,181.37Z" transform="translate(-20.26 -89.31)"/><path class="cls-9" d="M131.71,182.88a.56.56,0,0,1,.19,0c.42-.22.47-.7.73-1,.12-.16.76-.05.27-.53a6.42,6.42,0,0,1,.94-3.13,25.5,25.5,0,0,0,1.82-4.76,14.83,14.83,0,0,1,1-2.78c.11-.27.23-.58.57-.58s.43.35.54.6c.46,1,.91,2,1.37,3a4.41,4.41,0,0,1,.74,1.6,2.06,2.06,0,0,0,.36,1.06c.22.32.08.77.4,1h0c.9.93,1,2.19,1.35,3.34,0,.39,0,.77.08,1.16a2.8,2.8,0,0,1-.31,1,1,1,0,0,0-.21,1c0,.3.05.65-.3.73-.67.14-.71-.57-1.06-.87a4.74,4.74,0,0,1-.8-.86,3.66,3.66,0,0,1-.55-1.48c.13-1.52-.92-2.68-1.23-4.07a4.21,4.21,0,0,0-.27-.68c-.18-.44-.11-1.18-.65-1.21s-.53.73-.81,1.11-.13.93-.24,1.39c-.51,1.47-1,3-1.56,4.4-.51.47-.31,1.47-1.22,1.64a4.51,4.51,0,0,1-1.23-.83A.25.25,0,0,1,131.71,182.88Z" transform="translate(-20.26 -89.31)"/><path class="cls-10" d="M152.54,182.38l.06-.89c.27-1.4-.23-2.87.37-4.24a32,32,0,0,0,.84-6.29c0-.36.19-.63.6-.64s.63.42.75.81a8.33,8.33,0,0,1,.24,3.53c-.17.94.13,1.88-.07,2.81-.27,2.92-.48,5.85-.91,8.76-.31,1,.26,2.09-.23,3.08a2.74,2.74,0,0,0-.41,1.05,28.46,28.46,0,0,0-.23,5,1.23,1.23,0,0,1-.71.24c-.38,0-.77,0-1.15,0a1.82,1.82,0,0,1-.72-.15c-.37-.25-.23-.63-.26-1a2.74,2.74,0,0,1,.43-.92,3,3,0,0,0,.14-1.18,8.9,8.9,0,0,1,.27-1.08l.08,0c.56-.28.59.16.71.5-.84-2.69.45-5.38,0-8.08A3.29,3.29,0,0,1,152.54,182.38Z" transform="translate(-20.26 -89.31)"/><path class="cls-11" d="M214.06,171c2.78.79,5.35,1.91,7.14,4.32a4.79,4.79,0,0,1,1,1.57c-.58.39-.8-.15-1.09-.44a9.29,9.29,0,0,0-1.1-1.17c-.22-.16-.38-.41-.66,0s-.76.27-1-.07c-.44-.54-1.37-.81-1.13-1.73.06-.24.33-.32-.06-.5a5.6,5.6,0,0,0-1.6-.64c-1.28-.17-2.46-.89-3.81-.66a.62.62,0,0,1-.54-.26c-.81-.44-1.69-.09-2.35-.2.64.1,1.51-.2,2.32.17.85.54,1.89.37,2.79.78a9,9,0,0,1,2.52,1.47c.37.34.74.67.54,1.25-.5.41-.84,0-1.23-.23a13.43,13.43,0,0,0-6.62-2.5,6,6,0,0,0-1.77-.12c-1.12-.22-2.24.45-3.36,0a.52.52,0,0,1-.09-.59c.44-.4,1-.19,1.48-.24h0c-.94-.08-1.87.16-2.8.1-.43.11-1-.38-1.27.38,0,.58.19,1.15.15,1.73a6.13,6.13,0,0,0-.09,1c0,.43,0,.85,0,1.28,0,5.11,0,10.22,0,15.33-.37,1,.19,2.18-.33,3.2-.3.4-.24,1-.73,1.3a3,3,0,0,1-1.59.06c-.25-.05-.49-.17-.52-.45s.19-.45.43-.53c.66-.21,1.24-.49,1.38-1.25.22-.48.09-1.08.49-1.5l0-1.18a4.82,4.82,0,0,0,.09-1.72q0-7.07,0-14.15a3.09,3.09,0,0,0-.1-1.35h0c-.37-.43.07-1-.28-1.45a.34.34,0,0,0-.22-.09c-.57-.23-1.17-.38-1.75-.57-.24-.08-.5-.16-.48-.46s.35-.27.56-.27c.85,0,1.68-.11,2.54-.06a21,21,0,0,0,4.87-.15,2.7,2.7,0,0,1,1.46.12,5.36,5.36,0,0,0,1.88,0c1.33.25,2.69-.08,4,.22a1.48,1.48,0,0,1,.79.27A.1.1,0,0,0,214.06,171Z" transform="translate(-20.26 -89.31)"/><path class="cls-8" d="M143.82,193.33l-.19,0c-1.08-2.14-1.94-4.37-2.8-6.6,0-.31-.15-.62.06-.91a.84.84,0,0,1,.91-.14,2.22,2.22,0,0,0,2,0l.46.76a13.74,13.74,0,0,1,1.26,3c.68,1.82,1.1,3.79,2.94,4.91a.16.16,0,0,1,.15.23c-.19.36-.39.73-.9.56a.91.91,0,0,0-.87.24.54.54,0,0,1-.33,0c-.23-.3-.41-.2-.57.07a.79.79,0,0,1-.65,0,6,6,0,0,1-.83-.59C144.19,194.37,144.65,193.55,143.82,193.33Z" transform="translate(-20.26 -89.31)"/><path class="cls-12" d="M110.6,195.27c-1.62-.75-1.27-2.16-1.27-3.53a45.22,45.22,0,0,0-.12-6.52c-.09-.6.32-.87.93-.86.82,0,1.65,0,2.47,0,.39,0,.68,0,.47-.53.06-.06.12-.14.19-.14a5.77,5.77,0,0,0,4.22-2.36c.6.5,1.26-.51,1.85.08-.16.85-1,1.17-1.45,1.73s-.74,1-.07,1.73a21.2,21.2,0,0,1,1.72,2.21c.16.33-.07.84.46,1a.67.67,0,0,1,.45.62,1.86,1.86,0,0,1-1.58,1,.44.44,0,0,1-.24-.22,2.84,2.84,0,0,0-.74-1.84c0,.64.85,1.07.38,1.8a.28.28,0,0,1-.31,0l-2.84-3.53c-.7-1.05-1.78-.88-2.79-.84-3,.13-2.6-.57-2.6,2.59a27,27,0,0,0,.09,4.29l.05.93c.08,1.3,1.09,1.65,2.06,2a.52.52,0,0,1-.15.56A.94.94,0,0,1,110.6,195.27Z" transform="translate(-20.26 -89.31)"/><path class="cls-13" d="M130.69,191.8a2.53,2.53,0,0,0-.46,1.26c-.16.92-.2,1.8,1.16,1.76.34,0,.59.12.33.53-1.73.63-3.51.26-5.26.24-1.14-.71,0-.88.3-1.25a2.5,2.5,0,0,0,1-1.24c.26-.37.06-1,.55-1.23h0a1.42,1.42,0,0,1,.41-1,.09.09,0,0,0,.05-.14c.16-.5,0-1.1.52-1.49a8.31,8.31,0,0,0,1.53-3.61.65.65,0,0,1,.13-.31c.59-.24.91-.91,1.59-1a.5.5,0,0,1,.21-.21c.39,0,.42.42.61.65l.23.22c1.79,0,3.58-.06,5.36,0,.57,0,1.16,0,1.52.58a.74.74,0,0,1-.48.62c-2.09.26-4.18.07-6.27.12a1.64,1.64,0,0,0-1,.2l-.27.17c-.43.29-.13.77-.29,1.13a1.08,1.08,0,0,1-.15.28,1.58,1.58,0,0,0-.43,1.32A9.66,9.66,0,0,1,130.69,191.8Z" transform="translate(-20.26 -89.31)"/><path class="cls-14" d="M119.34,181.41c-.33,0-.68-.06-.9.22-.53.68-.64,0-.87-.25a1,1,0,0,1-.06-.82,8.37,8.37,0,0,0,.26-3.84.82.82,0,0,1,.24-.78c.34.12.21.49.46.84,0-1.16,1-1.87.87-3,0-.41.47-.34.77-.4s.52.31.62.62l.22.44c1.28,1.61.47,4.51-.73,6.22-.4,0-.3-.35-.44-.52-.64-.78-.3-1.67-.17-2.49a5.35,5.35,0,0,0,0-1.46,5.53,5.53,0,0,1-.14,1.94c-.07.65-.28,1.3.17,1.9.33.25-.22.7.2.93,0,.16,0,.31-.15.39Z" transform="translate(-20.26 -89.31)"/><path class="cls-15" d="M95.9,175.37l0-.45.28-.51c.34-.35.42-.87.76-1.22h0a5.38,5.38,0,0,0,.16-2.09c.39-.58,1-.31,1.55-.49a2,2,0,0,1,.75,0c.65.22,1.43-.12,2,.48a.25.25,0,0,1,0,.35h0q-.7.54-1.45,1l0,0c-.24.84-.94,1.38-1.34,2.12a9.89,9.89,0,0,0-1.35,2c-.22.42-.47.88-1,.95-.88-.49-.36-1,0-1.48a8.47,8.47,0,0,0,1.68-2.48c-.66.65-.74,1.72-1.72,2A.39.39,0,0,1,95.9,175.37Z" transform="translate(-20.26 -89.31)"/><path class="cls-16" d="M155.54,171.45c.34,1.31,1.38,2.32,1.58,3.7-.29,0-.6-.34-.86.11a.66.66,0,0,0,.07.9c.45.36.53,1,1.12,1.27a.4.4,0,0,1,.25.58c-.08.19-.39.41-.44.28-.13-.37-.84.23-.68-.46s-.49-.62-.74-.75-.21.43-.43.59q-.28,0-.11-.24c-.64-2.09,0-4.22-.21-6.32a.65.65,0,0,0,.23,0Z" transform="translate(-20.26 -89.31)"/><path class="cls-17" d="M118.79,189.58l1.49-.75c.94,0,.94,1.14,1.71,1.31a8,8,0,0,1,1.78,1.92.67.67,0,0,0,.11.34,1.52,1.52,0,0,1-.16,1.91c-.65.62-1.16-.14-1.69-.43-.21-.11-.33-.35-.52-.5.58-1.26-.41-2.08-.92-3-.38-.66-.66.38-1.09.3S118.66,190.19,118.79,189.58Z" transform="translate(-20.26 -89.31)"/><path class="cls-18" d="M121.53,193.29c.27,0,.41.23.61.37.42.29.92.95,1.37.5a1.29,1.29,0,0,0,.08-1.78c-.28-.32,0-.29.18-.33a12.19,12.19,0,0,0,3,2.27c.3.74-.8.4-.74,1-.66.6-1.32.13-2,0h0c-.38-.25-1,0-1.23-.53-.48-.51-1.2-.76-1.54-1.42A.19.19,0,0,1,121.53,193.29Z" transform="translate(-20.26 -89.31)"/><path class="cls-19" d="M178.9,193.05c.34,1.36,1.42,1.61,2.6,1.77.37,0,1-.29,1.07.43h0a12,12,0,0,1-4.31.32c-.18-.07-.5-.25-.41-.36.87-1,.19-2.05.12-3.08a.4.4,0,0,1,.15-.32l0-2.56a.77.77,0,0,0,.19.09A10.34,10.34,0,0,0,178.9,193.05Z" transform="translate(-20.26 -89.31)"/><path class="cls-20" d="M152.53,183.8a10.27,10.27,0,0,1-.28,4.58,7.71,7.71,0,0,0,.22,3,3.67,3.67,0,0,1-.07,1.85c-.75-.51.18-1.59-.79-1.89l.45-5A4.27,4.27,0,0,1,152.53,183.8Z" transform="translate(-20.26 -89.31)"/><path class="cls-21" d="M132.7,181.88c-.1.46-.16,1-.8,1l.31-1.22c.21-.39-.09-1,.53-1.21h0a16.45,16.45,0,0,1,1.19-3l1.74-4c.17,2-1.18,3.47-1.73,5.21a7.08,7.08,0,0,0-.74,2.77A6.05,6.05,0,0,1,132.7,181.88Z" transform="translate(-20.26 -89.31)"/><path class="cls-9" d="M140.15,185.85l.25-.49a.58.58,0,0,1-.16-.49.67.67,0,0,1,.18-.3.46.46,0,0,1,.61.13c.21.23.43.49.69.05s-.32-.69.05-1a.94.94,0,0,1,1.24.31c.2.45.2,1,.72,1.26l.13.29c-.39.78-1,1-1.7.49-.41-.31-.83-.2-1.26-.24a.48.48,0,0,1-.46.33A.42.42,0,0,1,140.15,185.85Z" transform="translate(-20.26 -89.31)"/><path class="cls-22" d="M122,190.14c-.55.34-.7-.18-.9-.46a2.25,2.25,0,0,0-.81-.84.45.45,0,0,0-.5-.5.68.68,0,0,1,0-1A15.06,15.06,0,0,1,122,190.14Z" transform="translate(-20.26 -89.31)"/><path class="cls-23" d="M162.23,185.11l1.21,2.07a1.11,1.11,0,0,0,0,.18c-.82,0-1.39-.23-1.07-1.19C162.48,185.77,161.73,185.52,162.23,185.11Z" transform="translate(-20.26 -89.31)"/><path class="cls-24" d="M116.05,170.95h.75l1,.5c-.51,0-1,0-1.53,0S116,171.17,116.05,170.95Z" transform="translate(-20.26 -89.31)"/><path class="cls-25" d="M142.64,182.62l.48.79.33,1.19c-.52.23-.34-.35-.56-.47l-.25-.26A.88.88,0,0,1,142.64,182.62Z" transform="translate(-20.26 -89.31)"/><path class="cls-8" d="M142.88,184.12l.56.47.28.72C142.9,185.3,142.93,184.68,142.88,184.12Z" transform="translate(-20.26 -89.31)"/><path class="cls-17" d="M119.78,187.37v1c-.91-.26-.37-.8-.24-1.26Z" transform="translate(-20.26 -89.31)"/><path class="cls-26" d="M185.53,170.5l.07.17c.06.27.71.08.45.59l-.73-.07c-.2,0-.46,0-.49-.26s.34-.28.51-.43A.12.12,0,0,0,185.53,170.5Z" transform="translate(-20.26 -89.31)"/><path class="cls-8" d="M74.1,173.42a6.74,6.74,0,0,0-2-1.49,8.2,8.2,0,0,0-4.41-.21c-.55.55-1.36.52-2,.93,1.12-.17,1.59.32,1.59,1.37,0,4.86,0,9.73,0,14.59a1.53,1.53,0,0,1-.09.48c-1.64,1.51-1.58,3.07.19,5a.57.57,0,0,1,.12.7,5.85,5.85,0,0,1-1.57.25c-1.13.19-1.75-.2-1.84-1.36a1,1,0,0,1,.09-.39c.84-1.21.31-2.59.39-3.87.31-4.73.11-9.47.16-14.16-.16.69.27,1.51-.29,2.21l-.21-4c-.17-.18-.12-.44-.22-.64-.11-.49-.23-1-.79-1.18a.2.2,0,0,1-.11-.17q0-.11,0-.11l0,0a1.12,1.12,0,0,0,0-.14,2.44,2.44,0,0,1,1.64-.34h7.6c.64.11,1.24.36,1.91.43s1.49.18,1.56,1.15c0,0-.08.14,0,.16s.21-.12.33-.15c.71-.18,1.12.2,1,.83a29.92,29.92,0,0,0-.19,3.33c0,.39,0,.93-.59.9s-.48-.52-.5-.87a8.31,8.31,0,0,0-.37-1.81,1.53,1.53,0,0,0-1-1.13A1.68,1.68,0,0,1,74.1,173.42Z" transform="translate(-20.26 -89.31)"/><path class="cls-27" d="M74.34,173.45c1.14.22,1.61.94,1.75,2.66,0,.38-.15.81.28,1.23.37-.55.18-1.13.2-1.66,0-.7-.06-1.41,0-2.1.13-.92.19-.89-.69-.77-.33,0-.92,0-.28-.52a2.5,2.5,0,0,0-1.63-.85c-.52,0-1.1.15-1.41-.48a.9.9,0,0,1,.88,0l1.1,0a12.4,12.4,0,0,1,2.7,1.5,5.61,5.61,0,0,1,1.46,4.67c-.56.06-.63-.4-.86-.77.12.9-.76,1.55-.55,2.59a1.45,1.45,0,0,0,.61-1.16c0-.25.11-.54.42-.49s.29.41.22.68a7.22,7.22,0,0,1-3.09,4.83c-.16.44-.65.29-.93.52l-.45,0a3.54,3.54,0,0,0-1.51.66,1.34,1.34,0,0,1-.38.08,5.11,5.11,0,0,1-1-.05c-.72-.2-.4-.51-.06-.8a11.33,11.33,0,0,0,2.22-.86l1.4-1.31a6.77,6.77,0,0,0,.5-5.68l-.24-.49A2.93,2.93,0,0,1,74.34,173.45Z" transform="translate(-20.26 -89.31)"/><path class="cls-28" d="M88,182.65c1-.66.66.9,1.31.84-.28,1.05.62,1.36,1.18,1.87.85-.23.72.42.73.86,0,1.8,0,3.61,0,5.42a4.7,4.7,0,0,0,.16,1.94c.33.75-.09,1-.72,1a6.16,6.16,0,0,1-1.69-.25c-.3-1.05.17-2,.24-3.07V186.2c-.2-.42,0-.9-.18-1.33-.46-.6-.45-1.46-1.07-2q-.1-.09-.06-.16S88,182.65,88,182.65Z" transform="translate(-20.26 -89.31)"/><path class="cls-28" d="M64.38,177.49v-4.06c.69.38.52.8.52,1.12q0,7.36,0,14.73a10.18,10.18,0,0,0,0,2.79,1.41,1.41,0,0,1-.67,1.49.57.57,0,0,1-.24-.31,2.46,2.46,0,0,1,.17-1.18h.1c.2-1.6-.1-3.22.16-4.82C64.25,184,64.27,180.74,64.38,177.49Z" transform="translate(-20.26 -89.31)"/><path class="cls-29" d="M121.53,193.29l-.27,0a5.88,5.88,0,0,1-1.51-1.67c-.06-.36-.42-.65-.21-1.06.45-.11,0-1.11.72-.84.43.15,1.23.29.73,1.15,0,0,.1.2.19.24C122.35,191.68,122.29,192.43,121.53,193.29Z" transform="translate(-20.26 -89.31)"/><path class="cls-28" d="M65.65,195.32l-2.73,0a.32.32,0,0,1,0-.49l.46-.1c.65,0,.55-.6.8-.91.41,1.16,1.32,1.15,2.27.92a1.2,1.2,0,0,1,.94.07c.13,0,.24,0,.27.12s-.13.27-.26.35l-1.25.06Z" transform="translate(-20.26 -89.31)"/><path class="cls-19" d="M177.64,195.26l-1.49.05c-.4-.15-1,0-.62-.89s-.18-2.07-.08-3.13c.41.6.22,1.42.7,2,.2-.08.28,0,.34.2a6.73,6.73,0,0,0,0,.76C176.71,194.76,177.73,194.36,177.64,195.26Z" transform="translate(-20.26 -89.31)"/><path class="cls-30" d="M119.54,190.58a1.49,1.49,0,0,1,.21,1.06,12.82,12.82,0,0,1-1.78-2.28l.33,0c.29-.15.36.12.49.26h0C119,189.95,119.09,190.39,119.54,190.58Z" transform="translate(-20.26 -89.31)"/><path class="cls-31" d="M143.82,193.33c.41-.36.81-.73.79.25,0,.4,0,.81,0,1.21a.51.51,0,0,1-.64.12l-.12-.12C144.3,194.29,143.91,193.81,143.82,193.33Z" transform="translate(-20.26 -89.31)"/><path class="cls-8" d="M64.39,187.25c-.06,1.61.24,3.23-.16,4.82A40.82,40.82,0,0,1,64.39,187.25Z" transform="translate(-20.26 -89.31)"/><path class="cls-32" d="M95.69,195.26a6.24,6.24,0,0,1-2,0,.36.36,0,0,1,0-.53l1.68.11Z" transform="translate(-20.26 -89.31)"/><path class="cls-33" d="M88.75,194.3a3.82,3.82,0,0,0,.26-2l.21-1a7.14,7.14,0,0,1-.2,3A.22.22,0,0,1,88.75,194.3Z" transform="translate(-20.26 -89.31)"/><path class="cls-34" d="M111.84,194.82l1,0a.24.24,0,0,0,.06.19c-.25.47-.66.29-1,.26Z" transform="translate(-20.26 -89.31)"/><path class="cls-35" d="M73.34,183.85l-.74,0a1.6,1.6,0,0,1,1.53-.48Z" transform="translate(-20.26 -89.31)"/><path class="cls-31" d="M145.11,195.25l-1,.06c-.25-.1-.76-.07-.26-.53l.08,0C144.27,195.13,144.91,194.58,145.11,195.25Z" transform="translate(-20.26 -89.31)"/><path class="cls-8" d="M89,184.87c.36.4.16.88.18,1.32A3,3,0,0,1,89,184.87Z" transform="translate(-20.26 -89.31)"/><path class="cls-36" d="M191.06,171.39l-.52.53c-.29.48.06,1-.22,1.52-.08,6.12-.12,12.25,0,18.37.21.49-.07,1,.19,1.53a1,1,0,0,0,.76,1.2c.46.3,1,0,1.49.21l.49,0a.35.35,0,0,1,0,.49l-2.52,0a3.35,3.35,0,0,1-1.08-2.29c0-5.8,0-11.61,0-17.41a10.55,10.55,0,0,0-.07-1.85,2.22,2.22,0,0,1-.08-1,5.22,5.22,0,0,0,.16-1.21,1.41,1.41,0,0,1,.55-.61.89.89,0,0,1,.49,0A.45.45,0,0,1,191.06,171.39Z" transform="translate(-20.26 -89.31)"/><path class="cls-37" d="M190.06,193.3l.75,2-2.48,0a1,1,0,0,1-.68.14c-.4-.22-.9-.4-.26-.92s.43-1.37,1.3-1.46a1.48,1.48,0,0,1,.49,0,2.62,2.62,0,0,0,.62.08A.38.38,0,0,1,190.06,193.3Z" transform="translate(-20.26 -89.31)"/><path class="cls-38" d="M191.06,171.39l-.26-.43q-.13-.09-.08-.17t.09-.08a2.83,2.83,0,0,1,1.62,0c.06.55-.65.26-.68.68Z" transform="translate(-20.26 -89.31)"/><path class="cls-39" d="M106.74,173.48l0-.31c.26-.12.06-.7.48-.58a.56.56,0,0,1,.23.75c-.53.68-.27,1.44-.27,2.16,0,5.16,0,10.33,0,15.7a1.72,1.72,0,0,1-.24-1.24c0-5,0-10.09,0-15.14A2.42,2.42,0,0,0,106.74,173.48Z" transform="translate(-20.26 -89.31)"/><path class="cls-40" d="M109.62,172.24c0,3.14,0,6.27,0,9.41,0,1.74.07,1.82,1.86,2a2.24,2.24,0,0,1,1.2.21l-1.24,0c-1.94,0-2.43-.49-2.25-2.4a69,69,0,0,0,.07-8.38,2.35,2.35,0,0,1,.19-1.14s.08,0,.09.06A1.87,1.87,0,0,1,109.62,172.24Z" transform="translate(-20.26 -89.31)"/><path class="cls-41" d="M106.12,171.45h-.27a3.85,3.85,0,0,1-1.93-.33h0c-.07-.39.14-.53.49-.51,3.75.18,7.51-.23,11.26.18.07,0,.14.08.21.13-2.85,0-5.71,0-8.56,0C106.9,171,106.29,170.7,106.12,171.45Z" transform="translate(-20.26 -89.31)"/><path class="cls-42" d="M160,187.35l-.82-2c1.19.72,1.5,2.05,2.09,3.16a12.3,12.3,0,0,1,1.13,2.23c.08.29.21.54-.07.78Z" transform="translate(-20.26 -89.31)"/><path class="cls-42" d="M160.64,186.4c.26-.68-.31-1.24-.26-1.92C161.48,185.45,161.49,185.51,160.64,186.4Z" transform="translate(-20.26 -89.31)"/><path class="cls-16" d="M156.06,179.39l-.53-1.47c.71.29,1.14.71.73,1.53Z" transform="translate(-20.26 -89.31)"/><path class="cls-43" d="M223.07,186.84l-.17,0c-.64.5-.5,1.32-.81,2h0a17.36,17.36,0,0,1-3.73,4.07.94.94,0,0,1-.5.15,1,1,0,0,1-.79-.38.83.83,0,0,1-.11-.34,1.16,1.16,0,0,1,.23-.66.92.92,0,0,1,.55-.34,1.34,1.34,0,0,0,.66-.22c.17-.21.07-.45.1-.68a.43.43,0,0,1,.19-.24c1.15-.44,1-1.46,1.07-2.38.12-.32.26-.66.69-.55s.33.66.6.95c-.21-1-1.08-1.85-.86-3,.05-1.81.4-3.64-.4-5.39a1.27,1.27,0,0,0-.45-.55,1.34,1.34,0,0,1-.49-.73,3.76,3.76,0,0,0-1.17-2c-.35-.49-1-.82-.85-1.58-.38-1.71-1.94-2-3.19-2.61-.8-.42-1.86-.13-2.48-1a11.52,11.52,0,0,1,6.82,1.7c.1.52-1,.11-.61.71A3.48,3.48,0,0,0,219,175.3s.19-.14.23-.24c.27-.59.18-.42.73-.15.95.48,1.15,1.71,2.22,2a10.61,10.61,0,0,1,1.46,6.33c0,.53,0,1.06-.06,1.59Z" transform="translate(-20.26 -89.31)"/><path class="cls-44" d="M176.4,193.55l-.25-.25a18.1,18.1,0,0,0,.75-6.69c0-.56.16-1.18-.7-1.34-.35-.06-.29-.46-.29-.74,0-3.19,0-6.39.17-9.59.22,2,.43,3.94.66,5.92s.43,4,.71,6a21.94,21.94,0,0,1,.28,4.13,1,1,0,0,0,.41.85c.38.81.25,1.74.64,2.57s-1,.15-.88.89h-.25c-.24-.5-.69-.49-1.14-.47s-.51-.14-.34-.5S176.49,193.86,176.4,193.55Z" transform="translate(-20.26 -89.31)"/><path class="cls-44" d="M177.66,184.81a2,2,0,0,1,.18,1.29C177.5,185.7,177.69,185.24,177.66,184.81Z" transform="translate(-20.26 -89.31)"/><path class="cls-45" d="M88.75,194.3H89c.71-.52,1.45.31,2.1,0-.26-2.57-.06-5.14-.14-7.7,0-.44.27-1-.49-1.21.14-.49-.36-1.39.48-1.4s.48.89.49,1.37c0,2.23,0,4.46,0,6.69,0,.43-.17.92.24,1.28.29-.19.19-.63.52-.79l.48,1.77c.17.51.68.32,1,.49h0l0,.53-2.72,0-2.47,0c-.79-.54.25-.63.24-1Z" transform="translate(-20.26 -89.31)"/><path class="cls-15" d="M96,177.68c-.19,1-1.06,1.72-1.4,2.68l-.86,1.14c.16-.7.39-1.45-.84-1.13a38.84,38.84,0,0,1,3-5l.07.07c.19,1.17-.6,2-1.08,2.88-.15.28-.45.47-.53.77C94.92,178.67,95,177.61,96,177.68Z" transform="translate(-20.26 -89.31)"/><path class="cls-46" d="M92.25,192.51c0,.35,0,.76-.52.79q0-3.7,0-7.4c0-.57,0-1.17.56-1.52Z" transform="translate(-20.26 -89.31)"/><path class="cls-47" d="M79.51,171.23c-.32-.07-.75.1-1-.54h6.26c.05.22,0,.34-.25.26H80.64C80.25,171,79.82,170.86,79.51,171.23Z" transform="translate(-20.26 -89.31)"/><path class="cls-48" d="M84.53,171l.25-.26c.23,0,.56-.17.6.15s-.33.3-.56.36Z" transform="translate(-20.26 -89.31)"/><path class="cls-21" d="M139.15,181.4l-2.38-6.07c-.74.59-.6,1.51-1.09,2.08a1,1,0,0,1,0-1c.43-.44.21-1.51,1.07-1.43s.71,1,.88,1.57C138.09,178.18,139.27,179.59,139.15,181.4Z" transform="translate(-20.26 -89.31)"/><path class="cls-8" d="M142.64,182.62v1.25h-1l-.14-.08c-.38-.37-.24-.66.14-.91a1.66,1.66,0,0,1,.25-1c.55-.06.44.56.75.74Z" transform="translate(-20.26 -89.31)"/><path class="cls-49" d="M140.27,180.54c.15,0,.2,0,.22,0a1.77,1.77,0,0,1,.5,1.66c0,.19-.41.22-.54.08C139.92,181.75,140.14,181.14,140.27,180.54Z" transform="translate(-20.26 -89.31)"/><path class="cls-8" d="M141.64,183.87c.13.32.57.56.25,1a.7.7,0,0,1-1,0,.45.45,0,0,0-.55-.19h0a1.27,1.27,0,0,1,0-1c.39-.18.52-.11.35.34s.16.47.39.47c.39,0,.19-.36.25-.56s.16-.1.25,0Z" transform="translate(-20.26 -89.31)"/><path class="cls-25" d="M133.92,182.38l-.69,2.47-.53-.73a.19.19,0,0,1,0-.25C133.67,183.83,133.09,182.52,133.92,182.38Z" transform="translate(-20.26 -89.31)"/><path class="cls-50" d="M132.7,183.87q0,.12,0,.25h0c-.3.18-.6.53-1,.25s-.16-.52,0-.79l.05-.45C132.09,183.33,132.76,183.14,132.7,183.87Z" transform="translate(-20.26 -89.31)"/><path class="cls-25" d="M142.64,182.62c-.4-.1-.44-.55-.75-.74,0-.34-.24-.69,0-1l.2.07Z" transform="translate(-20.26 -89.31)"/><path class="cls-25" d="M140.4,183.62l0,1-.65-1.32v-.46Z" transform="translate(-20.26 -89.31)"/><path class="cls-51" d="M139.67,175.38a1.83,1.83,0,0,1,.45,1C139.46,176.3,139.7,175.78,139.67,175.38Z" transform="translate(-20.26 -89.31)"/><path class="cls-25" d="M141.64,183.87h-.25c-.34-.44-.45-.82.25-1A.81.81,0,0,0,141.64,183.87Z" transform="translate(-20.26 -89.31)"/><path class="cls-14" d="M135.67,176.42v1.48l-.2.12C135.5,177.48,135.23,176.9,135.67,176.42Z" transform="translate(-20.26 -89.31)"/><path class="cls-14" d="M132.7,181.88a.45.45,0,0,1,.49-.5C133.47,182,133,181.86,132.7,181.88Z" transform="translate(-20.26 -89.31)"/><path class="cls-52" d="M153.76,190.56c0,.74,0,1.48-.13,2.21-.16,1.2.26,1.92,1.53,2,.28,0,.43.17.67.48h-2.27a8.9,8.9,0,0,1,0-4.94A.39.39,0,0,1,153.76,190.56Z" transform="translate(-20.26 -89.31)"/><path class="cls-53" d="M150.83,195.25a23.8,23.8,0,0,1-4,0c.07-.44.47-.77.72-.52.56.56.66-.28,1-.21a2.72,2.72,0,0,0,2.21,0C151.21,194.75,150.93,195,150.83,195.25Z" transform="translate(-20.26 -89.31)"/><path class="cls-54" d="M153.25,177.39a51.33,51.33,0,0,1,.77-6.54A23,23,0,0,1,153.25,177.39Z" transform="translate(-20.26 -89.31)"/><path class="cls-55" d="M153.76,190.56l-.21-.24c0-.34-.14-.75.29-1Z" transform="translate(-20.26 -89.31)"/><path class="cls-56" d="M151.27,193.79l.28-1.34C151.49,192.9,151.8,193.43,151.27,193.79Z" transform="translate(-20.26 -89.31)"/><path class="cls-57" d="M204,172a1.73,1.73,0,0,0-.26,1.18c0,5.83,0,11.66,0,17.5,0,.91-.13,1.92.7,2.64.7.9,1.83.66,2.73,1a.42.42,0,0,1,.13.3.45.45,0,0,1-.17.27c-.06.24-.8-.26-.46.43,0,0-.17.13-.29.17-.66.06-1.33,0-2,0a2.94,2.94,0,0,1-1.69-.22v-.09a6,6,0,0,0-1.09-.08c-.35-.06-1,.25-.95-.38s.68-.33,1-.28c1,.12,1.94-.06,2.6.05.47,0,.31-.25.35-.09s0,.08-.1.07c-.6-.09-1.2,0-1.8,0-.23,0-.55-.05-.5-.39s.39-.14.58-.23c-.37,0-.53-.16-.48-.52a.62.62,0,0,1,.22-.26c.69-.21.46-.73.39-1.19s-.49-.65-.55-1.07c-.15-5.45,0-10.9-.06-16.35a1.73,1.73,0,0,1,.14-.72c.11-.23.25-.45.54-.39s.27.28.28.49,0,.58,0,.87q0,7.14,0,14.28c0-4.75,0-9.51,0-14.26a6.24,6.24,0,0,0-.28-2.07c-.11-.71.06-1.22.89-1.26Z" transform="translate(-20.26 -89.31)"/><path class="cls-44" d="M202.47,193.3c0,.55.52.41.83.66l-.85.16v.11l3.13.14a16.85,16.85,0,0,1-4.86.39c.71.53,1.46,0,2,.47l-2.25,0a.68.68,0,0,1,.25-1,.92.92,0,0,0,.38-1c-.06-.67,0-1.35-.13-2V175.43a1.37,1.37,0,0,0,0-1.24c0-.27,0-.57.24-.75.6-.23.71.21.79.61a6.64,6.64,0,0,1,.06,1.36q0,7.85,0,15.7a3.9,3.9,0,0,0,.14,1.59A3,3,0,0,1,202.47,193.3Z" transform="translate(-20.26 -89.31)"/><path class="cls-43" d="M202,193.3c-.43-.41-.24-.94-.24-1.41,0-5.75,0-11.5,0-17.25,0-.44.27-1.05-.49-1.21a5.22,5.22,0,0,1-.25-2c.33-.37,1,.07,1.24-.49h3.47a.32.32,0,0,1,0,.48H204a1.17,1.17,0,0,0-.75,1c.1.15.15.39,0,.45-1.11.47-.89,1.44-.89,2.32q0,8.16,0,16.32A2.39,2.39,0,0,1,202,193.3Z" transform="translate(-20.26 -89.31)"/><path class="cls-57" d="M211.1,171.38h-3.82C208.21,170.72,210.55,170.81,211.1,171.38Z" transform="translate(-20.26 -89.31)"/><path class="cls-58" d="M201,191.32c.62.81,0,1.84.48,2.73.18.31-.47.17-.73.25C201.26,193.34,200.57,192.28,201,191.32Z" transform="translate(-20.26 -89.31)"/><path class="cls-57" d="M202.23,171c.16,1.63-.87.21-1.24.49-.25-.26-.17-.44.16-.47A10.71,10.71,0,0,1,202.23,171Z" transform="translate(-20.26 -89.31)"/><path class="cls-57" d="M205.7,171.45V171c.29.05.65-.15.86.24C206.35,171.6,206,171.39,205.7,171.45Z" transform="translate(-20.26 -89.31)"/><path class="cls-57" d="M209.16,171.87l-.23.09a1.07,1.07,0,0,1-1.42-.06l-.16-.18C208,171.76,208.58,171.54,209.16,171.87Z" transform="translate(-20.26 -89.31)"/><path class="cls-58" d="M201,174.18a.84.84,0,0,1,0,1.24Z" transform="translate(-20.26 -89.31)"/><path class="cls-25" d="M141.13,186.62c-.21-.11-.42-.33-.63-.33-2.67.05-5.35-.19-8,.12a.66.66,0,0,1,.72-.55,47,47,0,0,0,5.34.13,9.92,9.92,0,0,1,1.82.07l.53-.19Z" transform="translate(-20.26 -89.31)"/><path class="cls-53" d="M145.11,195.25c-.29-.42-.88,0-1.17-.42l.68,0c.34,0,.7,0,.74.46Z" transform="translate(-20.26 -89.31)"/><path class="cls-53" d="M146.6,195.26h-.5c0-.17-.46-.26-.18-.41S146.56,194.82,146.6,195.26Z" transform="translate(-20.26 -89.31)"/><path class="cls-17" d="M118.79,189.58l-.49-.25c.06-.61-.68-.91-.59-1.54,0-.14-.41-.3,0-.43.19-.06.46-.26.6.12C118.55,188.16,119.17,188.75,118.79,189.58Z" transform="translate(-20.26 -89.31)"/><path class="cls-25" d="M133.22,184.83a58,58,0,0,0,7.13-.09l0,.62a28,28,0,0,0-6.4,0C133.59,185.36,133.23,185.4,133.22,184.83Z" transform="translate(-20.26 -89.31)"/><path class="cls-59" d="M140.37,186l-6.38,0c-.28,0-.58,0-.79-.23h7Z" transform="translate(-20.26 -89.31)"/><path class="cls-25" d="M129.46,189.33l.58-1.92.87-1.82a.46.46,0,0,1,.22.63,16.69,16.69,0,0,0-1.25,2.93C129.86,189.23,129.61,189.27,129.46,189.33Z" transform="translate(-20.26 -89.31)"/><path class="cls-25" d="M131.69,183.58c-.16,1.1.7.31,1,.54-.14.22.41,1-.55.58-.38-.17-.44,1-1.16.66A5.61,5.61,0,0,1,131.69,183.58Z" transform="translate(-20.26 -89.31)"/><path class="cls-25" d="M132.5,186.39a3.54,3.54,0,0,1-.54,1.47C132.39,187.46,131,186.4,132.5,186.39Z" transform="translate(-20.26 -89.31)"/><path class="cls-25" d="M132,187.85l-.46,1.25C130.94,188.42,131.32,188.09,132,187.85Z" transform="translate(-20.26 -89.31)"/><path class="cls-60" d="M119.78,180.15c-.21,0-.4-.09-.47-.33-.44-1.45.23-2.86.17-4.29,0-.05.27-.12.47-.2.32,1.67-.48,3.23-.16,4.82Z" transform="translate(-20.26 -89.31)"/><path class="cls-60" d="M120,180.62l-.18.29c-.22,0-.51.33-.61.05s.36-.53.54-.82h0A.49.49,0,0,1,120,180.62Z" transform="translate(-20.26 -89.31)"/><path class="cls-14" d="M78.6,178l-.2-.78c-.19.7-.09,1.18-.38,1.55s-.38.81-.77.64-.41-.64-.28-1.08c.26-.91.91-1.72.49-3,1,.49.55,1.53,1.29,1.78A1,1,0,0,1,78.6,178Z" transform="translate(-20.26 -89.31)"/><path class="cls-8" d="M96,177.68a3.48,3.48,0,0,0-1.35,1.54c-.11.21-.15.67-.57.45s-.13-.63,0-.81A10.66,10.66,0,0,0,96,175.44a2.53,2.53,0,0,0,1.41-1.83c.15-.56.39-.71.81-.51s.08.5-.05.77a9.87,9.87,0,0,1-1.7,2.37c-.28.3-.84.71-.17,1.2Z" transform="translate(-20.26 -89.31)"/><path class="cls-61" d="M99.45,170.74a17.63,17.63,0,0,1,3.44,0c-.28.68-.92.38-1.4.5Z" transform="translate(-20.26 -89.31)"/><path class="cls-61" d="M97.1,171.24c-.23-.07-.57-.1-.58-.35s.34-.25.56-.24c.52,0,1,.06,1.56.09Z" transform="translate(-20.26 -89.31)"/><path class="cls-62" d="M186.58,195.27l-1.74,0v-.45a4.26,4.26,0,0,0,1.64-.31.4.4,0,0,1,.34,0C187,194.83,186.78,195,186.58,195.27Z" transform="translate(-20.26 -89.31)"/><path class="cls-37" d="M186.83,194.55l-.33,0a6.89,6.89,0,0,0,.59-3.5c0-6,0-12.05,0-18.08a.28.28,0,0,1,.37.15,1.63,1.63,0,0,1,.16.67c-.28,4.65-.2,9.31-.21,14a2.94,2.94,0,0,0,.09,1.19c.06.16.23,0,.08,0s-.09,0-.09-.08c-.15-3.79-.05-7.58-.05-11.36.78-.23.63.44.67.78.11.82,0,1.65.06,2.48.14,3-.36,5.95.33,8.89a.34.34,0,0,1,0,.24c-.82,1.22-.79,2.63-.93,4A.66.66,0,0,1,186.83,194.55Z" transform="translate(-20.26 -89.31)"/><path class="cls-63" d="M190.81,170.7V171h-.5c-1,.58-2,.24-3.06.34a2,2,0,0,0-.91.12l-.28-.16-.45-.59Z" transform="translate(-20.26 -89.31)"/><path class="cls-64" d="M186.33,171.42a.44.44,0,0,1,.5-.46c.22.19.55.26.67.58a1.64,1.64,0,0,1,.11.54,1,1,0,0,1-.29.86h-.2C187,172.37,186.91,171.76,186.33,171.42Z" transform="translate(-20.26 -89.31)"/><path class="cls-13" d="M124.42,193.43c.44,0,.52.46.76.7s.68.28.58.67-.42.29-.63.16-.93,0-.77-.71C124.43,194,124.13,193.7,124.42,193.43Z" transform="translate(-20.26 -89.31)"/><path class="cls-65" d="M73.48,170.93l-.88,0c-2.63,0-5.25,0-7.88,0a14.2,14.2,0,0,0-1.69.21,2.48,2.48,0,0,1-1.28-.13c0-.42.3-.42.54-.42l10.12.08A1.59,1.59,0,0,1,73.48,170.93Z" transform="translate(-20.26 -89.31)"/><path class="cls-25" d="M140.89,184.86h1c.24.23.2.42-.12.47S141,185.44,140.89,184.86Z" transform="translate(-20.26 -89.31)"/><path class="cls-66" d="M67.4,195.26c0-.16.27-.32,0-.47a.52.52,0,0,0-.25-.5c-.42-1.64-1-3.27-.25-5q0-7.48,0-15c0-1.53-.23-1.7-1.71-1.21,0-.71.16-1.3,1-1.19.62.08,1-.42,1.46-.51a.66.66,0,0,1,0,.67,3.39,3.39,0,0,0-.15,1.34q0,9.27,0,18.54a4.88,4.88,0,0,0,.64,2.47l.78.31c-.17.32-.59.23-.78.49Z" transform="translate(-20.26 -89.31)"/><path class="cls-35" d="M72.45,183.9a6.33,6.33,0,0,1-3.07.2c.13-.24,0-.48,0-.71a.5.5,0,0,1,.77,0l.74,0a.36.36,0,0,1,.5,0c0,.16-.64.37,0,.47A9.13,9.13,0,0,0,72.45,183.9Z" transform="translate(-20.26 -89.31)"/><path class="cls-67" d="M67.89,171.95a.59.59,0,0,1-.24,0q0-.23,0-.46h3.52c.38,0,.85-.13.94.48A8.54,8.54,0,0,0,67.89,171.95Z" transform="translate(-20.26 -89.31)"/><path class="cls-28" d="M68.14,195.27c0-.52.44-.47.78-.49l.46,0a.3.3,0,0,1,0,.47Z" transform="translate(-20.26 -89.31)"/><path class="cls-68" d="M69.38,195.28v-.47h1c.1.13.43.16.19.43h0Z" transform="translate(-20.26 -89.31)"/><path class="cls-69" d="M69.1,184.2c-.28-.34-.36-.61.24-.6s.11.32,0,.49l-.37.11,0,.08Z" transform="translate(-20.26 -89.31)"/><path class="cls-28" d="M66.89,189.33l.25,5c-2-1-1.4-2.88-1.44-4.49C65.69,189.07,66.46,189.43,66.89,189.33Z" transform="translate(-20.26 -89.31)"/><path class="cls-70" d="M64.19,193.8c-.09.46.16,1.22-.8.91.46-.37.51-1,.77-1.44l.05.28Z" transform="translate(-20.26 -89.31)"/><path class="cls-71" d="M218.36,192.8c-.12-.84.78-.68,1.14-1.07.86-1,1.4-2.23,2.59-2.89a9.32,9.32,0,0,1-3.24,4A.32.32,0,0,1,218.36,192.8Z" transform="translate(-20.26 -89.31)"/><path class="cls-71" d="M222.09,188.83c-.31-.76.42-1.4.23-2.2-.06-.27.32.29.58.25l-.4,1.43Z" transform="translate(-20.26 -89.31)"/><path class="cls-72" d="M215.62,194.76h-.49c.08-1.17.88-1.24,1.77-1.17a.49.49,0,0,1,.28.27Z" transform="translate(-20.26 -89.31)"/><path class="cls-73" d="M218.36,192.8h.49a3.71,3.71,0,0,1-1.66,1.07l-.08-.09c-.39-.83.52-.65.77-1Z" transform="translate(-20.26 -89.31)"/><path class="cls-32" d="M93.74,194.77c-.42,0-.94.21-1-.49Z" transform="translate(-20.26 -89.31)"/><path class="cls-33" d="M88.75,194.3c.11.37-.59.55-.24,1a4.11,4.11,0,0,1-1.69,0l0-.42A3.42,3.42,0,0,0,88.75,194.3Z" transform="translate(-20.26 -89.31)"/><path class="cls-8" d="M89.88,185.29v8.09h-.3A42.29,42.29,0,0,1,89.88,185.29Z" transform="translate(-20.26 -89.31)"/><path class="cls-70" d="M62.92,194.81v.49l-.75.07C62,194.81,62,194.81,62.92,194.81Z" transform="translate(-20.26 -89.31)"/><path class="cls-7" d="M176.4,193.55l.81-.12-1.06.86C176.16,194,176.11,193.73,176.4,193.55Z" transform="translate(-20.26 -89.31)"/><path class="cls-74" d="M187.32,172.94v-1c.66-.3,1.42.54,2.11-.22.16-.17.59.27.36.71v1a1.37,1.37,0,0,1,.12.84c-.05,5.11.09,10.23-.07,15.34a22.71,22.71,0,0,1,0,3.68q-.25.38-.5,0c-.69-1.26-.2-2.62-.35-3.92q0-7.35,0-14.7c0-.51.32-1.39-.81-1.22a1.16,1.16,0,0,1-.41.13.6.6,0,0,1-.39-.15Z" transform="translate(-20.26 -89.31)"/><path class="cls-11" d="M189.81,193.3q0-9.93,0-19.86c.4.37.23.85.24,1.29q0,9.29,0,18.57Z" transform="translate(-20.26 -89.31)"/><path class="cls-11" d="M189.81,172.44c-.15-.07.18-.86-.44-.25s-1.38,0-2-.24v-.5a2.38,2.38,0,0,1,2.49,0C189.94,171.78,190.26,172.11,189.81,172.44Z" transform="translate(-20.26 -89.31)"/><path class="cls-74" d="M189.81,171.45h-2.49a.86.86,0,0,1-.5-.5h3.47A.45.45,0,0,1,189.81,171.45Z" transform="translate(-20.26 -89.31)"/><path class="cls-75" d="M187.57,173.44h.25c1-.5,1.23.1,1.24.94,0,2.56,0,5.12,0,7.69q0,3.59,0,7.19c-.13,1.35.27,2.72-.25,4a.72.72,0,0,0-.78.64c0,.51-.1.93-.74.94l.27.37-1,0,.24-.72a1,1,0,0,0,.59-1.13c-.1-1.19-.38-2.38.78-3.26a.4.4,0,0,0,.09-.34c-1-3.88-.18-7.83-.45-11.73a.81.81,0,0,0-.25-.66A13.35,13.35,0,0,1,187.57,173.44Z" transform="translate(-20.26 -89.31)"/><path class="cls-76" d="M188.82,193.3v-4a.34.34,0,0,1,.5,0q0,2,0,4Z" transform="translate(-20.26 -89.31)"/><path class="cls-57" d="M217.87,192.81c0,.55-.93.32-.77,1a1.94,1.94,0,0,0-2,1l-.09.06h-.1A11.87,11.87,0,0,1,213,195a1.54,1.54,0,0,1-1.07-.15.43.43,0,0,1,0-.6.09.09,0,0,1,.16,0,5.86,5.86,0,0,0,3.07-.94l.46-.35a.59.59,0,0,0,.78-.26.94.94,0,0,1,.75-.16Z" transform="translate(-20.26 -89.31)"/><path class="cls-71" d="M220.36,185.36c.3.71.13,1.56,1,2.12.61.38-.35.92-.21,1.5-.71-.18-.52-.66-.56-1-.13-1-.45-.28-.71-.08l-.14-.14a2.9,2.9,0,0,1,.41-2.39Z" transform="translate(-20.26 -89.31)"/><path class="cls-71" d="M219.69,179.87l-.28-.73c.19-.08.44-.2.54,0a10.07,10.07,0,0,1,.41,6.18l0,0a1.82,1.82,0,0,1-.32-1.5C220.1,182.5,219.46,181.22,219.69,179.87Z" transform="translate(-20.26 -89.31)"/><path class="cls-71" d="M218.66,190.32l.44-1c.3-.44.06-1.07.53-1.45h0q.05-.16.19-.06l.07.05C220.25,189.38,219.8,190.27,218.66,190.32Z" transform="translate(-20.26 -89.31)"/><path class="cls-73" d="M216.4,192.36l.69-.15,0,.34c-.18.29-.48.24-.75.26a.22.22,0,0,1-.33-.06Z" transform="translate(-20.26 -89.31)"/><path class="cls-73" d="M217.86,191.56c.07-.31.14-.63.49-.78.23.11.39.25.27.53S218.14,191.56,217.86,191.56Z" transform="translate(-20.26 -89.31)"/><path class="cls-71" d="M218.62,191.32l-.27-.53.18-.25C218.9,190.76,219,191,218.62,191.32Z" transform="translate(-20.26 -89.31)"/><path class="cls-77" d="M92,194.86a3,3,0,0,1-1.94,0Z" transform="translate(-20.26 -89.31)"/><path class="cls-72" d="M211.91,194.29v.5a6.61,6.61,0,0,1-4.72,0v-.25c1.48-.33,3,.09,4.46-.22Z" transform="translate(-20.26 -89.31)"/><path class="cls-72" d="M215.14,193.33c-.73,1.28-2,.94-3.07.94Z" transform="translate(-20.26 -89.31)"/><path class="cls-78" d="M211.66,194.32c-1.47.51-3,.1-4.46.22q0-.11,0-.21Z" transform="translate(-20.26 -89.31)"/><path class="cls-71" d="M216,192.76l.33.06c-.15.58-.42.63-.78.16C215.68,192.77,215.86,192.76,216,192.76Z" transform="translate(-20.26 -89.31)"/><path class="cls-58" d="M202,193.3q0-8.59,0-17.18c0-1.36-.37-2.86,1.24-3.68.31.24.25.59.25.91q0,8.12,0,16.24a.49.49,0,0,1-.3.46V173.61h-.44v17.7a1.77,1.77,0,0,1,0,2H202Z" transform="translate(-20.26 -89.31)"/><path class="cls-44" d="M207.19,194.79h5.71c-.09.6-.63.46-1,.61a41.63,41.63,0,0,1-5.21-.13l-.7-.49Z" transform="translate(-20.26 -89.31)"/><path class="cls-79" d="M206.69,195.28h5.47c.13,0,.21,0,.22.13a30.41,30.41,0,0,1-8-.1Z" transform="translate(-20.26 -89.31)"/><path class="cls-44" d="M202.72,193.3q0-1,0-2c1.17,0,.36,1,.68,1.46S203.11,193.3,202.72,193.3Z" transform="translate(-20.26 -89.31)"/><path class="cls-64" d="M187.57,173.44q0,2,0,4,0,5.81,0,11.62h-.23q0-7.8,0-15.59Z" transform="translate(-20.26 -89.31)"/><path class="cls-72" d="M212.38,195.41l-.22-.13.74-.48,2,0-1.06.46Z" transform="translate(-20.26 -89.31)"/><path class="cls-29" d="M189.31,189.33h-.5c0-4.89,0-9.79,0-14.68,0-.72,0-1.36-1-1.21.13-.69.67-.52,1.07-.45.59.1.41.64.41,1Q189.32,181.67,189.31,189.33Z" transform="translate(-20.26 -89.31)"/></svg>