<svg xmlns="http://www.w3.org/2000/svg" viewBox="0 0 621.97 264.46"><defs><style>.a{fill:#ed1c26;}.b{fill:#fff;}</style></defs><title>dodge_country</title><path class="a" d="M171.31,315c-31.31,0-60.06-9.51-75-18.13-27.26-15.73-20.24-35.43-18.56-39.22,4.36-9.79,15.66-14.26,31-12.26,17.66,2.3,32.18,3.52,49.56,1.54l7.9-1.58c14.34-3,20.54-4.34,39.9-15.4,12.57-7.18,23.07-18.91,30.7-27.26,5.13-5.6,9.56-10.43,13.81-13.74,8.18-6.36,20.12-8.33,27.8-4.57a12.94,12.94,0,0,1,7.49,12c0,10.59-4.26,54.71-17,68.76q-1.57,1.74-3.34,3.74c-12.14,13.65-30.48,34.28-59.82,41.91A136.86,136.86,0,0,1,171.31,315Zm-69.52-60.6c-7.84,0-13.32,2.48-15.37,7.1-1.56,3.49-5.09,15.78,14.63,27.15,22.91,13.22,66.56,22.25,102.31,12.95,26.55-6.9,43.74-26.24,55.11-39,1.21-1.36,2.34-2.64,3.41-3.81,9.47-10.41,14.57-48.94,14.57-62.39a3.45,3.45,0,0,0-2.18-3.47c-3.93-1.93-12-1-17.81,3.53-3.62,2.82-7.79,7.38-12.63,12.67-8,8.69-17.87,19.52-30.69,28.33-17.69,12.16-31.57,15.09-46.26,18.2l-3.21.68c-16.85,3.61-37.71.89-56.12-1.52A45.68,45.68,0,0,0,101.79,254.41Z" transform="translate(-75.69 -173.77)"/><path class="a" d="M125.94,251.68c-.23-.77,1-5.73.79-7.11-1.63-12.58-1.58-19.75-2-29.62l.27-3.37c.58-7.17.87-10.77,2.32-15.12,4.52-13.57,15.4-13.12,22.6-12.82,1.1.05,2.18.09,3.23.09,6.37,0,7.89-.84,14.43-6.07,9.93-7.94,18.13-1.85,23,1.79l1.65,1.22c5.68,4.05,33.59,26.77,39.52,29.93l-9.88,8.27c-8.29-7.42-30.78-27.37-35.15-30.49l-1.8-1.32c-5.36-4-7.42-5.21-11.44-2-7.39,5.92-11.06,8.16-20.35,8.16-1.18,0-2.39-.05-3.62-.1-7.39-.31-11-.17-13.21,6.33-1.09,3.27-1.32,6.09-1.87,12.9l-.27,3.38c-.61,7.22,4.53,24.09,6.73,31.3.42,1.39.77,2.54,1,3.35Z" transform="translate(-75.69 -173.77)"/><path class="a" d="M148.45,288.82c5.2,3,23.31,9.48,37.53,7.11s23.32-5.82,32.79-11.85c8.69-5.53,23.71-19.36,25.29-28.84s-5.53-14.22-18.18-7.11c-9.93,5.58-33.55,23.87-58.46,22.52C131.07,268.67,139,283.29,148.45,288.82Z" transform="translate(-75.69 -173.77)"/><path d="M307.15,329.18a35.1,35.1,0,0,0,14-7.94,42.85,42.85,0,0,0,10.42-17.12,62.28,62.28,0,0,0,2.93-20.1c0-8.7-1.05-16.17-3.11-22.2a42.65,42.65,0,0,0-9.28-15.72,33.61,33.61,0,0,0-15-9.16c-4.25-1.23-10.12-1.84-17.94-1.84H252.79v96.13h37.36C297.22,331.23,302.78,330.56,307.15,329.18Zm-24.78-72c8.77,0,12.45.42,14,.77a13.63,13.63,0,0,1,6.67,3.32,17,17,0,0,1,4.18,7.19c1.1,3.31,1.65,8.28,1.65,14.77s-.56,11.66-1.67,15.3c-1,3.31-2.29,5.74-3.71,7a13.38,13.38,0,0,1-5.78,2.91c-1.33.34-4.15.74-10,.74h-9.94v-52Z" transform="translate(-75.69 -173.77)"/><path d="M383.48,332.75c14,0,25.42-4.46,33.89-13.26s12.71-20.94,12.71-36.2-4.31-27.64-12.81-36.42-20-13.29-34-13.29a52.57,52.57,0,0,0-20.56,3.8A38.39,38.39,0,0,0,350,246.19a45.61,45.61,0,0,0-9,13.25c-2.9,6.58-4.37,14.75-4.37,24.27,0,15.06,4.28,27.12,12.72,35.85S369.3,332.75,383.48,332.75Zm-21.31-49.64c0-9.32,2-16.28,5.92-20.69S377,256,383.42,256s11.41,2.09,15.23,6.37,5.83,11.25,5.83,20.53-2,16.45-6,20.93a19.05,19.05,0,0,1-15,6.58,19.25,19.25,0,0,1-15.15-6.65C364.22,299.2,362.17,292.26,362.17,283.11Z" transform="translate(-75.69 -173.77)"/><path d="M486.45,329.18a35.1,35.1,0,0,0,14-7.94,43,43,0,0,0,10.42-17.12A62.3,62.3,0,0,0,513.8,284c0-8.7-1-16.17-3.1-22.2a42.67,42.67,0,0,0-9.29-15.72,33.52,33.52,0,0,0-15-9.16c-4.26-1.23-10.12-1.84-17.95-1.84H432.08v96.13h37.37C476.52,331.23,482.08,330.56,486.45,329.18Zm-24.78-72c8.77,0,12.45.42,14,.77a13.72,13.72,0,0,1,6.67,3.32,17.08,17.08,0,0,1,4.18,7.19c1.09,3.31,1.65,8.28,1.65,14.77s-.56,11.66-1.67,15.3c-1,3.31-2.3,5.74-3.71,7a13.36,13.36,0,0,1-5.79,2.91c-1.33.34-4.14.74-10,.74h-9.94v-52Z" transform="translate(-75.69 -173.77)"/><path d="M565.21,332.75a63.45,63.45,0,0,0,23-4.4c7.55-2.93,13.46-6.43,17.55-10.38l1.07-1V276.44H561v22h20.61v6a37.72,37.72,0,0,1-7.53,3.9,27.75,27.75,0,0,1-10.07,2c-6.63,0-11.82-2.21-15.87-6.76S542,291.78,542,282.13c0-8.85,2-15.51,6-19.8s9.28-6.37,16.19-6.37c4.47,0,8,1,10.92,3.13a15.32,15.32,0,0,1,5.78,8.51l.88,3.06,24.55-4.6-.77-3.52a35,35,0,0,0-13.34-21.3c-6.81-5.08-16.24-7.66-28-7.66-9,0-16.75,1.63-22.94,4.83a42.87,42.87,0,0,0-18.56,18,55,55,0,0,0-6.26,26.4A58.09,58.09,0,0,0,522,308.12a40.91,40.91,0,0,0,17.07,18.31C546.53,330.63,555.32,332.75,565.21,332.75Z" transform="translate(-75.69 -173.77)"/><polygon points="610.54 135.44 560.74 135.44 560.74 118.19 605.49 118.19 605.49 96.17 560.74 96.17 560.74 83.41 608.83 83.41 608.83 61.33 535.75 61.33 535.75 157.46 610.54 157.46 610.54 135.44"/><path d="M167.74,399.66c-1.33,5.76-3.46,10-6.32,12.5a14.53,14.53,0,0,1-10,3.69,16.25,16.25,0,0,1-13.14-5.94c-3.48-4.11-5.25-11.45-5.25-21.81,0-9.7,1.79-16.68,5.32-20.75a16.79,16.79,0,0,1,13.43-5.91,14.93,14.93,0,0,1,15.38,12.24l.78,3.45,24.81-5.93-1-3.51c-2.19-7.72-5.59-13.78-10.08-18-7.45-7.05-17.2-10.63-29-10.63-13.44,0-24.47,4.52-32.78,13.43s-12.43,21.27-12.43,36.95c0,14.88,4.17,26.84,12.38,35.56s18.95,13.23,31.73,13.23c10.3,0,19-2.62,25.8-7.79s11.73-13.1,14.6-23.54l.89-3.24L168.59,396Z" transform="translate(-75.69 -173.77)"/><path d="M238.52,339.06a52.5,52.5,0,0,0-20.56,3.8,38.33,38.33,0,0,0-12.69,8.81,45.81,45.81,0,0,0-9,13.25c-2.9,6.58-4.37,14.75-4.37,24.27,0,15.06,4.28,27.12,12.72,35.85s20,13.19,34.13,13.19c14,0,25.42-4.46,33.89-13.26s12.71-20.94,12.71-36.2-4.31-27.64-12.81-36.42S252.57,339.06,238.52,339.06Zm21.24,49.28c0,9.4-2,16.45-6,20.93a19.09,19.09,0,0,1-15.05,6.58,19.28,19.28,0,0,1-15.15-6.65c-4-4.52-6.1-11.46-6.1-20.61,0-9.33,2-16.28,5.92-20.69s8.9-6.46,15.33-6.46,11.41,2.09,15.23,6.37S259.76,379.06,259.76,388.34Z" transform="translate(-75.69 -173.77)"/><path d="M340.38,393.39a98,98,0,0,1-.74,14.54,8.9,8.9,0,0,1-3.43,5.56c-1.94,1.57-5.09,2.36-9.35,2.36s-7.51-.87-9.77-2.6a10.93,10.93,0,0,1-4.19-6.68c-.27-1.39-.6-5-.6-14.21V340.58h-25v51.05c0,10.33.6,18,1.85,23.41a28.13,28.13,0,0,0,5.74,11.29A31.2,31.2,0,0,0,306.61,435c4.9,2.19,11.7,3.25,20.8,3.25,7.47,0,13.69-1,18.47-3A30.74,30.74,0,0,0,357.69,427a28.8,28.8,0,0,0,6.15-12.71c1-4.71,1.54-12.38,1.54-23.43V340.58h-25Z" transform="translate(-75.69 -173.77)"/><polygon points="348.35 217.42 317.33 166.81 294.36 166.81 294.36 262.94 318.08 262.94 318.08 213.64 348.56 262.94 372.07 262.94 372.07 166.81 348.35 166.81 348.35 217.42"/><polygon points="375.22 188.89 401.67 188.89 401.67 262.94 426.67 262.94 426.67 188.89 453.05 188.89 453.05 166.81 375.22 166.81 375.22 188.89"/><path d="M596,399a39.58,39.58,0,0,0-3.75-3.5A27.64,27.64,0,0,0,604,388c4.51-5,6.8-11.36,6.8-18.91a29.28,29.28,0,0,0-4.44-15.92,24,24,0,0,0-12.1-9.95c-4.76-1.76-11.95-2.62-22-2.62H530.93v96.13h25V399.5h.15c4.63,0,6.85.44,7.89.81a10.4,10.4,0,0,1,4,2.81c1.07,1.13,3.52,4.25,9.12,12.65l14,20.94h29.71L606.65,414C602.2,406.79,598.71,401.88,596,399Zm-40.06-36.3h10.54c9.31,0,11.92.17,12.56.26a7.58,7.58,0,0,1,4.71,2.33,7.3,7.3,0,0,1,1.54,5,8.3,8.3,0,0,1-1.21,4.71,6.3,6.3,0,0,1-3.28,2.43c-.81.27-3.88.91-15,.91h-9.81Z" transform="translate(-75.69 -173.77)"/><polygon points="592.87 166.81 574.3 198.68 555.34 166.81 525.9 166.81 561.4 222.94 561.4 262.94 586.34 262.94 586.34 223.07 621.97 166.81 592.87 166.81"/><path class="b" d="M256.29,238.6h32.89q11.13,0,17,1.71a29.81,29.81,0,0,1,13.44,8.2A39.14,39.14,0,0,1,328.09,263Q331,271.5,331,284a58.71,58.71,0,0,1-2.74,19,39.33,39.33,0,0,1-9.54,15.74,31.81,31.81,0,0,1-12.65,7.12q-6,1.88-15.93,1.88H256.29Zm18,15.08v59h13.44a48.9,48.9,0,0,0,10.88-.85,16.58,16.58,0,0,0,7.27-3.71q2.88-2.61,4.71-8.6t1.82-16.32q0-10.34-1.82-15.87a20.36,20.36,0,0,0-5.11-8.63,17.09,17.09,0,0,0-8.33-4.2q-3.76-.85-14.77-.85Z" transform="translate(-75.69 -173.77)"/><path class="b" d="M340.13,283.71q0-13.6,4.07-22.86a42.1,42.1,0,0,1,8.3-12.22,34.83,34.83,0,0,1,11.52-8,48.94,48.94,0,0,1,19.21-3.53q19.71,0,31.53,12.22t11.82,34q0,21.58-11.73,33.77t-31.37,12.19q-19.89,0-31.62-12.13T340.13,283.71Zm18.54-.6q0,15.13,7,22.95a24,24,0,0,0,35.42.06q6.9-7.75,6.9-23.26,0-15.32-6.72-22.86t-17.84-7.54q-11.13,0-17.94,7.63T358.67,283.11Z" transform="translate(-75.69 -173.77)"/><path class="b" d="M435.58,238.6h32.89q11.13,0,17,1.71a29.78,29.78,0,0,1,13.43,8.2A38.88,38.88,0,0,1,507.38,263q2.92,8.55,2.92,21.07a58.73,58.73,0,0,1-2.73,19A39.24,39.24,0,0,1,498,318.73a31.7,31.7,0,0,1-12.64,7.12q-6,1.88-15.93,1.88H435.58Zm18,15.08v59H467a48.9,48.9,0,0,0,10.88-.85,16.48,16.48,0,0,0,7.26-3.71q2.89-2.61,4.72-8.6t1.82-16.32q0-10.34-1.82-15.87a20.36,20.36,0,0,0-5.11-8.63,17.14,17.14,0,0,0-8.33-4.2q-3.76-.85-14.77-.85Z" transform="translate(-75.69 -173.77)"/><path class="b" d="M564.54,295v-15h38.79v35.51q-5.66,5.48-16.39,9.64a59.75,59.75,0,0,1-21.73,4.16q-14,0-24.38-5.87A37.31,37.31,0,0,1,525.2,306.6,54.12,54.12,0,0,1,520,282.86a51.29,51.29,0,0,1,5.84-24.74,39.26,39.26,0,0,1,17.08-16.6q8.58-4.44,21.34-4.44,16.6,0,25.93,7a31.47,31.47,0,0,1,12,19.25l-17.87,3.34a18.91,18.91,0,0,0-7.09-10.37,21.41,21.41,0,0,0-13-3.8q-11.79,0-18.75,7.48t-7,22.19q0,15.87,7.05,23.81t18.48,7.93a31,31,0,0,0,11.34-2.22,38.89,38.89,0,0,0,9.76-5.38V295Z" transform="translate(-75.69 -173.77)"/><path class="b" d="M614.94,327.73V238.6H681v15.08H632.94v19.76h44.74v15H632.94v24.25h49.79v15Z" transform="translate(-75.69 -173.77)"/><path class="b" d="M171.15,400.44,188.6,406q-4,14.59-13.35,21.68t-23.68,7.08q-17.74,0-29.18-12.13T111,389.44q0-22.26,11.49-34.57t30.22-12.31q16.35,0,26.56,9.67,6.09,5.72,9.12,16.41l-17.81,4.26a18.44,18.44,0,0,0-18.79-15,20.31,20.31,0,0,0-16.08,7.12q-6.16,7.11-6.17,23,0,16.9,6.08,24.07a19.72,19.72,0,0,0,15.81,7.18,18,18,0,0,0,12.34-4.56Q168.89,410.23,171.15,400.44Z" transform="translate(-75.69 -173.77)"/><path class="b" d="M195.41,389.19q0-13.62,4.07-22.86a42.3,42.3,0,0,1,8.3-12.22,34.83,34.83,0,0,1,11.52-8,49,49,0,0,1,19.22-3.53q19.7,0,31.52,12.22t11.82,34q0,21.59-11.73,33.77t-31.37,12.19q-19.89,0-31.62-12.13T195.41,389.19Zm18.54-.6q0,15.14,7,23a24,24,0,0,0,35.41.06q6.9-7.75,6.9-23.26,0-15.31-6.72-22.86t-17.84-7.54q-11.13,0-17.94,7.63T214,388.59Z" transform="translate(-75.69 -173.77)"/><path class="b" d="M290.81,344.08h18v48.28q0,11.49.67,14.89A14.43,14.43,0,0,0,315,416q4.35,3.31,11.89,3.31t11.55-3.13a12.4,12.4,0,0,0,4.68-7.69,99.91,99.91,0,0,0,.79-15.14V344.08h18V390.9q0,16.05-1.46,22.67A25.12,25.12,0,0,1,355,424.76,27.29,27.29,0,0,1,344.55,432q-6.57,2.7-17.14,2.7-12.78,0-19.37-3a27.69,27.69,0,0,1-10.43-7.66,24.54,24.54,0,0,1-5-9.88q-1.77-7.67-1.76-22.61Z" transform="translate(-75.69 -173.77)"/><path class="b" d="M373.56,433.21V344.08h17.51l36.47,59.52V344.08h16.72v89.13H426.21l-35.93-58.12v58.12Z" transform="translate(-75.69 -173.77)"/><path class="b" d="M480.87,433.21v-74H454.42V344.08h70.83v15.08H498.86v74Z" transform="translate(-75.69 -173.77)"/><path class="b" d="M534.43,433.21V344.08h37.88q14.28,0,20.76,2.4A20.53,20.53,0,0,1,603.44,355a25.68,25.68,0,0,1,3.89,14q0,10-5.9,16.57t-17.63,8.24a42,42,0,0,1,9.63,7.47q3.81,4.08,10.25,14.47l10.88,17.39H593l-13-19.39q-6.93-10.4-9.49-13.11a13.68,13.68,0,0,0-5.41-3.7q-2.85-1-9-1h-3.65v37.21Zm18-51.43h13.31c8.64,0,14-.37,16.17-1.1a9.68,9.68,0,0,0,5.05-3.77,11.55,11.55,0,0,0,1.82-6.68,10.7,10.7,0,0,0-2.4-7.27,11.06,11.06,0,0,0-6.78-3.5q-2.19-.3-13.13-.3h-14Z" transform="translate(-75.69 -173.77)"/><path class="b" d="M640.6,433.21V395.7L608,344.08h21.1l21,35.26,20.55-35.26H691.3l-32.77,51.74v37.39Z" transform="translate(-75.69 -173.77)"/></svg>