<svg xmlns="http://www.w3.org/2000/svg" viewBox="0 0 756.61 237.55"><defs><style>.a{fill:#fff;}.b,.c{fill:#ef3f35;}.c{fill-rule:evenodd;}</style></defs><title>freedom_w</title><path class="a" d="M138.56,60.5c.45.59.85,1.21,1.35,1.75,3.89,4.22,7.64,8.58,11.73,12.6,7.61,7.5,15.79,14.3,25.32,19.31,5.81,3,11.87,5.22,18.6,4.76,7.86-.55,15.2-2.89,21.36-7.75,5.87-4.64,11.33-9.81,16.73-15a104.07,104.07,0,0,1,17.66-13.87,37.42,37.42,0,0,1,13.61-5.37c8.8-1.43,17.17.2,25.3,3.53l2.5,1c-.59-.65-.91-1-1.27-1.39-8.9-8.33-18.18-16.16-28.95-22-9.26-5.05-18.91-7.14-29.3-4.38-8.61,2.27-16.12,6.65-23.21,11.93-5.81,4.32-11.57,8.75-17.68,12.62a47.44,47.44,0,0,1-22.89,7.57A71.7,71.7,0,0,1,138.56,60.5ZM256.82,29.55l.22-.21a9,9,0,0,1-.79-.46C248.46,23.3,240.49,18,231.72,14c-7.36-3.32-15-5.76-23.15-5.35a65.65,65.65,0,0,0-25.42,6.62c-6.64,3.19-13.07,6.8-19.69,10-15.15,7.36-31,9.84-47.59,6.36-3.25-.69-6.45-1.62-10-2.54,2.12,1.75,4,3.3,5.82,4.78C121.64,41.77,132,49,143.75,54c5.42,2.31,11,4.08,17,3.75C172.44,57.13,183,53.57,192.2,46A95.26,95.26,0,0,1,217.43,30.6c9.62-3.81,19.47-5.57,29.76-3.52C250.43,27.73,253.61,28.72,256.82,29.55ZM29.46,25.18c-6.27,0-11.38,5.18-11,11.2.42,6.59,5.91,11.3,12.27,10.44a2.55,2.55,0,0,1,2.62.93C54.24,72.25,73,98.14,86.6,127.55c9.19,19.9,18.11,39.89,24.57,60.88.87,2.82,1.52,5.72,2.34,8.55a4.35,4.35,0,0,0,5,3,3.74,3.74,0,0,0,3.34-4.11,18.1,18.1,0,0,0-.61-4.46A369,369,0,0,0,89.82,114.1c-14-25.45-30.75-49-49.25-71.32a3.41,3.41,0,0,1-.75-3.7A10.71,10.71,0,0,0,29.46,25.18Zm69.81,85.9.48.24c3.38-8.36,6.77-16.71,10.21-25.2a39.83,39.83,0,0,1,13.43,6.31,11.63,11.63,0,0,0-.12-1.69c-1.63-6.93-4.11-13.55-8.41-19.24-2-2.63-1.77-4.88-.56-7.45a22.55,22.55,0,0,1,1.65-3c2.34-3.48,5.69-5.77,9.79-7.74a42.28,42.28,0,0,0-20.15,3.94,1.9,1.9,0,0,1-2.7-.59,46.13,46.13,0,0,1-8.6-14.56c-.7-1.88-1.26-3.81-2-6.18-.49,1.67-.9,2.85-1.19,4.07-1.64,6.82-1.42,13.72-.77,20.64.23,2.48,0,2.79-2.52,3.23a41.19,41.19,0,0,1-15.72-.59l-4.92-1c.8.76,1.15,1.11,1.52,1.44A113.83,113.83,0,0,0,94.25,81,2.67,2.67,0,0,1,96,83.4C97,92.63,98.17,101.85,99.27,111.08Z" transform="translate(-18.44 -8.63)"/><path class="b" d="M138.56,60.5a71.7,71.7,0,0,0,30.86,5.27,47.44,47.44,0,0,0,22.89-7.57c6.11-3.87,11.87-8.3,17.68-12.62,7.09-5.28,14.6-9.66,23.21-11.93,10.39-2.76,20-.67,29.3,4.38,10.77,5.89,20.05,13.72,28.95,22,.36.34.68.74,1.27,1.39l-2.5-1c-8.13-3.33-16.5-5-25.3-3.53a37.42,37.42,0,0,0-13.61,5.37,104.07,104.07,0,0,0-17.66,13.87c-5.4,5.18-10.86,10.35-16.73,15-6.16,4.86-13.5,7.2-21.36,7.75-6.73.46-12.79-1.71-18.6-4.76-9.53-5-17.71-11.81-25.32-19.31-4.09-4-7.84-8.38-11.73-12.6C139.41,61.71,139,61.09,138.56,60.5Z" transform="translate(-18.44 -8.63)"/><path class="b" d="M256.82,29.55c-3.21-.83-6.39-1.82-9.63-2.47-10.29-2-20.14-.29-29.76,3.52A95.26,95.26,0,0,0,192.2,46c-9.18,7.56-19.76,11.12-31.46,11.78-6,.33-11.57-1.44-17-3.75C132,49,121.64,41.77,111.66,33.91c-1.87-1.48-3.7-3-5.82-4.78,3.58.92,6.78,1.85,10,2.54,16.6,3.48,32.44,1,47.59-6.36,6.62-3.22,13-6.83,19.69-10a65.65,65.65,0,0,1,25.42-6.62c8.19-.41,15.79,2,23.15,5.35,8.77,4,16.74,9.28,24.53,14.86a9,9,0,0,0,.79.46Z" transform="translate(-18.44 -8.63)"/><path class="b" d="M29.46,25.18a10.71,10.71,0,0,1,10.36,13.9,3.41,3.41,0,0,0,.75,3.7c18.5,22.33,35.28,45.87,49.25,71.32a369,369,0,0,1,31.45,77.32,18.1,18.1,0,0,1,.61,4.46,3.74,3.74,0,0,1-3.34,4.11,4.35,4.35,0,0,1-5-3c-.82-2.83-1.47-5.73-2.34-8.55-6.46-21-15.38-41-24.57-60.88C73,98.14,54.24,72.25,33.35,47.75a2.55,2.55,0,0,0-2.62-.93c-6.36.86-11.85-3.85-12.27-10.44C18.08,30.36,23.19,25.16,29.46,25.18Z" transform="translate(-18.44 -8.63)"/><path class="a" d="M99.27,111.08C98.17,101.85,97,92.63,96,83.4A2.67,2.67,0,0,0,94.25,81a113.83,113.83,0,0,1-25.6-17.31c-.37-.33-.72-.68-1.52-1.44l4.92,1a41.19,41.19,0,0,0,15.72.59c2.52-.44,2.75-.75,2.52-3.23-.65-6.92-.87-13.82.77-20.64.29-1.22.7-2.4,1.19-4.07.78,2.37,1.34,4.3,2,6.18a46.13,46.13,0,0,0,8.6,14.56,1.9,1.9,0,0,0,2.7.59,42.28,42.28,0,0,1,20.15-3.94c-4.1,2-7.45,4.26-9.79,7.74a22.55,22.55,0,0,0-1.65,3c-1.21,2.57-1.43,4.82.56,7.45,4.3,5.69,6.78,12.31,8.41,19.24a11.63,11.63,0,0,1,.12,1.69A39.83,39.83,0,0,0,110,86.12c-3.44,8.49-6.83,16.84-10.21,25.2Z" transform="translate(-18.44 -8.63)"/><path class="a" d="M146.37,182.26,161,125.64a39.59,39.59,0,0,0,.85-6.45,9.8,9.8,0,0,0-.85-4.26h72.45l-2,15.83c-2.68-2.07-4.75-2.44-12.54-2.44h-27.4l-5,19.24h27.52c6.21,0,6.7-.24,7.67-.24a25,25,0,0,0,6-1.46l-4.27,16.8c-3.89-1.58-4.87-1.71-10.22-1.71H183.14l-6.33,24.48a38.53,38.53,0,0,0-.85,6.45,9.8,9.8,0,0,0,.85,4.26H140.4C143.44,191.88,144.54,189.45,146.37,182.26Z" transform="translate(-18.44 -8.63)"/><path class="a" d="M224.42,182.26l9-35.06a37.19,37.19,0,0,0,.85-6.46,10.15,10.15,0,0,0-.85-4.26h27.4c-.12,1.34-.24,2.68-.24,2.8l-.13,4.14c0,.37-.12,1.46-.36,3.17,4.26-7.92,7.79-10.11,16.68-10.11h16.56L288.23,156c-2.56-2.07-5.6-3-10-3H268c-5.23,0-7.18,1.22-8.16,5.11l-7.06,27.4a35.3,35.3,0,0,0-.73,6.45,11.14,11.14,0,0,0,.73,4.26H218.46C221.5,191.76,222.59,189.45,224.42,182.26Z" transform="translate(-18.44 -8.63)"/><path class="a" d="M304.3,196.14c-6.09,0-10.59-1.21-13.51-3.89a14.75,14.75,0,0,1-5.24-11.08,23.82,23.82,0,0,1,.61-4.87L293,150c2.31-9.14,8.52-13.52,19-13.52h37.38c8.65,0,12.55,1,15.71,3.77a14.37,14.37,0,0,1,5,11.08,28,28,0,0,1-.86,6l-3.77,14.86H316.36l-1.46,5.48a18.91,18.91,0,0,0-.49,3.28c0,2.8,1.82,3.66,7.79,3.66h28.74c5.23,0,7.55-.25,10.59-1.22l-5.23,12.78Zm34.83-35.55,1.82-6.82a10.85,10.85,0,0,0,.49-2.8c0-1.83-1.58-2.92-4.38-2.92h-9.14c-4.5,0-5.6.85-6.81,5.72l-1.71,6.82Z" transform="translate(-18.44 -8.63)"/><path class="a" d="M393,196.14c-6.09,0-10.59-1.21-13.52-3.89a14.74,14.74,0,0,1-5.23-11.08,23.82,23.82,0,0,1,.61-4.87l6.82-26.3c2.31-9.14,8.52-13.52,19-13.52H438c8.65,0,12.54,1,15.71,3.77a14.36,14.36,0,0,1,5,11.08,27.91,27.91,0,0,1-.85,6l-3.77,14.86H405l-1.46,5.48a19.79,19.79,0,0,0-.48,3.28c0,2.8,1.82,3.66,7.79,3.66h28.73c5.24,0,7.55-.25,10.6-1.22l-5.24,12.78Zm34.82-35.55,1.83-6.82a10.85,10.85,0,0,0,.49-2.8c0-1.83-1.59-2.92-4.39-2.92h-9.13c-4.5,0-5.6.85-6.82,5.72l-1.7,6.82Z" transform="translate(-18.44 -8.63)"/><path class="a" d="M480.87,196.14c-7.19,0-10.48-1.09-14-4.38A12.5,12.5,0,0,1,462.6,182c0-2.44.12-2.8,1.34-7.55L470,150.73c2.55-9.87,8.52-14.25,19.36-14.25h21.55c5.72,0,8,1.34,9.86,5.84l4.39-16.68a36.56,36.56,0,0,0,.73-6.45,10.15,10.15,0,0,0-.85-4.26h32L539,185.43a37,37,0,0,0-.86,6.45,9.82,9.82,0,0,0,.86,4.26H508.26V191c-2.68,4-4.87,5.11-10.84,5.11Zm11.2-17.41a14.45,14.45,0,0,0-.49,2.56c0,2.31,1.71,3.29,6,3.29h6.69c4.63,0,6-1,7.07-5.36l5.84-22.65a24.59,24.59,0,0,0,.73-4.87c0-2.31-2-3.65-5.48-3.65h-6.94c-4.87,0-5.6.85-7.43,7.91l-5.35,20.82Z" transform="translate(-18.44 -8.63)"/><path class="a" d="M572.92,196.14c-9.25,0-11-.36-14.13-2.92a15.06,15.06,0,0,1-5.72-11.93,22,22,0,0,1,.73-5.12L560.62,150c1.34-5.24,4.63-9.5,9-11.45,3.53-1.58,7.55-2.07,15.71-2.07H621.5c7.68,0,11.57,1.46,14.86,5.72a17,17,0,0,1,3.17,9.87,27,27,0,0,1-1.1,6.69l-5.6,21.92c-1.71,6.45-3.17,9-6.94,11.93-3.53,2.68-7.55,3.53-16.93,3.53Zm9.74-18.38c-.73,2.92-.61,2.92-.61,3.29,0,2.43,1.71,3.53,5.6,3.53h8.65c5.36,0,6.45-.73,7.55-5.12l6-23.13a21.06,21.06,0,0,0,.74-4.14c0-2.93-1.71-4.14-6.09-4.14h-7.31c-5.6,0-7.06,1-8.16,5.23Z" transform="translate(-18.44 -8.63)"/><path class="a" d="M640.74,182.26l9-35.06a37.2,37.2,0,0,0,.86-6.46,10,10,0,0,0-.86-4.26h30.93l-1.46,5.72c2.8-4.87,4.51-5.72,11.08-5.72h29.47c5.48,0,7.06,1.1,8.77,5.72,2.19-4.62,3.89-5.72,9.13-5.72H759c5,0,8.28,1.22,11.2,4.14a17,17,0,0,1,4.87,11.81c0,2.19-.12,2.8-1.22,6.94l-6.69,26.06a30.11,30.11,0,0,0-.86,6.45,9.48,9.48,0,0,0,.86,4.26H732.8c2.92-4.38,4.14-6.69,6-13.88l6.81-26.54a16.79,16.79,0,0,0,.61-3.78c0-2.68-1.94-3.89-5.72-3.89h-7.18c-4.51,0-5.85,1.09-7.07,6l-8,31.42a37,37,0,0,0-.86,6.45,9.48,9.48,0,0,0,.86,4.26H683.73c3-4.38,4.14-6.69,6-13.88l6.82-26c1-3.66.86-3.78.86-4.51,0-2.19-2-3.65-4.87-3.65h-7.31c-5.36,0-6.58,1-8,6.45l-8,30.93a35.63,35.63,0,0,0-.74,6.45,11.17,11.17,0,0,0,.74,4.26H634.78C637.82,191.76,638.92,189.45,640.74,182.26Z" transform="translate(-18.44 -8.63)"/><path class="b" d="M646.08,225.86c-5.61-.23-11.22-.22-16.82-.45-.82,0-1.59-.83-2.39-1.28a10.28,10.28,0,0,1,2-2.16,5.46,5.46,0,0,1,2.58-.36c3.22-.05,6.43,0,9.64-.06,1.44,0,2.71.11,2.81,2,2,0,3.74.05,5.44,0,.82,0,2.23-.17,2.32-.51a6.92,6.92,0,0,0,.07-4,4,4,0,0,0-2.81-1.88,77.51,77.51,0,0,0-22-.23c-5.89.88-8.46,4.87-8.69,9.8a2.79,2.79,0,0,0,2.45,3.1,29.49,29.49,0,0,0,4.68.49c4.79.15,9.58.16,14.37.36.73,0,1.44.74,2.15,1.13a20.84,20.84,0,0,1-1.53,2.37,1.8,1.8,0,0,1-1.23.35c-4.1.12-8.19.23-12.29.28-1.59,0-3-.34-2.82-2.52-2.3,0-4.44,0-6.58,0a1.71,1.71,0,0,0-1.16.38,3.77,3.77,0,0,0,1.89,6.27,8.4,8.4,0,0,0,2,.36c6.55,0,13.11.16,19.65,0,6.27-.2,9.14-2.47,10.46-7.65C651.24,228,649.89,226,646.08,225.86Z" transform="translate(-18.44 -8.63)"/><path class="b" d="M753.48,217.11c-8.64-.14-17.28-.12-25.91-.23a1.87,1.87,0,0,0-2.12,1.57c-1.77,5.84-3.61,11.66-5.42,17.48-.34,1.1-.65,2.2-1,3.36h8.05c.48-1.47,1-2.88,1.4-4.34a1.62,1.62,0,0,1,1.86-1.4c4.47.08,8.95.11,13.42.12,1.63,0,2.15.85,1.87,2.31-.2,1-.51,2.07-.84,3.37h5.88a11.61,11.61,0,0,0,1.32,0c.35-.05,1-.13,1-.31a32.33,32.33,0,0,0,1.27-6.38c0-.57-1.84-1.21-2.84-1.83,0,0,0-.11-.06-.17,4.8-2.2,5.7-3.08,6.86-6.69C759.65,219.52,758.11,217.18,753.48,217.11Zm-5.76,10.62a4,4,0,0,1-1.63.4c-5,0-10.05,0-15.45,0,.57-1.88,1-3.53,1.6-5.08.17-.41,1.09-.71,1.67-.72,4.28-.06,8.56,0,12.84,0,1.15,0,2.56-.3,3,1.23C750.15,224.79,748.88,227.22,747.72,227.73Z" transform="translate(-18.44 -8.63)"/><path class="b" d="M578.83,217.17a11.55,11.55,0,0,0-1.32-.09c-8.57-.06-17.14-.1-25.7-.19a1.83,1.83,0,0,0-2.13,1.54c-1.95,6.5-4,13-6,19.45-.14.43-.2.89-.33,1.47,2.29,0,4.37-.09,6.44,0,1.26.08,1.75-.42,2.1-1.54,1.33-4.28,1.37-4.28,5.93-4.27,3.34,0,6.68,0,10,.05,2,.06,2.58.94,2.09,2.81-.25.94-.53,1.87-.83,2.92h4.75c3.35,0,3.35,0,4.42-3.22,1.17-3.54.79-4.26-2.66-5.21,1.48-.8,3.37-1.26,4.26-2.45a17.71,17.71,0,0,0,2.77-6.12C583.41,219.26,582,217.59,578.83,217.17Zm-7.63,10.92a3.65,3.65,0,0,1-.93.12h-15.1c-.1-.4-.14-.47-.12-.52,1.24-5.38,1.24-5.38,6.74-5.38,3,0,6,0,9.06,0,1.16,0,2.7-.47,3.09,1.29A4.2,4.2,0,0,1,571.2,228.09Z" transform="translate(-18.44 -8.63)"/><path class="b" d="M699.59,221.94c4.86,0,9.71-.08,14.56-.1,4.56,0,4.56,0,5.75-4.75a6.78,6.78,0,0,0-1-.17c-9.26,0-18.53,0-27.8.05a2.25,2.25,0,0,0-1.63,1.29c-1.37,4.05-2.6,8.15-3.88,12.22L682.85,239c.3.17.4.28.51.28q14.37,0,28.74,0a1.3,1.3,0,0,0,1-.51c.5-1.32.88-2.69,1.44-4.51H692.72c.82-4,.82-4,4.42-4h13.62c4.09,0,4.09,0,4.78-4.12a1.67,1.67,0,0,0-.08-.39H695.38C696.07,221.94,696.07,222,699.59,221.94Z" transform="translate(-18.44 -8.63)"/><path class="b" d="M499.42,217.13q-10.76-.25-21.52.11a8.87,8.87,0,0,0-7.48,4.19,27.46,27.46,0,0,0-4,13.22c-.12,2.7,1.21,4.32,3.89,4.36,8.12.11,16.24.13,24.34-.15,3.53-.12,6.36-4,6.37-7.82-2.24,0-4.48-.06-6.72.05-.47,0-.89.68-1.36,1-.83.61-1.64,1.67-2.51,1.72-4.33.22-8.68.3-13,.16-2-.06-2.77-1.25-2.29-3.26a57.94,57.94,0,0,1,1.78-5.56,3.86,3.86,0,0,1,3.66-2.82c4.33-.11,8.67-.12,13,0,.75,0,1.46,1.06,2.18,1.63l-.15.59c2.2,0,4.4,0,6.59,0a1.45,1.45,0,0,0,1.1-.73C504.61,219.91,503.37,217.23,499.42,217.13Z" transform="translate(-18.44 -8.63)"/><path class="b" d="M545.17,217.09c-2.59,0-4.91-.05-7.23,0-.38,0-.9.61-1.06,1.05-.62,1.71-1.19,3.45-1.65,5.21a2,2,0,0,1-2.37,1.76c-2.32-.13-4.66,0-7,0H515.72l2.52-8.2c-2.59,0-5-.06-7.33.06-.41,0-1,.7-1.14,1.19-.72,2-1.32,4.07-1.95,6.11-1.55,5-3.1,9.94-4.69,15.06,2.41,0,4.62-.06,6.82,0a1.46,1.46,0,0,0,1.7-1.28c.53-1.88,1.2-3.71,1.68-5.6a2.13,2.13,0,0,1,2.5-1.86c4.54.1,9.08,0,13.62,0h3.4c-.9,3-1.71,5.76-2.58,8.67,2.26,0,4.22-.1,6.16,0a2.09,2.09,0,0,0,2.52-1.78c1.84-6.14,3.8-12.25,5.7-18.38C544.87,218.55,545,217.84,545.17,217.09Z" transform="translate(-18.44 -8.63)"/><path class="b" d="M621.44,216.91c-2.59,0-4.73.13-6.85,0a7.29,7.29,0,0,0-5.5,1.87c-3.1,2.55-6.35,4.93-9.66,7.46-1.89-2.75-3.66-5.35-5.47-7.92-.35-.49-.84-1.23-1.29-1.25-3.16-.11-6.33-.06-9.83-.06,3.44,4.67,6.59,9,9.82,13.27a2.82,2.82,0,0,1,.51,2.93c-.68,2-1.25,4-1.9,6.11h8.15c.58-1.87,1.2-3.71,1.7-5.58a5.79,5.79,0,0,1,2.39-3.44c5.58-4,11.09-8.12,16.62-12.2C620.48,217.8,620.79,217.48,621.44,216.91Z" transform="translate(-18.44 -8.63)"/><path class="b" d="M666.12,216.91c-2.33,0-4.34.08-6.34,0-1.42-.09-2,.5-2.34,1.79-1.52,5.05-3.16,10.07-4.75,15.1-.56,1.78-1.1,3.56-1.65,5.32a2.34,2.34,0,0,0,.57.22c8.44,0,16.88,0,25.32,0a1.47,1.47,0,0,0,1.16-.62c.57-1.5,1-3.06,1.56-4.87H660.87C662.65,228.11,664.35,222.63,666.12,216.91Z" transform="translate(-18.44 -8.63)"/><rect class="b" x="116.56" y="216.37" width="171.33" height="3.33"/><circle class="b" cx="424.23" cy="220.37" r="8"/><path class="b" d="M333,204.33h8.51v22.34c0,3.85-1.64,11.91-13.45,11.91S315,231.07,315,226.86v-4.12h8.24v4a4.56,4.56,0,0,0,4.76,4.76c3.12,0,5-1.74,5-4.67V204.33Z" transform="translate(-18.44 -8.63)"/><path class="b" d="M354.71,213.67c6.68,0,12.54,2.57,12.54,14.38H351.41c0,3.75,1.56,5.31,4.31,5.31a3.94,3.94,0,0,0,3.66-2.2h7.78c0,3.39-4.67,8-11.72,7.87-8.06,0-12-5.95-12-12.08s3.48-13.28,11.26-13.28Zm4.76,9.62c0-2.29-1.28-4.49-4.21-4.49s-3.85,2-3.85,4.49Z" transform="translate(-18.44 -8.63)"/><path class="b" d="M380.16,213.67c6.69,0,12.54,2.57,12.54,14.38H376.86c0,3.75,1.56,5.31,4.31,5.31a3.94,3.94,0,0,0,3.66-2.2h7.78c0,3.39-4.67,8-11.72,7.87-8.05,0-12-5.95-12-12.08s3.48-13.28,11.26-13.28Zm4.76,9.62c0-2.29-1.28-4.49-4.21-4.49s-3.85,2-3.85,4.49Z" transform="translate(-18.44 -8.63)"/><path class="b" d="M394.71,246.18V214.59h7.87v3.6a7.09,7.09,0,0,1,1.1-1.77c.53-.64,2-2.47,5.95-2.47s10.07,2.74,10.07,12.45c0,7.51-3.66,13-10,13a8.57,8.57,0,0,1-6-1.92,5,5,0,0,1-1.1-1.1v9.8Zm7.78-19.51c-.09,4.67.92,7.15,4.76,7.15s4.4-4.22,4.4-7.42-.74-6.32-4.77-6.32c-2.47,0-4.3,1.92-4.39,6.59Z" transform="translate(-18.44 -8.63)"/><path class="c" d="M416,242.38a2,2,0,0,0-.59,1.43,2,2,0,0,0,.59,1.45,1.92,1.92,0,0,0,1.43.59,2,2,0,0,0,1.44-.59,2,2,0,0,0,.59-1.45,2,2,0,0,0-2-2,1.94,1.94,0,0,0-1.43.6Zm3.1,3.11a2.36,2.36,0,1,1-1.67-4,2.31,2.31,0,0,1,1.67.68,2.26,2.26,0,0,1,.69,1.66,2.3,2.3,0,0,1-.69,1.68Zm-1.23-2.57a1.19,1.19,0,0,0-.54-.09H417v.93h.41a1.48,1.48,0,0,0,.43,0,.41.41,0,0,0,.27-.41.4.4,0,0,0-.18-.38Zm-.48-.4a2,2,0,0,1,.7.09.63.63,0,0,1,.4.65.56.56,0,0,1-.25.51,1,1,0,0,1-.37.13.6.6,0,0,1,.44.25.67.67,0,0,1,.14.4v.19a1.21,1.21,0,0,0,0,.19.37.37,0,0,0,0,.14l0,0h-.43v-.34a.64.64,0,0,0-.25-.6,1.13,1.13,0,0,0-.5-.08H417v1h-.46v-2.58Z" transform="translate(-18.44 -8.63)"/></svg>