<svg xmlns="http://www.w3.org/2000/svg" viewBox="0 0 8028.7 1632.26"><defs><style>.a{fill:#215aa8;}.a,.b{fill-rule:evenodd;}.b{fill:#fff;}</style></defs><title>balise</title><path class="a" d="M430.1,19.77H7631.65c169.08,0,440.6-46.47,406.69,155.93q-115.73,533.63-231.48,1067.37-35.37,164.75-70.73,329.53c-9.92,24-35,48.09-56.26,61.09-29.9,18.31-88.54,12.86-136.64,12.86H217.92c-51,0-113.85,6.2-144.68-14.47-33.14-22.22-50.89-53.88-59.48-101.27-5.7-31.51,10.06-66.61,16.08-91.62q21.71-101.26,43.4-202.55,98-438,196.12-876.08C291.38,272.93,302,117.27,353,60,373.1,37.3,399.9,33.57,430.1,19.77Z" transform="translate(-12.54 -15.16)"/><path class="b" d="M5850.55,301.08l-48.23,3.22-115.74,16.07c-180.29,41.58-379.11,123.7-327.92,374.55,8.94,43.84,26.53,78.31,49.83,107.7,41,51.77,113.85,72.66,180,99.66l265.23,106.1c57,24.68,141.24,72.75,102.88,168.78-33.52,83.92-252.21,100.85-361.68,67.51-46.21-14.06-96.73-43.23-122.18-78.76-9.7-13.56-18.83-34.88-22.5-53.05-9-44.4,15.52-80.17-27.32-91.62l-72.34-1.61c-19.21,0-56.15-5.29-69.13,3.22-26.53,17.39-42.66,151.39-53,192.89-6.7,26.79-37.46,116.53-27.33,143.07,2.66,5.87,3.85,6.93,9.65,9.64,16.17,6.6,135.94,4.66,149.5-1.61,6.41-22.24,13.3-53.55,25.71-70.72,30.79.6,42.74,26.62,64.3,38.58,32.33,17.9,74.31,28.28,114.14,37,265.66,58,643.65,46.87,742.66-147.89,20.21-39.77,48.8-103.6,38.58-164-32.45-191.49-230.38-271.46-395.45-331.14-69.37-25.08-249.3-69.88-234.69-167.17,25.14-167.48,301.85-155,408.3-70.74,17.75,14.06,47.76,42.59,54.65,65.91,8.55,28.92-3.33,77.35,9.65,101.27,30.87,4.38,200.23,6.28,209-8,12.37-14.71,12.32-42.9,17.68-64.29Q6434.87,498.82,6455,412c5.09-19.78,19.27-56.28,11.26-77.16-4.09-8.34-12.67-14-22.51-16.07-24.68-5.29-192.13-1.78-204.15,4.82q-12.86,24.11-25.72,48.22c-31.77-.56-82.89-31.71-115.74-41.79-72.85-22.36-152.86-28.5-247.55-28.94Z" transform="translate(-12.54 -15.16)"/><path class="b" d="M3378.24,315.55l-16.08,8c-5.66,7.92-27.1,112.77-24.11,120.56l4.82,8c60,7,108.46.33,133.42,41.79,23.21,38.55-8.51,137.32-19.29,180l-91.63,397c-13.42,52.81-15.21,128.6-45,167.19-39,50.47-125.7,21.77-176.82,54.65-6.46,19.91-13.87,45.73-8,69.12,27,17.34,189.49,8,239.52,8h628.53c49.45,0,232.91,12,257.19-8,13.77-11.37,12.71-42.68,17.68-62.69,11.11-44.71,52.72-175.75,43.41-215.41-18.45-12.49-170.55-17.72-196.12-4.82-19.63,9.92-41.28,79.38-54.65,101.28-30.89,50.56-83.84,79.7-152.71,93.23-54.08,10.62-218.22,17.4-237.91-22.5-9.81-17.12.51-49.46,4.82-65.91q20.89-90,41.79-180,40.2-180,80.38-360.08c12.66-50,14.15-120.36,41.8-157.53,18.62-25,64.45-43.93,101.27-49.83,21.09-3.38,49.51,2.41,69.12-1.61,9.89-13.37,35.39-90.63,28.93-110.91-2.23-3.1-.16-1-3.21-3.22-29.71-15.75-112.74,2.72-152.71-3.21l-514.39-3.22Z" transform="translate(-12.54 -15.16)"/><path class="b" d="M587.63,318.77l-22.5,16.07c-12.6,16.91-31.33,77-24.11,98.06,48,12.9,124.58-1.17,147.89,37,22.49,36.79-12.39,144.9-22.51,184.86q-45.81,193.68-91.62,387.41c-16.35,63.78-21.51,133.69-56.26,178.42-17.18,22.11-46.88,34.43-80.38,40.19-38.75,6.67-73.66-11.07-88.41,19.29q-3.21,19.29-6.43,38.58c-2.79,12.07-11.38,31.89-6.43,45,1.07,2.14,2.15,4.29,3.21,6.43H1356c76.62-15.78,134.46-46.22,184.85-86.8,66.16-53.27,129.68-185.32,80.38-305.43-24-58.44-58-80-91.63-123.77.35-12.29,3.07-12.69,8-19.29C1650,797.65,1754.73,631.62,1692,479.51c-19.87-48.16-64-87.78-106.1-114.13-82.34-51.55-215.15-46.62-350.42-46.61Z" transform="translate(-12.54 -15.16)"/><path class="b" d="M2285.14,318.77l-27.33,22.5q-63.48,117.35-127,234.7Q1964.47,883,1798.08,1190c-14.87,21.56-38.56,40.65-69.13,46.62-26.94,5.26-66.63-5.11-78.77,12.86-13,18.07-35.29,102.8-12.85,115.74,29.32,14.73,128.38,4.82,170.39,4.82h416.34c15.25-33.7,25.65-84.37,30.54-123.78-3.21-3.69-3.36-5.37-8-8-27.38-16.14-78.56-1.41-102.87-19.3-53.46-39.3-8.32-177.44,37-192.89h287.73c31.68,0,78.51-6.35,91.64,12.86,9.24,13.53,6.53,49.73,3.21,70.73v51.44c-5.71,27.4-28.95,53.25-49.84,65.9-31.17,18.89-95,8.06-123.77,30.55-15.25,11.92-14,45.75-19.29,67.51-5,20.48-4,30.2,6.43,45h459.74c47.32,0,156.14,10.61,188.07-6.43,8.74-25.88,21.08-57.55,24.12-88.41-3.52-5.07-4-8-9.65-11.25-31.32-18.28-61.93,3.7-86.8-27.33-37.61-46.93-36.61-144.7-51.44-212.19Q2853.38,776.13,2806,527.73c-13.36-60.13-15.51-159.86-45-204.14-40.44-12.2-107-4.82-155.93-4.82Z" transform="translate(-12.54 -15.16)"/><path class="b" d="M4614.39,318.77c-9.28,5.73-21.81,8.45-27.33,17.68-7.24,12.14-29.85,93.46-14.47,104.49,14.71,10.53,46.27,1.34,67.52,4.82,49.32,8.06,103.65,26.82,93.23,91.62q-67.5,307.82-135,615.67c-13.86,55.82-37.46,93.45-88.41,110.92-59.62,20.43-127.72-25.86-143.06,45-3,13.83-7.69,29-4.82,45,26.33,27,109.21,16.08,160.75,16.08h390.62c37.12,0,128.58,8.26,151.1-6.43,4.2-24.49,24.24-60.48,12.86-82-53.25-5.57-117-12.49-135-53.05-20.07-45.19,12.07-148.35,22.5-189.68q42.6-187.26,85.2-374.55c14.82-58.58,17.72-135.83,49.83-178.43,22.33-29.63,57.14-40.11,109.31-40.18,22.76,0,44.1.23,57.87-8,8.58-26.85,33.92-90.19,16.08-117.35l-668.72-1.6Z" transform="translate(-12.54 -15.16)"/><path class="b" d="M6610.89,318.77l-27.33,6.43c-18.35,11.57-43,81.63-30.54,101.27,47.76,15.71,110-2.71,136.63,33.75,30.27,41.42,6.43,134.41-4.82,178.43L6590,1048.56c-14.64,57.52-16.86,140.21-57.87,172-22.79,17.68-54.88,32.66-88.41,38.58H6373c-13.9,10.75-33,75.76-22.51,101.27,10.15,19.93,42.57,16.08,72.34,16.08h977.35c27.2,0,63.39,3.39,85.21-3.22,30.33-59,36.44-147.13,54.65-213.79,5.74-21,17.9-57.48,6.43-77.16-24.15-6.11-168.07-14.1-189.68-4.82-22.8,9.78-56.66,79.41-75.56,101.27-61.8,71.52-146.32,96.77-282.91,75.55-43-6.68-82.44,2.61-110.92-14.47-7.58-33.06,5.62-69.18,12.86-98q17.67-82.79,35.36-165.57c7.14-30.52,9.42-77.08,32.15-91.63,11.55-7.39,105.95-4.65,123.78,1.61,38.82,13.62,23,68.29,46.62,85.19,14.34,9,61.79,7,80.37,3.22,14.71-21.26,66.13-240,61.09-271.67-102.15-42.82-96.33,59.89-157.55,73.95-26.37,6.06-122.58-3.45-130.2-16.08-10.08-21.72,14.91-107.87,20.91-133.42,12.55-53.59,16.85-164.88,54.64-189.68,19.19-12.59,59.74-5.05,88.42-4.82,47.9.38,228.87,0,255.59,16.07,56.74,34.09,22.84,83.5,35.36,147.89,20.12,13.73,197.41,21.06,212.19,0l30.54-136.64c6-25.05,28.85-122.66,11.26-133.42-15.72-12.4-54.87-8-82-8H6610.89Z" transform="translate(-12.54 -15.16)"/><path class="a" d="M1065.06,426.47c169.72-2.1,296.66-27.34,319.89,125.38,20.93,137.63-114.93,234.68-244.34,215.4-51.83-7.72-136.28,11.67-167.18-17.68,0-35.21,13.27-66.57,20.91-96.45l33.75-144.67c9.87-36.2,6.27-66.09,37-82Z" transform="translate(-12.54 -15.16)"/><path class="a" d="M2437.85,508.45l27.33,3.21c14.67,22.72,13.07,60.13,19.29,91.63q14.46,86.79,28.93,173.61c4.43,21.42,15.9,61.41,8,82-3.75,9.06-13.42,20.83-22.5,24.11-35.27,12.75-230.74-.94-254-11.25q-1.62-8.85-3.22-17.68L2372,619.36c19.94-33.88,34.84-88.12,65.9-110.91Z" transform="translate(-12.54 -15.16)"/><path class="a" d="M959,891l135,8c101.17,15.5,161.34-2.13,188.08,90,42.27,145.63-38.23,248-146.28,273.27-32.14,7.52-70.83,1.61-106.09,1.61-49.14,0-127.16,8.33-160.75-11.26-10.13-25.86-.83-56.85,6.43-85.19C890.5,1108.42,921.15,914.87,959,891Z" transform="translate(-12.54 -15.16)"/><text x="-12.54" y="-15.16"></text></svg>