<svg xmlns="http://www.w3.org/2000/svg" viewBox="0 0 604.02 176.56"><defs><style>.a{fill:#fff;}</style></defs><title>cardis_w</title><path class="a" d="M110.92,192.52c2.94-.18,3.77.92,3.58,7.72V234c-.18,3.67,1.1,6.24-3.31,6.6h-3.67s-2.93,1.11-5.13-4-8.45-14.33-12.86-19.1-13.22-14.32-27.54-14-19.46,12.11-22.77,25.7-1.87,40,1.47,47.37c3.67,8.09,14,16.9,30.11,14S95.41,274.42,98,270.37s3-4.68,8.54-2.11l4.77,2c2.66,1.29,5.78,1.83,1,9.27,0,0-14.32,20.57-34.15,25.34S37,306.73,20.86,299.76c-18.55-8-39-26.18-36-53.26,2.94-26.81,16.16-40.4,37.46-49.58s45.9-5.14,55.82-1.83,12.94,8.63,21.57,2.3c2.76-2.48,2.11-4.87,5.78-4.87Z" transform="translate(15.42 -186.62)"/><path class="a" d="M232.39,223.74h39.1c3.68-.37,3.68,3.85,3.68,3.85v3.67c-.19,4.6.43,4,2.38,3.12s6.06-8.08,11.39-10.64c6.08-2.94,16.88-4.05,22.77,1.82,5.14,5.15,8.74,12.49,5.14,21.49-3.31,8.27-11.57,9.18-16.34,8.82-5.87-.45-11.21-2.76-13.6-7-1.71-3-2-4.25-4.4-1.47-2.2,2.57-3.12,3.3-3.48,10.28v34.7c.36,2.94.72,2.94,3.29,3.31h8.18c2.48-.1,2.48,1.75,2.48,3.31v5.5c-.1,3.12-1.84,2.48-4.69,2.48H235.88c-3.95,0-5.6.64-5-6v-3.12c.37-3.67,1.48-2.66,4.78-2.66,4,0,3.67-3.58,3.67-3.58V240.62c0-3.66-1.1-4-2.94-4.4h-4c-3.31,0-3.13-2.2-3.13-3.67v-5C229.63,224.65,229.08,224.1,232.39,223.74Z" transform="translate(15.42 -186.62)"/><path class="a" d="M457.49,219.46c12.34,0,22.34-5.82,22.34-13s-10-13-22.34-13-22.33,5.81-22.33,13S445.17,219.46,457.49,219.46Z" transform="translate(15.42 -186.62)"/><path class="a" d="M457.49,206.48" transform="translate(15.42 -186.62)"/><path class="a" d="M430.23,224.47h44.25c3.95-.1,3.58,2.2,3.58,5.51v64.08c.09,2.94.65,2.8,2.66,2.94,4.23.27,7.44-1,7.07,3.39v5.41c-.09,3.5-1.37,2.77-6,2.85h-49c-4,0-3.4-1.74-3.49-3.11v-4.87c0-3,.64-3.57,3.22-3.48,3,.08,4.86-.46,5.14-2.95V241c.17-2.84-.65-3.76-2.95-3.67h-4.59c-2.93,0-2.74-1.46-2.74-2.94v-6.61C427.39,224.65,428.12,224.47,430.23,224.47Z" transform="translate(15.42 -186.62)"/><path class="a" d="M581.25,244.66V227.77c.18-4-1.47-4.58-4.22-4.4h-1.28c-3.31,0-3.58.12-4.78,1.82-1.29,1.85-3.3,4.79-10.28,2.58s-20-5.28-30.11-3.12c-10.29,2.2-14.51,3.67-23.14,14.88-8,10.43-3.68,25.34.36,30.1s12.08,13.31,31.59,14c21.67.74,26.44,11.39,14.32,15.8-7.35,1.47-19.65-1.75-24.23-4.51-6.89-3.49-9.55-6-11.66-9.54-.74-2.57-2.4-3.13-3.67-3h-6.8c-3,.18-3.31.82-3.31,4.59v17.35c.18,4.68,6.15,8,11,4.78s4.42-6,8.55-4.14a58.9,58.9,0,0,0,19.46,5.5c8.45.74,21.67,1.85,33.78-6.6s15.79-31.22,6.62-41.5-24.24-11-34.53-11.75S528,244.66,535,236.59c4-4,12.86-3.49,19.46.18s8.82,6.06,11.75,9.36c1.85,3,2.39,3,5.32,3h6.81C580.52,249.44,581.61,247.23,581.25,244.66Z" transform="translate(15.42 -186.62)"/><path class="a" d="M488.34,192.43c4.46-3.71,8.64-5.14,13.32-5.14A20.31,20.31,0,0,1,515,192a19.78,19.78,0,0,1,6.42,13.58c.09,4.88,0,11.39-3.57,17s-8.26,9.81-14.24,11.55c-2,.56-4,.19-2.66-2.2s3.12-4.31,2.38-9.08c-.26-1,0-2.48-4.31-2.48s-10.83-4.51-11.84-6.25-5-5.6-3.67-12.94A18.63,18.63,0,0,1,488.34,192.43Z" transform="translate(15.42 -186.62)"/><path class="a" d="M230,295.71,226.88,292c-2.57-2.57-2.85-1.38-4.32-.28-2.29,1.73-8.85,3.63-8.91-2.66-.18-18.73,0-43.88,0-43.88-2.57-22-24.6-23-29.74-23.33s-25.15-2.06-38.56,1.3c-9.55,2.37-21.49,6.6-21.3,19.27.92,11.38,9.73,12.3,12.49,12.86,3.07.61,9.91-.37,14-2.94a13.81,13.81,0,0,0,5.88-11.76c-.37-3.66-2.57-6.05.36-7,7.5-2.34,15.59-1.37,17.26,5.88a35.74,35.74,0,0,1,.37,13.58c0,3.3-1.47,3.49-4,3.67s-21.36.82-33,4.78C127,265.05,115.79,270,115.05,288c1.11,10.65,7.53,16.16,16.35,18.36s21.29,1.47,30.11-1.84,12.39-4.76,12.39-4.76a3.44,3.44,0,0,1,4.5.36c2.7,2.48,7,5.5,15.06,7s26.81,1.83,36-7.34C232.2,297.27,230,295.71,230,295.71Zm-55.27-12.77c-.74,3.59-4,6.16-8.26,6.71-4.83.63-7-.37-8.82-2.75s-3.49-8.63.19-14.33,7.89-5.13,14.69-5.13c2.2,0,2.38,1.28,2.57,2.93A81.84,81.84,0,0,1,174.73,282.94Z" transform="translate(15.42 -186.62)"/><path class="a" d="M423.71,297.19c-3.68.08-5.69-.56-5.88-4.79V201.33c0-4.41.19-6.61-4-6.24l-45.34,1.1c-2.21,0-3.13,1.11-3.13,3.31V205s-.36,3.31,2.94,2.94h4c3.67,0,3.49,1.1,3.67,4.41V230c0,6.24-4.22-.64-10-2.76-4.91-1.79-14.61-4-27.64.92-13.59,5.14-21,15.28-24.05,29.75-4,19.09,1.1,30.48,5.87,36.72s12.12,14,29.75,15.43c15,1.23,22.09-5.62,24.78-8.83,2.95-3.48,2.57.74,2.76,3.68.15,2.57,1.11,3.68,5.5,3.31h40c1.48,0,3.86.54,3.68-3.31v-4.77S427.39,297.09,423.71,297.19ZM376,278.45c-.37,3.67-.74,10.28-6.61,14.32s-10.28-1.1-11.38-2.94-2.2-5.87-2.2-17.26V252c0-5.14,1.46-8.08,3.66-10.28s6.43-3.12,10.84-.56,4.59,7.54,5.32,10.48S376.34,274.78,376,278.45Z" transform="translate(15.42 -186.62)"/><path class="a" d="M110.92,191.85c2.94-.18,3.77.92,3.58,7.72v33.78c-.18,3.67,1.1,6.24-3.31,6.6h-3.67s-2.93,1.11-5.13-4-8.45-14.33-12.86-19.1S76.31,202.49,62,202.87,42.53,215,39.22,228.57s-1.87,40,1.47,47.37c3.67,8.09,14,16.89,30.11,14S95.41,273.75,98,269.7s3-4.68,8.54-2.11l4.77,2c2.66,1.29,5.78,1.83,1,9.27,0,0-14.32,20.57-34.15,25.34S37,306.06,20.86,299.09c-18.55-8-39-26.19-36-53.26C-12.19,219,1,205.43,22.33,196.25s45.9-5.14,55.82-1.83,12.94,8.63,21.57,2.29c2.76-2.47,2.11-4.86,5.78-4.86Z" transform="translate(15.42 -186.62)"/><path class="a" d="M232.39,223.07h39.1c3.68-.37,3.68,3.85,3.68,3.85v3.67c-.19,4.6.43,4,2.38,3.12s6.06-8.08,11.39-10.64c6.08-2.94,16.88-4,22.77,1.82,5.14,5.15,8.74,12.49,5.14,21.49-3.31,8.27-11.57,9.18-16.34,8.82-5.87-.45-11.21-2.76-13.6-7-1.71-3-2-4.25-4.4-1.47-2.2,2.57-3.12,3.3-3.48,10.28v34.7c.36,2.94.72,2.94,3.29,3.31h8.18c2.48-.1,2.48,1.75,2.48,3.31v5.5c-.1,3.12-1.84,2.48-4.69,2.48H235.88c-3.95,0-5.6.64-5-6v-3.12c.37-3.67,1.48-2.66,4.78-2.66,4,0,3.67-3.58,3.67-3.58V240c0-3.66-1.1-4-2.94-4.4h-4c-3.31,0-3.13-2.2-3.13-3.67v-5C229.63,224,229.08,223.43,232.39,223.07Z" transform="translate(15.42 -186.62)"/><path class="a" d="M457.49,218.79c12.34,0,22.34-5.82,22.34-13s-10-13-22.34-13-22.33,5.81-22.33,13S445.17,218.79,457.49,218.79Z" transform="translate(15.42 -186.62)"/><path class="a" d="M457.49,205.81" transform="translate(15.42 -186.62)"/><path class="a" d="M430.23,223.8h44.25c3.95-.1,3.58,2.2,3.58,5.51v64.08c.09,2.94.65,2.8,2.66,2.94,4.23.27,7.44-1,7.07,3.39v5.41c-.09,3.5-1.37,2.76-6,2.85h-49c-4,0-3.4-1.74-3.49-3.11V300c0-3,.64-3.57,3.22-3.48,3,.08,4.86-.46,5.14-2.95V240.32c.17-2.84-.65-3.76-2.95-3.67h-4.59c-2.93,0-2.74-1.46-2.74-2.94V227.1C427.39,224,428.12,223.8,430.23,223.8Z" transform="translate(15.42 -186.62)"/><path class="a" d="M581.25,244V227.1c.18-4-1.47-4.58-4.22-4.4h-1.28c-3.31,0-3.58.12-4.78,1.82s-3.3,4.79-10.28,2.58-20-5.28-30.11-3.12c-10.29,2.2-14.51,3.67-23.14,14.88-8,10.43-3.68,25.34.36,30.1s12.08,13.31,31.59,14c21.67.74,26.44,11.39,14.32,15.8-7.35,1.47-19.65-1.75-24.23-4.51-6.89-3.49-9.55-6-11.66-9.54-.74-2.57-2.4-3.13-3.67-3h-6.8c-3,.18-3.31.82-3.31,4.59v17.35c.18,4.68,6.15,8,11,4.78s4.42-6,8.55-4.14a58.9,58.9,0,0,0,19.46,5.5c8.45.74,21.67,1.85,33.78-6.6s15.79-31.22,6.62-41.5-24.24-11-34.53-11.75S528,244,535,235.92c4-4,12.86-3.49,19.46.18s8.82,6.06,11.75,9.36c1.85,2.95,2.39,2.95,5.32,2.95h6.81C580.52,248.77,581.61,246.56,581.25,244Z" transform="translate(15.42 -186.62)"/><path class="a" d="M488.34,191.76c4.46-3.71,8.64-5.14,13.32-5.14A20.31,20.31,0,0,1,515,191.3a19.78,19.78,0,0,1,6.42,13.58c.09,4.88,0,11.39-3.57,17s-8.26,9.82-14.24,11.56c-2,.56-4,.19-2.66-2.2s3.12-4.31,2.38-9.08c-.26-1,0-2.48-4.31-2.48s-10.83-4.51-11.84-6.25-5-5.6-3.67-12.94A18.63,18.63,0,0,1,488.34,191.76Z" transform="translate(15.42 -186.62)"/><path class="a" d="M230,295l-3.12-3.67c-2.57-2.58-2.85-1.38-4.32-.28-2.29,1.73-8.85,3.63-8.91-2.66-.18-18.73,0-43.88,0-43.88-2.57-22-24.6-23-29.74-23.33s-25.15-2.06-38.56,1.3c-9.55,2.37-21.49,6.6-21.3,19.27.92,11.38,9.73,12.3,12.49,12.86,3.07.61,9.91-.37,14-2.94A13.81,13.81,0,0,0,156.37,240c-.37-3.66-2.57-6,.36-7,7.5-2.34,15.59-1.37,17.26,5.88a35.74,35.74,0,0,1,.37,13.58c0,3.3-1.47,3.49-4,3.67s-21.36.82-33,4.78c-10.28,3.49-21.48,8.44-22.22,26.44,1.11,10.65,7.53,16.16,16.35,18.36s21.29,1.47,30.11-1.84,12.39-4.76,12.39-4.76a3.44,3.44,0,0,1,4.5.36c2.7,2.48,7,5.51,15.06,7s26.81,1.84,36-7.33C232.2,296.6,230,295,230,295Zm-55.27-12.77c-.74,3.59-4,6.16-8.26,6.71-4.83.63-7-.37-8.82-2.75s-3.49-8.63.19-14.33,7.89-5.14,14.69-5.14c2.2,0,2.38,1.29,2.57,2.94A81.84,81.84,0,0,1,174.73,282.27Z" transform="translate(15.42 -186.62)"/><path class="a" d="M423.71,296.52c-3.68.08-5.69-.56-5.88-4.79V200.66c0-4.41.19-6.61-4-6.24l-45.34,1.1c-2.21,0-3.13,1.11-3.13,3.31v5.5s-.36,3.31,2.94,2.94h4c3.67,0,3.49,1.1,3.67,4.41v17.63c0,6.24-4.22-.64-10-2.76-4.91-1.79-14.61-4-27.64.92-13.59,5.14-21,15.28-24.05,29.75-4,19.1,1.1,30.48,5.87,36.72s12.12,13.95,29.75,15.43c15,1.23,22.09-5.62,24.78-8.83,2.95-3.48,2.57.74,2.76,3.68.15,2.57,1.11,3.67,5.5,3.31h40c1.48,0,3.86.54,3.68-3.31v-4.77S427.39,296.42,423.71,296.52ZM376,277.78c-.37,3.67-.74,10.28-6.61,14.32S359.08,291,358,289.16s-2.2-5.87-2.2-17.26V251.34c0-5.14,1.46-8.08,3.66-10.28s6.43-3.12,10.84-.56S374.87,248,375.6,251,376.34,274.11,376,277.78Z" transform="translate(15.42 -186.62)"/><path class="a" d="M-11.83,327.92H9.08v4.2H-7.74v10.4H7.05v4.08H-7.74v15.57h-4.09Z" transform="translate(15.42 -186.62)"/><path class="a" d="M20,327.92v21.17a13.68,13.68,0,0,0,1.25,6.2,6.37,6.37,0,0,0,6.2,3.73q5.24,0,7.11-4a14.18,14.18,0,0,0,1-5.9V327.92H39.7v19.24q0,6.31-1.5,9.72-2.76,6.19-10.42,6.2t-10.4-6.2q-1.5-3.4-1.5-9.72V327.92Z" transform="translate(15.42 -186.62)"/><path class="a" d="M48.57,327.92h13.7a11.91,11.91,0,0,1,5.58,1.15Q72,331.26,72,337.16a10.1,10.1,0,0,1-1.11,5,8.52,8.52,0,0,1-3.13,3.15,6.25,6.25,0,0,1,2.65,2.14,8.5,8.5,0,0,1,1,4.32l.14,4.59a15.68,15.68,0,0,0,.29,2.91,2.87,2.87,0,0,0,1.31,2.1v.77h-5a4.34,4.34,0,0,1-.33-1.14,26.65,26.65,0,0,1-.21-2.7l-.24-5.72q-.15-3.36-2.14-4.5a7.62,7.62,0,0,0-3.56-.63h-9v14.69H48.57Zm13.26,15.69a6.84,6.84,0,0,0,4.42-1.3q1.64-1.31,1.63-4.71,0-3.66-2.28-5a6.45,6.45,0,0,0-3.25-.7H52.66v11.7Z" transform="translate(15.42 -186.62)"/><path class="a" d="M80.57,327.92h4.81l15,27.67V327.92h3.9v34.25H99.72L84.47,334.53v27.64h-3.9Z" transform="translate(15.42 -186.62)"/><path class="a" d="M114,327.92h4.12v34.25H114Z" transform="translate(15.42 -186.62)"/><path class="a" d="M148.79,327.92V332H138.63v30.17h-4.12V332H124.35v-4.08Z" transform="translate(15.42 -186.62)"/><path class="a" d="M159.09,327.92v21.17a13.68,13.68,0,0,0,1.25,6.2,6.37,6.37,0,0,0,6.2,3.73q5.24,0,7.11-4a14.18,14.18,0,0,0,1-5.9V327.92h4.12v19.24q0,6.31-1.5,9.72-2.76,6.19-10.42,6.2t-10.4-6.2q-1.5-3.4-1.5-9.72V327.92Z" transform="translate(15.42 -186.62)"/><path class="a" d="M187.66,327.92h13.7a11.91,11.91,0,0,1,5.58,1.15q4.17,2.19,4.17,8.09a10.1,10.1,0,0,1-1.11,5,8.52,8.52,0,0,1-3.13,3.15,6.25,6.25,0,0,1,2.65,2.14,8.5,8.5,0,0,1,1,4.32l.14,4.59a15.68,15.68,0,0,0,.29,2.91,2.87,2.87,0,0,0,1.31,2.1v.77h-5a4.34,4.34,0,0,1-.33-1.14,26.65,26.65,0,0,1-.21-2.7l-.24-5.72q-.15-3.36-2.14-4.5a7.62,7.62,0,0,0-3.56-.63h-9v14.69h-4.09Zm13.26,15.69a6.84,6.84,0,0,0,4.42-1.3Q207,341,207,337.6q0-3.66-2.27-5a6.52,6.52,0,0,0-3.26-.7h-9.69v11.7Z" transform="translate(15.42 -186.62)"/><path class="a" d="M220.05,327.92h21.87v4.2H224v10.4h16.54v4H224v11.61h18.2v4.08H220.05Z" transform="translate(15.42 -186.62)"/><path class="a" d="M262.84,342.48a4.33,4.33,0,0,1-.36-1.66,3.82,3.82,0,0,1,1.08-2.78,3.9,3.9,0,0,1,2.9-1.1,3.53,3.53,0,0,1,2.7,1,3.44,3.44,0,0,1,1,2.44,4.5,4.5,0,0,1-1,2.91,9.16,9.16,0,0,1-2,1.68l3,3.77c.2-.62.34-1.09.42-1.4a13.14,13.14,0,0,0,.24-1.3h1.93a13.54,13.54,0,0,1-.76,3.18c-.39,1-.58,1.43-.58,1.23l2.95,3.73h-2.62l-1.56-2a8.31,8.31,0,0,1-1.69,1.53,5.67,5.67,0,0,1-3.08.84,4.56,4.56,0,0,1-3.76-1.45,5.09,5.09,0,0,1-1.17-3.28,4.83,4.83,0,0,1,1.14-3.28,12.68,12.68,0,0,1,2.6-2A8.68,8.68,0,0,1,262.84,342.48Zm4.89,9.67a4.66,4.66,0,0,0,1.38-1.34L265.37,346a11.46,11.46,0,0,0-2.07,1.7,3.25,3.25,0,0,0-.74,2.15,2.51,2.51,0,0,0,1,2.12,3.28,3.28,0,0,0,2.06.74A3.79,3.79,0,0,0,267.73,352.15Zm-.16-9.8a2.7,2.7,0,0,0,.66-1.77,2,2,0,0,0-.49-1.32,1.64,1.64,0,0,0-1.3-.55,1.8,1.8,0,0,0-1.73.87,1.9,1.9,0,0,0-.25,1,2.76,2.76,0,0,0,.38,1.38,12.37,12.37,0,0,0,1.26,1.7A8.46,8.46,0,0,0,267.57,342.35Z" transform="translate(15.42 -186.62)"/><path class="a" d="M290.91,327.92h5.85l8.66,29,8.61-29h5.81v34.25h-3.9V342c0-.7,0-1.86,0-3.48s0-3.35,0-5.19l-8.6,28.88h-4.05l-8.69-28.88v1c0,.84,0,2.12.07,3.84s.06,3,.06,3.79v20.21h-3.9Z" transform="translate(15.42 -186.62)"/><path class="a" d="M337,327.92h4.61l10.94,34.25H348l-3.15-10.26H333.06l-3.27,10.26H325.6Zm6.77,20.22L339.08,333l-4.82,15.14Z" transform="translate(15.42 -186.62)"/><path class="a" d="M377.14,327.92V332H367v30.17h-4.12V332H352.7v-4.08Z" transform="translate(15.42 -186.62)"/><path class="a" d="M405,327.92V332H394.79v30.17h-4.12V332H380.51v-4.08Z" transform="translate(15.42 -186.62)"/><path class="a" d="M411.34,327.92H425a11.91,11.91,0,0,1,5.58,1.15q4.17,2.19,4.17,8.09a10,10,0,0,1-1.12,5,8.45,8.45,0,0,1-3.13,3.15,6.22,6.22,0,0,1,2.66,2.14,8.5,8.5,0,0,1,1,4.32l.14,4.59a15.68,15.68,0,0,0,.29,2.91,2.84,2.84,0,0,0,1.31,2.1v.77h-5a4.8,4.8,0,0,1-.32-1.14,21.68,21.68,0,0,1-.21-2.7l-.25-5.72q-.13-3.36-2.13-4.5a7.69,7.69,0,0,0-3.57-.63h-9v14.69h-4.08Zm13.26,15.69a6.86,6.86,0,0,0,4.42-1.3c1.08-.87,1.63-2.44,1.63-4.71q0-3.66-2.28-5a6.45,6.45,0,0,0-3.25-.7h-9.7v11.7Z" transform="translate(15.42 -186.62)"/><path class="a" d="M443.72,327.92H465.6v4.2H447.71v10.4h16.53v4H447.71v11.61H465.9v4.08H443.72Z" transform="translate(15.42 -186.62)"/><path class="a" d="M476.17,351.12a10.51,10.51,0,0,0,1.17,4.73q1.95,3.4,6.9,3.41a10.52,10.52,0,0,0,4-.75,5.2,5.2,0,0,0,3.52-5.17,4.79,4.79,0,0,0-1.5-4,13.7,13.7,0,0,0-4.73-2l-3.95-1.05a16.34,16.34,0,0,1-5.49-2.26,7.61,7.61,0,0,1-2.78-6.41,10.72,10.72,0,0,1,2.74-7.58q2.73-3,7.74-3a12.11,12.11,0,0,1,7.84,2.6q3.22,2.59,3.22,8.31h-3.83a9.72,9.72,0,0,0-1.26-4.22c-1.2-1.79-3.22-2.68-6.08-2.68-2.31,0-4,.58-5,1.72a5.92,5.92,0,0,0-1.51,4,4.07,4.07,0,0,0,1.79,3.68,23.08,23.08,0,0,0,5.31,1.86l4.09,1.1a11.59,11.59,0,0,1,4.57,2.17q2.79,2.4,2.79,7,0,5.69-3.56,8.14a14.18,14.18,0,0,1-8.25,2.44c-3.66,0-6.52-1.08-8.58-3.26s-3.09-5.09-3.05-8.79Z" transform="translate(15.42 -186.62)"/><path class="a" d="M506.34,351.12a10.51,10.51,0,0,0,1.17,4.73q2,3.4,6.89,3.41a10.53,10.53,0,0,0,4-.75,5.19,5.19,0,0,0,3.51-5.17c0-1.87-.49-3.2-1.49-4a13.7,13.7,0,0,0-4.73-2l-4-1.05a16.34,16.34,0,0,1-5.49-2.26,7.61,7.61,0,0,1-2.78-6.41,10.75,10.75,0,0,1,2.73-7.58q2.75-3,7.75-3a12.11,12.11,0,0,1,7.84,2.6q3.23,2.59,3.22,8.31h-3.83a9.72,9.72,0,0,0-1.26-4.22c-1.2-1.79-3.22-2.68-6.08-2.68-2.31,0-4,.58-5,1.72a5.92,5.92,0,0,0-1.51,4,4.07,4.07,0,0,0,1.79,3.68,23.13,23.13,0,0,0,5.3,1.86l4.1,1.1a11.59,11.59,0,0,1,4.57,2.17c1.86,1.6,2.78,3.92,2.78,7q0,5.69-3.55,8.14a14.2,14.2,0,0,1-8.25,2.44c-3.66,0-6.52-1.08-8.59-3.26s-3.08-5.09-3-8.79Z" transform="translate(15.42 -186.62)"/><path class="a" d="M534.23,327.92H556.1v4.2H538.21v10.4h16.54v4H538.21v11.61h18.2v4.08H534.23Z" transform="translate(15.42 -186.62)"/><path class="a" d="M566.68,351.12a10.51,10.51,0,0,0,1.17,4.73q1.95,3.4,6.89,3.41a10.45,10.45,0,0,0,4-.75,5.18,5.18,0,0,0,3.52-5.17c0-1.87-.49-3.2-1.49-4a13.79,13.79,0,0,0-4.73-2l-4-1.05a16.25,16.25,0,0,1-5.49-2.26,7.61,7.61,0,0,1-2.78-6.41,10.75,10.75,0,0,1,2.73-7.58q2.74-3,7.75-3a12.13,12.13,0,0,1,7.84,2.6q3.23,2.59,3.22,8.31h-3.84a9.46,9.46,0,0,0-1.26-4.22q-1.78-2.69-6.07-2.68c-2.31,0-4,.58-5,1.72a5.92,5.92,0,0,0-1.51,4,4.08,4.08,0,0,0,1.78,3.68,23.47,23.47,0,0,0,5.31,1.86l4.1,1.1a11.59,11.59,0,0,1,4.57,2.17c1.86,1.6,2.78,3.92,2.78,7q0,5.69-3.55,8.14a14.2,14.2,0,0,1-8.25,2.44c-3.66,0-6.52-1.08-8.59-3.26s-3.08-5.09-3-8.79Z" transform="translate(15.42 -186.62)"/></svg>