<svg xmlns="http://www.w3.org/2000/svg" viewBox="0 0 492.89 152.47"><defs><style>.a{fill:#fff;}.b{fill:#e0c9a0;}</style></defs><title>oscu_w</title><path class="a" d="M66.67,94.51a10.93,10.93,0,0,1-.57-3.17c0-.89.05-1.9.14-3s.31-2.68.64-4.65a21.39,21.39,0,0,1,1.9-5.85A45,45,0,0,1,72,72.25a22.09,22.09,0,0,1,4.72-4.93,34.47,34.47,0,0,1,6.41-3.94q7.45-3.68,18.17-3.67,21.56,0,35.14,14.3t13.6,36.56q0,22.26-16.06,37T93.29,162.26q-24.66,0-40.92-14.65t-16.27-38a50.77,50.77,0,0,1,7-26.76A48.33,48.33,0,0,1,63.29,64.5l.84,1.27A33.59,33.59,0,0,0,51,83.24a72.34,72.34,0,0,0-4,24.23q0,23.81,13,37.19T93.15,158q20.28,0,33.17-13.46t12.89-35.42q0-19-10.21-32.12t-28.81-13.1a37.25,37.25,0,0,0-15.07,3q-12.25,5.2-16.2,17.18a20.48,20.48,0,0,0-1.13,6.06,24.72,24.72,0,0,0,.28,4.09Z" transform="translate(-36.1 -42.33)"/><path class="a" d="M334.3,105.44A33.44,33.44,0,0,0,327,126.15q0,13.23,11.12,20.56a25.75,25.75,0,0,0,14.72,4.37,29.89,29.89,0,0,0,14.3-3.24q11.42-5.91,12.82-19.86a14.65,14.65,0,0,0,.14-2,26.25,26.25,0,0,0-2.89-11.26,31.51,31.51,0,0,0-9.36-11.13l-25.36-20a20.28,20.28,0,0,1-8.31-16.76,24.64,24.64,0,0,1,6.62-17.4q6.62-7.11,17.89-7.11a59.17,59.17,0,0,1,12.26,1.41h5.63l.28,17.33h-1.41a13.38,13.38,0,0,0-4.86-10.64,18,18,0,0,0-11.83-3.87,16.26,16.26,0,0,0-16.69,16.83,15.14,15.14,0,0,0,6.2,12.33l26.06,20.56q15.49,12.25,15.49,29.58,0,13-10.28,22.26-8.88,8-23.67,8a36.66,36.66,0,0,1-16.05-3.38q-13.24-6.2-15.92-21.13a27.6,27.6,0,0,1,1.55-15.14,33.43,33.43,0,0,1,7.6-12Z" transform="translate(-36.1 -42.33)"/><path class="a" d="M416.68,106.35v31.5a3.37,3.37,0,0,0,1,2.37,3.31,3.31,0,0,0,2.39,1h.64l.06.54H404.49v-.54h.7a3.27,3.27,0,0,0,2.34-1,3.6,3.6,0,0,0,1.1-2.31V106.35h-7.25a5.15,5.15,0,0,0-5.36,5.48v.64h-.54v-9.34a13.13,13.13,0,0,0,2.71.65,22.87,22.87,0,0,0,3.62.32h21.63a22.51,22.51,0,0,0,4.29-.43,15.87,15.87,0,0,0,2-.54v9.34h-.54v-.64a5.16,5.16,0,0,0-5.36-5.48Z" transform="translate(-36.1 -42.33)"/><path class="a" d="M466.64,141.18h.48v.54H450v-.54h.48a2.09,2.09,0,0,0,1.75-.72,2.32,2.32,0,0,0,.56-1.37,3.32,3.32,0,0,0-.27-1.29l-2.63-6.6H437.34l-2.79,6.6a3.66,3.66,0,0,0-.27,1.32,2.3,2.3,0,0,0,.56,1.34,2.16,2.16,0,0,0,1.8.72h.43v.54H425.58v-.54h.49a4.75,4.75,0,0,0,2.47-.75,5.75,5.75,0,0,0,2-2.25L443,110.11c1.68-3.54,2.58-5.88,2.68-7h.49l15.93,35a5.8,5.8,0,0,0,2,2.33A4.71,4.71,0,0,0,466.64,141.18ZM438.25,129H449l-5.2-13.2Z" transform="translate(-36.1 -42.33)"/><path class="a" d="M482.68,106.35v31.5a3.38,3.38,0,0,0,1.05,2.37,3.31,3.31,0,0,0,2.38,1h.65l.05.54H470.5v-.54h.7a3.24,3.24,0,0,0,2.33-1,3.55,3.55,0,0,0,1.1-2.31V106.35h-7.24a5.16,5.16,0,0,0-5.37,5.48v.64h-.54v-9.34a13.3,13.3,0,0,0,2.71.65,23.09,23.09,0,0,0,3.63.32h21.62a22.53,22.53,0,0,0,4.3-.43,16,16,0,0,0,2-.54v9.34h-.53v-.64a5.16,5.16,0,0,0-5.37-5.48Z" transform="translate(-36.1 -42.33)"/><path class="a" d="M499.42,141.18a3.26,3.26,0,0,0,2.39-1,3.49,3.49,0,0,0,1.05-2.39V107.91a3.37,3.37,0,0,0-1.77-2.79,3.46,3.46,0,0,0-1.67-.43h-.69v-.54h20.55a22.37,22.37,0,0,0,3.65-.32,15.08,15.08,0,0,0,2.79-.64v9.39h-.54v-.65a5.39,5.39,0,0,0-1.42-3.89,5.45,5.45,0,0,0-3.84-1.58h-9v15.62H518a4.56,4.56,0,0,0,3.27-1.37,4.46,4.46,0,0,0,1.29-3.25V117h.54v12.4h-.54V129a4.29,4.29,0,0,0-2.14-4,5.31,5.31,0,0,0-2.37-.65h-7.13v15.08h7a9.81,9.81,0,0,0,6.57-2.25,13.28,13.28,0,0,0,3.94-6.39H529l-2.47,10.95H498.73v-.54Z" transform="translate(-36.1 -42.33)"/><path class="a" d="M178.31,147.16q-10.35,0-16.26-5.23t-5.9-14.28q0-9.06,5.85-14.3t16-5.23A28.67,28.67,0,0,1,191.4,111l.11,9.23h-.43q-2.73-9.87-12.5-9.88a12.14,12.14,0,0,0-10,4.59q-3.67,4.59-3.68,12.53t3.52,12.61a11.73,11.73,0,0,0,9.52,4.83q6.23,0,9.5-3.11t4.62-11.06h.43L193,140Q188.68,147.19,178.31,147.16Z" transform="translate(-36.1 -42.33)"/><path class="a" d="M198.38,145.9a3.26,3.26,0,0,0,2.39-1,3.45,3.45,0,0,0,1-2.39V112.63a3.33,3.33,0,0,0-1.77-2.79,3.42,3.42,0,0,0-1.66-.43h-.7v-.54h20.56a23.64,23.64,0,0,0,3.65-.32,14.88,14.88,0,0,0,2.79-.65v9.4h-.54v-.65a5.14,5.14,0,0,0-5.26-5.47h-9v15.61H217a4.57,4.57,0,0,0,3.27-1.36,4.46,4.46,0,0,0,1.29-3.25v-.48h.54v12.39h-.54v-.43a4.31,4.31,0,0,0-2.15-4,5.23,5.23,0,0,0-2.36-.64h-7.14v15.08h7a9.78,9.78,0,0,0,6.58-2.26,13.32,13.32,0,0,0,3.94-6.38H228l-2.47,10.94h-27.8v-.53Z" transform="translate(-36.1 -42.33)"/><path class="a" d="M268.89,145.9h.49v.53H252.26v-.53h.48a2.07,2.07,0,0,0,1.75-.73,2.3,2.3,0,0,0,.56-1.36,3.32,3.32,0,0,0-.27-1.29l-2.63-6.6H239.59l-2.79,6.6a3.61,3.61,0,0,0-.27,1.31,2.23,2.23,0,0,0,.57,1.34,2.11,2.11,0,0,0,1.8.73h.42v.53H227.84v-.53h.48a4.7,4.7,0,0,0,2.47-.75,5.64,5.64,0,0,0,2-2.26l12.4-28.06c1.68-3.54,2.57-5.89,2.68-7h.48l15.94,35a5.94,5.94,0,0,0,2,2.33A4.65,4.65,0,0,0,268.89,145.9Zm-28.38-12.24h10.73L246,120.46Z" transform="translate(-36.1 -42.33)"/><path class="a" d="M311.56,109.41a3.35,3.35,0,0,0-3.33,3.22v27.69a32.38,32.38,0,0,0,.48,6.06l.16.81h-.48l-27.1-25.82v21.31a3.06,3.06,0,0,0,1,2.28,3.16,3.16,0,0,0,2.3.94h1v.53H269.32v-.53h1a3.24,3.24,0,0,0,2.36-.94,3.15,3.15,0,0,0,1-2.34V114.77a29.5,29.5,0,0,0-.49-5.9l-.1-.8h.48l27.1,25.81v-21.2a3.33,3.33,0,0,0-1-2.33,3.19,3.19,0,0,0-2.31-.94h-1v-.54h16.26v.54Z" transform="translate(-36.1 -42.33)"/><path class="b" d="M229.86,86.83a.8.8,0,0,1-1,.27c-17-6.64-42.47-8.88-63.49,9.13a.27.27,0,0,1-.33,0,.26.26,0,0,1-.06-.32c19.55-26.5,44.12-19.88,61-15.75a1.42,1.42,0,0,0,1.24-.28c17.38-14.15,39.77-18.88,64-5.2a.25.25,0,0,1-.21.46C277.8,70.45,246.72,64.58,229.86,86.83Z" transform="translate(-36.1 -42.33)"/><path class="b" d="M287.69,194.78q-6.13,0-9.64-3.1a12,12,0,0,1,0-17q3.47-3.1,9.52-3.1a17.08,17.08,0,0,1,7.92,1.71l.07,5.48h-.26q-1.62-5.87-7.42-5.86a7.2,7.2,0,0,0-5.93,2.72,11.56,11.56,0,0,0-2.18,7.44,12.16,12.16,0,0,0,2.08,7.48,7,7,0,0,0,5.65,2.86,7.9,7.9,0,0,0,5.64-1.84c1.31-1.28,2.23-3.46,2.73-6.56h.26l.32,5.47Q293.84,194.81,287.69,194.78Z" transform="translate(-36.1 -42.33)"/><path class="b" d="M308,173.47h-1.47V192a2,2,0,0,0,1,1.75,2.15,2.15,0,0,0,1,.26H309v.31h-9.68V194h.42a1.93,1.93,0,0,0,1.75-1,2.37,2.37,0,0,0,.29-1V174.39a2,2,0,0,0-.63-1.41,1.89,1.89,0,0,0-1.41-.59h-.42v-.32H310.2a9.64,9.64,0,0,1,5.22,1.34,4.62,4.62,0,0,1,1.72,1.86,5.59,5.59,0,0,1,.64,2.71,7.06,7.06,0,0,1-.53,2.78A5.45,5.45,0,0,1,315.5,183a5.65,5.65,0,0,1-2.94,1.15,6.28,6.28,0,0,1,3.25,2.8q3.44,5.51,5.09,6.55A4.17,4.17,0,0,0,323,194v.31h-3.12a11.86,11.86,0,0,1-4.52-.75,6.24,6.24,0,0,1-3-2.56c-.38-.61-.87-1.54-1.47-2.78s-1-2.13-1.17-2.66c-.58-1.27-1.3-2-2.17-2.13v-.32h1a4,4,0,0,0,2.53-.86,4.55,4.55,0,0,0,1.48-2.8,6.67,6.67,0,0,0,.13-1.05,5.58,5.58,0,0,0-1.05-3.78,3.6,3.6,0,0,0-2.71-1.19Z" transform="translate(-36.1 -42.33)"/><path class="b" d="M324.24,194a2,2,0,0,0,1.42-.59,2.08,2.08,0,0,0,.62-1.42V174.3a2,2,0,0,0-1-1.66,2.08,2.08,0,0,0-1-.25h-.41v-.32H336a13.38,13.38,0,0,0,2.17-.19,8.91,8.91,0,0,0,1.65-.38v5.57h-.32v-.38a3.19,3.19,0,0,0-.84-2.31,3.23,3.23,0,0,0-2.28-.94h-5.35v9.26h4.21a2.71,2.71,0,0,0,1.94-.81A2.64,2.64,0,0,0,338,180v-.28h.32V187H338v-.25a2.56,2.56,0,0,0-1.27-2.36,3.18,3.18,0,0,0-1.4-.38h-4.24v9h4.17a5.83,5.83,0,0,0,3.9-1.34,7.93,7.93,0,0,0,2.34-3.79h.32l-1.46,6.49H323.83V194Z" transform="translate(-36.1 -42.33)"/><path class="b" d="M364.26,175.06a11.77,11.77,0,0,1,0,16.3c-2.19,2-5.16,3-8.92,3H343.79V194h.41a2,2,0,0,0,1.42-.59,2.08,2.08,0,0,0,.62-1.42V174.2a2,2,0,0,0-.67-1.29,2,2,0,0,0-1.37-.52h-.41v-.32h11.55Q361,172.07,364.26,175.06Zm-9.33,18a6.59,6.59,0,0,0,4-1.2,7.48,7.48,0,0,0,2.57-3.4,14,14,0,0,0,.89-5.21,11.68,11.68,0,0,0-2-7.16,6.44,6.44,0,0,0-5.43-2.64H351V193Z" transform="translate(-36.1 -42.33)"/><path class="b" d="M369.93,194a1.93,1.93,0,0,0,1.41-.59A2.08,2.08,0,0,0,372,192V174.36a2,2,0,0,0-.62-1.4,2,2,0,0,0-1.41-.57h-.42v-.32h9.68l0,.32h-.38a2,2,0,0,0-1.44.57,1.86,1.86,0,0,0-.6,1.4V192a1.94,1.94,0,0,0,.6,1.42,2,2,0,0,0,1.44.59h.38l0,.31h-9.68V194Z" transform="translate(-36.1 -42.33)"/><path class="b" d="M393.48,173.38v18.68a2.05,2.05,0,0,0,2,2h.38l0,.31h-9.67V194h.41a1.92,1.92,0,0,0,1.38-.58,2.1,2.1,0,0,0,.66-1.37V173.38h-4.3a3.05,3.05,0,0,0-3.18,3.24V177h-.32v-5.53a8.68,8.68,0,0,0,1.61.38,12.94,12.94,0,0,0,2.14.19h12.83a12.93,12.93,0,0,0,2.55-.26,9.6,9.6,0,0,0,1.21-.31V177h-.32v-.38a3.05,3.05,0,0,0-3.18-3.24Z" transform="translate(-36.1 -42.33)"/><path class="b" d="M434.77,172.39h-.54a1.69,1.69,0,0,0-1.16.43,1.36,1.36,0,0,0-.5,1.06V186.3a8.08,8.08,0,0,1-2.45,6.21,9.42,9.42,0,0,1-6.71,2.29c-3.36,0-5.92-.75-7.71-2.24a7.71,7.71,0,0,1-2.67-6.23V174a1.51,1.51,0,0,0-.49-1.15,1.76,1.76,0,0,0-1.2-.44h-.51v-.32H420v.32h-.51a1.68,1.68,0,0,0-1.18.43,1.51,1.51,0,0,0-.51,1.1v12.16a8,8,0,0,0,1.66,5.34,5.61,5.61,0,0,0,4.55,2,5.9,5.9,0,0,0,4.59-1.86,7.39,7.39,0,0,0,1.71-5V173.92a1.39,1.39,0,0,0-.49-1.1,1.74,1.74,0,0,0-1.19-.43h-.51v-.32h6.65Z" transform="translate(-36.1 -42.33)"/><path class="b" d="M461.77,172.39a1.86,1.86,0,0,0-1.37.56,1.89,1.89,0,0,0-.61,1.35v16.42a19.09,19.09,0,0,0,.29,3.6l.09.48h-.28l-16.08-15.31v12.63a1.82,1.82,0,0,0,.57,1.36,1.92,1.92,0,0,0,1.37.56h.61v.31h-9.65V194h.57a2,2,0,0,0,1.41-.56,1.85,1.85,0,0,0,.57-1.39V175.57a18,18,0,0,0-.29-3.5l-.06-.48h.29l16.07,15.32V174.33a2,2,0,0,0-.6-1.38,1.88,1.88,0,0,0-1.37-.56h-.57v-.32h9.64v.32Z" transform="translate(-36.1 -42.33)"/><path class="b" d="M464.54,194a1.93,1.93,0,0,0,1.41-.59,2.08,2.08,0,0,0,.62-1.42V174.36A2,2,0,0,0,466,173a2,2,0,0,0-1.41-.57h-.42v-.32h9.68l0,.32h-.38A2,2,0,0,0,472,173a1.86,1.86,0,0,0-.6,1.4V192a1.94,1.94,0,0,0,.6,1.42,2,2,0,0,0,1.44.59h.38l0,.31h-9.68V194Z" transform="translate(-36.1 -42.33)"/><path class="b" d="M488.38,171.63q5.89,0,9.36,3.11a12.07,12.07,0,0,1,0,16.94q-3.47,3.12-9.36,3.12T479,191.68a10.82,10.82,0,0,1-3.47-8.47,11.67,11.67,0,0,1,1.58-6.16,10.28,10.28,0,0,1,4.47-4A15.32,15.32,0,0,1,488.38,171.63Zm-5.56,19.08a7,7,0,0,0,11.11,0,12.29,12.29,0,0,0,2.06-7.5,14.58,14.58,0,0,0-.93-5.44,7.77,7.77,0,0,0-2.64-3.57,6.75,6.75,0,0,0-4-1.24,6.6,6.6,0,0,0-5.56,2.75,14.74,14.74,0,0,0,0,15Z" transform="translate(-36.1 -42.33)"/><path class="b" d="M528.08,172.39a1.86,1.86,0,0,0-1.37.56,1.93,1.93,0,0,0-.61,1.35v16.42a19.09,19.09,0,0,0,.29,3.6l.09.48h-.28l-16.08-15.31v12.63a1.79,1.79,0,0,0,.58,1.36,1.88,1.88,0,0,0,1.36.56h.61v.31H503V194h.58a1.94,1.94,0,0,0,1.4-.56,1.85,1.85,0,0,0,.57-1.39V175.57a18,18,0,0,0-.29-3.5l-.06-.48h.29l16.07,15.32V174.33A2,2,0,0,0,521,173a1.86,1.86,0,0,0-1.37-.56H519v-.32h9.64v.32Z" transform="translate(-36.1 -42.33)"/></svg>