<svg xmlns="http://www.w3.org/2000/svg" xmlns:xlink="http://www.w3.org/1999/xlink" viewBox="0 0 328.74 480.39"><defs><style>.a{fill:none;}.b{fill:#1d2e5c;}.c{fill:#254777;}.d{fill:#fff;}.e{clip-path:url(#a);}</style><clipPath id="a" transform="translate(-7.65 -8.76)"><rect class="a" x="7.65" y="8.76" width="328.74" height="480.39"/></clipPath></defs><title>folg</title><rect class="b" width="328.74" height="480.39"/><rect class="c" x="7.11" y="6.66" width="314.53" height="467.07"/><path class="d" d="M331.65,13.06H12.39V484.85H331.65V13.06Zm-4.72,467.07H17.12V17.78H326.93Z" transform="translate(-7.65 -8.76)"/><g class="e"><path class="d" d="M79.69,55.47c-1.53-13-7.16-15.95-17.1-15.95V82.88c0,4.92,1,5.3,8.55,5.3v2.16h-23V88.18c7.57,0,8.56-.38,8.56-5.3V39.52c-9.94,0-15.56,2.93-17.09,15.95H37.58l.47-18.1H81.31l.45,18.1Z" transform="translate(-7.65 -8.76)"/><path class="d" d="M167.56,37.37v2.15c-6.09,0-7.1.39-7.1,5.31V61.38H185V44.83c0-4.92-1-5.31-6.93-5.31V37.37H197.9v2.15c-6.1,0-7.1.39-7.1,5.31V82.88c0,4.92,1,5.3,6.72,5.3v2.16H177.64V88.18c6.31,0,7.32-.38,7.32-5.3V64h-24.5V82.88c0,4.92,1,5.3,6.71,5.3v2.16H147.31V88.18c6.31,0,7.31-.38,7.31-5.3v-38c0-4.92-1-5.31-6.93-5.31V37.37Z" transform="translate(-7.65 -8.76)"/><path class="d" d="M306,90.34H263.12V88.18c6.32,0,7.31-.38,7.31-5.3v-38c0-4.92-1-5.31-6.92-5.31V37.37h41.43l.46,19h-2.08c-1.55-13.94-7.16-16.87-17.1-16.87-7,0-9.94,1.08-9.94,4.48V61.54h4.62c6.16,0,8-3.61,8.16-9.23h2.15V72.93h-2.15c-.16-5.61-2-9.22-8.16-9.22h-4.62V85c0,2.45,2.17,3.22,8.41,3.22,13.15,0,18-4.77,19.71-17.86h2.07Z" transform="translate(-7.65 -8.76)"/><path class="d" d="M33.34,121.56H71.07v61h-1.9c-1-42.49-6-53.3-16.88-53.3-5.17,0-6.71,2.41-6.71,13v54.23c10,0,10.32-3.82,11.18-28.31h1.91V231.5H56.76c-.86-23.52-1.19-27.37-11.18-27.37v66.74c0,7.2.85,9.12,8.77,10.56v5.28h-21v-5.28c5.34-1.44,6.21-3.36,6.21-10.56V137.42c0-7.21-.87-9.13-6.21-10.57Z" transform="translate(-7.65 -8.76)"/><path class="d" d="M77.25,222.38H93.11L85,150.62h-.18ZM62.8,286.71v-5.28c4.9-2.4,6-4.56,7.4-17.28L85.62,117.73h1.63l17,150.74c1.13,9.84,2.07,11,6.12,13v5.28H92.16v-5.28c5.59-1.2,6.11-3.6,6.11-8.4s-.94-10.79-4.3-43H76.49L73.3,259.11c-.43,4.32-.86,9.36-.86,12.24,0,7.21,1.3,9.13,6.2,10.08v5.28Z" transform="translate(-7.65 -8.76)"/><path class="d" d="M144.27,124.44v58.1h-2.76c-1.13-22.57-3.27-56.89-13.62-56.17-7.06.48-14.73,19.21-14.73,77.76,0,60.26,6.72,77.8,15.24,77.8,11.46,0,14.22-34.11,14.22-60.5h2.76c0,37.2-4.31,69.13-17.92,69.13-12.74,0-21.36-40.57-21.36-85,0-49.68,10.34-87.84,21.89-87.84,3.68,0,6.36,3.1,8.34,7.42,2.15,4.57,2.67,7.92,3.36,7.92s1.38-2.87,2-8.64Z" transform="translate(-7.65 -8.76)"/><path class="d" d="M157.5,286.71v-5.28c6.38-1.43,7.25-3.36,7.25-10.56V129.24c-10,0-13.36,2.41-15.33,51.86h-1.9V121.56H188V181.1H186.1c-2-49.45-5.33-51.86-15.34-51.86V270.87c0,7.2.87,9.13,7.25,10.56v5.28Z" transform="translate(-7.65 -8.76)"/><path class="d" d="M225.53,204.14c0-57.37-6.53-77.77-14.28-77.77S197,146.77,197,204.14s6.53,77.79,14.3,77.79,14.28-20.42,14.28-77.79m7.07,0c0,53.76-10,86.42-21.35,86.42s-21.36-32.66-21.36-86.42,10-86.4,21.36-86.4,21.35,32.63,21.35,86.4" transform="translate(-7.65 -8.76)"/><path class="d" d="M244.22,199.35a20.25,20.25,0,0,0,3.78.47c10.85,0,16.55-10.33,16.55-37.69,0-20.89-4.05-34.32-13.44-34.32-4.57,0-6.89,3.6-6.89,8.17Zm30,47v11.52c0,21.36-1.55,32.65-6.79,32.65s-7.58-12.49-8.18-38.66c-.79-35.29-1.82-45.84-10.68-45.84h-4.31v64.81c0,7.2.87,9.13,6.3,10.56v5.28H232v-5.28c5.35-1.43,6.21-3.36,6.21-10.56V137.42c0-7.21-.86-9.13-6.21-10.56v-5.29h20.32c11.2,0,18.25,16.33,18.25,41.77,0,24-6.19,38.4-14.8,41.28v.47c6.55,5.77,9,19.22,9.39,46.81l.17,12.74c.17,12.23.84,15.84,3.19,15.84s3.44-7,3.44-21.61V246.39Z" transform="translate(-7.65 -8.76)"/><path class="d" d="M310.69,121.56v5.29c-4.81,2.88-5.33,8.15-7,19L293,216.61v54.26c0,7.2.87,9.12,7.05,10.56v5.28H279.69v-5.28c6.38-1.44,7.23-3.36,7.23-10.56V219.51l-12.22-79c-1.37-9.13-2.76-12.24-5.69-13.68v-5.29h18.18v5.29c-4.92,1.2-6.29,3.59-6.29,10.09,0,5,2,15.59,10.51,72.24h.17c8.79-58.56,10.33-65.05,10.33-72.24,0-6.25-.86-8.65-5-10.09v-5.29Z" transform="translate(-7.65 -8.76)"/><path class="d" d="M42.24,337.78c0,16.86,6.31,21.52,14,21.52s14.05-4.66,14.05-21.52S64,316.23,56.29,316.23s-14,4.66-14,21.55m-6,0c0-11.44,6.77-23.39,20.09-23.39s20.1,11.95,20.1,23.39-6.76,23.36-20.1,23.36-20.09-12-20.09-23.36" transform="translate(-7.65 -8.76)"/><path class="d" d="M93.47,315.18V317c-4.92,0-5.78.35-5.78,4.55v28c0,5,1.06,9.71,10.92,9.71,7.33,0,12.45-3.94,12.45-12.86v-24.3c0-3.68-.84-5.13-6-5.13v-1.83h14.44V317c-5.32,0-6.17,1.45-6.17,5.13V346.7c0,10.11-6.63,14.44-16.09,14.44C86,361.14,82.71,355,82.71,348V321.56c0-4.2-.86-4.55-5.79-4.55v-1.83Z" transform="translate(-7.65 -8.76)"/><path class="d" d="M156.91,330.62c-1.32-11.11-6.1-13.61-14.57-13.61v37c0,4.21.85,4.53,7.29,4.53v1.84H130.05v-1.84c6.44,0,7.3-.32,7.3-4.53V317c-8.47,0-13.26,2.5-14.59,13.61H121l.39-15.43h36.9l.4,15.43Z" transform="translate(-7.65 -8.76)"/><path class="d" d="M195.73,360.35H162.05v-1.84c5.25,0,6.1-.33,6.1-4.53V321.56c0-4.2-.85-4.54-5.78-4.54v-1.84h16.42V317c-4.8,0-5.65.34-5.65,4.54v32c0,4.65,1.18,4.91,4.39,4.91,11.24,0,15.38-4.07,16.82-15.22h1.77Z" transform="translate(-7.65 -8.76)"/><path class="d" d="M232.37,360.35H195.8v-1.84c5.4,0,6.24-.33,6.24-4.53V321.56c0-4.2-.84-4.54-5.92-4.54v-1.84h35.34l.39,16.21h-1.78C228.77,319.51,224,317,215.51,317c-6,0-8.48.92-8.48,3.8v15H211c5.26,0,6.83-3.07,7-7.86h1.84v17.61h-1.84c-.14-4.8-1.71-7.9-7-7.9H207v18.13c0,2.08,1.84,2.75,7.17,2.75,11.22,0,15.35-4.07,16.8-15.22h1.76Z" transform="translate(-7.65 -8.76)"/><path class="d" d="M273.22,330.62c-1.31-11.11-6.1-13.61-14.58-13.61v37c0,4.21.86,4.53,7.31,4.53v1.84H246.36v-1.84c6.45,0,7.3-.32,7.3-4.53V317c-8.46,0-13.27,2.5-14.59,13.61H237.3l.4-15.43h36.91l.39,15.43Z" transform="translate(-7.65 -8.76)"/><path class="d" d="M303.77,330.48c-1.43-8.08-5.46-14.25-12.93-14.25a8.85,8.85,0,0,0-8.68,8.53c0,13.73,25.68,5.64,25.68,22.72,0,8-7.42,13.66-15,13.66-6.52,0-9.39-3.61-11.83-3.61-1.37,0-1.63,1.77-2.09,2.82h-1.84v-17H279c1.05,7.7,4.6,15.9,13.53,15.9,6.83,0,10.63-3.73,10.63-10.63,0-13.4-25-5-25-22.52,0-5.4,4.79-11.76,13.25-11.76,6.51,0,9.14,4.14,10.13,4.14s1.37-1.77,2.16-3.35h2v15.3Z" transform="translate(-7.65 -8.76)"/><path class="d" d="M57.61,463.53H35.67v-1.44c3.06,0,3.77-.75,3.77-2.76V438.89c0-2-.71-2.75-3.7-2.75v-1.43h12v1.43c-3.31,0-4,.74-4,2.75v20.44c0,2,.92,2.76,3,2.76,3.61,0,8-1.26,9.8-9.33h1.3Z" transform="translate(-7.65 -8.76)"/><path class="d" d="M75,452.14l-4.44-11-4.19,11ZM57.33,463.53v-1.44c3.38,0,4.26-1.88,5.2-4.43L71,434.53h1.5l9.18,23.59c1.27,3.22,2.22,4,4.66,4v1.44H74.67v-1.44c3.15,0,3.3-.32,3.3-1.54,0-.87-1.21-4.23-2.33-6.66H65.75c-.71,2.35-1.93,4.86-1.93,6,0,1.6.83,2.17,4.44,2.17v1.44Z" transform="translate(-7.65 -8.76)"/><path class="d" d="M91,438.9c0-2-.71-2.76-4-2.76v-1.42H98.84v1.42c-2.88,0-3.59.74-3.59,2.76v11.72l9-10.22c1.21-1.34,1.84-2.09,1.84-3.22,0-.81-1.13-1-3.43-1v-1.42h10.55v1.42c-2.71,0-4.14,1.41-5.52,2.92l-6.62,7.13,8.08,13.1c1.17,1.92,1.94,2.8,4.66,2.8v1.44H102.33v-1.44c1.63,0,2.81-.15,2.81-.91,0-1.22-.94-2.15-1.73-3.49l-5-8.24-3.12,3.48v6.4c0,2,.71,2.76,3.59,2.76v1.44H87v-1.44c3.3,0,4-.75,4-2.76Z" transform="translate(-7.65 -8.76)"/><path class="d" d="M138.56,463.53H114.1v-1.44c3.18,0,3.89-.75,3.89-2.76V438.89c0-2-.71-2.75-3.89-2.75v-1.43h23.71l.26,10.31h-1.3c-2-6.37-4.38-8.88-9.93-8.88-2.48,0-4.57.65-4.57,2.75v8.89c4.4-.1,6.29-.51,7-5.07l1.17,0v11.55h-1.17c-.67-4.51-2.56-4.93-7-5v11.05c0,1.34.88,1.84,3.43,1.84,5.62,0,10-1.26,11.81-9.33h1.3Z" transform="translate(-7.65 -8.76)"/><path class="d" d="M179.74,450v1.43c-3.18,0-3.89.69-3.89,2.67v9.48h-1.42c-.6-1-1-2-1.51-2-.85,0-2.85,2.51-7.5,2.51-7.79,0-13.19-7.59-13.19-14.24,0-9,6-15.59,13.15-15.59,4.94,0,5.87,2.1,7.45,2.1.68,0,1-.6,1.31-1.18h1.33v9.72H174.3c-.76-4.74-3.39-9.21-8.66-9.21-7,0-8.56,6.57-8.56,14.24,0,9.16,3.94,12.74,8.48,12.74,4.76,0,6.19-2.52,6.19-7,0-3.32-1.13-4.23-4.9-4.23V450Z" transform="translate(-7.65 -8.76)"/><path class="d" d="M203.46,463.53H179v-1.44c3.19,0,3.9-.75,3.9-2.76V438.89c0-2-.71-2.75-3.9-2.75v-1.43h23.72L203,445h-1.3c-2-6.37-4.35-8.88-9.92-8.88-2.47,0-4.58.65-4.58,2.75v8.89c4.4-.1,6.29-.51,7-5.07l1.18,0v11.55h-1.18c-.66-4.51-2.55-4.93-7-5v11.05c0,1.34.89,1.84,3.45,1.84,5.61,0,10-1.26,11.8-9.33h1.29Z" transform="translate(-7.65 -8.76)"/><path class="d" d="M210,449.11c0,9.09,2.79,13.49,8.81,13.49s8.79-4.4,8.79-13.49-2.77-13.48-8.79-13.48S210,440,210,449.11m22.46,0c0,7.76-5.61,14.92-13.65,14.92s-13.66-7.16-13.66-14.92,5.63-14.91,13.66-14.91,13.65,7.16,13.65,14.91" transform="translate(-7.65 -8.76)"/><path class="d" d="M239.54,448c1.21,0,2.89.08,4.82.08,3.77,0,6.66-1.22,6.66-5.61,0-3.8-1.79-6.37-6.75-6.37-3.61,0-4.73.7-4.73,2.43Zm17.8,9.46c0,3.44-1.13,6.29-5,6.29-3.13,0-4.72-2.78-4.72-6.63,0-6.69-2-7.62-6.46-7.62h-1.64v9.8c0,2,.72,2.76,4.15,2.76v1.44H231.37v-1.44c3.19,0,3.89-.75,3.89-2.76V438.9c0-2-.7-2.77-3.89-2.77v-1.41H246.5c6.92,0,9,4.34,9,7.18,0,5.29-5.11,7.35-10,7.35v.07c8.09,1.3,5.53,11.51,9.1,11.51,1.13,0,1.54-2,1.54-3.34Z" transform="translate(-7.65 -8.76)"/><path class="d" d="M284.41,450v1.43c-3.19,0-3.9.69-3.9,2.67v9.48h-1.43c-.58-1-1-2-1.5-2-.83,0-2.85,2.51-7.48,2.51-7.81,0-13.22-7.59-13.22-14.24,0-9,6.05-15.59,13.15-15.59,5,0,5.88,2.1,7.48,2.1.65,0,1-.6,1.28-1.18h1.35v9.72H279c-.74-4.74-3.37-9.21-8.66-9.21-7,0-8.55,6.57-8.55,14.24,0,9.16,3.95,12.74,8.47,12.74,4.77,0,6.19-2.52,6.19-7,0-3.32-1.13-4.23-4.9-4.23V450Z" transform="translate(-7.65 -8.76)"/><path class="d" d="M308.13,463.53H283.67v-1.44c3.18,0,3.89-.75,3.89-2.76V438.89c0-2-.71-2.75-3.89-2.75v-1.43h23.69l.27,10.31h-1.3c-2-6.37-4.36-8.88-9.93-8.88-2.47,0-4.57.65-4.57,2.75v8.89c4.4-.1,6.3-.51,6.95-5.07l1.18,0v11.55h-1.18c-.65-4.51-2.55-4.93-6.95-5v11.05c0,1.34.89,1.84,3.44,1.84,5.61,0,10-1.26,11.82-9.33h1.28Z" transform="translate(-7.65 -8.76)"/></g><rect class="d" x="24.53" y="90.01" width="279.7" height="2.62"/><rect class="d" x="24.53" y="386.14" width="279.7" height="2.6"/><rect class="d" x="130.4" y="364.62" width="67.95" height="46.42"/><g class="e"><path class="b" d="M150.32,396.27c0,8.85,2.68,13.12,8.55,13.12s8.57-4.27,8.57-13.12-2.69-13.13-8.57-13.13-8.55,4.28-8.55,13.13m21.85,0c0,7.55-5.46,14.52-13.3,14.52s-13.29-7-13.29-14.52,5.46-14.52,13.29-14.52,13.3,7,13.3,14.52" transform="translate(-7.65 -8.76)"/><path class="b" d="M197.2,392.12c-1.19-5.71-3.71-8.5-9.76-8.5-4,0-4.8.74-4.8,2.69v8.58c4.4-.09,6-.49,7.38-5.22h1.15v11.86H190c-1.39-4.77-3-5.19-7.38-5.26v10c0,2,.77,2.69,4.48,2.69v1.39H174.73v-1.39c3.06,0,3.75-.73,3.75-2.69V386.31c0-1.95-.69-2.69-3.75-2.69v-1.37h23.49l.25,9.87Z" transform="translate(-7.65 -8.76)"/></g></svg>