<svg xmlns="http://www.w3.org/2000/svg" viewBox="0 0 1472 407"><defs><style>.a{fill:none;}.b{fill:#c82427;}.c{fill:#c82528;}</style></defs><title>mohawk</title><path class="a" d="M1043,269a9.21,9.21,0,0,1-.46-.95A2,2,0,0,0,1043,269Z" transform="translate(429 -193)"/><path class="b" d="M-342.27,578.84h105.5c12,0,11.76,0,12.05-11.8.1-4.21-1.08-5.16-5.21-5.14-37.66.17-75.33-.26-113,.2-40.25.49-68.93-32.68-69.13-68.13q-.58-108.24,0-216.49c.28-37.87,31.66-67.89,68.78-67.86q650.24.51,1300.47,0c37.8,0,68.73,31,68.86,68.86q.35,107.24,0,214.49c-.06,35.49-28.34,69.64-69.21,69.13-36.33-.46-72.66-.1-109-.1-12.18,0-12,0-12.2,12-.07,4.07,1.23,4.89,5,4.88,39.17-.14,78.33,0,117.5-.15a80.9,80.9,0,0,0,15.38-1.41c34.44-6.77,60.48-32.94,67.5-67.45.4-2,0-4.33,1.85-5.91V269a2,2,0,0,1-.46-.95c-1.32-3-1.24-6.29-2.11-9.38-9.89-35-31.71-57.4-68-64.65-.68-.14-1.28-.24-1.46-1H-357c-.84,1.83-2.62,1-3.94,1.29-37.58,9.13-58.91,33.59-66.9,70.7-.22,1.05.29,2.42-1.16,3V504c1.92,2.46,1.68,5.55,2.35,8.36C-416.95,552.61-383.7,578.83-342.27,578.84Z" transform="translate(429 -193)"/><path class="b" d="M266.08,599c21-4.91,33.52-21.11,33.16-42.66-.05-3.05-.83-4-3.93-4-10.49.18-21,.07-31.49.07-12.79,0-12.67,0-12.45,13,.06,3.24,1.17,3.89,4.09,3.8,6.4-.19,12.81-.06,19.64-.06-2,6.65-6.24,10.07-11.94,11.74-16.69,4.9-30.68-8.23-28.4-26.64,1.16-9.34,6.27-15.7,15.27-18.43s16.42-.3,22.2,7.09c.93,1.19,1.67,2.3,3.51,2.28,6.92-.1,13.84,0,21,0a23.56,23.56,0,0,0-4.17-9.55c-10.12-14.35-24.06-20.37-41.43-18.71A41,41,0,0,0,214.9,548a42.37,42.37,0,0,0,18.18,45.63c4.67,3,10,4.13,14.92,6.42h16C264.38,599,265.31,599.19,266.08,599Z" transform="translate(429 -193)"/><path class="b" d="M513,549.31c-3.63-18-18.36-30.61-38-32.59-20.94-2.11-40.66,12-44.84,32.13-4.64,22.3,7.27,42.91,28.44,49.35,1.49.46,3.37.21,4.43,1.8h16c4.25-2.1,9-2.69,13.25-5C508.59,585.94,516.78,568.07,513,549.31Zm-41.12,32.52c-12.29.07-21.95-10.24-22-23.5s9.36-23.53,21.84-23.49c12.12,0,21.41,10.15,21.47,23.37S483.78,581.77,471.88,581.83Z" transform="translate(429 -193)"/><path class="b" d="M393,598.78c14.14-4,23.76-12.88,28.85-26.68,1-2.82.91-4.26-2.77-4a106.37,106.37,0,0,1-13.48,0c-3-.18-4.7.69-6.31,3.4-5,8.31-13,11.73-21.57,9.73-12.38-2.88-20-16.68-16.21-29.86,2.35-8.25,7.35-14.28,16-16.11,7.74-1.63,15.41.1,19.45,7,3.76,6.36,8.39,7.34,14.61,6.66a50.41,50.41,0,0,1,5.5,0c6.51,0,6.51,0,4.05-6.22-7.39-18.6-26.16-28.81-46.95-25.53-17.91,2.83-32.64,18.7-34.13,36.79-1.69,20.45,9.91,38,29.16,44.23,1.31.43,3.06.2,3.79,1.89h17C390.53,598.48,392,599.07,393,598.78Z" transform="translate(429 -193)"/><path class="b" d="M753.17,599.11c14.06-2.86,24-10.89,29.86-24,3.09-6.94,3-7-4.72-7a38.1,38.1,0,0,1-4,0c-6.36-.63-12.2-.3-15.08,6.84-.4,1-1.57,1.7-2.47,2.42-13,10.32-30.81,1.89-33.55-15.86-1.56-10.15,4-21.06,12.72-25,8.51-3.81,18.61-2.1,23.62,5.83,3.79,6,8.21,7.07,14.26,6.47a38.26,38.26,0,0,1,7.49,0c3.79.37,4.11-1,3.05-4.3-5-15.47-18.83-26.14-36.65-27.9a41.57,41.57,0,0,0-44.59,33.16c-4.11,21.27,8.15,42,28.41,48.26,1.83.57,4,.35,5.48,1.9h14C751.48,599.11,752.39,599.27,753.17,599.11Z" transform="translate(429 -193)"/><path class="b" d="M-132.63,486.07c3.3,0,4.56-.59,4.55-4.28q-.16-104,0-207.94c0-2.87-.48-4.11-3.77-4.09q-33.74.21-67.48,0c-2.76,0-3.74,1.08-4.38,3.46-1.66,6.26-3.49,12.49-5.25,18.73q-16.2,57.3-32.39,114.6l-1,0c-.52-1.53-1.09-3-1.54-4.59q-18.54-63.66-37-127.37c-1.07-3.72-2.54-4.85-6.4-4.81-21.49.2-43,.16-64.48,0-3.32,0-4.54.62-4.54,4.29q.18,104,0,207.94c0,3.35,1,4.12,4.19,4.08,14.16-.16,28.33-.22,42.49,0,3.76.06,4.25-1.28,4.17-4.55-.3-12.32-.31-24.64-.45-37q-.57-49.69-1.15-99.41c-.06-5.62,0-11.26,0-16.89.78.3.94.57,1,.87q22,76.17,43.91,152.36c1,3.36,2.24,4.73,6,4.6,9-.33,18-.3,27,0,3.73.11,5.37-.77,6.48-4.68,11.38-40.13,23-80.18,34.62-120.26q4.66-16.12,9.35-32.25a13.44,13.44,0,0,1,.82,5.62q-.66,73.44-1.41,146.89c0,3.71.84,4.76,4.63,4.69C-160.63,485.85-146.63,485.9-132.63,486.07Z" transform="translate(429 -193)"/><path class="b" d="M789.39,269.86c-15.49,0-31,.11-46.48-.12-3.73-.06-5.06,1.09-5.79,4.66q-12,58.39-24.28,116.73c-1.18,5.57-1.76,11.34-4.19,17.29-.36-1.19-.53-1.65-.64-2.12q-14.94-66.17-29.78-132.37c-.75-3.39-2.07-4.21-5.27-4.16q-17,.25-34,0c-3.13,0-4.53.61-5.29,4.08-6.08,27.77-12.45,55.48-18.75,83.2Q609.28,382,603.58,407c-1.88-.65-1.45-2-1.66-3.07Q588.38,339.45,575,275c-.78-3.81-2-5.39-6.35-5.28-15.32.36-30.66.29-46,0-4.6-.07-5,1.14-3.91,5.33,7.25,27.31,14.21,54.69,21.26,82.05,10.66,41.38,21.38,82.74,31.89,124.15,1,3.79,2.38,4.91,6.26,4.83,13.66-.27,27.32-.21,41,0,3.32,0,4.44-1,5.17-4.25,5.82-25.95,11.89-51.85,17.91-77.76,4.32-18.61,8.68-37.21,13.23-56.72.68,2.32,1.17,3.73,1.51,5.17q15.18,64.56,30.28,129.15c.78,3.36,2,4.5,5.54,4.43,13.16-.25,26.33-.23,39.49,0,3.6.06,5-.94,6-4.55q19.66-75,39.67-149.94Q786,301,794,270.47C792.38,269.46,790.85,269.86,789.39,269.86Z" transform="translate(429 -193)"/><path class="b" d="M26.31,487.9c61.15-10.42,102.43-72.06,89.12-132.69C103.59,301.3,59.3,265.84,2.61,265.84A87.3,87.3,0,0,0-20,268c-42.18,9.49-71.84,33.84-84.65,75.48-13,42.26-5,81.08,26.36,113.09C-49.54,485.89-13.64,494.7,26.31,487.9ZM-44.34,341.08c12.57-20.56,32-29,55.78-26.14,23.64,2.88,38,17.55,46.39,38.85a61.16,61.16,0,0,1,4.47,24.5c-1.3,23.93-9.78,44.23-31.55,56.44C5.19,449.07-28,440.41-43.83,415.14-59,390.88-59.28,365.52-44.34,341.08Z" transform="translate(429 -193)"/><path class="b" d="M312.3,269.77c-15.33.15-30.66.21-46,0-4-.07-5,1.12-4.94,5,.18,23.66,0,47.32.19,71,0,4.19-1.21,5.24-5.31,5.2q-30.24-.31-60.49,0c-4.1.05-4.87-1.25-4.84-5,.16-24,0-48,.15-72,0-3.23-.81-4.2-4.12-4.16-15.32.17-30.66.23-46,0-4.11-.07-5.25.92-5.23,5.15.19,34.33.11,68.66.11,103,0,34.49,0,69-.09,103.48,0,3.6.67,4.82,4.57,4.75q23-.37,46,0c4.16.08,4.79-1.34,4.77-5-.15-25.66,0-51.33-.18-77,0-3.81,1-4.68,4.72-4.65q30.49.29,61,0c4-.05,5,1.21,4.93,5.06-.16,25.66,0,51.32-.15,77,0,3.27.51,4.65,4.26,4.59,15.66-.22,31.33-.17,47,0,3.13,0,4.28-.62,4.27-4.06q-.15-104,0-208C316.93,270.3,315.56,269.74,312.3,269.77Z" transform="translate(429 -193)"/><path class="b" d="M861,480.27c-.29-27-.13-54-.13-81v-6.12c1.95,3,3,4.58,4.09,6.22q26.43,41.47,52.83,83c1.38,2.17,2.52,3.79,5.7,3.76,21-.2,42-.1,64-.1-1.49-2.18-2.46-3.67-3.5-5.12q-36-49.8-72-99.55c-2.15-2.94-2.52-4.85-.31-8.11,15.18-22.49,30.08-45.16,45.06-67.78,7.68-11.61,15.34-23.24,23.08-35-2-1.07-3.63-.61-5.22-.62-15.83,0-31.67.08-47.5-.11-3.55,0-5.62.95-7.57,4.08q-27.31,43.57-55,86.91c-.89,1.4-1.37,3.27-3.59,4.16V359q0-42.24,0-84.49c0-2.49.6-4.84-3.55-4.79-16.16.23-32.33.15-48.49,0-2.67,0-3.64.92-3.35,3.47a23.16,23.16,0,0,1,0,2.5q0,102.24-.13,204.48c0,4.95,1.35,6,6.06,5.89q21.74-.5,43.49,0C859.51,486.21,861,485.31,861,480.27Z" transform="translate(429 -193)"/><path class="b" d="M458.65,273c-1-2.76-2.6-3.24-5.2-3.21-13,.11-26,.28-39-.09-4.21-.12-5.63,1.56-7,5.05q-23.31,59.43-46.89,118.76C348.46,424.1,336.35,454.68,324,486c19.49,0,38.32-.05,57.15.06,2.54,0,3.36-1.05,4-3.27,2.45-8.12,5.3-16.12,7.62-24.27.87-3,2.32-3.76,5.26-3.74q33.74.15,67.49,0c3.12,0,4.36,1.07,5.2,3.88,2.34,7.79,5.13,15.46,7.36,23.28,1,3.39,2.6,4.22,6,4.17,14.16-.21,28.33-.09,42.5-.09H540.1c-.46-1.28-.66-1.89-.89-2.49Q498.89,378.27,458.65,273Zm-50.8,137.7c3.83-12.46,7.55-24.64,11.32-36.81s7.5-24.11,11.76-37.76l24,74.57Z" transform="translate(429 -193)"/><path class="c" d="M840.69,549.6c38.84-.09,77.67,0,116.5-.1a62.1,62.1,0,0,0,12.41-1.13c25.26-5.26,44.11-28.54,44.18-55.26.17-71.49.37-143-.09-214.49-.2-31.11-24.6-56.66-56.89-56.62q-325,.47-650,.16-325.5,0-651,0a54.5,54.5,0,0,0-12.88,1.4c-25,6-42.75,29.38-42.76,56.47,0,70.17.12,140.34-.07,210.5-.08,29.11,20.8,60.14,59.11,59.17,27.65-.7,55.33-.14,83-.14,9.67,0,19.34-.09,29,.06,2.94,0,3.89-.66,4.11-3.83.32-4.48-1.79-4.67-5.27-4.67-37.33.1-74.68-.52-112,.25-29.36.6-49.41-23.43-49.46-48.61q-.19-107,0-214a48.74,48.74,0,0,1,49.09-48.41q649.26.46,1298.5,0a48.72,48.72,0,0,1,49.18,48.31q.33,107,0,214c0,25.3-20.14,49.28-49.36,48.71-38.49-.74-77-.16-115.5-.22-3,0-4.85,0-4.9,4S837.36,549.61,840.69,549.6Z" transform="translate(429 -193)"/><path class="b" d="M200,518a108.8,108.8,0,0,1-12,0c-4-.33-5.3.62-5.17,5.06.4,13.8.15,27.61.15,43-8.2-13-16.32-24.42-22.78-36.69-4.84-9.21-10.91-13-21.1-11.49-3.4.49-4.35,1.11-4.32,4.54.15,21.65.08,43.3.08,64.95,0,11.23,0,11.23,11,11.23,9.55,0,9.25,0,9-9.79-.32-12.2-.08-24.41-.08-36.63,1.61.9,2.19,2.71,3.14,4.19,8.23,12.9,16.48,25.79,24.54,38.8,1.6,2.59,3.36,3.7,6.39,3.49,3.65-.25,7.33-.11,11-.05,2,0,3-.5,3-2.8q-.09-37.47,0-75C202.88,518.59,202.07,517.91,200,518Z" transform="translate(429 -193)"/><path class="b" d="M690.36,519c-2.89-3.23-9.71-.63-14.8-1.07-3.29-.28-4.44.44-4.34,4.3.37,14.19.15,28.4.15,43.21-1.21-1.75-2.17-3.05-3-4.41q-10-15.83-19.92-31.67c-7.6-12-7.62-12-21.88-11.46-2.53.09-3.44.68-3.43,3.36q.14,37,0,74c0,2.77,1.11,3.4,3.56,3.32a86.21,86.21,0,0,1,11.48,0c4.36.45,5.18-1.32,5.11-5.32-.25-13.59-.1-27.18-.1-42.14,8.18,12.9,16.34,24.32,22.9,36.59,4.75,8.86,10.63,12.41,20.46,11,3.48-.51,4.78-.9,4.74-4.76-.21-20.15-.08-40.3-.11-60.45C691.14,528.54,692.88,521.85,690.36,519Z" transform="translate(429 -193)"/><path class="b" d="M-106.33,517.93a134.88,134.88,0,0,1-13.49,0c-2.61-.11-3.46.68-3.4,3.34.16,7.83,0,15.66.11,23.49,0,2.61-.79,3.49-3.41,3.43-6.16-.15-12.33-.2-18.49,0-3.16.11-4.35-.68-4.23-4.08.25-7.49,0-15,.13-22.49.06-2.75-.63-3.87-3.58-3.72-4.65.23-9.33.2-14,0-2.6-.11-3.39.66-3.38,3.33q.15,37,0,74c0,2.71.94,3.43,3.46,3.33,4.33-.16,8.68-.24,13,0,3.44.21,4.65-.83,4.53-4.42-.26-8,0-16-.14-24-.05-2.78.76-3.79,3.63-3.71,6.33.19,12.67.15,19,0,2.55,0,3.58.78,3.47,3.43-.17,4.16-.2,8.34,0,12.5.25,5.24-2.4,12.42,1.09,15.2,3.31,2.63,10.2.62,15.49,1,3.42.23,4.19-1.12,4.15-4.3-.17-12-.07-24-.07-36,0-12.16-.1-24.33.07-36.49C-102.35,518.72-103.25,517.76-106.33,517.93Z" transform="translate(429 -193)"/><path class="b" d="M14.34,520.54a3.44,3.44,0,0,0-3.56-2.6c-15.08-1-15.08-1-20.48,13-.6,1.55-1.16,3.11-1.78,4.65-7.77,19.62-15.49,39.25-23.37,58.82-1.23,3.08-1.33,4.54,2.65,4.22,3.31-.28,6.66-.06,10-.06,8.24,0,8.38,0,10.74-7.71.86-2.82,2-4.05,5.13-3.92,6.81.28,13.66.28,20.48,0,2.95-.12,4,1,4.79,3.62,2.52,8,2.61,8,11,8h2.5c2.83,0,5.67-.12,8.49,0,2.65.15,3.1-.63,2.14-3.11Q28.61,558,14.34,520.54Zm-5.11,50c-3.81-.07-7.62-.13-11.42,0-2.63.11-2.55-1-1.93-3,2.44-7.7,4.78-15.43,7.59-24.58,2.9,9.07,5.33,16.94,8,24.74C12.3,570.29,11.3,570.6,9.23,570.57Z" transform="translate(429 -193)"/><path class="b" d="M-60.62,536.13a19.82,19.82,0,0,0,4.49,0c4.59-.31,10.87,2.06,13.31-1,2.31-2.85.5-8.9.89-13.51.28-3.33-1.13-3.77-4-3.74-12.5.14-25,.25-37.49-.05-4-.09-4.56,1.4-4.5,4.87.19,11.82.07,23.65.07,35.48,0,12.17,0,24.33,0,36.49,0,2.18,0,3.87,3,3.85,13.33-.1,26.66-.07,40,0,2.11,0,3-.66,2.9-2.86-.14-4-.21-8,0-12,.16-2.91-.9-3.7-3.69-3.61-6,.19-12-.05-18,.1-2.54.07-3.38-.6-3.46-3.3-.27-10.08-.38-10.07,9.63-10.07h.5c15,0,14.91,0,14.19-15.12-.13-2.73-1.1-3.37-3.56-3.3-4.83.14-9.69-.28-14.49.13s-6.48-.8-6.42-6.08S-65.76,535.29-60.62,536.13Z" transform="translate(429 -193)"/><path class="b" d="M87.91,517.91c-14,.22-28,.35-42,0-5-.14-6.47,1.38-5.8,6.08.56,3.9-1.68,8.95.93,11.52,2.37,2.32,7.32.75,11.11.62,3.1-.11,4,.85,3.91,3.92-.2,9-.07,18-.07,27,0,5.16,0,10.33,0,15.5s-1.81,12.1.8,15c3,3.32,10.07.6,15.33,1.1,3.65.35,4.86-.78,4.79-4.65-.24-15-.16-30-.05-45,0-4.1-1.77-9.23.85-12,2.24-2.38,7.27-.51,11.06-.75a2.78,2.78,0,0,1,.5,0c2.11.26,3-.56,2.91-2.79a91.57,91.57,0,0,1,0-11C92.51,518.94,91.5,517.86,87.91,517.91Z" transform="translate(429 -193)"/><path class="b" d="M119.06,518.85c-3.36-2.71-10.48-.75-15.94-.85a4.17,4.17,0,0,1-.5,0c-2.32-.31-3.21.57-3.2,3q.1,37.18,0,74.35c0,2.36.79,3.27,3.17,3.2,4.49-.12,9-.22,13.47,0,3.3.19,4.22-.93,4.17-4.21-.19-12.13-.07-24.28-.07-36.42,0-7.82.15-15.64-.06-23.45C120,529.11,122.58,521.7,119.06,518.85Z" transform="translate(429 -193)"/><path class="b" d="M604.44,517.93a127.9,127.9,0,0,1-13,0c-2.41-.09-3.53.35-3.51,3.19q.16,37,0,74c0,2.57.68,3.56,3.35,3.45,4.49-.18,9-.24,13.49,0,3.38.19,4.16-1.13,4.12-4.31-.18-12-.07-24-.07-36s-.15-24,.08-36C609,518.71,607.89,517.7,604.44,517.93Z" transform="translate(429 -193)"/><path class="c" d="M530.68,579.83h-.5c-9.18,0-9.18,0-9.18,9.39s0,9.32,9.32,9.32c9.68,0,9.68,0,9.68-9.45C540,579.83,540,579.83,530.68,579.83Z" transform="translate(429 -193)"/></svg>