<svg xmlns="http://www.w3.org/2000/svg" viewBox="0 0 344 92.7"><defs><style>.a{fill:#231f20;}.b{fill:none;stroke:#231f20;stroke-miterlimit:10;stroke-width:1.44px;}.c{fill:#d92632;}</style></defs><title>fncu</title><path d="M430,425.88V411.94h-1.73v10.89l-8-10.89h-1.78v13.94h1.74V414.76l8.13,11.12Zm-21.17-1.29c-3.14,0-5.12-2.43-5.12-5.67s2-5.66,5.12-5.66,5.14,2.4,5.14,5.66S412,424.59,408.84,424.59Zm0,1.54c4.12,0,6.94-3.09,6.94-7.21s-2.82-7.21-6.94-7.21-6.92,3.09-6.92,7.21S404.72,426.13,408.84,426.13Zm-9.62-.25V411.94h-1.73v13.94Zm-5,0V411.94h-1.74v10.89l-8-10.89h-1.78v13.94h1.74V414.76l8.13,11.12Zm-20.5.25c3.78,0,5.7-2.21,5.7-5.68v-8.51h-1.75v8.49c0,2.55-1.38,4.16-3.95,4.16s-3.93-1.61-3.93-4.16v-8.49H368v8.53C368,423.9,370,426.13,373.73,426.13Zm-17.83-.25V413.49h4.43v-1.55H349.75v1.55h4.41v12.39Zm-8.45,0V411.94h-1.73v13.94Zm-11.6-1.55h-3V413.49h3a5.42,5.42,0,0,1,0,10.84Zm0,1.55a7,7,0,1,0,0-13.94h-4.76v13.94Zm-7.52,0v-1.55h-7.4v-4.8h7.25V418h-7.25v-4.49h7.4v-1.55h-9.14v13.94Zm-16.47-7.06H308.2v-5.33h3.66a2.59,2.59,0,0,1,2.8,2.65A2.63,2.63,0,0,1,311.86,418.82Zm4.72,7.06-3.76-5.68a3.88,3.88,0,0,0,3.64-4.06,4.08,4.08,0,0,0-4.39-4.2h-5.6v13.94h1.73v-5.54H311l3.54,5.54Zm-17.64.25a6.27,6.27,0,0,0,5.31-2.78l-1.46-.79a4.76,4.76,0,0,1-3.85,2,5.67,5.67,0,0,1,0-11.33,4.7,4.7,0,0,1,3.85,2l1.44-.81a6.19,6.19,0,0,0-5.29-2.76,7.21,7.21,0,0,0,0,14.42Z" transform="translate(-130.39 -333.43)"/><path class="a" d="M292.12,365.88V333.43h23v6.08H299v6.86h15.72v6.09H299v13.42Z" transform="translate(-130.39 -333.43)"/><path class="a" d="M319.24,341.08a3.12,3.12,0,1,1,3.12,3.12A3.14,3.14,0,0,1,319.24,341.08Zm.53,25.07V346.33H325v19.82Z" transform="translate(-130.39 -333.43)"/><path class="a" d="M330.15,366.15V346.33h5.21V349a8.51,8.51,0,0,1,6.32-3.2v5.08a7.06,7.06,0,0,0-1.43-.12,6.67,6.67,0,0,0-4.89,2.26v13.09Z" transform="translate(-130.39 -333.43)"/><path class="a" d="M343.2,363.56l2.26-3.65a11.35,11.35,0,0,0,6.85,2.71c2.26,0,3.32-.91,3.32-2.14,0-3.28-11.77-.61-11.77-8.41,0-3.32,2.91-6.23,8.12-6.23a12.7,12.7,0,0,1,8,2.7l-2.09,3.57a8.37,8.37,0,0,0-5.87-2.29c-1.88,0-3.12.86-3.12,2,0,2.95,11.74.49,11.74,8.49,0,3.61-3.08,6.36-8.58,6.36A13.33,13.33,0,0,1,343.2,363.56Z" transform="translate(-130.39 -333.43)"/><path class="a" d="M365.52,361.22V350.88h-3.28v-4.55h3.28v-5.42h5.25v5.42h4v4.55h-4v8.95c0,1.23.66,2.17,1.81,2.17a2.86,2.86,0,0,0,1.8-.57l1.11,3.94a6.47,6.47,0,0,1-4.35,1.27C367.49,366.64,365.52,364.75,365.52,361.22Z" transform="translate(-130.39 -333.43)"/><path class="a" d="M314.5,405.28,299,384.12v21.16h-6.91V372.83h7.1l15,20.39V372.83h6.91v32.45Z" transform="translate(-130.39 -333.43)"/><path class="a" d="M325.82,394.69A10.43,10.43,0,0,1,336.42,384c6.11,0,10.27,4.58,10.27,11.29v1.18H331.46c.34,2.59,2.42,4.76,5.9,4.76a8.75,8.75,0,0,0,5.47-2l2.37,3.48a12.74,12.74,0,0,1-8.44,2.84C330.53,405.46,325.82,401.26,325.82,394.69Zm10.6-6.45a4.91,4.91,0,0,0-5,4.54h10.09A4.75,4.75,0,0,0,336.42,388.24Z" transform="translate(-130.39 -333.43)"/><path class="a" d="M350.59,405V376.66H356v10.43A7.88,7.88,0,0,1,362.3,384c5.22,0,9.08,4.08,9.08,10.78s-3.9,10.73-9.08,10.73a7.94,7.94,0,0,1-6.32-3.14V405Zm10-4.28c3.13,0,5.21-2.38,5.21-5.94s-2.08-6-5.21-6a5.94,5.94,0,0,0-4.63,2.37v7.26A6,6,0,0,0,360.61,400.67Z" transform="translate(-130.39 -333.43)"/><path class="a" d="M375.46,405V384.46h5.38v2.8a8.84,8.84,0,0,1,6.54-3.31v5.26a7.72,7.72,0,0,0-1.49-.12,6.85,6.85,0,0,0-5.05,2.33V405Z" transform="translate(-130.39 -333.43)"/><path class="a" d="M403,405v-2.12a8.46,8.46,0,0,1-6.49,2.63c-3.27,0-7.13-2.21-7.13-6.79,0-4.79,3.86-6.61,7.13-6.61a8.44,8.44,0,0,1,6.49,2.5V391.8c0-2.08-1.78-3.43-4.5-3.43a8.63,8.63,0,0,0-6,2.41l-2-3.6a13.41,13.41,0,0,1,9-3.23c4.66,0,8.95,1.87,8.95,7.77V405Zm0-4.92v-2.54a5.39,5.39,0,0,0-4.33-1.79c-2.12,0-3.86,1.11-3.86,3.1s1.74,3,3.86,3A5.38,5.38,0,0,0,403,400Z" transform="translate(-130.39 -333.43)"/><path class="a" d="M412,402.28l2.34-3.78a11.72,11.72,0,0,0,7.08,2.8c2.33,0,3.44-.93,3.44-2.2,0-3.4-12.18-.64-12.18-8.7,0-3.43,3-6.45,8.4-6.45a13.08,13.08,0,0,1,8.27,2.8l-2.16,3.69a8.66,8.66,0,0,0-6.07-2.37c-2,0-3.22.89-3.22,2,0,3.06,12.13.51,12.13,8.79,0,3.73-3.18,6.57-8.86,6.57A13.83,13.83,0,0,1,412,402.28Z" transform="translate(-130.39 -333.43)"/><path class="a" d="M447.28,405l-5.43-7.89-2.46,2.63V405H434V376.66h5.39v16.92l7.76-9.12h6.62l-8.1,9.29L454,405Z" transform="translate(-130.39 -333.43)"/><path class="a" d="M469,405v-2.12a8.46,8.46,0,0,1-6.49,2.63c-3.27,0-7.13-2.21-7.13-6.79,0-4.79,3.86-6.61,7.13-6.61a8.44,8.44,0,0,1,6.49,2.5V391.8c0-2.08-1.78-3.43-4.5-3.43a8.63,8.63,0,0,0-6,2.41l-2-3.6a13.41,13.41,0,0,1,8.95-3.23c4.66,0,8.95,1.87,8.95,7.77V405Zm0-4.92v-2.54a5.39,5.39,0,0,0-4.33-1.79c-2.12,0-3.86,1.11-3.86,3.1s1.74,3,3.86,3A5.38,5.38,0,0,0,469,400Z" transform="translate(-130.39 -333.43)"/><line class="b" x1="151.61" x2="151.61" y2="92.06"/><path class="c" d="M249.63,364.79c-14.09,16.72-88.19,38.15-88.19,38.15l0-13.8h-31l0-42.3,85.22,0a2.36,2.36,0,0,1,.4.72,1,1,0,0,0,.36.54c.09.12.71,0,.82.07s.36.18.53.3.4,0,.52.12.21.2.4.38.3.18.61.2.45,0,.5,0,.26.06.42.24a1.65,1.65,0,0,0,.59.32c.15.06.52-.18.64-.18s.17.06.2.22.42.4.51.66.35.26.42.34.31,0,.45.14.45.22.6.3.47-.1.77-.1a1.77,1.77,0,0,0,.95-.2,1.9,1.9,0,0,0,.35-.4c0-.1-.07-.24.08-.54s.21-.22.23-.36a.52.52,0,0,1,.34-.38c.16,0,.28-.24.49-.14s.16.3.5.36.63.06.77.08a2.66,2.66,0,0,0,.73,0c.34,0,.32.12.57.12s.29-.2.53-.26.51-.22.61-.22.29.1.54.16.26.18.62.06.42-.18.64-.16.4.08.64.1.07.26.22,0,.18-.34.37-.34.3.08.51.08.31-.1.61,0,.29,0,.48-.06.19-.18.33-.18.36.2.5.32.11,0,.35,0,.36-.08.38.06.24,0,.24.24-.09.42,0,.56.14,0,.36,0,.63-.11.66,0,.19.12.33.28.07.32.31.35a1.84,1.84,0,0,0,.63,0c.18-.05.21-.28.28-.22a.85.85,0,0,0,.4.17c.15,0,.2,0,.27.1s.07.15.37.15.55,0,.55.07a3.39,3.39,0,0,1,.09.54c0,.22.2.18.27.14s.12-.24.25-.24.26-.16.45-.16.12.14.26.22.47-.08.47.06.36.24.36.24.45,0,.52.08a5.5,5.5,0,0,1,.21.58c0,.16.22.2.41.2s.13-.12.47-.14a1,1,0,0,1,.61.08c.12.08.51.22.55.34s-.24.14-.31.22-.17.09-.26.24,0,.24.16.42a3.25,3.25,0,0,0,.42.49c.15.08.34,0,.38.16s.27.1.27.28a1.51,1.51,0,0,0,.14.6c.09.24.23.36.33.36a.65.65,0,0,0,.45-.12c.18-.14.1-.34.36-.36s.39-.1.39.08.19.24.27.3a2.55,2.55,0,0,1,.27.39.52.52,0,0,0,.41.13,2.3,2.3,0,0,0,.57-.2,1.54,1.54,0,0,1,.82-.06c.17.08.17.21.36.32a.27.27,0,0,1,.14.36.93.93,0,0,1-.27.45,1.58,1.58,0,0,0-.3.48l1.28.58A10.15,10.15,0,0,1,249.63,364.79Z" transform="translate(-130.39 -333.43)"/><path class="c" d="M257.12,381.54c.23-.16.25-.26.35-.28a.42.42,0,0,0,.23-.41c0-.22,0-.32.27-.4s.3.13.51.31a.26.26,0,0,1,0,.46c-.14.08-.3.22-.3.38s.09.14.24.26a.46.46,0,0,0,.42.18.59.59,0,0,0,.4-.14.83.83,0,0,1,.38.16c.12.12.12.24.12.46s-.12.47-.12.68a2.25,2.25,0,0,0,0,.45c0,.26-.07.32-.29.44s-.23.16-.21.24.16,0,.23.16.13.22.46.22.35.08.42.16.29.32.15.4a.51.51,0,0,0-.34.38c-.07.27-.23.34,0,.54s0,.21,0,.35-.21.22-.21.42a.37.37,0,0,0,.25.4,6.12,6.12,0,0,0,.69.06c.26,0,.45.24.23.24s-.11.16-.23.28a.25.25,0,0,0,0,.36.8.8,0,0,1,.17.33.81.81,0,0,1,.06.44.88.88,0,0,1-.11.5c-.08.18-.19.14-.15.34s.1.18.25.34.34,0,.34.18-.18.08-.23.28-.07.26.09.3.38-.08.41.06a2.75,2.75,0,0,1,.09.45c0,.18-.14.23-.12.5s-.21.3.15.46.47.2.47.32.16.18,0,.32-.61.14-.68.28-.17.08-.1.27.34.18.35.32a1.29,1.29,0,0,1,0,.45c0,.23.16.27.14.53a.47.47,0,0,1-.28.46c-.22.14-.56.14-.61.32a1,1,0,0,0-.05.44c0,.12.14,0,.3.17s.36.09.41.26a3.21,3.21,0,0,0,.16.38c.09.2,0,.38.34.38s.61-.06.75.16-.07.36.19.44.56.2.56.36-.2.26-.38.44a.55.55,0,0,0-.16.52c0,.27.05.61.22.67a1.44,1.44,0,0,0,.51,0,1.7,1.7,0,0,0,.6-.22c.14-.1-.1-.1,0-.27s.2-.19.43-.18.25.1.41.29-.11.38-.23.48-.47.22-.47.44-.2.24-.05.48a.7.7,0,0,0,.45.38c.12,0,.33,0,.38.14s0,.18,0,.38-.06.41.07.57.28.24.3.46-.05.2.07.36.07.52-.21.54-.29.23-.26.28.16,0,.5,0a2.17,2.17,0,0,1,.73.13c.18.05.45,0,.57.11a.69.69,0,0,1,.16.4c0,.15-.26.11-.26.23s.26.16.54.18.43-.08.6,0,.31.06.43.16a.5.5,0,0,1,.22.38c0,.18-.18.18-.25.34s-.15.2,0,.37.19.05.36.27.14.31.38.33.31,0,.35.21.14.19.31.35a.63.63,0,0,1,.21.52c0,.18-.33.12-.33.32s-.07.22-.19.4.12.34.12.46.47.29.66.2.73.33,1,.33c0,0,.45,3.06,0,3.29s-110,0-110,0v-4.73S218.22,408.41,257.12,381.54Z" transform="translate(-130.39 -333.43)"/><polygon points="25.59 72.51 16.02 71.95 13.06 62.84 9.58 71.76 0 71.77 7.41 77.84 4.45 86.95 12.52 81.79 20.27 87.41 17.84 78.14 25.59 72.51 25.59 72.51"/><path d="M261.56,355.79s1.71-18.92-42.24-15.26c0,0,34-10.49,49.68,3.27s-18.88,35.77-18.88,35.77S230.77,398.35,161.63,406c0,0,93.8-19.25,99.93-50.25" transform="translate(-130.39 -333.43)"/><path d="M257.31,347.12s7.58,5.55,1.1,15.86,11.39-9.14,11.39-9.14S259.5,340.49,257.31,347.12Z" transform="translate(-130.39 -333.43)"/><path d="M202.6,399.1s40.44-6.91,62.84-32.41" transform="translate(-130.39 -333.43)"/></svg>