<svg id="Layer_1" data-name="Layer 1" xmlns="http://www.w3.org/2000/svg" xmlns:xlink="http://www.w3.org/1999/xlink" viewBox="0 0 287.7 140.59"><defs><style>.cls-1{fill:#d1d3d4;}.cls-2{fill:url(#radial-gradient);}.cls-3{fill:url(#linear-gradient);}.cls-4{fill:url(#linear-gradient-2);}.cls-5{fill:url(#linear-gradient-3);}.cls-6{fill:url(#linear-gradient-4);}.cls-7{fill:url(#linear-gradient-5);}.cls-8{fill:url(#linear-gradient-6);}.cls-9{fill:url(#linear-gradient-7);}.cls-10{fill:url(#linear-gradient-8);}.cls-11{fill:url(#linear-gradient-9);}.cls-12{fill:url(#linear-gradient-10);}.cls-13{fill:url(#linear-gradient-11);}.cls-14{fill:url(#linear-gradient-12);}.cls-15{fill:url(#linear-gradient-13);}.cls-16{fill:url(#linear-gradient-14);}.cls-17{fill:url(#linear-gradient-15);}.cls-18{fill:url(#linear-gradient-16);}.cls-19{fill:url(#linear-gradient-17);}.cls-20{fill:url(#linear-gradient-18);}.cls-21{fill:url(#linear-gradient-19);}.cls-22{fill:url(#linear-gradient-20);}.cls-23{fill:url(#linear-gradient-21);}.cls-24{fill:url(#linear-gradient-22);}.cls-25{fill:url(#linear-gradient-23);}.cls-26{fill:url(#linear-gradient-24);}.cls-27{fill:#58595b;}.cls-28{fill:url(#linear-gradient-25);}.cls-29{fill:url(#linear-gradient-26);}.cls-30{fill:url(#linear-gradient-27);}.cls-31{fill:url(#linear-gradient-28);}.cls-32{fill:url(#linear-gradient-29);}.cls-33{fill:#fff;}</style><radialGradient id="radial-gradient" cx="365.8" cy="1293.83" r="389.26" gradientTransform="translate(-390.89 -1394.91) scale(1.58 1.54)" gradientUnits="userSpaceOnUse"><stop offset="0" stop-color="#00000d"/><stop offset="0.22" stop-color="#000012"/><stop offset="0.48" stop-color="#000021"/><stop offset="0.7" stop-color="#003"/><stop offset="0.9" stop-color="#004282"/><stop offset="0.91" stop-color="#055493"/><stop offset="0.93" stop-color="#1180bc"/><stop offset="0.95" stop-color="#199cd5"/><stop offset="0.95" stop-color="#1ca6df"/></radialGradient><linearGradient id="linear-gradient" x1="190.26" y1="2238.46" x2="190.26" y2="2083.13" gradientTransform="translate(55.62 -1447.23) scale(0.7)" gradientUnits="userSpaceOnUse"><stop offset="0" stop-color="#00053d"/><stop offset="0.23" stop-color="#000841"/><stop offset="0.44" stop-color="#00114b"/><stop offset="0.63" stop-color="#00205d"/><stop offset="0.81" stop-color="#003475"/><stop offset="0.86" stop-color="#004484"/><stop offset="1" stop-color="#006da9"/></linearGradient><linearGradient id="linear-gradient-2" x1="192.77" y1="2238.47" x2="192.77" y2="2083.13" xlink:href="#linear-gradient"/><linearGradient id="linear-gradient-3" x1="225.37" y1="2208.14" x2="225.37" y2="2098.93" gradientTransform="translate(55.63 -1444.37) scale(0.7)" xlink:href="#linear-gradient"/><linearGradient id="linear-gradient-4" x1="271.4" y1="2208.06" x2="271.4" y2="2099.13" gradientTransform="translate(55.63 -1444.37) scale(0.7)" xlink:href="#linear-gradient"/><linearGradient id="linear-gradient-5" x1="278.07" y1="2208.06" x2="278.07" y2="2099.16" gradientTransform="translate(55.63 -1444.37) scale(0.7)" xlink:href="#linear-gradient"/><linearGradient id="linear-gradient-6" x1="217.97" y1="2208.08" x2="217.97" y2="2099.13" gradientTransform="translate(55.63 -1444.37) scale(0.7)" xlink:href="#linear-gradient"/><linearGradient id="linear-gradient-7" x1="310.4" y1="2133.92" x2="310.4" y2="2133.9" gradientTransform="translate(55.63 -1444.37) scale(0.7)" xlink:href="#linear-gradient"/><linearGradient id="linear-gradient-8" x1="261.19" y1="2208.11" x2="261.19" y2="2098.96" gradientTransform="translate(55.63 -1444.37) scale(0.7)" xlink:href="#linear-gradient"/><linearGradient id="linear-gradient-9" x1="166.96" y1="2208.04" x2="166.96" y2="2099.19" gradientTransform="translate(55.63 -1444.37) scale(0.7)" xlink:href="#linear-gradient"/><linearGradient id="linear-gradient-10" x1="214.04" y1="2208.05" x2="214.04" y2="2099.07" gradientTransform="translate(55.63 -1444.37) scale(0.7)" xlink:href="#linear-gradient"/><linearGradient id="linear-gradient-11" x1="271.59" y1="2208.32" x2="271.59" y2="2098.41" gradientTransform="translate(55.63 -1444.37) scale(0.7)" xlink:href="#linear-gradient"/><linearGradient id="linear-gradient-12" x1="234.68" y1="2208.39" x2="234.68" y2="2098.75" gradientTransform="translate(55.63 -1444.37) scale(0.7)" xlink:href="#linear-gradient"/><linearGradient id="linear-gradient-13" x1="294.05" y1="2208.05" x2="294.05" y2="2099.16" gradientTransform="translate(55.63 -1444.37) scale(0.7)" xlink:href="#linear-gradient"/><linearGradient id="linear-gradient-14" x1="188.92" y1="2208.09" x2="188.92" y2="2099.13" gradientTransform="translate(55.63 -1444.37) scale(0.7)" xlink:href="#linear-gradient"/><linearGradient id="linear-gradient-15" x1="171.89" y1="2208.07" x2="171.89" y2="2099.13" gradientTransform="translate(55.63 -1444.37) scale(0.7)" xlink:href="#linear-gradient"/><linearGradient id="linear-gradient-16" x1="89.78" y1="2208.04" x2="89.78" y2="2099.19" gradientTransform="translate(55.63 -1444.37) scale(0.7)" xlink:href="#linear-gradient"/><linearGradient id="linear-gradient-17" x1="138.52" y1="2208.73" x2="138.52" y2="2098.83" gradientTransform="translate(55.63 -1444.37) scale(0.7)" xlink:href="#linear-gradient"/><linearGradient id="linear-gradient-18" x1="124.32" y1="2208.06" x2="124.32" y2="2099.11" gradientTransform="translate(55.63 -1444.37) scale(0.7)" xlink:href="#linear-gradient"/><linearGradient id="linear-gradient-19" x1="126.91" y1="2208.28" x2="126.91" y2="2098.97" gradientTransform="translate(55.63 -1444.37) scale(0.7)" xlink:href="#linear-gradient"/><linearGradient id="linear-gradient-20" x1="249.8" y1="2204.66" x2="249.8" y2="2099.63" gradientTransform="translate(55.63 -1444.37) scale(0.7)" xlink:href="#linear-gradient"/><linearGradient id="linear-gradient-21" x1="201" y1="2208.02" x2="201" y2="2099.18" gradientTransform="translate(55.63 -1444.37) scale(0.7)" xlink:href="#linear-gradient"/><linearGradient id="linear-gradient-22" x1="172.74" y1="2208.23" x2="172.74" y2="2099.07" gradientTransform="translate(55.63 -1444.37) scale(0.7)" xlink:href="#linear-gradient"/><linearGradient id="linear-gradient-23" x1="176.23" y1="2208.04" x2="176.23" y2="2099.17" gradientTransform="translate(55.63 -1444.37) scale(0.7)" xlink:href="#linear-gradient"/><linearGradient id="linear-gradient-24" x1="116.55" y1="2208.07" x2="116.55" y2="2099.16" gradientTransform="translate(55.63 -1444.37) scale(0.7)" xlink:href="#linear-gradient"/><linearGradient id="linear-gradient-25" x1="157.68" y1="144.12" x2="124.69" y2="21" gradientUnits="userSpaceOnUse"><stop offset="0" stop-color="#b1b3b6"/><stop offset="0.35" stop-color="#dcddde"/><stop offset="0.65" stop-color="#dcddde"/><stop offset="1" stop-color="#b1b3b6"/></linearGradient><linearGradient id="linear-gradient-26" x1="244.44" y1="76.71" x2="211.6" y2="-45.85" xlink:href="#linear-gradient-25"/><linearGradient id="linear-gradient-27" x1="190.58" y1="2082.11" x2="190.58" y2="2238.24" gradientTransform="translate(55.62 -1447.23) scale(0.7)" gradientUnits="userSpaceOnUse"><stop offset="0" stop-color="#fff"/><stop offset="0.53" stop-color="#fdfdfd"/><stop offset="0.69" stop-color="#f8f8f8"/><stop offset="0.8" stop-color="#d1d3d4"/><stop offset="1" stop-color="#bcbec0"/></linearGradient><linearGradient id="linear-gradient-28" x1="222.54" y1="2127.94" x2="222.54" y2="2205.63" gradientTransform="translate(55.62 -1444.39) scale(0.7)" gradientUnits="userSpaceOnUse"><stop offset="0" stop-color="#fff"/><stop offset="0.43" stop-color="#fdfdfd"/><stop offset="0.59" stop-color="#f6f6f7"/><stop offset="0.69" stop-color="#ececed"/><stop offset="0.8" stop-color="#e6e7e8"/><stop offset="1" stop-color="#d1d3d4"/></linearGradient><linearGradient id="linear-gradient-29" x1="160.93" y1="2098.21" x2="160.93" y2="2205.92" xlink:href="#linear-gradient-28"/></defs><title>midwest_ford</title><path class="cls-1" d="M189,11.52C109.84,11.52,46.37,35.26,46.37,65c0,29.58,64,53.5,142.67,53.5S331.7,94.52,331.7,65,267.7,11.52,189,11.52Zm141.8,49.37c.05.26.09.51.13.78C330.92,61.4,330.87,61.14,330.83,60.89Z" transform="translate(-44.56 -11.52)"/><path class="cls-2" d="M189,13.66C111.42,13.66,48.55,36.6,48.55,65S111.42,116.31,189,116.31,329.51,93.37,329.51,65,266.66,13.66,189,13.66Z" transform="translate(-44.56 -11.52)"/><path class="cls-3" d="M59.78,67c0-23.49,58.16-42.54,129.9-42.54,66,0,120.48,16.12,128.79,37-5.54-22-61.37-39.21-129.44-39.21C117.28,22.21,59.13,41.37,59.13,65a15.18,15.18,0,0,0,1.13,5.68A14.69,14.69,0,0,1,59.78,67Z" transform="translate(-44.56 -11.52)"/><path class="cls-4" d="M322.77,59.65a16.89,16.89,0,0,1,.87,5.36c0,25.88-60.27,46.85-134.62,46.85-66.16,0-121.18-16.62-132.49-38.5,8.61,22.8,65.08,40.39,133.46,40.39,74.34,0,134.6-20.79,134.6-46.46A17.54,17.54,0,0,0,322.77,59.65Z" transform="translate(-44.56 -11.52)"/><path class="cls-5" d="M214.1,69.54c-3,3.14-3.24,7.2-1.26,9a3.69,3.69,0,0,0,2.38,1,6.72,6.72,0,0,1-.29-7.37,4.26,4.26,0,0,1-.18-2.43C214.8,69.48,214.42,69.21,214.1,69.54Z" transform="translate(-44.56 -11.52)"/><path class="cls-6" d="M245.23,76.35a.44.44,0,0,1,0-.14v0c0,.48.17,1.37.27,2,.16-.3.31-.62.48-1s.06-.33,0-.38C245.58,76.84,245.27,76.59,245.23,76.35Z" transform="translate(-44.56 -11.52)"/><path class="cls-7" d="M250.63,69.17c0,.51.43.57.74.12l.29-.45-.27-.35A27.66,27.66,0,0,0,248.89,66,5.39,5.39,0,0,1,250.63,69.17Z" transform="translate(-44.56 -11.52)"/><path class="cls-8" d="M208.88,68.81l.41-.55A13.38,13.38,0,0,0,207.13,64a7.5,7.5,0,0,1,1.13,4.7C208.25,69.21,208.63,69.17,208.88,68.81Z" transform="translate(-44.56 -11.52)"/><path class="cls-9" d="M272.91,49.36Z" transform="translate(-44.56 -11.52)"/><path class="cls-10" d="M232.09,88.21a3.54,3.54,0,0,0,1.08.38,6.31,6.31,0,0,1-.2-1.38,16,16,0,0,1,3.88-10.52c3.41-4.2,7-6.29,9.48-5.14a2.74,2.74,0,0,0-1.66-2.22c-2.49-1.19-6.28,1-9.71,5.21-2.81,3.46-4.33,7-4.38,10.39A3.65,3.65,0,0,0,232.09,88.21Z" transform="translate(-44.56 -11.52)"/><path class="cls-11" d="M179.26,70a.63.63,0,0,0,.42-.84c-.15-.67-.62-2.34-.76-2.74h0a.59.59,0,0,1-.43.81,22.6,22.6,0,0,0-10.3,7.25c-3,4-3.81,8.87-1.8,11.65a4.66,4.66,0,0,0,1.68,1.46,13,13,0,0,1,2.25-11.25C172.94,72.77,175.9,71.43,179.26,70Z" transform="translate(-44.56 -11.52)"/><path class="cls-12" d="M221.83,82.29a15,15,0,0,1-3.57,1.92,10.19,10.19,0,0,1-4.35.92,6.17,6.17,0,0,1-5.36-3A9.05,9.05,0,0,1,207.42,78c0-.14-.19-.39-.39-.07-3.56,5.43-6.88,10.69-10.41,16.21a.83.83,0,0,1-.71.44h-7a.46.46,0,0,1-.48-.29c.19.84.49,2.37.58,2.73a.47.47,0,0,0,.51.36h7.91a.9.9,0,0,0,.71-.44c3.21-5,6.63-10.48,9.91-15.5.72,2.53,1.09,3.72,2.43,4.91A6,6,0,0,0,215,87.9a14,14,0,0,0,5.31-1.48,12,12,0,0,0,1.91-1,15.26,15.26,0,0,1,.26-2.77C222.46,82.54,222.37,81.92,221.83,82.29Z" transform="translate(-44.56 -11.52)"/><path class="cls-13" d="M268.4,80.38a.6.6,0,0,1-.13.35,70.45,70.45,0,0,1-10.75,10.83c-5.59,4.33-11.17,5.42-13.93,2.65a6,6,0,0,1-1.67-3.76c0-.68-.38-.71-.7-.4-3.3,3.27-9,6.88-14.24,4.31a8.74,8.74,0,0,1-4.6-6.57.69.69,0,0,1,0,.1,24.28,24.28,0,0,0,1.67,6.48,7.85,7.85,0,0,0,2.74,2.83c4.62,2.28,11.23-.31,15.47-4.39l.11-.13.47,1.75A6.68,6.68,0,0,0,244,96.71c2.9,3.28,9.06,1.78,15.48-3.18A61.5,61.5,0,0,0,269,84.19c.13-.16.12-.39.05-.74C268.85,82.63,268.56,81.13,268.4,80.38Z" transform="translate(-44.56 -11.52)"/><path class="cls-14" d="M221.77,76.68a6.1,6.1,0,0,0,3-6.1,11,11,0,0,0-1.3-4.56A5.33,5.33,0,0,1,224,69.3a6.32,6.32,0,0,1-3.35,4.83,4.31,4.31,0,0,1-4.82-.53,3.69,3.69,0,0,1-.92-1.31,11.26,11.26,0,0,0,1,3.33C217.26,77.49,219.41,78,221.77,76.68Z" transform="translate(-44.56 -11.52)"/><path class="cls-15" d="M273.69,53.13c-.06-.3-.72-3.46-.78-3.75a.44.44,0,0,1-.06.29c-1.09,1.88-22,33.69-23.3,37a2.4,2.4,0,0,0,0,2.41,2,2,0,0,0,1.77.79,6.6,6.6,0,0,1,.42-1.34c1.32-3.3,20.88-33,22-34.92A.64.64,0,0,0,273.69,53.13Z" transform="translate(-44.56 -11.52)"/><path class="cls-16" d="M186.11,64.48a1.65,1.65,0,0,1,.17.2,13.83,13.83,0,0,1,2,7.23c.08.58.33.59.61.29l.75-.79a22.44,22.44,0,0,0-1.53-4A12.63,12.63,0,0,0,186.11,64.48Z" transform="translate(-44.56 -11.52)"/><path class="cls-17" d="M197.61,73.7c1.46-1.25,3.07-2.06,4.07-1.68.6-1.56.32-2.41-.33-2.83-1-.64-2.94.32-4.59,1.57-4.51,3.42-8.3,8.74-10.22,11.12a65.11,65.11,0,0,1-5.15,6.67c-4.65,5-10.8,7.94-16.74,5.94a10.07,10.07,0,0,1-6.48-6.89c-.18-.63-.53-.8-.86-.39a24.3,24.3,0,0,1-4.56,4.07,1.07,1.07,0,0,1-1,.2,10.3,10.3,0,0,1-1.8-2.37.72.72,0,0,1-.06-.16v0c.42,2.12.48,2.36,1.06,3.33a8.23,8.23,0,0,0,1.44,1.91,1.07,1.07,0,0,0,1-.08,20.12,20.12,0,0,0,4.82-3.9c.32-.31.64-.11.73.22a15.65,15.65,0,0,0,1.83,3.67,7.88,7.88,0,0,0,4.49,3.2,14.13,14.13,0,0,0,9.41-.57,24.66,24.66,0,0,0,8.73-6.24,64.31,64.31,0,0,0,5.15-6.67C190.43,81.48,193.42,77.27,197.61,73.7Z" transform="translate(-44.56 -11.52)"/><path class="cls-18" d="M115.57,82a10.14,10.14,0,0,1,1-6.78,13.8,13.8,0,0,1,5.69-5.78c.89-.57,1.29-1.12.76-2.59-.15-.42-.24-1.18-.4-1.85a1.53,1.53,0,0,1-.85,1.52c-2.53,1.29-5.59,3.5-7.09,6.53a8,8,0,0,0,.4,8.28C115.21,81.56,115.39,81.78,115.57,82Z" transform="translate(-44.56 -11.52)"/><path class="cls-19" d="M133.31,50.26c-.52-3.58,2.16-9.45,9.21-11.78,9.21-3,19.48-1.12,27.74.65,1.15-.72,2.16-1.21,3.17-1.77.51-.27-.07-.58-.22-.58-10.65-2-21.72-4.59-32.3-.67-7.33,2.73-10.54,8.55-9,12.43A3.67,3.67,0,0,0,133.31,50.26Z" transform="translate(-44.56 -11.52)"/><path class="cls-20" d="M161.46,61.62c3.51-.43,6.66-.63,9.76-.92.92-.09,1.62-.17,2,.17a18.54,18.54,0,0,0,3.28,2.64,2,2,0,0,1,1.39.43,1.68,1.68,0,0,0,.91-.46,1.3,1.3,0,0,0,.35-1.24,14.49,14.49,0,0,0-.59-2.71,1.09,1.09,0,0,1-.27,1.18,1.44,1.44,0,0,1-1.12.53,2.36,2.36,0,0,1-1.14-.41,11,11,0,0,1-3.21-2.58c-.29-.37-.44-.38-1.18-.34-3.32.19-8.49.7-12,1.13-.84.11-1,.26-1.15.56-5.59,9.21-11.56,19.16-18.11,25.81-7,7.13-12.87,9-19.07,9.06-7.16,0-13.54-4-15.14-11.14.86,4,3.43,8.78,6.39,10.87A15.92,15.92,0,0,0,122,97.09c7.05.12,13.49-2.78,20.32-9.73,6.55-6.65,12.23-15.94,17.82-25.15C160.33,61.88,160.53,61.74,161.46,61.62Z" transform="translate(-44.56 -11.52)"/><path class="cls-21" d="M150,60.44a14.49,14.49,0,0,0-8.62,3,1.67,1.67,0,0,1-2.37-.25,1.56,1.56,0,0,1-.25-.8,7.58,7.58,0,0,0,.8,3.54,1.83,1.83,0,0,0,2.57.27,15,15,0,0,1,6.23-2.91c.56-.75,1.16-1.6,1.84-2.55a.25.25,0,0,0,0-.22C150.16,60.47,150.1,60.45,150,60.44Z" transform="translate(-44.56 -11.52)"/><path class="cls-22" d="M230.43,34.14a1.86,1.86,0,0,1,.13.21A1,1,0,0,0,230.43,34.14Z" transform="translate(-44.56 -11.52)"/><path class="cls-23" d="M161.43,55.18c-.13.15-.06.29.16.28l2.91-.14c3.45-5.39,7.13-8.49,12.77-12.65.41-.31.84-.54.7-1.74,11.31,2.52,19.92,6.68,34.53,6.72,4.36,0,10.51-1.44,13.81-3.43,3.81-2.29,4.82-4,5-5.74a7.26,7.26,0,0,0-.19-1.81c-.13-.6-.21-1.37-.38-1.94a2.45,2.45,0,0,1,.07.78c-.12,2-1.7,4-5.59,6.13a28.48,28.48,0,0,1-13.9,3.21c-11.7.1-22.61-4.47-33.88-6.92,0,.49.14,1.08-.27,1.39C170.86,43.92,165.22,48.61,161.43,55.18Z" transform="translate(-44.56 -11.52)"/><path class="cls-24" d="M176.66,52a1.92,1.92,0,0,1,1.55-.52c.43-.86.56-1.88,0-2.33a1.6,1.6,0,0,0-2,.1l-.45.41a4.72,4.72,0,0,0-1.29,3.84c.09.48.27.57.48.52a3.91,3.91,0,0,0,.65-.2A2.8,2.8,0,0,1,176.66,52Z" transform="translate(-44.56 -11.52)"/><path class="cls-25" d="M181.37,55.85a6.71,6.71,0,0,0,.6-4.15,10.24,10.24,0,0,0-.84-3.37,5.65,5.65,0,0,1-.35,4.93,7.52,7.52,0,0,1-4.54,3.68s-.36.07-.31.4,1.25,1.14,2,1.67l.27-.09A5.93,5.93,0,0,0,181.37,55.85Z" transform="translate(-44.56 -11.52)"/><path class="cls-26" d="M129.4,59.75a10,10,0,0,0,5.69,1.44c7.51-.26,13.19-6.44,15.08-11.66a7,7,0,0,0-.12-3.94,10.59,10.59,0,0,0-.51-1.92h0a3,3,0,0,1-.2,2.26c-3.09,7.28-9,13-16.21,13.29A9.31,9.31,0,0,1,124,53.85,14.85,14.85,0,0,0,129.4,59.75Z" transform="translate(-44.56 -11.52)"/><path class="cls-27" d="M189,11.52C109.84,11.52,46.37,35.26,46.37,65c0,29.58,64,53.5,142.67,53.5S331.7,94.52,331.7,65,267.7,11.52,189,11.52ZM47.34,65.61c0-6.26,2.73-12.48,8.53-18.34C76.3,26.67,129.81,12.74,188.79,12.5c78.13-.32,141.8,23,141.93,51.93,0,6.25-2.9,12.4-8.7,18.25-20.43,20.6-73.77,34.61-132.75,34.85C111.14,117.86,47.48,94.57,47.34,65.61Zm283.49-4.72c.05.26.09.51.13.78C330.92,61.4,330.87,61.14,330.83,60.89Z" transform="translate(-44.56 -11.52)"/><path class="cls-28" d="M55.56,47C76.1,26.24,129.67,12.3,188.79,12.05q12.29,0,24,.66c-7.74-.49-15.69-.75-23.8-.75C110.16,12,46.8,35.62,46.8,65a20.21,20.21,0,0,0,.45,4.15,20.1,20.1,0,0,1-.34-3.56C46.87,59.27,49.71,52.86,55.56,47Z" transform="translate(-44.56 -11.52)"/><path class="cls-29" d="M322.34,83c-20.47,20.65-74,34.73-133.06,35-8.35,0-16.54-.18-24.5-.67,7.89.51,16,.76,24.26.76,78.43,0,142.22-23.93,142.22-53a20.2,20.2,0,0,0-.29-3.31,19.75,19.75,0,0,1,.2,2.72C331.2,70.78,328.19,77.11,322.34,83Z" transform="translate(-44.56 -11.52)"/><path class="cls-30" d="M189,111.86c-74.35,0-134.62-21-134.62-46.85S114.67,18.15,189,18.15,323.64,39.13,323.64,65,263.37,111.86,189,111.86Zm0-89.65C117.28,22.21,59.13,41.37,59.13,65s58.15,42.8,129.89,42.8S318.92,88.64,318.92,65,260.76,22.21,189,22.21Z" transform="translate(-44.56 -11.52)"/><path class="cls-31" d="M272.85,49.67c.19-.32,0-.56-.42-.56h-7.21c-.54,0-.81.06-1.06.56-.82,1.58-10.9,16.68-12.78,19.62-.31.45-.7.38-.74-.12a6.3,6.3,0,0,0-4.07-4.7,10.39,10.39,0,0,0-5.4-.63A19.28,19.28,0,0,0,232.3,68c-3.92,3-7.29,6.83-11.65,9.68-2.37,1.55-5.63,2.9-7.81.88-2-1.82-1.75-5.89,1.26-9,.32-.33.7-.06.64.24a4,4,0,0,0,1.14,3.82,4.31,4.31,0,0,0,4.82.53A6.32,6.32,0,0,0,224,69.3,5.5,5.5,0,0,0,219,63a10.1,10.1,0,0,0-7.26,2.63,14.06,14.06,0,0,0-2.86,3.14c-.24.36-.63.4-.61-.13.13-4.1-1.58-6.41-5-6.49-2.63-.06-5.45,1.37-7.64,3.11a71.18,71.18,0,0,0-6.76,6.89c-.28.3-.52.29-.61-.29a13.83,13.83,0,0,0-2-7.23,1.67,1.67,0,0,0-2.17-.53,15.74,15.74,0,0,0-2.56,1.52,1.43,1.43,0,0,0-.43,1.62,19,19,0,0,1-.7,12.59c-1.51,3.57-4.46,6.8-7.91,7.88-2.28.73-4.65.37-6.11-1.65-2-2.78-1.2-7.63,1.8-11.65a22.6,22.6,0,0,1,10.3-7.25.59.59,0,0,0,.42-.84c-.2-.63-.54-1.48-.67-1.87-.35-.93-1.33-1.08-2.53-1a21.59,21.59,0,0,0-7.75,2.6c-6.47,3.47-9.72,10.19-11.14,13.77a14.26,14.26,0,0,1-2,3.75,37.7,37.7,0,0,1-4.65,4.51.82.82,0,0,0-.19.95,10.3,10.3,0,0,0,1.8,2.37,1.07,1.07,0,0,0,1-.2,24.3,24.3,0,0,0,4.56-4.07c.34-.41.68-.24.86.39a10.07,10.07,0,0,0,6.48,6.89c5.94,2,12.1-.9,16.74-5.94a65.11,65.11,0,0,0,5.15-6.67c1.92-2.38,5.71-7.7,10.22-11.12,1.65-1.25,3.61-2.21,4.59-1.57.79.51,1,1.7-.22,4-4.6,8.39-11.36,18.26-12.6,20.65-.22.41,0,.74.41.74h7a.83.83,0,0,0,.71-.44c3.52-5.52,6.85-10.78,10.41-16.21.2-.33.38-.07.39.07a9.05,9.05,0,0,0,1.13,4.12,6.17,6.17,0,0,0,5.36,3,10.19,10.19,0,0,0,4.35-.92,15,15,0,0,0,3.57-1.92c.54-.37.63.25.61.34-.82,4.38.19,9.58,4.55,11.74,5.21,2.57,10.95-1,14.24-4.31.32-.32.67-.28.7.4a6,6,0,0,0,1.67,3.76c2.76,2.77,8.33,1.67,13.93-2.65a70.45,70.45,0,0,0,10.75-10.83.49.49,0,0,0,0-.68c-.52-.54-1.26-1.16-1.78-1.63a.63.63,0,0,0-.77,0c-3.48,3.31-6.62,7.08-11.14,10.2-1.53,1.07-4,1.92-5.05.44a2.4,2.4,0,0,1,0-2.41C250.87,83.36,271.76,51.55,272.85,49.67ZM245.23,76.35c0,.24.36.49.67.59.1,0,.17.12,0,.38A30.3,30.3,0,0,1,243.12,82a17.49,17.49,0,0,1-3.57,3.87c-2.11,1.74-5,3.64-7.46,2.36a3.65,3.65,0,0,1-1.51-3.28c.05-3.42,1.57-6.94,4.38-10.39,3.43-4.22,7.22-6.41,9.71-5.21s1.75,4.21.6,6.55A.61.61,0,0,0,245.23,76.35Z" transform="translate(-44.56 -11.52)"/><path class="cls-32" d="M121.28,94.46c-7.79.05-14.65-4.76-15.44-13.1a16.82,16.82,0,0,1,3.48-12.13,17.23,17.23,0,0,1,9.56-6.14c1.08-.2,2.54-.08,3.13.64.94,1.09.67,2.3-.27,2.79-2.53,1.29-5.59,3.5-7.09,6.53a8,8,0,0,0,.4,8.28c3.13,4.72,11.85,4.85,20-2.68a68.67,68.67,0,0,0,5.63-5.71,126.45,126.45,0,0,0,9.51-12.16.25.25,0,0,0,0-.22c0-.09-.1-.11-.25-.12a14.49,14.49,0,0,0-8.62,3,1.67,1.67,0,0,1-2.37-.25,1.9,1.9,0,0,1,.74-2.55c4.32-3,9-3.55,13.86-4.36a.8.8,0,0,0,.61-.35c2-2.54,3.47-4.83,5.58-7.4a55.43,55.43,0,0,1,7-6.79,31.14,31.14,0,0,1,6.71-4.4c.51-.27-.07-.58-.22-.58-10.65-2-21.72-4.59-32.3-.67-7.33,2.73-10.54,8.55-9,12.43,1.09,2.75,4.72,3.2,8.11,1.54a18.37,18.37,0,0,0,7.27-6.47c1-1.59,3.21-.45,2,2.31-3.09,7.28-9,13-16.21,13.29-6.13.2-10.09-4.31-10.08-9.87,0-11,12.24-18.21,25.08-19.29,15.46-1.28,30.12,2.84,45.47,4.7,11.77,1.42,23,1.46,34.87-1.26a1.78,1.78,0,0,1,2.29,2c-.12,2-1.7,4-5.59,6.13a28.48,28.48,0,0,1-13.9,3.21c-11.7.1-22.61-4.47-33.88-6.92,0,.49.14,1.08-.27,1.39-6.25,4.61-11.89,9.29-15.68,15.86-.13.15-.06.29.16.28,3.28-.17,6.24-.25,9.3-.49.53,0,.56-.19.51-.58a7.64,7.64,0,0,1,2.38-6.62c2-1.83,4.6-2,6.29-.72,1.92,1.5,1.75,4.19.7,6.22a7.52,7.52,0,0,1-4.54,3.68s-.36.07-.31.4c.07.52,2.38,1.8,2.58,2.15a1.07,1.07,0,0,1-.26,1.21,1.44,1.44,0,0,1-1.12.53,2.36,2.36,0,0,1-1.14-.41,11,11,0,0,1-3.21-2.58c-.29-.37-.44-.38-1.18-.34-3.32.19-8.49.7-12,1.13-.84.11-1,.26-1.15.56-5.59,9.21-11.56,19.16-18.11,25.81C133.33,92.53,127.48,94.41,121.28,94.46Zm53.25-41c.09.48.27.57.48.52a5.17,5.17,0,0,0,2.93-2.1c.62-.92.92-2.26.3-2.78a1.65,1.65,0,0,0-2.13.25,4.75,4.75,0,0,0-1.57,4.11h0" transform="translate(-44.56 -11.52)"/><path class="cls-33" d="M44.56,132.42h5.6l5.26,13.25,5.26-13.25h5.58v19.4H62.08v-13l-5.21,13H53.62l-5.18-12.88v12.88H44.56Z" transform="translate(-44.56 -11.52)"/><path class="cls-33" d="M68.42,131.89h4.14v3.75H68.42Zm0,5.11h4.08v14.82H68.44Z" transform="translate(-44.56 -11.52)"/><path class="cls-33" d="M74.2,144.33c0-4.24,1.39-7.67,6.57-7.67,2.7,0,4,.6,4.61,1.39V131.5H89.5v20.16l-3.14.29-.42-1.49c-.89,1-2.44,1.65-5.29,1.65C75.54,152.11,74.2,148.6,74.2,144.33Zm11.18,0c0-2.8-.79-4-3.77-4-2.7,0-3.25,1.62-3.25,4s.55,4.24,3.25,4.24S85.38,147.19,85.38,144.33Z" transform="translate(-44.56 -11.52)"/><path class="cls-33" d="M90.83,137h4.32l2.72,9,2.83-9h4.06l2.83,9,2.72-9h4.14l-4.82,15h-3.93l-3.06-9.53L99.58,152h-3.9Z" transform="translate(-44.56 -11.52)"/><path class="cls-33" d="M114.56,144.38c0-4.14,1.36-7.73,7.7-7.73,6.52,0,6.73,4.35,6.6,9.3H118.54c.24,1.78,1.1,2.83,3.74,2.83a7.16,7.16,0,0,0,4.66-1.36l2.07,2.67a10.11,10.11,0,0,1-6.73,2C115.87,152.11,114.56,148.6,114.56,144.38Zm4-1.36h6.57c-.1-1.7-.45-2.93-3-2.93S118.75,141.22,118.54,143Z" transform="translate(-44.56 -11.52)"/><path class="cls-33" d="M130.06,150.2l2.09-3a10.2,10.2,0,0,0,5.24,1.54c2.07,0,2.67-.21,2.67-1.23,0-.86-.6-1-2.62-1.31-3.67-.5-6.47-1-6.47-4.9,0-3,1.78-4.63,6.47-4.63a13.25,13.25,0,0,1,6.26,1.36l-2,3.19a9.67,9.67,0,0,0-4.16-1c-2.09,0-2.51.37-2.51,1.07s.52,1,2.44,1.28c3.77.52,6.57,1,6.57,4.66,0,3.4-1.83,4.79-6.94,4.79A12.71,12.71,0,0,1,130.06,150.2Z" transform="translate(-44.56 -11.52)"/><path class="cls-33" d="M144.73,137h2.62l.71-3.61,3.19-.66V137h3.51v3.51h-3.51v6.1c0,1.15.16,1.78,1.91,1.78h1.6v3.43c-.6.05-1.7.05-2.44.05-4,0-5.16-1.36-5.16-4.66v-6.7h-2.44Z" transform="translate(-44.56 -11.52)"/><path class="cls-33" d="M163.5,132.42h14.11v3.87H167.8v4.16h9.56v3.82H167.8v7.54H163.5Z" transform="translate(-44.56 -11.52)"/><path class="cls-33" d="M179.56,144.38c0-5,2.17-7.73,7.75-7.73s7.73,2.75,7.73,7.73-2.15,7.72-7.73,7.72S179.56,149.36,179.56,144.38Zm11.36.1c0-2.51-.79-4.08-3.61-4.08s-3.61,1.57-3.61,4.08.76,4.11,3.61,4.11S190.92,147,190.92,144.49Z" transform="translate(-44.56 -11.52)"/><path class="cls-33" d="M197.57,137.24l3.2-.24.42,1.62c.63-.94,2.44-1.7,4.74-1.78v3.93c-3.48,0-4.24,1.39-4.24,3.72v7.33h-4.11Z" transform="translate(-44.56 -11.52)"/><path class="cls-33" d="M207.13,144.33c0-4.24,1.39-7.67,6.57-7.67,2.7,0,4,.6,4.61,1.39V131.5h4.11v20.16l-3.14.29-.42-1.49c-.89,1-2.44,1.65-5.29,1.65C208.47,152.11,207.13,148.6,207.13,144.33Zm11.18,0c0-2.8-.79-4-3.77-4-2.7,0-3.25,1.62-3.25,4s.55,4.24,3.25,4.24S218.31,147.19,218.31,144.33Z" transform="translate(-44.56 -11.52)"/><path class="cls-33" d="M231.62,132.42h7c7.64,0,10.81,2,10.81,9.69s-3.27,9.72-10.92,9.72h-6.86Zm7.1,15.66c5.29,0,6.36-1.6,6.36-6s-.89-5.84-6.44-5.84h-2.72v11.81Z" transform="translate(-44.56 -11.52)"/><path class="cls-33" d="M251.18,144.38c0-4.14,1.36-7.73,7.7-7.73,6.52,0,6.73,4.35,6.6,9.3H255.16c.24,1.78,1.1,2.83,3.75,2.83a7.16,7.16,0,0,0,4.66-1.36l2.07,2.67a10.12,10.12,0,0,1-6.73,2C252.49,152.11,251.18,148.6,251.18,144.38Zm4-1.36h6.57c-.1-1.7-.45-2.93-3-2.93S255.37,141.22,255.16,143Z" transform="translate(-44.56 -11.52)"/><path class="cls-33" d="M267,147.48c0-4.19,2.93-5.19,9.51-5.19h.6c0-1.34-.37-2-2.93-2a8.54,8.54,0,0,0-4.29,1.21l-2-3a13.24,13.24,0,0,1,6.78-1.81c5.34,0,6.44,1.7,6.44,5.89v4.5c0,1.18.08,1.36,1.28,1.36v3.35a8,8,0,0,1-1.73.1c-1.57,0-2.25-.31-2.83-1.47-.76,1-2.41,1.65-5.21,1.65C268,152.06,267,150.07,267,147.48Zm10.11-1.81v-.55h-.34c-5.24,0-5.87.42-5.87,2,0,1.1.6,1.62,2.49,1.62C276,148.76,277.11,147.84,277.11,145.67Z" transform="translate(-44.56 -11.52)"/><path class="cls-33" d="M285,147.34V131.5h4.08v15.35c0,1.2.24,1.54,1.47,1.54h.5v3.38a16.3,16.3,0,0,1-2,.1C286.4,151.87,285,150.85,285,147.34Z" transform="translate(-44.56 -11.52)"/><path class="cls-33" d="M292.4,144.38c0-4.14,1.36-7.73,7.7-7.73,6.52,0,6.73,4.35,6.6,9.3H296.38c.24,1.78,1.1,2.83,3.74,2.83a7.16,7.16,0,0,0,4.66-1.36l2.07,2.67a10.11,10.11,0,0,1-6.73,2C293.71,152.11,292.4,148.6,292.4,144.38Zm4-1.36H303c-.1-1.7-.44-2.93-3-2.93S296.59,141.22,296.38,143Z" transform="translate(-44.56 -11.52)"/><path class="cls-33" d="M309.32,137.24l3.19-.24.42,1.62c.63-.94,2.44-1.7,4.74-1.78v3.93c-3.48,0-4.24,1.39-4.24,3.72v7.33h-4.11Z" transform="translate(-44.56 -11.52)"/><path class="cls-33" d="M318.25,150.2l2.1-3a10.2,10.2,0,0,0,5.24,1.54c2.07,0,2.67-.21,2.67-1.23,0-.86-.6-1-2.62-1.31-3.67-.5-6.47-1-6.47-4.9,0-3,1.78-4.63,6.47-4.63a13.24,13.24,0,0,1,6.26,1.36l-2,3.19a9.66,9.66,0,0,0-4.16-1c-2.09,0-2.51.37-2.51,1.07s.52,1,2.44,1.28c3.77.52,6.57,1,6.57,4.66,0,3.4-1.83,4.79-6.94,4.79A12.71,12.71,0,0,1,318.25,150.2Z" transform="translate(-44.56 -11.52)"/></svg>